<svg xmlns="http://www.w3.org/2000/svg" xmlns:xlink="http://www.w3.org/1999/xlink" xmlns:inkscape="http://www.inkscape.org/namespaces/inkscape" version="1.1" width="410.53" height="205.46" viewBox="0 0 410.53 205.46">
<defs>
<path id="font_1_6" d="M.6539917 .67807009C.6569977 .68907168 .6569977 .69107058 .6569977 .69407656 .6569977 .69506838 .6559906 .7050781 .644989 .7050781 .6399994 .7050781 .6389923 .70407107 .6269989 .6900635 .61299136 .6750641 .625 .6880646 .57899478 .6340332 .5419922 .6900635 .48399354 .7050781 .43099977 .7050781 .3019867 .7050781 .17999268 .58999636 .17999268 .46990968 .17999268 .42886354 .19299317 .39483644 .21899414 .3668213 .24798584 .336792 .272995 .3307953 .34498597 .31178285L.42900086 .29075624C.46099855 .27975465 .49398805 .24871826 .49398805 .19168091 .49398805 .1026001 .40899659 .008529663 .30899049 .008529663 .25 .008529663 .1309967 .026550293 .1309967 .15464783 .1309967 .16365052 .1309967 .17866516 .13699341 .20869446 .13899231 .21269226 .13899231 .21469116 .13899231 .21569824 .13899231 .21969605 .13699341 .22669983 .125 .22669983 .11299133 .22669983 .11199951 .2217102 .10798645 .20469666L.054992677-.011474609C.054992677-.017471314 .05999756-.022460938 .066986087-.022460938 .07199097-.022460938 .07299805-.021469117 .085998538-.007461548 .09199524-.00047302247 .12098694 .03555298 .1329956 .048568727 .18499756-.018463135 .2769928-.022460938 .30699159-.022460938 .44499208-.022460938 .5649872 .10661316 .5649872 .23271179 .5649872 .35681153 .46699525 .38183595 .43598939 .38883973L.34498597 .41285707C.31199647 .42086793 .25099183 .4368744 .25099183 .51293948 .25099183 .5890045 .33099366 .677063 .43099977 .677063 .47099305 .677063 .5099945 .6660614 .5379944 .63804629 .57598879 .6010132 .57699587 .54696658 .57699587 .5209503 .57699587 .48791505 .57299807 .47691346 .57299807 .4689026 .57299807 .46089173 .57699587 .45588685 .58699038 .45588685 .59799197 .45588685 .59799197 .457901 .6029968 .47691346L.6539917 .67807009Z"/>
<path id="font_1_5" d="M.30899049 .31378175H.47599793C.6380005 .31378175 .769989 .42474366 .769989 .5306854 .769989 .6096344 .69898989 .6826172 .56799319 .6826172H.23799134C.21998596 .6826172 .20799256 .6826172 .20799256 .6646118 .20799256 .6516113 .21699524 .6516113 .23799134 .6516113 .24198914 .6516113 .2599945 .6516113 .27598573 .6496124 .29299928 .6476135 .2999878 .6456146 .2999878 .63461306 .2999878 .6296234 .29899598 .6256256 .29599 .614624L.16099549 .07595825C.1519928 .039993287 .1499939 .0309906 .07499695 .0309906 .055999757 .0309906 .04499817 .0309906 .04499817 .0129852299 .04499817 .0019989014 .052993776 0 .05999756 0 .07899475 0 .10398865 .0009918213 .12298584 .0019989014 .15299988 .0029907227 .15499878 .0029907227 .18699646 .0029907227 .21899414 .0029907227 .22099304 .0029907227 .25099183 .0019989014 .2709961 .0009918213 .29699708 0 .31599427 0 .32299806 0 .33599855 0 .33599855 .017990113 .33599855 .0309906 .32598878 .0309906 .30499269 .0309906 .30099488 .0309906 .2829895 .0309906 .2669983 .032989503 .24499512 .035995485 .24398804 .039993287 .24398804 .048980714 .24398804 .051971437 .24398804 .053970338 .24899292 .07196045L.30899049 .31378175M.3809967 .6126251C.3899994 .64860537 .3919983 .6516113 .43399049 .6516113H.5349884C.61299136 .6516113 .6749878 .6276245 .6749878 .55467227 .6749878 .53367617 .6639862 .43972779 .6119995 .39175416 .58999636 .37176515 .5439911 .34179688 .45799256 .34179688H.31298829L.3809967 .6126251Z"/>
<path id="font_2_97" d="M.5130005 .19059754C.5130005 .3036499 .41999818 .37768556 .34498597 .39569093L.24398804 .41970826C.19299317 .43171693 .14199829 .47172547 .14199829 .52975466 .14199829 .586792 .19699097 .6448059 .28799439 .6448059 .3600006 .6448059 .4099884 .6238098 .46199037 .5797882L.47799684 .6668091C.42799378 .69181826 .37998963 .7158203 .2889862 .7158203 .14698792 .7158203 .056991579 .61680606 .056991579 .51675418 .056991579 .491745 .06199646 .4517212 .09599304 .40570069 .14199829 .3456726 .20698548 .33065797 .24798584 .32066346L.33198548 .2996521C.37799073 .28564454 .42799378 .24162293 .42799378 .17959595 .42799378 .11355591 .37098695 .05152893 .28199769 .05152893 .20098877 .05152893 .125 .08255005 .06199646 .13357544L.04598999 .046524049C.14399719-.014465332 .23498535-.022460938 .28199769-.022460938 .4189911-.022460938 .5130005 .07954407 .5130005 .19059754Z"/>
<path id="font_2_105" d="M.34199525 .026245118 .32499696 .089263919C.29899598 .06925964 .2639923 .057250978 .23298645 .057250978 .19400025 .057250978 .18099976 .09225464 .18099976 .14427185V.38232423H.32499696V.44433595H.18099976V.57128909H.10699463V.44433595H.018997193V.38232423H.10398865V.12626648C.10398865 .06724548 .116989139-.0107421879 .18998719-.0107421879 .23399353-.0107421879 .28599549-.0017547608 .34199525 .026245118Z"/>
<path id="font_2_96" d="M.33599855 .38305665V.45507813C.2639923 .45407105 .19799805 .4180603 .15699768 .35905458V.45007325H.08299255V0H.16299439V.21302796C.16299439 .31803895 .24499512 .38204957 .33599855 .38305665Z"/>
<path id="font_2_28" d="M.42199708 .00024414063V.28903199C.42199708 .38793946 .34899903 .4609375 .25 .4609375 .18499756 .4609375 .13699341 .44392396 .08898926 .41693116L.09498596 .34597779C.14498902 .38294984 .19400025 .39793397 .24899292 .39793397 .30499269 .39793397 .33898927 .3529663 .33898927 .2880249V.24606323C.16699219 .24206543 .053985597 .19706726 .053985597 .11616516 .053985597 .069229129 .084991458-.0107421879 .17199707-.0107421879 .19198609-.0107421879 .2789917-.008743286 .34199525 .038253786V.00024414063H.42199708M.33898927 .14013672C.33898927 .119155887 .33898927 .094192508 .30299378 .07322693 .27799989 .058242799 .24499512 .054244996 .22499085 .054244996 .17399597 .054244996 .1309967 .07821655 .1309967 .11816406 .1309967 .18907166 .32598878 .19206238 .33898927 .19206238V.14013672Z"/>
<path id="font_2_66" d="M.1619873 0V.44433595H.08198547V0H.1619873M.17098999 .5631714V.6591797H.07499695V.5631714H.17098999Z"/>
<path id="font_2_59" d="M.49899293 .38806153 .4869995 .45507813C.46798707 .45507813 .40098573 .45507813 .32699586 .4230652 .31199647 .43406678 .2749939 .45507813 .22799683 .45507813 .13598633 .45507813 .06298828 .38006593 .06298828 .2919922 .06298828 .26698304 .068984989 .22994995 .09700012 .19091797 .07798767 .16592407 .067993167 .1359253 .067993167 .107925418 .067993167 .07992554 .07798767 .05192566 .09298706 .032928468 .040985109-.000061035159 .0289917-.043060304 .0289917-.07106018 .0289917-.14405823 .1269989-.20605469 .2559967-.20605469 .3849945-.20552063 .48399354-.14451599 .48399354-.06951904 .48399354 .069107059 .31799317 .07110596 .27398683 .07110596H.18199158C.16899109 .07110596 .12399292 .07110596 .12399292 .12294006 .12399292 .14292908 .12799073 .14892578 .1329956 .15692139 .1599884 .13891602 .19400025 .12792969 .22799683 .12792969 .31999208 .12792969 .3929901 .20292664 .3929901 .29092408 .3929901 .32492066 .3829956 .35292054 .36698915 .3799286 .36299134 .3849182 .36299134 .3869171 .36299134 .3869171 .36299134 .39207459 .4119873 .39207459 .4249878 .39207459 .43299867 .39207459 .46998597 .39207459 .49899293 .38806153M.31900025 .2919922C.31900025 .2109375 .2679901 .18792725 .22799683 .18792725 .18199158 .18792725 .13699341 .21694947 .13699341 .29100038 .13699341 .3720703 .18798828 .3950653 .22799683 .3950653 .27398683 .3950653 .31900025 .3660736 .31900025 .29208375V.2919922M.4099884-.070510867C.4099884-.11451721 .33699037-.14550781 .25698854-.14550781 .1789856-.14550781 .102996829-.11651611 .102996829-.06951904 .102996829-.06951904 .102996829-.0048828127 .17999268-.0048828127H.27398683C.29499818-.0048828127 .4099884-.0048828127 .4099884-.070510867Z"/>
<path id="font_2_63" d="M.44898988 0V.2970581C.44898988 .37106324 .42900086 .45507813 .30799867 .45507813 .25099183 .45507813 .19699097 .42807008 .16099549 .3830719V.69433596H.08099365V0H.1639862V.24403382C.1639862 .3100586 .18998719 .39007569 .2659912 .39007569 .3659973 .39007569 .3659973 .31906129 .3659973 .29005433V0H.44898988Z"/>
<path id="font_2_84" d="M.49398805 .22315979C.49398805 .34309388 .43099977 .45507813 .33399964 .45507813 .30599977 .45507813 .23199463 .45007325 .16299439 .3960724V.44407655H.08299255V-.19335938H.1659851V.04624939C.20298767 .011245728 .25299073-.0107421879 .30499269-.0107421879 .4059906-.0107421879 .49398805 .08822632 .49398805 .22315979M.41099549 .22216797C.41099549 .12620545 .34098817 .054244996 .2630005 .054244996 .23098755 .054244996 .19499207 .06724548 .1659851 .11621094V.33210755C.1789856 .35009767 .21598816 .3870697 .272995 .3870697 .34799195 .3870697 .41099549 .31611634 .41099549 .22216797Z"/>
<path id="font_3_111" d="M.69200137 .69433596H.6049957L.47898866 .3871765C.47200013 .37016297 .37298585 .12905884 .3639984 .07902527H.36299134C.35299684 .13005066 .25299073 .37217713 .24899292 .38217164L.12098694 .69433596H.01499939L.30299378 0H.4039917L.69200137 .69433596Z"/>
<path id="font_3_66" d="M.16799927 0V.44433595H.083999637V0H.16799927M.1769867 .5601196V.6611328H.07598877V.5601196H.1769867Z"/>
<path id="font_3_96" d="M.34700013 .38008119V.45410157C.2630005 .45309449 .20199585 .41207887 .1619873 .35906983V.45109559H.084991458V0H.16899109V.21304322C.16899109 .32106019 .25898744 .3790741 .34700013 .38008119Z"/>
<path id="font_3_105" d="M.35398866 .026916504 .33699037 .090927127C.3039856 .06692505 .2689972 .058929445 .24099732 .058929445 .19898987 .058929445 .18798828 .09991455 .18798828 .14595032V.3813324H.33599855V.44433595H.18798828V.57128909H.11099243V.44433595H.019989014V.3813324H.10798645V.12792969C.10798645 .06123352 .125-.009765625 .19699097-.009765625 .2689972-.009765625 .32398988 .01322937 .35398866 .02722168V.026916504Z"/>
<path id="font_3_109" d="M.46499635 .00022888184V.44433595H.37799073V.1542511C.37799073 .07423401 .30999757 .049224855 .2519989 .049224855 .17799378 .049224855 .16999817 .069229129 .16999817 .115249637V.44433595H.08299255V.10923767C.08299255 .020233155 .12199402-.009765625 .19198609-.009765625 .23298645-.009765625 .32099916-.0017700195 .3809967 .04623413V.00022888184H.46499635Z"/>
<path id="font_3_28" d="M.43598939 .00022888184V.28799439C.43598939 .38998414 .35798646 .45898438 .25898744 .45898438 .19599915 .45898438 .147995 .4459839 .09199524 .41596986L.09799194 .34298707C.1309967 .36497499 .17999268 .39497376 .25898744 .39497376 .30299378 .39497376 .34899903 .36198426 .34899903 .2869873V.24699402C.20098877 .24198914 .054992677 .21099854 .054992677 .118118289 .054992677 .06820679 .08898926-.009765625 .1769867-.009765625 .21998596-.009765625 .29899598-.00077819827 .35198976 .038223268V.00022888184H.43598939M.34899903 .14207459C.34899903 .12211609 .34899903 .09616089 .31399537 .07519531 .28199769 .05722046 .24299622 .056228639 .23199463 .056228639 .1769867 .056228639 .1349945 .08117676 .1349945 .11911011 .1349945 .18299866 .3039856 .18899536 .34899903 .19099427V.14207459Z"/>
<path id="font_3_72" d="M.16799927 0V.69433596H.083999637V0H.16799927Z"/>
<path id="font_3_85" d="M.35299684-.25C.34999085-.2480011 .25299073-.16500855 .20698548-.009002686 .18299866 .069000247 .17098999 .15098572 .17098999 .25 .17098999 .59599307 .33299256 .7330017 .35299684 .75H.30499269C.28799439 .75 .28599549 .75 .27398683 .7389984 .147995 .6289978 .083999637 .45098878 .083999637 .25 .083999637 .06098938 .14099121-.1210022 .272995-.23701477 .28599549-.25 .28799439-.25 .30499269-.25H.35299684Z"/>
<path id="font_3_47" d="M.46299745 .00022888184V.69433596H.3789978V.40109254C.31498719 .4480896 .25 .45410157 .22099304 .45410157 .115997318 .45410157 .035995485 .34910584 .035995485 .22216797 .035995485 .095214847 .114990238-.009765625 .21798706-.009765625 .27999879-.009765625 .33799745 .018234253 .37599183 .052230836V.00022888184H.46299745M.37599183 .12420654C.35099793 .083221439 .31298829 .056228639 .2649994 .056228639 .19499207 .056228639 .12298584 .10520935 .12298584 .22116089 .12298584 .3461151 .20799256 .38809205 .27598573 .38809205 .31599427 .38809205 .34999085 .37109376 .37599183 .33711244V.12420654Z"/>
<path id="font_3_50" d="M.43998719 .21928406C.43998719 .2652893 .43499757 .33213807 .3959961 .3889923 .3600006 .43997193 .2999878 .45898438 .25099183 .45898438 .1289978 .45898438 .034988405 .35209657 .034988405 .22529602 .034988405 .09724426 .1349945-.009765625 .2669983-.009765625 .32499696-.009765625 .3849945 .007232666 .43598939 .038223268L.42999269 .10925293C.37399293 .069229129 .31098939 .056228639 .2679901 .056228639 .18099976 .056228639 .114990238 .1272583 .11199951 .21928406H.43998719M.3789978 .27929688H.11898804C.14199829 .35906983 .20098877 .39297486 .25099183 .39297486 .29499818 .39297486 .3600006 .3720398 .3789978 .27929688Z"/>
<path id="font_3_112" d="M.47399903 .44433595H.3939972C.25698854 .109069827 .25099183 .08206177 .24699402 .059036256H.24598694C.23799134 .09806824 .20999146 .16812134 .1789856 .24517823L.09899902 .44433595H.01499939L.19799805 0H.29100038L.47399903 .44433595Z"/>
<path id="font_3_86" d="M.32798768 .25C.32798768 .43899537 .2709961 .62098696 .13899231 .7369995 .12599182 .75 .12399292 .75 .10699463 .75H.05899048C.06199646 .7480011 .15899658 .6649933 .20498657 .5089874 .22898865 .43099977 .24099732 .34899903 .24099732 .25 .24099732-.0960083 .07899475-.23300171 .05899048-.25H.10699463C.12399292-.25 .12599182-.25 .13798523-.23901367 .2639923-.12901306 .32798768 .04899597 .32798768 .25Z"/>
<path id="font_3_84" d="M.5119934 .22315979C.5119934 .34310914 .44599916 .45410157 .34700013 .45410157 .3019867 .45410157 .22698975 .44110108 .16899109 .39608766V.4440918H.084991458V-.19335938H.17199707V.047225954C.22499085-.00077819827 .28199769-.009765625 .31599427-.009765625 .42199708-.009765625 .5119934 .09121704 .5119934 .22315979M.4249878 .22315979C.4249878 .12420654 .34999085 .056228639 .27198792 .056228639 .25698854 .056228639 .23199463 .05822754 .20599365 .07922363 .17599488 .10220337 .17199707 .11720276 .17199707 .13619995V.3321228C.19499207 .36010743 .23399353 .38510133 .28199769 .38510133 .3619995 .38510133 .4249878 .3111267 .4249878 .22315979Z"/>
<path id="font_3_63" d="M.46499635 0V.29606629C.46499635 .37408448 .44198609 .45410157 .31900025 .45410157 .23298645 .45410157 .18699646 .4040985 .16699219 .38308717V.69433596H.08299255V0H.16999817V.24305725C.16999817 .30906678 .19799805 .38809205 .2749939 .38809205 .37799073 .38809205 .37799073 .31806947 .37799073 .2890625V0H.46499635Z"/>
<path id="font_3_98" d="M.3829956 .1301117C.3829956 .14808655 .3809967 .18702698 .33898927 .22496033 .3019867 .25790406 .2659912 .26489259 .21798706 .27388 .15899658 .2848816 .11299133 .29388429 .11299133 .33789063 .11299133 .39497376 .18598938 .39497376 .20098877 .39497376 .2579956 .39497376 .3019867 .38294984 .35198976 .35691834L.36499024 .42797853C.29699708 .4559784 .24699402 .45898438 .21099854 .45898438 .18598938 .45898438 .034988405 .45898438 .034988405 .32588197 .034988405 .2788849 .06098938 .25291444 .07398987 .24093628 .10899353 .20599365 .15098572 .19799805 .20399475 .1880188 .25099183 .17903137 .30499269 .16905213 .30499269 .12112427 .30499269 .05822754 .22200012 .05822754 .20799256 .05822754 .14399719 .05822754 .083999637 .08119202 .04399109 .10914612L.02999878 .034225465C.06399536 .017227173 .125-.009765625 .20799256-.009765625 .25299073-.009765625 .29699708-.0027770997 .33399964 .024230957 .37098695 .052230836 .3829956 .09616089 .3829956 .1301117Z"/>
<path id="font_2_81" d="M.48298646 .22009278C.48298646 .3509674 .3829956 .4609375 .2559967 .4609375 .13198853 .4609375 .02999878 .3529663 .02999878 .22009278 .02999878 .08822632 .1349945-.0107421879 .2559967-.0107421879 .37998963-.0107421879 .48298646 .09022522 .48298646 .22009278M.3999939 .23008728C.3999939 .11419678 .32998658 .057250978 .25698854 .057250978 .17999268 .057250978 .11299133 .1171875 .11299133 .23008728 .11299133 .3469696 .18798828 .39593507 .2559967 .39593507 .32798768 .39593507 .3999939 .3449707 .3999939 .23008728Z"/>
<path id="font_2_64" d="M.2849884 .19091797V.2529297H.010986328V.19091797H.2849884Z"/>
<path id="font_2_114" d="M.68699648 .44433595H.6100006C.58699038 .37226869 .5049896 .11607361 .49798585 .056030275H.49699403C.4909973 .09806824 .46998597 .16612244 .45298768 .22216797L.38398744 .44433595H.30999757C.27799989 .34625245 .20698548 .12208557 .20298767 .059036256H.20199585C.19898987 .096069339 .17298889 .18713379 .1539917 .24917603L.09399414 .44433595H.01399231L.15499878 0H.23799134L.2979889 .19314575C.31900025 .26419068 .34298707 .34425355 .34599305 .38728334H.34700013C.34899903 .36827088 .35798646 .3292389 .3600006 .31922914 .37098695 .27520753 .37098695 .27319337 .3789978 .24717713L.45498658 0H.54599L.68699648 .44433595Z"/>
<path id="font_2_112" d="M.45899964 .44433595H.37998963C.33699037 .33424378 .33599855 .33325196 .30099488 .24118042 .2809906 .18913269 .24398804 .092056278 .23899842 .055038454H.23699951C.23498535 .072052 .23199463 .09106445 .1769867 .23516846L.09599304 .44433595H.01399231L.18998719 0H.2829895L.45899964 .44433595Z"/>
<path id="font_2_50" d="M.4269867 .21931458C.4269867 .25030519 .42599488 .32615663 .3869934 .3859558 .34498597 .44892884 .2809906 .4609375 .24299622 .4609375 .1269989 .4609375 .034988405 .35406495 .034988405 .22631836 .034988405 .0942688 .1329956-.0107421879 .2579956-.0107421879 .30599977-.0107421879 .3639984 .0012512207 .42199708 .038253786L.41600038 .10726929C.35299684 .06225586 .2939911 .054244996 .25898744 .054244996 .17599488 .054244996 .11199951 .12727356 .10899353 .21931458H.4269867M.36698915 .2783203H.114990238C.1309967 .34210206 .17999268 .39593507 .24299622 .39593507 .27999879 .39593507 .34799195 .37898255 .36698915 .2783203Z"/>
<path id="font_2_72" d="M.1619873 0V.69433596H.08198547V0H.1619873Z"/>
<path id="font_2_77" d="M.44898988 0V.2970581C.44898988 .37106324 .42900086 .45507813 .30799867 .45507813 .22898865 .45507813 .18099976 .40907289 .1579895 .3790741V.45007325H.08099365V0H.1639862V.24403382C.1639862 .3100586 .18998719 .39007569 .2659912 .39007569 .3659973 .39007569 .3659973 .31906129 .3659973 .29005433V0H.44898988Z"/>
<path id="font_2_75" d="M.73399356 0V.2970581C.73399356 .37106324 .71398928 .45507813 .59298709 .45507813 .5089874 .45507813 .46199037 .404068 .43798829 .37306214 .43099977 .3930664 .4099884 .45507813 .30799867 .45507813 .22898865 .45507813 .18099976 .40907289 .1579895 .3790741V.45007325H.08099365V0H.1639862V.24403382C.1639862 .3100586 .18998719 .39007569 .2659912 .39007569 .3659973 .39007569 .3659973 .31906129 .3659973 .29005433V0H.44898988V.24403382C.44898988 .3100586 .47499085 .39007569 .5509949 .39007569 .651001 .39007569 .651001 .31906129 .651001 .29005433V0H.73399356Z"/>
<path id="font_2_44" d="M.18499756 .35832215V.44433595H.09899902V.35832215H.18499756M.18499756 0V.085998538H.09899902V0H.18499756Z"/>
<path id="font_1_2" d="M.3659973 .28930665C.42399598 .14030457 .46199037 .028305054 .47099305 .015304565 .4909973-.010696411 .49899293-.010696411 .5289917-.010696411H.5519867C.5589905-.00970459 .56399539-.0066986086 .56399539 .000289917 .56399539 .0052948 .56199648 .007293701 .55799868 .011291504 .54599 .024291993 .54100039 .03729248 .5349884 .05430603L.32199098 .6263275C.29899598 .68733218 .23298645 .69433596 .19699097 .69433596 .18798828 .69433596 .1749878 .69433596 .1749878 .68133547 .1749878 .6713257 .18299866 .67033389 .19400025 .6693268 .22399903 .6643219 .23599243 .636322 .25099183 .59931948L.35398866 .3223114 .07199097 .05029297C.06199646 .040298463 .053985597 .033294679 .053985597 .018295289 .053985597-.0027008057 .07199097-.0126953129 .085998538-.0126953129 .102996829-.0126953129 .114990238 .0023040772 .11898804 .00630188L.3659973 .28930665Z"/>
<path id="font_4_1" d="M.6349945 .5350647C.647995 .5420685 .6559906 .5470581 .6559906 .5590668 .6559906 .57307437 .6439972 .5800781 .6349945 .5800781 .6289978 .5800781 .6269989 .57907107 .6159973 .57307437L.07598877 .27297975C.06199646 .26498414 .056991579 .26298524 .056991579 .24998474 .056991579 .23797608 .06599426 .23197937 .07398987 .22796631L.61499026-.07211304C.6269989-.07910156 .6309967-.07910156 .6349945-.07910156 .647995-.07910156 .6559906-.068115238 .6559906-.05810547 .6559906-.04611206 .6499939-.04310608 .6359863-.035095216L.12298584 .24998474 .6349945 .5350647M.94898989 .5350647C.96199038 .5420685 .9700012 .5470581 .9700012 .5590668 .9700012 .57307437 .95799258 .5800781 .94898989 .5800781 .94299319 .5800781 .94099429 .57907107 .9299927 .57307437L.3899994 .27297975C.37599183 .26498414 .37098695 .26298524 .37098695 .24998474 .37098695 .23797608 .37998963 .23197937 .3880005 .22796631L.92900088-.07211304C.94099429-.07910156 .94499209-.07910156 .94898989-.07910156 .96199038-.07910156 .9700012-.068115238 .9700012-.05810547 .9700012-.04611206 .96398928-.04310608 .94999697-.035095216L.43699647 .24998474 .94898989 .5350647Z"/>
<path id="font_1_4" d="M.3809967 .6036377C.3899994 .6416168 .3929901 .6516113 .48599244 .6516113 .5139923 .6516113 .522995 .6516113 .522995 .6696167 .522995 .6826172 .5099945 .6826172 .5069885 .6826172 .48399354 .6826172 .45799256 .680603 .43399049 .680603 .4099884 .680603 .38598634 .6796112 .3619995 .6796112 .33898927 .6796112 .31498719 .6796112 .29299928 .680603 .2749939 .6816101 .24398804 .6826172 .22698975 .6826172 .22099304 .6826172 .20698548 .6826172 .20698548 .6646118 .20698548 .6516113 .21598816 .6516113 .23699951 .6516113 .24099732 .6516113 .25898744 .6516113 .2749939 .6496124 .2919922 .6476135 .29899598 .6456146 .29899598 .63461306 .29899598 .6296234 .2979889 .6256256 .29499818 .614624L.1599884 .07595825C.15098572 .039993287 .14898682 .0309906 .07398987 .0309906 .054992677 .0309906 .04399109 .0309906 .04399109 .0129852299 .04399109 0 .053985597 0 .07199097 0H.5439911C.56799319 0 .56900027 .0009918213 .57699587 .021987915 .58699038 .04698181 .6589966 .23686219 .6589966 .24485779 .6589966 .2528534 .6519928 .25785829 .644989 .25785829 .6349945 .25785829 .6339874 .25386048 .6259918 .23387146 .59199526 .14492798 .5479889 .0309906 .37298585 .0309906H.27398683C.2599945 .0309906 .2579956 .0309906 .2539978 .03199768 .24398804 .032989503 .24099732 .033996583 .24099732 .040985109 .24099732 .04399109 .24099732 .04598999 .24598694 .063964847L.3809967 .6036377Z"/>
<path id="font_3_97" d="M.5299988 .19158936C.5299988 .27262879 .48298646 .3186493 .46299745 .33966065 .42099 .38069154 .375 .39169313 .2979889 .4096985 .23699951 .42370606 .20498657 .43171693 .18099976 .45472718 .16799927 .46774293 .14498902 .49075318 .14498902 .5287781 .14498902 .58480837 .20098877 .6428375 .2979889 .6428375 .37399293 .6428375 .4269867 .6188202 .47799684 .5757904L.49398805 .6658325C.42999269 .6988373 .37298585 .71484377 .29899598 .71484377 .147995 .71484377 .05899048 .6128235 .05899048 .5167694 .05899048 .47573854 .07199097 .42771913 .12098694 .38168336 .16499329 .34066773 .21099854 .33065797 .272995 .31565858 .35699464 .29563905 .37998963 .29063417 .40899659 .26062013 .42799378 .24160767 .44400025 .21359253 .44400025 .17958069 .44400025 .11753845 .3880005 .053512575 .29100038 .053512575 .23399353 .053512575 .14199829 .070510867 .06298828 .13755799L.04699707 .04750061C.09700012 .018508912 .17999268-.021484375 .2919922-.021484375 .43099977-.021484375 .5299988 .07952881 .5299988 .19158936Z"/>
<path id="font_3_59" d="M.5149994 .38609315 .5029907 .45410157C.48098756 .45410157 .4139862 .45309449 .33799745 .42408753L.33599855 .4230957C.2999878 .44709779 .2649994 .45410157 .23599243 .45410157 .13798523 .45410157 .06498718 .37709046 .06498718 .29109193 .06498718 .25608827 .07699585 .22009278 .099990848 .1920929 .085998538 .1750946 .070999149 .14709473 .070999149 .10910034 .070999149 .07009888 .08699036 .04508972 .09599304 .033096315 .040985109 .0011291504 .02999878-.044921876 .02999878-.06896973 .02999878-.14508057 .1349945-.20507813 .2649994-.20507813 .3959961-.20507813 .5-.14508057 .5-.06896973 .5 .072128299 .32499696 .072128299 .28199769 .072128299H.18899536C.17298889 .072128299 .12998963 .072128299 .12998963 .1239624 .12998963 .14395142 .13699341 .15394593 .13798523 .15594483 .17298889 .13394165 .20799256 .12695313 .23498535 .12695313 .33299256 .12695313 .4059906 .20394898 .4059906 .2899475 .4059906 .3219452 .39698792 .35095216 .3789978 .37794496 .375 .38394166 .375 .38594056 .375 .38594056 .375 .3899536 .43499757 .3899536 .43998719 .3899536 .43998719 .3899536 .47898866 .3899536 .5149994 .38594056V.38609315M.32899476 .29093934C.32899476 .21295166 .2789917 .18894959 .23599243 .18894959 .18199158 .18902588 .14199829 .22303772 .14199829 .29005433 .14199829 .36808778 .19198609 .39208985 .23498535 .39208985 .2889862 .39208985 .32899476 .358078 .32899476 .2910614V.29093934M.42399598-.07006836C.42399598-.113082889 .34899903-.14308167 .2649994-.14308167 .18099976-.14286804 .10598755-.11286926 .10598755-.069869998 .10598755-.06486511 .10598755-.005859375 .18699646-.005859375H.2829895C.30599977-.005859375 .42399598-.005859375 .42399598-.069869998V-.07006836Z"/>
<path id="font_3_77" d="M.46499635 0V.29606629C.46499635 .37408448 .44198609 .45410157 .31900025 .45410157 .2619934 .45410157 .20698548 .4310913 .16299439 .37808229V.45109559H.08299255V0H.16999817V.24305725C.16999817 .30906678 .19799805 .38809205 .2749939 .38809205 .37799073 .38809205 .37799073 .31806947 .37799073 .2890625V0H.46499635Z"/>
<path id="font_3_64" d="M.2939911 .19090271V.25390626H.011993408V.19090271H.2939911Z"/>
<path id="font_3_75" d="M.7599945 0V.29606629C.7599945 .37408448 .7369995 .45410157 .6139984 .45410157 .5299988 .45410157 .47799684 .40509034 .45399476 .37309266 .44400025 .4001007 .4189911 .45410157 .31900025 .45410157 .2619934 .45410157 .20698548 .4310913 .16299439 .37808229V.45109559H.08299255V0H.16999817V.24305725C.16999817 .30906678 .19799805 .38809205 .2749939 .38809205 .37799073 .38809205 .37799073 .31806947 .37799073 .2890625V0H.46499635V.24305725C.46499635 .30906678 .49299623 .38809205 .56999209 .38809205 .6729889 .38809205 .6729889 .31806947 .6729889 .2890625V0H.7599945Z"/>
<path id="font_5_1" d="M.41600038 .32382203C.42799378 .33480836 .42799378 .33680726 .42799378 .34181214 .42799378 .34680177 .42199708 .35379029 .42099 .35578919L.19699097 .64660647H.44898988C.6139984 .64660647 .68699648 .6226196 .70999148 .45272828H.74398806L.71398928 .6826172H.09899902C.07398987 .6826172 .069992069 .6816101 .069992069 .6566162L.34298707 .30082704 .08299255 .032989503C.07199097 .020996094 .069992069 .019989014 .069992069 .01399231 .069992069 0 .08299255 0 .09899902 0H.71398928L.74398806 .24186707H.70999148C.68899539 .067977908 .6009979 .05899048 .5299988 .051986696 .49499513 .04899597 .4889984 .04798889 .44699098 .04798889H.147995L.41600038 .32382203Z"/>
<path id="font_3_46" d="M.70700076 .341156C.70700076 .5372772 .5609894 .69433596 .38198854 .69433596H.09799194V0H.38198854C.56199648 0 .70700076 .15205384 .70700076 .341156M.60899356 .3421631C.60899356 .15605164 .4869995 .05899048 .35499574 .05899048H.19599915V.6353302H.35499574C.49198915 .6353302 .60899356 .5262604 .60899356 .3421631Z"/>
<path id="font_3_81" d="M.5 .21910095C.5 .35101319 .394989 .45898438 .2649994 .45898438 .1349945 .45898438 .02999878 .3500061 .02999878 .21910095 .02999878 .09220886 .13598633-.009765625 .2649994-.009765625 .394989-.009765625 .5 .09220886 .5 .21910095M.41299439 .23010254C.41299439 .11618042 .34199525 .05921936 .2649994 .05921936 .18598938 .05921936 .116989139 .1171875 .116989139 .23010254 .116989139 .34301759 .19099427 .39297486 .2649994 .39297486 .33999635 .39297486 .41299439 .34101869 .41299439 .23010254Z"/>
<path id="font_6_1" d="M.8149872 .47825624C.8149872 .5122528 .8009949 .5152588 .7979889 .5152588 .7879944 .5152588 .7819977 .49925233 .7809906 .48825074 .7799988 .46725465 .7769928 .43218995 .73399356 .39904786 .71398928 .38397218 .67900088 .36488343 .6299896 .36488343 .56999209 .36488343 .5209961 .39302064 .46199037 .43118287 .3909912 .47825624 .33299256 .5162506 .2619934 .5162506 .1619873 .5162506 .07699585 .44023133 .07699585 .33389283 .07699585 .29888917 .09098816 .29689027 .09399414 .29689027 .10499573 .29689027 .10998535 .31489564 .11099243 .32389833 .11199951 .3448944 .114990238 .3799591 .1579895 .4131012 .17799378 .42817689 .21299744 .44726563 .2619934 .44726563 .32199098 .44726563 .37098695 .41912843 .42999269 .3809662 .5009918 .33389283 .5589905 .29589845 .6299896 .29589845 .7299957 .29589845 .8149872 .37191773 .8149872 .47825624M.8149872 .21394348C.8149872 .24694824 .8019867 .25094605 .7979889 .25094605 .7879944 .25094605 .7819977 .23394776 .7809906 .22393799 .7799988 .2029419 .7769928 .16799927 .73399356 .13510132 .71398928 .120162967 .67900088 .10121155 .6299896 .10121155 .56999209 .10121155 .5209961 .12911988 .46199037 .16699219 .3909912 .21394348 .33299256 .25195313 .2619934 .25195313 .1619873 .25195313 .07699585 .17596436 .07699585 .07022095 .07699585 .035217287 .09098816 .033218385 .09399414 .033218385 .10499573 .033218385 .10998535 .051223756 .11099243 .06022644 .11199951 .081222537 .114990238 .11616516 .1579895 .14906311 .17799378 .16400147 .21299744 .18295288 .2619934 .18295288 .32199098 .18295288 .37098695 .15504456 .42999269 .11717224 .5009918 .07022095 .5589905 .032226564 .6299896 .032226564 .7299957 .032226564 .8149872 .10820007 .8149872 .21394348Z"/>
<path id="font_5_2" d="M.5159912 .31925965C.5159912 .42918397 .5029907 .50813296 .45700074 .5780945 .42599488 .62405398 .3639984 .6640625 .28399659 .6640625 .051986696 .6640625 .051986696 .39120484 .051986696 .31925965 .051986696 .2472992 .051986696-.01953125 .28399659-.01953125 .5159912-.01953125 .5159912 .2472992 .5159912 .31925965M.28399659 .008468628C.23799134 .008468628 .1769867 .035446168 .15699768 .117385867 .14299011 .17634583 .14299011 .25830079 .14299011 .33224488 .14299011 .40519715 .14299011 .4811554 .1579895 .53611758 .1789856 .6150665 .24299622 .63604739 .28399659 .63604739 .33799745 .63604739 .3899994 .6030731 .4079895 .545105 .42399598 .4911499 .4249878 .41918946 .4249878 .33224488 .4249878 .25830079 .4249878 .18434143 .4119873 .12138367 .3919983 .030441285 .32398988 .008468628 .28399659 .008468628Z"/>
<path id="font_2_54" d="M.54499819 .62109377V.6910858H.09498596V0H.19099427V.31292726H.5019989V.3779297H.19099427V.62309268H.22499085L.46199037 .62109377H.54499819Z"/>
<path id="font_1_1" d="M.2679901 .43603517C.1539917 .41105653 .042999269 .29112245 .042999269 .15919495 .042999269 .04824829 .12098694-.01171875 .20799256-.01171875 .32398988-.01171875 .41099549 .14019776 .41099549 .28211976 .41099549 .3740692 .36698915 .42803956 .33599855 .46601869 .30099488 .5090027 .23599243 .58795168 .23599243 .6329346 .23599243 .6499176 .24899292 .6769104 .29100038 .6769104 .32199098 .6769104 .34199525 .664917 .36299134 .6509247 .3769989 .6429291 .4059906 .62493899 .42099 .62493899 .44198609 .62493899 .46099855 .6439209 .46099855 .6659088 .46099855 .687912 .44799806 .6909027 .40098573 .7009125 .35198976 .71191409 .33399964 .71191409 .31999208 .71191409 .21998596 .71191409 .20498657 .6409302 .20498657 .60894778 .20498657 .5589752 .23699951 .49101258 .2679901 .43603517M.28199769 .41204835C.33499146 .31910707 .33699037 .27412416 .33699037 .2411499 .33699037 .16519165 .29599 .0132751469 .20698548 .0132751469 .1639862 .0132751469 .10899353 .041259767 .10899353 .13121033 .10899353 .19517517 .14399719 .3740692 .28199769 .41204835Z"/>
<path id="font_7_1" d="M.57699587-.046875C.55999758-.04988098 .5399933-.06388855 .5399933-.08988953 .5399933-.12188721 .56599429-.13388062 .58299258-.13388062 .6009979-.13388062 .6269989-.12287903 .6269989-.08888245 .6269989-.039916994 .5779877 0 .5130005 0 .37098695 0 .34498597-.19085694 .33499146-.26383973 .32398988-.34680177 .2939911-.5667267 .28199769-.7466583 .27999879-.78063967 .2749939-.83862307 .2709961-.8825989 .2599945-.99957278 .24499512-1.0859375 .16999817-1.0859375 .16299439-1.0859375 .1329956-1.0859375 .10699463-1.0635681 .12399292-1.0605774 .14399719-1.0465698 .14399719-1.0205689 .14399719-.98857119 .117996219-.9765625 .100997928-.9765625 .08299255-.9765625 .056991579-.9875641 .056991579-1.0215759 .056991579-1.070694 .10598755-1.1109467 .17098999-1.1109467 .2789917-1.1109467 .32299806-.99357607 .33799745-.923584 .34799195-.8766022 .3899994-.5627289 .40299989-.36380006 .40499879-.32980348 .4099884-.27183534 .4139862-.22784424 .42399598-.115875247 .43798829-.025009156 .5139923-.025009156 .5209961-.025009156 .5509949-.025009156 .57699587-.046875Z"/>
<path id="font_1_10" d="M.18899536 .15730286C.19999695 .20431519 .21899414 .2773285 .21998596 .28533937 .22200012 .29133607 .24699402 .33935548 .2829895 .37435914 .31199647 .4013672 .34999085 .41737367 .3889923 .41737367 .44299317 .41737367 .44299317 .36436463 .44299317 .34735108 .44299317 .28633119 .3959961 .16429138 .3849945 .13328552 .37298585 .10227966 .36898805 .0922699 .36898805 .073272708 .36898805 .019256592 .4099884-.0107421879 .45498658-.0107421879 .5509949-.0107421879 .58999636 .1322937 .58999636 .14329529 .58999636 .14828491 .58699038 .1552887 .57699587 .1552887 .56599429 .1552887 .5649872 .15029907 .5609894 .13728333 .5359955 .052261354 .49398805 .014251709 .45799256 .014251709 .45098878 .014251709 .43299867 .014251709 .43299867 .04626465 .43299867 .0712738 .44299317 .09727478 .45098878 .119277957 .47099305 .17030335 .5109863 .27633668 .5109863 .33235169 .5109863 .42137147 .44499208 .4423828 .3919983 .4423828 .29899598 .4423828 .25 .37635804 .23399353 .35536195 .22799683 .40937806 .18699646 .4423828 .13699341 .4423828 .09498596 .4423828 .07398987 .41137696 .05999756 .3843689 .042999269 .34934999 .0289917 .29234315 .0289917 .28833009 .0289917 .2793274 .035995485 .27633668 .042999269 .27633668 .053985597 .27633668 .055999757 .28134156 .06098938 .30134584 .07998657 .3803711 .100997928 .41737367 .1349945 .41737367 .16499329 .41737367 .16499329 .38536073 .16499329 .37036134 .16499329 .34934999 .15699768 .31834413 .15098572 .29234315 .14399719 .2663269 .13398743 .22331238 .12998963 .21131897L.08999634 .04725647C.08299255 .023254395 .08299255 .021255494 .08299255 .018249512 .08299255 .0052490236 .09199524-.0107421879 .11399841-.0107421879 .12799073-.0107421879 .14299011-.0017547608 .1499939 .010253906 .15299988 .01625061 .16099549 .04826355 .1659851 .06826782L.18899536 .15730286Z"/>
<path id="font_1_8" d="M.5239868 .6603241C.5279999 .67433169 .5279999 .67633059 .5279999 .68032839 .5279999 .68933108 .5219879 .69433596 .5130005 .69433596 .49899293 .69433596 .41099549 .6863251 .3909912 .6843262 .3809967 .68333438 .36999513 .6823273 .36999513 .665329 .36999513 .6523285 .3809967 .6523285 .39698792 .6523285 .44400025 .6523285 .44400025 .6453247 .44400025 .6363373 .44400025 .6293335 .43499757 .5943451 .42999269 .573349L.41099549 .4963684C.40098573 .45837403 .3909912 .41937257 .38198854 .3803711 .36299134 .41638185 .33198548 .4423828 .2869873 .4423828 .17098999 .4423828 .041992189 .30433656 .041992189 .1512909 .041992189 .041259767 .11199951-.0107421879 .1789856-.0107421879 .24398804-.0107421879 .29699708 .043258668 .31298829 .06227112 .32398988 .007247925 .37399293-.0107421879 .4059906-.0107421879 .43499757-.0107421879 .45999146 .002243042 .48199464 .044265748 .5 .07727051 .5139923 .13928223 .5139923 .14329529 .5139923 .14828491 .5109863 .1552887 .5009918 .1552887 .4889984 .1552887 .48799134 .15029907 .48399354 .13128662 .46199037 .044265748 .43998719 .014251709 .40899659 .014251709 .38398744 .014251709 .37799073 .038253786 .37799073 .060272218 .37799073 .073272708 .3829956 .10127258 .38398744 .104278568L.5239868 .6603241M.31698609 .121276859C.31298829 .105285648 .31199647 .103271488 .29599 .08326721 .2599945 .040252687 .21899414 .014251709 .18199158 .014251709 .1329956 .014251709 .115997318 .06526184 .115997318 .10827637 .115997318 .15730286 .14498902 .27233888 .16899109 .32034303 .20098877 .3803711 .24699402 .41737367 .2869873 .41737367 .35398866 .41737367 .36898805 .3363495 .36898805 .3313446 .36898805 .32635499 .36698915 .32034303 .3659973 .3163452L.31698609 .121276859Z"/>
<path id="font_1_11" d="M.39698792 .37402345C.35398866 .37001039 .34999085 .3360138 .34999085 .32901 .34999085 .31201173 .36299134 .29901124 .38198854 .29901124 .4099884 .29901124 .42900086 .32202149 .42900086 .355011 .42900086 .40527345 .37998963 .4423828 .30599977 .4423828 .17199707 .4423828 .13398743 .3420105 .13398743 .2960205 .13398743 .25810243 .15299988 .23814392 .1659851 .22616577 .18598938 .2071991 .21299744 .20121765 .24899292 .19422913 .2939911 .1852417 .3039856 .18325806 .32199098 .17027283 .33799745 .15830994 .34700013 .14231873 .34700013 .12130737 .34700013 .0953064 .32299806 .014251709 .20199585 .014251709 .1789856 .014251709 .10899353 .01725769 .08699036 .063308719 .13699341 .063308719 .14698792 .10331726 .14698792 .11730957 .14698792 .14730835 .11999512 .15332031 .10899353 .15332031 .09098816 .15332031 .052993776 .13931275 .052993776 .08731079 .052993776 .025268555 .115997318-.0107421879 .20098877-.0107421879 .36898805-.0107421879 .4059906 .11231995 .4059906 .15530396 .4059906 .1932373 .3849945 .21717835 .37298585 .2291565 .34700013 .25610353 .31498719 .26208497 .27999879 .2690735 .2679901 .2720642 .24598694 .276062 .24299622 .27705384 .20999146 .28404237 .19198609 .3040161 .19198609 .32901 .19198609 .3400116 .19898987 .37200929 .22698975 .3941803 .25498963 .41636659 .29299928 .41737367 .30599977 .41737367 .34098817 .41737367 .38198854 .40628053 .39698792 .37402345Z"/>
<path id="font_8_2" d="M.70799258 .3310089C.7220001 .3310089 .7409973 .3310089 .7409973 .35202027 .7409973 .37402345 .71899417 .37402345 .70399478 .37402345H.09399414C.07899475 .37402345 .056991579 .37402345 .056991579 .35202027 .056991579 .3310089 .07699585 .3310089 .08999634 .3310089H.70799258M.70399478 .12695313C.71899417 .12695313 .7409973 .12695313 .7409973 .14894104 .7409973 .1699524 .7220001 .1699524 .70799258 .1699524H.08999634C.07699585 .1699524 .056991579 .1699524 .056991579 .14894104 .056991579 .12695313 .07899475 .12695313 .09399414 .12695313H.70399478Z"/>
<path id="font_8_1" d="M.47299195 .31976319C.47299195 .38682557 .46998597 .47288514 .43499757 .5479431 .3909912 .64201357 .31498719 .6660156 .25698854 .6660156 .19699097 .6660156 .12098694 .64201357 .07699585 .5459442 .04499817 .47688294 .039993287 .39582826 .039993287 .31976319 .039993287 .25471498 .041992189 .15765381 .084991458 .07858276 .13198853-.0064697267 .20999146-.022460938 .2559967-.022460938 .32099916-.022460938 .394989 .0055389406 .43699647 .097595218 .46699525 .1646576 .47299195 .23971558 .47299195 .31976319M.25698854 .002532959C.22698975 .002532959 .15499878 .016540528 .13598633 .12962342 .12599182 .18867493 .12599182 .2747345 .12599182 .33177186 .12599182 .39982606 .12599182 .47888185 .13798523 .53393557 .1579895 .6230011 .22200012 .64100649 .2559967 .64100649 .2939911 .64100649 .35699464 .62098696 .37599183 .5279236 .3869934 .47288514 .3869934 .39482118 .3869934 .33177186 .3869934 .2697296 .3869934 .18566895 .3769989 .12661743 .35598756 .012542725 .28199769 .002532959 .25698854 .002532959Z"/>
<path id="font_2_108" d="M.61099246 .23277283V.69433596H.5279999V.23277283C.5279999 .098602298 .44099427 .03652954 .35699464 .03652954 .27398683 .03652954 .19099427 .098602298 .19099427 .23176575V.69433596H.09498596V.23376465C.09498596 .08459473 .21798706-.022460938 .35598756-.022460938 .49398805-.022460938 .61099246 .08760071 .61099246 .23277283Z"/>
<path id="font_2_55" d="M.35598756 .62309268V.69407656C.34399415 .69706729 .31199647 .7050781 .27398683 .7050781 .1769867 .7050781 .102996829 .6320801 .102996829 .5322113V.44433595H.027999878V.38232423H.102996829V0H.18299866V.38232423H.2939911V.44433595H.17999268V.56018069C.17999268 .6320801 .24499512 .6400757 .272995 .6400757 .28199769 .6400757 .31498719 .6400757 .35598756 .62309268Z"/>
<path id="font_2_47" d="M.44699098 .00024414063V.69433596H.36698915V.4000702C.31098939 .44706727 .24699402 .45507813 .21499634 .45507813 .11399841 .45507813 .035995485 .35009767 .035995485 .22216797 .035995485 .0932312 .11299133-.0107421879 .21099854-.0107421879 .24099732-.0107421879 .3039856-.003753662 .3639984 .052246095V.00024414063H.44699098M.3639984 .14120484C.3639984 .12220764 .3639984 .12020874 .35299684 .10621643 .32598878 .070236209 .2919922 .054244996 .2559967 .054244996 .19099427 .054244996 .11898804 .10122681 .11898804 .22116089 .11898804 .34909059 .20399475 .39007569 .2669983 .39007569 .31298829 .39007569 .34498597 .36408998 .3639984 .33810426V.14120484Z"/>
<path id="font_2_109" d="M.44898988 .00024414063V.44433595H.3659973V.15527344C.3659973 .07525635 .30299378 .04824829 .24299622 .04824829 .17098999 .04824829 .1639862 .071258548 .1639862 .11425781V.44433595H.08099365V.10926819C.08099365 .024246216 .114990238-.0107421879 .18598938-.0107421879 .24398804-.0107421879 .32199098 .0062561037 .36898805 .04824829V.00024414063H.44898988Z"/>
<path id="font_2_83" d="M.598999 .49124146C.598999 .5973053 .49798585 .69433596 .35598756 .69433596H.09700012V0H.19299317V.28515626H.35598756C.49699403 .28515626 .598999 .38217164 .598999 .49124146M.5119934 .49124146C.5119934 .41119386 .44799806 .3471527 .33198548 .3471527H.18998719V.6353302H.33198548C.44699098 .6353302 .5119934 .57128909 .5119934 .49124146Z"/>
<path id="font_2_98" d="M.36999513 .12911988C.36999513 .1640625 .35598756 .19898987 .32099916 .22894287 .2869873 .2578888 .25698854 .2638855 .19499207 .27586366 .15899658 .28285218 .10899353 .29185487 .10899353 .3388672 .10899353 .39793397 .17999268 .39793397 .19499207 .39793397 .2679901 .39793397 .31098939 .37490846 .33999635 .35888673L.35299684 .42892457C.29100038 .45692445 .24499512 .4609375 .20399475 .4609375 .18099976 .4609375 .033996583 .4609375 .033996583 .32885743 .033996583 .28085328 .06298828 .25090028 .07398987 .2399292 .11199951 .20698548 .13798523 .20199585 .20599365 .18901062 .23799134 .18302918 .29499818 .17204285 .29499818 .12113953 .29499818 .056243898 .21398926 .056243898 .20098877 .056243898 .14199829 .056243898 .084991458 .07621765 .041992189 .106155399L.0289917 .0332489C.08898926 .0012512207 .1499939-.0107421879 .20098877-.0107421879 .2659912-.0107421879 .36999513 .010253906 .36999513 .12911988Z"/>
<path id="font_1_3" d="M.44699098 .6673279C.44799806 .6713257 .44999696 .67832949 .44999696 .6823273 .44999696 .6923218 .44198609 .69433596 .43598939 .69433596 .4249878 .69433596 .4249878 .69132998 .41999818 .6733246L.3619995 .44337464C.18899536 .43637086 .049987794 .29934693 .049987794 .17131043 .049987794 .07928467 .11898804-.0037231446 .24798584-.01171875 .23999024-.042785646 .23298645-.07485962 .22499085-.10592651 .21099854-.16104126 .20298767-.19007874 .20298767-.1940918 .20298767-.1980896 .20498657-.20507813 .21699524-.20507813 .22799683-.20507813 .22898865-.2020874 .23498535-.17907715L.2769928-.01171875C.44898988-.0047302248 .58898928 .13230896 .58898928 .26133729 .58898928 .34135438 .5309906 .43338014 .3909912 .44337464L.44699098 .6673279M.2539978 .0132751469C.18199158 .01727295 .117996219 .060287477 .117996219 .15130615 .117996219 .26234437 .19999695 .40437318 .35598756 .41838075L.2539978 .0132751469M.38398744 .41838075C.45599366 .41337586 .519989 .37435914 .519989 .28033448 .519989 .15231323 .42399598 .025283814 .2829895 .0132751469L.38398744 .41838075Z"/>
<path id="font_1_9" d="M.2869873 .6603241C.29100038 .67433169 .29100038 .67633059 .29100038 .68032839 .29100038 .68933108 .2849884 .69433596 .27598573 .69433596 .2619934 .69433596 .17399597 .6863251 .1539917 .6843262 .14399719 .68333438 .1329956 .6823273 .1329956 .665329 .1329956 .6523285 .14399719 .6523285 .1599884 .6523285 .20698548 .6523285 .20698548 .6453247 .20698548 .6363373 .20698548 .6323395 .20698548 .6303406 .20199585 .6123352L.05899048 .037261964C.054992677 .023254395 .054992677 .021255494 .054992677 .018249512 .054992677 .002243042 .067993167-.0107421879 .085998538-.0107421879 .11898804-.0107421879 .12599182 .018249512 .1309967 .038253786L.17799378 .22732544C.24598694 .22132874 .29699708 .19432068 .29699708 .14430237 .29699708 .1382904 .29699708 .1342926 .2939911 .11929321 .29299928 .11528015 .2899933 .10128784 .2899933 .090270999 .2899933 .03125 .33099366-.0107421879 .38598634-.0107421879 .42399598-.0107421879 .44799806 .012252808 .46598817 .041259767 .4909973 .07926941 .5049896 .13929749 .5049896 .14329529 .5049896 .14830017 .5019989 .15530396 .49198915 .15530396 .48098756 .15530396 .47898866 .15029907 .47399903 .1322937 .46099855 .08126831 .43598939 .014251709 .3889923 .014251709 .3600006 .014251709 .35699464 .040252687 .35699464 .06227112 .35699464 .08728027 .36299134 .11328125 .3639984 .11528015 .3659973 .121292117 .36799623 .13328552 .36799623 .14529419 .36799623 .21531677 .29499818 .24232483 .21798706 .25134278 .24798584 .27033998 .269989 .29135133 .3019867 .32336427 .35299684 .37435914 .394989 .41737367 .44799806 .41737367 .45999146 .41737367 .47299195 .41436769 .48098756 .405365 .43598939 .4013672 .4249878 .36436463 .4249878 .35035707 .4249878 .33135987 .43899537 .31436158 .46398927 .31436158 .4869995 .31436158 .5189972 .33236695 .5189972 .37635804 .5189972 .4093628 .49499513 .4423828 .44799806 .4423828 .3869934 .4423828 .33799745 .39335633 .29599 .35035707 .24798584 .30336 .22399903 .27934266 .18699646 .26333619L.2869873 .6603241Z"/>
<path id="font_1_7" d="M.09799194 .13923645C.10998535 .04725647 .14698792-.01171875 .21398926-.01171875 .27598573-.01171875 .33599855 .042266847 .37199403 .07525635 .37399293 .07624817 .3769989 .07925415 .3769989 .085250858 .3769989 .09124756 .36999513 .099243167 .36299134 .099243167 .35899354 .099243167 .35699464 .099243167 .34799195 .09025574 .28399659 .030273438 .24899292 .0132751469 .21598816 .0132751469 .20199585 .0132751469 .17999268 .0132751469 .16499329 .057266237 .1599884 .07325745 .1539917 .10824585 .1539917 .14422608 .1539917 .16023255 .1539917 .18022156 .1579895 .19621277 .1579895 .19721985 .1579895 .19921875 .17799378 .21821594 .22200012 .26319886 .2789917 .32817079 .31900025 .38916017 .397995 .5081177 .40499879 .5970917 .40499879 .6260834 .40499879 .66007998 .394989 .7050781 .34399415 .7050781 .2979889 .7050781 .2639923 .66407778 .25099183 .64707949 .1579895 .5311127 .09399414 .32017518 .09399414 .19221497 .09399414 .18722534 .09399414 .18022156 .09498596 .17422486 .07199097 .15322876 .04899597 .13223267 .026992798 .11024475 .023986817 .10824585 .016998291 .101242069 .01399231 .099243167 .011993408 .09625244 .009994507 .09324646 .009994507 .08924866 .009994507 .085250858 .01399231 .07424927 .022994996 .07424927 .03199768 .07424927 .069992069 .11224365 .08099365 .12423706L.09799194 .13923645M.1639862 .24420166C.17098999 .28419496 .20599365 .43714906 .23899842 .5261078 .25099183 .55810549 .29699708 .68006899 .34498597 .68006899 .37298585 .68006899 .37799073 .654068 .37799073 .62908938 .37799073 .61408999 .37399293 .55010989 .33399964 .46813966 .27598573 .35217286 .16499329 .24420166 .1639862 .24420166Z"/>
</defs>
<path transform="matrix(1,0,0,-1,22.94236,118.32477)" stroke-width="1.19553" stroke-linecap="butt" stroke-miterlimit="10" stroke-linejoin="miter" fill="none" stroke="#000000" d="M0 0H283.4681"/>
<path transform="matrix(1,0,0,-1,22.94236,118.32477)" stroke-width=".79701" stroke-linecap="butt" stroke-dasharray="2.98883,1.99255" stroke-miterlimit="10" stroke-linejoin="miter" fill="none" stroke="#a6a6a6" d="M0 0C85.04042 9.92155 198.42766 9.92155 283.4681 0"/>
<path transform="matrix(1,0,0,-1,22.94236,118.32477)" stroke-width=".79701" stroke-linecap="butt" stroke-dasharray="2.98883,1.99255" stroke-miterlimit="10" stroke-linejoin="miter" fill="none" stroke="#a6a6a6" d="M0 0C85.04042 21.2601 198.42766 21.2601 283.4681 0"/>
<path transform="matrix(1,0,0,-1,22.94236,118.32477)" stroke-width=".79701" stroke-linecap="butt" stroke-dasharray="2.98883,1.99255" stroke-miterlimit="10" stroke-linejoin="miter" fill="none" stroke="#a6a6a6" d="M0 0C85.04042-9.92155 198.42766-9.92155 283.4681 0"/>
<path transform="matrix(1,0,0,-1,22.94236,118.32477)" stroke-width=".79701" stroke-linecap="butt" stroke-dasharray="2.98883,1.99255" stroke-miterlimit="10" stroke-linejoin="miter" fill="none" stroke="#a6a6a6" d="M0 0C85.04042-21.2601 198.42766-21.2601 283.4681 0"/>
<path transform="matrix(1,0,0,-1,22.94236,118.32477)" d="M59.81175 0C59.81175 1.7221 58.41573 3.11813 56.69362 3.11813 54.9715 3.11813 53.57547 1.7221 53.57547 0 53.57547-1.7221 54.9715-3.11813 56.69362-3.11813 58.41573-3.11813 59.81175-1.7221 59.81175 0ZM56.69362 0" fill="#ffffff"/>
<path transform="matrix(1,0,0,-1,22.94236,118.32477)" stroke-width=".3985" stroke-linecap="butt" stroke-miterlimit="10" stroke-linejoin="miter" fill="none" stroke="#4c4d4c" d="M59.81175 0C59.81175 1.7221 58.41573 3.11813 56.69362 3.11813 54.9715 3.11813 53.57547 1.7221 53.57547 0 53.57547-1.7221 54.9715-3.11813 56.69362-3.11813 58.41573-3.11813 59.81175-1.7221 59.81175 0ZM56.69362 0"/>
<path transform="matrix(1,0,0,-1,22.94236,118.32477)" d="M116.50537 0C116.50537 1.7221 115.10934 3.11813 113.38724 3.11813 111.66512 3.11813 110.26909 1.7221 110.26909 0 110.26909-1.7221 111.66512-3.11813 113.38724-3.11813 115.10934-3.11813 116.50537-1.7221 116.50537 0ZM113.38724 0" fill="#ffffff"/>
<path transform="matrix(1,0,0,-1,22.94236,118.32477)" stroke-width=".3985" stroke-linecap="butt" stroke-miterlimit="10" stroke-linejoin="miter" fill="none" stroke="#4c4d4c" d="M116.50537 0C116.50537 1.7221 115.10934 3.11813 113.38724 3.11813 111.66512 3.11813 110.26909 1.7221 110.26909 0 110.26909-1.7221 111.66512-3.11813 113.38724-3.11813 115.10934-3.11813 116.50537-1.7221 116.50537 0ZM113.38724 0"/>
<path transform="matrix(1,0,0,-1,22.94236,118.32477)" d="M173.19899 0C173.19899 1.7221 171.80297 3.11813 170.08086 3.11813 168.35874 3.11813 166.9627 1.7221 166.9627 0 166.9627-1.7221 168.35874-3.11813 170.08086-3.11813 171.80297-3.11813 173.19899-1.7221 173.19899 0ZM170.08086 0" fill="#ffffff"/>
<path transform="matrix(1,0,0,-1,22.94236,118.32477)" stroke-width=".3985" stroke-linecap="butt" stroke-miterlimit="10" stroke-linejoin="miter" fill="none" stroke="#4c4d4c" d="M173.19899 0C173.19899 1.7221 171.80297 3.11813 170.08086 3.11813 168.35874 3.11813 166.9627 1.7221 166.9627 0 166.9627-1.7221 168.35874-3.11813 170.08086-3.11813 171.80297-3.11813 173.19899-1.7221 173.19899 0ZM170.08086 0"/>
<path transform="matrix(1,0,0,-1,22.94236,118.32477)" d="M229.89261 0C229.89261 1.7221 228.49658 3.11813 226.77448 3.11813 225.05237 3.11813 223.65633 1.7221 223.65633 0 223.65633-1.7221 225.05237-3.11813 226.77448-3.11813 228.49658-3.11813 229.89261-1.7221 229.89261 0ZM226.77448 0" fill="#ffffff"/>
<path transform="matrix(1,0,0,-1,22.94236,118.32477)" stroke-width=".3985" stroke-linecap="butt" stroke-miterlimit="10" stroke-linejoin="miter" fill="none" stroke="#4c4d4c" d="M229.89261 0C229.89261 1.7221 228.49658 3.11813 226.77448 3.11813 225.05237 3.11813 223.65633 1.7221 223.65633 0 223.65633-1.7221 225.05237-3.11813 226.77448-3.11813 228.49658-3.11813 229.89261-1.7221 229.89261 0ZM226.77448 0"/>
<path transform="matrix(1,0,0,-1,22.94236,118.32477)" d="M59.81175 6.23631C59.81175 7.95842 58.41573 9.35445 56.69362 9.35445 54.9715 9.35445 53.57547 7.95842 53.57547 6.23631 53.57547 4.5142 54.9715 3.11818 56.69362 3.11818 58.41573 3.11818 59.81175 4.5142 59.81175 6.23631ZM56.69362 6.23631" fill="#f2f2f2"/>
<path transform="matrix(1,0,0,-1,22.94236,118.32477)" stroke-width=".3985" stroke-linecap="butt" stroke-miterlimit="10" stroke-linejoin="miter" fill="none" stroke="#b2b3b2" d="M59.81175 6.23631C59.81175 7.95842 58.41573 9.35445 56.69362 9.35445 54.9715 9.35445 53.57547 7.95842 53.57547 6.23631 53.57547 4.5142 54.9715 3.11818 56.69362 3.11818 58.41573 3.11818 59.81175 4.5142 59.81175 6.23631ZM56.69362 6.23631"/>
<path transform="matrix(1,0,0,-1,22.94236,118.32477)" d="M116.50537 9.35448C116.50537 11.0766 115.10934 12.47263 113.38724 12.47263 111.66512 12.47263 110.26909 11.0766 110.26909 9.35448 110.26909 7.63237 111.66512 6.23634 113.38724 6.23634 115.10934 6.23634 116.50537 7.63237 116.50537 9.35448ZM113.38724 9.35448" fill="#f2f2f2"/>
<path transform="matrix(1,0,0,-1,22.94236,118.32477)" stroke-width=".3985" stroke-linecap="butt" stroke-miterlimit="10" stroke-linejoin="miter" fill="none" stroke="#b2b3b2" d="M116.50537 9.35448C116.50537 11.0766 115.10934 12.47263 113.38724 12.47263 111.66512 12.47263 110.26909 11.0766 110.26909 9.35448 110.26909 7.63237 111.66512 6.23634 113.38724 6.23634 115.10934 6.23634 116.50537 7.63237 116.50537 9.35448ZM113.38724 9.35448"/>
<path transform="matrix(1,0,0,-1,22.94236,118.32477)" d="M173.19899 9.35448C173.19899 11.0766 171.80297 12.47263 170.08086 12.47263 168.35874 12.47263 166.9627 11.0766 166.9627 9.35448 166.9627 7.63237 168.35874 6.23634 170.08086 6.23634 171.80297 6.23634 173.19899 7.63237 173.19899 9.35448ZM170.08086 9.35448" fill="#f2f2f2"/>
<path transform="matrix(1,0,0,-1,22.94236,118.32477)" stroke-width=".3985" stroke-linecap="butt" stroke-miterlimit="10" stroke-linejoin="miter" fill="none" stroke="#b2b3b2" d="M173.19899 9.35448C173.19899 11.0766 171.80297 12.47263 170.08086 12.47263 168.35874 12.47263 166.9627 11.0766 166.9627 9.35448 166.9627 7.63237 168.35874 6.23634 170.08086 6.23634 171.80297 6.23634 173.19899 7.63237 173.19899 9.35448ZM170.08086 9.35448"/>
<path transform="matrix(1,0,0,-1,22.94236,118.32477)" d="M229.89261 6.23631C229.89261 7.95842 228.49658 9.35445 226.77448 9.35445 225.05237 9.35445 223.65633 7.95842 223.65633 6.23631 223.65633 4.5142 225.05237 3.11818 226.77448 3.11818 228.49658 3.11818 229.89261 4.5142 229.89261 6.23631ZM226.77448 6.23631" fill="#f2f2f2"/>
<path transform="matrix(1,0,0,-1,22.94236,118.32477)" stroke-width=".3985" stroke-linecap="butt" stroke-miterlimit="10" stroke-linejoin="miter" fill="none" stroke="#b2b3b2" d="M229.89261 6.23631C229.89261 7.95842 228.49658 9.35445 226.77448 9.35445 225.05237 9.35445 223.65633 7.95842 223.65633 6.23631 223.65633 4.5142 225.05237 3.11818 226.77448 3.11818 228.49658 3.11818 229.89261 4.5142 229.89261 6.23631ZM226.77448 6.23631"/>
<path transform="matrix(1,0,0,-1,22.94236,118.32477)" d="M59.81175 13.32303C59.81175 15.04514 58.41573 16.44116 56.69362 16.44116 54.9715 16.44116 53.57547 15.04514 53.57547 13.32303 53.57547 11.6009 54.9715 10.20488 56.69362 10.20488 58.41573 10.20488 59.81175 11.6009 59.81175 13.32303ZM56.69362 13.32303" fill="#f2f2f2"/>
<path transform="matrix(1,0,0,-1,22.94236,118.32477)" stroke-width=".3985" stroke-linecap="butt" stroke-miterlimit="10" stroke-linejoin="miter" fill="none" stroke="#b2b3b2" d="M59.81175 13.32303C59.81175 15.04514 58.41573 16.44116 56.69362 16.44116 54.9715 16.44116 53.57547 15.04514 53.57547 13.32303 53.57547 11.6009 54.9715 10.20488 56.69362 10.20488 58.41573 10.20488 59.81175 11.6009 59.81175 13.32303ZM56.69362 13.32303"/>
<path transform="matrix(1,0,0,-1,22.94236,118.32477)" d="M116.50537 19.84267C116.50537 21.56477 115.10934 22.9608 113.38724 22.9608 111.66512 22.9608 110.26909 21.56477 110.26909 19.84267 110.26909 18.12056 111.66512 16.72452 113.38724 16.72452 115.10934 16.72452 116.50537 18.12056 116.50537 19.84267ZM113.38724 19.84267" fill="#f2f2f2"/>
<path transform="matrix(1,0,0,-1,22.94236,118.32477)" stroke-width=".3985" stroke-linecap="butt" stroke-miterlimit="10" stroke-linejoin="miter" fill="none" stroke="#b2b3b2" d="M116.50537 19.84267C116.50537 21.56477 115.10934 22.9608 113.38724 22.9608 111.66512 22.9608 110.26909 21.56477 110.26909 19.84267 110.26909 18.12056 111.66512 16.72452 113.38724 16.72452 115.10934 16.72452 116.50537 18.12056 116.50537 19.84267ZM113.38724 19.84267"/>
<path transform="matrix(1,0,0,-1,22.94236,118.32477)" d="M173.19899 19.84267C173.19899 21.56477 171.80297 22.9608 170.08086 22.9608 168.35874 22.9608 166.9627 21.56477 166.9627 19.84267 166.9627 18.12056 168.35874 16.72452 170.08086 16.72452 171.80297 16.72452 173.19899 18.12056 173.19899 19.84267ZM170.08086 19.84267" fill="#f2f2f2"/>
<path transform="matrix(1,0,0,-1,22.94236,118.32477)" stroke-width=".3985" stroke-linecap="butt" stroke-miterlimit="10" stroke-linejoin="miter" fill="none" stroke="#b2b3b2" d="M173.19899 19.84267C173.19899 21.56477 171.80297 22.9608 170.08086 22.9608 168.35874 22.9608 166.9627 21.56477 166.9627 19.84267 166.9627 18.12056 168.35874 16.72452 170.08086 16.72452 171.80297 16.72452 173.19899 18.12056 173.19899 19.84267ZM170.08086 19.84267"/>
<path transform="matrix(1,0,0,-1,22.94236,118.32477)" d="M229.89261 13.32303C229.89261 15.04514 228.49658 16.44116 226.77448 16.44116 225.05237 16.44116 223.65633 15.04514 223.65633 13.32303 223.65633 11.6009 225.05237 10.20488 226.77448 10.20488 228.49658 10.20488 229.89261 11.6009 229.89261 13.32303ZM226.77448 13.32303" fill="#f2f2f2"/>
<path transform="matrix(1,0,0,-1,22.94236,118.32477)" stroke-width=".3985" stroke-linecap="butt" stroke-miterlimit="10" stroke-linejoin="miter" fill="none" stroke="#b2b3b2" d="M229.89261 13.32303C229.89261 15.04514 228.49658 16.44116 226.77448 16.44116 225.05237 16.44116 223.65633 15.04514 223.65633 13.32303 223.65633 11.6009 225.05237 10.20488 226.77448 10.20488 228.49658 10.20488 229.89261 11.6009 229.89261 13.32303ZM226.77448 13.32303"/>
<path transform="matrix(1,0,0,-1,22.94236,118.32477)" d="M59.81175-6.23631C59.81175-4.5142 58.41573-3.11818 56.69362-3.11818 54.9715-3.11818 53.57547-4.5142 53.57547-6.23631 53.57547-7.95842 54.9715-9.35445 56.69362-9.35445 58.41573-9.35445 59.81175-7.95842 59.81175-6.23631ZM56.69362-6.23631" fill="#f2f2f2"/>
<path transform="matrix(1,0,0,-1,22.94236,118.32477)" stroke-width=".3985" stroke-linecap="butt" stroke-miterlimit="10" stroke-linejoin="miter" fill="none" stroke="#b2b3b2" d="M59.81175-6.23631C59.81175-4.5142 58.41573-3.11818 56.69362-3.11818 54.9715-3.11818 53.57547-4.5142 53.57547-6.23631 53.57547-7.95842 54.9715-9.35445 56.69362-9.35445 58.41573-9.35445 59.81175-7.95842 59.81175-6.23631ZM56.69362-6.23631"/>
<path transform="matrix(1,0,0,-1,22.94236,118.32477)" d="M116.50537-9.35448C116.50537-7.63237 115.10934-6.23634 113.38724-6.23634 111.66512-6.23634 110.26909-7.63237 110.26909-9.35448 110.26909-11.0766 111.66512-12.47263 113.38724-12.47263 115.10934-12.47263 116.50537-11.0766 116.50537-9.35448ZM113.38724-9.35448" fill="#f2f2f2"/>
<path transform="matrix(1,0,0,-1,22.94236,118.32477)" stroke-width=".3985" stroke-linecap="butt" stroke-miterlimit="10" stroke-linejoin="miter" fill="none" stroke="#b2b3b2" d="M116.50537-9.35448C116.50537-7.63237 115.10934-6.23634 113.38724-6.23634 111.66512-6.23634 110.26909-7.63237 110.26909-9.35448 110.26909-11.0766 111.66512-12.47263 113.38724-12.47263 115.10934-12.47263 116.50537-11.0766 116.50537-9.35448ZM113.38724-9.35448"/>
<path transform="matrix(1,0,0,-1,22.94236,118.32477)" d="M173.19899-9.35448C173.19899-7.63237 171.80297-6.23634 170.08086-6.23634 168.35874-6.23634 166.9627-7.63237 166.9627-9.35448 166.9627-11.0766 168.35874-12.47263 170.08086-12.47263 171.80297-12.47263 173.19899-11.0766 173.19899-9.35448ZM170.08086-9.35448" fill="#f2f2f2"/>
<path transform="matrix(1,0,0,-1,22.94236,118.32477)" stroke-width=".3985" stroke-linecap="butt" stroke-miterlimit="10" stroke-linejoin="miter" fill="none" stroke="#b2b3b2" d="M173.19899-9.35448C173.19899-7.63237 171.80297-6.23634 170.08086-6.23634 168.35874-6.23634 166.9627-7.63237 166.9627-9.35448 166.9627-11.0766 168.35874-12.47263 170.08086-12.47263 171.80297-12.47263 173.19899-11.0766 173.19899-9.35448ZM170.08086-9.35448"/>
<path transform="matrix(1,0,0,-1,22.94236,118.32477)" d="M229.89261-6.23631C229.89261-4.5142 228.49658-3.11818 226.77448-3.11818 225.05237-3.11818 223.65633-4.5142 223.65633-6.23631 223.65633-7.95842 225.05237-9.35445 226.77448-9.35445 228.49658-9.35445 229.89261-7.95842 229.89261-6.23631ZM226.77448-6.23631" fill="#f2f2f2"/>
<path transform="matrix(1,0,0,-1,22.94236,118.32477)" stroke-width=".3985" stroke-linecap="butt" stroke-miterlimit="10" stroke-linejoin="miter" fill="none" stroke="#b2b3b2" d="M229.89261-6.23631C229.89261-4.5142 228.49658-3.11818 226.77448-3.11818 225.05237-3.11818 223.65633-4.5142 223.65633-6.23631 223.65633-7.95842 225.05237-9.35445 226.77448-9.35445 228.49658-9.35445 229.89261-7.95842 229.89261-6.23631ZM226.77448-6.23631"/>
<path transform="matrix(1,0,0,-1,22.94236,118.32477)" d="M59.81175-13.32303C59.81175-11.6009 58.41573-10.20488 56.69362-10.20488 54.9715-10.20488 53.57547-11.6009 53.57547-13.32303 53.57547-15.04514 54.9715-16.44116 56.69362-16.44116 58.41573-16.44116 59.81175-15.04514 59.81175-13.32303ZM56.69362-13.32303" fill="#f2f2f2"/>
<path transform="matrix(1,0,0,-1,22.94236,118.32477)" stroke-width=".3985" stroke-linecap="butt" stroke-miterlimit="10" stroke-linejoin="miter" fill="none" stroke="#b2b3b2" d="M59.81175-13.32303C59.81175-11.6009 58.41573-10.20488 56.69362-10.20488 54.9715-10.20488 53.57547-11.6009 53.57547-13.32303 53.57547-15.04514 54.9715-16.44116 56.69362-16.44116 58.41573-16.44116 59.81175-15.04514 59.81175-13.32303ZM56.69362-13.32303"/>
<path transform="matrix(1,0,0,-1,22.94236,118.32477)" d="M116.50537-19.84267C116.50537-18.12056 115.10934-16.72452 113.38724-16.72452 111.66512-16.72452 110.26909-18.12056 110.26909-19.84267 110.26909-21.56477 111.66512-22.9608 113.38724-22.9608 115.10934-22.9608 116.50537-21.56477 116.50537-19.84267ZM113.38724-19.84267" fill="#f2f2f2"/>
<path transform="matrix(1,0,0,-1,22.94236,118.32477)" stroke-width=".3985" stroke-linecap="butt" stroke-miterlimit="10" stroke-linejoin="miter" fill="none" stroke="#b2b3b2" d="M116.50537-19.84267C116.50537-18.12056 115.10934-16.72452 113.38724-16.72452 111.66512-16.72452 110.26909-18.12056 110.26909-19.84267 110.26909-21.56477 111.66512-22.9608 113.38724-22.9608 115.10934-22.9608 116.50537-21.56477 116.50537-19.84267ZM113.38724-19.84267"/>
<path transform="matrix(1,0,0,-1,22.94236,118.32477)" d="M173.19899-19.84267C173.19899-18.12056 171.80297-16.72452 170.08086-16.72452 168.35874-16.72452 166.9627-18.12056 166.9627-19.84267 166.9627-21.56477 168.35874-22.9608 170.08086-22.9608 171.80297-22.9608 173.19899-21.56477 173.19899-19.84267ZM170.08086-19.84267" fill="#f2f2f2"/>
<path transform="matrix(1,0,0,-1,22.94236,118.32477)" stroke-width=".3985" stroke-linecap="butt" stroke-miterlimit="10" stroke-linejoin="miter" fill="none" stroke="#b2b3b2" d="M173.19899-19.84267C173.19899-18.12056 171.80297-16.72452 170.08086-16.72452 168.35874-16.72452 166.9627-18.12056 166.9627-19.84267 166.9627-21.56477 168.35874-22.9608 170.08086-22.9608 171.80297-22.9608 173.19899-21.56477 173.19899-19.84267ZM170.08086-19.84267"/>
<path transform="matrix(1,0,0,-1,22.94236,118.32477)" d="M229.89261-13.32303C229.89261-11.6009 228.49658-10.20488 226.77448-10.20488 225.05237-10.20488 223.65633-11.6009 223.65633-13.32303 223.65633-15.04514 225.05237-16.44116 226.77448-16.44116 228.49658-16.44116 229.89261-15.04514 229.89261-13.32303ZM226.77448-13.32303" fill="#f2f2f2"/>
<path transform="matrix(1,0,0,-1,22.94236,118.32477)" stroke-width=".3985" stroke-linecap="butt" stroke-miterlimit="10" stroke-linejoin="miter" fill="none" stroke="#b2b3b2" d="M229.89261-13.32303C229.89261-11.6009 228.49658-10.20488 226.77448-10.20488 225.05237-10.20488 223.65633-11.6009 223.65633-13.32303 223.65633-15.04514 225.05237-16.44116 226.77448-16.44116 228.49658-16.44116 229.89261-15.04514 229.89261-13.32303ZM226.77448-13.32303"/>
<path transform="matrix(1,0,0,-1,22.94236,118.32477)" d="M2.29143 0C2.29143 1.26553 1.26553 2.29143 0 2.29143-1.26553 2.29143-2.29143 1.26553-2.29143 0-2.29143-1.26553-1.26553-2.29143 0-2.29143 1.26553-2.29143 2.29143-1.26553 2.29143 0ZM0 0"/>
<path transform="matrix(1,0,0,-1,22.94236,118.32477)" d="M285.75956 0C285.75956 1.26553 284.73365 2.29143 283.4681 2.29143 282.20256 2.29143 281.17665 1.26553 281.17665 0 281.17665-1.26553 282.20256-2.29143 283.4681-2.29143 284.73365-2.29143 285.75956-1.26553 285.75956 0ZM283.4681 0" fill="#d90000"/>
<use data-text="S" xlink:href="#font_1_6" transform="matrix(8.966376,0,0,-8.966376,11.290489,121.38829)"/>
<use data-text="P" xlink:href="#font_1_5" transform="matrix(8.966376,0,0,-8.966376,311.92283,121.38829)" fill="#d90000"/>
<use data-text="S" xlink:href="#font_2_97" transform="matrix(8.966376,0,0,-8.966376,139.0412,130.6783)"/>
<use data-text="t" xlink:href="#font_2_105" transform="matrix(8.966376,0,0,-8.966376,144.16101,130.6783)"/>
<use data-text="r" xlink:href="#font_2_96" transform="matrix(8.966376,0,0,-8.966376,147.48754,130.6783)"/>
<use data-text="a" xlink:href="#font_2_28" transform="matrix(8.966376,0,0,-8.966376,150.63474,130.6783)"/>
<use data-text="i" xlink:href="#font_2_66" transform="matrix(8.966376,0,0,-8.966376,155.06412,130.6783)"/>
<use data-text="g" xlink:href="#font_2_59" transform="matrix(8.966376,0,0,-8.966376,157.26088,130.6783)"/>
<use data-text="h" xlink:href="#font_2_63" transform="matrix(8.966376,0,0,-8.966376,161.8696,130.6783)"/>
<use data-text="t" xlink:href="#font_2_105" transform="matrix(8.966376,0,0,-8.966376,166.63076,130.6783)"/>
<use data-text="p" xlink:href="#font_2_84" transform="matrix(8.966376,0,0,-8.966376,173.03275,130.6783)"/>
<use data-text="a" xlink:href="#font_2_28" transform="matrix(8.966376,0,0,-8.966376,177.79389,130.6783)"/>
<use data-text="t" xlink:href="#font_2_105" transform="matrix(8.966376,0,0,-8.966376,182.22327,130.6783)"/>
<use data-text="h" xlink:href="#font_2_63" transform="matrix(8.966376,0,0,-8.966376,185.5498,130.6783)"/>
<use data-text="V" xlink:href="#font_3_111" transform="matrix(6.973848,0,0,-6.973848,127.60296,91.721469)" fill="#4c4d4c"/>
<use data-text="i" xlink:href="#font_3_66" transform="matrix(6.973848,0,0,-6.973848,132.54044,91.721469)" fill="#4c4d4c"/>
<use data-text="r" xlink:href="#font_3_96" transform="matrix(6.973848,0,0,-6.973848,134.30483,91.721469)" fill="#4c4d4c"/>
<use data-text="t" xlink:href="#font_3_105" transform="matrix(6.973848,0,0,-6.973848,136.83634,91.721469)" fill="#4c4d4c"/>
<use data-text="u" xlink:href="#font_3_109" transform="matrix(6.973848,0,0,-6.973848,139.51428,91.721469)" fill="#4c4d4c"/>
<use data-text="a" xlink:href="#font_3_28" transform="matrix(6.973848,0,0,-6.973848,143.34293,91.721469)" fill="#4c4d4c"/>
<use data-text="l" xlink:href="#font_3_72" transform="matrix(6.973848,0,0,-6.973848,146.8996,91.721469)" fill="#4c4d4c"/>
<use data-text="(" xlink:href="#font_3_85" transform="matrix(6.973848,0,0,-6.973848,151.13272,91.721469)" fill="#4c4d4c"/>
<use data-text="d" xlink:href="#font_3_47" transform="matrix(6.973848,0,0,-6.973848,154.01293,91.721469)" fill="#4c4d4c"/>
<use data-text="e" xlink:href="#font_3_50" transform="matrix(6.973848,0,0,-6.973848,157.84157,91.721469)" fill="#4c4d4c"/>
<use data-text="v" xlink:href="#font_3_112" transform="matrix(6.973848,0,0,-6.973848,161.13323,91.721469)" fill="#4c4d4c"/>
<use data-text="i" xlink:href="#font_3_66" transform="matrix(6.973848,0,0,-6.973848,164.5504,91.721469)" fill="#4c4d4c"/>
<use data-text="a" xlink:href="#font_3_28" transform="matrix(6.973848,0,0,-6.973848,166.31479,91.721469)" fill="#4c4d4c"/>
<use data-text="t" xlink:href="#font_3_105" transform="matrix(6.973848,0,0,-6.973848,169.87146,91.721469)" fill="#4c4d4c"/>
<use data-text="e" xlink:href="#font_3_50" transform="matrix(6.973848,0,0,-6.973848,172.54941,91.721469)" fill="#4c4d4c"/>
<use data-text="d" xlink:href="#font_3_47" transform="matrix(6.973848,0,0,-6.973848,175.84107,91.721469)" fill="#4c4d4c"/>
<use data-text=")" xlink:href="#font_3_86" transform="matrix(6.973848,0,0,-6.973848,179.66971,91.721469)" fill="#4c4d4c"/>
<use data-text="p" xlink:href="#font_3_84" transform="matrix(6.973848,0,0,-6.973848,185.01865,91.721469)" fill="#4c4d4c"/>
<use data-text="a" xlink:href="#font_3_28" transform="matrix(6.973848,0,0,-6.973848,188.84729,91.721469)" fill="#4c4d4c"/>
<use data-text="t" xlink:href="#font_3_105" transform="matrix(6.973848,0,0,-6.973848,192.40396,91.721469)" fill="#4c4d4c"/>
<use data-text="h" xlink:href="#font_3_63" transform="matrix(6.973848,0,0,-6.973848,195.08191,91.721469)" fill="#4c4d4c"/>
<use data-text="s" xlink:href="#font_3_98" transform="matrix(6.973848,0,0,-6.973848,198.91056,91.721469)" fill="#4c4d4c"/>
<use data-text="V" xlink:href="#font_3_111" transform="matrix(6.973848,0,0,-6.973848,127.60296,148.41507)" fill="#4c4d4c"/>
<use data-text="i" xlink:href="#font_3_66" transform="matrix(6.973848,0,0,-6.973848,132.54044,148.41507)" fill="#4c4d4c"/>
<use data-text="r" xlink:href="#font_3_96" transform="matrix(6.973848,0,0,-6.973848,134.30483,148.41507)" fill="#4c4d4c"/>
<use data-text="t" xlink:href="#font_3_105" transform="matrix(6.973848,0,0,-6.973848,136.83634,148.41507)" fill="#4c4d4c"/>
<use data-text="u" xlink:href="#font_3_109" transform="matrix(6.973848,0,0,-6.973848,139.51428,148.41507)" fill="#4c4d4c"/>
<use data-text="a" xlink:href="#font_3_28" transform="matrix(6.973848,0,0,-6.973848,143.34293,148.41507)" fill="#4c4d4c"/>
<use data-text="l" xlink:href="#font_3_72" transform="matrix(6.973848,0,0,-6.973848,146.8996,148.41507)" fill="#4c4d4c"/>
<use data-text="(" xlink:href="#font_3_85" transform="matrix(6.973848,0,0,-6.973848,151.13272,148.41507)" fill="#4c4d4c"/>
<use data-text="d" xlink:href="#font_3_47" transform="matrix(6.973848,0,0,-6.973848,154.01293,148.41507)" fill="#4c4d4c"/>
<use data-text="e" xlink:href="#font_3_50" transform="matrix(6.973848,0,0,-6.973848,157.84157,148.41507)" fill="#4c4d4c"/>
<use data-text="v" xlink:href="#font_3_112" transform="matrix(6.973848,0,0,-6.973848,161.13323,148.41507)" fill="#4c4d4c"/>
<use data-text="i" xlink:href="#font_3_66" transform="matrix(6.973848,0,0,-6.973848,164.5504,148.41507)" fill="#4c4d4c"/>
<use data-text="a" xlink:href="#font_3_28" transform="matrix(6.973848,0,0,-6.973848,166.31479,148.41507)" fill="#4c4d4c"/>
<use data-text="t" xlink:href="#font_3_105" transform="matrix(6.973848,0,0,-6.973848,169.87146,148.41507)" fill="#4c4d4c"/>
<use data-text="e" xlink:href="#font_3_50" transform="matrix(6.973848,0,0,-6.973848,172.54941,148.41507)" fill="#4c4d4c"/>
<use data-text="d" xlink:href="#font_3_47" transform="matrix(6.973848,0,0,-6.973848,175.84107,148.41507)" fill="#4c4d4c"/>
<use data-text=")" xlink:href="#font_3_86" transform="matrix(6.973848,0,0,-6.973848,179.66971,148.41507)" fill="#4c4d4c"/>
<use data-text="p" xlink:href="#font_3_84" transform="matrix(6.973848,0,0,-6.973848,185.01865,148.41507)" fill="#4c4d4c"/>
<use data-text="a" xlink:href="#font_3_28" transform="matrix(6.973848,0,0,-6.973848,188.84729,148.41507)" fill="#4c4d4c"/>
<use data-text="t" xlink:href="#font_3_105" transform="matrix(6.973848,0,0,-6.973848,192.40396,148.41507)" fill="#4c4d4c"/>
<use data-text="h" xlink:href="#font_3_63" transform="matrix(6.973848,0,0,-6.973848,195.08191,148.41507)" fill="#4c4d4c"/>
<use data-text="s" xlink:href="#font_3_98" transform="matrix(6.973848,0,0,-6.973848,198.91056,148.41507)" fill="#4c4d4c"/>
<use data-text="S" xlink:href="#font_2_97" transform="matrix(8.966376,0,0,-8.966376,189.26078,17.712239)"/>
<use data-text="h" xlink:href="#font_2_63" transform="matrix(8.966376,0,0,-8.966376,194.38057,17.712239)"/>
<use data-text="o" xlink:href="#font_2_81" transform="matrix(8.966376,0,0,-8.966376,199.14171,17.712239)"/>
<use data-text="r" xlink:href="#font_2_96" transform="matrix(8.966376,0,0,-8.966376,203.49938,17.712239)"/>
<use data-text="t" xlink:href="#font_2_105" transform="matrix(8.966376,0,0,-8.966376,206.64658,17.712239)"/>
<use data-text="-" xlink:href="#font_2_64" transform="matrix(8.966376,0,0,-8.966376,209.9731,17.712239)"/>
<use data-text="w" xlink:href="#font_2_114" transform="matrix(8.966376,0,0,-8.966376,213.04857,17.712239)"/>
<use data-text="a" xlink:href="#font_2_28" transform="matrix(8.966376,0,0,-8.966376,219.08295,17.712239)"/>
<use data-text="v" xlink:href="#font_2_112" transform="matrix(8.966376,0,0,-8.966376,223.51233,17.712239)"/>
<use data-text="e" xlink:href="#font_2_50" transform="matrix(8.966376,0,0,-8.966376,227.76239,17.712239)"/>
<use data-text="l" xlink:href="#font_2_72" transform="matrix(8.966376,0,0,-8.966376,231.86003,17.712239)"/>
<use data-text="e" xlink:href="#font_2_50" transform="matrix(8.966376,0,0,-8.966376,234.0568,17.712239)"/>
<use data-text="n" xlink:href="#font_2_77" transform="matrix(8.966376,0,0,-8.966376,238.15442,17.712239)"/>
<use data-text="g" xlink:href="#font_2_59" transform="matrix(8.966376,0,0,-8.966376,242.91558,17.712239)"/>
<use data-text="t" xlink:href="#font_2_105" transform="matrix(8.966376,0,0,-8.966376,247.52429,17.712239)"/>
<use data-text="h" xlink:href="#font_2_63" transform="matrix(8.966376,0,0,-8.966376,250.85082,17.712239)"/>
<use data-text="l" xlink:href="#font_2_72" transform="matrix(8.966376,0,0,-8.966376,258.67848,17.712239)"/>
<use data-text="i" xlink:href="#font_2_66" transform="matrix(8.966376,0,0,-8.966376,260.8752,17.712239)"/>
<use data-text="m" xlink:href="#font_2_75" transform="matrix(8.966376,0,0,-8.966376,263.072,17.712239)"/>
<use data-text="i" xlink:href="#font_2_66" transform="matrix(8.966376,0,0,-8.966376,270.38856,17.712239)"/>
<use data-text="t" xlink:href="#font_2_105" transform="matrix(8.966376,0,0,-8.966376,272.5853,17.712239)"/>
<use data-text=":" xlink:href="#font_2_44" transform="matrix(8.966376,0,0,-8.966376,275.91184,17.712239)"/>
<use data-text="&#x03bb;" xlink:href="#font_1_2" transform="matrix(8.966376,0,0,-8.966376,282.57685,17.712239)"/>
<use data-text="&#x226a;" xlink:href="#font_4_1" transform="matrix(8.966376,0,0,-8.966376,290.5123,17.712239)"/>
<use data-text="L" xlink:href="#font_1_4" transform="matrix(8.966376,0,0,-8.966376,302.2875,17.712239)"/>
<use data-text="S" xlink:href="#font_3_97" transform="matrix(6.973848,0,0,-6.973848,336.82679,16.996365)"/>
<use data-text="t" xlink:href="#font_3_105" transform="matrix(6.973848,0,0,-6.973848,340.94136,16.996365)"/>
<use data-text="r" xlink:href="#font_3_96" transform="matrix(6.973848,0,0,-6.973848,343.61933,16.996365)"/>
<use data-text="a" xlink:href="#font_3_28" transform="matrix(6.973848,0,0,-6.973848,346.15083,16.996365)"/>
<use data-text="i" xlink:href="#font_3_66" transform="matrix(6.973848,0,0,-6.973848,349.7075,16.996365)"/>
<use data-text="g" xlink:href="#font_3_59" transform="matrix(6.973848,0,0,-6.973848,351.47187,16.996365)"/>
<use data-text="h" xlink:href="#font_3_63" transform="matrix(6.973848,0,0,-6.973848,355.175,16.996365)"/>
<use data-text="t" xlink:href="#font_3_105" transform="matrix(6.973848,0,0,-6.973848,359.00364,16.996365)"/>
<use data-text="p" xlink:href="#font_3_84" transform="matrix(6.973848,0,0,-6.973848,364.15034,16.996365)"/>
<use data-text="a" xlink:href="#font_3_28" transform="matrix(6.973848,0,0,-6.973848,367.97898,16.996365)"/>
<use data-text="t" xlink:href="#font_3_105" transform="matrix(6.973848,0,0,-6.973848,371.53565,16.996365)"/>
<use data-text="h" xlink:href="#font_3_63" transform="matrix(6.973848,0,0,-6.973848,374.2136,16.996365)"/>
<use data-text="(" xlink:href="#font_3_85" transform="matrix(6.973848,0,0,-6.973848,334.34059,23.76923)"/>
<use data-text="i" xlink:href="#font_3_66" transform="matrix(6.973848,0,0,-6.973848,337.2208,23.76923)"/>
<use data-text="n" xlink:href="#font_3_77" transform="matrix(6.973848,0,0,-6.973848,338.98518,23.76923)"/>
<use data-text="-" xlink:href="#font_3_64" transform="matrix(6.973848,0,0,-6.973848,342.8138,23.76923)"/>
<use data-text="p" xlink:href="#font_3_84" transform="matrix(6.973848,0,0,-6.973848,345.28257,23.76923)"/>
<use data-text="h" xlink:href="#font_3_63" transform="matrix(6.973848,0,0,-6.973848,349.1112,23.76923)"/>
<use data-text="a" xlink:href="#font_3_28" transform="matrix(6.973848,0,0,-6.973848,352.93986,23.76923)"/>
<use data-text="s" xlink:href="#font_3_98" transform="matrix(6.973848,0,0,-6.973848,356.4965,23.76923)"/>
<use data-text="e" xlink:href="#font_3_50" transform="matrix(6.973848,0,0,-6.973848,359.33488,23.76923)"/>
<use data-text="s" xlink:href="#font_3_98" transform="matrix(6.973848,0,0,-6.973848,365.09526,23.76923)"/>
<use data-text="u" xlink:href="#font_3_109" transform="matrix(6.973848,0,0,-6.973848,367.93363,23.76923)"/>
<use data-text="m" xlink:href="#font_3_75" transform="matrix(6.973848,0,0,-6.973848,371.76228,23.76923)"/>
<use data-text=")" xlink:href="#font_3_86" transform="matrix(6.973848,0,0,-6.973848,377.6482,23.76923)"/>
<path transform="matrix(1,0,0,-1,22.94236,118.32477)" stroke-width=".79701" stroke-linecap="butt" stroke-miterlimit="10" stroke-linejoin="miter" fill="none" stroke="#0000cc" d="M308.98048 76.53629H316.82026"/>
<path transform="matrix(1,0,0,-1,337.592,41.788476)" d="M4.5344 0 1.2869 1.23083 2.36983 0 1.2869-1.23083Z" fill="#0000cc"/>
<path transform="matrix(1,0,0,-1,337.592,41.788476)" stroke-width=".79701" stroke-linecap="butt" stroke-miterlimit="10" stroke-linejoin="miter" fill="none" stroke="#0000cc" d="M4.5344 0 1.2869 1.23083 2.36983 0 1.2869-1.23083Z"/>
<path transform="matrix(1,0,0,-1,22.94236,118.32477)" stroke-width=".79701" stroke-linecap="butt" stroke-miterlimit="10" stroke-linejoin="miter" fill="none" stroke="#0000cc" d="M320.31904 76.53629H328.1588"/>
<path transform="matrix(1,0,0,-1,348.93058,41.788476)" d="M4.5344 0 1.2869 1.23083 2.36983 0 1.2869-1.23083Z" fill="#0000cc"/>
<path transform="matrix(1,0,0,-1,348.93058,41.788476)" stroke-width=".79701" stroke-linecap="butt" stroke-miterlimit="10" stroke-linejoin="miter" fill="none" stroke="#0000cc" d="M4.5344 0 1.2869 1.23083 2.36983 0 1.2869-1.23083Z"/>
<path transform="matrix(1,0,0,-1,22.94236,118.32477)" stroke-width=".79701" stroke-linecap="butt" stroke-miterlimit="10" stroke-linejoin="miter" fill="none" stroke="#0000cc" d="M331.6576 76.53629H339.49778"/>
<path transform="matrix(1,0,0,-1,360.26957,41.788476)" d="M4.5344 0 1.2869 1.23083 2.36983 0 1.2869-1.23083Z" fill="#0000cc"/>
<path transform="matrix(1,0,0,-1,360.26957,41.788476)" stroke-width=".79701" stroke-linecap="butt" stroke-miterlimit="10" stroke-linejoin="miter" fill="none" stroke="#0000cc" d="M4.5344 0 1.2869 1.23083 2.36983 0 1.2869-1.23083Z"/>
<path transform="matrix(1,0,0,-1,22.94236,118.32477)" stroke-width=".79701" stroke-linecap="butt" stroke-miterlimit="10" stroke-linejoin="miter" fill="none" stroke="#0000cc" d="M342.99656 76.53629H350.83634"/>
<path transform="matrix(1,0,0,-1,371.6081,41.788476)" d="M4.5344 0 1.2869 1.23083 2.36983 0 1.2869-1.23083Z" fill="#0000cc"/>
<path transform="matrix(1,0,0,-1,371.6081,41.788476)" stroke-width=".79701" stroke-linecap="butt" stroke-miterlimit="10" stroke-linejoin="miter" fill="none" stroke="#0000cc" d="M4.5344 0 1.2869 1.23083 2.36983 0 1.2869-1.23083Z"/>
<path transform="matrix(1,0,0,-1,22.94236,118.32477)" stroke-width=".79701" stroke-linecap="butt" stroke-miterlimit="10" stroke-linejoin="miter" fill="none" stroke="#0000cc" d="M354.3351 76.53629H362.17533"/>
<path transform="matrix(1,0,0,-1,382.94709,41.788476)" d="M4.5344 0 1.2869 1.23083 2.36983 0 1.2869-1.23083Z" fill="#0000cc"/>
<path transform="matrix(1,0,0,-1,382.94709,41.788476)" stroke-width=".79701" stroke-linecap="butt" stroke-miterlimit="10" stroke-linejoin="miter" fill="none" stroke="#0000cc" d="M4.5344 0 1.2869 1.23083 2.36983 0 1.2869-1.23083Z"/>
<path transform="matrix(1,0,0,-1,22.94236,118.32477)" stroke-width="1.59404" stroke-linecap="butt" stroke-miterlimit="10" stroke-linejoin="miter" fill="none" stroke="#cc0000" d="M308.98048 59.52803H362.24104"/>
<path transform="matrix(1,0,0,-1,382.94709,58.796739)" d="M4.30702 0 1.54472 1.0515 2.47548 0 1.54472-1.0515Z" fill="#cc0000"/>
<path transform="matrix(1,0,0,-1,382.94709,58.796739)" stroke-width=".9567" stroke-linecap="butt" stroke-miterlimit="10" stroke-linejoin="miter" fill="none" stroke="#cc0000" d="M4.30702 0 1.54472 1.0515 2.47548 0 1.54472-1.0515Z"/>
<use data-text="&#x03a3;" xlink:href="#font_5_1" transform="matrix(6.973848,0,0,-6.973848,393.55326,61.179494)" fill="#cc0000"/>
<use data-text="D" xlink:href="#font_3_46" transform="matrix(6.973848,0,0,-6.973848,334.24644,131.8777)"/>
<use data-text="e" xlink:href="#font_3_50" transform="matrix(6.973848,0,0,-6.973848,339.59538,131.8777)"/>
<use data-text="v" xlink:href="#font_3_112" transform="matrix(6.973848,0,0,-6.973848,342.88703,131.8777)"/>
<use data-text="i" xlink:href="#font_3_66" transform="matrix(6.973848,0,0,-6.973848,346.30424,131.8777)"/>
<use data-text="a" xlink:href="#font_3_28" transform="matrix(6.973848,0,0,-6.973848,348.0686,131.8777)"/>
<use data-text="t" xlink:href="#font_3_105" transform="matrix(6.973848,0,0,-6.973848,351.62528,131.8777)"/>
<use data-text="e" xlink:href="#font_3_50" transform="matrix(6.973848,0,0,-6.973848,354.30323,131.8777)"/>
<use data-text="d" xlink:href="#font_3_47" transform="matrix(6.973848,0,0,-6.973848,357.59489,131.8777)"/>
<use data-text="p" xlink:href="#font_3_84" transform="matrix(6.973848,0,0,-6.973848,363.89228,131.8777)"/>
<use data-text="a" xlink:href="#font_3_28" transform="matrix(6.973848,0,0,-6.973848,367.72093,131.8777)"/>
<use data-text="t" xlink:href="#font_3_105" transform="matrix(6.973848,0,0,-6.973848,371.2776,131.8777)"/>
<use data-text="h" xlink:href="#font_3_63" transform="matrix(6.973848,0,0,-6.973848,373.95555,131.8777)"/>
<use data-text="s" xlink:href="#font_3_98" transform="matrix(6.973848,0,0,-6.973848,377.78419,131.8777)"/>
<use data-text="(" xlink:href="#font_3_85" transform="matrix(6.973848,0,0,-6.973848,331.56147,138.57387)"/>
<use data-text="r" xlink:href="#font_3_96" transform="matrix(6.973848,0,0,-6.973848,334.44169,138.57387)"/>
<use data-text="a" xlink:href="#font_3_28" transform="matrix(6.973848,0,0,-6.973848,336.97319,138.57387)"/>
<use data-text="n" xlink:href="#font_3_77" transform="matrix(6.973848,0,0,-6.973848,340.52986,138.57387)"/>
<use data-text="d" xlink:href="#font_3_47" transform="matrix(6.973848,0,0,-6.973848,344.3585,138.57387)"/>
<use data-text="o" xlink:href="#font_3_81" transform="matrix(6.973848,0,0,-6.973848,348.18714,138.57387)"/>
<use data-text="m" xlink:href="#font_3_75" transform="matrix(6.973848,0,0,-6.973848,351.89024,138.57387)"/>
<use data-text="p" xlink:href="#font_3_84" transform="matrix(6.973848,0,0,-6.973848,360.2449,138.57387)"/>
<use data-text="h" xlink:href="#font_3_63" transform="matrix(6.973848,0,0,-6.973848,364.07356,138.57387)"/>
<use data-text="a" xlink:href="#font_3_28" transform="matrix(6.973848,0,0,-6.973848,367.9022,138.57387)"/>
<use data-text="s" xlink:href="#font_3_98" transform="matrix(6.973848,0,0,-6.973848,371.45887,138.57387)"/>
<use data-text="e" xlink:href="#font_3_50" transform="matrix(6.973848,0,0,-6.973848,374.2972,138.57387)"/>
<use data-text="s" xlink:href="#font_3_98" transform="matrix(6.973848,0,0,-6.973848,377.58888,138.57387)"/>
<use data-text=")" xlink:href="#font_3_86" transform="matrix(6.973848,0,0,-6.973848,380.42723,138.57387)"/>
<path transform="matrix(1,0,0,-1,22.94236,118.32477)" stroke-width=".59776" stroke-linecap="butt" stroke-miterlimit="10" stroke-linejoin="miter" fill="none" stroke="#6666ff" d="M334.49244-45.35506 346.09288-42.24657"/>
<path transform="matrix(.96593,-.25879,-.25879,-.96593,367.01783,161.11183)" d="M4.81812 0 .96518 1.45462 2.23799 0 .96518-1.45462Z" fill="#6666ff"/>
<path transform="matrix(.96593,-.25879,-.25879,-.96593,367.01783,161.11183)" stroke-width=".59776" stroke-linecap="butt" stroke-miterlimit="10" stroke-linejoin="miter" fill="none" stroke="#6666ff" d="M4.81812 0 .96518 1.45462 2.23799 0 .96518-1.45462Z"/>
<path transform="matrix(1,0,0,-1,22.94236,118.32477)" stroke-width=".59776" stroke-linecap="butt" stroke-miterlimit="10" stroke-linejoin="miter" fill="none" stroke="#6666ff" d="M334.49244-45.35506 337.6009-33.7546"/>
<path transform="matrix(.25879,-.96593,-.96593,-.25879,360.00276,154.09677)" d="M4.81812 0 .96518 1.45462 2.23799 0 .96518-1.45462Z" fill="#6666ff"/>
<path transform="matrix(.25879,-.96593,-.96593,-.25879,360.00276,154.09677)" stroke-width=".59776" stroke-linecap="butt" stroke-miterlimit="10" stroke-linejoin="miter" fill="none" stroke="#6666ff" d="M4.81812 0 .96518 1.45462 2.23799 0 .96518-1.45462Z"/>
<path transform="matrix(1,0,0,-1,22.94236,118.32477)" stroke-width=".59776" stroke-linecap="butt" stroke-miterlimit="10" stroke-linejoin="miter" fill="none" stroke="#6666ff" d="M334.49244-45.35506 343.69227-53.07487"/>
<path transform="matrix(.76602,.64278,.64278,-.76602,365.03474,170.05716)" d="M4.81812 0 .96518 1.45462 2.23799 0 .96518-1.45462Z" fill="#6666ff"/>
<path transform="matrix(.76602,.64278,.64278,-.76602,365.03474,170.05716)" stroke-width=".59776" stroke-linecap="butt" stroke-miterlimit="10" stroke-linejoin="miter" fill="none" stroke="#6666ff" d="M4.81812 0 .96518 1.45462 2.23799 0 .96518-1.45462Z"/>
<path transform="matrix(1,0,0,-1,22.94236,118.32477)" stroke-width=".59776" stroke-linecap="butt" stroke-miterlimit="10" stroke-linejoin="miter" fill="none" stroke="#6666ff" d="M334.49244-45.35506 326.7726-36.15521"/>
<path transform="matrix(-.64278,-.76602,-.76602,.64278,351.05744,156.07987)" d="M4.81812 0 .96518 1.45462 2.23799 0 .96518-1.45462Z" fill="#6666ff"/>
<path transform="matrix(-.64278,-.76602,-.76602,.64278,351.05744,156.07987)" stroke-width=".59776" stroke-linecap="butt" stroke-miterlimit="10" stroke-linejoin="miter" fill="none" stroke="#6666ff" d="M4.81812 0 .96518 1.45462 2.23799 0 .96518-1.45462Z"/>
<path transform="matrix(1,0,0,-1,22.94236,118.32477)" stroke-width=".59776" stroke-linecap="butt" stroke-miterlimit="10" stroke-linejoin="miter" fill="none" stroke="#6666ff" d="M334.49244-45.35506 336.57798-57.1825"/>
<path transform="matrix(.17363,.9848,.9848,-.17363,359.15766,173.45044)" d="M4.81812 0 .96518 1.45462 2.23799 0 .96518-1.45462Z" fill="#6666ff"/>
<path transform="matrix(.17363,.9848,.9848,-.17363,359.15766,173.45044)" stroke-width=".59776" stroke-linecap="butt" stroke-miterlimit="10" stroke-linejoin="miter" fill="none" stroke="#6666ff" d="M4.81812 0 .96518 1.45462 2.23799 0 .96518-1.45462Z"/>
<path transform="matrix(1,0,0,-1,22.94236,118.32477)" stroke-width=".59776" stroke-linecap="butt" stroke-miterlimit="10" stroke-linejoin="miter" fill="none" stroke="#6666ff" d="M334.49244-45.35506 342.98454-36.86295"/>
<path transform="matrix(.7071,-.7071,-.7071,-.7071,364.45005,156.66457)" d="M4.81812 0 .96518 1.45462 2.23799 0 .96518-1.45462Z" fill="#6666ff"/>
<path transform="matrix(.7071,-.7071,-.7071,-.7071,364.45005,156.66457)" stroke-width=".59776" stroke-linecap="butt" stroke-miterlimit="10" stroke-linejoin="miter" fill="none" stroke="#6666ff" d="M4.81812 0 .96518 1.45462 2.23799 0 .96518-1.45462Z"/>
<path transform="matrix(1,0,0,-1,22.94236,118.32477)" stroke-width=".59776" stroke-linecap="butt" stroke-miterlimit="10" stroke-linejoin="miter" fill="none" stroke="#6666ff" d="M334.49244-45.35506 328.48756-55.75572"/>
<path transform="matrix(-.49998,.86601,.86601,.49998,352.47416,172.27176)" d="M4.81812 0 .96518 1.45462 2.23799 0 .96518-1.45462Z" fill="#6666ff"/>
<path transform="matrix(-.49998,.86601,.86601,.49998,352.47416,172.27176)" stroke-width=".59776" stroke-linecap="butt" stroke-miterlimit="10" stroke-linejoin="miter" fill="none" stroke="#6666ff" d="M4.81812 0 .96518 1.45462 2.23799 0 .96518-1.45462Z"/>
<path transform="matrix(1,0,0,-1,22.94236,118.32477)" stroke-width=".79701" stroke-linecap="butt" stroke-miterlimit="10" stroke-linejoin="miter" fill="none" stroke="#cc0000" d="M334.49244-68.03258H335.2455"/>
<path transform="matrix(1,0,0,-1,356.01728,186.35735)" d="M4.5344 0 1.2869 1.23083 2.36983 0 1.2869-1.23083Z" fill="#cc0000"/>
<path transform="matrix(1,0,0,-1,356.01728,186.35735)" stroke-width=".79701" stroke-linecap="butt" stroke-miterlimit="10" stroke-linejoin="miter" fill="none" stroke="#cc0000" d="M4.5344 0 1.2869 1.23083 2.36983 0 1.2869-1.23083Z"/>
<use data-text="&#x03a3;" xlink:href="#font_5_1" transform="matrix(6.973848,0,0,-6.973848,366.62388,188.6849)" fill="#cc0000"/>
<use data-text="&#x2248;" xlink:href="#font_6_1" transform="matrix(6.973848,0,0,-6.973848,374.57865,188.6849)" fill="#cc0000"/>
<use data-text="0" xlink:href="#font_5_2" transform="matrix(6.973848,0,0,-6.973848,383.07307,188.6849)" fill="#cc0000"/>
<use data-text="F" xlink:href="#font_2_54" transform="matrix(8.966376,0,0,-8.966376,26.462159,191.43051)"/>
<use data-text="e" xlink:href="#font_2_50" transform="matrix(8.966376,0,0,-8.966376,31.48333,191.43051)"/>
<use data-text="r" xlink:href="#font_2_96" transform="matrix(8.966376,0,0,-8.966376,35.580965,191.43051)"/>
<use data-text="m" xlink:href="#font_2_75" transform="matrix(8.966376,0,0,-8.966376,38.72816,191.43051)"/>
<use data-text="a" xlink:href="#font_2_28" transform="matrix(8.966376,0,0,-8.966376,46.044725,191.43051)"/>
<use data-text="t" xlink:href="#font_2_105" transform="matrix(8.966376,0,0,-8.966376,50.474115,191.43051)"/>
<use data-text=":" xlink:href="#font_2_44" transform="matrix(8.966376,0,0,-8.966376,53.80064,191.43051)"/>
<use data-text="&#x03b4;" xlink:href="#font_1_1" transform="matrix(8.966376,0,0,-8.966376,60.465639,191.43051)"/>
<use data-text="&#x222b;" xlink:href="#font_7_1" transform="matrix(8.966376,0,0,-8.966376,64.89103,184.20755)"/>
<use data-text="n" xlink:href="#font_1_10" transform="matrix(8.966376,0,0,-8.966376,72.57051,191.43051)"/>
<use data-text="d" xlink:href="#font_1_8" transform="matrix(8.966376,0,0,-8.966376,79.653949,191.43051)"/>
<use data-text="s" xlink:href="#font_1_11" transform="matrix(8.966376,0,0,-8.966376,84.42406,191.43051)"/>
<use data-text="=" xlink:href="#font_8_2" transform="matrix(8.966376,0,0,-8.966376,91.292919,191.43051)"/>
<use data-text="0" xlink:href="#font_8_1" transform="matrix(8.966376,0,0,-8.966376,101.01247,191.43051)"/>
<use data-text="U" xlink:href="#font_2_108" transform="matrix(8.966376,0,0,-8.966376,115.75361,191.43051)"/>
<use data-text="n" xlink:href="#font_2_77" transform="matrix(8.966376,0,0,-8.966376,122.092838,191.43051)"/>
<use data-text="i" xlink:href="#font_2_66" transform="matrix(8.966376,0,0,-8.966376,126.85399,191.43051)"/>
<use data-text="f" xlink:href="#font_2_55" transform="matrix(8.966376,0,0,-8.966376,129.05075,191.43051)"/>
<use data-text="o" xlink:href="#font_2_81" transform="matrix(8.966376,0,0,-8.966376,131.86618,191.43051)"/>
<use data-text="r" xlink:href="#font_2_96" transform="matrix(8.966376,0,0,-8.966376,136.22385,191.43051)"/>
<use data-text="m" xlink:href="#font_2_75" transform="matrix(8.966376,0,0,-8.966376,139.37105,191.43051)"/>
<use data-text="m" xlink:href="#font_2_75" transform="matrix(8.966376,0,0,-8.966376,149.7541,191.43051)"/>
<use data-text="e" xlink:href="#font_2_50" transform="matrix(8.966376,0,0,-8.966376,157.07068,191.43051)"/>
<use data-text="d" xlink:href="#font_2_47" transform="matrix(8.966376,0,0,-8.966376,161.1683,191.43051)"/>
<use data-text="i" xlink:href="#font_2_66" transform="matrix(8.966376,0,0,-8.966376,165.92946,191.43051)"/>
<use data-text="u" xlink:href="#font_2_109" transform="matrix(8.966376,0,0,-8.966376,168.12622,191.43051)"/>
<use data-text="m" xlink:href="#font_2_75" transform="matrix(8.966376,0,0,-8.966376,172.88736,191.43051)"/>
<use data-text=":" xlink:href="#font_2_44" transform="matrix(8.966376,0,0,-8.966376,180.20392,191.43051)"/>
<use data-text="&#x03b4;" xlink:href="#font_1_1" transform="matrix(8.966376,0,0,-8.966376,186.86893,191.43051)"/>
<use data-text="&#x222b;" xlink:href="#font_7_1" transform="matrix(8.966376,0,0,-8.966376,191.29431,184.20755)"/>
<use data-text="d" xlink:href="#font_1_8" transform="matrix(8.966376,0,0,-8.966376,198.9738,191.43051)"/>
<use data-text="s" xlink:href="#font_1_11" transform="matrix(8.966376,0,0,-8.966376,203.74391,191.43051)"/>
<use data-text="=" xlink:href="#font_8_2" transform="matrix(8.966376,0,0,-8.966376,210.60132,191.43051)"/>
<use data-text="0" xlink:href="#font_8_1" transform="matrix(8.966376,0,0,-8.966376,220.32086,191.43051)"/>
<use data-text="P" xlink:href="#font_2_83" transform="matrix(8.966376,0,0,-8.966376,236.58365,190.4342)"/>
<use data-text="a" xlink:href="#font_2_28" transform="matrix(8.966376,0,0,-8.966376,242.21454,190.4342)"/>
<use data-text="t" xlink:href="#font_2_105" transform="matrix(8.966376,0,0,-8.966376,246.64392,190.4342)"/>
<use data-text="h" xlink:href="#font_2_63" transform="matrix(8.966376,0,0,-8.966376,249.97046,190.4342)"/>
<use data-text="p" xlink:href="#font_2_84" transform="matrix(8.966376,0,0,-8.966376,257.80708,190.4342)"/>
<use data-text="h" xlink:href="#font_2_63" transform="matrix(8.966376,0,0,-8.966376,262.5682,190.4342)"/>
<use data-text="a" xlink:href="#font_2_28" transform="matrix(8.966376,0,0,-8.966376,267.32936,190.4342)"/>
<use data-text="s" xlink:href="#font_2_98" transform="matrix(8.966376,0,0,-8.966376,271.75877,190.4342)"/>
<use data-text="e" xlink:href="#font_2_50" transform="matrix(8.966376,0,0,-8.966376,275.2915,190.4342)"/>
<use data-text=":" xlink:href="#font_2_44" transform="matrix(8.966376,0,0,-8.966376,279.38914,190.4342)"/>
<use data-text="&#x03d5;" xlink:href="#font_1_3" transform="matrix(8.966376,0,0,-8.966376,286.05415,190.4342)"/>
<use data-text="=" xlink:href="#font_8_2" transform="matrix(8.966376,0,0,-8.966376,294.09895,190.4342)"/>
<use data-text="k" xlink:href="#font_1_9" transform="matrix(8.966376,0,0,-8.966376,303.82627,190.4342)"/>
<use data-text="&#x2113;" xlink:href="#font_1_7" transform="matrix(8.966376,0,0,-8.966376,310.41658,190.4342)"/>
</svg>
