<svg xmlns="http://www.w3.org/2000/svg" xmlns:xlink="http://www.w3.org/1999/xlink" xmlns:inkscape="http://www.inkscape.org/namespaces/inkscape" version="1.1" width="507.43" height="297.93" viewBox="0 0 507.43 297.93">
<defs>
<path id="font_1_5" d="M.7799988 .660614C.7819977 .66360476 .7849884 .6706085 .7849884 .6746063 .7849884 .6816101 .7839966 .6826172 .7609863 .6826172H.070999149C.04798889 .6826172 .04699707 .6816101 .04699707 .6746063 .04699707 .6706085 .049987794 .66360476 .051986696 .660614L.3889923-.014205933C.3959961-.02720642 .39898683-.033203126 .41600038-.033203126 .43299867-.033203126 .43598939-.02720642 .44299317-.014205933L.7799988 .660614M.17098999 .61061099H.7200012L.44599916 .060775758 .17098999 .61061099Z"/>
<path id="font_1_2" d="M.19198609 .2502594C.19198609 .2792511 .16799927 .30325318 .13899231 .30325318 .10998535 .30325318 .085998538 .2792511 .085998538 .2502594 .085998538 .22125244 .10998535 .19726563 .13899231 .19726563 .16799927 .19726563 .19198609 .22125244 .19198609 .2502594Z"/>
<path id="font_2_2" d="M.72299197 .27397157H.6759949C.6539917 .13598633 .6259918 .04699707 .44099427 .04699707H.2889862V.32896424H.34399415C.43998719 .32896424 .44999696 .28596498 .44999696 .2119751H.49699403V.49276734H.44999696C.44999696 .41889955 .44099427 .37597657 .34399415 .37597657H.2889862V.63253787H.44099427C.60198977 .63253787 .6279907 .55966189 .6439972 .43885804H.69099429L.6599884 .6795349H.038986207V.63253787H.14698792V.04699707H.038986207V0H.6769867L.72299197 .27397157Z"/>
<path id="font_3_7" d="M.68699648 .32714845C.70199587 .32714845 .72099307 .32714845 .72099307 .34713746 .72099307 .36714173 .70199587 .36714173 .6879883 .36714173H.08898926C.07499695 .36714173 .055999757 .36714173 .055999757 .34713746 .055999757 .32714845 .07499695 .32714845 .08999634 .32714845H.68699648M.6879883 .13284302C.70199587 .13284302 .72099307 .13284302 .72099307 .15284729 .72099307 .17285156 .70199587 .17285156 .68699648 .17285156H.08999634C.07499695 .17285156 .055999757 .17285156 .055999757 .15284729 .055999757 .13284302 .07499695 .13284302 .08898926 .13284302H.6879883Z"/>
<path id="font_3_2" d="M.45999146 .31976319C.45999146 .39982606 .45498658 .47988893 .41999818 .5539398 .37399293 .65000918 .2919922 .6660156 .25 .6660156 .18998719 .6660156 .116989139 .64001467 .07598877 .54693606 .04399109 .47789 .038986207 .39982606 .038986207 .31976319 .038986207 .24472046 .042999269 .15464783 .083999637 .07859802 .1269989-.0024719239 .19999695-.022460938 .24899292-.022460938 .30299378-.022460938 .3789978-.0014648438 .4229889 .09359741 .45498658 .16265869 .45999146 .2407074 .45999146 .31976319M.24899292-.00047302247C.20999146-.00047302247 .15098572 .024551392 .1329956 .12062073 .12199402 .18066406 .12199402 .2727356 .12199402 .3317871 .12199402 .39582826 .12199402 .46188355 .12998963 .5159149 .14898682 .63500979 .22399903 .64401248 .24899292 .64401248 .28199769 .64401248 .34799195 .6259918 .36698915 .52693179 .3769989 .47088624 .3769989 .39482118 .3769989 .3317871 .3769989 .25672914 .3769989 .18867493 .3659973 .12461853 .35099793 .029556275 .2939911-.00047302247 .24899292-.00047302247Z"/>
<path id="font_2_1" d="M.27799989 .37486268V.63853457H.45999146C.5609894 .63853457 .57899478 .55963137 .57899478 .51368716 .57899478 .43678285 .5309906 .37486268 .43399049 .37486268H.27799989M.5479889 .35786439C.6559906 .37686158 .72099307 .43678285 .72099307 .51368716 .72099307 .60557559 .6339874 .6855469 .47299195 .6855469H.038986207V.63853457H.14698792V.04699707H.038986207V0H.5029907C.6689911 0 .7529907 .08796692 .7529907 .18592835 .7529907 .28189088 .6669922 .3488617 .5479889 .35786439M.46199037 .04699707H.27799989V.3388672H.47200013C.49198915 .3388672 .5389862 .3388672 .57299807 .29588319 .60598757 .253891 .60598757 .19792176 .60598757 .18693543 .60598757 .17492676 .60598757 .04699707 .46199037 .04699707Z"/>
<path id="font_1_3" d="M.3889923 .27801515 .18899536 .47720338C.1769867 .48919679 .1749878 .49121095 .16699219 .49121095 .15699768 .49121095 .14698792 .48220826 .14698792 .47120667 .14698792 .46420289 .14898682 .46218873 .1599884 .45118714L.3600006 .24998474 .1599884 .048797609C.14898682 .03779602 .14698792 .03578186 .14698792 .028778077 .14698792 .01777649 .15699768 .0087890629 .16699219 .0087890629 .1749878 .0087890629 .1769867 .010787964 .18899536 .022781373L.3880005 .2219696 .59498599 .014785767C.5970001 .0137786869 .60398867 .0087890629 .6100006 .0087890629 .621994 .0087890629 .6299896 .01777649 .6299896 .028778077 .6299896 .030776978 .6299896 .03479004 .6269989 .039794923 .6259918 .041793825 .46699525 .19894409 .4169922 .24998474L.59999087 .4331665C.6049957 .43917848 .6199951 .45217896 .625 .45819093 .6259918 .46018983 .6299896 .46420289 .6299896 .47120667 .6299896 .48220826 .621994 .49121095 .6100006 .49121095 .60198977 .49121095 .59799197 .48719789 .58699038 .4761963L.3889923 .27801515Z"/>
<path id="font_1_1" d="M.6589966 .23046875C.6759949 .23046875 .69400027 .23046875 .69400027 .25045777 .69400027 .27046205 .6759949 .27046205 .6589966 .27046205H.117996219C.100997928 .27046205 .08299255 .27046205 .08299255 .25045777 .08299255 .23046875 .100997928 .23046875 .117996219 .23046875H.6589966Z"/>
<path id="font_4_5" d="M.46299745 .33891297C.45298768 .40098573 .4119873 .45703126 .33399964 .45703126 .272995 .45703126 .20799256 .44102479 .12998963 .36294557 .04699707 .2798462 .039993287 .18673706 .039993287 .15570069 .039993287 .09362793 .083999637-.022460938 .22399903-.022460938 .46199037-.022460938 .56599429 .31388856 .56599429 .45703126 .56599429 .61628726 .47299195 .7158203 .34999085 .7158203 .20498657 .7158203 .15899658 .58631899 .15899658 .5583191 .15899658 .5443268 .16699219 .5233154 .19699097 .5233154 .22999573 .5233154 .25099183 .5533142 .25099183 .57632449 .25099183 .6113281 .21998596 .6113281 .20399475 .6113281 .24798584 .684845 .31900025 .69081118 .34799195 .69081118 .42099 .69081118 .4909973 .6391449 .4909973 .51026919 .4909973 .4710846 .4850006 .42001344 .46398927 .33891297H.46299745M.22698975 .0055389406C.116989139 .0055389406 .116989139 .10864258 .116989139 .1186676 .116989139 .14569092 .14199829 .28585816 .18299866 .34591676 .22299195 .40298463 .27198792 .43502809 .33399964 .43502809 .44299317 .43502809 .44499208 .32289125 .44499208 .3028717 .44499208 .23078919 .3809967 .0055389406 .22698975 .0055389406Z"/>
<path id="font_5_1" d="M.24598694 .39465333H.34799195C.36698915 .39465333 .37998963 .39465333 .37998963 .4166565 .37998963 .43066407 .36698915 .43066407 .34999085 .43066407H.25498963L.2919922 .57850649C.29299928 .58351138 .29499818 .588501 .29499818 .5924988 .29499818 .6104889 .2809906 .6244812 .26098634 .6244812 .23599243 .6244812 .22099304 .6074829 .21398926 .58151248 .20698548 .5565338 .21998596 .6044922 .17599488 .43066407H.07398987C.054992677 .43066407 .041992189 .43066407 .041992189 .4086609 .041992189 .39465333 .053985597 .39465333 .07199097 .39465333H.16699219L.10798645 .15901184C.101989749 .13404846 .09298706 .098098758 .09298706 .085128787 .09298706 .0262146 .14299011-.009765625 .19999695-.009765625 .31098939-.009765625 .37399293 .13005066 .37399293 .14303589 .37399293 .15602112 .36099244 .15602112 .35798646 .15602112 .34599305 .15602112 .34498597 .15402222 .33699037 .13703919 .30899049 .074142459 .2579956 .018234253 .20298767 .018234253 .18199158 .018234253 .16799927 .031204224 .16799927 .06715393 .16799927 .07713318 .17199707 .098098758 .17399597 .10809326L.24598694 .39465333Z"/>
<path id="font_4_1" d="M.23098755 .35134889C.23599243 .37236024 .24598694 .41036988 .24598694 .41537477 .24598694 .43237306 .23399353 .4423828 .21699524 .4423828 .21398926 .4423828 .18598938 .44137574 .1769867 .40637208L.032989503-.17282105C.02999878-.18482971 .02999878-.18682862 .02999878-.18882752 .02999878-.2038269 .040985109-.21582031 .057998659-.21582031 .07899475-.21582031 .09098816-.1978302 .09298706-.19482422 .09700012-.18582154 .10998535-.13380432 .147995 .020248414 .17999268-.0067443849 .22499085-.0107421879 .24499512-.0107421879 .31498719-.0107421879 .35398866 .03425598 .37799073 .06227112 .3869934 .01725769 .42399598-.0107421879 .46798707-.0107421879 .5029907-.0107421879 .526001 .012252808 .5419922 .044265748 .5589905 .08027649 .57199099 .14129639 .57199099 .14329529 .57199099 .1532898 .5629883 .1532898 .55999758 .1532898 .5499878 .1532898 .548996 .14929199 .54599 .13528443 .5289917 .07026672 .5109863 .011245728 .46998597 .011245728 .44299317 .011245728 .43998719 .037261964 .43998719 .057266237 .43998719 .07926941 .45199586 .12628174 .45999146 .16130066L.48799134 .2693329C.4909973 .28433229 .5009918 .32234193 .5049896 .3373413 .5099945 .36035157 .519989 .3983612 .519989 .40437318 .519989 .42237855 .5059967 .43138124 .4909973 .43138124 .48599244 .43138124 .45999146 .43037416 .45199586 .3963623L.40499879 .20930481C.3929901 .15930176 .38198854 .11727905 .3789978 .107284549 .37799073 .10227966 .32998658 .011245728 .24899292 .011245728 .19898987 .011245728 .1749878 .044265748 .1749878 .09828186 .1749878 .12728882 .18199158 .1552887 .18899536 .18330384L.23098755 .35134889Z"/>
<path id="font_6_1" d="M.5159912 .31925965C.5159912 .42918397 .5029907 .50813296 .45700074 .5780945 .42599488 .62405398 .3639984 .6640625 .28399659 .6640625 .051986696 .6640625 .051986696 .39120484 .051986696 .31925965 .051986696 .2472992 .051986696-.01953125 .28399659-.01953125 .5159912-.01953125 .5159912 .2472992 .5159912 .31925965M.28399659 .008468628C.23799134 .008468628 .1769867 .035446168 .15699768 .117385867 .14299011 .17634583 .14299011 .25830079 .14299011 .33224488 .14299011 .40519715 .14299011 .4811554 .1579895 .53611758 .1789856 .6150665 .24299622 .63604739 .28399659 .63604739 .33799745 .63604739 .3899994 .6030731 .4079895 .545105 .42399598 .4911499 .4249878 .41918946 .4249878 .33224488 .4249878 .25830079 .4249878 .18434143 .4119873 .12138367 .3919983 .030441285 .32398988 .008468628 .28399659 .008468628Z"/>
<path id="font_4_3" d="M.14099121 .22688294C.17399597 .21289063 .20298767 .21289063 .22698975 .21289063 .25299073 .21289063 .30799867 .21289063 .30799867 .24397278 .30799867 .26802064 .272995 .27101136 .23498535 .27101136 .21398926 .27101136 .1789856 .26901246 .14199829 .25201417 .11898804 .26402284 .101989749 .28302003 .101989749 .31004334 .101989749 .37109376 .19999695 .40711976 .2899933 .40711976 .30599977 .40711976 .34199525 .40711976 .38198854 .37908937 .3929901 .37109376 .394989 .36909486 .4019928 .36909486 .4149933 .36909486 .42900086 .38209535 .42900086 .3961029 .42900086 .41511537 .36799623 .453125 .2999878 .453125 .18499756 .453125 .07699585 .3861084 .07699585 .31004334 .07699585 .26701356 .11299133 .24194336 .116989139 .23892212 .057998659 .20587158 .025985718 .14976502 .025985718 .10368347 .025985718 .03855896 .08299255-.022460938 .18899536-.022460938 .32099916-.022460938 .3769989 .06561279 .3769989 .0806427 .3769989 .08665466 .37199403 .090652469 .3659973 .090652469 .36099244 .090652469 .35798646 .08665466 .35598756 .08364868 .34199525 .06060791 .31799317 .023529053 .19799805 .023529053 .13699341 .023529053 .051986696 .03855896 .051986696 .109695438 .051986696 .14375305 .07998657 .19685364 .14099121 .22688294M.17399597 .2399292C.19699097 .2480011 .21798706 .24902344 .23498535 .24902344 .2599945 .24902344 .2639923 .2480011 .28199769 .2429657 .2669983 .23588562 .2649994 .23487854 .22698975 .23487854 .20498657 .23487854 .19299317 .23487854 .17399597 .2399292Z"/>
<path id="font_7_74" d="M.79499819 0 .94299319 .69433596H.82299807L.6159973 .3521576C.57598879 .28512574 .49198915 .14706421 .46998597 .09803772H.46899415C.46798707 .13905335 .44699098 .26011659 .43798829 .308136L.37799073 .64930728 .36999513 .69433596H.25L.101989749 0H.18399048L.31498719 .61628726H.31599427C.31698609 .56526187 .34298707 .41619874 .34799195 .3881836L.39898683 .106048587 .4139862 .022003174H.48999024L.70199587 .37417604C.72499087 .41119386 .81999209 .56925967 .84298709 .61628726H.84399417L.71299746 0H.79499819Z"/>
<path id="font_7_28" d="M.42199708 .00024414063 .48298646 .28903199C.5039978 .38793946 .44699098 .4609375 .34799195 .4609375 .2829895 .4609375 .23098755 .44392396 .17799378 .41693116L.16899109 .34597779C.22599793 .38294984 .2789917 .39793397 .33399964 .39793397 .3899994 .39793397 .4139862 .3529663 .3999939 .2880249L.3909912 .24606323C.21798706 .24206543 .09599304 .19706726 .07899475 .11616516 .068984989 .069229129 .08299255-.0107421879 .16999817-.0107421879 .18998719-.0107421879 .2769928-.008743286 .34999085 .038253786L.34199525 .00024414063H.42199708M.36898805 .14013672C.3639984 .119155887 .35899354 .094192508 .31900025 .07322693 .2899933 .058242799 .2559967 .054244996 .23599243 .054244996 .18499756 .054244996 .147995 .07821655 .1559906 .11816406 .17098999 .18907166 .36698915 .19206238 .37998963 .19206238L.36898805 .14013672Z"/>
<path id="font_7_116" d="M.47299195 0 .31698609 .22917176 .5499878 .44433595H.46299745L.2939911 .28120423 .18699646 .44433595H.099990848L.24798584 .22917176 0 0H.08699036L.27398683 .18713379 .3849945 0H.47299195Z"/>
<path id="font_7_114" d="M.7809906 .44433595H.70399478C.66600039 .37226869 .5299988 .11607361 .5099945 .056030275H.5089874C.5119934 .09806824 .5049896 .16612244 .5 .22216797L.47799684 .44433595H.4039917C.35198976 .34625245 .23298645 .12208557 .21598816 .059036256H.21499634C.21899414 .096069339 .21299744 .18713379 .20698548 .24917603L.18798828 .44433595H.10798645L.15499878 0H.23799134L.33898927 .19314575C.375 .26419068 .41600038 .34425355 .42799378 .38728334H.42900086C.4269867 .36827088 .42799378 .3292389 .42799378 .31922914 .42900086 .27520753 .42900086 .27319337 .43199159 .24717713L.45498658 0H.54599L.7809906 .44433595Z"/>
<path id="font_7_50" d="M.47399903 .21931458C.47999574 .25030519 .49499513 .32615663 .46899415 .3859558 .43998719 .44892884 .3789978 .4609375 .34098817 .4609375 .22499085 .4609375 .10998535 .35406495 .08299255 .22631836 .054992677 .0942688 .1309967-.0107421879 .2559967-.0107421879 .3039856-.0107421879 .3639984 .0012512207 .42999269 .038253786L.43899537 .10726929C.3659973 .06225586 .30499269 .054244996 .269989 .054244996 .18699646 .054244996 .13899231 .12727356 .1559906 .21931458H.47399903M.42599488 .2783203H.17399597C.20399475 .34210206 .2639923 .39593507 .32699586 .39593507 .3639984 .39593507 .42900086 .37898255 .42599488 .2783203Z"/>
<path id="font_7_72" d="M.1619873 0 .30999757 .69433596H.22999573L.08198547 0H.1619873Z"/>
<path id="font_7_502" d="M.31399537 .6093292 .33299256 .69433596H.24699402L.22799683 .60832217H.2539978L.19999695 .4814453H.24299622L.31399537 .6093292Z"/>
<path id="font_7_98" d="M.39698792 .12911988C.40499879 .1640625 .397995 .19898987 .36999513 .22894287 .34199525 .2578888 .31298829 .2638855 .2539978 .27586366 .21899414 .28285218 .17098999 .29185487 .18099976 .3388672 .19400025 .39793397 .2649994 .39793397 .27999879 .39793397 .35299684 .39793397 .3909912 .37490846 .41600038 .35888673L.44400025 .42892457C.3880005 .45692445 .34298707 .4609375 .3019867 .4609375 .2789917 .4609375 .13198853 .4609375 .10398865 .32885743 .09399414 .28085328 .115997318 .25090028 .125 .2399292 .1559906 .20698548 .18099976 .20199585 .24598694 .18901062 .2769928 .18302918 .33198548 .17204285 .32099916 .12113953 .30699159 .056243898 .22599793 .056243898 .21299744 .056243898 .1539917 .056243898 .100997928 .07621765 .06498718 .106155399L.035995485 .0332489C.08898926 .0012512207 .147995-.0107421879 .19898987-.0107421879 .2639923-.0107421879 .37199403 .010253906 .39698792 .12911988Z"/>
<path id="font_7_91" d="M.4059906-.19335938 .5439911 .45507813H.46398927L.44898988 .3870697C.43499757 .4060669 .40098573 .45507813 .32199098 .45507813 .22099304 .45507813 .11199951 .35609437 .08299255 .22116089 .055999757 .096221927 .10598755-.0107421879 .20498657-.0107421879 .269989-.0107421879 .33399964 .019256592 .37399293 .04925537L.32299806-.19335938H.4059906M.39698792 .14120484C.3939972 .12721253 .3899994 .11021423 .34899903 .082229617 .32499696 .0642395 .29499818 .054244996 .2679901 .054244996 .19198609 .054244996 .1459961 .12921143 .1659851 .22116089 .18699646 .32011415 .272995 .3870697 .34899903 .3870697 .4149933 .3870697 .43499757 .32011415 .42599488 .27912904L.39698792 .14120484Z"/>
<path id="font_7_109" d="M.44898988 .00024414063 .54299929 .44433595H.45999146L.39898683 .15527344C.38198854 .07525635 .31298829 .04824829 .25299073 .04824829 .18099976 .04824829 .1789856 .071258548 .18798828 .11425781L.2579956 .44433595H.1749878L.10398865 .10926819C.085998538 .024246216 .11299133-.0107421879 .18399048-.0107421879 .24198914-.0107421879 .32299806 .0062561037 .3789978 .04824829L.36898805 .00024414063H.44898988Z"/>
<path id="font_7_105" d="M.34799195 .026245118 .34399415 .089263919C.31399537 .06925964 .27598573 .057250978 .24499512 .057250978 .20599365 .057250978 .20098877 .09225464 .21199036 .14427185L.2619934 .38232423H.4059906L.4189911 .44433595H.2749939L.3019867 .57128909H.22799683L.20098877 .44433595H.11299133L.099990848 .38232423H.18499756L.1309967 .12626648C.117996219 .06724548 .114990238-.0107421879 .18798828-.0107421879 .23199463-.0107421879 .28599549-.0017547608 .34799195 .026245118Z"/>
<path id="font_7_66" d="M.1619873 0 .2559967 .44433595H.17599488L.08198547 0H.1619873M.29100038 .5631714 .31098939 .6591797H.21499634L.19499207 .5631714H.29100038Z"/>
<path id="font_7_81" d="M.5299988 .22009278C.55799868 .3509674 .48098756 .4609375 .35398866 .4609375 .22999573 .4609375 .10499573 .3529663 .07699585 .22009278 .04899597 .08822632 .1329956-.0107421879 .2539978-.0107421879 .37799073-.0107421879 .5019989 .09022522 .5299988 .22009278M.44898988 .23008728C.42399598 .11419678 .34199525 .057250978 .2689972 .057250978 .19198609 .057250978 .13798523 .1171875 .1619873 .23008728 .18699646 .3469696 .27198792 .39593507 .33999635 .39593507 .4119873 .39593507 .47299195 .3449707 .44898988 .23008728Z"/>
<path id="font_7_77" d="M.44898988 0 .5119934 .2970581C.5279999 .37106324 .526001 .45507813 .40499879 .45507813 .32598878 .45507813 .2679901 .40907289 .23899842 .3790741L.2539978 .45007325H.1769867L.08099365 0H.1639862L.21598816 .24403382C.22999573 .3100586 .272995 .39007569 .34899903 .39007569 .44898988 .39007569 .43399049 .31906129 .42799378 .29005433L.3659973 0H.44898988Z"/>
<path id="font_7_112" d="M.5529938 .44433595H.47399903C.4079895 .33424378 .40699769 .33325196 .35198976 .24118042 .32099916 .18913269 .2639923 .092056278 .25099183 .055038454H.24899292C.25 .072052 .25099183 .09106445 .22698975 .23516846L.18998719 .44433595H.10798645L.18998719 0H.2829895L.5529938 .44433595Z"/>
<path id="font_7_43" d="M.43499757 .037246705 .44400025 .10820007C.3889923 .07522583 .33198548 .057250978 .27198792 .057250978 .18699646 .057250978 .1459961 .12818909 .1659851 .22309876 .18299866 .3000183 .24099732 .39292909 .34799195 .39292909 .41099549 .39292909 .43998719 .38093568 .48298646 .3469696L.5109863 .41693116C.46099855 .44892884 .43299867 .4609375 .36099244 .4609375 .21899414 .4609375 .10798645 .3409729 .08299255 .22209168 .056991579 .09820557 .1269989-.0107421879 .25698854-.0107421879 .32699586-.0107421879 .38398744 .010253906 .43499757 .037246705Z"/>
<path id="font_7_75" d="M.73399356 0 .7969971 .2970581C.8129883 .37106324 .8109894 .45507813 .6899872 .45507813 .60598757 .45507813 .5479889 .404068 .5169983 .37306214 .5149994 .3930664 .5069885 .45507813 .40499879 .45507813 .32598878 .45507813 .2679901 .40907289 .23899842 .3790741L.2539978 .45007325H.1769867L.08099365 0H.1639862L.21598816 .24403382C.22999573 .3100586 .272995 .39007569 .34899903 .39007569 .44898988 .39007569 .43399049 .31906129 .42799378 .29005433L.3659973 0H.44898988L.5009918 .24403382C.5149994 .3100586 .55799868 .39007569 .6339874 .39007569 .73399356 .39007569 .71899417 .31906129 .71299746 .29005433L.651001 0H.73399356Z"/>
<path id="font_8_104" d="M.6439972 .6230469V.68803408H.035995485V.6230469H.16999817C.18199158 .6230469 .19400025 .6240387 .20599365 .6240387H.29599V0H.3849945V.6240387H.47399903C.48599244 .6240387 .49798585 .6230469 .5099945 .6230469H.6439972Z"/>
<path id="font_8_28" d="M.40899659 .00024414063V.28903199C.40899659 .39094544 .33599855 .4609375 .24398804 .4609375 .1789856 .4609375 .13398743 .44493104 .08699036 .41792298L.09298706 .3519745C.14498902 .38894654 .19499207 .40193177 .24398804 .40193177 .29100038 .40193177 .33099366 .361969 .33099366 .2880249V.24505615C.18099976 .24305725 .053985597 .20106507 .053985597 .11317444 .053985597 .07022095 .08099365-.0107421879 .16799927-.0107421879 .18199158-.0107421879 .27598573-.008743286 .33399964 .036254884V.00024414063H.40899659M.33099366 .13214112C.33099366 .11317444 .33099366 .0881958 .29699708 .069229129 .2679901 .051254274 .22999573 .050247194 .21899414 .050247194 .17098999 .050247194 .12599182 .07322693 .12599182 .11515808 .12599182 .18507385 .28799439 .19206238 .33099366 .19406128V.13214112Z"/>
<path id="font_8_70" d="M.47099305 0 .2809906 .27212525 .44898988 .4441986H.35899354L.1559906 .23609925V.69433596H.083999637V0H.15299988V.1410675L.23298645 .22410584 .3889923 0H.47099305Z"/>
<path id="font_8_50" d="M.4139862 .21875C.4139862 .25274659 .41299439 .32781983 .37399293 .38790895 .33299256 .4499359 .27198792 .4609375 .23599243 .4609375 .125 .4609375 .034988405 .3548584 .034988405 .22573853 .034988405 .09411621 .1309967-.0107421879 .25099183-.0107421879 .31399537-.0107421879 .37098695 .013244629 .4099884 .041244508L.4039917 .1060791C.34098817 .054244996 .2749939 .050247194 .2519989 .050247194 .17199707 .050247194 .10798645 .121032718 .10499573 .21875H.4139862M.35699464 .27374269H.10998535C.12599182 .34985353 .1789856 .39993287 .23599243 .39993287 .28799439 .39993287 .34399415 .36587525 .35699464 .27374269Z"/>
<path id="font_8_47" d="M.43399049-.0001373291V.69433596H.35899354V.39985658C.30599977 .44407655 .25 .45507813 .21299744 .45507813 .11399841 .45507813 .035995485 .35107423 .035995485 .22210694 .035995485 .09111023 .11299133-.0107421879 .20799256-.0107421879 .24099732-.0107421879 .2999878-.0017547608 .35598756 .052246095V.00024414063L.43399049-.0001373291M.35598756 .13911438C.35598756 .12512207 .35499574 .1071167 .32299806 .078125 .2999878 .05821228 .2749939 .050247194 .24899292 .050247194 .18699646 .050247194 .11399841 .09712219 .11399841 .22109986 .11399841 .35307313 .19999695 .3940735 .25898744 .3940735 .3039856 .39385987 .33399964 .37086488 .35598756 .3388672V.13911438Z"/>
<path id="font_8_81" d="M.46899415 .22009278C.46899415 .3539734 .36898805 .4609375 .25 .4609375 .1269989 .4609375 .02999878 .35098268 .02999878 .22009278 .02999878 .08821106 .13198853-.0107421879 .24899292-.0107421879 .36898805-.0107421879 .46899415 .09020996 .46899415 .22009278M.3909912 .23008728C.3909912 .112197879 .32299806 .053253175 .24899292 .053253175 .17999268 .053253175 .10798645 .109191898 .10798645 .23008728 .10798645 .35098268 .18399048 .39993287 .24899292 .39993287 .31900025 .39993287 .3909912 .34797669 .3909912 .23008728Z"/>
<path id="font_8_109" d="M.43499757 .00024414063V.44433595H.35699464V.15426636C.35699464 .07925415 .30099488 .04425049 .23699951 .04425049 .1659851 .04425049 .15899658 .070251468 .15899658 .11326599V.44433595H.08099365V.10926819C.08099365 .037246705 .10398865-.0107421879 .18699646-.0107421879 .23999024-.0107421879 .31098939 .0052490236 .3600006 .04824829V.00024414063H.43499757Z"/>
<path id="font_8_35" d="M.47999574 .22306824C.47999574 .34707643 .4119873 .45507813 .31799317 .45507813 .2789917 .45503236 .21699524 .44500733 .15699768 .39595033V.69433596H.08198547V-.000045776369L.1599884 .00024414063V.04624939C.18399048 .024246216 .22698975-.0107421879 .2939911-.0107421879 .3939972-.0107421879 .47999574 .08920288 .47999574 .22306824M.4019928 .22306824C.4019928 .09320068 .31799317 .050247194 .25698854 .050247194 .21798706 .050247194 .18499756 .068237308 .1599884 .11418152V.33496095C.17599488 .35906983 .21199036 .3940735 .2669983 .3940735 .32598878 .3940735 .4019928 .35107423 .4019928 .22306824Z"/>
<path id="font_8_72" d="M.1559906 0V.69433596H.08099365V0H.1559906Z"/>
<path id="font_8_43" d="M.4149933 .040252687 .40899659 .10719299C.35798646 .067230228 .3039856 .053253175 .25299073 .053253175 .16999817 .053253175 .11399841 .1251831 .11399841 .2230835 .11399841 .3010254 .15098572 .39692689 .25698854 .39692689 .30899049 .39692689 .34298707 .38893128 .397995 .3529663L.4099884 .41792298C.35099793 .4519348 .31698609 .4609375 .2559967 .4609375 .116989139 .4609375 .035995485 .33998109 .035995485 .22209168 .035995485 .09820557 .1269989-.0107421879 .2519989-.0107421879 .30599977-.0107421879 .36099244 .003250122 .4149933 .040252687Z"/>
<path id="font_8_96" d="M.32699586 .38806153V.45507813C.23799134 .45407105 .18299866 .4050598 .1519928 .35905458V.45007325H.08198547V0H.15699768V.21403504C.15699768 .31404115 .22898865 .38606263 .32699586 .38806153Z"/>
<path id="font_3_1" d="M.40899659 .23046875H.6879883C.70199587 .23046875 .72099307 .23046875 .72099307 .25045777 .72099307 .27046205 .70199587 .27046205 .6879883 .27046205H.40899659V.5500183C.40899659 .56399539 .40899659 .5830078 .3889923 .5830078 .36898805 .5830078 .36898805 .56399539 .36898805 .5500183V.27046205H.08898926C.07499695 .27046205 .055999757 .27046205 .055999757 .25045777 .055999757 .23046875 .07499695 .23046875 .08898926 .23046875H.36898805V-.05000305C.36898805-.06401062 .36898805-.08300781 .3889923-.08300781 .40899659-.08300781 .40899659-.06401062 .40899659-.05000305V.23046875Z"/>
<path id="font_8_112" d="M.44599916 .44433595H.37098695L.2919922 .23617554C.2709961 .18113709 .23999024 .10006714 .23199463 .05303955H.23098755C.22499085 .08906555 .19898987 .15811157 .18899536 .18513489L.09199524 .44433595H.01399231L.18598938 0H.27398683L.44599916 .44433595Z"/>
<path id="font_8_75" d="M.71299746 0V.29804994C.71299746 .36506654 .69699099 .45507813 .57598879 .45507813 .5159912 .45507813 .46398927 .427063 .4269867 .37306214 .40098573 .44906617 .33099366 .45507813 .29899598 .45507813 .22698975 .45507813 .17999268 .41407777 .15299988 .37806703V.45007325H.08099365V0H.15899658V.2450409C.15899658 .31304933 .18598938 .3940735 .2599945 .3940735 .35299684 .3940735 .35798646 .3290558 .35798646 .29104615V0H.43598939V.2450409C.43598939 .31304933 .46299745 .3940735 .5369873 .3940735 .6299896 .3940735 .6349945 .3290558 .6349945 .29104615V0H.71299746Z"/>
<path id="font_8_77" d="M.43499757 0V.29804994C.43499757 .36405946 .41999818 .45507813 .2979889 .45507813 .20799256 .45507813 .15899658 .3870697 .15299988 .3790741V.45007325H.08099365V0H.15899658V.2450409C.15899658 .31105042 .18399048 .3940735 .2599945 .3940735 .35598756 .3940735 .35699464 .32305909 .35699464 .29104615V0H.43499757Z"/>
<path id="font_8_66" d="M.1559906 0V.44433595H.08099365V0H.1559906M.1639862 .5662689V.65527346H.07499695V.5662689H.1639862Z"/>
<path id="font_8_105" d="M.33198548 .027252198 .31599427 .086257938C.2899933 .06524658 .2579956 .053253175 .22599793 .053253175 .18899536 .053253175 .1749878 .08325195 .1749878 .13627625V.38632203H.31599427V.44433595H.1749878V.57128909H.10598755V.44433595H.018997193V.38632203H.102996829V.119262699C.102996829 .059249879 .116989139-.0107421879 .18598938-.0107421879 .2559967-.0107421879 .30699159 .014251709 .33198548 .027252198Z"/>
<path id="font_8_113" d="M.92900088 .69433596H.8569946L.7659912 .38017274C.73999026 .2911377 .69200137 .123046878 .68699648 .072021488H.6859894C.6859894 .072021488 .6799927 .12504578 .6139984 .35316468L.5159912 .69433596H.43499757L.34498597 .38217164C.32299806 .30514527 .272995 .13005066 .2679901 .074020389H.2669983C.2630005 .11404419 .23599243 .21209717 .22799683 .24511719L.18099976 .41218568 .099990848 .69433596H.01399231L.21699524 0H.2979889L.397995 .3471527C.4189911 .42019654 .46199037 .56925967 .46798707 .6212921H.46899415C.47299195 .5912781 .49699403 .49623109 .5239868 .40118409L.6389923 0H.7259979L.92900088 .69433596Z"/>
<path id="font_8_91" d="M.43399049-.19335938V.45507813H.35899354V.3870697C.34899903 .4000702 .2999878 .45507813 .22200012 .45507813 .12199402 .45507813 .035995485 .35609437 .035995485 .22116089 .035995485 .09422302 .10899353-.0107421879 .20498657-.0107421879 .26098634-.0107421879 .31399537 .012252808 .35598756 .050247194V-.19335938H.43399049M.35899354 .14019776C.35899354 .12220764 .35899354 .12020874 .34899903 .10722351 .32299806 .06724548 .28599549 .050247194 .25 .050247194 .17399597 .050247194 .11399841 .12820435 .11399841 .22116089 .11399841 .32310487 .18598938 .3910675 .25898744 .3910675 .32798768 .3910675 .35899354 .32009889 .35899354 .28012086V.14019776Z"/>
<path id="font_8_44" d="M.17999268 .36132813V.44433595H.09700012V.36132813H.17999268M.17999268 0V.08299255H.09700012V0H.17999268Z"/>
<path id="font_6_3" d="M.5049896 .18203736H.47099305C.46798707 .16001892 .45799256 .100997928 .44499208 .09098816 .43699647 .084991458 .3600006 .084991458 .34599305 .084991458H.1619873C.2669983 .17803955 .3019867 .20603943 .3619995 .25306703 .43598939 .312088 .5049896 .374115 .5049896 .46914674 .5049896 .5900879 .39898683 .6640625 .2709961 .6640625 .14698792 .6640625 .06298828 .57710269 .06298828 .4851532 .06298828 .43414308 .10598755 .42915345 .115997318 .42915345 .13999939 .42915345 .16899109 .44615174 .16899109 .48214723 .16899109 .5001526 .1619873 .53515627 .10998535 .53515627 .14099121 .6060791 .20899964 .62805178 .2559967 .62805178 .35598756 .62805178 .4079895 .5501404 .4079895 .46914674 .4079895 .38212586 .34599305 .3130951 .31399537 .27708436L.07299805 .038986207C.06298828 .02999878 .06298828 .027999878 .06298828 0H.47499085L.5049896 .18203736Z"/>
<path id="font_9_5" d="M.3909912 .37597657C.37199403 .37597657 .36299134 .37597657 .34899903 .3639679 .34298707 .358963 .33198548 .34396363 .33198548 .3279724 .33198548 .30796815 .34700013 .29597474 .3659973 .29597474 .3899994 .29597474 .4169922 .31596376 .4169922 .3559723 .4169922 .40423585 .37098695 .44140626 .3019867 .44140626 .17098999 .44140626 .039993287 .29797364 .039993287 .15609741 .039993287 .06916809 .09399414-.009765625 .19599915-.009765625 .33198548-.009765625 .41799928 .09614563 .41799928 .10913086 .41799928 .11512756 .4119873 .12013245 .4079895 .12013245 .40499879 .12013245 .4039917 .119125369 .394989 .11013794 .33099366 .02520752 .23599243 .010223389 .19799805 .010223389 .1289978 .010223389 .10699463 .07017517 .10699463 .12013245 .10699463 .15509033 .12399292 .25201417 .1599884 .31996156 .18598938 .36697389 .23999024 .42140199 .30299378 .42140199 .31599427 .42140199 .37098695 .41937257 .3909912 .37597657Z"/>
<path id="font_10_6" d="M.6749878 .32421876C.68899539 .32421876 .70700076 .32421876 .70700076 .34220887 .70700076 .36120606 .6899872 .36120606 .6749878 .36120606H.085998538C.07199097 .36120606 .053985597 .36120606 .053985597 .34321595 .053985597 .32421876 .070999149 .32421876 .085998538 .32421876H.6749878M.6749878 .13780213C.68899539 .13780213 .70700076 .13780213 .70700076 .15579224 .70700076 .17480469 .6899872 .17480469 .6749878 .17480469H.085998538C.07199097 .17480469 .053985597 .17480469 .053985597 .15679932 .053985597 .13780213 .070999149 .13780213 .085998538 .13780213H.6749878Z"/>
<path id="font_10_2" d="M.28799439 .64105227C.28799439 .664032 .28799439 .66503909 .2679901 .66503909 .24398804 .6380615 .19400025 .6012573 .09098816 .6012573V.5722656C.11399841 .5722656 .1639862 .5722656 .21899414 .59825137V.07701111C.21899414 .041000368 .21598816 .0289917 .12799073 .0289917H.09700012V0C.12399292 .0019989014 .22099304 .0019989014 .2539978 .0019989014 .2869873 .0019989014 .3829956 .0019989014 .4099884 0V.0289917H.3789978C.29100038 .0289917 .28799439 .041000368 .28799439 .07701111V.64105227Z"/>
<path id="font_1_4" d="M.3889923-.8549652 .21299744-.4659729C.20599365-.44996644 .20098877-.44996644 .19799805-.44996644 .19699097-.44996644 .19198609-.44996644 .18099976-.45796205L.085998538-.52996829C.07299805-.53996279 .07299805-.54296877 .07299805-.54597476 .07299805-.55096438 .07598877-.55696108 .08299255-.55696108 .08898926-.55696108 .10598755-.54296877 .116989139-.53497317 .12298584-.52996829 .13798523-.5189667 .14898682-.51097109L.34599305-.9439697C.35299684-.95996096 .35798646-.95996096 .36698915-.95996096 .38198854-.95996096 .3849945-.95396426 .3919983-.9399719L.84599307 .000030517579C.8529968 .014038086 .8529968 .018035889 .8529968 .02003479 .8529968 .030029297 .8450012 .040039064 .83299258 .040039064 .82499697 .040039064 .81799319 .03503418 .80999758 .01902771L.3889923-.8549652Z"/>
<path id="font_9_1" d="M.14399719 .022216797C.16899109-.00077819827 .20599365-.009765625 .23999024-.009765625 .3039856-.009765625 .34799195 .033187868 .37098695 .06414795 .3809967 .011230469 .4229889-.009765625 .45799256-.009765625 .48799134-.009765625 .5119934 .008224487 .5299988 .044174196 .54599 .078125 .55999758 .13903809 .55999758 .14303589 .55999758 .14802552 .55599978 .15202332 .5499878 .15202332 .54100039 .15202332 .5399933 .14703369 .5359955 .13204956 .5209961 .073135379 .5019989 .010223389 .46099855 .010223389 .43199159 .010223389 .42999269 .036193849 .42999269 .056167604 .42999269 .07913208 .43899537 .11508179 .44599916 .14503479L.47399903 .2528839C.47799684 .2718506 .4889984 .31678773 .49398805 .33476258 .5 .35873414 .5109863 .40167237 .5109863 .4056549 .5109863 .4206543 .49899293 .43066407 .48399354 .43066407 .47499085 .43066407 .45399476 .426651 .44599916 .39666749L.37599183 .11906433C.37098695 .099105838 .37098695 .09710693 .35798646 .08113098 .34599305 .06414795 .30699159 .010223389 .24398804 .010223389 .18798828 .010223389 .16999817 .05116272 .16999817 .098098758 .16999817 .12727356 .1789856 .16229248 .18299866 .17929077L.22799683 .359375C.23298645 .37838746 .24099732 .4104004 .24099732 .4163971 .24099732 .43240357 .22799683 .44140626 .21499634 .44140626 .20599365 .44140626 .18399048 .43840028 .17599488 .40638734L.0309906-.1728363C.02999878-.17784119 .027999878-.18385315 .027999878-.18984986 .027999878-.20484925 .039993287-.21484375 .054992677-.21484375 .083999637-.21484375 .08999634-.19184876 .09700012-.16383362L.14399719 .022216797Z"/>
<path id="font_11_1" d="M.4889984 .31877137C.4889984 .42585755 .47799684 .49090577 .44499208 .55496218 .40098573 .6430359 .31999208 .66503909 .2649994 .66503909 .13899231 .66503909 .09298706 .5709839 .07899475 .5429535 .042999269 .4698944 .040985109 .3708191 .040985109 .31877137 .040985109 .25271607 .04399109 .15162659 .09199524 .07156372 .13798523-.0024871827 .21199036-.021484375 .2649994-.021484375 .31298829-.021484375 .39898683-.0064849855 .44898988 .09257507 .48599244 .16464234 .4889984 .2537079 .4889984 .31877137M.2649994 .006515503C.23098755 .006515503 .1619873 .022521973 .14099121 .12760926 .12998963 .18466187 .12998963 .2787323 .12998963 .33078004 .12998963 .3998413 .12998963 .4698944 .14099121 .5249481 .1619873 .6270294 .23999024 .6370239 .2649994 .6370239 .29899598 .6370239 .36799623 .62002566 .3880005 .5289459 .3999939 .4738922 .3999939 .39883424 .3999939 .33078004 .3999939 .27172853 .3999939 .18165589 .3880005 .12561035 .36698915 .020523072 .2979889 .006515503 .2649994 .006515503Z"/>
<path id="font_9_2" d="M.13899231 .22782898C.17098999 .21484375 .20498657 .21484375 .22399903 .21484375 .25 .21484375 .3019867 .21484375 .3019867 .24395752 .3019867 .26200868 .2829895 .26901246 .23199463 .26901246 .20698548 .26901246 .1769867 .26602174 .14199829 .25102235 .11099243 .26602174 .09899902 .28903199 .09899902 .31105042 .09899902 .3731079 .19699097 .4091339 .28599549 .4091339 .30299378 .4091339 .33898927 .4091339 .3809967 .3781128 .3869934 .374115 .3899994 .371109 .39698792 .371109 .40899659 .371109 .42199708 .38412477 .42199708 .39613343 .42199708 .4141388 .3639984 .45214845 .29499818 .45214845 .18299866 .45214845 .07699585 .38511659 .07699585 .31105042 .07699585 .27401734 .100997928 .25102235 .117996219 .2388916 .05999756 .2058258 .025985718 .1517334 .025985718 .102645877 .025985718 .03352356 .08799744-.021484375 .18399048-.021484375 .31599427-.021484375 .36898805 .066589359 .36898805 .08061218 .36898805 .085617069 .36499024 .08963013 .3600006 .08963013 .35499574 .08963013 .35299684 .086624149 .34899903 .08061218 .33799745 .061569215 .31199647 .021514893 .19299317 .021514893 .1309967 .021514893 .04899597 .03753662 .04899597 .10865784 .04899597 .14271546 .07398987 .19380188 .13899231 .22782898M.16999817 .23989868C.19699097 .24902344 .22299195 .24902344 .22999573 .24902344 .2579956 .24902344 .2630005 .24699402 .2789917 .24293518 .2619934 .23483277 .2599945 .23483277 .22399903 .23483277 .20599365 .23483277 .18998719 .23483277 .16999817 .23989868Z"/>
<path id="font_10_3" d="M.43998719 .16790772H.41799928C.4149933 .15092469 .40699769 .09597778 .39698792 .07998657 .3899994 .070999149 .33299256 .070999149 .30299378 .070999149H.117996219C.14498902 .09397888 .20599365 .15792847 .23199463 .18190003 .38398744 .3217926 .43998719 .37374879 .43998719 .47270204 .43998719 .5878906 .34899903 .66503909 .23298645 .66503909 .116989139 .66503909 .04899597 .5658264 .04899597 .4797058 .04899597 .42871095 .09298706 .42871095 .09599304 .42871095 .116989139 .42871095 .14299011 .44371034 .14299011 .475708 .14299011 .5037079 .12399292 .5227051 .09599304 .5227051 .08699036 .5227051 .084991458 .5227051 .08198547 .521698 .100997928 .5899048 .15499878 .6360321 .21998596 .6360321 .30499269 .6360321 .35699464 .56481936 .35699464 .47270204 .35699464 .3877411 .30799867 .313797 .25099183 .24984741L.04899597 .023986817V0H.4139862L.43998719 .16790772Z"/>
<path id="font_9_3" d="M.18399048 .04798889C.18399048 .07699585 .1599884 .09700012 .13598633 .09700012 .10699463 .09700012 .08699036 .07299805 .08699036 .04899597 .08699036 .019989014 .11099243 0 .1349945 0 .1639862 0 .18399048 .023986817 .18399048 .04798889Z"/>
<path id="font_10_5" d="M.3659973 .29078675C.3659973 .05493164 .26098634 .005508423 .20098877 .005508423 .1769867 .005508423 .12399292 .008544922 .09899902 .043945314H.10499573C.11199951 .041915895 .147995 .047943117 .147995 .08493042 .147995 .106933597 .1329956 .12593079 .10699463 .12593079 .08099365 .12593079 .06498718 .108932498 .06498718 .08293152 .06498718 .02067566 .114990238-.021484375 .20199585-.021484375 .32699586-.021484375 .44799806 .11193848 .44799806 .32881166 .44799806 .5980072 .33599855 .66503909 .24798584 .66503909 .13798523 .66503909 .040985109 .5729828 .040985109 .44088746 .040985109 .3087921 .13398743 .21875 .23399353 .21875 .30799867 .21875 .34599305 .2727661 .3659973 .32380677V.29078675M.23799134 .23873902C.1749878 .23873902 .147995 .28977967 .13899231 .3087921 .12298584 .34681703 .12298584 .39485169 .12298584 .43988038 .12298584 .4959259 .12298584 .5439606 .14898682 .58499148 .16699219 .6120148 .19400025 .641037 .24798584 .641037 .30499269 .641037 .33399964 .59098818 .34399415 .5679779 .3639984 .51893618 .3639984 .43388368 .3639984 .41886903 .3639984 .33480836 .32598878 .23873902 .23799134 .23873902Z"/>
<path id="font_10_4" d="M.2979889 .36079408C.34799195 .38781739 .42099 .43385316 .42099 .5179291 .42099 .6049957 .33699037 .66503909 .24499512 .66503909 .1459961 .66503909 .067993167 .59199526 .067993167 .5009155 .067993167 .46688844 .07798767 .43286134 .10598755 .39883424 .116989139 .38581849 .117996219 .38482667 .18798828 .3357849 .09098816 .29074098 .040985109 .22369385 .040985109 .15063477 .040985109 .044540407 .14199829-.021484375 .24398804-.021484375 .35499574-.021484375 .44799806 .060546876 .44799806 .16563416 .44799806 .2677307 .37599183 .3127594 .2979889 .36079408M.1619873 .4508667C.14898682 .45988465 .10899353 .48590089 .10899353 .5349426 .10899353 .59999087 .1769867 .641037 .24398804 .641037 .31599427 .641037 .37998963 .58898928 .37998963 .516922 .37998963 .45587159 .33599855 .4068451 .27799989 .3748169L.1619873 .4508667M.20899964 .32176209 .32998658 .2427063C.35598756 .22569275 .4019928 .19465637 .4019928 .13360596 .4019928 .057556154 .32499696 .005508423 .24499512 .005508423 .1599884 .005508423 .08699036 .06756592 .08699036 .15063477 .08699036 .22869873 .14399719 .29174806 .20899964 .32176209Z"/>
<path id="font_10_1" d="M.44799806 .31976319C.44799806 .40283204 .44299317 .48390199 .40699769 .55996707 .3659973 .64302065 .2939911 .66503909 .24499512 .66503909 .18699646 .66503909 .115997318 .63601687 .07899475 .552948 .050994874 .48989869 .040985109 .42785646 .040985109 .31976319 .040985109 .22268677 .04798889 .14962769 .083999637 .078567508 .12298584 .0025177003 .19198609-.021484375 .24398804-.021484375 .33099366-.021484375 .3809967 .030532837 .4099884 .08857727 .44599916 .16363526 .44799806 .26171876 .44799806 .31976319M.24398804-.0014953613C.21199036-.0014953613 .14698792 .016525269 .12799073 .12561035 .116989139 .18565369 .116989139 .26171876 .116989139 .33177186 .116989139 .41384889 .116989139 .48789979 .1329956 .5469513 .1499939 .6139984 .20098877 .6450348 .24398804 .6450348 .28199769 .6450348 .33999635 .6220093 .35899354 .53593447 .37199403 .4788971 .37199403 .39982606 .37199403 .33177186 .37199403 .26472474 .37199403 .18865967 .36099244 .12760926 .34199525 .01751709 .2789917-.0014953613 .24398804-.0014953613Z"/>
<path id="font_11_2" d="M.33198548 .36080934C.3880005 .38783265 .45599366 .4378662 .45599366 .5159302 .45599366 .6110077 .35899354 .66503909 .2659912 .66503909 .1599884 .66503909 .07398987 .59199526 .07398987 .49790956 .07398987 .46089173 .08699036 .42686463 .11199951 .39782716 .1289978 .3768158 .1329956 .3748169 .19499207 .3357849 .070999149 .2807312 .04399109 .20767212 .04399109 .15162659 .04399109 .041534425 .15499878-.021484375 .2639923-.021484375 .3869934-.021484375 .48599244 .061553956 .48599244 .16764832 .48599244 .23069763 .45199586 .2727356 .43598939 .28974916 .4189911 .30575563 .41799928 .3067627 .33198548 .36080934M.1769867 .45487977C.147995 .4718933 .12399292 .5009155 .12399292 .5359497 .12399292 .598999 .19299317 .6390381 .2639923 .6390381 .34199525 .6390381 .4059906 .5859833 .4059906 .5159302 .4059906 .45788575 .36099244 .408844 .3019867 .37982179L.1769867 .45487977M.22599793 .31776429C.22999573 .31576539 .34399415 .24571228 .36099244 .23469544 .3769989 .22569275 .42900086 .19366455 .42900086 .13360596 .42900086 .056549074 .34799195 .008514404 .2659912 .008514404 .1769867 .008514404 .100997928 .06956482 .100997928 .15162659 .100997928 .22668457 .15699768 .28573609 .22599793 .31776429Z"/>
<path id="font_10_7" d="M.71699526 .24320984C.71699526 .3363037 .71699526 .3643341 .69400027 .39637757 .6649933 .4353943 .6179962 .44140626 .58399966 .44140626 .5009918 .44140626 .45899964 .38134767 .44299317 .34231568 .42900086 .41938783 .375 .44140626 .31199647 .44140626 .21499634 .44140626 .1769867 .3583374 .16899109 .33831788H.16799927V.44140626L.03199768 .43040467V.40138246C.099990848 .40138246 .10798645 .3943634 .10798645 .34532167V.074035648C.10798645 .0289917 .09700012 .0289917 .03199768 .0289917V0C.057998659 .0019989014 .11199951 .0019989014 .13999939 .0019989014 .16899109 .0019989014 .22299195 .0019989014 .24899292 0V.0289917C.18499756 .0289917 .17298889 .0289917 .17298889 .074035648V.2602234C.17298889 .3653412 .24198914 .42140199 .3039856 .42140199 .3659973 .42140199 .37998963 .37034608 .37998963 .3092804V.074035648C.37998963 .0289917 .36898805 .0289917 .3039856 .0289917V0C.32998658 .0019989014 .38398744 .0019989014 .4119873 .0019989014 .44099427 .0019989014 .49499513 .0019989014 .5209961 0V.0289917C.45700074 .0289917 .44499208 .0289917 .44499208 .074035648V.2602234C.44499208 .3653412 .5139923 .42140199 .57598879 .42140199 .6380005 .42140199 .6519928 .37034608 .6519928 .3092804V.074035648C.6519928 .0289917 .6409912 .0289917 .57598879 .0289917V0C.60198977 .0019989014 .6559906 .0019989014 .6839905 .0019989014 .71299746 .0019989014 .7669983 .0019989014 .79299929 0V.0289917C.7429962 .0289917 .71798709 .0289917 .71699526 .059020997V.24320984Z"/>
<path id="font_9_4" d="M.42900086 .71299746C.42900086 .71398928 .43499757 .72898867 .43499757 .73098757 .43499757 .7429962 .4249878 .75 .4169922 .75 .4119873 .75 .40299989 .75 .394989 .7279968L.05999756-.2130127C.05999756-.21400452 .053985597-.2290039 .053985597-.23100281 .053985597-.24301148 .06399536-.25 .07199097-.25 .07798767-.25 .08699036-.24900818 .09399414-.22801209L.42900086 .71299746Z"/>
<path id="font_10_8" d="M.32798768 .4232788C.32798768 .44128419 .32798768 .44628907 .31799317 .44628907 .30999757 .44628907 .29100038 .4242859 .28399659 .4152832 .25299073 .4402771 .22200012 .44628907 .18998719 .44628907 .068984989 .44628907 .032989503 .38027955 .032989503 .3252716 .032989503 .31427003 .032989503 .27926637 .070999149 .2442627 .102996829 .21624756 .13699341 .20925904 .18299866 .20025635 .23799134 .18925476 .25099183 .18624878 .27598573 .1662445 .2939911 .15124512 .30699159 .12924195 .30699159 .101242069 .30699159 .05822754 .28199769 .010223389 .19400025 .010223389 .12799073 .010223389 .07998657 .048233034 .057998659 .14823914 .053985597 .1662445 .053985597 .16725159 .052993776 .16824341 .050994874 .17225647 .04699707 .17225647 .04399109 .17225647 .032989503 .17225647 .032989503 .16725159 .032989503 .14924622V.01322937C.032989503-.004776001 .032989503-.009765625 .042999269-.009765625 .04798889-.009765625 .04899597-.008773804 .06599426 .01222229 .070999149 .019226075 .070999149 .021224976 .085998538 .037231447 .12399292-.009765625 .17799378-.009765625 .19499207-.009765625 .2999878-.009765625 .35198976 .048233034 .35198976 .12724304 .35198976 .1812439 .31900025 .21325684 .30999757 .22225952 .27398683 .25326539 .24699402 .25926209 .18099976 .2712555 .15098572 .27726747 .07798767 .29125978 .07798767 .35127259 .07798767 .38227845 .09899902 .4282837 .18899536 .4282837 .2979889 .4282837 .3039856 .3352661 .30599977 .30426026 .30699159 .29626466 .31399537 .29626466 .31698609 .29626466 .32798768 .29626466 .32798768 .30126954 .32798768 .3192749V.4232788Z"/>
<path id="font_8_74" d="M.7739868 0V.69433596H.6599884L.5299988 .35516358C.49499513 .26411439 .44799806 .14006043 .43699647 .09303284H.43598939C.43099977 .11404419 .4189911 .15106201 .4039917 .19308472L.24699402 .60728457 .21299744 .69433596H.099990848V0H.17799378V.62028506H.1789856C.18499756 .5882721 .22499085 .47921754 .25099183 .41119386L.39898683 .022003174H.47200013L.6049957 .37016297 .6529999 .4972229C.6629944 .5262451 .6899872 .59828189 .69499209 .6212921L.69599917 .62028506V0H.7739868Z"/>
<path id="font_8_98" d="M.3600006 .12817383C.3600006 .18313599 .32299806 .21710205 .32099916 .22009278 .28199769 .25506593 .25498963 .26106263 .20498657 .27005006 .1499939 .28103639 .10398865 .29103089 .10398865 .33998109 .10398865 .40193177 .17599488 .40193177 .18899536 .40193177 .22099304 .40193177 .27398683 .39793397 .33099366 .3639679L.34298707 .42892457C.29100038 .45292665 .25 .4609375 .19898987 .4609375 .17399597 .4609375 .032989503 .4609375 .032989503 .32998658 .032989503 .28103639 .06199646 .24906922 .08699036 .23008728 .117996219 .20809937 .13999939 .20411682 .19499207 .19311524 .23098755 .18612671 .2889862 .1741333 .2889862 .1211853 .2889862 .052246095 .20999146 .052246095 .19499207 .052246095 .11399841 .052246095 .057998659 .08921814 .039993287 .10121155L.027999878 .0332489C.05999756 .01725769 .114990238-.0107421879 .19599915-.0107421879 .21398926-.0107421879 .2689972-.0107421879 .31199647 .021255494 .34298707 .04525757 .3600006 .08522034 .3600006 .12817383Z"/>
<path id="font_3_6" d="M.16299439 .4569702C.116989139 .486969 .11299133 .52098086 .11299133 .5379791 .11299133 .598999 .17799378 .64100649 .24899292 .64100649 .32199098 .64100649 .38598634 .58898928 .38598634 .51698306 .38598634 .45996095 .34700013 .4119568 .2869873 .37695313L.16299439 .4569702M.30899049 .36193849C.3809967 .3989563 .42999269 .45095826 .42999269 .51698306 .42999269 .6090088 .34098817 .6660156 .25 .6660156 .1499939 .6660156 .068984989 .59199526 .068984989 .49897767 .068984989 .4809723 .070999149 .43595887 .11299133 .38894654 .12399292 .37695313 .16099549 .35194398 .18598938 .33494569 .12799073 .30592347 .041992189 .24984741 .041992189 .15072632 .041992189 .04458618 .14399719-.022460938 .24899292-.022460938 .3619995-.022460938 .45700074 .06060791 .45700074 .16773987 .45700074 .20379639 .44599916 .24885559 .4079895 .2909088 .3889923 .31193543 .37298585 .3219452 .30899049 .36193849M.20899964 .3199463 .33198548 .24183655C.3600006 .2228241 .40699769 .19277954 .40699769 .13169861 .40699769 .05760193 .33198548 .0055389406 .25 .0055389406 .1639862 .0055389406 .09199524 .067611698 .09199524 .15072632 .09199524 .20880127 .12399292 .27288819 .20899964 .3199463Z"/>
<path id="font_4_4" d="M.19198609 .052993776C.19198609 .08198547 .16799927 .10598755 .13899231 .10598755 .10998535 .10598755 .085998538 .08198547 .085998538 .052993776 .085998538 .023986817 .10998535 0 .13899231 0 .16799927 0 .19198609 .023986817 .19198609 .052993776Z"/>
<path id="font_3_5" d="M.44898988 .20022583C.44898988 .3193512 .36698915 .41944886 .25898744 .41944886 .21099854 .41944886 .16799927 .40345765 .13198853 .36842347V.5637665C.1519928 .5577698 .18499756 .55078127 .21699524 .55078127 .33999635 .55078127 .4099884 .6417694 .4099884 .6547699 .4099884 .6607666 .40699769 .6657715 .3999939 .6657715 .39898683 .6657715 .39698792 .6657715 .3919983 .66278079 .37199403 .6537781 .32299806 .6337738 .2559967 .6337738 .21598816 .6337738 .16999817 .6407776 .12298584 .6617737 .114990238 .66477969 .11299133 .66477969 .11099243 .66477969 .100997928 .66477969 .100997928 .6567688 .100997928 .6407776V.34439088C.100997928 .32637025 .100997928 .31835938 .114990238 .31835938 .12199402 .31835938 .12399292 .32136537 .12799073 .32736207 .13899231 .3433838 .17599488 .39746095 .25698854 .39746095 .30899049 .39746095 .33399964 .35139466 .34199525 .33337403 .35798646 .29632569 .3600006 .25727845 .3600006 .20722962 .3600006 .17222595 .3600006 .11222839 .33599855 .07035828 .31199647 .031463624 .2749939 .0055389406 .22898865 .0055389406 .1559906 .0055389406 .09899902 .058380128 .08198547 .11723328 .084991458 .1162262 .08799744 .115234378 .09899902 .115234378 .13198853 .115234378 .14898682 .14022827 .14898682 .16423035 .14898682 .18823242 .13198853 .21322632 .09899902 .21322632 .084991458 .21322632 .049987794 .20622254 .049987794 .16023255 .049987794 .07434082 .11898804-.022460938 .23098755-.022460938 .34700013-.022460938 .44898988 .073349 .44898988 .20022583Z"/>
<path id="font_3_4" d="M.2939911 .16503906V.07800293C.2939911 .041992189 .2919922 .0309906 .21798706 .0309906H.19699097V0C.23799134 .0029907227 .2899933 .0029907227 .33198548 .0029907227 .37399293 .0029907227 .4269867 .0029907227 .46798707 0V.0309906H.44699098C.37298585 .0309906 .37098695 .041992189 .37098695 .07800293V.16503906H.47099305V.19602967H.37098695V.65075686C.37098695 .67074587 .37098695 .6767578 .35499574 .6767578 .34599305 .6767578 .34298707 .6767578 .33499146 .66474917L.027999878 .19602967V.16503906H.2939911M.2999878 .19602967H.055999757L.2999878 .5688019V.19602967Z"/>
<path id="font_3_3" d="M.2939911 .64004519C.2939911 .66400149 .2939911 .6660156 .2709961 .6660156 .20899964 .60227969 .12098694 .60227969 .08898926 .60227969V.57128909C.10899353 .57128909 .16799927 .57128909 .21998596 .5972748V.07902527C.21998596 .042999269 .21699524 .0309906 .1269989 .0309906H.09498596V0C.12998963 .0029907227 .21699524 .0029907227 .25698854 .0029907227 .29699708 .0029907227 .38398744 .0029907227 .4189911 0V.0309906H.3869934C.29699708 .0309906 .2939911 .041992189 .2939911 .07902527V.64004519Z"/>
<path id="font_12_1" d="M.74398806 .2263794C.7599945 .2263794 .7839966 .2263794 .7839966 .25038148 .7839966 .27539063 .7609863 .27539063 .74398806 .27539063H.147995C.13198853 .27539063 .10798645 .27539063 .10798645 .25138856 .10798645 .2263794 .1309967 .2263794 .147995 .2263794H.74398806Z"/>
<path id="font_6_2" d="M.33499146 .63612368C.33499146 .6630554 .33299256 .6640625 .30499269 .6640625 .24099732 .6014404 .1499939 .6004486 .10899353 .6004486V.5644531C.1329956 .5644531 .19898987 .5644531 .2539978 .592453V.08203125C.2539978 .04899597 .2539978 .035995485 .1539917 .035995485H.115997318V0C.13398743 .0009918213 .25698854 .0039978029 .2939911 .0039978029 .32499696 .0039978029 .45098878 .0009918213 .47299195 0V.035995485H.43499757C.33499146 .035995485 .33499146 .04899597 .33499146 .08203125V.63612368Z"/>
<path id="font_8_54" d="M.526001 .6263275V.69132998H.09399414V0H.18299866V.31497193H.4850006V.37597657H.18299866V.6273346H.31399537C.32598878 .6273346 .33799745 .6263275 .34999085 .6263275H.526001Z"/>
<path id="font_8_102" d="M.44299317 .7299957C.44299317 .7409973 .43399049 .75 .4229889 .75 .40899659 .75 .40499879 .73999026 .4019928 .7299957L.06098938-.21200562C.055999757-.2250061 .055999757-.23001099 .055999757-.23001099 .055999757-.24101258 .06498718-.25 .07598877-.25 .08999634-.25 .09399414-.2400055 .09700012-.23001099L.43798829 .71199038C.44299317 .72499087 .44299317 .7299957 .44299317 .7299957Z"/>
<path id="font_4_2" d="M.2649994 .37265016H.37799073C.34498597 .22489929 .33599855 .18196106 .33599855 .11508179 .33599855 .100097659 .33599855 .073150638 .34399415 .03919983 .35398866-.0047454836 .36499024-.0107421879 .37998963-.0107421879 .3999939-.0107421879 .42099 .007247925 .42099 .02722168 .42099 .033218385 .42099 .035202028 .4149933 .049179079 .38598634 .12106323 .38598634 .18595886 .38598634 .21391297 .38598634 .26683045 .3929901 .32073976 .4039917 .37265016H.5179901C.5309906 .37265016 .5669861 .37265016 .5669861 .406662 .5669861 .43066407 .54599 .43066407 .5269928 .43066407H.19198609C.16999817 .43066407 .13198853 .43066407 .08799744 .38365174 .052993776 .34469605 .026992798 .29878236 .026992798 .29379273 .026992798 .29278565 .026992798 .28379823 .038986207 .28379823 .04699707 .28379823 .04899597 .28779603 .054992677 .29577638 .10398865 .37265016 .1619873 .37265016 .18199158 .37265016H.23899842C.20698548 .25186158 .15299988 .13105774 .11099243 .04020691 .102996829 .025222779 .102996829 .023223877 .102996829 .016235352 .102996829-.002746582 .11898804-.0107421879 .13198853-.0107421879 .1619873-.0107421879 .16999817 .017242432 .18199158 .05418396 .19599915 .100097659 .19599915 .10209656 .20899964 .15202332L.2649994 .37265016Z"/>
<path id="font_6_4" d="M.5349884 .6045227C.54499819 .6165161 .54499819 .6185303 .54499819 .64453127H.2829895C.24299622 .64453127 .23199463 .6455078 .19599915 .6484375 .14399719 .65234377 .14199829 .6592407 .13899231 .676239H.10499573L.069992069 .46250917H.10398865C.10598755 .47750855 .115997318 .54351809 .13198853 .5535126 .13999939 .55952456 .22099304 .55952456 .23599243 .55952456H.45399476C.42199708 .5175171 .37098695 .45550538 .34999085 .4275055 .21899414 .25549317 .20698548 .096466068 .20698548 .037460329 .20698548 .02645874 .20698548-.01953125 .2539978-.01953125 .3019867-.01953125 .3019867 .025466919 .3019867 .038467409V.07847595C.3019867 .27249146 .34199525 .36149598 .3849945 .41551209L.5349884 .6045227Z"/>
<path id="font_8_27" d="M.6380005 0 .3769989 .69433596H.2889862L.027999878 0H.101989749L.1789856 .20410156H.46998597L.54599 0H.6380005M.44799806 .26010133H.19999695C.25099183 .40316773 .21398926 .29811097 .2649994 .44119264 .28599549 .5002289 .31698609 .5852661 .32398988 .62228396H.32499696C.32699586 .60827639 .33399964 .5832672 .35699464 .5172272L.44799806 .26010133Z"/>
<path id="font_13_98" d="M.3829956 .1301117C.3829956 .14808655 .3809967 .18702698 .33898927 .22496033 .3019867 .25790406 .2659912 .26489259 .21798706 .27388 .15899658 .2848816 .11299133 .29388429 .11299133 .33789063 .11299133 .39497376 .18598938 .39497376 .20098877 .39497376 .2579956 .39497376 .3019867 .38294984 .35198976 .35691834L.36499024 .42797853C.29699708 .4559784 .24699402 .45898438 .21099854 .45898438 .18598938 .45898438 .034988405 .45898438 .034988405 .32588197 .034988405 .2788849 .06098938 .25291444 .07398987 .24093628 .10899353 .20599365 .15098572 .19799805 .20399475 .1880188 .25099183 .17903137 .30499269 .16905213 .30499269 .12112427 .30499269 .05822754 .22200012 .05822754 .20799256 .05822754 .14399719 .05822754 .083999637 .08119202 .04399109 .10914612L.02999878 .034225465C.06399536 .017227173 .125-.009765625 .20799256-.009765625 .25299073-.009765625 .29699708-.0027770997 .33399964 .024230957 .37098695 .052230836 .3829956 .09616089 .3829956 .1301117Z"/>
<path id="font_13_109" d="M.46499635 .00022888184V.44433595H.37799073V.1542511C.37799073 .07423401 .30999757 .049224855 .2519989 .049224855 .17799378 .049224855 .16999817 .069229129 .16999817 .115249637V.44433595H.08299255V.10923767C.08299255 .020233155 .12199402-.009765625 .19198609-.009765625 .23298645-.009765625 .32099916-.0017700195 .3809967 .04623413V.00022888184H.46499635Z"/>
<path id="font_13_35" d="M.5119934 .22309876C.5119934 .34410096 .44299317 .45410157 .34298707 .45410157 .27999879 .45410157 .21899414 .4340973 .16899109 .39709474V.69433596H.084991458V.000091552738L.17199707 .00022888184V.047225954C.19400025 .02822876 .24198914-.009765625 .31498719-.009765625 .42399598-.009765625 .5119934 .09220886 .5119934 .22315979V.22309876M.4249878 .22315979C.4249878 .10121155 .34199525 .056228639 .27198792 .056228639 .23498535 .056228639 .19999695 .07322693 .17199707 .11819458V.3151245C.17199707 .33111573 .17199707 .34310914 .20698548 .36610414 .22200012 .3751068 .24899292 .38809205 .2829895 .38809205 .34999085 .38809205 .4249878 .34310914 .4249878 .22315979Z"/>
<path id="font_13_105" d="M.35398866 .026916504 .33699037 .090927127C.3039856 .06692505 .2689972 .058929445 .24099732 .058929445 .19898987 .058929445 .18798828 .09991455 .18798828 .14595032V.3813324H.33599855V.44433595H.18798828V.57128909H.11099243V.44433595H.019989014V.3813324H.10798645V.12792969C.10798645 .06123352 .125-.009765625 .19699097-.009765625 .2689972-.009765625 .32398988 .01322937 .35398866 .02722168V.026916504Z"/>
<path id="font_13_66" d="M.16799927 0V.44433595H.083999637V0H.16799927M.1769867 .5601196V.6611328H.07598877V.5601196H.1769867Z"/>
<path id="font_13_50" d="M.43998719 .21928406C.43998719 .2652893 .43499757 .33213807 .3959961 .3889923 .3600006 .43997193 .2999878 .45898438 .25099183 .45898438 .1289978 .45898438 .034988405 .35209657 .034988405 .22529602 .034988405 .09724426 .1349945-.009765625 .2669983-.009765625 .32499696-.009765625 .3849945 .007232666 .43598939 .038223268L.42999269 .10925293C.37399293 .069229129 .31098939 .056228639 .2679901 .056228639 .18099976 .056228639 .114990238 .1272583 .11199951 .21928406H.43998719M.3789978 .27929688H.11898804C.14199829 .35906983 .20098877 .39297486 .25099183 .39297486 .29499818 .39297486 .3600006 .3720398 .3789978 .27929688Z"/>
</defs>
<path transform="matrix(1,0,0,-1,213.34941,169.335)" d="M-155.44933 131.81256H-201.72063C-202.54598 131.81256-203.21504 131.1435-203.21504 130.31815V107.79486C-203.21504 106.96951-202.54598 106.30045-201.72063 106.30045H-155.44933C-154.62398 106.30045-153.95491 106.96951-153.95491 107.79486V130.31815C-153.95491 131.1435-154.62398 131.81256-155.44933 131.81256ZM-203.21504 106.30045" fill="#f0f0ff"/>
<path transform="matrix(1,0,0,-1,213.34941,169.335)" stroke-width=".3487" stroke-linecap="butt" stroke-miterlimit="10" stroke-linejoin="miter" fill="none" stroke="#000000" d="M-155.44933 131.81256H-201.72063C-202.54598 131.81256-203.21504 131.1435-203.21504 130.31815V107.79486C-203.21504 106.96951-202.54598 106.30045-201.72063 106.30045H-155.44933C-154.62398 106.30045-153.95491 106.96951-153.95491 107.79486V130.31815C-153.95491 131.1435-154.62398 131.81256-155.44933 131.81256ZM-203.21504 106.30045"/>
<use data-text="&#x2207;" xlink:href="#font_1_5" transform="matrix(9.96264,0,0,-9.96264,14.119476,53.69629)"/>
<use data-text="&#x00b7;" xlink:href="#font_1_2" transform="matrix(9.96264,0,0,-9.96264,24.63005,53.69629)"/>
<use data-text="E" xlink:href="#font_2_2" transform="matrix(9.96264,0,0,-9.96264,29.616852,53.69629)"/>
<use data-text="=" xlink:href="#font_3_7" transform="matrix(9.96264,0,0,-9.96264,39.91147,53.69629)"/>
<use data-text="0" xlink:href="#font_3_2" transform="matrix(9.96264,0,0,-9.96264,50.412096,53.69629)"/>
<path transform="matrix(1,0,0,-1,213.34941,169.335)" d="M-36.08148 131.81256H-82.97545C-83.8008 131.81256-84.46986 131.1435-84.46986 130.31815V107.79486C-84.46986 106.96951-83.8008 106.30045-82.97545 106.30045H-36.08148C-35.25613 106.30045-34.58707 106.96951-34.58707 107.79486V130.31815C-34.58707 131.1435-35.25613 131.81256-36.08148 131.81256ZM-84.46986 106.30045" fill="#f0f0ff"/>
<path transform="matrix(1,0,0,-1,213.34941,169.335)" stroke-width=".3487" stroke-linecap="butt" stroke-miterlimit="10" stroke-linejoin="miter" fill="none" stroke="#000000" d="M-36.08148 131.81256H-82.97545C-83.8008 131.81256-84.46986 131.1435-84.46986 130.31815V107.79486C-84.46986 106.96951-83.8008 106.30045-82.97545 106.30045H-36.08148C-35.25613 106.30045-34.58707 106.96951-34.58707 107.79486V130.31815C-34.58707 131.1435-35.25613 131.81256-36.08148 131.81256ZM-84.46986 106.30045"/>
<use data-text="&#x2207;" xlink:href="#font_1_5" transform="matrix(9.96264,0,0,-9.96264,132.86466,53.69629)"/>
<use data-text="&#x00b7;" xlink:href="#font_1_2" transform="matrix(9.96264,0,0,-9.96264,143.37523,53.69629)"/>
<use data-text="B" xlink:href="#font_2_1" transform="matrix(9.96264,0,0,-9.96264,148.36203,53.69629)"/>
<use data-text="=" xlink:href="#font_3_7" transform="matrix(9.96264,0,0,-9.96264,159.27931,53.69629)"/>
<use data-text="0" xlink:href="#font_3_2" transform="matrix(9.96264,0,0,-9.96264,169.77993,53.69629)"/>
<path transform="matrix(1,0,0,-1,213.34941,169.335)" d="M95.01207 131.81256H24.04486C23.21951 131.81256 22.55045 131.1435 22.55045 130.31815V107.79486C22.55045 106.96951 23.21951 106.30045 24.04486 106.30045H95.01207C95.83742 106.30045 96.50648 106.96951 96.50648 107.79486V130.31815C96.50648 131.1435 95.83742 131.81256 95.01207 131.81256ZM22.55045 106.30045" fill="#f0f0ff"/>
<path transform="matrix(1,0,0,-1,213.34941,169.335)" stroke-width=".3487" stroke-linecap="butt" stroke-miterlimit="10" stroke-linejoin="miter" fill="none" stroke="#000000" d="M95.01207 131.81256H24.04486C23.21951 131.81256 22.55045 131.1435 22.55045 130.31815V107.79486C22.55045 106.96951 23.21951 106.30045 24.04486 106.30045H95.01207C95.83742 106.30045 96.50648 106.96951 96.50648 107.79486V130.31815C96.50648 131.1435 95.83742 131.81256 95.01207 131.81256ZM22.55045 106.30045"/>
<use data-text="&#x2207;" xlink:href="#font_1_5" transform="matrix(9.96264,0,0,-9.96264,239.88497,52.99061)"/>
<use data-text="&#x00d7;" xlink:href="#font_1_3" transform="matrix(9.96264,0,0,-9.96264,250.39554,52.99061)"/>
<use data-text="E" xlink:href="#font_2_2" transform="matrix(9.96264,0,0,-9.96264,260.36366,52.99061)"/>
<use data-text="=" xlink:href="#font_3_7" transform="matrix(9.96264,0,0,-9.96264,270.65827,52.99061)"/>
<use data-text="&#x2212;" xlink:href="#font_1_1" transform="matrix(9.96264,0,0,-9.96264,281.17439,52.99061)"/>
<use data-text="&#x2202;" xlink:href="#font_4_5" transform="matrix(9.96264,0,0,-9.96264,288.9231,52.99061)"/>
<use data-text="t" xlink:href="#font_5_1" transform="matrix(6.973848,0,0,-6.973848,294.21229,54.484987)"/>
<use data-text="B" xlink:href="#font_2_1" transform="matrix(9.96264,0,0,-9.96264,297.71998,52.99061)"/>
<path transform="matrix(1,0,0,-1,213.34941,169.335)" d="M220.81822 131.81256H136.35172C135.52637 131.81256 134.8573 131.1435 134.8573 130.31815V107.79486C134.8573 106.96951 135.52637 106.30045 136.35172 106.30045H220.81822C221.64357 106.30045 222.31264 106.96951 222.31264 107.79486V130.31815C222.31264 131.1435 221.64357 131.81256 220.81822 131.81256ZM134.8573 106.30045" fill="#f0f0ff"/>
<path transform="matrix(1,0,0,-1,213.34941,169.335)" stroke-width=".3487" stroke-linecap="butt" stroke-miterlimit="10" stroke-linejoin="miter" fill="none" stroke="#000000" d="M220.81822 131.81256H136.35172C135.52637 131.81256 134.8573 131.1435 134.8573 130.31815V107.79486C134.8573 106.96951 135.52637 106.30045 136.35172 106.30045H220.81822C221.64357 106.30045 222.31264 106.96951 222.31264 107.79486V130.31815C222.31264 131.1435 221.64357 131.81256 220.81822 131.81256ZM134.8573 106.30045"/>
<use data-text="&#x2207;" xlink:href="#font_1_5" transform="matrix(9.96264,0,0,-9.96264,352.19184,52.769197)"/>
<use data-text="&#x00d7;" xlink:href="#font_1_3" transform="matrix(9.96264,0,0,-9.96264,362.7024,52.769197)"/>
<use data-text="B" xlink:href="#font_2_1" transform="matrix(9.96264,0,0,-9.96264,372.67054,52.769197)"/>
<use data-text="=" xlink:href="#font_3_7" transform="matrix(9.96264,0,0,-9.96264,383.5878,52.769197)"/>
<use data-text="&#x00b5;" xlink:href="#font_4_1" transform="matrix(9.96264,0,0,-9.96264,394.10389,52.769197)"/>
<use data-text="0" xlink:href="#font_6_1" transform="matrix(6.973848,0,0,-6.973848,400.10688,54.263574)"/>
<use data-text="&#x03b5;" xlink:href="#font_4_3" transform="matrix(9.96264,0,0,-9.96264,404.57624,52.769197)"/>
<use data-text="0" xlink:href="#font_6_1" transform="matrix(6.973848,0,0,-6.973848,409.22203,54.263574)"/>
<use data-text="&#x2202;" xlink:href="#font_4_5" transform="matrix(9.96264,0,0,-9.96264,415.3518,52.769197)"/>
<use data-text="t" xlink:href="#font_5_1" transform="matrix(6.973848,0,0,-6.973848,420.641,54.263574)"/>
<use data-text="E" xlink:href="#font_2_2" transform="matrix(9.96264,0,0,-9.96264,424.14869,52.769197)"/>
<use data-text="M" xlink:href="#font_7_74" transform="matrix(8.966376,0,0,-8.966376,153.53395,19.50682)"/>
<use data-text="a" xlink:href="#font_7_28" transform="matrix(8.966376,0,0,-8.966376,161.58576,19.50682)"/>
<use data-text="x" xlink:href="#font_7_116" transform="matrix(8.966376,0,0,-8.966376,166.01514,19.50682)"/>
<use data-text="w" xlink:href="#font_7_114" transform="matrix(8.966376,0,0,-8.966376,170.2652,19.50682)"/>
<use data-text="e" xlink:href="#font_7_50" transform="matrix(8.966376,0,0,-8.966376,176.30855,19.50682)"/>
<use data-text="l" xlink:href="#font_7_72" transform="matrix(8.966376,0,0,-8.966376,180.40619,19.50682)"/>
<use data-text="l" xlink:href="#font_7_72" transform="matrix(8.966376,0,0,-8.966376,182.60295,19.50682)"/>
<use data-text="&#x2019;" xlink:href="#font_7_502" transform="matrix(8.966376,0,0,-8.966376,184.79972,19.50682)"/>
<use data-text="s" xlink:href="#font_7_98" transform="matrix(8.966376,0,0,-8.966376,187.36409,19.50682)"/>
<use data-text="e" xlink:href="#font_7_50" transform="matrix(8.966376,0,0,-8.966376,193.96334,19.50682)"/>
<use data-text="q" xlink:href="#font_7_91" transform="matrix(8.966376,0,0,-8.966376,198.06098,19.50682)"/>
<use data-text="u" xlink:href="#font_7_109" transform="matrix(8.966376,0,0,-8.966376,202.82212,19.50682)"/>
<use data-text="a" xlink:href="#font_7_28" transform="matrix(8.966376,0,0,-8.966376,207.58325,19.50682)"/>
<use data-text="t" xlink:href="#font_7_105" transform="matrix(8.966376,0,0,-8.966376,212.01264,19.50682)"/>
<use data-text="i" xlink:href="#font_7_66" transform="matrix(8.966376,0,0,-8.966376,215.33916,19.50682)"/>
<use data-text="o" xlink:href="#font_7_81" transform="matrix(8.966376,0,0,-8.966376,217.53592,19.50682)"/>
<use data-text="n" xlink:href="#font_7_77" transform="matrix(8.966376,0,0,-8.966376,222.14464,19.50682)"/>
<use data-text="s" xlink:href="#font_7_98" transform="matrix(8.966376,0,0,-8.966376,226.90578,19.50682)"/>
<use data-text="i" xlink:href="#font_7_66" transform="matrix(8.966376,0,0,-8.966376,233.51399,19.50682)"/>
<use data-text="n" xlink:href="#font_7_77" transform="matrix(8.966376,0,0,-8.966376,235.71076,19.50682)"/>
<use data-text="v" xlink:href="#font_7_112" transform="matrix(8.966376,0,0,-8.966376,243.54737,19.50682)"/>
<use data-text="a" xlink:href="#font_7_28" transform="matrix(8.966376,0,0,-8.966376,247.79743,19.50682)"/>
<use data-text="c" xlink:href="#font_7_43" transform="matrix(8.966376,0,0,-8.966376,252.2268,19.50682)"/>
<use data-text="u" xlink:href="#font_7_109" transform="matrix(8.966376,0,0,-8.966376,256.32447,19.50682)"/>
<use data-text="u" xlink:href="#font_7_109" transform="matrix(8.966376,0,0,-8.966376,261.08558,19.50682)"/>
<use data-text="m" xlink:href="#font_7_75" transform="matrix(8.966376,0,0,-8.966376,265.84675,19.50682)"/>
<path transform="matrix(1,0,0,-1,213.34941,169.335)" d="M108.06715 63.78021H-108.06715C-109.16762 63.78021-110.05971 62.88812-110.05971 61.78766V34.5913C-110.05971 33.49081-109.16762 32.59874-108.06715 32.59874H108.06715C109.16762 32.59874 110.05971 33.49081 110.05971 34.5913V61.78766C110.05971 62.88812 109.16762 63.78021 108.06715 63.78021ZM-110.05971 32.59874" fill="#f0f0f0"/>
<path transform="matrix(1,0,0,-1,213.34941,169.335)" stroke-width=".3985" stroke-linecap="butt" stroke-miterlimit="10" stroke-linejoin="miter" fill="none" stroke="#000000" d="M108.06715 63.78021H-108.06715C-109.16762 63.78021-110.05971 62.88812-110.05971 61.78766V34.5913C-110.05971 33.49081-109.16762 32.59874-108.06715 32.59874H108.06715C109.16762 32.59874 110.05971 33.49081 110.05971 34.5913V61.78766C110.05971 62.88812 109.16762 63.78021 108.06715 63.78021ZM-110.05971 32.59874"/>
<use data-text="T" xlink:href="#font_8_104" transform="matrix(9.96264,0,0,-9.96264,109.267368,124.187519)"/>
<use data-text="a" xlink:href="#font_8_28" transform="matrix(9.96264,0,0,-9.96264,115.22502,124.187519)"/>
<use data-text="k" xlink:href="#font_8_70" transform="matrix(9.96264,0,0,-9.96264,120.017047,124.187519)"/>
<use data-text="e" xlink:href="#font_8_50" transform="matrix(9.96264,0,0,-9.96264,124.60982,124.187519)"/>
<use data-text="d" xlink:href="#font_8_47" transform="matrix(9.96264,0,0,-9.96264,132.3508,124.187519)"/>
<use data-text="o" xlink:href="#font_8_81" transform="matrix(9.96264,0,0,-9.96264,137.50148,124.187519)"/>
<use data-text="u" xlink:href="#font_8_109" transform="matrix(9.96264,0,0,-9.96264,142.4828,124.187519)"/>
<use data-text="b" xlink:href="#font_8_35" transform="matrix(9.96264,0,0,-9.96264,147.63349,124.187519)"/>
<use data-text="l" xlink:href="#font_8_72" transform="matrix(9.96264,0,0,-9.96264,152.78417,124.187519)"/>
<use data-text="e" xlink:href="#font_8_50" transform="matrix(9.96264,0,0,-9.96264,155.16524,124.187519)"/>
<use data-text="c" xlink:href="#font_8_43" transform="matrix(9.96264,0,0,-9.96264,162.90622,124.187519)"/>
<use data-text="u" xlink:href="#font_8_109" transform="matrix(9.96264,0,0,-9.96264,167.32964,124.187519)"/>
<use data-text="r" xlink:href="#font_8_96" transform="matrix(9.96264,0,0,-9.96264,172.48032,124.187519)"/>
<use data-text="l" xlink:href="#font_8_72" transform="matrix(9.96264,0,0,-9.96264,175.88755,124.187519)"/>
<use data-text="+" xlink:href="#font_3_1" transform="matrix(9.96264,0,0,-9.96264,184.90373,124.187519)"/>
<use data-text="v" xlink:href="#font_8_112" transform="matrix(9.96264,0,0,-9.96264,199.2876,124.187519)"/>
<use data-text="a" xlink:href="#font_8_28" transform="matrix(9.96264,0,0,-9.96264,203.88037,124.187519)"/>
<use data-text="c" xlink:href="#font_8_43" transform="matrix(9.96264,0,0,-9.96264,208.67241,124.187519)"/>
<use data-text="u" xlink:href="#font_8_109" transform="matrix(9.96264,0,0,-9.96264,213.09583,124.187519)"/>
<use data-text="u" xlink:href="#font_8_109" transform="matrix(9.96264,0,0,-9.96264,218.2465,124.187519)"/>
<use data-text="m" xlink:href="#font_8_75" transform="matrix(9.96264,0,0,-9.96264,223.39719,124.187519)"/>
<use data-text="c" xlink:href="#font_8_43" transform="matrix(9.96264,0,0,-9.96264,234.62508,124.187519)"/>
<use data-text="o" xlink:href="#font_8_81" transform="matrix(9.96264,0,0,-9.96264,239.04848,124.187519)"/>
<use data-text="n" xlink:href="#font_8_77" transform="matrix(9.96264,0,0,-9.96264,244.0298,124.187519)"/>
<use data-text="d" xlink:href="#font_8_47" transform="matrix(9.96264,0,0,-9.96264,249.1805,124.187519)"/>
<use data-text="i" xlink:href="#font_8_66" transform="matrix(9.96264,0,0,-9.96264,254.33119,124.187519)"/>
<use data-text="t" xlink:href="#font_8_105" transform="matrix(9.96264,0,0,-9.96264,256.71229,124.187519)"/>
<use data-text="i" xlink:href="#font_8_66" transform="matrix(9.96264,0,0,-9.96264,260.30879,124.187519)"/>
<use data-text="o" xlink:href="#font_8_81" transform="matrix(9.96264,0,0,-9.96264,262.68989,124.187519)"/>
<use data-text="n" xlink:href="#font_8_77" transform="matrix(9.96264,0,0,-9.96264,267.6712,124.187519)"/>
<use data-text="&#x2207;" xlink:href="#font_1_5" transform="matrix(9.96264,0,0,-9.96264,276.1394,124.187519)"/>
<use data-text="&#x00b7;" xlink:href="#font_1_2" transform="matrix(9.96264,0,0,-9.96264,286.64997,124.187519)"/>
<use data-text="E" xlink:href="#font_2_2" transform="matrix(9.96264,0,0,-9.96264,291.63679,124.187519)"/>
<use data-text="=" xlink:href="#font_3_7" transform="matrix(9.96264,0,0,-9.96264,301.9314,124.187519)"/>
<use data-text="0" xlink:href="#font_3_2" transform="matrix(9.96264,0,0,-9.96264,312.432,124.187519)"/>
<path transform="matrix(1,0,0,-1,213.34941,169.335)" stroke-width=".59776" stroke-linecap="butt" stroke-miterlimit="10" stroke-linejoin="miter" fill="none" stroke="#000000" d="M-178.58498 106.1261-105.24171 65.89223"/>
<path transform="matrix(.87671,.48093,.48093,-.87671,106.12718,102.35635)" d="M5.44688 0 .91498 1.86441 2.40846 0 .91498-1.86441Z"/>
<path transform="matrix(.87671,.48093,.48093,-.87671,106.12718,102.35635)" stroke-width=".59776" stroke-linecap="butt" stroke-miterlimit="10" stroke-linejoin="miter" fill="none" stroke="#000000" d="M5.44688 0 .91498 1.86441 2.40846 0 .91498-1.86441Z"/>
<path transform="matrix(1,0,0,-1,213.34941,169.335)" stroke-width=".59776" stroke-linecap="butt" stroke-miterlimit="10" stroke-linejoin="miter" fill="none" stroke="#000000" d="M-59.52846 106.1261-59.26228 67.95647"/>
<path transform="matrix(.00696,.99994,.99994,-.00696,154.0714,99.11966)" d="M5.44688 0 .91498 1.86441 2.40846 0 .91498-1.86441Z"/>
<path transform="matrix(.00696,.99994,.99994,-.00696,154.0714,99.11966)" stroke-width=".59776" stroke-linecap="butt" stroke-miterlimit="10" stroke-linejoin="miter" fill="none" stroke="#000000" d="M5.44688 0 .91498 1.86441 2.40846 0 .91498-1.86441Z"/>
<path transform="matrix(1,0,0,-1,213.34941,169.335)" stroke-width=".59776" stroke-linecap="butt" stroke-miterlimit="10" stroke-linejoin="miter" fill="none" stroke="#000000" d="M59.52846 106.1261 59.26228 67.95647"/>
<path transform="matrix(-.00696,.99994,.99994,.00696,272.62745,99.11966)" d="M5.44688 0 .91498 1.86441 2.40846 0 .91498-1.86441Z"/>
<path transform="matrix(-.00696,.99994,.99994,.00696,272.62745,99.11966)" stroke-width=".59776" stroke-linecap="butt" stroke-miterlimit="10" stroke-linejoin="miter" fill="none" stroke="#000000" d="M5.44688 0 .91498 1.86441 2.40846 0 .91498-1.86441Z"/>
<path transform="matrix(1,0,0,-1,213.34941,169.335)" stroke-width=".59776" stroke-linecap="butt" stroke-miterlimit="10" stroke-linejoin="miter" fill="none" stroke="#000000" d="M178.58498 106.1261 105.24171 65.89223"/>
<path transform="matrix(-.87671,.48093,.48093,.87671,320.57167,102.35635)" d="M5.44688 0 .91498 1.86441 2.40846 0 .91498-1.86441Z"/>
<path transform="matrix(-.87671,.48093,.48093,.87671,320.57167,102.35635)" stroke-width=".59776" stroke-linecap="butt" stroke-miterlimit="10" stroke-linejoin="miter" fill="none" stroke="#000000" d="M5.44688 0 .91498 1.86441 2.40846 0 .91498-1.86441Z"/>
<path transform="matrix(1,0,0,-1,213.34941,169.335)" d="M75.96211-4.25192H-75.96211C-77.06259-4.25192-77.95467-5.14401-77.95467-6.24448V-33.44084C-77.95467-34.54132-77.06259-35.4334-75.96211-35.4334H75.96211C77.06259-35.4334 77.95467-34.54132 77.95467-33.44084V-6.24448C77.95467-5.14401 77.06259-4.25192 75.96211-4.25192ZM-77.95467-35.4334" fill="#e0e0ff"/>
<path transform="matrix(1,0,0,-1,213.34941,169.335)" stroke-width=".3985" stroke-linecap="butt" stroke-miterlimit="10" stroke-linejoin="miter" fill="none" stroke="#000000" d="M75.96211-4.25192H-75.96211C-77.06259-4.25192-77.95467-5.14401-77.95467-6.24448V-33.44084C-77.95467-34.54132-77.06259-35.4334-75.96211-35.4334H75.96211C77.06259-35.4334 77.95467-34.54132 77.95467-33.44084V-6.24448C77.95467-5.14401 77.06259-4.25192 75.96211-4.25192ZM-77.95467-35.4334"/>
<use data-text="W" xlink:href="#font_8_113" transform="matrix(9.96264,0,0,-9.96264,141.3724,192.00104)"/>
<use data-text="a" xlink:href="#font_8_28" transform="matrix(9.96264,0,0,-9.96264,150.50815,192.00104)"/>
<use data-text="v" xlink:href="#font_8_112" transform="matrix(9.96264,0,0,-9.96264,155.3002,192.00104)"/>
<use data-text="e" xlink:href="#font_8_50" transform="matrix(9.96264,0,0,-9.96264,159.89298,192.00104)"/>
<use data-text="e" xlink:href="#font_8_50" transform="matrix(9.96264,0,0,-9.96264,167.624,192.00104)"/>
<use data-text="q" xlink:href="#font_8_91" transform="matrix(9.96264,0,0,-9.96264,172.0474,192.00104)"/>
<use data-text="u" xlink:href="#font_8_109" transform="matrix(9.96264,0,0,-9.96264,177.19809,192.00104)"/>
<use data-text="a" xlink:href="#font_8_28" transform="matrix(9.96264,0,0,-9.96264,182.34876,192.00104)"/>
<use data-text="t" xlink:href="#font_8_105" transform="matrix(9.96264,0,0,-9.96264,187.14081,192.00104)"/>
<use data-text="i" xlink:href="#font_8_66" transform="matrix(9.96264,0,0,-9.96264,190.7373,192.00104)"/>
<use data-text="o" xlink:href="#font_8_81" transform="matrix(9.96264,0,0,-9.96264,193.11838,192.00104)"/>
<use data-text="n" xlink:href="#font_8_77" transform="matrix(9.96264,0,0,-9.96264,198.0997,192.00104)"/>
<use data-text=":" xlink:href="#font_8_44" transform="matrix(9.96264,0,0,-9.96264,203.2504,192.00104)"/>
<use data-text="&#x2207;" xlink:href="#font_1_5" transform="matrix(9.96264,0,0,-9.96264,212.65512,192.00104)"/>
<use data-text="2" xlink:href="#font_6_3" transform="matrix(6.973848,0,0,-6.973848,220.95734,188.38568)"/>
<use data-text="E" xlink:href="#font_2_2" transform="matrix(9.96264,0,0,-9.96264,225.42673,192.00104)"/>
<use data-text="=" xlink:href="#font_3_7" transform="matrix(9.96264,0,0,-9.96264,235.72135,192.00104)"/>
<use data-text="&#x00b5;" xlink:href="#font_4_1" transform="matrix(9.96264,0,0,-9.96264,246.23743,192.00104)"/>
<use data-text="0" xlink:href="#font_6_1" transform="matrix(6.973848,0,0,-6.973848,252.24042,193.49542)"/>
<use data-text="&#x03b5;" xlink:href="#font_4_3" transform="matrix(9.96264,0,0,-9.96264,256.70979,192.00104)"/>
<use data-text="0" xlink:href="#font_6_1" transform="matrix(6.973848,0,0,-6.973848,261.35554,193.49542)"/>
<use data-text="&#x2202;" xlink:href="#font_4_5" transform="matrix(9.96264,0,0,-9.96264,267.4853,192.00104)"/>
<use data-text="2" xlink:href="#font_6_3" transform="matrix(6.973848,0,0,-6.973848,273.32798,188.38568)"/>
<use data-text="t" xlink:href="#font_5_1" transform="matrix(6.973848,0,0,-6.973848,272.7745,194.46399)"/>
<use data-text="E" xlink:href="#font_2_2" transform="matrix(9.96264,0,0,-9.96264,277.79734,192.00106)"/>
<path transform="matrix(1,0,0,-1,213.34941,169.335)" stroke-width=".59776" stroke-linecap="butt" stroke-miterlimit="10" stroke-linejoin="miter" fill="none" stroke="#000000" d="M0 32.39948V-.07542"/>
<path transform="matrix(0,1,1,0,213.34941,167.15142)" d="M5.44688 0 .91498 1.86441 2.40846 0 .91498-1.86441Z"/>
<path transform="matrix(0,1,1,0,213.34941,167.15142)" stroke-width=".59776" stroke-linecap="butt" stroke-miterlimit="10" stroke-linejoin="miter" fill="none" stroke="#000000" d="M5.44688 0 .91498 1.86441 2.40846 0 .91498-1.86441Z"/>
<path transform="matrix(1,0,0,-1,213.34941,169.335)" d="M81.33554-74.39804H-81.33554C-82.98625-74.39804-84.32437-75.73616-84.32437-77.38687V-115.37108C-84.32437-117.02177-82.98625-118.35991-81.33554-118.35991H81.33554C82.98625-118.35991 84.32437-117.02177 84.32437-115.37108V-77.38687C84.32437-75.73616 82.98625-74.39804 81.33554-74.39804ZM-84.32437-118.35991" fill="#bfbfff"/>
<path transform="matrix(1,0,0,-1,213.34941,169.335)" stroke-width=".54794" stroke-linecap="butt" stroke-miterlimit="10" stroke-linejoin="miter" fill="none" stroke="#000000" d="M81.33554-74.39804H-81.33554C-82.98625-74.39804-84.32437-75.73616-84.32437-77.38687V-115.37108C-84.32437-117.02177-82.98625-118.35991-81.33554-118.35991H81.33554C82.98625-118.35991 84.32437-117.02177 84.32437-115.37108V-77.38687C84.32437-75.73616 82.98625-74.39804 81.33554-74.39804ZM-84.32437-118.35991"/>
<use data-text="c" xlink:href="#font_9_5" transform="matrix(11.955168,0,0,-11.955168,136.99526,267.49565)"/>
<use data-text="=" xlink:href="#font_10_6" transform="matrix(11.955168,0,0,-11.955168,145.35408,267.49565)"/>
<use data-text="1" xlink:href="#font_10_2" transform="matrix(11.955168,0,0,-11.955168,172.02274,259.40788)"/>
<path transform="matrix(1,0,0,-1,-4.3541567,170.16355)" stroke-width=".478187" stroke-linecap="butt" stroke-miterlimit="10" stroke-linejoin="miter" fill="none" stroke="#000000" d="M163.32923-94.3433H195.27753"/>
<use data-text="&#x221a;" xlink:href="#font_1_4" transform="matrix(11.955168,0,0,-11.955168,158.97507,268.24757)"/>
<path transform="matrix(1,0,0,-1,-4.3541567,170.16355)" stroke-width=".478187" stroke-linecap="butt" stroke-miterlimit="10" stroke-linejoin="miter" fill="none" stroke="#000000" d="M173.2919-97.84492H195.27753"/>
<use data-text="&#x00b5;" xlink:href="#font_9_1" transform="matrix(11.955168,0,0,-11.955168,168.93775,275.6963)"/>
<use data-text="0" xlink:href="#font_11_1" transform="matrix(7.970112,0,0,-7.970112,175.98072,277.48957)"/>
<use data-text="&#x03b5;" xlink:href="#font_9_2" transform="matrix(11.955168,0,0,-11.955168,180.71303,275.6963)"/>
<use data-text="0" xlink:href="#font_11_1" transform="matrix(7.970112,0,0,-7.970112,186.19106,277.48957)"/>
<use data-text="=" xlink:href="#font_10_6" transform="matrix(11.955168,0,0,-11.955168,195.43972,267.49565)"/>
<use data-text="2" xlink:href="#font_10_3" transform="matrix(11.955168,0,0,-11.955168,207.84918,267.49565)"/>
<use data-text="." xlink:href="#font_9_3" transform="matrix(11.955168,0,0,-11.955168,213.71819,267.49565)"/>
<use data-text="9" xlink:href="#font_10_5" transform="matrix(11.955168,0,0,-11.955168,216.96985,267.49565)"/>
<use data-text="9" xlink:href="#font_10_5" transform="matrix(11.955168,0,0,-11.955168,222.81594,267.49565)"/>
<use data-text="8" xlink:href="#font_10_4" transform="matrix(11.955168,0,0,-11.955168,228.66202,267.49565)"/>
<use data-text="&#x00d7;" xlink:href="#font_1_3" transform="matrix(11.955168,0,0,-11.955168,237.18549,267.49565)"/>
<use data-text="1" xlink:href="#font_10_2" transform="matrix(11.955168,0,0,-11.955168,249.14066,267.49565)"/>
<use data-text="0" xlink:href="#font_10_1" transform="matrix(11.955168,0,0,-11.955168,254.98673,267.49565)"/>
<use data-text="8" xlink:href="#font_11_2" transform="matrix(7.970112,0,0,-7.970112,260.84666,263.1572)"/>
<use data-text="m" xlink:href="#font_10_7" transform="matrix(11.955168,0,0,-11.955168,269.47636,267.49565)"/>
<use data-text="/" xlink:href="#font_9_4" transform="matrix(11.955168,0,0,-11.955168,279.23133,267.49565)"/>
<use data-text="s" xlink:href="#font_10_8" transform="matrix(11.955168,0,0,-11.955168,285.08433,267.49565)"/>
<path transform="matrix(1,0,0,-1,213.34941,169.335)" stroke-width=".59776" stroke-linecap="butt" stroke-miterlimit="10" stroke-linejoin="miter" fill="none" stroke="#000000" d="M0-35.63266V-70.14682"/>
<path transform="matrix(0,1,1,0,213.34941,237.2228)" d="M5.44688 0 .91498 1.86441 2.40846 0 .91498-1.86441Z"/>
<path transform="matrix(0,1,1,0,213.34941,237.2228)" stroke-width=".59776" stroke-linecap="butt" stroke-miterlimit="10" stroke-linejoin="miter" fill="none" stroke="#000000" d="M5.44688 0 .91498 1.86441 2.40846 0 .91498-1.86441Z"/>
<path transform="matrix(1,0,0,-1,213.34941,169.335)" d="M282.47566-.14943H171.7247C170.89936-.14943 170.23029-.8185 170.23029-1.64384V-45.91837C170.23029-46.7437 170.89936-47.41278 171.7247-47.41278H282.47566C283.301-47.41278 283.97007-46.7437 283.97007-45.91837V-1.64384C283.97007-.8185 283.301-.14943 282.47566-.14943ZM170.23029-47.41278" fill="#fffde5"/>
<path transform="matrix(1,0,0,-1,213.34941,169.335)" stroke-width=".29887" stroke-linecap="butt" stroke-miterlimit="10" stroke-linejoin="miter" fill="none" stroke="#000000" d="M282.47566-.14943H171.7247C170.89936-.14943 170.23029-.8185 170.23029-1.64384V-45.91837C170.23029-46.7437 170.89936-47.41278 171.7247-47.41278H282.47566C283.301-47.41278 283.97007-46.7437 283.97007-45.91837V-1.64384C283.97007-.8185 283.301-.14943 282.47566-.14943ZM170.23029-47.41278"/>
<use data-text="M" xlink:href="#font_8_74" transform="matrix(9.96264,0,0,-9.96264,399.18867,181.38034)"/>
<use data-text="e" xlink:href="#font_8_50" transform="matrix(9.96264,0,0,-9.96264,407.90596,181.38034)"/>
<use data-text="a" xlink:href="#font_8_28" transform="matrix(9.96264,0,0,-9.96264,412.32939,181.38034)"/>
<use data-text="s" xlink:href="#font_8_98" transform="matrix(9.96264,0,0,-9.96264,417.1214,181.38034)"/>
<use data-text="u" xlink:href="#font_8_109" transform="matrix(9.96264,0,0,-9.96264,420.93708,181.38034)"/>
<use data-text="r" xlink:href="#font_8_96" transform="matrix(9.96264,0,0,-9.96264,426.08778,181.38034)"/>
<use data-text="e" xlink:href="#font_8_50" transform="matrix(9.96264,0,0,-9.96264,429.495,181.38034)"/>
<use data-text="d" xlink:href="#font_8_47" transform="matrix(9.96264,0,0,-9.96264,433.9184,181.38034)"/>
<use data-text="c" xlink:href="#font_8_43" transform="matrix(9.96264,0,0,-9.96264,442.38667,181.38034)"/>
<use data-text="o" xlink:href="#font_8_81" transform="matrix(9.96264,0,0,-9.96264,446.81007,181.38034)"/>
<use data-text="n" xlink:href="#font_8_77" transform="matrix(9.96264,0,0,-9.96264,451.79139,181.38034)"/>
<use data-text="s" xlink:href="#font_8_98" transform="matrix(9.96264,0,0,-9.96264,456.94209,181.38034)"/>
<use data-text="t" xlink:href="#font_8_105" transform="matrix(9.96264,0,0,-9.96264,460.75776,181.38034)"/>
<use data-text="a" xlink:href="#font_8_28" transform="matrix(9.96264,0,0,-9.96264,464.35429,181.38034)"/>
<use data-text="n" xlink:href="#font_8_77" transform="matrix(9.96264,0,0,-9.96264,469.1463,181.38034)"/>
<use data-text="t" xlink:href="#font_8_105" transform="matrix(9.96264,0,0,-9.96264,474.297,181.38034)"/>
<use data-text="s" xlink:href="#font_8_98" transform="matrix(9.96264,0,0,-9.96264,477.8935,181.38034)"/>
<use data-text="&#x03b5;" xlink:href="#font_4_3" transform="matrix(9.96264,0,0,-9.96264,388.5611,195.32804)"/>
<use data-text="0" xlink:href="#font_6_1" transform="matrix(6.973848,0,0,-6.973848,393.20686,196.82242)"/>
<use data-text="=" xlink:href="#font_3_7" transform="matrix(9.96264,0,0,-9.96264,400.44355,195.32804)"/>
<use data-text="8" xlink:href="#font_3_6" transform="matrix(9.96264,0,0,-9.96264,410.94416,195.32804)"/>
<use data-text="." xlink:href="#font_4_4" transform="matrix(9.96264,0,0,-9.96264,415.94096,195.32804)"/>
<use data-text="8" xlink:href="#font_3_6" transform="matrix(9.96264,0,0,-9.96264,418.70838,195.32804)"/>
<use data-text="5" xlink:href="#font_3_5" transform="matrix(9.96264,0,0,-9.96264,423.6897,195.32804)"/>
<use data-text="4" xlink:href="#font_3_4" transform="matrix(9.96264,0,0,-9.96264,428.67103,195.32804)"/>
<use data-text="&#x00d7;" xlink:href="#font_1_3" transform="matrix(9.96264,0,0,-9.96264,435.8662,195.32804)"/>
<use data-text="1" xlink:href="#font_3_3" transform="matrix(9.96264,0,0,-9.96264,445.82887,195.32804)"/>
<use data-text="0" xlink:href="#font_3_2" transform="matrix(9.96264,0,0,-9.96264,450.81019,195.32804)"/>
<use data-text="&#x2212;" xlink:href="#font_12_1" transform="matrix(6.973848,0,0,-6.973848,455.7915,191.71268)"/>
<use data-text="1" xlink:href="#font_6_2" transform="matrix(6.973848,0,0,-6.973848,462.0182,191.71268)"/>
<use data-text="2" xlink:href="#font_6_3" transform="matrix(6.973848,0,0,-6.973848,465.98634,191.71268)"/>
<use data-text="F" xlink:href="#font_8_54" transform="matrix(9.96264,0,0,-9.96264,473.77638,195.32804)"/>
<use data-text="/" xlink:href="#font_8_102" transform="matrix(9.96264,0,0,-9.96264,479.4451,195.32804)"/>
<use data-text="m" xlink:href="#font_8_75" transform="matrix(9.96264,0,0,-9.96264,484.42643,195.32804)"/>
<use data-text="&#x00b5;" xlink:href="#font_4_1" transform="matrix(9.96264,0,0,-9.96264,390.44148,209.27574)"/>
<use data-text="0" xlink:href="#font_6_1" transform="matrix(6.973848,0,0,-6.973848,396.44447,210.77011)"/>
<use data-text="=" xlink:href="#font_3_7" transform="matrix(9.96264,0,0,-9.96264,403.68116,209.27574)"/>
<use data-text="4" xlink:href="#font_3_4" transform="matrix(9.96264,0,0,-9.96264,414.18177,209.27574)"/>
<use data-text="&#x03c0;" xlink:href="#font_4_2" transform="matrix(9.96264,0,0,-9.96264,419.17857,209.27574)"/>
<use data-text="&#x00d7;" xlink:href="#font_1_3" transform="matrix(9.96264,0,0,-9.96264,427.42884,209.27574)"/>
<use data-text="1" xlink:href="#font_3_3" transform="matrix(9.96264,0,0,-9.96264,437.39146,209.27574)"/>
<use data-text="0" xlink:href="#font_3_2" transform="matrix(9.96264,0,0,-9.96264,442.37278,209.27574)"/>
<use data-text="&#x2212;" xlink:href="#font_12_1" transform="matrix(6.973848,0,0,-6.973848,447.35414,205.66039)"/>
<use data-text="7" xlink:href="#font_6_4" transform="matrix(6.973848,0,0,-6.973848,453.5808,205.66039)"/>
<use data-text="T" xlink:href="#font_8_104" transform="matrix(9.96264,0,0,-9.96264,461.36775,209.27574)"/>
<use data-text="&#x00b7;" xlink:href="#font_1_2" transform="matrix(9.96264,0,0,-9.96264,468.15229,209.27574)"/>
<use data-text="m" xlink:href="#font_8_75" transform="matrix(9.96264,0,0,-9.96264,470.9197,209.27574)"/>
<use data-text="/" xlink:href="#font_8_102" transform="matrix(9.96264,0,0,-9.96264,478.83006,209.27574)"/>
<use data-text="A" xlink:href="#font_8_27" transform="matrix(9.96264,0,0,-9.96264,483.81138,209.27574)"/>
<path transform="matrix(1,0,0,-1,213.34941,169.335)" stroke-width=".44832" stroke-linecap="butt" stroke-dasharray="2.98883,2.98883" stroke-miterlimit="10" stroke-linejoin="miter" fill="none" stroke="#000000" d="M227.10018-47.56221C227.10018-81.5783 169.63878-90.7097 88.62453-96.11058"/>
<path transform="matrix(-.99774,.06651,.06651,.99774,304.16996,265.2992)" d="M5.64426 0 .68622 2.03612 2.31303 0 .68622-2.03612Z"/>
<path transform="matrix(-.99774,.06651,.06651,.99774,304.16996,265.2992)" stroke-width=".44832" stroke-linecap="butt" stroke-miterlimit="10" stroke-linejoin="miter" fill="none" stroke="#000000" d="M5.64426 0 .68622 2.03612 2.31303 0 .68622-2.03612Z"/>
<use data-text="s" xlink:href="#font_13_98" transform="matrix(7.654894,-2.2182418,-2.2182418,-7.654894,383.4764,253.26599)"/>
<use data-text="u" xlink:href="#font_13_109" transform="matrix(7.654894,-2.2182418,-2.2182418,-7.654894,386.59196,252.36318)"/>
<use data-text="b" xlink:href="#font_13_35" transform="matrix(7.654894,-2.2182418,-2.2182418,-7.654894,390.7945,251.14536)"/>
<use data-text="s" xlink:href="#font_13_98" transform="matrix(7.654894,-2.2182418,-2.2182418,-7.654894,394.99705,249.92755)"/>
<use data-text="t" xlink:href="#font_13_105" transform="matrix(7.654894,-2.2182418,-2.2182418,-7.654894,398.11259,249.02472)"/>
<use data-text="i" xlink:href="#font_13_66" transform="matrix(7.654894,-2.2182418,-2.2182418,-7.654894,401.05204,248.17292)"/>
<use data-text="t" xlink:href="#font_13_105" transform="matrix(7.654894,-2.2182418,-2.2182418,-7.654894,402.98875,247.6117)"/>
<use data-text="u" xlink:href="#font_13_109" transform="matrix(7.654894,-2.2182418,-2.2182418,-7.654894,405.9282,246.7599)"/>
<use data-text="t" xlink:href="#font_13_105" transform="matrix(7.654894,-2.2182418,-2.2182418,-7.654894,410.13075,245.54209)"/>
<use data-text="e" xlink:href="#font_13_50" transform="matrix(7.654894,-2.2182418,-2.2182418,-7.654894,413.07023,244.69028)"/>
</svg>
