<svg xmlns="http://www.w3.org/2000/svg" xmlns:xlink="http://www.w3.org/1999/xlink" xmlns:inkscape="http://www.inkscape.org/namespaces/inkscape" version="1.1" width="383.51" height="215.76" viewBox="0 0 383.51 215.76">
<defs>
<path id="font_1_66" d="M.25299073 0V.0309906C.18798828 .0309906 .18399048 .035995485 .18399048 .075042728V.4423828L.039993287 .43066407V.3996582C.10398865 .3996582 .11299133 .3936615 .11299133 .3447113V.07695007C.11299133 .0309906 .101989749 .0309906 .035995485 .0309906V0C.08099365 .0019989014 .101989749 .0029907227 .1459961 .0029907227 .1619873 .0029907227 .20399475 .0029907227 .25299073 0M.19699097 .6028137C.19699097 .63282778 .17298889 .6568146 .14299011 .6568146 .11299133 .6568146 .08898926 .63282778 .08898926 .6028137 .08898926 .57281497 .11299133 .5488281 .14299011 .5488281 .17298889 .5488281 .19699097 .57281497 .19699097 .6028137Z"/>
<path id="font_1_77" d="M.5469971 0V.0309906C.49598695 .03125 .47099305 .03125 .46998597 .0622406V.25431825C.46998597 .3373413 .46998597 .36636354 .44198609 .4013672 .4189911 .42938233 .3809967 .4423828 .33099366 .4423828 .23799134 .4423828 .19499207 .37335206 .18099976 .34535218H.17999268V.4423828L.034988405 .43066407V.3996582C.102996829 .3996582 .11199951 .39266969 .11199951 .34370423V.07695007C.11199951 .0309906 .100997928 .0309906 .034988405 .0309906V0C.08198547 .0019989014 .100997928 .0029907227 .14898682 .0029907227 .19699097 .0029907227 .20999146 .0019989014 .2630005 0V.0309906C.19699097 .0309906 .18598938 .0309906 .18598938 .07695007V.25878907C.18598938 .36532594 .26098634 .41737367 .32398988 .41737367 .3829956 .41737367 .3959961 .3683319 .3959961 .30825807V.077041629C.3959961 .0309906 .3849945 .0309906 .31900025 .0309906V0C.3659973 .0019989014 .3849945 .0029907227 .43299867 .0029907227 .48098756 .0029907227 .49398805 .0019989014 .5469971 0Z"/>
<path id="font_1_43" d="M.4269867 .11936951C.4269867 .13139344 .41600038 .13139344 .41299439 .13139344 .4019928 .13139344 .4019928 .12937927 .3959961 .11236572 .37298585 .043289186 .31698609 .01725769 .2659912 .01725769 .20199585 .01725769 .11999512 .06932068 .11999512 .21749878 .11999512 .3735962 .19999695 .42022706 .2599945 .42022706 .272995 .42022706 .32699586 .41825868 .3639984 .39356996 .34298707 .3895874 .32299806 .3755951 .32299806 .34658814 .32299806 .32058717 .34298707 .30059815 .36898805 .30059815 .394989 .30059815 .41600038 .31759645 .41600038 .34858705 .41600038 .4103546 .34599305 .4482422 .2579956 .4482422 .12998963 .4482422 .033996583 .3415985 .033996583 .2164917 .033996583 .08734131 .13798523-.0107421879 .2559967-.0107421879 .394989-.0107421879 .4269867 .11036682 .4269867 .11936951Z"/>
<path id="font_1_47" d="M.5399933 0V.0309906C.47200013 .0309906 .46299745 .037994386 .46299745 .087020877V.69433596L.31498719 .6826172V.6516113C.3829956 .6516113 .3919983 .64463809 .3919983 .59580996V.38339234C.3869934 .38938905 .34199525 .4423828 .2639923 .4423828 .14099121 .4423828 .033996583 .3443756 .033996583 .21525574 .033996583 .09013367 .13398743-.0107421879 .25299073-.0107421879 .32598878-.0107421879 .37098695 .03224182 .3889923 .053115846V-.0107421879L.5399933 0M.3889923 .12011719C.3889923 .10211182 .3889923 .099121097 .37399293 .078125 .34298707 .033218385 .29699708 .014251709 .25698854 .014251709 .21398926 .014251709 .17399597 .038208009 .147995 .0801239 .12199402 .12312317 .11999512 .18218994 .11999512 .21421814 .11999512 .26127626 .12599182 .3143463 .1519928 .35438539 .17399597 .38638307 .21499634 .41737367 .2679901 .41737367 .30999757 .41737367 .34999085 .39637757 .3769989 .35839845 .3889923 .3423767 .3889923 .34136964 .3889923 .32235719V.12011719Z"/>
<path id="font_1_50" d="M.4269867 .11936951C.4269867 .12637329 .42199708 .13237 .41299439 .13237 .40299989 .13237 .3999939 .12536621 .39898683 .12136841 .36499024 .019256592 .27598573 .01725769 .26098634 .01725769 .21299744 .01725769 .17199707 .044281007 .14898682 .078323367 .115997318 .12736511 .114990238 .18743897 .114990238 .22949219H.3999939C.42199708 .22949219 .4269867 .22949219 .4269867 .25048829 .4269867 .35333253 .37098695 .4482422 .24299622 .4482422 .12298584 .4482422 .0289917 .3443451 .0289917 .22047425 .0289917 .08932495 .13398743-.0107421879 .2559967-.0107421879 .37799073-.0107421879 .4269867 .096343997 .4269867 .11936951M.35899354 .253479H.115997318C.125 .40725709 .21499634 .42323304 .24299622 .42323304 .2979889 .42323304 .35798646 .38130189 .35899354 .253479Z"/>
<path id="font_1_105" d="M.34199525 .12408447V.18099976H.31399537V.1270752C.31399537 .05319214 .2829895 .01725769 .24699402 .01725769 .17999268 .01725769 .17999268 .1051178 .17999268 .12309265V.3996582H.32499696V.43066407H.17999268V.6142578H.1519928C.15098572 .5304413 .115997318 .42765809 .018997193 .4246521V.3996582H.10598755V.12408447C.10598755 .012252808 .18699646-.0107421879 .23999024-.0107421879 .30699159-.011001587 .34199525 .052993776 .34199525 .12399292V.12408447Z"/>
<path id="font_2_4" d="M.18199158 .116867069C.1329956 .036987306 .08898926 .033981325 .04899597 .0309906 .041992189 .02999878 .036987306 .021987915 .036987306 .0129852299 .036987306 .0069885256 .040985109 0 .050994874 0 .069992069 0 .116989139 .0029907227 .13598633 .0029907227 .1579895 .0029907227 .21199036 0 .23399353 0 .23999024 0 .25299073 0 .25299073 .017990113 .25299073 .02999878 .24099732 .0309906 .23799134 .0309906 .22898865 .03199768 .19099427 .033981325 .19099427 .063949588 .19099427 .077926639 .20199585 .09689331 .20498657 .101882938L.28399659 .23068238H.54499819C.5479889 .2077179 .5509949 .17378235 .55400088 .14881897 .55799868 .10987854 .56399539 .06593323 .56399539 .062942508 .56399539 .047973634 .5499878 .0309906 .49198915 .0309906 .48199464 .0309906 .46899415 .0309906 .46899415 .0129852299 .46899415 .0019989014 .47698976 0 .48399354 0 .5029907 0 .5269928 .0019989014 .5469971 .0019989014 .5669861 .0019989014 .59098818 .0029907227 .6069946 .0029907227 .6399994 .0029907227 .6419983 .0029907227 .66600039 .0019989014 .6819916 .0009918213 .7049866 0 .72099307 0 .72698977 0 .73999026 0 .73999026 .017990113 .73999026 .0309906 .72898867 .0309906 .71699526 .0309906 .6569977 .0309906 .6559906 .037979127 .6529999 .06694031L.58299258 .68881228C.58099368 .7108154 .5799866 .7158203 .5629883 .7158203 .548996 .7158203 .54299929 .7088165 .5349884 .69581606L.18199158 .116867069M.30299378 .26168824 .5049896 .5917816 .5419922 .26168824H.30299378Z"/>
<path id="font_2_5" d="M.16299439 .07595825C.1539917 .039993287 .1519928 .0309906 .07699585 .0309906 .057998659 .0309906 .04699707 .0309906 .04699707 .0129852299 .04699707 0 .056991579 0 .07499695 0H.43899537C.6009979 0 .7200012 .11793518 .7200012 .21485901 .7200012 .28581239 .6609955 .34576417 .56199648 .35676576 .6759949 .37875367 .772995 .4547119 .772995 .54367068 .772995 .6216278 .70098879 .6826172 .58200076 .6826172H.23999024C.22200012 .6826172 .20999146 .6826172 .20999146 .6646118 .20999146 .6516113 .21899414 .6516113 .23999024 .6516113 .24398804 .6516113 .2619934 .6516113 .27799989 .6496124 .29499818 .6476135 .3019867 .6456146 .3019867 .63461306 .3019867 .6296234 .30099488 .6256256 .2979889 .614624L.16299439 .07595825M.31900025 .36776734 .37998963 .6126251C.3889923 .64860537 .3909912 .6516113 .43299867 .6516113H.56799319C.6719971 .6516113 .68099978 .5726471 .68099978 .54766848 .68099978 .45870973 .58799746 .36776734 .47499085 .36776734H.31900025M.2709961 .0309906C.25698854 .0309906 .25498963 .0309906 .25099183 .03199768 .24099732 .032989503 .23799134 .033996583 .23799134 .040985109 .23799134 .04397583 .23799134 .04597473 .24299622 .063964847L.31199647 .34277345H.5C.56199648 .34277345 .625 .31578065 .625 .22485352 .625 .12593079 .5339966 .0309906 .4139862 .0309906H.2709961Z"/>
<path id="font_2_1" d="M.46598817 .49519349C.46598817 .5981293 .43199159 .7050781 .33999635 .7050781 .19400025 .7050781 .040985109 .4202423 .040985109 .19825745 .040985109 .12625122 .06298828-.0107421879 .16699219-.0107421879 .31298829-.0107421879 .46598817 .27127076 .46598817 .49519349M.1499939 .36328126C.16999817 .44223023 .19099427 .5151825 .23199463 .58413699 .2559967 .62409976 .29299928 .68006899 .33898927 .68006899 .3929901 .68006899 .39698792 .59413149 .39698792 .55615237 .39698792 .4961853 .3809967 .426239 .3659973 .36328126H.1499939M.35699464 .3312683C.34098817 .26826478 .32199098 .19326782 .28199769 .12225342 .2559967 .07525635 .21598816 .014251709 .16799927 .014251709 .125 .014251709 .11099243 .06625366 .11099243 .13926697 .11099243 .20326233 .1269989 .26826478 .14199829 .3312683H.35699464Z"/>
<path id="font_3_1" d="M.34799195 .6244507C.34799195 .64852908 .32998658 .66452029 .30699159 .66452029 .27999879 .66452029 .25099183 .638504 .25099183 .60939028 .25099183 .5843353 .2689972 .56933596 .29100038 .56933596 .32299806 .56933596 .34799195 .59936526 .34799195 .6244507M.28799439 .27534486C.2919922 .28533937 .30099488 .3093567 .30499269 .31835938 .30799867 .32736207 .31199647 .33737184 .31199647 .35437013 .31199647 .4104004 .2619934 .44140626 .21199036 .44140626 .10998535 .44140626 .06098938 .3093567 .06098938 .28733827 .06098938 .28234864 .06498718 .27334596 .07899475 .27334596 .09298706 .27334596 .09599304 .27934266 .09899902 .28834535 .1269989 .38539125 .17999268 .4084015 .20799256 .4084015 .22799683 .4084015 .23498535 .395401 .23498535 .37239076 .23498535 .35237123 .22898865 .33737184 .22698975 .33036805L.1749878 .20230103C.16299439 .17329407 .16299439 .17129517 .1499939 .13728333 .13699341 .10726929 .13198853 .09425354 .13198853 .07725525 .13198853 .026229859 .17799378-.009765625 .23298645-.009765625 .33399964-.009765625 .38398744 .12226868 .38398744 .14428711 .38398744 .14628601 .3829956 .15829468 .36499024 .15829468 .35099793 .15829468 .34999085 .1532898 .34399415 .13427735 .32798768 .08325195 .2869873 .023223877 .23599243 .023223877 .21798706 .023223877 .20899964 .035232545 .20899964 .059249879 .20899964 .07925415 .21499634 .09425354 .22799683 .12527466L.28799439 .27534486Z"/>
<path id="font_3_2" d="M.2689972 .39065553H.37799073C.397995 .39065553 .4119873 .39065553 .4119873 .4156494 .4119873 .43066407 .39898683 .43066407 .3809967 .43066407H.2789917L.31399537 .5685272C.31799317 .58351138 .31799317 .5894928 .31799317 .5904999 .31799317 .6144867 .29899598 .6244812 .2829895 .6244812 .2709961 .6244812 .24499512 .6174774 .23599243 .58551028L.19699097 .43066407H.08898926C.067993167 .43066407 .066986087 .42965699 .06298828 .426651 .057998659 .4226532 .053985597 .4096527 .053985597 .4046631 .056991579 .39065553 .06599426 .39065553 .085998538 .39065553H.18699646L.12799073 .15501404C.12199402 .13204956 .11399841 .09811401 .11399841 .086120609 .11399841 .028213501 .1659851-.009765625 .22698975-.009765625 .34199525-.009765625 .4099884 .12705994 .4099884 .14404297 .4099884 .14703369 .4079895 .15802002 .3909912 .15802002 .37799073 .15802002 .37599183 .1530304 .37098695 .14103699 .33699037 .06616211 .27999879 .023223877 .23098755 .023223877 .19400025 .023223877 .19299317 .060165407 .19299317 .073150638 .19299317 .087127689 .19299317 .08912659 .19799805 .10809326L.2689972 .39065553Z"/>
<path id="font_2_6" d="M.30899049 .31378175H.47599793C.6380005 .31378175 .769989 .42474366 .769989 .5306854 .769989 .6096344 .69898989 .6826172 .56799319 .6826172H.23799134C.21998596 .6826172 .20799256 .6826172 .20799256 .6646118 .20799256 .6516113 .21699524 .6516113 .23799134 .6516113 .24198914 .6516113 .2599945 .6516113 .27598573 .6496124 .29299928 .6476135 .2999878 .6456146 .2999878 .63461306 .2999878 .6296234 .29899598 .6256256 .29599 .614624L.16099549 .07595825C.1519928 .039993287 .1499939 .0309906 .07499695 .0309906 .055999757 .0309906 .04499817 .0309906 .04499817 .0129852299 .04499817 .0019989014 .052993776 0 .05999756 0 .07899475 0 .10398865 .0009918213 .12298584 .0019989014 .15299988 .0029907227 .15499878 .0029907227 .18699646 .0029907227 .21899414 .0029907227 .22099304 .0029907227 .25099183 .0019989014 .2709961 .0009918213 .29699708 0 .31599427 0 .32299806 0 .33599855 0 .33599855 .017990113 .33599855 .0309906 .32598878 .0309906 .30499269 .0309906 .30099488 .0309906 .2829895 .0309906 .2669983 .032989503 .24499512 .035995485 .24398804 .039993287 .24398804 .048980714 .24398804 .051971437 .24398804 .053970338 .24899292 .07196045L.30899049 .31378175M.3809967 .6126251C.3899994 .64860537 .3919983 .6516113 .43399049 .6516113H.5349884C.61299136 .6516113 .6749878 .6276245 .6749878 .55467227 .6749878 .53367617 .6639862 .43972779 .6119995 .39175416 .58999636 .37176515 .5439911 .34179688 .45799256 .34179688H.31298829L.3809967 .6126251Z"/>
<path id="font_2_7" d="M.4119873-.04144287C.4099884-.05241394 .4099884-.06639099 .4099884-.07836914 .4099884-.12634278 .41799928-.19433594 .49699403-.19433594 .6159973-.19433594 .6669922-.015472412 .6669922-.00047302247 .6669922 .0055389406 .6619873 .011520386 .6539917 .011520386 .6459961 .011520386 .6439972 .0045318605 .6409912-.0024719239 .6179962-.070388797 .55999758-.095336917 .522995-.095336917 .47698976-.095336917 .46199037-.06639099 .45199586 .0045318605 .66999819 .09844971 .7579956 .29560853 .7579956 .43276979 .7579956 .59095767 .6519928 .7050781 .49499513 .7050781 .2709961 .7050781 .049987794 .474823 .049987794 .24655152 .049987794 .082458499 .16299439-.022460938 .31399537-.022460938 .35499574-.022460938 .3959961-.013473511 .41299439-.008468628L.4119873-.04144287M.2539978 .01751709C.20799256 .035507204 .14099121 .08746338 .14099121 .21650696 .14099121 .26957704 .1579895 .43077088 .2659912 .55992129 .31799317 .6210022 .4019928 .677063 .48799134 .677063 .58699038 .677063 .6669922 .6039734 .6669922 .46380616 .6669922 .36369325 .6179962 .13743592 .44599916 .041503908 .43699647 .095458988 .41799928 .1484375 .35398866 .1484375 .2979889 .1484375 .24899292 .097457889 .24899292 .04649353 .24899292 .038497926 .25099183 .024520874 .2539978 .01751709M.4149933 .025512696C.40098573 .019515992 .3619995 .0055389406 .32099916 .0055389406 .30799867 .0055389406 .27398683 .0055389406 .27398683 .04649353 .27398683 .083465579 .31098939 .123428348 .35499574 .123428348 .4139862 .123428348 .4149933 .06947327 .4149933 .025512696Z"/>
<path id="font_2_8" d="M.3809967 .6125946C.3869934 .63760378 .3899994 .6476135 .4079895 .65060427 .4169922 .6516113 .44999696 .6516113 .47099305 .6516113 .5499878 .6516113 .6599884 .6516113 .6599884 .5505829 .6599884 .51356509 .644989 .4385376 .58799746 .39552308 .56399539 .3795166 .5139923 .35351563 .43299867 .35351563H.31599427L.3809967 .6125946M.5359955 .33850099C.6719971 .3735199 .7559967 .44953919 .7559967 .53157046 .7559967 .61860659 .6609955 .6826172 .5279999 .6826172H.23799134C.21998596 .6826172 .20799256 .6826172 .20799256 .6646118 .20799256 .6516113 .21699524 .6516113 .23799134 .6516113 .24198914 .6516113 .2599945 .6516113 .27598573 .6496124 .29299928 .6476135 .2999878 .6456146 .2999878 .6345978 .2999878 .62960818 .29899598 .6255951 .29599 .6145935L.16099549 .075531009C.1519928 .039535524 .1499939 .030532837 .07499695 .030532837 .055999757 .030532837 .04499817 .030532837 .04499817 .012527466 .04499817 .0015258789 .052993776-.00047302247 .05999756-.00047302247 .07598877-.00047302247 .10598755 .0005340576 .12298584 .0015258789 .14399719 .002532959 .1459961 .002532959 .18499756 .002532959 .21699524 .002532959 .21899414 .002532959 .24899292 .0015258789 .2689972 .0005340576 .2939911-.00047302247 .31298829-.00047302247 .31999208-.00047302247 .33299256-.00047302247 .33299256 .017532349 .33299256 .030532837 .32299806 .030532837 .3019867 .030532837 .2979889 .030532837 .27999879 .030532837 .2639923 .03253174 .24198914 .03552246 .24099732 .039535524 .24099732 .04852295 .24099732 .05152893 .24099732 .053527833 .24598694 .0715332L.30999757 .32850648H.43299867C.522995 .32850648 .54599 .27650453 .54599 .23851013 .54599 .2315216 .54599 .22451782 .5399933 .20251465 .5159912 .11051941 .5159912 .10151672 .5159912 .08653259 .5159912-.0034637452 .6009979-.022460938 .6519928-.022460938 .7389984-.022460938 .7749939 .07852173 .7749939 .0945282 .7749939 .10151672 .7689972 .10652161 .7619934 .10652161 .7509918 .10652161 .75 .10151672 .74598696 .089523319 .72898867 .037521364 .69200137 .002532959 .6549988 .002532959 .61698916 .002532959 .61499026 .03253174 .61499026 .061523439 .61499026 .08653259 .621994 .14451599 .6230011 .15151978 .625 .16752625 .6299896 .20751953 .6299896 .22251892 .6299896 .2795105 .59399417 .31851197 .5359955 .33850099Z"/>
<path id="font_1_96" d="M.37298585 .3798828C.37298585 .41236878 .34298707 .4423828 .2979889 .4423828 .23799134 .4423828 .19599915 .40037538 .17298889 .33787538H.17199707V.4423828L.02999878 .43066407V.3996582C.09799194 .3996582 .10699463 .3927307 .10699463 .34387208V.07698059C.10699463 .0309906 .09599304 .0309906 .02999878 .0309906V0C.08299255 .0019989014 .09599304 .0029907227 .14698792 .0029907227L.27398683 0V.0309906H.2539978C.18099976 .0309906 .17799378 .041992189 .17799378 .07897949V.22891236C.17799378 .26989747 .18899536 .4166565 .30299378 .4166565V.4156494C.30099488 .4146576 .2849884 .40264894 .2849884 .37887574 .2849884 .35186769 .30599977 .33486939 .32899476 .33486939 .34999085 .33486939 .37298585 .34986878 .37298585 .3798828Z"/>
<path id="font_1_55" d="M.3659973 .6340637C.3659973 .67207339 .32798768 .7050781 .272995 .7050781 .19499207 .7046509 .11299133 .6456604 .11299133 .5456543V.43066407H.033996583V.3996582H.11299133V.07695007C.11299133 .0309906 .101989749 .0309906 .035995485 .0309906V0C.08898926 .0019989014 .101989749 .0029907227 .15299988 .0029907227L.27999879 0V.0309906H.2599945C.18699646 .0309906 .18399048 .04197693 .18399048 .078948978V.3996582H.2999878V.43066407H.18099976V.5436554C.18099976 .6350708 .22999573 .68006899 .272995 .68006899 .2829895 .68006899 .29299928 .67807009 .30299378 .67407229 .29299928 .67007449 .2769928 .6580658 .2769928 .6330719 .2769928 .6070709 .29599 .58906558 .32099916 .58906558 .34799195 .58906558 .3659973 .60806277 .3659973 .6340637Z"/>
<path id="font_1_28" d="M.49699403 .089141849V.14515686H.46899415V.090148929C.46899415 .07914734 .46899415 .029129029 .43299867 .029129029 .39698792 .029129029 .39698792 .07714844 .39698792 .09315491V.26818849C.39698792 .32521058 .39698792 .3592224 .35198976 .40022279 .31498719 .43322755 .2669983 .4482422 .21699524 .4482422 .1329956 .4482422 .06298828 .40623475 .06298828 .34220887 .06298828 .311203 .083999637 .2942047 .10998535 .2942047 .13699341 .2942047 .1559906 .31420899 .1559906 .34020997 .1559906 .3832245 .11099243 .38822938 .11099243 .38822938 .13798523 .41423036 .18598938 .42323304 .21499634 .42323304 .2659912 .42323304 .32299806 .3852234 .32299806 .29719544V.26419068C.2689972 .26219178 .19400025 .2571869 .1269989 .22518921 .054992677 .19017029 .032989503 .13816834 .032989503 .09814453 .032989503 .01625061 .12998963-.0107421879 .19699097-.0107421879 .27999879-.0107421879 .31799317 .04425049 .33198548 .072250369 .33699037 .030136109 .3659973-.005859375 .40899659-.005859375 .43399049-.005859375 .49699403 .009140015 .49699403 .08912659V.089141849M.32299806 .14112854C.32299806 .04425049 .24798584 .014251709 .20399475 .014251709 .15699768 .014251709 .11299133 .04824829 .11299133 .098236087 .11299133 .16423035 .16999817 .23422241 .32299806 .24023438V.14112854Z"/>
<path id="font_1_112" d="M.5209961 .3996582V.43066407C.4909973 .42765809 .44400025 .42765809 .44400025 .42765809 .41600038 .42765809 .3849945 .4286499 .35699464 .43066407V.3996582C.38598634 .3976593 .40299989 .38267518 .40299989 .35671998 .40299989 .34674073 .4019928 .34474183 .397995 .3337555L.2939911 .0821228 .17999268 .35472108C.1769867 .36071778 .1749878 .36669923 .1749878 .37368775 .1749878 .3996582 .21099854 .3996582 .22999573 .3996582V.43066407C.18699646 .4286499 .1639862 .42765809 .11999512 .42765809 .084991458 .42765809 .055999757 .42765809 .019989014 .43066407V.3996582C.066986087 .3996582 .085998538 .3996582 .100997928 .36271668L.24699402 .008224487C.25299073-.007751465 .26098634-.0107421879 .269989-.0107421879 .2789917-.0107421879 .2869873-.008758545 .2939911 .008224487L.42999269 .3357544C.45098878 .38667298 .48599244 .39865113 .5209961 .3996582Z"/>
<path id="font_1_116" d="M.5279999 0V.0309906C.48799134 .0309906 .45799256 .0309906 .43598939 .05897522L.30499269 .22491455C.2979889 .23390198 .2979889 .23590088 .2979889 .23590088 .2979889 .23590088 .37599183 .33285523 .38398744 .3408661 .4149933 .37483216 .44898988 .39866639 .5099945 .3996582V.43066407C.48098756 .42765809 .45399476 .42765809 .4249878 .42765809 .3869934 .42765809 .36898805 .42765809 .32899476 .43066407V.3996582C.34399415 .39767457 .35699464 .38972474 .35699464 .3698578 .35699464 .35386659 .34799195 .342865 .34298707 .3368683L.2789917 .2578888 .20098877 .3568573C.19400025 .36586 .19198609 .3678589 .19198609 .37483216 .19198609 .38674928 .20298767 .39866639 .22599793 .3996582V.43066407C.18798828 .4286499 .1619873 .42765809 .116989139 .42765809 .116989139 .42765809 .057998659 .42765809 .018997193 .43066407V.3996582C.08799744 .3996582 .08999634 .39767457 .13598633 .3388672L.23899842 .20991516 .14199829 .0929718C.09199524 .032989503 .034988405 .0309906 .01399231 .0309906V0C.042999269 .0029907227 .069992069 .0029907227 .09899902 .0029907227 .1309967 .0029907227 .16299439 .0019989014 .19499207 0V.0309906C.16999817 .033996583 .16699219 .050979616 .16699219 .06097412 .16699219 .0639801 .16699219 .07797241 .18199158 .095962528 .20599365 .12695313 .23199463 .15693665 .25698854 .18692017L.33599855 .08596802C.35499574 .0639801 .35499574 .0619812 .35499574 .055984498 .35499574 .04498291 .34498597 .03199768 .32099916 .0309906V0C.36299134 .0019989014 .3869934 .0029907227 .42999269 .0029907227 .42999269 .0029907227 .4889984 .0029907227 .5279999 0Z"/>
<path id="font_2_11" d="M.18899536 .15730286C.19999695 .20431519 .21899414 .2773285 .21998596 .28533937 .22200012 .29133607 .24699402 .33935548 .2829895 .37435914 .31199647 .4013672 .34999085 .41737367 .3889923 .41737367 .44299317 .41737367 .44299317 .36436463 .44299317 .34735108 .44299317 .28633119 .3959961 .16429138 .3849945 .13328552 .37298585 .10227966 .36898805 .0922699 .36898805 .073272708 .36898805 .019256592 .4099884-.0107421879 .45498658-.0107421879 .5509949-.0107421879 .58999636 .1322937 .58999636 .14329529 .58999636 .14828491 .58699038 .1552887 .57699587 .1552887 .56599429 .1552887 .5649872 .15029907 .5609894 .13728333 .5359955 .052261354 .49398805 .014251709 .45799256 .014251709 .45098878 .014251709 .43299867 .014251709 .43299867 .04626465 .43299867 .0712738 .44299317 .09727478 .45098878 .119277957 .47099305 .17030335 .5109863 .27633668 .5109863 .33235169 .5109863 .42137147 .44499208 .4423828 .3919983 .4423828 .29899598 .4423828 .25 .37635804 .23399353 .35536195 .22799683 .40937806 .18699646 .4423828 .13699341 .4423828 .09498596 .4423828 .07398987 .41137696 .05999756 .3843689 .042999269 .34934999 .0289917 .29234315 .0289917 .28833009 .0289917 .2793274 .035995485 .27633668 .042999269 .27633668 .053985597 .27633668 .055999757 .28134156 .06098938 .30134584 .07998657 .3803711 .100997928 .41737367 .1349945 .41737367 .16499329 .41737367 .16499329 .38536073 .16499329 .37036134 .16499329 .34934999 .15699768 .31834413 .15098572 .29234315 .14399719 .2663269 .13398743 .22331238 .12998963 .21131897L.08999634 .04725647C.08299255 .023254395 .08299255 .021255494 .08299255 .018249512 .08299255 .0052490236 .09199524-.0107421879 .11399841-.0107421879 .12799073-.0107421879 .14299011-.0017547608 .1499939 .010253906 .15299988 .01625061 .16099549 .04826355 .1659851 .06826782L.18899536 .15730286Z"/>
<path id="font_2_9" d="M.5239868 .6603241C.5279999 .67433169 .5279999 .67633059 .5279999 .68032839 .5279999 .68933108 .5219879 .69433596 .5130005 .69433596 .49899293 .69433596 .41099549 .6863251 .3909912 .6843262 .3809967 .68333438 .36999513 .6823273 .36999513 .665329 .36999513 .6523285 .3809967 .6523285 .39698792 .6523285 .44400025 .6523285 .44400025 .6453247 .44400025 .6363373 .44400025 .6293335 .43499757 .5943451 .42999269 .573349L.41099549 .4963684C.40098573 .45837403 .3909912 .41937257 .38198854 .3803711 .36299134 .41638185 .33198548 .4423828 .2869873 .4423828 .17098999 .4423828 .041992189 .30433656 .041992189 .1512909 .041992189 .041259767 .11199951-.0107421879 .1789856-.0107421879 .24398804-.0107421879 .29699708 .043258668 .31298829 .06227112 .32398988 .007247925 .37399293-.0107421879 .4059906-.0107421879 .43499757-.0107421879 .45999146 .002243042 .48199464 .044265748 .5 .07727051 .5139923 .13928223 .5139923 .14329529 .5139923 .14828491 .5109863 .1552887 .5009918 .1552887 .4889984 .1552887 .48799134 .15029907 .48399354 .13128662 .46199037 .044265748 .43998719 .014251709 .40899659 .014251709 .38398744 .014251709 .37799073 .038253786 .37799073 .060272218 .37799073 .073272708 .3829956 .10127258 .38398744 .104278568L.5239868 .6603241M.31698609 .121276859C.31298829 .105285648 .31199647 .103271488 .29599 .08326721 .2599945 .040252687 .21899414 .014251709 .18199158 .014251709 .1329956 .014251709 .115997318 .06526184 .115997318 .10827637 .115997318 .15730286 .14498902 .27233888 .16899109 .32034303 .20098877 .3803711 .24699402 .41737367 .2869873 .41737367 .35398866 .41737367 .36898805 .3363495 .36898805 .3313446 .36898805 .32635499 .36698915 .32034303 .3659973 .3163452L.31698609 .121276859Z"/>
<path id="font_1_85" d="M.34098817-.23803711C.34098817-.23303223 .33799745-.23002625 .33198548-.22303772 .20298767-.105026248 .1639862 .07498169 .1639862 .24998474 .1639862 .40498353 .19400025 .59298709 .33499146 .72698977 .33898927 .73098757 .34098817 .7339783 .34098817 .73898318 .34098817 .74598696 .33599855 .75 .32899476 .75 .31698609 .75 .22698975 .6779785 .17298889 .568985 .125 .47297669 .100997928 .36997987 .100997928 .25097657 .100997928 .17897034 .10998535 .064971927 .16499329-.053024293 .22399903-.17602539 .31698609-.24902344 .32899476-.24902344 .33599855-.24902344 .34098817-.24502564 .34098817-.23803711Z"/>
<path id="font_4_7" d="M.70799258 .3310089C.7220001 .3310089 .7409973 .3310089 .7409973 .35202027 .7409973 .37402345 .71899417 .37402345 .70399478 .37402345H.09399414C.07899475 .37402345 .056991579 .37402345 .056991579 .35202027 .056991579 .3310089 .07699585 .3310089 .08999634 .3310089H.70799258M.70399478 .12695313C.71899417 .12695313 .7409973 .12695313 .7409973 .14894104 .7409973 .1699524 .7220001 .1699524 .70799258 .1699524H.08999634C.07699585 .1699524 .056991579 .1699524 .056991579 .14894104 .056991579 .12695313 .07899475 .12695313 .09399414 .12695313H.70399478Z"/>
<path id="font_4_5" d="M.3039856 .6392822C.3039856 .6642761 .30299378 .666275 .27799989 .666275 .21598816 .60227969 .12399292 .60227969 .09298706 .60227969V.57128909C.11199951 .57128909 .17298889 .57128909 .22698975 .5972748V.08001709C.22698975 .042999269 .22399903 .0309906 .1309967 .0309906H.09899902V0C.1349945 .0029907227 .22399903 .0029907227 .2649994 .0029907227 .30599977 .0029907227 .3959961 .0029907227 .43199159 0V.0309906H.3999939C.30699159 .0309906 .3039856 .042999269 .3039856 .08001709V.6392822Z"/>
<path id="font_1_86" d="M.2979889 .25097657C.2979889 .3329773 .28599549 .4429779 .23399353 .5539856 .1749878 .6769867 .08198547 .75 .069992069 .75 .05999756 .75 .057998659 .74198916 .057998659 .73898318 .057998659 .7339783 .05999756 .73098757 .066986087 .72398379 .125 .6719818 .23498535 .5359802 .23498535 .25097657 .23498535 .10797119 .20899964-.091033939 .06399536-.22602844 .06199646-.22903443 .057998659-.23303223 .057998659-.23803711 .057998659-.24102783 .05999756-.24902344 .069992069-.24902344 .08198547-.24902344 .17199707-.17703247 .22599793-.06802368 .27398683 .02796936 .2979889 .13098145 .2979889 .25097657Z"/>
<path id="font_4_4" d="M.70599368 .22944641C.7200012 .22944641 .7409973 .22944641 .7409973 .25045777 .7409973 .27246095 .7220001 .27246095 .70599368 .27246095H.42099V.5578003C.42099 .573761 .42099 .59277346 .39898683 .59277346 .37799073 .59277346 .37799073 .57177737 .37799073 .5578003V.27246095H.09199524C.07798767 .27246095 .056991579 .27246095 .056991579 .25144959 .056991579 .22944641 .07598877 .22944641 .09199524 .22944641H.37799073V-.056793214C.37799073-.07279968 .37799073-.091796878 .3999939-.091796878 .42099-.091796878 .42099-.07080078 .42099-.056793214V.22944641H.70599368Z"/>
<path id="font_2_3" d="M.272995 .36865235H.3869934C.37199403 .30575563 .34599305 .20193482 .34599305 .11906433 .34599305 .112075809 .34599305 .075149539 .35499574 .03919983 .36499024 .0012512207 .37399293-.0107421879 .3939972-.0107421879 .4149933-.0107421879 .43699647 .007247925 .43699647 .030212403 .43699647 .037200929 .43598939 .04020691 .42999269 .05317688 .39898683 .123062137 .39898683 .19694519 .39898683 .21990967 .39898683 .24485779 .39898683 .28878785 .41600038 .36865235H.5329895C.54599 .36865235 .58299258 .36865235 .58299258 .4046631 .58299258 .43066407 .5609894 .43066407 .5419922 .43066407H.19599915C.17199707 .43066407 .13699341 .43066407 .08999634 .38365174 .06298828 .3566742 .026992798 .30177308 .026992798 .29377748 .026992798 .2828064 .037994386 .2828064 .040985109 .2828064 .04899597 .2828064 .050994874 .28479005 .056991579 .29478456 .10598755 .36865235 .16699219 .36865235 .18699646 .36865235H.24398804C.20098877 .21791077 .13198853 .07614136 .125 .061172487 .117996219 .047195436 .10798645 .026229859 .10798645 .018234253 .10798645 .0052490236 .116989139-.0107421879 .13899231-.0107421879 .1749878-.0107421879 .18399048 .025222779 .20498657 .10609436L.272995 .36865235Z"/>
<path id="font_5_77" d="M.58999636 0V.035995485C.5249939 .035995485 .5149994 .035995485 .5149994 .07904053V.3032837C.5149994 .3903656 .47200013 .44140626 .36499024 .44140626 .2829895 .44140626 .22999573 .39637757 .20199585 .34432984H.20098877V.44140626L.053985597 .43052674V.39453126C.12098694 .39453126 .1289978 .3875122 .1289978 .33843995V.079055789C.1289978 .035995485 .11898804 .035995485 .053985597 .035995485V0C.053985597 0 .12599182 .0039978029 .16799927 .0039978029 .20498657 .0039978029 .27398683 .0009918213 .2829895 0V.035995485C.21798706 .035995485 .20799256 .035995485 .20799256 .079055789V.25932313C.20799256 .36434938 .29100038 .4133911 .35699464 .4133911 .4269867 .4133911 .43598939 .3583374 .43598939 .3072815V.07904053C.43598939 .035995485 .42599488 .035995485 .36099244 .035995485V0C.36099244 0 .43299867 .0039978029 .47499085 .0039978029 .5119934 .0039978029 .58099368 .0009918213 .58999636 0Z"/>
<path id="font_5_81" d="M.5289917 .21325684C.5289917 .3382721 .42199708 .44628907 .28399659 .44628907 .1459961 .44628907 .038986207 .3382721 .038986207 .21325684 .038986207 .0892334 .14898682-.009765625 .28399659-.009765625 .4189911-.009765625 .5289917 .0892334 .5289917 .21325684M.43798829 .22225952C.43798829 .17424011 .43499757 .12124634 .4059906 .08023071 .3789978 .042236329 .33299256 .022232056 .28399659 .022232056 .24699402 .022232056 .19299317 .034225465 .1599884 .083236698 .1329956 .12423706 .12998963 .17625427 .12998963 .22225952 .12998963 .2652588 .1309967 .32426454 .1659851 .36727906 .19099427 .39627076 .23298645 .41827394 .28399659 .41827394 .34298707 .41827394 .3849945 .39027406 .40699769 .3592682 .43499757 .32026673 .43798829 .27026368 .43798829 .22225952Z"/>
<path id="font_5_84" d="M.58399966 .21640015C.58399966 .33940126 .48199464 .44140626 .35499574 .44140626 .2979889 .44140626 .23999024 .4203949 .19898987 .3804016V.44140626L.04899597 .43052674V.39453126C.11898804 .39453126 .12399292 .38952638 .12399292 .34753419V-.11437988C.12399292-.15736389 .11399841-.15736389 .04899597-.15736389V-.19335938C.04899597-.19346619 .12098694-.18945313 .16299439-.18945313 .19999695-.18936157 .2689972-.19236756 .27799989-.19335938V-.15736389C.21299744-.15736389 .20298767-.15736389 .20298767-.114486698V.048233034C.20799256 .04324341 .25498963-.009765625 .33898927-.009765625 .47099305-.009765625 .58399966 .089263919 .58399966 .2163086V.21640015M.49299623 .2163086C.49299623 .102264408 .41799928 .018234253 .33299256 .018234253 .24499512 .018234253 .20599365 .09526062 .20298767 .101257327V.33335877C.23298645 .38339234 .29100038 .4093933 .34399415 .4093933 .42799378 .4093933 .49299623 .32136537 .49299623 .2163086Z"/>
<path id="font_5_63" d="M.58999636 0V.035995485C.5249939 .035995485 .5149994 .035995485 .5149994 .0790863V.3035736C.5149994 .39045716 .47200013 .44140626 .36499024 .44140626 .27598573 .44140626 .22698975 .3884735 .20498657 .35058595H.20399475V.69433596L.053985597 .6826172V.64660647C.12098694 .64660647 .1289978 .6396179 .1289978 .59065249V.07896423C.1289978 .035995485 .11898804 .035995485 .053985597 .035995485V0C.053985597 0 .12599182 .0039978029 .16799927 .0039978029 .20498657 .0039978029 .27398683 .0009918213 .2829895 0V.035995485C.21798706 .035995485 .20799256 .035995485 .20799256 .07904053V.25923158C.20799256 .36434938 .29100038 .4133911 .35699464 .4133911 .4269867 .4133911 .43598939 .3583374 .43598939 .3072815V.07904053C.43598939 .035995485 .42599488 .035995485 .36099244 .035995485V0C.36099244 0 .43299867 .0039978029 .47499085 .0039978029 .5119934 .0039978029 .58099368 .0009918213 .58999636 0Z"/>
<path id="font_5_28" d="M.5439911 .09013367V.14515686H.5099945V.09114075C.5099945 .08113098 .5099945 .033111574 .47299195 .033111574 .43598939 .033111574 .43598939 .0801239 .43598939 .09313965V.268219C.43598939 .3212433 .43598939 .35925294 .3899994 .39627076 .34899903 .4302826 .30099488 .44628907 .24198914 .44628907 .14698792 .44628907 .07998657 .41027833 .07998657 .34925843 .07998657 .31723023 .101989749 .30023194 .12799073 .30023194 .15499878 .30023194 .1749878 .3202362 .1749878 .34724427 .1749878 .3642578 .16699219 .38526917 .13999939 .39326478 .17599488 .41827394 .23399353 .41827394 .23999024 .41827394 .29599 .41827394 .35699464 .38127137 .35699464 .29722596V.2662201C.3019867 .26420594 .23599243 .2612152 .16299439 .23420716 .07299805 .20118714 .04499817 .14616394 .04499817 .101135257 .04499817 .0152282719 .14898682-.009765625 .21998596-.009765625 .2999878-.009765625 .34700013 .035232545 .36799623 .07423401 .37199403 .033111574 .39898683-.0048828127 .44499208-.0048828127 .44499208-.0048828127 .5439911-.0048828127 .5439911 .09010315V.09013367M.35699464 .14111328C.35699464 .04522705 .272995 .018234253 .22799683 .018234253 .1769867 .018234253 .1289978 .052230836 .1289978 .10122681 .1289978 .15621948 .1769867 .23323059 .35699464 .24023438V.14111328Z"/>
<path id="font_5_98" d="M.40699769 .1315155C.40699769 .1694336 .3899994 .1993866 .3639984 .2233429 .32598878 .25827027 .27999879 .2662506 .24499512 .2722473 .16499329 .28622438 .099990848 .29818727 .099990848 .35113526 .099990848 .38320924 .1269989 .422287 .22200012 .422287 .33799745 .422287 .34298707 .34114076 .34498597 .3121643 .34599305 .30119325 .35798646 .30119325 .3619995 .30119325 .3789978 .30119325 .3789978 .30818177 .3789978 .32714845V.42027284C.3789978 .43728639 .3789978 .44628907 .36499024 .44628907 .3600006 .44628907 .35798646 .44628907 .34498597 .4342804 .34298707 .43328858 .33299256 .4242859 .32699586 .419281 .29699708 .4402771 .25898744 .44628907 .22200012 .44628907 .07899475 .44628907 .04499817 .3711853 .04499817 .32115174 .04499817 .2892151 .05899048 .2632599 .08299255 .24330139 .12098694 .21035767 .15899658 .20336914 .22099304 .1933899 .2709961 .18440247 .35198976 .17044068 .35198976 .103515628 .35198976 .06437683 .32499696 .018234253 .22898865 .018234253 .1329956 .018234253 .09799194 .08143616 .07998657 .1494751 .07699585 .16244507 .07598877 .16644287 .06199646 .16644287 .04499817 .16644287 .04499817 .15945435 .04499817 .13949585V.016220093C.04499817-.00077819827 .04499817-.009765625 .05899048-.009765625 .067993167-.009765625 .08699036 .011230469 .10699463 .03327942 .15098572-.0077667238 .20498657-.009765625 .22898865-.009765625 .35899354-.009765625 .40699769 .06036377 .40699769 .1315155Z"/>
<path id="font_5_50" d="M.46798707 .12036133C.46798707 .12435913 .46598817 .13438416 .45098878 .13438416 .43798829 .13438416 .43598939 .12837219 .43299867 .11836243 .4019928 .037246705 .32598878 .022232056 .2899933 .022232056 .24299622 .022232056 .19799805 .043258668 .16799927 .08131409 .1309967 .12837219 .12998963 .18945313 .12998963 .22851563H.43998719C.46099855 .22851563 .46798707 .22851563 .46798707 .25050355 .46798707 .33839417 .4189911 .44628907 .269989 .44628907 .13899231 .44628907 .038986207 .34239198 .038986207 .21949768 .038986207 .092315677 .1499939-.009765625 .2829895-.009765625 .41799928-.009765625 .46798707 .09832764 .46798707 .12036133M.397995 .25450135H.1309967C.14199829 .39530946 .23199463 .41827394 .269989 .41827394 .3929901 .41827394 .39698792 .27947999 .397995 .25450135Z"/>
<path id="font_5_68" d="M.24299622-.04585266V.44140626L.084991458 .43040467V.39439393C.15899658 .39439393 .16799927 .38739015 .16799927 .33836366V-.047851564C.16799927-.08605957 .1599884-.17610169 .09298706-.17610169 .08999634-.17610169 .06599426-.17610169 .042999269-.16609192 .04499817-.1651001 .067993167-.15309143 .067993167-.123046878 .067993167-.09605408 .04798889-.076049808 .020996094-.076049808-.008010864-.076049808-.027008057-.09605408-.027008057-.124053958-.027008057-.17811585 .032989503-.20410156 .09399414-.20410156 .1749878-.20401001 .24299622-.14100647 .24299622-.04600525V-.04585266M.24299622 .60214236C.24299622 .6341553 .21798706 .66015627 .18598938 .66015627 .1519928 .66015627 .1289978 .6321411 .1289978 .6031494 .1289978 .57115176 .1539917 .54515078 .18598938 .54515078 .21998596 .54515078 .24299622 .57315066 .24299622 .60214236Z"/>
<path id="font_5_109" d="M.58999636 0V.035995485C.522995 .035995485 .5149994 .042999269 .5149994 .092056278V.44140626L.36099244 .43052674V.39453126C.42799378 .39439393 .43598939 .3874359 .43598939 .33872987V.16749573C.43598939 .079330448 .3789978 .018234253 .30299378 .018234253 .21199036 .018234253 .20799256 .061309816 .20799256 .11239624V.44140626L.053985597 .43052674V.39453126C.1289978 .39453126 .1289978 .39154054 .1289978 .30273438V.15246582C.1289978 .083343509 .1289978-.009765625 .29599-.009765625 .31799317-.009765625 .3909912-.009765625 .43899537 .07432556H.43998719V-.009765625L.58999636 0Z"/>
<path id="font_5_75" d="M.8969879 0V.035995485C.83200076 .035995485 .82199099 .035995485 .82199099 .07904053V.3032837C.82199099 .3903656 .7789917 .44140626 .6719971 .44140626 .59298709 .44140626 .5389862 .39837647 .5119934 .34832765 .49198915 .41940309 .43798829 .44140626 .36499024 .44140626 .2829895 .44140626 .22999573 .39637757 .20199585 .34432984H.20098877V.44140626L.053985597 .43052674V.39453126C.12098694 .39453126 .1289978 .3875122 .1289978 .33843995V.079055789C.1289978 .035995485 .11898804 .035995485 .053985597 .035995485V0C.053985597 0 .12599182 .0039978029 .16799927 .0039978029 .20498657 .0039978029 .27398683 .0009918213 .2829895 0V.035995485C.21798706 .035995485 .20799256 .035995485 .20799256 .079055789V.25932313C.20799256 .36434938 .29100038 .4133911 .35699464 .4133911 .4269867 .4133911 .43598939 .3583374 .43598939 .3072815V.07904053C.43598939 .035995485 .42599488 .035995485 .36099244 .035995485V0C.36099244 0 .43299867 .0039978029 .47499085 .0039978029 .5119934 .0039978029 .58099368 .0009918213 .58999636 0V.035995485C.5249939 .035995485 .5149994 .035995485 .5149994 .07904053V.25923158C.5149994 .36434938 .59799197 .4133911 .6639862 .4133911 .73399356 .4133911 .7429962 .3583374 .7429962 .3072815V.07904053C.7429962 .035995485 .73298647 .035995485 .66799929 .035995485V0C.66799929 0 .73999026 .0039978029 .7819977 .0039978029 .81900027 .0039978029 .8880005 .0009918213 .8969879 0Z"/>
<path id="font_5_105" d="M.375 .12606812V.1809845H.34098817V.12705994C.34098817 .059173585 .30899049 .022232056 .269989 .022232056 .20098877 .022232056 .20098877 .10609436 .20098877 .124069217V.39465333H.35699464V.43066407H.20098877V.6142578H.16699219C.1659851 .5244446 .125 .42565919 .0289917 .4226532V.39465333H.12199402V.1250763C.12199402 .01322937 .20599365-.009765625 .2619934-.009765625 .32899476-.010009766 .375 .04699707 .375 .12599182V.12606812Z"/>
<path id="font_6_1" d="M.46499635-.060012819C.46499635-.12535095 .47799684-.19433594 .55999758-.19433594 .68099978-.19433594 .7389984-.021560669 .7389984 .00045776368 .7389984 .007461548 .73298647 .014465332 .72499087 .014465332 .71499636 .014465332 .71199038 .0054626467 .71099856 .0014648438 .68699648-.069107059 .62098696-.08934021 .58699038-.08934021 .5469971-.08934021 .526001-.072143558 .5079956 .008468628 .6859894 .07141113 .82899478 .24832154 .82899478 .42523194 .82899478 .5821686 .71598818 .703125 .5389862 .703125 .2999878 .703125 .068984989 .47920228 .068984989 .25431825 .068984989 .09338379 .18798828-.01953125 .3600006-.01953125 .3789978-.01953125 .41299439-.018539429 .46499635-.0055389406V-.060012819M.2919922 .02545166C.23999024 .043426515 .1659851 .09538269 .1659851 .22932434 .1659851 .29328919 .18699646 .426239 .27799989 .5391846 .34098817 .6161499 .43798829 .67111209 .5309906 .67111209 .6399994 .67111209 .7319946 .5981598 .7319946 .45222474 .7319946 .3522644 .68299868 .13735962 .5 .046432496 .48399354 .109375 .45799256 .15136719 .39898683 .15136719 .34298707 .15136719 .28799439 .10437012 .28799439 .05142212 .28799439 .033447267 .2889862 .032440187 .2919922 .02545166M.46499635 .030441285C.44299317 .022445679 .4059906 .012466431 .36698915 .012466431 .35099793 .012466431 .31599427 .012466431 .31599427 .05142212 .31599427 .08938599 .35699464 .12335205 .39898683 .12335205 .43499757 .12335205 .46199037 .1073761 .46499635 .030441285Z"/>
<path id="font_4_1" d="M.45700074 .69281008C.44799806 .7108154 .44299317 .7158203 .4269867 .7158203 .41299439 .7158203 .40699769 .7108154 .3999939 .69680789L.054992677 .023986817C.050994874 .015991211 .04899597 .010986328 .04899597 .008987427 .04899597 0 .055999757 0 .07199097 0H.7829895C.798996 0 .80599978 0 .80599978 .008987427 .80599978 .009994507 .80599978 .011993408 .8009949 .021987915L.45700074 .69281008M.3939972 .61683657 .6719971 .07699585H.116989139L.3939972 .61683657Z"/>
<path id="font_4_6" d="M.46199037 .17704773H.43399049C.43199159 .16404724 .42399598 .10501099 .41099549 .08900452 .40499879 .07998657 .33599855 .07998657 .31599427 .07998657H.13798523L.23699951 .17404175C.40098573 .3161316 .46199037 .36915589 .46199037 .4711914 .46199037 .5860901 .36698915 .6660156 .24398804 .6660156 .1289978 .6660156 .050994874 .575119 .050994874 .4841919 .050994874 .43418885 .09399414 .42919923 .102996829 .42919923 .125 .42919923 .15499878 .44519044 .15499878 .48120118 .15499878 .51119998 .13398743 .5332031 .102996829 .5332031 .09799194 .5332031 .09498596 .5332031 .09098816 .53219607 .114990238 .6030731 .1789856 .63500979 .23298645 .63500979 .33499146 .63500979 .36999513 .5401764 .36999513 .4711914 .36999513 .36915589 .29299928 .28611756 .24499512 .23408509L.06199646 .035995485C.050994874 .024993897 .050994874 .022994996 .050994874 0H.43399049L.46199037 .17704773Z"/>
<path id="font_4_8" d="M.3639984 .39356996C.34298707 .3895874 .32299806 .3755951 .32299806 .34658814 .32299806 .32058717 .34298707 .30059815 .36898805 .30059815 .394989 .30059815 .41600038 .31759645 .41600038 .34858705 .41600038 .4103546 .34599305 .4482422 .2579956 .4482422 .12998963 .4482422 .033996583 .3415985 .033996583 .2164917 .033996583 .08734131 .13798523-.0107421879 .2559967-.0107421879 .394989-.0107421879 .4269867 .11036682 .4269867 .11936951 .4269867 .13139344 .41600038 .13139344 .41299439 .13139344 .4019928 .13139344 .4019928 .12937927 .3959961 .11236572 .37298585 .043289186 .31698609 .01725769 .2659912 .01725769 .20199585 .01725769 .11999512 .06932068 .11999512 .21749878 .11999512 .3735962 .19999695 .42022706 .2599945 .42022706 .272995 .42022706 .32699586 .41825868 .3639984 .39356996Z"/>
<path id="font_4_9" d="M.48399354 .21324158C.48399354 .34423829 .37998963 .4482422 .25698854 .4482422 .12998963 .4482422 .0289917 .3412323 .0289917 .21324158 .0289917 .08824158 .1329956-.0107421879 .2559967-.0107421879 .3829956-.0107421879 .48399354 .09024048 .48399354 .21324158M.25698854 .01725769C.20698548 .01725769 .16499329 .042251588 .14199829 .08125305 .115997318 .12324524 .114990238 .17623902 .114990238 .22224427 .114990238 .25924684 .114990238 .3162384 .13999939 .35723878 .16999817 .40823365 .21998596 .42323304 .2559967 .42323304 .31298829 .42323304 .35398866 .39123536 .37399293 .35723878 .39698792 .31523133 .397995 .26423646 .397995 .22224427 .397995 .1852417 .397995 .12724304 .37298585 .08325195 .34498597 .037246705 .29899598 .01725769 .25698854 .01725769Z"/>
<path id="font_4_10" d="M.34399415 .42222596C.34399415 .4392395 .34399415 .4482422 .33198548 .4482422 .32699586 .4482422 .32499696 .4482422 .31199647 .43623353 .30999757 .43423463 .30099488 .42523194 .29499818 .42022706 .2639923 .44223023 .23298645 .4482422 .19898987 .4482422 .066986087 .4482422 .033996583 .37522889 .033996583 .324234 .033996583 .29223634 .04798889 .26623536 .070999149 .24424744 .10499573 .21324158 .14299011 .2062378 .19400025 .1972351 .24499512 .1872406 .2619934 .18424988 .28399659 .16723633 .2939911 .15924073 .31900025 .14024353 .31900025 .102249149 .31900025 .014251709 .21798706 .014251709 .20399475 .014251709 .101989749 .014251709 .07598877 .099243167 .06399536 .15324402 .06098938 .16323853 .05999756 .16925049 .04798889 .16925049 .033996583 .16925049 .033996583 .16123963 .033996583 .14324951V.01524353C.033996583-.0017547608 .033996583-.0107421879 .04598999-.0107421879 .051986696-.0107421879 .052993776-.009750366 .070999149 .009246826 .07499695 .01524353 .085998538 .028244019 .09098816 .0332489 .1329956-.007751465 .1789856-.0107421879 .20399475-.0107421879 .32699586-.0107421879 .36999513 .06124878 .36999513 .12825012 .36999513 .17324829 .34999085 .20024109 .32798768 .22323609 .2939911 .25624085 .2579956 .26324464 .18399048 .27723695 .1579895 .28224183 .084991458 .2952423 .084991458 .3522339 .084991458 .38423158 .10798645 .426239 .19898987 .426239 .30699159 .426239 .31399537 .3432312 .31599427 .3182373 .31698609 .3062439 .31698609 .30023194 .32998658 .30023194 .34399415 .30023194 .34399415 .30723573 .34399415 .3262329V.42222596Z"/>
<path id="font_1_81" d="M.48399354 .21324158C.48399354 .34423829 .37998963 .4482422 .25698854 .4482422 .12998963 .4482422 .0289917 .3412323 .0289917 .21324158 .0289917 .08824158 .1329956-.0107421879 .2559967-.0107421879 .3829956-.0107421879 .48399354 .09024048 .48399354 .21324158M.397995 .22224427C.397995 .1852417 .397995 .12724304 .37298585 .08325195 .34498597 .037246705 .29899598 .01725769 .25698854 .01725769 .20698548 .01725769 .16499329 .042251588 .14199829 .08125305 .115997318 .12324524 .114990238 .17623902 .114990238 .22224427 .114990238 .25924684 .114990238 .3162384 .13999939 .35723878 .16999817 .40823365 .21998596 .42323304 .2559967 .42323304 .31298829 .42323304 .35398866 .39123536 .37399293 .35723878 .39698792 .31523133 .397995 .26423646 .397995 .22224427Z"/>
<path id="font_1_98" d="M.36999513 .12831116C.36999513 .17330933 .34999085 .20030213 .32798768 .22329712 .2939911 .25628663 .2579956 .26327516 .18399048 .2772827 .1579895 .28227235 .084991458 .29527284 .084991458 .35224916 .084991458 .38424684 .10798645 .426239 .19898987 .426239 .30699159 .426239 .31399537 .34326173 .31599427 .31826783 .31698609 .3062744 .31698609 .3002777 .32998658 .3002777 .34399415 .3002777 .34399415 .30726625 .34399415 .32626344V.4222412C.34399415 .4392395 .34399415 .4482422 .33198548 .4482422 .32699586 .4482422 .32499696 .4482422 .31199647 .43623353 .30999757 .43423463 .30099488 .42523194 .29499818 .4202423 .2639923 .44223023 .23298645 .4482422 .19898987 .4482422 .066986087 .4482422 .033996583 .37524415 .033996583 .32426454 .033996583 .29226686 .04798889 .26628114 .070999149 .24429322 .10499573 .21330261 .14299011 .20629883 .19400025 .19729615 .24499512 .18730164 .2619934 .18431092 .28399659 .16731262 .2939911 .15931702 .31900025 .14031983 .31900025 .10229492 .31900025 .014251709 .21798706 .014251709 .20399475 .014251709 .101989749 .014251709 .07598877 .0993042 .06399536 .15332031 .06098938 .16331482 .05999756 .16931153 .04798889 .16931153 .033996583 .16931153 .033996583 .16131592 .033996583 .14331055V.01524353C.033996583-.0017547608 .033996583-.0107421879 .04598999-.0107421879 .051986696-.0107421879 .052993776-.009750366 .070999149 .009246826 .07499695 .01524353 .085998538 .028259278 .09098816 .03326416 .1329956-.007751465 .1789856-.0107421879 .20399475-.0107421879 .32699586-.0107421879 .36999513 .061279298 .36999513 .12831116Z"/>
<path id="font_1_109" d="M.5469971 .00024414063V.03125C.47898866 .03125 .46998597 .038253786 .46998597 .087265018V.4423828L.31900025 .43138124V.40037538C.3869934 .40037538 .3959961 .39337159 .3959961 .34436036V.16729737C.3959961 .07826233 .34599305 .014251709 .27398683 .014251709 .19099427 .014251709 .18598938 .057266237 .18598938 .11128235V.4423828L.034988405 .43138124V.40037538C.11199951 .40037538 .11199951 .39736939 .11199951 .3083496V.15829468C.11199951 .09327698 .11199951 .051254274 .1579895 .01625061 .18699646-.003753662 .22799683-.0107421879 .2679901-.0107421879 .31999208-.0107421879 .36898805 .012252808 .397995 .072265628H.39898683V-.0107421879L.5469971 .00024414063Z"/>
<path id="font_1_44" d="M.19599915 .3766632C.19599915 .406662 .17199707 .43066407 .14199829 .43066407 .11199951 .43066407 .08799744 .406662 .08799744 .3766632 .08799744 .34765626 .11199951 .32266236 .14199829 .32266236 .17199707 .32266236 .19599915 .34765626 .19599915 .3766632M.19599915 .053985597C.19599915 .08299255 .17199707 .10798645 .14199829 .10798645 .11199951 .10798645 .08799744 .08299255 .08799744 .053985597 .08799744 .023986817 .11199951 0 .14199829 0 .17199707 0 .19599915 .023986817 .19599915 .053985597Z"/>
<path id="font_4_2" d="M.34098817-.23803711C.34098817-.23303223 .33799745-.23002625 .33198548-.22303772 .20298767-.105026248 .1639862 .07498169 .1639862 .24996948 .1639862 .40498353 .19400025 .59298709 .33499146 .72698977 .33898927 .73098757 .34098817 .73399356 .34098817 .7389984 .34098817 .74598696 .33599855 .75 .32899476 .75 .31698609 .75 .22698975 .6779785 .17298889 .568985 .125 .47297669 .100997928 .36997987 .100997928 .25097657 .100997928 .17897034 .10998535 .064971927 .16499329-.053024293 .22399903-.17602539 .31698609-.24902344 .32899476-.24902344 .33599855-.24902344 .34098817-.24502564 .34098817-.23803711Z"/>
<path id="font_2_10" d="M.18899536 .15730286C.19999695 .20431519 .21899414 .2773285 .21998596 .28533937 .22200012 .29133607 .24699402 .33935548 .2829895 .37435914 .31199647 .4013672 .34999085 .41737367 .3889923 .41737367 .44299317 .41737367 .44299317 .36436463 .44299317 .34735108 .44299317 .33535768 .44299317 .3213501 .43099977 .27233888L.4079895 .18330384C.37599183 .054260255 .36799623 .023254395 .36799623 .018249512 .36799623 .0052490236 .3769989-.0107421879 .39898683-.0107421879 .41299439-.0107421879 .42799378-.0017547608 .43499757 .010253906 .43798829 .01625061 .44599916 .04826355 .45098878 .06826782L.47399903 .15730286C.4850006 .20431519 .5039978 .2773285 .5049896 .28533937 .5069885 .29133607 .5319977 .33935548 .56799319 .37435914 .5970001 .4013672 .6349945 .41737367 .673996 .41737367 .7279968 .41737367 .7279968 .36436463 .7279968 .34735108 .7279968 .28633119 .68099978 .16429138 .66999819 .13328552 .6579895 .10227966 .6539917 .0922699 .6539917 .073272708 .6539917 .019256592 .69499209-.0107421879 .73999026-.0107421879 .83599856-.0107421879 .875 .1322937 .875 .14329529 .875 .14828491 .871994 .1552887 .8619995 .1552887 .8509979 .1552887 .84999087 .15029907 .84599307 .13728333 .82099917 .052261354 .7789917 .014251709 .7429962 .014251709 .73599246 .014251709 .71798709 .014251709 .71798709 .04626465 .71798709 .0712738 .7279968 .09727478 .73599246 .119277957 .7559967 .17030335 .79599 .27633668 .79599 .33235169 .79599 .42137147 .7299957 .4423828 .6769867 .4423828 .58200076 .4423828 .5299988 .3713684 .5119934 .34635926 .5019989 .42938233 .43399049 .4423828 .3919983 .4423828 .29899598 .4423828 .25 .37635804 .23399353 .35536195 .22799683 .40937806 .18699646 .4423828 .13699341 .4423828 .09498596 .4423828 .07398987 .41137696 .05999756 .3843689 .042999269 .34934999 .0289917 .29234315 .0289917 .28833009 .0289917 .2793274 .035995485 .27633668 .042999269 .27633668 .053985597 .27633668 .055999757 .28134156 .06098938 .30134584 .07998657 .3803711 .100997928 .41737367 .1349945 .41737367 .16499329 .41737367 .16499329 .38536073 .16499329 .37036134 .16499329 .34934999 .15699768 .31834413 .15098572 .29234315 .14399719 .2663269 .13398743 .22331238 .12998963 .21131897L.08999634 .04725647C.08299255 .023254395 .08299255 .021255494 .08299255 .018249512 .08299255 .0052490236 .09199524-.0107421879 .11399841-.0107421879 .12799073-.0107421879 .14299011-.0017547608 .1499939 .010253906 .15299988 .01625061 .16099549 .04826355 .1659851 .06826782L.18899536 .15730286Z"/>
<path id="font_7_1" d="M.35899354 .6349335C.35899354 .66503909 .35499574 .66503909 .32499696 .66503909 .25898744 .60058596 .15699768 .60058596 .12098694 .60058596V.5615845C.14698792 .5615845 .21299744 .5615845 .272995 .58958438V.08496094C.272995 .051986696 .272995 .038986207 .16999817 .038986207H.1269989V0C.18199158 .0039978029 .2599945 .0039978029 .31599427 .0039978029 .37199403 .0039978029 .44999696 .0039978029 .5049896 0V.038986207H.46199037C.35899354 .038986207 .35899354 .051986696 .35899354 .08496094V.6349335Z"/>
<path id="font_7_2" d="M.5379944 .18702698H.5009918C.49899293 .17301941 .4889984 .10699463 .47399903 .09599304 .46699525 .08999634 .38598634 .08999634 .37199403 .08999634H.18499756L.31298829 .19403076C.34700013 .22103882 .43598939 .28504945 .46699525 .31506349 .49699403 .3450775 .5379944 .39608766 .5379944 .46710206 .5379944 .5920563 .4249878 .66503909 .29100038 .66503909 .1619873 .66503909 .07199097 .58006289 .07199097 .48609925 .07199097 .43510438 .114990238 .42910768 .12599182 .42910768 .15098572 .42910768 .17999268 .44709779 .17999268 .48310853 .17999268 .50509646 .16699219 .5371094 .12298584 .5371094 .1459961 .5880585 .20698548 .6260376 .27598573 .6260376 .3809967 .6260376 .43699647 .5480957 .43699647 .46710206 .43699647 .39608766 .3899994 .32305909 .31999208 .25904847L.08299255 .041992189C.07299805 .03199768 .07199097 .0309906 .07199097 0H.5069885L.5379944 .18702698Z"/>
<path id="font_4_3" d="M.2979889 .25097657C.2979889 .3329773 .28599549 .4429779 .23399353 .5539856 .1749878 .6769867 .08198547 .75 .069992069 .75 .05999756 .75 .057998659 .74198916 .057998659 .7389984 .057998659 .73399356 .05999756 .73098757 .066986087 .72398379 .125 .6719818 .23498535 .5359802 .23498535 .25097657 .23498535 .10797119 .20899964-.091033939 .06399536-.22602844 .06199646-.22903443 .057998659-.23303223 .057998659-.23803711 .057998659-.24102783 .05999756-.24902344 .069992069-.24902344 .08198547-.24902344 .17199707-.17703247 .22599793-.06802368 .27398683 .02796936 .2979889 .13098145 .2979889 .25097657Z"/>
<path id="font_2_2" d="M.3659973 .28930665C.42399598 .14030457 .46199037 .028305054 .47099305 .015304565 .4909973-.010696411 .49899293-.010696411 .5289917-.010696411H.5519867C.5589905-.00970459 .56399539-.0066986086 .56399539 .000289917 .56399539 .0052948 .56199648 .007293701 .55799868 .011291504 .54599 .024291993 .54100039 .03729248 .5349884 .05430603L.32199098 .6263275C.29899598 .68733218 .23298645 .69433596 .19699097 .69433596 .18798828 .69433596 .1749878 .69433596 .1749878 .68133547 .1749878 .6713257 .18299866 .67033389 .19400025 .6693268 .22399903 .6643219 .23599243 .636322 .25099183 .59931948L.35398866 .3223114 .07199097 .05029297C.06199646 .040298463 .053985597 .033294679 .053985597 .018295289 .053985597-.0027008057 .07199097-.0126953129 .085998538-.0126953129 .102996829-.0126953129 .114990238 .0023040772 .11898804 .00630188L.3659973 .28930665Z"/>
</defs>
<path transform="matrix(1,0,0,-1,179.25099,92.88675)" d="M-164.41156 0V-56.69362H170.08086V0ZM170.08086-56.69362" fill="#cfe4f0"/>
<path transform="matrix(1,0,0,-1,179.25099,92.88675)" stroke-width="1.19553" stroke-linecap="butt" stroke-miterlimit="10" stroke-linejoin="miter" fill="none" stroke="#4c4d4c" d="M-164.41156 0H170.08086"/>
<path transform="matrix(1,0,0,-1,179.25099,92.88675)" stroke-width="1.19553" stroke-linecap="butt" stroke-miterlimit="10" stroke-linejoin="miter" fill="none" stroke="#4c4d4c" d="M-164.41156-56.69362H170.08086"/>
<path transform="matrix(1,0,0,-1,179.25099,92.88675)" stroke-width=".59776" stroke-linecap="butt" stroke-dasharray="2.98883,1.99255" stroke-miterlimit="10" stroke-linejoin="miter" fill="none" stroke="#737373" d="M-42.5202 31.18166V-17.00824"/>
<path transform="matrix(1,0,0,-1,179.25099,92.88675)" stroke-width=".59776" stroke-linecap="butt" stroke-dasharray="2.98883,1.99255" stroke-miterlimit="10" stroke-linejoin="miter" fill="none" stroke="#737373" d="M-2.83484-39.68536V-87.87527"/>
<path transform="matrix(1,0,0,-1,179.25099,92.88675)" stroke-width=".59776" stroke-linecap="butt" stroke-dasharray="2.98883,1.99255" stroke-miterlimit="10" stroke-linejoin="miter" fill="none" stroke="#737373" d="M36.8505 31.18166V-17.00824"/>
<path transform="matrix(1,0,0,-1,179.25099,92.88675)" stroke-width="1.39478" stroke-linecap="butt" stroke-miterlimit="10" stroke-linejoin="miter" fill="none" stroke="#d4a017" d="M-123.59209 68.03217-46.47739 3.32079"/>
<path transform="matrix(.76599,.6428,.6428,-.76599,130.2168,87.420299)" d="M6.51785 0 2.25212 1.62248 3.68661 0 2.25212-1.62248Z" fill="#d4a017"/>
<path transform="matrix(.76599,.6428,.6428,-.76599,130.2168,87.420299)" stroke-width="1.39478" stroke-linecap="butt" stroke-miterlimit="10" stroke-linejoin="miter" fill="none" stroke="#d4a017" d="M6.51785 0 2.25212 1.62248 3.68661 0 2.25212-1.62248Z"/>
<use data-text="i" xlink:href="#font_1_66" transform="matrix(8.966376,0,0,-8.966376,33.984437,20.829974)" fill="#aa8012"/>
<use data-text="n" xlink:href="#font_1_77" transform="matrix(8.966376,0,0,-8.966376,36.54882,20.829974)" fill="#aa8012"/>
<use data-text="c" xlink:href="#font_1_43" transform="matrix(8.966376,0,0,-8.966376,41.668626,20.829974)" fill="#aa8012"/>
<use data-text="i" xlink:href="#font_1_66" transform="matrix(8.966376,0,0,-8.966376,45.76626,20.829974)" fill="#aa8012"/>
<use data-text="d" xlink:href="#font_1_47" transform="matrix(8.966376,0,0,-8.966376,48.330644,20.829974)" fill="#aa8012"/>
<use data-text="e" xlink:href="#font_1_50" transform="matrix(8.966376,0,0,-8.966376,53.450448,20.829974)" fill="#aa8012"/>
<use data-text="n" xlink:href="#font_1_77" transform="matrix(8.966376,0,0,-8.966376,57.54808,20.829974)" fill="#aa8012"/>
<use data-text="t" xlink:href="#font_1_105" transform="matrix(8.966376,0,0,-8.966376,62.416826,20.829974)" fill="#aa8012"/>
<path transform="matrix(1,0,0,-1,179.25099,92.88675)" stroke-width="1.39478" stroke-linecap="butt" stroke-miterlimit="10" stroke-linejoin="miter" fill="none" stroke="#c0392b" d="M-42.5202 0 34.5945 64.71136"/>
<path transform="matrix(.76599,-.6428,-.6428,-.76599,211.28867,30.321049)" d="M6.51785 0 2.25212 1.62248 3.68661 0 2.25212-1.62248Z" fill="#c0392b"/>
<path transform="matrix(.76599,-.6428,-.6428,-.76599,211.28867,30.321049)" stroke-width="1.39478" stroke-linecap="butt" stroke-miterlimit="10" stroke-linejoin="miter" fill="none" stroke="#c0392b" d="M6.51785 0 2.25212 1.62248 3.68661 0 2.25212-1.62248Z"/>
<use data-text="A" xlink:href="#font_2_4" transform="matrix(8.966376,0,0,-8.966376,215.76499,19.414004)" fill="#c0392b"/>
<path transform="matrix(1,0,0,-1,179.25099,92.88675)" stroke-width="1.19553" stroke-linecap="butt" stroke-miterlimit="10" stroke-linejoin="miter" fill="none" stroke="#2b6cb0" d="M-42.5202 0-2.83484-56.69362"/>
<path transform="matrix(1,0,0,-1,179.25099,92.88675)" stroke-width="1.19553" stroke-linecap="butt" stroke-miterlimit="10" stroke-linejoin="miter" fill="none" stroke="#2b6cb0" d="M-2.83484-56.69362 36.8505 0"/>
<path transform="matrix(1,0,0,-1,179.25099,92.88675)" stroke-width="1.39478" stroke-linecap="butt" stroke-miterlimit="10" stroke-linejoin="miter" fill="none" stroke="#2b6cb0" d="M36.8505 0 113.96521 64.71136"/>
<path transform="matrix(.76599,-.6428,-.6428,-.76599,290.65937,30.321049)" d="M6.51785 0 2.25212 1.62248 3.68661 0 2.25212-1.62248Z" fill="#2b6cb0"/>
<path transform="matrix(.76599,-.6428,-.6428,-.76599,290.65937,30.321049)" stroke-width="1.39478" stroke-linecap="butt" stroke-miterlimit="10" stroke-linejoin="miter" fill="none" stroke="#2b6cb0" d="M6.51785 0 2.25212 1.62248 3.68661 0 2.25212-1.62248Z"/>
<use data-text="B" xlink:href="#font_2_5" transform="matrix(8.966376,0,0,-8.966376,294.88093,19.414004)" fill="#2b6cb0"/>
<path transform="matrix(1,0,0,-1,179.25099,92.88675)" stroke-width=".59776" stroke-linecap="butt" stroke-miterlimit="10" stroke-linejoin="miter" fill="none" stroke="#4c4d4c" d="M-42.5202 24.09494C-48.18437 24.09494-53.66948 22.09816-58.00824 18.45761"/>
<use data-text="&#x03b8;" xlink:href="#font_2_1" transform="matrix(8.966376,0,0,-8.966376,120.237079,68.57262)" fill="#333333"/>
<use data-text="i" xlink:href="#font_3_1" transform="matrix(5.977584,0,0,-5.977584,124.550739,69.56887)" fill="#333333"/>
<path transform="matrix(1,0,0,-1,179.25099,92.88675)" stroke-width=".59776" stroke-linecap="butt" stroke-miterlimit="10" stroke-linejoin="miter" fill="none" stroke="#4c4d4c" d="M-42.5202 24.09494C-36.85603 24.09494-31.37091 22.09816-27.03217 18.45761"/>
<use data-text="&#x03b8;" xlink:href="#font_2_1" transform="matrix(8.966376,0,0,-8.966376,147.16643,68.57262)" fill="#333333"/>
<use data-text="i" xlink:href="#font_3_1" transform="matrix(5.977584,0,0,-5.977584,151.4801,69.56887)" fill="#333333"/>
<path transform="matrix(1,0,0,-1,179.25099,92.88675)" stroke-width=".59776" stroke-linecap="butt" stroke-miterlimit="10" stroke-linejoin="miter" fill="none" stroke="#4c4d4c" d="M-42.5202-15.59082C-39.3212-15.59082-36.19807-14.6059-33.57765-12.77126"/>
<use data-text="&#x03b8;" xlink:href="#font_2_1" transform="matrix(8.966376,0,0,-8.966376,141.97083,117.61246)" fill="#333333"/>
<use data-text="t" xlink:href="#font_3_2" transform="matrix(5.977584,0,0,-5.977584,146.28449,118.60871)" fill="#333333"/>
<path transform="matrix(1,0,0,-1,179.25099,92.88675)" stroke-width=".59776" stroke-linecap="butt" stroke-miterlimit="10" stroke-linejoin="miter" fill="none" stroke="#4c4d4c" d="M-2.83484-42.52022C-5.743-42.52022-8.5822-43.41559-10.96439-45.08344"/>
<use data-text="&#x03b8;" xlink:href="#font_2_1" transform="matrix(8.966376,0,0,-8.966376,162.66345,135.75441)" fill="#333333"/>
<use data-text="t" xlink:href="#font_3_2" transform="matrix(5.977584,0,0,-5.977584,166.97711,136.75066)" fill="#333333"/>
<path transform="matrix(1,0,0,-1,179.25099,92.88675)" stroke-width=".59776" stroke-linecap="butt" stroke-miterlimit="10" stroke-linejoin="miter" fill="none" stroke="#4c4d4c" d="M-2.83484-42.52022C.0733-42.52022 2.91249-43.41559 5.2947-45.08344"/>
<use data-text="&#x03b8;" xlink:href="#font_2_1" transform="matrix(8.966376,0,0,-8.966376,183.35692,135.75441)" fill="#333333"/>
<use data-text="t" xlink:href="#font_3_2" transform="matrix(5.977584,0,0,-5.977584,187.6706,136.75066)" fill="#333333"/>
<use data-text="P" xlink:href="#font_2_6" transform="matrix(8.966376,0,0,-8.966376,124.94418,88.26396)"/>
<use data-text="Q" xlink:href="#font_2_7" transform="matrix(8.966376,0,0,-8.966376,172.78199,161.6183)"/>
<use data-text="R" xlink:href="#font_2_8" transform="matrix(8.966376,0,0,-8.966376,220.72429,88.26396)"/>
<use data-text="r" xlink:href="#font_1_96" transform="matrix(8.966376,0,0,-8.966376,13.281036,124.34494)" fill="#333333"/>
<use data-text="e" xlink:href="#font_1_50" transform="matrix(8.966376,0,0,-8.966376,16.88552,124.34494)" fill="#333333"/>
<use data-text="f" xlink:href="#font_1_55" transform="matrix(8.966376,0,0,-8.966376,20.983155,124.34494)" fill="#333333"/>
<use data-text="r" xlink:href="#font_1_96" transform="matrix(8.966376,0,0,-8.966376,23.7986,124.34494)" fill="#333333"/>
<use data-text="a" xlink:href="#font_1_28" transform="matrix(8.966376,0,0,-8.966376,27.403084,124.34494)" fill="#333333"/>
<use data-text="c" xlink:href="#font_1_43" transform="matrix(8.966376,0,0,-8.966376,32.011804,124.34494)" fill="#333333"/>
<use data-text="t" xlink:href="#font_1_105" transform="matrix(8.966376,0,0,-8.966376,36.109437,124.34494)" fill="#333333"/>
<use data-text="i" xlink:href="#font_1_66" transform="matrix(8.966376,0,0,-8.966376,39.695985,124.34494)" fill="#333333"/>
<use data-text="v" xlink:href="#font_1_112" transform="matrix(8.966376,0,0,-8.966376,42.26036,124.34494)" fill="#333333"/>
<use data-text="e" xlink:href="#font_1_50" transform="matrix(8.966376,0,0,-8.966376,46.86908,124.34494)" fill="#333333"/>
<use data-text="i" xlink:href="#font_1_66" transform="matrix(8.966376,0,0,-8.966376,54.03322,124.34494)" fill="#333333"/>
<use data-text="n" xlink:href="#font_1_77" transform="matrix(8.966376,0,0,-8.966376,56.597597,124.34494)" fill="#333333"/>
<use data-text="d" xlink:href="#font_1_47" transform="matrix(8.966376,0,0,-8.966376,61.717393,124.34494)" fill="#333333"/>
<use data-text="e" xlink:href="#font_1_50" transform="matrix(8.966376,0,0,-8.966376,66.83719,124.34494)" fill="#333333"/>
<use data-text="x" xlink:href="#font_1_116" transform="matrix(8.966376,0,0,-8.966376,70.93483,124.34494)" fill="#333333"/>
<use data-text="n" xlink:href="#font_2_11" transform="matrix(8.966376,0,0,-8.966376,78.8701,124.34494)" fill="#333333"/>
<path transform="matrix(1,0,0,-1,179.25099,92.88675)" stroke-width=".69739" stroke-linecap="butt" stroke-miterlimit="10" stroke-linejoin="miter" fill="none" stroke="#000000" d="M168.66344 0C167.169-.74718 166.17275-2.49069 166.17275-4.98138V-23.36542C166.17275-25.85611 165.17649-27.59962 163.68206-28.3468 165.17649-29.09398 166.17275-30.8375 166.17275-33.32819V-51.71223C166.17275-54.20293 167.169-55.94644 168.66344-56.69362"/>
<use data-text="d" xlink:href="#font_2_9" transform="matrix(8.966376,0,0,-8.966376,365.45259,124.346927)"/>
<use data-text="a" xlink:href="#font_1_28" transform="matrix(8.966376,0,0,-8.966376,27.11522,49.777826)" fill="#666666"/>
<use data-text="i" xlink:href="#font_1_66" transform="matrix(8.966376,0,0,-8.966376,31.723938,49.777826)" fill="#666666"/>
<use data-text="r" xlink:href="#font_1_96" transform="matrix(8.966376,0,0,-8.966376,34.288324,49.777826)" fill="#666666"/>
<use data-text="(" xlink:href="#font_1_85" transform="matrix(8.966376,0,0,-8.966376,40.968278,49.777826)" fill="#666666"/>
<use data-text="n" xlink:href="#font_2_11" transform="matrix(8.966376,0,0,-8.966376,44.554826,49.777826)" fill="#666666"/>
<use data-text="=" xlink:href="#font_4_7" transform="matrix(8.966376,0,0,-8.966376,52.673646,49.777826)" fill="#666666"/>
<use data-text="1" xlink:href="#font_4_5" transform="matrix(8.966376,0,0,-8.966376,62.393205,49.777826)" fill="#666666"/>
<use data-text=")" xlink:href="#font_1_86" transform="matrix(8.966376,0,0,-8.966376,67.00868,49.777826)" fill="#666666"/>
<use data-text="a" xlink:href="#font_1_28" transform="matrix(8.966376,0,0,-8.966376,27.11522,165.99988)" fill="#666666"/>
<use data-text="i" xlink:href="#font_1_66" transform="matrix(8.966376,0,0,-8.966376,31.723938,165.99988)" fill="#666666"/>
<use data-text="r" xlink:href="#font_1_96" transform="matrix(8.966376,0,0,-8.966376,34.288324,165.99988)" fill="#666666"/>
<use data-text="(" xlink:href="#font_1_85" transform="matrix(8.966376,0,0,-8.966376,40.968278,165.99988)" fill="#666666"/>
<use data-text="n" xlink:href="#font_2_11" transform="matrix(8.966376,0,0,-8.966376,44.554826,165.99988)" fill="#666666"/>
<use data-text="=" xlink:href="#font_4_7" transform="matrix(8.966376,0,0,-8.966376,52.673646,165.99988)" fill="#666666"/>
<use data-text="1" xlink:href="#font_4_5" transform="matrix(8.966376,0,0,-8.966376,62.393205,165.99988)" fill="#666666"/>
<use data-text=")" xlink:href="#font_1_86" transform="matrix(8.966376,0,0,-8.966376,67.00868,165.99988)" fill="#666666"/>
<path transform="matrix(1,0,0,-1,179.25099,92.88675)" stroke-width=".89664" stroke-linecap="butt" stroke-miterlimit="10" stroke-linejoin="miter" fill="none" stroke="#c0392b" d="M-46.77203 4.25183C-46.77203 7.6961-43.97998 10.48816-40.53572 10.48816-37.09145 10.48816-34.2994 7.6961-34.2994 4.25183"/>
<use data-text="+" xlink:href="#font_4_4" transform="matrix(8.966376,0,0,-8.966376,130.34897,77.55351)" fill="#c0392b"/>
<use data-text="&#x03c0;" xlink:href="#font_2_3" transform="matrix(8.966376,0,0,-8.966376,137.5165,77.55351)" fill="#c0392b"/>
<use data-text="n" xlink:href="#font_5_77" transform="matrix(6.973848,0,0,-6.973848,198.00458,159.56182)" fill="#1a416a"/>
<use data-text="o" xlink:href="#font_5_81" transform="matrix(6.973848,0,0,-6.973848,202.40508,159.56182)" fill="#1a416a"/>
<use data-text="p" xlink:href="#font_5_84" transform="matrix(6.973848,0,0,-6.973848,209.05812,159.56182)" fill="#1a416a"/>
<use data-text="h" xlink:href="#font_5_63" transform="matrix(6.973848,0,0,-6.973848,213.45862,159.56182)" fill="#1a416a"/>
<use data-text="a" xlink:href="#font_5_28" transform="matrix(6.973848,0,0,-6.973848,217.85912,159.56182)" fill="#1a416a"/>
<use data-text="s" xlink:href="#font_5_98" transform="matrix(6.973848,0,0,-6.973848,221.82724,159.56182)" fill="#1a416a"/>
<use data-text="e" xlink:href="#font_5_50" transform="matrix(6.973848,0,0,-6.973848,224.98639,159.56182)" fill="#1a416a"/>
<use data-text="j" xlink:href="#font_5_68" transform="matrix(6.973848,0,0,-6.973848,194.99646,168.5282)" fill="#1a416a"/>
<use data-text="u" xlink:href="#font_5_109" transform="matrix(6.973848,0,0,-6.973848,197.46521,168.5282)" fill="#1a416a"/>
<use data-text="m" xlink:href="#font_5_75" transform="matrix(6.973848,0,0,-6.973848,201.8657,168.5282)" fill="#1a416a"/>
<use data-text="p" xlink:href="#font_5_84" transform="matrix(6.973848,0,0,-6.973848,208.41416,168.5282)" fill="#1a416a"/>
<use data-text="a" xlink:href="#font_5_28" transform="matrix(6.973848,0,0,-6.973848,215.49958,168.5282)" fill="#1a416a"/>
<use data-text="t" xlink:href="#font_5_105" transform="matrix(6.973848,0,0,-6.973848,219.4677,168.5282)" fill="#1a416a"/>
<use data-text="Q" xlink:href="#font_6_1" transform="matrix(6.973848,0,0,-6.973848,225.26299,168.5282)" fill="#1a416a"/>
<path transform="matrix(1,0,0,-1,179.25099,92.88675)" stroke-width=".69739" stroke-linecap="butt" stroke-miterlimit="10" stroke-linejoin="miter" fill="none" stroke="#4c4d4c" d="M-42.5202-60.94545C-41.62358-62.73877-39.53137-63.93428-36.54254-63.93428H-8.8125C-5.82367-63.93428-3.73146-65.12979-2.83484-66.92311-1.93823-65.12979 .15398-63.93428 3.1428-63.93428H30.87283C33.86166-63.93428 35.95389-62.73877 36.8505-60.94545"/>
<use data-text="&#x2206;" xlink:href="#font_4_1" transform="matrix(8.966376,0,0,-8.966376,147.42554,172.38788)"/>
<use data-text="=" xlink:href="#font_4_7" transform="matrix(8.966376,0,0,-8.966376,157.65618,172.38788)"/>
<use data-text="2" xlink:href="#font_4_6" transform="matrix(8.966376,0,0,-8.966376,167.37574,172.38788)"/>
<use data-text="n" xlink:href="#font_2_11" transform="matrix(8.966376,0,0,-8.966376,171.9999,172.38788)"/>
<use data-text="d" xlink:href="#font_2_9" transform="matrix(8.966376,0,0,-8.966376,177.55008,172.38788)"/>
<use data-text="c" xlink:href="#font_4_8" transform="matrix(8.966376,0,0,-8.966376,183.86956,172.38788)"/>
<use data-text="o" xlink:href="#font_4_9" transform="matrix(8.966376,0,0,-8.966376,187.95822,172.38788)"/>
<use data-text="s" xlink:href="#font_4_10" transform="matrix(8.966376,0,0,-8.966376,192.55797,172.38788)"/>
<use data-text="&#x03b8;" xlink:href="#font_2_1" transform="matrix(8.966376,0,0,-8.966376,197.74382,172.38788)"/>
<use data-text="t" xlink:href="#font_3_2" transform="matrix(5.977584,0,0,-5.977584,202.0575,173.38413)"/>
<path transform="matrix(1,0,0,-1,179.25099,92.88675)" d="M74.8145-91.78305H-74.8145C-75.91496-91.78305-76.80705-92.67513-76.80705-93.7756V-110.32173C-76.80705-111.42221-75.91496-112.31429-74.8145-112.31429H74.8145C75.91496-112.31429 76.80705-111.42221 76.80705-110.32173V-93.7756C76.80705-92.67513 75.91496-91.78305 74.8145-91.78305ZM-76.80705-112.31429" fill="#ffffff"/>
<path transform="matrix(1,0,0,-1,179.25099,92.88675)" stroke-width="1.19553" stroke-linecap="butt" stroke-miterlimit="10" stroke-linejoin="miter" fill="none" stroke="#999999" d="M74.8145-91.78305H-74.8145C-75.91496-91.78305-76.80705-92.67513-76.80705-93.7756V-110.32173C-76.80705-111.42221-75.91496-112.31429-74.8145-112.31429H74.8145C75.91496-112.31429 76.80705-111.42221 76.80705-110.32173V-93.7756C76.80705-92.67513 75.91496-91.78305 74.8145-91.78305ZM-76.80705-112.31429"/>
<use data-text="c" xlink:href="#font_1_43" transform="matrix(8.966376,0,0,-8.966376,107.42532,197.17702)"/>
<use data-text="o" xlink:href="#font_1_81" transform="matrix(8.966376,0,0,-8.966376,111.52296,197.17702)"/>
<use data-text="n" xlink:href="#font_1_77" transform="matrix(8.966376,0,0,-8.966376,116.131679,197.17702)"/>
<use data-text="s" xlink:href="#font_1_98" transform="matrix(8.966376,0,0,-8.966376,121.25148,197.17702)"/>
<use data-text="t" xlink:href="#font_1_105" transform="matrix(8.966376,0,0,-8.966376,124.882869,197.17702)"/>
<use data-text="r" xlink:href="#font_1_96" transform="matrix(8.966376,0,0,-8.966376,128.46942,197.17702)"/>
<use data-text="u" xlink:href="#font_1_109" transform="matrix(8.966376,0,0,-8.966376,132.0739,197.17702)"/>
<use data-text="c" xlink:href="#font_1_43" transform="matrix(8.966376,0,0,-8.966376,137.1937,197.17702)"/>
<use data-text="t" xlink:href="#font_1_105" transform="matrix(8.966376,0,0,-8.966376,141.29134,197.17702)"/>
<use data-text="i" xlink:href="#font_1_66" transform="matrix(8.966376,0,0,-8.966376,144.87789,197.17702)"/>
<use data-text="v" xlink:href="#font_1_112" transform="matrix(8.966376,0,0,-8.966376,147.44226,197.17702)"/>
<use data-text="e" xlink:href="#font_1_50" transform="matrix(8.966376,0,0,-8.966376,152.05098,197.17702)"/>
<use data-text=":" xlink:href="#font_1_44" transform="matrix(8.966376,0,0,-8.966376,156.14862,197.17702)"/>
<use data-text="2" xlink:href="#font_4_6" transform="matrix(8.966376,0,0,-8.966376,162.80466,197.17702)"/>
<use data-text="n" xlink:href="#font_2_11" transform="matrix(8.966376,0,0,-8.966376,167.41236,197.17702)"/>
<use data-text="d" xlink:href="#font_2_9" transform="matrix(8.966376,0,0,-8.966376,172.96254,197.17702)"/>
<use data-text="c" xlink:href="#font_4_8" transform="matrix(8.966376,0,0,-8.966376,179.28202,197.17702)"/>
<use data-text="o" xlink:href="#font_4_9" transform="matrix(8.966376,0,0,-8.966376,183.37068,197.17702)"/>
<use data-text="s" xlink:href="#font_4_10" transform="matrix(8.966376,0,0,-8.966376,187.97043,197.17702)"/>
<use data-text="&#x03b8;" xlink:href="#font_2_1" transform="matrix(8.966376,0,0,-8.966376,193.15628,197.17702)"/>
<use data-text="t" xlink:href="#font_3_2" transform="matrix(5.977584,0,0,-5.977584,197.46996,198.17327)"/>
<use data-text="=" xlink:href="#font_4_7" transform="matrix(8.966376,0,0,-8.966376,203.37831,197.17702)"/>
<use data-text="(" xlink:href="#font_4_2" transform="matrix(8.966376,0,0,-8.966376,213.09787,197.17702)"/>
<use data-text="m" xlink:href="#font_2_10" transform="matrix(8.966376,0,0,-8.966376,216.68943,197.17702)"/>
<use data-text="+" xlink:href="#font_4_4" transform="matrix(8.966376,0,0,-8.966376,226.85611,197.17702)"/>
<use data-text="1" xlink:href="#font_7_1" transform="matrix(5.977584,0,0,-5.977584,237.26702,193.50348)"/>
<path transform="matrix(1,0,0,-1,.17433167,176.29506)" stroke-width=".378585" stroke-linecap="butt" stroke-miterlimit="10" stroke-linejoin="miter" fill="none" stroke="#000000" d="M237.09265-18.64036H240.74558"/>
<use data-text="2" xlink:href="#font_7_2" transform="matrix(5.977584,0,0,-5.977584,237.26699,200.21964)"/>
<use data-text=")" xlink:href="#font_4_3" transform="matrix(8.966376,0,0,-8.966376,242.11542,197.17702)"/>
<use data-text="&#x03bb;" xlink:href="#font_2_2" transform="matrix(8.966376,0,0,-8.966376,245.69918,197.17702)"/>
</svg>
