<svg xmlns="http://www.w3.org/2000/svg" xmlns:xlink="http://www.w3.org/1999/xlink" xmlns:inkscape="http://www.inkscape.org/namespaces/inkscape" version="1.1" width="279.27" height="247.91" viewBox="0 0 279.27 247.91">
<defs>
<path id="font_1_1" d="M.33399964 .30233766C.33999635 .32835389 .36299134 .42037965 .43299867 .42037965 .43798829 .42037965 .46199037 .42037965 .48298646 .40734864 .45498658 .402359 .43499757 .37734986 .43499757 .35334779 .43499757 .33735658 .44599916 .31835938 .47299195 .31835938 .49499513 .31835938 .5269928 .3363495 .5269928 .37635804 .5269928 .42837525 .46798707 .4423828 .43399049 .4423828 .37599183 .4423828 .34098817 .38935853 .32899476 .36634828 .3039856 .43237306 .25 .4423828 .22099304 .4423828 .116989139 .4423828 .05999756 .3133545 .05999756 .28834535 .05999756 .27833558 .069992069 .27833558 .07199097 .27833558 .07998657 .27833558 .08299255 .28033448 .084991458 .28933717 .11898804 .39535523 .18499756 .42037965 .21899414 .42037965 .23799134 .42037965 .272995 .4113617 .272995 .35334779 .272995 .32235719 .2559967 .25532533 .21899414 .11528015 .20298767 .053268434 .16799927 .011245728 .12399292 .011245728 .117996219 .011245728 .09498596 .011245728 .07398987 .024276734 .09899902 .029266358 .12098694 .05027771 .12098694 .07827759 .12098694 .105270389 .09899902 .11328125 .083999637 .11328125 .053985597 .11328125 .0289917 .08728027 .0289917 .055267335 .0289917 .009246826 .07899475-.0107421879 .12298584-.0107421879 .18899536-.0107421879 .22499085 .059280397 .22799683 .0652771 .23999024 .028274537 .27598573-.0107421879 .33599855-.0107421879 .43899537-.0107421879 .49598695 .118270877 .49598695 .14328003 .49598695 .1532898 .4869995 .1532898 .48399354 .1532898 .47499085 .1532898 .47299195 .14929199 .47099305 .14228821 .43798829 .03527832 .36999513 .011245728 .33799745 .011245728 .29899598 .011245728 .2829895 .043273927 .2829895 .07727051 .2829895 .09927368 .2889862 .121276859 .2999878 .16529846L.33399964 .30233766Z"/>
<path id="font_1_2" d="M.48599244 .38136292C.48999024 .39537049 .48999024 .39736939 .48999024 .40437318 .48999024 .42237855 .47599793 .43138124 .46099855 .43138124 .45098878 .43138124 .43499757 .42536927 .42599488 .41036988 .42399598 .405365 .41600038 .37435914 .4119873 .35635377 .40499879 .33035279 .397995 .30334474 .3919983 .27633668L.34700013 .09628296C.34298707 .08126831 .2999878 .011245728 .23399353 .011245728 .18299866 .011245728 .17199707 .055267335 .17199707 .0922699 .17199707 .1382904 .18899536 .20030213 .22299195 .28833009 .23899842 .3293457 .24299622 .3403473 .24299622 .36035157 .24299622 .405365 .21099854 .4423828 .16099549 .4423828 .06599426 .4423828 .0289917 .29733277 .0289917 .28833009 .0289917 .27833558 .038986207 .27833558 .040985109 .27833558 .050994874 .27833558 .051986696 .28033448 .056991579 .29634095 .083999637 .3903656 .12399292 .42037965 .1579895 .42037965 .1659851 .42037965 .18299866 .42037965 .18299866 .3883667 .18299866 .36335755 .17298889 .3373413 .1659851 .31834413 .12599182 .21231079 .10798645 .1552887 .10798645 .10827637 .10798645 .019256592 .17098999-.0107421879 .22999573-.0107421879 .2689972-.0107421879 .30299378 .0062561037 .33099366 .03425598 .31799317-.017745972 .30599977-.06674194 .2659912-.11973572 .23999024-.15385437 .20199585-.18309021 .1559906-.18309021 .14199829-.18309021 .09700012-.18005371 .07998657-.14074707 .09599304-.14074707 .10899353-.14074707 .12298584-.1287384 .1329956-.11973572 .14299011-.10673523 .14299011-.08773804 .14299011-.056747438 .115997318-.052734376 .10598755-.052734376 .08299255-.052734376 .049987794-.068740848 .049987794-.11773682 .049987794-.16796875 .09399414-.20507813 .1559906-.20507813 .25898744-.20507813 .3619995-.11373901 .3899994-.00074768069L.48599244 .38136292Z"/>
<path id="font_2_6" d="M.38198854 .3803711C.36299134 .41638185 .33198548 .4423828 .2869873 .4423828 .17098999 .4423828 .041992189 .30433656 .041992189 .1512909 .041992189 .041259767 .11199951-.0107421879 .1789856-.0107421879 .24398804-.0107421879 .29699708 .043258668 .31298829 .06227112 .32398988 .007247925 .37399293-.0107421879 .4059906-.0107421879 .43499757-.0107421879 .45999146 .002243042 .48199464 .044265748 .5 .07727051 .5139923 .13928223 .5139923 .14329529 .5139923 .14828491 .5109863 .1552887 .5009918 .1552887 .4889984 .1552887 .48799134 .15029907 .48399354 .13128662 .46199037 .044265748 .43998719 .014251709 .40899659 .014251709 .38398744 .014251709 .37799073 .038253786 .37799073 .060272218 .37799073 .07926941 .3829956 .09927368 .3919983 .1342926L.4169922 .23731995C.42399598 .2623291 .44198609 .33735658 .44599916 .35235597 .44999696 .36636354 .45599366 .3903656 .45599366 .39337159 .45599366 .40937806 .44299317 .42237855 .4249878 .42237855 .4119873 .42237855 .3869934 .41438294 .38198854 .3803711M.31698609 .122283939C.31199647 .103271488 .31199647 .10227966 .29599 .08326721 .2599945 .040252687 .21899414 .014251709 .18199158 .014251709 .1329956 .014251709 .115997318 .06526184 .115997318 .10827637 .115997318 .15730286 .14498902 .27233888 .16899109 .32034303 .20098877 .3803711 .24699402 .41737367 .2869873 .41737367 .35398866 .41737367 .36898805 .33735658 .36898805 .33035279 .36898805 .3253479 .36698915 .3193512 .3659973 .31533814L.31698609 .122283939Z"/>
<path id="font_3_1" d="M.6749878 .22944641C.69299319 .22944641 .71199038 .22944641 .71199038 .25144959 .71199038 .27246095 .69200137 .27246095 .6749878 .27246095H.12298584C.10598755 .27246095 .085998538 .27246095 .085998538 .25144959 .085998538 .22944641 .10499573 .22944641 .12298584 .22944641H.6749878Z"/>
<path id="font_2_1" d="M.2679901 .43603517C.1539917 .41105653 .042999269 .29112245 .042999269 .15919495 .042999269 .04824829 .12098694-.01171875 .20799256-.01171875 .32398988-.01171875 .41099549 .14019776 .41099549 .28211976 .41099549 .3740692 .36698915 .42803956 .33599855 .46601869 .30099488 .5090027 .23599243 .58795168 .23599243 .6329346 .23599243 .6499176 .24899292 .6769104 .29100038 .6769104 .32199098 .6769104 .34199525 .664917 .36299134 .6509247 .3769989 .6429291 .4059906 .62493899 .42099 .62493899 .44198609 .62493899 .46099855 .6439209 .46099855 .6659088 .46099855 .687912 .44799806 .6909027 .40098573 .7009125 .35198976 .71191409 .33399964 .71191409 .31999208 .71191409 .21998596 .71191409 .20498657 .6409302 .20498657 .60894778 .20498657 .5589752 .23699951 .49101258 .2679901 .43603517M.28199769 .41204835C.33499146 .31910707 .33699037 .27412416 .33699037 .2411499 .33699037 .16519165 .29599 .0132751469 .20698548 .0132751469 .1639862 .0132751469 .10899353 .041259767 .10899353 .13121033 .10899353 .19517517 .14399719 .3740692 .28199769 .41204835Z"/>
<path id="font_4_3" d="M.70599368 .22944641C.7200012 .22944641 .7409973 .22944641 .7409973 .25045777 .7409973 .27246095 .7220001 .27246095 .70599368 .27246095H.42099V.5578003C.42099 .573761 .42099 .59277346 .39898683 .59277346 .37799073 .59277346 .37799073 .57177737 .37799073 .5578003V.27246095H.09199524C.07798767 .27246095 .056991579 .27246095 .056991579 .25144959 .056991579 .22944641 .07598877 .22944641 .09199524 .22944641H.37799073V-.056793214C.37799073-.07279968 .37799073-.091796878 .3999939-.091796878 .42099-.091796878 .42099-.07080078 .42099-.056793214V.22944641H.70599368Z"/>
<path id="font_2_5" d="M.3809967 .6036377C.3899994 .6416168 .3929901 .6516113 .48599244 .6516113 .5139923 .6516113 .522995 .6516113 .522995 .6696167 .522995 .6826172 .5099945 .6826172 .5069885 .6826172 .48399354 .6826172 .45799256 .680603 .43399049 .680603 .4099884 .680603 .38598634 .6796112 .3619995 .6796112 .33898927 .6796112 .31498719 .6796112 .29299928 .680603 .2749939 .6816101 .24398804 .6826172 .22698975 .6826172 .22099304 .6826172 .20698548 .6826172 .20698548 .6646118 .20698548 .6516113 .21598816 .6516113 .23699951 .6516113 .24099732 .6516113 .25898744 .6516113 .2749939 .6496124 .2919922 .6476135 .29899598 .6456146 .29899598 .63461306 .29899598 .6296234 .2979889 .6256256 .29499818 .614624L.1599884 .07595825C.15098572 .039993287 .14898682 .0309906 .07398987 .0309906 .054992677 .0309906 .04399109 .0309906 .04399109 .0129852299 .04399109 0 .053985597 0 .07199097 0H.5439911C.56799319 0 .56900027 .0009918213 .57699587 .021987915 .58699038 .04698181 .6589966 .23686219 .6589966 .24485779 .6589966 .2528534 .6519928 .25785829 .644989 .25785829 .6349945 .25785829 .6339874 .25386048 .6259918 .23387146 .59199526 .14492798 .5479889 .0309906 .37298585 .0309906H.27398683C.2599945 .0309906 .2579956 .0309906 .2539978 .03199768 .24398804 .032989503 .24099732 .033996583 .24099732 .040985109 .24099732 .04399109 .24099732 .04598999 .24598694 .063964847L.3809967 .6036377Z"/>
<path id="font_2_2" d="M.14399719 .22492981C.17999268 .2109375 .20498657 .2109375 .23199463 .2109375 .25898744 .2109375 .31498719 .2109375 .31498719 .2440033 .31498719 .26704408 .2889862 .27304078 .24099732 .27304078 .21899414 .27304078 .18499756 .27104188 .14498902 .25404359 .10699463 .2740326 .10499573 .3010559 .10499573 .30906678 .10499573 .36608888 .19999695 .40312196 .29499818 .40312196 .31599427 .40312196 .34999085 .40211488 .3909912 .37309266 .39698792 .36909486 .4019928 .36608888 .4099884 .36608888 .41999818 .36608888 .43798829 .3771057 .43798829 .39411927 .43798829 .41311646 .40699769 .42712403 .3880005 .43611146 .37399293 .44311524 .34498597 .453125 .30599977 .453125 .18399048 .453125 .07699585 .3821106 .07699585 .30906678 .07699585 .28704835 .08898926 .2590332 .116989139 .23995972 .084991458 .220932 .027999878 .17285156 .027999878 .10569763 .027999878 .030532837 .09799194-.022460938 .19499207-.022460938 .33099366-.022460938 .3880005 .06460571 .3880005 .08265686 .3880005 .08866882 .38398744 .094680789 .37599183 .094680789 .36999513 .094680789 .36799623 .091674808 .36099244 .07965088 .33499146 .03855896 .2769928 .027526856 .20599365 .027526856 .068984989 .027526856 .055999757 .08566284 .055999757 .111709598 .055999757 .14678955 .08898926 .19889832 .14399719 .22492981M.18199158 .23995972C.20298767 .24601746 .21998596 .24804688 .23999024 .24804688 .2599945 .24804688 .2649994 .24702454 .2849884 .24299622 .269989 .23693848 .2679901 .2359314 .23199463 .2359314 .21499634 .2359314 .19898987 .2359314 .18199158 .23995972Z"/>
<path id="font_5_42" d="M.6839905 .23170471C.6839905 .24171448 .6839905 .25073243 .66999819 .25073243 .6569977 .25073243 .6569977 .24372864 .6559906 .2347107 .647995 .082595828 .5279999 .008529663 .4249878 .008529663 .33999635 .008529663 .15899658 .061569215 .15899658 .34179688 .15899658 .6210327 .34098817 .67407229 .42399598 .67407229 .522995 .67407229 .6279907 .5990143 .6519928 .4368744 .6539917 .4238739 .6549988 .41886903 .66799929 .41886903 .6839905 .41886903 .6839905 .4238739 .6839905 .44488526V.67907717C.6839905 .69607546 .6839905 .7050781 .6719971 .7050781 .6649933 .7050781 .6619873 .70207217 .6559906 .69306948L.6049957 .61802676C.57299807 .64904788 .5159912 .7050781 .4149933 .7050781 .22099304 .7050781 .056991579 .5439606 .056991579 .34179688 .056991579 .13563538 .22299195-.022460938 .4149933-.022460938 .58099368-.022460938 .6839905 .11462402 .6839905 .23170471Z"/>
<path id="font_5_63" d="M.5469971 0V.0309906C.49598695 .03125 .47099305 .03125 .46998597 .0622406V.25431825C.46998597 .3373413 .46998597 .36636354 .44198609 .4013672 .4189911 .42938233 .3809967 .4423828 .33099366 .4423828 .2639923 .4423828 .21499634 .40737916 .18399048 .35134889H.18299866V.69433596L.034988405 .6826172V.6516113C.102996829 .6516113 .11199951 .64463809 .11199951 .59580996V.077041629C.11199951 .0309906 .100997928 .0309906 .034988405 .0309906V0C.08198547 .0019989014 .100997928 .0029907227 .14898682 .0029907227 .19699097 .0029907227 .20999146 .0019989014 .2630005 0V.0309906C.19699097 .0309906 .18598938 .0309906 .18598938 .077041629V.2592163C.18598938 .36532594 .26098634 .41737367 .32398988 .41737367 .3829956 .41737367 .3959961 .3683319 .3959961 .30825807V.077041629C.3959961 .0309906 .3849945 .0309906 .31900025 .0309906V0C.3659973 .0019989014 .3849945 .0029907227 .43299867 .0029907227 .48098756 .0029907227 .49398805 .0019989014 .5469971 0Z"/>
<path id="font_5_28" d="M.49699403 .089141849V.14515686H.46899415V.090148929C.46899415 .07914734 .46899415 .029129029 .43299867 .029129029 .39698792 .029129029 .39698792 .07714844 .39698792 .09315491V.26818849C.39698792 .32521058 .39698792 .3592224 .35198976 .40022279 .31498719 .43322755 .2669983 .4482422 .21699524 .4482422 .1329956 .4482422 .06298828 .40623475 .06298828 .34220887 .06298828 .311203 .083999637 .2942047 .10998535 .2942047 .13699341 .2942047 .1559906 .31420899 .1559906 .34020997 .1559906 .3832245 .11099243 .38822938 .11099243 .38822938 .13798523 .41423036 .18598938 .42323304 .21499634 .42323304 .2659912 .42323304 .32299806 .3852234 .32299806 .29719544V.26419068C.2689972 .26219178 .19400025 .2571869 .1269989 .22518921 .054992677 .19017029 .032989503 .13816834 .032989503 .09814453 .032989503 .01625061 .12998963-.0107421879 .19699097-.0107421879 .27999879-.0107421879 .31799317 .04425049 .33198548 .072250369 .33699037 .030136109 .3659973-.005859375 .40899659-.005859375 .43399049-.005859375 .49699403 .009140015 .49699403 .08912659V.089141849M.32299806 .14112854C.32299806 .04425049 .24798584 .014251709 .20399475 .014251709 .15699768 .014251709 .11299133 .04824829 .11299133 .098236087 .11299133 .16423035 .16999817 .23422241 .32299806 .24023438V.14112854Z"/>
<path id="font_5_72" d="M.26098634 0V.0309906C.19499207 .0309906 .18399048 .0309906 .18399048 .07701111V.69433596L.035995485 .6826172V.6516113C.10398865 .6516113 .11299133 .64460757 .11299133 .5956421V.07696533C.11299133 .0309906 .101989749 .0309906 .035995485 .0309906V0C.08299255 .0019989014 .101989749 .0029907227 .147995 .0029907227 .19499207 .0029907227 .21199036 .0019989014 .26098634 0Z"/>
<path id="font_5_50" d="M.4269867 .11936951C.4269867 .12637329 .42199708 .13237 .41299439 .13237 .40299989 .13237 .3999939 .12536621 .39898683 .12136841 .36499024 .019256592 .27598573 .01725769 .26098634 .01725769 .21299744 .01725769 .17199707 .044281007 .14898682 .078323367 .115997318 .12736511 .114990238 .18743897 .114990238 .22949219H.3999939C.42199708 .22949219 .4269867 .22949219 .4269867 .25048829 .4269867 .35333253 .37098695 .4482422 .24299622 .4482422 .12298584 .4482422 .0289917 .3443451 .0289917 .22047425 .0289917 .08932495 .13398743-.0107421879 .2559967-.0107421879 .37799073-.0107421879 .4269867 .096343997 .4269867 .11936951M.35899354 .253479H.115997318C.125 .40725709 .21499634 .42323304 .24299622 .42323304 .2979889 .42323304 .35798646 .38130189 .35899354 .253479Z"/>
<path id="font_5_77" d="M.5469971 0V.0309906C.49598695 .03125 .47099305 .03125 .46998597 .0622406V.25431825C.46998597 .3373413 .46998597 .36636354 .44198609 .4013672 .4189911 .42938233 .3809967 .4423828 .33099366 .4423828 .23799134 .4423828 .19499207 .37335206 .18099976 .34535218H.17999268V.4423828L.034988405 .43066407V.3996582C.102996829 .3996582 .11199951 .39266969 .11199951 .34370423V.07695007C.11199951 .0309906 .100997928 .0309906 .034988405 .0309906V0C.08198547 .0019989014 .100997928 .0029907227 .14898682 .0029907227 .19699097 .0029907227 .20999146 .0019989014 .2630005 0V.0309906C.19699097 .0309906 .18598938 .0309906 .18598938 .07695007V.25878907C.18598938 .36532594 .26098634 .41737367 .32398988 .41737367 .3829956 .41737367 .3959961 .3683319 .3959961 .30825807V.077041629C.3959961 .0309906 .3849945 .0309906 .31900025 .0309906V0C.3659973 .0019989014 .3849945 .0029907227 .43299867 .0029907227 .48098756 .0029907227 .49398805 .0019989014 .5469971 0Z"/>
<path id="font_5_59" d="M.49899293 .40338136C.49899293 .42237855 .4850006 .45336915 .44499208 .45336915 .41600038 .45336915 .37098695 .4423828 .33599855 .40637208 .30899049 .42837525 .269989 .4423828 .22799683 .4423828 .1329956 .4423828 .06098938 .3743744 .06098938 .29537965 .06098938 .2443695 .09098816 .20837403 .10699463 .19337464 .10499573 .19137573 .07699585 .15637207 .07699585 .11038208 .07699585 .07637024 .09298706 .040374757 .11999512 .022369385 .068984989 .005874634 .0289917-.03111267 .0289917-.07809448 .0289917-.14907837 .12799073-.20605469 .2559967-.20605469 .3789978-.20605469 .48399354-.15307617 .48399354-.07609558 .48399354-.035110475 .46499635 .008880615 .42799378 .03288269 .37199403 .067871097 .31399537 .067871097 .21899414 .067871097 .19898987 .067871097 .16699219 .067871097 .15899658 .069885257 .12998963 .075927738 .11099243 .1031189 .11099243 .13534546 .11099243 .15142823 .115997318 .16642761 .125 .1794281 .1499939 .16343689 .18099976 .1484375 .22698975 .1484375 .32199098 .1484375 .3939972 .21643067 .3939972 .29542542 .3939972 .34443666 .3659973 .37843324 .35299684 .39242555 .3929901 .42843629 .43998719 .42843629 .45199586 .42843629 .44699098 .4254303 .43899537 .42042542 .43899537 .4024353 .43899537 .39143373 .44599916 .37243653 .46899415 .37243653 .48298646 .37243653 .49899293 .38243104 .49899293 .40342713V.40338136M.31698609 .29542542C.31698609 .27243043 .31698609 .1754303 .22698975 .1754303 .13798523 .17520142 .13798523 .27326966 .13798523 .2952881 .13798523 .3223114 .13999939 .35632325 .15699768 .38034059 .17199707 .4003601 .19898987 .41537477 .22698975 .41537477 .31698609 .41537477 .31698609 .31829835 .31698609 .2952881V.29542542M.42799378-.07698059C.42799378-.1340332 .35099793-.17906189 .25698854-.17906189 .15899658-.17912293 .084991458-.13212586 .084991458-.07711792 .084991458-.06112671 .09498596 .0048828127 .18099976 .0048828127H.272995C.30499269 .0048828127 .42799378 .0038757325 .42799378-.07711792V-.07698059Z"/>
<path id="font_5_96" d="M.37298585 .3798828C.37298585 .41236878 .34298707 .4423828 .2979889 .4423828 .23799134 .4423828 .19599915 .40037538 .17298889 .33787538H.17199707V.4423828L.02999878 .43066407V.3996582C.09799194 .3996582 .10699463 .3927307 .10699463 .34387208V.07698059C.10699463 .0309906 .09599304 .0309906 .02999878 .0309906V0C.08299255 .0019989014 .09599304 .0029907227 .14698792 .0029907227L.27398683 0V.0309906H.2539978C.18099976 .0309906 .17799378 .041992189 .17799378 .07897949V.22891236C.17799378 .26989747 .18899536 .4166565 .30299378 .4166565V.4156494C.30099488 .4146576 .2849884 .40264894 .2849884 .37887574 .2849884 .35186769 .30599977 .33486939 .32899476 .33486939 .34999085 .33486939 .37298585 .34986878 .37298585 .3798828Z"/>
<path id="font_5_44" d="M.19599915 .3766632C.19599915 .406662 .17199707 .43066407 .14199829 .43066407 .11199951 .43066407 .08799744 .406662 .08799744 .3766632 .08799744 .34765626 .11199951 .32266236 .14199829 .32266236 .17199707 .32266236 .19599915 .34765626 .19599915 .3766632M.19599915 .053985597C.19599915 .08299255 .17199707 .10798645 .14199829 .10798645 .11199951 .10798645 .08799744 .08299255 .08799744 .053985597 .08799744 .023986817 .11199951 0 .14199829 0 .17199707 0 .19599915 .023986817 .19599915 .053985597Z"/>
<path id="font_5_66" d="M.25299073 0V.0309906C.18798828 .0309906 .18399048 .035995485 .18399048 .075042728V.4423828L.039993287 .43066407V.3996582C.10398865 .3996582 .11299133 .3936615 .11299133 .3447113V.07695007C.11299133 .0309906 .101989749 .0309906 .035995485 .0309906V0C.08099365 .0019989014 .101989749 .0029907227 .1459961 .0029907227 .1619873 .0029907227 .20399475 .0029907227 .25299073 0M.19699097 .6028137C.19699097 .63282778 .17298889 .6568146 .14299011 .6568146 .11299133 .6568146 .08898926 .63282778 .08898926 .6028137 .08898926 .57281497 .11299133 .5488281 .14299011 .5488281 .17298889 .5488281 .19699097 .57281497 .19699097 .6028137Z"/>
<path id="font_5_112" d="M.5209961 .3996582V.43066407C.4909973 .42765809 .44400025 .42765809 .44400025 .42765809 .41600038 .42765809 .3849945 .4286499 .35699464 .43066407V.3996582C.38598634 .3976593 .40299989 .38267518 .40299989 .35671998 .40299989 .34674073 .4019928 .34474183 .397995 .3337555L.2939911 .0821228 .17999268 .35472108C.1769867 .36071778 .1749878 .36669923 .1749878 .37368775 .1749878 .3996582 .21099854 .3996582 .22999573 .3996582V.43066407C.18699646 .4286499 .1639862 .42765809 .11999512 .42765809 .084991458 .42765809 .055999757 .42765809 .019989014 .43066407V.3996582C.066986087 .3996582 .085998538 .3996582 .100997928 .36271668L.24699402 .008224487C.25299073-.007751465 .26098634-.0107421879 .269989-.0107421879 .2789917-.0107421879 .2869873-.008758545 .2939911 .008224487L.42999269 .3357544C.45098878 .38667298 .48599244 .39865113 .5209961 .3996582Z"/>
<path id="font_5_98" d="M.36999513 .12831116C.36999513 .17330933 .34999085 .20030213 .32798768 .22329712 .2939911 .25628663 .2579956 .26327516 .18399048 .2772827 .1579895 .28227235 .084991458 .29527284 .084991458 .35224916 .084991458 .38424684 .10798645 .426239 .19898987 .426239 .30699159 .426239 .31399537 .34326173 .31599427 .31826783 .31698609 .3062744 .31698609 .3002777 .32998658 .3002777 .34399415 .3002777 .34399415 .30726625 .34399415 .32626344V.4222412C.34399415 .4392395 .34399415 .4482422 .33198548 .4482422 .32699586 .4482422 .32499696 .4482422 .31199647 .43623353 .30999757 .43423463 .30099488 .42523194 .29499818 .4202423 .2639923 .44223023 .23298645 .4482422 .19898987 .4482422 .066986087 .4482422 .033996583 .37524415 .033996583 .32426454 .033996583 .29226686 .04798889 .26628114 .070999149 .24429322 .10499573 .21330261 .14299011 .20629883 .19400025 .19729615 .24499512 .18730164 .2619934 .18431092 .28399659 .16731262 .2939911 .15931702 .31900025 .14031983 .31900025 .10229492 .31900025 .014251709 .21798706 .014251709 .20399475 .014251709 .101989749 .014251709 .07598877 .0993042 .06399536 .15332031 .06098938 .16331482 .05999756 .16931153 .04798889 .16931153 .033996583 .16931153 .033996583 .16131592 .033996583 .14331055V.01524353C.033996583-.0017547608 .033996583-.0107421879 .04598999-.0107421879 .051986696-.0107421879 .052993776-.009750366 .070999149 .009246826 .07499695 .01524353 .085998538 .028259278 .09098816 .03326416 .1329956-.007751465 .1789856-.0107421879 .20399475-.0107421879 .32699586-.0107421879 .36999513 .061279298 .36999513 .12831116Z"/>
<path id="font_2_4" d="M.69200137 .22721863C.7029877 .23220825 .71199038 .23721314 .71199038 .2512207 .71199038 .2642212 .70098879 .2702179 .69200137 .2742157L.12799073 .5452118C.11399841 .5522156 .10899353 .5522156 .10699463 .5522156 .09399414 .5522156 .085998538 .541214 .085998538 .5312195 .085998538 .5192261 .09199524 .5142212 .10598755 .5072174L.6409912 .2512207 .10598755-.005783081C.09199524-.012786865 .085998538-.017791748 .085998538-.029785157 .085998538-.03678894 .09199524-.05078125 .10798645-.05078125 .10899353-.05078125 .11399841-.05078125 .12599182-.044784547L.69200137 .22721863Z"/>
<path id="font_4_4" d="M.47299195 .31976319C.47299195 .38682557 .46998597 .47288514 .43499757 .5479431 .3909912 .64201357 .31498719 .6660156 .25698854 .6660156 .19699097 .6660156 .12098694 .64201357 .07699585 .5459442 .04499817 .47688294 .039993287 .39582826 .039993287 .31976319 .039993287 .25471498 .041992189 .15765381 .084991458 .07858276 .13198853-.0064697267 .20999146-.022460938 .2559967-.022460938 .32099916-.022460938 .394989 .0055389406 .43699647 .097595218 .46699525 .1646576 .47299195 .23971558 .47299195 .31976319M.25698854 .002532959C.22698975 .002532959 .15499878 .016540528 .13598633 .12962342 .12599182 .18867493 .12599182 .2747345 .12599182 .33177186 .12599182 .39982606 .12599182 .47888185 .13798523 .53393557 .1579895 .6230011 .22200012 .64100649 .2559967 .64100649 .2939911 .64100649 .35699464 .62098696 .37599183 .5279236 .3869934 .47288514 .3869934 .39482118 .3869934 .33177186 .3869934 .2697296 .3869934 .18566895 .3769989 .12661743 .35598756 .012542725 .28199769 .002532959 .25698854 .002532959Z"/>
<path id="font_5_46" d="M.72698977 .33580018C.72698977 .52568057 .58799746 .6826172 .4119873 .6826172H.039993287V.6516113H.06298828C.13999939 .6516113 .14199829 .64060977 .14199829 .6036377V.07896423C.14199829 .041992189 .13999939 .0309906 .06298828 .0309906H.039993287V0H.4119873C.58499148 0 .72698977 .1479187 .72698977 .33580018M.6279907 .33580018C.6279907 .29483033 .6279907 .18989563 .57299807 .11993408 .5209961 .051986696 .44898988 .0309906 .38598634 .0309906H.27799989C.23098755 .0309906 .22898865 .037994386 .22898865 .07196045V.6106262C.22898865 .64460757 .23098755 .6516113 .27799989 .6516113H.3849945C.48199464 .6516113 .5419922 .6006317 .56900027 .56466677 .61299136 .5066986 .6279907 .43473817 .6279907 .33580018Z"/>
<path id="font_5_55" d="M.3659973 .6340637C.3659973 .67207339 .32798768 .7050781 .272995 .7050781 .19499207 .7046509 .11299133 .6456604 .11299133 .5456543V.43066407H.033996583V.3996582H.11299133V.07695007C.11299133 .0309906 .101989749 .0309906 .035995485 .0309906V0C.08898926 .0019989014 .101989749 .0029907227 .15299988 .0029907227L.27999879 0V.0309906H.2599945C.18699646 .0309906 .18399048 .04197693 .18399048 .078948978V.3996582H.2999878V.43066407H.18099976V.5436554C.18099976 .6350708 .22999573 .68006899 .272995 .68006899 .2829895 .68006899 .29299928 .67807009 .30299378 .67407229 .29299928 .67007449 .2769928 .6580658 .2769928 .6330719 .2769928 .6070709 .29599 .58906558 .32099916 .58906558 .34799195 .58906558 .3659973 .60806277 .3659973 .6340637Z"/>
<path id="font_5_47" d="M.5399933 0V.0309906C.47200013 .0309906 .46299745 .037994386 .46299745 .087020877V.69433596L.31498719 .6826172V.6516113C.3829956 .6516113 .3919983 .64463809 .3919983 .59580996V.38339234C.3869934 .38938905 .34199525 .4423828 .2639923 .4423828 .14099121 .4423828 .033996583 .3443756 .033996583 .21525574 .033996583 .09013367 .13398743-.0107421879 .25299073-.0107421879 .32598878-.0107421879 .37098695 .03224182 .3889923 .053115846V-.0107421879L.5399933 0M.3889923 .12011719C.3889923 .10211182 .3889923 .099121097 .37399293 .078125 .34298707 .033218385 .29699708 .014251709 .25698854 .014251709 .21398926 .014251709 .17399597 .038208009 .147995 .0801239 .12199402 .12312317 .11999512 .18218994 .11999512 .21421814 .11999512 .26127626 .12599182 .3143463 .1519928 .35438539 .17399597 .38638307 .21499634 .41737367 .2679901 .41737367 .30999757 .41737367 .34999085 .39637757 .3769989 .35839845 .3889923 .3423767 .3889923 .34136964 .3889923 .32235719V.12011719Z"/>
<path id="font_5_125" d="M.5399933 0V.0309906C.47399903 .0309906 .46299745 .0309906 .46299745 .07695007V.44265748L.33299256 .4336548C.31698609 .43266297 .31498719 .43165589 .31498719 .43165589 .31298829 .43066407 .31098939 .43066407 .29699708 .43066407H.1749878V.5406494C.1749878 .6446533 .2689972 .68006899 .32598878 .68006899 .34899903 .68006899 .3869934 .6739807 .4119873 .6496582 .37298585 .6456604 .36698915 .61465457 .36698915 .60266116 .36698915 .57266238 .3909912 .55566409 .4139862 .55566409 .44099427 .55566409 .46199037 .57466128 .46199037 .60266116 .46199037 .65979006 .40699769 .7050781 .32699586 .7050781 .22698975 .7050781 .10699463 .6506653 .10699463 .5436554V.43066407H.027999878V.3996582H.10699463V.07695007C.10699463 .0309906 .09599304 .0309906 .02999878 .0309906V0C.07699585 .0019989014 .09599304 .0029907227 .14199829 .0029907227 .18899536 .0029907227 .20599365 .0019989014 .25498963 0V.0309906C.18899536 .0309906 .17799378 .0309906 .17799378 .07695007V.3996582H.33898927C.38598634 .3996582 .3919983 .38667298 .3919983 .34570313V.07695007C.3919983 .0309906 .3809967 .0309906 .31498719 .0309906V0C.3619995 .0019989014 .3809967 .0029907227 .4269867 .0029907227 .47399903 .0029907227 .4909973 .0019989014 .5399933 0Z"/>
<path id="font_2_3" d="M.69200137 .5072174C.70098879 .5112152 .71199038 .5172272 .71199038 .53022769 .71199038 .541214 .70399478 .5522156 .6899872 .5522156 .68899539 .5522156 .6839905 .5522156 .6719971 .5462189L.10598755 .2742157C.09700012 .2702179 .085998538 .2642212 .085998538 .2512207 .085998538 .23721314 .09498596 .23220825 .10598755 .22721863L.66999819-.043792726C.6839905-.05078125 .6879883-.05078125 .6899872-.05078125 .70599368-.05078125 .71199038-.03678894 .71199038-.029785157 .71199038-.016784668 .7049866-.012786865 .69400027-.0077819826L.15699768 .2512207 .69200137 .5072174Z"/>
<path id="font_3_3" d="M.1639862 .71299746C.1639862 .7299957 .1639862 .75 .14299011 .75 .12098694 .75 .12098694 .73098757 .12098694 .71299746V-.2130127C.12098694-.23001099 .12098694-.25 .14199829-.25 .1639862-.25 .1639862-.23100281 .1639862-.2130127V.71299746Z"/>
<path id="font_2_8" d="M.49198915 .40434266C.45498658 .39733888 .44400025 .3653412 .44400025 .3503418 .44400025 .33132936 .45799256 .31433106 .48298646 .31433106 .5109863 .31433106 .5379944 .33833314 .5379944 .3733368 .5379944 .41937257 .48799134 .4423828 .44099427 .4423828 .3809967 .4423828 .34599305 .38934327 .33399964 .3683319 .31498719 .41737367 .2709961 .4423828 .22299195 .4423828 .115997318 .4423828 .057998659 .31433106 .057998659 .28833009 .057998659 .2793274 .06498718 .2763214 .07199097 .2763214 .08099365 .2763214 .083999637 .2813263 .085998538 .287323 .116989139 .38633729 .18299866 .41737367 .22099304 .41737367 .25 .41737367 .27598573 .3983307 .27598573 .35133363 .27598573 .31533814 .23298645 .15530396 .21998596 .107284549 .21199036 .076293949 .18199158 .014251709 .1269989 .014251709 .10699463 .014251709 .085998538 .021270752 .07598877 .027282715 .102996829 .032287599 .12298584 .055282594 .12298584 .08128357 .12298584 .106292728 .10398865 .11729431 .084991458 .11729431 .055999757 .11729431 .02999878 .092285159 .02999878 .058288576 .02999878 .009246826 .083999637-.0107421879 .12599182-.0107421879 .18399048-.0107421879 .21798706 .03729248 .23298645 .06428528 .2579956-.0017547608 .31698609-.0107421879 .34399415-.0107421879 .45199586-.0107421879 .5089874 .11929321 .5089874 .14329529 .5089874 .14830017 .5059967 .15530396 .49598695 .15530396 .4850006 .15530396 .48399354 .1512909 .47898866 .1362915 .45700074 .06428528 .39898683 .014251709 .34700013 .014251709 .31799317 .014251709 .29100038 .032287599 .29100038 .08029175 .29100038 .10229492 .30499269 .15730286 .31399537 .1953125 .31799317 .21331787 .34498597 .32133485 .34700013 .32833863 .35899354 .3643341 .3889923 .41737367 .43998719 .41737367 .45799256 .41737367 .47698976 .41436769 .49198915 .40434266Z"/>
<path id="font_4_5" d="M.70799258 .3310089C.7220001 .3310089 .7409973 .3310089 .7409973 .35202027 .7409973 .37402345 .71899417 .37402345 .70399478 .37402345H.09399414C.07899475 .37402345 .056991579 .37402345 .056991579 .35202027 .056991579 .3310089 .07699585 .3310089 .08999634 .3310089H.70799258M.70399478 .12695313C.71899417 .12695313 .7409973 .12695313 .7409973 .14894104 .7409973 .1699524 .7220001 .1699524 .70799258 .1699524H.08999634C.07699585 .1699524 .056991579 .1699524 .056991579 .14894104 .056991579 .12695313 .07899475 .12695313 .09399414 .12695313H.70399478Z"/>
<path id="font_3_2" d="M.73999026 .3310089C.79100039 .28700257 .83999636 .2639923 .8730011 .25097657 .8299866 .23197937 .7849884 .20796204 .73999026 .1699524H.09199524C.07699585 .1699524 .056991579 .1699524 .056991579 .14894104 .056991579 .12695313 .07899475 .12695313 .09700012 .12695313H.69200137C.6289978 .060073854 .59399417-.0087890629 .59399417-.016799927 .59399417-.029800415 .60598757-.029800415 .61499026-.029800415 .6269989-.029800415 .6319885-.029800415 .6369934-.02079773 .71798709 .13494873 .8299866 .20196533 .95899966 .23797608 .96699526 .23997498 .9700012 .24597168 .9700012 .24998474 .9700012 .25997926 .96099856 .26197816 .95899966 .26298524 .9099884 .2769928 .83999636 .29600526 .7539978 .36901856 .71699526 .401062 .6749878 .44813539 .6419983 .5112457 .6319885 .5302429 .6309967 .53125 .61499026 .53125 .60598757 .53125 .59399417 .53125 .59399417 .5182495 .59399417 .51023867 .6279907 .4421234 .69200137 .37402345H.09700012C.07899475 .37402345 .056991579 .37402345 .056991579 .35202027 .056991579 .3310089 .07699585 .3310089 .09199524 .3310089H.73999026Z"/>
<path id="font_2_7" d="M.37399293 .3996582H.46398927C.48399354 .3996582 .49398805 .3996582 .49398805 .41766358 .49398805 .43066407 .48399354 .43066407 .46499635 .43066407H.37998963C.3909912 .49082948 .40499879 .5730438 .41799928 .62705996 .4269867 .6660614 .45098878 .68006899 .47099305 .68006899 .47698976 .68006899 .5 .67807009 .5169983 .6660614 .49699403 .66204836 .46798707 .6440582 .46798707 .61105349 .46798707 .5860596 .4869995 .575058 .5059967 .575058 .5329895 .575058 .5609894 .59706118 .5609894 .63505557 .5609894 .68006899 .5169983 .7050781 .46998597 .7050781 .4249878 .7050781 .37998963 .6730652 .35899354 .63204959 .33699037 .5890503 .32998658 .5499878 .30899049 .43066407H.23699951C.21798706 .43066407 .20599365 .43066407 .20599365 .4126587 .20599365 .3996582 .21699524 .3996582 .23498535 .3996582H.30299378C.2749939 .25474549 .23999024 .054855348 .21798706-.049087526 .20599365-.10406494 .18998719-.18008423 .14199829-.18008423 .1269989-.18008423 .10699463-.17407227 .09700012-.16607666 .12199402-.1620636 .14698792-.1410675 .14698792-.111068729 .14698792-.08607483 .12799073-.07507324 .10899353-.07507324 .08198547-.07507324 .053985597-.097076419 .053985597-.1350708 .053985597-.18109131 .099990848-.20507813 .14199829-.20507813 .24398804-.20507813 .29100038-.039093019 .30699159 .04685974L.37399293 .3996582Z"/>
<path id="font_4_1" d="M.34098817-.23803711C.34098817-.23303223 .33799745-.23002625 .33198548-.22303772 .20298767-.105026248 .1639862 .07498169 .1639862 .24996948 .1639862 .40498353 .19400025 .59298709 .33499146 .72698977 .33898927 .73098757 .34098817 .73399356 .34098817 .7389984 .34098817 .74598696 .33599855 .75 .32899476 .75 .31698609 .75 .22698975 .6779785 .17298889 .568985 .125 .47297669 .100997928 .36997987 .100997928 .25097657 .100997928 .17897034 .10998535 .064971927 .16499329-.053024293 .22399903-.17602539 .31698609-.24902344 .32899476-.24902344 .33599855-.24902344 .34098817-.24502564 .34098817-.23803711Z"/>
<path id="font_4_2" d="M.2979889 .25097657C.2979889 .3329773 .28599549 .4429779 .23399353 .5539856 .1749878 .6769867 .08198547 .75 .069992069 .75 .05999756 .75 .057998659 .74198916 .057998659 .7389984 .057998659 .73399356 .05999756 .73098757 .066986087 .72398379 .125 .6719818 .23498535 .5359802 .23498535 .25097657 .23498535 .10797119 .20899964-.091033939 .06399536-.22602844 .06199646-.22903443 .057998659-.23303223 .057998659-.23803711 .057998659-.24102783 .05999756-.24902344 .069992069-.24902344 .08198547-.24902344 .17199707-.17703247 .22599793-.06802368 .27398683 .02796936 .2979889 .13098145 .2979889 .25097657Z"/>
<path id="font_2_9" d="M.5019989 .38536073C.5029907 .3903656 .5049896 .39637757 .5049896 .40237428 .5049896 .41537477 .49598695 .43138124 .47399903 .43138124 .46099855 .43138124 .44299317 .42337037 .43499757 .40437318 .43399049 .40037538 .42399598 .35935975 .41799928 .33735658L.36799623 .13728333C.3600006 .10827637 .3600006 .106277469 .35798646 .09727478 .35699464 .09327698 .31498719 .014251709 .24299622 .014251709 .18099976 .014251709 .18099976 .07727051 .18099976 .09628296 .18099976 .14129639 .19400025 .19030762 .23699951 .30233766 .24499512 .3253479 .25099183 .33935548 .25099183 .35835267 .25099183 .40737916 .21398926 .4423828 .16499329 .4423828 .068984989 .4423828 .0289917 .30033876 .0289917 .28833009 .0289917 .2793274 .035995485 .27633668 .042999269 .27633668 .053985597 .27633668 .054992677 .28233338 .05899048 .29533387 .07998657 .3693695 .11999512 .41737367 .1619873 .41737367 .18598938 .41737367 .18598938 .39837647 .18598938 .3843689 .18598938 .36735536 .18199158 .34934999 .17298889 .3253479 .12599182 .2013092 .11299133 .15930176 .11299133 .11128235 .11299133 .00024414063 .20298767-.0107421879 .23999024-.0107421879 .2889862-.0107421879 .32398988 .01524353 .34199525 .0332489 .32899476-.017745972 .31799317-.0627594 .2789917-.11276245 .24899292-.15286255 .20899964-.18008423 .16499329-.18008423 .13699341-.18008423 .10398865-.16999817 .08999634-.14176941 .14299011-.14176941 .1499939-.09776306 .1499939-.087768558 .1499939-.06576538 .13398743-.051757814 .11199951-.051757814 .08799744-.051757814 .055999757-.07077026 .055999757-.116760257 .055999757-.16899109 .101989749-.20507813 .16499329-.20507813 .2669983-.20507813 .37599183-.117767337 .40499879-.00074768069L.5019989 .38536073Z"/>
</defs>
<path transform="matrix(1,0,0,-1,124.02156,119.885)" d="M-112.25262-37.41788V37.41788H112.25262V-37.41788ZM112.25262 37.41788" fill="#fff9b8"/>
<path transform="matrix(1,0,0,-1,124.02156,119.885)" d="M-47.62227-88.442V88.442H47.62227V-88.442ZM47.62227 88.442" fill="#d9d9ff"/>
<path transform="matrix(1,0,0,-1,124.02156,119.885)" stroke-width=".79701" stroke-linecap="butt" stroke-dasharray="2.98883,2.98883" stroke-miterlimit="10" stroke-linejoin="miter" fill="none" stroke="#000000" d="M-47.62227-37.41788V37.41788H47.62227V-37.41788ZM47.62227 37.41788"/>
<path transform="matrix(1,0,0,-1,124.02156,119.885)" stroke-width=".79701" stroke-linecap="butt" stroke-miterlimit="10" stroke-linejoin="miter" fill="none" stroke="#000000" d="M-115.65443 0H114.92023"/>
<path transform="matrix(1,0,0,-1,238.94179,119.885)" d="M4.53381 0C3.97704 .13808 1.52963 .92049 0 1.77196V-1.77196C1.52963-.92049 3.97704-.13808 4.53381 0Z"/>
<path transform="matrix(1,0,0,-1,238.94179,119.885)" stroke-width=".79701" stroke-linecap="butt" stroke-miterlimit="10" stroke-linejoin="miter" fill="none" stroke="#000000" d="M4.53381 0C3.97704 .13808 1.52963 .92049 0 1.77196V-1.77196C1.52963-.92049 3.97704-.13808 4.53381 0Z"/>
<use data-text="x" xlink:href="#font_1_1" transform="matrix(9.96264,0,0,-9.96264,248.8378,122.02974)"/>
<path transform="matrix(1,0,0,-1,124.02156,119.885)" stroke-width=".79701" stroke-linecap="butt" stroke-miterlimit="10" stroke-linejoin="miter" fill="none" stroke="#000000" d="M0-91.84383V92.46947"/>
<path transform="matrix(0,-1,-1,-0,124.02156,27.415535)" d="M4.53381 0C3.97704 .13808 1.52963 .92049 0 1.77196V-1.77196C1.52963-.92049 3.97704-.13808 4.53381 0Z"/>
<path transform="matrix(0,-1,-1,-0,124.02156,27.415535)" stroke-width=".79701" stroke-linecap="butt" stroke-miterlimit="10" stroke-linejoin="miter" fill="none" stroke="#000000" d="M4.53381 0C3.97704 .13808 1.52963 .92049 0 1.77196V-1.77196C1.52963-.92049 3.97704-.13808 4.53381 0Z"/>
<use data-text="y" xlink:href="#font_1_2" transform="matrix(9.96264,0,0,-9.96264,121.40056,15.582344)"/>
<path transform="matrix(1,0,0,-1,124.02156,119.885)" stroke-width=".79701" stroke-linecap="butt" stroke-miterlimit="10" stroke-linejoin="miter" fill="none" stroke="#000000" d="M-105.45006-78.76183C-105.45006-78.76183-104.16972-77.42651-103.67804-76.92026-103.18633-76.414-102.3977-75.61028-101.906-75.11295-101.4143-74.61563-100.62569-73.82428-100.13399-73.33575-99.64227-72.84721-98.85367-72.07166-98.36195-71.59175-97.87025-71.11182-97.08163-70.34863-96.58994-69.87682-96.09824-69.405-95.30965-68.65517-94.81795-68.19098-94.32625-67.72678-93.53763-66.98778-93.04591-66.53107-92.55423-66.07436-91.76561-65.34842-91.2739-64.89919-90.7822-64.44995-89.99358-63.73558-89.50188-63.29327-89.01018-62.85098-88.22156-62.14664-87.72984-61.71123-87.23816-61.27582-86.44954-60.58418-85.95782-60.15512-85.46613-59.72606-84.67755-59.04175-84.18584-58.61874-83.69414-58.19576-82.90553-57.52274-82.41382-57.10625-81.92212-56.68974-81.1335-56.02751-80.6418-55.61661-80.1501-55.20572-79.36148-54.54991-78.86977-54.1446-78.37808-53.73929-77.58946-53.09541-77.09775-52.69543-76.60605-52.29546-75.81743-51.65671-75.32573-51.26181-74.83403-50.8669-74.04546-50.2387-73.55374-49.84897-73.06204-49.45923-72.27342-48.83774-71.78171-48.45274-71.29002-48.06775-70.5014-47.45467-70.00969-47.07416-69.51799-46.69366-68.72939-46.0866-68.23767-45.71011-67.74597-45.33363-66.95735-44.7328-66.46565-44.36061-65.97395-43.98843-65.18533-43.39566-64.69362-43.0277-64.20193-42.65971-63.41335-42.07251-62.92163-41.7083-62.42995-41.34407-61.64133-40.76302-61.14961-40.40236-60.65791-40.04172-59.8693-39.4661-59.3776-39.1089-58.8859-38.75172-58.09727-38.1819-57.60556-37.8279-57.11388-37.47389-56.32526-36.90811-55.83354-36.55728-55.34184-36.20644-54.55324-35.64665-54.06152-35.29913-53.56982-34.95161-52.78125-34.39731-52.28954-34.0524-51.79784-33.70746-51.00922-33.15508-50.51752-32.8129-50.02582-32.4707-49.2372-31.92549-48.74548-31.58589-48.2538-31.24628-47.46518-30.70226-46.97346-30.36511-46.48177-30.02794-45.69315-29.49042-45.20145-29.15572-44.70975-28.821-43.92113-28.2853-43.42941-27.9526-42.93773-27.61989-42.14914-27.08827-41.65744-26.75772-41.16574-26.42717-40.37712-25.89867-39.8854-25.57014-39.39372-25.24164-38.6051-24.7165-38.11339-24.38986-37.62169-24.06322-36.83307-23.54086-36.34137-23.21579-35.84966-22.8907-35.06105-22.37022-34.56934-22.04689-34.07764-21.72357-33.28903-21.20717-32.79732-20.88525-32.3056-20.56335-31.51704-20.04736-31.02533-19.72676-30.53362-19.40617-29.74503-18.8935-29.25331-18.57446-28.7616-18.25545-27.97299-17.74524-27.4813-17.42738-26.98958-17.10953-26.20097-16.60014-25.70926-16.2834-25.21754-15.96669-24.42896-15.4602-23.93724-15.14465-23.44553-14.8291-22.65692-14.3235-22.16522-14.00897-21.67351-13.69443-20.88493-13.1913-20.39323-12.87747-19.90152-12.56363-19.11292-12.05995-18.6212-11.747-18.1295-11.43402-17.3409-10.93393-16.84918-10.62169-16.35747-10.30946-15.56886-9.80789-15.07716-9.4964-14.58545-9.18489-13.79683-8.68713-13.30513-8.37631-12.81343-8.0655-12.02481-7.56671-11.53311-7.2562-11.0414-6.94568-10.25282-6.44827-9.76112-6.1382-9.26942-5.82811-8.4808-5.33083-7.9891-5.0212-7.49739-4.71155-6.70877-4.2155-6.21709-3.9063-5.72537-3.59709-4.93675-3.10147-4.44505-2.79242-3.95335-2.48334-3.16473-1.98749-2.67303-1.67856-2.18132-1.36966-1.3927-.87437-.90102-.56572-.4093-.25706 .37921 .23724 .87091 .54602 1.36261 .85478 2.15123 1.3508 2.64293 1.65985 3.13464 1.96892 3.92326 2.46468 4.41495 2.77373 4.90666 3.08278 5.69528 3.5784 6.18698 3.8876 6.67868 4.19682 7.4673 4.69286 7.959 5.0025 8.45071 5.31215 9.23933 5.8094 9.73102 6.11949 10.22273 6.42957 11.0113 6.92714 11.503 7.23752 11.99472 7.5479 12.78334 8.04562 13.27502 8.35658 13.76674 8.66754 14.55536 9.16727 15.04706 9.47878 15.53877 9.79028 16.32738 10.28986 16.81908 10.60196 17.31079 10.91405 18.09941 11.41534 18.5911 11.7283 19.08281 12.04126 19.87143 12.54402 20.36313 12.85771 20.85483 13.17142 21.64342 13.67458 22.13512 13.98926 22.62682 14.30394 23.41544 14.81038 23.90714 15.12595 24.39885 15.4415 25.18745 15.94714 25.67915 16.2637 26.17087 16.58029 26.95949 17.08998 27.45119 17.40768 27.94289 17.72539 28.7315 18.2347 29.2232 18.5537 29.71492 18.87273 30.50352 19.38629 30.99522 19.70703 31.48694 20.02776 32.27551 20.5438 32.76721 20.86555 33.25893 21.18732 34.04755 21.7031 34.53923 22.02614 35.03094 22.34917 35.81956 22.8689 36.31126 23.19397 36.80296 23.51904 37.59158 24.04216 38.08328 24.36911 38.575 24.69604 39.36362 25.22192 39.8553 25.55045 40.34702 25.87895 41.13564 26.40656 41.62733 26.73695 42.11903 27.06737 42.90762 27.59924 43.3993 27.93181 43.89102 28.26436 44.67964 28.79921 45.17134 29.13393 45.66304 29.46864 46.45166 30.00703 46.94337 30.34435 47.43507 30.68164 48.2237 31.22566 48.7154 31.56512 49.20709 31.90459 49.99571 32.44917 50.48743 32.79112 50.97911 33.13306 51.76773 33.68448 52.25945 34.02954 52.75114 34.37463 53.53972 34.93059 54.03143 35.27838 54.52313 35.62619 55.31174 36.18597 55.80345 36.53651 56.29515 36.88705 57.08377 37.45122 57.57547 37.8051 58.06717 38.15897 58.85579 38.72993 59.3475 39.08713 59.83919 39.4443 60.6278 40.01901 61.11952 40.37952 61.61122 40.74004 62.39984 41.32108 62.89154 41.68546 63.38324 42.04982 64.17183 42.63792 64.66353 43.0059 65.15523 43.3739 65.94385 43.9659 66.43556 44.33778 66.92725 44.70967 67.71587 45.3102 68.20758 45.68625 68.69928 46.0623 69.48788 46.66788 69.9796 47.04823 70.4713 47.42859 71.25992 48.04254 71.75162 48.42783 72.24332 48.81311 73.03194 49.43523 73.52365 49.82512 74.01535 50.21498 74.80392 50.84317 75.29564 51.23795 75.78732 51.6327 76.57594 52.27083 77.06766 52.67052 77.55936 53.0702 78.34798 53.71361 78.83968 54.11862 79.33138 54.52364 80.12 55.17883 80.61171 55.58961 81.1034 56.00038 81.89201 56.66277 82.38373 57.07928 82.87543 57.49579 83.66405 58.16919 84.15575 58.59175 84.64745 59.01431 85.43602 59.6961 85.92773 60.12502 86.41943 60.55392 87.20805 61.24765 87.69975 61.68321 88.19145 62.11876 88.98007 62.82219 89.47179 63.26419 89.96347 63.7062 90.75209 64.41985 91.2438 64.86908 91.7355 65.31831 92.52412 66.04572 93.01582 66.50198 93.50752 66.95827 94.29614 67.69383 94.78786 68.15773 95.27954 68.62163 96.06813 69.37355 96.55984 69.84566 97.05153 70.31778 97.84015 71.08055 98.33186 71.56058 98.82356 72.04062 99.61217 72.8171 100.10388 73.3056 100.59558 73.79413 101.3842 74.58463 101.8759 75.08179 102.3676 75.57896 103.15622 76.38327 103.64793 76.88908 104.13962 77.39493 105.41995 78.72755 105.41995 78.72755"/>
<path transform="matrix(1,0,0,-1,124.02156,119.885)" d="M2.38133 0C2.38133 1.31517 1.31517 2.38133 0 2.38133-1.31517 2.38133-2.38133 1.31517-2.38133 0-2.38133-1.31517-1.31517-2.38133 0-2.38133 1.31517-2.38133 2.38133-1.31517 2.38133 0ZM0 0"/>
<path transform="matrix(1,0,0,-1,124.02156,119.885)" stroke-width=".79701" stroke-linecap="butt" stroke-miterlimit="10" stroke-linejoin="miter" fill="none" stroke="#000000" d="M-47.62227 2.7208V-2.7208"/>
<path transform="matrix(1,0,0,-1,124.02156,119.885)" stroke-width=".79701" stroke-linecap="butt" stroke-miterlimit="10" stroke-linejoin="miter" fill="none" stroke="#000000" d="M47.62227 2.7208V-2.7208"/>
<path transform="matrix(1,0,0,-1,124.02156,119.885)" stroke-width=".79701" stroke-linecap="butt" stroke-miterlimit="10" stroke-linejoin="miter" fill="none" stroke="#000000" d="M2.7208 37.41788H-2.7208"/>
<path transform="matrix(1,0,0,-1,124.02156,119.885)" stroke-width=".79701" stroke-linecap="butt" stroke-miterlimit="10" stroke-linejoin="miter" fill="none" stroke="#000000" d="M2.7208-37.41788H-2.7208"/>
<use data-text="a" xlink:href="#font_2_6" transform="matrix(8.966376,0,0,-8.966376,66.113849,135.34119)"/>
<use data-text="&#x2212;" xlink:href="#font_3_1" transform="matrix(8.966376,0,0,-8.966376,73.04372,135.34119)"/>
<use data-text="&#x03b4;" xlink:href="#font_2_1" transform="matrix(8.966376,0,0,-8.966376,82.259098,135.34119)"/>
<use data-text="a" xlink:href="#font_2_6" transform="matrix(8.966376,0,0,-8.966376,161.35839,135.34119)"/>
<use data-text="+" xlink:href="#font_4_3" transform="matrix(8.966376,0,0,-8.966376,168.28826,135.34119)"/>
<use data-text="&#x03b4;" xlink:href="#font_2_1" transform="matrix(8.966376,0,0,-8.966376,177.50363,135.34119)"/>
<use data-text="a" xlink:href="#font_2_6" transform="matrix(8.966376,0,0,-8.966376,128.53765,128.26163)"/>
<use data-text="L" xlink:href="#font_2_5" transform="matrix(8.966376,0,0,-8.966376,92.97971,85.115558)"/>
<use data-text="+" xlink:href="#font_4_3" transform="matrix(8.966376,0,0,-8.966376,101.29846,85.115558)"/>
<use data-text="&#x03b5;" xlink:href="#font_2_2" transform="matrix(8.966376,0,0,-8.966376,110.51384,85.115558)"/>
<use data-text="L" xlink:href="#font_2_5" transform="matrix(8.966376,0,0,-8.966376,92.97971,159.95133)"/>
<use data-text="&#x2212;" xlink:href="#font_3_1" transform="matrix(8.966376,0,0,-8.966376,101.29846,159.95133)"/>
<use data-text="&#x03b5;" xlink:href="#font_2_2" transform="matrix(8.966376,0,0,-8.966376,110.51384,159.95133)"/>
<use data-text="L" xlink:href="#font_2_5" transform="matrix(8.966376,0,0,-8.966376,110.2457,122.948528)"/>
<path transform="matrix(1,0,0,-1,124.02156,119.885)" d="M95.23201 92.83H47.6359C46.53542 92.83 45.64334 91.93793 45.64334 90.83745V69.7174C45.64334 68.61693 46.53542 67.72485 47.6359 67.72485H95.23201C96.33249 67.72485 97.22456 68.61693 97.22456 69.7174V90.83745C97.22456 91.93793 96.33249 92.83 95.23201 92.83ZM45.64334 67.72485" fill="#fff799"/>
<path transform="matrix(1,0,0,-1,124.02156,119.885)" stroke-width=".3985" stroke-linecap="butt" stroke-miterlimit="10" stroke-linejoin="miter" fill="none" stroke="#c1b654" d="M95.23201 92.83H47.6359C46.53542 92.83 45.64334 91.93793 45.64334 90.83745V69.7174C45.64334 68.61693 46.53542 67.72485 47.6359 67.72485H95.23201C96.33249 67.72485 97.22456 68.61693 97.22456 69.7174V90.83745C97.22456 91.93793 96.33249 92.83 95.23201 92.83ZM45.64334 67.72485"/>
<use data-text="C" xlink:href="#font_5_42" transform="matrix(8.966376,0,0,-8.966376,172.65373,36.36534)"/>
<use data-text="h" xlink:href="#font_5_63" transform="matrix(8.966376,0,0,-8.966376,179.3068,36.36534)"/>
<use data-text="a" xlink:href="#font_5_28" transform="matrix(8.966376,0,0,-8.966376,184.42659,36.36534)"/>
<use data-text="l" xlink:href="#font_5_72" transform="matrix(8.966376,0,0,-8.966376,189.03531,36.36534)"/>
<use data-text="l" xlink:href="#font_5_72" transform="matrix(8.966376,0,0,-8.966376,191.59969,36.36534)"/>
<use data-text="e" xlink:href="#font_5_50" transform="matrix(8.966376,0,0,-8.966376,194.16407,36.36534)"/>
<use data-text="n" xlink:href="#font_5_77" transform="matrix(8.966376,0,0,-8.966376,198.2617,36.36534)"/>
<use data-text="g" xlink:href="#font_5_59" transform="matrix(8.966376,0,0,-8.966376,203.3815,36.36534)"/>
<use data-text="e" xlink:href="#font_5_50" transform="matrix(8.966376,0,0,-8.966376,207.99024,36.36534)"/>
<use data-text="r" xlink:href="#font_5_96" transform="matrix(8.966376,0,0,-8.966376,212.08786,36.36534)"/>
<use data-text=":" xlink:href="#font_5_44" transform="matrix(8.966376,0,0,-8.966376,215.69235,36.36534)"/>
<use data-text="g" xlink:href="#font_5_59" transform="matrix(8.966376,0,0,-8.966376,173.58014,47.32424)"/>
<use data-text="i" xlink:href="#font_5_66" transform="matrix(8.966376,0,0,-8.966376,178.18885,47.32424)"/>
<use data-text="v" xlink:href="#font_5_112" transform="matrix(8.966376,0,0,-8.966376,180.75324,47.32424)"/>
<use data-text="e" xlink:href="#font_5_50" transform="matrix(8.966376,0,0,-8.966376,185.36196,47.32424)"/>
<use data-text="s" xlink:href="#font_5_98" transform="matrix(8.966376,0,0,-8.966376,189.4596,47.32424)"/>
<use data-text="&#x03b5;" xlink:href="#font_2_2" transform="matrix(8.966376,0,0,-8.966376,196.15747,47.32424)"/>
<use data-text="&#x003e;" xlink:href="#font_2_4" transform="matrix(8.966376,0,0,-8.966376,202.98986,47.32424)"/>
<use data-text="0" xlink:href="#font_4_4" transform="matrix(8.966376,0,0,-8.966376,212.72267,47.32424)"/>
<path transform="matrix(1,0,0,-1,124.02156,119.885)" d="M-48.74414 92.135H-94.12375C-95.22423 92.135-96.1163 91.2429-96.1163 90.14244V70.41243C-96.1163 69.31195-95.22423 68.41988-94.12375 68.41988H-48.74414C-47.64368 68.41988-46.75159 69.31195-46.75159 70.41243V90.14244C-46.75159 91.2429-47.64368 92.135-48.74414 92.135ZM-96.1163 68.41988" fill="#ccccff"/>
<path transform="matrix(1,0,0,-1,124.02156,119.885)" stroke-width=".3985" stroke-linecap="butt" stroke-miterlimit="10" stroke-linejoin="miter" fill="none" stroke="#8080ff" d="M-48.74414 92.135H-94.12375C-95.22423 92.135-96.1163 91.2429-96.1163 90.14244V70.41243C-96.1163 69.31195-95.22423 68.41988-94.12375 68.41988H-48.74414C-47.64368 68.41988-46.75159 69.31195-46.75159 70.41243V90.14244C-46.75159 91.2429-47.64368 92.135-48.74414 92.135ZM-96.1163 68.41988"/>
<use data-text="D" xlink:href="#font_5_46" transform="matrix(8.966376,0,0,-8.966376,33.30964,37.060365)"/>
<use data-text="e" xlink:href="#font_5_50" transform="matrix(8.966376,0,0,-8.966376,40.348245,37.060365)"/>
<use data-text="f" xlink:href="#font_5_55" transform="matrix(8.966376,0,0,-8.966376,44.445878,37.060365)"/>
<use data-text="e" xlink:href="#font_5_50" transform="matrix(8.966376,0,0,-8.966376,47.261323,37.060365)"/>
<use data-text="n" xlink:href="#font_5_77" transform="matrix(8.966376,0,0,-8.966376,51.358957,37.060365)"/>
<use data-text="d" xlink:href="#font_5_47" transform="matrix(8.966376,0,0,-8.966376,56.47876,37.060365)"/>
<use data-text="e" xlink:href="#font_5_50" transform="matrix(8.966376,0,0,-8.966376,61.598566,37.060365)"/>
<use data-text="r" xlink:href="#font_5_96" transform="matrix(8.966376,0,0,-8.966376,65.6962,37.060365)"/>
<use data-text=":" xlink:href="#font_5_44" transform="matrix(8.966376,0,0,-8.966376,69.30068,37.060365)"/>
<use data-text="f" xlink:href="#font_5_125" transform="matrix(8.966376,0,0,-8.966376,30.894089,48.019266)"/>
<use data-text="n" xlink:href="#font_5_77" transform="matrix(8.966376,0,0,-8.966376,36.01389,48.019266)"/>
<use data-text="d" xlink:href="#font_5_47" transform="matrix(8.966376,0,0,-8.966376,41.13369,48.019266)"/>
<use data-text="s" xlink:href="#font_5_98" transform="matrix(8.966376,0,0,-8.966376,46.253496,48.019266)"/>
<use data-text="&#x03b4;" xlink:href="#font_2_1" transform="matrix(8.966376,0,0,-8.966376,52.960344,48.019266)"/>
<use data-text="&#x003e;" xlink:href="#font_2_4" transform="matrix(8.966376,0,0,-8.966376,59.936189,48.019266)"/>
<use data-text="0" xlink:href="#font_4_4" transform="matrix(8.966376,0,0,-8.966376,69.67291,48.019266)"/>
<use data-text="0" xlink:href="#font_4_4" transform="matrix(8.966376,0,0,-8.966376,52.900499,234.37924)"/>
<use data-text="&#x003c;" xlink:href="#font_2_3" transform="matrix(8.966376,0,0,-8.966376,60.068017,234.37924)"/>
<use data-text="|" xlink:href="#font_3_3" transform="matrix(8.966376,0,0,-8.966376,69.795368,234.37924)"/>
<use data-text="x" xlink:href="#font_2_8" transform="matrix(8.966376,0,0,-8.966376,72.355197,234.37924)"/>
<use data-text="&#x2212;" xlink:href="#font_3_1" transform="matrix(8.966376,0,0,-8.966376,79.62651,234.37924)"/>
<use data-text="a" xlink:href="#font_2_6" transform="matrix(8.966376,0,0,-8.966376,88.84189,234.37924)"/>
<use data-text="|" xlink:href="#font_3_3" transform="matrix(8.966376,0,0,-8.966376,93.7239,234.37924)"/>
<use data-text="&#x003c;" xlink:href="#font_2_3" transform="matrix(8.966376,0,0,-8.966376,98.84356,234.37924)"/>
<use data-text="&#x03b4;" xlink:href="#font_2_1" transform="matrix(8.966376,0,0,-8.966376,108.56311,234.37924)"/>
<use data-text="=" xlink:href="#font_4_5" transform="matrix(8.966376,0,0,-8.966376,118.11595,234.37924)"/>
<use data-text="&#x21d2;" xlink:href="#font_3_2" transform="matrix(8.966376,0,0,-8.966376,123.747577,234.37924)"/>
<use data-text="|" xlink:href="#font_3_3" transform="matrix(8.966376,0,0,-8.966376,138.06688,234.37924)"/>
<use data-text="f" xlink:href="#font_2_7" transform="matrix(8.966376,0,0,-8.966376,140.64244,234.37924)"/>
<use data-text="(" xlink:href="#font_4_1" transform="matrix(8.966376,0,0,-8.966376,146.09075,234.37924)"/>
<use data-text="x" xlink:href="#font_2_8" transform="matrix(8.966376,0,0,-8.966376,149.6745,234.37924)"/>
<use data-text=")" xlink:href="#font_4_2" transform="matrix(8.966376,0,0,-8.966376,154.89795,234.37924)"/>
<use data-text="&#x2212;" xlink:href="#font_3_1" transform="matrix(8.966376,0,0,-8.966376,160.52957,234.37924)"/>
<use data-text="L" xlink:href="#font_2_5" transform="matrix(8.966376,0,0,-8.966376,169.74495,234.37924)"/>
<use data-text="|" xlink:href="#font_3_3" transform="matrix(8.966376,0,0,-8.966376,176.01584,234.37924)"/>
<use data-text="&#x003c;" xlink:href="#font_2_3" transform="matrix(8.966376,0,0,-8.966376,181.1355,234.37924)"/>
<use data-text="&#x03b5;" xlink:href="#font_2_2" transform="matrix(8.966376,0,0,-8.966376,190.85506,234.37924)"/>
<use data-text="y" xlink:href="#font_2_9" transform="matrix(8.966376,0,0,-8.966376,232.99141,43.209085)"/>
<use data-text="=" xlink:href="#font_4_5" transform="matrix(8.966376,0,0,-8.966376,240.41146,43.209085)"/>
<use data-text="f" xlink:href="#font_2_7" transform="matrix(8.966376,0,0,-8.966376,250.1388,43.209085)"/>
<use data-text="(" xlink:href="#font_4_1" transform="matrix(8.966376,0,0,-8.966376,255.5871,43.209085)"/>
<use data-text="x" xlink:href="#font_2_8" transform="matrix(8.966376,0,0,-8.966376,259.17088,43.209085)"/>
<use data-text=")" xlink:href="#font_4_2" transform="matrix(8.966376,0,0,-8.966376,264.39433,43.209085)"/>
</svg>
