<svg xmlns="http://www.w3.org/2000/svg" xmlns:xlink="http://www.w3.org/1999/xlink" xmlns:inkscape="http://www.inkscape.org/namespaces/inkscape" version="1.1" width="246.59" height="207.17" viewBox="0 0 246.59 207.17">
<defs>
<path id="font_1_1" d="M.4269867 .6066284C.43399049 .63461306 .43798829 .64060977 .44999696 .6436157 .45899964 .6456146 .49198915 .6456146 .5130005 .6456146 .6139984 .6456146 .6589966 .6416168 .6589966 .56365969 .6589966 .54867556 .6549988 .50968936 .651001 .4837036 .6499939 .4797058 .647995 .4677124 .647995 .46472169 .647995 .45872499 .651001 .45173646 .6599884 .45173646 .67099 .45173646 .6729889 .45973207 .6749878 .4747162L.70199587 .64860537C.7029877 .65260317 .70399478 .6626129 .70399478 .66560366 .70399478 .6766052 .69400027 .6766052 .6769867 .6766052H.12199402C.09799194 .6766052 .09700012 .6756134 .08999634 .6566162L.02999878 .4807129C.0289917 .478714 .023986817 .46472169 .023986817 .46272279 .023986817 .45672608 .0289917 .45173646 .035995485 .45173646 .04598999 .45173646 .04699707 .45672608 .052993776 .4727173 .10699463 .6276245 .1329956 .6456146 .2809906 .6456146H.31999208C.34799195 .6456146 .34799195 .6416168 .34799195 .6336212 .34799195 .6276245 .34498597 .6156311 .34399415 .6126251L.20999146 .07896423C.20098877 .041992189 .19799805 .0309906 .09098816 .0309906 .054992677 .0309906 .04899597 .0309906 .04899597 .011993408 .04899597 0 .05999756 0 .06599426 0 .09298706 0 .12098694 .0019989014 .147995 .0019989014 .17599488 .0019989014 .20498657 .0029907227 .23298645 .0029907227 .26098634 .0029907227 .2889862 .0019989014 .31599427 .0019989014 .34498597 .0019989014 .375 0 .40299989 0 .41299439 0 .4249878 0 .4249878 .019989014 .4249878 .0309906 .4169922 .0309906 .3909912 .0309906 .3659973 .0309906 .35299684 .0309906 .32699586 .032989503 .2979889 .035995485 .2899933 .038986207 .2899933 .054977418 .2899933 .05596924 .2899933 .06097412 .2939911 .07595825L.4269867 .6066284Z"/>
<path id="font_1_2" d="M.6279907 .5686035C.6769867 .64660647 .71899417 .6496124 .7559967 .6516113 .7679901 .65260317 .7689972 .6696167 .7689972 .6706085 .7689972 .6786041 .7639923 .6826172 .7559967 .6826172 .7299957 .6826172 .70098879 .6796112 .673996 .6796112 .6409912 .6796112 .6069946 .6826172 .57499697 .6826172 .56900027 .6826172 .55599978 .6826172 .55599978 .66360476 .55599978 .65260317 .5649872 .6516113 .57199099 .6516113 .598999 .6496124 .6179962 .63960269 .6179962 .61860659 .6179962 .6036072 .6029968 .581604 .6029968 .5805969L.29599 .092544559 .22799683 .62161257C.22799683 .63861086 .25099183 .6516113 .29699708 .6516113 .31098939 .6516113 .32199098 .6516113 .32199098 .6716156 .32199098 .680603 .31399537 .6826172 .30799867 .6826172 .2679901 .6826172 .22499085 .6796112 .18399048 .6796112 .1659851 .6796112 .14698792 .680603 .1289978 .680603 .11099243 .680603 .09199524 .6826172 .07499695 .6826172 .067993167 .6826172 .055999757 .6826172 .055999757 .66360476 .055999757 .6516113 .06498718 .6516113 .08099365 .6516113 .13699341 .6516113 .13798523 .64260867 .14099121 .6175995L.21998596 .0005340576C.22299195-.019470215 .22698975-.022460938 .23999024-.022460938 .2559967-.022460938 .2599945-.017471314 .2679901-.004470825L.6279907 .5686035Z"/>
<path id="font_2_1" d="M.35499574 .75C.16499329 .61598208 .114990238 .40397645 .114990238 .25097657 .114990238 .10997009 .15699768-.10902405 .35499574-.24902344 .36299134-.24902344 .375-.24902344 .375-.23703003 .375-.23103333 .37199403-.22903443 .36499024-.22203064 .23199463-.10203552 .18299866 .067977908 .18299866 .24996948 .18299866 .519989 .28599549 .65197756 .36799623 .72598269 .37199403 .7299957 .375 .73298647 .375 .73799136 .375 .75 .36299134 .75 .35499574 .75Z"/>
<path id="font_3_2" d="M.5249939 .33813478C.5109863 .3960724 .46598817 .4560547 .37199403 .4560547 .23199463 .4560547 .115997318 .35112 .07998657 .2612152 .07398987 .24423218 .05999756 .20327759 .05999756 .16331482 .05999756 .09437561 .11399841-.01953125 .269989-.01953125 .5289917-.01953125 .6339874 .30317689 .6339874 .4450531 .6339874 .61631777 .5219879 .7138672 .3880005 .7138672 .22499085 .7138672 .17999268 .58436587 .17999268 .55336 .17999268 .5453644 .18499756 .5173645 .21998596 .5173645 .25498963 .5173645 .27598573 .54837039 .27598573 .57237246 .27598573 .59936526 .2559967 .6083679 .23699951 .6103668 .2869873 .6848602 .36898805 .6848602 .38598634 .6848602 .46099855 .6848602 .5499878 .63816836 .5499878 .4962616 .5499878 .4530487 .54499819 .4180603 .526001 .33813478H.5249939M.27198792 .012466431C.15899658 .012466431 .1459961 .09738159 .1459961 .12834168 .1459961 .16731262 .17298889 .265213 .18299866 .29019166 .20098877 .33613587 .2630005 .42803956 .37599183 .42803956 .47299195 .42803956 .5049896 .35212709 .5049896 .2921753 .5049896 .22525025 .43998719 .012466431 .27198792 .012466431Z"/>
<path id="font_3_4" d="M.70700076 .57369998C.71699526 .61265566 .73298647 .64460757 .8129883 .64660647 .81799319 .64660647 .83299258 .6476135 .83299258 .6686096 .83299258 .6746063 .8279877 .6826172 .81799319 .6826172 .7859955 .6826172 .7480011 .6786041 .71499636 .6786041 .6819916 .6786041 .6399994 .6826172 .6100006 .6826172 .6049957 .6826172 .58999636 .6826172 .58999636 .660614 .58999636 .6476135 .6029968 .64660647 .6119995 .64660647 .6589966 .6456146 .6759949 .6306305 .6759949 .6056671 .6759949 .60066226 .6749878 .5956726 .673996 .5916748 .6589966 .5267639 .58599856 .22618103 .57299807 .19522095 .5169983 .06739807 .3999939 .016464234 .31799317 .016464234 .25099183 .016464234 .17999268 .05041504 .17999268 .14927674 .17999268 .17324829 .18299866 .19721985 .18899536 .22018433L.28599549 .60466006C.29499818 .63861086 .29699708 .64660647 .37399293 .64660647 .3909912 .64660647 .4039917 .64660647 .4039917 .6686096 .4039917 .6726074 .40098573 .6826172 .3880005 .6826172 .35899354 .6826172 .28599549 .6786041 .25698854 .6786041 .23999024 .6786041 .20498657 .6786041 .18798828 .6796112 .16799927 .680603 .14399719 .6826172 .125 .6826172 .11898804 .6826172 .10398865 .6826172 .10398865 .660614 .10398865 .64660647 .115997318 .64660647 .13598633 .64660647 .13699341 .64660647 .1559906 .64660647 .17399597 .64460757 .19499207 .64260867 .19699097 .64060977 .19699097 .6306305 .19699097 .6246338 .18699646 .58569338 .18099976 .5637207L.15899658 .47584535 .101989749 .2471466C.09199524 .20620728 .09199524 .19821167 .09199524 .17823792 .09199524 .05441284 .19400025-.01953125 .31399537-.01953125 .45199586-.01953125 .58599856 .09236145 .61898806 .22317505L.70700076 .57369998Z"/>
<path id="font_3_1" d="M.5009918 .70599368C.5069885 .71899417 .5069885 .72099307 .5069885 .72499087 .5069885 .7409973 .49398805 .75 .48298646 .75 .46598817 .75 .46099855 .73799136 .45599366 .72499087L.08299255-.20600891C.07699585-.2190094 .07699585-.2210083 .07699585-.2250061 .07699585-.24101258 .08999634-.25 .100997928-.25 .117996219-.25 .12298584-.23800659 .12799073-.2250061L.5009918 .70599368Z"/>
<path id="font_3_3" d="M.48599244 .6046295C.49299623 .63360598 .49499513 .63661196 .5169983 .63861086 .5219879 .63960269 .5569916 .63960269 .57699587 .63960269 .6380005 .63960269 .6639862 .63960269 .68899539 .63160708 .73399356 .61761477 .73599246 .5886383 .73599246 .5526581 .73599246 .53666689 .73599246 .52368167 .72898867 .4717102L.72698977 .46072389C.72698977 .45072938 .73399356 .4457245 .74398806 .4457245 .7589874 .4457245 .7609863 .45472718 .7630005 .47071839L.7899933 .66160586C.7899933 .6756134 .7779999 .6756134 .7599945 .6756134H.14498902C.11999512 .6756134 .117996219 .6756134 .11099243 .65460208L.04798889 .4777069C.04699707 .4737091 .042999269 .46472169 .042999269 .4597168 .042999269 .455719 .04499817 .4457245 .05999756 .4457245 .07299805 .4457245 .07499695 .45072938 .08099365 .4697113 .13899231 .62960818 .17199707 .63960269 .32398988 .63960269H.3659973C.3959961 .63960269 .39698792 .63861086 .39698792 .62960818 .39698792 .62861636 .39698792 .62361147 .3929901 .6086273L.26098634 .082962039C.2519989 .04598999 .24899292 .035995485 .14399719 .035995485 .10798645 .035995485 .09899902 .035995485 .09899902 .01399231 .09899902 .010986328 .100997928 0 .115997318 0 .14399719 0 .17399597 .0029907227 .20199585 .0029907227 .22999573 .0029907227 .2599945 .0039978029 .28799439 .0039978029 .31599427 .0039978029 .34999085 .0039978029 .37799073 .0029907227 .40499879 .0019989014 .43499757 0 .46199037 0 .46998597 0 .4850006 0 .4850006 .021987915 .4850006 .035995485 .47499085 .035995485 .44400025 .035995485 .4249878 .035995485 .40499879 .036987306 .38598634 .037994386 .35198976 .040985109 .34999085 .04498291 .34999085 .05697632 .34999085 .0639801 .34999085 .065979007 .35398866 .07997131L.48599244 .6046295Z"/>
<path id="font_2_2" d="M.08999634 .75C.08299255 .75 .070999149 .75 .070999149 .73799136 .070999149 .73298647 .07398987 .7299957 .07998657 .72299197 .1659851 .64398196 .2619934 .5089874 .2619934 .25097657 .2619934 .04197693 .19699097-.11602783 .08898926-.21403504 .07199097-.23103333 .070999149-.23202515 .070999149-.23703003 .070999149-.24203491 .07398987-.24902344 .083999637-.24902344 .09599304-.24902344 .19099427-.18302918 .25698854-.058029176 .30099488 .024978638 .32998658 .13298035 .32998658 .24996948 .32998658 .39097596 .28799439 .60998538 .08999634 .75Z"/>
<path id="font_4_2" d="M.84098818 .55859377C.84799197 .56759646 .84799197 .56959536 .86099246 .5836029 .8789978 .6036072 .9079895 .63360598 .97299197 .63760378 .98399356 .63861086 1 .63861086 1 .66560366 1 .6716156 .99598696 .6826172 .98399356 .6826172 .9700012 .6826172 .95399478 .6796112 .93899539 .6796112 .923996 .6796112 .9079895 .6786041 .8929901 .6786041 .8739929 .6786041 .85598757 .6796112 .83799746 .6796112 .81999209 .6796112 .798996 .6826172 .7809906 .6826172 .7649994 .6826172 .7569885 .6716156 .7569885 .65460208 .7569885 .63861086 .772995 .63760378 .7799988 .63760378 .79499819 .63661196 .82099917 .63261416 .82099917 .61260989 .82099917 .6056061 .81700137 .5935974 .8029938 .5746002L.45199586 .092544559 .33599855 .6026001C.33399964 .61260989 .33399964 .61460879 .33399964 .6175995 .33399964 .63160708 .3659973 .63760378 .40098573 .63760378 .4139862 .63760378 .43099977 .63760378 .43099977 .66560366 .43099977 .6736145 .4249878 .6826172 .41299439 .6826172 .3919983 .6826172 .36799623 .6796112 .34599305 .6796112 .32199098 .6796112 .29899598 .6786041 .2749939 .6786041 .2539978 .6786041 .23199463 .6796112 .21099854 .6796112 .19198609 .6796112 .16999817 .6826172 .1519928 .6826172 .14498902 .6826172 .12799073 .6826172 .12799073 .65460208 .12799073 .63760378 .14199829 .63760378 .1599884 .63760378 .21899414 .63760378 .21998596 .63061526 .22499085 .6096039L.3619995 .0065307619C.36698915-.014465332 .36898805-.022460938 .3939972-.022460938 .4059906-.022460938 .4189911-.022460938 .43598939 .0005340576L.84098818 .55859377Z"/>
<path id="font_3_5" d="M.71499636 .5637207C.7519989 .61764529 .7839966 .64260867 .83799746 .64660647 .84999087 .6476135 .86099246 .64860537 .86099246 .6686096 .86099246 .6716156 .85899356 .6826172 .8470001 .6826172 .82299807 .6826172 .7919922 .6786041 .7669983 .6786041 .7350006 .6786041 .69299319 .6826172 .6629944 .6826172 .6539917 .6826172 .6429901 .6796112 .6429901 .660614 .6429901 .6476135 .6569977 .64660647 .6609955 .64660647 .69299319 .64460757 .70199587 .6326294 .70199587 .61764529 .70199587 .6036682 .69499209 .5936737 .6839905 .57769778L.35598756 .09434509 .2649994 .60466006C.2630005 .61364749 .2630005 .61564639 .2630005 .61964419 .2630005 .64660647 .31900025 .64660647 .32598878 .64660647 .34298707 .64660647 .35598756 .64660647 .35598756 .6686096 .35598756 .6696167 .35499574 .6826172 .33898927 .6826172 .30999757 .6826172 .23899842 .6786041 .20999146 .6786041 .18499756 .6786041 .12399292 .6826172 .09899902 .6826172 .08999634 .6826172 .07899475 .6796112 .07899475 .660614 .07899475 .64660647 .09298706 .64660647 .10398865 .64660647 .1599884 .64660647 .16099549 .64060977 .1659851 .61465457L.2749939 .007446289C.2789917-.013534546 .27999879-.01953125 .29899598-.01953125 .31799317-.01953125 .32299806-.012542725 .33299256 .002456665L.71499636 .5637207Z"/>
<path id="font_4_1" d="M.58099368 .59687808C.58898928 .62786868 .58898928 .6298828 .6309967 .6298828H.73799136C.84999087 .6298828 .8639984 .59887698 .8639984 .53689578 .8639984 .52989199 .8639984 .5108948 .8569946 .46290589L.85598757 .4539032C.85598757 .4439087 .8619995 .4359131 .8769989 .4359131 .8959961 .4359131 .897995 .44491578 .8999939 .46290589L.9249878 .6418762C.9269867 .6518707 .9269867 .6538696 .9269867 .6578827 .9269867 .674881 .9109955 .674881 .8939972 .674881H.19299317C.16699219 .674881 .1659851 .674881 .1579895 .6538696L.09199524 .46990968C.09098816 .46791078 .085998538 .4539032 .085998538 .45291139 .085998538 .44691468 .08999634 .4359131 .10699463 .4359131 .12298584 .4359131 .12399292 .4389038 .1329956 .46290589 .17799378 .58187869 .20698548 .6298828 .34298707 .6298828H.45098878C.45899964 .6298828 .47299195 .6298828 .48298646 .62786868V.62187197L.34899903 .08699036C.34098817 .054992677 .33799745 .04499817 .23298645 .04499817H.21099854C.18998719 .04499817 .18899536 .04399109 .18399048 .039993287 .1789856 .034988405 .1749878 .023986817 .1749878 .016998291 .1749878 .010986328 .1789856 0 .19499207 0 .22499085 0 .25698854 .0029907227 .2869873 .0029907227 .31799317 .0029907227 .34899903 .0039978029 .37998963 .0039978029 .4119873 .0039978029 .44499208 .0029907227 .47698976 .0029907227 .5069885 .0029907227 .5389862 0 .56900027 0 .57598879 0 .59498599 0 .59498599 .027999878 .59498599 .04499817 .5799866 .04499817 .5629883 .04499817H.54100039C.5149994 .04499817 .48799134 .04499817 .46199037 .049987794 .45399476 .050994874 .44799806 .051986696 .44799806 .06298828 .44799806 .067993167 .44799806 .069992069 .45199586 .083984378L.58099368 .59687808Z"/>
<path id="font_5_5" d="M.43899537 .6086273C.44499208 .63061526 .44699098 .64060977 .46398927 .6436157 .47200013 .6456146 .5039978 .6456146 .5249939 .6456146 .6399994 .6456146 .673996 .63861086 .673996 .56066897 .673996 .54766848 .673996 .5326843 .6649933 .4737091L.6639862 .4657135C.6639862 .45872499 .66799929 .45173646 .6779938 .45173646 .6899872 .45173646 .69200137 .46072389 .69400027 .475708L.7200012 .64860537C.72099307 .6536102 .7220001 .65960696 .7220001 .6626129 .7220001 .6766052 .71199038 .6766052 .69299319 .6766052H.12399292C.099990848 .6766052 .09899902 .6756134 .09199524 .6566162L.02999878 .4807129C.025985718 .4677124 .025985718 .4657135 .025985718 .46472169 .025985718 .45973207 .0289917 .45173646 .038986207 .45173646 .049987794 .45173646 .051986696 .45773316 .057998659 .475708 .11299133 .6316223 .14399719 .6456146 .2889862 .6456146H.32798768C.35598756 .6456146 .35598756 .64260867 .35598756 .63461306 .35598756 .62861636 .35398866 .6216278 .35198976 .6136322L.21798706 .07896423C.20899964 .04298401 .20599365 .0309906 .099990848 .0309906 .067993167 .0309906 .05899048 .0309906 .05899048 .0129852299 .05899048 0 .07199097 0 .07598877 0 .101989749 0 .1309967 .0019989014 .1579895 .0019989014 .18598938 .0019989014 .21499634 .0029907227 .24299622 .0029907227 .2869873 .0029907227 .2889862 .0029907227 .32598878 .0019989014 .33898927 .0019989014 .40499879 0 .41299439 0 .42199708 0 .43399049 0 .43399049 .017990113 .43399049 .0309906 .4249878 .0309906 .3999939 .0309906 .375 .0309906 .36299134 .0309906 .33599855 .032989503 .31298829 .035995485 .30099488 .036987306 .30099488 .053985597 .30099488 .05897522 .30299378 .066970828 .30499269 .07395935L.43899537 .6086273Z"/>
<path id="font_6_1" d="M.5499878 .31877137C.5499878 .39183045 .5499878 .66503909 .30499269 .66503909 .05999756 .66503909 .05999756 .39183045 .05999756 .31877137 .05999756 .2467041 .05999756-.021484375 .30499269-.021484375 .5499878-.021484375 .5499878 .2467041 .5499878 .31877137M.30499269 .010513306C.2630005 .010513306 .19499207 .030517579 .17098999 .113601688 .15499878 .17164612 .15499878 .2697296 .15499878 .33177186 .15499878 .39883424 .15499878 .4758911 .16899109 .52993777 .19400025 .6200104 .269989 .6330261 .30499269 .6330261 .35099793 .6330261 .4169922 .6110077 .43899537 .5349426 .45399476 .48190309 .45498658 .408844 .45498658 .33177186 .45498658 .26771546 .45498658 .16664124 .43798829 .1105957 .4099884 .023513794 .33799745 .010513306 .30499269 .010513306Z"/>
<path id="font_6_2" d="M.35899354 .6349335C.35899354 .66503909 .35499574 .66503909 .32499696 .66503909 .25898744 .60058596 .15699768 .60058596 .12098694 .60058596V.5615845C.14698792 .5615845 .21299744 .5615845 .272995 .58958438V.08496094C.272995 .051986696 .272995 .038986207 .16999817 .038986207H.1269989V0C.18199158 .0039978029 .2599945 .0039978029 .31599427 .0039978029 .37199403 .0039978029 .44999696 .0039978029 .5049896 0V.038986207H.46199037C.35899354 .038986207 .35899354 .051986696 .35899354 .08496094V.6349335Z"/>
<path id="font_5_7" d="M.6459961 .5646057C.68699648 .6286011 .7220001 .6476135 .7679901 .6516113 .7799988 .65260317 .78900149 .6536102 .78900149 .6696167 .78900149 .6776123 .7829895 .6826172 .776001 .6826172 .7719879 .6826172 .746994 .6796112 .69400027 .6796112 .6619873 .6796112 .6279907 .6826172 .5970001 .6826172 .58999636 .6826172 .57899478 .680603 .57899478 .6646118 .57899478 .65260317 .58999636 .6516113 .59298709 .6516113 .6029968 .65060427 .6389923 .64860537 .6389923 .61961367 .6389923 .6116028 .6359863 .604599 .6319885 .5966034 .6279907 .5886078 .6259918 .58461 .621994 .5776062L.30899049 .092544559 .23298645 .62161257C.23298645 .63061526 .23999024 .6516113 .3019867 .6516113 .31399537 .6516113 .32598878 .6516113 .32598878 .6696167 .32598878 .680603 .31599427 .6826172 .30999757 .6826172 .2919922 .6826172 .2709961 .680603 .2519989 .680603 .23199463 .680603 .20999146 .6796112 .18899536 .6796112 .17098999 .6796112 .14299011 .6796112 .13398743 .680603 .12599182 .680603 .084991458 .6826172 .07699585 .6826172 .07299805 .6826172 .05899048 .6826172 .05899048 .6646118 .05899048 .6516113 .069992069 .6516113 .08198547 .6516113 .13798523 .6516113 .13899231 .64260867 .14299011 .6175995L.23098755 .0035247803C.23399353-.015472412 .23498535-.022460938 .2519989-.022460938 .2679901-.022460938 .27398683-.014465332 .2809906-.0024719239L.6459961 .5646057Z"/>
<path id="font_5_3" d="M.18199158 .116867069C.1329956 .036987306 .08898926 .033981325 .04899597 .0309906 .041992189 .02999878 .036987306 .021987915 .036987306 .0129852299 .036987306 .0069885256 .040985109 0 .050994874 0 .069992069 0 .116989139 .0029907227 .13598633 .0029907227 .1579895 .0029907227 .21199036 0 .23399353 0 .23999024 0 .25299073 0 .25299073 .017990113 .25299073 .02999878 .24099732 .0309906 .23799134 .0309906 .22898865 .03199768 .19099427 .033981325 .19099427 .063949588 .19099427 .077926639 .20199585 .09689331 .20498657 .101882938L.28399659 .23068238H.54499819C.5479889 .2077179 .5509949 .17378235 .55400088 .14881897 .55799868 .10987854 .56399539 .06593323 .56399539 .062942508 .56399539 .047973634 .5499878 .0309906 .49198915 .0309906 .48199464 .0309906 .46899415 .0309906 .46899415 .0129852299 .46899415 .0019989014 .47698976 0 .48399354 0 .5029907 0 .5269928 .0019989014 .5469971 .0019989014 .5669861 .0019989014 .59098818 .0029907227 .6069946 .0029907227 .6399994 .0029907227 .6419983 .0029907227 .66600039 .0019989014 .6819916 .0009918213 .7049866 0 .72099307 0 .72698977 0 .73999026 0 .73999026 .017990113 .73999026 .0309906 .72898867 .0309906 .71699526 .0309906 .6569977 .0309906 .6559906 .037979127 .6529999 .06694031L.58299258 .68881228C.58099368 .7108154 .5799866 .7158203 .5629883 .7158203 .548996 .7158203 .54299929 .7088165 .5349884 .69581606L.18199158 .116867069M.30299378 .26168824 .5049896 .5917816 .5419922 .26168824H.30299378Z"/>
<path id="font_5_4" d="M.16299439 .07595825C.1539917 .039993287 .1519928 .0309906 .07699585 .0309906 .057998659 .0309906 .04699707 .0309906 .04699707 .0129852299 .04699707 0 .056991579 0 .07499695 0H.43899537C.6009979 0 .7200012 .11793518 .7200012 .21485901 .7200012 .28581239 .6609955 .34576417 .56199648 .35676576 .6759949 .37875367 .772995 .4547119 .772995 .54367068 .772995 .6216278 .70098879 .6826172 .58200076 .6826172H.23999024C.22200012 .6826172 .20999146 .6826172 .20999146 .6646118 .20999146 .6516113 .21899414 .6516113 .23999024 .6516113 .24398804 .6516113 .2619934 .6516113 .27799989 .6496124 .29499818 .6476135 .3019867 .6456146 .3019867 .63461306 .3019867 .6296234 .30099488 .6256256 .2979889 .614624L.16299439 .07595825M.31900025 .36776734 .37998963 .6126251C.3889923 .64860537 .3909912 .6516113 .43299867 .6516113H.56799319C.6719971 .6516113 .68099978 .5726471 .68099978 .54766848 .68099978 .45870973 .58799746 .36776734 .47499085 .36776734H.31900025M.2709961 .0309906C.25698854 .0309906 .25498963 .0309906 .25099183 .03199768 .24099732 .032989503 .23799134 .033996583 .23799134 .040985109 .23799134 .04397583 .23799134 .04597473 .24299622 .063964847L.31199647 .34277345H.5C.56199648 .34277345 .625 .31578065 .625 .22485352 .625 .12593079 .5339966 .0309906 .4139862 .0309906H.2709961Z"/>
<path id="font_7_83" d="M.6409912 .49668885C.6409912 .5956421 .5379944 .6826172 .39898683 .6826172H.039993287V.6516113H.06298828C.13999939 .6516113 .14199829 .64060977 .14199829 .6036377V.0789032C.14199829 .041915895 .13999939 .030929566 .06298828 .030929566H.039993287V0C.084991458 .0029296876 .14099121 .0029296876 .18699646 .0029296876 .23298645 .0029907227 .2889862 .0029907227 .33399964 0V.0309906H.31098939C.23399353 .0309906 .23199463 .041992189 .23199463 .07896423V.31378175H.39898683C.5389862 .31378175 .6409912 .40075685 .6409912 .4967041V.49668885M.5389862 .4967041C.5389862 .4517212 .5389862 .34179688 .37298585 .34179688H.22898865V.6106262C.22898865 .64460757 .23098755 .6516113 .27799989 .6516113H.37399293C.5389862 .6516113 .5389862 .54167178 .5389862 .4967041Z"/>
<path id="font_7_28" d="M.49699403 .089141849V.14515686H.46899415V.090148929C.46899415 .07914734 .46899415 .029129029 .43299867 .029129029 .39698792 .029129029 .39698792 .07714844 .39698792 .09315491V.26818849C.39698792 .32521058 .39698792 .3592224 .35198976 .40022279 .31498719 .43322755 .2669983 .4482422 .21699524 .4482422 .1329956 .4482422 .06298828 .40623475 .06298828 .34220887 .06298828 .311203 .083999637 .2942047 .10998535 .2942047 .13699341 .2942047 .1559906 .31420899 .1559906 .34020997 .1559906 .3832245 .11099243 .38822938 .11099243 .38822938 .13798523 .41423036 .18598938 .42323304 .21499634 .42323304 .2659912 .42323304 .32299806 .3852234 .32299806 .29719544V.26419068C.2689972 .26219178 .19400025 .2571869 .1269989 .22518921 .054992677 .19017029 .032989503 .13816834 .032989503 .09814453 .032989503 .01625061 .12998963-.0107421879 .19699097-.0107421879 .27999879-.0107421879 .31799317 .04425049 .33198548 .072250369 .33699037 .030136109 .3659973-.005859375 .40899659-.005859375 .43399049-.005859375 .49699403 .009140015 .49699403 .08912659V.089141849M.32299806 .14112854C.32299806 .04425049 .24798584 .014251709 .20399475 .014251709 .15699768 .014251709 .11299133 .04824829 .11299133 .098236087 .11299133 .16423035 .16999817 .23422241 .32299806 .24023438V.14112854Z"/>
<path id="font_7_105" d="M.34199525 .12408447V.18099976H.31399537V.1270752C.31399537 .05319214 .2829895 .01725769 .24699402 .01725769 .17999268 .01725769 .17999268 .1051178 .17999268 .12309265V.3996582H.32499696V.43066407H.17999268V.6142578H.1519928C.15098572 .5304413 .115997318 .42765809 .018997193 .4246521V.3996582H.10598755V.12408447C.10598755 .012252808 .18699646-.0107421879 .23999024-.0107421879 .30699159-.011001587 .34199525 .052993776 .34199525 .12399292V.12408447Z"/>
<path id="font_7_63" d="M.5469971 0V.0309906C.49598695 .03125 .47099305 .03125 .46998597 .0622406V.25431825C.46998597 .3373413 .46998597 .36636354 .44198609 .4013672 .4189911 .42938233 .3809967 .4423828 .33099366 .4423828 .2639923 .4423828 .21499634 .40737916 .18399048 .35134889H.18299866V.69433596L.034988405 .6826172V.6516113C.102996829 .6516113 .11199951 .64463809 .11199951 .59580996V.077041629C.11199951 .0309906 .100997928 .0309906 .034988405 .0309906V0C.08198547 .0019989014 .100997928 .0029907227 .14898682 .0029907227 .19699097 .0029907227 .20999146 .0019989014 .2630005 0V.0309906C.19699097 .0309906 .18598938 .0309906 .18598938 .077041629V.2592163C.18598938 .36532594 .26098634 .41737367 .32398988 .41737367 .3829956 .41737367 .3959961 .3683319 .3959961 .30825807V.077041629C.3959961 .0309906 .3849945 .0309906 .31900025 .0309906V0C.3659973 .0019989014 .3849945 .0029907227 .43299867 .0029907227 .48098756 .0029907227 .49398805 .0019989014 .5469971 0Z"/>
<path id="font_7_82" d="M.43199159 0V.0309906H.3999939C.30699159 .0309906 .3039856 .042999269 .3039856 .08001709V.63912966C.3039856 .6640167 .30299378 .6660156 .27799989 .6660156 .21598816 .60227969 .12399292 .60227969 .09298706 .60227969V.57128909C.11199951 .57128909 .17298889 .57128909 .22698975 .5972748V.08001709C.22698975 .042999269 .22399903 .0309906 .1309967 .0309906H.09899902V0C.1349945 .0029907227 .22399903 .0029907227 .2649994 .0029907227 .30599977 .0029907227 .3959961 .0029907227 .43199159 0Z"/>
<path id="font_7_107" d="M.46199037 .17704773H.43399049C.43199159 .16404724 .42399598 .10501099 .41099549 .08900452 .40499879 .07998657 .33599855 .07998657 .31599427 .07998657H.13798523L.23699951 .17404175C.40098573 .3161316 .46199037 .36915589 .46199037 .4711914 .46199037 .5860901 .36698915 .6660156 .24398804 .6660156 .1289978 .6660156 .050994874 .575119 .050994874 .4841919 .050994874 .43418885 .09399414 .42919923 .102996829 .42919923 .125 .42919923 .15499878 .44519044 .15499878 .48120118 .15499878 .51119998 .13398743 .5332031 .102996829 .5332031 .09799194 .5332031 .09498596 .5332031 .09098816 .53219607 .114990238 .6030731 .1789856 .63500979 .23298645 .63500979 .33499146 .63500979 .36999513 .5401764 .36999513 .4711914 .36999513 .36915589 .29299928 .28611756 .24499512 .23408509L.06199646 .035995485C.050994874 .024993897 .050994874 .022994996 .050994874 0H.43399049L.46199037 .17704773Z"/>
<path id="font_8_5" d="M.3889923 .120285037C.3889923 .10227966 .3889923 .09927368 .37399293 .07827759 .34298707 .0332489 .29699708 .014251709 .25698854 .014251709 .21398926 .014251709 .17399597 .038253786 .147995 .08027649 .12199402 .123291019 .11999512 .18229676 .11999512 .21430969 .11999512 .26132203 .12599182 .3143463 .1519928 .35435487 .17399597 .3863678 .21499634 .41737367 .2679901 .41737367 .30999757 .41737367 .34999085 .39637757 .3769989 .35835267 .3889923 .3423462 .3889923 .34135438 .3889923 .32234193V.120285037M.3919983 .38336183C.3869934 .38937379 .34199525 .4423828 .2639923 .4423828 .14099121 .4423828 .033996583 .34436036 .033996583 .21531677 .033996583 .090270999 .13398743-.0107421879 .25299073-.0107421879 .32598878-.0107421879 .37098695 .03225708 .3889923 .053268434V-.011001587L.5399933 0V.0309906C.47200013 .0309906 .46299745 .037994386 .46299745 .087020877V.69433596L.31498719 .68333438V.6523285C.3829956 .6523285 .3919983 .6453247 .3919983 .5962982V.38336183Z"/>
<path id="font_5_6" d="M.6489868 .5746002C.6589966 .61660769 .6779938 .64860537 .7559967 .6516113 .7619934 .6516113 .7739868 .65260317 .7739868 .6696167 .7739868 .6776123 .7679901 .6826172 .7599945 .6826172 .73799136 .6826172 .6819916 .6796112 .6599884 .6796112 .6349945 .6796112 .6329956 .6796112 .60899356 .680603 .59298709 .680603 .57199099 .6826172 .5569916 .6826172 .5529938 .6826172 .5389862 .6826172 .5389862 .6646118 .5389862 .6516113 .5509949 .6516113 .5569916 .6516113 .59498599 .65060427 .6239929 .64160159 .6239929 .6085968 .6239929 .6036072 .62098696 .5895996 .62098696 .5886078L.5309906 .2305603C.49598695 .092544559 .375 .008529663 .27598573 .008529663 .22499085 .008529663 .15098572 .03553772 .15098572 .14154053 .15098572 .16755677 .15499878 .19355774 .16099549 .21955872L.2579956 .6056061C.2669983 .6436157 .269989 .6516113 .34799195 .6516113 .3639984 .6516113 .375 .6516113 .375 .6696167 .375 .6786041 .36799623 .6826172 .3600006 .6826172L.29699708 .680603C.2669983 .6796112 .2649994 .6796112 .23298645 .6796112 .20098877 .6796112 .19898987 .6796112 .16899109 .680603 .14898682 .6816101 .12298584 .6826172 .10398865 .6826172 .09799194 .6826172 .083999637 .6826172 .083999637 .6646118 .083999637 .6516113 .09399414 .6516113 .11399841 .6516113 .117996219 .6516113 .13598633 .6516113 .1519928 .6496124 .17098999 .6476135 .17599488 .64460757 .17599488 .63461306 .17599488 .6286011 .16699219 .5926056 .16099549 .57159426L.13899231 .48358155C.12998963 .44458009 .08198547 .25656129 .07798767 .236557 .069992069 .20455933 .068984989 .19355774 .068984989 .17155457 .068984989 .055541994 .1559906-.022460938 .272995-.022460938 .40299989-.022460938 .5289917 .092544559 .5609894 .2225647L.6489868 .5746002Z"/>
<path id="font_8_4" d="M.70799258 .3310089C.7220001 .3310089 .7409973 .3310089 .7409973 .35202027 .7409973 .37402345 .71899417 .37402345 .70399478 .37402345H.09399414C.07899475 .37402345 .056991579 .37402345 .056991579 .35202027 .056991579 .3310089 .07699585 .3310089 .08999634 .3310089H.70799258M.70399478 .12695313C.71899417 .12695313 .7409973 .12695313 .7409973 .14894104 .7409973 .1699524 .7220001 .1699524 .70799258 .1699524H.08999634C.07699585 .1699524 .056991579 .1699524 .056991579 .14894104 .056991579 .12695313 .07899475 .12695313 .09399414 .12695313H.70399478Z"/>
<path id="font_8_1" d="M.34098817-.23803711C.34098817-.23303223 .33799745-.23002625 .33198548-.22303772 .20298767-.105026248 .1639862 .07498169 .1639862 .24996948 .1639862 .40498353 .19400025 .59298709 .33499146 .72698977 .33898927 .73098757 .34098817 .73399356 .34098817 .7389984 .34098817 .74598696 .33599855 .75 .32899476 .75 .31698609 .75 .22698975 .6779785 .17298889 .568985 .125 .47297669 .100997928 .36997987 .100997928 .25097657 .100997928 .17897034 .10998535 .064971927 .16499329-.053024293 .22399903-.17602539 .31698609-.24902344 .32899476-.24902344 .33599855-.24902344 .34098817-.24502564 .34098817-.23803711Z"/>
<path id="font_5_2" d="M.47399903 .34091188C.46299745 .4039917 .41799928 .45703126 .33999635 .45703126 .24798584 .45703126 .1769867 .41200257 .12199402 .3549347 .04399109 .2728424 .040985109 .17372132 .040985109 .15670777 .040985109 .09663391 .084991458-.022460938 .23199463-.022460938 .47999574-.022460938 .5799866 .32089234 .5799866 .45402528 .5799866 .6062927 .48999024 .7158203 .35598756 .7158203 .20498657 .7158203 .1599884 .58729556 .1599884 .55830386 .1599884 .54029849 .17298889 .5222931 .19898987 .5222931 .22799683 .5222931 .25299073 .54829409 .25299073 .57629397 .25299073 .6042938 .22799683 .6132965 .20899964 .6132965 .23699951 .66000369 .2899933 .69081118 .35398866 .69081118 .44699098 .69081118 .5019989 .61528018 .5019989 .50823977 .5019989 .49920655 .5009918 .43702699 .47499085 .34091188H.47399903M.23399353 .0055389406C.14299011 .0055389406 .12199402 .07461548 .12199402 .120666507 .12199402 .15570069 .14698792 .28886415 .18798828 .34492494 .22799683 .39898683 .27799989 .4320221 .33999635 .4320221 .43899537 .4320221 .45498658 .34492494 .45498658 .2988739 .45498658 .2237854 .3880005 .0055389406 .23399353 .0055389406Z"/>
<path id="font_5_1" d="M.44999696 .70999148C.45599366 .723999 .45599366 .7259979 .45599366 .7279968 .45599366 .7409973 .44599916 .75 .43499757 .75 .42099 .75 .4169922 .74198916 .41600038 .73999026L.06298828-.21000672C.056991579-.22401428 .056991579-.22601319 .056991579-.22801209 .056991579-.24101258 .066986087-.25 .07798767-.25 .08799744-.25 .09599304-.2460022 .102996829-.22601319L.44999696 .70999148Z"/>
<path id="font_8_2" d="M.2979889 .25097657C.2979889 .3329773 .28599549 .4429779 .23399353 .5539856 .1749878 .6769867 .08198547 .75 .069992069 .75 .05999756 .75 .057998659 .74198916 .057998659 .7389984 .057998659 .73399356 .05999756 .73098757 .066986087 .72398379 .125 .6719818 .23498535 .5359802 .23498535 .25097657 .23498535 .10797119 .20899964-.091033939 .06399536-.22602844 .06199646-.22903443 .057998659-.23303223 .057998659-.23803711 .057998659-.24102783 .05999756-.24902344 .069992069-.24902344 .08198547-.24902344 .17199707-.17703247 .22599793-.06802368 .27398683 .02796936 .2979889 .13098145 .2979889 .25097657Z"/>
<path id="font_9_2" d="M.7630005 .56159976C.7659912 .56658938 .776001 .57759097 .7829895 .5856018 .82398989 .63560488 .85899356 .64060977 .8989868 .64260867 .9099884 .6436157 .91600039 .65760806 .91600039 .6686096 .9149933 .6716156 .91400149 .6826172 .8999939 .6826172 .8739929 .6826172 .84298709 .6786041 .8149872 .6786041 .79100039 .6786041 .7319946 .6826172 .70799258 .6826172 .69099429 .6826172 .6859894 .6696167 .6859894 .65760806 .6859894 .6436157 .69999697 .64260867 .70700076 .64260867 .71398928 .64160159 .7480011 .63960269 .7480011 .6156006 .7480011 .6026001 .7350006 .5836029 .72898867 .57559207L.3919983 .0925293 .2899933 .6035919C.28799439 .6136017 .28799439 .6156006 .28799439 .6195984 .28799439 .63160708 .30899049 .64260867 .35398866 .64260867 .36698915 .64260867 .38198854 .64260867 .38198854 .66760256 .38198854 .6706085 .3809967 .6826172 .36499024 .6826172 .34399415 .6826172 .31999208 .6796112 .2979889 .6796112 .27598573 .6796112 .25498963 .6786041 .23298645 .6786041L.17399597 .6796112C.1559906 .6796112 .1349945 .6826172 .116989139 .6826172 .10598755 .6826172 .09498596 .6776123 .09498596 .65760806 .09498596 .64260867 .10899353 .64260867 .12199402 .64260867 .18099976 .64260867 .18299866 .6345978 .18699646 .6125946L.30699159 .004501343C.31098939-.0134887699 .31298829-.021484375 .33499146-.021484375 .35499574-.021484375 .3600006-.01449585 .36999513-.00048828127L.7630005 .56159976Z"/>
<path id="font_8_3" d="M.70599368 .22944641C.7200012 .22944641 .7409973 .22944641 .7409973 .25045777 .7409973 .27246095 .7220001 .27246095 .70599368 .27246095H.42099V.5578003C.42099 .573761 .42099 .59277346 .39898683 .59277346 .37799073 .59277346 .37799073 .57177737 .37799073 .5578003V.27246095H.09199524C.07798767 .27246095 .056991579 .27246095 .056991579 .25144959 .056991579 .22944641 .07598877 .22944641 .09199524 .22944641H.37799073V-.056793214C.37799073-.07279968 .37799073-.091796878 .3999939-.091796878 .42099-.091796878 .42099-.07080078 .42099-.056793214V.22944641H.70599368Z"/>
<path id="font_9_1" d="M.519989 .6016388C.5279999 .63360598 .5299988 .63560488 .57099917 .63560488H.6629944C.769989 .63560488 .7849884 .6046295 .7849884 .5466614 .7849884 .5326843 .7829895 .5056915 .7789917 .4747162 .7779999 .4717102 .776001 .46072389 .776001 .4577179 .776001 .44773866 .7839966 .44174195 .79499819 .44174195 .8109894 .44174195 .8129883 .4517212 .8149872 .46672059L.84199526 .6586151C.84199526 .6756134 .83099368 .6756134 .8109894 .6756134H.16099549C.1349945 .6756134 .1329956 .6756134 .12599182 .65460208L.06098938 .4727173C.056991579 .46072389 .056991579 .4577179 .056991579 .45672608 .056991579 .4537201 .057998659 .44174195 .07499695 .44174195 .08898926 .44174195 .08999634 .44473268 .09899902 .47071839 .14399719 .5926361 .1749878 .63560488 .3039856 .63560488H.394989C.4139862 .63560488 .41600038 .63560488 .42799378 .63261416L.29299928 .08596802C.28599549 .0579834 .2809906 .048980714 .25299073 .04498291 .22499085 .039993287 .16699219 .039993287 .1659851 .039993287 .13999939 .039993287 .13798523 .039993287 .13398743 .036987306 .1289978 .032989503 .125 .018997193 .125 .01399231 .125 .0129852299 .1269989 0 .14399719 0 .17098999 0 .20098877 .0029907227 .22799683 .0029907227 .2679901 .0029907227 .2939911 .0039978029 .32099916 .0039978029 .35099793 .0039978029 .3809967 .0029907227 .41099549 .0029907227 .43998719 .0029907227 .47200013 0 .5009918 0 .5089874 0 .5159912 0 .519989 .0069885256 .5219879 .009994507 .526001 .021987915 .526001 .025985718 .522995 .039993287 .5159912 .039993287 .4850006 .039993287 .46299745 .039993287 .44198609 .040985109 .41999818 .041992189 .39698792 .04399109 .3849945 .04498291 .3849945 .0599823L.519989 .6016388Z"/>
<path id="font_7_97" d="M.5130005 .18504334C.5130005 .24205017 .49198915 .28604127 .46798707 .31604005 .4249878 .37104798 .37998963 .38204957 .31498719 .39704896L.22698975 .41804505C.14698792 .43804933 .12098694 .5020447 .12098694 .546051 .12098694 .6130676 .1749878 .677063 .25898744 .677063 .3880005 .677063 .43998719 .5810547 .45399476 .4800415 .45700074 .4610443 .45799256 .4560547 .46998597 .4560547 .48399354 .4560547 .48399354 .4630432 .48399354 .48405458V.677063C.48399354 .69706729 .48399354 .7050781 .47200013 .7050781 .46499635 .7050781 .46398927 .70407107 .45700074 .69207766 .44400025 .67407229 .45399476 .68707278 .42099 .6350708 .4039917 .6550751 .35198976 .7050781 .2579956 .7050781 .14099121 .7047119 .056991579 .6137085 .056991579 .51171877 .056991579 .4336853 .10398865 .38565064 .10899353 .38064576 .1539917 .33662416 .17199707 .33161927 .29100038 .30360414 .37199403 .28459168 .3809967 .28259278 .4139862 .24856568 .4139862 .24856568 .44898988 .21055603 .44898988 .1515503 .44898988 .08354187 .3999939 .008529663 .30899049 .008529663 .23199463 .008529663 .09298706 .040542604 .084991458 .20555115 .083999637 .22055054 .083999637 .2265625 .070999149 .2265625 .056991579 .2265625 .056991579 .21855164 .056991579 .19854737V.0055389406C.056991579-.014465332 .056991579-.022460938 .068984989-.022460938 .07598877-.022460938 .07699585-.021469117 .083999637-.009475708 .09700012 .008529663 .08699036-.004470825 .11999512 .047531129 .18199158-.012466431 .26098634-.022460938 .30999757-.022460938 .43199159-.022460938 .5130005 .07752991 .5130005 .18452454V.18504334Z"/>
<path id="font_7_43" d="M.4269867 .11936951C.4269867 .13139344 .41600038 .13139344 .41299439 .13139344 .4019928 .13139344 .4019928 .12937927 .3959961 .11236572 .37298585 .043289186 .31698609 .01725769 .2659912 .01725769 .20199585 .01725769 .11999512 .06932068 .11999512 .21749878 .11999512 .3735962 .19999695 .42022706 .2599945 .42022706 .272995 .42022706 .32699586 .41825868 .3639984 .39356996 .34298707 .3895874 .32299806 .3755951 .32299806 .34658814 .32299806 .32058717 .34298707 .30059815 .36898805 .30059815 .394989 .30059815 .41600038 .31759645 .41600038 .34858705 .41600038 .4103546 .34599305 .4482422 .2579956 .4482422 .12998963 .4482422 .033996583 .3415985 .033996583 .2164917 .033996583 .08734131 .13798523-.0107421879 .2559967-.0107421879 .394989-.0107421879 .4269867 .11036682 .4269867 .11936951Z"/>
<path id="font_7_114" d="M.72099307 .3996582V.43066407C.68099978 .42765809 .67900088 .42765809 .6459961 .42765809 .60798647 .42765809 .59399417 .42765809 .55400088 .43066407V.3996582C.5970001 .39865113 .61099246 .3717041 .61099246 .35173036 .61099246 .34173585 .60899356 .3357544 .60598757 .32876588L.5139923 .07911682 .41299439 .35272218C.4079895 .3657074 .4079895 .36869813 .4079895 .3717041 .4079895 .3976593 .43899537 .3996582 .46499635 .3996582V.43066407C.4189911 .42765809 .37799073 .42765809 .3619995 .42765809 .33099366 .42765809 .3019867 .42765809 .269989 .43066407V.3996582C.3019867 .3996582 .32199098 .39865113 .33299256 .38467408 .34199525 .37368775 .35499574 .3337555 .35499574 .3307495L.34999085 .31677247 .2679901 .09210205 .17298889 .35173036C.16699219 .36669923 .16699219 .36869813 .16699219 .37269593 .16699219 .3996582 .20599365 .3996582 .22499085 .3996582V.43066407L.115997318 .42765809C.08299255 .42765809 .053985597 .42765809 .019989014 .43066407V.3996582C.067993167 .3996582 .08099365 .3976593 .09298706 .3637085L.22200012 .01121521C.22698975-.00076293948 .22999573-.0107421879 .24499512-.0107421879 .2599945-.0107421879 .2639923 .00022888184 .2679901 .010223389L.36999513 .28981019 .47299195 .010223389C.47698976 .00022888184 .48098756-.0107421879 .49598695-.0107421879 .5109863-.0107421879 .5139923-.00076293948 .5179901 .009216309L.6369934 .3337555C.6589966 .39466859 .69999697 .39865113 .72099307 .3996582Z"/>
<path id="font_7_96" d="M.37298585 .3798828C.37298585 .41236878 .34298707 .4423828 .2979889 .4423828 .23799134 .4423828 .19599915 .40037538 .17298889 .33787538H.17199707V.4423828L.02999878 .43066407V.3996582C.09799194 .3996582 .10699463 .3927307 .10699463 .34387208V.07698059C.10699463 .0309906 .09599304 .0309906 .02999878 .0309906V0C.08299255 .0019989014 .09599304 .0029907227 .14698792 .0029907227L.27398683 0V.0309906H.2539978C.18099976 .0309906 .17799378 .041992189 .17799378 .07897949V.22891236C.17799378 .26989747 .18899536 .4166565 .30299378 .4166565V.4156494C.30099488 .4146576 .2849884 .40264894 .2849884 .37887574 .2849884 .35186769 .30599977 .33486939 .32899476 .33486939 .34999085 .33486939 .37298585 .34986878 .37298585 .3798828Z"/>
<path id="font_7_120" d="M.41299439 .18984986H.3849945C.375 .078948978 .3619995 .027999878 .23699951 .027999878H.11999512L.40098573 .39866639C.4099884 .4096527 .4099884 .4116516 .4099884 .4156494 .4099884 .43066407 .3999939 .43066407 .3829956 .43066407H.053985597L.042999269 .26678468H.070999149C.07699585 .36868287 .09498596 .4056549 .20799256 .4056549H.31999208L.037994386 .033981325C.0289917 .022994996 .0289917 .020996094 .0289917 .015991211 .0289917 0 .037994386 0 .055999757 0H.3959961L.41299439 .18984986Z"/>
<path id="font_7_44" d="M.19599915 .3766632C.19599915 .406662 .17199707 .43066407 .14199829 .43066407 .11199951 .43066407 .08799744 .406662 .08799744 .3766632 .08799744 .34765626 .11199951 .32266236 .14199829 .32266236 .17199707 .32266236 .19599915 .34765626 .19599915 .3766632M.19599915 .053985597C.19599915 .08299255 .17199707 .10798645 .14199829 .10798645 .11199951 .10798645 .08799744 .08299255 .08799744 .053985597 .08799744 .023986817 .11199951 0 .14199829 0 .17199707 0 .19599915 .023986817 .19599915 .053985597Z"/>
</defs>
<path transform="matrix(1,0,0,-1,25.95237,163.55078)" stroke-width=".79701" stroke-linecap="butt" stroke-miterlimit="10" stroke-linejoin="miter" fill="none" stroke="#000000" d="M0 0H192.25074"/>
<path transform="matrix(1,0,0,-1,218.2031,163.55078)" d="M4.53381 0C3.97704 .13808 1.52963 .92049 0 1.77196V-1.77196C1.52963-.92049 3.97704-.13808 4.53381 0Z"/>
<path transform="matrix(1,0,0,-1,218.2031,163.55078)" stroke-width=".79701" stroke-linecap="butt" stroke-miterlimit="10" stroke-linejoin="miter" fill="none" stroke="#000000" d="M4.53381 0C3.97704 .13808 1.52963 .92049 0 1.77196V-1.77196C1.52963-.92049 3.97704-.13808 4.53381 0Z"/>
<use data-text="T" xlink:href="#font_1_1" transform="matrix(9.96264,0,0,-9.96264,228.09909,166.95471)"/>
<path transform="matrix(1,0,0,-1,25.95237,163.55078)" stroke-width=".79701" stroke-linecap="butt" stroke-miterlimit="10" stroke-linejoin="miter" fill="none" stroke="#000000" d="M0 0V135.55712"/>
<path transform="matrix(0,-1,-1,-0,25.95237,27.993668)" d="M4.53381 0C3.97704 .13808 1.52963 .92049 0 1.77196V-1.77196C1.52963-.92049 3.97704-.13808 4.53381 0Z"/>
<path transform="matrix(0,-1,-1,-0,25.95237,27.993668)" stroke-width=".79701" stroke-linecap="butt" stroke-miterlimit="10" stroke-linejoin="miter" fill="none" stroke="#000000" d="M4.53381 0C3.97704 .13808 1.52963 .92049 0 1.77196V-1.77196C1.52963-.92049 3.97704-.13808 4.53381 0Z"/>
<use data-text="V" xlink:href="#font_1_2" transform="matrix(9.96264,0,0,-9.96264,21.939599,18.097672)"/>
<path transform="matrix(1,0,0,-1,25.95237,163.55078)" stroke-width="1.19553" stroke-linecap="butt" stroke-miterlimit="10" stroke-linejoin="miter" fill="none" stroke="#b30000" d="M42.5202 28.3468H141.73404V99.21382"/>
<path transform="matrix(1,0,0,-1,103.22181,135.20398)" d="M5.30629 0C4.65466 .16344 1.79025 1.08963 0 2.09753V-2.09753C1.79025-1.08963 4.65466-.16344 5.30629 0Z" fill="#b30000"/>
<path transform="matrix(1,0,0,-1,103.22181,135.20398)" stroke-width="1.19553" stroke-linecap="butt" stroke-miterlimit="10" stroke-linejoin="miter" fill="none" stroke="#b30000" d="M5.30629 0C4.65466 .16344 1.79025 1.08963 0 2.09753V-2.09753C1.79025-1.08963 4.65466-.16344 5.30629 0Z"/>
<path transform="matrix(0,-1,-1,-0,167.6864,114.62814)" d="M5.30629 0C4.65466 .16344 1.79025 1.08963 0 2.09753V-2.09753C1.79025-1.08963 4.65466-.16344 5.30629 0Z" fill="#b30000"/>
<path transform="matrix(0,-1,-1,-0,167.6864,114.62814)" stroke-width="1.19553" stroke-linecap="butt" stroke-miterlimit="10" stroke-linejoin="miter" fill="none" stroke="#b30000" d="M5.30629 0C4.65466 .16344 1.79025 1.08963 0 2.09753V-2.09753C1.79025-1.08963 4.65466-.16344 5.30629 0Z"/>
<path transform="matrix(1,0,0,-1,25.95237,163.55078)" stroke-width="1.19553" stroke-linecap="butt" stroke-dasharray="2.98883,2.98883" stroke-miterlimit="10" stroke-linejoin="miter" fill="none" stroke="#0000b3" d="M42.5202 28.3468V99.21382H141.73404"/>
<path transform="matrix(0,-1,-1,-0,68.472568,100.45473)" d="M5.30629 0C4.65466 .16344 1.79025 1.08963 0 2.09753V-2.09753C1.79025-1.08963 4.65466-.16344 5.30629 0Z" fill="#0000b3"/>
<path transform="matrix(0,-1,-1,-0,68.472568,100.45473)" stroke-width="1.19553" stroke-linecap="butt" stroke-miterlimit="10" stroke-linejoin="miter" fill="none" stroke="#0000b3" d="M5.30629 0C4.65466 .16344 1.79025 1.08963 0 2.09753V-2.09753C1.79025-1.08963 4.65466-.16344 5.30629 0Z"/>
<path transform="matrix(1,0,0,-1,117.39523,64.33696)" d="M5.30629 0C4.65466 .16344 1.79025 1.08963 0 2.09753V-2.09753C1.79025-1.08963 4.65466-.16344 5.30629 0Z" fill="#0000b3"/>
<path transform="matrix(1,0,0,-1,117.39523,64.33696)" stroke-width="1.19553" stroke-linecap="butt" stroke-miterlimit="10" stroke-linejoin="miter" fill="none" stroke="#0000b3" d="M5.30629 0C4.65466 .16344 1.79025 1.08963 0 2.09753V-2.09753C1.79025-1.08963 4.65466-.16344 5.30629 0Z"/>
<path transform="matrix(1,0,0,-1,25.95237,163.55078)" stroke-width=".3985" stroke-linecap="butt" stroke-miterlimit="10" stroke-linejoin="miter" fill="none" stroke="#7f807f" d="M42.5202 28.3468H57.78001"/>
<path transform="matrix(1,0,0,-1,83.732379,135.20398)" d="M3.7613 0C3.2994 .1127 1.26901 .75136 0 1.44638V-1.44638C1.26901-.75136 3.2994-.1127 3.7613 0Z" fill="#7f807f"/>
<path transform="matrix(1,0,0,-1,83.732379,135.20398)" stroke-width=".3985" stroke-linecap="butt" stroke-miterlimit="10" stroke-linejoin="miter" fill="none" stroke="#7f807f" d="M3.7613 0C3.2994 .1127 1.26901 .75136 0 1.44638V-1.44638C1.26901-.75136 3.2994-.1127 3.7613 0Z"/>
<use data-text="(" xlink:href="#font_2_1" transform="matrix(6.973848,0,0,-6.973848,59.79117,143.95426)" fill="#7f807f"/>
<use data-text="&#x2202;" xlink:href="#font_3_2" transform="matrix(6.973848,0,0,-6.973848,62.904508,143.95426)" fill="#7f807f"/>
<use data-text="U" xlink:href="#font_3_4" transform="matrix(6.973848,0,0,-6.973848,67.583957,143.95426)" fill="#7f807f"/>
<use data-text="/" xlink:href="#font_3_1" transform="matrix(6.973848,0,0,-6.973848,73.330417,143.95426)" fill="#7f807f"/>
<use data-text="&#x2202;" xlink:href="#font_3_2" transform="matrix(6.973848,0,0,-6.973848,77.41011,143.95426)" fill="#7f807f"/>
<use data-text="T" xlink:href="#font_3_3" transform="matrix(6.973848,0,0,-6.973848,82.08956,143.95426)" fill="#7f807f"/>
<use data-text=")" xlink:href="#font_2_2" transform="matrix(6.973848,0,0,-6.973848,87.8775,143.95426)" fill="#7f807f"/>
<use data-text="V" xlink:href="#font_4_2" transform="matrix(4.98132,0,0,-4.98132,90.990848,144.95606)" fill="#7f807f"/>
<path transform="matrix(1,0,0,-1,25.95237,163.55078)" stroke-width=".3985" stroke-linecap="butt" stroke-miterlimit="10" stroke-linejoin="miter" fill="none" stroke="#7f807f" d="M42.5202 28.3468V43.60663"/>
<path transform="matrix(0,-1,-1,-0,68.472568,119.94415)" d="M3.7613 0C3.2994 .1127 1.26901 .75136 0 1.44638V-1.44638C1.26901-.75136 3.2994-.1127 3.7613 0Z" fill="#7f807f"/>
<path transform="matrix(0,-1,-1,-0,68.472568,119.94415)" stroke-width=".3985" stroke-linecap="butt" stroke-miterlimit="10" stroke-linejoin="miter" fill="none" stroke="#7f807f" d="M3.7613 0C3.2994 .1127 1.26901 .75136 0 1.44638V-1.44638C1.26901-.75136 3.2994-.1127 3.7613 0Z"/>
<use data-text="(" xlink:href="#font_2_1" transform="matrix(6.973848,0,0,-6.973848,27.60131,127.02614)" fill="#7f807f"/>
<use data-text="&#x2202;" xlink:href="#font_3_2" transform="matrix(6.973848,0,0,-6.973848,30.71465,127.02614)" fill="#7f807f"/>
<use data-text="U" xlink:href="#font_3_4" transform="matrix(6.973848,0,0,-6.973848,35.3941,127.02614)" fill="#7f807f"/>
<use data-text="/" xlink:href="#font_3_1" transform="matrix(6.973848,0,0,-6.973848,41.140554,127.02614)" fill="#7f807f"/>
<use data-text="&#x2202;" xlink:href="#font_3_2" transform="matrix(6.973848,0,0,-6.973848,45.220254,127.02614)" fill="#7f807f"/>
<use data-text="V" xlink:href="#font_3_5" transform="matrix(6.973848,0,0,-6.973848,49.899705,127.02614)" fill="#7f807f"/>
<use data-text=")" xlink:href="#font_2_2" transform="matrix(6.973848,0,0,-6.973848,56.33006,127.02614)" fill="#7f807f"/>
<use data-text="T" xlink:href="#font_4_1" transform="matrix(4.98132,0,0,-4.98132,59.443399,128.02796)" fill="#7f807f"/>
<path transform="matrix(1,0,0,-1,25.95237,163.55078)" d="M44.78798 28.3468C44.78798 29.59927 43.77267 30.6146 42.5202 30.6146 41.26773 30.6146 40.25241 29.59927 40.25241 28.3468 40.25241 27.09433 41.26773 26.07901 42.5202 26.07901 43.77267 26.07901 44.78798 27.09433 44.78798 28.3468ZM42.5202 28.3468" fill="#ffffff"/>
<path transform="matrix(1,0,0,-1,25.95237,163.55078)" stroke-width="1.19553" stroke-linecap="butt" stroke-miterlimit="10" stroke-linejoin="miter" fill="none" stroke="#000000" d="M44.78798 28.3468C44.78798 29.59927 43.77267 30.6146 42.5202 30.6146 41.26773 30.6146 40.25241 29.59927 40.25241 28.3468 40.25241 27.09433 41.26773 26.07901 42.5202 26.07901 43.77267 26.07901 44.78798 27.09433 44.78798 28.3468ZM42.5202 28.3468"/>
<path transform="matrix(1,0,0,-1,25.95237,163.55078)" d="M144.00183 99.21382C144.00183 100.4663 142.98651 101.4816 141.73404 101.4816 140.48157 101.4816 139.46627 100.4663 139.46627 99.21382 139.46627 97.96135 140.48157 96.94603 141.73404 96.94603 142.98651 96.94603 144.00183 97.96135 144.00183 99.21382ZM141.73404 99.21382" fill="#ffffff"/>
<path transform="matrix(1,0,0,-1,25.95237,163.55078)" stroke-width="1.19553" stroke-linecap="butt" stroke-miterlimit="10" stroke-linejoin="miter" fill="none" stroke="#000000" d="M144.00183 99.21382C144.00183 100.4663 142.98651 101.4816 141.73404 101.4816 140.48157 101.4816 139.46627 100.4663 139.46627 99.21382 139.46627 97.96135 140.48157 96.94603 141.73404 96.94603 142.98651 96.94603 144.00183 97.96135 144.00183 99.21382ZM141.73404 99.21382"/>
<path transform="matrix(1,0,0,-1,25.95237,163.55078)" d="M142.86772 28.3468C142.86772 28.97292 142.36016 29.48047 141.73404 29.48047 141.10793 29.48047 140.60037 28.97292 140.60037 28.3468 140.60037 27.72069 141.10793 27.21313 141.73404 27.21313 142.36016 27.21313 142.86772 27.72069 142.86772 28.3468ZM141.73404 28.3468"/>
<path transform="matrix(1,0,0,-1,25.95237,163.55078)" d="M43.65387 99.21382C43.65387 99.83994 43.1463 100.34749 42.5202 100.34749 41.89409 100.34749 41.38652 99.83994 41.38652 99.21382 41.38652 98.5877 41.89409 98.08015 42.5202 98.08015 43.1463 98.08015 43.65387 98.5877 43.65387 99.21382ZM42.5202 99.21382"/>
<path transform="matrix(1,0,0,-1,25.95237,163.55078)" stroke-width=".79701" stroke-linecap="butt" stroke-miterlimit="10" stroke-linejoin="miter" fill="none" stroke="#000000" d="M42.5202 1.4174V-1.4174"/>
<use data-text="T" xlink:href="#font_5_5" transform="matrix(8.966376,0,0,-8.966376,63.708993,174.81436)"/>
<use data-text="0" xlink:href="#font_6_1" transform="matrix(5.977584,0,0,-5.977584,69.084987,175.81061)"/>
<path transform="matrix(1,0,0,-1,25.95237,163.55078)" stroke-width=".79701" stroke-linecap="butt" stroke-miterlimit="10" stroke-linejoin="miter" fill="none" stroke="#000000" d="M141.73404 1.4174V-1.4174"/>
<use data-text="T" xlink:href="#font_5_5" transform="matrix(8.966376,0,0,-8.966376,162.92285,174.81436)"/>
<use data-text="1" xlink:href="#font_6_2" transform="matrix(5.977584,0,0,-5.977584,168.29883,175.81061)"/>
<path transform="matrix(1,0,0,-1,25.95237,163.55078)" stroke-width=".79701" stroke-linecap="butt" stroke-miterlimit="10" stroke-linejoin="miter" fill="none" stroke="#000000" d="M1.4174 28.3468H-1.4174"/>
<use data-text="V" xlink:href="#font_5_7" transform="matrix(8.966376,0,0,-8.966376,11.29044,137.7694)"/>
<use data-text="0" xlink:href="#font_6_1" transform="matrix(5.977584,0,0,-5.977584,16.664711,138.76564)"/>
<path transform="matrix(1,0,0,-1,25.95237,163.55078)" stroke-width=".79701" stroke-linecap="butt" stroke-miterlimit="10" stroke-linejoin="miter" fill="none" stroke="#000000" d="M1.4174 99.21382H-1.4174"/>
<use data-text="V" xlink:href="#font_5_7" transform="matrix(8.966376,0,0,-8.966376,11.29044,66.90238)"/>
<use data-text="1" xlink:href="#font_6_2" transform="matrix(5.977584,0,0,-5.977584,16.664711,67.89863)"/>
<use data-text="A" xlink:href="#font_5_3" transform="matrix(8.966376,0,0,-8.966376,58.042535,144.85086)"/>
<use data-text="B" xlink:href="#font_5_4" transform="matrix(8.966376,0,0,-8.966376,171.20624,60.81714)"/>
<use data-text="P" xlink:href="#font_7_83" transform="matrix(8.966376,0,0,-8.966376,114.51261,151.02204)" fill="#b30000"/>
<use data-text="a" xlink:href="#font_7_28" transform="matrix(8.966376,0,0,-8.966376,120.52905,151.02204)" fill="#b30000"/>
<use data-text="t" xlink:href="#font_7_105" transform="matrix(8.966376,0,0,-8.966376,125.13777,151.02204)" fill="#b30000"/>
<use data-text="h" xlink:href="#font_7_63" transform="matrix(8.966376,0,0,-8.966376,128.72432,151.02204)" fill="#b30000"/>
<use data-text="1" xlink:href="#font_7_82" transform="matrix(8.966376,0,0,-8.966376,136.91063,151.02204)" fill="#b30000"/>
<use data-text="P" xlink:href="#font_7_83" transform="matrix(8.966376,0,0,-8.966376,54.969034,91.90021)" fill="#0000b3"/>
<use data-text="a" xlink:href="#font_7_28" transform="matrix(8.966376,0,0,-8.966376,60.985475,91.90021)" fill="#0000b3"/>
<use data-text="t" xlink:href="#font_7_105" transform="matrix(8.966376,0,0,-8.966376,65.59419,91.90021)" fill="#0000b3"/>
<use data-text="h" xlink:href="#font_7_63" transform="matrix(8.966376,0,0,-8.966376,69.18074,91.90021)" fill="#0000b3"/>
<use data-text="2" xlink:href="#font_7_107" transform="matrix(8.966376,0,0,-8.966376,77.36704,91.90021)" fill="#0000b3"/>
<use data-text="d" xlink:href="#font_8_5" transform="matrix(8.966376,0,0,-8.966376,20.968071,193.63816)"/>
<use data-text="U" xlink:href="#font_5_6" transform="matrix(8.966376,0,0,-8.966376,26.08773,193.63816)"/>
<use data-text="=" xlink:href="#font_8_4" transform="matrix(8.966376,0,0,-8.966376,35.88414,193.63816)"/>
<use data-text="(" xlink:href="#font_8_1" transform="matrix(8.966376,0,0,-8.966376,45.60369,193.63816)"/>
<use data-text="&#x2202;" xlink:href="#font_5_2" transform="matrix(8.966376,0,0,-8.966376,49.19525,193.63816)"/>
<use data-text="U" xlink:href="#font_5_6" transform="matrix(8.966376,0,0,-8.966376,54.575078,193.63816)"/>
<use data-text="/" xlink:href="#font_5_1" transform="matrix(8.966376,0,0,-8.966376,61.29986,193.63816)"/>
<use data-text="&#x2202;" xlink:href="#font_5_2" transform="matrix(8.966376,0,0,-8.966376,65.89961,193.63816)"/>
<use data-text="T" xlink:href="#font_5_5" transform="matrix(8.966376,0,0,-8.966376,71.279438,193.63816)"/>
<use data-text=")" xlink:href="#font_8_2" transform="matrix(8.966376,0,0,-8.966376,77.957569,193.63816)"/>
<use data-text="V" xlink:href="#font_9_2" transform="matrix(5.977584,0,0,-5.977584,81.54133,194.63443)"/>
<use data-text="d" xlink:href="#font_8_5" transform="matrix(8.966376,0,0,-8.966376,89.48648,193.63816)"/>
<use data-text="T" xlink:href="#font_5_5" transform="matrix(8.966376,0,0,-8.966376,94.60614,193.63816)"/>
<use data-text="+" xlink:href="#font_8_3" transform="matrix(8.966376,0,0,-8.966376,103.309909,193.63816)"/>
<use data-text="(" xlink:href="#font_8_1" transform="matrix(8.966376,0,0,-8.966376,112.51837,193.63816)"/>
<use data-text="&#x2202;" xlink:href="#font_5_2" transform="matrix(8.966376,0,0,-8.966376,116.10905,193.63816)"/>
<use data-text="U" xlink:href="#font_5_6" transform="matrix(8.966376,0,0,-8.966376,121.48888,193.63816)"/>
<use data-text="/" xlink:href="#font_5_1" transform="matrix(8.966376,0,0,-8.966376,128.21366,193.63816)"/>
<use data-text="&#x2202;" xlink:href="#font_5_2" transform="matrix(8.966376,0,0,-8.966376,132.81342,193.63816)"/>
<use data-text="V" xlink:href="#font_5_7" transform="matrix(8.966376,0,0,-8.966376,138.19324,193.63816)"/>
<use data-text=")" xlink:href="#font_8_2" transform="matrix(8.966376,0,0,-8.966376,145.6376,193.63816)"/>
<use data-text="T" xlink:href="#font_9_1" transform="matrix(5.977584,0,0,-5.977584,149.22136,194.63443)"/>
<use data-text="d" xlink:href="#font_8_5" transform="matrix(8.966376,0,0,-8.966376,156.59436,193.63816)"/>
<use data-text="V" xlink:href="#font_5_7" transform="matrix(8.966376,0,0,-8.966376,161.71402,193.63816)"/>
<use data-text="S" xlink:href="#font_7_97" transform="matrix(8.966376,0,0,-8.966376,110.91944,193.23465)"/>
<use data-text="c" xlink:href="#font_7_43" transform="matrix(8.966376,0,0,-8.966376,116.039249,193.23465)"/>
<use data-text="h" xlink:href="#font_7_63" transform="matrix(8.966376,0,0,-8.966376,119.88582,193.23465)"/>
<use data-text="w" xlink:href="#font_7_114" transform="matrix(8.966376,0,0,-8.966376,124.74559,193.23465)"/>
<use data-text="a" xlink:href="#font_7_28" transform="matrix(8.966376,0,0,-8.966376,131.13863,193.23465)"/>
<use data-text="r" xlink:href="#font_7_96" transform="matrix(8.966376,0,0,-8.966376,135.74735,193.23465)"/>
<use data-text="z" xlink:href="#font_7_120" transform="matrix(8.966376,0,0,-8.966376,139.35182,193.23465)"/>
<use data-text=":" xlink:href="#font_7_44" transform="matrix(8.966376,0,0,-8.966376,143.44945,193.23465)"/>
<use data-text="&#x2202;" xlink:href="#font_5_2" transform="matrix(8.966376,0,0,-8.966376,150.10549,193.23465)"/>
<use data-text="T" xlink:href="#font_9_1" transform="matrix(5.977584,0,0,-5.977584,154.98058,194.23094)"/>
<use data-text="&#x2202;" xlink:href="#font_5_2" transform="matrix(8.966376,0,0,-8.966376,160.81766,193.23465)"/>
<use data-text="V" xlink:href="#font_9_2" transform="matrix(5.977584,0,0,-5.977584,165.69275,194.23094)"/>
<use data-text="U" xlink:href="#font_5_6" transform="matrix(8.966376,0,0,-8.966376,172.102,193.23465)"/>
<use data-text="=" xlink:href="#font_8_4" transform="matrix(8.966376,0,0,-8.966376,181.8984,193.23465)"/>
<use data-text="&#x2202;" xlink:href="#font_5_2" transform="matrix(8.966376,0,0,-8.966376,191.62577,193.23465)"/>
<use data-text="V" xlink:href="#font_9_2" transform="matrix(5.977584,0,0,-5.977584,196.50086,194.23094)"/>
<use data-text="&#x2202;" xlink:href="#font_5_2" transform="matrix(8.966376,0,0,-8.966376,202.9101,193.23465)"/>
<use data-text="T" xlink:href="#font_9_1" transform="matrix(5.977584,0,0,-5.977584,207.78519,194.23094)"/>
<use data-text="U" xlink:href="#font_5_6" transform="matrix(8.966376,0,0,-8.966376,213.62229,193.23465)"/>
</svg>
