<svg xmlns="http://www.w3.org/2000/svg" xmlns:xlink="http://www.w3.org/1999/xlink" xmlns:inkscape="http://www.inkscape.org/namespaces/inkscape" version="1.1" width="425.11" height="175.22" viewBox="0 0 425.11 175.22">
<defs>
<path id="font_1_46" d="M.81700137 .33676148C.81700137 .55659487 .6669922 .6855469 .46899415 .6855469H.038986207V.63853457H.14698792V.04699707H.038986207V0H.46998597C.6669922 0 .81700137 .12294006 .81700137 .33676148M.66999819 .33776856C.66999819 .22885132 .6579895 .17588806 .6259918 .13092041 .5779877 .06297302 .48999024 .04699707 .42900086 .04699707H.2829895V.63853457H.42900086C.49499513 .63853457 .5779877 .6195526 .6269989 .5496063 .6619873 .49864198 .66999819 .43069459 .66999819 .33776856Z"/>
<path id="font_1_66" d="M.28599549 0V.04699707H.22399903V.4501953L.049987794 .4423828V.39537049C.10899353 .39537049 .115997318 .39537049 .115997318 .3563385V.04699707H.04699707V0L.16899109 .0029907227 .28599549 0M.23799134 .60728457C.23799134 .6502838 .20298767 .6852875 .1599884 .6852875 .116989139 .6852875 .08198547 .6502838 .08198547 .60728457 .08198547 .5642853 .116989139 .5292969 .1599884 .5292969 .20298767 .5292969 .23799134 .5642853 .23799134 .60728457Z"/>
<path id="font_1_112" d="M.5799866 .3973236V.44433595C.5549927 .44232179 .526001 .44132997 .5009918 .44132997L.4099884 .44433595V.3973236C.42900086 .3973236 .45799256 .39431764 .45799256 .38632203 .45799256 .38632203 .45799256 .38432313 .45298768 .37431336L.33699037 .12416077 .20999146 .3973236H.2639923V.44433595L.13999939 .44132997 .025985718 .44433595V.3973236H.08999634L.2649994 .021102906C.2769928-.00390625 .2899933-.00390625 .30299378-.00390625 .31999208-.00390625 .32998658-.00091552737 .33999635 .020095826L.5059967 .37631227C.5119934 .39031983 .5159912 .3973236 .5799866 .3973236Z"/>
<path id="font_1_50" d="M.49398805 .11706543C.49398805 .13504029 .47499085 .13504029 .46998597 .13504029 .45298768 .13504029 .45098878 .13005066 .44499208 .11405945 .42399598 .066101077 .36698915 .03413391 .3019867 .03413391 .16099549 .03413391 .1599884 .16700745 .1599884 .2179718H.46199037C.48399354 .2179718 .49398805 .2179718 .49398805 .2449646 .49398805 .27598573 .48799134 .34906007 .43798829 .3991089 .40098573 .43511964 .34799195 .453125 .2789917 .453125 .11898804 .453125 .03199768 .35005189 .03199768 .22497559 .03199768 .09107971 .13198853-.005859375 .29299928-.005859375 .45098878-.005859375 .49398805 .10006714 .49398805 .11706543M.39898683 .25097657H.1599884C.1619873 .29000855 .16299439 .3320465 .18399048 .36506654 .20999146 .4051056 .25 .41711427 .2789917 .41711427 .3959961 .41711427 .397995 .28599549 .39898683 .25097657Z"/>
<path id="font_1_96" d="M.44198609 .36819459C.44198609 .42118836 .3880005 .4501953 .33599855 .4501953 .2659912 .4501953 .22599793 .40019227 .20298767 .33718873V.4501953L.036987306 .4423828V.39537049C.09899902 .39537049 .10598755 .39537049 .10598755 .3563385V.04699707H.036987306V0L.16299439 .0029907227C.20098877 .0029907227 .2649994 .0029907227 .30099488 0V.04699707H.21398926V.22218323C.21398926 .29226686 .23899842 .41436769 .33898927 .41436769 .33898927 .41436769 .31999208 .39736939 .31999208 .36834718 .31999208 .32730104 .35198976 .3072815 .3809967 .3072815 .4099884 .3072815 .44198609 .3283081 .44198609 .36834718V.36819459Z"/>
<path id="font_1_59" d="M.55799868 .3970642C.55799868 .42007447 .54100039 .45507813 .49499513 .45507813 .47999574 .45507813 .43299867 .45207215 .3889923 .41706849 .37098695 .42918397 .32899476 .4501953 .25498963 .4501953 .11099243 .4501953 .055999757 .37243653 .055999757 .3024292 .055999757 .26127626 .07598877 .22012329 .10798645 .19703675 .07998657 .16191101 .07398987 .12878418 .07398987 .10771179 .07398987 .0927124 .07798767 .04371643 .117996219 .01171875 .10499573 .008712769 .03199768-.012252808 .03199768-.075164798 .03199768-.12609864 .08699036-.2010498 .2869873-.2010498 .46398927-.2010498 .5419922-.14207459 .5419922-.07217407 .5419922-.04222107 .5339966 .020706177 .46699525 .054718019 .41099549 .08300781 .35099793 .08300781 .25498963 .08300781 .22898865 .08300781 .18299866 .08300781 .17799378 .083984378 .13398743 .0909729 .12298584 .12898255 .12298584 .14697266 .12298584 .15698242 .1269989 .17198181 .1329956 .17997742 .1789856 .15629578 .22999573 .15429688 .25498963 .15429688 .39898683 .15429688 .45399476 .23234558 .45399476 .3024292 .45399476 .34942628 .42900086 .38243104 .4139862 .3984375 .44400025 .4144287 .46499635 .4164276 .47599793 .4174347 .47399903 .4124298 .47200013 .40342713 .47200013 .39743043 .47200013 .37219239 .4889984 .354187 .5149994 .354187 .54100039 .354187 .55799868 .3731842 .55799868 .39718629V.3970642M.34298707 .30221559C.34298707 .25724793 .34298707 .19029236 .25498963 .19029236 .16699219 .19021607 .16699219 .25733949 .16699219 .3024292 .16699219 .34742738 .16699219 .41418458 .25498963 .41418458 .34298707 .41418458 .34298707 .34742738 .34298707 .3024292V.30221559M.45599366-.07501221C.45599366-.11102295 .4169922-.16503906 .2869873-.16503906 .16699219-.16503906 .117996219-.11903381 .117996219-.073013309 .117996219-.013000488 .18099976-.013000488 .19499207-.013000488H.31199647C.34298707-.013000488 .45599366-.013000488 .45599366-.07501221Z"/>
<path id="font_1_77" d="M.61499026 0V.04699707H.54599V.30613709C.54599 .41119386 .49198915 .4501953 .3919983 .4501953 .29599 .4501953 .24299622 .39318849 .21699524 .3421631V.4501953L.04499817 .4423828V.39537049C.10699463 .39537049 .11399841 .39537049 .11399841 .3563385V.04699707H.04499817V0L.17098999 .0029907227 .29699708 0V.04699707H.22799683V.2562256C.22799683 .3653412 .31399537 .41436769 .3769989 .41436769 .41099549 .41436769 .43199159 .39337159 .43199159 .31729127V.04699707H.36299134V0L.4889984 .0029907227 .61499026 0Z"/>
<path id="font_1_43" d="M.47799684 .117126468C.47799684 .13113404 .46398927 .13113404 .45399476 .13113404 .43598939 .13113404 .43499757 .12913513 .42999269 .11613464 .4039917 .053131105 .35598756 .03413391 .30499269 .03413391 .1659851 .03413391 .1659851 .18112183 .1659851 .22712708 .1659851 .28312684 .1659851 .41311646 .29499818 .41311646 .32998658 .41311646 .34700013 .41011048 .3600006 .40711976 .34199525 .39111329 .33999635 .3701172 .33999635 .3611145 .33999635 .3171234 .375 .29811097 .4019928 .29811097 .43299867 .29811097 .46499635 .3191223 .46499635 .3611145 .46499635 .44711305 .34899903 .453125 .29100038 .453125 .11199951 .45314027 .037994386 .33813478 .037994386 .22213745 .037994386 .08912659 .13198853-.005859375 .28599549-.005859375 .44799806-.005859375 .47799684 .11013794 .47799684 .117126468Z"/>
<path id="font_2_3" d="M.6459961 .5646057C.68699648 .6286011 .7220001 .6476135 .7679901 .6516113 .7799988 .65260317 .78900149 .6536102 .78900149 .6696167 .78900149 .6776123 .7829895 .6826172 .776001 .6826172 .7719879 .6826172 .746994 .6796112 .69400027 .6796112 .6619873 .6796112 .6279907 .6826172 .5970001 .6826172 .58999636 .6826172 .57899478 .680603 .57899478 .6646118 .57899478 .65260317 .58999636 .6516113 .59298709 .6516113 .6029968 .65060427 .6389923 .64860537 .6389923 .61961367 .6389923 .6116028 .6359863 .604599 .6319885 .5966034 .6279907 .5886078 .6259918 .58461 .621994 .5776062L.30899049 .092544559 .23298645 .62161257C.23298645 .63061526 .23999024 .6516113 .3019867 .6516113 .31399537 .6516113 .32598878 .6516113 .32598878 .6696167 .32598878 .680603 .31599427 .6826172 .30999757 .6826172 .2919922 .6826172 .2709961 .680603 .2519989 .680603 .23199463 .680603 .20999146 .6796112 .18899536 .6796112 .17098999 .6796112 .14299011 .6796112 .13398743 .680603 .12599182 .680603 .084991458 .6826172 .07699585 .6826172 .07299805 .6826172 .05899048 .6826172 .05899048 .6646118 .05899048 .6516113 .069992069 .6516113 .08198547 .6516113 .13798523 .6516113 .13899231 .64260867 .14299011 .6175995L.23098755 .0035247803C.23399353-.015472412 .23498535-.022460938 .2519989-.022460938 .2679901-.022460938 .27398683-.014465332 .2809906-.0024719239L.6459961 .5646057Z"/>
<path id="font_3_4" d="M.82598879 .655838C.83299258 .6678467 .83299258 .6718445 .83299258 .67285159 .83299258 .68284609 .82598879 .68284609 .8069916 .68284609H.07699585C.057998659 .68284609 .050994874 .68284609 .050994874 .67285159 .050994874 .6718445 .050994874 .6678467 .057998659 .655838L.4119873-.008773804C.41999818-.022766114 .42399598-.030776978 .44198609-.030776978 .45999146-.030776978 .46398927-.022766114 .47200013-.008773804L.82598879 .655838M.18598938 .6058502H.7619934L.47399903 .06417847 .18598938 .6058502Z"/>
<path id="font_3_1" d="M.20298767 .25030519C.20298767 .28430177 .1749878 .30630494 .147995 .30630494 .115997318 .30630494 .09199524 .28030396 .09199524 .25131227 .09199524 .21730042 .11999512 .1953125 .14698792 .1953125 .1789856 .1953125 .20298767 .22129822 .20298767 .25030519Z"/>
<path id="font_4_3" d="M.6839905 .6795349H.04699707V.62753298H.15499878V.051986696H.04699707V0C.084991458 .0029907227 .19198609 .0029907227 .23599243 .0029907227 .27999879 .0029907227 .4019928 .0029907227 .43899537 0V.051986696H.3039856V.31347657H.3600006C.45599366 .31347657 .46798707 .2735443 .46798707 .19869995H.5239868V.48049928H.46798707C.46798707 .40548707 .45599366 .36546327 .3600006 .36546327H.3039856V.62753298H.45700074C.6069946 .62753298 .6439972 .5665283 .6609955 .43649293H.71699526L.6839905 .6795349Z"/>
<path id="font_5_3" d="M.73098757 .3330078C.74598696 .3330078 .7659912 .3330078 .7659912 .3560028 .7659912 .3789978 .74198916 .3789978 .72698977 .3789978H.09799194C.08299255 .3789978 .05899048 .3789978 .05899048 .3560028 .05899048 .3330078 .07899475 .3330078 .09399414 .3330078H.73098757M.72698977 .12098694C.74198916 .12098694 .7659912 .12098694 .7659912 .14398194 .7659912 .16699219 .74598696 .16699219 .73098757 .16699219H.09399414C.07899475 .16699219 .05899048 .16699219 .05899048 .14398194 .05899048 .12098694 .08299255 .12098694 .09799194 .12098694H.72698977Z"/>
<path id="font_5_7" d="M.19099427 .69433596 .041992189 .68333438V.6503296C.10998535 .6503296 .117996219 .6433258 .117996219 .5942993V.07801819C.117996219 .032989503 .10598755 .032989503 .041992189 .032989503V0C.08099365 .0029907227 .13699341 .0029907227 .1539917 .0029907227 .17399597 .0029907227 .22799683 .0029907227 .2669983 0V.032989503C.20298767 .032989503 .19099427 .032989503 .19099427 .07801819V.69433596Z"/>
<path id="font_5_6" d="M.19499207 .61586C.19499207 .64486697 .17199707 .671875 .13899231 .671875 .10998535 .671875 .083999637 .64886477 .083999637 .61686709 .083999637 .5818634 .11299133 .5608673 .13899231 .5608673 .17399597 .5608673 .19499207 .58987429 .19499207 .61586M.04499817 .43040467V.3973999C.10899353 .3973999 .117996219 .39138795 .117996219 .34233094V.078048709C.117996219 .032989503 .10598755 .032989503 .041992189 .032989503V0C.08099365 .0029907227 .13699341 .0029907227 .1519928 .0029907227 .16499329 .0029907227 .22499085 .0029907227 .2599945 0V.032989503C.19499207 .032989503 .19099427 .037994386 .19099427 .077041629V.44140626L.04499817 .43040467Z"/>
<path id="font_5_8" d="M.7809906 .3032837C.7809906 .3843689 .74598696 .44140626 .6369934 .44140626 .54499819 .44140626 .49899293 .37835694 .48298646 .34933473 .46499635 .42140199 .4079895 .44140626 .34298707 .44140626 .24598694 .44140626 .19999695 .37236024 .18699646 .34532167H.18598938V.44140626L.040985109 .43040467V.39738465C.10899353 .39738465 .116989139 .39038087 .116989139 .34132386V.07803345C.116989139 .032989503 .10499573 .032989503 .040985109 .032989503V0C.083999637 .0029907227 .12799073 .0029907227 .15499878 .0029907227 .18399048 .0029907227 .22599793 .0029907227 .2689972 0V.032989503C.20498657 .032989503 .19299317 .032989503 .19299317 .07803345V.25923158C.19299317 .36434938 .27198792 .4133911 .33499146 .4133911 .3999939 .4133911 .41099549 .36235047 .41099549 .3072815V.07803345C.41099549 .032989503 .39898683 .032989503 .33499146 .032989503V0C.37799073 .0029907227 .42199708 .0029907227 .44898988 .0029907227 .47799684 .0029907227 .519989 .0029907227 .5629883 0V.032989503C.49899293 .032989503 .4869995 .032989503 .4869995 .07803345V.25923158C.4869995 .36434938 .56599429 .4133911 .6289978 .4133911 .69400027 .4133911 .7049866 .36235047 .7049866 .3072815V.07803345C.7049866 .032989503 .69299319 .032989503 .6289978 .032989503V0C.6719971 .0029907227 .71598818 .0029907227 .7429962 .0029907227 .7719879 .0029907227 .81399539 .0029907227 .8569946 0V.032989503C.79299929 .032989503 .7809906 .032989503 .7809906 .07803345V.3032837Z"/>
<path id="font_6_4" d="M.7630005 .56159976C.7659912 .56658938 .776001 .57759097 .7829895 .5856018 .82398989 .63560488 .85899356 .64060977 .8989868 .64260867 .9099884 .6436157 .91600039 .65760806 .91600039 .6686096 .9149933 .6716156 .91400149 .6826172 .8999939 .6826172 .8739929 .6826172 .84298709 .6786041 .8149872 .6786041 .79100039 .6786041 .7319946 .6826172 .70799258 .6826172 .69099429 .6826172 .6859894 .6696167 .6859894 .65760806 .6859894 .6436157 .69999697 .64260867 .70700076 .64260867 .71398928 .64160159 .7480011 .63960269 .7480011 .6156006 .7480011 .6026001 .7350006 .5836029 .72898867 .57559207L.3919983 .0925293 .2899933 .6035919C.28799439 .6136017 .28799439 .6156006 .28799439 .6195984 .28799439 .63160708 .30899049 .64260867 .35398866 .64260867 .36698915 .64260867 .38198854 .64260867 .38198854 .66760256 .38198854 .6706085 .3809967 .6826172 .36499024 .6826172 .34399415 .6826172 .31999208 .6796112 .2979889 .6796112 .27598573 .6796112 .25498963 .6786041 .23298645 .6786041L.17399597 .6796112C.1559906 .6796112 .1349945 .6826172 .116989139 .6826172 .10598755 .6826172 .09498596 .6776123 .09498596 .65760806 .09498596 .64260867 .10899353 .64260867 .12199402 .64260867 .18099976 .64260867 .18299866 .6345978 .18699646 .6125946L.30699159 .004501343C.31098939-.0134887699 .31298829-.021484375 .33499146-.021484375 .35499574-.021484375 .3600006-.01449585 .36999513-.00048828127L.7630005 .56159976Z"/>
<path id="font_7_1" d="M.9720001 .22436524C.8509979 .13804627 .8279877 .005859375 .8279877 .0008544922 .8279877-.015136719 .84399417-.015136719 .85398867-.015136719 .8759918-.015136719 .8769989-.014144897 .8839874 .014862061 .9019928 .085861209 .94799807 .1360321 .9529877 .14205933 1.0179901 .20930481 1.0709992 .22436524 1.1169891 .23635865 1.121994 .23736573 1.1279907 .24235535 1.1279907 .2503662 1.1279907 .26036073 1.1210022 .2633667 1.1139984 .2653656 .9700012 .30230714 .9049988 .40312196 .8819885 .49209596 .8769989 .5121002 .8759918 .5151062 .85398867 .5151062 .84298709 .5151062 .8279877 .5151062 .8279877 .49909974 .8279877 .49409486 .8509979 .36219789 .9720001 .2763672H.13398743C.117996219 .2763672 .09298706 .2763672 .09298706 .2503662 .09298706 .22436524 .117996219 .22436524 .13398743 .22436524H.9720001Z"/>
<path id="font_8_1" d="M.5499878 .31877137C.5499878 .39183045 .5499878 .66503909 .30499269 .66503909 .05999756 .66503909 .05999756 .39183045 .05999756 .31877137 .05999756 .2467041 .05999756-.021484375 .30499269-.021484375 .5499878-.021484375 .5499878 .2467041 .5499878 .31877137M.30499269 .010513306C.2630005 .010513306 .19499207 .030517579 .17098999 .113601688 .15499878 .17164612 .15499878 .2697296 .15499878 .33177186 .15499878 .39883424 .15499878 .4758911 .16899109 .52993777 .19400025 .6200104 .269989 .6330261 .30499269 .6330261 .35099793 .6330261 .4169922 .6110077 .43899537 .5349426 .45399476 .48190309 .45498658 .408844 .45498658 .33177186 .45498658 .26771546 .45498658 .16664124 .43798829 .1105957 .4099884 .023513794 .33799745 .010513306 .30499269 .010513306Z"/>
<path id="font_5_2" d="M.31399537 .63708499C.31399537 .664032 .31199647 .66503909 .2849884 .66503909 .24398804 .6251831 .19099427 .6013489 .09599304 .6013489V.5683594C.12298584 .5683594 .1769867 .5683594 .23498535 .5953522V.08203125C.23498535 .04499817 .23199463 .032989503 .13699341 .032989503H.101989749V0C.14299011 .0029907227 .22898865 .0029907227 .27398683 .0029907227 .31900025 .0029907227 .4059906 .0029907227 .44699098 0V.032989503H.4119873C.31698609 .032989503 .31399537 .04499817 .31399537 .08203125V.63708499Z"/>
<path id="font_3_3" d="M.16999817 .71199038C.16999817 .7279968 .16999817 .75 .14698792 .75 .12399292 .75 .12399292 .7279968 .12399292 .71199038V-.21200562C.12399292-.22801209 .12399292-.25 .14698792-.25 .16999817-.25 .16999817-.22801209 .16999817-.21200562V.71199038Z"/>
<path id="font_9_3" d="M.66999819 .56359866C.7200012 .63960269 .7579956 .6476135 .7979889 .6496124 .8089905 .65060427 .8129883 .660614 .8129883 .6686096 .8129883 .6716156 .8109894 .6826172 .798996 .6826172 .7869873 .6826172 .79100039 .6796112 .71798709 .6796112 .6539917 .6796112 .6269989 .6826172 .6230011 .6826172 .6179962 .6826172 .6029968 .6826172 .6029968 .66360476 .6029968 .65060427 .6159973 .6496124 .62098696 .6496124 .647995 .6476135 .6609955 .63760378 .6609955 .6195984 .6609955 .6035919 .6519928 .59059146 .6469879 .5825958L.32199098 .09051514 .23899842 .604599C.23799134 .6136017 .23699951 .61860659 .23699951 .6215973 .23699951 .6345978 .2519989 .6496124 .30299378 .6496124 .31498719 .6496124 .32798768 .6496124 .32798768 .6686096 .32798768 .6726074 .32499696 .6826172 .31199647 .6826172 .30299378 .6826172 .2630005 .680603 .25498963 .6796112H.19198609C.101989749 .6796112 .08898926 .6826172 .07998657 .6826172 .07598877 .6826172 .06098938 .6826172 .06098938 .66360476 .06098938 .6496124 .07398987 .6496124 .08898926 .6496124 .13999939 .6496124 .14099121 .64060977 .14498902 .6156006L.24299622 .006515503C.24598694-.0134887699 .24699402-.021484375 .2659912-.021484375 .2829895-.021484375 .2889862-.012496948 .29599-.0014953613L.66999819 .56359866Z"/>
<path id="font_10_1" d="M.375-.7540436C.48199464-.7420349 .5549927-.65309146 .5549927-.55519106 .5549927-.4712677 .5009918-.3933258 .4169922-.36532594 .41999818-.32626344 .4269867-.2480774 .42900086-.22503662 .44099427-.10783386 .45999146-.028015137 .5319977-.028015137 .55599978-.028015137 .58200076-.03694153 .5970001-.049835206 .58999636-.051834108 .55999758-.060836793 .55999758-.09384155 .55999758-.12882996 .58898928-.13883972 .60398867-.13883972 .6199951-.13883972 .6489868-.12882996 .6489868-.09283447 .6489868-.039916994 .59498599 0 .5309906 0 .46099855 0 .4169922-.047851564 .3919983-.094833377 .35899354-.15788269 .35099793-.21902466 .33399964-.35632325 .22799683-.3683319 .15499878-.4572754 .15499878-.55519106 .15499878-.6281128 .19799805-.7130432 .2919922-.7440338 .29100038-.76301577 .28599549-.82592776 .27799989-.9008026 .2659912-1.0096893 .24499512-1.0830078 .17599488-1.0830078 .1519928-1.0830078 .12599182-1.0738678 .11099243-1.0606842 .117996219-1.0586853 .147995-1.0496826 .147995-1.0166931 .147995-.98168948 .11898804-.9716797 .10398865-.9716797 .08799744-.9716797 .05899048-.98168948 .05899048-1.0176849 .05899048-1.0708313 .11299133-1.111023 .1769867-1.111023 .32699586-1.111023 .35598756-.895813 .35598756-.8948059L.375-.7540436M.29599-.697052C.23498535-.67207339 .20098877-.61312869 .20098877-.55519106 .20098877-.49024964 .24299622-.42131043 .32798768-.4033203L.29599-.697052M.41299439-.41331483C.47898866-.44029237 .5089874-.5022278 .5089874-.55519106 .5089874-.6201172 .46598817-.6900482 .3809967-.70703127L.41299439-.41331483Z"/>
<path id="font_6_1" d="M.25498963 .6113434C.28199769 .651062 .33699037 .68084719 .4079895 .68084719 .5069885 .68084719 .58499148 .6163025 .58499148 .48919679 .58499148 .4690857 .58299258 .4270172 .56199648 .33992005 .5399933 .41400147 .47898866 .45703126 .3999939 .45703126 .35899354 .45703126 .269989 .4550171 .16699219 .36294557 .07299805 .2788391 .07299805 .17671204 .07299805 .16470337 .07299805 .11262512 .09799194 .068573 .13899231 .030532837 .18299866-.009490967 .23699951-.021484375 .29599-.021484375 .57598879-.021484375 .673996 .31488038 .673996 .4400177 .673996 .6013489 .5649872 .71484377 .41099549 .71484377 .23799134 .71484377 .19499207 .5843506 .19499207 .55433657 .19499207 .53834536 .20498657 .51634219 .23498535 .51634219 .27198792 .51634219 .2919922 .54833987 .2919922 .5723419 .2919922 .6043396 .26098634 .61035159 .25498963 .6113434M.29899598 .01550293C.17399597 .01550293 .1639862 .10562134 .1639862 .13265991 .1639862 .14967346 .18099976 .27583314 .22698975 .33590699 .2630005 .38197328 .31799317 .4240265 .40098573 .4240265 .5099945 .4240265 .5399933 .34391786 .5399933 .28785707 .5399933 .22377014 .47499085 .01550293 .29899598 .01550293Z"/>
<path id="font_5_5" d="M.32899476 .68333438V.6503296C.39698792 .6503296 .40499879 .6433258 .40499879 .5943451V.38339234C.36999513 .42140199 .32299806 .44140626 .2709961 .44140626 .1459961 .44140626 .034988405 .3443756 .034988405 .21531677 .034988405 .09225464 .1349945-.009765625 .26098634-.009765625 .31999208-.009765625 .36898805 .018234253 .4019928 .053237916V-.009765625L.55400088 .00022888184V.033233644C.48599244 .033233644 .47799684 .040237428 .47799684 .089263919V.69433596L.32899476 .68333438M.4019928 .12426758C.4019928 .10626221 .4019928 .102264408 .3869934 .08226013 .35899354 .042236329 .31298829 .018234253 .2659912 .018234253 .21998596 .018234253 .17999268 .042236329 .1559906 .07925415 .1289978 .118270877 .12399292 .16729737 .12399292 .21430969 .12399292 .27233888 .1329956 .3133545 .1559906 .3483734 .17999268 .38539125 .22499085 .4133911 .27598573 .4133911 .32398988 .4133911 .37199403 .38938905 .4019928 .33737184V.12426758Z"/>
<path id="font_4_2" d="M.5079956 .6751709C.49699403 .7011719 .48199464 .7011719 .46099855 .7011719 .43899537 .7011719 .42399598 .7011719 .41299439 .6751709L.1519928 .074020389C.14498902 .059005739 .14399719 .057998659 .11999512 .054992677 .09399414 .051986696 .09199524 .051986696 .068984989 .051986696H.04499817V0C.09599304 .0029907227 .125 .0029907227 .17098999 .0029907227 .22599793 .0029907227 .22799683 .0029907227 .30699159 0V.051986696C.27999879 .051986696 .24798584 .051986696 .21899414 .06100464L.22399903 .07501221 .2749939 .19116211H.56199648L.6230011 .051986696H.5299988V0C.5669861 .0029907227 .66600039 .0029907227 .70799258 .0029907227 .74598696 .0029907227 .8129883 .0029907227 .8759918 0V.051986696H.7779999L.5079956 .6751709M.4189911 .52215579 .5399933 .24316406H.2979889L.4189911 .52215579Z"/>
<path id="font_1_42" d="M.7659912 .22724915C.7659912 .24725342 .7589874 .2482605 .74198916 .2482605 .72898867 .2482605 .7200012 .2482605 .71899417 .23124695 .71199038 .09724426 .59098818 .036254884 .48999024 .036254884 .4119873 .036254884 .32798768 .060256959 .27598573 .12124634 .22898865 .17825318 .21699524 .25325013 .21699524 .34326173 .21699524 .39926148 .21998596 .5072632 .2829895 .57325747 .34799195 .63926699 .43499757 .6502533 .4869995 .6502533 .59498599 .6502533 .6899872 .5742645 .71199038 .44725038 .71499636 .42825318 .71598818 .42625428 .7389984 .42625428 .7649994 .42625428 .7659912 .42825318 .7659912 .45425416V.6692505C.7659912 .68826296 .7659912 .6972656 .7480011 .6972656 .7389984 .6972656 .7369995 .69525149 .72898867 .68826296L.6629944 .6292572C.6009979 .67926028 .5339966 .6972656 .46598817 .6972656 .21699524 .6972656 .06399536 .54826357 .06399536 .34326173 .06399536 .13824463 .21699524-.0107421879 .46598817-.0107421879 .6529999-.0107421879 .7659912 .11225891 .7659912 .22724915Z"/>
<path id="font_1_109" d="M.61499026 .0001373291V.0471344C.5529938 .0471344 .54599 .0471344 .54599 .086135867V.4501953L.36299134 .44218446V.39518739C.4249878 .39518739 .43199159 .39518739 .43199159 .3561859V.16514588C.43199159 .08314514 .3809967 .030136109 .30799867 .030136109 .23098755 .030136109 .22799683 .055130006 .22799683 .10914612V.4501953L.04499817 .44218446V.39518739C.10699463 .39518739 .11399841 .39518739 .11399841 .3561859V.12313843C.11399841 .01612854 .19499207-.005859375 .2939911-.005859375 .31999208-.005859375 .3919983-.005859375 .43798829 .072143558V-.005859375L.61499026 .0001373291Z"/>
<path id="font_1_72" d="M.29299928 0V.04699707H.22399903V.69433596L.04699707 .6855469V.63853457C.10899353 .63853457 .115997318 .63853457 .115997318 .5995636V.04699707H.04699707V0L.16999817 .0029907227 .29299928 0Z"/>
<path id="font_2_1" d="M.47399903 .34091188C.46299745 .4039917 .41799928 .45703126 .33999635 .45703126 .24798584 .45703126 .1769867 .41200257 .12199402 .3549347 .04399109 .2728424 .040985109 .17372132 .040985109 .15670777 .040985109 .09663391 .084991458-.022460938 .23199463-.022460938 .47999574-.022460938 .5799866 .32089234 .5799866 .45402528 .5799866 .6062927 .48999024 .7158203 .35598756 .7158203 .20498657 .7158203 .1599884 .58729556 .1599884 .55830386 .1599884 .54029849 .17298889 .5222931 .19898987 .5222931 .22799683 .5222931 .25299073 .54829409 .25299073 .57629397 .25299073 .6042938 .22799683 .6132965 .20899964 .6132965 .23699951 .66000369 .2899933 .69081118 .35398866 .69081118 .44699098 .69081118 .5019989 .61528018 .5019989 .50823977 .5019989 .49920655 .5009918 .43702699 .47499085 .34091188H.47399903M.23399353 .0055389406C.14299011 .0055389406 .12199402 .07461548 .12199402 .120666507 .12199402 .15570069 .14698792 .28886415 .18798828 .34492494 .22799683 .39898683 .27799989 .4320221 .33999635 .4320221 .43899537 .4320221 .45498658 .34492494 .45498658 .2988739 .45498658 .2237854 .3880005 .0055389406 .23399353 .0055389406Z"/>
<path id="font_2_2" d="M.6539917 .67807009C.6569977 .68907168 .6569977 .69107058 .6569977 .69407656 .6569977 .69506838 .6559906 .7050781 .644989 .7050781 .6399994 .7050781 .6389923 .70407107 .6269989 .6900635 .61299136 .6750641 .625 .6880646 .57899478 .6340332 .5419922 .6900635 .48399354 .7050781 .43099977 .7050781 .3019867 .7050781 .17999268 .58999636 .17999268 .46990968 .17999268 .42886354 .19299317 .39483644 .21899414 .3668213 .24798584 .336792 .272995 .3307953 .34498597 .31178285L.42900086 .29075624C.46099855 .27975465 .49398805 .24871826 .49398805 .19168091 .49398805 .1026001 .40899659 .008529663 .30899049 .008529663 .25 .008529663 .1309967 .026550293 .1309967 .15464783 .1309967 .16365052 .1309967 .17866516 .13699341 .20869446 .13899231 .21269226 .13899231 .21469116 .13899231 .21569824 .13899231 .21969605 .13699341 .22669983 .125 .22669983 .11299133 .22669983 .11199951 .2217102 .10798645 .20469666L.054992677-.011474609C.054992677-.017471314 .05999756-.022460938 .066986087-.022460938 .07199097-.022460938 .07299805-.021469117 .085998538-.007461548 .09199524-.00047302247 .12098694 .03555298 .1329956 .048568727 .18499756-.018463135 .2769928-.022460938 .30699159-.022460938 .44499208-.022460938 .5649872 .10661316 .5649872 .23271179 .5649872 .35681153 .46699525 .38183595 .43598939 .38883973L.34498597 .41285707C.31199647 .42086793 .25099183 .4368744 .25099183 .51293948 .25099183 .5890045 .33099366 .677063 .43099977 .677063 .47099305 .677063 .5099945 .6660614 .5379944 .63804629 .57598879 .6010132 .57699587 .54696658 .57699587 .5209503 .57699587 .48791505 .57299807 .47691346 .57299807 .4689026 .57299807 .46089173 .57699587 .45588685 .58699038 .45588685 .59799197 .45588685 .59799197 .457901 .6029968 .47691346L.6539917 .67807009Z"/>
<path id="font_3_2" d="M.6549988 .46029664C.6669922 .47229005 .6689911 .47729493 .6689911 .4842987 .6689911 .4962921 .6589966 .5072937 .6459961 .5072937 .6369934 .5072937 .6329956 .5032959 .621994 .4922943L.41299439 .28323365 .20298767 .4933014C.19099427 .5052948 .18598938 .5072937 .1789856 .5072937 .16699219 .5072937 .1559906 .4972992 .1559906 .4842987 .1559906 .47529603 .1599884 .47129823 .16999817 .46128846L.37998963 .25022889 .17098999 .041168214C.1579895 .028167725 .1559906 .023162842 .1559906 .016159058 .1559906 .0031585694 .16699219-.0068359377 .1789856-.0068359377 .18798828-.0068359377 .19099427-.0038452149 .20199585 .007156372L.4119873 .21722412 .6299896-.0008392334C.6349945-.0038452149 .6409912-.0068359377 .6459961-.0068359377 .6589966-.0068359377 .6689911 .0041503908 .6689911 .016159058 .6689911 .024154664 .6639862 .028167725 .6639862 .029159546 .6599884 .03515625 .5 .19421387 .44499208 .25022889L.6549988 .46029664Z"/>
<path id="font_6_2" d="M.22599793 .12182617C.18798828 .063949588 .1539917 .04397583 .09799194 .039993287 .083999637 .038986207 .07199097 .037994386 .07199097 .01499939 .07199097 .004989624 .07998657 0 .08699036 0 .114990238 0 .147995 .0039978029 .1769867 .0039978029 .20098877 .0039978029 .2599945 0 .28399659 0 .29499818 0 .30599977 .004989624 .30599977 .024993897 .30599977 .038986207 .2919922 .039993287 .2889862 .039993287 .2649994 .040985109 .24299622 .04698181 .24299622 .06893921 .24299622 .0809021 .2539978 .09786987 .25698854 .10386658L.33898927 .22662354H.6399994L.66600039 .06593323C.66600039 .039993287 .60798647 .039993287 .59799197 .039993287 .58499148 .039993287 .56900027 .039993287 .56900027 .01499939 .56900027 .009994507 .57398989 0 .58599856 0 .6159973 0 .68899539 .0039978029 .71899417 .0039978029 .7389984 .0039978029 .7579956 .0029907227 .7779999 .0029907227 .7979889 .0029907227 .81999209 0 .83898928 0 .8450012 0 .86099246 0 .86099246 .024993897 .86099246 .039993287 .84799197 .039993287 .83299258 .039993287 .7709961 .039993287 .769989 .04698181 .7659912 .07192993L.66600039 .68685916C.6629944 .7048645 .6619873 .7138672 .6399994 .7138672 .61898806 .7138672 .61299136 .7058563 .60398867 .691864L.22599793 .12182617M.36499024 .26661683 .58099368 .5917969 .6329956 .26661683H.36499024Z"/>
<path id="font_9_2" d="M.18499756 .11885071C.13899231 .04597473 .09799194 .035980226 .06199646 .032989503 .051986696 .03199768 .039993287 .0309906 .039993287 .01399231 .039993287 .010986328 .041992189 0 .053985597 0 .06298828 0 .068984989 .0029907227 .13899231 .0029907227 .20698548 .0029907227 .22999573 0 .23498535 0 .23999024 0 .25498963 0 .25498963 .018997193 .25498963 .03199768 .24198914 .032989503 .23699951 .032989503 .21598816 .033996583 .19499207 .04197693 .19499207 .063934329 .19499207 .07891846 .20298767 .09188843 .22200012 .12084961L.2899933 .23066712H.56399539L.58499148 .061950685C.58499148 .047973634 .5669861 .032989503 .519989 .032989503 .5049896 .032989503 .49198915 .032989503 .49198915 .01399231 .49198915 .0129852299 .49299623 0 .5089874 0 .5189972 0 .5569916 .0019989014 .56599429 .0029907227H.6289978C.71899417 .0029907227 .73599246 0 .74398806 0 .7480011 0 .7639923 0 .7639923 .018997193 .7639923 .032989503 .7509918 .032989503 .7350006 .032989503 .6799927 .032989503 .67900088 .04197693 .6759949 .06694031L.5970001 .6848602C.59399417 .7068634 .59298709 .7138672 .57598879 .7138672 .55799868 .7138672 .5519867 .7038574 .54599 .6938629L.18499756 .11885071M.31098939 .26367188 .5179901 .5928192 .55999758 .26367188H.31098939Z"/>
<path id="font_6_3" d="M.746994 .6750946C.75 .687088 .75 .6890869 .75 .690094 .75 .6920929 .7489929 .70410159 .7350006 .70410159 .72698977 .70410159 .72499087 .7020874 .71398928 .690094 .70199587 .6760864 .6799927 .6520691 .6629944 .6340637 .621994 .687088 .55400088 .70410159 .49299623 .70410159 .34498597 .70410159 .21699524 .59202578 .21699524 .47792054 .21699524 .4298706 .23999024 .3968506 .25698854 .37983705 .2939911 .34179688 .32499696 .3347931 .39698792 .31977845 .4189911 .31477357 .49598695 .29675294 .5029907 .2957611 .548996 .28474427 .59098818 .24971009 .59098818 .19265747 .59098818 .10958862 .49899293 .018508912 .3809967 .018508912 .32798768 .018508912 .17599488 .028518677 .17599488 .15863037 .17599488 .15963745 .17599488 .1806488 .18099976 .20367432 .18199158 .20767212 .18299866 .2086792 .18299866 .21168518 .18299866 .22470093 .17298889 .22669983 .16499329 .22669983 .15499878 .22669983 .14898682 .22569275 .14399719 .2066803L.09199524-.0074920656C.09199524-.009490967 .09298706-.021484375 .10699463-.021484375 .11299133-.021484375 .11399841-.020492554 .12799073-.0074920656 .1289978-.0064849855 .1749878 .044525148 .1769867 .047531129 .22999573-.011489868 .32699586-.021484375 .37799073-.021484375 .5349884-.021484375 .6609955 .10559082 .6609955 .22369385 .6609955 .27874757 .6339874 .31477357 .6239929 .3257904 .58200076 .3688202 .55799868 .37382508 .4850006 .39083863 .45298768 .3978424 .4039917 .40785218 .37799073 .41386415 .32398988 .42687989 .2869873 .46090699 .2869873 .50994876 .2869873 .5870209 .3789978 .66708377 .4909973 .66708377 .57899478 .66708377 .6609955 .63005068 .6609955 .5109558 .6609955 .493927 .6589966 .47291566 .6589966 .46990968 .6589966 .4559021 .673996 .4559021 .6769867 .4559021 .69200137 .4559021 .69299319 .46090699 .69799807 .4789276L.746994 .6750946Z"/>
<path id="font_4_4" d="M.24099732 .69433596 .05899048 .6863251V.6343231C.117996219 .6343231 .125 .6343231 .125 .5953064V.051986696H.05899048V0C.116989139 .0029907227 .1269989 .0029907227 .18299866 .0029907227 .23899842 .0029907227 .24899292 .0029907227 .30699159 0V.051986696H.24099732V.69433596Z"/>
<path id="font_5_4" d="M.2649994 .69433596 .12298584 .5601349 .14299011 .5361328 .2649994 .6352539 .3869934 .5361328 .40699769 .5591278 .2649994 .69433596Z"/>
<path id="font_4_5" d="M.58399966 .30311585C.58399966 .4251709 .5079956 .45117188 .4189911 .45117188 .2979889 .45117188 .24398804 .37113954 .23199463 .34913636H.23098755V.45117188L.055999757 .443161V.39115907C.114990238 .39115907 .12199402 .39115907 .12199402 .35214234V.051986696H.055999757V0C.10998535 .0029907227 .14498902 .0029907227 .18299866 .0029907227 .22200012 .0029907227 .2559967 .0029907227 .30999757 0V.051986696H.24398804V.25308229C.24398804 .36413575 .33999635 .40916444 .4039917 .40916444 .43899537 .40916444 .46199037 .39215089 .46199037 .31411744V.051986696H.3959961V0C.44999696 .0029907227 .4850006 .0029907227 .522995 .0029907227 .56199648 .0029907227 .59599307 .0029907227 .6499939 0V.051986696H.58399966V.30311585Z"/>
<path id="font_1_83" d="M.72099307 .49064637C.72099307 .6005707 .621994 .6855469 .45599366 .6855469H.038986207V.63853457H.14698792V.04699707H.038986207V0C.07699585 .0029907227 .1749878 .0029907227 .21798706 .0029907227 .26098634 .0029907227 .35899354 .0029907227 .39698792 0V.04699707H.2889862V.30177308H.46598817C.6049957 .30177308 .72099307 .37374879 .72099307 .49064637M.56799319 .49064637C.56799319 .41970826 .56799319 .34277345 .4169922 .34277345H.2829895V.63853457H.41799928C.56799319 .63853457 .56799319 .56259158 .56799319 .49064637Z"/>
<path id="font_1_28" d="M.5529938 .023986817C.5529938 .04699707 .5399933 .04699707 .5269928 .04699707 .46598817 .04798889 .46598817 .06100464 .46598817 .083999637V.29907228C.46598817 .3881073 .394989 .453125 .24598694 .453125 .18899536 .453125 .066986087 .44911195 .066986087 .36109925 .066986087 .3170929 .101989749 .29808045 .1289978 .29808045 .1599884 .29808045 .19198609 .3190918 .19198609 .36109925 .19198609 .39111329 .17298889 .40811158 .16999817 .41011048 .19799805 .41612245 .22999573 .41711427 .24198914 .41711427 .31698609 .41711427 .35198976 .3751068 .35198976 .29907228V.26506043C.2809906 .2620697 .026992798 .25306703 .026992798 .10801697 .026992798 .012130737 .15098572-.005859375 .21998596-.005859375 .2999878-.005859375 .34700013 .035125734 .36898805 .07713318 .36898805 .04598999 .36898805 0 .47299195 0H.5209961C.54100039 0 .5529938 0 .5529938 .023986817M.35198976 .13899231C.35198976 .043151857 .2599945 .030136109 .23498535 .030136109 .18399048 .030136109 .14399719 .06517029 .14399719 .10922241 .14399719 .21734619 .3019867 .23136902 .35198976 .234375V.13899231Z"/>
<path id="font_1_126" d="M.6009979 0V.04699707H.5319977V.694397C.522995 .69340518 .46798707 .6893921 .46398927 .6893921 .45700074 .6893921 .45599366 .6893921 .44999696 .69140627 .41799928 .7001953 .3919983 .7001953 .37298585 .7001953 .24299622 .7001953 .10598755 .65919497 .10598755 .54426577V.44433595H.0309906V.3973236H.10598755V.04699707H.036987306V0L.1599884 .0029907227 .2829895 0V.04699707H.21398926V.3973236H.42399598V.04699707H.35499574V0L.47799684 .0029907227 .6009979 0M.42399598 .44433595H.20799256V.54226687C.20799256 .64619448 .30499269 .6641846 .36799623 .6641846 .3899994 .6641846 .4169922 .65919497 .4169922 .65919497 .4169922 .6593933 .4169922 .6573944 .4149933 .6553955 .40499879 .64338687 .39898683 .62939456 .39898683 .61338809 .39898683 .6013794 .40299989 .58036807 .4189911 .56736758 .42399598 .56336978 .42399598 .56137087 .42399598 .5453644V.44433595Z"/>
<path id="font_1_81" d="M.5419922 .21812439C.5419922 .35212709 .44999696 .453125 .2869873 .453125 .12298584 .453125 .03199768 .35112 .03199768 .21812439 .03199768 .09413147 .11999512-.005859375 .2869873-.005859375 .45498658-.005859375 .5419922 .09512329 .5419922 .21812439M.4139862 .22912598C.4139862 .14213562 .4139862 .03413391 .2869873 .03413391 .1599884 .03413391 .1599884 .14213562 .1599884 .22912598 .1599884 .27412416 .1599884 .32511903 .1769867 .3591156 .19599915 .39611817 .23799134 .41711427 .2869873 .41711427 .32899476 .41711427 .37098695 .40112306 .3929901 .36611939 .4139862 .3321228 .4139862 .27713014 .4139862 .22912598Z"/>
<path id="font_1_114" d="M.8049927 .3973236V.44433595C.7819977 .44232179 .7519989 .44132997 .7279968 .44132997L.6319885 .44433595V.3973236C.6409912 .3973236 .6899872 .3963318 .6899872 .3853302 .6899872 .38232423 .68699648 .3763275 .6859894 .37332154L.58099368 .11732483 .46699525 .3973236H.522995V.44433595L.40899659 .44132997C.36698915 .44132997 .32499696 .44332887 .30899049 .44433595V.3973236H.36799623C.3889923 .34732057 .3889923 .34432984 .3889923 .34432984 .3889923 .34033204 .38598634 .33433534 .3849945 .33132936L.30599977 .139328 .20098877 .3973236H.25698854V.44433595L.13398743 .44132997 .024993897 .44433595V.3973236H.083999637L.23699951 .023101807C.24398804 .006088257 .24798584-.00390625 .272995-.00390625 .2979889-.00390625 .3019867 .006088257 .30899049 .023101807L.4149933 .28208924 .5209961 .023086548C.5279999 .006088257 .5319977-.00390625 .5569916-.00390625 .58200076-.00390625 .58599856 .006088257 .59298709 .023086548L.7369995 .37608338C.74198916 .389328 .74598696 .3973236 .8049927 .3973236Z"/>
<path id="font_5_1" d="M.4889984 .31877137C.4889984 .42585755 .47799684 .49090577 .44499208 .55496218 .40098573 .6430359 .31999208 .66503909 .2649994 .66503909 .13899231 .66503909 .09298706 .5709839 .07899475 .5429535 .042999269 .4698944 .040985109 .3708191 .040985109 .31877137 .040985109 .25271607 .04399109 .15162659 .09199524 .07156372 .13798523-.0024871827 .21199036-.021484375 .2649994-.021484375 .31298829-.021484375 .39898683-.0064849855 .44898988 .09257507 .48599244 .16464234 .4889984 .2537079 .4889984 .31877137M.2649994 .006515503C.23098755 .006515503 .1619873 .022521973 .14099121 .12760926 .12998963 .18466187 .12998963 .2787323 .12998963 .33078004 .12998963 .3998413 .12998963 .4698944 .14099121 .5249481 .1619873 .6270294 .23999024 .6370239 .2649994 .6370239 .29899598 .6370239 .36799623 .62002566 .3880005 .5289459 .3999939 .4738922 .3999939 .39883424 .3999939 .33078004 .3999939 .27172853 .3999939 .18165589 .3880005 .12561035 .36698915 .020523072 .2979889 .006515503 .2649994 .006515503Z"/>
<path id="font_9_1" d="M.18699646 .01499939C.18699646-.050109865 .17298889-.10720825 .11099243-.16934204 .10699463-.17234802 .10499573-.17434693 .10499573-.17933655 .10499573-.18734741 .11299133-.19334412 .11999512-.19334412 .13198853-.19334412 .21499634-.114227298 .21499634 .0029907227 .21499634 .066986087 .19099427 .11099243 .14698792 .11099243 .11199951 .11099243 .09199524 .08299255 .09199524 .055999757 .09199524 .027999878 .11099243 0 .147995 0 .17199707 0 .18699646 .01399231 .18699646 .01499939Z"/>
<path id="font_4_1" d="M.56399539 .31925965C.56399539 .4352417 .5549927 .6582031 .30599977 .6582031 .055999757 .6582031 .04798889 .4332428 .04798889 .31925965 .04798889 .20729065 .054992677-.013671875 .30599977-.013671875 .55799868-.013671875 .56399539 .20828247 .56399539 .31925965M.30599977 .028320313C.2789917 .028320313 .25099183 .03831482 .22999573 .05531311 .19799805 .08331299 .18299866 .0973053 .18299866 .33125306 .18299866 .40324403 .18299866 .4762268 .19299317 .5262146 .20599365 .5971985 .2679901 .6161957 .30599977 .6161957 .32998658 .6161957 .4059906 .610199 .42099 .515213 .42900086 .4662323 .42900086 .3892517 .42900086 .33125306 .42900086 .10231018 .4149933 .08830261 .38398744 .05831909 .37599183 .049316408 .34799195 .028320313 .30599977 .028320313Z"/>
</defs>
<use data-text="D" xlink:href="#font_1_46" transform="matrix(9.96264,0,0,-9.96264,31.697602,18.122506)"/>
<use data-text="i" xlink:href="#font_1_66" transform="matrix(9.96264,0,0,-9.96264,40.48465,18.122506)"/>
<use data-text="v" xlink:href="#font_1_112" transform="matrix(9.96264,0,0,-9.96264,43.66273,18.122506)"/>
<use data-text="e" xlink:href="#font_1_50" transform="matrix(9.96264,0,0,-9.96264,49.40121,18.122506)"/>
<use data-text="r" xlink:href="#font_1_96" transform="matrix(9.96264,0,0,-9.96264,54.651525,18.122506)"/>
<use data-text="g" xlink:href="#font_1_59" transform="matrix(9.96264,0,0,-9.96264,59.373819,18.122506)"/>
<use data-text="e" xlink:href="#font_1_50" transform="matrix(9.96264,0,0,-9.96264,65.10233,18.122506)"/>
<use data-text="n" xlink:href="#font_1_77" transform="matrix(9.96264,0,0,-9.96264,70.352649,18.122506)"/>
<use data-text="c" xlink:href="#font_1_43" transform="matrix(9.96264,0,0,-9.96264,76.71877,18.122506)"/>
<use data-text="e" xlink:href="#font_1_50" transform="matrix(9.96264,0,0,-9.96264,81.80968,18.122506)"/>
<path transform="matrix(1,0,0,-1,59.37416,83.738689)" stroke-width="1.19553" stroke-linecap="butt" stroke-miterlimit="10" stroke-linejoin="miter" fill="none" stroke="#b30000" d="M12.75595 0H37.5841"/>
<path transform="matrix(1,0,0,-1,96.95826,83.738689)" d="M5.30629 0C4.65466 .16344 1.79025 1.08963 0 2.09753V-2.09753C1.79025-1.08963 4.65466-.16344 5.30629 0Z" fill="#b30000"/>
<path transform="matrix(1,0,0,-1,96.95826,83.738689)" stroke-width="1.19553" stroke-linecap="butt" stroke-miterlimit="10" stroke-linejoin="miter" fill="none" stroke="#b30000" d="M5.30629 0C4.65466 .16344 1.79025 1.08963 0 2.09753V-2.09753C1.79025-1.08963 4.65466-.16344 5.30629 0Z"/>
<path transform="matrix(1,0,0,-1,59.37416,83.738689)" stroke-width="1.19553" stroke-linecap="butt" stroke-miterlimit="10" stroke-linejoin="miter" fill="none" stroke="#b30000" d="M11.04701 6.37776 32.5486 18.79204"/>
<path transform="matrix(.86601,-.5,-.5,-.86601,91.92276,64.94665)" d="M5.30629 0C4.65466 .16344 1.79025 1.08963 0 2.09753V-2.09753C1.79025-1.08963 4.65466-.16344 5.30629 0Z" fill="#b30000"/>
<path transform="matrix(.86601,-.5,-.5,-.86601,91.92276,64.94665)" stroke-width="1.19553" stroke-linecap="butt" stroke-miterlimit="10" stroke-linejoin="miter" fill="none" stroke="#b30000" d="M5.30629 0C4.65466 .16344 1.79025 1.08963 0 2.09753V-2.09753C1.79025-1.08963 4.65466-.16344 5.30629 0Z"/>
<path transform="matrix(1,0,0,-1,59.37416,83.738689)" stroke-width="1.19553" stroke-linecap="butt" stroke-miterlimit="10" stroke-linejoin="miter" fill="none" stroke="#b30000" d="M6.37776 11.04701 18.79204 32.5486"/>
<path transform="matrix(.5,-.86601,-.86601,-.5,78.1662,51.190088)" d="M5.30629 0C4.65466 .16344 1.79025 1.08963 0 2.09753V-2.09753C1.79025-1.08963 4.65466-.16344 5.30629 0Z" fill="#b30000"/>
<path transform="matrix(.5,-.86601,-.86601,-.5,78.1662,51.190088)" stroke-width="1.19553" stroke-linecap="butt" stroke-miterlimit="10" stroke-linejoin="miter" fill="none" stroke="#b30000" d="M5.30629 0C4.65466 .16344 1.79025 1.08963 0 2.09753V-2.09753C1.79025-1.08963 4.65466-.16344 5.30629 0Z"/>
<path transform="matrix(1,0,0,-1,59.37416,83.738689)" stroke-width="1.19553" stroke-linecap="butt" stroke-miterlimit="10" stroke-linejoin="miter" fill="none" stroke="#b30000" d="M0 12.75595V37.5841"/>
<path transform="matrix(0,-1,-1,-0,59.37416,46.154588)" d="M5.30629 0C4.65466 .16344 1.79025 1.08963 0 2.09753V-2.09753C1.79025-1.08963 4.65466-.16344 5.30629 0Z" fill="#b30000"/>
<path transform="matrix(0,-1,-1,-0,59.37416,46.154588)" stroke-width="1.19553" stroke-linecap="butt" stroke-miterlimit="10" stroke-linejoin="miter" fill="none" stroke="#b30000" d="M5.30629 0C4.65466 .16344 1.79025 1.08963 0 2.09753V-2.09753C1.79025-1.08963 4.65466-.16344 5.30629 0Z"/>
<path transform="matrix(1,0,0,-1,59.37416,83.738689)" stroke-width="1.19553" stroke-linecap="butt" stroke-miterlimit="10" stroke-linejoin="miter" fill="none" stroke="#b30000" d="M-6.37776 11.04701-18.79204 32.5486"/>
<path transform="matrix(-.5,-.86601,-.86601,.5,40.582124,51.190088)" d="M5.30629 0C4.65466 .16344 1.79025 1.08963 0 2.09753V-2.09753C1.79025-1.08963 4.65466-.16344 5.30629 0Z" fill="#b30000"/>
<path transform="matrix(-.5,-.86601,-.86601,.5,40.582124,51.190088)" stroke-width="1.19553" stroke-linecap="butt" stroke-miterlimit="10" stroke-linejoin="miter" fill="none" stroke="#b30000" d="M5.30629 0C4.65466 .16344 1.79025 1.08963 0 2.09753V-2.09753C1.79025-1.08963 4.65466-.16344 5.30629 0Z"/>
<path transform="matrix(1,0,0,-1,59.37416,83.738689)" stroke-width="1.19553" stroke-linecap="butt" stroke-miterlimit="10" stroke-linejoin="miter" fill="none" stroke="#b30000" d="M-11.04701 6.37776-32.5486 18.79204"/>
<path transform="matrix(-.86601,-.5,-.5,.86601,26.825562,64.94665)" d="M5.30629 0C4.65466 .16344 1.79025 1.08963 0 2.09753V-2.09753C1.79025-1.08963 4.65466-.16344 5.30629 0Z" fill="#b30000"/>
<path transform="matrix(-.86601,-.5,-.5,.86601,26.825562,64.94665)" stroke-width="1.19553" stroke-linecap="butt" stroke-miterlimit="10" stroke-linejoin="miter" fill="none" stroke="#b30000" d="M5.30629 0C4.65466 .16344 1.79025 1.08963 0 2.09753V-2.09753C1.79025-1.08963 4.65466-.16344 5.30629 0Z"/>
<path transform="matrix(1,0,0,-1,59.37416,83.738689)" stroke-width="1.19553" stroke-linecap="butt" stroke-miterlimit="10" stroke-linejoin="miter" fill="none" stroke="#b30000" d="M-12.75595 0H-37.5841"/>
<path transform="matrix(-1,-0,0,1,21.790062,83.738689)" d="M5.30629 0C4.65466 .16344 1.79025 1.08963 0 2.09753V-2.09753C1.79025-1.08963 4.65466-.16344 5.30629 0Z" fill="#b30000"/>
<path transform="matrix(-1,-0,0,1,21.790062,83.738689)" stroke-width="1.19553" stroke-linecap="butt" stroke-miterlimit="10" stroke-linejoin="miter" fill="none" stroke="#b30000" d="M5.30629 0C4.65466 .16344 1.79025 1.08963 0 2.09753V-2.09753C1.79025-1.08963 4.65466-.16344 5.30629 0Z"/>
<path transform="matrix(1,0,0,-1,59.37416,83.738689)" stroke-width="1.19553" stroke-linecap="butt" stroke-miterlimit="10" stroke-linejoin="miter" fill="none" stroke="#b30000" d="M-11.04701-6.37776-32.5486-18.79204"/>
<path transform="matrix(-.86601,.5,.5,.86601,26.825562,102.53072)" d="M5.30629 0C4.65466 .16344 1.79025 1.08963 0 2.09753V-2.09753C1.79025-1.08963 4.65466-.16344 5.30629 0Z" fill="#b30000"/>
<path transform="matrix(-.86601,.5,.5,.86601,26.825562,102.53072)" stroke-width="1.19553" stroke-linecap="butt" stroke-miterlimit="10" stroke-linejoin="miter" fill="none" stroke="#b30000" d="M5.30629 0C4.65466 .16344 1.79025 1.08963 0 2.09753V-2.09753C1.79025-1.08963 4.65466-.16344 5.30629 0Z"/>
<path transform="matrix(1,0,0,-1,59.37416,83.738689)" stroke-width="1.19553" stroke-linecap="butt" stroke-miterlimit="10" stroke-linejoin="miter" fill="none" stroke="#b30000" d="M-6.37776-11.04701-18.79204-32.5486"/>
<path transform="matrix(-.5,.86601,.86601,.5,40.582124,116.287288)" d="M5.30629 0C4.65466 .16344 1.79025 1.08963 0 2.09753V-2.09753C1.79025-1.08963 4.65466-.16344 5.30629 0Z" fill="#b30000"/>
<path transform="matrix(-.5,.86601,.86601,.5,40.582124,116.287288)" stroke-width="1.19553" stroke-linecap="butt" stroke-miterlimit="10" stroke-linejoin="miter" fill="none" stroke="#b30000" d="M5.30629 0C4.65466 .16344 1.79025 1.08963 0 2.09753V-2.09753C1.79025-1.08963 4.65466-.16344 5.30629 0Z"/>
<path transform="matrix(1,0,0,-1,59.37416,83.738689)" stroke-width="1.19553" stroke-linecap="butt" stroke-miterlimit="10" stroke-linejoin="miter" fill="none" stroke="#b30000" d="M0-12.75595V-37.5841"/>
<path transform="matrix(0,1,1,0,59.37416,121.322788)" d="M5.30629 0C4.65466 .16344 1.79025 1.08963 0 2.09753V-2.09753C1.79025-1.08963 4.65466-.16344 5.30629 0Z" fill="#b30000"/>
<path transform="matrix(0,1,1,0,59.37416,121.322788)" stroke-width="1.19553" stroke-linecap="butt" stroke-miterlimit="10" stroke-linejoin="miter" fill="none" stroke="#b30000" d="M5.30629 0C4.65466 .16344 1.79025 1.08963 0 2.09753V-2.09753C1.79025-1.08963 4.65466-.16344 5.30629 0Z"/>
<path transform="matrix(1,0,0,-1,59.37416,83.738689)" stroke-width="1.19553" stroke-linecap="butt" stroke-miterlimit="10" stroke-linejoin="miter" fill="none" stroke="#b30000" d="M6.37776-11.04701 18.79204-32.5486"/>
<path transform="matrix(.5,.86601,.86601,-.5,78.1662,116.287288)" d="M5.30629 0C4.65466 .16344 1.79025 1.08963 0 2.09753V-2.09753C1.79025-1.08963 4.65466-.16344 5.30629 0Z" fill="#b30000"/>
<path transform="matrix(.5,.86601,.86601,-.5,78.1662,116.287288)" stroke-width="1.19553" stroke-linecap="butt" stroke-miterlimit="10" stroke-linejoin="miter" fill="none" stroke="#b30000" d="M5.30629 0C4.65466 .16344 1.79025 1.08963 0 2.09753V-2.09753C1.79025-1.08963 4.65466-.16344 5.30629 0Z"/>
<path transform="matrix(1,0,0,-1,59.37416,83.738689)" stroke-width="1.19553" stroke-linecap="butt" stroke-miterlimit="10" stroke-linejoin="miter" fill="none" stroke="#b30000" d="M11.04701-6.37776 32.5486-18.79204"/>
<path transform="matrix(.86601,.5,.5,-.86601,91.92276,102.53072)" d="M5.30629 0C4.65466 .16344 1.79025 1.08963 0 2.09753V-2.09753C1.79025-1.08963 4.65466-.16344 5.30629 0Z" fill="#b30000"/>
<path transform="matrix(.86601,.5,.5,-.86601,91.92276,102.53072)" stroke-width="1.19553" stroke-linecap="butt" stroke-miterlimit="10" stroke-linejoin="miter" fill="none" stroke="#b30000" d="M5.30629 0C4.65466 .16344 1.79025 1.08963 0 2.09753V-2.09753C1.79025-1.08963 4.65466-.16344 5.30629 0Z"/>
<path transform="matrix(1,0,0,-1,59.37416,83.738689)" stroke-width=".79701" stroke-linecap="butt" stroke-dasharray="2.98883,2.98883" stroke-miterlimit="10" stroke-linejoin="miter" fill="none" stroke="#000000" d="M-9.07117-9.07117V9.07117H9.07117V-9.07117ZM9.07117 9.07117"/>
<use data-text="V" xlink:href="#font_2_3" transform="matrix(8.966376,0,0,-8.966376,71.25387,99.558177)"/>
<use data-text="&#x2207;" xlink:href="#font_3_4" transform="matrix(7.970112,0,0,-7.970112,11.290019,155.96727)"/>
<use data-text="&#x00b7;" xlink:href="#font_3_1" transform="matrix(7.970112,0,0,-7.970112,18.813805,155.96727)"/>
<use data-text="F" xlink:href="#font_4_3" transform="matrix(7.970112,0,0,-7.970112,21.64024,155.96727)"/>
<use data-text="=" xlink:href="#font_5_3" transform="matrix(7.970112,0,0,-7.970112,30.119639,155.96727)"/>
<use data-text="l" xlink:href="#font_5_7" transform="matrix(7.970112,0,0,-7.970112,41.60457,155.96727)"/>
<use data-text="i" xlink:href="#font_5_6" transform="matrix(7.970112,0,0,-7.970112,43.955755,155.96727)"/>
<use data-text="m" xlink:href="#font_5_8" transform="matrix(7.970112,0,0,-7.970112,46.30694,155.96727)"/>
<use data-text="V" xlink:href="#font_6_4" transform="matrix(5.977584,0,0,-5.977584,39.058469,161.38031)"/>
<use data-text="&#x2192;" xlink:href="#font_7_1" transform="matrix(5.977584,0,0,-5.977584,44.96961,161.38031)"/>
<use data-text="0" xlink:href="#font_8_1" transform="matrix(5.977584,0,0,-5.977584,52.275499,161.38031)"/>
<use data-text="1" xlink:href="#font_5_2" transform="matrix(7.970112,0,0,-7.970112,62.177259,150.41744)"/>
<path transform="matrix(1,0,0,-1,23.91586,144.22693)" stroke-width=".358656" stroke-linecap="butt" stroke-miterlimit="10" stroke-linejoin="miter" fill="none" stroke="#000000" d="M34.61944-9.74781H46.13753"/>
<use data-text="|" xlink:href="#font_3_3" transform="matrix(7.970112,0,0,-7.970112,58.535299,161.93775)"/>
<use data-text="V" xlink:href="#font_9_3" transform="matrix(7.970112,0,0,-7.970112,60.88762,161.93775)"/>
<use data-text="|" xlink:href="#font_3_3" transform="matrix(7.970112,0,0,-7.970112,67.70106,161.93775)"/>
<use data-text="&#xfffd;" xlink:href="#font_10_1" transform="matrix(7.970112,0,0,-7.970112,71.2489,149.54686)"/>
<use data-text="&#x2202;" xlink:href="#font_6_1" transform="matrix(5.977584,0,0,-5.977584,75.24785,158.90074)"/>
<use data-text="V" xlink:href="#font_6_4" transform="matrix(5.977584,0,0,-5.977584,79.56366,158.90074)"/>
<use data-text="F" xlink:href="#font_4_3" transform="matrix(7.970112,0,0,-7.970112,85.98184,155.96727)"/>
<use data-text="&#x00b7;" xlink:href="#font_3_1" transform="matrix(7.970112,0,0,-7.970112,92.57938,155.96727)"/>
<use data-text="d" xlink:href="#font_5_5" transform="matrix(7.970112,0,0,-7.970112,95.402179,155.96727)"/>
<use data-text="A" xlink:href="#font_4_2" transform="matrix(7.970112,0,0,-7.970112,100.10683,155.96727)"/>
<use data-text="C" xlink:href="#font_1_42" transform="matrix(9.96264,0,0,-9.96264,204.00879,19.123757)"/>
<use data-text="u" xlink:href="#font_1_109" transform="matrix(9.96264,0,0,-9.96264,212.28774,19.123757)"/>
<use data-text="r" xlink:href="#font_1_96" transform="matrix(9.96264,0,0,-9.96264,218.65387,19.123757)"/>
<use data-text="l" xlink:href="#font_1_72" transform="matrix(9.96264,0,0,-9.96264,223.37616,19.123757)"/>
<path transform="matrix(1,0,0,-1,59.37416,83.738689)" stroke-width="1.19553" stroke-linecap="butt" stroke-miterlimit="10" stroke-linejoin="miter" fill="none" stroke="#0000b3" d="M192.75844 0V7.81987"/>
<path transform="matrix(0,-1,-1,-0,252.1326,75.918819)" d="M5.30629 0C4.65466 .16344 1.79025 1.08963 0 2.09753V-2.09753C1.79025-1.08963 4.65466-.16344 5.30629 0Z" fill="#0000b3"/>
<path transform="matrix(0,-1,-1,-0,252.1326,75.918819)" stroke-width="1.19553" stroke-linecap="butt" stroke-miterlimit="10" stroke-linejoin="miter" fill="none" stroke="#0000b3" d="M5.30629 0C4.65466 .16344 1.79025 1.08963 0 2.09753V-2.09753C1.79025-1.08963 4.65466-.16344 5.30629 0Z"/>
<path transform="matrix(1,0,0,-1,59.37416,83.738689)" stroke-width="1.19553" stroke-linecap="butt" stroke-miterlimit="10" stroke-linejoin="miter" fill="none" stroke="#0000b3" d="M187.82102 18.42523 183.91117 25.19716"/>
<path transform="matrix(-.49998,-.86601,-.86601,.49998,243.28534,58.541528)" d="M5.30629 0C4.65466 .16344 1.79025 1.08963 0 2.09753V-2.09753C1.79025-1.08963 4.65466-.16344 5.30629 0Z" fill="#0000b3"/>
<path transform="matrix(-.49998,-.86601,-.86601,.49998,243.28534,58.541528)" stroke-width="1.19553" stroke-linecap="butt" stroke-miterlimit="10" stroke-linejoin="miter" fill="none" stroke="#0000b3" d="M5.30629 0C4.65466 .16344 1.79025 1.08963 0 2.09753V-2.09753C1.79025-1.08963 4.65466-.16344 5.30629 0Z"/>
<path transform="matrix(1,0,0,-1,59.37416,83.738689)" stroke-width="1.19553" stroke-linecap="butt" stroke-miterlimit="10" stroke-linejoin="miter" fill="none" stroke="#0000b3" d="M174.33274 31.91351 167.5608 35.82335"/>
<path transform="matrix(-.86601,-.49998,-.49998,.86601,226.93497,47.915357)" d="M5.30629 0C4.65466 .16344 1.79025 1.08963 0 2.09753V-2.09753C1.79025-1.08963 4.65466-.16344 5.30629 0Z" fill="#0000b3"/>
<path transform="matrix(-.86601,-.49998,-.49998,.86601,226.93497,47.915357)" stroke-width="1.19553" stroke-linecap="butt" stroke-miterlimit="10" stroke-linejoin="miter" fill="none" stroke="#0000b3" d="M5.30629 0C4.65466 .16344 1.79025 1.08963 0 2.09753V-2.09753C1.79025-1.08963 4.65466-.16344 5.30629 0Z"/>
<path transform="matrix(1,0,0,-1,59.37416,83.738689)" stroke-width="1.19553" stroke-linecap="butt" stroke-miterlimit="10" stroke-linejoin="miter" fill="none" stroke="#0000b3" d="M155.9075 36.85092H148.08762"/>
<path transform="matrix(-1,-0,0,1,207.46178,46.887765)" d="M5.30629 0C4.65466 .16344 1.79025 1.08963 0 2.09753V-2.09753C1.79025-1.08963 4.65466-.16344 5.30629 0Z" fill="#0000b3"/>
<path transform="matrix(-1,-0,0,1,207.46178,46.887765)" stroke-width="1.19553" stroke-linecap="butt" stroke-miterlimit="10" stroke-linejoin="miter" fill="none" stroke="#0000b3" d="M5.30629 0C4.65466 .16344 1.79025 1.08963 0 2.09753V-2.09753C1.79025-1.08963 4.65466-.16344 5.30629 0Z"/>
<path transform="matrix(1,0,0,-1,59.37416,83.738689)" stroke-width="1.19553" stroke-linecap="butt" stroke-miterlimit="10" stroke-linejoin="miter" fill="none" stroke="#0000b3" d="M137.48226 31.91351 130.71033 28.00366"/>
<path transform="matrix(-.86601,.49998,.49998,.86601,190.08449,55.73501)" d="M5.30629 0C4.65466 .16344 1.79025 1.08963 0 2.09753V-2.09753C1.79025-1.08963 4.65466-.16344 5.30629 0Z" fill="#0000b3"/>
<path transform="matrix(-.86601,.49998,.49998,.86601,190.08449,55.73501)" stroke-width="1.19553" stroke-linecap="butt" stroke-miterlimit="10" stroke-linejoin="miter" fill="none" stroke="#0000b3" d="M5.30629 0C4.65466 .16344 1.79025 1.08963 0 2.09753V-2.09753C1.79025-1.08963 4.65466-.16344 5.30629 0Z"/>
<path transform="matrix(1,0,0,-1,59.37416,83.738689)" stroke-width="1.19553" stroke-linecap="butt" stroke-miterlimit="10" stroke-linejoin="miter" fill="none" stroke="#0000b3" d="M123.99399 18.42523 120.08414 11.65329"/>
<path transform="matrix(-.49998,.86601,.86601,.49998,179.45832,72.085399)" d="M5.30629 0C4.65466 .16344 1.79025 1.08963 0 2.09753V-2.09753C1.79025-1.08963 4.65466-.16344 5.30629 0Z" fill="#0000b3"/>
<path transform="matrix(-.49998,.86601,.86601,.49998,179.45832,72.085399)" stroke-width="1.19553" stroke-linecap="butt" stroke-miterlimit="10" stroke-linejoin="miter" fill="none" stroke="#0000b3" d="M5.30629 0C4.65466 .16344 1.79025 1.08963 0 2.09753V-2.09753C1.79025-1.08963 4.65466-.16344 5.30629 0Z"/>
<path transform="matrix(1,0,0,-1,59.37416,83.738689)" stroke-width="1.19553" stroke-linecap="butt" stroke-miterlimit="10" stroke-linejoin="miter" fill="none" stroke="#0000b3" d="M119.05656 0V-7.81987"/>
<path transform="matrix(0,1,1,0,178.43073,91.558559)" d="M5.30629 0C4.65466 .16344 1.79025 1.08963 0 2.09753V-2.09753C1.79025-1.08963 4.65466-.16344 5.30629 0Z" fill="#0000b3"/>
<path transform="matrix(0,1,1,0,178.43073,91.558559)" stroke-width="1.19553" stroke-linecap="butt" stroke-miterlimit="10" stroke-linejoin="miter" fill="none" stroke="#0000b3" d="M5.30629 0C4.65466 .16344 1.79025 1.08963 0 2.09753V-2.09753C1.79025-1.08963 4.65466-.16344 5.30629 0Z"/>
<path transform="matrix(1,0,0,-1,59.37416,83.738689)" stroke-width="1.19553" stroke-linecap="butt" stroke-miterlimit="10" stroke-linejoin="miter" fill="none" stroke="#0000b3" d="M123.99399-18.42523 127.90382-25.19716"/>
<path transform="matrix(.49998,.86601,.86601,-.49998,187.27797,108.935848)" d="M5.30629 0C4.65466 .16344 1.79025 1.08963 0 2.09753V-2.09753C1.79025-1.08963 4.65466-.16344 5.30629 0Z" fill="#0000b3"/>
<path transform="matrix(.49998,.86601,.86601,-.49998,187.27797,108.935848)" stroke-width="1.19553" stroke-linecap="butt" stroke-miterlimit="10" stroke-linejoin="miter" fill="none" stroke="#0000b3" d="M5.30629 0C4.65466 .16344 1.79025 1.08963 0 2.09753V-2.09753C1.79025-1.08963 4.65466-.16344 5.30629 0Z"/>
<path transform="matrix(1,0,0,-1,59.37416,83.738689)" stroke-width="1.19553" stroke-linecap="butt" stroke-miterlimit="10" stroke-linejoin="miter" fill="none" stroke="#0000b3" d="M137.48226-31.91351 144.2542-35.82335"/>
<path transform="matrix(.86601,.49998,.49998,-.86601,203.62836,119.56201)" d="M5.30629 0C4.65466 .16344 1.79025 1.08963 0 2.09753V-2.09753C1.79025-1.08963 4.65466-.16344 5.30629 0Z" fill="#0000b3"/>
<path transform="matrix(.86601,.49998,.49998,-.86601,203.62836,119.56201)" stroke-width="1.19553" stroke-linecap="butt" stroke-miterlimit="10" stroke-linejoin="miter" fill="none" stroke="#0000b3" d="M5.30629 0C4.65466 .16344 1.79025 1.08963 0 2.09753V-2.09753C1.79025-1.08963 4.65466-.16344 5.30629 0Z"/>
<path transform="matrix(1,0,0,-1,59.37416,83.738689)" stroke-width="1.19553" stroke-linecap="butt" stroke-miterlimit="10" stroke-linejoin="miter" fill="none" stroke="#0000b3" d="M155.9075-36.85092H163.72739"/>
<path transform="matrix(1,0,0,-1,223.10155,120.58961)" d="M5.30629 0C4.65466 .16344 1.79025 1.08963 0 2.09753V-2.09753C1.79025-1.08963 4.65466-.16344 5.30629 0Z" fill="#0000b3"/>
<path transform="matrix(1,0,0,-1,223.10155,120.58961)" stroke-width="1.19553" stroke-linecap="butt" stroke-miterlimit="10" stroke-linejoin="miter" fill="none" stroke="#0000b3" d="M5.30629 0C4.65466 .16344 1.79025 1.08963 0 2.09753V-2.09753C1.79025-1.08963 4.65466-.16344 5.30629 0Z"/>
<path transform="matrix(1,0,0,-1,59.37416,83.738689)" stroke-width="1.19553" stroke-linecap="butt" stroke-miterlimit="10" stroke-linejoin="miter" fill="none" stroke="#0000b3" d="M174.33274-31.91351 181.10468-28.00366"/>
<path transform="matrix(.86601,-.49998,-.49998,-.86601,240.47884,111.74236)" d="M5.30629 0C4.65466 .16344 1.79025 1.08963 0 2.09753V-2.09753C1.79025-1.08963 4.65466-.16344 5.30629 0Z" fill="#0000b3"/>
<path transform="matrix(.86601,-.49998,-.49998,-.86601,240.47884,111.74236)" stroke-width="1.19553" stroke-linecap="butt" stroke-miterlimit="10" stroke-linejoin="miter" fill="none" stroke="#0000b3" d="M5.30629 0C4.65466 .16344 1.79025 1.08963 0 2.09753V-2.09753C1.79025-1.08963 4.65466-.16344 5.30629 0Z"/>
<path transform="matrix(1,0,0,-1,59.37416,83.738689)" stroke-width="1.19553" stroke-linecap="butt" stroke-miterlimit="10" stroke-linejoin="miter" fill="none" stroke="#0000b3" d="M187.82102-18.42523 191.73085-11.65329"/>
<path transform="matrix(.49998,-.86601,-.86601,-.49998,251.105,95.391979)" d="M5.30629 0C4.65466 .16344 1.79025 1.08963 0 2.09753V-2.09753C1.79025-1.08963 4.65466-.16344 5.30629 0Z" fill="#0000b3"/>
<path transform="matrix(.49998,-.86601,-.86601,-.49998,251.105,95.391979)" stroke-width="1.19553" stroke-linecap="butt" stroke-miterlimit="10" stroke-linejoin="miter" fill="none" stroke="#0000b3" d="M5.30629 0C4.65466 .16344 1.79025 1.08963 0 2.09753V-2.09753C1.79025-1.08963 4.65466-.16344 5.30629 0Z"/>
<path transform="matrix(1,0,0,-1,59.37416,83.738689)" stroke-width=".79701" stroke-linecap="butt" stroke-dasharray="2.98883,2.98883" stroke-miterlimit="10" stroke-linejoin="miter" fill="none" stroke="#000000" d="M168.66347 0C168.66347 7.045 162.9525 12.75595 155.9075 12.75595 148.86249 12.75595 143.15154 7.045 143.15154 0 143.15154-7.045 148.86249-12.75595 155.9075-12.75595 162.9525-12.75595 168.66347-7.045 168.66347 0ZM155.9075 0"/>
<use data-text="&#x2202;" xlink:href="#font_2_1" transform="matrix(8.966376,0,0,-8.966376,227.09323,102.44289)"/>
<use data-text="S" xlink:href="#font_2_2" transform="matrix(8.966376,0,0,-8.966376,232.47306,102.44289)"/>
<use data-text="&#x2207;" xlink:href="#font_3_4" transform="matrix(7.970112,0,0,-7.970112,167.29851,156.74416)"/>
<use data-text="&#x00d7;" xlink:href="#font_3_2" transform="matrix(7.970112,0,0,-7.970112,174.8223,156.74416)"/>
<use data-text="F" xlink:href="#font_4_3" transform="matrix(7.970112,0,0,-7.970112,181.88292,156.74416)"/>
<use data-text="=" xlink:href="#font_5_3" transform="matrix(7.970112,0,0,-7.970112,190.36232,156.74416)"/>
<use data-text="l" xlink:href="#font_5_7" transform="matrix(7.970112,0,0,-7.970112,201.65596,156.74416)"/>
<use data-text="i" xlink:href="#font_5_6" transform="matrix(7.970112,0,0,-7.970112,204.00714,156.74416)"/>
<use data-text="m" xlink:href="#font_5_8" transform="matrix(7.970112,0,0,-7.970112,206.35834,156.74416)"/>
<use data-text="A" xlink:href="#font_6_2" transform="matrix(5.977584,0,0,-5.977584,199.30115,162.1572)"/>
<use data-text="&#x2192;" xlink:href="#font_7_1" transform="matrix(5.977584,0,0,-5.977584,204.82483,162.1572)"/>
<use data-text="0" xlink:href="#font_8_1" transform="matrix(5.977584,0,0,-5.977584,212.13072,162.1572)"/>
<use data-text="1" xlink:href="#font_5_2" transform="matrix(7.970112,0,0,-7.970112,219.44495,151.19432)"/>
<path transform="matrix(1,0,0,-1,179.92435,145.00382)" stroke-width=".358656" stroke-linecap="butt" stroke-miterlimit="10" stroke-linejoin="miter" fill="none" stroke="#000000" d="M38.46619-9.74781H44.80917"/>
<use data-text="A" xlink:href="#font_9_2" transform="matrix(7.970112,0,0,-7.970112,218.39054,162.71463)"/>
<use data-text="&#xfffd;" xlink:href="#font_10_1" transform="matrix(7.970112,0,0,-7.970112,225.92903,150.32375)"/>
<use data-text="&#x2202;" xlink:href="#font_6_1" transform="matrix(5.977584,0,0,-5.977584,229.92798,159.67763)"/>
<use data-text="S" xlink:href="#font_6_3" transform="matrix(5.977584,0,0,-5.977584,234.24379,159.67763)"/>
<use data-text="F" xlink:href="#font_4_3" transform="matrix(7.970112,0,0,-7.970112,239.591,156.74416)"/>
<use data-text="&#x00b7;" xlink:href="#font_3_1" transform="matrix(7.970112,0,0,-7.970112,246.18854,156.74416)"/>
<use data-text="d" xlink:href="#font_5_5" transform="matrix(7.970112,0,0,-7.970112,249.01134,156.74416)"/>
<use data-text="l" xlink:href="#font_4_4" transform="matrix(7.970112,0,0,-7.970112,253.71599,156.74416)"/>
<use data-text="&#x02c6;" xlink:href="#font_5_4" transform="matrix(7.970112,0,0,-7.970112,258.43446,156.63346)"/>
<use data-text="n" xlink:href="#font_4_5" transform="matrix(7.970112,0,0,-7.970112,257.83949,156.74416)"/>
<use data-text="P" xlink:href="#font_1_83" transform="matrix(9.96264,0,0,-9.96264,340.17509,19.163628)"/>
<use data-text="a" xlink:href="#font_1_28" transform="matrix(9.96264,0,0,-9.96264,347.6969,19.163628)"/>
<use data-text="r" xlink:href="#font_1_96" transform="matrix(9.96264,0,0,-9.96264,353.266,19.163628)"/>
<use data-text="a" xlink:href="#font_1_28" transform="matrix(9.96264,0,0,-9.96264,357.98829,19.163628)"/>
<use data-text="l" xlink:href="#font_1_72" transform="matrix(9.96264,0,0,-9.96264,363.5574,19.163628)"/>
<use data-text="l" xlink:href="#font_1_72" transform="matrix(9.96264,0,0,-9.96264,366.7355,19.163628)"/>
<use data-text="e" xlink:href="#font_1_50" transform="matrix(9.96264,0,0,-9.96264,369.91358,19.163628)"/>
<use data-text="l" xlink:href="#font_1_72" transform="matrix(9.96264,0,0,-9.96264,375.16389,19.163628)"/>
<use data-text="f" xlink:href="#font_1_126" transform="matrix(9.96264,0,0,-9.96264,382.1477,19.163628)"/>
<use data-text="o" xlink:href="#font_1_81" transform="matrix(9.96264,0,0,-9.96264,388.51383,19.163628)"/>
<use data-text="w" xlink:href="#font_1_114" transform="matrix(9.96264,0,0,-9.96264,393.9335,19.163628)"/>
<path transform="matrix(1,0,0,-1,59.37416,83.738689)" stroke-width="1.19553" stroke-linecap="butt" stroke-miterlimit="10" stroke-linejoin="miter" fill="none" stroke="#007300" d="M272.12968-39.68535H292.7055"/>
<path transform="matrix(1,0,0,-1,352.07966,123.424037)" d="M5.30629 0C4.65466 .16344 1.79025 1.08963 0 2.09753V-2.09753C1.79025-1.08963 4.65466-.16344 5.30629 0Z" fill="#007300"/>
<path transform="matrix(1,0,0,-1,352.07966,123.424037)" stroke-width="1.19553" stroke-linecap="butt" stroke-miterlimit="10" stroke-linejoin="miter" fill="none" stroke="#007300" d="M5.30629 0C4.65466 .16344 1.79025 1.08963 0 2.09753V-2.09753C1.79025-1.08963 4.65466-.16344 5.30629 0Z"/>
<path transform="matrix(1,0,0,-1,59.37416,83.738689)" stroke-width="1.19553" stroke-linecap="butt" stroke-miterlimit="10" stroke-linejoin="miter" fill="none" stroke="#007300" d="M300.47648-39.68535H321.05235"/>
<path transform="matrix(1,0,0,-1,380.4265,123.424037)" d="M5.30629 0C4.65466 .16344 1.79025 1.08963 0 2.09753V-2.09753C1.79025-1.08963 4.65466-.16344 5.30629 0Z" fill="#007300"/>
<path transform="matrix(1,0,0,-1,380.4265,123.424037)" stroke-width="1.19553" stroke-linecap="butt" stroke-miterlimit="10" stroke-linejoin="miter" fill="none" stroke="#007300" d="M5.30629 0C4.65466 .16344 1.79025 1.08963 0 2.09753V-2.09753C1.79025-1.08963 4.65466-.16344 5.30629 0Z"/>
<path transform="matrix(1,0,0,-1,59.37416,83.738689)" stroke-width="1.19553" stroke-linecap="butt" stroke-miterlimit="10" stroke-linejoin="miter" fill="none" stroke="#007300" d="M328.82328-39.68535H349.39915"/>
<path transform="matrix(1,0,0,-1,408.77333,123.424037)" d="M5.30629 0C4.65466 .16344 1.79025 1.08963 0 2.09753V-2.09753C1.79025-1.08963 4.65466-.16344 5.30629 0Z" fill="#007300"/>
<path transform="matrix(1,0,0,-1,408.77333,123.424037)" stroke-width="1.19553" stroke-linecap="butt" stroke-miterlimit="10" stroke-linejoin="miter" fill="none" stroke="#007300" d="M5.30629 0C4.65466 .16344 1.79025 1.08963 0 2.09753V-2.09753C1.79025-1.08963 4.65466-.16344 5.30629 0Z"/>
<path transform="matrix(1,0,0,-1,59.37416,83.738689)" stroke-width="1.19553" stroke-linecap="butt" stroke-miterlimit="10" stroke-linejoin="miter" fill="none" stroke="#007300" d="M272.12968-19.84267H292.7055"/>
<path transform="matrix(1,0,0,-1,352.07966,103.58136)" d="M5.30629 0C4.65466 .16344 1.79025 1.08963 0 2.09753V-2.09753C1.79025-1.08963 4.65466-.16344 5.30629 0Z" fill="#007300"/>
<path transform="matrix(1,0,0,-1,352.07966,103.58136)" stroke-width="1.19553" stroke-linecap="butt" stroke-miterlimit="10" stroke-linejoin="miter" fill="none" stroke="#007300" d="M5.30629 0C4.65466 .16344 1.79025 1.08963 0 2.09753V-2.09753C1.79025-1.08963 4.65466-.16344 5.30629 0Z"/>
<path transform="matrix(1,0,0,-1,59.37416,83.738689)" stroke-width="1.19553" stroke-linecap="butt" stroke-miterlimit="10" stroke-linejoin="miter" fill="none" stroke="#007300" d="M300.47648-19.84267H321.05235"/>
<path transform="matrix(1,0,0,-1,380.4265,103.58136)" d="M5.30629 0C4.65466 .16344 1.79025 1.08963 0 2.09753V-2.09753C1.79025-1.08963 4.65466-.16344 5.30629 0Z" fill="#007300"/>
<path transform="matrix(1,0,0,-1,380.4265,103.58136)" stroke-width="1.19553" stroke-linecap="butt" stroke-miterlimit="10" stroke-linejoin="miter" fill="none" stroke="#007300" d="M5.30629 0C4.65466 .16344 1.79025 1.08963 0 2.09753V-2.09753C1.79025-1.08963 4.65466-.16344 5.30629 0Z"/>
<path transform="matrix(1,0,0,-1,59.37416,83.738689)" stroke-width="1.19553" stroke-linecap="butt" stroke-miterlimit="10" stroke-linejoin="miter" fill="none" stroke="#007300" d="M328.82328-19.84267H349.39915"/>
<path transform="matrix(1,0,0,-1,408.77333,103.58136)" d="M5.30629 0C4.65466 .16344 1.79025 1.08963 0 2.09753V-2.09753C1.79025-1.08963 4.65466-.16344 5.30629 0Z" fill="#007300"/>
<path transform="matrix(1,0,0,-1,408.77333,103.58136)" stroke-width="1.19553" stroke-linecap="butt" stroke-miterlimit="10" stroke-linejoin="miter" fill="none" stroke="#007300" d="M5.30629 0C4.65466 .16344 1.79025 1.08963 0 2.09753V-2.09753C1.79025-1.08963 4.65466-.16344 5.30629 0Z"/>
<path transform="matrix(1,0,0,-1,59.37416,83.738689)" stroke-width="1.19553" stroke-linecap="butt" stroke-miterlimit="10" stroke-linejoin="miter" fill="none" stroke="#007300" d="M272.12968 0H292.7055"/>
<path transform="matrix(1,0,0,-1,352.07966,83.738689)" d="M5.30629 0C4.65466 .16344 1.79025 1.08963 0 2.09753V-2.09753C1.79025-1.08963 4.65466-.16344 5.30629 0Z" fill="#007300"/>
<path transform="matrix(1,0,0,-1,352.07966,83.738689)" stroke-width="1.19553" stroke-linecap="butt" stroke-miterlimit="10" stroke-linejoin="miter" fill="none" stroke="#007300" d="M5.30629 0C4.65466 .16344 1.79025 1.08963 0 2.09753V-2.09753C1.79025-1.08963 4.65466-.16344 5.30629 0Z"/>
<path transform="matrix(1,0,0,-1,59.37416,83.738689)" stroke-width="1.19553" stroke-linecap="butt" stroke-miterlimit="10" stroke-linejoin="miter" fill="none" stroke="#007300" d="M300.47648 0H321.05235"/>
<path transform="matrix(1,0,0,-1,380.4265,83.738689)" d="M5.30629 0C4.65466 .16344 1.79025 1.08963 0 2.09753V-2.09753C1.79025-1.08963 4.65466-.16344 5.30629 0Z" fill="#007300"/>
<path transform="matrix(1,0,0,-1,380.4265,83.738689)" stroke-width="1.19553" stroke-linecap="butt" stroke-miterlimit="10" stroke-linejoin="miter" fill="none" stroke="#007300" d="M5.30629 0C4.65466 .16344 1.79025 1.08963 0 2.09753V-2.09753C1.79025-1.08963 4.65466-.16344 5.30629 0Z"/>
<path transform="matrix(1,0,0,-1,59.37416,83.738689)" stroke-width="1.19553" stroke-linecap="butt" stroke-miterlimit="10" stroke-linejoin="miter" fill="none" stroke="#007300" d="M328.82328 0H349.39915"/>
<path transform="matrix(1,0,0,-1,408.77333,83.738689)" d="M5.30629 0C4.65466 .16344 1.79025 1.08963 0 2.09753V-2.09753C1.79025-1.08963 4.65466-.16344 5.30629 0Z" fill="#007300"/>
<path transform="matrix(1,0,0,-1,408.77333,83.738689)" stroke-width="1.19553" stroke-linecap="butt" stroke-miterlimit="10" stroke-linejoin="miter" fill="none" stroke="#007300" d="M5.30629 0C4.65466 .16344 1.79025 1.08963 0 2.09753V-2.09753C1.79025-1.08963 4.65466-.16344 5.30629 0Z"/>
<path transform="matrix(1,0,0,-1,59.37416,83.738689)" stroke-width="1.19553" stroke-linecap="butt" stroke-miterlimit="10" stroke-linejoin="miter" fill="none" stroke="#007300" d="M272.12968 19.84267H292.7055"/>
<path transform="matrix(1,0,0,-1,352.07966,63.896017)" d="M5.30629 0C4.65466 .16344 1.79025 1.08963 0 2.09753V-2.09753C1.79025-1.08963 4.65466-.16344 5.30629 0Z" fill="#007300"/>
<path transform="matrix(1,0,0,-1,352.07966,63.896017)" stroke-width="1.19553" stroke-linecap="butt" stroke-miterlimit="10" stroke-linejoin="miter" fill="none" stroke="#007300" d="M5.30629 0C4.65466 .16344 1.79025 1.08963 0 2.09753V-2.09753C1.79025-1.08963 4.65466-.16344 5.30629 0Z"/>
<path transform="matrix(1,0,0,-1,59.37416,83.738689)" stroke-width="1.19553" stroke-linecap="butt" stroke-miterlimit="10" stroke-linejoin="miter" fill="none" stroke="#007300" d="M300.47648 19.84267H321.05235"/>
<path transform="matrix(1,0,0,-1,380.4265,63.896017)" d="M5.30629 0C4.65466 .16344 1.79025 1.08963 0 2.09753V-2.09753C1.79025-1.08963 4.65466-.16344 5.30629 0Z" fill="#007300"/>
<path transform="matrix(1,0,0,-1,380.4265,63.896017)" stroke-width="1.19553" stroke-linecap="butt" stroke-miterlimit="10" stroke-linejoin="miter" fill="none" stroke="#007300" d="M5.30629 0C4.65466 .16344 1.79025 1.08963 0 2.09753V-2.09753C1.79025-1.08963 4.65466-.16344 5.30629 0Z"/>
<path transform="matrix(1,0,0,-1,59.37416,83.738689)" stroke-width="1.19553" stroke-linecap="butt" stroke-miterlimit="10" stroke-linejoin="miter" fill="none" stroke="#007300" d="M328.82328 19.84267H349.39915"/>
<path transform="matrix(1,0,0,-1,408.77333,63.896017)" d="M5.30629 0C4.65466 .16344 1.79025 1.08963 0 2.09753V-2.09753C1.79025-1.08963 4.65466-.16344 5.30629 0Z" fill="#007300"/>
<path transform="matrix(1,0,0,-1,408.77333,63.896017)" stroke-width="1.19553" stroke-linecap="butt" stroke-miterlimit="10" stroke-linejoin="miter" fill="none" stroke="#007300" d="M5.30629 0C4.65466 .16344 1.79025 1.08963 0 2.09753V-2.09753C1.79025-1.08963 4.65466-.16344 5.30629 0Z"/>
<path transform="matrix(1,0,0,-1,59.37416,83.738689)" stroke-width="1.19553" stroke-linecap="butt" stroke-miterlimit="10" stroke-linejoin="miter" fill="none" stroke="#007300" d="M272.12968 39.68535H292.7055"/>
<path transform="matrix(1,0,0,-1,352.07966,44.053339)" d="M5.30629 0C4.65466 .16344 1.79025 1.08963 0 2.09753V-2.09753C1.79025-1.08963 4.65466-.16344 5.30629 0Z" fill="#007300"/>
<path transform="matrix(1,0,0,-1,352.07966,44.053339)" stroke-width="1.19553" stroke-linecap="butt" stroke-miterlimit="10" stroke-linejoin="miter" fill="none" stroke="#007300" d="M5.30629 0C4.65466 .16344 1.79025 1.08963 0 2.09753V-2.09753C1.79025-1.08963 4.65466-.16344 5.30629 0Z"/>
<path transform="matrix(1,0,0,-1,59.37416,83.738689)" stroke-width="1.19553" stroke-linecap="butt" stroke-miterlimit="10" stroke-linejoin="miter" fill="none" stroke="#007300" d="M300.47648 39.68535H321.05235"/>
<path transform="matrix(1,0,0,-1,380.4265,44.053339)" d="M5.30629 0C4.65466 .16344 1.79025 1.08963 0 2.09753V-2.09753C1.79025-1.08963 4.65466-.16344 5.30629 0Z" fill="#007300"/>
<path transform="matrix(1,0,0,-1,380.4265,44.053339)" stroke-width="1.19553" stroke-linecap="butt" stroke-miterlimit="10" stroke-linejoin="miter" fill="none" stroke="#007300" d="M5.30629 0C4.65466 .16344 1.79025 1.08963 0 2.09753V-2.09753C1.79025-1.08963 4.65466-.16344 5.30629 0Z"/>
<path transform="matrix(1,0,0,-1,59.37416,83.738689)" stroke-width="1.19553" stroke-linecap="butt" stroke-miterlimit="10" stroke-linejoin="miter" fill="none" stroke="#007300" d="M328.82328 39.68535H349.39915"/>
<path transform="matrix(1,0,0,-1,408.77333,44.053339)" d="M5.30629 0C4.65466 .16344 1.79025 1.08963 0 2.09753V-2.09753C1.79025-1.08963 4.65466-.16344 5.30629 0Z" fill="#007300"/>
<path transform="matrix(1,0,0,-1,408.77333,44.053339)" stroke-width="1.19553" stroke-linecap="butt" stroke-miterlimit="10" stroke-linejoin="miter" fill="none" stroke="#007300" d="M5.30629 0C4.65466 .16344 1.79025 1.08963 0 2.09753V-2.09753C1.79025-1.08963 4.65466-.16344 5.30629 0Z"/>
<use data-text="&#x2207;" xlink:href="#font_3_4" transform="matrix(7.970112,0,0,-7.970112,333.4526,156.56504)"/>
<use data-text="&#x00b7;" xlink:href="#font_3_1" transform="matrix(7.970112,0,0,-7.970112,340.9764,156.56504)"/>
<use data-text="F" xlink:href="#font_4_3" transform="matrix(7.970112,0,0,-7.970112,343.80284,156.56504)"/>
<use data-text="=" xlink:href="#font_5_3" transform="matrix(7.970112,0,0,-7.970112,352.28224,156.56504)"/>
<use data-text="0" xlink:href="#font_5_1" transform="matrix(7.970112,0,0,-7.970112,361.21675,156.56504)"/>
<use data-text="," xlink:href="#font_9_1" transform="matrix(7.970112,0,0,-7.970112,365.45527,156.56504)"/>
<use data-text="&#x2207;" xlink:href="#font_3_4" transform="matrix(7.970112,0,0,-7.970112,372.0404,156.56504)"/>
<use data-text="&#x00d7;" xlink:href="#font_3_2" transform="matrix(7.970112,0,0,-7.970112,379.56419,156.56504)"/>
<use data-text="F" xlink:href="#font_4_3" transform="matrix(7.970112,0,0,-7.970112,386.62483,156.56504)"/>
<use data-text="=" xlink:href="#font_5_3" transform="matrix(7.970112,0,0,-7.970112,395.1042,156.56504)"/>
<use data-text="0" xlink:href="#font_4_1" transform="matrix(7.970112,0,0,-7.970112,404.04304,156.56504)"/>
</svg>
