<svg xmlns="http://www.w3.org/2000/svg" xmlns:xlink="http://www.w3.org/1999/xlink" xmlns:inkscape="http://www.inkscape.org/namespaces/inkscape" version="1.1" width="313.77" height="253.53" viewBox="0 0 313.77 253.53">
<defs>
<path id="font_1_58" d="M.8450012 .22935486V.2763672C.80999758 .2733612 .72299197 .2733612 .6839905 .2733612 .6259918 .2733612 .5329895 .2733612 .47898866 .2763672V.22935486H.6230011V.1282959C.6230011 .109298709 .6230011 .08027649 .58399966 .057266237 .55799868 .042251588 .526001 .036254884 .49398805 .036254884 .4079895 .036254884 .32199098 .06526184 .272995 .12730408 .22999573 .18232727 .21699524 .25335694 .21699524 .3443451 .21699524 .4563141 .23699951 .5142975 .27398683 .5632782 .31399537 .613266 .3909912 .6502533 .4869995 .6502533 .59399417 .6502533 .68899539 .5742798 .71099856 .4473114 .71398928 .4283142 .71499636 .4263153 .73799136 .4263153 .7639923 .4263153 .7649994 .4283142 .7649994 .4543152V.6692505C.7649994 .68826296 .7649994 .6972656 .746994 .6972656 .73799136 .6972656 .73599246 .69525149 .7279968 .68826296L.6619873 .62927249C.58898928 .68725588 .5169983 .6972656 .46499635 .6972656 .21899414 .6972656 .06399536 .55029299 .06399536 .343338 .06399536 .14431763 .20899964-.0107421879 .46699525-.0107421879 .5-.0107421879 .6029968-.008743286 .6529999 .053253175 .6839905 .026245118 .74398806 .00024414063 .7509918 .00024414063 .7649994 .00024414063 .7649994 .013244629 .7649994 .028244019V.22935486H.8450012Z"/>
<path id="font_1_28" d="M.5529938 .023986817C.5529938 .04699707 .5399933 .04699707 .5269928 .04699707 .46598817 .04798889 .46598817 .06100464 .46598817 .083999637V.29907228C.46598817 .3881073 .394989 .453125 .24598694 .453125 .18899536 .453125 .066986087 .44911195 .066986087 .36109925 .066986087 .3170929 .101989749 .29808045 .1289978 .29808045 .1599884 .29808045 .19198609 .3190918 .19198609 .36109925 .19198609 .39111329 .17298889 .40811158 .16999817 .41011048 .19799805 .41612245 .22999573 .41711427 .24198914 .41711427 .31698609 .41711427 .35198976 .3751068 .35198976 .29907228V.26506043C.2809906 .2620697 .026992798 .25306703 .026992798 .10801697 .026992798 .012130737 .15098572-.005859375 .21998596-.005859375 .2999878-.005859375 .34700013 .035125734 .36898805 .07713318 .36898805 .04598999 .36898805 0 .47299195 0H.5209961C.54100039 0 .5529938 0 .5529938 .023986817M.35198976 .13899231C.35198976 .043151857 .2599945 .030136109 .23498535 .030136109 .18399048 .030136109 .14399719 .06517029 .14399719 .10922241 .14399719 .21734619 .3019867 .23136902 .35198976 .234375V.13899231Z"/>
<path id="font_1_109" d="M.61499026 .0001373291V.0471344C.5529938 .0471344 .54599 .0471344 .54599 .086135867V.4501953L.36299134 .44218446V.39518739C.4249878 .39518739 .43199159 .39518739 .43199159 .3561859V.16514588C.43199159 .08314514 .3809967 .030136109 .30799867 .030136109 .23098755 .030136109 .22799683 .055130006 .22799683 .10914612V.4501953L.04499817 .44218446V.39518739C.10699463 .39518739 .11399841 .39518739 .11399841 .3561859V.12313843C.11399841 .01612854 .19499207-.005859375 .2939911-.005859375 .31999208-.005859375 .3919983-.005859375 .43798829 .072143558V-.005859375L.61499026 .0001373291Z"/>
<path id="font_1_98" d="M.4149933 .14012146C.4149933 .18312073 .394989 .21812439 .3600006 .24612427 .32099916 .27511598 .2889862 .28112794 .21099854 .29412843 .17399597 .30111695 .10899353 .31211854 .10899353 .3591156 .10899353 .42111207 .20199585 .42111207 .22099304 .42111207 .29599 .42111207 .33399964 .39212037 .33898927 .33711244 .33999635 .32211305 .34098817 .3171234 .3619995 .3171234 .38598634 .3171234 .38598634 .32211305 .38598634 .3451233V.42510987C.38598634 .4441223 .38598634 .453125 .36799623 .453125 .3639984 .453125 .3619995 .453125 .32299806 .43411256 .29699708 .44711305 .2619934 .453125 .22200012 .453125 .19198609 .453125 .037994386 .453125 .037994386 .32211305 .037994386 .28211976 .057998659 .25512696 .07798767 .23812866 .117996219 .203125 .1559906 .1971283 .23298645 .18312073 .2689972 .17712403 .34399415 .16412354 .34399415 .10513306 .34399415 .030136109 .2519989 .030136109 .22999573 .030136109 .12399292 .030136109 .09799194 .103134158 .085998538 .14613343 .08099365 .16012573 .07598877 .16012573 .06199646 .16012573 .037994386 .16012573 .037994386 .15412903 .037994386 .13113404V.022140503C.037994386 .0031280518 .037994386-.005859375 .055999757-.005859375 .06298828-.005859375 .06498718-.005859375 .085998538 .009140015L.11199951 .026138306C.1579895-.005859375 .20999146-.005859375 .22999573-.005859375 .26098634-.005859375 .4149933-.005859375 .4149933 .14013672V.14012146Z"/>
<path id="font_1_85" d="M.38198854-.23503113C.38198854-.23002625 .3789978-.22503662 .3789978-.22503662 .34999085-.19802857 .2849884-.13702393 .24299622-.009033203 .21699524 .06997681 .20498657 .16197205 .20498657 .24998474 .20498657 .4469757 .2559967 .60398867 .3659973 .7149811 .3809967 .72998049 .38198854 .73098757 .38198854 .73599246 .38198854 .74697878 .37199403 .75 .3639984 .75 .34700013 .75 .30499269 .7129822 .2869873 .6959839 .1309967 .5409851 .10798645 .35697938 .10798645 .25097657 .10798645 .12597656 .14099121 .015975953 .18798828-.06703186 .2539978-.18203736 .34498597-.24902344 .3639984-.24902344 .37199403-.24902344 .38198854-.24603272 .38198854-.23503113Z"/>
<path id="font_1_47" d="M.6009979 0V.04699707C.5389862 .04699707 .5319977 .04699707 .5319977 .086013797V.69433596L.35499574 .6855469V.63853457C.4169922 .63853457 .42399598 .63853457 .42399598 .5996704V.40518189C.37399293 .44418336 .32199098 .4501953 .2889862 .4501953 .14299011 .4501953 .037994386 .36218263 .037994386 .22116089 .037994386 .089141849 .12998963-.005859375 .27799989-.005859375 .33898927-.005859375 .3869934 .018127442 .41799928 .043136598V-.005859375L.6009979 0M.41799928 .102996829C.40499879 .08514404 .3639984 .030136109 .28799439 .030136109 .1659851 .030136109 .1659851 .15115357 .1659851 .22116089 .1659851 .26916505 .1659851 .3231659 .19198609 .36218263 .22099304 .40419007 .2679901 .41418458 .29899598 .41418458 .35598756 .41418458 .3959961 .3821869 .41799928 .35317994V.102996829Z"/>
<path id="font_1_66" d="M.28599549 0V.04699707H.22399903V.4501953L.049987794 .4423828V.39537049C.10899353 .39537049 .115997318 .39537049 .115997318 .3563385V.04699707H.04699707V0L.16899109 .0029907227 .28599549 0M.23799134 .60728457C.23799134 .6502838 .20298767 .6852875 .1599884 .6852875 .116989139 .6852875 .08198547 .6502838 .08198547 .60728457 .08198547 .5642853 .116989139 .5292969 .1599884 .5292969 .20298767 .5292969 .23799134 .5642853 .23799134 .60728457Z"/>
<path id="font_1_112" d="M.5799866 .3973236V.44433595C.5549927 .44232179 .526001 .44132997 .5009918 .44132997L.4099884 .44433595V.3973236C.42900086 .3973236 .45799256 .39431764 .45799256 .38632203 .45799256 .38632203 .45799256 .38432313 .45298768 .37431336L.33699037 .12416077 .20999146 .3973236H.2639923V.44433595L.13999939 .44132997 .025985718 .44433595V.3973236H.08999634L.2649994 .021102906C.2769928-.00390625 .2899933-.00390625 .30299378-.00390625 .31999208-.00390625 .32998658-.00091552737 .33999635 .020095826L.5059967 .37631227C.5119934 .39031983 .5159912 .3973236 .5799866 .3973236Z"/>
<path id="font_1_50" d="M.49398805 .11706543C.49398805 .13504029 .47499085 .13504029 .46998597 .13504029 .45298768 .13504029 .45098878 .13005066 .44499208 .11405945 .42399598 .066101077 .36698915 .03413391 .3019867 .03413391 .16099549 .03413391 .1599884 .16700745 .1599884 .2179718H.46199037C.48399354 .2179718 .49398805 .2179718 .49398805 .2449646 .49398805 .27598573 .48799134 .34906007 .43798829 .3991089 .40098573 .43511964 .34799195 .453125 .2789917 .453125 .11898804 .453125 .03199768 .35005189 .03199768 .22497559 .03199768 .09107971 .13198853-.005859375 .29299928-.005859375 .45098878-.005859375 .49398805 .10006714 .49398805 .11706543M.39898683 .25097657H.1599884C.1619873 .29000855 .16299439 .3320465 .18399048 .36506654 .20999146 .4051056 .25 .41711427 .2789917 .41711427 .3959961 .41711427 .397995 .28599549 .39898683 .25097657Z"/>
<path id="font_1_96" d="M.44198609 .36819459C.44198609 .42118836 .3880005 .4501953 .33599855 .4501953 .2659912 .4501953 .22599793 .40019227 .20298767 .33718873V.4501953L.036987306 .4423828V.39537049C.09899902 .39537049 .10598755 .39537049 .10598755 .3563385V.04699707H.036987306V0L.16299439 .0029907227C.20098877 .0029907227 .2649994 .0029907227 .30099488 0V.04699707H.21398926V.22218323C.21398926 .29226686 .23899842 .41436769 .33898927 .41436769 .33898927 .41436769 .31999208 .39736939 .31999208 .36834718 .31999208 .32730104 .35198976 .3072815 .3809967 .3072815 .4099884 .3072815 .44198609 .3283081 .44198609 .36834718V.36819459Z"/>
<path id="font_1_59" d="M.55799868 .3970642C.55799868 .42007447 .54100039 .45507813 .49499513 .45507813 .47999574 .45507813 .43299867 .45207215 .3889923 .41706849 .37098695 .42918397 .32899476 .4501953 .25498963 .4501953 .11099243 .4501953 .055999757 .37243653 .055999757 .3024292 .055999757 .26127626 .07598877 .22012329 .10798645 .19703675 .07998657 .16191101 .07398987 .12878418 .07398987 .10771179 .07398987 .0927124 .07798767 .04371643 .117996219 .01171875 .10499573 .008712769 .03199768-.012252808 .03199768-.075164798 .03199768-.12609864 .08699036-.2010498 .2869873-.2010498 .46398927-.2010498 .5419922-.14207459 .5419922-.07217407 .5419922-.04222107 .5339966 .020706177 .46699525 .054718019 .41099549 .08300781 .35099793 .08300781 .25498963 .08300781 .22898865 .08300781 .18299866 .08300781 .17799378 .083984378 .13398743 .0909729 .12298584 .12898255 .12298584 .14697266 .12298584 .15698242 .1269989 .17198181 .1329956 .17997742 .1789856 .15629578 .22999573 .15429688 .25498963 .15429688 .39898683 .15429688 .45399476 .23234558 .45399476 .3024292 .45399476 .34942628 .42900086 .38243104 .4139862 .3984375 .44400025 .4144287 .46499635 .4164276 .47599793 .4174347 .47399903 .4124298 .47200013 .40342713 .47200013 .39743043 .47200013 .37219239 .4889984 .354187 .5149994 .354187 .54100039 .354187 .55799868 .3731842 .55799868 .39718629V.3970642M.34298707 .30221559C.34298707 .25724793 .34298707 .19029236 .25498963 .19029236 .16699219 .19021607 .16699219 .25733949 .16699219 .3024292 .16699219 .34742738 .16699219 .41418458 .25498963 .41418458 .34298707 .41418458 .34298707 .34742738 .34298707 .3024292V.30221559M.45599366-.07501221C.45599366-.11102295 .4169922-.16503906 .2869873-.16503906 .16699219-.16503906 .117996219-.11903381 .117996219-.073013309 .117996219-.013000488 .18099976-.013000488 .19499207-.013000488H.31199647C.34298707-.013000488 .45599366-.013000488 .45599366-.07501221Z"/>
<path id="font_1_77" d="M.61499026 0V.04699707H.54599V.30613709C.54599 .41119386 .49198915 .4501953 .3919983 .4501953 .29599 .4501953 .24299622 .39318849 .21699524 .3421631V.4501953L.04499817 .4423828V.39537049C.10699463 .39537049 .11399841 .39537049 .11399841 .3563385V.04699707H.04499817V0L.17098999 .0029907227 .29699708 0V.04699707H.22799683V.2562256C.22799683 .3653412 .31399537 .41436769 .3769989 .41436769 .41099549 .41436769 .43199159 .39337159 .43199159 .31729127V.04699707H.36299134V0L.4889984 .0029907227 .61499026 0Z"/>
<path id="font_1_43" d="M.47799684 .117126468C.47799684 .13113404 .46398927 .13113404 .45399476 .13113404 .43598939 .13113404 .43499757 .12913513 .42999269 .11613464 .4039917 .053131105 .35598756 .03413391 .30499269 .03413391 .1659851 .03413391 .1659851 .18112183 .1659851 .22712708 .1659851 .28312684 .1659851 .41311646 .29499818 .41311646 .32998658 .41311646 .34700013 .41011048 .3600006 .40711976 .34199525 .39111329 .33999635 .3701172 .33999635 .3611145 .33999635 .3171234 .375 .29811097 .4019928 .29811097 .43299867 .29811097 .46499635 .3191223 .46499635 .3611145 .46499635 .44711305 .34899903 .453125 .29100038 .453125 .11199951 .45314027 .037994386 .33813478 .037994386 .22213745 .037994386 .08912659 .13198853-.005859375 .28599549-.005859375 .44799806-.005859375 .47799684 .11013794 .47799684 .117126468Z"/>
<path id="font_1_86" d="M.33799745 .24998474C.33799745 .37498475 .30499269 .48498536 .2579956 .5679779 .19198609 .6829834 .100997928 .75 .08198547 .75 .07398987 .75 .06399536 .74697878 .06399536 .73599246 .06399536 .73098757 .06399536 .72898867 .08099365 .7129822 .20698548 .5849762 .24099732 .40797425 .24099732 .25097657 .24099732 .053970338 .18998719-.103027347 .07998657-.21403504 .06498718-.22903443 .06399536-.23002625 .06399536-.23503113 .06399536-.24603272 .07398987-.24902344 .08198547-.24902344 .09899902-.24902344 .14099121-.21203614 .15899658-.19502259 .31498719-.040023805 .33799745 .14398194 .33799745 .24998474Z"/>
<path id="font_1_105" d="M.38198854 .124176029V.17721558H.33499146V.12619019C.33499146 .058151246 .30299378 .03413391 .2749939 .03413391 .21699524 .03413391 .21699524 .09817505 .21699524 .1211853V.3973236H.36299134V.44433595H.21699524V.6357422H.16999817C.16899109 .53552249 .11999512 .43632508 .020996094 .43333436V.3973236H.102996829V.123184207C.102996829 .01612854 .18998719-.005859375 .26098634-.005859375 .33699037-.005859375 .38198854 .05114746 .38198854 .124176029Z"/>
<path id="font_1_63" d="M.61499026 0V.04699707H.54599V.30613709C.54599 .41119386 .49198915 .4501953 .3919983 .4501953 .29599 .4501953 .24499512 .3921814 .22299195 .3541565H.22200012V.69433596L.04499817 .6855469V.63853457C.10699463 .63853457 .11399841 .63853457 .11399841 .5996704V.04699707H.04499817V0L.17098999 .0029907227 .29699708 0V.04699707H.22799683V.25610353C.22799683 .36515809 .31399537 .41418458 .3769989 .41418458 .41099549 .41418458 .43199159 .39317323 .43199159 .31713868V.04699707H.36299134V0L.4889984 .0029907227 .61499026 0Z"/>
<path id="font_1_81" d="M.5419922 .21812439C.5419922 .35212709 .44999696 .453125 .2869873 .453125 .12298584 .453125 .03199768 .35112 .03199768 .21812439 .03199768 .09413147 .11999512-.005859375 .2869873-.005859375 .45498658-.005859375 .5419922 .09512329 .5419922 .21812439M.4139862 .22912598C.4139862 .14213562 .4139862 .03413391 .2869873 .03413391 .1599884 .03413391 .1599884 .14213562 .1599884 .22912598 .1599884 .27412416 .1599884 .32511903 .1769867 .3591156 .19599915 .39611817 .23799134 .41711427 .2869873 .41711427 .32899476 .41711427 .37098695 .40112306 .3929901 .36611939 .4139862 .3321228 .4139862 .27713014 .4139862 .22912598Z"/>
<path id="font_1_75" d="M.93499758 0V.04699707H.8659973V.30613709C.8659973 .40919496 .8149872 .4501953 .71199038 .4501953 .62098696 .4501953 .56900027 .40019227 .54299929 .3541565 .522995 .44718934 .43099977 .4501953 .3929901 .4501953 .30599977 .4501953 .24899292 .40518189 .21699524 .3421631V.4501953L.04499817 .4423828V.39537049C.10699463 .39537049 .11399841 .39537049 .11399841 .3563385V.04699707H.04499817V0L.17098999 .0029907227 .29699708 0V.04699707H.22799683V.2562256C.22799683 .3653412 .31498719 .41436769 .3769989 .41436769 .41099549 .41436769 .43299867 .39437867 .43299867 .31729127V.04699707H.3639984V0L.48999024 .0029907227 .6159973 0V.04699707H.5469971V.2562256C.5469971 .3653412 .6339874 .41436769 .69599917 .41436769 .7299957 .41436769 .7519989 .39437867 .7519989 .31729127V.04699707H.68299868V0L.8089905 .0029907227 .93499758 0Z"/>
<path id="font_2_3" d="M.6459961 .5646057C.68699648 .6286011 .7220001 .6476135 .7679901 .6516113 .7799988 .65260317 .78900149 .6536102 .78900149 .6696167 .78900149 .6776123 .7829895 .6826172 .776001 .6826172 .7719879 .6826172 .746994 .6796112 .69400027 .6796112 .6619873 .6796112 .6279907 .6826172 .5970001 .6826172 .58999636 .6826172 .57899478 .680603 .57899478 .6646118 .57899478 .65260317 .58999636 .6516113 .59298709 .6516113 .6029968 .65060427 .6389923 .64860537 .6389923 .61961367 .6389923 .6116028 .6359863 .604599 .6319885 .5966034 .6279907 .5886078 .6259918 .58461 .621994 .5776062L.30899049 .092544559 .23298645 .62161257C.23298645 .63061526 .23999024 .6516113 .3019867 .6516113 .31399537 .6516113 .32598878 .6516113 .32598878 .6696167 .32598878 .680603 .31599427 .6826172 .30999757 .6826172 .2919922 .6826172 .2709961 .680603 .2519989 .680603 .23199463 .680603 .20999146 .6796112 .18899536 .6796112 .17098999 .6796112 .14299011 .6796112 .13398743 .680603 .12599182 .680603 .084991458 .6826172 .07699585 .6826172 .07299805 .6826172 .05899048 .6826172 .05899048 .6646118 .05899048 .6516113 .069992069 .6516113 .08198547 .6516113 .13798523 .6516113 .13899231 .64260867 .14299011 .6175995L.23098755 .0035247803C.23399353-.015472412 .23498535-.022460938 .2519989-.022460938 .2679901-.022460938 .27398683-.014465332 .2809906-.0024719239L.6459961 .5646057Z"/>
<path id="font_2_1" d="M.47399903 .34091188C.46299745 .4039917 .41799928 .45703126 .33999635 .45703126 .24798584 .45703126 .1769867 .41200257 .12199402 .3549347 .04399109 .2728424 .040985109 .17372132 .040985109 .15670777 .040985109 .09663391 .084991458-.022460938 .23199463-.022460938 .47999574-.022460938 .5799866 .32089234 .5799866 .45402528 .5799866 .6062927 .48999024 .7158203 .35598756 .7158203 .20498657 .7158203 .1599884 .58729556 .1599884 .55830386 .1599884 .54029849 .17298889 .5222931 .19898987 .5222931 .22799683 .5222931 .25299073 .54829409 .25299073 .57629397 .25299073 .6042938 .22799683 .6132965 .20899964 .6132965 .23699951 .66000369 .2899933 .69081118 .35398866 .69081118 .44699098 .69081118 .5019989 .61528018 .5019989 .50823977 .5019989 .49920655 .5009918 .43702699 .47499085 .34091188H.47399903M.23399353 .0055389406C.14299011 .0055389406 .12199402 .07461548 .12199402 .120666507 .12199402 .15570069 .14698792 .28886415 .18798828 .34492494 .22799683 .39898683 .27799989 .4320221 .33999635 .4320221 .43899537 .4320221 .45498658 .34492494 .45498658 .2988739 .45498658 .2237854 .3880005 .0055389406 .23399353 .0055389406Z"/>
<path id="font_3_2" d="M.91999819-.049804689C.875-.05378723 .87098696-.08879089 .87098696-.0987854 .87098696-.13278198 .897995-.14878845 .91999819-.14878845 .94400027-.14878845 .9700012-.13278198 .9700012-.09779358 .9700012-.04286194 .91600039 0 .8569946 0 .7549896 0 .69599917-.13278198 .651001-.28479005 .625-.37179566 .49598695-.8718262 .3899994-1.4648743 .37298585-1.5608673 .32398988-1.8368988 .28399659-1.986908 .2679901-2.0449067 .22599793-2.1972657 .16899109-2.1972657 .16099549-2.1972657 .1309967-2.1952515 .10699463-2.1719208 .1519928-2.1679078 .1559906-2.132904 .1559906-2.1229096 .1559906-2.088913 .1289978-2.0729066 .10699463-2.0729066 .08299255-2.0729066 .056991579-2.088913 .056991579-2.1239014 .056991579-2.179016 .11099243-2.2222748 .16999817-2.2222748 .27198792-2.2222748 .33099366-2.088913 .37599183-1.9369049 .4019928-1.8488922 .5309906-1.3478546 .6369934-.7568207 .6539917-.6608124 .7029877-.38479615 .7429962-.23478699 .7589874-.17678833 .8009949-.025009156 .8580017-.025009156 .8659973-.025009156 .8959961-.026992798 .91999819-.049804689Z"/>
<path id="font_4_3" d="M.7630005 .56159976C.7659912 .56658938 .776001 .57759097 .7829895 .5856018 .82398989 .63560488 .85899356 .64060977 .8989868 .64260867 .9099884 .6436157 .91600039 .65760806 .91600039 .6686096 .9149933 .6716156 .91400149 .6826172 .8999939 .6826172 .8739929 .6826172 .84298709 .6786041 .8149872 .6786041 .79100039 .6786041 .7319946 .6826172 .70799258 .6826172 .69099429 .6826172 .6859894 .6696167 .6859894 .65760806 .6859894 .6436157 .69999697 .64260867 .70700076 .64260867 .71398928 .64160159 .7480011 .63960269 .7480011 .6156006 .7480011 .6026001 .7350006 .5836029 .72898867 .57559207L.3919983 .0925293 .2899933 .6035919C.28799439 .6136017 .28799439 .6156006 .28799439 .6195984 .28799439 .63160708 .30899049 .64260867 .35398866 .64260867 .36698915 .64260867 .38198854 .64260867 .38198854 .66760256 .38198854 .6706085 .3809967 .6826172 .36499024 .6826172 .34399415 .6826172 .31999208 .6796112 .2979889 .6796112 .27598573 .6796112 .25498963 .6786041 .23298645 .6786041L.17399597 .6796112C.1559906 .6796112 .1349945 .6826172 .116989139 .6826172 .10598755 .6826172 .09498596 .6776123 .09498596 .65760806 .09498596 .64260867 .10899353 .64260867 .12199402 .64260867 .18099976 .64260867 .18299866 .6345978 .18699646 .6125946L.30699159 .004501343C.31098939-.0134887699 .31298829-.021484375 .33499146-.021484375 .35499574-.021484375 .3600006-.01449585 .36999513-.00048828127L.7630005 .56159976Z"/>
<path id="font_5_3" d="M.8009949 .65982058C.8019867 .66282656 .80599978 .66981509 .80599978 .6738281 .80599978 .68281558 .798996 .68281558 .7809906 .68281558H.07398987C.055999757 .68281558 .04899597 .68281558 .04899597 .6738281 .04899597 .66981509 .052993776 .66282656 .053985597 .65982058L.397995-.0082092289C.40899659-.029205323 .41099549-.033203126 .4269867-.033203126 .44400025-.033203126 .44699098-.028213501 .45498658-.012207031L.8009949 .65982058M.1789856 .6078186H.7389984L.45899964 .06278992 .1789856 .6078186Z"/>
<path id="font_5_1" d="M.19599915 .25125123C.19599915 .28025819 .17298889 .30525209 .14199829 .30525209 .11099243 .30525209 .08799744 .28025819 .08799744 .25125123 .08799744 .22225952 .11099243 .19726563 .14199829 .19726563 .17298889 .19726563 .19599915 .22225952 .19599915 .25125123Z"/>
<path id="font_6_2" d="M.6629944 .6795349H.041992189V.63053897H.1499939V.04899597H.041992189V0C.07699585 .0029907227 .18598938 .0029907227 .22799683 .0029907227 .2749939 .0029907227 .3889923 .0029907227 .42999269 0V.04899597H.29499818V.3154297H.34899903C.44599916 .3154297 .45498658 .2725067 .45498658 .19866944H.5059967V.48147584H.45498658C.45498658 .4074402 .44599916 .36442567 .34899903 .36442567H.29499818V.63053897H.44198609C.6029968 .63053897 .6279907 .5555115 .6429901 .43644715H.69400027L.6629944 .6795349Z"/>
<path id="font_7_4" d="M.3889923 .120285037C.3889923 .10227966 .3889923 .09927368 .37399293 .07827759 .34298707 .0332489 .29699708 .014251709 .25698854 .014251709 .21398926 .014251709 .17399597 .038253786 .147995 .08027649 .12199402 .123291019 .11999512 .18229676 .11999512 .21430969 .11999512 .26132203 .12599182 .3143463 .1519928 .35435487 .17399597 .3863678 .21499634 .41737367 .2679901 .41737367 .30999757 .41737367 .34999085 .39637757 .3769989 .35835267 .3889923 .3423462 .3889923 .34135438 .3889923 .32234193V.120285037M.3919983 .38336183C.3869934 .38937379 .34199525 .4423828 .2639923 .4423828 .14099121 .4423828 .033996583 .34436036 .033996583 .21531677 .033996583 .090270999 .13398743-.0107421879 .25299073-.0107421879 .32598878-.0107421879 .37098695 .03225708 .3889923 .053268434V-.011001587L.5399933 0V.0309906C.47200013 .0309906 .46299745 .037994386 .46299745 .087020877V.69433596L.31498719 .68333438V.6523285C.3829956 .6523285 .3919983 .6453247 .3919983 .5962982V.38336183Z"/>
<path id="font_7_3" d="M.70799258 .3310089C.7220001 .3310089 .7409973 .3310089 .7409973 .35202027 .7409973 .37402345 .71899417 .37402345 .70399478 .37402345H.09399414C.07899475 .37402345 .056991579 .37402345 .056991579 .35202027 .056991579 .3310089 .07699585 .3310089 .08999634 .3310089H.70799258M.70399478 .12695313C.71899417 .12695313 .7409973 .12695313 .7409973 .14894104 .7409973 .1699524 .7220001 .1699524 .70799258 .1699524H.08999634C.07699585 .1699524 .056991579 .1699524 .056991579 .14894104 .056991579 .12695313 .07899475 .12695313 .09399414 .12695313H.70399478Z"/>
<path id="font_3_1" d="M.5099945-1.3887177C.6759949-1.3887177 .7919922-1.2557678 .7919922-1.1108704 .7919922-1.0159302 .7409973-.90600588 .61898806-.85401919 .6380005-.7569885 .6549988-.63594058 .70399478-.4018402 .7299957-.28079225 .7839966-.025009156 .8580017-.025009156 .8659973-.025009156 .8959961-.026992798 .91999819-.04977417 .875-.053741456 .87098696-.08874512 .87098696-.098739627 .87098696-.1327362 .897995-.14874268 .91999819-.14874268 .94400027-.14874268 .9700012-.1327362 .9700012-.0977478 .9700012-.04283142 .91600039 0 .8569946 0 .7480011 0 .69299319-.15473938 .6619873-.2507782 .6239929-.3628235 .54299929-.7169647 .5169983-.8330078 .35099793-.8330078 .23498535-.96595767 .23498535-1.1108704 .23498535-1.2057953 .28599549-1.3157349 .4079895-1.3677063 .3889923-1.4647369 .37199403-1.5857849 .32299806-1.8198547 .29699708-1.9409027 .24299622-2.1972657 .16899109-2.1972657 .16099549-2.1972657 .1309967-2.1952515 .10699463-2.1719819 .1519928-2.1679536 .1559906-2.1329499 .1559906-2.1229554 .1559906-2.0889588 .1289978-2.0729523 .10699463-2.0729523 .08299255-2.0729523 .056991579-2.0889588 .056991579-2.1239472 .056991579-2.179062 .11099243-2.2222748 .16999817-2.2222748 .2789917-2.2222748 .33399964-2.0669556 .36499024-1.9709168 .40299989-1.8588715 .48399354-1.5047455 .5099945-1.3887177M.4149933-1.3247223C.30999757-1.2737579 .27799989-1.1788178 .27799989-1.1108704 .27799989-.9929352 .36799623-.88101199 .5079956-.87602236L.4149933-1.3247223M.61099246-.8970032C.70999148-.9429779 .7489929-1.0349121 .7489929-1.1108704 .7489929-1.2287903 .6589966-1.3407135 .5189972-1.3457031L.61099246-.8970032Z"/>
<path id="font_4_1" d="M.25498963 .6113434C.28199769 .651062 .33699037 .68084719 .4079895 .68084719 .5069885 .68084719 .58499148 .6163025 .58499148 .48919679 .58499148 .4690857 .58299258 .4270172 .56199648 .33992005 .5399933 .41400147 .47898866 .45703126 .3999939 .45703126 .35899354 .45703126 .269989 .4550171 .16699219 .36294557 .07299805 .2788391 .07299805 .17671204 .07299805 .16470337 .07299805 .11262512 .09799194 .068573 .13899231 .030532837 .18299866-.009490967 .23699951-.021484375 .29599-.021484375 .57598879-.021484375 .673996 .31488038 .673996 .4400177 .673996 .6013489 .5649872 .71484377 .41099549 .71484377 .23799134 .71484377 .19499207 .5843506 .19499207 .55433657 .19499207 .53834536 .20498657 .51634219 .23498535 .51634219 .27198792 .51634219 .2919922 .54833987 .2919922 .5723419 .2919922 .6043396 .26098634 .61035159 .25498963 .6113434M.29899598 .01550293C.17399597 .01550293 .1639862 .10562134 .1639862 .13265991 .1639862 .14967346 .18099976 .27583314 .22698975 .33590699 .2630005 .38197328 .31799317 .4240265 .40098573 .4240265 .5099945 .4240265 .5399933 .34391786 .5399933 .28785707 .5399933 .22377014 .47499085 .01550293 .29899598 .01550293Z"/>
<path id="font_6_1" d="M.48999024 .67318728C.47898866 .7001953 .46398927 .7001953 .44599916 .7001953 .42799378 .7001953 .41299439 .7001953 .4019928 .67318728L.14898682 .072021488C.14199829 .055999757 .14199829 .055007936 .116989139 .052001954 .099990848 .049987794 .08099365 .04899597 .06399536 .04899597H.042999269V0C.09899902 .0019989014 .11199951 .0029907227 .16499329 .0029907227 .20399475 .0029907227 .23599243 .0029907227 .2979889 0V.04899597C.2709961 .04899597 .23699951 .04899597 .20899964 .060012819L.2639923 .1921997H.54100039L.6009979 .04899597H.5069885V0C.5419922 .0029907227 .6429901 .0029907227 .6839905 .0029907227 .7259979 .0029907227 .8109894 .0029907227 .848999 0V.04899597H.7519989L.48999024 .67318728M.40299989 .52119448 .519989 .24121094H.2849884L.40299989 .52119448Z"/>
<path id="font_1_97" d="M.57398989 .20323181C.57398989 .31422425 .49299623 .39523316 .4019928 .41423036L.25698854 .4452362C.21699524 .4542389 .16099549 .48823548 .16099549 .5492401 .16099549 .59225466 .18899536 .6542511 .2889862 .6542511 .36898805 .6542511 .46998597 .6202545 .49299623 .48423768 .49699403 .4602356 .49699403 .4582367 .5179901 .4582367 .5419922 .4582367 .5419922 .46324159 .5419922 .48623658V.6692505C.5419922 .68826296 .5419922 .6972656 .5239868 .6972656 .5159912 .6972656 .5149994 .69625857 .5039978 .68626406L.45899964 .6422577C.40098573 .68826296 .33599855 .6972656 .28799439 .6972656 .13598633 .6972656 .06399536 .6012573 .06399536 .49624635 .06399536 .4312439 .09700012 .38523866 .117996219 .36323548 .16699219 .31422425 .20098877 .30723573 .30999757 .28323365 .397995 .2642212 .4149933 .26123048 .43699647 .24023438 .45199586 .22523499 .47698976 .19923401 .47698976 .15324402 .47698976 .10523987 .45098878 .036254884 .34700013 .036254884 .2709961 .036254884 .11898804 .056243898 .11099243 .20523072 .10998535 .22322083 .10998535 .22822571 .08799744 .22822571 .06399536 .22822571 .06399536 .222229 .06399536 .19923401V.01725769C.06399536-.0017547608 .06399536-.0107421879 .08198547-.0107421879 .09098816-.0107421879 .09298706-.008743286 .100997928-.0017547608L.14698792 .04425049C.21299744-.0047454836 .30599977-.0107421879 .34700013-.0107421879 .5119934-.0107421879 .57398989 .102249149 .57398989 .20323181Z"/>
<path id="font_1_70" d="M.58699038 0V.04699707H.56999209C.5269928 .04699707 .5239868 .050994874 .5109863 .0670166L.34199525 .2782135 .47200013 .37930299C.48599244 .39031983 .49499513 .3973236 .56199648 .3973236V.44433595C.5349884 .44140626 .5099945 .44140626 .48399354 .44140626L.36898805 .44433595V.3973236C.3919983 .3973999 .394989 .39439393 .40299989 .38639833L.21398926 .23739624V.69433596L.036987306 .6855469V.63853457C.09899902 .63853457 .10598755 .63853457 .10598755 .5995636V.04699707H.036987306V0L.15699768 .0029907227 .27799989 0V.04699707H.20899964V.17388916C.23799134 .19688416 .24598694 .2028656 .2659912 .21685791L.36698915 .09095764C.37599183 .07896423 .3919983 .05899048 .3919983 .055984498 .3919983 .04699707 .37399293 .04699707 .36099244 .04699707V0C.3909912 .0019989014 .47799684 .0029907227 .48298646 .0029907227 .5189972 .0029907227 .5529938 .0019989014 .58699038 0Z"/>
<path id="font_2_2" d="M.6539917 .67807009C.6569977 .68907168 .6569977 .69107058 .6569977 .69407656 .6569977 .69506838 .6559906 .7050781 .644989 .7050781 .6399994 .7050781 .6389923 .70407107 .6269989 .6900635 .61299136 .6750641 .625 .6880646 .57899478 .6340332 .5419922 .6900635 .48399354 .7050781 .43099977 .7050781 .3019867 .7050781 .17999268 .58999636 .17999268 .46990968 .17999268 .42886354 .19299317 .39483644 .21899414 .3668213 .24798584 .336792 .272995 .3307953 .34498597 .31178285L.42900086 .29075624C.46099855 .27975465 .49398805 .24871826 .49398805 .19168091 .49398805 .1026001 .40899659 .008529663 .30899049 .008529663 .25 .008529663 .1309967 .026550293 .1309967 .15464783 .1309967 .16365052 .1309967 .17866516 .13699341 .20869446 .13899231 .21269226 .13899231 .21469116 .13899231 .21569824 .13899231 .21969605 .13699341 .22669983 .125 .22669983 .11299133 .22669983 .11199951 .2217102 .10798645 .20469666L.054992677-.011474609C.054992677-.017471314 .05999756-.022460938 .066986087-.022460938 .07199097-.022460938 .07299805-.021469117 .085998538-.007461548 .09199524-.00047302247 .12098694 .03555298 .1329956 .048568727 .18499756-.018463135 .2769928-.022460938 .30699159-.022460938 .44499208-.022460938 .5649872 .10661316 .5649872 .23271179 .5649872 .35681153 .46699525 .38183595 .43598939 .38883973L.34498597 .41285707C.31199647 .42086793 .25099183 .4368744 .25099183 .51293948 .25099183 .5890045 .33099366 .677063 .43099977 .677063 .47099305 .677063 .5099945 .6660614 .5379944 .63804629 .57598879 .6010132 .57699587 .54696658 .57699587 .5209503 .57699587 .48791505 .57299807 .47691346 .57299807 .4689026 .57299807 .46089173 .57699587 .45588685 .58699038 .45588685 .59799197 .45588685 .59799197 .457901 .6029968 .47691346L.6539917 .67807009Z"/>
<path id="font_8_1" d="M.28399659 .69433596 .1349945 .5611572 .15699768 .53515627 .28399659 .6343231 .41099549 .53515627 .43299867 .5611572 .28399659 .69433596Z"/>
<path id="font_9_1" d="M.12199402 .06324768C.117996219 .050247194 .11199951 .025222779 .11199951 .022232056 .11199951 .00022888184 .12998963-.009765625 .1459961-.009765625 .1639862-.009765625 .17999268 .0032196046 .18499756 .01222229 .18998719 .021224976 .19799805 .053237916 .20298767 .07424927 .20799256 .09326172 .21899414 .13928223 .22499085 .16429138 .23098755 .18629456 .23699951 .20831299 .24198914 .23132324 .25299073 .27233888 .25498963 .28033448 .28399659 .32136537 .31199647 .3613739 .35899354 .4133911 .43399049 .4133911 .49198915 .4133911 .49299623 .36238099 .49299623 .34336854 .49299623 .28334046 .44999696 .17228699 .43399049 .13027954 .4229889 .102264408 .4189911 .09326172 .4189911 .07624817 .4189911 .023223877 .46299745-.009765625 .5139923-.009765625 .6139984-.009765625 .6579895 .12828064 .6579895 .14328003 .6579895 .15628052 .644989 .15628052 .6419983 .15628052 .6279907 .15628052 .6269989 .15028382 .6230011 .13928223 .59999087 .059249879 .5569916 .018234253 .5169983 .018234253 .49598695 .018234253 .49198915 .032226564 .49198915 .053237916 .49198915 .07624817 .49699403 .089263919 .5149994 .13427735 .5269928 .1652832 .56799319 .2713318 .56799319 .32736207 .56799319 .4243927 .4909973 .44140626 .43798829 .44140626 .35499574 .44140626 .29899598 .39038087 .2689972 .3503723 .2619934 .41940309 .20298767 .44140626 .1619873 .44140626 .11898804 .44140626 .09599304 .4104004 .08299255 .38739015 .06098938 .3503723 .04699707 .29335023 .04699707 .28834535 .04699707 .27534486 .06098938 .27534486 .06399536 .27534486 .07798767 .27534486 .07899475 .27833558 .085998538 .3053589 .100997928 .36437989 .11999512 .4133911 .15899658 .4133911 .18499756 .4133911 .19198609 .39138795 .19198609 .36437989 .19198609 .34536744 .18299866 .3083496 .17599488 .28134156 .16899109 .2543335 .15899658 .21331787 .1539917 .19129944L.12199402 .06324768Z"/>
<path id="font_10_96" d="M.40699769 .37739564C.40699769 .4113922 .375 .44140626 .32798768 .44140626 .27799989 .44140626 .22299195 .4104004 .19299317 .33439637H.19198609V.44140626L.04899597 .43052674V.39453126C.115997318 .39453126 .12399292 .3875122 .12399292 .33843995V.079055789C.12399292 .035995485 .11399841 .035995485 .04899597 .035995485V0C.053985597 0 .12199402 .0039978029 .16299439 .0039978029L.29299928 0V.035995485H.272995C.19898987 .036071779 .19898987 .047073366 .19898987 .081085208V.22807312C.19898987 .31207276 .23799134 .41308595 .33299256 .41308595 .32398988 .40608216 .31599427 .39308167 .31599427 .3770752 .31599427 .3440857 .34199525 .3310852 .36099244 .3310852 .3849945 .3310852 .40699769 .34707643 .40699769 .3770752V.37739564Z"/>
<path id="font_10_66" d="M.27398683 0V.035995485C.21598816 .035995485 .20599365 .035995485 .20599365 .07803345V.44140626L.05899048 .43052674V.39453126C.12199402 .39453126 .1309967 .3885193 .1309967 .33952333V.07952881C.1309967 .035995485 .12098694 .035995485 .055999757 .035995485V0C.055999757 0 .12799073 .0039978029 .16799927 .0039978029 .20298767 .0039978029 .23899842 .0029907227 .27398683 0M.21899414 .60214236C.21899414 .6341553 .19400025 .66015627 .1619873 .66015627 .12799073 .66015627 .10499573 .6321411 .10499573 .6031494 .10499573 .57115176 .12998963 .54515078 .1619873 .54515078 .19599915 .54515078 .21899414 .57315066 .21899414 .60214236Z"/>
<path id="font_10_59" d="M.54499819 .40040589C.54499819 .42340089 .526001 .45140077 .48599244 .45140077 .47099305 .45140077 .4169922 .44839479 .36999513 .4053955 .33999635 .42739869 .2979889 .44140626 .2539978 .44140626 .15098572 .44140626 .07598877 .372406 .07598877 .29440309 .07598877 .2554016 .09599304 .21939087 .12399292 .19340515 .115997318 .18440247 .09399414 .1513977 .09399414 .11239624 .09399414 .09939575 .09700012 .05239868 .13598633 .023391724 .09098816 .0082092289 .038986207-.024841309 .038986207-.076934818 .038986207-.15003968 .14898682-.20507813 .28399659-.20507813 .41099549-.20507813 .5289917-.15505982 .5289917-.074920658 .5289917-.0448761 .5169983 .00920105 .46199037 .039260866 .40299989 .0703125 .34399415 .0703125 .24699402 .0703125 .22499085 .0703125 .18899536 .0703125 .18099976 .07130432 .14898682 .078308109 .1309967 .108306888 .1309967 .13729859 .1309967 .16246033 .13798523 .17045594 .14399719 .17845154 .15899658 .16944885 .19499207 .14746094 .25299073 .14746094 .35598756 .14746094 .43099977 .21644593 .43099977 .29444886 .43099977 .33345033 .41299439 .36445619 .3889923 .39045716 .43399049 .42245484 .47299195 .42344667 .48999024 .42344667 .48599244 .41944886 .48098756 .41545106 .48098756 .39945985 .48098756 .37945558 .49598695 .3674469 .5130005 .3674469 .5269928 .3674469 .54499819 .37745667 .54499819 .40045167V.40040589M.35099793 .29444886C.35099793 .27845765 .35099793 .2384491 .33099366 .21244812 .31698609 .19544983 .2899933 .17745972 .2539978 .17745972 .1559906 .17720032 .1559906 .2732849 .1559906 .29429627 .1559906 .310318 .1559906 .3503418 .17599488 .3763733 .18998719 .39338685 .21699524 .4113922 .25299073 .4113922 .35099793 .4113922 .35099793 .31532289 .35099793 .29429627V.29444886M.46798707-.07600403C.46798707-.12904358 .3889923-.17507935 .28399659-.17507935 .1789856-.17507935 .099990848-.12808228 .099990848-.07608032 .099990848-.04107666 .13198853 .0019226074 .19599915 .0029296876H.2539978C.34298707 .0029296876 .46798707 .0029296876 .46798707-.07608032V-.07600403Z"/>
<path id="font_10_63" d="M.58999636 0V.035995485C.5249939 .035995485 .5149994 .035995485 .5149994 .0790863V.3035736C.5149994 .39045716 .47200013 .44140626 .36499024 .44140626 .27598573 .44140626 .22698975 .3884735 .20498657 .35058595H.20399475V.69433596L.053985597 .6826172V.64660647C.12098694 .64660647 .1289978 .6396179 .1289978 .59065249V.07896423C.1289978 .035995485 .11898804 .035995485 .053985597 .035995485V0C.053985597 0 .12599182 .0039978029 .16799927 .0039978029 .20498657 .0039978029 .27398683 .0009918213 .2829895 0V.035995485C.21798706 .035995485 .20799256 .035995485 .20799256 .07904053V.25923158C.20799256 .36434938 .29100038 .4133911 .35699464 .4133911 .4269867 .4133911 .43598939 .3583374 .43598939 .3072815V.07904053C.43598939 .035995485 .42599488 .035995485 .36099244 .035995485V0C.36099244 0 .43299867 .0039978029 .47499085 .0039978029 .5119934 .0039978029 .58099368 .0009918213 .58999636 0Z"/>
<path id="font_10_105" d="M.375 .12606812V.1809845H.34098817V.12705994C.34098817 .059173585 .30899049 .022232056 .269989 .022232056 .20098877 .022232056 .20098877 .10609436 .20098877 .124069217V.39465333H.35699464V.43066407H.20098877V.6142578H.16699219C.1659851 .5244446 .125 .42565919 .0289917 .4226532V.39465333H.12199402V.1250763C.12199402 .01322937 .20599365-.009765625 .2619934-.009765625 .32899476-.010009766 .375 .04699707 .375 .12599182V.12606812Z"/>
<path id="font_10_64" d="M.31399537 .18101502V.24902344H.019989014V.18101502H.31399537Z"/>
<path id="font_10_28" d="M.5439911 .09013367V.14515686H.5099945V.09114075C.5099945 .08113098 .5099945 .033111574 .47299195 .033111574 .43598939 .033111574 .43598939 .0801239 .43598939 .09313965V.268219C.43598939 .3212433 .43598939 .35925294 .3899994 .39627076 .34899903 .4302826 .30099488 .44628907 .24198914 .44628907 .14698792 .44628907 .07998657 .41027833 .07998657 .34925843 .07998657 .31723023 .101989749 .30023194 .12799073 .30023194 .15499878 .30023194 .1749878 .3202362 .1749878 .34724427 .1749878 .3642578 .16699219 .38526917 .13999939 .39326478 .17599488 .41827394 .23399353 .41827394 .23999024 .41827394 .29599 .41827394 .35699464 .38127137 .35699464 .29722596V.2662201C.3019867 .26420594 .23599243 .2612152 .16299439 .23420716 .07299805 .20118714 .04499817 .14616394 .04499817 .101135257 .04499817 .0152282719 .14898682-.009765625 .21998596-.009765625 .2999878-.009765625 .34700013 .035232545 .36799623 .07423401 .37199403 .033111574 .39898683-.0048828127 .44499208-.0048828127 .44499208-.0048828127 .5439911-.0048828127 .5439911 .09010315V.09013367M.35699464 .14111328C.35699464 .04522705 .272995 .018234253 .22799683 .018234253 .1769867 .018234253 .1289978 .052230836 .1289978 .10122681 .1289978 .15621948 .1769867 .23323059 .35699464 .24023438V.14111328Z"/>
<path id="font_10_77" d="M.58999636 0V.035995485C.5249939 .035995485 .5149994 .035995485 .5149994 .07904053V.3032837C.5149994 .3903656 .47200013 .44140626 .36499024 .44140626 .2829895 .44140626 .22999573 .39637757 .20199585 .34432984H.20098877V.44140626L.053985597 .43052674V.39453126C.12098694 .39453126 .1289978 .3875122 .1289978 .33843995V.079055789C.1289978 .035995485 .11898804 .035995485 .053985597 .035995485V0C.053985597 0 .12599182 .0039978029 .16799927 .0039978029 .20498657 .0039978029 .27398683 .0009918213 .2829895 0V.035995485C.21798706 .035995485 .20799256 .035995485 .20799256 .079055789V.25932313C.20799256 .36434938 .29100038 .4133911 .35699464 .4133911 .4269867 .4133911 .43598939 .3583374 .43598939 .3072815V.07904053C.43598939 .035995485 .42599488 .035995485 .36099244 .035995485V0C.36099244 0 .43299867 .0039978029 .47499085 .0039978029 .5119934 .0039978029 .58099368 .0009918213 .58999636 0Z"/>
<path id="font_10_47" d="M.58099368 0V.035995485C.5139923 .035995485 .5059967 .042999269 .5059967 .09202576V.69433596L.35598756 .6826172V.64660647C.4229889 .64660647 .43099977 .6396332 .43099977 .5908203V.3843689C.3939972 .4203949 .34599305 .44140626 .29100038 .44140626 .1579895 .44140626 .04598999 .34132386 .04598999 .21520996 .04598999 .09008789 .1519928-.009765625 .2789917-.009765625 .36099244-.009765625 .4099884 .03414917 .4269867 .05206299V-.009765625L.58099368 0M.4269867 .10499573C.40098573 .05807495 .34999085 .018234253 .2849884 .018234253 .22898865 .018234253 .18899536 .051071168 .16899109 .080078128 .14898682 .11010742 .13699341 .15014649 .13699341 .21421814 .13699341 .23724365 .13699341 .3123169 .17799378 .35932923 .21798706 .40438844 .2669983 .4133911 .29599 .4133911 .34399415 .4133911 .3869934 .39137269 .4149933 .35533143 .4269867 .33932496 .4269867 .33833314 .4269867 .31933595V.10499573Z"/>
<path id="font_10_109" d="M.58999636 0V.035995485C.522995 .035995485 .5149994 .042999269 .5149994 .092056278V.44140626L.36099244 .43052674V.39453126C.42799378 .39439393 .43598939 .3874359 .43598939 .33872987V.16749573C.43598939 .079330448 .3789978 .018234253 .30299378 .018234253 .21199036 .018234253 .20799256 .061309816 .20799256 .11239624V.44140626L.053985597 .43052674V.39453126C.1289978 .39453126 .1289978 .39154054 .1289978 .30273438V.15246582C.1289978 .083343509 .1289978-.009765625 .29599-.009765625 .31799317-.009765625 .3909912-.009765625 .43899537 .07432556H.43998719V-.009765625L.58999636 0Z"/>
<path id="font_10_72" d="M.2809906 0V.035995485C.21598816 .035995485 .20599365 .035995485 .20599365 .07901001V.69433596L.055999757 .6826172V.64660647C.12298584 .64660647 .1309967 .6396179 .1309967 .59065249V.07896423C.1309967 .035995485 .12098694 .035995485 .055999757 .035995485V0C.055999757 0 .12799073 .0039978029 .16799927 .0039978029 .20599365 .0039978029 .24299622 .0029907227 .2809906 0Z"/>
<path id="font_10_50" d="M.46798707 .12036133C.46798707 .12435913 .46598817 .13438416 .45098878 .13438416 .43798829 .13438416 .43598939 .12837219 .43299867 .11836243 .4019928 .037246705 .32598878 .022232056 .2899933 .022232056 .24299622 .022232056 .19799805 .043258668 .16799927 .08131409 .1309967 .12837219 .12998963 .18945313 .12998963 .22851563H.43998719C.46099855 .22851563 .46798707 .22851563 .46798707 .25050355 .46798707 .33839417 .4189911 .44628907 .269989 .44628907 .13899231 .44628907 .038986207 .34239198 .038986207 .21949768 .038986207 .092315677 .1499939-.009765625 .2829895-.009765625 .41799928-.009765625 .46798707 .09832764 .46798707 .12036133M.397995 .25450135H.1309967C.14199829 .39530946 .23199463 .41827394 .269989 .41827394 .3929901 .41827394 .39698792 .27947999 .397995 .25450135Z"/>
<path id="font_4_2" d="M.746994 .6750946C.75 .687088 .75 .6890869 .75 .690094 .75 .6920929 .7489929 .70410159 .7350006 .70410159 .72698977 .70410159 .72499087 .7020874 .71398928 .690094 .70199587 .6760864 .6799927 .6520691 .6629944 .6340637 .621994 .687088 .55400088 .70410159 .49299623 .70410159 .34498597 .70410159 .21699524 .59202578 .21699524 .47792054 .21699524 .4298706 .23999024 .3968506 .25698854 .37983705 .2939911 .34179688 .32499696 .3347931 .39698792 .31977845 .4189911 .31477357 .49598695 .29675294 .5029907 .2957611 .548996 .28474427 .59098818 .24971009 .59098818 .19265747 .59098818 .10958862 .49899293 .018508912 .3809967 .018508912 .32798768 .018508912 .17599488 .028518677 .17599488 .15863037 .17599488 .15963745 .17599488 .1806488 .18099976 .20367432 .18199158 .20767212 .18299866 .2086792 .18299866 .21168518 .18299866 .22470093 .17298889 .22669983 .16499329 .22669983 .15499878 .22669983 .14898682 .22569275 .14399719 .2066803L.09199524-.0074920656C.09199524-.009490967 .09298706-.021484375 .10699463-.021484375 .11299133-.021484375 .11399841-.020492554 .12799073-.0074920656 .1289978-.0064849855 .1749878 .044525148 .1769867 .047531129 .22999573-.011489868 .32699586-.021484375 .37799073-.021484375 .5349884-.021484375 .6609955 .10559082 .6609955 .22369385 .6609955 .27874757 .6339874 .31477357 .6239929 .3257904 .58200076 .3688202 .55799868 .37382508 .4850006 .39083863 .45298768 .3978424 .4039917 .40785218 .37799073 .41386415 .32398988 .42687989 .2869873 .46090699 .2869873 .50994876 .2869873 .5870209 .3789978 .66708377 .4909973 .66708377 .57899478 .66708377 .6609955 .63005068 .6609955 .5109558 .6609955 .493927 .6589966 .47291566 .6589966 .46990968 .6589966 .4559021 .673996 .4559021 .6769867 .4559021 .69200137 .4559021 .69299319 .46090699 .69799807 .4789276L.746994 .6750946Z"/>
<path id="font_7_1" d="M.34098817-.23803711C.34098817-.23303223 .33799745-.23002625 .33198548-.22303772 .20298767-.105026248 .1639862 .07498169 .1639862 .24996948 .1639862 .40498353 .19400025 .59298709 .33499146 .72698977 .33898927 .73098757 .34098817 .73399356 .34098817 .7389984 .34098817 .74598696 .33599855 .75 .32899476 .75 .31698609 .75 .22698975 .6779785 .17298889 .568985 .125 .47297669 .100997928 .36997987 .100997928 .25097657 .100997928 .17897034 .10998535 .064971927 .16499329-.053024293 .22399903-.17602539 .31698609-.24902344 .32899476-.24902344 .33599855-.24902344 .34098817-.24502564 .34098817-.23803711Z"/>
<path id="font_5_2" d="M.6329956 .45401C.6439972 .4650116 .6469879 .47001649 .6469879 .47702027 .6469879 .49002076 .6369934 .49902345 .6259918 .49902345 .6179962 .49902345 .61698916 .49700929 .6049957 .48602296L.39898683 .2809906 .18399048 .49501039C.1789856 .49902345 .17399597 .49902345 .17298889 .49902345 .16099549 .49902345 .15098572 .48901368 .15098572 .47702027 .15098572 .4690094 .15499878 .4650116 .1659851 .45401L.36898805 .25097657 .1659851 .047943117C.1519928 .033950807 .15098572 .028945923 .15098572 .02394104 .15098572 .011947632 .16099549 .001953125 .17298889 .001953125 .17399597 .001953125 .1789856 .001953125 .18399048 .0049438478L.39898683 .2199707 .60798647 .011947632C.6139984 .0059509279 .61698916 .001953125 .6259918 .001953125 .6369934 .001953125 .6469879 .010940552 .6469879 .02394104 .6469879 .027938843 .644989 .033950807 .6419983 .035949708 .6399994 .03994751 .46299745 .21697998 .42900086 .24998474L.6329956 .45401Z"/>
<path id="font_7_2" d="M.2979889 .25097657C.2979889 .3329773 .28599549 .4429779 .23399353 .5539856 .1749878 .6769867 .08198547 .75 .069992069 .75 .05999756 .75 .057998659 .74198916 .057998659 .7389984 .057998659 .73399356 .05999756 .73098757 .066986087 .72398379 .125 .6719818 .23498535 .5359802 .23498535 .25097657 .23498535 .10797119 .20899964-.091033939 .06399536-.22602844 .06199646-.22903443 .057998659-.23303223 .057998659-.23803711 .057998659-.24102783 .05999756-.24902344 .069992069-.24902344 .08198547-.24902344 .17199707-.17703247 .22599793-.06802368 .27398683 .02796936 .2979889 .13098145 .2979889 .25097657Z"/>
<path id="font_6_3" d="M.23098755 .69433596 .051986696 .6863251V.6373291C.11199951 .6373291 .11999512 .6373291 .11999512 .5982971V.04899597H.051986696V0C.11999512 .0029907227 .13198853 .0029907227 .1749878 .0029907227 .21899414 .0029907227 .24499512 .0019989014 .29899598 0V.04899597H.23098755V.69433596Z"/>
</defs>
<use data-text="G" xlink:href="#font_1_58" transform="matrix(9.96264,0,0,-9.96264,11.288681,18.757447)"/>
<use data-text="a" xlink:href="#font_1_28" transform="matrix(9.96264,0,0,-9.96264,20.294907,18.757447)"/>
<use data-text="u" xlink:href="#font_1_109" transform="matrix(9.96264,0,0,-9.96264,25.864022,18.757447)"/>
<use data-text="s" xlink:href="#font_1_98" transform="matrix(9.96264,0,0,-9.96264,32.23015,18.757447)"/>
<use data-text="s" xlink:href="#font_1_98" transform="matrix(9.96264,0,0,-9.96264,36.75319,18.757447)"/>
<use data-text="(" xlink:href="#font_1_85" transform="matrix(9.96264,0,0,-9.96264,45.09192,18.757447)"/>
<use data-text="d" xlink:href="#font_1_47" transform="matrix(9.96264,0,0,-9.96264,49.54522,18.757447)"/>
<use data-text="i" xlink:href="#font_1_66" transform="matrix(9.96264,0,0,-9.96264,55.911355,18.757447)"/>
<use data-text="v" xlink:href="#font_1_112" transform="matrix(9.96264,0,0,-9.96264,59.08944,18.757447)"/>
<use data-text="e" xlink:href="#font_1_50" transform="matrix(9.96264,0,0,-9.96264,64.82792,18.757447)"/>
<use data-text="r" xlink:href="#font_1_96" transform="matrix(9.96264,0,0,-9.96264,70.078227,18.757447)"/>
<use data-text="g" xlink:href="#font_1_59" transform="matrix(9.96264,0,0,-9.96264,74.800518,18.757447)"/>
<use data-text="e" xlink:href="#font_1_50" transform="matrix(9.96264,0,0,-9.96264,80.52903,18.757447)"/>
<use data-text="n" xlink:href="#font_1_77" transform="matrix(9.96264,0,0,-9.96264,85.779338,18.757447)"/>
<use data-text="c" xlink:href="#font_1_43" transform="matrix(9.96264,0,0,-9.96264,92.14547,18.757447)"/>
<use data-text="e" xlink:href="#font_1_50" transform="matrix(9.96264,0,0,-9.96264,97.23638,18.757447)"/>
<use data-text=")" xlink:href="#font_1_86" transform="matrix(9.96264,0,0,-9.96264,102.48669,18.757447)"/>
<use data-text="t" xlink:href="#font_1_105" transform="matrix(9.96264,0,0,-9.96264,110.74572,18.757447)"/>
<use data-text="h" xlink:href="#font_1_63" transform="matrix(9.96264,0,0,-9.96264,115.19903,18.757447)"/>
<use data-text="e" xlink:href="#font_1_50" transform="matrix(9.96264,0,0,-9.96264,121.56516,18.757447)"/>
<use data-text="o" xlink:href="#font_1_81" transform="matrix(9.96264,0,0,-9.96264,126.81547,18.757447)"/>
<use data-text="r" xlink:href="#font_1_96" transform="matrix(9.96264,0,0,-9.96264,132.54398,18.757447)"/>
<use data-text="e" xlink:href="#font_1_50" transform="matrix(9.96264,0,0,-9.96264,137.26627,18.757447)"/>
<use data-text="m" xlink:href="#font_1_75" transform="matrix(9.96264,0,0,-9.96264,142.51657,18.757447)"/>
<path transform="matrix(1,0,0,-1,163.6763,197.68122)" d="M11.33853 127.56068C11.33853 144.78206-12.77448 158.74236-42.52022 158.74236-72.26596 158.74236-96.37897 144.78206-96.37897 127.56068-96.37897 110.33932-72.26596 96.37903-42.52022 96.37903-12.77448 96.37903 11.33853 110.33932 11.33853 127.56068ZM-42.52022 127.56068" fill="#e8e8e8"/>
<path transform="matrix(1,0,0,-1,163.6763,197.68122)" stroke-width="1.19553" stroke-linecap="butt" stroke-miterlimit="10" stroke-linejoin="miter" fill="none" stroke="#000000" d="M11.33853 127.56068C11.33853 144.78206-12.77448 158.74236-42.52022 158.74236-72.26596 158.74236-96.37897 144.78206-96.37897 127.56068-96.37897 110.33932-72.26596 96.37903-42.52022 96.37903-12.77448 96.37903 11.33853 110.33932 11.33853 127.56068ZM-42.52022 127.56068"/>
<path transform="matrix(1,0,0,-1,163.6763,197.68122)" stroke-width=".3985" stroke-linecap="butt" stroke-miterlimit="10" stroke-linejoin="miter" fill="none" stroke="#595959" d="M-29.76425 127.56068H-10.25214"/>
<path transform="matrix(1,0,0,-1,153.42417,70.12054)" d="M3.7613 0C3.2994 .1127 1.26901 .75136 0 1.44638V-1.44638C1.26901-.75136 3.2994-.1127 3.7613 0Z" fill="#595959"/>
<path transform="matrix(1,0,0,-1,153.42417,70.12054)" stroke-width=".3985" stroke-linecap="butt" stroke-miterlimit="10" stroke-linejoin="miter" fill="none" stroke="#595959" d="M3.7613 0C3.2994 .1127 1.26901 .75136 0 1.44638V-1.44638C1.26901-.75136 3.2994-.1127 3.7613 0Z"/>
<path transform="matrix(1,0,0,-1,163.6763,197.68122)" stroke-width=".3985" stroke-linecap="butt" stroke-miterlimit="10" stroke-linejoin="miter" fill="none" stroke="#595959" d="M-33.5005 136.5804-19.7034 150.3775"/>
<path transform="matrix(.7071,-.7071,-.7071,-.7071,143.9729,47.30371)" d="M3.7613 0C3.2994 .1127 1.26901 .75136 0 1.44638V-1.44638C1.26901-.75136 3.2994-.1127 3.7613 0Z" fill="#595959"/>
<path transform="matrix(.7071,-.7071,-.7071,-.7071,143.9729,47.30371)" stroke-width=".3985" stroke-linecap="butt" stroke-miterlimit="10" stroke-linejoin="miter" fill="none" stroke="#595959" d="M3.7613 0C3.2994 .1127 1.26901 .75136 0 1.44638V-1.44638C1.26901-.75136 3.2994-.1127 3.7613 0Z"/>
<path transform="matrix(1,0,0,-1,163.6763,197.68122)" stroke-width=".3985" stroke-linecap="butt" stroke-miterlimit="10" stroke-linejoin="miter" fill="none" stroke="#595959" d="M-42.52022 140.31665V159.82878"/>
<path transform="matrix(0,-1,-1,-0,121.15608,37.852434)" d="M3.7613 0C3.2994 .1127 1.26901 .75136 0 1.44638V-1.44638C1.26901-.75136 3.2994-.1127 3.7613 0Z" fill="#595959"/>
<path transform="matrix(0,-1,-1,-0,121.15608,37.852434)" stroke-width=".3985" stroke-linecap="butt" stroke-miterlimit="10" stroke-linejoin="miter" fill="none" stroke="#595959" d="M3.7613 0C3.2994 .1127 1.26901 .75136 0 1.44638V-1.44638C1.26901-.75136 3.2994-.1127 3.7613 0Z"/>
<path transform="matrix(1,0,0,-1,163.6763,197.68122)" stroke-width=".3985" stroke-linecap="butt" stroke-miterlimit="10" stroke-linejoin="miter" fill="none" stroke="#595959" d="M-51.53993 136.5804-65.33704 150.3775"/>
<path transform="matrix(-.7071,-.7071,-.7071,.7071,98.33926,47.30371)" d="M3.7613 0C3.2994 .1127 1.26901 .75136 0 1.44638V-1.44638C1.26901-.75136 3.2994-.1127 3.7613 0Z" fill="#595959"/>
<path transform="matrix(-.7071,-.7071,-.7071,.7071,98.33926,47.30371)" stroke-width=".3985" stroke-linecap="butt" stroke-miterlimit="10" stroke-linejoin="miter" fill="none" stroke="#595959" d="M3.7613 0C3.2994 .1127 1.26901 .75136 0 1.44638V-1.44638C1.26901-.75136 3.2994-.1127 3.7613 0Z"/>
<path transform="matrix(1,0,0,-1,163.6763,197.68122)" stroke-width=".3985" stroke-linecap="butt" stroke-miterlimit="10" stroke-linejoin="miter" fill="none" stroke="#595959" d="M-55.27618 127.56068H-74.7883"/>
<path transform="matrix(-1,-0,0,1,88.888,70.12054)" d="M3.7613 0C3.2994 .1127 1.26901 .75136 0 1.44638V-1.44638C1.26901-.75136 3.2994-.1127 3.7613 0Z" fill="#595959"/>
<path transform="matrix(-1,-0,0,1,88.888,70.12054)" stroke-width=".3985" stroke-linecap="butt" stroke-miterlimit="10" stroke-linejoin="miter" fill="none" stroke="#595959" d="M3.7613 0C3.2994 .1127 1.26901 .75136 0 1.44638V-1.44638C1.26901-.75136 3.2994-.1127 3.7613 0Z"/>
<path transform="matrix(1,0,0,-1,163.6763,197.68122)" stroke-width=".3985" stroke-linecap="butt" stroke-miterlimit="10" stroke-linejoin="miter" fill="none" stroke="#595959" d="M-51.53993 118.54097-65.33704 104.74387"/>
<path transform="matrix(-.7071,.7071,.7071,.7071,98.33926,92.93734)" d="M3.7613 0C3.2994 .1127 1.26901 .75136 0 1.44638V-1.44638C1.26901-.75136 3.2994-.1127 3.7613 0Z" fill="#595959"/>
<path transform="matrix(-.7071,.7071,.7071,.7071,98.33926,92.93734)" stroke-width=".3985" stroke-linecap="butt" stroke-miterlimit="10" stroke-linejoin="miter" fill="none" stroke="#595959" d="M3.7613 0C3.2994 .1127 1.26901 .75136 0 1.44638V-1.44638C1.26901-.75136 3.2994-.1127 3.7613 0Z"/>
<path transform="matrix(1,0,0,-1,163.6763,197.68122)" stroke-width=".3985" stroke-linecap="butt" stroke-miterlimit="10" stroke-linejoin="miter" fill="none" stroke="#595959" d="M-42.52022 114.80472V95.2926"/>
<path transform="matrix(0,1,1,0,121.15608,102.38861)" d="M3.7613 0C3.2994 .1127 1.26901 .75136 0 1.44638V-1.44638C1.26901-.75136 3.2994-.1127 3.7613 0Z" fill="#595959"/>
<path transform="matrix(0,1,1,0,121.15608,102.38861)" stroke-width=".3985" stroke-linecap="butt" stroke-miterlimit="10" stroke-linejoin="miter" fill="none" stroke="#595959" d="M3.7613 0C3.2994 .1127 1.26901 .75136 0 1.44638V-1.44638C1.26901-.75136 3.2994-.1127 3.7613 0Z"/>
<path transform="matrix(1,0,0,-1,163.6763,197.68122)" stroke-width=".3985" stroke-linecap="butt" stroke-miterlimit="10" stroke-linejoin="miter" fill="none" stroke="#595959" d="M-33.5005 118.54097-19.7034 104.74387"/>
<path transform="matrix(.7071,.7071,.7071,-.7071,143.9729,92.93734)" d="M3.7613 0C3.2994 .1127 1.26901 .75136 0 1.44638V-1.44638C1.26901-.75136 3.2994-.1127 3.7613 0Z" fill="#595959"/>
<path transform="matrix(.7071,.7071,.7071,-.7071,143.9729,92.93734)" stroke-width=".3985" stroke-linecap="butt" stroke-miterlimit="10" stroke-linejoin="miter" fill="none" stroke="#595959" d="M3.7613 0C3.2994 .1127 1.26901 .75136 0 1.44638V-1.44638C1.26901-.75136 3.2994-.1127 3.7613 0Z"/>
<path transform="matrix(1,0,0,-1,163.6763,197.68122)" stroke-width=".79701" stroke-linecap="butt" stroke-miterlimit="10" stroke-linejoin="miter" fill="none" stroke="#b30000" d="M11.33853 127.56068H17.91843"/>
<path transform="matrix(1,0,0,-1,181.59473,70.12054)" d="M4.53381 0C3.97704 .13808 1.52963 .92049 0 1.77196V-1.77196C1.52963-.92049 3.97704-.13808 4.53381 0Z" fill="#b30000"/>
<path transform="matrix(1,0,0,-1,181.59473,70.12054)" stroke-width=".79701" stroke-linecap="butt" stroke-miterlimit="10" stroke-linejoin="miter" fill="none" stroke="#b30000" d="M4.53381 0C3.97704 .13808 1.52963 .92049 0 1.77196V-1.77196C1.52963-.92049 3.97704-.13808 4.53381 0Z"/>
<path transform="matrix(1,0,0,-1,163.6763,197.68122)" stroke-width=".79701" stroke-linecap="butt" stroke-miterlimit="10" stroke-linejoin="miter" fill="none" stroke="#b30000" d="M4.12294 143.15152 8.78185 147.79724"/>
<path transform="matrix(.70808,-.70609,-.70609,-.70808,172.45813,49.883974)" d="M4.53381 0C3.97704 .13808 1.52963 .92049 0 1.77196V-1.77196C1.52963-.92049 3.97704-.13808 4.53381 0Z" fill="#b30000"/>
<path transform="matrix(.70808,-.70609,-.70609,-.70808,172.45813,49.883974)" stroke-width=".79701" stroke-linecap="butt" stroke-miterlimit="10" stroke-linejoin="miter" fill="none" stroke="#b30000" d="M4.53381 0C3.97704 .13808 1.52963 .92049 0 1.77196V-1.77196C1.52963-.92049 3.97704-.13808 4.53381 0Z"/>
<path transform="matrix(1,0,0,-1,163.6763,197.68122)" stroke-width=".79701" stroke-linecap="butt" stroke-miterlimit="10" stroke-linejoin="miter" fill="none" stroke="#b30000" d="M-15.59084 154.56447-13.50554 160.80474"/>
<path transform="matrix(.31693,-.94841,-.94841,-.31693,150.17075,36.876497)" d="M4.53381 0C3.97704 .13808 1.52963 .92049 0 1.77196V-1.77196C1.52963-.92049 3.97704-.13808 4.53381 0Z" fill="#b30000"/>
<path transform="matrix(.31693,-.94841,-.94841,-.31693,150.17075,36.876497)" stroke-width=".79701" stroke-linecap="butt" stroke-miterlimit="10" stroke-linejoin="miter" fill="none" stroke="#b30000" d="M4.53381 0C3.97704 .13808 1.52963 .92049 0 1.77196V-1.77196C1.52963-.92049 3.97704-.13808 4.53381 0Z"/>
<path transform="matrix(1,0,0,-1,163.6763,197.68122)" stroke-width=".79701" stroke-linecap="butt" stroke-miterlimit="10" stroke-linejoin="miter" fill="none" stroke="#b30000" d="M-42.52022 158.74236V165.32138"/>
<path transform="matrix(0,-1,-1,-0,121.15608,32.359834)" d="M4.53381 0C3.97704 .13808 1.52963 .92049 0 1.77196V-1.77196C1.52963-.92049 3.97704-.13808 4.53381 0Z" fill="#b30000"/>
<path transform="matrix(0,-1,-1,-0,121.15608,32.359834)" stroke-width=".79701" stroke-linecap="butt" stroke-miterlimit="10" stroke-linejoin="miter" fill="none" stroke="#b30000" d="M4.53381 0C3.97704 .13808 1.52963 .92049 0 1.77196V-1.77196C1.52963-.92049 3.97704-.13808 4.53381 0Z"/>
<path transform="matrix(1,0,0,-1,163.6763,197.68122)" stroke-width=".79701" stroke-linecap="butt" stroke-miterlimit="10" stroke-linejoin="miter" fill="none" stroke="#b30000" d="M-69.44958 154.56447-71.5349 160.80474"/>
<path transform="matrix(-.31693,-.94841,-.94841,.31693,92.14142,36.876497)" d="M4.53381 0C3.97704 .13808 1.52963 .92049 0 1.77196V-1.77196C1.52963-.92049 3.97704-.13808 4.53381 0Z" fill="#b30000"/>
<path transform="matrix(-.31693,-.94841,-.94841,.31693,92.14142,36.876497)" stroke-width=".79701" stroke-linecap="butt" stroke-miterlimit="10" stroke-linejoin="miter" fill="none" stroke="#b30000" d="M4.53381 0C3.97704 .13808 1.52963 .92049 0 1.77196V-1.77196C1.52963-.92049 3.97704-.13808 4.53381 0Z"/>
<path transform="matrix(1,0,0,-1,163.6763,197.68122)" stroke-width=".79701" stroke-linecap="butt" stroke-miterlimit="10" stroke-linejoin="miter" fill="none" stroke="#b30000" d="M-89.16338 143.15152-93.82263 147.79734"/>
<path transform="matrix(-.7081,-.70607,-.70607,.7081,69.85367,49.883897)" d="M4.53381 0C3.97704 .13808 1.52963 .92049 0 1.77196V-1.77196C1.52963-.92049 3.97704-.13808 4.53381 0Z" fill="#b30000"/>
<path transform="matrix(-.7081,-.70607,-.70607,.7081,69.85367,49.883897)" stroke-width=".79701" stroke-linecap="butt" stroke-miterlimit="10" stroke-linejoin="miter" fill="none" stroke="#b30000" d="M4.53381 0C3.97704 .13808 1.52963 .92049 0 1.77196V-1.77196C1.52963-.92049 3.97704-.13808 4.53381 0Z"/>
<path transform="matrix(1,0,0,-1,163.6763,197.68122)" stroke-width=".79701" stroke-linecap="butt" stroke-miterlimit="10" stroke-linejoin="miter" fill="none" stroke="#b30000" d="M-96.37897 127.56068H-102.95888"/>
<path transform="matrix(-1,-0,0,1,60.717424,70.12054)" d="M4.53381 0C3.97704 .13808 1.52963 .92049 0 1.77196V-1.77196C1.52963-.92049 3.97704-.13808 4.53381 0Z" fill="#b30000"/>
<path transform="matrix(-1,-0,0,1,60.717424,70.12054)" stroke-width=".79701" stroke-linecap="butt" stroke-miterlimit="10" stroke-linejoin="miter" fill="none" stroke="#b30000" d="M4.53381 0C3.97704 .13808 1.52963 .92049 0 1.77196V-1.77196C1.52963-.92049 3.97704-.13808 4.53381 0Z"/>
<path transform="matrix(1,0,0,-1,163.6763,197.68122)" stroke-width=".79701" stroke-linecap="butt" stroke-miterlimit="10" stroke-linejoin="miter" fill="none" stroke="#b30000" d="M-89.16338 111.96986-93.82272 107.3237"/>
<path transform="matrix(-.70808,.70609,.70609,.70808,69.85359,90.35751)" d="M4.53381 0C3.97704 .13808 1.52963 .92049 0 1.77196V-1.77196C1.52963-.92049 3.97704-.13808 4.53381 0Z" fill="#b30000"/>
<path transform="matrix(-.70808,.70609,.70609,.70808,69.85359,90.35751)" stroke-width=".79701" stroke-linecap="butt" stroke-miterlimit="10" stroke-linejoin="miter" fill="none" stroke="#b30000" d="M4.53381 0C3.97704 .13808 1.52963 .92049 0 1.77196V-1.77196C1.52963-.92049 3.97704-.13808 4.53381 0Z"/>
<path transform="matrix(1,0,0,-1,163.6763,197.68122)" stroke-width=".79701" stroke-linecap="butt" stroke-miterlimit="10" stroke-linejoin="miter" fill="none" stroke="#b30000" d="M-69.44958 100.55692-71.5349 94.31665"/>
<path transform="matrix(-.31693,.94841,.94841,.31693,92.14142,103.36454)" d="M4.53381 0C3.97704 .13808 1.52963 .92049 0 1.77196V-1.77196C1.52963-.92049 3.97704-.13808 4.53381 0Z" fill="#b30000"/>
<path transform="matrix(-.31693,.94841,.94841,.31693,92.14142,103.36454)" stroke-width=".79701" stroke-linecap="butt" stroke-miterlimit="10" stroke-linejoin="miter" fill="none" stroke="#b30000" d="M4.53381 0C3.97704 .13808 1.52963 .92049 0 1.77196V-1.77196C1.52963-.92049 3.97704-.13808 4.53381 0Z"/>
<path transform="matrix(1,0,0,-1,163.6763,197.68122)" stroke-width=".79701" stroke-linecap="butt" stroke-miterlimit="10" stroke-linejoin="miter" fill="none" stroke="#b30000" d="M-42.52022 96.37903V89.79999"/>
<path transform="matrix(0,1,1,0,121.15608,107.881229)" d="M4.53381 0C3.97704 .13808 1.52963 .92049 0 1.77196V-1.77196C1.52963-.92049 3.97704-.13808 4.53381 0Z" fill="#b30000"/>
<path transform="matrix(0,1,1,0,121.15608,107.881229)" stroke-width=".79701" stroke-linecap="butt" stroke-miterlimit="10" stroke-linejoin="miter" fill="none" stroke="#b30000" d="M4.53381 0C3.97704 .13808 1.52963 .92049 0 1.77196V-1.77196C1.52963-.92049 3.97704-.13808 4.53381 0Z"/>
<path transform="matrix(1,0,0,-1,163.6763,197.68122)" stroke-width=".79701" stroke-linecap="butt" stroke-miterlimit="10" stroke-linejoin="miter" fill="none" stroke="#b30000" d="M-15.59084 100.55692-13.50554 94.31665"/>
<path transform="matrix(.31693,.94841,.94841,-.31693,150.17075,103.36454)" d="M4.53381 0C3.97704 .13808 1.52963 .92049 0 1.77196V-1.77196C1.52963-.92049 3.97704-.13808 4.53381 0Z" fill="#b30000"/>
<path transform="matrix(.31693,.94841,.94841,-.31693,150.17075,103.36454)" stroke-width=".79701" stroke-linecap="butt" stroke-miterlimit="10" stroke-linejoin="miter" fill="none" stroke="#b30000" d="M4.53381 0C3.97704 .13808 1.52963 .92049 0 1.77196V-1.77196C1.52963-.92049 3.97704-.13808 4.53381 0Z"/>
<path transform="matrix(1,0,0,-1,163.6763,197.68122)" stroke-width=".79701" stroke-linecap="butt" stroke-miterlimit="10" stroke-linejoin="miter" fill="none" stroke="#b30000" d="M4.12294 111.96986 8.78194 107.3237"/>
<path transform="matrix(.70807,.70609,.70609,-.70807,172.45824,90.35751)" d="M4.53381 0C3.97704 .13808 1.52963 .92049 0 1.77196V-1.77196C1.52963-.92049 3.97704-.13808 4.53381 0Z" fill="#b30000"/>
<path transform="matrix(.70807,.70609,.70609,-.70807,172.45824,90.35751)" stroke-width=".79701" stroke-linecap="butt" stroke-miterlimit="10" stroke-linejoin="miter" fill="none" stroke="#b30000" d="M4.53381 0C3.97704 .13808 1.52963 .92049 0 1.77196V-1.77196C1.52963-.92049 3.97704-.13808 4.53381 0Z"/>
<use data-text="V" xlink:href="#font_2_3" transform="matrix(8.966376,0,0,-8.966376,117.44498,73.18405)"/>
<use data-text="&#x2202;" xlink:href="#font_2_1" transform="matrix(8.966376,0,0,-8.966376,72.2312,108.21388)"/>
<use data-text="V" xlink:href="#font_2_3" transform="matrix(8.966376,0,0,-8.966376,77.61103,108.21388)"/>
<path transform="matrix(1,0,0,-1,163.6763,197.68122)" d="M135.10123 142.754H34.97963C32.77869 142.754 30.99452 140.96984 30.99452 138.76889V116.35248C30.99452 114.15154 32.77869 112.36737 34.97963 112.36737H135.10123C137.30217 112.36737 139.08634 114.15154 139.08634 116.35248V138.76889C139.08634 140.96984 137.30217 142.754 135.10123 142.754ZM30.99452 112.36737" fill="#fffbcc"/>
<path transform="matrix(1,0,0,-1,163.6763,197.68122)" stroke-width=".3985" stroke-linecap="butt" stroke-miterlimit="10" stroke-linejoin="miter" fill="none" stroke="#000000" d="M135.10123 142.754H34.97963C32.77869 142.754 30.99452 140.96984 30.99452 138.76889V116.35248C30.99452 114.15154 32.77869 112.36737 34.97963 112.36737H135.10123C137.30217 112.36737 139.08634 114.15154 139.08634 116.35248V138.76889C139.08634 140.96984 137.30217 142.754 135.10123 142.754ZM30.99452 112.36737"/>
<use data-text="&#xfffd;" xlink:href="#font_3_2" transform="matrix(8.966376,0,0,-8.966376,199.65219,59.908739)"/>
<use data-text="V" xlink:href="#font_4_3" transform="matrix(5.977584,0,0,-5.977584,204.77185,80.33235)"/>
<use data-text="&#x2207;" xlink:href="#font_5_3" transform="matrix(8.966376,0,0,-8.966376,212.71701,72.11308)"/>
<use data-text="&#x00b7;" xlink:href="#font_5_1" transform="matrix(8.966376,0,0,-8.966376,220.90332,72.11308)"/>
<use data-text="F" xlink:href="#font_6_2" transform="matrix(8.966376,0,0,-8.966376,223.98026,72.11308)"/>
<use data-text="d" xlink:href="#font_7_4" transform="matrix(8.966376,0,0,-8.966376,232.18412,72.11308)"/>
<use data-text="V" xlink:href="#font_2_3" transform="matrix(8.966376,0,0,-8.966376,237.30379,72.11308)"/>
<use data-text="=" xlink:href="#font_7_3" transform="matrix(8.966376,0,0,-8.966376,247.28575,72.11308)"/>
<use data-text="&#xfffd;" xlink:href="#font_3_1" transform="matrix(8.966376,0,0,-8.966376,257.01313,59.908746)"/>
<use data-text="&#x2202;" xlink:href="#font_4_1" transform="matrix(5.977584,0,0,-5.977584,262.13276,80.33235)"/>
<use data-text="V" xlink:href="#font_4_3" transform="matrix(5.977584,0,0,-5.977584,266.4486,80.33235)"/>
<use data-text="F" xlink:href="#font_6_2" transform="matrix(8.966376,0,0,-8.966376,274.40266,72.11308)"/>
<use data-text="&#x00b7;" xlink:href="#font_5_1" transform="matrix(8.966376,0,0,-8.966376,281.5826,72.11308)"/>
<use data-text="d" xlink:href="#font_7_4" transform="matrix(8.966376,0,0,-8.966376,284.65443,72.11308)"/>
<use data-text="A" xlink:href="#font_6_1" transform="matrix(8.966376,0,0,-8.966376,289.77406,72.11308)"/>
<use data-text="S" xlink:href="#font_1_97" transform="matrix(9.96264,0,0,-9.96264,11.288681,147.2397)"/>
<use data-text="t" xlink:href="#font_1_105" transform="matrix(9.96264,0,0,-9.96264,17.654808,147.2397)"/>
<use data-text="o" xlink:href="#font_1_81" transform="matrix(9.96264,0,0,-9.96264,22.108109,147.2397)"/>
<use data-text="k" xlink:href="#font_1_70" transform="matrix(9.96264,0,0,-9.96264,27.836625,147.2397)"/>
<use data-text="e" xlink:href="#font_1_50" transform="matrix(9.96264,0,0,-9.96264,33.575105,147.2397)"/>
<use data-text="s" xlink:href="#font_1_98" transform="matrix(9.96264,0,0,-9.96264,38.825418,147.2397)"/>
<use data-text="t" xlink:href="#font_1_105" transform="matrix(9.96264,0,0,-9.96264,47.154184,147.2397)"/>
<use data-text="h" xlink:href="#font_1_63" transform="matrix(9.96264,0,0,-9.96264,51.607477,147.2397)"/>
<use data-text="e" xlink:href="#font_1_50" transform="matrix(9.96264,0,0,-9.96264,57.97361,147.2397)"/>
<use data-text="o" xlink:href="#font_1_81" transform="matrix(9.96264,0,0,-9.96264,63.223917,147.2397)"/>
<use data-text="r" xlink:href="#font_1_96" transform="matrix(9.96264,0,0,-9.96264,68.95243,147.2397)"/>
<use data-text="e" xlink:href="#font_1_50" transform="matrix(9.96264,0,0,-9.96264,73.67472,147.2397)"/>
<use data-text="m" xlink:href="#font_1_75" transform="matrix(9.96264,0,0,-9.96264,78.925029,147.2397)"/>
<path transform="matrix(1,0,0,-1,163.6763,197.68122)" d="M11.33853 0C11.33853 14.87286-12.77448 26.92937-42.52022 26.92937-72.26596 26.92937-96.37897 14.87286-96.37897 0-96.37897-14.87286-72.26596-26.92937-42.52022-26.92937-12.77448-26.92937 11.33853-14.87286 11.33853 0ZM-42.52022 0" fill="#e8e8e8"/>
<path transform="matrix(1,0,0,-1,163.6763,197.68122)" stroke-width="1.19553" stroke-linecap="butt" stroke-miterlimit="10" stroke-linejoin="miter" fill="none" stroke="#000000" d="M11.33853 0C11.33853 14.87286-12.77448 26.92937-42.52022 26.92937-72.26596 26.92937-96.37897 14.87286-96.37897 0-96.37897-14.87286-72.26596-26.92937-42.52022-26.92937-12.77448-26.92937 11.33853-14.87286 11.33853 0ZM-42.52022 0"/>
<path transform="matrix(-.96452,-.26378,-.26378,.96452,154.46118,176.08934)" d="M5.30629 0C4.65466 .16344 1.79025 1.08963 0 2.09753V-2.09753C1.79025-1.08963 4.65466-.16344 5.30629 0Z"/>
<path transform="matrix(-.96452,-.26378,-.26378,.96452,154.46118,176.08934)" stroke-width="1.19553" stroke-linecap="butt" stroke-miterlimit="10" stroke-linejoin="miter" fill="none" stroke="#000000" d="M5.30629 0C4.65466 .16344 1.79025 1.08963 0 2.09753V-2.09753C1.79025-1.08963 4.65466-.16344 5.30629 0Z"/>
<path transform="matrix(-.89507,.44579,.44579,.89507,90.10265,175.13764)" d="M5.30629 0C4.65466 .16344 1.79025 1.08963 0 2.09753V-2.09753C1.79025-1.08963 4.65466-.16344 5.30629 0Z"/>
<path transform="matrix(-.89507,.44579,.44579,.89507,90.10265,175.13764)" stroke-width="1.19553" stroke-linecap="butt" stroke-miterlimit="10" stroke-linejoin="miter" fill="none" stroke="#000000" d="M5.30629 0C4.65466 .16344 1.79025 1.08963 0 2.09753V-2.09753C1.79025-1.08963 4.65466-.16344 5.30629 0Z"/>
<path transform="matrix(.96452,.26378,.26378,-.96452,87.85106,219.27309)" d="M5.30629 0C4.65466 .16344 1.79025 1.08963 0 2.09753V-2.09753C1.79025-1.08963 4.65466-.16344 5.30629 0Z"/>
<path transform="matrix(.96452,.26378,.26378,-.96452,87.85106,219.27309)" stroke-width="1.19553" stroke-linecap="butt" stroke-miterlimit="10" stroke-linejoin="miter" fill="none" stroke="#000000" d="M5.30629 0C4.65466 .16344 1.79025 1.08963 0 2.09753V-2.09753C1.79025-1.08963 4.65466-.16344 5.30629 0Z"/>
<path transform="matrix(.89507,-.44579,-.44579,-.89507,152.2096,220.2248)" d="M5.30629 0C4.65466 .16344 1.79025 1.08963 0 2.09753V-2.09753C1.79025-1.08963 4.65466-.16344 5.30629 0Z"/>
<path transform="matrix(.89507,-.44579,-.44579,-.89507,152.2096,220.2248)" stroke-width="1.19553" stroke-linecap="butt" stroke-miterlimit="10" stroke-linejoin="miter" fill="none" stroke="#000000" d="M5.30629 0C4.65466 .16344 1.79025 1.08963 0 2.09753V-2.09753C1.79025-1.08963 4.65466-.16344 5.30629 0Z"/>
<path transform="matrix(1,0,0,-1,163.6763,197.68122)" stroke-width=".3985" stroke-linecap="butt" stroke-miterlimit="10" stroke-linejoin="miter" fill="none" stroke="#0000b3" d="M-70.86702 5.66927V12.42496"/>
<path transform="matrix(0,-1,-1,-0,92.80928,185.25626)" d="M3.7613 0C3.2994 .1127 1.26901 .75136 0 1.44638V-1.44638C1.26901-.75136 3.2994-.1127 3.7613 0Z" fill="#0000b3"/>
<path transform="matrix(0,-1,-1,-0,92.80928,185.25626)" stroke-width=".3985" stroke-linecap="butt" stroke-miterlimit="10" stroke-linejoin="miter" fill="none" stroke="#0000b3" d="M3.7613 0C3.2994 .1127 1.26901 .75136 0 1.44638V-1.44638C1.26901-.75136 3.2994-.1127 3.7613 0Z"/>
<path transform="matrix(1,0,0,-1,163.6763,197.68122)" stroke-width=".3985" stroke-linecap="butt" stroke-miterlimit="10" stroke-linejoin="miter" fill="none" stroke="#0000b3" d="M-42.52022-5.66927V1.08641"/>
<path transform="matrix(0,-1,-1,-0,121.15608,196.5948)" d="M3.7613 0C3.2994 .1127 1.26901 .75136 0 1.44638V-1.44638C1.26901-.75136 3.2994-.1127 3.7613 0Z" fill="#0000b3"/>
<path transform="matrix(0,-1,-1,-0,121.15608,196.5948)" stroke-width=".3985" stroke-linecap="butt" stroke-miterlimit="10" stroke-linejoin="miter" fill="none" stroke="#0000b3" d="M3.7613 0C3.2994 .1127 1.26901 .75136 0 1.44638V-1.44638C1.26901-.75136 3.2994-.1127 3.7613 0Z"/>
<path transform="matrix(1,0,0,-1,163.6763,197.68122)" stroke-width=".3985" stroke-linecap="butt" stroke-miterlimit="10" stroke-linejoin="miter" fill="none" stroke="#0000b3" d="M-14.1734 5.66927V12.42496"/>
<path transform="matrix(0,-1,-1,-0,149.5029,185.25626)" d="M3.7613 0C3.2994 .1127 1.26901 .75136 0 1.44638V-1.44638C1.26901-.75136 3.2994-.1127 3.7613 0Z" fill="#0000b3"/>
<path transform="matrix(0,-1,-1,-0,149.5029,185.25626)" stroke-width=".3985" stroke-linecap="butt" stroke-miterlimit="10" stroke-linejoin="miter" fill="none" stroke="#0000b3" d="M3.7613 0C3.2994 .1127 1.26901 .75136 0 1.44638V-1.44638C1.26901-.75136 3.2994-.1127 3.7613 0Z"/>
<path transform="matrix(1,0,0,-1,163.6763,197.68122)" stroke-width=".3985" stroke-linecap="butt" stroke-miterlimit="10" stroke-linejoin="miter" fill="none" stroke="#0000b3" d="M-56.69362-8.50412V-1.74841"/>
<path transform="matrix(0,-1,-1,-0,106.98268,199.42963)" d="M3.7613 0C3.2994 .1127 1.26901 .75136 0 1.44638V-1.44638C1.26901-.75136 3.2994-.1127 3.7613 0Z" fill="#0000b3"/>
<path transform="matrix(0,-1,-1,-0,106.98268,199.42963)" stroke-width=".3985" stroke-linecap="butt" stroke-miterlimit="10" stroke-linejoin="miter" fill="none" stroke="#0000b3" d="M3.7613 0C3.2994 .1127 1.26901 .75136 0 1.44638V-1.44638C1.26901-.75136 3.2994-.1127 3.7613 0Z"/>
<path transform="matrix(1,0,0,-1,163.6763,197.68122)" stroke-width=".3985" stroke-linecap="butt" stroke-miterlimit="10" stroke-linejoin="miter" fill="none" stroke="#0000b3" d="M-28.34682 8.50412V15.25981"/>
<path transform="matrix(0,-1,-1,-0,135.32949,182.4214)" d="M3.7613 0C3.2994 .1127 1.26901 .75136 0 1.44638V-1.44638C1.26901-.75136 3.2994-.1127 3.7613 0Z" fill="#0000b3"/>
<path transform="matrix(0,-1,-1,-0,135.32949,182.4214)" stroke-width=".3985" stroke-linecap="butt" stroke-miterlimit="10" stroke-linejoin="miter" fill="none" stroke="#0000b3" d="M3.7613 0C3.2994 .1127 1.26901 .75136 0 1.44638V-1.44638C1.26901-.75136 3.2994-.1127 3.7613 0Z"/>
<use data-text="S" xlink:href="#font_2_2" transform="matrix(8.966376,0,0,-8.966376,118.086338,200.74474)"/>
<use data-text="&#x2202;" xlink:href="#font_2_1" transform="matrix(8.966376,0,0,-8.966376,70.03773,231.5227)"/>
<use data-text="S" xlink:href="#font_2_2" transform="matrix(8.966376,0,0,-8.966376,75.41756,231.5227)"/>
<path transform="matrix(1,0,0,-1,163.6763,197.68122)" stroke-width=".79701" stroke-linecap="butt" stroke-miterlimit="10" stroke-linejoin="miter" fill="none" stroke="#000000" d="M70.86703-39.68536H80.28094"/>
<path transform="matrix(1,0,0,-1,243.95725,237.36658)" d="M4.53381 0C3.97704 .13808 1.52963 .92049 0 1.77196V-1.77196C1.52963-.92049 3.97704-.13808 4.53381 0Z"/>
<path transform="matrix(1,0,0,-1,243.95725,237.36658)" stroke-width=".79701" stroke-linecap="butt" stroke-miterlimit="10" stroke-linejoin="miter" fill="none" stroke="#000000" d="M4.53381 0C3.97704 .13808 1.52963 .92049 0 1.77196V-1.77196C1.52963-.92049 3.97704-.13808 4.53381 0Z"/>
<use data-text="&#x02c6;" xlink:href="#font_8_1" transform="matrix(6.973848,0,0,-6.973848,254.33005,239.78807)"/>
<use data-text="n" xlink:href="#font_9_1" transform="matrix(6.973848,0,0,-6.973848,253.85323,239.78807)"/>
<path transform="matrix(1,0,0,-1,163.6763,197.68122)" stroke-width=".79701" stroke-linecap="butt" stroke-miterlimit="10" stroke-linejoin="miter" fill="none" stroke="#000000" d="M78.66245-39.68536C78.66245-35.38004 75.17238-31.88995 70.86703-31.88995 66.5617-31.88995 63.07164-35.38004 63.07164-39.68536 63.07164-43.9907 66.5617-47.48077 70.86703-47.48077 75.17238-47.48077 78.66245-43.9907 78.66245-39.68536ZM70.86703-39.68536"/>
<path transform="matrix(-.00046,.99998,.99998,.00046,226.75074,231.18596)" d="M4.53381 0C3.97704 .13808 1.52963 .92049 0 1.77196V-1.77196C1.52963-.92049 3.97704-.13808 4.53381 0Z"/>
<path transform="matrix(-.00046,.99998,.99998,.00046,226.75074,231.18596)" stroke-width=".79701" stroke-linecap="butt" stroke-miterlimit="10" stroke-linejoin="miter" fill="none" stroke="#000000" d="M4.53381 0C3.97704 .13808 1.52963 .92049 0 1.77196V-1.77196C1.52963-.92049 3.97704-.13808 4.53381 0Z"/>
<use data-text="r" xlink:href="#font_10_96" transform="matrix(6.973848,0,0,-6.973848,222.47235,225.81943)"/>
<use data-text="i" xlink:href="#font_10_66" transform="matrix(6.973848,0,0,-6.973848,225.58267,225.81943)"/>
<use data-text="g" xlink:href="#font_10_59" transform="matrix(6.973848,0,0,-6.973848,227.83524,225.81943)"/>
<use data-text="h" xlink:href="#font_10_63" transform="matrix(6.973848,0,0,-6.973848,231.80335,225.81943)"/>
<use data-text="t" xlink:href="#font_10_105" transform="matrix(6.973848,0,0,-6.973848,235.99463,225.81943)"/>
<use data-text="-" xlink:href="#font_10_64" transform="matrix(6.973848,0,0,-6.973848,239.10498,225.81943)"/>
<use data-text="h" xlink:href="#font_10_63" transform="matrix(6.973848,0,0,-6.973848,241.7899,225.81943)"/>
<use data-text="a" xlink:href="#font_10_28" transform="matrix(6.973848,0,0,-6.973848,246.1904,225.81943)"/>
<use data-text="n" xlink:href="#font_10_77" transform="matrix(6.973848,0,0,-6.973848,250.15851,225.81943)"/>
<use data-text="d" xlink:href="#font_10_47" transform="matrix(6.973848,0,0,-6.973848,254.55902,225.81943)"/>
<use data-text="r" xlink:href="#font_10_96" transform="matrix(6.973848,0,0,-6.973848,261.63749,225.81943)"/>
<use data-text="u" xlink:href="#font_10_109" transform="matrix(6.973848,0,0,-6.973848,264.7478,225.81943)"/>
<use data-text="l" xlink:href="#font_10_72" transform="matrix(6.973848,0,0,-6.973848,269.14833,225.81943)"/>
<use data-text="e" xlink:href="#font_10_50" transform="matrix(6.973848,0,0,-6.973848,271.40089,225.81943)"/>
<path transform="matrix(1,0,0,-1,163.6763,197.68122)" d="M137.93643 32.20155H32.14441C29.94347 32.20155 28.1593 30.41739 28.1593 28.21645V5.80003C28.1593 3.59909 29.94347 1.81493 32.14441 1.81493H137.93643C140.13738 1.81493 141.92154 3.59909 141.92154 5.80003V28.21645C141.92154 30.41739 140.13738 32.20155 137.93643 32.20155ZM28.1593 1.81493" fill="#fffbcc"/>
<path transform="matrix(1,0,0,-1,163.6763,197.68122)" stroke-width=".3985" stroke-linecap="butt" stroke-miterlimit="10" stroke-linejoin="miter" fill="none" stroke="#000000" d="M137.93643 32.20155H32.14441C29.94347 32.20155 28.1593 30.41739 28.1593 28.21645V5.80003C28.1593 3.59909 29.94347 1.81493 32.14441 1.81493H137.93643C140.13738 1.81493 141.92154 3.59909 141.92154 5.80003V28.21645C141.92154 30.41739 140.13738 32.20155 137.93643 32.20155ZM28.1593 1.81493"/>
<use data-text="&#xfffd;" xlink:href="#font_3_2" transform="matrix(8.966376,0,0,-8.966376,196.81699,170.46118)"/>
<use data-text="S" xlink:href="#font_4_2" transform="matrix(5.977584,0,0,-5.977584,201.93665,190.8848)"/>
<use data-text="(" xlink:href="#font_7_1" transform="matrix(8.966376,0,0,-8.966376,207.27494,182.66553)"/>
<use data-text="&#x2207;" xlink:href="#font_5_3" transform="matrix(8.966376,0,0,-8.966376,210.8587,182.66553)"/>
<use data-text="&#x00d7;" xlink:href="#font_5_2" transform="matrix(8.966376,0,0,-8.966376,219.04502,182.66553)"/>
<use data-text="F" xlink:href="#font_6_2" transform="matrix(8.966376,0,0,-8.966376,226.72963,182.66553)"/>
<use data-text=")" xlink:href="#font_7_2" transform="matrix(8.966376,0,0,-8.966376,233.3976,182.66553)"/>
<use data-text="&#x00b7;" xlink:href="#font_5_1" transform="matrix(8.966376,0,0,-8.966376,237.49333,182.66553)"/>
<use data-text="d" xlink:href="#font_7_4" transform="matrix(8.966376,0,0,-8.966376,240.56513,182.66553)"/>
<use data-text="A" xlink:href="#font_6_1" transform="matrix(8.966376,0,0,-8.966376,245.68479,182.66553)"/>
<use data-text="=" xlink:href="#font_7_3" transform="matrix(8.966376,0,0,-8.966376,256.2506,182.66553)"/>
<use data-text="&#xfffd;" xlink:href="#font_3_1" transform="matrix(8.966376,0,0,-8.966376,265.97798,170.46118)"/>
<use data-text="&#x2202;" xlink:href="#font_4_1" transform="matrix(5.977584,0,0,-5.977584,271.09764,190.8848)"/>
<use data-text="S" xlink:href="#font_4_2" transform="matrix(5.977584,0,0,-5.977584,275.41346,190.8848)"/>
<use data-text="F" xlink:href="#font_6_2" transform="matrix(8.966376,0,0,-8.966376,282.29658,182.66553)"/>
<use data-text="&#x00b7;" xlink:href="#font_5_1" transform="matrix(8.966376,0,0,-8.966376,289.4765,182.66553)"/>
<use data-text="d" xlink:href="#font_7_4" transform="matrix(8.966376,0,0,-8.966376,292.54829,182.66553)"/>
<use data-text="l" xlink:href="#font_6_3" transform="matrix(8.966376,0,0,-8.966376,297.66798,182.66553)"/>
</svg>
