<svg xmlns="http://www.w3.org/2000/svg" xmlns:xlink="http://www.w3.org/1999/xlink" xmlns:inkscape="http://www.inkscape.org/namespaces/inkscape" version="1.1" width="270.14" height="187.77" viewBox="0 0 270.14 187.77">
<defs>
<path id="font_1_10" d="M.49198915 .40434266C.45498658 .39733888 .44400025 .3653412 .44400025 .3503418 .44400025 .33132936 .45799256 .31433106 .48298646 .31433106 .5109863 .31433106 .5379944 .33833314 .5379944 .3733368 .5379944 .41937257 .48799134 .4423828 .44099427 .4423828 .3809967 .4423828 .34599305 .38934327 .33399964 .3683319 .31498719 .41737367 .2709961 .4423828 .22299195 .4423828 .115997318 .4423828 .057998659 .31433106 .057998659 .28833009 .057998659 .2793274 .06498718 .2763214 .07199097 .2763214 .08099365 .2763214 .083999637 .2813263 .085998538 .287323 .116989139 .38633729 .18299866 .41737367 .22099304 .41737367 .25 .41737367 .27598573 .3983307 .27598573 .35133363 .27598573 .31533814 .23298645 .15530396 .21998596 .107284549 .21199036 .076293949 .18199158 .014251709 .1269989 .014251709 .10699463 .014251709 .085998538 .021270752 .07598877 .027282715 .102996829 .032287599 .12298584 .055282594 .12298584 .08128357 .12298584 .106292728 .10398865 .11729431 .084991458 .11729431 .055999757 .11729431 .02999878 .092285159 .02999878 .058288576 .02999878 .009246826 .083999637-.0107421879 .12599182-.0107421879 .18399048-.0107421879 .21798706 .03729248 .23298645 .06428528 .2579956-.0017547608 .31698609-.0107421879 .34399415-.0107421879 .45199586-.0107421879 .5089874 .11929321 .5089874 .14329529 .5089874 .14830017 .5059967 .15530396 .49598695 .15530396 .4850006 .15530396 .48399354 .1512909 .47898866 .1362915 .45700074 .06428528 .39898683 .014251709 .34700013 .014251709 .31799317 .014251709 .29100038 .032287599 .29100038 .08029175 .29100038 .10229492 .30499269 .15730286 .31399537 .1953125 .31799317 .21331787 .34498597 .32133485 .34700013 .32833863 .35899354 .3643341 .3889923 .41737367 .43998719 .41737367 .45799256 .41737367 .47698976 .41436769 .49198915 .40434266Z"/>
<path id="font_1_11" d="M.5019989 .38536073C.5029907 .3903656 .5049896 .39637757 .5049896 .40237428 .5049896 .41537477 .49598695 .43138124 .47399903 .43138124 .46099855 .43138124 .44299317 .42337037 .43499757 .40437318 .43399049 .40037538 .42399598 .35935975 .41799928 .33735658L.36799623 .13728333C.3600006 .10827637 .3600006 .106277469 .35798646 .09727478 .35699464 .09327698 .31498719 .014251709 .24299622 .014251709 .18099976 .014251709 .18099976 .07727051 .18099976 .09628296 .18099976 .14129639 .19400025 .19030762 .23699951 .30233766 .24499512 .3253479 .25099183 .33935548 .25099183 .35835267 .25099183 .40737916 .21398926 .4423828 .16499329 .4423828 .068984989 .4423828 .0289917 .30033876 .0289917 .28833009 .0289917 .2793274 .035995485 .27633668 .042999269 .27633668 .053985597 .27633668 .054992677 .28233338 .05899048 .29533387 .07998657 .3693695 .11999512 .41737367 .1619873 .41737367 .18598938 .41737367 .18598938 .39837647 .18598938 .3843689 .18598938 .36735536 .18199158 .34934999 .17298889 .3253479 .12599182 .2013092 .11299133 .15930176 .11299133 .11128235 .11299133 .00024414063 .20298767-.0107421879 .23999024-.0107421879 .2889862-.0107421879 .32398988 .01524353 .34199525 .0332489 .32899476-.017745972 .31799317-.0627594 .2789917-.11276245 .24899292-.15286255 .20899964-.18008423 .16499329-.18008423 .13699341-.18008423 .10398865-.16999817 .08999634-.14176941 .14299011-.14176941 .1499939-.09776306 .1499939-.087768558 .1499939-.06576538 .13398743-.051757814 .11199951-.051757814 .08799744-.051757814 .055999757-.07077026 .055999757-.116760257 .055999757-.16899109 .101989749-.20507813 .16499329-.20507813 .2669983-.20507813 .37599183-.117767337 .40499879-.00074768069L.5019989 .38536073Z"/>
<path id="font_1_5" d="M.18199158 .116867069C.1329956 .036987306 .08898926 .033981325 .04899597 .0309906 .041992189 .02999878 .036987306 .021987915 .036987306 .0129852299 .036987306 .0069885256 .040985109 0 .050994874 0 .069992069 0 .116989139 .0029907227 .13598633 .0029907227 .1579895 .0029907227 .21199036 0 .23399353 0 .23999024 0 .25299073 0 .25299073 .017990113 .25299073 .02999878 .24099732 .0309906 .23799134 .0309906 .22898865 .03199768 .19099427 .033981325 .19099427 .063949588 .19099427 .077926639 .20199585 .09689331 .20498657 .101882938L.28399659 .23068238H.54499819C.5479889 .2077179 .5509949 .17378235 .55400088 .14881897 .55799868 .10987854 .56399539 .06593323 .56399539 .062942508 .56399539 .047973634 .5499878 .0309906 .49198915 .0309906 .48199464 .0309906 .46899415 .0309906 .46899415 .0129852299 .46899415 .0019989014 .47698976 0 .48399354 0 .5029907 0 .5269928 .0019989014 .5469971 .0019989014 .5669861 .0019989014 .59098818 .0029907227 .6069946 .0029907227 .6399994 .0029907227 .6419983 .0029907227 .66600039 .0019989014 .6819916 .0009918213 .7049866 0 .72099307 0 .72698977 0 .73999026 0 .73999026 .017990113 .73999026 .0309906 .72898867 .0309906 .71699526 .0309906 .6569977 .0309906 .6559906 .037979127 .6529999 .06694031L.58299258 .68881228C.58099368 .7108154 .5799866 .7158203 .5629883 .7158203 .548996 .7158203 .54299929 .7088165 .5349884 .69581606L.18199158 .116867069M.30299378 .26168824 .5049896 .5917816 .5419922 .26168824H.30299378Z"/>
<path id="font_2_5" d="M.70799258 .3310089C.7220001 .3310089 .7409973 .3310089 .7409973 .35202027 .7409973 .37402345 .71899417 .37402345 .70399478 .37402345H.09399414C.07899475 .37402345 .056991579 .37402345 .056991579 .35202027 .056991579 .3310089 .07699585 .3310089 .08999634 .3310089H.70799258M.70399478 .12695313C.71899417 .12695313 .7409973 .12695313 .7409973 .14894104 .7409973 .1699524 .7220001 .1699524 .70799258 .1699524H.08999634C.07699585 .1699524 .056991579 .1699524 .056991579 .14894104 .056991579 .12695313 .07899475 .12695313 .09399414 .12695313H.70399478Z"/>
<path id="font_2_1" d="M.34098817-.23803711C.34098817-.23303223 .33799745-.23002625 .33198548-.22303772 .20298767-.105026248 .1639862 .07498169 .1639862 .24996948 .1639862 .40498353 .19400025 .59298709 .33499146 .72698977 .33898927 .73098757 .34098817 .73399356 .34098817 .7389984 .34098817 .74598696 .33599855 .75 .32899476 .75 .31698609 .75 .22698975 .6779785 .17298889 .568985 .125 .47297669 .100997928 .36997987 .100997928 .25097657 .100997928 .17897034 .10998535 .064971927 .16499329-.053024293 .22399903-.17602539 .31698609-.24902344 .32899476-.24902344 .33599855-.24902344 .34098817-.24502564 .34098817-.23803711Z"/>
<path id="font_1_8" d="M.38198854 .3803711C.36299134 .41638185 .33198548 .4423828 .2869873 .4423828 .17098999 .4423828 .041992189 .30433656 .041992189 .1512909 .041992189 .041259767 .11199951-.0107421879 .1789856-.0107421879 .24398804-.0107421879 .29699708 .043258668 .31298829 .06227112 .32398988 .007247925 .37399293-.0107421879 .4059906-.0107421879 .43499757-.0107421879 .45999146 .002243042 .48199464 .044265748 .5 .07727051 .5139923 .13928223 .5139923 .14329529 .5139923 .14828491 .5109863 .1552887 .5009918 .1552887 .4889984 .1552887 .48799134 .15029907 .48399354 .13128662 .46199037 .044265748 .43998719 .014251709 .40899659 .014251709 .38398744 .014251709 .37799073 .038253786 .37799073 .060272218 .37799073 .07926941 .3829956 .09927368 .3919983 .1342926L.4169922 .23731995C.42399598 .2623291 .44198609 .33735658 .44599916 .35235597 .44999696 .36636354 .45599366 .3903656 .45599366 .39337159 .45599366 .40937806 .44299317 .42237855 .4249878 .42237855 .4119873 .42237855 .3869934 .41438294 .38198854 .3803711M.31698609 .122283939C.31199647 .103271488 .31199647 .10227966 .29599 .08326721 .2599945 .040252687 .21899414 .014251709 .18199158 .014251709 .1329956 .014251709 .115997318 .06526184 .115997318 .10827637 .115997318 .15730286 .14498902 .27233888 .16899109 .32034303 .20098877 .3803711 .24699402 .41737367 .2869873 .41737367 .35398866 .41737367 .36898805 .33735658 .36898805 .33035279 .36898805 .3253479 .36698915 .3193512 .3659973 .31533814L.31698609 .122283939Z"/>
<path id="font_1_4" d="M.18199158 .015991211C.18199158-.017044068 .18199158-.09921265 .10798645-.17036438 .101989749-.17636109 .101989749-.17736817 .101989749-.18136597 .101989749-.18836975 .10899353-.19335938 .114990238-.19335938 .12599182-.19335938 .20698548-.115249637 .20698548 .0019989014 .20698548 .06399536 .18499756 .10798645 .14199829 .10798645 .10798645 .10798645 .08799744 .08198547 .08799744 .053985597 .08799744 .025985718 .10798645 0 .14199829 0 .15699768 0 .17199707 .004989624 .18199158 .015991211Z"/>
<path id="font_3_1" d="M.22599793 .12182617C.18798828 .063949588 .1539917 .04397583 .09799194 .039993287 .083999637 .038986207 .07199097 .037994386 .07199097 .01499939 .07199097 .004989624 .07998657 0 .08699036 0 .114990238 0 .147995 .0039978029 .1769867 .0039978029 .20098877 .0039978029 .2599945 0 .28399659 0 .29499818 0 .30599977 .004989624 .30599977 .024993897 .30599977 .038986207 .2919922 .039993287 .2889862 .039993287 .2649994 .040985109 .24299622 .04698181 .24299622 .06893921 .24299622 .0809021 .2539978 .09786987 .25698854 .10386658L.33898927 .22662354H.6399994L.66600039 .06593323C.66600039 .039993287 .60798647 .039993287 .59799197 .039993287 .58499148 .039993287 .56900027 .039993287 .56900027 .01499939 .56900027 .009994507 .57398989 0 .58599856 0 .6159973 0 .68899539 .0039978029 .71899417 .0039978029 .7389984 .0039978029 .7579956 .0029907227 .7779999 .0029907227 .7979889 .0029907227 .81999209 0 .83898928 0 .8450012 0 .86099246 0 .86099246 .024993897 .86099246 .039993287 .84799197 .039993287 .83299258 .039993287 .7709961 .039993287 .769989 .04698181 .7659912 .07192993L.66600039 .68685916C.6629944 .7048645 .6619873 .7138672 .6399994 .7138672 .61898806 .7138672 .61299136 .7058563 .60398867 .691864L.22599793 .12182617M.36499024 .26661683 .58099368 .5917969 .6329956 .26661683H.36499024Z"/>
<path id="font_2_2" d="M.2979889 .25097657C.2979889 .3329773 .28599549 .4429779 .23399353 .5539856 .1749878 .6769867 .08198547 .75 .069992069 .75 .05999756 .75 .057998659 .74198916 .057998659 .7389984 .057998659 .73399356 .05999756 .73098757 .066986087 .72398379 .125 .6719818 .23498535 .5359802 .23498535 .25097657 .23498535 .10797119 .20899964-.091033939 .06399536-.22602844 .06199646-.22903443 .057998659-.23303223 .057998659-.23803711 .057998659-.24102783 .05999756-.24902344 .069992069-.24902344 .08198547-.24902344 .17199707-.17703247 .22599793-.06802368 .27398683 .02796936 .2979889 .13098145 .2979889 .25097657Z"/>
<path id="font_1_6" d="M.16299439 .07595825C.1539917 .039993287 .1519928 .0309906 .07699585 .0309906 .057998659 .0309906 .04699707 .0309906 .04699707 .0129852299 .04699707 0 .056991579 0 .07499695 0H.43899537C.6009979 0 .7200012 .11793518 .7200012 .21485901 .7200012 .28581239 .6609955 .34576417 .56199648 .35676576 .6759949 .37875367 .772995 .4547119 .772995 .54367068 .772995 .6216278 .70098879 .6826172 .58200076 .6826172H.23999024C.22200012 .6826172 .20999146 .6826172 .20999146 .6646118 .20999146 .6516113 .21899414 .6516113 .23999024 .6516113 .24398804 .6516113 .2619934 .6516113 .27799989 .6496124 .29499818 .6476135 .3019867 .6456146 .3019867 .63461306 .3019867 .6296234 .30099488 .6256256 .2979889 .614624L.16299439 .07595825M.31900025 .36776734 .37998963 .6126251C.3889923 .64860537 .3909912 .6516113 .43299867 .6516113H.56799319C.6719971 .6516113 .68099978 .5726471 .68099978 .54766848 .68099978 .45870973 .58799746 .36776734 .47499085 .36776734H.31900025M.2709961 .0309906C.25698854 .0309906 .25498963 .0309906 .25099183 .03199768 .24099732 .032989503 .23799134 .033996583 .23799134 .040985109 .23799134 .04397583 .23799134 .04597473 .24299622 .063964847L.31199647 .34277345H.5C.56199648 .34277345 .625 .31578065 .625 .22485352 .625 .12593079 .5339966 .0309906 .4139862 .0309906H.2709961Z"/>
<path id="font_1_9" d="M.23899842 .6603241C.24299622 .67433169 .24299622 .67633059 .24299622 .68032839 .24299622 .68933108 .23699951 .69433596 .22799683 .69433596 .21398926 .69433596 .12599182 .6863251 .10598755 .6843262 .09599304 .68333438 .084991458 .6823273 .084991458 .665329 .084991458 .6523285 .09599304 .6523285 .11199951 .6523285 .15899658 .6523285 .15899658 .6453247 .15899658 .6363373 .15899658 .6303406 .15899658 .6283264 .1519928 .6013336L.09899902 .3903656C.084991458 .3343506 .07199097 .28334046 .06098938 .23631287 .053985597 .21131897 .04699707 .18130493 .04699707 .14929199 .04699707 .06326294 .09498596-.0107421879 .18099976-.0107421879 .2979889-.0107421879 .42599488 .13027954 .42599488 .28033448 .42599488 .38237 .36299134 .4423828 .28799439 .4423828 .23699951 .4423828 .19299317 .40737916 .16999817 .38536073L.23899842 .6603241M.1559906 .32835389C.18399048 .36836244 .23498535 .41737367 .28599549 .41737367 .33299256 .41737367 .35198976 .37036134 .35198976 .323349 .35198976 .27833558 .32398988 .15429688 .29299928 .10127258 .2559967 .037261964 .21199036 .014251709 .18099976 .014251709 .1309967 .014251709 .11099243 .06427002 .11099243 .11528015 .11099243 .15029907 .117996219 .17730713 .14099121 .2683258L.1559906 .32835389Z"/>
<path id="font_3_2" d="M.20999146 .082977298C.20098877 .04698181 .19898987 .039993287 .12399292 .039993287 .101989749 .039993287 .099990848 .039993287 .09599304 .036987306 .09098816 .032989503 .08699036 .019989014 .08699036 .01399231 .08999634 0 .09899902 0 .11898804 0H.526001C.69898989 0 .83499148 .112960819 .83499148 .21292115 .83499148 .27488709 .7809906 .3408661 .6559906 .35786439 .7709961 .3758545 .8849945 .4487915 .8849945 .53970339 .8849945 .6116333 .80599978 .6826172 .6649933 .6826172H.28199769C.2630005 .6826172 .24798584 .6826172 .24798584 .65760806 .24798584 .64260867 .2630005 .64260867 .2809906 .64260867 .29899598 .64260867 .32398988 .64260867 .34498597 .6356201 .34498597 .6256256 .34498597 .6196289 .34098817 .6036377L.20999146 .082977298M.37399293 .3718567 .43299867 .6086426C.44099427 .64060977 .44198609 .64260867 .48399354 .64260867H.6489868C.7529907 .64260867 .7829895 .57966616 .7829895 .53770449 .7829895 .45578004 .67900088 .3718567 .55599978 .3718567H.37399293M.32598878 .039993287C.30699159 .039993287 .30499269 .039993287 .29299928 .04298401L.36499024 .3388672H.58299258C.70899966 .3388672 .7299957 .2578888 .7299957 .21791077 .7299957 .12194824 .6239929 .039993287 .5 .039993287H.32598878Z"/>
<path id="font_4_1" d="M.46499635 .14109802C.4909973 .12310791 .49299623 .12310791 .5 .12310791 .5169983 .12310791 .5329895 .1381073 .5329895 .15808106 .5329895 .17807007 .5179901 .18406677 .5099945 .18806458 .45899964 .20904541 .4079895 .23002625 .35598756 .24900818 .45799256 .29096986 .48599244 .30096437 .5039978 .30895997 .5189972 .3159485 .5329895 .3209381 .5329895 .34092713 .5329895 .36090089 .5169983 .37590028 .5 .37590028 .49198915 .37590028 .48599244 .37190248 .47799684 .36689759L.33599855 .27697755C.33699037 .29096986 .34098817 .325943 .34199525 .33792115 .34399415 .35791017 .35198976 .41786195 .35198976 .43484498 .35198976 .45184327 .33699037 .46484376 .31900025 .46484376 .3019867 .46484376 .28599549 .45184327 .28599549 .43484498 .28599549 .43284608 .29499818 .34292604 .29599 .33892823 .29699708 .3279419 .30099488 .28996278 .3019867 .27697755L.1599884 .36689759C.1519928 .37190248 .1459961 .37590028 .13798523 .37590028 .12098694 .37590028 .10499573 .36090089 .10499573 .34092713 .10499573 .3209381 .11999512 .3149414 .12799073 .31095887 .1789856 .28996278 .22999573 .26898194 .28199769 .25 .17999268 .20803833 .1519928 .19804383 .13398743 .19004822 .11898804 .18305969 .10499573 .17807007 .10499573 .15808106 .10499573 .1381073 .12098694 .12310791 .13798523 .12310791 .1459961 .12310791 .16299439 .1341095 .1749878 .14208985 .18899536 .15008545 .22299195 .17207337 .23599243 .18106079 .2689972 .20204163 .2809906 .21003723 .3019867 .22203064 .30099488 .20803833 .29699708 .17306519 .29599 .16108704L.28599549 .06416321C.28599549 .047164918 .3019867 .034179689 .31900025 .034179689 .33699037 .034179689 .35198976 .047164918 .35198976 .06416321 .35198976 .06517029 .34298707 .15509033 .34199525 .16007996 .34098817 .17106629 .33699037 .20904541 .33599855 .22203064L.46499635 .14109802Z"/>
<path id="font_2_3" d="M.70599368 .22944641C.7200012 .22944641 .7409973 .22944641 .7409973 .25045777 .7409973 .27246095 .7220001 .27246095 .70599368 .27246095H.42099V.5578003C.42099 .573761 .42099 .59277346 .39898683 .59277346 .37799073 .59277346 .37799073 .57177737 .37799073 .5578003V.27246095H.09199524C.07798767 .27246095 .056991579 .27246095 .056991579 .25144959 .056991579 .22944641 .07598877 .22944641 .09199524 .22944641H.37799073V-.056793214C.37799073-.07279968 .37799073-.091796878 .3999939-.091796878 .42099-.091796878 .42099-.07080078 .42099-.056793214V.22944641H.70599368Z"/>
<path id="font_1_3" d="M.14399719 .22492981C.17999268 .2109375 .20498657 .2109375 .23199463 .2109375 .25898744 .2109375 .31498719 .2109375 .31498719 .2440033 .31498719 .26704408 .2889862 .27304078 .24099732 .27304078 .21899414 .27304078 .18499756 .27104188 .14498902 .25404359 .10699463 .2740326 .10499573 .3010559 .10499573 .30906678 .10499573 .36608888 .19999695 .40312196 .29499818 .40312196 .31599427 .40312196 .34999085 .40211488 .3909912 .37309266 .39698792 .36909486 .4019928 .36608888 .4099884 .36608888 .41999818 .36608888 .43798829 .3771057 .43798829 .39411927 .43798829 .41311646 .40699769 .42712403 .3880005 .43611146 .37399293 .44311524 .34498597 .453125 .30599977 .453125 .18399048 .453125 .07699585 .3821106 .07699585 .30906678 .07699585 .28704835 .08898926 .2590332 .116989139 .23995972 .084991458 .220932 .027999878 .17285156 .027999878 .10569763 .027999878 .030532837 .09799194-.022460938 .19499207-.022460938 .33099366-.022460938 .3880005 .06460571 .3880005 .08265686 .3880005 .08866882 .38398744 .094680789 .37599183 .094680789 .36999513 .094680789 .36799623 .091674808 .36099244 .07965088 .33499146 .03855896 .2769928 .027526856 .20599365 .027526856 .068984989 .027526856 .055999757 .08566284 .055999757 .111709598 .055999757 .14678955 .08898926 .19889832 .14399719 .22492981M.18199158 .23995972C.20298767 .24601746 .21998596 .24804688 .23999024 .24804688 .2599945 .24804688 .2649994 .24702454 .2849884 .24299622 .269989 .23693848 .2679901 .2359314 .23199463 .2359314 .21499634 .2359314 .19898987 .2359314 .18199158 .23995972Z"/>
<path id="font_1_2" d="M.5029907 .2763214C.5109863 .30734254 .5109863 .31733705 .5109863 .33235169 .5109863 .42137147 .44499208 .4423828 .3919983 .4423828 .29899598 .4423828 .25 .37635804 .23399353 .35534669 .22799683 .40937806 .18699646 .4423828 .13699341 .4423828 .09498596 .4423828 .07398987 .41137696 .05999756 .3843689 .042999269 .34934999 .0289917 .29232789 .0289917 .28833009 .0289917 .2793274 .035995485 .2763214 .042999269 .2763214 .053985597 .2763214 .055999757 .2813263 .06098938 .30133058 .07998657 .38035584 .100997928 .41737367 .1349945 .41737367 .16499329 .41737367 .16499329 .38536073 .16499329 .37036134 .16499329 .34934999 .15699768 .31834413 .15098572 .29232789 .14399719 .2663269 .13398743 .22331238 .12998963 .21130371L.08999634 .04725647C.08299255 .023239136 .08299255 .021240235 .08299255 .018249512 .08299255 .0052337648 .09199524-.010772705 .11399841-.010772705 .12799073-.010772705 .14299011-.0017700195 .1499939 .010238647 .15299988 .016235352 .16099549 .04824829 .1659851 .06825256L.18899536 .1572876C.19999695 .20429993 .21899414 .2773285 .21998596 .2853241 .22200012 .29133607 .24699402 .33935548 .2829895 .37435914 .31199647 .4013672 .34999085 .41737367 .3889923 .41737367 .44299317 .41737367 .44299317 .36434938 .44299317 .34735108 .44299317 .31933595 .43899537 .30534364 .43399049 .2833252L.32099916-.16482544C.31698609-.17881775 .31698609-.18081665 .31698609-.18682862 .31698609-.2038269 .32899476-.21582031 .34799195-.21582031 .37998963-.21582031 .3869934-.18682862 .3899994-.17481995L.5029907 .2763214Z"/>
<path id="font_1_1" d="M.2679901 .43603517C.1539917 .41105653 .042999269 .29112245 .042999269 .15919495 .042999269 .04824829 .12098694-.01171875 .20799256-.01171875 .32398988-.01171875 .41099549 .14019776 .41099549 .28211976 .41099549 .3740692 .36698915 .42803956 .33599855 .46601869 .30099488 .5090027 .23599243 .58795168 .23599243 .6329346 .23599243 .6499176 .24899292 .6769104 .29100038 .6769104 .32199098 .6769104 .34199525 .664917 .36299134 .6509247 .3769989 .6429291 .4059906 .62493899 .42099 .62493899 .44198609 .62493899 .46099855 .6439209 .46099855 .6659088 .46099855 .687912 .44799806 .6909027 .40098573 .7009125 .35198976 .71191409 .33399964 .71191409 .31999208 .71191409 .21998596 .71191409 .20498657 .6409302 .20498657 .60894778 .20498657 .5589752 .23699951 .49101258 .2679901 .43603517M.28199769 .41204835C.33499146 .31910707 .33699037 .27412416 .33699037 .2411499 .33699037 .16519165 .29599 .0132751469 .20698548 .0132751469 .1639862 .0132751469 .10899353 .041259767 .10899353 .13121033 .10899353 .19517517 .14399719 .3740692 .28199769 .41204835Z"/>
<path id="font_1_7" d="M.5519867 .6096039C.55999758 .6436157 .56199648 .6516113 .6179962 .6516113 .6299896 .6516113 .6429901 .6516113 .6429901 .6696167 .6429901 .6706085 .6429901 .6826172 .6279907 .6826172 .62098696 .6826172 .5799866 .680603 .57398989 .680603 .5669861 .6796112 .5349884 .6796112 .5149994 .6796112 .4909973 .6796112 .46499635 .680603 .44099427 .680603 .4169922 .680603 .3929901 .6826172 .36999513 .6826172 .3619995 .6826172 .34899903 .6826172 .34899903 .6646118 .34899903 .6516113 .35899354 .6516113 .3829956 .6516113 .3880005 .6516113 .4149933 .6516113 .43998719 .64860537 .46398927 .64660647 .47099305 .64460757 .47099305 .62960818 .47099305 .62260439 .46899415 .61660769 .46798707 .6116028L.35099793 .1465149C.32798768 .055511476 .2599945 .002532959 .20799256 .002532959 .1749878 .002532959 .12599182 .016525269 .11099243 .061523439 .11299133 .060516359 .114990238 .060516359 .12199402 .060516359 .1619873 .060516359 .18699646 .09552002 .18699646 .12451172 .18699646 .1505127 .16699219 .16651917 .14199829 .16651917 .11999512 .16651917 .07598877 .1505127 .07598877 .087509158 .07598877 .022521973 .13198853-.022460938 .20999146-.022460938 .30599977-.022460938 .4099884 .043518068 .43499757 .14251709L.5519867 .6096039Z"/>
<path id="font_2_4" d="M.47299195 .31976319C.47299195 .38682557 .46998597 .47288514 .43499757 .5479431 .3909912 .64201357 .31498719 .6660156 .25698854 .6660156 .19699097 .6660156 .12098694 .64201357 .07699585 .5459442 .04499817 .47688294 .039993287 .39582826 .039993287 .31976319 .039993287 .25471498 .041992189 .15765381 .084991458 .07858276 .13198853-.0064697267 .20999146-.022460938 .2559967-.022460938 .32099916-.022460938 .394989 .0055389406 .43699647 .097595218 .46699525 .1646576 .47299195 .23971558 .47299195 .31976319M.25698854 .002532959C.22698975 .002532959 .15499878 .016540528 .13598633 .12962342 .12599182 .18867493 .12599182 .2747345 .12599182 .33177186 .12599182 .39982606 .12599182 .47888185 .13798523 .53393557 .1579895 .6230011 .22200012 .64100649 .2559967 .64100649 .2939911 .64100649 .35699464 .62098696 .37599183 .5279236 .3869934 .47288514 .3869934 .39482118 .3869934 .33177186 .3869934 .2697296 .3869934 .18566895 .3769989 .12661743 .35598756 .012542725 .28199769 .002532959 .25698854 .002532959Z"/>
<path id="font_5_3" d="M.56399539 .60661318C.57299807 .6416168 .57499697 .6496124 .6269989 .6496124 .6409912 .6496124 .6539917 .6496124 .6539917 .6686096 .6539917 .6696167 .6529999 .6826172 .6389923 .6826172 .6329956 .6826172 .6199951 .6796112 .5239868 .6796112 .5009918 .6796112 .46099855 .6796112 .45498658 .680603 .44299317 .6816101 .394989 .6826172 .3829956 .6826172 .3769989 .6826172 .3619995 .6826172 .3619995 .66360476 .3619995 .6496124 .37298585 .6496124 .39698792 .6496124 .397995 .6496124 .42399598 .6496124 .44898988 .6476135 .47599793 .6456146 .48199464 .6416168 .48199464 .62960818 .48199464 .62561038 .48098756 .6246033 .47799684 .6116028L.3619995 .14654541C.34199525 .06454468 .27598573 .006515503 .21699524 .006515503 .19599915 .006515503 .13999939 .012512207 .11898804 .060546876 .18899536 .060546876 .19198609 .11854553 .19198609 .123535159 .19198609 .15153504 .16999817 .16653443 .14698792 .16653443 .12298584 .16653443 .08099365 .14753723 .08099365 .08854675 .08099365 .026519776 .13598633-.021484375 .21998596-.021484375 .31498719-.021484375 .4229889 .042526246 .44799806 .14253235L.56399539 .60661318Z"/>
<path id="font_6_5" d="M.2709961-.25V-.20401001H.16999817V.70399478H.2709961V.75H.12399292V-.25H.2709961Z"/>
<path id="font_5_6" d="M.5179901 .37738038C.5219879 .39138795 .5219879 .39338685 .5219879 .40039063 .5219879 .42539979 .5019989 .43139649 .48999024 .43139649 .4850006 .43139649 .46199037 .43040467 .44898988 .40438844 .44699098 .3993988 .43798829 .3633728 .43299867 .34236146L.37298585 .102264408C.37199403 .09925842 .32899476 .018234253 .2559967 .018234253 .20698548 .018234253 .18998719 .054244996 .18998719 .09925842 .18998719 .1572876 .22399903 .24632263 .24699402 .3043518 .25698854 .32936097 .2599945 .33836366 .2599945 .35636903 .2599945 .4113922 .21598816 .44140626 .16999817 .44140626 .070999149 .44140626 .02999878 .300354 .02999878 .28834535 .02999878 .27934266 .036987306 .27534486 .04499817 .27534486 .057998659 .27534486 .05899048 .28134156 .06199646 .29135133 .08799744 .37838746 .1309967 .4133911 .16699219 .4133911 .18199158 .4133911 .19099427 .4033966 .19099427 .38038636 .19099427 .359375 .18299866 .33636476 .17599488 .31835938 .1349945 .21231079 .117996219 .1612854 .117996219 .11427307 .117996219 .016220093 .19198609-.009765625 .25099183-.009765625 .2979889-.009765625 .33198548 .011230469 .35598756 .034240724 .34199525-.021774292 .33198548-.060791017 .2939911-.108795169 .26098634-.14985657 .22099304-.17610169 .17599488-.17610169 .15899658-.17610169 .12098694-.17308045 .100997928-.14279175 .1539917-.13879395 .1579895-.09379578 .1579895-.08778381 .1579895-.06378174 .13999939-.05078125 .11898804-.05078125 .09700012-.05078125 .06199646-.0677948 .06199646-.11679077 .06199646-.1639862 .10499573-.20410156 .17599488-.20410156 .27799989-.20410156 .3929901-.121795658 .4229889-.00077819827L.5179901 .37738038Z"/>
<path id="font_6_6" d="M.16999817 .75H.022994996V.70399478H.12399292V-.20401001H.022994996V-.25H.16999817V.75Z"/>
<path id="font_6_4" d="M.73098757 .3330078C.74598696 .3330078 .7659912 .3330078 .7659912 .3560028 .7659912 .3789978 .74198916 .3789978 .72698977 .3789978H.09799194C.08299255 .3789978 .05899048 .3789978 .05899048 .3560028 .05899048 .3330078 .07899475 .3330078 .09399414 .3330078H.73098757M.72698977 .12098694C.74198916 .12098694 .7659912 .12098694 .7659912 .14398194 .7659912 .16699219 .74598696 .16699219 .73098757 .16699219H.09399414C.07899475 .16699219 .05899048 .16699219 .05899048 .14398194 .05899048 .12098694 .08299255 .12098694 .09799194 .12098694H.72698977Z"/>
<path id="font_7_1" d="M.5970001-.049804689C.58999636-.051818849 .55999758-.060806276 .55999758-.093811038 .55999758-.1288147 .58898928-.1388092 .60398867-.1388092 .6199951-.1388092 .6489868-.1288147 .6489868-.092819217 .6489868-.039901735 .59498599 0 .5309906 0 .44099427 0 .3849945-.078811649 .3600006-.18180847 .34899903-.22779846 .30799867-.53274539 .29299928-.73472598 .2919922-.75271609 .28599549-.8257141 .2809906-.8746948 .269989-.98869326 .2539978-1.0830078 .17599488-1.0830078 .1519928-1.0830078 .12599182-1.073883 .11099243-1.0606842 .117996219-1.0586853 .147995-1.0496826 .147995-1.0166931 .147995-.98168948 .11898804-.9716797 .10398865-.9716797 .08799744-.9716797 .05899048-.98168948 .05899048-1.0176849 .05899048-1.0708313 .11299133-1.111023 .1769867-1.111023 .29100038-1.111023 .34098817-.98568728 .35598756-.8927002 .37599183-.76571658 .3909912-.636734 .4039917-.50875857 .40899659-.46276856 .4119873-.4217682 .41600038-.3757782 .4169922-.35777284 .4229889-.28479005 .42799378-.23579407 .43899537-.12081909 .45498658-.028015137 .5319977-.028015137 .55599978-.028015137 .58200076-.03692627 .5970001-.049804689Z"/>
<path id="font_3_4" d="M.2809906 .66430667C.28199769 .66830447 .28399659 .67430117 .28399659 .67930606 .28399659 .6953125 .2639923 .6943054 .2519989 .69329836L.13999939 .6843109C.12298584 .68330386 .10998535 .682312 .10998535 .65830996 .10998535 .64331057 .12298584 .64331057 .13899231 .64331057 .16799927 .64331057 .1749878 .64030459 .18798828 .63630679 .18699646 .61932376 .18699646 .6173248 .18199158 .59732058L.13598633 .4133911C.12799073 .38339234 .08898926 .22531128 .084991458 .21131897 .07998657 .18730164 .07998657 .17129517 .07998657 .1592865 .07998657 .04724121 .15499878-.009765625 .23699951-.009765625 .37098695-.009765625 .5049896 .12828064 .5049896 .2713318 .5049896 .37438966 .43299867 .44140626 .34298707 .44140626 .28199769 .44140626 .22999573 .4033966 .21099854 .38638307L.2809906 .66430667M.19299317 .31636048C.22399903 .359375 .28199769 .4084015 .33999635 .4084015 .3909912 .4084015 .41999818 .3683777 .41999818 .31036378 .41999818 .27534486 .3999939 .16629029 .36299134 .10726929 .32899476 .052246095 .2789917 .023223877 .23799134 .023223877 .20698548 .023223877 .15499878 .041229249 .15499878 .12727356 .15499878 .15829468 .1579895 .17430115 .17098999 .22732544 .1769867 .2503357 .18899536 .2983551 .19299317 .31636048Z"/>
<path id="font_3_3" d="M.5189972 .32136537C.5239868 .3443756 .5339966 .38238526 .5339966 .38938905 .5339966 .4113922 .5169983 .4223938 .49899293 .4223938 .47099305 .4223938 .45399476 .39639283 .45098878 .38139344 .43699647 .4044037 .40299989 .44140626 .34098817 .44140626 .21299744 .44140626 .07499695 .3073578 .07499695 .16029358 .07499695 .052246095 .15098572-.009765625 .23599243-.009765625 .30299378-.009765625 .3600006 .036239625 .3849945 .06124878 .4039917-.0017700195 .47099305-.009765625 .49299623-.009765625 .5289917-.009765625 .5549927 .010223389 .57398989 .041229249 .598999 .08125305 .61299136 .13928223 .61299136 .14428711 .61299136 .14628601 .6119995 .15829468 .59399417 .15829468 .57899478 .15829468 .57699587 .1512909 .57299807 .13528443 .5569916 .07424927 .5359955 .023223877 .49699403 .023223877 .46299745 .023223877 .45999146 .059249879 .45999146 .07424927 .45999146 .087249759 .46998597 .12727356 .47698976 .1532898L.5189972 .32136537M.3889923 .13127136C.38398744 .11326599 .38398744 .11126709 .36999513 .09625244 .31498719 .034225465 .2639923 .023223877 .23899842 .023223877 .19898987 .023223877 .1599884 .050231935 .1599884 .121276859 .1599884 .16229248 .18099976 .2603302 .21299744 .3173523 .24299622 .37138368 .2939911 .4084015 .34199525 .4084015 .4169922 .4084015 .43598939 .32936097 .43598939 .32235719L.43299867 .3083496 .3889923 .13127136Z"/>
<path id="font_5_4" d="M.3880005 .6046295C.39698792 .63861086 .39898683 .6496124 .4909973 .6496124 .5189972 .6496124 .5289917 .6496124 .5289917 .6686096 .5289917 .6706085 .5269928 .6826172 .5119934 .6826172 .4909973 .6826172 .46099855 .680603 .43998719 .6796112H.36799623C.2639923 .6796112 .23999024 .6826172 .23298645 .6826172 .22898865 .6826172 .21299744 .6826172 .21299744 .66360476 .21299744 .6496124 .22599793 .6496124 .24198914 .6496124 .2749939 .6496124 .3039856 .6496124 .3039856 .6336212 .3039856 .6296234 .30299378 .62861636 .2999878 .6156311L.1659851 .07896423C.15699768 .040985109 .15499878 .032989503 .08099365 .032989503 .06199646 .032989503 .049987794 .032989503 .049987794 .01399231 .049987794 0 .06298828 0 .07998657 0H.5629883C.58799746 0 .58898928 .0009918213 .5970001 .019989014 .6069946 .04798889 .6799927 .23587036 .6799927 .24586487 .6799927 .2548523 .6719971 .25985719 .6649933 .25985719 .6539917 .25985719 .6519928 .2528534 .644989 .23786927 .60899356 .14492798 .56599429 .032989503 .3869934 .032989503H.2599945C.25099183 .034988405 .24798584 .034988405 .24798584 .041992189 .24798584 .049987794 .25 .0579834 .2519989 .0639801L.3880005 .6046295Z"/>
<path id="font_6_1" d="M.33299256-.25C.34098817-.25 .35299684-.25 .35299684-.23800659 .35299684-.23400879 .35198976-.23300171 .33898927-.22000122 .20199585-.09100342 .16799927 .09498596 .16799927 .25 .16799927 .5379944 .2869873 .6729889 .33799745 .71899417 .35198976 .7319946 .35299684 .73298647 .35299684 .73799136 .35299684 .7429962 .34899903 .75 .33898927 .75 .32299806 .75 .272995 .69898989 .2649994 .6899872 .1309967 .5499878 .102996829 .36999513 .102996829 .25 .102996829 .025985718 .19699097-.15400696 .33299256-.25Z"/>
<path id="font_5_5" d="M.5009918 .39942933C.45700074 .38842774 .45498658 .34942628 .45498658 .34542848 .45498658 .3234253 .47200013 .3084259 .49398805 .3084259 .5159912 .3084259 .5499878 .3254242 .5499878 .36842347 .5499878 .42539979 .4869995 .44140626 .44999696 .44140626 .40299989 .44140626 .36499024 .4084015 .34199525 .36943055 .31999208 .4223938 .2679901 .44140626 .22698975 .44140626 .117996219 .44140626 .056991579 .31643678 .056991579 .28840638 .056991579 .27938844 .06399536 .27539063 .07199097 .27539063 .083999637 .27539063 .085998538 .2803955 .08898926 .29240418 .11199951 .36543275 .17199707 .4133911 .22399903 .4133911 .2630005 .4133911 .28199769 .385437 .28199769 .34942628 .28199769 .32943727 .269989 .2834015 .2619934 .25135804 .25498963 .22232056 .23298645 .13320923 .22799683 .11419678 .21398926 .060195924 .17799378 .018234253 .1329956 .018234253 .1289978 .018234253 .102996829 .018234253 .08198547 .032196046 .12799073 .04319763 .12799073 .08518982 .12799073 .0861969 .12799073 .109191898 .10998535 .12319946 .08799744 .12319946 .06098938 .12319946 .03199768 .10018921 .03199768 .062194826 .03199768 .016220093 .08099365-.009765625 .13198853-.009765625 .18499756-.009765625 .22200012 .030197144 .23999024 .062194826 .2619934 .01322937 .30799867-.009765625 .35598756-.009765625 .46499635-.009765625 .5249939 .1151886 .5249939 .143219 .5249939 .15322876 .5169983 .15623474 .5099945 .15623474 .49798585 .15623474 .49598695 .14923096 .49299623 .13922119 .47299195 .07218933 .41600038 .018234253 .35798646 .018234253 .32499696 .018234253 .30099488 .04019165 .30099488 .0821991 .30099488 .10218811 .30699159 .12519837 .32099916 .18127442 .32798768 .21130371 .34999085 .29942323 .35499574 .31843568 .36898805 .37042237 .4039917 .4133911 .44898988 .4133911 .45399476 .4133911 .47999574 .4133911 .5009918 .39942933Z"/>
<path id="font_5_1" d="M.18699646 .01499939C.18699646-.050109865 .17298889-.10720825 .11099243-.16934204 .10699463-.17234802 .10499573-.17434693 .10499573-.17933655 .10499573-.18734741 .11299133-.19334412 .11999512-.19334412 .13198853-.19334412 .21499634-.114227298 .21499634 .0029907227 .21499634 .066986087 .19099427 .11099243 .14698792 .11099243 .11199951 .11099243 .09199524 .08299255 .09199524 .055999757 .09199524 .027999878 .11099243 0 .147995 0 .17199707 0 .18699646 .01399231 .18699646 .01499939Z"/>
<path id="font_4_2" d="M.31399537 .47006227C.32099916 .48506166 .32299806 .49606324 .32299806 .50205996 .32299806 .53305056 .29499818 .5590515 .2619934 .5590515 .22200012 .5590515 .20999146 .5240631 .20599365 .51005557L.06599426 .08206177C.06399536 .076049808 .06098938 .0680542 .06098938 .0640564 .06098938 .047058107 .100997928 .0390625 .101989749 .0390625 .11099243 .0390625 .114990238 .048049928 .11898804 .05606079L.31399537 .47006227Z"/>
<path id="font_6_2" d="M.30899049 .25C.30899049 .34500123 .29299928 .45899964 .23098755 .57699587 .18199158 .6689911 .09098816 .75 .07299805 .75 .06298828 .75 .05999756 .7429962 .05999756 .73799136 .05999756 .73399356 .05999756 .7319946 .07199097 .7200012 .21199036 .58699038 .24398804 .4039917 .24398804 .25 .24398804-.037002565 .125-.17300415 .07398987-.2190094 .06098938-.23200989 .05999756-.23300171 .05999756-.23800659 .05999756-.24301148 .06298828-.25 .07299805-.25 .08898926-.25 .13899231-.19900513 .14698792-.19000244 .2809906-.05000305 .30899049 .12998963 .30899049 .25Z"/>
<path id="font_6_7" d="M.32899476 .68333438V.6503296C.39698792 .6503296 .40499879 .6433258 .40499879 .5943451V.38339234C.36999513 .42140199 .32299806 .44140626 .2709961 .44140626 .1459961 .44140626 .034988405 .3443756 .034988405 .21531677 .034988405 .09225464 .1349945-.009765625 .26098634-.009765625 .31999208-.009765625 .36898805 .018234253 .4019928 .053237916V-.009765625L.55400088 .00022888184V.033233644C.48599244 .033233644 .47799684 .040237428 .47799684 .089263919V.69433596L.32899476 .68333438M.4019928 .12426758C.4019928 .10626221 .4019928 .102264408 .3869934 .08226013 .35899354 .042236329 .31298829 .018234253 .2659912 .018234253 .21998596 .018234253 .17999268 .042236329 .1559906 .07925415 .1289978 .118270877 .12399292 .16729737 .12399292 .21430969 .12399292 .27233888 .1329956 .3133545 .1559906 .3483734 .17999268 .38539125 .22499085 .4133911 .27598573 .4133911 .32398988 .4133911 .37199403 .38938905 .4019928 .33737184V.12426758Z"/>
<path id="font_8_49" d="M.69200137 .25993348H.6609955C.6349945 .10997009 .6139984 .032989503 .43399049 .032989503H.2849884C.23899842 .032989503 .23699951 .039993287 .23699951 .07397461V.33691407H.33399964C.43299867 .33691407 .44699098 .30691529 .44699098 .21994019H.47799684V.4868164H.44699098C.44699098 .39988709 .43299867 .36990357 .33399964 .36990357H.23699951V.6057129C.23699951 .63967898 .23899842 .64668276 .2849884 .64668276H.4269867C.59298709 .64668276 .6139984 .5867157 .6319885 .45277406H.6629944L.6339874 .6796875H.04399109V.64668276H.06599426C.14299011 .64668276 .14498902 .63568118 .14498902 .5987091V.080963138C.14498902 .04399109 .14299011 .032989503 .06599426 .032989503H.04399109V0H.647995L.69200137 .25993348Z"/>
<path id="font_8_71" d="M.61898806 .25985719H.58799746C.57598879 .1559143 .5609894 .032989503 .37799073 .032989503H.2849884C.23899842 .032989503 .23699951 .039993287 .23699951 .07395935V.6006317C.23699951 .6356201 .23699951 .6496124 .33099366 .6496124H.36299134V.6826172C.31799317 .6796112 .24499512 .6796112 .19799805 .6796112L.04399109 .6826172V.6496124H.06599426C.14299011 .6496124 .14498902 .63861086 .14498902 .6016388V.080963138C.14498902 .04399109 .14299011 .032989503 .06599426 .032989503H.04399109V0H.58999636L.61898806 .25985719Z"/>
<path id="font_8_44" d="M.20298767 .37464906C.20298767 .4086609 .17599488 .43066407 .147995 .43066407 .11399841 .43066407 .09199524 .403656 .09199524 .37565614 .09199524 .34165956 .11898804 .31965638 .14698792 .31965638 .18099976 .31965638 .20298767 .34664918 .20298767 .37464906M.20298767 .054992677C.20298767 .08898926 .17599488 .11099243 .147995 .11099243 .11399841 .11099243 .09199524 .083999637 .09199524 .055999757 .09199524 .021987915 .11898804 0 .14698792 0 .18099976 0 .20298767 .026992798 .20298767 .054992677Z"/>
<path id="font_5_2" d="M.4889984 .34391786C.47499085 .39797975 .43699647 .45703126 .34599305 .45703126 .25099183 .45703126 .19099427 .41300965 .14299011 .37194825 .041992189 .28485108 .041992189 .16870117 .041992189 .15969849 .041992189 .09761047 .08999634-.021484375 .24198914-.021484375 .32499696-.021484375 .4139862 .019515992 .48199464 .1116333 .5479889 .20175171 .5970001 .3499298 .5970001 .45002748 .5970001 .61231997 .49598695 .71484377 .36299134 .71484377 .20899964 .71484377 .16299439 .58732607 .16299439 .5563202 .16299439 .5323181 .18099976 .5193176 .20199585 .5193176 .23399353 .5193176 .2579956 .5483246 .2579956 .57432559 .2579956 .58732607 .25498963 .61032107 .21499634 .6113281 .25498963 .6759186 .32099916 .6888428 .3619995 .6888428 .45199586 .6888428 .5159912 .61927798 .5159912 .5032501 .5159912 .44802857 .5039978 .39497376 .48999024 .34391786H.4889984M.24398804 .008514404C.13198853 .008514404 .12599182 .10362244 .12599182 .12364197 .12599182 .16268921 .15499878 .26882936 .16499329 .29385377 .19099427 .3529358 .25299073 .4290161 .34899903 .4290161 .43299867 .4290161 .46899415 .36494447 .46899415 .29486085 .46899415 .21775818 .39898683 .008514404 .24398804 .008514404Z"/>
<path id="font_9_1" d="M.69898989 .22743225C.71499636 .22743225 .7369995 .22743225 .7369995 .25042726 .7369995 .2734375 .71499636 .2734375 .69898989 .2734375H.12599182C.10998535 .2734375 .08799744 .2734375 .08799744 .25042726 .08799744 .22743225 .10998535 .22743225 .12599182 .22743225H.69898989Z"/>
<path id="font_6_3" d="M.4889984 .31877137C.4889984 .42585755 .47799684 .49090577 .44499208 .55496218 .40098573 .6430359 .31999208 .66503909 .2649994 .66503909 .13899231 .66503909 .09298706 .5709839 .07899475 .5429535 .042999269 .4698944 .040985109 .3708191 .040985109 .31877137 .040985109 .25271607 .04399109 .15162659 .09199524 .07156372 .13798523-.0024871827 .21199036-.021484375 .2649994-.021484375 .31298829-.021484375 .39898683-.0064849855 .44898988 .09257507 .48599244 .16464234 .4889984 .2537079 .4889984 .31877137M.2649994 .006515503C.23098755 .006515503 .1619873 .022521973 .14099121 .12760926 .12998963 .18466187 .12998963 .2787323 .12998963 .33078004 .12998963 .3998413 .12998963 .4698944 .14099121 .5249481 .1619873 .6270294 .23999024 .6370239 .2649994 .6370239 .29899598 .6370239 .36799623 .62002566 .3880005 .5289459 .3999939 .4738922 .3999939 .39883424 .3999939 .33078004 .3999939 .27172853 .3999939 .18165589 .3880005 .12561035 .36698915 .020523072 .2979889 .006515503 .2649994 .006515503Z"/>
</defs>
<path transform="matrix(1,0,0,-1,39.45089,113.9612)" stroke-width=".3985" stroke-linecap="butt" stroke-miterlimit="10" stroke-linejoin="miter" fill="none" stroke="#7f807f" d="M-8.5039 0H199.84485"/>
<use data-text="x" xlink:href="#font_1_10" transform="matrix(8.966376,0,0,-8.966376,242.81558,115.891468)" fill="#7f807f"/>
<path transform="matrix(1,0,0,-1,39.45089,113.9612)" stroke-width=".3985" stroke-linecap="butt" stroke-miterlimit="10" stroke-linejoin="miter" fill="none" stroke="#7f807f" d="M0-12.75616V93.54433"/>
<use data-text="y" xlink:href="#font_1_11" transform="matrix(8.966376,0,0,-8.966376,37.020784,15.153561)" fill="#7f807f"/>
<path transform="matrix(1,0,0,-1,39.45089,113.9612)" stroke-width=".3985" stroke-linecap="butt" stroke-miterlimit="10" stroke-linejoin="miter" fill="none" stroke="#bfbfbf" d="M21.26266 17.00989C63.7803 76.53648 127.56062 21.26009 170.10161 68.04085"/>
<path transform="matrix(1,0,0,-1,39.45089,113.9612)" stroke-width=".3985" stroke-linecap="butt" stroke-miterlimit="10" stroke-linejoin="miter" fill="none" stroke="#bfbfbf" d="M21.26266 17.00989C42.5202 8.5039 119.0567 80.78813 170.10161 68.04085"/>
<path transform="matrix(1,0,0,-1,39.45089,113.9612)" stroke-width=".3985" stroke-linecap="butt" stroke-miterlimit="10" stroke-linejoin="miter" fill="none" stroke="#bfbfbf" d="M21.26266 17.00989C63.7803 51.02411 106.3005 76.53648 170.10161 68.04085"/>
<path transform="matrix(1,0,0,-1,39.45089,113.9612)" stroke-width=".3985" stroke-linecap="butt" stroke-miterlimit="10" stroke-linejoin="miter" fill="none" stroke="#bfbfbf" d="M21.26266 17.00989C85.04042 12.75616 148.82074 29.76399 170.10161 68.04085"/>
<path transform="matrix(1,0,0,-1,39.45089,113.9612)" stroke-width=".3985" stroke-linecap="butt" stroke-miterlimit="10" stroke-linejoin="miter" fill="none" stroke="#bfbfbf" d="M21.26266 17.00989C51.02411 25.51236 106.3005 63.7803 170.10161 68.04085"/>
<path transform="matrix(1,0,0,-1,39.45089,113.9612)" stroke-width="1.19553" stroke-linecap="butt" stroke-miterlimit="10" stroke-linejoin="miter" fill="none" stroke="#000000" d="M21.26266 17.00989C63.7803 44.64633 119.0567 44.64633 170.10161 68.04085"/>
<path transform="matrix(1,0,0,-1,39.45089,113.9612)" d="M23.38878 17.00989C23.38878 18.18411 22.43689 19.136 21.26266 19.136 20.08844 19.136 19.13655 18.18411 19.13655 17.00989 19.13655 15.83565 20.08844 14.88376 21.26266 14.88376 22.43689 14.88376 23.38878 15.83565 23.38878 17.00989ZM21.26266 17.00989"/>
<path transform="matrix(1,0,0,-1,39.45089,113.9612)" d="M172.22772 68.04085C172.22772 69.21509 171.27584 70.16698 170.10161 70.16698 168.92737 70.16698 167.97548 69.21509 167.97548 68.04085 167.97548 66.86662 168.92737 65.91473 170.10161 65.91473 171.27584 65.91473 172.22772 66.86662 172.22772 68.04085ZM170.10161 68.04085"/>
<use data-text="A" xlink:href="#font_1_5" transform="matrix(8.966376,0,0,-8.966376,11.290279,107.196)"/>
<use data-text="=" xlink:href="#font_2_5" transform="matrix(8.966376,0,0,-8.966376,20.76026,107.196)"/>
<use data-text="(" xlink:href="#font_2_1" transform="matrix(8.966376,0,0,-8.966376,30.479813,107.196)"/>
<use data-text="a" xlink:href="#font_1_8" transform="matrix(8.966376,0,0,-8.966376,34.07137,107.196)"/>
<use data-text="," xlink:href="#font_1_4" transform="matrix(8.966376,0,0,-8.966376,38.949079,107.196)"/>
<use data-text="y" xlink:href="#font_1_11" transform="matrix(8.966376,0,0,-8.966376,43.037748,107.196)"/>
<use data-text="A" xlink:href="#font_3_1" transform="matrix(5.977584,0,0,-5.977584,47.58761,108.19228)"/>
<use data-text=")" xlink:href="#font_2_2" transform="matrix(8.966376,0,0,-8.966376,53.60943,107.196)"/>
<use data-text="B" xlink:href="#font_1_6" transform="matrix(8.966376,0,0,-8.966376,213.07233,40.1589)"/>
<use data-text="=" xlink:href="#font_2_5" transform="matrix(8.966376,0,0,-8.966376,223.05184,40.1589)"/>
<use data-text="(" xlink:href="#font_2_1" transform="matrix(8.966376,0,0,-8.966376,232.77138,40.1589)"/>
<use data-text="b" xlink:href="#font_1_9" transform="matrix(8.966376,0,0,-8.966376,236.36295,40.1589)"/>
<use data-text="," xlink:href="#font_1_4" transform="matrix(8.966376,0,0,-8.966376,240.30815,40.1589)"/>
<use data-text="y" xlink:href="#font_1_11" transform="matrix(8.966376,0,0,-8.966376,244.39682,40.1589)"/>
<use data-text="B" xlink:href="#font_3_2" transform="matrix(5.977584,0,0,-5.977584,248.94623,41.15519)"/>
<use data-text=")" xlink:href="#font_2_2" transform="matrix(8.966376,0,0,-8.966376,255.269,40.1589)"/>
<use data-text="y" xlink:href="#font_1_11" transform="matrix(8.966376,0,0,-8.966376,128.01114,58.800275)"/>
<use data-text="&#x2217;" xlink:href="#font_4_1" transform="matrix(5.977584,0,0,-5.977584,132.54964,59.796525)"/>
<use data-text="(" xlink:href="#font_2_1" transform="matrix(8.966376,0,0,-8.966376,136.86676,58.800275)"/>
<use data-text="x" xlink:href="#font_1_10" transform="matrix(8.966376,0,0,-8.966376,140.45052,58.800275)"/>
<use data-text=")" xlink:href="#font_2_2" transform="matrix(8.966376,0,0,-8.966376,145.67397,58.800275)"/>
<path transform="matrix(1,0,0,-1,39.45089,113.9612)" stroke-width=".3985" stroke-linecap="butt" stroke-miterlimit="10" stroke-linejoin="miter" fill="none" stroke="#000000" d="M87.16653 55.2764 90.79482 50.43869"/>
<path transform="matrix(.59996,.79999,.79999,-.59996,130.2457,63.522508)" d="M3.7613 0C3.2994 .1127 1.26901 .75136 0 1.44638V-1.44638C1.26901-.75136 3.2994-.1127 3.7613 0Z"/>
<path transform="matrix(.59996,.79999,.79999,-.59996,130.2457,63.522508)" stroke-width=".3985" stroke-linecap="butt" stroke-miterlimit="10" stroke-linejoin="miter" fill="none" stroke="#000000" d="M3.7613 0C3.2994 .1127 1.26901 .75136 0 1.44638V-1.44638C1.26901-.75136 3.2994-.1127 3.7613 0Z"/>
<use data-text="y" xlink:href="#font_1_11" transform="matrix(8.966376,0,0,-8.966376,45.096834,25.285473)" fill="#595959"/>
<use data-text="&#x2217;" xlink:href="#font_4_1" transform="matrix(5.977584,0,0,-5.977584,49.63534,26.281723)" fill="#595959"/>
<use data-text="(" xlink:href="#font_2_1" transform="matrix(8.966376,0,0,-8.966376,53.95246,25.285473)" fill="#595959"/>
<use data-text="x" xlink:href="#font_1_10" transform="matrix(8.966376,0,0,-8.966376,57.53622,25.285473)" fill="#595959"/>
<use data-text=")" xlink:href="#font_2_2" transform="matrix(8.966376,0,0,-8.966376,62.75967,25.285473)" fill="#595959"/>
<use data-text="+" xlink:href="#font_2_3" transform="matrix(8.966376,0,0,-8.966376,68.38159,25.285473)" fill="#595959"/>
<use data-text="&#x03b5;" xlink:href="#font_1_3" transform="matrix(8.966376,0,0,-8.966376,77.606678,25.285473)" fill="#595959"/>
<use data-text="&#x03b7;" xlink:href="#font_1_2" transform="matrix(8.966376,0,0,-8.966376,83.416889,25.285473)" fill="#595959"/>
<use data-text="(" xlink:href="#font_2_1" transform="matrix(8.966376,0,0,-8.966376,88.34376,25.285473)" fill="#595959"/>
<use data-text="x" xlink:href="#font_1_10" transform="matrix(8.966376,0,0,-8.966376,91.92752,25.285473)" fill="#595959"/>
<use data-text=")" xlink:href="#font_2_2" transform="matrix(8.966376,0,0,-8.966376,97.15097,25.285473)" fill="#595959"/>
<use data-text="&#x03b4;" xlink:href="#font_1_1" transform="matrix(8.966376,0,0,-8.966376,121.49508,140.46079)"/>
<use data-text="J" xlink:href="#font_1_7" transform="matrix(8.966376,0,0,-8.966376,125.90654,140.46079)"/>
<use data-text="=" xlink:href="#font_2_5" transform="matrix(8.966376,0,0,-8.966376,134.4122,140.46079)"/>
<use data-text="0" xlink:href="#font_2_4" transform="matrix(8.966376,0,0,-8.966376,144.13175,140.46079)"/>
<use data-text="J" xlink:href="#font_5_3" transform="matrix(7.970112,0,0,-7.970112,25.962899,165.98374)"/>
<use data-text="[" xlink:href="#font_6_5" transform="matrix(7.970112,0,0,-7.970112,31.337248,165.98374)"/>
<use data-text="y" xlink:href="#font_5_6" transform="matrix(7.970112,0,0,-7.970112,33.689569,165.98374)"/>
<use data-text="]" xlink:href="#font_6_6" transform="matrix(7.970112,0,0,-7.970112,38.161279,165.98374)"/>
<use data-text="=" xlink:href="#font_6_4" transform="matrix(7.970112,0,0,-7.970112,42.863645,165.98374)"/>
<use data-text="&#x222b;" xlink:href="#font_7_1" transform="matrix(7.970112,0,0,-7.970112,51.804758,159.56333)"/>
<use data-text="b" xlink:href="#font_3_4" transform="matrix(5.977584,0,0,-5.977584,57.450338,162.02628)"/>
<use data-text="a" xlink:href="#font_3_3" transform="matrix(5.977584,0,0,-5.977584,55.803709,168.9172)"/>
<use data-text="L" xlink:href="#font_5_4" transform="matrix(7.970112,0,0,-7.970112,62.633699,165.98374)"/>
<use data-text="(" xlink:href="#font_6_1" transform="matrix(7.970112,0,0,-7.970112,68.39274,165.98374)"/>
<use data-text="x" xlink:href="#font_5_5" transform="matrix(7.970112,0,0,-7.970112,71.68599,165.98374)"/>
<use data-text="," xlink:href="#font_5_1" transform="matrix(7.970112,0,0,-7.970112,76.45212,165.98374)"/>
<use data-text="y" xlink:href="#font_5_6" transform="matrix(7.970112,0,0,-7.970112,80.214008,165.98374)"/>
<use data-text="," xlink:href="#font_5_1" transform="matrix(7.970112,0,0,-7.970112,84.67727,165.98374)"/>
<use data-text="y" xlink:href="#font_5_6" transform="matrix(7.970112,0,0,-7.970112,88.44713,165.98374)"/>
<use data-text="&#x2032;" xlink:href="#font_4_2" transform="matrix(5.977584,0,0,-5.977584,92.92375,163.17093)"/>
<use data-text=")" xlink:href="#font_6_2" transform="matrix(7.970112,0,0,-7.970112,95.60812,165.98374)"/>
<use data-text="d" xlink:href="#font_6_7" transform="matrix(7.970112,0,0,-7.970112,100.31049,165.98374)"/>
<use data-text="x" xlink:href="#font_5_5" transform="matrix(7.970112,0,0,-7.970112,105.017429,165.98374)"/>
<use data-text="E" xlink:href="#font_8_49" transform="matrix(7.970112,0,0,-7.970112,162.7532,168.95984)"/>
<use data-text="L" xlink:href="#font_8_71" transform="matrix(7.970112,0,0,-7.970112,168.5156,168.95984)"/>
<use data-text=":" xlink:href="#font_8_44" transform="matrix(7.970112,0,0,-7.970112,173.80774,168.95984)"/>
<use data-text="&#x2202;" xlink:href="#font_5_2" transform="matrix(7.970112,0,0,-7.970112,180.17586,163.41)"/>
<use data-text="L" xlink:href="#font_5_4" transform="matrix(7.970112,0,0,-7.970112,185.10138,163.41)"/>
<path transform="matrix(1,0,0,-1,195.3023,127.002338)" stroke-width=".358656" stroke-linecap="butt" stroke-miterlimit="10" stroke-linejoin="miter" fill="none" stroke="#000000" d="M-15.12646-39.96497H-4.43585"/>
<use data-text="&#x2202;" xlink:href="#font_5_2" transform="matrix(7.970112,0,0,-7.970112,180.81952,174.9303)"/>
<use data-text="y" xlink:href="#font_5_6" transform="matrix(7.970112,0,0,-7.970112,185.74506,174.9303)"/>
<use data-text="&#x2212;" xlink:href="#font_9_1" transform="matrix(7.970112,0,0,-7.970112,193.94384,168.95984)"/>
<use data-text="d" xlink:href="#font_6_7" transform="matrix(7.970112,0,0,-7.970112,205.99118,163.41)"/>
<path transform="matrix(1,0,0,-1,195.3023,127.002338)" stroke-width=".358656" stroke-linecap="butt" stroke-miterlimit="10" stroke-linejoin="miter" fill="none" stroke="#000000" d="M8.3054-39.96497H17.77695"/>
<use data-text="d" xlink:href="#font_6_7" transform="matrix(7.970112,0,0,-7.970112,203.60771,174.9303)"/>
<use data-text="x" xlink:href="#font_5_5" transform="matrix(7.970112,0,0,-7.970112,208.31237,174.9303)"/>
<use data-text="&#x2202;" xlink:href="#font_5_2" transform="matrix(7.970112,0,0,-7.970112,216.16881,163.41)"/>
<use data-text="L" xlink:href="#font_5_4" transform="matrix(7.970112,0,0,-7.970112,221.09433,163.41)"/>
<path transform="matrix(1,0,0,-1,195.3023,127.002338)" stroke-width=".358656" stroke-linecap="butt" stroke-miterlimit="10" stroke-linejoin="miter" fill="none" stroke="#000000" d="M20.16798-39.96497H32.25563"/>
<use data-text="&#x2202;" xlink:href="#font_5_2" transform="matrix(7.970112,0,0,-7.970112,215.47029,174.9303)"/>
<use data-text="y" xlink:href="#font_5_6" transform="matrix(7.970112,0,0,-7.970112,220.39582,174.9303)"/>
<use data-text="&#x2032;" xlink:href="#font_4_2" transform="matrix(5.977584,0,0,-5.977584,224.87357,172.66104)"/>
<use data-text="=" xlink:href="#font_6_4" transform="matrix(7.970112,0,0,-7.970112,231.10578,168.95984)"/>
<use data-text="0" xlink:href="#font_6_3" transform="matrix(7.970112,0,0,-7.970112,240.04029,168.95984)"/>
</svg>
