<svg xmlns="http://www.w3.org/2000/svg" xmlns:xlink="http://www.w3.org/1999/xlink" xmlns:inkscape="http://www.inkscape.org/namespaces/inkscape" version="1.1" width="230.11" height="150.31" viewBox="0 0 230.11 150.31">
<defs>
<path id="font_1_1" d="M.47599793 .21496582C.49699403 .21496582 .5089874 .21496582 .5089874 .2429657 .5089874 .26498414 .5069885 .35305787 .44198609 .4071045 .39698792 .4441223 .33699037 .453125 .28799439 .453125 .116989139 .453125 .032989503 .345047 .032989503 .22497559 .032989503 .09408569 .13198853-.005859375 .3019867-.005859375 .46699525-.005859375 .5089874 .1000824 .5089874 .11605835 .5089874 .13604737 .4889984 .13604737 .48298646 .13604737 .46499635 .13604737 .46299745 .13005066 .45700074 .11605835 .43399049 .06410217 .37298585 .037139894 .30999757 .037139894 .16799927 .037139894 .1659851 .16601563 .1659851 .21496582H.47599793M.1659851 .25097657C.16799927 .29701234 .17298889 .41311646 .28799439 .41311646 .40499879 .41311646 .40899659 .29100038 .41099549 .25097657H.1659851Z"/>
<path id="font_2_1" d="M.35899354 .6349335C.35899354 .66503909 .35499574 .66503909 .32499696 .66503909 .25898744 .60058596 .15699768 .60058596 .12098694 .60058596V.5615845C.14698792 .5615845 .21299744 .5615845 .272995 .58958438V.08496094C.272995 .051986696 .272995 .038986207 .16999817 .038986207H.1269989V0C.18199158 .0039978029 .2599945 .0039978029 .31599427 .0039978029 .37199403 .0039978029 .44999696 .0039978029 .5049896 0V.038986207H.46199037C.35899354 .038986207 .35899354 .051986696 .35899354 .08496094V.6349335Z"/>
<path id="font_2_2" d="M.5379944 .18702698H.5009918C.49899293 .17301941 .4889984 .10699463 .47399903 .09599304 .46699525 .08999634 .38598634 .08999634 .37199403 .08999634H.18499756L.31298829 .19403076C.34700013 .22103882 .43598939 .28504945 .46699525 .31506349 .49699403 .3450775 .5379944 .39608766 .5379944 .46710206 .5379944 .5920563 .4249878 .66503909 .29100038 .66503909 .1619873 .66503909 .07199097 .58006289 .07199097 .48609925 .07199097 .43510438 .114990238 .42910768 .12599182 .42910768 .15098572 .42910768 .17999268 .44709779 .17999268 .48310853 .17999268 .50509646 .16699219 .5371094 .12298584 .5371094 .1459961 .5880585 .20698548 .6260376 .27598573 .6260376 .3809967 .6260376 .43699647 .5480957 .43699647 .46710206 .43699647 .39608766 .3899994 .32305909 .31999208 .25904847L.08299255 .041992189C.07299805 .03199768 .07199097 .0309906 .07199097 0H.5069885L.5379944 .18702698Z"/>
<path id="font_3_1" d="M.31399537 .47006227C.32099916 .48506166 .32299806 .49606324 .32299806 .50205996 .32299806 .53305056 .29499818 .5590515 .2619934 .5590515 .22200012 .5590515 .20999146 .5240631 .20599365 .51005557L.06599426 .08206177C.06399536 .076049808 .06098938 .0680542 .06098938 .0640564 .06098938 .047058107 .100997928 .0390625 .101989749 .0390625 .11099243 .0390625 .114990238 .048049928 .11898804 .05606079L.31399537 .47006227Z"/>
<path id="font_4_1" d="M.5109863 .48709107C.5109863 .59210208 .47099305 .70410159 .37298585 .70410159 .22299195 .70410159 .06298828 .4360962 .06298828 .20713806 .06298828 .0881958 .10899353-.009765625 .20098877-.009765625 .35299684-.009765625 .5109863 .26312257 .5109863 .48709107M.17599488 .36509706C.22698975 .58110049 .31298829 .6760864 .37199403 .6760864 .43598939 .6760864 .43598939 .565094 .43598939 .5460968 .43598939 .50709536 .42799378 .44909669 .40699769 .36509706H.17599488M.397995 .32910157C.36999513 .22013855 .34700013 .16616822 .31698609 .1171875 .28599549 .065200809 .24598694 .018234253 .20199585 .018234253 .14698792 .018234253 .13798523 .094192508 .13798523 .1481781 .13798523 .21414185 .15699768 .29211427 .16699219 .32910157H.397995Z"/>
<path id="font_1_2" d="M.522995 .37431336C.5299988 .38832093 .5329895 .3953247 .59599307 .3953247V.44433595C.56799319 .44132997 .54299929 .44132997 .5149994 .44132997 .48599244 .44132997 .45399476 .44132997 .4249878 .44433595V.3953247C.45298768 .3953247 .46199037 .39033509 .47099305 .38632203 .46998597 .38232423 .46998597 .38032533 .46499635 .37231446L.34498597 .123168949 .21398926 .3953247H.2659912V.44433595C.19999695 .44232179 .17999268 .44132997 .14299011 .44132997 .10699463 .44132997 .08699036 .44132997 .027999878 .44433595V.3953247H.09098816L.269989 .023117066C.2789917 .0041046144 .2869873-.0048828127 .31199647-.0048828127 .33699037-.0048828127 .34498597 .0041046144 .35398866 .023117066L.522995 .37431336Z"/>
<path id="font_4_2" d="M.5339966 .3633728C.5339966 .44140626 .4869995 .44239808 .48399354 .44239808 .45799256 .44239808 .42999269 .41540528 .42999269 .38938905 .42999269 .3723755 .43998719 .36437989 .44699098 .35836793 .46398927 .3443756 .48399354 .31835938 .48399354 .27833558 .48399354 .23332215 .41799928 .018234253 .29899598 .018234253 .21798706 .018234253 .21798706 .09025574 .21798706 .10726929 .21798706 .1532898 .23599243 .20930481 .272995 .3023529 .2809906 .32336427 .2869873 .33836366 .2869873 .3553772 .2869873 .4073944 .24299622 .44140626 .19198609 .44140626 .09199524 .44140626 .04699707 .3043518 .04699707 .28834535 .04699707 .27534486 .06098938 .27534486 .06399536 .27534486 .07798767 .27534486 .07899475 .28033448 .08198547 .29135133 .10598755 .37338258 .14898682 .4133911 .18899536 .4133911 .20599365 .4133911 .21398926 .40238954 .21398926 .37838746 .21398926 .3553772 .20599365 .33436585 .19599915 .3113556 .15299988 .20030213 .14199829 .1572876 .14199829 .121276859 .14199829 .022232056 .21998596-.009765625 .29599-.009765625 .46398927-.009765625 .5339966 .28134156 .5339966 .3633728Z"/>
<path id="font_5_1" d="M.397995 .63591006C.397995 .6660156 .394989 .6660156 .3619995 .6660156 .29100038 .6016083 .17999268 .6016083 .1599884 .6016083H.14299011V.5576172H.1599884C.18299866 .5576172 .24798584 .5606079 .30599977 .58561709V.08596802C.30599977 .054977418 .30599977 .04399109 .19999695 .04399109H.1499939V0C.20498657 .0039978029 .2939911 .0039978029 .35198976 .0039978029 .4099884 .0039978029 .49899293 .0039978029 .55400088 0V.04399109H.5039978C.397995 .04399109 .397995 .054977418 .397995 .08596802V.63591006Z"/>
<path id="font_5_2" d="M.58898928 .19296265H.5469971C.5439911 .17396546 .5339966 .11198425 .5179901 .101989749 .5099945 .09599304 .42599488 .09599304 .41099549 .09599304H.21499634C.2809906 .14497376 .35499574 .20095825 .4149933 .24093628 .5049896 .30291749 .58898928 .36090089 .58898928 .46687318 .58898928 .59495547 .46798707 .6660156 .32499696 .6660156 .18998719 .6660156 .09098816 .58795168 .09098816 .48986817 .09098816 .4378662 .1349945 .42886354 .14898682 .42886354 .17599488 .42886354 .20799256 .4468689 .20799256 .48786927 .20799256 .52386477 .18199158 .543869 .15098572 .546875 .1789856 .59194949 .23699951 .6220093 .3039856 .6220093 .40098573 .6220093 .48199464 .5639038 .48199464 .4658661 .48199464 .3818817 .42399598 .31791688 .34700013 .2529297L.102996829 .04598999C.09298706 .036987306 .09199524 .036987306 .09098816 .02999878V0H.55599978L.58898928 .19296265Z"/>
<path id="font_6_1" d="M.3600006 .46505738C.36099244 .46606446 .36999513 .48506166 .36999513 .50006106 .36999513 .5360565 .33799745 .5590515 .30799867 .5590515 .2669983 .5590515 .2559967 .5280609 .25099183 .5130615L.09700012 .080078128C.09298706 .06808472 .09298706 .065078739 .09298706 .064071658 .09298706 .048080446 .1349945 .038085939 .13598633 .038085939 .14498902 .038085939 .14698792 .04307556 .15299988 .05508423L.3600006 .46505738Z"/>
<path id="font_7_1" d="M.5159912 .20800781C.5369873 .20800781 .5509949 .20800781 .5509949 .23800659 .5509949 .26701356 .5439911 .34207154 .49598695 .39109803 .44198609 .44511415 .36799623 .453125 .31298829 .453125 .12799073 .453125 .039993287 .34306336 .039993287 .2250061 .039993287 .1060791 .13198853-.005859375 .32998658-.005859375 .3659973-.005859375 .42399598-.0018615723 .47399903 .025131226 .5329895 .056121828 .5509949 .1040802 .5509949 .11407471 .5509949 .13606262 .5289917 .13606262 .5189972 .13606262 .5009918 .13606262 .49598695 .13505554 .48799134 .11907959 .45199586 .045135499 .36099244 .045135499 .34399415 .045135499 .18598938 .045135499 .18099976 .16203308 .1789856 .20800781H.5159912M.1789856 .25C.17999268 .28903199 .18499756 .40711976 .31399537 .40711976 .44299317 .40711976 .44999696 .2930298 .45199586 .25H.1789856Z"/>
<path id="font_5_3" d="M.32998658 .3310547C.42199708 .3310547 .48298646 .2737732 .48298646 .17437744 .48298646 .07237244 .41999818 .01852417 .33099366 .01852417 .31999208 .01852417 .20098877 .01852417 .1499939 .070373538 .19099427 .07637024 .20298767 .1073761 .20298767 .13137818 .20298767 .16838074 .1749878 .19238281 .14199829 .19238281 .10998535 .19238281 .07998657 .17137146 .07998657 .12937927 .07998657 .025512696 .19799805-.022460938 .33399964-.022460938 .49798585-.022460938 .59999087 .07637024 .59999087 .17337036 .59999087 .25567628 .5269928 .3260193 .41299439 .35205079 .5329895 .3909912 .5649872 .46684266 .5649872 .5228424 .5649872 .60491946 .46299745 .6660156 .33699037 .6660156 .21398926 .6660156 .114990238 .61395266 .114990238 .5238342 .114990238 .47683717 .15299988 .46484376 .17199707 .46484376 .20098877 .46484376 .22898865 .48583985 .22898865 .5218353 .22898865 .5448303 .21699524 .5728302 .18099976 .57884219 .22399903 .625 .31298829 .628006 .33399964 .628006 .40699769 .628006 .45899964 .5908661 .45899964 .5228424 .45899964 .46484376 .42099 .37402345 .31599427 .368042 .28799439 .3670349 .28399659 .3660431 .2579956 .365036 .24699402 .3640442 .23599243 .36305238 .23599243 .34805299 .23599243 .3310547 .24598694 .3310547 .2639923 .3310547H.32998658Z"/>
<path id="font_8_1" d="M.7679901 .3359375C.7829895 .3359375 .80599978 .3359375 .80599978 .3609314 .80599978 .38493348 .7819977 .38493348 .7689972 .38493348H.10699463C.09399414 .38493348 .069992069 .38493348 .069992069 .3609314 .069992069 .3359375 .09298706 .3359375 .10798645 .3359375H.7679901M.7689972 .11602783C.7819977 .11602783 .80599978 .11602783 .80599978 .1400299 .80599978 .16503906 .7829895 .16503906 .7679901 .16503906H.10798645C.09298706 .16503906 .069992069 .16503906 .069992069 .1400299 .069992069 .11602783 .09399414 .11602783 .10699463 .11602783H.7689972Z"/>
<path id="font_9_2" d="M.54299929 .37132264C.5509949 .3873291 .55400088 .39233399 .6159973 .39233399V.44433595C.5779877 .44132997 .57598879 .44132997 .5329895 .44132997 .526001 .44132997 .47299195 .44132997 .44299317 .44433595V.39233399C.46899415 .39233399 .47599793 .389328 .48599244 .38432313 .4850006 .38232423 .4850006 .38032533 .47999574 .37132264L.35699464 .124176029 .22200012 .39233399H.269989V.44433595C.20899964 .44132997 .19799805 .44132997 .14698792 .44132997 .114990238 .44132997 .07299805 .44132997 .02999878 .44433595V.39233399H.09298706L.27799989 .023117066C.2869873 .0061035158 .2919922-.0048828127 .32299806-.0048828127 .33898927-.0048828127 .35499574-.0048828127 .36898805 .023117066L.54299929 .37132264Z"/>
<path id="font_10_2" d="M.73098757 .3330078C.74598696 .3330078 .7659912 .3330078 .7659912 .3560028 .7659912 .3789978 .74198916 .3789978 .72698977 .3789978H.09799194C.08299255 .3789978 .05899048 .3789978 .05899048 .3560028 .05899048 .3330078 .07899475 .3330078 .09399414 .3330078H.73098757M.72698977 .12098694C.74198916 .12098694 .7659912 .12098694 .7659912 .14398194 .7659912 .16699219 .74598696 .16699219 .73098757 .16699219H.09399414C.07899475 .16699219 .05899048 .16699219 .05899048 .14398194 .05899048 .12098694 .08299255 .12098694 .09799194 .12098694H.72698977Z"/>
<path id="font_11_1" d="M.49699403 .36437989C.49699403 .44239808 .45199586 .44239808 .44799806 .44239808 .42399598 .44239808 .3959961 .4163971 .3959961 .39038087 .3959961 .3743744 .4039917 .36738587 .41299439 .359375 .43598939 .33937074 .44999696 .3113556 .44999696 .27934266 .44999696 .23332215 .38398744 .018234253 .2689972 .018234253 .22599793 .018234253 .19099427 .041229249 .19099427 .104263309 .19099427 .1592865 .22099304 .23832703 .24499512 .2983551 .25698854 .33036805 .2599945 .33836366 .2599945 .35636903 .2599945 .4104004 .21598816 .44140626 .16999817 .44140626 .070999149 .44140626 .02999878 .300354 .02999878 .28834535 .02999878 .27934266 .036987306 .27534486 .04499817 .27534486 .057998659 .27534486 .05899048 .28134156 .06199646 .29135133 .08799744 .37838746 .1309967 .4133911 .16699219 .4133911 .18199158 .4133911 .19099427 .40438844 .19099427 .38038636 .19099427 .3573761 .18199158 .33436585 .17199707 .3093567 .12298584 .18330384 .11898804 .15028382 .11898804 .119277957 .11898804 .010223389 .20799256-.009765625 .2649994-.009765625 .43099977-.009765625 .49699403 .28834535 .49699403 .36437989Z"/>
<path id="font_9_1" d="M.49198915 .2119751C.5130005 .2119751 .526001 .2119751 .526001 .2409668 .526001 .28399659 .5159912 .35003663 .46598817 .3990631 .4099884 .45507813 .31999208 .45507813 .29699708 .45507813 .11898804 .45507813 .033996583 .34402467 .033996583 .2259674 .033996583 .09609985 .13398743-.0068359377 .31199647-.0068359377 .48799134-.0068359377 .526001 .10108948 .526001 .11508179 .526001 .13604737 .5049896 .13604737 .49798585 .13604737 .48098756 .13604737 .47698976 .13404846 .46899415 .11706543 .43699647 .04714966 .35198976 .040161134 .32398988 .040161134 .17599488 .040161134 .17098999 .15603638 .16899109 .2119751H.49198915M.16899109 .25097657C.16999817 .29100038 .17399597 .41307069 .2979889 .41307069 .42199708 .41307069 .4269867 .2899933 .42799378 .25097657H.16899109Z"/>
<path id="font_10_1" d="M.43598939 .22743225H.7299957C.74398806 .22743225 .7659912 .22743225 .7659912 .25042726 .7659912 .2734375 .74398806 .2734375 .7299957 .2734375H.43598939V.56799319C.43598939 .5819855 .43598939 .6039734 .41299439 .6039734 .3899994 .6039734 .3899994 .5819855 .3899994 .56799319V.2734375H.09498596C.08099365 .2734375 .05899048 .2734375 .05899048 .25042726 .05899048 .22743225 .08099365 .22743225 .09498596 .22743225H.3899994V-.067993167C.3899994-.08201599 .3899994-.104019168 .41299439-.104019168 .43598939-.104019168 .43598939-.08201599 .43598939-.067993167V.22743225Z"/>
<path id="font_2_3" d="M.2939911 .33203126C.3789978 .33203126 .43598939 .274765 .43598939 .17237854 .43598939 .062408449 .36999513 .014511108 .29699708 .014511108 .269989 .014511108 .16699219 .020492554 .12199402 .07836914 .16099549 .0823822 .1769867 .10836792 .1769867 .13537598 .1769867 .16937256 .15299988 .19238281 .11999512 .19238281 .09298706 .19238281 .06298828 .17536927 .06298828 .13337708 .06298828 .034469606 .17298889-.021484375 .2999878-.021484375 .44799806-.021484375 .5469971 .07337952 .5469971 .17237854 .5469971 .24562073 .4909973 .3229828 .37199403 .35302735 .45098878 .37902833 .5149994 .44306947 .5149994 .5251007 .5149994 .60505679 .42099 .66503909 .30099488 .66503909 .18399048 .66503909 .09498596 .61105349 .09498596 .5290985 .09498596 .48609925 .12799073 .47409059 .147995 .47409059 .17399597 .47409059 .20098877 .49209596 .20098877 .5270996 .20098877 .5580902 .1789856 .5760956 .1519928 .5800934 .19898987 .6320343 .2899933 .6320343 .29899598 .6320343 .34999085 .6320343 .4139862 .60806277 .4139862 .5251007 .4139862 .47009278 .3829956 .37402345 .2829895 .36802674 .2649994 .36701966 .23799134 .36502076 .22898865 .36502076 .21899414 .36402894 .20799256 .36302186 .20799256 .34802247 .20799256 .33203126 .21899414 .33203126 .23599243 .33203126H.2939911Z"/>
</defs>
<path transform="matrix(1,0,0,-1,88.13163,99.678928)" stroke-width="1.19553" stroke-linecap="butt" stroke-miterlimit="10" stroke-linejoin="miter" fill="none" stroke="#ff0000" d="M0 0H60.26163"/>
<path transform="matrix(1,0,0,-1,148.39327,99.678928)" d="M5.30629 0C4.65466 .16344 1.79025 1.08963 0 2.09753V-2.09753C1.79025-1.08963 4.65466-.16344 5.30629 0Z" fill="#ff0000"/>
<path transform="matrix(1,0,0,-1,148.39327,99.678928)" stroke-width="1.19553" stroke-linecap="butt" stroke-miterlimit="10" stroke-linejoin="miter" fill="none" stroke="#ff0000" d="M5.30629 0C4.65466 .16344 1.79025 1.08963 0 2.09753V-2.09753C1.79025-1.08963 4.65466-.16344 5.30629 0Z"/>
<use data-text="e" xlink:href="#font_1_1" transform="matrix(8.966376,0,0,-8.966376,160.08252,101.173358)" fill="#ff0000"/>
<use data-text="1" xlink:href="#font_2_1" transform="matrix(5.977584,0,0,-5.977584,164.95104,102.1696)" fill="#ff0000"/>
<path transform="matrix(1,0,0,-1,88.13163,99.678928)" stroke-width="1.19553" stroke-linecap="butt" stroke-miterlimit="10" stroke-linejoin="miter" fill="none" stroke="#008000" d="M0 0V60.26163"/>
<path transform="matrix(0,-1,-1,-0,88.13163,39.417295)" d="M5.30629 0C4.65466 .16344 1.79025 1.08963 0 2.09753V-2.09753C1.79025-1.08963 4.65466-.16344 5.30629 0Z" fill="#008000"/>
<path transform="matrix(0,-1,-1,-0,88.13163,39.417295)" stroke-width="1.19553" stroke-linecap="butt" stroke-miterlimit="10" stroke-linejoin="miter" fill="none" stroke="#008000" d="M5.30629 0C4.65466 .16344 1.79025 1.08963 0 2.09753V-2.09753C1.79025-1.08963 4.65466-.16344 5.30629 0Z"/>
<use data-text="e" xlink:href="#font_1_1" transform="matrix(8.966376,0,0,-8.966376,83.62182,26.731785)" fill="#008000"/>
<use data-text="2" xlink:href="#font_2_2" transform="matrix(5.977584,0,0,-5.977584,88.490329,27.728035)" fill="#008000"/>
<path transform="matrix(1,0,0,-1,88.13163,99.678928)" stroke-width="1.19553" stroke-linecap="butt" stroke-dasharray="2.98883,2.98883" stroke-miterlimit="10" stroke-linejoin="miter" fill="none" stroke="#ff8080" d="M0 0 52.18835 30.13092"/>
<path transform="matrix(.86601,-.49998,-.49998,-.86601,140.31998,69.54803)" d="M5.30629 0C4.65466 .16344 1.79025 1.08963 0 2.09753V-2.09753C1.79025-1.08963 4.65466-.16344 5.30629 0Z" fill="#ff8080"/>
<path transform="matrix(.86601,-.49998,-.49998,-.86601,140.31998,69.54803)" stroke-width="1.19553" stroke-linecap="butt" stroke-miterlimit="10" stroke-linejoin="miter" fill="none" stroke="#ff8080" d="M5.30629 0C4.65466 .16344 1.79025 1.08963 0 2.09753V-2.09753C1.79025-1.08963 4.65466-.16344 5.30629 0Z"/>
<use data-text="e" xlink:href="#font_1_1" transform="matrix(8.966376,0,0,-8.966376,150.96805,68.4389)" fill="#ff8080"/>
<use data-text="&#x2032;" xlink:href="#font_3_1" transform="matrix(5.977584,0,0,-5.977584,155.83655,64.629909)" fill="#ff8080"/>
<use data-text="1" xlink:href="#font_2_1" transform="matrix(5.977584,0,0,-5.977584,155.83655,70.016368)" fill="#ff8080"/>
<path transform="matrix(1,0,0,-1,88.13163,99.678928)" stroke-width="1.19553" stroke-linecap="butt" stroke-dasharray="2.98883,2.98883" stroke-miterlimit="10" stroke-linejoin="miter" fill="none" stroke="#004d00" d="M0 0-30.13092 52.18835"/>
<path transform="matrix(-.49998,-.86601,-.86601,.49998,58.000734,47.490575)" d="M5.30629 0C4.65466 .16344 1.79025 1.08963 0 2.09753V-2.09753C1.79025-1.08963 4.65466-.16344 5.30629 0Z" fill="#004d00"/>
<path transform="matrix(-.49998,-.86601,-.86601,.49998,58.000734,47.490575)" stroke-width="1.19553" stroke-linecap="butt" stroke-miterlimit="10" stroke-linejoin="miter" fill="none" stroke="#004d00" d="M5.30629 0C4.65466 .16344 1.79025 1.08963 0 2.09753V-2.09753C1.79025-1.08963 4.65466-.16344 5.30629 0Z"/>
<use data-text="e" xlink:href="#font_1_1" transform="matrix(8.966376,0,0,-8.966376,49.60553,35.265027)" fill="#004d00"/>
<use data-text="&#x2032;" xlink:href="#font_3_1" transform="matrix(5.977584,0,0,-5.977584,54.474039,31.456027)" fill="#004d00"/>
<use data-text="2" xlink:href="#font_2_2" transform="matrix(5.977584,0,0,-5.977584,54.474039,36.842485)" fill="#004d00"/>
<path transform="matrix(1,0,0,-1,88.13163,99.678928)" stroke-width=".3985" stroke-linecap="butt" stroke-miterlimit="10" stroke-linejoin="miter" fill="none" stroke="#000000" d="M31.74838 0C31.74838 5.57155 30.2805 11.04915 27.49498 15.87419"/>
<use data-text="&#x03b8;" xlink:href="#font_4_1" transform="matrix(6.973848,0,0,-6.973848,124.679058,93.936878)"/>
<path transform="matrix(1,0,0,-1,88.13163,99.678928)" stroke-width="1.19553" stroke-linecap="butt" stroke-miterlimit="10" stroke-linejoin="miter" fill="none" stroke="#000000" d="M0 0 102.53792 72.63104"/>
<path transform="matrix(.81598,-.57799,-.57799,-.81598,190.66956,27.047883)" d="M5.30629 0C4.65466 .16344 1.79025 1.08963 0 2.09753V-2.09753C1.79025-1.08963 4.65466-.16344 5.30629 0Z"/>
<path transform="matrix(.81598,-.57799,-.57799,-.81598,190.66956,27.047883)" stroke-width="1.19553" stroke-linecap="butt" stroke-miterlimit="10" stroke-linejoin="miter" fill="none" stroke="#000000" d="M5.30629 0C4.65466 .16344 1.79025 1.08963 0 2.09753V-2.09753C1.79025-1.08963 4.65466-.16344 5.30629 0Z"/>
<use data-text="v" xlink:href="#font_1_2" transform="matrix(8.966376,0,0,-8.966376,200.92877,18.63805)"/>
<path transform="matrix(1,0,0,-1,88.13163,99.678928)" stroke-width=".79701" stroke-linecap="butt" stroke-dasharray=".79701,1.99255" stroke-miterlimit="10" stroke-linejoin="miter" fill="none" stroke="#595959" d="M108.87885 77.12254 108.85187 0"/>
<path transform="matrix(1,0,0,-1,88.13163,99.678928)" stroke-width=".79701" stroke-linecap="butt" stroke-dasharray=".79701,1.99255" stroke-miterlimit="10" stroke-linejoin="miter" fill="none" stroke="#595959" d="M108.87885 77.12254 0 77.10345"/>
<use data-text="v" xlink:href="#font_4_2" transform="matrix(6.973848,0,0,-6.973848,193.04679,106.2014)" fill="#b30000"/>
<use data-text="1" xlink:href="#font_5_1" transform="matrix(4.98132,0,0,-4.98132,197.03188,107.19766)" fill="#b30000"/>
<use data-text="v" xlink:href="#font_4_2" transform="matrix(6.973848,0,0,-6.973848,76.73838,23.578656)" fill="#008000"/>
<use data-text="2" xlink:href="#font_5_2" transform="matrix(4.98132,0,0,-4.98132,80.72347,24.574915)" fill="#008000"/>
<path transform="matrix(1,0,0,-1,88.13163,99.678928)" stroke-width=".79701" stroke-linecap="butt" stroke-dasharray=".79701,1.99255" stroke-miterlimit="10" stroke-linejoin="miter" fill="none" stroke="#cc6600" d="M108.87885 77.12254 115.02576 66.40968"/>
<use data-text="v" xlink:href="#font_4_2" transform="matrix(6.973848,0,0,-6.973848,206.67722,42.56307)" fill="#ff8080"/>
<use data-text="&#x2032;" xlink:href="#font_6_1" transform="matrix(4.98132,0,0,-4.98132,210.91252,39.55655)" fill="#ff8080"/>
<use data-text="1" xlink:href="#font_5_1" transform="matrix(4.98132,0,0,-4.98132,210.6623,44.55558)" fill="#ff8080"/>
<path transform="matrix(1,0,0,-1,88.13163,99.678928)" stroke-width=".79701" stroke-linecap="butt" stroke-miterlimit="10" stroke-linejoin="miter" fill="none" stroke="#0000ff" d="M-55.33325 68.03258C-55.33325 72.54123-58.98814 76.19612-63.4968 76.19612-68.00546 76.19612-71.66035 72.54123-71.66035 68.03258-71.66035 63.52391-68.00546 59.86902-63.4968 59.86902-58.98814 59.86902-55.33325 63.52391-55.33325 68.03258ZM-63.4968 68.03258"/>
<path transform="matrix(1,0,0,-1,88.13163,99.678928)" d="M-61.22894 68.03258C-61.22894 69.2851-62.24428 70.30043-63.4968 70.30043-64.74933 70.30043-65.76466 69.2851-65.76466 68.03258-65.76466 66.78004-64.74933 65.76471-63.4968 65.76471-62.24428 65.76471-61.22894 66.78004-61.22894 68.03258ZM-63.4968 68.03258" fill="#0000ff"/>
<use data-text="e" xlink:href="#font_7_1" transform="matrix(6.973848,0,0,-6.973848,11.28965,17.063122)" fill="#0000ff"/>
<use data-text="3" xlink:href="#font_5_3" transform="matrix(4.98132,0,0,-4.98132,15.420691,18.059382)" fill="#0000ff"/>
<use data-text="=" xlink:href="#font_8_1" transform="matrix(6.973848,0,0,-6.973848,21.576672,17.063122)" fill="#0000ff"/>
<use data-text="e" xlink:href="#font_7_1" transform="matrix(6.973848,0,0,-6.973848,29.96038,17.063122)" fill="#0000ff"/>
<use data-text="&#x2032;" xlink:href="#font_6_1" transform="matrix(4.98132,0,0,-4.98132,34.09142,14.0566029)" fill="#0000ff"/>
<use data-text="3" xlink:href="#font_5_3" transform="matrix(4.98132,0,0,-4.98132,34.09142,19.055634)" fill="#0000ff"/>
<use data-text="v" xlink:href="#font_9_2" transform="matrix(7.970112,0,0,-7.970112,48.15655,136.54578)"/>
<use data-text="=" xlink:href="#font_10_2" transform="matrix(7.970112,0,0,-7.970112,55.79742,136.54578)"/>
<use data-text="v" xlink:href="#font_11_1" transform="matrix(7.970112,0,0,-7.970112,64.73625,136.54578)"/>
<use data-text="1" xlink:href="#font_2_1" transform="matrix(5.977584,0,0,-5.977584,68.859729,137.65273)"/>
<use data-text="e" xlink:href="#font_9_1" transform="matrix(7.970112,0,0,-7.970112,73.01077,136.54578)"/>
<use data-text="1" xlink:href="#font_2_1" transform="matrix(5.977584,0,0,-5.977584,77.48292,137.65273)"/>
<use data-text="+" xlink:href="#font_10_1" transform="matrix(7.970112,0,0,-7.970112,83.51582,136.54578)"/>
<use data-text="v" xlink:href="#font_11_1" transform="matrix(7.970112,0,0,-7.970112,91.98419,136.54578)"/>
<use data-text="2" xlink:href="#font_2_2" transform="matrix(5.977584,0,0,-5.977584,96.107669,137.65273)"/>
<use data-text="e" xlink:href="#font_9_1" transform="matrix(7.970112,0,0,-7.970112,100.25871,136.54578)"/>
<use data-text="2" xlink:href="#font_2_2" transform="matrix(5.977584,0,0,-5.977584,104.730869,137.65273)"/>
<use data-text="+" xlink:href="#font_10_1" transform="matrix(7.970112,0,0,-7.970112,110.76376,136.54578)"/>
<use data-text="v" xlink:href="#font_11_1" transform="matrix(7.970112,0,0,-7.970112,119.23213,136.54578)"/>
<use data-text="3" xlink:href="#font_2_3" transform="matrix(5.977584,0,0,-5.977584,123.355609,137.65273)"/>
<use data-text="e" xlink:href="#font_9_1" transform="matrix(7.970112,0,0,-7.970112,127.50665,136.54578)"/>
<use data-text="3" xlink:href="#font_2_3" transform="matrix(5.977584,0,0,-5.977584,131.9788,137.65273)"/>
<use data-text="=" xlink:href="#font_10_2" transform="matrix(7.970112,0,0,-7.970112,138.48218,136.54578)"/>
<use data-text="v" xlink:href="#font_11_1" transform="matrix(7.970112,0,0,-7.970112,147.421,136.54578)"/>
<use data-text="&#x2032;" xlink:href="#font_3_1" transform="matrix(5.977584,0,0,-5.977584,151.83045,133.73299)"/>
<use data-text="1" xlink:href="#font_2_1" transform="matrix(5.977584,0,0,-5.977584,151.54448,139.01982)"/>
<use data-text="e" xlink:href="#font_9_1" transform="matrix(7.970112,0,0,-7.970112,155.69553,136.54578)"/>
<use data-text="&#x2032;" xlink:href="#font_3_1" transform="matrix(5.977584,0,0,-5.977584,160.16767,133.73299)"/>
<use data-text="1" xlink:href="#font_2_1" transform="matrix(5.977584,0,0,-5.977584,160.16767,139.01982)"/>
<use data-text="+" xlink:href="#font_10_1" transform="matrix(7.970112,0,0,-7.970112,166.20056,136.54578)"/>
<use data-text="v" xlink:href="#font_11_1" transform="matrix(7.970112,0,0,-7.970112,174.66893,136.54578)"/>
<use data-text="&#x2032;" xlink:href="#font_3_1" transform="matrix(5.977584,0,0,-5.977584,179.07837,133.73299)"/>
<use data-text="2" xlink:href="#font_2_2" transform="matrix(5.977584,0,0,-5.977584,178.7924,139.01982)"/>
<use data-text="e" xlink:href="#font_9_1" transform="matrix(7.970112,0,0,-7.970112,182.94345,136.54578)"/>
<use data-text="&#x2032;" xlink:href="#font_3_1" transform="matrix(5.977584,0,0,-5.977584,187.4156,133.73299)"/>
<use data-text="2" xlink:href="#font_2_2" transform="matrix(5.977584,0,0,-5.977584,187.4156,139.01982)"/>
<use data-text="+" xlink:href="#font_10_1" transform="matrix(7.970112,0,0,-7.970112,193.4485,136.54578)"/>
<use data-text="v" xlink:href="#font_11_1" transform="matrix(7.970112,0,0,-7.970112,201.91687,136.54578)"/>
<use data-text="&#x2032;" xlink:href="#font_3_1" transform="matrix(5.977584,0,0,-5.977584,206.32631,133.73299)"/>
<use data-text="3" xlink:href="#font_2_3" transform="matrix(5.977584,0,0,-5.977584,206.04035,139.01982)"/>
<use data-text="e" xlink:href="#font_9_1" transform="matrix(7.970112,0,0,-7.970112,210.19139,136.54578)"/>
<use data-text="&#x2032;" xlink:href="#font_3_1" transform="matrix(5.977584,0,0,-5.977584,214.66355,133.73299)"/>
<use data-text="3" xlink:href="#font_2_3" transform="matrix(5.977584,0,0,-5.977584,214.66355,139.01982)"/>
</svg>
