<svg xmlns="http://www.w3.org/2000/svg" xmlns:xlink="http://www.w3.org/1999/xlink" xmlns:inkscape="http://www.inkscape.org/namespaces/inkscape" version="1.1" width="410.92" height="250.08" viewBox="0 0 410.92 250.08">
<defs>
<path id="font_1_70" d="M.58699038 0V.04699707H.56999209C.5269928 .04699707 .5239868 .050994874 .5109863 .0670166L.34199525 .2782135 .47200013 .37930299C.48599244 .39031983 .49499513 .3973236 .56199648 .3973236V.44433595C.5349884 .44140626 .5099945 .44140626 .48399354 .44140626L.36898805 .44433595V.3973236C.3919983 .3973999 .394989 .39439393 .40299989 .38639833L.21398926 .23739624V.69433596L.036987306 .6855469V.63853457C.09899902 .63853457 .10598755 .63853457 .10598755 .5995636V.04699707H.036987306V0L.15699768 .0029907227 .27799989 0V.04699707H.20899964V.17388916C.23799134 .19688416 .24598694 .2028656 .2659912 .21685791L.36698915 .09095764C.37599183 .07896423 .3919983 .05899048 .3919983 .055984498 .3919983 .04699707 .37399293 .04699707 .36099244 .04699707V0C.3909912 .0019989014 .47799684 .0029907227 .48298646 .0029907227 .5189972 .0029907227 .5529938 .0019989014 .58699038 0Z"/>
<path id="font_1_50" d="M.49398805 .11706543C.49398805 .13504029 .47499085 .13504029 .46998597 .13504029 .45298768 .13504029 .45098878 .13005066 .44499208 .11405945 .42399598 .066101077 .36698915 .03413391 .3019867 .03413391 .16099549 .03413391 .1599884 .16700745 .1599884 .2179718H.46199037C.48399354 .2179718 .49398805 .2179718 .49398805 .2449646 .49398805 .27598573 .48799134 .34906007 .43798829 .3991089 .40098573 .43511964 .34799195 .453125 .2789917 .453125 .11898804 .453125 .03199768 .35005189 .03199768 .22497559 .03199768 .09107971 .13198853-.005859375 .29299928-.005859375 .45098878-.005859375 .49398805 .10006714 .49398805 .11706543M.39898683 .25097657H.1599884C.1619873 .29000855 .16299439 .3320465 .18399048 .36506654 .20999146 .4051056 .25 .41711427 .2789917 .41711427 .3959961 .41711427 .397995 .28599549 .39898683 .25097657Z"/>
<path id="font_1_105" d="M.38198854 .124176029V.17721558H.33499146V.12619019C.33499146 .058151246 .30299378 .03413391 .2749939 .03413391 .21699524 .03413391 .21699524 .09817505 .21699524 .1211853V.3973236H.36299134V.44433595H.21699524V.6357422H.16999817C.16899109 .53552249 .11999512 .43632508 .020996094 .43333436V.3973236H.102996829V.123184207C.102996829 .01612854 .18998719-.005859375 .26098634-.005859375 .33699037-.005859375 .38198854 .05114746 .38198854 .124176029Z"/>
<path id="font_1_44" d="M.23699951 .366333C.23699951 .40933229 .20199585 .44433595 .15899658 .44433595 .115997318 .44433595 .08099365 .40933229 .08099365 .366333 .08099365 .32333375 .115997318 .28833009 .15899658 .28833009 .20199585 .28833009 .23699951 .32333375 .23699951 .366333M.23699951 .07798767C.23699951 .12098694 .20199585 .1559906 .15899658 .1559906 .115997318 .1559906 .08099365 .12098694 .08099365 .07798767 .08099365 .034988405 .115997318 0 .15899658 0 .20199585 0 .23699951 .034988405 .23699951 .07798767Z"/>
<path id="font_1_112" d="M.5799866 .3973236V.44433595C.5549927 .44232179 .526001 .44132997 .5009918 .44132997L.4099884 .44433595V.3973236C.42900086 .3973236 .45799256 .39431764 .45799256 .38632203 .45799256 .38632203 .45799256 .38432313 .45298768 .37431336L.33699037 .12416077 .20999146 .3973236H.2639923V.44433595L.13999939 .44132997 .025985718 .44433595V.3973236H.08999634L.2649994 .021102906C.2769928-.00390625 .2899933-.00390625 .30299378-.00390625 .31999208-.00390625 .32998658-.00091552737 .33999635 .020095826L.5059967 .37631227C.5119934 .39031983 .5159912 .3973236 .5799866 .3973236Z"/>
<path id="font_1_43" d="M.47799684 .117126468C.47799684 .13113404 .46398927 .13113404 .45399476 .13113404 .43598939 .13113404 .43499757 .12913513 .42999269 .11613464 .4039917 .053131105 .35598756 .03413391 .30499269 .03413391 .1659851 .03413391 .1659851 .18112183 .1659851 .22712708 .1659851 .28312684 .1659851 .41311646 .29499818 .41311646 .32998658 .41311646 .34700013 .41011048 .3600006 .40711976 .34199525 .39111329 .33999635 .3701172 .33999635 .3611145 .33999635 .3171234 .375 .29811097 .4019928 .29811097 .43299867 .29811097 .46499635 .3191223 .46499635 .3611145 .46499635 .44711305 .34899903 .453125 .29100038 .453125 .11199951 .45314027 .037994386 .33813478 .037994386 .22213745 .037994386 .08912659 .13198853-.005859375 .28599549-.005859375 .44799806-.005859375 .47799684 .11013794 .47799684 .117126468Z"/>
<path id="font_1_81" d="M.5419922 .21812439C.5419922 .35212709 .44999696 .453125 .2869873 .453125 .12298584 .453125 .03199768 .35112 .03199768 .21812439 .03199768 .09413147 .11999512-.005859375 .2869873-.005859375 .45498658-.005859375 .5419922 .09512329 .5419922 .21812439M.4139862 .22912598C.4139862 .14213562 .4139862 .03413391 .2869873 .03413391 .1599884 .03413391 .1599884 .14213562 .1599884 .22912598 .1599884 .27412416 .1599884 .32511903 .1769867 .3591156 .19599915 .39611817 .23799134 .41711427 .2869873 .41711427 .32899476 .41711427 .37098695 .40112306 .3929901 .36611939 .4139862 .3321228 .4139862 .27713014 .4139862 .22912598Z"/>
<path id="font_1_96" d="M.44198609 .36819459C.44198609 .42118836 .3880005 .4501953 .33599855 .4501953 .2659912 .4501953 .22599793 .40019227 .20298767 .33718873V.4501953L.036987306 .4423828V.39537049C.09899902 .39537049 .10598755 .39537049 .10598755 .3563385V.04699707H.036987306V0L.16299439 .0029907227C.20098877 .0029907227 .2649994 .0029907227 .30099488 0V.04699707H.21398926V.22218323C.21398926 .29226686 .23899842 .41436769 .33898927 .41436769 .33898927 .41436769 .31999208 .39736939 .31999208 .36834718 .31999208 .32730104 .35198976 .3072815 .3809967 .3072815 .4099884 .3072815 .44198609 .3283081 .44198609 .36834718V.36819459Z"/>
<path id="font_2_3" d="M.1639862 .71299746C.1639862 .7299957 .1639862 .75 .14299011 .75 .12098694 .75 .12098694 .73098757 .12098694 .71299746V-.2130127C.12098694-.23001099 .12098694-.25 .14199829-.25 .1639862-.25 .1639862-.23100281 .1639862-.2130127V.71299746Z"/>
<path id="font_3_2" d="M.49699403 .68333438C.49699403 .6843262 .49699403 .69433596 .48399354 .69433596 .47200013 .69433596 .47099305 .68933108 .46699525 .6733246L.30299378 .01625061C.23098755 .025253296 .18598938 .058258058 .18598938 .12728882 .18598938 .14828491 .18899536 .17829895 .23699951 .30233766 .24499512 .32434083 .25099183 .33935548 .25099183 .35835267 .25099183 .40737916 .21398926 .4423828 .16499329 .4423828 .068984989 .4423828 .0289917 .30033876 .0289917 .28833009 .0289917 .2793274 .035995485 .27633668 .042999269 .27633668 .053985597 .27633668 .054992677 .28233338 .05899048 .29533387 .07998657 .36836244 .11999512 .41737367 .1619873 .41737367 .18199158 .41737367 .18598938 .40437318 .18598938 .3843689 .18598938 .36135865 .1789856 .3403473 .17098999 .31834413 .12199402 .1933136 .115997318 .15930176 .115997318 .1342926 .115997318 .06227112 .16499329 .00024414063 .29599-.008743286L.25099183-.1940918C.25099183-.19508362 .25099183-.20507813 .2639923-.20507813 .27598573-.20507813 .2769928-.2020874 .28199769-.18008423 .29599-.1239624 .31098939-.067855838 .32398988-.0107421879 .3600006-.0107421879 .46398927-.0107421879 .56399539 .11428833 .6119995 .17430115 .6289978 .22431946 .6469879 .31533814 .6519928 .34436036 .6519928 .35935975 .6519928 .3693695 .6519928 .43937684 .61499026 .44337464 .60598757 .44337464 .58099368 .44337464 .5549927 .41638185 .5549927 .39337159 .5549927 .3783722 .56399539 .37036134 .57099917 .36436463 .59799197 .33935548 .6069946 .30734254 .6069946 .28134156 .6069946 .23931885 .57899478 .16229248 .5119934 .09628296 .43299867 .01725769 .36698915 .014251709 .33099366 .014251709L.49699403 .68333438Z"/>
<path id="font_2_2" d="M.27999879 .23197937C.28599549 .24597168 .28599549 .24797058 .28599549 .24996948 .28599549 .25297547 .28599549 .25497438 .27999879 .26898194L.102996829 .72598269C.09599304 .74398806 .08999634 .75 .07798767 .75 .066986087 .75 .056991579 .7409973 .056991579 .72798159 .056991579 .72598269 .056991579 .72398379 .06298828 .70999148L.24099732 .25097657 .06298828-.20903015C.056991579-.22303772 .056991579-.22503662 .056991579-.22703552 .056991579-.24003601 .066986087-.24902344 .07798767-.24902344 .08999634-.24902344 .09599304-.24302674 .102996829-.22503662L.27999879 .23197937Z"/>
<path id="font_4_62" d="M.7509918 0V.032989503H.72898867C.6519928 .032989503 .6499939 .04399109 .6499939 .08097839V.60165408C.6499939 .63861086 .6519928 .6496124 .72898867 .6496124H.7509918V.6826172L.60398867 .6796112 .45700074 .6826172V.6496124H.47898866C.55599978 .6496124 .55799868 .63861086 .55799868 .60165408V.3718567H.23699951V.60165408C.23699951 .63861086 .23899842 .6496124 .31599427 .6496124H.33799745V.6826172L.19099427 .6796112 .04399109 .6826172V.6496124H.06599426C.14299011 .6496124 .14498902 .63861086 .14498902 .60165408V.08097839C.14498902 .04399109 .14299011 .032989503 .06599426 .032989503H.04399109V0L.19099427 .0029907227 .33799745 0V.032989503H.31599427C.23899842 .032989503 .23699951 .04399109 .23699951 .08097839V.3388672H.55799868V.08097839C.55799868 .04399109 .55599978 .032989503 .47898866 .032989503H.45700074V0L.60398867 .0029907227 .7509918 0Z"/>
<path id="font_4_66" d="M.2599945 .0001373291V.03314209C.19499207 .03314209 .19099427 .038146974 .19099427 .07714844V.44140626L.04499817 .43045045V.39746095C.10899353 .39746095 .117996219 .39144898 .117996219 .34239198V.07814026C.117996219 .03314209 .10598755 .03314209 .041992189 .03314209V0C.08099365 .0029907227 .13699341 .0029907227 .1519928 .0029907227 .16499329 .0029907227 .22499085 .0029907227 .2599945 0V.0001373291M.20298767 .6021881C.20298767 .6351929 .1769867 .6582031 .147995 .6582031 .11898804 .6582031 .09298706 .6351929 .09298706 .6021881 .09298706 .5731964 .115997318 .54719546 .147995 .54719546 .1789856 .54719546 .20298767 .5731964 .20298767 .6021881Z"/>
<path id="font_4_72" d="M.2669983 0V.032989503C.20298767 .032989503 .19099427 .032989503 .19099427 .07801819V.69433596L.041992189 .6826172V.6496124C.10998535 .6496124 .117996219 .64260867 .117996219 .5936432V.07795715C.117996219 .032989503 .10598755 .032989503 .041992189 .032989503V0C.08099365 .0029907227 .13699341 .0029907227 .1539917 .0029907227 .17399597 .0029907227 .22799683 .0029907227 .2669983 0Z"/>
<path id="font_4_35" d="M.55400088 .21650696C.55400088 .3425293 .45098878 .44140626 .32899476 .44140626 .25 .44140626 .20098877 .39845277 .18399048 .38053895V.69433596L.034988405 .68333438V.6503296C.102996829 .6503296 .11099243 .6433258 .11099243 .5943451V.00048828127H.14199829L.17799378 .0625C.20199585 .02822876 .24899292-.009765625 .31698609-.009765625 .44400025-.009765625 .55400088 .08828735 .55400088 .21640015V.21650696M.46499635 .21740723C.46499635 .19438172 .46499635 .12332153 .42900086 .07627869 .3929901 .031234742 .34599305 .018234253 .31298829 .018234253 .2649994 .018234253 .22499085 .04324341 .19898987 .08229065 .18699646 .1013031 .18699646 .10231018 .18699646 .12132263V.3164978C.18699646 .33551026 .18699646 .3375244 .20199585 .3555298 .23098755 .39248658 .27799989 .4133911 .32299806 .4133911 .375 .4133911 .4139862 .38252259 .43399049 .35253907 .45098878 .3255005 .46499635 .29048158 .46499635 .21740723Z"/>
<path id="font_4_50" d="M.44099427 .12036133C.44099427 .12435913 .43798829 .13438416 .4249878 .13438416 .4139862 .13438416 .4119873 .12736511 .4099884 .12136841 .37399293 .024230957 .28799439 .021224976 .269989 .021224976 .22499085 .021224976 .1789856 .042251588 .14898682 .08831787 .11898804 .13438416 .11898804 .19847107 .11898804 .22851563H.41299439C.43499757 .22851563 .44099427 .22851563 .44099427 .25151063 .44099427 .34039308 .3919983 .44628907 .25099183 .44628907 .1269989 .44628907 .02999878 .3433838 .02999878 .21949768 .02999878 .09031677 .13798523-.009765625 .2639923-.009765625 .3909912-.009765625 .44099427 .097335819 .44099427 .12036133M.37298585 .25450135H.11999512C.1289978 .39431764 .21398926 .41827394 .25099183 .41827394 .36799623 .41827394 .37199403 .27748109 .37298585 .25450135Z"/>
<path id="font_4_96" d="M.38398744 .3784027C.38398744 .4133911 .35198976 .44140626 .30799867 .44140626 .24299622 .44140626 .19898987 .39239503 .17799378 .33639527H.1769867V.44140626L.034988405 .43045045V.39746095C.102996829 .39746095 .11099243 .3904419 .11099243 .3413849V.078048709C.11099243 .032989503 .09899902 .032989503 .034988405 .032989503V0C.07398987 .0029907227 .1289978 .0029907227 .15299988 .0029907227 .21199036 .0029907227 .21398926 .0029907227 .2789917 0V.032989503H.25898744C.18598938 .032989503 .18399048 .044006349 .18399048 .08004761V.22824097C.18399048 .30332948 .21499634 .41145326 .31098939 .41345216 .30499269 .40899659 .29499818 .40098573 .29499818 .37799073 .29499818 .34700013 .31900025 .33299256 .33898927 .33299256 .36299134 .33299256 .38398744 .34899903 .38398744 .37799073V.3784027Z"/>
<path id="font_4_105" d="M.35299684 .1250763V.1809845H.32199098V.12705994C.32199098 .058166505 .29100038 .021224976 .25299073 .021224976 .18598938 .021224976 .18598938 .10710144 .18598938 .12307739V.3976593H.33499146V.43066407H.18598938V.6142578H.15499878C.1539917 .52345278 .11299133 .4286499 .019989014 .42565919V.3976593H.10998535V.1250763C.10998535 .008224487 .19999695-.009765625 .24598694-.009765625 .31298829-.010009766 .35299684 .049987794 .35299684 .125V.1250763Z"/>
<path id="font_4_98" d="M.3829956 .12924195C.3829956 .1772461 .35398866 .24725342 .23498535 .2692566 .22698975 .2712555 .17098999 .28126527 .16699219 .28126527 .13598633 .28826905 .08898926 .30926515 .08898926 .34927369 .08898926 .37927247 .11099243 .4212799 .20599365 .4212799 .31799317 .4212799 .32299806 .33926393 .32499696 .31126405 .32598878 .30326844 .33299256 .30026246 .33999635 .30026246 .35598756 .30026246 .35598756 .30726625 .35598756 .32626344V.4202881C.35598756 .4362793 .35598756 .44628907 .34298707 .44628907 .33799745 .44628907 .33499146 .44628907 .31900025 .4302826 .31698609 .4292755 .30799867 .4202881 .30499269 .4202881 .30499269 .4202881 .3019867 .4202881 .29599 .4242859 .27999879 .43528749 .25099183 .44628907 .20599365 .44628907 .06599426 .44628907 .034988405 .37026979 .034988405 .32226563 .034988405 .27226258 .07199097 .24325562 .07499695 .24024964 .114990238 .21025086 .13798523 .20625305 .20498657 .19424439 .2519989 .18525696 .32899476 .17124939 .32899476 .10324097 .32899476 .0642395 .30299378 .018234253 .21099854 .018234253 .10998535 .018234253 .08099365 .09623718 .067993167 .14924622 .06399536 .1622467 .06298828 .16725159 .050994874 .16725159 .034988405 .16725159 .034988405 .15924073 .034988405 .14024353V.016220093C.034988405 .00022888184 .034988405-.009765625 .04798889-.009765625 .053985597-.009765625 .054992677-.008773804 .07299805 .010223389 .07798767 .0152282719 .08898926 .02822876 .09399414 .033233644 .13899231-.0077667238 .18598938-.009765625 .21199036-.009765625 .33898927-.009765625 .3829956 .06323242 .3829956 .12924195Z"/>
<path id="font_4_84" d="M.55400088 .21640015C.55400088 .34140016 .45298768 .44140626 .33198548 .44140626 .29299928 .44140626 .23498535 .43139649 .18399048 .37939454V.44140626L.034988405 .43045045V.39746095C.10598755 .39746095 .11099243 .39144898 .11099243 .34947206V-.1159668C.11099243-.16113281 .09899902-.16113281 .034988405-.16113281V-.19413758C.07798767-.19114685 .12199402-.19114685 .14898682-.19114685 .17799378-.19114685 .21998596-.19114685 .2630005-.19413758V-.16113281C.19898987-.16113281 .18699646-.16113281 .18699646-.1159668V.049545289C.23399353-.0017700195 .2849884-.009765625 .31698609-.009765625 .44400025-.009765625 .55400088 .088256839 .55400088 .2163086V.21640015M.46499635 .2163086C.46499635 .101257327 .3929901 .018234253 .31199647 .018234253 .2769928 .018234253 .23098755 .033233644 .19898987 .08325195 .18699646 .1002655 .18699646 .101257327 .18699646 .120269779V.33335877C.20999146 .37338258 .2599945 .4104004 .32299806 .4104004 .3999939 .4104004 .46499635 .32536317 .46499635 .2163086Z"/>
<path id="font_4_28" d="M.5139923 .09020996V.14530945H.48298646V.09020996C.48298646 .0491333 .46798707 .033111574 .44699098 .033111574 .4099884 .033111574 .4099884 .079193118 .4099884 .09020996V.29856874C.4099884 .39653016 .31498719 .44628907 .22399903 .44628907 .14099121 .44628907 .066986087 .4143219 .066986087 .34857179 .066986087 .318573 .08799744 .30056764 .11399841 .30056764 .14199829 .30056764 .16099549 .3205719 .16099549 .3475647 .16099549 .37156678 .1459961 .38856507 .12399292 .3935547 .16099549 .41827394 .21499634 .41827394 .22200012 .41827394 .27799989 .41827394 .33399964 .37957765 .33399964 .29756166V.26651C.27598573 .26350404 .20899964 .26049806 .13899231 .23144531 .050994874 .1933899 .033996583 .13528443 .033996583 .10223389 .033996583 .016220093 .1349945-.009765625 .20399475-.009765625 .2769928-.009765625 .32199098 .031219483 .34399415 .07122803 .34899903 .033111574 .375-.0048828127 .4189911-.0048828127 .42900086-.0048828127 .5139923-.00088500979 .5139923 .09010315V.09020996M.33399964 .14111328C.33399964 .04421997 .2519989 .018234253 .21199036 .018234253 .1599884 .018234253 .115997318 .053222658 .115997318 .10122681 .115997318 .16722107 .17799378 .23522949 .33399964 .24023438V.14111328Z"/>
<path id="font_4_43" d="M.44099427 .12031555C.44099427 .13232422 .42799378 .13232422 .4249878 .13232422 .41799928 .13232422 .41299439 .13131714 .4099884 .12130737 .40299989 .10029602 .375 .021224976 .2749939 .021224976 .21299744 .021224976 .12399292 .0692749 .12399292 .21739197 .12399292 .3614807 .19799805 .4152832 .2709961 .4152832 .27999879 .4152832 .33299256 .4152832 .36799623 .39746095 .33999635 .3884735 .33599855 .36547853 .33599855 .35346986 .33599855 .32647706 .35499574 .30647279 .3829956 .30647279 .40899659 .30625917 .42999269 .32426454 .42999269 .35427857 .42999269 .41627503 .3619995 .44628907 .2679901 .44628907 .1289978 .44628907 .034988405 .3352661 .034988405 .21624756 .034988405 .0892334 .13899231-.009765625 .2649994-.009765625 .4059906-.009765625 .44099427 .10824585 .44099427 .12023926V.12031555Z"/>
<path id="font_5_1" d="M.6409912 .3356781H.35499574C.37998963 .43167115 .3849945 .45565797 .3889923 .47964479 .4039917 .55662539 .4079895 .61761477 .4079895 .62161257 .4079895 .64660647 .3929901 .6826172 .33699037 .6826172 .1329956 .6826172 .022994996 .51364138 .022994996 .49365235 .022994996 .48765565 .026992798 .48565675 .032989503 .48565675 .04699707 .48565675 .09098816 .50164797 .11099243 .5336304 .13798523 .57962039 .16499329 .6246033 .2659912 .6246033 .31298829 .6246033 .31900025 .59262087 .31900025 .57762148 .31900025 .57263186 .31498719 .51564028 .3039856 .45666505 .29499818 .40766908 .2899933 .38967896 .2769928 .3356781H.23498535C.20999146 .33268739 .16099549 .30273438 .16099549 .28475953 .16099549 .277771 .16899109 .277771 .18598938 .277771H.26098634C.23399353 .1769104 .19499207 .0680542 .1599884-.019851685 .1559906-.02986145 .1559906-.03186035 .1559906-.033859254 .1559906-.035858156 .15699768-.040863038 .16699219-.040863038 .1789856-.040863038 .20799256-.02885437 .22799683-.012863159 .24099732-.0008544922 .24198914 .0011444092 .25898744 .0440979 .2869873 .11898804 .31599427 .2048645 .33799745 .277771H.5799866C.59098818 .277771 .6100006 .277771 .6279907 .28775025 .6159973 .24580384 .6009979 .18688965 .59298709 .1409607 .57899478 .05607605 .57699587 .012130737 .57699587 .010147095 .57699587-.022857666 .598999-.049865724 .6409912-.049865724 .7839966-.049865724 .85899356 .036102296 .85899356 .0680542 .85899356 .0700531 .8580017 .076049808 .848999 .076049808 .83200076 .076049808 .7859955 .05607605 .7719879 .028121949 .769989 .025115967 .7669983 .018127442 .7659912 .015136719 .7350006 .008148193 .73298647 .008148193 .71199038 .008148193 .68099978 .008148193 .66600039 .02911377 .66600039 .05407715 .66600039 .117996219 .7029877 .34268189 .82398989 .65260317 .83099368 .6706085 .83099368 .6726074 .83099368 .6746063 .83099368 .6826172 .82299807 .6826172 .82099917 .6826172 .80400088 .6826172 .772995 .6666107 .7539978 .6496124 .746994 .64260867 .74398806 .63560488 .73999026 .62561038 .72299197 .58262637 .70098879 .52064517 .69999697 .51763918L.6409912 .3356781Z"/>
<path id="font_1_35" d="M.59999087 .22319031C.59999087 .3561859 .5059967 .4501953 .36099244 .4501953 .28799439 .4501953 .23799134 .42118836 .21398926 .40118409V.69433596L.036987306 .6863251V.639328C.09899902 .639328 .10598755 .639328 .10598755 .600296V.00018310547H.15299988C.16899109 .019180298 .18598938 .03718567 .20199585 .05618286 .20999146 .04814148 .25898744-.005859375 .34799195-.005859375 .49699403-.005859375 .59999087 .08413696 .59999087 .22315979V.22319031M.47200013 .22315979C.47200013 .17614746 .47200013 .12113953 .44599916 .08213806 .4169922 .041137697 .37098695 .030136109 .33898927 .030136109 .2689972 .030136109 .22999573 .08413696 .21998596 .09913635V.35017396C.24699402 .3851776 .29499818 .41418458 .34999085 .41418458 .47200013 .41418458 .47200013 .2931671 .47200013 .22315979Z"/>
<path id="font_1_28" d="M.5529938 .023986817C.5529938 .04699707 .5399933 .04699707 .5269928 .04699707 .46598817 .04798889 .46598817 .06100464 .46598817 .083999637V.29907228C.46598817 .3881073 .394989 .453125 .24598694 .453125 .18899536 .453125 .066986087 .44911195 .066986087 .36109925 .066986087 .3170929 .101989749 .29808045 .1289978 .29808045 .1599884 .29808045 .19198609 .3190918 .19198609 .36109925 .19198609 .39111329 .17298889 .40811158 .16999817 .41011048 .19799805 .41612245 .22999573 .41711427 .24198914 .41711427 .31698609 .41711427 .35198976 .3751068 .35198976 .29907228V.26506043C.2809906 .2620697 .026992798 .25306703 .026992798 .10801697 .026992798 .012130737 .15098572-.005859375 .21998596-.005859375 .2999878-.005859375 .34700013 .035125734 .36898805 .07713318 .36898805 .04598999 .36898805 0 .47299195 0H.5209961C.54100039 0 .5529938 0 .5529938 .023986817M.35198976 .13899231C.35198976 .043151857 .2599945 .030136109 .23498535 .030136109 .18399048 .030136109 .14399719 .06517029 .14399719 .10922241 .14399719 .21734619 .3019867 .23136902 .35198976 .234375V.13899231Z"/>
<path id="font_1_55" d="M.43699647 .6132202C.43699647 .65519717 .40098573 .7001953 .32299806 .7001953 .22499085 .7001953 .116989139 .65818789 .116989139 .54525759V.44433595H.041992189V.3973236H.116989139V.04699707H.04798889V0L.17399597 .0029907227C.21199036 .0029907227 .27598573 .0029907227 .31199647 0V.04699707H.22499085V.3973236H.33999635V.44433595H.21899414V.54525759C.21899414 .65519717 .29499818 .6641846 .31999208 .6641846 .32499696 .6641846 .32998658 .6641846 .33699037 .66218569 .32199098 .65119937 .31399537 .63220217 .31399537 .6132202 .31399537 .57025149 .34899903 .5512543 .375 .5512543 .40499879 .5512543 .43699647 .57225039 .43699647 .6132202Z"/>
<path id="font_1_109" d="M.61499026 .0001373291V.0471344C.5529938 .0471344 .54599 .0471344 .54599 .086135867V.4501953L.36299134 .44218446V.39518739C.4249878 .39518739 .43199159 .39518739 .43199159 .3561859V.16514588C.43199159 .08314514 .3809967 .030136109 .30799867 .030136109 .23098755 .030136109 .22799683 .055130006 .22799683 .10914612V.4501953L.04499817 .44218446V.39518739C.10699463 .39518739 .11399841 .39518739 .11399841 .3561859V.12313843C.11399841 .01612854 .19499207-.005859375 .2939911-.005859375 .31999208-.005859375 .3919983-.005859375 .43798829 .072143558V-.005859375L.61499026 .0001373291Z"/>
<path id="font_1_77" d="M.61499026 0V.04699707H.54599V.30613709C.54599 .41119386 .49198915 .4501953 .3919983 .4501953 .29599 .4501953 .24299622 .39318849 .21699524 .3421631V.4501953L.04499817 .4423828V.39537049C.10699463 .39537049 .11399841 .39537049 .11399841 .3563385V.04699707H.04499817V0L.17098999 .0029907227 .29699708 0V.04699707H.22799683V.2562256C.22799683 .3653412 .31399537 .41436769 .3769989 .41436769 .41099549 .41436769 .43199159 .39337159 .43199159 .31729127V.04699707H.36299134V0L.4889984 .0029907227 .61499026 0Z"/>
<path id="font_1_66" d="M.28599549 0V.04699707H.22399903V.4501953L.049987794 .4423828V.39537049C.10899353 .39537049 .115997318 .39537049 .115997318 .3563385V.04699707H.04699707V0L.16899109 .0029907227 .28599549 0M.23799134 .60728457C.23799134 .6502838 .20298767 .6852875 .1599884 .6852875 .116989139 .6852875 .08198547 .6502838 .08198547 .60728457 .08198547 .5642853 .116989139 .5292969 .1599884 .5292969 .20298767 .5292969 .23799134 .5642853 .23799134 .60728457Z"/>
<path id="font_1_72" d="M.29299928 0V.04699707H.22399903V.69433596L.04699707 .6855469V.63853457C.10899353 .63853457 .115997318 .63853457 .115997318 .5995636V.04699707H.04699707V0L.16999817 .0029907227 .29299928 0Z"/>
<path id="font_6_3" d="M.32798768 .71199038C.33299256 .72299197 .33299256 .72499087 .33299256 .7299957 .33299256 .7409973 .32398988 .75 .31298829 .75 .3039856 .75 .29699708 .7449951 .2899933 .72698977L.114990238 .2679901C.11299133 .2619934 .10998535 .2559967 .10998535 .25 .10998535 .24699402 .10998535 .24499512 .114990238 .23298645L.2899933-.22601319C.2939911-.23701477 .29899598-.25 .31298829-.25 .32398988-.25 .33299256-.24101258 .33299256-.23001099 .33299256-.227005 .33299256-.2250061 .32798768-.21400452L.15098572 .25 .32798768 .71199038Z"/>
<path id="font_7_1" d="M.42999269 .68533328C.42999269 .69433596 .4229889 .69433596 .41999818 .69433596 .41099549 .69433596 .4099884 .6923218 .4059906 .6753235L.35198976 .4603424C.34899903 .44735719 .34799195 .4463501 .34700013 .44535829 .34599305 .44335938 .33898927 .4423523 .33699037 .4423523 .17298889 .42834474 .04699707 .2933197 .04699707 .16828919 .04699707 .060256959 .12998963-.0057525637 .23399353-.011749268 .22599793-.042816163 .21899414-.07489014 .21099854-.10594177 .19699097-.15905762 .18899536-.19210816 .18899536-.19610596 .18899536-.19810486 .18899536-.20410156 .19898987-.20410156 .20199585-.20410156 .20599365-.20410156 .20799256-.20010376 .20999146-.19810486 .21598816-.17408753 .21998596-.16105652L.25698854-.011749268C.42799378-.002746582 .55799868 .13728333 .55799868 .26330567 .55799868 .3643341 .48199464 .4363556 .37098695 .44335938L.42999269 .68533328M.36499024 .4233551C.43099977 .41934205 .49699403 .38233949 .49699403 .28431703 .49699403 .17129517 .41799928 .021255494 .2619934 .009246826L.36499024 .4233551M.23899842 .008255005C.18998719 .011245728 .10798645 .037261964 .10798645 .14727783 .10798645 .27331544 .19898987 .41334535 .34298707 .42234803L.23899842 .008255005Z"/>
<path id="font_6_5" d="M.15899658 .71398928C.15899658 .7319946 .15899658 .75 .13899231 .75 .11898804 .75 .11898804 .7319946 .11898804 .71398928V-.21400452C.11898804-.23200989 .11898804-.25 .13899231-.25 .15899658-.25 .15899658-.23200989 .15899658-.21400452V.71398928Z"/>
<path id="font_6_1" d="M.44400025 .24998474C.44400025 .35688783 .35499574 .44381715 .25 .44381715 .14199829 .44381715 .054992677 .35488893 .054992677 .24998474 .054992677 .14407349 .14199829 .056137086 .25 .056137086 .35499574 .056137086 .44400025 .14308167 .44400025 .24998474Z"/>
<path id="font_2_1" d="M.5609894 .22944641C.5779877 .22944641 .59799197 .22944641 .59799197 .25045777 .59799197 .27246095 .57899478 .27246095 .5609894 .27246095H.12998963C.13999939 .3961029 .24798584 .50878909 .40299989 .50878909H.5609894C.5779877 .50878909 .59799197 .50878909 .59799197 .52978518 .59799197 .55178835 .57899478 .55178835 .5609894 .55178835H.3999939C.22399903 .55178835 .085998538 .41404725 .085998538 .25144959 .085998538 .08428955 .22599793-.050827028 .3999939-.050827028H.5609894C.5779877-.050827028 .59799197-.050827028 .59799197-.029815674 .59799197-.0078125 .57899478-.0078125 .5609894-.0078125H.40299989C.24699402-.0078125 .13999939 .10531616 .12998963 .22944641H.5609894Z"/>
<path id="font_8_1" d="M.6569977 .6710968C.6569977 .6880951 .6569977 .70410159 .6399994 .70410159 .6389923 .70410159 .6239929 .70410159 .621994 .6860962 .61898806 .6580963 .59599307 .6580963 .58898928 .6580963 .55400088 .6580963 .5189972 .6730957 .49899293 .6820984 .44799806 .70410159 .40499879 .70410159 .3889923 .70410159 .22200012 .70410159 .036987306 .59913638 .036987306 .34327699 .036987306 .088409427 .21798706-.018554688 .3909912-.018554688 .44400025-.018554688 .5149994-.0075683596 .58799746 .03643799 .6339874 .06541443 .68499758 .11538696 .68499758 .12937927 .68499758 .14337158 .66999819 .14936829 .6639862 .14936829 .6569977 .14936829 .6529999 .14637757 .6429901 .13537598 .58499148 .06941223 .49598695 .029434205 .40699769 .029434205 .2519989 .029434205 .21299744 .18635559 .21299744 .34127809 .21299744 .53816226 .2849884 .6690979 .3919983 .6690979 .46699525 .6690979 .58699038 .5961304 .62098696 .4901886 .6239929 .48120118 .6269989 .47120667 .6399994 .47120667 .6569977 .47120667 .6569977 .48719789 .6569977 .5041809V.6710968M.621994 .56814578C.6100006 .58514407 .5970001 .5981293 .57199099 .624115 .57699587 .62312319 .58499148 .62312319 .58999636 .62312319 .6009979 .62312319 .6139984 .6251221 .621994 .6301117V.56814578M.2669983 .6461029C.24398804 .62312319 .17799378 .5371704 .17799378 .34127809 .17799378 .24232483 .19299317 .104400638 .2829895 .032440187 .11898804 .08540344 .07199097 .22033692 .07199097 .3422699 .07199097 .5261688 .17298889 .61512759 .2669983 .64711V.6461029Z"/>
<path id="font_4_70" d="M.5419922 0V.032989503C.5 .032989503 .48199464 .036987306 .44599916 .083984378L.30099488 .27194215 .38598634 .33992005C.45199586 .3917389 .49398805 .39666749 .5189972 .3976593V.43066407C.49499513 .42765809 .48098756 .42765809 .43998719 .42765809 .3909912 .42765809 .3769989 .4286499 .33299256 .43066407V.3976593C.35198976 .39666749 .35598756 .38383485 .35598756 .3779297 .35598756 .35691834 .33599855 .33992005 .32798768 .33392335L.18399048 .21794129V.69433596L.034988405 .6826172V.6496124C.102996829 .6496124 .11099243 .64260867 .11099243 .5936432V.07795715C.11099243 .032989503 .09899902 .032989503 .034988405 .032989503V0C.07398987 .0029907227 .12799073 .0029907227 .14498902 .0029907227 .16499329 .0029907227 .21699524 .0029907227 .2559967 0V.032989503C.19198609 .032989503 .17999268 .032989503 .17999268 .07795715V.17489624L.24798584 .22886658C.25099183 .22886658 .2769928 .19389344 .29299928 .17489624 .30799867 .1539154 .32398988 .13392639 .33999635 .11393738 .35398866 .093948367 .375 .067977908 .375 .052978517 .375 .035995485 .35598756 .032989503 .34399415 .032989503V0C.3869934 .0029907227 .43199159 .0029907227 .44898988 .0029907227 .4869995 .0029907227 .5069885 .0029907227 .5419922 0Z"/>
<path id="font_4_45" d="M.21499634 .0039978029C.21499634 .05899048 .19499207 .11099243 .14698792 .11099243 .11399841 .11099243 .09199524 .084991458 .09199524 .055999757 .09199524 .025985718 .11299133 0 .147995 0 .16999817 0 .18399048 .011993408 .18699646 .01499939 .18699646-.015029907 .18699646-.09718323 .11099243-.16830445 .10798645-.17131043 .10499573-.17330933 .10499573-.17932129 .10499573-.18833924 .11399841-.19433594 .11898804-.19433594 .13198853-.19433594 .21499634-.11621094 .21499634 .0039978029Z"/>
<path id="font_4_109" d="M.56199648 .00022888184V.033233644C.49398805 .033233644 .48599244 .040237428 .48599244 .08924866V.44140626L.33399964 .43040467V.3973999C.4019928 .3973999 .4099884 .39039613 .4099884 .34136964V.16726685C.4099884 .08125305 .35798646 .018234253 .2829895 .018234253 .19699097 .018234253 .19299317 .06123352 .19299317 .11126709V.44140626L.040985109 .43040467V.3973999C.116989139 .3973999 .116989139 .39439393 .116989139 .30534364V.15527344C.116989139 .08325195 .116989139-.009765625 .2769928-.009765625 .37098695-.009765625 .40699769 .0622406 .4119873 .071243289H.41299439V-.009765625L.56199648 .00022888184Z"/>
<path id="font_4_77" d="M.56199648 0V.032989503C.49798585 .032989503 .48599244 .032989503 .48599244 .07803345V.3032837C.48599244 .38737489 .44799806 .44140626 .34298707 .44140626 .24398804 .44140626 .19898987 .36935426 .18699646 .34532167H.18598938V.44140626L.040985109 .43045045V.39746095C.10899353 .39746095 .116989139 .3904419 .116989139 .3413849V.078048709C.116989139 .032989503 .10499573 .032989503 .040985109 .032989503V0C.083999637 .0029907227 .12799073 .0029907227 .15499878 .0029907227 .18399048 .0029907227 .22599793 .0029907227 .2689972 0V.032989503C.20498657 .032989503 .19299317 .032989503 .19299317 .078048709V.25927735C.19299317 .36434938 .272995 .4133911 .33399964 .4133911 .394989 .4133911 .4099884 .37036134 .4099884 .3072815V.07803345C.4099884 .032989503 .397995 .032989503 .33399964 .032989503V0C.3769989 .0029907227 .42099 .0029907227 .44799806 .0029907227 .47698976 .0029907227 .5189972 .0029907227 .56199648 0Z"/>
<path id="font_4_75" d="M.8569946 0V.032989503C.79299929 .032989503 .7809906 .032989503 .7809906 .07803345V.3032837C.7809906 .3843689 .74598696 .44140626 .6369934 .44140626 .54499819 .44140626 .49899293 .37835694 .48298646 .34933473 .46499635 .42140199 .4079895 .44140626 .34298707 .44140626 .24598694 .44140626 .19999695 .37236024 .18699646 .34532167H.18598938V.44140626L.040985109 .43045045V.39746095C.10899353 .39746095 .116989139 .3904419 .116989139 .3413849V.078048709C.116989139 .032989503 .10499573 .032989503 .040985109 .032989503V0C.083999637 .0029907227 .12799073 .0029907227 .15499878 .0029907227 .18399048 .0029907227 .22599793 .0029907227 .2689972 0V.032989503C.20498657 .032989503 .19299317 .032989503 .19299317 .078048709V.25927735C.19299317 .36434938 .27198792 .4133911 .33499146 .4133911 .3999939 .4133911 .41099549 .36235047 .41099549 .3072815V.07803345C.41099549 .032989503 .39898683 .032989503 .33499146 .032989503V0C.37799073 .0029907227 .42199708 .0029907227 .44898988 .0029907227 .47799684 .0029907227 .519989 .0029907227 .5629883 0V.032989503C.49899293 .032989503 .4869995 .032989503 .4869995 .07803345V.25923158C.4869995 .36434938 .56599429 .4133911 .6289978 .4133911 .69400027 .4133911 .7049866 .36235047 .7049866 .3072815V.07803345C.7049866 .032989503 .69299319 .032989503 .6289978 .032989503V0C.6719971 .0029907227 .71598818 .0029907227 .7429962 .0029907227 .7719879 .0029907227 .81399539 .0029907227 .8569946 0Z"/>
<path id="font_1_95" d="M.8580017 .09487915C.8580017 .11682129 .84399417 .11682129 .83399966 .11682129 .8129883 .11682129 .81199648 .1068573 .8109894 .09388733 .80599978 .04699707 .7769928 .024993897 .746994 .024993897 .68699648 .024993897 .6779938 .09587097 .6729889 .13778687 .67099 .14875794 .6629944 .21759033 .6619873 .22257996 .647995 .29241944 .59298709 .323349 .5499878 .3393402 .66600039 .36935426 .71699526 .43440248 .71699526 .5004425 .71699526 .6015167 .6069946 .6855469 .4189911 .6855469H.038986207V.63853457H.14698792V.04699707H.038986207V0C.07499695 .0029907227 .17298889 .0029907227 .21499634 .0029907227 .25698854 .0029907227 .35499574 .0029907227 .3909912 0V.04699707H.2829895V.32434083H.3999939C.4139862 .32434083 .45799256 .32434083 .4889984 .29042054 .5209961 .25550843 .5209961 .23654175 .5209961 .16371155 .5209961 .09786987 .5209961 .048980714 .59098818 .01499939 .6349945-.007003784 .69699099-.011001587 .73799136-.011001587 .8450012-.011001587 .8580017 .07891846 .8580017 .09487915M.56399539 .49943543C.56399539 .44340516 .56399539 .36035157 .39898683 .36035157H.2829895V.63853457H.40098573C.56199648 .63853457 .56399539 .56048586 .56399539 .49943543Z"/>
<path id="font_1_98" d="M.4149933 .14012146C.4149933 .18312073 .394989 .21812439 .3600006 .24612427 .32099916 .27511598 .2889862 .28112794 .21099854 .29412843 .17399597 .30111695 .10899353 .31211854 .10899353 .3591156 .10899353 .42111207 .20199585 .42111207 .22099304 .42111207 .29599 .42111207 .33399964 .39212037 .33898927 .33711244 .33999635 .32211305 .34098817 .3171234 .3619995 .3171234 .38598634 .3171234 .38598634 .32211305 .38598634 .3451233V.42510987C.38598634 .4441223 .38598634 .453125 .36799623 .453125 .3639984 .453125 .3619995 .453125 .32299806 .43411256 .29699708 .44711305 .2619934 .453125 .22200012 .453125 .19198609 .453125 .037994386 .453125 .037994386 .32211305 .037994386 .28211976 .057998659 .25512696 .07798767 .23812866 .117996219 .203125 .1559906 .1971283 .23298645 .18312073 .2689972 .17712403 .34399415 .16412354 .34399415 .10513306 .34399415 .030136109 .2519989 .030136109 .22999573 .030136109 .12399292 .030136109 .09799194 .103134158 .085998538 .14613343 .08099365 .16012573 .07598877 .16012573 .06199646 .16012573 .037994386 .16012573 .037994386 .15412903 .037994386 .13113404V.022140503C.037994386 .0031280518 .037994386-.005859375 .055999757-.005859375 .06298828-.005859375 .06498718-.005859375 .085998538 .009140015L.11199951 .026138306C.1579895-.005859375 .20999146-.005859375 .22999573-.005859375 .26098634-.005859375 .4149933-.005859375 .4149933 .14013672V.14012146Z"/>
<path id="font_1_120" d="M.46199037 .20213318H.4149933C.4059906 .1010437 .3899994 .039993287 .2579956 .039993287H.17199707L.44898988 .4013214C.45700074 .412323 .45899964 .4143219 .45899964 .42332459 .45899964 .44433595 .44499208 .44433595 .4269867 .44433595H.05999756L.04798889 .26919557H.09498596C.100997928 .3722992 .13198853 .4083252 .23498535 .4083252H.31999208L.040985109 .04399109C.03199768 .032989503 .03199768 .0309906 .03199768 .021987915 .03199768 0 .04499817 0 .06399536 0H.44400025L.46199037 .20213318Z"/>
<path id="font_1_84" d="M.59999087 .22319031C.59999087 .3561859 .5089874 .4501953 .36499024 .4501953 .2899933 .4501953 .23699951 .41918946 .21398926 .40118409V.4501953L.036987306 .4423828V.39537049C.09899902 .39537049 .10598755 .39537049 .10598755 .3573761V-.14648438H.036987306V-.1934967L.16299439-.19049073 .2889862-.1934967V-.14648438H.21998596V.03945923C.2630005 .004135132 .30699159-.005859375 .34799195-.005859375 .49798585-.005859375 .59999087 .08413696 .59999087 .22312927V.22319031M.47200013 .22312927C.47200013 .08213806 .4019928 .030136109 .33699037 .030136109 .32299806 .030136109 .27598573 .030136109 .23098755 .08413696 .21998596 .09713745 .21998596 .09812927 .21998596 .117126468V.32913209C.21998596 .34814454 .22099304 .3491516 .23498535 .36314393 .2749939 .4041443 .32699586 .41015626 .34899903 .41015626 .41600038 .41015626 .47200013 .3491516 .47200013 .22314453V.22312927Z"/>
<path id="font_1_59" d="M.55799868 .3970642C.55799868 .42007447 .54100039 .45507813 .49499513 .45507813 .47999574 .45507813 .43299867 .45207215 .3889923 .41706849 .37098695 .42918397 .32899476 .4501953 .25498963 .4501953 .11099243 .4501953 .055999757 .37243653 .055999757 .3024292 .055999757 .26127626 .07598877 .22012329 .10798645 .19703675 .07998657 .16191101 .07398987 .12878418 .07398987 .10771179 .07398987 .0927124 .07798767 .04371643 .117996219 .01171875 .10499573 .008712769 .03199768-.012252808 .03199768-.075164798 .03199768-.12609864 .08699036-.2010498 .2869873-.2010498 .46398927-.2010498 .5419922-.14207459 .5419922-.07217407 .5419922-.04222107 .5339966 .020706177 .46699525 .054718019 .41099549 .08300781 .35099793 .08300781 .25498963 .08300781 .22898865 .08300781 .18299866 .08300781 .17799378 .083984378 .13398743 .0909729 .12298584 .12898255 .12298584 .14697266 .12298584 .15698242 .1269989 .17198181 .1329956 .17997742 .1789856 .15629578 .22999573 .15429688 .25498963 .15429688 .39898683 .15429688 .45399476 .23234558 .45399476 .3024292 .45399476 .34942628 .42900086 .38243104 .4139862 .3984375 .44400025 .4144287 .46499635 .4164276 .47599793 .4174347 .47399903 .4124298 .47200013 .40342713 .47200013 .39743043 .47200013 .37219239 .4889984 .354187 .5149994 .354187 .54100039 .354187 .55799868 .3731842 .55799868 .39718629V.3970642M.34298707 .30221559C.34298707 .25724793 .34298707 .19029236 .25498963 .19029236 .16699219 .19021607 .16699219 .25733949 .16699219 .3024292 .16699219 .34742738 .16699219 .41418458 .25498963 .41418458 .34298707 .41418458 .34298707 .34742738 .34298707 .3024292V.30221559M.45599366-.07501221C.45599366-.11102295 .4169922-.16503906 .2869873-.16503906 .16699219-.16503906 .117996219-.11903381 .117996219-.073013309 .117996219-.013000488 .18099976-.013000488 .19499207-.013000488H.31199647C.34298707-.013000488 .45599366-.013000488 .45599366-.07501221Z"/>
<path id="font_7_2" d="M.46998597 .67033389C.46998597 .6713257 .47399903 .6843262 .47399903 .68533328 .47399903 .69433596 .46598817 .69433596 .46299745 .69433596 .45399476 .69433596 .45298768 .68933108 .44898988 .67433169L.28399659 .01222229C.20098877 .022232056 .16999817 .06425476 .16999817 .12426758 .16999817 .14628601 .16999817 .16929627 .21699524 .29335023 .22999573 .32936097 .23498535 .34236146 .23498535 .36036683 .23498535 .4053955 .20298767 .44140626 .1559906 .44140626 .06399536 .44140626 .026992798 .29634095 .026992798 .28834535 .026992798 .28434754 .0309906 .27934266 .037994386 .27934266 .04699707 .27934266 .04798889 .28334046 .051986696 .29734803 .07598877 .38438417 .115997318 .42140199 .15299988 .42140199 .1619873 .42140199 .1789856 .4203949 .1789856 .38838197 .1789856 .38438417 .1789856 .36238099 .1619873 .31835938 .10798645 .17630005 .10798645 .15428162 .10798645 .13127136 .10798645 .035232545 .18798828-.0017700195 .27799989-.008773804 .269989-.03982544 .2630005-.071899417 .25498963-.10295105 .23899842-.16307068 .23199463-.19111634 .23199463-.19511414 .23199463-.20410156 .23999024-.20410156 .24299622-.20410156 .24499512-.20410156 .24899292-.20410156 .25099183-.20010376 .25498963-.19610596 .29599-.027801514 .2999878-.009765625 .33699037-.009765625 .41600038-.009765625 .5059967 .08325195 .5389862 .119277957 .56900027 .16529846 .58599856 .20831299 .59599307 .23431397 .6199951 .32336427 .6199951 .3743744 .6199951 .43440248 .58999636 .44140626 .5799866 .44140626 .55599978 .44140626 .5339966 .41740418 .5339966 .39738465 .5339966 .38537599 .54100039 .37838746 .54499819 .3743744 .55400088 .3653717 .58099368 .33836366 .58099368 .28634645 .58099368 .25032044 .5609894 .17630005 .49699403 .104263309 .41299439 .010223389 .33599855 .010223389 .30599977 .010223389L.46998597 .67033389Z"/>
<path id="font_6_4" d="M.272995 .23298645C.27799989 .24499512 .27799989 .24699402 .27799989 .25 .27799989 .25299073 .27799989 .25498963 .272995 .2669983L.09799194 .72698977C.09199524 .74398806 .085998538 .75 .07499695 .75 .06399536 .75 .054992677 .7409973 .054992677 .7299957 .054992677 .72698977 .054992677 .72499087 .05999756 .71398928L.23699951 .25 .05999756-.21200562C.054992677-.2230072 .054992677-.2250061 .054992677-.23001099 .054992677-.24101258 .06399536-.25 .07499695-.25 .08799744-.25 .09199524-.2400055 .09599304-.23001099L.272995 .23298645Z"/>
<path id="font_6_2" d="M.5479889 .23046875C.5649872 .23046875 .58299258 .23046875 .58299258 .25045777 .58299258 .27046205 .5649872 .27046205 .5479889 .27046205H.12399292C.13598633 .40419007 .25099183 .5 .3919983 .5H.5479889C.5649872 .5 .58299258 .5 .58299258 .519989 .58299258 .5399933 .5649872 .5399933 .5479889 .5399933H.3899994C.21899414 .5399933 .08299255 .4101715 .08299255 .25045777 .08299255 .09017944 .21899414-.040008546 .3899994-.040008546H.5479889C.5649872-.040008546 .58299258-.040008546 .58299258-.020004273 .58299258 0 .5649872 0 .5479889 0H.3919983C.25099183 0 .13598633 .096191409 .12399292 .23046875H.5479889Z"/>
<path id="font_4_81" d="M.5 .21325684C.5 .3382721 .39698792 .44628907 .2649994 .44628907 .1329956 .44628907 .02999878 .3382721 .02999878 .21325684 .02999878 .08824158 .13699341-.009765625 .2649994-.009765625 .3939972-.009765625 .5 .08824158 .5 .21325684M.41099549 .22225952C.41099549 .17625427 .40899659 .12124634 .3809967 .07923889 .35398866 .039230348 .30899049 .021224976 .2649994 .021224976 .21099854 .021224976 .16899109 .047225954 .14698792 .082229617 .12199402 .12324524 .11898804 .17224121 .11898804 .22225952 .11898804 .2602539 .11898804 .32026673 .1499939 .363266 .17599488 .3982849 .21798706 .41827394 .2649994 .41827394 .31698609 .41827394 .3600006 .39328004 .3829956 .35827638 .4099884 .31626893 .41099549 .2622528 .41099549 .22225952Z"/>
<path id="font_1_80" d="M.798996 .33924867C.798996 .5552521 .6539917 .6972656 .43199159 .6972656 .20298767 .6972656 .06399536 .5492554 .06399536 .33924867 .06399536 .13224793 .20399475-.0107421879 .43099977-.0107421879 .6609955-.0107421879 .798996 .13424683 .798996 .33924867M.6459961 .3542633C.6459961 .28425599 .6419983 .19525147 .59999087 .12625122 .5549927 .053253175 .4850006 .03125 .43099977 .03125 .37199403 .03125 .29899598 .059249879 .2579956 .1352539 .22499085 .19725037 .21699524 .2682495 .21699524 .3542633 .21699524 .41825868 .21998596 .5032654 .2639923 .57125857 .30499269 .6322632 .37199403 .6572571 .43099977 .6572571 .49499513 .6572571 .56399539 .6292572 .60398867 .56326296 .6419983 .49925233 .6459961 .42225648 .6459961 .3542633Z"/>
<path id="font_1_47" d="M.6009979 0V.04699707C.5389862 .04699707 .5319977 .04699707 .5319977 .086013797V.69433596L.35499574 .6855469V.63853457C.4169922 .63853457 .42399598 .63853457 .42399598 .5996704V.40518189C.37399293 .44418336 .32199098 .4501953 .2889862 .4501953 .14299011 .4501953 .037994386 .36218263 .037994386 .22116089 .037994386 .089141849 .12998963-.005859375 .27799989-.005859375 .33898927-.005859375 .3869934 .018127442 .41799928 .043136598V-.005859375L.6009979 0M.41799928 .102996829C.40499879 .08514404 .3639984 .030136109 .28799439 .030136109 .1659851 .030136109 .1659851 .15115357 .1659851 .22116089 .1659851 .26916505 .1659851 .3231659 .19198609 .36218263 .22099304 .40419007 .2679901 .41418458 .29899598 .41418458 .35598756 .41418458 .3959961 .3821869 .41799928 .35317994V.102996829Z"/>
<path id="font_1_68" d="M.2669983-.042007448V.4501953L.08299255 .44218446V.39518739C.099990848 .39518739 .12199402 .39518739 .13699341 .39318849 .15899658 .38919068 .15899658 .37617494 .15899658 .35516358V-.042007448C.15899658-.092041019 .14399719-.1640625 .083999637-.1640625 .067993167-.1640625 .05999756-.1620636 .04499817-.1580658 .06399536-.14405823 .068984989-.123046878 .068984989-.108047489 .068984989-.073028568 .042999269-.046020509 .0069885256-.046020509-.03100586-.046066286-.056015016-.07307434-.056015016-.109069827-.056015016-.16607666 .0039978029-.20007324 .085998538-.20007324 .17199707-.20007324 .2669983-.14807129 .2669983-.04206848V-.042007448M.2669983 .60728457C.2669983 .6502838 .23199463 .6852875 .18899536 .6852875 .1459961 .6852875 .11099243 .6502838 .11099243 .60728457 .11099243 .5642853 .1459961 .5292969 .18899536 .5292969 .23199463 .5292969 .2669983 .5642853 .2669983 .60728457Z"/>
<path id="font_9_1" d="M.43699647 .67033389C.43699647 .67233279 .43998719 .68333438 .43998719 .6843262 .43998719 .68533328 .43998719 .69433596 .42799378 .69433596 .41799928 .69433596 .4169922 .69132998 .41299439 .67433169L.35499574 .44337464C.19599915 .43836976 .04899597 .30532838 .04899597 .169281 .04899597 .07424927 .11898804-.004776001 .24099732-.011779785 .23298645-.04283142 .22599793-.07489014 .21798706-.10594177 .20599365-.1530304 .19599915-.19108582 .19599915-.1940918 .19599915-.2040863 .20298767-.20507813 .20799256-.20507813 .21299744-.20507813 .21499634-.2040863 .21798706-.20108032 .21998596-.19908142 .22599793-.17506409 .22898865-.16104126L.2669983-.011779785C.42799378-.0067749025 .57299807 .12826538 .57299807 .26231385 .57299807 .3413391 .519989 .43338014 .3809967 .44337464L.43699647 .67033389M.24598694 .010223389C.18598938 .01322937 .11399841 .048233034 .11399841 .14826966 .11399841 .2683258 .19999695 .40837098 .34899903 .42137147L.24598694 .010223389M.375 .42137147C.45098878 .41737367 .5079956 .37135316 .5079956 .2833252 .5079956 .1652832 .42199708 .022232056 .27198792 .010223389L.375 .42137147Z"/>
<path id="font_3_1" d="M.44699098 .6673279C.44799806 .6713257 .44999696 .67832949 .44999696 .6823273 .44999696 .6923218 .44198609 .69433596 .43598939 .69433596 .4249878 .69433596 .4249878 .69132998 .41999818 .6733246L.3619995 .44337464C.18899536 .43637086 .049987794 .29934693 .049987794 .17131043 .049987794 .07928467 .11898804-.0037231446 .24798584-.01171875 .23999024-.042785646 .23298645-.07485962 .22499085-.10592651 .21099854-.16104126 .20298767-.19007874 .20298767-.1940918 .20298767-.1980896 .20498657-.20507813 .21699524-.20507813 .22799683-.20507813 .22898865-.2020874 .23498535-.17907715L.2769928-.01171875C.44898988-.0047302248 .58898928 .13230896 .58898928 .26133729 .58898928 .34135438 .5309906 .43338014 .3909912 .44337464L.44699098 .6673279M.2539978 .0132751469C.18199158 .01727295 .117996219 .060287477 .117996219 .15130615 .117996219 .26234437 .19999695 .40437318 .35598756 .41838075L.2539978 .0132751469M.38398744 .41838075C.45599366 .41337586 .519989 .37435914 .519989 .28033448 .519989 .15231323 .42399598 .025283814 .2829895 .0132751469L.38398744 .41838075Z"/>
<path id="font_5_2" d="M.34700013 .70799258C.35299684 .72099307 .35299684 .72299197 .35299684 .72698977 .35299684 .73999026 .34298707 .75 .32998658 .75 .31498719 .75 .30999757 .7389984 .30599977 .7279968L.12298584 .2689972C.116989139 .2559967 .116989139 .2539978 .116989139 .25 .116989139 .24598694 .116989139 .24398804 .12298584 .23098755L.3039856-.2250061C.31098939-.2420044 .31698609-.25 .32998658-.25 .34298707-.25 .35299684-.2400055 .35299684-.227005 .35299684-.2230072 .35299684-.2210083 .34700013-.20800781L.16499329 .25 .34700013 .70799258Z"/>
<path id="font_10_1" d="M.46199037 .68133547C.46199037 .69332888 .45098878 .69433596 .44599916 .69433596 .43299867 .69433596 .43199159 .688324 .42799378 .67233279L.37098695 .44337464C.19400025 .43537904 .050994874 .3023529 .050994874 .1723175 .050994874 .072280887 .13798523-.005722046 .25698854-.010726929 .24899292-.041793825 .24198914-.0738678 .23399353-.10493469 .22200012-.15203858 .21299744-.18910218 .21299744-.19210816 .21299744-.19311524 .21299744-.20410156 .22799683-.20410156 .24099732-.20410156 .24198914-.19911194 .24699402-.18009949L.2889862-.01171875C.46598817-.0027313233 .60798647 .1282959 .60798647 .2583313 .60798647 .3733673 .5069885 .43836976 .40299989 .4423828L.46199037 .68133547M.3959961 .41537477C.46998597 .40937806 .5369873 .3693695 .5369873 .27633668 .5369873 .18132019 .46798707 .03427124 .29599 .01727295L.3959961 .41537477M.2639923 .016281128C.23199463 .01828003 .12298584 .03427124 .12298584 .15530396 .12298584 .2623291 .20298767 .3993683 .36299134 .41436769L.2639923 .016281128Z"/>
<path id="font_5_4" d="M.16999817 .71199038C.16999817 .7279968 .16999817 .75 .14698792 .75 .12399292 .75 .12399292 .7279968 .12399292 .71199038V-.21200562C.12399292-.22801209 .12399292-.25 .14698792-.25 .16999817-.25 .16999817-.22801209 .16999817-.21200562V.71199038Z"/>
<path id="font_10_2" d="M.5079956 .6613312C.5119934 .6753235 .5119934 .6773224 .5119934 .68133547 .5119934 .69132998 .5049896 .69433596 .49699403 .69433596 .48399354 .69433596 .48298646 .6903229 .47898866 .6733246L.31599427 .020233155C.24499512 .02822876 .19599915 .059249879 .19599915 .13027954 .19599915 .14927674 .19599915 .17529297 .24899292 .3083496 .25898744 .33535768 .2599945 .3443756 .2599945 .35636903 .2599945 .4104004 .21598816 .44140626 .16999817 .44140626 .070999149 .44140626 .02999878 .300354 .02999878 .28834535 .02999878 .27934266 .036987306 .27534486 .04499817 .27534486 .057998659 .27534486 .05899048 .28134156 .06199646 .29135133 .08799744 .37838746 .1309967 .4133911 .16699219 .4133911 .18199158 .4133911 .19099427 .4033966 .19099427 .38038636 .19099427 .3573761 .18199158 .33335877 .17298889 .3123474 .12199402 .17929077 .12199402 .15829468 .12199402 .13728333 .12199402 .042236329 .20399475-.00077819827 .30799867-.0077667238L.2630005-.19111634C.2630005-.20010376 .269989-.20410156 .27799989-.20410156 .29100038-.20410156 .2919922-.20010376 .2979889-.17910767 .30299378-.15705872 .29899598-.17108155 .33999635-.009765625 .3809967-.009765625 .45799256-.009765625 .55599978 .08325195 .59599307 .120269779 .61898806 .1612854 .6269989 .17529297 .6599884 .24131775 .673996 .32835389 .673996 .36437989 .673996 .44239808 .6289978 .44239808 .625 .44239808 .6009979 .44239808 .57299807 .4163971 .57299807 .39038087 .57299807 .3743744 .58200076 .36637879 .58699038 .36238099 .5970001 .3533783 .6269989 .32736207 .6269989 .27934266 .6269989 .19630432 .5139923 .018234253 .34700013 .018234253L.5079956 .6613312Z"/>
<path id="font_5_3" d="M.2889862 .23098755C.29499818 .24398804 .29499818 .24598694 .29499818 .25 .29499818 .2539978 .29499818 .2559967 .2889862 .2689972L.10798645 .72499087C.100997928 .74198916 .09498596 .75 .08198547 .75 .068984989 .75 .05899048 .73999026 .05899048 .72698977 .05899048 .72299197 .05899048 .72099307 .06498718 .70799258L.24699402 .25 .06498718-.20800781C.05899048-.2210083 .05899048-.2230072 .05899048-.227005 .05899048-.2400055 .068984989-.25 .08198547-.25 .09700012-.25 .101989749-.23901367 .10598755-.22801209L.2889862 .23098755Z"/>
</defs>
<use data-text="k" xlink:href="#font_1_70" transform="matrix(9.96264,0,0,-9.96264,37.12794,20.062539)"/>
<use data-text="e" xlink:href="#font_1_50" transform="matrix(9.96264,0,0,-9.96264,42.866426,20.062539)"/>
<use data-text="t" xlink:href="#font_1_105" transform="matrix(9.96264,0,0,-9.96264,48.116735,20.062539)"/>
<use data-text=":" xlink:href="#font_1_44" transform="matrix(9.96264,0,0,-9.96264,52.570035,20.062539)"/>
<use data-text="v" xlink:href="#font_1_112" transform="matrix(9.96264,0,0,-9.96264,60.8191,20.062539)"/>
<use data-text="e" xlink:href="#font_1_50" transform="matrix(9.96264,0,0,-9.96264,66.55758,20.062539)"/>
<use data-text="c" xlink:href="#font_1_43" transform="matrix(9.96264,0,0,-9.96264,71.80789,20.062539)"/>
<use data-text="t" xlink:href="#font_1_105" transform="matrix(9.96264,0,0,-9.96264,76.8988,20.062539)"/>
<use data-text="o" xlink:href="#font_1_81" transform="matrix(9.96264,0,0,-9.96264,81.352108,20.062539)"/>
<use data-text="r" xlink:href="#font_1_96" transform="matrix(9.96264,0,0,-9.96264,87.08062,20.062539)"/>
<path transform="matrix(1,0,0,-1,36.1173,100.178379)" stroke-width=".3985" stroke-linecap="butt" stroke-miterlimit="10" stroke-linejoin="miter" fill="none" stroke="#bfbfbf" d="M-14.17339 0H66.28416"/>
<path transform="matrix(1,0,0,-1,102.40146,100.178379)" d="M3.7613 0C3.2994 .1127 1.26901 .75136 0 1.44638V-1.44638C1.26901-.75136 3.2994-.1127 3.7613 0Z" fill="#bfbfbf"/>
<path transform="matrix(1,0,0,-1,102.40146,100.178379)" stroke-width=".3985" stroke-linecap="butt" stroke-miterlimit="10" stroke-linejoin="miter" fill="none" stroke="#bfbfbf" d="M3.7613 0C3.2994 .1127 1.26901 .75136 0 1.44638V-1.44638C1.26901-.75136 3.2994-.1127 3.7613 0Z"/>
<path transform="matrix(1,0,0,-1,36.1173,100.178379)" stroke-width=".3985" stroke-linecap="butt" stroke-miterlimit="10" stroke-linejoin="miter" fill="none" stroke="#bfbfbf" d="M0-11.33855V63.44931"/>
<path transform="matrix(0,-1,-1,-0,36.1173,36.729066)" d="M3.7613 0C3.2994 .1127 1.26901 .75136 0 1.44638V-1.44638C1.26901-.75136 3.2994-.1127 3.7613 0Z" fill="#bfbfbf"/>
<path transform="matrix(0,-1,-1,-0,36.1173,36.729066)" stroke-width=".3985" stroke-linecap="butt" stroke-miterlimit="10" stroke-linejoin="miter" fill="none" stroke="#bfbfbf" d="M3.7613 0C3.2994 .1127 1.26901 .75136 0 1.44638V-1.44638C1.26901-.75136 3.2994-.1127 3.7613 0Z"/>
<path transform="matrix(1,0,0,-1,36.1173,100.178379)" stroke-width="1.19553" stroke-linecap="butt" stroke-miterlimit="10" stroke-linejoin="miter" fill="none" stroke="#000000" d="M0 0 45.05478 37.54562"/>
<path transform="matrix(.76819,-.64015,-.64015,-.76819,81.17206,62.632768)" d="M5.30629 0C4.65466 .16344 1.79025 1.08963 0 2.09753V-2.09753C1.79025-1.08963 4.65466-.16344 5.30629 0Z"/>
<path transform="matrix(.76819,-.64015,-.64015,-.76819,81.17206,62.632768)" stroke-width="1.19553" stroke-linecap="butt" stroke-miterlimit="10" stroke-linejoin="miter" fill="none" stroke="#000000" d="M5.30629 0C4.65466 .16344 1.79025 1.08963 0 2.09753V-2.09753C1.79025-1.08963 4.65466-.16344 5.30629 0Z"/>
<use data-text="|" xlink:href="#font_2_3" transform="matrix(8.966376,0,0,-8.966376,91.05994,51.498228)"/>
<use data-text="&#x03c8;" xlink:href="#font_3_2" transform="matrix(8.966376,0,0,-8.966376,93.61977,51.498228)"/>
<use data-text="&#x27e9;" xlink:href="#font_2_2" transform="matrix(8.966376,0,0,-8.966376,99.95361,51.498228)"/>
<use data-text="H" xlink:href="#font_4_62" transform="matrix(7.970112,0,0,-7.970112,43.46874,113.50949)" fill="#595959"/>
<use data-text="i" xlink:href="#font_4_66" transform="matrix(7.970112,0,0,-7.970112,49.81295,113.50949)" fill="#595959"/>
<use data-text="l" xlink:href="#font_4_72" transform="matrix(7.970112,0,0,-7.970112,52.16413,113.50949)" fill="#595959"/>
<use data-text="b" xlink:href="#font_4_35" transform="matrix(7.970112,0,0,-7.970112,54.515314,113.50949)" fill="#595959"/>
<use data-text="e" xlink:href="#font_4_50" transform="matrix(7.970112,0,0,-7.970112,59.456785,113.50949)" fill="#595959"/>
<use data-text="r" xlink:href="#font_4_96" transform="matrix(7.970112,0,0,-7.970112,63.218675,113.50949)" fill="#595959"/>
<use data-text="t" xlink:href="#font_4_105" transform="matrix(7.970112,0,0,-7.970112,66.5183,113.50949)" fill="#595959"/>
<use data-text="s" xlink:href="#font_4_98" transform="matrix(7.970112,0,0,-7.970112,72.63138,113.50949)" fill="#595959"/>
<use data-text="p" xlink:href="#font_4_84" transform="matrix(7.970112,0,0,-7.970112,75.970859,113.50949)" fill="#595959"/>
<use data-text="a" xlink:href="#font_4_28" transform="matrix(7.970112,0,0,-7.970112,80.67322,113.50949)" fill="#595959"/>
<use data-text="c" xlink:href="#font_4_43" transform="matrix(7.970112,0,0,-7.970112,84.90535,113.50949)" fill="#595959"/>
<use data-text="e" xlink:href="#font_4_50" transform="matrix(7.970112,0,0,-7.970112,88.667247,113.50949)" fill="#595959"/>
<use data-text="H" xlink:href="#font_5_1" transform="matrix(7.970112,0,0,-7.970112,95.25056,113.50949)" fill="#595959"/>
<use data-text="b" xlink:href="#font_1_35" transform="matrix(9.96264,0,0,-9.96264,174.50876,20.062539)"/>
<use data-text="r" xlink:href="#font_1_96" transform="matrix(9.96264,0,0,-9.96264,180.8749,20.062539)"/>
<use data-text="a" xlink:href="#font_1_28" transform="matrix(9.96264,0,0,-9.96264,185.59719,20.062539)"/>
<use data-text=":" xlink:href="#font_1_44" transform="matrix(9.96264,0,0,-9.96264,191.16629,20.062539)"/>
<use data-text="f" xlink:href="#font_1_55" transform="matrix(9.96264,0,0,-9.96264,199.42533,20.062539)"/>
<use data-text="u" xlink:href="#font_1_109" transform="matrix(9.96264,0,0,-9.96264,202.92221,20.062539)"/>
<use data-text="n" xlink:href="#font_1_77" transform="matrix(9.96264,0,0,-9.96264,209.28835,20.062539)"/>
<use data-text="c" xlink:href="#font_1_43" transform="matrix(9.96264,0,0,-9.96264,215.65447,20.062539)"/>
<use data-text="t" xlink:href="#font_1_105" transform="matrix(9.96264,0,0,-9.96264,220.74538,20.062539)"/>
<use data-text="i" xlink:href="#font_1_66" transform="matrix(9.96264,0,0,-9.96264,225.19867,20.062539)"/>
<use data-text="o" xlink:href="#font_1_81" transform="matrix(9.96264,0,0,-9.96264,228.37676,20.062539)"/>
<use data-text="n" xlink:href="#font_1_77" transform="matrix(9.96264,0,0,-9.96264,234.10529,20.062539)"/>
<use data-text="a" xlink:href="#font_1_28" transform="matrix(9.96264,0,0,-9.96264,240.4714,20.062539)"/>
<use data-text="l" xlink:href="#font_1_72" transform="matrix(9.96264,0,0,-9.96264,246.04053,20.062539)"/>
<path transform="matrix(1,0,0,-1,36.1173,100.178379)" d="M205.78116 48.18968H145.71918C143.51824 48.18968 141.73407 46.40552 141.73407 44.20457V29.49727C141.73407 27.29633 143.51824 25.51216 145.71918 25.51216H205.78116C207.9821 25.51216 209.76627 27.29633 209.76627 29.49727V44.20457C209.76627 46.40552 207.9821 48.18968 205.78116 48.18968ZM141.73407 25.51216" fill="#e6e6ff"/>
<path transform="matrix(1,0,0,-1,36.1173,100.178379)" stroke-width=".3985" stroke-linecap="butt" stroke-miterlimit="10" stroke-linejoin="miter" fill="none" stroke="#000000" d="M205.78116 48.18968H145.71918C143.51824 48.18968 141.73407 46.40552 141.73407 44.20457V29.49727C141.73407 27.29633 143.51824 25.51216 145.71918 25.51216H205.78116C207.9821 25.51216 209.76627 27.29633 209.76627 29.49727V44.20457C209.76627 46.40552 207.9821 48.18968 205.78116 48.18968ZM141.73407 25.51216"/>
<use data-text="&#x27e8;" xlink:href="#font_6_3" transform="matrix(11.955168,0,0,-11.955168,199.76898,66.316287)"/>
<use data-text="&#x03d5;" xlink:href="#font_7_1" transform="matrix(11.955168,0,0,-11.955168,204.41825,66.316287)"/>
<use data-text="|" xlink:href="#font_6_5" transform="matrix(11.955168,0,0,-11.955168,211.34635,66.316287)"/>
<use data-text="&#x2022;" xlink:href="#font_6_1" transform="matrix(11.955168,0,0,-11.955168,217.96952,66.316287)"/>
<path transform="matrix(1,0,0,-1,36.1173,100.178379)" stroke-width="1.19553" stroke-linecap="butt" stroke-miterlimit="10" stroke-linejoin="miter" fill="none" stroke="#000080" d="M209.96552 36.85092H230.54138"/>
<path transform="matrix(1,0,0,-1,266.6587,63.327455)" d="M5.30629 0C4.65466 .16344 1.79025 1.08963 0 2.09753V-2.09753C1.79025-1.08963 4.65466-.16344 5.30629 0Z" fill="#000080"/>
<path transform="matrix(1,0,0,-1,266.6587,63.327455)" stroke-width="1.19553" stroke-linecap="butt" stroke-miterlimit="10" stroke-linejoin="miter" fill="none" stroke="#000080" d="M5.30629 0C4.65466 .16344 1.79025 1.08963 0 2.09753V-2.09753C1.79025-1.08963 4.65466-.16344 5.30629 0Z"/>
<use data-text="&#x2208;" xlink:href="#font_2_1" transform="matrix(8.966376,0,0,-8.966376,278.34797,66.18738)" fill="#000080"/>
<use data-text="C" xlink:href="#font_8_1" transform="matrix(8.966376,0,0,-8.966376,287.05137,66.18738)" fill="#000080"/>
<use data-text="t" xlink:href="#font_4_105" transform="matrix(7.970112,0,0,-7.970112,190.68253,90.8044)"/>
<use data-text="a" xlink:href="#font_4_28" transform="matrix(7.970112,0,0,-7.970112,193.97418,90.8044)"/>
<use data-text="k" xlink:href="#font_4_70" transform="matrix(7.970112,0,0,-7.970112,198.2063,90.8044)"/>
<use data-text="e" xlink:href="#font_4_50" transform="matrix(7.970112,0,0,-7.970112,202.44641,90.8044)"/>
<use data-text="s" xlink:href="#font_4_98" transform="matrix(7.970112,0,0,-7.970112,206.2083,90.8044)"/>
<use data-text="a" xlink:href="#font_4_28" transform="matrix(7.970112,0,0,-7.970112,212.36122,90.8044)"/>
<use data-text="k" xlink:href="#font_4_70" transform="matrix(7.970112,0,0,-7.970112,219.41478,90.8044)"/>
<use data-text="e" xlink:href="#font_4_50" transform="matrix(7.970112,0,0,-7.970112,223.65488,90.8044)"/>
<use data-text="t" xlink:href="#font_4_105" transform="matrix(7.970112,0,0,-7.970112,227.41677,90.8044)"/>
<use data-text="," xlink:href="#font_4_45" transform="matrix(7.970112,0,0,-7.970112,230.70842,90.8044)"/>
<use data-text="r" xlink:href="#font_4_96" transform="matrix(7.970112,0,0,-7.970112,179.73955,100.268909)"/>
<use data-text="e" xlink:href="#font_4_50" transform="matrix(7.970112,0,0,-7.970112,183.03917,100.268909)"/>
<use data-text="t" xlink:href="#font_4_105" transform="matrix(7.970112,0,0,-7.970112,186.80107,100.268909)"/>
<use data-text="u" xlink:href="#font_4_109" transform="matrix(7.970112,0,0,-7.970112,190.09273,100.268909)"/>
<use data-text="r" xlink:href="#font_4_96" transform="matrix(7.970112,0,0,-7.970112,194.79509,100.268909)"/>
<use data-text="n" xlink:href="#font_4_77" transform="matrix(7.970112,0,0,-7.970112,198.09471,100.268909)"/>
<use data-text="s" xlink:href="#font_4_98" transform="matrix(7.970112,0,0,-7.970112,202.79709,100.268909)"/>
<use data-text="a" xlink:href="#font_4_28" transform="matrix(7.970112,0,0,-7.970112,208.95798,100.268909)"/>
<use data-text="n" xlink:href="#font_4_77" transform="matrix(7.970112,0,0,-7.970112,216.01152,100.268909)"/>
<use data-text="u" xlink:href="#font_4_109" transform="matrix(7.970112,0,0,-7.970112,220.48276,100.268909)"/>
<use data-text="m" xlink:href="#font_4_75" transform="matrix(7.970112,0,0,-7.970112,225.18512,100.268909)"/>
<use data-text="b" xlink:href="#font_4_35" transform="matrix(7.970112,0,0,-7.970112,231.99958,100.268909)"/>
<use data-text="e" xlink:href="#font_4_50" transform="matrix(7.970112,0,0,-7.970112,236.93308,100.268909)"/>
<use data-text="r" xlink:href="#font_4_96" transform="matrix(7.970112,0,0,-7.970112,240.69496,100.268909)"/>
<use data-text="R" xlink:href="#font_1_95" transform="matrix(9.96264,0,0,-9.96264,329.32325,18.119774)"/>
<use data-text="i" xlink:href="#font_1_66" transform="matrix(9.96264,0,0,-9.96264,337.921,18.119774)"/>
<use data-text="e" xlink:href="#font_1_50" transform="matrix(9.96264,0,0,-9.96264,341.09907,18.119774)"/>
<use data-text="s" xlink:href="#font_1_98" transform="matrix(9.96264,0,0,-9.96264,346.3494,18.119774)"/>
<use data-text="z" xlink:href="#font_1_120" transform="matrix(9.96264,0,0,-9.96264,350.87245,18.119774)"/>
<use data-text="p" xlink:href="#font_1_84" transform="matrix(9.96264,0,0,-9.96264,359.77903,18.119774)"/>
<use data-text="a" xlink:href="#font_1_28" transform="matrix(9.96264,0,0,-9.96264,366.14515,18.119774)"/>
<use data-text="i" xlink:href="#font_1_66" transform="matrix(9.96264,0,0,-9.96264,371.71427,18.119774)"/>
<use data-text="r" xlink:href="#font_1_96" transform="matrix(9.96264,0,0,-9.96264,374.89234,18.119774)"/>
<use data-text="i" xlink:href="#font_1_66" transform="matrix(9.96264,0,0,-9.96264,379.61463,18.119774)"/>
<use data-text="n" xlink:href="#font_1_77" transform="matrix(9.96264,0,0,-9.96264,382.79273,18.119774)"/>
<use data-text="g" xlink:href="#font_1_59" transform="matrix(9.96264,0,0,-9.96264,389.15885,18.119774)"/>
<path transform="matrix(1,0,0,-1,36.1173,100.178379)" d="M357.43684 51.02432H294.54C292.33909 51.02432 290.5549 49.24016 290.5549 47.03922V26.66264C290.5549 24.4617 292.33909 22.67754 294.54 22.67754H357.43684C359.63777 22.67754 361.42195 24.4617 361.42195 26.66264V47.03922C361.42195 49.24016 359.63777 51.02432 357.43684 51.02432ZM290.5549 22.67754" fill="#fffbcc"/>
<path transform="matrix(1,0,0,-1,36.1173,100.178379)" stroke-width=".3985" stroke-linecap="butt" stroke-miterlimit="10" stroke-linejoin="miter" fill="none" stroke="#000000" d="M357.43684 51.02432H294.54C292.33909 51.02432 290.5549 49.24016 290.5549 47.03922V26.66264C290.5549 24.4617 292.33909 22.67754 294.54 22.67754H357.43684C359.63777 22.67754 361.42195 24.4617 361.42195 26.66264V47.03922C361.42195 49.24016 359.63777 51.02432 357.43684 51.02432ZM290.5549 22.67754"/>
<use data-text="&#x27e8;" xlink:href="#font_6_3" transform="matrix(11.955168,0,0,-11.955168,336.68904,66.316287)"/>
<use data-text="&#x03d5;" xlink:href="#font_7_1" transform="matrix(11.955168,0,0,-11.955168,341.33827,66.316287)"/>
<use data-text="|" xlink:href="#font_6_5" transform="matrix(11.955168,0,0,-11.955168,348.2664,66.316287)"/>
<use data-text="&#x03c8;" xlink:href="#font_7_2" transform="matrix(11.955168,0,0,-11.955168,351.58729,66.316287)"/>
<use data-text="&#x27e9;" xlink:href="#font_6_4" transform="matrix(11.955168,0,0,-11.955168,359.6265,66.316287)"/>
<use data-text="&#x2208;" xlink:href="#font_6_2" transform="matrix(11.955168,0,0,-11.955168,367.57667,66.316287)"/>
<use data-text="C" xlink:href="#font_8_1" transform="matrix(11.955168,0,0,-11.955168,378.88755,66.316287)"/>
<use data-text="b" xlink:href="#font_4_35" transform="matrix(7.970112,0,0,-7.970112,335.7441,90.8044)"/>
<use data-text="r" xlink:href="#font_4_96" transform="matrix(7.970112,0,0,-7.970112,340.44648,90.8044)"/>
<use data-text="a" xlink:href="#font_4_28" transform="matrix(7.970112,0,0,-7.970112,343.7461,90.8044)"/>
<use data-text="m" xlink:href="#font_4_75" transform="matrix(7.970112,0,0,-7.970112,350.79966,90.8044)"/>
<use data-text="e" xlink:href="#font_4_50" transform="matrix(7.970112,0,0,-7.970112,357.85319,90.8044)"/>
<use data-text="e" xlink:href="#font_4_50" transform="matrix(7.970112,0,0,-7.970112,361.61509,90.8044)"/>
<use data-text="t" xlink:href="#font_4_105" transform="matrix(7.970112,0,0,-7.970112,365.37699,90.8044)"/>
<use data-text="s" xlink:href="#font_4_98" transform="matrix(7.970112,0,0,-7.970112,368.66865,90.8044)"/>
<use data-text="k" xlink:href="#font_4_70" transform="matrix(7.970112,0,0,-7.970112,374.82954,90.8044)"/>
<use data-text="e" xlink:href="#font_4_50" transform="matrix(7.970112,0,0,-7.970112,379.06965,90.8044)"/>
<use data-text="t" xlink:href="#font_4_105" transform="matrix(7.970112,0,0,-7.970112,382.8315,90.8044)"/>
<use data-text="," xlink:href="#font_4_45" transform="matrix(7.970112,0,0,-7.970112,386.12318,90.8044)"/>
<use data-text="o" xlink:href="#font_4_81" transform="matrix(7.970112,0,0,-7.970112,324.57798,100.268909)"/>
<use data-text="u" xlink:href="#font_4_109" transform="matrix(7.970112,0,0,-7.970112,328.8101,100.268909)"/>
<use data-text="t" xlink:href="#font_4_105" transform="matrix(7.970112,0,0,-7.970112,333.51249,100.268909)"/>
<use data-text="c" xlink:href="#font_4_43" transform="matrix(7.970112,0,0,-7.970112,339.62556,100.268909)"/>
<use data-text="o" xlink:href="#font_4_81" transform="matrix(7.970112,0,0,-7.970112,343.38746,100.268909)"/>
<use data-text="m" xlink:href="#font_4_75" transform="matrix(7.970112,0,0,-7.970112,347.61958,100.268909)"/>
<use data-text="e" xlink:href="#font_4_50" transform="matrix(7.970112,0,0,-7.970112,354.67314,100.268909)"/>
<use data-text="s" xlink:href="#font_4_98" transform="matrix(7.970112,0,0,-7.970112,358.435,100.268909)"/>
<use data-text="a" xlink:href="#font_4_28" transform="matrix(7.970112,0,0,-7.970112,364.59593,100.268909)"/>
<use data-text="n" xlink:href="#font_4_77" transform="matrix(7.970112,0,0,-7.970112,371.64945,100.268909)"/>
<use data-text="u" xlink:href="#font_4_109" transform="matrix(7.970112,0,0,-7.970112,376.1207,100.268909)"/>
<use data-text="m" xlink:href="#font_4_75" transform="matrix(7.970112,0,0,-7.970112,380.82307,100.268909)"/>
<use data-text="b" xlink:href="#font_4_35" transform="matrix(7.970112,0,0,-7.970112,387.6375,100.268909)"/>
<use data-text="e" xlink:href="#font_4_50" transform="matrix(7.970112,0,0,-7.970112,392.571,100.268909)"/>
<use data-text="r" xlink:href="#font_4_96" transform="matrix(7.970112,0,0,-7.970112,396.3329,100.268909)"/>
<use data-text="O" xlink:href="#font_1_80" transform="matrix(9.96264,0,0,-9.96264,11.290318,159.36275)"/>
<use data-text="u" xlink:href="#font_1_109" transform="matrix(9.96264,0,0,-9.96264,19.898039,159.36275)"/>
<use data-text="t" xlink:href="#font_1_105" transform="matrix(9.96264,0,0,-9.96264,26.264166,159.36275)"/>
<use data-text="e" xlink:href="#font_1_50" transform="matrix(9.96264,0,0,-9.96264,30.717467,159.36275)"/>
<use data-text="r" xlink:href="#font_1_96" transform="matrix(9.96264,0,0,-9.96264,35.967779,159.36275)"/>
<use data-text="p" xlink:href="#font_1_84" transform="matrix(9.96264,0,0,-9.96264,44.50576,159.36275)"/>
<use data-text="r" xlink:href="#font_1_96" transform="matrix(9.96264,0,0,-9.96264,50.871889,159.36275)"/>
<use data-text="o" xlink:href="#font_1_81" transform="matrix(9.96264,0,0,-9.96264,55.594179,159.36275)"/>
<use data-text="d" xlink:href="#font_1_47" transform="matrix(9.96264,0,0,-9.96264,61.641504,159.36275)"/>
<use data-text="u" xlink:href="#font_1_109" transform="matrix(9.96264,0,0,-9.96264,68.00763,159.36275)"/>
<use data-text="c" xlink:href="#font_1_43" transform="matrix(9.96264,0,0,-9.96264,74.37376,159.36275)"/>
<use data-text="t" xlink:href="#font_1_105" transform="matrix(9.96264,0,0,-9.96264,79.46466,159.36275)"/>
<use data-text="a" xlink:href="#font_1_28" transform="matrix(9.96264,0,0,-9.96264,87.73366,159.36275)"/>
<use data-text="s" xlink:href="#font_1_98" transform="matrix(9.96264,0,0,-9.96264,93.30277,159.36275)"/>
<use data-text="p" xlink:href="#font_1_84" transform="matrix(9.96264,0,0,-9.96264,101.64151,159.36275)"/>
<use data-text="r" xlink:href="#font_1_96" transform="matrix(9.96264,0,0,-9.96264,108.00763,159.36275)"/>
<use data-text="o" xlink:href="#font_1_81" transform="matrix(9.96264,0,0,-9.96264,112.72993,159.36275)"/>
<use data-text="j" xlink:href="#font_1_68" transform="matrix(9.96264,0,0,-9.96264,118.777248,159.36275)"/>
<use data-text="e" xlink:href="#font_1_50" transform="matrix(9.96264,0,0,-9.96264,122.27413,159.36275)"/>
<use data-text="c" xlink:href="#font_1_43" transform="matrix(9.96264,0,0,-9.96264,127.524448,159.36275)"/>
<use data-text="t" xlink:href="#font_1_105" transform="matrix(9.96264,0,0,-9.96264,132.61536,159.36275)"/>
<use data-text="i" xlink:href="#font_1_66" transform="matrix(9.96264,0,0,-9.96264,137.06867,159.36275)"/>
<use data-text="o" xlink:href="#font_1_81" transform="matrix(9.96264,0,0,-9.96264,140.24674,159.36275)"/>
<use data-text="n" xlink:href="#font_1_77" transform="matrix(9.96264,0,0,-9.96264,145.97525,159.36275)"/>
<use data-text=":" xlink:href="#font_1_44" transform="matrix(9.96264,0,0,-9.96264,152.34139,159.36275)"/>
<use data-text="|" xlink:href="#font_6_5" transform="matrix(9.96264,0,0,-9.96264,160.60704,159.36275)"/>
<use data-text="&#x03d5;" xlink:href="#font_9_1" transform="matrix(9.96264,0,0,-9.96264,163.37445,159.36275)"/>
<use data-text="&#x27e9;" xlink:href="#font_6_4" transform="matrix(9.96264,0,0,-9.96264,169.31053,159.36275)"/>
<use data-text="&#x27e8;" xlink:href="#font_6_3" transform="matrix(9.96264,0,0,-9.96264,173.17603,159.36275)"/>
<use data-text="&#x03d5;" xlink:href="#font_9_1" transform="matrix(9.96264,0,0,-9.96264,177.05927,159.36275)"/>
<use data-text="|" xlink:href="#font_6_5" transform="matrix(9.96264,0,0,-9.96264,182.99535,159.36275)"/>
<path transform="matrix(1,0,0,-1,36.1173,100.178379)" stroke-width=".3985" stroke-linecap="butt" stroke-miterlimit="10" stroke-linejoin="miter" fill="none" stroke="#bfbfbf" d="M99.21388-127.56068H199.51413"/>
<path transform="matrix(1,0,0,-1,235.63143,227.73905)" d="M3.7613 0C3.2994 .1127 1.26901 .75136 0 1.44638V-1.44638C1.26901-.75136 3.2994-.1127 3.7613 0Z" fill="#bfbfbf"/>
<path transform="matrix(1,0,0,-1,235.63143,227.73905)" stroke-width=".3985" stroke-linecap="butt" stroke-miterlimit="10" stroke-linejoin="miter" fill="none" stroke="#bfbfbf" d="M3.7613 0C3.2994 .1127 1.26901 .75136 0 1.44638V-1.44638C1.26901-.75136 3.2994-.1127 3.7613 0Z"/>
<path transform="matrix(1,0,0,-1,36.1173,100.178379)" stroke-width=".3985" stroke-linecap="butt" stroke-miterlimit="10" stroke-linejoin="miter" fill="none" stroke="#bfbfbf" d="M113.38728-141.73409V-64.11137"/>
<path transform="matrix(0,-1,-1,-0,149.50458,164.28974)" d="M3.7613 0C3.2994 .1127 1.26901 .75136 0 1.44638V-1.44638C1.26901-.75136 3.2994-.1127 3.7613 0Z" fill="#bfbfbf"/>
<path transform="matrix(0,-1,-1,-0,149.50458,164.28974)" stroke-width=".3985" stroke-linecap="butt" stroke-miterlimit="10" stroke-linejoin="miter" fill="none" stroke="#bfbfbf" d="M3.7613 0C3.2994 .1127 1.26901 .75136 0 1.44638V-1.44638C1.26901-.75136 3.2994-.1127 3.7613 0Z"/>
<path transform="matrix(1,0,0,-1,36.1173,100.178379)" stroke-width="1.19553" stroke-linecap="butt" stroke-miterlimit="10" stroke-linejoin="miter" fill="none" stroke="#000099" d="M113.38728-127.56068 144.17423-106.00325"/>
<path transform="matrix(.81914,-.57356,-.57356,-.81914,180.2915,206.18163)" d="M5.30629 0C4.65466 .16344 1.79025 1.08963 0 2.09753V-2.09753C1.79025-1.08963 4.65466-.16344 5.30629 0Z" fill="#000099"/>
<path transform="matrix(.81914,-.57356,-.57356,-.81914,180.2915,206.18163)" stroke-width="1.19553" stroke-linecap="butt" stroke-miterlimit="10" stroke-linejoin="miter" fill="none" stroke="#000099" d="M5.30629 0C4.65466 .16344 1.79025 1.08963 0 2.09753V-2.09753C1.79025-1.08963 4.65466-.16344 5.30629 0Z"/>
<use data-text="|" xlink:href="#font_2_3" transform="matrix(8.966376,0,0,-8.966376,180.84264,195.56456)" fill="#000099"/>
<use data-text="&#x03d5;" xlink:href="#font_3_1" transform="matrix(8.966376,0,0,-8.966376,183.40247,195.56456)" fill="#000099"/>
<use data-text="&#x27e9;" xlink:href="#font_2_2" transform="matrix(8.966376,0,0,-8.966376,188.88744,195.56456)" fill="#000099"/>
<path transform="matrix(1,0,0,-1,36.1173,100.178379)" stroke-width="1.19553" stroke-linecap="butt" stroke-miterlimit="10" stroke-linejoin="miter" fill="none" stroke="#000000" d="M113.38728-127.56068 179.83626-102.00323"/>
<path transform="matrix(.93333,-.35895,-.35895,-.93333,215.95354,202.18163)" d="M5.30629 0C4.65466 .16344 1.79025 1.08963 0 2.09753V-2.09753C1.79025-1.08963 4.65466-.16344 5.30629 0Z"/>
<path transform="matrix(.93333,-.35895,-.35895,-.93333,215.95354,202.18163)" stroke-width="1.19553" stroke-linecap="butt" stroke-miterlimit="10" stroke-linejoin="miter" fill="none" stroke="#000000" d="M5.30629 0C4.65466 .16344 1.79025 1.08963 0 2.09753V-2.09753C1.79025-1.08963 4.65466-.16344 5.30629 0Z"/>
<use data-text="|" xlink:href="#font_2_3" transform="matrix(8.966376,0,0,-8.966376,227.12477,201.63387)"/>
<use data-text="&#x03c8;" xlink:href="#font_3_2" transform="matrix(8.966376,0,0,-8.966376,229.6846,201.63387)"/>
<use data-text="&#x27e9;" xlink:href="#font_2_2" transform="matrix(8.966376,0,0,-8.966376,236.01845,201.63387)"/>
<path transform="matrix(1,0,0,-1,36.1173,100.178379)" stroke-width=".79701" stroke-linecap="butt" stroke-dasharray="2.98883,2.98883" stroke-miterlimit="10" stroke-linejoin="miter" fill="none" stroke="#000099" d="M187.08914-99.21388 176.16022-83.60661"/>
<path transform="matrix(1,0,0,-1,36.1173,100.178379)" stroke-width="1.59404" stroke-linecap="butt" stroke-miterlimit="10" stroke-linejoin="miter" fill="none" stroke="#0000b3" d="M113.38728-127.56068 168.48899-88.97804"/>
<path transform="matrix(.81914,-.57356,-.57356,-.81914,204.60626,189.15642)" d="M6.07884 0C5.33234 .18881 2.0509 1.25874 0 2.4231V-2.4231C2.0509-1.25874 5.33234-.18881 6.07884 0Z" fill="#0000b3"/>
<path transform="matrix(.81914,-.57356,-.57356,-.81914,204.60626,189.15642)" stroke-width="1.59404" stroke-linecap="butt" stroke-miterlimit="10" stroke-linejoin="miter" fill="none" stroke="#0000b3" d="M6.07884 0C5.33234 .18881 2.0509 1.25874 0 2.4231V-2.4231C2.0509-1.25874 5.33234-.18881 6.07884 0Z"/>
<use data-text="&#x27e8;" xlink:href="#font_5_2" transform="matrix(7.970112,0,0,-7.970112,164.94832,198.83245)" fill="#0000b3"/>
<use data-text="&#x03d5;" xlink:href="#font_10_1" transform="matrix(7.970112,0,0,-7.970112,168.24158,198.83245)" fill="#0000b3"/>
<use data-text="|" xlink:href="#font_5_4" transform="matrix(7.970112,0,0,-7.970112,173.27556,198.83245)" fill="#0000b3"/>
<use data-text="&#x03c8;" xlink:href="#font_10_2" transform="matrix(7.970112,0,0,-7.970112,175.62787,198.83245)" fill="#0000b3"/>
<use data-text="&#x27e9;" xlink:href="#font_5_3" transform="matrix(7.970112,0,0,-7.970112,181.44872,198.83245)" fill="#0000b3"/>
<use data-text="|" xlink:href="#font_5_4" transform="matrix(7.970112,0,0,-7.970112,186.15108,198.83245)" fill="#0000b3"/>
<use data-text="&#x03d5;" xlink:href="#font_10_1" transform="matrix(7.970112,0,0,-7.970112,188.50568,198.83245)" fill="#0000b3"/>
<use data-text="&#x27e9;" xlink:href="#font_5_3" transform="matrix(7.970112,0,0,-7.970112,193.53966,198.83245)" fill="#0000b3"/>
</svg>
