<svg xmlns="http://www.w3.org/2000/svg" xmlns:xlink="http://www.w3.org/1999/xlink" xmlns:inkscape="http://www.inkscape.org/namespaces/inkscape" version="1.1" width="204.68" height="254.85" viewBox="0 0 204.68 254.85">
<defs>
<path id="font_1_1" d="M.33399964 .30233766C.33999635 .32835389 .36299134 .42037965 .43299867 .42037965 .43798829 .42037965 .46199037 .42037965 .48298646 .40734864 .45498658 .402359 .43499757 .37734986 .43499757 .35334779 .43499757 .33735658 .44599916 .31835938 .47299195 .31835938 .49499513 .31835938 .5269928 .3363495 .5269928 .37635804 .5269928 .42837525 .46798707 .4423828 .43399049 .4423828 .37599183 .4423828 .34098817 .38935853 .32899476 .36634828 .3039856 .43237306 .25 .4423828 .22099304 .4423828 .116989139 .4423828 .05999756 .3133545 .05999756 .28834535 .05999756 .27833558 .069992069 .27833558 .07199097 .27833558 .07998657 .27833558 .08299255 .28033448 .084991458 .28933717 .11898804 .39535523 .18499756 .42037965 .21899414 .42037965 .23799134 .42037965 .272995 .4113617 .272995 .35334779 .272995 .32235719 .2559967 .25532533 .21899414 .11528015 .20298767 .053268434 .16799927 .011245728 .12399292 .011245728 .117996219 .011245728 .09498596 .011245728 .07398987 .024276734 .09899902 .029266358 .12098694 .05027771 .12098694 .07827759 .12098694 .105270389 .09899902 .11328125 .083999637 .11328125 .053985597 .11328125 .0289917 .08728027 .0289917 .055267335 .0289917 .009246826 .07899475-.0107421879 .12298584-.0107421879 .18899536-.0107421879 .22499085 .059280397 .22799683 .0652771 .23999024 .028274537 .27598573-.0107421879 .33599855-.0107421879 .43899537-.0107421879 .49598695 .118270877 .49598695 .14328003 .49598695 .1532898 .4869995 .1532898 .48399354 .1532898 .47499085 .1532898 .47299195 .14929199 .47099305 .14228821 .43798829 .03527832 .36999513 .011245728 .33799745 .011245728 .29899598 .011245728 .2829895 .043273927 .2829895 .07727051 .2829895 .09927368 .2889862 .121276859 .2999878 .16529846L.33399964 .30233766Z"/>
<path id="font_1_2" d="M.48599244 .38136292C.48999024 .39537049 .48999024 .39736939 .48999024 .40437318 .48999024 .42237855 .47599793 .43138124 .46099855 .43138124 .45098878 .43138124 .43499757 .42536927 .42599488 .41036988 .42399598 .405365 .41600038 .37435914 .4119873 .35635377 .40499879 .33035279 .397995 .30334474 .3919983 .27633668L.34700013 .09628296C.34298707 .08126831 .2999878 .011245728 .23399353 .011245728 .18299866 .011245728 .17199707 .055267335 .17199707 .0922699 .17199707 .1382904 .18899536 .20030213 .22299195 .28833009 .23899842 .3293457 .24299622 .3403473 .24299622 .36035157 .24299622 .405365 .21099854 .4423828 .16099549 .4423828 .06599426 .4423828 .0289917 .29733277 .0289917 .28833009 .0289917 .27833558 .038986207 .27833558 .040985109 .27833558 .050994874 .27833558 .051986696 .28033448 .056991579 .29634095 .083999637 .3903656 .12399292 .42037965 .1579895 .42037965 .1659851 .42037965 .18299866 .42037965 .18299866 .3883667 .18299866 .36335755 .17298889 .3373413 .1659851 .31834413 .12599182 .21231079 .10798645 .1552887 .10798645 .10827637 .10798645 .019256592 .17098999-.0107421879 .22999573-.0107421879 .2689972-.0107421879 .30299378 .0062561037 .33099366 .03425598 .31799317-.017745972 .30599977-.06674194 .2659912-.11973572 .23999024-.15385437 .20199585-.18309021 .1559906-.18309021 .14199829-.18309021 .09700012-.18005371 .07998657-.14074707 .09599304-.14074707 .10899353-.14074707 .12298584-.1287384 .1329956-.11973572 .14299011-.10673523 .14299011-.08773804 .14299011-.056747438 .115997318-.052734376 .10598755-.052734376 .08299255-.052734376 .049987794-.068740848 .049987794-.11773682 .049987794-.16796875 .09399414-.20507813 .1559906-.20507813 .25898744-.20507813 .3619995-.11373901 .3899994-.00074768069L.48599244 .38136292Z"/>
<path id="font_2_3" d="M.4869995 .32635499C.49299623 .35235597 .5049896 .39837647 .5049896 .40237428 .5049896 .41537477 .49598695 .43138124 .47399903 .43138124 .45999146 .43138124 .44499208 .42237855 .43798829 .41036988 .43299867 .40037538 .36499024 .12928772 .35899354 .09628296 .33799745 .060272218 .2979889 .014251709 .24299622 .014251709 .18099976 .014251709 .18099976 .07727051 .18099976 .09628296 .18099976 .14129639 .19400025 .19030762 .23699951 .30233766 .24499512 .3253479 .25099183 .33935548 .25099183 .35835267 .25099183 .40737916 .21398926 .4423828 .16499329 .4423828 .068984989 .4423828 .0289917 .30033876 .0289917 .28833009 .0289917 .2793274 .035995485 .27633668 .042999269 .27633668 .053985597 .27633668 .054992677 .28233338 .05899048 .29533387 .07998657 .36735536 .11898804 .41737367 .1619873 .41737367 .18299866 .41737367 .18598938 .40237428 .18598938 .3843689 .18598938 .36735536 .18199158 .34934999 .17298889 .3253479 .12599182 .2013092 .11299133 .15930176 .11299133 .11128235 .11299133 .00024414063 .20298767-.0107421879 .23999024-.0107421879 .29699708-.0107421879 .33799745 .024246216 .3619995 .055267335 .3809967-.0107421879 .44699098-.0107421879 .45298768-.0107421879 .48199464-.0107421879 .5069885 .003250122 .5279999 .042251588 .54599 .07527161 .5609894 .13928223 .5609894 .14329529 .5609894 .14828491 .55799868 .1552887 .5479889 .1552887 .5359955 .1552887 .5349884 .15029907 .5309906 .13128662 .5109863 .052261354 .48999024 .014251709 .45599366 .014251709 .43199159 .014251709 .4249878 .03526306 .4249878 .060272218 .4249878 .07926941 .42999269 .09927368 .43899537 .1342926L.46398927 .23731995 .4869995 .32635499Z"/>
<path id="font_3_1" d="M.35899354 .6349335C.35899354 .66503909 .35499574 .66503909 .32499696 .66503909 .25898744 .60058596 .15699768 .60058596 .12098694 .60058596V.5615845C.14698792 .5615845 .21299744 .5615845 .272995 .58958438V.08496094C.272995 .051986696 .272995 .038986207 .16999817 .038986207H.1269989V0C.18199158 .0039978029 .2599945 .0039978029 .31599427 .0039978029 .37199403 .0039978029 .44999696 .0039978029 .5049896 0V.038986207H.46199037C.35899354 .038986207 .35899354 .051986696 .35899354 .08496094V.6349335Z"/>
<path id="font_2_2" d="M.18199158 .116867069C.1329956 .036987306 .08898926 .033981325 .04899597 .0309906 .041992189 .02999878 .036987306 .021987915 .036987306 .0129852299 .036987306 .0069885256 .040985109 0 .050994874 0 .069992069 0 .116989139 .0029907227 .13598633 .0029907227 .1579895 .0029907227 .21199036 0 .23399353 0 .23999024 0 .25299073 0 .25299073 .017990113 .25299073 .02999878 .24099732 .0309906 .23799134 .0309906 .22898865 .03199768 .19099427 .033981325 .19099427 .063949588 .19099427 .077926639 .20199585 .09689331 .20498657 .101882938L.28399659 .23068238H.54499819C.5479889 .2077179 .5509949 .17378235 .55400088 .14881897 .55799868 .10987854 .56399539 .06593323 .56399539 .062942508 .56399539 .047973634 .5499878 .0309906 .49198915 .0309906 .48199464 .0309906 .46899415 .0309906 .46899415 .0129852299 .46899415 .0019989014 .47698976 0 .48399354 0 .5029907 0 .5269928 .0019989014 .5469971 .0019989014 .5669861 .0019989014 .59098818 .0029907227 .6069946 .0029907227 .6399994 .0029907227 .6419983 .0029907227 .66600039 .0019989014 .6819916 .0009918213 .7049866 0 .72099307 0 .72698977 0 .73999026 0 .73999026 .017990113 .73999026 .0309906 .72898867 .0309906 .71699526 .0309906 .6569977 .0309906 .6559906 .037979127 .6529999 .06694031L.58299258 .68881228C.58099368 .7108154 .5799866 .7158203 .5629883 .7158203 .548996 .7158203 .54299929 .7088165 .5349884 .69581606L.18199158 .116867069M.30299378 .26168824 .5049896 .5917816 .5419922 .26168824H.30299378Z"/>
<path id="font_3_2" d="M.5379944 .18702698H.5009918C.49899293 .17301941 .4889984 .10699463 .47399903 .09599304 .46699525 .08999634 .38598634 .08999634 .37199403 .08999634H.18499756L.31298829 .19403076C.34700013 .22103882 .43598939 .28504945 .46699525 .31506349 .49699403 .3450775 .5379944 .39608766 .5379944 .46710206 .5379944 .5920563 .4249878 .66503909 .29100038 .66503909 .1619873 .66503909 .07199097 .58006289 .07199097 .48609925 .07199097 .43510438 .114990238 .42910768 .12599182 .42910768 .15098572 .42910768 .17999268 .44709779 .17999268 .48310853 .17999268 .50509646 .16699219 .5371094 .12298584 .5371094 .1459961 .5880585 .20698548 .6260376 .27598573 .6260376 .3809967 .6260376 .43699647 .5480957 .43699647 .46710206 .43699647 .39608766 .3899994 .32305909 .31999208 .25904847L.08299255 .041992189C.07299805 .03199768 .07199097 .0309906 .07199097 0H.5069885L.5379944 .18702698Z"/>
<path id="font_2_4" d="M.48098756 .3693695C.48098756 .43937684 .44400025 .44337464 .43499757 .44337464 .4099884 .44337464 .38398744 .41638185 .38398744 .39337159 .38398744 .3783722 .3929901 .37036134 .3999939 .36436463 .4269867 .33935548 .43598939 .30734254 .43598939 .28134156 .43598939 .23731995 .37298585 .014251709 .25698854 .014251709 .18199158 .014251709 .18199158 .08427429 .18199158 .10227966 .18199158 .14529419 .19599915 .19630432 .23098755 .28733827 .24699402 .3293457 .25099183 .33935548 .25099183 .35835267 .25099183 .40737916 .21398926 .4423828 .16499329 .4423828 .068984989 .4423828 .0289917 .30033876 .0289917 .28833009 .0289917 .2793274 .035995485 .27633668 .042999269 .27633668 .053985597 .27633668 .054992677 .28233338 .05899048 .29533387 .07998657 .36836244 .11999512 .41737367 .1619873 .41737367 .18199158 .41737367 .18598938 .40437318 .18598938 .3843689 .18598938 .36735536 .18199158 .34934999 .17298889 .3253479 .13699341 .22932434 .11299133 .16529846 .11299133 .11528015 .11299133 .021255494 .18399048-.0107421879 .25299073-.0107421879 .42099-.0107421879 .48098756 .30534364 .48098756 .3693695Z"/>
<path id="font_2_1" d="M.3659973 .28930665C.42399598 .14030457 .46199037 .028305054 .47099305 .015304565 .4909973-.010696411 .49899293-.010696411 .5289917-.010696411H.5519867C.5589905-.00970459 .56399539-.0066986086 .56399539 .000289917 .56399539 .0052948 .56199648 .007293701 .55799868 .011291504 .54599 .024291993 .54100039 .03729248 .5349884 .05430603L.32199098 .6263275C.29899598 .68733218 .23298645 .69433596 .19699097 .69433596 .18798828 .69433596 .1749878 .69433596 .1749878 .68133547 .1749878 .6713257 .18299866 .67033389 .19400025 .6693268 .22399903 .6643219 .23599243 .636322 .25099183 .59931948L.35398866 .3223114 .07199097 .05029297C.06199646 .040298463 .053985597 .033294679 .053985597 .018295289 .053985597-.0027008057 .07199097-.0126953129 .085998538-.0126953129 .102996829-.0126953129 .114990238 .0023040772 .11898804 .00630188L.3659973 .28930665Z"/>
<path id="font_4_5" d="M.70799258 .3310089C.7220001 .3310089 .7409973 .3310089 .7409973 .35202027 .7409973 .37402345 .71899417 .37402345 .70399478 .37402345H.09399414C.07899475 .37402345 .056991579 .37402345 .056991579 .35202027 .056991579 .3310089 .07699585 .3310089 .08999634 .3310089H.70799258M.70399478 .12695313C.71899417 .12695313 .7409973 .12695313 .7409973 .14894104 .7409973 .1699524 .7220001 .1699524 .70799258 .1699524H.08999634C.07699585 .1699524 .056991579 .1699524 .056991579 .14894104 .056991579 .12695313 .07899475 .12695313 .09399414 .12695313H.70399478Z"/>
<path id="font_4_3" d="M.46199037 .17704773H.43399049C.43199159 .16404724 .42399598 .10501099 .41099549 .08900452 .40499879 .07998657 .33599855 .07998657 .31599427 .07998657H.13798523L.23699951 .17404175C.40098573 .3161316 .46199037 .36915589 .46199037 .4711914 .46199037 .5860901 .36698915 .6660156 .24398804 .6660156 .1289978 .6660156 .050994874 .575119 .050994874 .4841919 .050994874 .43418885 .09399414 .42919923 .102996829 .42919923 .125 .42919923 .15499878 .44519044 .15499878 .48120118 .15499878 .51119998 .13398743 .5332031 .102996829 .5332031 .09799194 .5332031 .09498596 .5332031 .09098816 .53219607 .114990238 .6030731 .1789856 .63500979 .23298645 .63500979 .33499146 .63500979 .36999513 .5401764 .36999513 .4711914 .36999513 .36915589 .29299928 .28611756 .24499512 .23408509L.06199646 .035995485C.050994874 .024993897 .050994874 .022994996 .050994874 0H.43399049L.46199037 .17704773Z"/>
<path id="font_4_4" d="M.30499269 .35195924C.397995 .38697816 .44198609 .46006776 .44198609 .5290985 .44198609 .60606387 .35699464 .6660156 .25299073 .6660156 .14898682 .6660156 .070999149 .60705569 .070999149 .5310974 .070999149 .49809266 .09298706 .47909547 .12199402 .47909547 .15098572 .47909547 .17199707 .50009158 .17199707 .5290985 .17199707 .5640869 .147995 .57910159 .11399841 .57910159 .13999939 .6210327 .20098877 .64100649 .25 .64100649 .33299256 .64100649 .34899903 .5750885 .34899903 .52809146 .34899903 .49809266 .34298707 .45005799 .31799317 .41201783 .2869873 .36695863 .2519989 .36495973 .22299195 .36296083 .19799805 .36094667 .19599915 .36094667 .18798828 .36094667 .1789856 .35995484 .17098999 .35894776 .17098999 .34794618 .17098999 .33496095 .1789856 .33496095 .19599915 .33496095H.24299622C.32998658 .33496095 .36799623 .2646637 .36799623 .16937256 .36799623 .04145813 .2999878 .0055389406 .24899292 .0055389406 .22999573 .0055389406 .1329956 .010528564 .08799744 .0843811 .12399292 .07939148 .1519928 .10437012 .1519928 .13838196 .1519928 .17137146 .1269989 .19238281 .09799194 .19238281 .07299805 .19238281 .042999269 .17736817 .042999269 .13537598 .042999269 .046447755 .13598633-.022460938 .2519989-.022460938 .3769989-.022460938 .46998597 .06741333 .46998597 .16937256 .46998597 .25663758 .40098573 .33093263 .30499269 .35195924Z"/>
<path id="font_5_1" d="M.7200012-2.3459473C.7200012-2.3419495 .7200012-2.3399506 .70700076-2.32695 .3939972-2.0259553 .30099488-1.5739594 .30099488-1.1579743 .30099488-.73898318 .3909912-.29400636 .70899966 .01399231 .7200012 .024978638 .7200012 .026977539 .7200012 .0309906 .7200012 .041992189 .70999148 .041992189 .69799807 .041992189 .6839905 .041992189 .6819916 .041992189 .6689911 .02998352 .33299256-.2669983 .21398926-.71899417 .21398926-1.1569824 .21398926-1.410965 .2519989-1.7479553 .42999269-2.053955 .48599244-2.1509553 .5629883-2.2489472 .6579895-2.3359376 .68099978-2.3569489 .68299868-2.3569489 .69799807-2.3569489 .70999148-2.3569489 .7200012-2.3569489 .7200012-2.3459473Z"/>
<path id="font_4_2" d="M.3039856 .6392822C.3039856 .6642761 .30299378 .666275 .27799989 .666275 .21598816 .60227969 .12399292 .60227969 .09298706 .60227969V.57128909C.11199951 .57128909 .17298889 .57128909 .22698975 .5972748V.08001709C.22698975 .042999269 .22399903 .0309906 .1309967 .0309906H.09899902V0C.1349945 .0029907227 .22399903 .0029907227 .2649994 .0029907227 .30599977 .0029907227 .3959961 .0029907227 .43199159 0V.0309906H.3999939C.30699159 .0309906 .3039856 .042999269 .3039856 .08001709V.6392822Z"/>
<path id="font_4_1" d="M.47299195 .31976319C.47299195 .38682557 .46998597 .47288514 .43499757 .5479431 .3909912 .64201357 .31498719 .6660156 .25698854 .6660156 .19699097 .6660156 .12098694 .64201357 .07699585 .5459442 .04499817 .47688294 .039993287 .39582826 .039993287 .31976319 .039993287 .25471498 .041992189 .15765381 .084991458 .07858276 .13198853-.0064697267 .20999146-.022460938 .2559967-.022460938 .32099916-.022460938 .394989 .0055389406 .43699647 .097595218 .46699525 .1646576 .47299195 .23971558 .47299195 .31976319M.25698854 .002532959C.22698975 .002532959 .15499878 .016540528 .13598633 .12962342 .12599182 .18867493 .12599182 .2747345 .12599182 .33177186 .12599182 .39982606 .12599182 .47888185 .13798523 .53393557 .1579895 .6230011 .22200012 .64100649 .2559967 .64100649 .2939911 .64100649 .35699464 .62098696 .37599183 .5279236 .3869934 .47288514 .3869934 .39482118 .3869934 .33177186 .3869934 .2697296 .3869934 .18566895 .3769989 .12661743 .35598756 .012542725 .28199769 .002532959 .25698854 .002532959Z"/>
<path id="font_5_2" d="M.5419922-1.1579743C.5419922-.9039917 .5039978-.56700137 .32598878-.2610016 .269989-.16400147 .19299317-.06600952 .09799194 .020996094 .07499695 .041992189 .07299805 .041992189 .057998659 .041992189 .04598999 .041992189 .035995485 .041992189 .035995485 .0309906 .035995485 .025985718 .035995485 .023986817 .04899597 .011993408 .21398926-.14300537 .31900025-.34899903 .3809967-.56700137 .43299867-.7509918 .45498658-.9549866 .45498658-1.1569824 .45498658-1.5689697 .3659973-2.0209504 .04699707-2.328949 .038986207-2.3369446 .035995485-2.3409425 .035995485-2.3459473 .035995485-2.3569489 .04598999-2.3569489 .057998659-2.3569489 .07199097-2.3569489 .07398987-2.3569489 .08699036-2.3449403 .4229889-2.0479584 .5419922-1.5959625 .5419922-1.1579743Z"/>
<path id="font_6_2" d="M.16999817 .1111145C.1349945 .05203247 .100997928 .03199768 .052993776 .0289917 .041992189 .027999878 .033996583 .027999878 .033996583 .009994507 .033996583 .0039978029 .038986207 0 .04598999 0 .06399536 0 .10899353 .0019989014 .1269989 .0019989014 .1559906 .0019989014 .18798828 0 .21598816 0 .22200012 0 .23399353 0 .23399353 .018997193 .23399353 .027999878 .22599793 .0289917 .21998596 .0289917 .19699097 .0309906 .17799378 .039001466 .17799378 .06304932 .17799378 .07707214 .18399048 .08808899 .19699097 .11012268L.272995 .23632813H.5279999C.5289917 .22731018 .5289917 .21929932 .5299988 .21028137 .5329895 .18423462 .54499819 .080078128 .54499819 .061050416 .54499819 .0309906 .49398805 .0289917 .47799684 .0289917 .46699525 .0289917 .45599366 .0289917 .45599366 .010986328 .45599366 0 .46499635 0 .47099305 0 .48799134 0 .5079956 .0019989014 .5249939 .0019989014H.58200076C.6429901 .0019989014 .68699648 0 .6879883 0 .69499209 0 .70599368 0 .70599368 .018997193 .70599368 .0289917 .69699099 .0289917 .6819916 .0289917 .6269989 .0289917 .6259918 .038009645 .6230011 .0680542L.56199648 .691864C.55999758 .711853 .55599978 .7138672 .54499819 .7138672 .5349884 .7138672 .5289917 .711853 .519989 .69685366L.16999817 .1111145M.2899933 .26531983 .4909973 .6009674 .5249939 .26531983H.2899933Z"/>
<path id="font_6_3" d="M.45700074 .3743744C.45700074 .4373932 .4249878 .44140626 .4169922 .44140626 .3929901 .44140626 .37098695 .41740418 .37098695 .39738465 .37098695 .38539125 .37799073 .37838746 .38198854 .3743744 .3919983 .3653717 .41799928 .33836366 .41799928 .28634645 .41799928 .24432373 .35798646 .010223389 .23799134 .010223389 .1769867 .010223389 .16499329 .06124878 .16499329 .0982666 .16499329 .14828491 .18798828 .2183075 .21499634 .29034425 .23098755 .33135987 .23498535 .34136964 .23498535 .3613739 .23498535 .4033966 .20498657 .44140626 .1559906 .44140626 .06399536 .44140626 .026992798 .29634095 .026992798 .28834535 .026992798 .28434754 .0309906 .27934266 .037994386 .27934266 .04699707 .27934266 .04798889 .28334046 .051986696 .29734803 .07598877 .38337709 .114990238 .42140199 .15299988 .42140199 .1619873 .42140199 .1789856 .42140199 .1789856 .38838197 .1789856 .36238099 .16799927 .33335877 .15299988 .29534913 .10499573 .16729737 .10499573 .13627625 .10499573 .11227417 .10499573 .09025574 .10798645 .049240114 .13899231 .021224976 .1749878-.009765625 .22499085-.009765625 .23399353-.009765625 .3999939-.009765625 .45700074 .3173523 .45700074 .3743744Z"/>
<path id="font_7_1" d="M.6749878 .32421876C.68899539 .32421876 .70700076 .32421876 .70700076 .34220887 .70700076 .36120606 .6899872 .36120606 .6749878 .36120606H.085998538C.07199097 .36120606 .053985597 .36120606 .053985597 .34321595 .053985597 .32421876 .070999149 .32421876 .085998538 .32421876H.6749878M.6749878 .13780213C.68899539 .13780213 .70700076 .13780213 .70700076 .15579224 .70700076 .17480469 .6899872 .17480469 .6749878 .17480469H.085998538C.07199097 .17480469 .053985597 .17480469 .053985597 .15679932 .053985597 .13780213 .070999149 .13780213 .085998538 .13780213H.6749878Z"/>
<path id="font_6_1" d="M.30899049 .62332156C.28399659 .69433596 .20498657 .69433596 .19198609 .69433596 .18598938 .69433596 .1749878 .69433596 .1749878 .6843262 .1749878 .67633059 .18099976 .6753235 .18598938 .67433169 .20098877 .67233279 .21299744 .67033389 .22898865 .6413269 .23899842 .62231448 .34199525 .3232727 .34199525 .3212738 .34199525 .32026673 .34098817 .3192749 .33299256 .3112793L.07299805 .048233034C.06098938 .036224367 .052993776 .02822876 .052993776 .0152282719 .052993776 .0012207031 .06498718-.010772705 .08099365-.010772705 .084991458-.010772705 .09599304-.008773804 .101989749-.0027770997 .117996219 .01222229 .26098634 .18725586 .35198976 .29527284 .37799073 .21725464 .4099884 .12524414 .44099427 .041229249 .44599916 .026229859 .45098878 .01222229 .46499635-.00077819827 .47499085-.009765625 .47698976-.009765625 .5049896-.009765625H.5239868C.5279999-.009765625 .5349884-.009765625 .5349884-.0017700195 .5349884 .0022277833 .5339966 .0032196046 .5299988 .007232666 .5209961 .018234253 .5139923 .036224367 .5099945 .048233034L.30899049 .62332156Z"/>
</defs>
<path transform="matrix(1,0,0,-1,44.08513,161.12374)" stroke-width=".19925" stroke-linecap="butt" stroke-miterlimit="10" stroke-linejoin="miter" fill="none" stroke="#dfdfdf" d="M-29.76422-29.7642H133.93904M-29.76422-14.8821H133.93904M-29.76422 0H133.93904M-29.76422 14.8821H133.93904M-29.76422 29.7642H133.93904M-29.76422 44.64632H133.93904M-29.76422 59.52843H133.93904M-29.76422 74.41052H133.93904M-29.76422 89.29265H133.93904M-29.76422 104.17476H133.93904M-29.76422 119.05687H133.93904M-29.76422 133.93898H133.93904M-29.7642-29.76422V133.93904M-14.8821-29.76422V133.93904M0-29.76422V133.93904M14.8821-29.76422V133.93904M29.7642-29.76422V133.93904M44.64632-29.76422V133.93904M59.52843-29.76422V133.93904M74.41052-29.76422V133.93904M89.29265-29.76422V133.93904M104.17476-29.76422V133.93904M119.05687-29.76422V133.93904M133.93898-29.76422V133.93904M133.93904 133.93904"/>
<path transform="matrix(1,0,0,-1,44.08513,161.12374)" stroke-width=".79701" stroke-linecap="butt" stroke-miterlimit="10" stroke-linejoin="miter" fill="none" stroke="#000000" d="M-35.71698 0H133.71486"/>
<path transform="matrix(1,0,0,-1,177.79999,161.12374)" d="M4.53381 0C3.97704 .13808 1.52963 .92049 0 1.77196V-1.77196C1.52963-.92049 3.97704-.13808 4.53381 0Z"/>
<path transform="matrix(1,0,0,-1,177.79999,161.12374)" stroke-width=".79701" stroke-linecap="butt" stroke-miterlimit="10" stroke-linejoin="miter" fill="none" stroke="#000000" d="M4.53381 0C3.97704 .13808 1.52963 .92049 0 1.77196V-1.77196C1.52963-.92049 3.97704-.13808 4.53381 0Z"/>
<use data-text="x" xlink:href="#font_1_1" transform="matrix(9.96264,0,0,-9.96264,187.69599,163.26847)"/>
<path transform="matrix(1,0,0,-1,44.08513,161.12374)" stroke-width=".79701" stroke-linecap="butt" stroke-miterlimit="10" stroke-linejoin="miter" fill="none" stroke="#000000" d="M0-35.71698V133.71486"/>
<path transform="matrix(0,-1,-1,-0,44.08513,27.408875)" d="M4.53381 0C3.97704 .13808 1.52963 .92049 0 1.77196V-1.77196C1.52963-.92049 3.97704-.13808 4.53381 0Z"/>
<path transform="matrix(0,-1,-1,-0,44.08513,27.408875)" stroke-width=".79701" stroke-linecap="butt" stroke-miterlimit="10" stroke-linejoin="miter" fill="none" stroke="#000000" d="M4.53381 0C3.97704 .13808 1.52963 .92049 0 1.77196V-1.77196C1.52963-.92049 3.97704-.13808 4.53381 0Z"/>
<use data-text="y" xlink:href="#font_1_2" transform="matrix(9.96264,0,0,-9.96264,41.464128,15.575684)"/>
<path transform="matrix(1,0,0,-1,44.08513,161.12374)" stroke-width=".79701" stroke-linecap="butt" stroke-miterlimit="10" stroke-linejoin="miter" fill="none" stroke="#595959" d="M0 0-12.11993 24.2398"/>
<path transform="matrix(-.44717,-.89436,-.89436,.44717,31.965199,136.88394)" d="M4.53381 0C3.97704 .13808 1.52963 .92049 0 1.77196V-1.77196C1.52963-.92049 3.97704-.13808 4.53381 0Z" fill="#595959"/>
<path transform="matrix(-.44717,-.89436,-.89436,.44717,31.965199,136.88394)" stroke-width=".79701" stroke-linecap="butt" stroke-miterlimit="10" stroke-linejoin="miter" fill="none" stroke="#595959" d="M4.53381 0C3.97704 .13808 1.52963 .92049 0 1.77196V-1.77196C1.52963-.92049 3.97704-.13808 4.53381 0Z"/>
<use data-text="u" xlink:href="#font_2_3" transform="matrix(8.966376,0,0,-8.966376,16.029803,126.64418)" fill="#595959"/>
<use data-text="1" xlink:href="#font_3_1" transform="matrix(5.977584,0,0,-5.977584,21.332802,127.64043)" fill="#595959"/>
<path transform="matrix(1,0,0,-1,44.08513,161.12374)" stroke-width=".79701" stroke-linecap="butt" stroke-dasharray="2.98883,2.98883" stroke-miterlimit="10" stroke-linejoin="miter" fill="none" stroke="#595959" d="M0 0V83.11575"/>
<path transform="matrix(0,-1,-1,-0,44.08513,78.00798)" d="M4.53381 0C3.97704 .13808 1.52963 .92049 0 1.77196V-1.77196C1.52963-.92049 3.97704-.13808 4.53381 0Z" fill="#595959"/>
<path transform="matrix(0,-1,-1,-0,44.08513,78.00798)" stroke-width=".79701" stroke-linecap="butt" stroke-miterlimit="10" stroke-linejoin="miter" fill="none" stroke="#595959" d="M4.53381 0C3.97704 .13808 1.52963 .92049 0 1.77196V-1.77196C1.52963-.92049 3.97704-.13808 4.53381 0Z"/>
<use data-text="A" xlink:href="#font_2_2" transform="matrix(8.966376,0,0,-8.966376,44.83229,83.32582)" fill="#595959"/>
<use data-text="u" xlink:href="#font_2_3" transform="matrix(8.966376,0,0,-8.966376,51.736406,83.32582)" fill="#595959"/>
<use data-text="1" xlink:href="#font_3_1" transform="matrix(5.977584,0,0,-5.977584,57.045454,84.32207)" fill="#595959"/>
<path transform="matrix(1,0,0,-1,44.08513,161.12374)" stroke-width=".79701" stroke-linecap="butt" stroke-miterlimit="10" stroke-linejoin="miter" fill="none" stroke="#595959" d="M0 0 39.1962-20.90471"/>
<path transform="matrix(.88234,.47058,.47058,-.88234,83.28131,182.02843)" d="M4.53381 0C3.97704 .13808 1.52963 .92049 0 1.77196V-1.77196C1.52963-.92049 3.97704-.13808 4.53381 0Z" fill="#595959"/>
<path transform="matrix(.88234,.47058,.47058,-.88234,83.28131,182.02843)" stroke-width=".79701" stroke-linecap="butt" stroke-miterlimit="10" stroke-linejoin="miter" fill="none" stroke="#595959" d="M4.53381 0C3.97704 .13808 1.52963 .92049 0 1.77196V-1.77196C1.52963-.92049 3.97704-.13808 4.53381 0Z"/>
<use data-text="u" xlink:href="#font_2_3" transform="matrix(8.966376,0,0,-8.966376,84.00438,192.5148)" fill="#595959"/>
<use data-text="2" xlink:href="#font_3_2" transform="matrix(5.977584,0,0,-5.977584,89.30738,193.51105)" fill="#595959"/>
<path transform="matrix(1,0,0,-1,44.08513,161.12374)" stroke-width=".79701" stroke-linecap="butt" stroke-dasharray="2.98883,2.98883" stroke-miterlimit="10" stroke-linejoin="miter" fill="none" stroke="#595959" d="M0 0 61.30754-66.88094"/>
<path transform="matrix(.67569,.7371,.7371,-.67569,105.392658,228.00466)" d="M4.53381 0C3.97704 .13808 1.52963 .92049 0 1.77196V-1.77196C1.52963-.92049 3.97704-.13808 4.53381 0Z" fill="#595959"/>
<path transform="matrix(.67569,.7371,.7371,-.67569,105.392658,228.00466)" stroke-width=".79701" stroke-linecap="butt" stroke-miterlimit="10" stroke-linejoin="miter" fill="none" stroke="#595959" d="M4.53381 0C3.97704 .13808 1.52963 .92049 0 1.77196V-1.77196C1.52963-.92049 3.97704-.13808 4.53381 0Z"/>
<use data-text="A" xlink:href="#font_2_2" transform="matrix(8.966376,0,0,-8.966376,95.4314,242.56417)" fill="#595959"/>
<use data-text="u" xlink:href="#font_2_3" transform="matrix(8.966376,0,0,-8.966376,102.33551,242.56417)" fill="#595959"/>
<use data-text="2" xlink:href="#font_3_2" transform="matrix(5.977584,0,0,-5.977584,107.64456,243.56041)" fill="#595959"/>
<path transform="matrix(1,0,0,-1,44.08513,161.12374)" stroke-width="1.19553" stroke-linecap="butt" stroke-miterlimit="10" stroke-linejoin="miter" fill="none" stroke="#b30000" d="M0 0H21.99327"/>
<path transform="matrix(1,0,0,-1,66.0784,161.12374)" d="M5.30629 0C4.65466 .16344 1.79025 1.08963 0 2.09753V-2.09753C1.79025-1.08963 4.65466-.16344 5.30629 0Z" fill="#b30000"/>
<path transform="matrix(1,0,0,-1,66.0784,161.12374)" stroke-width="1.19553" stroke-linecap="butt" stroke-miterlimit="10" stroke-linejoin="miter" fill="none" stroke="#b30000" d="M5.30629 0C4.65466 .16344 1.79025 1.08963 0 2.09753V-2.09753C1.79025-1.08963 4.65466-.16344 5.30629 0Z"/>
<path transform="matrix(1,0,0,-1,44.08513,161.12374)" stroke-width="1.19553" stroke-linecap="butt" stroke-dasharray="2.98883,2.98883" stroke-miterlimit="10" stroke-linejoin="miter" fill="none" stroke="#b30000" d="M31.2525 0H51.7575"/>
<path transform="matrix(1,0,0,-1,95.84263,161.12374)" d="M5.30629 0C4.65466 .16344 1.79025 1.08963 0 2.09753V-2.09753C1.79025-1.08963 4.65466-.16344 5.30629 0Z" fill="#b30000"/>
<path transform="matrix(1,0,0,-1,95.84263,161.12374)" stroke-width="1.19553" stroke-linecap="butt" stroke-miterlimit="10" stroke-linejoin="miter" fill="none" stroke="#b30000" d="M5.30629 0C4.65466 .16344 1.79025 1.08963 0 2.09753V-2.09753C1.79025-1.08963 4.65466-.16344 5.30629 0Z"/>
<use data-text="v" xlink:href="#font_2_4" transform="matrix(8.966376,0,0,-8.966376,69.535648,155.11937)" fill="#b30000"/>
<use data-text="1" xlink:href="#font_3_1" transform="matrix(5.977584,0,0,-5.977584,74.01189,156.11562)" fill="#b30000"/>
<use data-text="&#x03bb;" xlink:href="#font_2_1" transform="matrix(8.966376,0,0,-8.966376,75.52053,172.35857)" fill="#b30000"/>
<use data-text="1" xlink:href="#font_3_1" transform="matrix(5.977584,0,0,-5.977584,80.89617,173.35482)" fill="#b30000"/>
<use data-text="=" xlink:href="#font_4_5" transform="matrix(8.966376,0,0,-8.966376,87.60704,172.35857)" fill="#b30000"/>
<use data-text="2" xlink:href="#font_4_3" transform="matrix(8.966376,0,0,-8.966376,97.32659,172.35857)" fill="#b30000"/>
<path transform="matrix(1,0,0,-1,44.08513,161.12374)" stroke-width="1.19553" stroke-linecap="butt" stroke-miterlimit="10" stroke-linejoin="miter" fill="none" stroke="#b30000" d="M0 0 24.26933 24.26933"/>
<path transform="matrix(.7071,-.7071,-.7071,-.7071,68.35446,136.8544)" d="M5.30629 0C4.65466 .16344 1.79025 1.08963 0 2.09753V-2.09753C1.79025-1.08963 4.65466-.16344 5.30629 0Z" fill="#b30000"/>
<path transform="matrix(.7071,-.7071,-.7071,-.7071,68.35446,136.8544)" stroke-width="1.19553" stroke-linecap="butt" stroke-miterlimit="10" stroke-linejoin="miter" fill="none" stroke="#b30000" d="M5.30629 0C4.65466 .16344 1.79025 1.08963 0 2.09753V-2.09753C1.79025-1.08963 4.65466-.16344 5.30629 0Z"/>
<path transform="matrix(1,0,0,-1,44.08513,161.12374)" stroke-width="1.19553" stroke-linecap="butt" stroke-dasharray="2.98883,2.98883" stroke-miterlimit="10" stroke-linejoin="miter" fill="none" stroke="#b30000" d="M31.2525 31.2525 83.79779 83.79779"/>
<path transform="matrix(.7071,-.7071,-.7071,-.7071,127.88292,77.32594)" d="M5.30629 0C4.65466 .16344 1.79025 1.08963 0 2.09753V-2.09753C1.79025-1.08963 4.65466-.16344 5.30629 0Z" fill="#b30000"/>
<path transform="matrix(.7071,-.7071,-.7071,-.7071,127.88292,77.32594)" stroke-width="1.19553" stroke-linecap="butt" stroke-miterlimit="10" stroke-linejoin="miter" fill="none" stroke="#b30000" d="M5.30629 0C4.65466 .16344 1.79025 1.08963 0 2.09753V-2.09753C1.79025-1.08963 4.65466-.16344 5.30629 0Z"/>
<use data-text="v" xlink:href="#font_2_4" transform="matrix(8.966376,0,0,-8.966376,61.702135,126.84343)" fill="#b30000"/>
<use data-text="2" xlink:href="#font_3_2" transform="matrix(5.977584,0,0,-5.977584,66.178379,127.839679)" fill="#b30000"/>
<use data-text="&#x03bb;" xlink:href="#font_2_1" transform="matrix(8.966376,0,0,-8.966376,136.89766,81.57759)" fill="#b30000"/>
<use data-text="2" xlink:href="#font_3_2" transform="matrix(5.977584,0,0,-5.977584,142.2733,82.57384)" fill="#b30000"/>
<use data-text="=" xlink:href="#font_4_5" transform="matrix(8.966376,0,0,-8.966376,148.98418,81.57759)" fill="#b30000"/>
<use data-text="3" xlink:href="#font_4_4" transform="matrix(8.966376,0,0,-8.966376,158.70372,81.57759)" fill="#b30000"/>
<path transform="matrix(1,0,0,-1,44.08513,161.12374)" d="M127.16972-5.8907H75.2267C73.02576-5.8907 71.2416-7.67487 71.2416-9.87581V-31.7939C71.2416-33.99484 73.02576-35.779 75.2267-35.779H127.16972C129.37067-35.779 131.15483-33.99484 131.15483-31.7939V-9.87581C131.15483-7.67487 129.37067-5.8907 127.16972-5.8907ZM71.2416-35.779" fill="#fffcd5"/>
<path transform="matrix(1,0,0,-1,44.08513,161.12374)" stroke-width=".3985" stroke-linecap="butt" stroke-miterlimit="10" stroke-linejoin="miter" fill="none" stroke="#000000" d="M127.16972-5.8907H75.2267C73.02576-5.8907 71.2416-7.67487 71.2416-9.87581V-31.7939C71.2416-33.99484 73.02576-35.779 75.2267-35.779H127.16972C129.37067-35.779 131.15483-33.99484 131.15483-31.7939V-9.87581C131.15483-7.67487 129.37067-5.8907 127.16972-5.8907ZM71.2416-35.779"/>
<use data-text="A" xlink:href="#font_2_2" transform="matrix(8.966376,0,0,-8.966376,119.31183,184.20021)"/>
<use data-text="=" xlink:href="#font_4_5" transform="matrix(8.966376,0,0,-8.966376,128.78182,184.20021)"/>
<use data-text="(" xlink:href="#font_5_1" transform="matrix(8.966376,0,0,-8.966376,138.50916,171.57746)"/>
<use data-text="2" xlink:href="#font_4_3" transform="matrix(8.966376,0,0,-8.966376,145.29268,178.67093)"/>
<use data-text="1" xlink:href="#font_4_2" transform="matrix(8.966376,0,0,-8.966376,159.85408,178.67093)"/>
<use data-text="0" xlink:href="#font_4_1" transform="matrix(8.966376,0,0,-8.966376,145.29268,189.62982)"/>
<use data-text="3" xlink:href="#font_4_4" transform="matrix(8.966376,0,0,-8.966376,159.85408,189.62982)"/>
<use data-text=")" xlink:href="#font_5_2" transform="matrix(8.966376,0,0,-8.966376,164.4707,171.57746)"/>
<use data-text="A" xlink:href="#font_6_2" transform="matrix(11.955168,0,0,-11.955168,72.92067,23.664872)"/>
<use data-text="v" xlink:href="#font_6_3" transform="matrix(11.955168,0,0,-11.955168,81.69576,23.664872)"/>
<use data-text="=" xlink:href="#font_7_1" transform="matrix(11.955168,0,0,-11.955168,91.10507,23.664872)"/>
<use data-text="&#x03bb;" xlink:href="#font_6_1" transform="matrix(11.955168,0,0,-11.955168,103.53055,23.664872)"/>
<use data-text="v" xlink:href="#font_6_3" transform="matrix(11.955168,0,0,-11.955168,110.35695,23.664872)"/>
</svg>
