<svg xmlns="http://www.w3.org/2000/svg" xmlns:xlink="http://www.w3.org/1999/xlink" xmlns:inkscape="http://www.inkscape.org/namespaces/inkscape" version="1.1" width="450.44" height="202.67" viewBox="0 0 450.44 202.67">
<defs>
<path id="font_1_97" d="M.57398989 .20323181C.57398989 .31422425 .49299623 .39523316 .4019928 .41423036L.25698854 .4452362C.21699524 .4542389 .16099549 .48823548 .16099549 .5492401 .16099549 .59225466 .18899536 .6542511 .2889862 .6542511 .36898805 .6542511 .46998597 .6202545 .49299623 .48423768 .49699403 .4602356 .49699403 .4582367 .5179901 .4582367 .5419922 .4582367 .5419922 .46324159 .5419922 .48623658V.6692505C.5419922 .68826296 .5419922 .6972656 .5239868 .6972656 .5159912 .6972656 .5149994 .69625857 .5039978 .68626406L.45899964 .6422577C.40098573 .68826296 .33599855 .6972656 .28799439 .6972656 .13598633 .6972656 .06399536 .6012573 .06399536 .49624635 .06399536 .4312439 .09700012 .38523866 .117996219 .36323548 .16699219 .31422425 .20098877 .30723573 .30999757 .28323365 .397995 .2642212 .4149933 .26123048 .43699647 .24023438 .45199586 .22523499 .47698976 .19923401 .47698976 .15324402 .47698976 .10523987 .45098878 .036254884 .34700013 .036254884 .2709961 .036254884 .11898804 .056243898 .11099243 .20523072 .10998535 .22322083 .10998535 .22822571 .08799744 .22822571 .06399536 .22822571 .06399536 .222229 .06399536 .19923401V.01725769C.06399536-.0017547608 .06399536-.0107421879 .08198547-.0107421879 .09098816-.0107421879 .09298706-.008743286 .100997928-.0017547608L.14698792 .04425049C.21299744-.0047454836 .30599977-.0107421879 .34700013-.0107421879 .5119934-.0107421879 .57398989 .102249149 .57398989 .20323181Z"/>
<path id="font_1_105" d="M.38198854 .124176029V.17721558H.33499146V.12619019C.33499146 .058151246 .30299378 .03413391 .2749939 .03413391 .21699524 .03413391 .21699524 .09817505 .21699524 .1211853V.3973236H.36299134V.44433595H.21699524V.6357422H.16999817C.16899109 .53552249 .11999512 .43632508 .020996094 .43333436V.3973236H.102996829V.123184207C.102996829 .01612854 .18998719-.005859375 .26098634-.005859375 .33699037-.005859375 .38198854 .05114746 .38198854 .124176029Z"/>
<path id="font_1_28" d="M.5529938 .023986817C.5529938 .04699707 .5399933 .04699707 .5269928 .04699707 .46598817 .04798889 .46598817 .06100464 .46598817 .083999637V.29907228C.46598817 .3881073 .394989 .453125 .24598694 .453125 .18899536 .453125 .066986087 .44911195 .066986087 .36109925 .066986087 .3170929 .101989749 .29808045 .1289978 .29808045 .1599884 .29808045 .19198609 .3190918 .19198609 .36109925 .19198609 .39111329 .17298889 .40811158 .16999817 .41011048 .19799805 .41612245 .22999573 .41711427 .24198914 .41711427 .31698609 .41711427 .35198976 .3751068 .35198976 .29907228V.26506043C.2809906 .2620697 .026992798 .25306703 .026992798 .10801697 .026992798 .012130737 .15098572-.005859375 .21998596-.005859375 .2999878-.005859375 .34700013 .035125734 .36898805 .07713318 .36898805 .04598999 .36898805 0 .47299195 0H.5209961C.54100039 0 .5529938 0 .5529938 .023986817M.35198976 .13899231C.35198976 .043151857 .2599945 .030136109 .23498535 .030136109 .18399048 .030136109 .14399719 .06517029 .14399719 .10922241 .14399719 .21734619 .3019867 .23136902 .35198976 .234375V.13899231Z"/>
<path id="font_1_77" d="M.61499026 0V.04699707H.54599V.30613709C.54599 .41119386 .49198915 .4501953 .3919983 .4501953 .29599 .4501953 .24299622 .39318849 .21699524 .3421631V.4501953L.04499817 .4423828V.39537049C.10699463 .39537049 .11399841 .39537049 .11399841 .3563385V.04699707H.04499817V0L.17098999 .0029907227 .29699708 0V.04699707H.22799683V.2562256C.22799683 .3653412 .31399537 .41436769 .3769989 .41436769 .41099549 .41436769 .43199159 .39337159 .43199159 .31729127V.04699707H.36299134V0L.4889984 .0029907227 .61499026 0Z"/>
<path id="font_1_47" d="M.6009979 0V.04699707C.5389862 .04699707 .5319977 .04699707 .5319977 .086013797V.69433596L.35499574 .6855469V.63853457C.4169922 .63853457 .42399598 .63853457 .42399598 .5996704V.40518189C.37399293 .44418336 .32199098 .4501953 .2889862 .4501953 .14299011 .4501953 .037994386 .36218263 .037994386 .22116089 .037994386 .089141849 .12998963-.005859375 .27799989-.005859375 .33898927-.005859375 .3869934 .018127442 .41799928 .043136598V-.005859375L.6009979 0M.41799928 .102996829C.40499879 .08514404 .3639984 .030136109 .28799439 .030136109 .1659851 .030136109 .1659851 .15115357 .1659851 .22116089 .1659851 .26916505 .1659851 .3231659 .19198609 .36218263 .22099304 .40419007 .2679901 .41418458 .29899598 .41418458 .35598756 .41418458 .3959961 .3821869 .41799928 .35317994V.102996829Z"/>
<path id="font_1_96" d="M.44198609 .36819459C.44198609 .42118836 .3880005 .4501953 .33599855 .4501953 .2659912 .4501953 .22599793 .40019227 .20298767 .33718873V.4501953L.036987306 .4423828V.39537049C.09899902 .39537049 .10598755 .39537049 .10598755 .3563385V.04699707H.036987306V0L.16299439 .0029907227C.20098877 .0029907227 .2649994 .0029907227 .30099488 0V.04699707H.21398926V.22218323C.21398926 .29226686 .23899842 .41436769 .33898927 .41436769 .33898927 .41436769 .31999208 .39736939 .31999208 .36834718 .31999208 .32730104 .35198976 .3072815 .3809967 .3072815 .4099884 .3072815 .44198609 .3283081 .44198609 .36834718V.36819459Z"/>
<path id="font_1_35" d="M.59999087 .22319031C.59999087 .3561859 .5059967 .4501953 .36099244 .4501953 .28799439 .4501953 .23799134 .42118836 .21398926 .40118409V.69433596L.036987306 .6863251V.639328C.09899902 .639328 .10598755 .639328 .10598755 .600296V.00018310547H.15299988C.16899109 .019180298 .18598938 .03718567 .20199585 .05618286 .20999146 .04814148 .25898744-.005859375 .34799195-.005859375 .49699403-.005859375 .59999087 .08413696 .59999087 .22315979V.22319031M.47200013 .22315979C.47200013 .17614746 .47200013 .12113953 .44599916 .08213806 .4169922 .041137697 .37098695 .030136109 .33898927 .030136109 .2689972 .030136109 .22999573 .08413696 .21998596 .09913635V.35017396C.24699402 .3851776 .29499818 .41418458 .34999085 .41418458 .47200013 .41418458 .47200013 .2931671 .47200013 .22315979Z"/>
<path id="font_1_98" d="M.4149933 .14012146C.4149933 .18312073 .394989 .21812439 .3600006 .24612427 .32099916 .27511598 .2889862 .28112794 .21099854 .29412843 .17399597 .30111695 .10899353 .31211854 .10899353 .3591156 .10899353 .42111207 .20199585 .42111207 .22099304 .42111207 .29599 .42111207 .33399964 .39212037 .33898927 .33711244 .33999635 .32211305 .34098817 .3171234 .3619995 .3171234 .38598634 .3171234 .38598634 .32211305 .38598634 .3451233V.42510987C.38598634 .4441223 .38598634 .453125 .36799623 .453125 .3639984 .453125 .3619995 .453125 .32299806 .43411256 .29699708 .44711305 .2619934 .453125 .22200012 .453125 .19198609 .453125 .037994386 .453125 .037994386 .32211305 .037994386 .28211976 .057998659 .25512696 .07798767 .23812866 .117996219 .203125 .1559906 .1971283 .23298645 .18312073 .2689972 .17712403 .34399415 .16412354 .34399415 .10513306 .34399415 .030136109 .2519989 .030136109 .22999573 .030136109 .12399292 .030136109 .09799194 .103134158 .085998538 .14613343 .08099365 .16012573 .07598877 .16012573 .06199646 .16012573 .037994386 .16012573 .037994386 .15412903 .037994386 .13113404V.022140503C.037994386 .0031280518 .037994386-.005859375 .055999757-.005859375 .06298828-.005859375 .06498718-.005859375 .085998538 .009140015L.11199951 .026138306C.1579895-.005859375 .20999146-.005859375 .22999573-.005859375 .26098634-.005859375 .4149933-.005859375 .4149933 .14013672V.14012146Z"/>
<path id="font_1_66" d="M.28599549 0V.04699707H.22399903V.4501953L.049987794 .4423828V.39537049C.10899353 .39537049 .115997318 .39537049 .115997318 .3563385V.04699707H.04699707V0L.16899109 .0029907227 .28599549 0M.23799134 .60728457C.23799134 .6502838 .20298767 .6852875 .1599884 .6852875 .116989139 .6852875 .08198547 .6502838 .08198547 .60728457 .08198547 .5642853 .116989139 .5292969 .1599884 .5292969 .20298767 .5292969 .23799134 .5642853 .23799134 .60728457Z"/>
<path id="font_2_1" d="M.47599793 .21496582C.49699403 .21496582 .5089874 .21496582 .5089874 .2429657 .5089874 .26498414 .5069885 .35305787 .44198609 .4071045 .39698792 .4441223 .33699037 .453125 .28799439 .453125 .116989139 .453125 .032989503 .345047 .032989503 .22497559 .032989503 .09408569 .13198853-.005859375 .3019867-.005859375 .46699525-.005859375 .5089874 .1000824 .5089874 .11605835 .5089874 .13604737 .4889984 .13604737 .48298646 .13604737 .46499635 .13604737 .46299745 .13005066 .45700074 .11605835 .43399049 .06410217 .37298585 .037139894 .30999757 .037139894 .16799927 .037139894 .1659851 .16601563 .1659851 .21496582H.47599793M.1659851 .25097657C.16799927 .29701234 .17298889 .41311646 .28799439 .41311646 .40499879 .41311646 .40899659 .29100038 .41099549 .25097657H.1659851Z"/>
<path id="font_3_1" d="M.35899354 .6349335C.35899354 .66503909 .35499574 .66503909 .32499696 .66503909 .25898744 .60058596 .15699768 .60058596 .12098694 .60058596V.5615845C.14698792 .5615845 .21299744 .5615845 .272995 .58958438V.08496094C.272995 .051986696 .272995 .038986207 .16999817 .038986207H.1269989V0C.18199158 .0039978029 .2599945 .0039978029 .31599427 .0039978029 .37199403 .0039978029 .44999696 .0039978029 .5049896 0V.038986207H.46199037C.35899354 .038986207 .35899354 .051986696 .35899354 .08496094V.6349335Z"/>
<path id="font_3_2" d="M.5379944 .18702698H.5009918C.49899293 .17301941 .4889984 .10699463 .47399903 .09599304 .46699525 .08999634 .38598634 .08999634 .37199403 .08999634H.18499756L.31298829 .19403076C.34700013 .22103882 .43598939 .28504945 .46699525 .31506349 .49699403 .3450775 .5379944 .39608766 .5379944 .46710206 .5379944 .5920563 .4249878 .66503909 .29100038 .66503909 .1619873 .66503909 .07199097 .58006289 .07199097 .48609925 .07199097 .43510438 .114990238 .42910768 .12599182 .42910768 .15098572 .42910768 .17999268 .44709779 .17999268 .48310853 .17999268 .50509646 .16699219 .5371094 .12298584 .5371094 .1459961 .5880585 .20698548 .6260376 .27598573 .6260376 .3809967 .6260376 .43699647 .5480957 .43699647 .46710206 .43699647 .39608766 .3899994 .32305909 .31999208 .25904847L.08299255 .041992189C.07299805 .03199768 .07199097 .0309906 .07199097 0H.5069885L.5379944 .18702698Z"/>
<path id="font_4_2" d="M.1639862 .71299746C.1639862 .7299957 .1639862 .75 .14299011 .75 .12098694 .75 .12098694 .73098757 .12098694 .71299746V-.2130127C.12098694-.23001099 .12098694-.25 .14199829-.25 .1639862-.25 .1639862-.23100281 .1639862-.2130127V.71299746Z"/>
<path id="font_5_1" d="M.3039856 .6392822C.3039856 .6642761 .30299378 .666275 .27799989 .666275 .21598816 .60227969 .12399292 .60227969 .09298706 .60227969V.57128909C.11199951 .57128909 .17298889 .57128909 .22698975 .5972748V.08001709C.22698975 .042999269 .22399903 .0309906 .1309967 .0309906H.09899902V0C.1349945 .0029907227 .22399903 .0029907227 .2649994 .0029907227 .30599977 .0029907227 .3959961 .0029907227 .43199159 0V.0309906H.3999939C.30699159 .0309906 .3039856 .042999269 .3039856 .08001709V.6392822Z"/>
<path id="font_4_1" d="M.27999879 .23197937C.28599549 .24597168 .28599549 .24797058 .28599549 .24996948 .28599549 .25297547 .28599549 .25497438 .27999879 .26898194L.102996829 .72598269C.09599304 .74398806 .08999634 .75 .07798767 .75 .066986087 .75 .056991579 .7409973 .056991579 .72798159 .056991579 .72598269 .056991579 .72398379 .06298828 .70999148L.24099732 .25097657 .06298828-.20903015C.056991579-.22303772 .056991579-.22503662 .056991579-.22703552 .056991579-.24003601 .066986087-.24902344 .07798767-.24902344 .08999634-.24902344 .09599304-.24302674 .102996829-.22503662L.27999879 .23197937Z"/>
<path id="font_5_2" d="M.46199037 .17704773H.43399049C.43199159 .16404724 .42399598 .10501099 .41099549 .08900452 .40499879 .07998657 .33599855 .07998657 .31599427 .07998657H.13798523L.23699951 .17404175C.40098573 .3161316 .46199037 .36915589 .46199037 .4711914 .46199037 .5860901 .36698915 .6660156 .24398804 .6660156 .1289978 .6660156 .050994874 .575119 .050994874 .4841919 .050994874 .43418885 .09399414 .42919923 .102996829 .42919923 .125 .42919923 .15499878 .44519044 .15499878 .48120118 .15499878 .51119998 .13398743 .5332031 .102996829 .5332031 .09799194 .5332031 .09498596 .5332031 .09098816 .53219607 .114990238 .6030731 .1789856 .63500979 .23298645 .63500979 .33499146 .63500979 .36999513 .5401764 .36999513 .4711914 .36999513 .36915589 .29299928 .28611756 .24499512 .23408509L.06199646 .035995485C.050994874 .024993897 .050994874 .022994996 .050994874 0H.43399049L.46199037 .17704773Z"/>
<path id="font_6_1" d="M.30899049 .31378175H.47599793C.6380005 .31378175 .769989 .42474366 .769989 .5306854 .769989 .6096344 .69898989 .6826172 .56799319 .6826172H.23799134C.21998596 .6826172 .20799256 .6826172 .20799256 .6646118 .20799256 .6516113 .21699524 .6516113 .23799134 .6516113 .24198914 .6516113 .2599945 .6516113 .27598573 .6496124 .29299928 .6476135 .2999878 .6456146 .2999878 .63461306 .2999878 .6296234 .29899598 .6256256 .29599 .614624L.16099549 .07595825C.1519928 .039993287 .1499939 .0309906 .07499695 .0309906 .055999757 .0309906 .04499817 .0309906 .04499817 .0129852299 .04499817 .0019989014 .052993776 0 .05999756 0 .07899475 0 .10398865 .0009918213 .12298584 .0019989014 .15299988 .0029907227 .15499878 .0029907227 .18699646 .0029907227 .21899414 .0029907227 .22099304 .0029907227 .25099183 .0019989014 .2709961 .0009918213 .29699708 0 .31599427 0 .32299806 0 .33599855 0 .33599855 .017990113 .33599855 .0309906 .32598878 .0309906 .30499269 .0309906 .30099488 .0309906 .2829895 .0309906 .2669983 .032989503 .24499512 .035995485 .24398804 .039993287 .24398804 .048980714 .24398804 .051971437 .24398804 .053970338 .24899292 .07196045L.30899049 .31378175M.3809967 .6126251C.3899994 .64860537 .3919983 .6516113 .43399049 .6516113H.5349884C.61299136 .6516113 .6749878 .6276245 .6749878 .55467227 .6749878 .53367617 .6639862 .43972779 .6119995 .39175416 .58999636 .37176515 .5439911 .34179688 .45799256 .34179688H.31298829L.3809967 .6126251Z"/>
<path id="font_7_1" d="M.79599 .22436524C.81199648 .22436524 .83699038 .22436524 .83699038 .2503662 .83699038 .2763672 .81199648 .2763672 .79599 .2763672H.1659851C.1499939 .2763672 .125 .2763672 .125 .2503662 .125 .22436524 .1499939 .22436524 .1659851 .22436524H.79599Z"/>
<path id="font_1_49" d="M.72299197 .27397157H.6759949C.6539917 .13598633 .6259918 .04699707 .44099427 .04699707H.2889862V.32896424H.34399415C.43998719 .32896424 .44999696 .28596498 .44999696 .2119751H.49699403V.4928894H.44999696C.44999696 .4189453 .44099427 .37597657 .34399415 .37597657H.2889862V.6328125H.44099427C.60198977 .6328125 .6279907 .5598297 .6439972 .43885804H.69099429L.6599884 .6798096H.038986207V.6328125H.14698792V.04699707H.038986207V0H.6769867L.72299197 .27397157Z"/>
<path id="font_1_59" d="M.55799868 .3970642C.55799868 .42007447 .54100039 .45507813 .49499513 .45507813 .47999574 .45507813 .43299867 .45207215 .3889923 .41706849 .37098695 .42918397 .32899476 .4501953 .25498963 .4501953 .11099243 .4501953 .055999757 .37243653 .055999757 .3024292 .055999757 .26127626 .07598877 .22012329 .10798645 .19703675 .07998657 .16191101 .07398987 .12878418 .07398987 .10771179 .07398987 .0927124 .07798767 .04371643 .117996219 .01171875 .10499573 .008712769 .03199768-.012252808 .03199768-.075164798 .03199768-.12609864 .08699036-.2010498 .2869873-.2010498 .46398927-.2010498 .5419922-.14207459 .5419922-.07217407 .5419922-.04222107 .5339966 .020706177 .46699525 .054718019 .41099549 .08300781 .35099793 .08300781 .25498963 .08300781 .22898865 .08300781 .18299866 .08300781 .17799378 .083984378 .13398743 .0909729 .12298584 .12898255 .12298584 .14697266 .12298584 .15698242 .1269989 .17198181 .1329956 .17997742 .1789856 .15629578 .22999573 .15429688 .25498963 .15429688 .39898683 .15429688 .45399476 .23234558 .45399476 .3024292 .45399476 .34942628 .42900086 .38243104 .4139862 .3984375 .44400025 .4144287 .46499635 .4164276 .47599793 .4174347 .47399903 .4124298 .47200013 .40342713 .47200013 .39743043 .47200013 .37219239 .4889984 .354187 .5149994 .354187 .54100039 .354187 .55799868 .3731842 .55799868 .39718629V.3970642M.34298707 .30221559C.34298707 .25724793 .34298707 .19029236 .25498963 .19029236 .16699219 .19021607 .16699219 .25733949 .16699219 .3024292 .16699219 .34742738 .16699219 .41418458 .25498963 .41418458 .34298707 .41418458 .34298707 .34742738 .34298707 .3024292V.30221559M.45599366-.07501221C.45599366-.11102295 .4169922-.16503906 .2869873-.16503906 .16699219-.16503906 .117996219-.11903381 .117996219-.073013309 .117996219-.013000488 .18099976-.013000488 .19499207-.013000488H.31199647C.34298707-.013000488 .45599366-.013000488 .45599366-.07501221Z"/>
<path id="font_1_50" d="M.49398805 .11706543C.49398805 .13504029 .47499085 .13504029 .46998597 .13504029 .45298768 .13504029 .45098878 .13005066 .44499208 .11405945 .42399598 .066101077 .36698915 .03413391 .3019867 .03413391 .16099549 .03413391 .1599884 .16700745 .1599884 .2179718H.46199037C.48399354 .2179718 .49398805 .2179718 .49398805 .2449646 .49398805 .27598573 .48799134 .34906007 .43798829 .3991089 .40098573 .43511964 .34799195 .453125 .2789917 .453125 .11898804 .453125 .03199768 .35005189 .03199768 .22497559 .03199768 .09107971 .13198853-.005859375 .29299928-.005859375 .45098878-.005859375 .49398805 .10006714 .49398805 .11706543M.39898683 .25097657H.1599884C.1619873 .29000855 .16299439 .3320465 .18399048 .36506654 .20999146 .4051056 .25 .41711427 .2789917 .41711427 .3959961 .41711427 .397995 .28599549 .39898683 .25097657Z"/>
<path id="font_8_98" d="M.3829956 .12924195C.3829956 .1772461 .35398866 .24725342 .23498535 .2692566 .22698975 .2712555 .17098999 .28126527 .16699219 .28126527 .13598633 .28826905 .08898926 .30926515 .08898926 .34927369 .08898926 .37927247 .11099243 .4212799 .20599365 .4212799 .31799317 .4212799 .32299806 .33926393 .32499696 .31126405 .32598878 .30326844 .33299256 .30026246 .33999635 .30026246 .35598756 .30026246 .35598756 .30726625 .35598756 .32626344V.4202881C.35598756 .4362793 .35598756 .44628907 .34298707 .44628907 .33799745 .44628907 .33499146 .44628907 .31900025 .4302826 .31698609 .4292755 .30799867 .4202881 .30499269 .4202881 .30499269 .4202881 .3019867 .4202881 .29599 .4242859 .27999879 .43528749 .25099183 .44628907 .20599365 .44628907 .06599426 .44628907 .034988405 .37026979 .034988405 .32226563 .034988405 .27226258 .07199097 .24325562 .07499695 .24024964 .114990238 .21025086 .13798523 .20625305 .20498657 .19424439 .2519989 .18525696 .32899476 .17124939 .32899476 .10324097 .32899476 .0642395 .30299378 .018234253 .21099854 .018234253 .10998535 .018234253 .08099365 .09623718 .067993167 .14924622 .06399536 .1622467 .06298828 .16725159 .050994874 .16725159 .034988405 .16725159 .034988405 .15924073 .034988405 .14024353V.016220093C.034988405 .00022888184 .034988405-.009765625 .04798889-.009765625 .053985597-.009765625 .054992677-.008773804 .07299805 .010223389 .07798767 .0152282719 .08898926 .02822876 .09399414 .033233644 .13899231-.0077667238 .18598938-.009765625 .21199036-.009765625 .33898927-.009765625 .3829956 .06323242 .3829956 .12924195Z"/>
<path id="font_8_105" d="M.35299684 .1250763V.1809845H.32199098V.12705994C.32199098 .058166505 .29100038 .021224976 .25299073 .021224976 .18598938 .021224976 .18598938 .10710144 .18598938 .12307739V.3976593H.33499146V.43066407H.18598938V.6142578H.15499878C.1539917 .52345278 .11299133 .4286499 .019989014 .42565919V.3976593H.10998535V.1250763C.10998535 .008224487 .19999695-.009765625 .24598694-.009765625 .31298829-.010009766 .35299684 .049987794 .35299684 .125V.1250763Z"/>
<path id="font_8_96" d="M.38398744 .3784027C.38398744 .4133911 .35198976 .44140626 .30799867 .44140626 .24299622 .44140626 .19898987 .39239503 .17799378 .33639527H.1769867V.44140626L.034988405 .43045045V.39746095C.102996829 .39746095 .11099243 .3904419 .11099243 .3413849V.078048709C.11099243 .032989503 .09899902 .032989503 .034988405 .032989503V0C.07398987 .0029907227 .1289978 .0029907227 .15299988 .0029907227 .21199036 .0029907227 .21398926 .0029907227 .2789917 0V.032989503H.25898744C.18598938 .032989503 .18399048 .044006349 .18399048 .08004761V.22824097C.18399048 .30332948 .21499634 .41145326 .31098939 .41345216 .30499269 .40899659 .29499818 .40098573 .29499818 .37799073 .29499818 .34700013 .31900025 .33299256 .33898927 .33299256 .36299134 .33299256 .38398744 .34899903 .38398744 .37799073V.3784027Z"/>
<path id="font_8_50" d="M.44099427 .12036133C.44099427 .12435913 .43798829 .13438416 .4249878 .13438416 .4139862 .13438416 .4119873 .12736511 .4099884 .12136841 .37399293 .024230957 .28799439 .021224976 .269989 .021224976 .22499085 .021224976 .1789856 .042251588 .14898682 .08831787 .11898804 .13438416 .11898804 .19847107 .11898804 .22851563H.41299439C.43499757 .22851563 .44099427 .22851563 .44099427 .25151063 .44099427 .34039308 .3919983 .44628907 .25099183 .44628907 .1269989 .44628907 .02999878 .3433838 .02999878 .21949768 .02999878 .09031677 .13798523-.009765625 .2639923-.009765625 .3909912-.009765625 .44099427 .097335819 .44099427 .12036133M.37298585 .25450135H.11999512C.1289978 .39431764 .21398926 .41827394 .25099183 .41827394 .36799623 .41827394 .37199403 .27748109 .37298585 .25450135Z"/>
<path id="font_8_43" d="M.44099427 .12031555C.44099427 .13232422 .42799378 .13232422 .4249878 .13232422 .41799928 .13232422 .41299439 .13131714 .4099884 .12130737 .40299989 .10029602 .375 .021224976 .2749939 .021224976 .21299744 .021224976 .12399292 .0692749 .12399292 .21739197 .12399292 .3614807 .19799805 .4152832 .2709961 .4152832 .27999879 .4152832 .33299256 .4152832 .36799623 .39746095 .33999635 .3884735 .33599855 .36547853 .33599855 .35346986 .33599855 .32647706 .35499574 .30647279 .3829956 .30647279 .40899659 .30625917 .42999269 .32426454 .42999269 .35427857 .42999269 .41627503 .3619995 .44628907 .2679901 .44628907 .1289978 .44628907 .034988405 .3352661 .034988405 .21624756 .034988405 .0892334 .13899231-.009765625 .2649994-.009765625 .4059906-.009765625 .44099427 .10824585 .44099427 .12023926V.12031555Z"/>
<path id="font_8_63" d="M.56199648 0V.032989503C.49798585 .032989503 .48599244 .032989503 .48599244 .07814026V.30371095C.48599244 .38746644 .44799806 .44140626 .34298707 .44140626 .25498963 .44140626 .20899964 .3854828 .19099427 .3535614H.18998719V.69433596L.040985109 .6826172V.6496124C.10899353 .6496124 .116989139 .64263918 .116989139 .5938263V.07814026C.116989139 .032989503 .10499573 .032989503 .040985109 .032989503V0C.083999637 .0029907227 .12799073 .0029907227 .15499878 .0029907227 .18399048 .0029907227 .22599793 .0029907227 .2689972 0V.032989503C.20498657 .032989503 .19299317 .032989503 .19299317 .07814026V.2597046C.19299317 .36453248 .272995 .4133911 .33399964 .4133911 .394989 .4133911 .4099884 .37051393 .4099884 .30769349V.07814026C.4099884 .032989503 .397995 .032989503 .33399964 .032989503V0C.3769989 .0029907227 .42099 .0029907227 .44799806 .0029907227 .47698976 .0029907227 .5189972 .0029907227 .56199648 0Z"/>
<path id="font_8_35" d="M.55400088 .21650696C.55400088 .3425293 .45098878 .44140626 .32899476 .44140626 .25 .44140626 .20098877 .39845277 .18399048 .38053895V.69433596L.034988405 .68333438V.6503296C.102996829 .6503296 .11099243 .6433258 .11099243 .5943451V.00048828127H.14199829L.17799378 .0625C.20199585 .02822876 .24899292-.009765625 .31698609-.009765625 .44400025-.009765625 .55400088 .08828735 .55400088 .21640015V.21650696M.46499635 .21740723C.46499635 .19438172 .46499635 .12332153 .42900086 .07627869 .3929901 .031234742 .34599305 .018234253 .31298829 .018234253 .2649994 .018234253 .22499085 .04324341 .19898987 .08229065 .18699646 .1013031 .18699646 .10231018 .18699646 .12132263V.3164978C.18699646 .33551026 .18699646 .3375244 .20199585 .3555298 .23098755 .39248658 .27799989 .4133911 .32299806 .4133911 .375 .4133911 .4139862 .38252259 .43399049 .35253907 .45098878 .3255005 .46499635 .29048158 .46499635 .21740723Z"/>
<path id="font_8_118" d="M.5379944 .3976593V.43066407C.5029907 .42765809 .5009918 .42765809 .45899964 .42765809 .45498658 .42765809 .4019928 .42765809 .37298585 .43066407V.3976593C.4019928 .39564515 .41600038 .37954713 .41600038 .3564148 .41600038 .3504181 .4149933 .3434143 .4099884 .3314209L.30299378 .089645389 .18699646 .3514099C.17999268 .36647035 .17999268 .3684845 .17999268 .37249757 .17999268 .39665223 .21099854 .3976593 .23298645 .3976593V.43066407C.18798828 .42765809 .14498902 .42765809 .12298584 .42765809 .101989749 .42765809 .053985597 .42765809 .021987915 .43066407V.3976593C.07398987 .3976593 .08799744 .39564515 .10499573 .35742188L.2630005-.0002746582C.21798706-.106170658 .18798828-.17610169 .117996219-.17610169 .09298706-.17610169 .07699585-.16412354 .07699585-.16412354 .083999637-.16212464 .10699463-.1511383 .10699463-.122161868 .10699463-.094192508 .085998538-.079193118 .06399536-.079193118 .04399109-.079193118 .020996094-.0921936 .020996094-.12315369 .020996094-.16711426 .06399536-.20410156 .117996219-.20410156 .20698548-.20410156 .25498963-.09718323 .25898744-.08718872L.44299317 .32940675C.46798707 .38659669 .5049896 .39665223 .5379944 .3976593Z"/>
<path id="font_9_1" d="M.37599183 .28729249C.41299439 .19628906 .47399903 .03327942 .4850006 .015274048 .5019989-.009719849 .5219879-.009719849 .54599-.009719849 .57499697-.009719849 .58299258-.009719849 .58299258 .0022735596 .58299258 .0072784426 .58099368 .010269165 .57699587 .0132751469 .5649872 .027267456 .55999758 .03727722 .5529938 .056274415L.32798768 .62731936C.32099916 .6463165 .3019867 .69433596 .19898987 .69433596 .18899536 .69433596 .17399597 .69433596 .17399597 .68032839 .17399597 .6683197 .18399048 .6673279 .18899536 .6663208 .20899964 .6633301 .22799683 .6613312 .25099183 .60331729L.32299806 .42330934 .3619995 .32229615 .07598877 .057281496C.06498718 .04727173 .054992677 .03527832 .054992677 .021270752 .054992677 .0012664795 .07199097-.01171875 .08898926-.01171875 .102996829-.01171875 .116989139-.0007324219 .12599182 .009277344L.37599183 .28729249Z"/>
<path id="font_10_2" d="M.1789856 .114868167C.13899231 .047973634 .099990848 .033981325 .055999757 .0309906 .04399109 .02999878 .034988405 .02999878 .034988405 .010986328 .034988405 .004989624 .039993287 0 .04798889 0 .07499695 0 .10598755 .0029907227 .13398743 .0029907227 .16699219 .0029907227 .20199585 0 .23399353 0 .23999024 0 .25299073 0 .25299073 .018997193 .25299073 .02999878 .24398804 .0309906 .23699951 .0309906 .21398926 .032989503 .18998719 .04096985 .18998719 .06593323 .18998719 .077926639 .19599915 .088897708 .20399475 .102890018L.27999879 .23068238H.5309906C.5329895 .2097168 .5469971 .07392883 .5469971 .063949588 .5469971 .033981325 .49499513 .0309906 .47499085 .0309906 .46099855 .0309906 .45098878 .0309906 .45098878 .010986328 .45098878 0 .46299745 0 .46499635 0 .5059967 0 .548996 .0029907227 .58999636 .0029907227 .61499026 .0029907227 .6779938 0 .7029877 0 .70899966 0 .72099307 0 .72099307 .019989014 .72099307 .0309906 .71099856 .0309906 .69799807 .0309906 .6359863 .0309906 .6359863 .037979127 .6329956 .06694031L.57199099 .691803C.56999209 .71180728 .56999209 .7158203 .5529938 .7158203 .5369873 .7158203 .5329895 .7088165 .5269928 .69880679L.1789856 .114868167M.29899598 .26168824 .49598695 .5917816 .5279999 .26168824H.29899598Z"/>
<path id="font_11_1" d="M.68699648 .32714845C.70199587 .32714845 .72099307 .32714845 .72099307 .34713746 .72099307 .36714173 .70199587 .36714173 .6879883 .36714173H.08898926C.07499695 .36714173 .055999757 .36714173 .055999757 .34713746 .055999757 .32714845 .07499695 .32714845 .08999634 .32714845H.68699648M.6879883 .13284302C.70199587 .13284302 .72099307 .13284302 .72099307 .15284729 .72099307 .17285156 .70199587 .17285156 .68699648 .17285156H.08999634C.07499695 .17285156 .055999757 .17285156 .055999757 .15284729 .055999757 .13284302 .07499695 .13284302 .08898926 .13284302H.6879883Z"/>
<path id="font_10_4" d="M.30299378 .3157959H.47299195C.61499026 .3157959 .7539978 .41973878 .7539978 .53167727 .7539978 .6086273 .6879883 .6826172 .5569916 .6826172H.23298645C.21398926 .6826172 .20298767 .6826172 .20298767 .66360476 .20298767 .6516113 .21199036 .6516113 .23199463 .6516113 .24499512 .6516113 .2630005 .65060427 .2749939 .6496124 .29100038 .6476135 .29699708 .64460757 .29699708 .6336212 .29699708 .6296234 .29599 .62661746 .29299928 .614624L.15899658 .07795715C.14898682 .038986207 .14698792 .0309906 .067993167 .0309906 .050994874 .0309906 .039993287 .0309906 .039993287 .011993408 .039993287 0 .051986696 0 .054992677 0 .08299255 0 .1539917 .0029907227 .18199158 .0029907227 .20298767 .0029907227 .22499085 .0019989014 .24598694 .0019989014 .2679901 .0019989014 .2899933 0 .31098939 0 .31799317 0 .33099366 0 .33099366 .019989014 .33099366 .0309906 .32199098 .0309906 .30299378 .0309906 .2659912 .0309906 .23799134 .0309906 .23799134 .048980714 .23799134 .054977418 .23999024 .05996704 .24099732 .065963748L.30299378 .3157959M.375 .6136322C.38398744 .64860537 .38598634 .6516113 .42900086 .6516113H.5249939C.60798647 .6516113 .6609955 .62461856 .6609955 .55566409 .6609955 .5166931 .6409912 .43074037 .60198977 .39476014 .5519867 .34977723 .49198915 .34179688 .44799806 .34179688H.30699159L.375 .6136322Z"/>
<path id="font_10_3" d="M.15899658 .07795715C.14898682 .038986207 .14698792 .0309906 .067993167 .0309906 .050994874 .0309906 .039993287 .0309906 .039993287 .011993408 .039993287 0 .04899597 0 .067993167 0H.39898683C.6069946 0 .80400088 .21087647 .80400088 .42974855 .80400088 .5706482 .71899417 .6826172 .56900027 .6826172H.23298645C.21398926 .6826172 .20298767 .6826172 .20298767 .66360476 .20298767 .6516113 .21199036 .6516113 .23199463 .6516113 .24499512 .6516113 .2630005 .65060427 .2749939 .6496124 .29100038 .6476135 .29699708 .64460757 .29699708 .6336212 .29699708 .6296234 .29599 .62661746 .29299928 .614624L.15899658 .07795715M.375 .6136322C.38398744 .64860537 .38598634 .6516113 .42900086 .6516113H.5359955C.6339874 .6516113 .71699526 .5986328 .71699526 .46672059 .71699526 .41775514 .69699099 .25386048 .6119995 .1439209 .58299258 .10694885 .5039978 .0309906 .3809967 .0309906H.2679901C.2539978 .0309906 .2519989 .0309906 .24598694 .03199768 .23599243 .032989503 .23298645 .033996583 .23298645 .041992189 .23298645 .04498291 .23298645 .04698181 .23799134 .064971927L.375 .6136322Z"/>
<path id="font_12_1" d="M.74398806 .2263794C.7599945 .2263794 .7839966 .2263794 .7839966 .25038148 .7839966 .27539063 .7609863 .27539063 .74398806 .27539063H.147995C.13198853 .27539063 .10798645 .27539063 .10798645 .25138856 .10798645 .2263794 .1309967 .2263794 .147995 .2263794H.74398806Z"/>
<path id="font_13_1" d="M.33499146 .63612368C.33499146 .6630554 .33299256 .6640625 .30499269 .6640625 .24099732 .6014404 .1499939 .6004486 .10899353 .6004486V.5644531C.1329956 .5644531 .19898987 .5644531 .2539978 .592453V.08203125C.2539978 .04899597 .2539978 .035995485 .1539917 .035995485H.115997318V0C.13398743 .0009918213 .25698854 .0039978029 .2939911 .0039978029 .32499696 .0039978029 .45098878 .0009918213 .47299195 0V.035995485H.43499757C.33499146 .035995485 .33499146 .04899597 .33499146 .08203125V.63612368Z"/>
<path id="font_14_1" d="M.42099-.53401187 .06599426-.9730072C.057998659-.9830017 .056991579-.9850006 .056991579-.9890137 .056991579-1 .06599426-1 .083999637-1H.9129944L.9989929-.7510071H.973999C.94898989-.826004 .8819885-.88700869 .7969971-.91600039 .7809906-.92100527 .71199038-.9450073 .5649872-.9450073H.13999939L.4869995-.51600649C.49398805-.5070038 .49598695-.50401309 .49598695-.5 .49598695-.4960022 .49499513-.49501039 .4889984-.4860077L.1639862-.040008546H.55999758C.673996-.040008546 .9039917-.04701233 .973999-.23400879H.9989929L.9129944 0H.083999637C.056991579 0 .055999757-.0010070801 .055999757-.03201294L.42099-.53401187Z"/>
<path id="font_15_1" d="M.12199402 .06324768C.117996219 .050247194 .11199951 .025222779 .11199951 .022232056 .11199951 .00022888184 .12998963-.009765625 .1459961-.009765625 .1639862-.009765625 .17999268 .0032196046 .18499756 .01222229 .18998719 .021224976 .19799805 .053237916 .20298767 .07424927 .20799256 .09326172 .21899414 .13928223 .22499085 .16429138 .23098755 .18629456 .23699951 .20831299 .24198914 .23132324 .25299073 .27233888 .25498963 .28033448 .28399659 .32136537 .31199647 .3613739 .35899354 .4133911 .43399049 .4133911 .49198915 .4133911 .49299623 .36238099 .49299623 .34336854 .49299623 .28334046 .44999696 .17228699 .43399049 .13027954 .4229889 .102264408 .4189911 .09326172 .4189911 .07624817 .4189911 .023223877 .46299745-.009765625 .5139923-.009765625 .6139984-.009765625 .6579895 .12828064 .6579895 .14328003 .6579895 .15628052 .644989 .15628052 .6419983 .15628052 .6279907 .15628052 .6269989 .15028382 .6230011 .13928223 .59999087 .059249879 .5569916 .018234253 .5169983 .018234253 .49598695 .018234253 .49198915 .032226564 .49198915 .053237916 .49198915 .07624817 .49699403 .089263919 .5149994 .13427735 .5269928 .1652832 .56799319 .2713318 .56799319 .32736207 .56799319 .4243927 .4909973 .44140626 .43798829 .44140626 .35499574 .44140626 .29899598 .39038087 .2689972 .3503723 .2619934 .41940309 .20298767 .44140626 .1619873 .44140626 .11898804 .44140626 .09599304 .4104004 .08299255 .38739015 .06098938 .3503723 .04699707 .29335023 .04699707 .28834535 .04699707 .27534486 .06098938 .27534486 .06399536 .27534486 .07798767 .27534486 .07899475 .27833558 .085998538 .3053589 .100997928 .36437989 .11999512 .4133911 .15899658 .4133911 .18499756 .4133911 .19198609 .39138795 .19198609 .36437989 .19198609 .34536744 .18299866 .3083496 .17599488 .28134156 .16899109 .2543335 .15899658 .21331787 .1539917 .19129944L.12199402 .06324768Z"/>
<path id="font_10_1" d="M.35699464 .29231263C.397995 .18730164 .44599916 .034301759 .46199037 .011291504 .47799684-.010696411 .48799134-.010696411 .5149994-.010696411H.5369873C.5469971-.00970459 .5479889-.0037078858 .5479889-.0007019043 .5479889 .0023040772 .54599 .0043029787 .54299929 .008300781 .5329895 .019302369 .5269928 .034301759 .519989 .05430603L.31599427 .62332156C.29499818 .68133547 .24099732 .69433596 .19400025 .69433596 .18899536 .69433596 .17599488 .69433596 .17599488 .68333438 .17599488 .6753235 .18399048 .6733246 .18499756 .6733246 .21798706 .6673279 .22499085 .6613312 .25 .59332278L.34700013 .32130433 .070999149 .047302247C.05899048 .03529358 .052993776 .029296875 .052993776 .016296387 .052993776-.0007019043 .066986087-.0126953129 .08299255-.0126953129 .09899902-.0126953129 .10798645-.0017089844 .115997318 .008300781L.35699464 .29231263Z"/>
<path id="font_16_3" d="M.15899658 .71398928C.15899658 .7319946 .15899658 .75 .13899231 .75 .11898804 .75 .11898804 .7319946 .11898804 .71398928V-.21400452C.11898804-.23200989 .11898804-.25 .13899231-.25 .15899658-.25 .15899658-.23200989 .15899658-.21400452V.71398928Z"/>
<path id="font_10_5" d="M.08799744 .059265138C.084991458 .044265748 .07899475 .021255494 .07899475 .01625061 .07899475-.0017547608 .09298706-.0107421879 .10798645-.0107421879 .11999512-.0107421879 .13798523-.002746582 .14498902 .01725769 .1459961 .019256592 .1579895 .06626892 .1639862 .091278079L.18598938 .18130493C.19198609 .2033081 .19799805 .22531128 .20298767 .24832154 .20698548 .26531983 .21499634 .29434205 .21598816 .29833985 .23098755 .3293457 .28399659 .42037965 .3789978 .42037965 .42399598 .42037965 .43299867 .38336183 .43299867 .35035707 .43299867 .28833009 .38398744 .16029358 .36799623 .11727905 .35899354 .0942688 .35798646 .08227539 .35798646 .0712738 .35798646 .024261475 .3929901-.0107421879 .43998719-.0107421879 .5339966-.0107421879 .57099917 .13528443 .57099917 .14329529 .57099917 .1532898 .56199648 .1532898 .5589905 .1532898 .548996 .1532898 .548996 .15029907 .5439911 .13528443 .5239868 .06726074 .4909973 .011245728 .44198609 .011245728 .4249878 .011245728 .41799928 .021255494 .41799928 .044265748 .41799928 .0692749 .4269867 .09327698 .43598939 .11528015 .45498658 .16830445 .49699403 .27833558 .49699403 .3353424 .49699403 .40237428 .45399476 .4423828 .38198854 .4423828 .2919922 .4423828 .24299622 .37835694 .22599793 .35534669 .22099304 .41137696 .17999268 .4423828 .13398743 .4423828 .08799744 .4423828 .068984989 .4033661 .05899048 .38536073 .042999269 .35134889 .0289917 .29232789 .0289917 .28833009 .0289917 .27833558 .038986207 .27833558 .040985109 .27833558 .050994874 .27833558 .051986696 .2793274 .057998659 .30133058 .07499695 .37236024 .09498596 .42037965 .1309967 .42037965 .15098572 .42037965 .1619873 .4073639 .1619873 .37435914 .1619873 .35334779 .15899658 .3423462 .1459961 .29032899L.08799744 .059265138Z"/>
<path id="font_16_2" d="M.272995 .23298645C.27799989 .24499512 .27799989 .24699402 .27799989 .25 .27799989 .25299073 .27799989 .25498963 .272995 .2669983L.09799194 .72698977C.09199524 .74398806 .085998538 .75 .07499695 .75 .06399536 .75 .054992677 .7409973 .054992677 .7299957 .054992677 .72698977 .054992677 .72499087 .05999756 .71398928L.23699951 .25 .05999756-.21200562C.054992677-.2230072 .054992677-.2250061 .054992677-.23001099 .054992677-.24101258 .06399536-.25 .07499695-.25 .08799744-.25 .09199524-.2400055 .09599304-.23001099L.272995 .23298645Z"/>
<path id="font_16_1" d="M.32798768 .71199038C.33299256 .72299197 .33299256 .72499087 .33299256 .7299957 .33299256 .7409973 .32398988 .75 .31298829 .75 .3039856 .75 .29699708 .7449951 .2899933 .72698977L.114990238 .2679901C.11299133 .2619934 .10998535 .2559967 .10998535 .25 .10998535 .24699402 .10998535 .24499512 .114990238 .23298645L.2899933-.22601319C.2939911-.23701477 .29899598-.25 .31298829-.25 .32398988-.25 .33299256-.24101258 .33299256-.23001099 .33299256-.227005 .33299256-.2250061 .32798768-.21400452L.15098572 .25 .32798768 .71199038Z"/>
</defs>
<use data-text="S" xlink:href="#font_1_97" transform="matrix(9.96264,0,0,-9.96264,45.19234,19.167628)"/>
<use data-text="t" xlink:href="#font_1_105" transform="matrix(9.96264,0,0,-9.96264,51.55847,19.167628)"/>
<use data-text="a" xlink:href="#font_1_28" transform="matrix(9.96264,0,0,-9.96264,56.011774,19.167628)"/>
<use data-text="n" xlink:href="#font_1_77" transform="matrix(9.96264,0,0,-9.96264,61.580888,19.167628)"/>
<use data-text="d" xlink:href="#font_1_47" transform="matrix(9.96264,0,0,-9.96264,67.947017,19.167628)"/>
<use data-text="a" xlink:href="#font_1_28" transform="matrix(9.96264,0,0,-9.96264,74.31314,19.167628)"/>
<use data-text="r" xlink:href="#font_1_96" transform="matrix(9.96264,0,0,-9.96264,79.882259,19.167628)"/>
<use data-text="d" xlink:href="#font_1_47" transform="matrix(9.96264,0,0,-9.96264,84.604549,19.167628)"/>
<use data-text="b" xlink:href="#font_1_35" transform="matrix(9.96264,0,0,-9.96264,94.78636,19.167628)"/>
<use data-text="a" xlink:href="#font_1_28" transform="matrix(9.96264,0,0,-9.96264,101.1525,19.167628)"/>
<use data-text="s" xlink:href="#font_1_98" transform="matrix(9.96264,0,0,-9.96264,106.7216,19.167628)"/>
<use data-text="i" xlink:href="#font_1_66" transform="matrix(9.96264,0,0,-9.96264,111.244647,19.167628)"/>
<use data-text="s" xlink:href="#font_1_98" transform="matrix(9.96264,0,0,-9.96264,114.42273,19.167628)"/>
<path transform="matrix(1,0,0,-1,82.06952,100.7908)" stroke-width=".79701" stroke-linecap="butt" stroke-miterlimit="10" stroke-linejoin="miter" fill="none" stroke="#000000" d="M-73.70186 0H70.35936"/>
<path transform="matrix(1,0,0,-1,152.42888,100.7908)" d="M4.53381 0C3.97704 .13808 1.52963 .92049 0 1.77196V-1.77196C1.52963-.92049 3.97704-.13808 4.53381 0Z"/>
<path transform="matrix(1,0,0,-1,152.42888,100.7908)" stroke-width=".79701" stroke-linecap="butt" stroke-miterlimit="10" stroke-linejoin="miter" fill="none" stroke="#000000" d="M4.53381 0C3.97704 .13808 1.52963 .92049 0 1.77196V-1.77196C1.52963-.92049 3.97704-.13808 4.53381 0Z"/>
<path transform="matrix(1,0,0,-1,82.06952,100.7908)" stroke-width=".79701" stroke-linecap="butt" stroke-miterlimit="10" stroke-linejoin="miter" fill="none" stroke="#000000" d="M0-56.69362V64.69008"/>
<path transform="matrix(0,-1,-1,-0,82.06952,36.100725)" d="M4.53381 0C3.97704 .13808 1.52963 .92049 0 1.77196V-1.77196C1.52963-.92049 3.97704-.13808 4.53381 0Z"/>
<path transform="matrix(0,-1,-1,-0,82.06952,36.100725)" stroke-width=".79701" stroke-linecap="butt" stroke-miterlimit="10" stroke-linejoin="miter" fill="none" stroke="#000000" d="M4.53381 0C3.97704 .13808 1.52963 .92049 0 1.77196V-1.77196C1.52963-.92049 3.97704-.13808 4.53381 0Z"/>
<path transform="matrix(1,0,0,-1,82.06952,100.7908)" stroke-width="1.19553" stroke-linecap="butt" stroke-miterlimit="10" stroke-linejoin="miter" fill="none" stroke="#000000" d="M0 0H20.57585"/>
<path transform="matrix(1,0,0,-1,102.64537,100.7908)" d="M5.30629 0C4.65466 .16344 1.79025 1.08963 0 2.09753V-2.09753C1.79025-1.08963 4.65466-.16344 5.30629 0Z"/>
<path transform="matrix(1,0,0,-1,102.64537,100.7908)" stroke-width="1.19553" stroke-linecap="butt" stroke-miterlimit="10" stroke-linejoin="miter" fill="none" stroke="#000000" d="M5.30629 0C4.65466 .16344 1.79025 1.08963 0 2.09753V-2.09753C1.79025-1.08963 4.65466-.16344 5.30629 0Z"/>
<use data-text="e" xlink:href="#font_2_1" transform="matrix(8.966376,0,0,-8.966376,114.33464,108.69423)"/>
<use data-text="1" xlink:href="#font_3_1" transform="matrix(5.977584,0,0,-5.977584,119.203159,109.69048)"/>
<path transform="matrix(1,0,0,-1,82.06952,100.7908)" stroke-width="1.19553" stroke-linecap="butt" stroke-miterlimit="10" stroke-linejoin="miter" fill="none" stroke="#000000" d="M0 0V20.57585"/>
<path transform="matrix(0,-1,-1,-0,82.06952,80.21495)" d="M5.30629 0C4.65466 .16344 1.79025 1.08963 0 2.09753V-2.09753C1.79025-1.08963 4.65466-.16344 5.30629 0Z"/>
<path transform="matrix(0,-1,-1,-0,82.06952,80.21495)" stroke-width="1.19553" stroke-linecap="butt" stroke-miterlimit="10" stroke-linejoin="miter" fill="none" stroke="#000000" d="M5.30629 0C4.65466 .16344 1.79025 1.08963 0 2.09753V-2.09753C1.79025-1.08963 4.65466-.16344 5.30629 0Z"/>
<use data-text="e" xlink:href="#font_2_1" transform="matrix(8.966376,0,0,-8.966376,69.13156,67.529438)"/>
<use data-text="2" xlink:href="#font_3_2" transform="matrix(5.977584,0,0,-5.977584,74.00008,68.52568)"/>
<path transform="matrix(1,0,0,-1,82.06952,100.7908)" stroke-width=".3985" stroke-linecap="butt" stroke-dasharray="2.98883,2.98883" stroke-miterlimit="10" stroke-linejoin="miter" fill="none" stroke="#7f807f" d="M28.3468 0C28.3468 15.6557 15.6557 28.3468 0 28.3468-15.6557 28.3468-28.3468 15.6557-28.3468 0-28.3468-15.6557-15.6557-28.3468 0-28.3468 15.6557-28.3468 28.3468-15.6557 28.3468 0ZM0 0"/>
<path transform="matrix(1,0,0,-1,82.06952,100.7908)" d="M49.09824 28.3468C49.09824 28.3468 48.61923 29.01057 48.3772 29.23047 48.13518 29.45035 47.6793 29.7634 47.3538 29.93161 47.0283 30.09982 46.43872 30.32765 46.03111 30.44287 45.6235 30.55807 44.90302 30.70047 44.416 30.76208 43.929 30.82372 43.08429 30.87965 42.52107 30.88708 41.95786 30.89452 40.9926 30.86241 40.35664 30.81572 39.72067 30.76904 38.64214 30.6511 37.93745 30.55057 37.23279 30.45006 36.04648 30.24472 35.27779 30.09122 34.50908 29.9377 33.22533 29.65004 32.39708 29.44414 31.56883 29.23825 30.1907 28.86409 29.30833 28.60718 28.42595 28.35027 26.9684 27.89857 26.03748 27.59245 25.10655 27.28633 23.57245 26.75441 22.5988 26.40082 21.62514 26.04721 20.02989 25.44247 19.01997 25.04393 18.01007 24.64539 16.36032 23.96959 15.32004 23.52832 14.27977 23.08705 12.58623 22.3446 11.52237 21.86348 10.4585 21.38235 8.73299 20.57858 7.65244 20.06065 6.5719 19.54274 4.82495 18.6819 3.73451 18.13068 2.64407 17.57945 .88686 16.66904-.20674 16.0878-1.30035 15.50658-3.05794 14.54918-4.1476 13.94154-5.23726 13.33391-6.98154 12.33844-8.06032 11.70836-9.13911 11.07828-10.86136 10.04907-11.92288 9.40033-12.9844 8.75159-14.67374 7.69571-15.71107 7.03262-16.74841 6.36955-18.39278 5.29457-19.3993 4.62123-20.40585 3.94789-21.99606 2.85889-22.96559 2.17955-23.93512 1.5002-25.4609 .40594-26.38696-.27507-27.31302-.9561-28.7631-2.05042-29.64008-2.72887-30.51706-3.40732-31.88533-4.4935-32.70764-5.16493-33.52995-5.83635-34.80437-6.90784-35.56673-7.5681-36.32907-8.22836-37.50452-9.27881-38.20216-9.9237-38.89981-10.5686-39.96663-11.59076-40.59497-12.21616-41.22331-12.84154-42.17542-13.82907-42.73083-14.43118-43.28625-15.03331-44.11938-15.9809-44.59811-16.55582-45.07684-17.13074-45.782-18.03082-46.1812-18.57489-46.5804-19.11897-47.15826-19.96732-47.47536-20.47719-47.79247-20.98708-48.23381-21.7772-48.46672-22.24974-48.69963-22.72229-49.00677-23.45103-49.15404-23.883-49.3013-24.31496-49.46762-24.9745-49.52817-25.36314-49.58873-25.75179-49.6168-26.34108-49.59047-26.68411-49.56415-27.02715-49.45142-27.54051-49.3383-27.83553-49.22519-28.13055-48.97406-28.56503-48.77513-28.81047-48.5762-29.05592-48.18835-29.41031-47.90443-29.60461-47.62053-29.79892-47.09576-30.06923-46.72879-30.21103-46.36182-30.35284-45.70715-30.53825-45.25946-30.62671-44.81177-30.71515-44.02754-30.81392-43.50206-30.84859-42.9766-30.88327-42.07217-30.89627-41.47215-30.87671-40.87215-30.85716-39.84837-30.78128-39.17754-30.7076-38.50671-30.63391-37.37451-30.47272-36.63725-30.34557-35.89998-30.2184-34.6632-29.97113-33.86382-29.79103-33.06444-29.61093-31.73177-29.27916-30.87585-29.0475-30.01993-28.81586-28.60217-28.40308-27.69496-28.12144-26.78773-27.83981-25.29013-27.34755-24.33717-27.01761-23.38422-26.68765-21.81932-26.11967-20.82669-25.74335-19.83406-25.367-18.20903-24.72543-17.18298-24.30516-16.15694-23.88489-14.48428-23.17578-13.4316-22.7143-12.3789-22.25279-10.66884-21.47878-9.59584-20.97894-8.52286-20.4791-6.78473-19.6467-5.69824-19.11168-4.61176-18.57666-2.85818-17.68974-1.76517-17.12286-.67215-16.55598 1.08694-15.6209 2.17955-15.02591 3.27214-14.43094 5.02455-13.45396 6.10959-12.83469 7.19463-12.21541 8.92883-11.20242 9.99982-10.56256 11.07082-9.92268 12.77847-8.87946 13.82866-8.22298 14.87883-7.56648 16.546-6.49988 17.56882-5.83102 18.59161-5.16219 20.21161-4.07921 21.2004-3.40233 22.18918-2.72545 23.74692-1.6331 24.6953-.95242 25.64369-.27176 27.1335 .82324 28.0358 1.50348 28.9381 2.18373 30.34836 3.27501 31.19852 3.95035 32.04866 4.62569 33.37025 5.70456 34.16315 6.37083 34.95602 7.03711 36.1826 8.09927 36.91321 8.7524 37.64381 9.40552 38.76509 10.44243 39.42885 11.07814 40.09259 11.71387 41.10468 12.71991 41.69707 13.33427 42.28946 13.94862 43.181 14.917 43.69843 15.50604 44.21587 16.09508 44.98714 17.0197 45.42642 17.57962 45.8657 18.13954 46.50633 19.01428 46.86461 19.54163 47.22289 20.06895 47.7334 20.88878 48.00868 21.38034 48.28395 21.87192 48.65842 22.63193 48.84866 23.08453 49.0389 23.53714 49.27576 24.23193 49.37982 24.64253 49.48387 25.05315 49.58163 25.67795 49.59868 26.04396 49.61572 26.40997 49.57222 26.96114 49.50267 27.28058 49.43312 27.60002 49.09737 28.34636 49.09737 28.34636" fill="#fffcdf" fill-opacity=".6"/>
<path transform="matrix(1,0,0,-1,82.06952,100.7908)" stroke-width="1.19553" stroke-linecap="butt" stroke-miterlimit="10" stroke-linejoin="miter" fill="none" stroke="#b30000" d="M49.09824 28.3468C49.09824 28.3468 48.61923 29.01057 48.3772 29.23047 48.13518 29.45035 47.6793 29.7634 47.3538 29.93161 47.0283 30.09982 46.43872 30.32765 46.03111 30.44287 45.6235 30.55807 44.90302 30.70047 44.416 30.76208 43.929 30.82372 43.08429 30.87965 42.52107 30.88708 41.95786 30.89452 40.9926 30.86241 40.35664 30.81572 39.72067 30.76904 38.64214 30.6511 37.93745 30.55057 37.23279 30.45006 36.04648 30.24472 35.27779 30.09122 34.50908 29.9377 33.22533 29.65004 32.39708 29.44414 31.56883 29.23825 30.1907 28.86409 29.30833 28.60718 28.42595 28.35027 26.9684 27.89857 26.03748 27.59245 25.10655 27.28633 23.57245 26.75441 22.5988 26.40082 21.62514 26.04721 20.02989 25.44247 19.01997 25.04393 18.01007 24.64539 16.36032 23.96959 15.32004 23.52832 14.27977 23.08705 12.58623 22.3446 11.52237 21.86348 10.4585 21.38235 8.73299 20.57858 7.65244 20.06065 6.5719 19.54274 4.82495 18.6819 3.73451 18.13068 2.64407 17.57945 .88686 16.66904-.20674 16.0878-1.30035 15.50658-3.05794 14.54918-4.1476 13.94154-5.23726 13.33391-6.98154 12.33844-8.06032 11.70836-9.13911 11.07828-10.86136 10.04907-11.92288 9.40033-12.9844 8.75159-14.67374 7.69571-15.71107 7.03262-16.74841 6.36955-18.39278 5.29457-19.3993 4.62123-20.40585 3.94789-21.99606 2.85889-22.96559 2.17955-23.93512 1.5002-25.4609 .40594-26.38696-.27507-27.31302-.9561-28.7631-2.05042-29.64008-2.72887-30.51706-3.40732-31.88533-4.4935-32.70764-5.16493-33.52995-5.83635-34.80437-6.90784-35.56673-7.5681-36.32907-8.22836-37.50452-9.27881-38.20216-9.9237-38.89981-10.5686-39.96663-11.59076-40.59497-12.21616-41.22331-12.84154-42.17542-13.82907-42.73083-14.43118-43.28625-15.03331-44.11938-15.9809-44.59811-16.55582-45.07684-17.13074-45.782-18.03082-46.1812-18.57489-46.5804-19.11897-47.15826-19.96732-47.47536-20.47719-47.79247-20.98708-48.23381-21.7772-48.46672-22.24974-48.69963-22.72229-49.00677-23.45103-49.15404-23.883-49.3013-24.31496-49.46762-24.9745-49.52817-25.36314-49.58873-25.75179-49.6168-26.34108-49.59047-26.68411-49.56415-27.02715-49.45142-27.54051-49.3383-27.83553-49.22519-28.13055-48.97406-28.56503-48.77513-28.81047-48.5762-29.05592-48.18835-29.41031-47.90443-29.60461-47.62053-29.79892-47.09576-30.06923-46.72879-30.21103-46.36182-30.35284-45.70715-30.53825-45.25946-30.62671-44.81177-30.71515-44.02754-30.81392-43.50206-30.84859-42.9766-30.88327-42.07217-30.89627-41.47215-30.87671-40.87215-30.85716-39.84837-30.78128-39.17754-30.7076-38.50671-30.63391-37.37451-30.47272-36.63725-30.34557-35.89998-30.2184-34.6632-29.97113-33.86382-29.79103-33.06444-29.61093-31.73177-29.27916-30.87585-29.0475-30.01993-28.81586-28.60217-28.40308-27.69496-28.12144-26.78773-27.83981-25.29013-27.34755-24.33717-27.01761-23.38422-26.68765-21.81932-26.11967-20.82669-25.74335-19.83406-25.367-18.20903-24.72543-17.18298-24.30516-16.15694-23.88489-14.48428-23.17578-13.4316-22.7143-12.3789-22.25279-10.66884-21.47878-9.59584-20.97894-8.52286-20.4791-6.78473-19.6467-5.69824-19.11168-4.61176-18.57666-2.85818-17.68974-1.76517-17.12286-.67215-16.55598 1.08694-15.6209 2.17955-15.02591 3.27214-14.43094 5.02455-13.45396 6.10959-12.83469 7.19463-12.21541 8.92883-11.20242 9.99982-10.56256 11.07082-9.92268 12.77847-8.87946 13.82866-8.22298 14.87883-7.56648 16.546-6.49988 17.56882-5.83102 18.59161-5.16219 20.21161-4.07921 21.2004-3.40233 22.18918-2.72545 23.74692-1.6331 24.6953-.95242 25.64369-.27176 27.1335 .82324 28.0358 1.50348 28.9381 2.18373 30.34836 3.27501 31.19852 3.95035 32.04866 4.62569 33.37025 5.70456 34.16315 6.37083 34.95602 7.03711 36.1826 8.09927 36.91321 8.7524 37.64381 9.40552 38.76509 10.44243 39.42885 11.07814 40.09259 11.71387 41.10468 12.71991 41.69707 13.33427 42.28946 13.94862 43.181 14.917 43.69843 15.50604 44.21587 16.09508 44.98714 17.0197 45.42642 17.57962 45.8657 18.13954 46.50633 19.01428 46.86461 19.54163 47.22289 20.06895 47.7334 20.88878 48.00868 21.38034 48.28395 21.87192 48.65842 22.63193 48.84866 23.08453 49.0389 23.53714 49.27576 24.23193 49.37982 24.64253 49.48387 25.05315 49.58163 25.67795 49.59868 26.04396 49.61572 26.40997 49.57222 26.96114 49.50267 27.28058 49.43312 27.60002 49.09737 28.34636 49.09737 28.34636"/>
<path transform="matrix(1,0,0,-1,82.06952,100.7908)" stroke-width=".79701" stroke-linecap="butt" stroke-dasharray="2.98883,2.98883" stroke-miterlimit="10" stroke-linejoin="miter" fill="none" stroke="#800000" d="M-56.46263-32.59865 56.46263 32.59865"/>
<path transform="matrix(1,0,0,-1,82.06952,100.7908)" stroke-width=".79701" stroke-linecap="butt" stroke-dasharray="2.98883,2.98883" stroke-miterlimit="10" stroke-linejoin="miter" fill="none" stroke="#800000" d="M9.92111-17.1843-9.92111 17.1843"/>
<use data-text="|" xlink:href="#font_4_2" transform="matrix(8.966376,0,0,-8.966376,134.68758,66.682559)" fill="#b30000"/>
<use data-text="1" xlink:href="#font_5_1" transform="matrix(8.966376,0,0,-8.966376,137.2474,66.682559)" fill="#b30000"/>
<use data-text="&#x27e9;" xlink:href="#font_4_1" transform="matrix(8.966376,0,0,-8.966376,141.8551,66.682559)" fill="#b30000"/>
<use data-text="|" xlink:href="#font_4_2" transform="matrix(8.966376,0,0,-8.966376,60.71159,82.75482)" fill="#b30000"/>
<use data-text="2" xlink:href="#font_5_2" transform="matrix(8.966376,0,0,-8.966376,63.27142,82.75482)" fill="#b30000"/>
<use data-text="&#x27e9;" xlink:href="#font_4_1" transform="matrix(8.966376,0,0,-8.966376,67.87911,82.75482)" fill="#b30000"/>
<path transform="matrix(1,0,0,-1,82.06952,100.7908)" stroke-width="1.59404" stroke-linecap="butt" stroke-miterlimit="10" stroke-linejoin="miter" fill="none" stroke="#0000b3" d="M136.06484 11.33855H166.38515"/>
<path transform="matrix(1,0,0,-1,248.45467,89.452259)" d="M6.07884 0C5.33234 .18881 2.0509 1.25874 0 2.4231V-2.4231C2.0509-1.25874 5.33234-.18881 6.07884 0Z" fill="#0000b3"/>
<path transform="matrix(1,0,0,-1,248.45467,89.452259)" stroke-width="1.59404" stroke-linecap="butt" stroke-miterlimit="10" stroke-linejoin="miter" fill="none" stroke="#0000b3" d="M6.07884 0C5.33234 .18881 2.0509 1.25874 0 2.4231V-2.4231C2.0509-1.25874 5.33234-.18881 6.07884 0Z"/>
<use data-text="P" xlink:href="#font_6_1" transform="matrix(8.966376,0,0,-8.966376,229.44145,85.33467)" fill="#0000b3"/>
<use data-text="&#x2212;" xlink:href="#font_7_1" transform="matrix(5.977584,0,0,-5.977584,236.60518,81.52567)" fill="#0000b3"/>
<use data-text="1" xlink:href="#font_3_1" transform="matrix(5.977584,0,0,-5.977584,242.36133,81.52567)" fill="#0000b3"/>
<path transform="matrix(1,0,0,-1,82.06952,100.7908)" stroke-width="1.59404" stroke-linecap="butt" stroke-miterlimit="10" stroke-linejoin="miter" fill="none" stroke="#0000b3" d="M145.42986-11.33855H175.75017"/>
<path transform="matrix(-1,-0,0,1,227.49938,112.12935)" d="M6.07884 0C5.33234 .18881 2.0509 1.25874 0 2.4231V-2.4231C2.0509-1.25874 5.33234-.18881 6.07884 0Z" fill="#0000b3"/>
<path transform="matrix(-1,-0,0,1,227.49938,112.12935)" stroke-width="1.59404" stroke-linecap="butt" stroke-miterlimit="10" stroke-linejoin="miter" fill="none" stroke="#0000b3" d="M6.07884 0C5.33234 .18881 2.0509 1.25874 0 2.4231V-2.4231C2.0509-1.25874 5.33234-.18881 6.07884 0Z"/>
<use data-text="P" xlink:href="#font_6_1" transform="matrix(8.966376,0,0,-8.966376,234.39511,122.374)" fill="#0000b3"/>
<use data-text="E" xlink:href="#font_1_49" transform="matrix(9.96264,0,0,-9.96264,339.58973,18.206202)"/>
<use data-text="i" xlink:href="#font_1_66" transform="matrix(9.96264,0,0,-9.96264,347.1215,18.206202)"/>
<use data-text="g" xlink:href="#font_1_59" transform="matrix(9.96264,0,0,-9.96264,350.29957,18.206202)"/>
<use data-text="e" xlink:href="#font_1_50" transform="matrix(9.96264,0,0,-9.96264,356.02809,18.206202)"/>
<use data-text="n" xlink:href="#font_1_77" transform="matrix(9.96264,0,0,-9.96264,361.27839,18.206202)"/>
<use data-text="b" xlink:href="#font_1_35" transform="matrix(9.96264,0,0,-9.96264,367.3357,18.206202)"/>
<use data-text="a" xlink:href="#font_1_28" transform="matrix(9.96264,0,0,-9.96264,373.7018,18.206202)"/>
<use data-text="s" xlink:href="#font_1_98" transform="matrix(9.96264,0,0,-9.96264,379.27095,18.206202)"/>
<use data-text="i" xlink:href="#font_1_66" transform="matrix(9.96264,0,0,-9.96264,383.79396,18.206202)"/>
<use data-text="s" xlink:href="#font_1_98" transform="matrix(9.96264,0,0,-9.96264,386.97206,18.206202)"/>
<path transform="matrix(1,0,0,-1,82.06952,100.7908)" stroke-width=".79701" stroke-linecap="butt" stroke-miterlimit="10" stroke-linejoin="miter" fill="none" stroke="#000000" d="M209.76634 0H353.82759"/>
<path transform="matrix(1,0,0,-1,435.8971,100.7908)" d="M4.53381 0C3.97704 .13808 1.52963 .92049 0 1.77196V-1.77196C1.52963-.92049 3.97704-.13808 4.53381 0Z"/>
<path transform="matrix(1,0,0,-1,435.8971,100.7908)" stroke-width=".79701" stroke-linecap="butt" stroke-miterlimit="10" stroke-linejoin="miter" fill="none" stroke="#000000" d="M4.53381 0C3.97704 .13808 1.52963 .92049 0 1.77196V-1.77196C1.52963-.92049 3.97704-.13808 4.53381 0Z"/>
<path transform="matrix(1,0,0,-1,82.06952,100.7908)" stroke-width=".79701" stroke-linecap="butt" stroke-miterlimit="10" stroke-linejoin="miter" fill="none" stroke="#000000" d="M283.46824-56.69362V64.69008"/>
<path transform="matrix(0,-1,-1,-0,365.53776,36.100725)" d="M4.53381 0C3.97704 .13808 1.52963 .92049 0 1.77196V-1.77196C1.52963-.92049 3.97704-.13808 4.53381 0Z"/>
<path transform="matrix(0,-1,-1,-0,365.53776,36.100725)" stroke-width=".79701" stroke-linecap="butt" stroke-miterlimit="10" stroke-linejoin="miter" fill="none" stroke="#000000" d="M4.53381 0C3.97704 .13808 1.52963 .92049 0 1.77196V-1.77196C1.52963-.92049 3.97704-.13808 4.53381 0Z"/>
<path transform="matrix(1,0,0,-1,82.06952,100.7908)" stroke-width="1.19553" stroke-linecap="butt" stroke-miterlimit="10" stroke-linejoin="miter" fill="none" stroke="#b30000" d="M283.46824 0H304.04408"/>
<path transform="matrix(1,0,0,-1,386.1136,100.7908)" d="M5.30629 0C4.65466 .16344 1.79025 1.08963 0 2.09753V-2.09753C1.79025-1.08963 4.65466-.16344 5.30629 0Z" fill="#b30000"/>
<path transform="matrix(1,0,0,-1,386.1136,100.7908)" stroke-width="1.19553" stroke-linecap="butt" stroke-miterlimit="10" stroke-linejoin="miter" fill="none" stroke="#b30000" d="M5.30629 0C4.65466 .16344 1.79025 1.08963 0 2.09753V-2.09753C1.79025-1.08963 4.65466-.16344 5.30629 0Z"/>
<use data-text="|" xlink:href="#font_4_2" transform="matrix(8.966376,0,0,-8.966376,397.80287,111.43399)" fill="#b30000"/>
<use data-text="1" xlink:href="#font_5_1" transform="matrix(8.966376,0,0,-8.966376,400.3627,111.43399)" fill="#b30000"/>
<use data-text="&#x27e9;" xlink:href="#font_4_1" transform="matrix(8.966376,0,0,-8.966376,404.97038,111.43399)" fill="#b30000"/>
<path transform="matrix(1,0,0,-1,82.06952,100.7908)" stroke-width="1.19553" stroke-linecap="butt" stroke-miterlimit="10" stroke-linejoin="miter" fill="none" stroke="#b30000" d="M283.46824 0V20.57585"/>
<path transform="matrix(0,-1,-1,-0,365.53776,80.21495)" d="M5.30629 0C4.65466 .16344 1.79025 1.08963 0 2.09753V-2.09753C1.79025-1.08963 4.65466-.16344 5.30629 0Z" fill="#b30000"/>
<path transform="matrix(0,-1,-1,-0,365.53776,80.21495)" stroke-width="1.19553" stroke-linecap="butt" stroke-miterlimit="10" stroke-linejoin="miter" fill="none" stroke="#b30000" d="M5.30629 0C4.65466 .16344 1.79025 1.08963 0 2.09753V-2.09753C1.79025-1.08963 4.65466-.16344 5.30629 0Z"/>
<use data-text="|" xlink:href="#font_4_2" transform="matrix(8.966376,0,0,-8.966376,350.868,66.284069)" fill="#b30000"/>
<use data-text="2" xlink:href="#font_5_2" transform="matrix(8.966376,0,0,-8.966376,353.42787,66.284069)" fill="#b30000"/>
<use data-text="&#x27e9;" xlink:href="#font_4_1" transform="matrix(8.966376,0,0,-8.966376,358.03553,66.284069)" fill="#b30000"/>
<path transform="matrix(1,0,0,-1,82.06952,100.7908)" stroke-width=".3985" stroke-linecap="butt" stroke-dasharray="2.98883,2.98883" stroke-miterlimit="10" stroke-linejoin="miter" fill="none" stroke="#7f807f" d="M311.81504 0C311.81504 15.6557 299.12394 28.3468 283.46824 28.3468 267.8125 28.3468 255.1214 15.6557 255.1214 0 255.1214-15.6557 267.8125-28.3468 283.46824-28.3468 299.12394-28.3468 311.81504-15.6557 311.81504 0ZM283.46824 0"/>
<path transform="matrix(1,0,0,-1,82.06952,100.7908)" d="M340.16184 0C340.16184 7.82784 314.77964 14.17339 283.46824 14.17339 252.15679 14.17339 226.7746 7.82784 226.7746 0 226.7746-7.82784 252.15679-14.17339 283.46824-14.17339 314.77964-14.17339 340.16184-7.82784 340.16184 0ZM283.46824 0" fill="#fffcdf" fill-opacity=".6"/>
<path transform="matrix(1,0,0,-1,82.06952,100.7908)" stroke-width="1.19553" stroke-linecap="butt" stroke-miterlimit="10" stroke-linejoin="miter" fill="none" stroke="#b30000" d="M340.16184 0C340.16184 7.82784 314.77964 14.17339 283.46824 14.17339 252.15679 14.17339 226.7746 7.82784 226.7746 0 226.7746-7.82784 252.15679-14.17339 283.46824-14.17339 314.77964-14.17339 340.16184-7.82784 340.16184 0ZM283.46824 0"/>
<use data-text="s" xlink:href="#font_8_98" transform="matrix(7.970112,0,0,-7.970112,380.7839,80.054248)"/>
<use data-text="t" xlink:href="#font_8_105" transform="matrix(7.970112,0,0,-7.970112,384.12339,80.054248)"/>
<use data-text="r" xlink:href="#font_8_96" transform="matrix(7.970112,0,0,-7.970112,387.41505,80.054248)"/>
<use data-text="e" xlink:href="#font_8_50" transform="matrix(7.970112,0,0,-7.970112,390.71467,80.054248)"/>
<use data-text="t" xlink:href="#font_8_105" transform="matrix(7.970112,0,0,-7.970112,394.47657,80.054248)"/>
<use data-text="c" xlink:href="#font_8_43" transform="matrix(7.970112,0,0,-7.970112,397.76823,80.054248)"/>
<use data-text="h" xlink:href="#font_8_63" transform="matrix(7.970112,0,0,-7.970112,401.29899,80.054248)"/>
<use data-text="b" xlink:href="#font_8_35" transform="matrix(7.970112,0,0,-7.970112,408.8148,80.054248)"/>
<use data-text="y" xlink:href="#font_8_118" transform="matrix(7.970112,0,0,-7.970112,413.286,80.054248)"/>
<use data-text="&#x03bb;" xlink:href="#font_9_1" transform="matrix(7.970112,0,0,-7.970112,420.5707,80.054248)"/>
<use data-text="1" xlink:href="#font_3_1" transform="matrix(5.977584,0,0,-5.977584,425.5106,81.161197)"/>
<use data-text="s" xlink:href="#font_8_98" transform="matrix(7.970112,0,0,-7.970112,321.2559,125.43631)"/>
<use data-text="t" xlink:href="#font_8_105" transform="matrix(7.970112,0,0,-7.970112,324.59538,125.43631)"/>
<use data-text="r" xlink:href="#font_8_96" transform="matrix(7.970112,0,0,-7.970112,327.88703,125.43631)"/>
<use data-text="e" xlink:href="#font_8_50" transform="matrix(7.970112,0,0,-7.970112,331.18666,125.43631)"/>
<use data-text="t" xlink:href="#font_8_105" transform="matrix(7.970112,0,0,-7.970112,334.94856,125.43631)"/>
<use data-text="c" xlink:href="#font_8_43" transform="matrix(7.970112,0,0,-7.970112,338.2402,125.43631)"/>
<use data-text="h" xlink:href="#font_8_63" transform="matrix(7.970112,0,0,-7.970112,341.77098,125.43631)"/>
<use data-text="b" xlink:href="#font_8_35" transform="matrix(7.970112,0,0,-7.970112,349.28678,125.43631)"/>
<use data-text="y" xlink:href="#font_8_118" transform="matrix(7.970112,0,0,-7.970112,353.758,125.43631)"/>
<use data-text="&#x03bb;" xlink:href="#font_9_1" transform="matrix(7.970112,0,0,-7.970112,361.0427,125.43631)"/>
<use data-text="2" xlink:href="#font_3_2" transform="matrix(5.977584,0,0,-5.977584,365.98258,126.54326)"/>
<use data-text="A" xlink:href="#font_10_2" transform="matrix(9.96264,0,0,-9.96264,161.52404,188.39167)"/>
<use data-text="=" xlink:href="#font_11_1" transform="matrix(9.96264,0,0,-9.96264,171.76337,188.39167)"/>
<use data-text="P" xlink:href="#font_10_4" transform="matrix(9.96264,0,0,-9.96264,182.27945,188.39167)"/>
<use data-text="D" xlink:href="#font_10_3" transform="matrix(9.96264,0,0,-9.96264,190.0503,188.39167)"/>
<use data-text="P" xlink:href="#font_10_4" transform="matrix(9.96264,0,0,-9.96264,198.56836,188.39167)"/>
<use data-text="&#x2212;" xlink:href="#font_12_1" transform="matrix(6.973848,0,0,-6.973848,206.36417,184.7763)"/>
<use data-text="1" xlink:href="#font_13_1" transform="matrix(6.973848,0,0,-6.973848,212.59085,184.7763)"/>
<use data-text="=" xlink:href="#font_11_1" transform="matrix(9.96264,0,0,-9.96264,219.82753,188.39167)"/>
<use data-text="&#x2211;" xlink:href="#font_14_1" transform="matrix(9.96264,0,0,-9.96264,230.34362,180.91962)"/>
<use data-text="n" xlink:href="#font_15_1" transform="matrix(6.973848,0,0,-6.973848,240.85977,191.38051)"/>
<use data-text="&#x03bb;" xlink:href="#font_10_1" transform="matrix(9.96264,0,0,-9.96264,247.94315,188.39167)"/>
<use data-text="n" xlink:href="#font_15_1" transform="matrix(6.973848,0,0,-6.973848,253.75473,189.88605)"/>
<use data-text="|" xlink:href="#font_16_3" transform="matrix(9.96264,0,0,-9.96264,260.8381,188.39167)"/>
<use data-text="n" xlink:href="#font_10_5" transform="matrix(9.96264,0,0,-9.96264,263.60554,188.39167)"/>
<use data-text="&#x27e9;" xlink:href="#font_16_2" transform="matrix(9.96264,0,0,-9.96264,269.58546,188.39167)"/>
<use data-text="&#x27e8;" xlink:href="#font_16_1" transform="matrix(9.96264,0,0,-9.96264,273.45097,188.39167)"/>
<use data-text="n" xlink:href="#font_10_5" transform="matrix(9.96264,0,0,-9.96264,277.3342,188.39167)"/>
<use data-text="|" xlink:href="#font_16_3" transform="matrix(9.96264,0,0,-9.96264,283.31413,188.39167)"/>
</svg>
