<svg xmlns="http://www.w3.org/2000/svg" xmlns:xlink="http://www.w3.org/1999/xlink" xmlns:inkscape="http://www.inkscape.org/namespaces/inkscape" version="1.1" width="319.5" height="198.41" viewBox="0 0 319.5 198.41">
<defs>
<path id="font_1_97" d="M.57398989 .20323181C.57398989 .31422425 .49299623 .39523316 .4019928 .41423036L.25698854 .4452362C.21699524 .4542389 .16099549 .48823548 .16099549 .5492401 .16099549 .59225466 .18899536 .6542511 .2889862 .6542511 .36898805 .6542511 .46998597 .6202545 .49299623 .48423768 .49699403 .4602356 .49699403 .4582367 .5179901 .4582367 .5419922 .4582367 .5419922 .46324159 .5419922 .48623658V.6692505C.5419922 .68826296 .5419922 .6972656 .5239868 .6972656 .5159912 .6972656 .5149994 .69625857 .5039978 .68626406L.45899964 .6422577C.40098573 .68826296 .33599855 .6972656 .28799439 .6972656 .13598633 .6972656 .06399536 .6012573 .06399536 .49624635 .06399536 .4312439 .09700012 .38523866 .117996219 .36323548 .16699219 .31422425 .20098877 .30723573 .30999757 .28323365 .397995 .2642212 .4149933 .26123048 .43699647 .24023438 .45199586 .22523499 .47698976 .19923401 .47698976 .15324402 .47698976 .10523987 .45098878 .036254884 .34700013 .036254884 .2709961 .036254884 .11898804 .056243898 .11099243 .20523072 .10998535 .22322083 .10998535 .22822571 .08799744 .22822571 .06399536 .22822571 .06399536 .222229 .06399536 .19923401V.01725769C.06399536-.0017547608 .06399536-.0107421879 .08198547-.0107421879 .09098816-.0107421879 .09298706-.008743286 .100997928-.0017547608L.14698792 .04425049C.21299744-.0047454836 .30599977-.0107421879 .34700013-.0107421879 .5119934-.0107421879 .57398989 .102249149 .57398989 .20323181Z"/>
<path id="font_1_50" d="M.49398805 .11706543C.49398805 .13504029 .47499085 .13504029 .46998597 .13504029 .45298768 .13504029 .45098878 .13005066 .44499208 .11405945 .42399598 .066101077 .36698915 .03413391 .3019867 .03413391 .16099549 .03413391 .1599884 .16700745 .1599884 .2179718H.46199037C.48399354 .2179718 .49398805 .2179718 .49398805 .2449646 .49398805 .27598573 .48799134 .34906007 .43798829 .3991089 .40098573 .43511964 .34799195 .453125 .2789917 .453125 .11898804 .453125 .03199768 .35005189 .03199768 .22497559 .03199768 .09107971 .13198853-.005859375 .29299928-.005859375 .45098878-.005859375 .49398805 .10006714 .49398805 .11706543M.39898683 .25097657H.1599884C.1619873 .29000855 .16299439 .3320465 .18399048 .36506654 .20999146 .4051056 .25 .41711427 .2789917 .41711427 .3959961 .41711427 .397995 .28599549 .39898683 .25097657Z"/>
<path id="font_1_84" d="M.59999087 .22319031C.59999087 .3561859 .5089874 .4501953 .36499024 .4501953 .2899933 .4501953 .23699951 .41918946 .21398926 .40118409V.4501953L.036987306 .4423828V.39537049C.09899902 .39537049 .10598755 .39537049 .10598755 .3573761V-.14648438H.036987306V-.1934967L.16299439-.19049073 .2889862-.1934967V-.14648438H.21998596V.03945923C.2630005 .004135132 .30699159-.005859375 .34799195-.005859375 .49798585-.005859375 .59999087 .08413696 .59999087 .22312927V.22319031M.47200013 .22312927C.47200013 .08213806 .4019928 .030136109 .33699037 .030136109 .32299806 .030136109 .27598573 .030136109 .23098755 .08413696 .21998596 .09713745 .21998596 .09812927 .21998596 .117126468V.32913209C.21998596 .34814454 .22099304 .3491516 .23498535 .36314393 .2749939 .4041443 .32699586 .41015626 .34899903 .41015626 .41600038 .41015626 .47200013 .3491516 .47200013 .22314453V.22312927Z"/>
<path id="font_1_28" d="M.5529938 .023986817C.5529938 .04699707 .5399933 .04699707 .5269928 .04699707 .46598817 .04798889 .46598817 .06100464 .46598817 .083999637V.29907228C.46598817 .3881073 .394989 .453125 .24598694 .453125 .18899536 .453125 .066986087 .44911195 .066986087 .36109925 .066986087 .3170929 .101989749 .29808045 .1289978 .29808045 .1599884 .29808045 .19198609 .3190918 .19198609 .36109925 .19198609 .39111329 .17298889 .40811158 .16999817 .41011048 .19799805 .41612245 .22999573 .41711427 .24198914 .41711427 .31698609 .41711427 .35198976 .3751068 .35198976 .29907228V.26506043C.2809906 .2620697 .026992798 .25306703 .026992798 .10801697 .026992798 .012130737 .15098572-.005859375 .21998596-.005859375 .2999878-.005859375 .34700013 .035125734 .36898805 .07713318 .36898805 .04598999 .36898805 0 .47299195 0H.5209961C.54100039 0 .5529938 0 .5529938 .023986817M.35198976 .13899231C.35198976 .043151857 .2599945 .030136109 .23498535 .030136109 .18399048 .030136109 .14399719 .06517029 .14399719 .10922241 .14399719 .21734619 .3019867 .23136902 .35198976 .234375V.13899231Z"/>
<path id="font_1_96" d="M.44198609 .36819459C.44198609 .42118836 .3880005 .4501953 .33599855 .4501953 .2659912 .4501953 .22599793 .40019227 .20298767 .33718873V.4501953L.036987306 .4423828V.39537049C.09899902 .39537049 .10598755 .39537049 .10598755 .3563385V.04699707H.036987306V0L.16299439 .0029907227C.20098877 .0029907227 .2649994 .0029907227 .30099488 0V.04699707H.21398926V.22218323C.21398926 .29226686 .23899842 .41436769 .33898927 .41436769 .33898927 .41436769 .31999208 .39736939 .31999208 .36834718 .31999208 .32730104 .35198976 .3072815 .3809967 .3072815 .4099884 .3072815 .44198609 .3283081 .44198609 .36834718V.36819459Z"/>
<path id="font_1_35" d="M.59999087 .22319031C.59999087 .3561859 .5059967 .4501953 .36099244 .4501953 .28799439 .4501953 .23799134 .42118836 .21398926 .40118409V.69433596L.036987306 .6863251V.639328C.09899902 .639328 .10598755 .639328 .10598755 .600296V.00018310547H.15299988C.16899109 .019180298 .18598938 .03718567 .20199585 .05618286 .20999146 .04814148 .25898744-.005859375 .34799195-.005859375 .49699403-.005859375 .59999087 .08413696 .59999087 .22315979V.22319031M.47200013 .22315979C.47200013 .17614746 .47200013 .12113953 .44599916 .08213806 .4169922 .041137697 .37098695 .030136109 .33898927 .030136109 .2689972 .030136109 .22999573 .08413696 .21998596 .09913635V.35017396C.24699402 .3851776 .29499818 .41418458 .34999085 .41418458 .47200013 .41418458 .47200013 .2931671 .47200013 .22315979Z"/>
<path id="font_1_72" d="M.29299928 0V.04699707H.22399903V.69433596L.04699707 .6855469V.63853457C.10899353 .63853457 .115997318 .63853457 .115997318 .5995636V.04699707H.04699707V0L.16999817 .0029907227 .29299928 0Z"/>
<path id="font_1_44" d="M.23699951 .366333C.23699951 .40933229 .20199585 .44433595 .15899658 .44433595 .115997318 .44433595 .08099365 .40933229 .08099365 .366333 .08099365 .32333375 .115997318 .28833009 .15899658 .28833009 .20199585 .28833009 .23699951 .32333375 .23699951 .366333M.23699951 .07798767C.23699951 .12098694 .20199585 .1559906 .15899658 .1559906 .115997318 .1559906 .08099365 .12098694 .08099365 .07798767 .08099365 .034988405 .115997318 0 .15899658 0 .20199585 0 .23699951 .034988405 .23699951 .07798767Z"/>
<path id="font_2_2" d="M.33499146 .63612368C.33499146 .6630554 .33299256 .6640625 .30499269 .6640625 .24099732 .6014404 .1499939 .6004486 .10899353 .6004486V.5644531C.1329956 .5644531 .19898987 .5644531 .2539978 .592453V.08203125C.2539978 .04899597 .2539978 .035995485 .1539917 .035995485H.115997318V0C.13398743 .0009918213 .25698854 .0039978029 .2939911 .0039978029 .32499696 .0039978029 .45098878 .0009918213 .47299195 0V.035995485H.43499757C.33499146 .035995485 .33499146 .04899597 .33499146 .08203125V.63612368Z"/>
<path id="font_2_3" d="M.5049896 .18203736H.47099305C.46798707 .16001892 .45799256 .100997928 .44499208 .09098816 .43699647 .084991458 .3600006 .084991458 .34599305 .084991458H.1619873C.2669983 .17803955 .3019867 .20603943 .3619995 .25306703 .43598939 .312088 .5049896 .374115 .5049896 .46914674 .5049896 .5900879 .39898683 .6640625 .2709961 .6640625 .14698792 .6640625 .06298828 .57710269 .06298828 .4851532 .06298828 .43414308 .10598755 .42915345 .115997318 .42915345 .13999939 .42915345 .16899109 .44615174 .16899109 .48214723 .16899109 .5001526 .1619873 .53515627 .10998535 .53515627 .14099121 .6060791 .20899964 .62805178 .2559967 .62805178 .35598756 .62805178 .4079895 .5501404 .4079895 .46914674 .4079895 .38212586 .34599305 .3130951 .31399537 .27708436L.07299805 .038986207C.06298828 .02999878 .06298828 .027999878 .06298828 0H.47499085L.5049896 .18203736Z"/>
<path id="font_3_2" d="M.33099366-.2400055C.33099366-.23701477 .33099366-.23500061 .31399537-.21800232 .18899536-.0920105 .15699768 .09700012 .15699768 .25 .15699768 .42399598 .19499207 .59799197 .31799317 .72299197 .33099366 .73498538 .33099366 .7369995 .33099366 .73999026 .33099366 .746994 .32699586 .75 .32099916 .75 .31098939 .75 .22099304 .6819916 .1619873 .5549927 .11099243 .44499208 .09899902 .33399964 .09899902 .25 .09899902 .17199707 .10998535 .050994874 .16499329-.06201172 .22499085-.18501282 .31098939-.25 .32099916-.25 .32699586-.25 .33099366-.24700928 .33099366-.2400055Z"/>
<path id="font_4_3" d="M.15899658 .71398928C.15899658 .7319946 .15899658 .75 .13899231 .75 .11898804 .75 .11898804 .7319946 .11898804 .71398928V-.21400452C.11898804-.23200989 .11898804-.25 .13899231-.25 .15899658-.25 .15899658-.23200989 .15899658-.21400452V.71398928Z"/>
<path id="font_3_5" d="M.45999146 .31976319C.45999146 .39982606 .45498658 .47988893 .41999818 .5539398 .37399293 .65000918 .2919922 .6660156 .25 .6660156 .18998719 .6660156 .116989139 .64001467 .07598877 .54693606 .04399109 .47789 .038986207 .39982606 .038986207 .31976319 .038986207 .24472046 .042999269 .15464783 .083999637 .07859802 .1269989-.0024719239 .19999695-.022460938 .24899292-.022460938 .30299378-.022460938 .3789978-.0014648438 .4229889 .09359741 .45498658 .16265869 .45999146 .2407074 .45999146 .31976319M.24899292-.00047302247C.20999146-.00047302247 .15098572 .024551392 .1329956 .12062073 .12199402 .18066406 .12199402 .2727356 .12199402 .3317871 .12199402 .39582826 .12199402 .46188355 .12998963 .5159149 .14898682 .63500979 .22399903 .64401248 .24899292 .64401248 .28199769 .64401248 .34799195 .6259918 .36698915 .52693179 .3769989 .47088624 .3769989 .39482118 .3769989 .3317871 .3769989 .25672914 .3769989 .18867493 .3659973 .12461853 .35099793 .029556275 .2939911-.00047302247 .24899292-.00047302247Z"/>
<path id="font_4_2" d="M.272995 .23298645C.27799989 .24499512 .27799989 .24699402 .27799989 .25 .27799989 .25299073 .27799989 .25498963 .272995 .2669983L.09799194 .72698977C.09199524 .74398806 .085998538 .75 .07499695 .75 .06399536 .75 .054992677 .7409973 .054992677 .7299957 .054992677 .72698977 .054992677 .72499087 .05999756 .71398928L.23699951 .25 .05999756-.21200562C.054992677-.2230072 .054992677-.2250061 .054992677-.23001099 .054992677-.24101258 .06399536-.25 .07499695-.25 .08799744-.25 .09199524-.2400055 .09599304-.23001099L.272995 .23298645Z"/>
<path id="font_3_4" d="M.40899659 .23046875H.6879883C.70199587 .23046875 .72099307 .23046875 .72099307 .25045777 .72099307 .27046205 .70199587 .27046205 .6879883 .27046205H.40899659V.5500183C.40899659 .56399539 .40899659 .5830078 .3889923 .5830078 .36898805 .5830078 .36898805 .56399539 .36898805 .5500183V.27046205H.08898926C.07499695 .27046205 .055999757 .27046205 .055999757 .25045777 .055999757 .23046875 .07499695 .23046875 .08898926 .23046875H.36898805V-.05000305C.36898805-.06401062 .36898805-.08300781 .3889923-.08300781 .40899659-.08300781 .40899659-.06401062 .40899659-.05000305V.23046875Z"/>
<path id="font_3_6" d="M.2939911 .64004519C.2939911 .66400149 .2939911 .6660156 .2709961 .6660156 .20899964 .60227969 .12098694 .60227969 .08898926 .60227969V.57128909C.10899353 .57128909 .16799927 .57128909 .21998596 .5972748V.07902527C.21998596 .042999269 .21699524 .0309906 .1269989 .0309906H.09498596V0C.12998963 .0029907227 .21699524 .0029907227 .25698854 .0029907227 .29699708 .0029907227 .38398744 .0029907227 .4189911 0V.0309906H.3869934C.29699708 .0309906 .2939911 .041992189 .2939911 .07902527V.64004519Z"/>
<path id="font_3_3" d="M.2889862 .25C.2889862 .32798768 .27799989 .44898988 .22299195 .56199648 .16299439 .68499758 .07699585 .75 .066986087 .75 .06098938 .75 .056991579 .74598696 .056991579 .73999026 .056991579 .7369995 .056991579 .73498538 .07598877 .71699526 .17399597 .6179962 .23098755 .45899964 .23098755 .25 .23098755 .07899475 .19400025-.09700012 .069992069-.2230072 .056991579-.23500061 .056991579-.23701477 .056991579-.2400055 .056991579-.2460022 .06098938-.25 .066986087-.25 .07699585-.25 .16699219-.18200684 .22599793-.055007936 .2769928 .054992677 .2889862 .16600037 .2889862 .25Z"/>
<path id="font_4_1" d="M.7220001 .25C.7220001 .43400575 .57199099 .5830078 .3889923 .5830078 .20298767 .5830078 .054992677 .43200685 .054992677 .25 .054992677 .06599426 .20498657-.08300781 .3880005-.08300781 .57398989-.08300781 .7220001 .067993167 .7220001 .25M.18998719 .46499635C.18798828 .46699525 .18099976 .47399903 .18099976 .47599793 .18099976 .47999574 .2619934 .55799868 .3880005 .55799868 .4229889 .55799868 .5149994 .55300906 .5970001 .47599793L.3889923 .2669983 .18998719 .46499635M.16099549 .040985109C.099990848 .10899353 .07998657 .18598938 .07998657 .25 .07998657 .32699586 .10899353 .3999939 .16099549 .45899964L.36999513 .25 .16099549 .040985109M.61499026 .45899964C.6629944 .40800477 .69699099 .33200074 .69699099 .25 .69699099 .17298889 .66799929 .099990848 .6159973 .040985109L.40699769 .25 .61499026 .45899964M.58699038 .034988405C.58898928 .032989503 .59599307 .025985718 .59599307 .023986817 .59599307 .019989014 .5149994-.058013917 .3889923-.058013917 .35398866-.058013917 .2619934-.053009035 .17999268 .023986817L.3880005 .23298645 .58699038 .034988405Z"/>
<path id="font_5_5" d="M.1639862 .71299746C.1639862 .7299957 .1639862 .75 .14299011 .75 .12098694 .75 .12098694 .73098757 .12098694 .71299746V-.2130127C.12098694-.23001099 .12098694-.25 .14199829-.25 .1639862-.25 .1639862-.23100281 .1639862-.2130127V.71299746Z"/>
<path id="font_6_4" d="M.3039856 .6392822C.3039856 .6642761 .30299378 .666275 .27799989 .666275 .21598816 .60227969 .12399292 .60227969 .09298706 .60227969V.57128909C.11199951 .57128909 .17298889 .57128909 .22698975 .5972748V.08001709C.22698975 .042999269 .22399903 .0309906 .1309967 .0309906H.09899902V0C.1349945 .0029907227 .22399903 .0029907227 .2649994 .0029907227 .30599977 .0029907227 .3959961 .0029907227 .43199159 0V.0309906H.3999939C.30699159 .0309906 .3039856 .042999269 .3039856 .08001709V.6392822Z"/>
<path id="font_5_4" d="M.27999879 .23197937C.28599549 .24597168 .28599549 .24797058 .28599549 .24996948 .28599549 .25297547 .28599549 .25497438 .27999879 .26898194L.102996829 .72598269C.09599304 .74398806 .08999634 .75 .07798767 .75 .066986087 .75 .056991579 .7409973 .056991579 .72798159 .056991579 .72598269 .056991579 .72398379 .06298828 .70999148L.24099732 .25097657 .06298828-.20903015C.056991579-.22303772 .056991579-.22503662 .056991579-.22703552 .056991579-.24003601 .066986087-.24902344 .07798767-.24902344 .08999634-.24902344 .09599304-.24302674 .102996829-.22503662L.27999879 .23197937Z"/>
<path id="font_7_1" d="M.22599793 .12182617C.18798828 .063949588 .1539917 .04397583 .09799194 .039993287 .083999637 .038986207 .07199097 .037994386 .07199097 .01499939 .07199097 .004989624 .07998657 0 .08699036 0 .114990238 0 .147995 .0039978029 .1769867 .0039978029 .20098877 .0039978029 .2599945 0 .28399659 0 .29499818 0 .30599977 .004989624 .30599977 .024993897 .30599977 .038986207 .2919922 .039993287 .2889862 .039993287 .2649994 .040985109 .24299622 .04698181 .24299622 .06893921 .24299622 .0809021 .2539978 .09786987 .25698854 .10386658L.33898927 .22662354H.6399994L.66600039 .06593323C.66600039 .039993287 .60798647 .039993287 .59799197 .039993287 .58499148 .039993287 .56900027 .039993287 .56900027 .01499939 .56900027 .009994507 .57398989 0 .58599856 0 .6159973 0 .68899539 .0039978029 .71899417 .0039978029 .7389984 .0039978029 .7579956 .0029907227 .7779999 .0029907227 .7979889 .0029907227 .81999209 0 .83898928 0 .8450012 0 .86099246 0 .86099246 .024993897 .86099246 .039993287 .84799197 .039993287 .83299258 .039993287 .7709961 .039993287 .769989 .04698181 .7659912 .07192993L.66600039 .68685916C.6629944 .7048645 .6619873 .7138672 .6399994 .7138672 .61898806 .7138672 .61299136 .7058563 .60398867 .691864L.22599793 .12182617M.36499024 .26661683 .58099368 .5917969 .6329956 .26661683H.36499024Z"/>
<path id="font_6_3" d="M.47299195 .31976319C.47299195 .38682557 .46998597 .47288514 .43499757 .5479431 .3909912 .64201357 .31498719 .6660156 .25698854 .6660156 .19699097 .6660156 .12098694 .64201357 .07699585 .5459442 .04499817 .47688294 .039993287 .39582826 .039993287 .31976319 .039993287 .25471498 .041992189 .15765381 .084991458 .07858276 .13198853-.0064697267 .20999146-.022460938 .2559967-.022460938 .32099916-.022460938 .394989 .0055389406 .43699647 .097595218 .46699525 .1646576 .47299195 .23971558 .47299195 .31976319M.25698854 .002532959C.22698975 .002532959 .15499878 .016540528 .13598633 .12962342 .12599182 .18867493 .12599182 .2747345 .12599182 .33177186 .12599182 .39982606 .12599182 .47888185 .13798523 .53393557 .1579895 .6230011 .22200012 .64100649 .2559967 .64100649 .2939911 .64100649 .35699464 .62098696 .37599183 .5279236 .3869934 .47288514 .3869934 .39482118 .3869934 .33177186 .3869934 .2697296 .3869934 .18566895 .3769989 .12661743 .35598756 .012542725 .28199769 .002532959 .25698854 .002532959Z"/>
<path id="font_7_2" d="M.20999146 .082977298C.20098877 .04698181 .19898987 .039993287 .12399292 .039993287 .101989749 .039993287 .099990848 .039993287 .09599304 .036987306 .09098816 .032989503 .08699036 .019989014 .08699036 .01399231 .08999634 0 .09899902 0 .11898804 0H.526001C.69898989 0 .83499148 .112960819 .83499148 .21292115 .83499148 .27488709 .7809906 .3408661 .6559906 .35786439 .7709961 .3758545 .8849945 .4487915 .8849945 .53970339 .8849945 .6116333 .80599978 .6826172 .6649933 .6826172H.28199769C.2630005 .6826172 .24798584 .6826172 .24798584 .65760806 .24798584 .64260867 .2630005 .64260867 .2809906 .64260867 .29899598 .64260867 .32398988 .64260867 .34498597 .6356201 .34498597 .6256256 .34498597 .6196289 .34098817 .6036377L.20999146 .082977298M.37399293 .3718567 .43299867 .6086426C.44099427 .64060977 .44198609 .64260867 .48399354 .64260867H.6489868C.7529907 .64260867 .7829895 .57966616 .7829895 .53770449 .7829895 .45578004 .67900088 .3718567 .55599978 .3718567H.37399293M.32598878 .039993287C.30699159 .039993287 .30499269 .039993287 .29299928 .04298401L.36499024 .3388672H.58299258C.70899966 .3388672 .7299957 .2578888 .7299957 .21791077 .7299957 .12194824 .6239929 .039993287 .5 .039993287H.32598878Z"/>
<path id="font_8_97" d="M.5130005 .18504334C.5130005 .24205017 .49198915 .28604127 .46798707 .31604005 .4249878 .37104798 .37998963 .38204957 .31498719 .39704896L.22698975 .41804505C.14698792 .43804933 .12098694 .5020447 .12098694 .546051 .12098694 .6130676 .1749878 .677063 .25898744 .677063 .3880005 .677063 .43998719 .5810547 .45399476 .4800415 .45700074 .4610443 .45799256 .4560547 .46998597 .4560547 .48399354 .4560547 .48399354 .4630432 .48399354 .48405458V.677063C.48399354 .69706729 .48399354 .7050781 .47200013 .7050781 .46499635 .7050781 .46398927 .70407107 .45700074 .69207766 .44400025 .67407229 .45399476 .68707278 .42099 .6350708 .4039917 .6550751 .35198976 .7050781 .2579956 .7050781 .14099121 .7047119 .056991579 .6137085 .056991579 .51171877 .056991579 .4336853 .10398865 .38565064 .10899353 .38064576 .1539917 .33662416 .17199707 .33161927 .29100038 .30360414 .37199403 .28459168 .3809967 .28259278 .4139862 .24856568 .4139862 .24856568 .44898988 .21055603 .44898988 .1515503 .44898988 .08354187 .3999939 .008529663 .30899049 .008529663 .23199463 .008529663 .09298706 .040542604 .084991458 .20555115 .083999637 .22055054 .083999637 .2265625 .070999149 .2265625 .056991579 .2265625 .056991579 .21855164 .056991579 .19854737V.0055389406C.056991579-.014465332 .056991579-.022460938 .068984989-.022460938 .07598877-.022460938 .07699585-.021469117 .083999637-.009475708 .09700012 .008529663 .08699036-.004470825 .11999512 .047531129 .18199158-.012466431 .26098634-.022460938 .30999757-.022460938 .43199159-.022460938 .5130005 .07752991 .5130005 .18452454V.18504334Z"/>
<path id="font_8_43" d="M.4269867 .11936951C.4269867 .13139344 .41600038 .13139344 .41299439 .13139344 .4019928 .13139344 .4019928 .12937927 .3959961 .11236572 .37298585 .043289186 .31698609 .01725769 .2659912 .01725769 .20199585 .01725769 .11999512 .06932068 .11999512 .21749878 .11999512 .3735962 .19999695 .42022706 .2599945 .42022706 .272995 .42022706 .32699586 .41825868 .3639984 .39356996 .34298707 .3895874 .32299806 .3755951 .32299806 .34658814 .32299806 .32058717 .34298707 .30059815 .36898805 .30059815 .394989 .30059815 .41600038 .31759645 .41600038 .34858705 .41600038 .4103546 .34599305 .4482422 .2579956 .4482422 .12998963 .4482422 .033996583 .3415985 .033996583 .2164917 .033996583 .08734131 .13798523-.0107421879 .2559967-.0107421879 .394989-.0107421879 .4269867 .11036682 .4269867 .11936951Z"/>
<path id="font_8_63" d="M.5469971 0V.0309906C.49598695 .03125 .47099305 .03125 .46998597 .0622406V.25431825C.46998597 .3373413 .46998597 .36636354 .44198609 .4013672 .4189911 .42938233 .3809967 .4423828 .33099366 .4423828 .2639923 .4423828 .21499634 .40737916 .18399048 .35134889H.18299866V.69433596L.034988405 .6826172V.6516113C.102996829 .6516113 .11199951 .64463809 .11199951 .59580996V.077041629C.11199951 .0309906 .100997928 .0309906 .034988405 .0309906V0C.08198547 .0019989014 .100997928 .0029907227 .14898682 .0029907227 .19699097 .0029907227 .20999146 .0019989014 .2630005 0V.0309906C.19699097 .0309906 .18598938 .0309906 .18598938 .077041629V.2592163C.18598938 .36532594 .26098634 .41737367 .32398988 .41737367 .3829956 .41737367 .3959961 .3683319 .3959961 .30825807V.077041629C.3959961 .0309906 .3849945 .0309906 .31900025 .0309906V0C.3659973 .0019989014 .3849945 .0029907227 .43299867 .0029907227 .48098756 .0029907227 .49398805 .0019989014 .5469971 0Z"/>
<path id="font_8_75" d="M.83299258 0V.0309906C.7819977 .03125 .7569885 .03125 .7559967 .0622406V.2539215C.7559967 .34077455 .7559967 .36872865 .72299197 .4056549 .70199587 .43037416 .6619873 .4423828 .6159973 .4423828 .5439911 .4423828 .49499513 .40037538 .46699525 .3473816 .45498658 .40637208 .4149933 .4423828 .33099366 .4423828 .25099183 .4423828 .20199585 .39038087 .18099976 .3443756H.17999268V.4423828L.034988405 .43066407V.3996582C.102996829 .3996582 .11199951 .39266969 .11199951 .34370423V.07695007C.11199951 .0309906 .100997928 .0309906 .034988405 .0309906V0C.08198547 .0019989014 .100997928 .0029907227 .14898682 .0029907227 .19699097 .0029907227 .20999146 .0019989014 .2630005 0V.0309906C.19699097 .0309906 .18598938 .0309906 .18598938 .07695007V.25878907C.18598938 .36732484 .2639923 .41737367 .32398988 .41737367 .3789978 .41737367 .39698792 .37834168 .39698792 .30825807V.077041629C.39698792 .0309906 .38598634 .0309906 .31999208 .0309906V0C.36698915 .0019989014 .38598634 .0029907227 .43399049 .0029907227 .48199464 .0029907227 .49499513 .0019989014 .5479889 0V.0309906C.48199464 .0309906 .47099305 .0309906 .47099305 .077041629V.2592163C.47099305 .36732484 .548996 .41737367 .60899356 .41737367 .6639862 .41737367 .6819916 .37834168 .6819916 .30825807V.077041629C.6819916 .0309906 .67099 .0309906 .6049957 .0309906V0C.6519928 .0019989014 .67099 .0029907227 .71899417 .0029907227 .7669983 .0029907227 .7799988 .0019989014 .83299258 0Z"/>
<path id="font_8_66" d="M.25299073 0V.0309906C.18798828 .0309906 .18399048 .035995485 .18399048 .075042728V.4423828L.039993287 .43066407V.3996582C.10398865 .3996582 .11299133 .3936615 .11299133 .3447113V.07695007C.11299133 .0309906 .101989749 .0309906 .035995485 .0309906V0C.08099365 .0019989014 .101989749 .0029907227 .1459961 .0029907227 .1619873 .0029907227 .20399475 .0029907227 .25299073 0M.19699097 .6028137C.19699097 .63282778 .17298889 .6568146 .14299011 .6568146 .11299133 .6568146 .08898926 .63282778 .08898926 .6028137 .08898926 .57281497 .11299133 .5488281 .14299011 .5488281 .17298889 .5488281 .19699097 .57281497 .19699097 .6028137Z"/>
<path id="font_8_47" d="M.5399933 0V.0309906C.47200013 .0309906 .46299745 .037994386 .46299745 .087020877V.69433596L.31498719 .6826172V.6516113C.3829956 .6516113 .3919983 .64463809 .3919983 .59580996V.38339234C.3869934 .38938905 .34199525 .4423828 .2639923 .4423828 .14099121 .4423828 .033996583 .3443756 .033996583 .21525574 .033996583 .09013367 .13398743-.0107421879 .25299073-.0107421879 .32598878-.0107421879 .37098695 .03224182 .3889923 .053115846V-.0107421879L.5399933 0M.3889923 .12011719C.3889923 .10211182 .3889923 .099121097 .37399293 .078125 .34298707 .033218385 .29699708 .014251709 .25698854 .014251709 .21398926 .014251709 .17399597 .038208009 .147995 .0801239 .12199402 .12312317 .11999512 .18218994 .11999512 .21421814 .11999512 .26127626 .12599182 .3143463 .1519928 .35438539 .17399597 .38638307 .21499634 .41737367 .2679901 .41737367 .30999757 .41737367 .34999085 .39637757 .3769989 .35839845 .3889923 .3423767 .3889923 .34136964 .3889923 .32235719V.12011719Z"/>
<path id="font_8_105" d="M.34199525 .12408447V.18099976H.31399537V.1270752C.31399537 .05319214 .2829895 .01725769 .24699402 .01725769 .17999268 .01725769 .17999268 .1051178 .17999268 .12309265V.3996582H.32499696V.43066407H.17999268V.6142578H.1519928C.15098572 .5304413 .115997318 .42765809 .018997193 .4246521V.3996582H.10598755V.12408447C.10598755 .012252808 .18699646-.0107421879 .23999024-.0107421879 .30699159-.011001587 .34199525 .052993776 .34199525 .12399292V.12408447Z"/>
<path id="font_8_96" d="M.37298585 .3798828C.37298585 .41236878 .34298707 .4423828 .2979889 .4423828 .23799134 .4423828 .19599915 .40037538 .17298889 .33787538H.17199707V.4423828L.02999878 .43066407V.3996582C.09799194 .3996582 .10699463 .3927307 .10699463 .34387208V.07698059C.10699463 .0309906 .09599304 .0309906 .02999878 .0309906V0C.08299255 .0019989014 .09599304 .0029907227 .14698792 .0029907227L.27398683 0V.0309906H.2539978C.18099976 .0309906 .17799378 .041992189 .17799378 .07897949V.22891236C.17799378 .26989747 .18899536 .4166565 .30299378 .4166565V.4156494C.30099488 .4146576 .2849884 .40264894 .2849884 .37887574 .2849884 .35186769 .30599977 .33486939 .32899476 .33486939 .34999085 .33486939 .37298585 .34986878 .37298585 .3798828Z"/>
<path id="font_8_28" d="M.49699403 .089141849V.14515686H.46899415V.090148929C.46899415 .07914734 .46899415 .029129029 .43299867 .029129029 .39698792 .029129029 .39698792 .07714844 .39698792 .09315491V.26818849C.39698792 .32521058 .39698792 .3592224 .35198976 .40022279 .31498719 .43322755 .2669983 .4482422 .21699524 .4482422 .1329956 .4482422 .06298828 .40623475 .06298828 .34220887 .06298828 .311203 .083999637 .2942047 .10998535 .2942047 .13699341 .2942047 .1559906 .31420899 .1559906 .34020997 .1559906 .3832245 .11099243 .38822938 .11099243 .38822938 .13798523 .41423036 .18598938 .42323304 .21499634 .42323304 .2659912 .42323304 .32299806 .3852234 .32299806 .29719544V.26419068C.2689972 .26219178 .19400025 .2571869 .1269989 .22518921 .054992677 .19017029 .032989503 .13816834 .032989503 .09814453 .032989503 .01625061 .12998963-.0107421879 .19699097-.0107421879 .27999879-.0107421879 .31799317 .04425049 .33198548 .072250369 .33699037 .030136109 .3659973-.005859375 .40899659-.005859375 .43399049-.005859375 .49699403 .009140015 .49699403 .08912659V.089141849M.32299806 .14112854C.32299806 .04425049 .24798584 .014251709 .20399475 .014251709 .15699768 .014251709 .11299133 .04824829 .11299133 .098236087 .11299133 .16423035 .16999817 .23422241 .32299806 .24023438V.14112854Z"/>
<path id="font_8_77" d="M.5469971 0V.0309906C.49598695 .03125 .47099305 .03125 .46998597 .0622406V.25431825C.46998597 .3373413 .46998597 .36636354 .44198609 .4013672 .4189911 .42938233 .3809967 .4423828 .33099366 .4423828 .23799134 .4423828 .19499207 .37335206 .18099976 .34535218H.17999268V.4423828L.034988405 .43066407V.3996582C.102996829 .3996582 .11199951 .39266969 .11199951 .34370423V.07695007C.11199951 .0309906 .100997928 .0309906 .034988405 .0309906V0C.08198547 .0019989014 .100997928 .0029907227 .14898682 .0029907227 .19699097 .0029907227 .20999146 .0019989014 .2630005 0V.0309906C.19699097 .0309906 .18598938 .0309906 .18598938 .07695007V.25878907C.18598938 .36532594 .26098634 .41737367 .32398988 .41737367 .3829956 .41737367 .3959961 .3683319 .3959961 .30825807V.077041629C.3959961 .0309906 .3849945 .0309906 .31900025 .0309906V0C.3659973 .0019989014 .3849945 .0029907227 .43299867 .0029907227 .48098756 .0029907227 .49398805 .0019989014 .5469971 0Z"/>
<path id="font_8_70" d="M.5239868 0V.0309906C.4909973 .0309906 .46699525 .03199768 .43099977 .07998657L.2889862 .2726593C.3869934 .35765077 .43299867 .39665223 .5009918 .3996582V.43066407C.46598817 .42765809 .46398927 .42765809 .4269867 .42765809L.31698609 .43066407V.3996582C.33198548 .39865113 .34399415 .3916626 .34399415 .37565614 .34399415 .35665895 .32798768 .34365846 .31900025 .33566285L.17799378 .21665955V.69433596L.02999878 .6826172V.6516113C.09799194 .6516113 .10699463 .64460757 .10699463 .5956421V.07696533C.10699463 .0309906 .09599304 .0309906 .02999878 .0309906V0L.14099121 .0029907227 .2519989 0V.0309906C.18598938 .0309906 .1749878 .0309906 .1749878 .07696533V.17790222L.23899842 .23187256 .33599855 .10095215C.35198976 .07896423 .3600006 .066970828 .3600006 .052978517 .3600006 .04298401 .35699464 .0309906 .32598878 .0309906V0L.43399049 .0029907227C.46299745 .0029907227 .49499513 .0029907227 .5239868 0Z"/>
<path id="font_6_7" d="M.70799258 .3310089C.7220001 .3310089 .7409973 .3310089 .7409973 .35202027 .7409973 .37402345 .71899417 .37402345 .70399478 .37402345H.09399414C.07899475 .37402345 .056991579 .37402345 .056991579 .35202027 .056991579 .3310089 .07699585 .3310089 .08999634 .3310089H.70799258M.70399478 .12695313C.71899417 .12695313 .7409973 .12695313 .7409973 .14894104 .7409973 .1699524 .7220001 .1699524 .70799258 .1699524H.08999634C.07699585 .1699524 .056991579 .1699524 .056991579 .14894104 .056991579 .12695313 .07899475 .12695313 .09399414 .12695313H.70399478Z"/>
<path id="font_1_34" d="M.7529907 .18592835C.7529907 .28189088 .6669922 .3488617 .5479889 .35786439 .6559906 .37686158 .72099307 .43678285 .72099307 .51368716 .72099307 .60557559 .6339874 .6855469 .47299195 .6855469H.038986207V.63853457H.14698792V.04699707H.038986207V0H.5029907C.6689911 0 .7529907 .08796692 .7529907 .18592835M.57899478 .51368716C.57899478 .43678285 .5309906 .37486268 .43399049 .37486268H.27799989V.63853457H.45999146C.5609894 .63853457 .57899478 .55963137 .57899478 .51368716M.60598757 .18693543C.60598757 .17492676 .60598757 .04699707 .46199037 .04699707H.27799989V.3388672H.47200013C.49198915 .3388672 .5389862 .3388672 .57299807 .29588319 .60598757 .253891 .60598757 .19792176 .60598757 .18693543Z"/>
<path id="font_1_98" d="M.4149933 .14012146C.4149933 .18312073 .394989 .21812439 .3600006 .24612427 .32099916 .27511598 .2889862 .28112794 .21099854 .29412843 .17399597 .30111695 .10899353 .31211854 .10899353 .3591156 .10899353 .42111207 .20199585 .42111207 .22099304 .42111207 .29599 .42111207 .33399964 .39212037 .33898927 .33711244 .33999635 .32211305 .34098817 .3171234 .3619995 .3171234 .38598634 .3171234 .38598634 .32211305 .38598634 .3451233V.42510987C.38598634 .4441223 .38598634 .453125 .36799623 .453125 .3639984 .453125 .3619995 .453125 .32299806 .43411256 .29699708 .44711305 .2619934 .453125 .22200012 .453125 .19198609 .453125 .037994386 .453125 .037994386 .32211305 .037994386 .28211976 .057998659 .25512696 .07798767 .23812866 .117996219 .203125 .1559906 .1971283 .23298645 .18312073 .2689972 .17712403 .34399415 .16412354 .34399415 .10513306 .34399415 .030136109 .2519989 .030136109 .22999573 .030136109 .12399292 .030136109 .09799194 .103134158 .085998538 .14613343 .08099365 .16012573 .07598877 .16012573 .06199646 .16012573 .037994386 .16012573 .037994386 .15412903 .037994386 .13113404V.022140503C.037994386 .0031280518 .037994386-.005859375 .055999757-.005859375 .06298828-.005859375 .06498718-.005859375 .085998538 .009140015L.11199951 .026138306C.1579895-.005859375 .20999146-.005859375 .22999573-.005859375 .26098634-.005859375 .4149933-.005859375 .4149933 .14013672V.14012146Z"/>
<path id="font_1_105" d="M.38198854 .124176029V.17721558H.33499146V.12619019C.33499146 .058151246 .30299378 .03413391 .2749939 .03413391 .21699524 .03413391 .21699524 .09817505 .21699524 .1211853V.3973236H.36299134V.44433595H.21699524V.6357422H.16999817C.16899109 .53552249 .11999512 .43632508 .020996094 .43333436V.3973236H.102996829V.123184207C.102996829 .01612854 .18998719-.005859375 .26098634-.005859375 .33699037-.005859375 .38198854 .05114746 .38198854 .124176029Z"/>
<path id="font_3_1" d="M.39898683 .13476563C.55400088 .14675904 .6649933 .23977661 .6649933 .3407898 .6649933 .44480897 .5509949 .53582766 .39898683 .54782107V.603714C.39898683 .6376343 .39898683 .6516113 .49398805 .6516113H.5269928V.6826172C.4909973 .6796112 .39898683 .6796112 .35798646 .6796112 .31698609 .6796112 .22399903 .6796112 .18798828 .6826172V.6516113H.22099304C.31599427 .6516113 .31599427 .63864138 .31599427 .603714V.54782107C.16299439 .53282168 .055999757 .44081117 .055999757 .34178163 .055999757 .23876953 .16699219 .14976502 .31599427 .13476563V.07888794C.31599427 .04496765 .31599427 .0309906 .22099304 .0309906H.18798828V0C.22399903 .0029907227 .31599427 .0029907227 .35699464 .0029907227 .397995 .0029907227 .4909973 .0029907227 .5269928 0V.0309906H.49398805C.39898683 .0309906 .39898683 .04396057 .39898683 .07888794V.13476563M.31599427 .15776062C.17399597 .17675781 .1559906 .27877809 .1559906 .3407898 .1559906 .39279176 .1659851 .5048218 .31599427 .52482607V.15776062M.39898683 .5258179C.5369873 .5098114 .5649872 .4178009 .5649872 .34178163 .5649872 .28178407 .5499878 .17475891 .39898683 .15675354V.5258179Z"/>
<path id="font_2_1" d="M.46299745 .2263794H.7689972C.7819977 .2263794 .80599978 .2263794 .80599978 .25038148 .80599978 .27539063 .7829895 .27539063 .7689972 .27539063H.46299745V.5821533C.46299745 .59513857 .46299745 .6191406 .43899537 .6191406 .4139862 .6191406 .4139862 .5961304 .4139862 .5821533V.27539063H.10699463C.09399414 .27539063 .069992069 .27539063 .069992069 .25138856 .069992069 .2263794 .09298706 .2263794 .10699463 .2263794H.4139862V-.08114624C.4139862-.09416199 .4139862-.11816406 .43798829-.11816406 .46299745-.11816406 .46299745-.09516907 .46299745-.08114624V.2263794Z"/>
<path id="font_3_7" d="M.68699648 .32714845C.70199587 .32714845 .72099307 .32714845 .72099307 .34713746 .72099307 .36714173 .70199587 .36714173 .6879883 .36714173H.08898926C.07499695 .36714173 .055999757 .36714173 .055999757 .34713746 .055999757 .32714845 .07499695 .32714845 .08999634 .32714845H.68699648M.6879883 .13284302C.70199587 .13284302 .72099307 .13284302 .72099307 .15284729 .72099307 .17285156 .70199587 .17285156 .68699648 .17285156H.08999634C.07499695 .17285156 .055999757 .17285156 .055999757 .15284729 .055999757 .13284302 .07499695 .13284302 .08898926 .13284302H.6879883Z"/>
<path id="font_9_1" d="M.44299317-.84217837 .24699402-.45318605C.24198914-.44317628 .23899842-.43717958 .23098755-.43717958 .22698975-.43717958 .22499085-.43717958 .21499634-.44517518L.10798645-.5161743C.09399414-.525177 .09399414-.5301819 .09399414-.5331726 .09399414-.5391846 .09899902-.5471802 .10798645-.5471802 .11199951-.5471802 .11399841-.5471802 .1269989-.5381775 .13798523-.5301819 .16699219-.5101776 .1789856-.502182L.397995-.9341736C.40499879-.949173 .40699769-.9511719 .42099-.9511719 .42999269-.9511719 .44099427-.9511719 .45098878-.9321747L.95399478 .003829956C.96199038 .016815186 .96199038 .018829346 .96199038 .02381897 .96199038 .03982544 .94898989 .048828126 .9379883 .048828126 .9229889 .048828126 .91799929 .03982544 .9119873 .027816773L.44299317-.84217837Z"/>
<path id="font_6_5" d="M.46199037 .17704773H.43399049C.43199159 .16404724 .42399598 .10501099 .41099549 .08900452 .40499879 .07998657 .33599855 .07998657 .31599427 .07998657H.13798523L.23699951 .17404175C.40098573 .3161316 .46199037 .36915589 .46199037 .4711914 .46199037 .5860901 .36698915 .6660156 .24398804 .6660156 .1289978 .6660156 .050994874 .575119 .050994874 .4841919 .050994874 .43418885 .09399414 .42919923 .102996829 .42919923 .125 .42919923 .15499878 .44519044 .15499878 .48120118 .15499878 .51119998 .13398743 .5332031 .102996829 .5332031 .09799194 .5332031 .09498596 .5332031 .09098816 .53219607 .114990238 .6030731 .1789856 .63500979 .23298645 .63500979 .33499146 .63500979 .36999513 .5401764 .36999513 .4711914 .36999513 .36915589 .29299928 .28611756 .24499512 .23408509L.06199646 .035995485C.050994874 .024993897 .050994874 .022994996 .050994874 0H.43399049L.46199037 .17704773Z"/>
<path id="font_5_3" d="M.73999026 .3310089C.79100039 .28700257 .83999636 .2639923 .8730011 .25097657 .8299866 .23197937 .7849884 .20796204 .73999026 .1699524H.09199524C.07699585 .1699524 .056991579 .1699524 .056991579 .14894104 .056991579 .12695313 .07899475 .12695313 .09700012 .12695313H.69200137C.6289978 .060073854 .59399417-.0087890629 .59399417-.016799927 .59399417-.029800415 .60598757-.029800415 .61499026-.029800415 .6269989-.029800415 .6319885-.029800415 .6369934-.02079773 .71798709 .13494873 .8299866 .20196533 .95899966 .23797608 .96699526 .23997498 .9700012 .24597168 .9700012 .24998474 .9700012 .25997926 .96099856 .26197816 .95899966 .26298524 .9099884 .2769928 .83999636 .29600526 .7539978 .36901856 .71699526 .401062 .6749878 .44813539 .6419983 .5112457 .6319885 .5302429 .6309967 .53125 .61499026 .53125 .60598757 .53125 .59399417 .53125 .59399417 .5182495 .59399417 .51023867 .6279907 .4421234 .69200137 .37402345H.09700012C.07899475 .37402345 .056991579 .37402345 .056991579 .35202027 .056991579 .3310089 .07699585 .3310089 .09199524 .3310089H.73999026Z"/>
<path id="font_8_50" d="M.4269867 .11936951C.4269867 .12637329 .42199708 .13237 .41299439 .13237 .40299989 .13237 .3999939 .12536621 .39898683 .12136841 .36499024 .019256592 .27598573 .01725769 .26098634 .01725769 .21299744 .01725769 .17199707 .044281007 .14898682 .078323367 .115997318 .12736511 .114990238 .18743897 .114990238 .22949219H.3999939C.42199708 .22949219 .4269867 .22949219 .4269867 .25048829 .4269867 .35333253 .37098695 .4482422 .24299622 .4482422 .12298584 .4482422 .0289917 .3443451 .0289917 .22047425 .0289917 .08932495 .13398743-.0107421879 .2559967-.0107421879 .37799073-.0107421879 .4269867 .096343997 .4269867 .11936951M.35899354 .253479H.115997318C.125 .40725709 .21499634 .42323304 .24299622 .42323304 .2979889 .42323304 .35798646 .38130189 .35899354 .253479Z"/>
<path id="font_8_59" d="M.49899293 .40338136C.49899293 .42237855 .4850006 .45336915 .44499208 .45336915 .41600038 .45336915 .37098695 .4423828 .33599855 .40637208 .30899049 .42837525 .269989 .4423828 .22799683 .4423828 .1329956 .4423828 .06098938 .3743744 .06098938 .29537965 .06098938 .2443695 .09098816 .20837403 .10699463 .19337464 .10499573 .19137573 .07699585 .15637207 .07699585 .11038208 .07699585 .07637024 .09298706 .040374757 .11999512 .022369385 .068984989 .005874634 .0289917-.03111267 .0289917-.07809448 .0289917-.14907837 .12799073-.20605469 .2559967-.20605469 .3789978-.20605469 .48399354-.15307617 .48399354-.07609558 .48399354-.035110475 .46499635 .008880615 .42799378 .03288269 .37199403 .067871097 .31399537 .067871097 .21899414 .067871097 .19898987 .067871097 .16699219 .067871097 .15899658 .069885257 .12998963 .075927738 .11099243 .1031189 .11099243 .13534546 .11099243 .15142823 .115997318 .16642761 .125 .1794281 .1499939 .16343689 .18099976 .1484375 .22698975 .1484375 .32199098 .1484375 .3939972 .21643067 .3939972 .29542542 .3939972 .34443666 .3659973 .37843324 .35299684 .39242555 .3929901 .42843629 .43998719 .42843629 .45199586 .42843629 .44699098 .4254303 .43899537 .42042542 .43899537 .4024353 .43899537 .39143373 .44599916 .37243653 .46899415 .37243653 .48298646 .37243653 .49899293 .38243104 .49899293 .40342713V.40338136M.31698609 .29542542C.31698609 .27243043 .31698609 .1754303 .22698975 .1754303 .13798523 .17520142 .13798523 .27326966 .13798523 .2952881 .13798523 .3223114 .13999939 .35632325 .15699768 .38034059 .17199707 .4003601 .19898987 .41537477 .22698975 .41537477 .31698609 .41537477 .31698609 .31829835 .31698609 .2952881V.29542542M.42799378-.07698059C.42799378-.1340332 .35099793-.17906189 .25698854-.17906189 .15899658-.17912293 .084991458-.13212586 .084991458-.07711792 .084991458-.06112671 .09498596 .0048828127 .18099976 .0048828127H.272995C.30499269 .0048828127 .42799378 .0038757325 .42799378-.07711792V-.07698059Z"/>
<path id="font_8_72" d="M.26098634 0V.0309906C.19499207 .0309906 .18399048 .0309906 .18399048 .07701111V.69433596L.035995485 .6826172V.6516113C.10398865 .6516113 .11299133 .64460757 .11299133 .5956421V.07696533C.11299133 .0309906 .101989749 .0309906 .035995485 .0309906V0C.08299255 .0019989014 .101989749 .0029907227 .147995 .0029907227 .19499207 .0029907227 .21199036 .0019989014 .26098634 0Z"/>
<path id="font_6_8" d="M.3889923 .120285037C.3889923 .10227966 .3889923 .09927368 .37399293 .07827759 .34298707 .0332489 .29699708 .014251709 .25698854 .014251709 .21398926 .014251709 .17399597 .038253786 .147995 .08027649 .12199402 .123291019 .11999512 .18229676 .11999512 .21430969 .11999512 .26132203 .12599182 .3143463 .1519928 .35435487 .17399597 .3863678 .21499634 .41737367 .2679901 .41737367 .30999757 .41737367 .34999085 .39637757 .3769989 .35835267 .3889923 .3423462 .3889923 .34135438 .3889923 .32234193V.120285037M.3919983 .38336183C.3869934 .38937379 .34199525 .4423828 .2639923 .4423828 .14099121 .4423828 .033996583 .34436036 .033996583 .21531677 .033996583 .090270999 .13398743-.0107421879 .25299073-.0107421879 .32598878-.0107421879 .37098695 .03225708 .3889923 .053268434V-.011001587L.5399933 0V.0309906C.47200013 .0309906 .46299745 .037994386 .46299745 .087020877V.69433596L.31498719 .68333438V.6523285C.3829956 .6523285 .3919983 .6453247 .3919983 .5962982V.38336183Z"/>
<path id="font_6_9" d="M.18399048 .4423828 .039993287 .43138124V.40037538C.10398865 .40037538 .11299133 .3943634 .11299133 .34532167V.077041629C.11299133 .0309906 .101989749 .0309906 .035995485 .0309906V0C.08099365 .0019989014 .101989749 .0029907227 .1459961 .0029907227 .1619873 .0029907227 .20399475 .0029907227 .25299073 0V.0309906C.18798828 .0309906 .18399048 .035995485 .18399048 .075042728V.4423828M.18699646 .615921C.18699646 .6459198 .16299439 .6699219 .1329956 .6699219 .101989749 .6699219 .07899475 .6449127 .07899475 .615921 .07899475 .58691409 .101989749 .56192019 .1329956 .56192019 .16299439 .56192019 .18699646 .585907 .18699646 .615921Z"/>
<path id="font_6_10" d="M.18598938 .2592163C.18598938 .36732484 .2639923 .41737367 .32398988 .41737367 .3789978 .41737367 .39698792 .37834168 .39698792 .30825807V.077041629C.39698792 .0309906 .38598634 .0309906 .31999208 .0309906V0C.36698915 .0019989014 .38598634 .0029907227 .43399049 .0029907227 .48199464 .0029907227 .49499513 .0019989014 .5479889 0V.0309906C.48199464 .0309906 .47099305 .0309906 .47099305 .077041629V.2592163C.47099305 .36732484 .548996 .41737367 .60899356 .41737367 .6639862 .41737367 .6819916 .37834168 .6819916 .30825807V.077041629C.6819916 .0309906 .67099 .0309906 .6049957 .0309906V0C.6519928 .0019989014 .67099 .0029907227 .71899417 .0029907227 .7669983 .0029907227 .7799988 .0019989014 .83299258 0V.0309906C.7819977 .0309906 .7569885 .0309906 .7559967 .062026979V.25421144C.7559967 .34129334 .7559967 .36932374 .72299197 .4063568 .70199587 .43037416 .6619873 .4423828 .6159973 .4423828 .5439911 .4423828 .49499513 .4003601 .46699525 .3473053 .45498658 .4063568 .4149933 .4423828 .33099366 .4423828 .25099183 .4423828 .20199585 .39035035 .18099976 .34429933L.17999268 .34370423V.4416504L.034988405 .43066407V.3996582C.102996829 .3996582 .11199951 .39266969 .11199951 .34370423V.07695007C.11199951 .0309906 .100997928 .0309906 .034988405 .0309906V0C.08198547 .0019989014 .100997928 .0029907227 .14898682 .0029907227 .19699097 .0029907227 .20999146 .0019989014 .2630005 0V.0309906C.19699097 .0309906 .18598938 .0309906 .18598938 .07695007V.2592163Z"/>
<path id="font_6_1" d="M.34098817-.23803711C.34098817-.23303223 .33799745-.23002625 .33198548-.22303772 .20298767-.105026248 .1639862 .07498169 .1639862 .24996948 .1639862 .40498353 .19400025 .59298709 .33499146 .72698977 .33898927 .73098757 .34098817 .73399356 .34098817 .7389984 .34098817 .74598696 .33599855 .75 .32899476 .75 .31698609 .75 .22698975 .6779785 .17298889 .568985 .125 .47297669 .100997928 .36997987 .100997928 .25097657 .100997928 .17897034 .10998535 .064971927 .16499329-.053024293 .22399903-.17602539 .31698609-.24902344 .32899476-.24902344 .33599855-.24902344 .34098817-.24502564 .34098817-.23803711Z"/>
<path id="font_10_1" d="M.6459961 .5646057C.68699648 .6286011 .7220001 .6476135 .7679901 .6516113 .7799988 .65260317 .78900149 .6536102 .78900149 .6696167 .78900149 .6776123 .7829895 .6826172 .776001 .6826172 .7719879 .6826172 .746994 .6796112 .69400027 .6796112 .6619873 .6796112 .6279907 .6826172 .5970001 .6826172 .58999636 .6826172 .57899478 .680603 .57899478 .6646118 .57899478 .65260317 .58999636 .6516113 .59298709 .6516113 .6029968 .65060427 .6389923 .64860537 .6389923 .61961367 .6389923 .6116028 .6359863 .604599 .6319885 .5966034 .6279907 .5886078 .6259918 .58461 .621994 .5776062L.30899049 .092544559 .23298645 .62161257C.23298645 .63061526 .23999024 .6516113 .3019867 .6516113 .31399537 .6516113 .32598878 .6516113 .32598878 .6696167 .32598878 .680603 .31599427 .6826172 .30999757 .6826172 .2919922 .6826172 .2709961 .680603 .2519989 .680603 .23199463 .680603 .20999146 .6796112 .18899536 .6796112 .17098999 .6796112 .14299011 .6796112 .13398743 .680603 .12599182 .680603 .084991458 .6826172 .07699585 .6826172 .07299805 .6826172 .05899048 .6826172 .05899048 .6646118 .05899048 .6516113 .069992069 .6516113 .08198547 .6516113 .13798523 .6516113 .13899231 .64260867 .14299011 .6175995L.23098755 .0035247803C.23399353-.015472412 .23498535-.022460938 .2519989-.022460938 .2679901-.022460938 .27398683-.014465332 .2809906-.0024719239L.6459961 .5646057Z"/>
<path id="font_5_2" d="M.7409973 .24998474C.7409973 .44085694 .58699038 .59277346 .39898683 .59277346 .20899964 .59277346 .056991579 .43785096 .056991579 .25097657 .056991579 .06010437 .21099854-.091796878 .39898683-.091796878 .58898928-.091796878 .7409973 .06311035 .7409973 .24998474M.18699646 .4828186C.22599793 .5187988 .29899598 .5647583 .39898683 .5647583 .49798585 .5647583 .57099917 .51979067 .61099246 .4828186L.39898683 .27096559 .18699646 .4828186M.16699219 .038131715C.12799073 .081100467 .084991458 .15504456 .084991458 .24998474 .084991458 .35191346 .1329956 .42585755 .16699219 .4628296L.37998963 .25097657 .16699219 .038131715M.6309967 .4628296C.66999819 .41986085 .71299746 .34591676 .71299746 .25097657 .71299746 .14904785 .6649933 .07510376 .6309967 .038131715L.41799928 .24998474 .6309967 .4628296M.61099246 .0181427C.57199099-.017837525 .49899293-.063797 .39898683-.063797 .2999878-.063797 .22698975-.018829346 .18699646 .0181427L.39898683 .22999573 .61099246 .0181427Z"/>
<path id="font_10_2" d="M.94400027 .5666046C.94799807 .5726013 .95500186 .5836029 .96099856 .5915985 .9989929 .64660647 1.0339966 .6496124 1.0619965 .6516113 1.074997 .65260317 1.074997 .6686096 1.074997 .6696167 1.074997 .6756134 1.0709992 .6826172 1.0629883 .6826172 1.0579987 .6826172 1.0379944 .6796112 .9830017 .6796112 .94898989 .6796112 .91400149 .6826172 .8819885 .6826172 .8759918 .6826172 .86299136 .6826172 .86299136 .6646118 .86299136 .65260317 .8739929 .6516113 .8779907 .6516113 .8919983 .65060427 .93499758 .64860537 .93499758 .6136017 .93499758 .6065979 .93299868 .5966034 .92099 .5765991L.6489868 .11054993 .6069946 .61961367C.6069946 .63061526 .61698916 .6516113 .67900088 .6516113 .69099429 .6516113 .7029877 .6516113 .7029877 .6696167 .7029877 .6786041 .69599917 .6826172 .6879883 .6826172 .6609955 .6826172 .59399417 .6796112 .5669861 .6796112 .5299988 .6796112 .5279999 .6796112 .5119934 .680603 .49899293 .6816101 .47200013 .6826172 .45999146 .6826172 .45498658 .6826172 .44198609 .6826172 .44198609 .6646118 .44198609 .6516113 .45298768 .6516113 .46499635 .6516113 .5109863 .6516113 .5149994 .64460757 .5169983 .6286011 .5179901 .62260439 .522995 .56159976 .522995 .55960085 .522995 .555603 .522995 .55259707 .5159912 .54060366L.2639923 .11054993 .22299195 .6036072C.22099304 .62361147 .21899414 .65060427 .29299928 .6516113 .30599977 .6516113 .31799317 .6516113 .31799317 .6696167 .31799317 .6816101 .30699159 .6826172 .30299378 .6826172 .2849884 .6826172 .2639923 .680603 .24499512 .680603 .22499085 .680603 .20298767 .6796112 .18299866 .6796112 .16499329 .6796112 .13999939 .6796112 .12799073 .680603 .11898804 .680603 .083999637 .6826172 .07598877 .6826172 .07199097 .6826172 .057998659 .6826172 .057998659 .6646118 .057998659 .6516113 .068984989 .6516113 .08099365 .6516113 .1309967 .6516113 .13198853 .6436157 .13398743 .61660769L.18499756 .002532959C.18598938-.014465332 .18699646-.022460938 .20199585-.022460938 .21598816-.022460938 .21899414-.016464234 .22799683-.0014648438L.5269928 .5095978 .56900027 .0045318605C.56999209-.013473511 .57099917-.022460938 .58699038-.022460938 .59098818-.022460938 .60198977-.022460938 .6139984-.0014648438L.94400027 .5666046Z"/>
<path id="font_6_2" d="M.2979889 .25097657C.2979889 .3329773 .28599549 .4429779 .23399353 .5539856 .1749878 .6769867 .08198547 .75 .069992069 .75 .05999756 .75 .057998659 .74198916 .057998659 .7389984 .057998659 .73399356 .05999756 .73098757 .066986087 .72398379 .125 .6719818 .23498535 .5359802 .23498535 .25097657 .23498535 .10797119 .20899964-.091033939 .06399536-.22602844 .06199646-.22903443 .057998659-.23303223 .057998659-.23803711 .057998659-.24102783 .05999756-.24902344 .069992069-.24902344 .08198547-.24902344 .17199707-.17703247 .22599793-.06802368 .27398683 .02796936 .2979889 .13098145 .2979889 .25097657Z"/>
<path id="font_5_1" d="M.19599915 .25125123C.19599915 .28025819 .17298889 .30525209 .14199829 .30525209 .11099243 .30525209 .08799744 .28025819 .08799744 .25125123 .08799744 .22225952 .11099243 .19726563 .14199829 .19726563 .17298889 .19726563 .19599915 .22225952 .19599915 .25125123Z"/>
<path id="font_6_6" d="M.0289917 .19602967V.16503906H.3019867V.07901001C.3019867 .041992189 .29899598 .0309906 .22399903 .0309906H.20199585V0C.2649994 .0029907227 .33499146 .0029907227 .34199525 .0029907227 .34700013 .0029907227 .4189911 .0029907227 .48199464 0V.0309906H.45999146C.3849945 .0309906 .38198854 .041992189 .38198854 .07901001V.16503906H.48399354V.19602967H.38198854V.64974978C.38198854 .669754 .38198854 .6767578 .36299134 .6767578 .35099793 .6767578 .34999085 .67575076 .34098817 .66174319L.0289917 .19602967M.06098938 .19602967 .30799867 .56581118V.19602967H.06098938Z"/>
</defs>
<use data-text="S" xlink:href="#font_1_97" transform="matrix(9.96264,0,0,-9.96264,49.612657,36.04711)"/>
<use data-text="e" xlink:href="#font_1_50" transform="matrix(9.96264,0,0,-9.96264,55.978784,36.04711)"/>
<use data-text="p" xlink:href="#font_1_84" transform="matrix(9.96264,0,0,-9.96264,61.229097,36.04711)"/>
<use data-text="a" xlink:href="#font_1_28" transform="matrix(9.96264,0,0,-9.96264,67.59522,36.04711)"/>
<use data-text="r" xlink:href="#font_1_96" transform="matrix(9.96264,0,0,-9.96264,73.16434,36.04711)"/>
<use data-text="a" xlink:href="#font_1_28" transform="matrix(9.96264,0,0,-9.96264,77.88663,36.04711)"/>
<use data-text="b" xlink:href="#font_1_35" transform="matrix(9.96264,0,0,-9.96264,83.45575,36.04711)"/>
<use data-text="l" xlink:href="#font_1_72" transform="matrix(9.96264,0,0,-9.96264,89.82187,36.04711)"/>
<use data-text="e" xlink:href="#font_1_50" transform="matrix(9.96264,0,0,-9.96264,92.999958,36.04711)"/>
<use data-text=":" xlink:href="#font_1_44" transform="matrix(9.96264,0,0,-9.96264,98.25027,36.04711)"/>
<use data-text="1" xlink:href="#font_2_2" transform="matrix(6.973848,0,0,-6.973848,27.595986,44.079675)"/>
<path transform="matrix(1,0,0,-1,65.39957,-28.498688)" stroke-width=".398484" stroke-linecap="butt" stroke-miterlimit="10" stroke-linejoin="miter" fill="none" stroke="#000000" d="M-37.80358-74.0103H-33.83234"/>
<use data-text="2" xlink:href="#font_2_3" transform="matrix(6.973848,0,0,-6.973848,27.595986,51.437784)"/>
<use data-text="(" xlink:href="#font_3_2" transform="matrix(9.96264,0,0,-9.96264,32.762735,48.002275)"/>
<use data-text="|" xlink:href="#font_4_3" transform="matrix(9.96264,0,0,-9.96264,36.637105,48.002275)"/>
<use data-text="0" xlink:href="#font_3_5" transform="matrix(9.96264,0,0,-9.96264,39.404516,48.002275)"/>
<use data-text="&#x27e9;" xlink:href="#font_4_2" transform="matrix(9.96264,0,0,-9.96264,44.385858,48.002275)"/>
<use data-text="+" xlink:href="#font_3_4" transform="matrix(9.96264,0,0,-9.96264,48.813695,48.002275)"/>
<use data-text="|" xlink:href="#font_4_3" transform="matrix(9.96264,0,0,-9.96264,57.115907,48.002275)"/>
<use data-text="1" xlink:href="#font_3_6" transform="matrix(9.96264,0,0,-9.96264,59.883317,48.002275)"/>
<use data-text="&#x27e9;" xlink:href="#font_4_2" transform="matrix(9.96264,0,0,-9.96264,64.864658,48.002275)"/>
<use data-text=")" xlink:href="#font_3_3" transform="matrix(9.96264,0,0,-9.96264,68.73902,48.002275)"/>
<use data-text="&#x2297;" xlink:href="#font_4_1" transform="matrix(9.96264,0,0,-9.96264,74.82726,48.002275)"/>
<use data-text="(" xlink:href="#font_3_2" transform="matrix(9.96264,0,0,-9.96264,84.78987,48.002275)"/>
<use data-text="|" xlink:href="#font_4_3" transform="matrix(9.96264,0,0,-9.96264,88.664249,48.002275)"/>
<use data-text="0" xlink:href="#font_3_5" transform="matrix(9.96264,0,0,-9.96264,91.431659,48.002275)"/>
<use data-text="&#x27e9;" xlink:href="#font_4_2" transform="matrix(9.96264,0,0,-9.96264,96.412998,48.002275)"/>
<use data-text="+" xlink:href="#font_3_4" transform="matrix(9.96264,0,0,-9.96264,100.840839,48.002275)"/>
<use data-text="|" xlink:href="#font_4_3" transform="matrix(9.96264,0,0,-9.96264,109.14304,48.002275)"/>
<use data-text="1" xlink:href="#font_3_6" transform="matrix(9.96264,0,0,-9.96264,111.91045,48.002275)"/>
<use data-text="&#x27e9;" xlink:href="#font_4_2" transform="matrix(9.96264,0,0,-9.96264,116.89179,48.002275)"/>
<use data-text=")" xlink:href="#font_3_3" transform="matrix(9.96264,0,0,-9.96264,120.76616,48.002275)"/>
<path transform="matrix(1,0,0,-1,33.00091,148.5022)" d="M0 0V85.04042H85.04042V0ZM85.04042 85.04042" fill="#c7c7ff"/>
<path transform="matrix(1,0,0,-1,33.00091,148.5022)" stroke-width=".79701" stroke-linecap="butt" stroke-miterlimit="10" stroke-linejoin="miter" fill="none" stroke="#000000" d="M0 0V85.04042H85.04042V0ZM85.04042 85.04042"/>
<path transform="matrix(1,0,0,-1,33.00091,148.5022)" stroke-width=".79701" stroke-linecap="butt" stroke-miterlimit="10" stroke-linejoin="miter" fill="none" stroke="#000000" d="M42.5202 0V85.04042"/>
<path transform="matrix(1,0,0,-1,33.00091,148.5022)" stroke-width=".79701" stroke-linecap="butt" stroke-miterlimit="10" stroke-linejoin="miter" fill="none" stroke="#000000" d="M0 42.5202H85.04042"/>
<use data-text="|" xlink:href="#font_4_3" transform="matrix(9.96264,0,0,-9.96264,45.958677,129.73279)"/>
<use data-text="0" xlink:href="#font_3_5" transform="matrix(9.96264,0,0,-9.96264,48.726087,129.73279)"/>
<use data-text="0" xlink:href="#font_3_5" transform="matrix(9.96264,0,0,-9.96264,53.707406,129.73279)"/>
<use data-text="&#x27e9;" xlink:href="#font_4_2" transform="matrix(9.96264,0,0,-9.96264,58.688756,129.73279)"/>
<use data-text="|" xlink:href="#font_4_3" transform="matrix(9.96264,0,0,-9.96264,88.47888,129.73279)"/>
<use data-text="0" xlink:href="#font_3_5" transform="matrix(9.96264,0,0,-9.96264,91.24629,129.73279)"/>
<use data-text="1" xlink:href="#font_3_6" transform="matrix(9.96264,0,0,-9.96264,96.22761,129.73279)"/>
<use data-text="&#x27e9;" xlink:href="#font_4_2" transform="matrix(9.96264,0,0,-9.96264,101.208957,129.73279)"/>
<use data-text="|" xlink:href="#font_4_3" transform="matrix(9.96264,0,0,-9.96264,45.958677,87.212589)"/>
<use data-text="1" xlink:href="#font_3_6" transform="matrix(9.96264,0,0,-9.96264,48.726087,87.212589)"/>
<use data-text="0" xlink:href="#font_3_5" transform="matrix(9.96264,0,0,-9.96264,53.707406,87.212589)"/>
<use data-text="&#x27e9;" xlink:href="#font_4_2" transform="matrix(9.96264,0,0,-9.96264,58.688756,87.212589)"/>
<use data-text="|" xlink:href="#font_4_3" transform="matrix(9.96264,0,0,-9.96264,88.47888,87.212589)"/>
<use data-text="1" xlink:href="#font_3_6" transform="matrix(9.96264,0,0,-9.96264,91.24629,87.212589)"/>
<use data-text="1" xlink:href="#font_3_6" transform="matrix(9.96264,0,0,-9.96264,96.22761,87.212589)"/>
<use data-text="&#x27e9;" xlink:href="#font_4_2" transform="matrix(9.96264,0,0,-9.96264,101.208957,87.212589)"/>
<use data-text="|" xlink:href="#font_5_5" transform="matrix(8.966376,0,0,-8.966376,11.290371,86.96352)"/>
<use data-text="1" xlink:href="#font_6_4" transform="matrix(8.966376,0,0,-8.966376,13.850201,86.96352)"/>
<use data-text="&#x27e9;" xlink:href="#font_5_4" transform="matrix(8.966376,0,0,-8.966376,18.45789,86.96352)"/>
<use data-text="A" xlink:href="#font_7_1" transform="matrix(5.977584,0,0,-5.977584,22.041649,87.95981)"/>
<use data-text="|" xlink:href="#font_5_5" transform="matrix(8.966376,0,0,-8.966376,11.290371,129.48372)"/>
<use data-text="0" xlink:href="#font_6_3" transform="matrix(8.966376,0,0,-8.966376,13.850201,129.48372)"/>
<use data-text="&#x27e9;" xlink:href="#font_5_4" transform="matrix(8.966376,0,0,-8.966376,18.45789,129.48372)"/>
<use data-text="A" xlink:href="#font_7_1" transform="matrix(5.977584,0,0,-5.977584,22.041649,130.48001)"/>
<use data-text="|" xlink:href="#font_5_5" transform="matrix(8.966376,0,0,-8.966376,45.723875,156.91414)"/>
<use data-text="0" xlink:href="#font_6_3" transform="matrix(8.966376,0,0,-8.966376,48.283704,156.91414)"/>
<use data-text="&#x27e9;" xlink:href="#font_5_4" transform="matrix(8.966376,0,0,-8.966376,52.89139,156.91414)"/>
<use data-text="B" xlink:href="#font_7_2" transform="matrix(5.977584,0,0,-5.977584,56.47515,157.91043)"/>
<use data-text="|" xlink:href="#font_5_5" transform="matrix(8.966376,0,0,-8.966376,88.244098,156.91414)"/>
<use data-text="1" xlink:href="#font_6_4" transform="matrix(8.966376,0,0,-8.966376,90.803928,156.91414)"/>
<use data-text="&#x27e9;" xlink:href="#font_5_4" transform="matrix(8.966376,0,0,-8.966376,95.411609,156.91414)"/>
<use data-text="B" xlink:href="#font_7_2" transform="matrix(5.977584,0,0,-5.977584,98.99537,157.91043)"/>
<use data-text="S" xlink:href="#font_8_97" transform="matrix(8.966376,0,0,-8.966376,39.66969,185.27277)"/>
<use data-text="c" xlink:href="#font_8_43" transform="matrix(8.966376,0,0,-8.966376,44.78949,185.27277)"/>
<use data-text="h" xlink:href="#font_8_63" transform="matrix(8.966376,0,0,-8.966376,48.636064,185.27277)"/>
<use data-text="m" xlink:href="#font_8_75" transform="matrix(8.966376,0,0,-8.966376,53.755868,185.27277)"/>
<use data-text="i" xlink:href="#font_8_66" transform="matrix(8.966376,0,0,-8.966376,61.431085,185.27277)"/>
<use data-text="d" xlink:href="#font_8_47" transform="matrix(8.966376,0,0,-8.966376,63.99547,185.27277)"/>
<use data-text="t" xlink:href="#font_8_105" transform="matrix(8.966376,0,0,-8.966376,69.115268,185.27277)"/>
<use data-text="r" xlink:href="#font_8_96" transform="matrix(8.966376,0,0,-8.966376,75.76832,185.27277)"/>
<use data-text="a" xlink:href="#font_8_28" transform="matrix(8.966376,0,0,-8.966376,79.3728,185.27277)"/>
<use data-text="n" xlink:href="#font_8_77" transform="matrix(8.966376,0,0,-8.966376,83.98152,185.27277)"/>
<use data-text="k" xlink:href="#font_8_70" transform="matrix(8.966376,0,0,-8.966376,89.10132,185.27277)"/>
<use data-text="=" xlink:href="#font_6_7" transform="matrix(8.966376,0,0,-8.966376,97.036579,185.27277)"/>
<use data-text="1" xlink:href="#font_6_4" transform="matrix(8.966376,0,0,-8.966376,106.756137,185.27277)"/>
<use data-text="B" xlink:href="#font_1_34" transform="matrix(9.96264,0,0,-9.96264,220.102,34.06299)"/>
<use data-text="e" xlink:href="#font_1_50" transform="matrix(9.96264,0,0,-9.96264,228.25144,34.06299)"/>
<use data-text="l" xlink:href="#font_1_72" transform="matrix(9.96264,0,0,-9.96264,233.50176,34.06299)"/>
<use data-text="l" xlink:href="#font_1_72" transform="matrix(9.96264,0,0,-9.96264,236.67984,34.06299)"/>
<use data-text="s" xlink:href="#font_1_98" transform="matrix(9.96264,0,0,-9.96264,243.6736,34.06299)"/>
<use data-text="t" xlink:href="#font_1_105" transform="matrix(9.96264,0,0,-9.96264,248.19664,34.06299)"/>
<use data-text="a" xlink:href="#font_1_28" transform="matrix(9.96264,0,0,-9.96264,252.64995,34.06299)"/>
<use data-text="t" xlink:href="#font_1_105" transform="matrix(9.96264,0,0,-9.96264,258.21907,34.06299)"/>
<use data-text="e" xlink:href="#font_1_50" transform="matrix(9.96264,0,0,-9.96264,262.67237,34.06299)"/>
<use data-text=":" xlink:href="#font_1_44" transform="matrix(9.96264,0,0,-9.96264,267.92268,34.06299)"/>
<use data-text="|" xlink:href="#font_4_3" transform="matrix(9.96264,0,0,-9.96264,195.71344,46.018159)"/>
<use data-text="&#x03a6;" xlink:href="#font_3_1" transform="matrix(9.96264,0,0,-9.96264,198.48087,46.018159)"/>
<use data-text="+" xlink:href="#font_2_1" transform="matrix(6.973848,0,0,-6.973848,205.67612,42.4028)"/>
<use data-text="&#x27e9;" xlink:href="#font_4_2" transform="matrix(9.96264,0,0,-9.96264,212.29022,46.018159)"/>
<use data-text="=" xlink:href="#font_3_7" transform="matrix(9.96264,0,0,-9.96264,218.93193,46.018159)"/>
<use data-text="1" xlink:href="#font_2_2" transform="matrix(6.973848,0,0,-6.973848,233.91599,42.09555)"/>
<path transform="matrix(1,0,0,-1,234.71254,-30.482811)" stroke-width=".398484" stroke-linecap="butt" stroke-miterlimit="10" stroke-linejoin="miter" fill="none" stroke="#000000" d="M-4.06902-74.0103H6.44715"/>
<use data-text="&#x221a;" xlink:href="#font_9_1" transform="matrix(6.973848,0,0,-6.973848,230.64353,44.802629)"/>
<path transform="matrix(1,0,0,-1,234.71254,-30.482811)" stroke-width=".338711" stroke-linecap="butt" stroke-miterlimit="10" stroke-linejoin="miter" fill="none" stroke="#000000" d="M2.47591-75.1161H6.44715"/>
<use data-text="2" xlink:href="#font_2_3" transform="matrix(6.973848,0,0,-6.973848,237.18845,50.579019)"/>
<use data-text="(" xlink:href="#font_3_2" transform="matrix(9.96264,0,0,-9.96264,242.3552,46.01815)"/>
<use data-text="|" xlink:href="#font_4_3" transform="matrix(9.96264,0,0,-9.96264,246.22957,46.01815)"/>
<use data-text="0" xlink:href="#font_3_5" transform="matrix(9.96264,0,0,-9.96264,248.99698,46.01815)"/>
<use data-text="0" xlink:href="#font_3_5" transform="matrix(9.96264,0,0,-9.96264,253.9783,46.01815)"/>
<use data-text="&#x27e9;" xlink:href="#font_4_2" transform="matrix(9.96264,0,0,-9.96264,258.95967,46.01815)"/>
<use data-text="+" xlink:href="#font_3_4" transform="matrix(9.96264,0,0,-9.96264,265.04789,46.01815)"/>
<use data-text="|" xlink:href="#font_4_3" transform="matrix(9.96264,0,0,-9.96264,275.0105,46.01815)"/>
<use data-text="1" xlink:href="#font_3_6" transform="matrix(9.96264,0,0,-9.96264,277.77793,46.01815)"/>
<use data-text="1" xlink:href="#font_3_6" transform="matrix(9.96264,0,0,-9.96264,282.75923,46.01815)"/>
<use data-text="&#x27e9;" xlink:href="#font_4_2" transform="matrix(9.96264,0,0,-9.96264,287.74058,46.01815)"/>
<use data-text=")" xlink:href="#font_3_3" transform="matrix(9.96264,0,0,-9.96264,291.61497,46.01815)"/>
<path transform="matrix(1,0,0,-1,33.00091,148.5022)" d="M170.08092 0V42.5202H212.60112V0ZM212.60112 42.5202" fill="#ffb8b8"/>
<path transform="matrix(1,0,0,-1,33.00091,148.5022)" d="M212.60112 42.5202V85.04042H255.12134V42.5202ZM255.12134 85.04042" fill="#ffb8b8"/>
<path transform="matrix(1,0,0,-1,33.00091,148.5022)" stroke-width=".79701" stroke-linecap="butt" stroke-miterlimit="10" stroke-linejoin="miter" fill="none" stroke="#000000" d="M170.08092 0V85.04042H255.12134V0ZM255.12134 85.04042"/>
<path transform="matrix(1,0,0,-1,33.00091,148.5022)" stroke-width=".79701" stroke-linecap="butt" stroke-miterlimit="10" stroke-linejoin="miter" fill="none" stroke="#000000" d="M212.60112 0V85.04042"/>
<path transform="matrix(1,0,0,-1,33.00091,148.5022)" stroke-width=".79701" stroke-linecap="butt" stroke-miterlimit="10" stroke-linejoin="miter" fill="none" stroke="#000000" d="M170.08092 42.5202H255.12134"/>
<path transform="matrix(1,0,0,-1,33.00091,148.5022)" stroke-width="1.59404" stroke-linecap="butt" stroke-miterlimit="10" stroke-linejoin="miter" fill="none" stroke="#b30000" d="M191.34102 21.2601 233.86122 63.7803"/>
<use data-text="|" xlink:href="#font_4_3" transform="matrix(9.96264,0,0,-9.96264,216.0396,129.73279)"/>
<use data-text="0" xlink:href="#font_3_5" transform="matrix(9.96264,0,0,-9.96264,218.807,129.73279)"/>
<use data-text="0" xlink:href="#font_3_5" transform="matrix(9.96264,0,0,-9.96264,223.78833,129.73279)"/>
<use data-text="&#x27e9;" xlink:href="#font_4_2" transform="matrix(9.96264,0,0,-9.96264,228.76967,129.73279)"/>
<use data-text="|" xlink:href="#font_4_3" transform="matrix(9.96264,0,0,-9.96264,258.5598,129.73279)" fill="#b2b3b2"/>
<use data-text="0" xlink:href="#font_3_5" transform="matrix(9.96264,0,0,-9.96264,261.3272,129.73279)" fill="#b2b3b2"/>
<use data-text="1" xlink:href="#font_3_6" transform="matrix(9.96264,0,0,-9.96264,266.30854,129.73279)" fill="#b2b3b2"/>
<use data-text="&#x27e9;" xlink:href="#font_4_2" transform="matrix(9.96264,0,0,-9.96264,271.2899,129.73279)" fill="#b2b3b2"/>
<use data-text="|" xlink:href="#font_4_3" transform="matrix(9.96264,0,0,-9.96264,216.0396,87.212589)" fill="#b2b3b2"/>
<use data-text="1" xlink:href="#font_3_6" transform="matrix(9.96264,0,0,-9.96264,218.807,87.212589)" fill="#b2b3b2"/>
<use data-text="0" xlink:href="#font_3_5" transform="matrix(9.96264,0,0,-9.96264,223.78833,87.212589)" fill="#b2b3b2"/>
<use data-text="&#x27e9;" xlink:href="#font_4_2" transform="matrix(9.96264,0,0,-9.96264,228.76967,87.212589)" fill="#b2b3b2"/>
<use data-text="|" xlink:href="#font_4_3" transform="matrix(9.96264,0,0,-9.96264,258.5598,87.212589)"/>
<use data-text="1" xlink:href="#font_3_6" transform="matrix(9.96264,0,0,-9.96264,261.3272,87.212589)"/>
<use data-text="1" xlink:href="#font_3_6" transform="matrix(9.96264,0,0,-9.96264,266.30854,87.212589)"/>
<use data-text="&#x27e9;" xlink:href="#font_4_2" transform="matrix(9.96264,0,0,-9.96264,271.2899,87.212589)"/>
<use data-text="|" xlink:href="#font_5_5" transform="matrix(8.966376,0,0,-8.966376,181.37128,86.96352)"/>
<use data-text="1" xlink:href="#font_6_4" transform="matrix(8.966376,0,0,-8.966376,183.9311,86.96352)"/>
<use data-text="&#x27e9;" xlink:href="#font_5_4" transform="matrix(8.966376,0,0,-8.966376,188.53879,86.96352)"/>
<use data-text="A" xlink:href="#font_7_1" transform="matrix(5.977584,0,0,-5.977584,192.12256,87.95981)"/>
<use data-text="|" xlink:href="#font_5_5" transform="matrix(8.966376,0,0,-8.966376,181.37128,129.48372)"/>
<use data-text="0" xlink:href="#font_6_3" transform="matrix(8.966376,0,0,-8.966376,183.9311,129.48372)"/>
<use data-text="&#x27e9;" xlink:href="#font_5_4" transform="matrix(8.966376,0,0,-8.966376,188.53879,129.48372)"/>
<use data-text="A" xlink:href="#font_7_1" transform="matrix(5.977584,0,0,-5.977584,192.12256,130.48001)"/>
<use data-text="|" xlink:href="#font_5_5" transform="matrix(8.966376,0,0,-8.966376,215.80481,156.91414)"/>
<use data-text="0" xlink:href="#font_6_3" transform="matrix(8.966376,0,0,-8.966376,218.36464,156.91414)"/>
<use data-text="&#x27e9;" xlink:href="#font_5_4" transform="matrix(8.966376,0,0,-8.966376,222.97232,156.91414)"/>
<use data-text="B" xlink:href="#font_7_2" transform="matrix(5.977584,0,0,-5.977584,226.55609,157.91043)"/>
<use data-text="|" xlink:href="#font_5_5" transform="matrix(8.966376,0,0,-8.966376,258.325,156.91414)"/>
<use data-text="1" xlink:href="#font_6_4" transform="matrix(8.966376,0,0,-8.966376,260.88484,156.91414)"/>
<use data-text="&#x27e9;" xlink:href="#font_5_4" transform="matrix(8.966376,0,0,-8.966376,265.49253,156.91414)"/>
<use data-text="B" xlink:href="#font_7_2" transform="matrix(5.977584,0,0,-5.977584,269.0763,157.91043)"/>
<use data-text="S" xlink:href="#font_8_97" transform="matrix(8.966376,0,0,-8.966376,182.99343,185.27277)"/>
<use data-text="c" xlink:href="#font_8_43" transform="matrix(8.966376,0,0,-8.966376,188.11322,185.27277)"/>
<use data-text="h" xlink:href="#font_8_63" transform="matrix(8.966376,0,0,-8.966376,191.9598,185.27277)"/>
<use data-text="m" xlink:href="#font_8_75" transform="matrix(8.966376,0,0,-8.966376,197.07959,185.27277)"/>
<use data-text="i" xlink:href="#font_8_66" transform="matrix(8.966376,0,0,-8.966376,204.75482,185.27277)"/>
<use data-text="d" xlink:href="#font_8_47" transform="matrix(8.966376,0,0,-8.966376,207.3192,185.27277)"/>
<use data-text="t" xlink:href="#font_8_105" transform="matrix(8.966376,0,0,-8.966376,212.439,185.27277)"/>
<use data-text="r" xlink:href="#font_8_96" transform="matrix(8.966376,0,0,-8.966376,219.09206,185.27277)"/>
<use data-text="a" xlink:href="#font_8_28" transform="matrix(8.966376,0,0,-8.966376,222.69654,185.27277)"/>
<use data-text="n" xlink:href="#font_8_77" transform="matrix(8.966376,0,0,-8.966376,227.30525,185.27277)"/>
<use data-text="k" xlink:href="#font_8_70" transform="matrix(8.966376,0,0,-8.966376,232.42505,185.27277)"/>
<use data-text="=" xlink:href="#font_6_7" transform="matrix(8.966376,0,0,-8.966376,240.3603,185.27277)"/>
<use data-text="2" xlink:href="#font_6_5" transform="matrix(8.966376,0,0,-8.966376,250.07987,185.27277)"/>
<use data-text="&#x21d2;" xlink:href="#font_5_3" transform="matrix(8.966376,0,0,-8.966376,257.2552,185.27277)"/>
<use data-text="e" xlink:href="#font_8_50" transform="matrix(8.966376,0,0,-8.966376,269.54603,185.27277)"/>
<use data-text="n" xlink:href="#font_8_77" transform="matrix(8.966376,0,0,-8.966376,273.64369,185.27277)"/>
<use data-text="t" xlink:href="#font_8_105" transform="matrix(8.966376,0,0,-8.966376,278.5124,185.27277)"/>
<use data-text="a" xlink:href="#font_8_28" transform="matrix(8.966376,0,0,-8.966376,282.09898,185.27277)"/>
<use data-text="n" xlink:href="#font_8_77" transform="matrix(8.966376,0,0,-8.966376,286.70768,185.27277)"/>
<use data-text="g" xlink:href="#font_8_59" transform="matrix(8.966376,0,0,-8.966376,291.82749,185.27277)"/>
<use data-text="l" xlink:href="#font_8_72" transform="matrix(8.966376,0,0,-8.966376,296.4362,185.27277)"/>
<use data-text="e" xlink:href="#font_8_50" transform="matrix(8.966376,0,0,-8.966376,299.00059,185.27277)"/>
<use data-text="d" xlink:href="#font_8_47" transform="matrix(8.966376,0,0,-8.966376,303.0982,185.27277)"/>
<use data-text="d" xlink:href="#font_6_8" transform="matrix(8.966376,0,0,-8.966376,77.36879,18.014969)"/>
<use data-text="i" xlink:href="#font_6_9" transform="matrix(8.966376,0,0,-8.966376,82.47962,18.014969)"/>
<use data-text="m" xlink:href="#font_6_10" transform="matrix(8.966376,0,0,-8.966376,85.03504,18.014969)"/>
<use data-text="(" xlink:href="#font_6_1" transform="matrix(8.966376,0,0,-8.966376,92.71026,18.014969)"/>
<use data-text="V" xlink:href="#font_10_1" transform="matrix(8.966376,0,0,-8.966376,96.311519,18.014969)"/>
<use data-text="&#x2297;" xlink:href="#font_5_2" transform="matrix(8.966376,0,0,-8.966376,105.78152,18.014969)"/>
<use data-text="W" xlink:href="#font_10_2" transform="matrix(8.966376,0,0,-8.966376,114.996898,18.014969)"/>
<use data-text=")" xlink:href="#font_6_2" transform="matrix(8.966376,0,0,-8.966376,124.97886,18.014969)"/>
<use data-text="=" xlink:href="#font_6_7" transform="matrix(8.966376,0,0,-8.966376,131.11186,18.014969)"/>
<use data-text="d" xlink:href="#font_6_8" transform="matrix(8.966376,0,0,-8.966376,140.8314,18.014969)"/>
<use data-text="i" xlink:href="#font_6_9" transform="matrix(8.966376,0,0,-8.966376,145.94225,18.014969)"/>
<use data-text="m" xlink:href="#font_6_10" transform="matrix(8.966376,0,0,-8.966376,148.49767,18.014969)"/>
<use data-text="V" xlink:href="#font_10_1" transform="matrix(8.966376,0,0,-8.966376,157.74466,18.014969)"/>
<use data-text="&#x00b7;" xlink:href="#font_5_1" transform="matrix(8.966376,0,0,-8.966376,167.21466,18.014969)"/>
<use data-text="d" xlink:href="#font_6_8" transform="matrix(8.966376,0,0,-8.966376,171.82234,18.014969)"/>
<use data-text="i" xlink:href="#font_6_9" transform="matrix(8.966376,0,0,-8.966376,176.93318,18.014969)"/>
<use data-text="m" xlink:href="#font_6_10" transform="matrix(8.966376,0,0,-8.966376,179.4886,18.014969)"/>
<use data-text="W" xlink:href="#font_10_2" transform="matrix(8.966376,0,0,-8.966376,188.71723,18.014969)"/>
<use data-text="=" xlink:href="#font_6_7" transform="matrix(8.966376,0,0,-8.966376,201.259,18.014969)"/>
<use data-text="2" xlink:href="#font_6_5" transform="matrix(8.966376,0,0,-8.966376,210.97856,18.014969)"/>
<use data-text="&#x00b7;" xlink:href="#font_5_1" transform="matrix(8.966376,0,0,-8.966376,217.6419,18.014969)"/>
<use data-text="2" xlink:href="#font_6_5" transform="matrix(8.966376,0,0,-8.966376,222.2496,18.014969)"/>
<use data-text="=" xlink:href="#font_6_7" transform="matrix(8.966376,0,0,-8.966376,229.40477,18.014969)"/>
<use data-text="4" xlink:href="#font_6_6" transform="matrix(8.966376,0,0,-8.966376,239.12433,18.014969)"/>
</svg>
