<svg xmlns="http://www.w3.org/2000/svg" xmlns:xlink="http://www.w3.org/1999/xlink" xmlns:inkscape="http://www.inkscape.org/namespaces/inkscape" version="1.1" width="380.87" height="171.52" viewBox="0 0 380.87 171.52">
<defs>
<path id="font_1_82" d="M.47299195 0V.035995485H.43499757C.33499146 .035995485 .33499146 .048980714 .33499146 .081970218V.6357422C.33499146 .66304019 .33299256 .6640625 .30499269 .6640625 .24099732 .6007385 .1499939 .59973147 .10899353 .59973147V.5644531C.1329956 .5644531 .19898987 .5644531 .2539978 .592453V.08203125C.2539978 .04899597 .2539978 .035995485 .1539917 .035995485H.115997318V0L.2939911 .0039978029 .47299195 0Z"/>
<path id="font_1_107" d="M.5049896 .18203736H.47099305C.46798707 .16001892 .45799256 .100997928 .44499208 .09098816 .43699647 .084991458 .3600006 .084991458 .34599305 .084991458H.1619873C.2669983 .17803955 .3019867 .20603943 .3619995 .25306703 .43598939 .312088 .5049896 .374115 .5049896 .46914674 .5049896 .5900879 .39898683 .6640625 .2709961 .6640625 .14698792 .6640625 .06298828 .57710269 .06298828 .4851532 .06298828 .43414308 .10598755 .42915345 .115997318 .42915345 .13999939 .42915345 .16899109 .44615174 .16899109 .48214723 .16899109 .5001526 .1619873 .53515627 .10998535 .53515627 .14099121 .6060791 .20899964 .62805178 .2559967 .62805178 .35598756 .62805178 .4079895 .5501404 .4079895 .46914674 .4079895 .38212586 .34599305 .3130951 .31399537 .27708436L.07299805 .038986207C.06298828 .02999878 .06298828 .027999878 .06298828 0H.47499085L.5049896 .18203736Z"/>
<path id="font_1_106" d="M.5139923 .1733551C.5139923 .2513275 .44999696 .32929994 .33999635 .35229493 .44499208 .39024354 .48298646 .4650879 .48298646 .5260773 .48298646 .60505679 .3919983 .6640625 .2809906 .6640625 .16999817 .6640625 .084991458 .61006167 .084991458 .5300751 .084991458 .49606324 .10699463 .47706605 .13699341 .47706605 .16799927 .47706605 .18798828 .5000763 .18798828 .5280762 .18798828 .5570679 .16799927 .57806399 .13699341 .5800781 .17199707 .62405398 .24099732 .63505557 .27799989 .63505557 .32299806 .63505557 .38598634 .6130676 .38598634 .5260773 .38598634 .48406983 .37199403 .43814088 .34599305 .4072113 .31298829 .36927796 .2849884 .3672943 .23498535 .36428834 .20999146 .3623047 .20799256 .3623047 .20298767 .3612976 .20298767 .3612976 .19299317 .3592987 .19299317 .34829713 .19299317 .33428956 .20199585 .33428956 .21899414 .33428956H.272995C.35099793 .33428956 .40699769 .2803192 .40699769 .1733551 .40699769 .04940796 .33499146 .012466431 .2769928 .012466431 .23699951 .012466431 .14898682 .0234375 .10699463 .082351688 .1539917 .084350589 .16499329 .11735535 .16499329 .13835144 .16499329 .17034912 .14099121 .19335938 .10998535 .19335938 .08198547 .19335938 .053985597 .17634583 .053985597 .13534546 .053985597 .041412355 .1579895-.01953125 .2789917-.01953125 .41799928-.01953125 .5139923 .07336426 .5139923 .1733551Z"/>
<path id="font_2_1" d="M.13699341 .22949219C.19799805 .22949219 .2630005 .22949219 .31599427 .24247742 .4099884 .2654724 .4269867 .32144166 .4269867 .35542298 .4269867 .41238404 .37399293 .4423828 .31498719 .4423828 .19898987 .4423828 .04699707 .3444214 .04699707 .17242432 .04699707 .077316287 .102996829-.0107421879 .21099854-.0107421879 .36099244-.0107421879 .44499208 .09333801 .44499208 .10635376 .44499208 .112350467 .43798829 .12036133 .43099977 .12036133 .42599488 .12036133 .4249878 .11936951 .41600038 .10835266 .35598756 .03427124 .2649994 .014251709 .21299744 .014251709 .14199829 .014251709 .12298584 .081329349 .12298584 .13137818 .12298584 .13337708 .12298584 .16841126 .13699341 .22949219M.14399719 .25448609C.18798828 .41238404 .29899598 .41737367 .31498719 .41737367 .34899903 .41737367 .3899994 .40138246 .3899994 .35542298 .3899994 .25448609 .23899842 .25448609 .14399719 .25448609Z"/>
<path id="font_2_2" d="M.4039917 .40527345C.37098695 .39926148 .35398866 .3712616 .35398866 .3502655 .35398866 .3312683 .36799623 .31427003 .3929901 .31427003 .41999818 .31427003 .44799806 .337265 .44799806 .37426759 .44799806 .41334535 .4119873 .4423828 .36299134 .4423828 .28799439 .4423828 .24598694 .386261 .23199463 .3672638 .21998596 .42237855 .1749878 .4423828 .13699341 .4423828 .100997928 .4423828 .07798767 .42037965 .06098938 .38526917 .041992189 .34925843 .0289917 .29226686 .0289917 .28826905 .0289917 .27926637 .035995485 .27626039 .042999269 .27626039 .053985597 .27626039 .055999757 .28126527 .06098938 .30126954 .07998657 .38026429 .100997928 .41737367 .1349945 .41737367 .16499329 .41737367 .16499329 .38526917 .16499329 .37026979 .16499329 .34925843 .15699768 .31826783 .15098572 .29226686 .14399719 .26626588 .13398743 .2232666 .12998963 .21125794L.08999634 .04725647C.08299255 .023254395 .08299255 .021255494 .08299255 .018249512 .08299255 .0052490236 .09199524-.0107421879 .11399841-.0107421879 .1459961-.0107421879 .15299988 .01625061 .1599884 .04525757 .17199707 .088256839 .17199707 .09025574 .18199158 .1312561 .21899414 .28126527 .22499085 .30526734 .22698975 .31025697 .23298645 .32226563 .2789917 .41737367 .3619995 .41737367 .3849945 .41737367 .39898683 .40930177 .4039917 .40527345Z"/>
<path id="font_3_2" d="M.5379944 .18702698H.5009918C.49899293 .17301941 .4889984 .10699463 .47399903 .09599304 .46699525 .08999634 .38598634 .08999634 .37199403 .08999634H.18499756L.31298829 .19403076C.34700013 .22103882 .43598939 .28504945 .46699525 .31506349 .49699403 .3450775 .5379944 .39608766 .5379944 .46710206 .5379944 .5920563 .4249878 .66503909 .29100038 .66503909 .1619873 .66503909 .07199097 .58006289 .07199097 .48609925 .07199097 .43510438 .114990238 .42910768 .12599182 .42910768 .15098572 .42910768 .17999268 .44709779 .17999268 .48310853 .17999268 .50509646 .16699219 .5371094 .12298584 .5371094 .1459961 .5880585 .20698548 .6260376 .27598573 .6260376 .3809967 .6260376 .43699647 .5480957 .43699647 .46710206 .43699647 .39608766 .3899994 .32305909 .31999208 .25904847L.08299255 .041992189C.07299805 .03199768 .07199097 .0309906 .07199097 0H.5069885L.5379944 .18702698Z"/>
<path id="font_2_3" d="M.39698792 .37402345C.35398866 .37001039 .34999085 .3360138 .34999085 .32901 .34999085 .31201173 .36299134 .29901124 .38198854 .29901124 .4099884 .29901124 .42900086 .32202149 .42900086 .355011 .42900086 .40527345 .37998963 .4423828 .30599977 .4423828 .17199707 .4423828 .13398743 .3420105 .13398743 .2960205 .13398743 .25810243 .15299988 .23814392 .1659851 .22616577 .18598938 .2071991 .21299744 .20121765 .24899292 .19422913 .2939911 .1852417 .3039856 .18325806 .32199098 .17027283 .33799745 .15830994 .34700013 .14231873 .34700013 .12130737 .34700013 .0953064 .32299806 .014251709 .20199585 .014251709 .1789856 .014251709 .10899353 .01725769 .08699036 .063308719 .13699341 .063308719 .14698792 .10331726 .14698792 .11730957 .14698792 .14730835 .11999512 .15332031 .10899353 .15332031 .09098816 .15332031 .052993776 .13931275 .052993776 .08731079 .052993776 .025268555 .115997318-.0107421879 .20098877-.0107421879 .36898805-.0107421879 .4059906 .11231995 .4059906 .15530396 .4059906 .1932373 .3849945 .21717835 .37298585 .2291565 .34700013 .25610353 .31498719 .26208497 .27999879 .2690735 .2679901 .2720642 .24598694 .276062 .24299622 .27705384 .20999146 .28404237 .19198609 .3040161 .19198609 .32901 .19198609 .3400116 .19898987 .37200929 .22698975 .3941803 .25498963 .41636659 .29299928 .41737367 .30599977 .41737367 .34098817 .41737367 .38198854 .40628053 .39698792 .37402345Z"/>
<path id="font_3_1" d="M.35899354 .6349335C.35899354 .66503909 .35499574 .66503909 .32499696 .66503909 .25898744 .60058596 .15699768 .60058596 .12098694 .60058596V.5615845C.14698792 .5615845 .21299744 .5615845 .272995 .58958438V.08496094C.272995 .051986696 .272995 .038986207 .16999817 .038986207H.1269989V0C.18199158 .0039978029 .2599945 .0039978029 .31599427 .0039978029 .37199403 .0039978029 .44999696 .0039978029 .5049896 0V.038986207H.46199037C.35899354 .038986207 .35899354 .051986696 .35899354 .08496094V.6349335Z"/>
<path id="font_3_3" d="M.2939911 .33203126C.3789978 .33203126 .43598939 .274765 .43598939 .17237854 .43598939 .062408449 .36999513 .014511108 .29699708 .014511108 .269989 .014511108 .16699219 .020492554 .12199402 .07836914 .16099549 .0823822 .1769867 .10836792 .1769867 .13537598 .1769867 .16937256 .15299988 .19238281 .11999512 .19238281 .09298706 .19238281 .06298828 .17536927 .06298828 .13337708 .06298828 .034469606 .17298889-.021484375 .2999878-.021484375 .44799806-.021484375 .5469971 .07337952 .5469971 .17237854 .5469971 .24562073 .4909973 .3229828 .37199403 .35302735 .45098878 .37902833 .5149994 .44306947 .5149994 .5251007 .5149994 .60505679 .42099 .66503909 .30099488 .66503909 .18399048 .66503909 .09498596 .61105349 .09498596 .5290985 .09498596 .48609925 .12799073 .47409059 .147995 .47409059 .17399597 .47409059 .20098877 .49209596 .20098877 .5270996 .20098877 .5580902 .1789856 .5760956 .1519928 .5800934 .19898987 .6320343 .2899933 .6320343 .29899598 .6320343 .34999085 .6320343 .4139862 .60806277 .4139862 .5251007 .4139862 .47009278 .3829956 .37402345 .2829895 .36802674 .2649994 .36701966 .23799134 .36502076 .22898865 .36502076 .21899414 .36402894 .20799256 .36302186 .20799256 .34802247 .20799256 .33203126 .21899414 .33203126 .23599243 .33203126H.2939911Z"/>
<path id="font_4_1" d="M.15899658 .07795715C.14898682 .038986207 .14698792 .0309906 .067993167 .0309906 .050994874 .0309906 .039993287 .0309906 .039993287 .011993408 .039993287 0 .04899597 0 .067993167 0H.39898683C.6069946 0 .80400088 .21087647 .80400088 .42974855 .80400088 .5706482 .71899417 .6826172 .56900027 .6826172H.23298645C.21398926 .6826172 .20298767 .6826172 .20298767 .66360476 .20298767 .6516113 .21199036 .6516113 .23199463 .6516113 .24499512 .6516113 .2630005 .65060427 .2749939 .6496124 .29100038 .6476135 .29699708 .64460757 .29699708 .6336212 .29699708 .6296234 .29599 .62661746 .29299928 .614624L.15899658 .07795715M.375 .6136322C.38398744 .64860537 .38598634 .6516113 .42900086 .6516113H.5359955C.6339874 .6516113 .71699526 .5986328 .71699526 .46672059 .71699526 .41775514 .69699099 .25386048 .6119995 .1439209 .58299258 .10694885 .5039978 .0309906 .3809967 .0309906H.2679901C.2539978 .0309906 .2519989 .0309906 .24598694 .03199768 .23599243 .032989503 .23298645 .033996583 .23298645 .041992189 .23298645 .04498291 .23298645 .04698181 .23799134 .064971927L.375 .6136322Z"/>
<path id="font_5_1" d="M.272995 .33428956C.35099793 .33428956 .40699769 .2803192 .40699769 .1733551 .40699769 .04940796 .33499146 .012466431 .2769928 .012466431 .23699951 .012466431 .14898682 .0234375 .10699463 .082351688 .1539917 .084350589 .16499329 .11735535 .16499329 .13835144 .16499329 .17034912 .14099121 .19335938 .10998535 .19335938 .08198547 .19335938 .053985597 .17634583 .053985597 .13534546 .053985597 .041412355 .1579895-.01953125 .2789917-.01953125 .41799928-.01953125 .5139923 .07336426 .5139923 .1733551 .5139923 .2513275 .44999696 .32929994 .33999635 .35229493 .44499208 .39024354 .48298646 .4650879 .48298646 .5260773 .48298646 .60505679 .3919983 .6640625 .2809906 .6640625 .16999817 .6640625 .084991458 .61006167 .084991458 .5300751 .084991458 .49606324 .10699463 .47706605 .13699341 .47706605 .16799927 .47706605 .18798828 .5000763 .18798828 .5280762 .18798828 .5570679 .16799927 .57806399 .13699341 .5800781 .17199707 .62405398 .24099732 .63505557 .27799989 .63505557 .32299806 .63505557 .38598634 .6130676 .38598634 .5260773 .38598634 .48406983 .37199403 .43814088 .34599305 .4072113 .31298829 .36927796 .2849884 .3672943 .23498535 .36428834 .20999146 .3623047 .20799256 .3623047 .20298767 .3612976 .20098877 .3612976 .19299317 .3592987 .19299317 .34829713 .19299317 .33428956 .20199585 .33428956 .21899414 .33428956H.272995Z"/>
<path id="font_6_75" d="M.93499758 0V.04699707H.8659973V.30613709C.8659973 .40919496 .8149872 .4501953 .71199038 .4501953 .62098696 .4501953 .56900027 .40019227 .54299929 .3541565 .522995 .44718934 .43099977 .4501953 .3929901 .4501953 .30599977 .4501953 .24899292 .40518189 .21699524 .3421631V.4501953L.04499817 .4423828V.39537049C.10699463 .39537049 .11399841 .39537049 .11399841 .3563385V.04699707H.04499817V0L.17098999 .0029907227 .29699708 0V.04699707H.22799683V.2562256C.22799683 .3653412 .31498719 .41436769 .3769989 .41436769 .41099549 .41436769 .43299867 .39437867 .43299867 .31729127V.04699707H.3639984V0L.48999024 .0029907227 .6159973 0V.04699707H.5469971V.2562256C.5469971 .3653412 .6339874 .41436769 .69599917 .41436769 .7299957 .41436769 .7519989 .39437867 .7519989 .31729127V.04699707H.68299868V0L.8089905 .0029907227 .93499758 0Z"/>
<path id="font_6_109" d="M.61499026 .0001373291V.0471344C.5529938 .0471344 .54599 .0471344 .54599 .086135867V.4501953L.36299134 .44218446V.39518739C.4249878 .39518739 .43199159 .39518739 .43199159 .3561859V.16514588C.43199159 .08314514 .3809967 .030136109 .30799867 .030136109 .23098755 .030136109 .22799683 .055130006 .22799683 .10914612V.4501953L.04499817 .44218446V.39518739C.10699463 .39518739 .11399841 .39518739 .11399841 .3561859V.12313843C.11399841 .01612854 .19499207-.005859375 .2939911-.005859375 .31999208-.005859375 .3919983-.005859375 .43798829 .072143558V-.005859375L.61499026 .0001373291Z"/>
<path id="font_6_72" d="M.29299928 0V.04699707H.22399903V.69433596L.04699707 .6855469V.63853457C.10899353 .63853457 .115997318 .63853457 .115997318 .5995636V.04699707H.04699707V0L.16999817 .0029907227 .29299928 0Z"/>
<path id="font_6_105" d="M.38198854 .124176029V.17721558H.33499146V.12619019C.33499146 .058151246 .30299378 .03413391 .2749939 .03413391 .21699524 .03413391 .21699524 .09817505 .21699524 .1211853V.3973236H.36299134V.44433595H.21699524V.6357422H.16999817C.16899109 .53552249 .11999512 .43632508 .020996094 .43333436V.3973236H.102996829V.123184207C.102996829 .01612854 .18998719-.005859375 .26098634-.005859375 .33699037-.005859375 .38198854 .05114746 .38198854 .124176029Z"/>
<path id="font_6_66" d="M.28599549 0V.04699707H.22399903V.4501953L.049987794 .4423828V.39537049C.10899353 .39537049 .115997318 .39537049 .115997318 .3563385V.04699707H.04699707V0L.16899109 .0029907227 .28599549 0M.23799134 .60728457C.23799134 .6502838 .20298767 .6852875 .1599884 .6852875 .116989139 .6852875 .08198547 .6502838 .08198547 .60728457 .08198547 .5642853 .116989139 .5292969 .1599884 .5292969 .20298767 .5292969 .23799134 .5642853 .23799134 .60728457Z"/>
<path id="font_6_84" d="M.59999087 .22319031C.59999087 .3561859 .5089874 .4501953 .36499024 .4501953 .2899933 .4501953 .23699951 .41918946 .21398926 .40118409V.4501953L.036987306 .4423828V.39537049C.09899902 .39537049 .10598755 .39537049 .10598755 .3573761V-.14648438H.036987306V-.1934967L.16299439-.19049073 .2889862-.1934967V-.14648438H.21998596V.03945923C.2630005 .004135132 .30699159-.005859375 .34799195-.005859375 .49798585-.005859375 .59999087 .08413696 .59999087 .22312927V.22319031M.47200013 .22312927C.47200013 .08213806 .4019928 .030136109 .33699037 .030136109 .32299806 .030136109 .27598573 .030136109 .23098755 .08413696 .21998596 .09713745 .21998596 .09812927 .21998596 .117126468V.32913209C.21998596 .34814454 .22099304 .3491516 .23498535 .36314393 .2749939 .4041443 .32699586 .41015626 .34899903 .41015626 .41600038 .41015626 .47200013 .3491516 .47200013 .22314453V.22312927Z"/>
<path id="font_6_43" d="M.47799684 .117126468C.47799684 .13113404 .46398927 .13113404 .45399476 .13113404 .43598939 .13113404 .43499757 .12913513 .42999269 .11613464 .4039917 .053131105 .35598756 .03413391 .30499269 .03413391 .1659851 .03413391 .1659851 .18112183 .1659851 .22712708 .1659851 .28312684 .1659851 .41311646 .29499818 .41311646 .32998658 .41311646 .34700013 .41011048 .3600006 .40711976 .34199525 .39111329 .33999635 .3701172 .33999635 .3611145 .33999635 .3171234 .375 .29811097 .4019928 .29811097 .43299867 .29811097 .46499635 .3191223 .46499635 .3611145 .46499635 .44711305 .34899903 .453125 .29100038 .453125 .11199951 .45314027 .037994386 .33813478 .037994386 .22213745 .037994386 .08912659 .13198853-.005859375 .28599549-.005859375 .44799806-.005859375 .47799684 .11013794 .47799684 .117126468Z"/>
<path id="font_6_28" d="M.5529938 .023986817C.5529938 .04699707 .5399933 .04699707 .5269928 .04699707 .46598817 .04798889 .46598817 .06100464 .46598817 .083999637V.29907228C.46598817 .3881073 .394989 .453125 .24598694 .453125 .18899536 .453125 .066986087 .44911195 .066986087 .36109925 .066986087 .3170929 .101989749 .29808045 .1289978 .29808045 .1599884 .29808045 .19198609 .3190918 .19198609 .36109925 .19198609 .39111329 .17298889 .40811158 .16999817 .41011048 .19799805 .41612245 .22999573 .41711427 .24198914 .41711427 .31698609 .41711427 .35198976 .3751068 .35198976 .29907228V.26506043C.2809906 .2620697 .026992798 .25306703 .026992798 .10801697 .026992798 .012130737 .15098572-.005859375 .21998596-.005859375 .2999878-.005859375 .34700013 .035125734 .36898805 .07713318 .36898805 .04598999 .36898805 0 .47299195 0H.5209961C.54100039 0 .5529938 0 .5529938 .023986817M.35198976 .13899231C.35198976 .043151857 .2599945 .030136109 .23498535 .030136109 .18399048 .030136109 .14399719 .06517029 .14399719 .10922241 .14399719 .21734619 .3019867 .23136902 .35198976 .234375V.13899231Z"/>
<path id="font_6_81" d="M.5419922 .21812439C.5419922 .35212709 .44999696 .453125 .2869873 .453125 .12298584 .453125 .03199768 .35112 .03199768 .21812439 .03199768 .09413147 .11999512-.005859375 .2869873-.005859375 .45498658-.005859375 .5419922 .09512329 .5419922 .21812439M.4139862 .22912598C.4139862 .14213562 .4139862 .03413391 .2869873 .03413391 .1599884 .03413391 .1599884 .14213562 .1599884 .22912598 .1599884 .27412416 .1599884 .32511903 .1769867 .3591156 .19599915 .39611817 .23799134 .41711427 .2869873 .41711427 .32899476 .41711427 .37098695 .40112306 .3929901 .36611939 .4139862 .3321228 .4139862 .27713014 .4139862 .22912598Z"/>
<path id="font_6_77" d="M.61499026 0V.04699707H.54599V.30613709C.54599 .41119386 .49198915 .4501953 .3919983 .4501953 .29599 .4501953 .24299622 .39318849 .21699524 .3421631V.4501953L.04499817 .4423828V.39537049C.10699463 .39537049 .11399841 .39537049 .11399841 .3563385V.04699707H.04499817V0L.17098999 .0029907227 .29699708 0V.04699707H.22799683V.2562256C.22799683 .3653412 .31399537 .41436769 .3769989 .41436769 .41099549 .41436769 .43199159 .39337159 .43199159 .31729127V.04699707H.36299134V0L.4889984 .0029907227 .61499026 0Z"/>
<path id="font_6_35" d="M.59999087 .22319031C.59999087 .3561859 .5059967 .4501953 .36099244 .4501953 .28799439 .4501953 .23799134 .42118836 .21398926 .40118409V.69433596L.036987306 .6863251V.639328C.09899902 .639328 .10598755 .639328 .10598755 .600296V.00018310547H.15299988C.16899109 .019180298 .18598938 .03718567 .20199585 .05618286 .20999146 .04814148 .25898744-.005859375 .34799195-.005859375 .49699403-.005859375 .59999087 .08413696 .59999087 .22315979V.22319031M.47200013 .22315979C.47200013 .17614746 .47200013 .12113953 .44599916 .08213806 .4169922 .041137697 .37098695 .030136109 .33898927 .030136109 .2689972 .030136109 .22999573 .08413696 .21998596 .09913635V.35017396C.24699402 .3851776 .29499818 .41418458 .34999085 .41418458 .47200013 .41418458 .47200013 .2931671 .47200013 .22315979Z"/>
<path id="font_6_50" d="M.49398805 .11706543C.49398805 .13504029 .47499085 .13504029 .46998597 .13504029 .45298768 .13504029 .45098878 .13005066 .44499208 .11405945 .42399598 .066101077 .36698915 .03413391 .3019867 .03413391 .16099549 .03413391 .1599884 .16700745 .1599884 .2179718H.46199037C.48399354 .2179718 .49398805 .2179718 .49398805 .2449646 .49398805 .27598573 .48799134 .34906007 .43798829 .3991089 .40098573 .43511964 .34799195 .453125 .2789917 .453125 .11898804 .453125 .03199768 .35005189 .03199768 .22497559 .03199768 .09107971 .13198853-.005859375 .29299928-.005859375 .45098878-.005859375 .49398805 .10006714 .49398805 .11706543M.39898683 .25097657H.1599884C.1619873 .29000855 .16299439 .3320465 .18399048 .36506654 .20999146 .4051056 .25 .41711427 .2789917 .41711427 .3959961 .41711427 .397995 .28599549 .39898683 .25097657Z"/>
<path id="font_7_1" d="M.22698975 .25035096C.22698975 .28634645 .19699097 .3083496 .16999817 .3083496 .13699341 .3083496 .11199951 .2813568 .11199951 .25135804 .11199951 .21534729 .14199829 .19335938 .16899109 .19335938 .20199585 .19335938 .22698975 .22035218 .22698975 .25035096Z"/>
<path id="font_8_3" d="M.22399903 .22851563C.2519989 .22851563 .33099366 .23051453 .3849945 .24951172 .45899964 .27549745 .47299195 .3234558 .47299195 .35343934 .47299195 .4084015 .41799928 .44140626 .34899903 .44140626 .22898865 .44140626 .066986087 .34944154 .066986087 .17843628 .066986087 .077301029 .12998963-.009765625 .24699402-.009765625 .41600038-.009765625 .49499513 .08932495 .49499513 .10334778 .49499513 .10934448 .48599244 .12036133 .47799684 .12036133 .47200013 .12036133 .46998597 .11836243 .46199037 .11035156 .38398744 .018234253 .2669983 .018234253 .24899292 .018234253 .18899536 .018234253 .14898682 .058273317 .14898682 .13938904 .14898682 .15341187 .14898682 .1734314 .16099549 .22851563H.22399903M.16899109 .2565155C.20999146 .40141297 .32099916 .4133911 .34899903 .4133911 .3929901 .4133911 .42999269 .39141847 .42999269 .35343934 .42999269 .2565155 .26098634 .2565155 .21798706 .2565155H.16899109Z"/>
<path id="font_8_4" d="M.23498535 .2023468C.23599243 .2083435 .25898744 .29840089 .26098634 .30340577 .2630005 .31140138 .2919922 .36140443 .32398988 .3854065 .33499146 .3934021 .3619995 .4133911 .40499879 .4133911 .4149933 .4133911 .43998719 .4123993 .45999146 .39941407 .42799378 .39041139 .41600038 .3624115 .41600038 .34440614 .41600038 .32240296 .43299867 .30740357 .45599366 .30740357 .47898866 .30740357 .5119934 .32640077 .5119934 .3684082 .5119934 .4203949 .45700074 .44140626 .4059906 .44140626 .35398866 .44140626 .30899049 .4203949 .2649994 .3704071 .24699402 .43139649 .18598938 .44140626 .1619873 .44140626 .125 .44140626 .099990848 .418396 .083999637 .39041139 .06098938 .3514099 .04699707 .293396 .04699707 .2883911 .04699707 .27539063 .06098938 .27539063 .06399536 .27539063 .07798767 .27539063 .07899475 .2783966 .085998538 .30540467 .100997928 .3664093 .11999512 .4133911 .15899658 .4133911 .18499756 .4133911 .19198609 .3914032 .19198609 .3644104 .19198609 .3454132 .18299866 .30841065 .17599488 .28138734 .16899109 .25437928 .15899658 .21334839 .1539917 .19132996L.12199402 .06326294C.117996219 .050247194 .11199951 .025238038 .11199951 .022232056 .11199951 .00022888184 .12998963-.009765625 .1459961-.009765625 .16099549-.009765625 .18099976-.00077819827 .18899536 .019226075 .19099427 .025238038 .20199585 .06925964 .20799256 .09428406L.23498535 .2023468Z"/>
<path id="font_9_2" d="M.58898928 .19296265H.5469971C.5439911 .17396546 .5339966 .11198425 .5179901 .101989749 .5099945 .09599304 .42599488 .09599304 .41099549 .09599304H.21499634C.2809906 .14497376 .35499574 .20095825 .4149933 .24093628 .5049896 .30291749 .58898928 .36090089 .58898928 .46687318 .58898928 .59495547 .46798707 .6660156 .32499696 .6660156 .18998719 .6660156 .09098816 .58795168 .09098816 .48986817 .09098816 .4378662 .1349945 .42886354 .14898682 .42886354 .17599488 .42886354 .20799256 .4468689 .20799256 .48786927 .20799256 .52386477 .18199158 .543869 .15098572 .546875 .1789856 .59194949 .23699951 .6220093 .3039856 .6220093 .40098573 .6220093 .48199464 .5639038 .48199464 .4658661 .48199464 .3818817 .42399598 .31791688 .34700013 .2529297L.102996829 .04598999C.09298706 .036987306 .09199524 .036987306 .09098816 .02999878V0H.55599978L.58898928 .19296265Z"/>
<path id="font_8_5" d="M.43099977 .37594605C.40499879 .36994935 .3889923 .348938 .3889923 .32894898 .3889923 .30593873 .40899659 .2969513 .42199708 .2969513 .43199159 .2969513 .46998597 .302948 .46998597 .35394288 .46998597 .41940309 .397995 .44140626 .33699037 .44140626 .18099976 .44140626 .15299988 .325943 .15299988 .2949524 .15299988 .25804139 .17399597 .23410034 .18798828 .22212219 .21398926 .20217896 .23199463 .19818115 .30099488 .18621826 .32199098 .18222046 .38598634 .17025757 .38598634 .120285037 .38598634 .10328674 .375 .06529236 .33299256 .040252687 .2939911 .018234253 .24499512 .018234253 .23298645 .018234253 .19299317 .018234253 .13598633 .027236939 .11299133 .060287477 .1459961 .06428528 .16799927 .08929443 .16799927 .11729431 .16799927 .14228821 .1499939 .15429688 .1289978 .15429688 .099990848 .15429688 .070999149 .13128662 .070999149 .08729553 .070999149 .027236939 .1349945-.009765625 .23199463-.009765625 .41600038-.009765625 .44999696 .11628723 .44999696 .1552887 .44999696 .24707031 .34899903 .26501466 .31199647 .27200318 .30299378 .27400209 .27799989 .27798463 .27198792 .27998353 .23498535 .28697206 .21699524 .30795289 .21699524 .3299408 .21699524 .35295106 .23498535 .37998963 .25698854 .39416505 .28399659 .41137696 .31900025 .4133911 .33599855 .4133911 .35699464 .4133911 .40899659 .4103546 .43099977 .37594605Z"/>
<path id="font_9_1" d="M.397995 .63591006C.397995 .6660156 .394989 .6660156 .3619995 .6660156 .29100038 .6016083 .17999268 .6016083 .1599884 .6016083H.14299011V.5576172H.1599884C.18299866 .5576172 .24798584 .5606079 .30599977 .58561709V.08596802C.30599977 .054977418 .30599977 .04399109 .19999695 .04399109H.1499939V0C.20498657 .0039978029 .2939911 .0039978029 .35198976 .0039978029 .4099884 .0039978029 .49899293 .0039978029 .55400088 0V.04399109H.5039978C.397995 .04399109 .397995 .054977418 .397995 .08596802V.63591006Z"/>
<path id="font_9_3" d="M.32998658 .3310547C.42199708 .3310547 .48298646 .2737732 .48298646 .17437744 .48298646 .07237244 .41999818 .01852417 .33099366 .01852417 .31999208 .01852417 .20098877 .01852417 .1499939 .070373538 .19099427 .07637024 .20298767 .1073761 .20298767 .13137818 .20298767 .16838074 .1749878 .19238281 .14199829 .19238281 .10998535 .19238281 .07998657 .17137146 .07998657 .12937927 .07998657 .025512696 .19799805-.022460938 .33399964-.022460938 .49798585-.022460938 .59999087 .07637024 .59999087 .17337036 .59999087 .25567628 .5269928 .3260193 .41299439 .35205079 .5329895 .3909912 .5649872 .46684266 .5649872 .5228424 .5649872 .60491946 .46299745 .6660156 .33699037 .6660156 .21398926 .6660156 .114990238 .61395266 .114990238 .5238342 .114990238 .47683717 .15299988 .46484376 .17199707 .46484376 .20098877 .46484376 .22898865 .48583985 .22898865 .5218353 .22898865 .5448303 .21699524 .5728302 .18099976 .57884219 .22399903 .625 .31298829 .628006 .33399964 .628006 .40699769 .628006 .45899964 .5908661 .45899964 .5228424 .45899964 .46484376 .42099 .37402345 .31599427 .368042 .28799439 .3670349 .28399659 .3660431 .2579956 .365036 .24699402 .3640442 .23599243 .36305238 .23599243 .34805299 .23599243 .3310547 .24598694 .3310547 .2639923 .3310547H.32998658Z"/>
<path id="font_7_2" d="M.71398928 .668869C.72099307 .6808624 .7220001 .6838684 .7220001 .6888733 .7220001 .7018585 .71199038 .7138672 .69699099 .7138672 .6839905 .7138672 .6769867 .7048645 .6719971 .69485476L.17799378-.16790772C.17098999-.17990113 .16999817-.1829071 .16999817-.18789673 .16999817-.20089722 .17999268-.21289063 .19499207-.21289063 .20799256-.21289063 .21499634-.2039032 .21998596-.19389344L.71398928 .668869Z"/>
<path id="font_5_3" d="M.7679901 .3359375C.7829895 .3359375 .80599978 .3359375 .80599978 .3609314 .80599978 .38493348 .7819977 .38493348 .7689972 .38493348H.10699463C.09399414 .38493348 .069992069 .38493348 .069992069 .3609314 .069992069 .3359375 .09298706 .3359375 .10798645 .3359375H.7679901M.7689972 .11602783C.7819977 .11602783 .80599978 .11602783 .80599978 .1400299 .80599978 .16503906 .7829895 .16503906 .7679901 .16503906H.10798645C.09298706 .16503906 .069992069 .16503906 .069992069 .1400299 .069992069 .11602783 .09399414 .11602783 .10699463 .11602783H.7689972Z"/>
<path id="font_1_85" d="M.375-.23703003C.375-.23103333 .37199403-.22903443 .36499024-.22203064 .23199463-.10203552 .18299866 .067977908 .18299866 .24998474 .18299866 .519989 .28599549 .65197756 .36799623 .72598269 .37199403 .72998049 .375 .73298647 .375 .73799136 .375 .75 .36299134 .75 .35499574 .75 .16499329 .61598208 .114990238 .40397645 .114990238 .25097657 .114990238 .10997009 .15699768-.10902405 .35499574-.24902344 .36299134-.24902344 .375-.24902344 .375-.23703003Z"/>
<path id="font_1_77" d="M.58999636 0V.035995485C.5249939 .035995485 .5149994 .035995485 .5149994 .07904053V.3032837C.5149994 .3903656 .47200013 .44140626 .36499024 .44140626 .2829895 .44140626 .22999573 .39637757 .20199585 .34432984H.20098877V.44140626L.053985597 .43052674V.39453126C.12098694 .39453126 .1289978 .3875122 .1289978 .33843995V.079055789C.1289978 .035995485 .11898804 .035995485 .053985597 .035995485V0C.053985597 0 .12599182 .0039978029 .16799927 .0039978029 .20498657 .0039978029 .27398683 .0009918213 .2829895 0V.035995485C.21798706 .035995485 .20799256 .035995485 .20799256 .079055789V.25932313C.20799256 .36434938 .29100038 .4133911 .35699464 .4133911 .4269867 .4133911 .43598939 .3583374 .43598939 .3072815V.07904053C.43598939 .035995485 .42599488 .035995485 .36099244 .035995485V0C.36099244 0 .43299867 .0039978029 .47499085 .0039978029 .5119934 .0039978029 .58099368 .0009918213 .58999636 0Z"/>
<path id="font_1_81" d="M.5289917 .21325684C.5289917 .3382721 .42199708 .44628907 .28399659 .44628907 .1459961 .44628907 .038986207 .3382721 .038986207 .21325684 .038986207 .0892334 .14898682-.009765625 .28399659-.009765625 .4189911-.009765625 .5289917 .0892334 .5289917 .21325684M.43798829 .22225952C.43798829 .17424011 .43499757 .12124634 .4059906 .08023071 .3789978 .042236329 .33299256 .022232056 .28399659 .022232056 .24699402 .022232056 .19299317 .034225465 .1599884 .083236698 .1329956 .12423706 .12998963 .17625427 .12998963 .22225952 .12998963 .2652588 .1309967 .32426454 .1659851 .36727906 .19099427 .39627076 .23298645 .41827394 .28399659 .41827394 .34298707 .41827394 .3849945 .39027406 .40699769 .3592682 .43499757 .32026673 .43798829 .27026368 .43798829 .22225952Z"/>
<path id="font_1_64" d="M.31399537 .18101502V.24902344H.019989014V.18101502H.31399537Z"/>
<path id="font_1_28" d="M.5439911 .09013367V.14515686H.5099945V.09114075C.5099945 .08113098 .5099945 .033111574 .47299195 .033111574 .43598939 .033111574 .43598939 .0801239 .43598939 .09313965V.268219C.43598939 .3212433 .43598939 .35925294 .3899994 .39627076 .34899903 .4302826 .30099488 .44628907 .24198914 .44628907 .14698792 .44628907 .07998657 .41027833 .07998657 .34925843 .07998657 .31723023 .101989749 .30023194 .12799073 .30023194 .15499878 .30023194 .1749878 .3202362 .1749878 .34724427 .1749878 .3642578 .16699219 .38526917 .13999939 .39326478 .17599488 .41827394 .23399353 .41827394 .23999024 .41827394 .29599 .41827394 .35699464 .38127137 .35699464 .29722596V.2662201C.3019867 .26420594 .23599243 .2612152 .16299439 .23420716 .07299805 .20118714 .04499817 .14616394 .04499817 .101135257 .04499817 .0152282719 .14898682-.009765625 .21998596-.009765625 .2999878-.009765625 .34700013 .035232545 .36799623 .07423401 .37199403 .033111574 .39898683-.0048828127 .44499208-.0048828127 .44499208-.0048828127 .5439911-.0048828127 .5439911 .09010315V.09013367M.35699464 .14111328C.35699464 .04522705 .272995 .018234253 .22799683 .018234253 .1769867 .018234253 .1289978 .052230836 .1289978 .10122681 .1289978 .15621948 .1769867 .23323059 .35699464 .24023438V.14111328Z"/>
<path id="font_1_35" d="M.58399966 .21640015C.58399966 .33839417 .48098756 .44140626 .34999085 .44140626 .2899933 .44140626 .23498535 .41740418 .19898987 .38139344V.69433596L.04899597 .68333438V.6473236C.116989139 .6473236 .12399292 .639328 .12399292 .58935549V.00022888184H.1579895L.19299317 .06124878C.23098755 .011230469 .28599549-.009765625 .33898927-.009765625 .47099305-.009765625 .58399966 .089263919 .58399966 .2163086V.21640015M.49299623 .21731568C.49299623 .19430542 .49299623 .119277957 .45199586 .072250369 .4119873 .027236939 .36299134 .018234253 .33399964 .018234253 .2539978 .018234253 .21398926 .08125305 .20298767 .102264408V.33535768C.23098755 .38137818 .2849884 .4133911 .34498597 .4133911 .40098573 .4133911 .44099427 .38137818 .46099855 .35136415 .48098756 .32235719 .49299623 .28334046 .49299623 .21731568Z"/>
<path id="font_1_50" d="M.46798707 .12036133C.46798707 .12435913 .46598817 .13438416 .45098878 .13438416 .43798829 .13438416 .43598939 .12837219 .43299867 .11836243 .4019928 .037246705 .32598878 .022232056 .2899933 .022232056 .24299622 .022232056 .19799805 .043258668 .16799927 .08131409 .1309967 .12837219 .12998963 .18945313 .12998963 .22851563H.43998719C.46099855 .22851563 .46798707 .22851563 .46798707 .25050355 .46798707 .33839417 .4189911 .44628907 .269989 .44628907 .13899231 .44628907 .038986207 .34239198 .038986207 .21949768 .038986207 .092315677 .1499939-.009765625 .2829895-.009765625 .41799928-.009765625 .46798707 .09832764 .46798707 .12036133M.397995 .25450135H.1309967C.14199829 .39530946 .23199463 .41827394 .269989 .41827394 .3929901 .41827394 .39698792 .27947999 .397995 .25450135Z"/>
<path id="font_1_72" d="M.2809906 0V.035995485C.21598816 .035995485 .20599365 .035995485 .20599365 .07901001V.69433596L.055999757 .6826172V.64660647C.12298584 .64660647 .1309967 .6396179 .1309967 .59065249V.07896423C.1309967 .035995485 .12098694 .035995485 .055999757 .035995485V0C.055999757 0 .12799073 .0039978029 .16799927 .0039978029 .20599365 .0039978029 .24299622 .0029907227 .2809906 0Z"/>
<path id="font_1_66" d="M.27398683 0V.035995485C.21598816 .035995485 .20599365 .035995485 .20599365 .07803345V.44140626L.05899048 .43052674V.39453126C.12199402 .39453126 .1309967 .3885193 .1309967 .33952333V.07952881C.1309967 .035995485 .12098694 .035995485 .055999757 .035995485V0C.055999757 0 .12799073 .0039978029 .16799927 .0039978029 .20298767 .0039978029 .23899842 .0029907227 .27398683 0M.21899414 .60214236C.21899414 .6341553 .19400025 .66015627 .1619873 .66015627 .12799073 .66015627 .10499573 .6321411 .10499573 .6031494 .10499573 .57115176 .12998963 .54515078 .1619873 .54515078 .19599915 .54515078 .21899414 .57315066 .21899414 .60214236Z"/>
<path id="font_1_86" d="M.32998658 .24998474C.32998658 .39097596 .28799439 .60998538 .08999634 .75 .08299255 .75 .070999149 .75 .070999149 .73799136 .070999149 .73298647 .07398987 .72998049 .07998657 .72299197 .1659851 .64398196 .2619934 .5089874 .2619934 .25097657 .2619934 .04197693 .19699097-.11602783 .08898926-.21403504 .07199097-.23103333 .070999149-.23202515 .070999149-.23703003 .070999149-.24203491 .07398987-.24902344 .083999637-.24902344 .09599304-.24902344 .19099427-.18302918 .25698854-.058029176 .30099488 .024978638 .32998658 .13298035 .32998658 .24998474Z"/>
<path id="font_7_3" d="M.19400025 .71099856C.19400025 .7259979 .19400025 .75 .16999817 .75 .14498902 .75 .14498902 .72698977 .14498902 .71099856V-.2110138C.14498902-.22601319 .14498902-.25 .16899109-.25 .19400025-.25 .19400025-.227005 .19400025-.2110138V.71099856Z"/>
<path id="font_8_2" d="M.18899536 .07797241C.18099976 .04399109 .1789856 .035995485 .100997928 .035995485 .08299255 .035995485 .070999149 .035995485 .070999149 .01399231 .070999149 0 .08299255 0 .100997928 0H.45799256C.6799927 0 .8929901 .20388794 .8929901 .42175294 .8929901 .5676575 .7919922 .6826172 .6289978 .6826172H.2649994C.24499512 .6826172 .23298645 .6826172 .23298645 .660614 .23298645 .64660647 .24398804 .64660647 .2659912 .64660647 .28199769 .64660647 .28599549 .64660647 .3039856 .64460757 .32398988 .64260867 .32598878 .64060977 .32598878 .63061526 .32598878 .62861636 .32598878 .6236267 .32199098 .6086426L.18899536 .07797241M.41299439 .6126251C.42099 .6436157 .42199708 .64660647 .46398927 .64660647H.59199526C.70399478 .64660647 .7979889 .59065249 .7979889 .45472718 .7979889 .43174745 .7879944 .2588501 .6879883 .14492798 .6489868 .09994507 .5629883 .035995485 .43998719 .035995485H.3039856C.272995 .035995485 .27198792 .036987306 .27198792 .04598999 .27198792 .04698181 .27198792 .051986696 .27598573 .066970828L.41299439 .6126251Z"/>
<path id="font_5_2" d="M.1499939 .3274536C.1499939 .40945436 .15699768 .48303224 .19499207 .543869 .22898865 .5978699 .2829895 .63505557 .34700013 .63505557 .3769989 .63505557 .4169922 .62701418 .43699647 .5998688 .4119873 .5978699 .3909912 .5808716 .3909912 .5518799 .3909912 .5268707 .4079895 .5048828 .43798829 .5048828 .46798707 .5048828 .48599244 .5248718 .48599244 .5538788 .48599244 .6119385 .44400025 .6640625 .34498597 .6640625 .20098877 .6640625 .053985597 .5318756 .053985597 .3174591 .053985597 .05845642 .17599488-.01953125 .28599549-.01953125 .4079895-.01953125 .5139923 .07345581 .5139923 .20445252 .5139923 .33145143 .41299439 .42546083 .29599 .42546083 .21598816 .42546083 .17199707 .37245179 .1499939 .3274536M.28599549 .012466431C.23599243 .012466431 .19699097 .04145813 .17599488 .08546448 .16099549 .11546326 .15299988 .16545105 .15299988 .22544861 .15299988 .32244874 .21099854 .39746095 .29100038 .39746095 .33699037 .39746095 .36799623 .37945558 .3929901 .342453 .4169922 .30445863 .41799928 .26245118 .41799928 .20445252 .41799928 .14746094 .41799928 .10545349 .3909912 .066467288 .36698915 .031463624 .33499146 .012466431 .28599549 .012466431Z"/>
<path id="font_8_1" d="M.21099854 .015991211C.21099854-.03907776 .20098877-.10321045 .1329956-.16732788 .1289978-.17134094 .12599182-.17434693 .12599182-.17933655 .12599182-.18634033 .13398743-.19334412 .13999939-.19334412 .1539917-.19334412 .23899842-.113220218 .23899842 .005996704 .23899842 .067993167 .21499634 .114990238 .16899109 .114990238 .13598633 .114990238 .11199951 .08898926 .11199951 .057998659 .11199951 .025985718 .1349945 0 .16999817 0 .19400025 0 .20999146 .015991211 .21099854 .015991211Z"/>
<path id="font_10_1" d="M.8799896 .2223053C.8959961 .2223053 .9229889 .2223053 .9229889 .25030519 .9229889 .2783203 .8959961 .2783203 .8799896 .2783203H.20298767C.18699646 .2783203 .1599884 .2783203 .1599884 .25030519 .1599884 .2223053 .18699646 .2223053 .20298767 .2223053H.8799896Z"/>
</defs>
<path transform="matrix(1,0,0,-1,35.85937,83.91041)" stroke-width=".79701" stroke-linecap="butt" stroke-miterlimit="10" stroke-linejoin="miter" fill="none" stroke="#000000" d="M0 62.3633-14.7292 36.85092H14.7292Z"/>
<use data-text="1" xlink:href="#font_1_82" transform="matrix(6.973848,0,0,-6.973848,33.87528,16.77575)"/>
<use data-text="2" xlink:href="#font_1_107" transform="matrix(6.973848,0,0,-6.973848,11.290321,53.90998)"/>
<use data-text="3" xlink:href="#font_1_106" transform="matrix(6.973848,0,0,-6.973848,56.460248,53.84025)"/>
<use data-text="e" xlink:href="#font_2_1" transform="matrix(8.966376,0,0,-8.966376,33.71722,70.24986)"/>
<path transform="matrix(1,0,0,-1,35.85937,83.91041)" stroke-width=".79701" stroke-linecap="butt" stroke-miterlimit="10" stroke-linejoin="miter" fill="none" stroke="#000000" d="M62.36288 62.3633 47.63367 36.85092H77.0921Z"/>
<use data-text="3" xlink:href="#font_1_106" transform="matrix(6.973848,0,0,-6.973848,96.238178,16.706017)"/>
<use data-text="1" xlink:href="#font_1_82" transform="matrix(6.973848,0,0,-6.973848,73.6532,53.90998)"/>
<use data-text="2" xlink:href="#font_1_107" transform="matrix(6.973848,0,0,-6.973848,118.82315,53.90998)"/>
<path transform="matrix(-.9848,.17363,.17363,.9848,99.62889,10.962578)" d="M4.53381 0C3.97704 .13808 1.52963 .92049 0 1.77196V-1.77196C1.52963-.92049 3.97704-.13808 4.53381 0Z"/>
<path transform="matrix(-.9848,.17363,.17363,.9848,99.62889,10.962578)" stroke-width=".3985" stroke-linecap="butt" stroke-miterlimit="10" stroke-linejoin="miter" fill="none" stroke="#000000" d="M4.53381 0C3.97704 .13808 1.52963 .92049 0 1.77196V-1.77196C1.52963-.92049 3.97704-.13808 4.53381 0Z"/>
<path transform="matrix(1,0,0,-1,35.85937,83.91041)" stroke-width=".79701" stroke-linecap="butt" stroke-miterlimit="10" stroke-linejoin="miter" fill="none" stroke="#b30000" d="M41.73398 62.66495"/>
<path transform="matrix(0,-1,-1,-0,77.59335,27.422387)" d="M4.53381 0C3.97704 .13808 1.52963 .92049 0 1.77196V-1.77196C1.52963-.92049 3.97704-.13808 4.53381 0Z" fill="#b30000"/>
<path transform="matrix(0,-1,-1,-0,77.59335,27.422387)" stroke-width=".79701" stroke-linecap="butt" stroke-miterlimit="10" stroke-linejoin="miter" fill="none" stroke="#b30000" d="M4.53381 0C3.97704 .13808 1.52963 .92049 0 1.77196V-1.77196C1.52963-.92049 3.97704-.13808 4.53381 0Z"/>
<use data-text="r" xlink:href="#font_2_2" transform="matrix(8.966376,0,0,-8.966376,96.01524,70.24986)"/>
<path transform="matrix(1,0,0,-1,35.85937,83.91041)" stroke-width=".79701" stroke-linecap="butt" stroke-miterlimit="10" stroke-linejoin="miter" fill="none" stroke="#000000" d="M124.72578 62.3633 109.99657 36.85092H139.45499Z"/>
<use data-text="2" xlink:href="#font_1_107" transform="matrix(6.973848,0,0,-6.973848,158.60108,16.77575)"/>
<use data-text="3" xlink:href="#font_1_106" transform="matrix(6.973848,0,0,-6.973848,136.0161,53.84025)"/>
<use data-text="1" xlink:href="#font_1_82" transform="matrix(6.973848,0,0,-6.973848,181.18604,53.90998)"/>
<path transform="matrix(-.49998,.86601,.86601,.49998,140.34645,19.736275)" d="M4.53381 0C3.97704 .13808 1.52963 .92049 0 1.77196V-1.77196C1.52963-.92049 3.97704-.13808 4.53381 0Z"/>
<path transform="matrix(-.49998,.86601,.86601,.49998,140.34645,19.736275)" stroke-width=".3985" stroke-linecap="butt" stroke-miterlimit="10" stroke-linejoin="miter" fill="none" stroke="#000000" d="M4.53381 0C3.97704 .13808 1.52963 .92049 0 1.77196V-1.77196C1.52963-.92049 3.97704-.13808 4.53381 0Z"/>
<path transform="matrix(1,0,0,-1,35.85937,83.91041)" stroke-width=".79701" stroke-linecap="butt" stroke-miterlimit="10" stroke-linejoin="miter" fill="none" stroke="#b30000" d="M120.04861 18.83472"/>
<path transform="matrix(0,-1,-1,-0,155.90798,71.252628)" d="M4.53381 0C3.97704 .13808 1.52963 .92049 0 1.77196V-1.77196C1.52963-.92049 3.97704-.13808 4.53381 0Z" fill="#b30000"/>
<path transform="matrix(0,-1,-1,-0,155.90798,71.252628)" stroke-width=".79701" stroke-linecap="butt" stroke-miterlimit="10" stroke-linejoin="miter" fill="none" stroke="#b30000" d="M4.53381 0C3.97704 .13808 1.52963 .92049 0 1.77196V-1.77196C1.52963-.92049 3.97704-.13808 4.53381 0Z"/>
<use data-text="r" xlink:href="#font_2_2" transform="matrix(8.966376,0,0,-8.966376,156.3026,72.150249)"/>
<use data-text="2" xlink:href="#font_3_2" transform="matrix(5.977584,0,0,-5.977584,160.71659,68.34125)"/>
<path transform="matrix(1,0,0,-1,35.85937,83.91041)" stroke-width=".79701" stroke-linecap="butt" stroke-miterlimit="10" stroke-linejoin="miter" fill="none" stroke="#000000" d="M0-11.33856-14.7292-36.85092H14.7292Z"/>
<use data-text="1" xlink:href="#font_1_82" transform="matrix(6.973848,0,0,-6.973848,33.87528,90.477588)"/>
<use data-text="3" xlink:href="#font_1_106" transform="matrix(6.973848,0,0,-6.973848,11.290321,127.54211)"/>
<use data-text="2" xlink:href="#font_1_107" transform="matrix(6.973848,0,0,-6.973848,56.460248,127.61184)"/>
<path transform="matrix(1,0,0,-1,35.85937,83.91041)" stroke-width=".79701" stroke-linecap="butt" stroke-dasharray="2.98883,2.98883" stroke-miterlimit="10" stroke-linejoin="miter" fill="none" stroke="#0000b3" d="M0-4.25185V-39.68535"/>
<use data-text="s" xlink:href="#font_2_3" transform="matrix(8.966376,0,0,-8.966376,31.637349,143.45359)"/>
<use data-text="1" xlink:href="#font_3_1" transform="matrix(5.977584,0,0,-5.977584,35.930269,144.44985)"/>
<path transform="matrix(1,0,0,-1,35.85937,83.91041)" stroke-width=".79701" stroke-linecap="butt" stroke-miterlimit="10" stroke-linejoin="miter" fill="none" stroke="#000000" d="M62.36288-11.33856 47.63367-36.85092H77.0921Z"/>
<use data-text="3" xlink:href="#font_1_106" transform="matrix(6.973848,0,0,-6.973848,96.238178,90.40786)"/>
<use data-text="2" xlink:href="#font_1_107" transform="matrix(6.973848,0,0,-6.973848,73.6532,127.61184)"/>
<use data-text="1" xlink:href="#font_1_82" transform="matrix(6.973848,0,0,-6.973848,118.82315,127.61184)"/>
<path transform="matrix(1,0,0,-1,35.85937,83.91041)" stroke-width=".79701" stroke-linecap="butt" stroke-dasharray="2.98883,2.98883" stroke-miterlimit="10" stroke-linejoin="miter" fill="none" stroke="#0000b3" d="M41.4964-40.39427 83.22939-16.29933"/>
<use data-text="s" xlink:href="#font_2_3" transform="matrix(8.966376,0,0,-8.966376,94.00023,143.45359)"/>
<use data-text="2" xlink:href="#font_3_2" transform="matrix(5.977584,0,0,-5.977584,98.293148,144.44985)"/>
<path transform="matrix(1,0,0,-1,35.85937,83.91041)" stroke-width=".79701" stroke-linecap="butt" stroke-miterlimit="10" stroke-linejoin="miter" fill="none" stroke="#000000" d="M124.72578-11.33856 109.99657-36.85092H139.45499Z"/>
<use data-text="2" xlink:href="#font_1_107" transform="matrix(6.973848,0,0,-6.973848,158.60108,90.477588)"/>
<use data-text="1" xlink:href="#font_1_82" transform="matrix(6.973848,0,0,-6.973848,136.0161,127.61184)"/>
<use data-text="3" xlink:href="#font_1_106" transform="matrix(6.973848,0,0,-6.973848,181.18604,127.54211)"/>
<path transform="matrix(1,0,0,-1,35.85937,83.91041)" stroke-width=".79701" stroke-linecap="butt" stroke-dasharray="2.98883,2.98883" stroke-miterlimit="10" stroke-linejoin="miter" fill="none" stroke="#0000b3" d="M145.59227-40.39427 103.85928-16.29933"/>
<use data-text="s" xlink:href="#font_2_3" transform="matrix(8.966376,0,0,-8.966376,156.36313,143.45359)"/>
<use data-text="3" xlink:href="#font_3_3" transform="matrix(5.977584,0,0,-5.977584,160.65604,144.44985)"/>
<use data-text="D" xlink:href="#font_4_1" transform="matrix(9.96264,0,0,-9.96264,254.90247,21.203377)"/>
<use data-text="3" xlink:href="#font_5_1" transform="matrix(6.973848,0,0,-6.973848,263.1507,22.697758)"/>
<use data-text="m" xlink:href="#font_6_75" transform="matrix(9.96264,0,0,-9.96264,271.43577,21.203377)"/>
<use data-text="u" xlink:href="#font_6_109" transform="matrix(9.96264,0,0,-9.96264,280.67115,21.203377)"/>
<use data-text="l" xlink:href="#font_6_72" transform="matrix(9.96264,0,0,-9.96264,287.03727,21.203377)"/>
<use data-text="t" xlink:href="#font_6_105" transform="matrix(9.96264,0,0,-9.96264,290.21534,21.203377)"/>
<use data-text="i" xlink:href="#font_6_66" transform="matrix(9.96264,0,0,-9.96264,294.66865,21.203377)"/>
<use data-text="p" xlink:href="#font_6_84" transform="matrix(9.96264,0,0,-9.96264,297.8467,21.203377)"/>
<use data-text="l" xlink:href="#font_6_72" transform="matrix(9.96264,0,0,-9.96264,304.21287,21.203377)"/>
<use data-text="i" xlink:href="#font_6_66" transform="matrix(9.96264,0,0,-9.96264,307.39094,21.203377)"/>
<use data-text="c" xlink:href="#font_6_43" transform="matrix(9.96264,0,0,-9.96264,310.56904,21.203377)"/>
<use data-text="a" xlink:href="#font_6_28" transform="matrix(9.96264,0,0,-9.96264,315.6599,21.203377)"/>
<use data-text="t" xlink:href="#font_6_105" transform="matrix(9.96264,0,0,-9.96264,321.22904,21.203377)"/>
<use data-text="i" xlink:href="#font_6_66" transform="matrix(9.96264,0,0,-9.96264,325.68235,21.203377)"/>
<use data-text="o" xlink:href="#font_6_81" transform="matrix(9.96264,0,0,-9.96264,328.8604,21.203377)"/>
<use data-text="n" xlink:href="#font_6_77" transform="matrix(9.96264,0,0,-9.96264,334.58894,21.203377)"/>
<use data-text="t" xlink:href="#font_6_105" transform="matrix(9.96264,0,0,-9.96264,344.7608,21.203377)"/>
<use data-text="a" xlink:href="#font_6_28" transform="matrix(9.96264,0,0,-9.96264,349.2141,21.203377)"/>
<use data-text="b" xlink:href="#font_6_35" transform="matrix(9.96264,0,0,-9.96264,354.7832,21.203377)"/>
<use data-text="l" xlink:href="#font_6_72" transform="matrix(9.96264,0,0,-9.96264,361.14936,21.203377)"/>
<use data-text="e" xlink:href="#font_6_50" transform="matrix(9.96264,0,0,-9.96264,364.32743,21.203377)"/>
<path transform="matrix(1,0,0,-1,35.85937,83.91041)" stroke-width=".3985" stroke-linecap="butt" stroke-miterlimit="10" stroke-linejoin="miter" fill="none" stroke="#000000" d="M226.77458-48.18948H325.9884M226.77458-34.0161H325.9884M226.77458-19.8427H325.9884M226.77458-5.6693H325.9884M226.77458 8.50409H325.9884M226.77458 22.67749H325.9884M226.77458 36.85088H325.9884M226.77458 51.02428H325.9884M226.77458-48.18948V51.02432M240.94797-48.18948V51.02432M255.12137-48.18948V51.02432M269.29478-48.18948V51.02432M283.46818-48.18948V51.02432M297.64158-48.18948V51.02432M311.81498-48.18948V51.02432M325.98838-48.18948V51.02432M325.9884 51.02432"/>
<path transform="matrix(1,0,0,-1,35.85937,83.91041)" stroke-width=".79701" stroke-linecap="butt" stroke-miterlimit="10" stroke-linejoin="miter" fill="none" stroke="#000000" d="M226.77458 36.85092H325.9884"/>
<path transform="matrix(1,0,0,-1,35.85937,83.91041)" stroke-width=".79701" stroke-linecap="butt" stroke-miterlimit="10" stroke-linejoin="miter" fill="none" stroke="#000000" d="M240.94797-48.18948V51.02432"/>
<use data-text="&#x00b7;" xlink:href="#font_7_1" transform="matrix(6.973848,0,0,-6.973848,268.5376,41.59519)"/>
<use data-text="e" xlink:href="#font_8_3" transform="matrix(6.973848,0,0,-6.973848,282.00407,41.47413)"/>
<use data-text="r" xlink:href="#font_8_4" transform="matrix(6.973848,0,0,-6.973848,296.11067,41.47413)"/>
<use data-text="r" xlink:href="#font_8_4" transform="matrix(6.973848,0,0,-6.973848,308.33988,43.08117)"/>
<use data-text="2" xlink:href="#font_9_2" transform="matrix(4.98132,0,0,-4.98132,312.25346,40.07465)"/>
<use data-text="s" xlink:href="#font_8_5" transform="matrix(6.973848,0,0,-6.973848,322.58998,40.975988)"/>
<use data-text="1" xlink:href="#font_9_1" transform="matrix(4.98132,0,0,-4.98132,326.3502,41.972246)"/>
<use data-text="s" xlink:href="#font_8_5" transform="matrix(6.973848,0,0,-6.973848,336.76338,40.975988)"/>
<use data-text="2" xlink:href="#font_9_2" transform="matrix(4.98132,0,0,-4.98132,340.5236,41.972246)"/>
<use data-text="s" xlink:href="#font_8_5" transform="matrix(6.973848,0,0,-6.973848,350.9368,40.975988)"/>
<use data-text="3" xlink:href="#font_9_3" transform="matrix(4.98132,0,0,-4.98132,354.69703,41.972246)"/>
<use data-text="e" xlink:href="#font_8_3" transform="matrix(6.973848,0,0,-6.973848,267.8307,55.647508)"/>
<use data-text="r" xlink:href="#font_8_4" transform="matrix(6.973848,0,0,-6.973848,267.76387,69.82092)"/>
<use data-text="r" xlink:href="#font_8_4" transform="matrix(6.973848,0,0,-6.973848,265.8197,85.60136)"/>
<use data-text="2" xlink:href="#font_9_2" transform="matrix(4.98132,0,0,-4.98132,269.73329,82.59483)"/>
<use data-text="s" xlink:href="#font_8_5" transform="matrix(6.973848,0,0,-6.973848,265.89637,97.66959)"/>
<use data-text="1" xlink:href="#font_9_1" transform="matrix(4.98132,0,0,-4.98132,269.6566,98.665859)"/>
<use data-text="s" xlink:href="#font_8_5" transform="matrix(6.973848,0,0,-6.973848,265.89637,111.84298)"/>
<use data-text="2" xlink:href="#font_9_2" transform="matrix(4.98132,0,0,-4.98132,269.6566,112.83924)"/>
<use data-text="s" xlink:href="#font_8_5" transform="matrix(6.973848,0,0,-6.973848,265.89637,126.016399)"/>
<use data-text="3" xlink:href="#font_9_3" transform="matrix(4.98132,0,0,-4.98132,269.6566,127.01266)"/>
<use data-text="e" xlink:href="#font_8_3" transform="matrix(6.973848,0,0,-6.973848,282.00407,55.647508)"/>
<use data-text="r" xlink:href="#font_8_4" transform="matrix(6.973848,0,0,-6.973848,296.11067,55.647508)"/>
<use data-text="r" xlink:href="#font_8_4" transform="matrix(6.973848,0,0,-6.973848,308.33988,57.25457)"/>
<use data-text="2" xlink:href="#font_9_2" transform="matrix(4.98132,0,0,-4.98132,312.25346,54.24805)"/>
<use data-text="s" xlink:href="#font_8_5" transform="matrix(6.973848,0,0,-6.973848,322.58998,55.149377)"/>
<use data-text="1" xlink:href="#font_9_1" transform="matrix(4.98132,0,0,-4.98132,326.3502,56.145639)"/>
<use data-text="s" xlink:href="#font_8_5" transform="matrix(6.973848,0,0,-6.973848,336.76338,55.149377)"/>
<use data-text="2" xlink:href="#font_9_2" transform="matrix(4.98132,0,0,-4.98132,340.5236,56.145639)"/>
<use data-text="s" xlink:href="#font_8_5" transform="matrix(6.973848,0,0,-6.973848,350.9368,55.149377)"/>
<use data-text="3" xlink:href="#font_9_3" transform="matrix(4.98132,0,0,-4.98132,354.69703,56.145639)"/>
<use data-text="r" xlink:href="#font_8_4" transform="matrix(6.973848,0,0,-6.973848,281.93724,69.82092)"/>
<use data-text="r" xlink:href="#font_8_4" transform="matrix(6.973848,0,0,-6.973848,294.16648,71.427989)"/>
<use data-text="2" xlink:href="#font_9_2" transform="matrix(4.98132,0,0,-4.98132,298.08006,68.42146)"/>
<use data-text="e" xlink:href="#font_8_3" transform="matrix(6.973848,0,0,-6.973848,310.35087,69.82092)"/>
<use data-text="s" xlink:href="#font_8_5" transform="matrix(6.973848,0,0,-6.973848,322.58998,69.322788)"/>
<use data-text="3" xlink:href="#font_9_3" transform="matrix(4.98132,0,0,-4.98132,326.3502,70.319049)"/>
<use data-text="s" xlink:href="#font_8_5" transform="matrix(6.973848,0,0,-6.973848,336.76338,69.322788)"/>
<use data-text="1" xlink:href="#font_9_1" transform="matrix(4.98132,0,0,-4.98132,340.5236,70.319049)"/>
<use data-text="s" xlink:href="#font_8_5" transform="matrix(6.973848,0,0,-6.973848,350.9368,69.322788)"/>
<use data-text="2" xlink:href="#font_9_2" transform="matrix(4.98132,0,0,-4.98132,354.69703,70.319049)"/>
<use data-text="r" xlink:href="#font_8_4" transform="matrix(6.973848,0,0,-6.973848,279.99308,85.60136)"/>
<use data-text="2" xlink:href="#font_9_2" transform="matrix(4.98132,0,0,-4.98132,283.90666,82.59483)"/>
<use data-text="e" xlink:href="#font_8_3" transform="matrix(6.973848,0,0,-6.973848,296.1775,83.994319)"/>
<use data-text="r" xlink:href="#font_8_4" transform="matrix(6.973848,0,0,-6.973848,310.28407,83.994319)"/>
<use data-text="s" xlink:href="#font_8_5" transform="matrix(6.973848,0,0,-6.973848,322.58998,83.496189)"/>
<use data-text="2" xlink:href="#font_9_2" transform="matrix(4.98132,0,0,-4.98132,326.3502,84.49245)"/>
<use data-text="s" xlink:href="#font_8_5" transform="matrix(6.973848,0,0,-6.973848,336.76338,83.496189)"/>
<use data-text="3" xlink:href="#font_9_3" transform="matrix(4.98132,0,0,-4.98132,340.5236,84.49245)"/>
<use data-text="s" xlink:href="#font_8_5" transform="matrix(6.973848,0,0,-6.973848,350.9368,83.496189)"/>
<use data-text="1" xlink:href="#font_9_1" transform="matrix(4.98132,0,0,-4.98132,354.69703,84.49245)"/>
<use data-text="s" xlink:href="#font_8_5" transform="matrix(6.973848,0,0,-6.973848,280.06977,97.66959)"/>
<use data-text="1" xlink:href="#font_9_1" transform="matrix(4.98132,0,0,-4.98132,283.83,98.665859)"/>
<use data-text="s" xlink:href="#font_8_5" transform="matrix(6.973848,0,0,-6.973848,294.24317,97.66959)"/>
<use data-text="2" xlink:href="#font_9_2" transform="matrix(4.98132,0,0,-4.98132,298.0034,98.665859)"/>
<use data-text="s" xlink:href="#font_8_5" transform="matrix(6.973848,0,0,-6.973848,308.41658,97.66959)"/>
<use data-text="3" xlink:href="#font_9_3" transform="matrix(4.98132,0,0,-4.98132,312.1768,98.665859)"/>
<use data-text="e" xlink:href="#font_8_3" transform="matrix(6.973848,0,0,-6.973848,324.52427,98.16773)"/>
<use data-text="r" xlink:href="#font_8_4" transform="matrix(6.973848,0,0,-6.973848,338.63087,98.16773)"/>
<use data-text="r" xlink:href="#font_8_4" transform="matrix(6.973848,0,0,-6.973848,350.8601,99.774768)"/>
<use data-text="2" xlink:href="#font_9_2" transform="matrix(4.98132,0,0,-4.98132,354.77369,96.76824)"/>
<use data-text="s" xlink:href="#font_8_5" transform="matrix(6.973848,0,0,-6.973848,280.06977,111.84298)"/>
<use data-text="2" xlink:href="#font_9_2" transform="matrix(4.98132,0,0,-4.98132,283.83,112.83924)"/>
<use data-text="s" xlink:href="#font_8_5" transform="matrix(6.973848,0,0,-6.973848,294.24317,111.84298)"/>
<use data-text="3" xlink:href="#font_9_3" transform="matrix(4.98132,0,0,-4.98132,298.0034,112.83924)"/>
<use data-text="s" xlink:href="#font_8_5" transform="matrix(6.973848,0,0,-6.973848,308.41658,111.84298)"/>
<use data-text="1" xlink:href="#font_9_1" transform="matrix(4.98132,0,0,-4.98132,312.1768,112.83924)"/>
<use data-text="r" xlink:href="#font_8_4" transform="matrix(6.973848,0,0,-6.973848,322.5133,113.94817)"/>
<use data-text="2" xlink:href="#font_9_2" transform="matrix(4.98132,0,0,-4.98132,326.42689,110.94165)"/>
<use data-text="e" xlink:href="#font_8_3" transform="matrix(6.973848,0,0,-6.973848,338.69767,112.34112)"/>
<use data-text="r" xlink:href="#font_8_4" transform="matrix(6.973848,0,0,-6.973848,352.80427,112.34112)"/>
<use data-text="s" xlink:href="#font_8_5" transform="matrix(6.973848,0,0,-6.973848,280.06977,126.016399)"/>
<use data-text="3" xlink:href="#font_9_3" transform="matrix(4.98132,0,0,-4.98132,283.83,127.01266)"/>
<use data-text="s" xlink:href="#font_8_5" transform="matrix(6.973848,0,0,-6.973848,294.24317,126.016399)"/>
<use data-text="1" xlink:href="#font_9_1" transform="matrix(4.98132,0,0,-4.98132,298.0034,127.01266)"/>
<use data-text="s" xlink:href="#font_8_5" transform="matrix(6.973848,0,0,-6.973848,308.41658,126.016399)"/>
<use data-text="2" xlink:href="#font_9_2" transform="matrix(4.98132,0,0,-4.98132,312.1768,127.01266)"/>
<use data-text="r" xlink:href="#font_8_4" transform="matrix(6.973848,0,0,-6.973848,324.45747,126.514537)"/>
<use data-text="r" xlink:href="#font_8_4" transform="matrix(6.973848,0,0,-6.973848,336.6867,128.12158)"/>
<use data-text="2" xlink:href="#font_9_2" transform="matrix(4.98132,0,0,-4.98132,340.60029,125.11507)"/>
<use data-text="e" xlink:href="#font_8_3" transform="matrix(6.973848,0,0,-6.973848,352.8711,126.514537)"/>
<path transform="matrix(1,0,0,-1,35.85937,83.91041)" stroke-width="1.19553" stroke-linecap="butt" stroke-miterlimit="10" stroke-linejoin="miter" fill="none" stroke="#ff0000" d="M284.88563 11.9141V19.26753C284.88563 20.368 285.7777 21.26009 286.87818 21.26009H294.2316C295.3321 21.26009 296.22419 20.368 296.22419 19.26753V11.9141C296.22419 10.81361 295.3321 9.92154 294.2316 9.92154H286.87818C285.7777 9.92154 284.88563 10.81361 284.88563 11.9141ZM296.22419 21.26009"/>
<path transform="matrix(1,0,0,-1,35.85937,83.91041)" stroke-width="1.19553" stroke-linecap="butt" stroke-miterlimit="10" stroke-linejoin="miter" fill="none" stroke="#ff0000" d="M256.5388-16.43271V-9.07927C256.5388-7.97879 257.4309-7.08672 258.53138-7.08672H265.8848C266.9853-7.08672 267.87736-7.97879 267.87736-9.07927V-16.43271C267.87736-17.53317 266.9853-18.42526 265.8848-18.42526H258.53138C257.4309-18.42526 256.5388-17.53317 256.5388-16.43271ZM267.87736-7.08672"/>
<use data-text="r" xlink:href="#font_8_4" transform="matrix(6.973848,0,0,-6.973848,269.7038,145.18543)" fill="#ff0000"/>
<use data-text="s" xlink:href="#font_8_5" transform="matrix(6.973848,0,0,-6.973848,273.60917,145.18543)" fill="#ff0000"/>
<use data-text="1" xlink:href="#font_9_1" transform="matrix(4.98132,0,0,-4.98132,277.3776,146.18169)" fill="#ff0000"/>
<use data-text="&#x0338;" xlink:href="#font_7_2" transform="matrix(6.973848,0,0,-6.973848,283.53358,145.18543)" fill="#ff0000"/>
<use data-text="=" xlink:href="#font_5_3" transform="matrix(6.973848,0,0,-6.973848,283.53358,145.18543)" fill="#ff0000"/>
<use data-text="s" xlink:href="#font_8_5" transform="matrix(6.973848,0,0,-6.973848,291.9173,145.18543)" fill="#ff0000"/>
<use data-text="1" xlink:href="#font_9_1" transform="matrix(4.98132,0,0,-4.98132,295.67753,146.18169)" fill="#ff0000"/>
<use data-text="r" xlink:href="#font_8_4" transform="matrix(6.973848,0,0,-6.973848,299.56578,145.18543)" fill="#ff0000"/>
<use data-text="(" xlink:href="#font_1_85" transform="matrix(6.973848,0,0,-6.973848,308.1009,145.18543)" fill="#ff0000"/>
<use data-text="n" xlink:href="#font_1_77" transform="matrix(6.973848,0,0,-6.973848,311.21125,145.18543)" fill="#ff0000"/>
<use data-text="o" xlink:href="#font_1_81" transform="matrix(6.973848,0,0,-6.973848,315.61174,145.18543)" fill="#ff0000"/>
<use data-text="n" xlink:href="#font_1_77" transform="matrix(6.973848,0,0,-6.973848,319.57984,145.18543)" fill="#ff0000"/>
<use data-text="-" xlink:href="#font_1_64" transform="matrix(6.973848,0,0,-6.973848,323.98036,145.18543)" fill="#ff0000"/>
<use data-text="a" xlink:href="#font_1_28" transform="matrix(6.973848,0,0,-6.973848,326.66529,145.18543)" fill="#ff0000"/>
<use data-text="b" xlink:href="#font_1_35" transform="matrix(6.973848,0,0,-6.973848,330.6334,145.18543)" fill="#ff0000"/>
<use data-text="e" xlink:href="#font_1_50" transform="matrix(6.973848,0,0,-6.973848,335.2501,145.18543)" fill="#ff0000"/>
<use data-text="l" xlink:href="#font_1_72" transform="matrix(6.973848,0,0,-6.973848,338.7928,145.18543)" fill="#ff0000"/>
<use data-text="i" xlink:href="#font_1_66" transform="matrix(6.973848,0,0,-6.973848,341.04536,145.18543)" fill="#ff0000"/>
<use data-text="a" xlink:href="#font_1_28" transform="matrix(6.973848,0,0,-6.973848,343.2979,145.18543)" fill="#ff0000"/>
<use data-text="n" xlink:href="#font_1_77" transform="matrix(6.973848,0,0,-6.973848,347.26603,145.18543)" fill="#ff0000"/>
<use data-text=")" xlink:href="#font_1_86" transform="matrix(6.973848,0,0,-6.973848,351.6665,145.18543)" fill="#ff0000"/>
<use data-text="|" xlink:href="#font_7_3" transform="matrix(6.973848,0,0,-6.973848,276.51405,158.48685)"/>
<use data-text="D" xlink:href="#font_8_2" transform="matrix(6.973848,0,0,-6.973848,278.8802,158.48685)"/>
<use data-text="3" xlink:href="#font_9_3" transform="matrix(4.98132,0,0,-4.98132,285.39427,159.48311)"/>
<use data-text="|" xlink:href="#font_7_3" transform="matrix(6.973848,0,0,-6.973848,289.2825,158.48685)"/>
<use data-text="=" xlink:href="#font_5_3" transform="matrix(6.973848,0,0,-6.973848,293.91636,158.48685)"/>
<use data-text="6" xlink:href="#font_5_2" transform="matrix(6.973848,0,0,-6.973848,302.29893,158.48685)"/>
<use data-text="," xlink:href="#font_8_1" transform="matrix(6.973848,0,0,-6.973848,306.2713,158.48685)"/>
<use data-text="s" xlink:href="#font_8_5" transform="matrix(6.973848,0,0,-6.973848,312.68028,158.48685)"/>
<use data-text="r" xlink:href="#font_8_4" transform="matrix(6.973848,0,0,-6.973848,316.43919,158.48685)"/>
<use data-text="=" xlink:href="#font_5_3" transform="matrix(6.973848,0,0,-6.973848,322.62458,158.48685)"/>
<use data-text="r" xlink:href="#font_8_4" transform="matrix(6.973848,0,0,-6.973848,331.00828,158.48685)"/>
<use data-text="&#x2212;" xlink:href="#font_10_1" transform="matrix(4.98132,0,0,-4.98132,334.92189,155.48033)"/>
<use data-text="1" xlink:href="#font_9_1" transform="matrix(4.98132,0,0,-4.98132,340.31837,155.48033)"/>
<use data-text="s" xlink:href="#font_8_5" transform="matrix(6.973848,0,0,-6.973848,344.2066,158.48685)"/>
</svg>
