<svg xmlns="http://www.w3.org/2000/svg" xmlns:xlink="http://www.w3.org/1999/xlink" xmlns:inkscape="http://www.inkscape.org/namespaces/inkscape" version="1.1" width="261.51" height="257.92" viewBox="0 0 261.51 257.92">
<defs>
<path id="font_1_3" d="M.644989 .69506838C.644989 .69807437 .6429901 .7050781 .6339874 .7050781 .6289978 .7050781 .6279907 .70407107 .6159973 .6900635L.56799319 .6330414C.5419922 .68006899 .48999024 .7050781 .4249878 .7050781 .2979889 .7050781 .17799378 .58999636 .17799378 .4689026 .17799378 .38783265 .23098755 .34179688 .28199769 .32678224L.3889923 .2987671C.42599488 .2897644 .48098756 .27474977 .48098756 .19267273 .48098756 .1026001 .39898683 .008529663 .30099488 .008529663 .23699951 .008529663 .12599182 .030548096 .12599182 .15464783 .12599182 .17866516 .1309967 .2026825 .13198853 .20869446 .1329956 .21269226 .13398743 .21369934 .13398743 .21569824 .13398743 .22570801 .1269989 .22669983 .12199402 .22669983 .116989139 .22669983 .114990238 .22570801 .11199951 .22270203 .10798645 .21870423 .051986696-.009475708 .051986696-.012466431 .051986696-.018463135 .056991579-.022460938 .06298828-.022460938 .067993167-.022460938 .068984989-.021469117 .08099365-.007461548L.12998963 .049560548C.17298889-.008468628 .24099732-.022460938 .29899598-.022460938 .43499757-.022460938 .5529938 .11061096 .5529938 .2347107 .5529938 .30377198 .5189972 .33779908 .5039978 .35180665 .48098756 .37483216 .46598817 .37882997 .3769989 .40185548 .35499574 .40785218 .31900025 .41786195 .30999757 .41986085 .2829895 .42886354 .24899292 .457901 .24899292 .51094058 .24899292 .59199526 .32899476 .677063 .42399598 .677063 .5069885 .677063 .56799319 .6340332 .56799319 .52194216 .56799319 .48991395 .56399539 .47190858 .56399539 .4658966 .56399539 .4649048 .56399539 .45588685 .57598879 .45588685 .58599856 .45588685 .58699038 .45889283 .59098818 .47590638L.644989 .69506838Z"/>
<path id="font_1_4" d="M.6349945 .5776062C.644989 .61860659 .6629944 .64860537 .7429962 .6516113 .7480011 .6516113 .7599945 .65260317 .7599945 .6716156 .7599945 .6726074 .7599945 .6826172 .746994 .6826172 .71398928 .6826172 .67900088 .6796112 .644989 .6796112 .61099246 .6796112 .57398989 .6826172 .54100039 .6826172 .5349884 .6826172 .522995 .6826172 .522995 .6626129 .522995 .6516113 .5329895 .6516113 .54100039 .6516113 .59799197 .65060427 .60899356 .62960818 .60899356 .607605 .60899356 .604599 .6069946 .5895996 .60598757 .5866089L.5159912 .22955323C.48199464 .09553528 .36698915 .008529663 .2669983 .008529663 .19898987 .008529663 .14498902 .05253601 .14498902 .1385498 .14498902 .1405487 .14498902 .17254639 .1559906 .21655274L.25299073 .6056061C.2619934 .64160159 .2639923 .6516113 .33699037 .6516113 .36299134 .6516113 .37098695 .6516113 .37098695 .6716156 .37098695 .6826172 .3600006 .6826172 .35699464 .6826172 .32899476 .6826172 .25698854 .6796112 .22898865 .6796112 .19999695 .6796112 .1289978 .6826172 .099990848 .6826172 .09199524 .6826172 .08099365 .6826172 .08099365 .6626129 .08099365 .6516113 .08999634 .6516113 .10899353 .6516113 .11099243 .6516113 .12998963 .6516113 .14698792 .6496124 .16499329 .6476135 .17399597 .64660647 .17399597 .63360598 .17399597 .62760928 .16299439 .5856018 .15699768 .56259158L.1349945 .47459413C.12599182 .4355774 .07798767 .24656677 .07398987 .22755432 .066986087 .19955445 .066986087 .18455506 .066986087 .16955567 .066986087 .047531129 .1579895-.022460938 .2630005-.022460938 .3889923-.022460938 .5130005 .090545658 .54599 .2225647L.6349945 .5776062Z"/>
<path id="font_2_1" d="M.33099366-.2400055C.33099366-.23701477 .33099366-.23500061 .31399537-.21800232 .18899536-.0920105 .15699768 .09700012 .15699768 .25 .15699768 .42399598 .19499207 .59799197 .31799317 .72299197 .33099366 .73498538 .33099366 .7369995 .33099366 .73999026 .33099366 .746994 .32699586 .75 .32099916 .75 .31098939 .75 .22099304 .6819916 .1619873 .5549927 .11099243 .44499208 .09899902 .33399964 .09899902 .25 .09899902 .17199707 .10998535 .050994874 .16499329-.06201172 .22499085-.18501282 .31098939-.25 .32099916-.25 .32699586-.25 .33099366-.24700928 .33099366-.2400055Z"/>
<path id="font_2_3" d="M.1269989 .07699585 .23298645 .18003845C.3889923 .31811524 .44898988 .3721466 .44898988 .47216798 .44898988 .5860901 .35899354 .6660156 .23699951 .6660156 .12399292 .6660156 .049987794 .57411196 .049987794 .48516847 .049987794 .4291687 .099990848 .4291687 .102996829 .4291687 .11999512 .4291687 .15499878 .44117738 .15499878 .48217774 .15499878 .5081787 .13699341 .5341797 .101989749 .5341797 .09399414 .5341797 .09199524 .5341797 .08898926 .5331726 .11199951 .59806826 .1659851 .63500979 .22399903 .63500979 .31498719 .63500979 .35798646 .5541382 .35798646 .47216798 .35798646 .39215089 .30799867 .31311036 .25299073 .25108338L.06098938 .036987306C.049987794 .025985718 .049987794 .023986817 .049987794 0H.42099L.44898988 .17404175H.42399598C.4189911 .14402771 .4119873 .1000061 .4019928 .084991458 .394989 .07699585 .32899476 .07699585 .30699159 .07699585H.1269989Z"/>
<path id="font_2_2" d="M.2889862 .25C.2889862 .32798768 .27799989 .44898988 .22299195 .56199648 .16299439 .68499758 .07699585 .75 .066986087 .75 .06098938 .75 .056991579 .74598696 .056991579 .73999026 .056991579 .7369995 .056991579 .73498538 .07598877 .71699526 .17399597 .6179962 .23098755 .45899964 .23098755 .25 .23098755 .07899475 .19400025-.09700012 .069992069-.2230072 .056991579-.23500061 .056991579-.23701477 .056991579-.2400055 .056991579-.2460022 .06098938-.25 .066986087-.25 .07699585-.25 .16699219-.18200684 .22599793-.055007936 .2769928 .054992677 .2889862 .16600037 .2889862 .25Z"/>
<path id="font_3_1" d="M.7220001 .33418275C.7220001 .3561859 .71598818 .36618043 .70799258 .36618043 .7029877 .36618043 .69499209 .35917665 .69400027 .34017945 .6899872 .24397278 .6239929 .18881226 .55400088 .18881226 .4909973 .18881226 .44299317 .2319336 .3939972 .2750702 .34298707 .32118226 .29100038 .3671875 .22299195 .3671875 .11399841 .3671875 .054992677 .25701905 .054992677 .165802 .054992677 .13380432 .067993167 .13380432 .068984989 .13380432 .07998657 .13380432 .08299255 .1538086 .08299255 .15679932 .08699036 .26704408 .1619873 .3111725 .22299195 .3111725 .28599549 .3111725 .33399964 .26805116 .3829956 .22491455 .43399049 .17880249 .48599244 .1328125 .55400088 .1328125 .6629944 .1328125 .7220001 .2429657 .7220001 .33418275Z"/>
<path id="font_2_5" d="M.68699648 .32714845C.70199587 .32714845 .72099307 .32714845 .72099307 .34713746 .72099307 .36714173 .70199587 .36714173 .6879883 .36714173H.08898926C.07499695 .36714173 .055999757 .36714173 .055999757 .34713746 .055999757 .32714845 .07499695 .32714845 .08999634 .32714845H.68699648M.6879883 .13284302C.70199587 .13284302 .72099307 .13284302 .72099307 .15284729 .72099307 .17285156 .70199587 .17285156 .68699648 .17285156H.08999634C.07499695 .17285156 .055999757 .17285156 .055999757 .15284729 .055999757 .13284302 .07499695 .13284302 .08898926 .13284302H.6879883Z"/>
<path id="font_4_3" d="M.272995 .33428956C.35099793 .33428956 .40699769 .2803192 .40699769 .1733551 .40699769 .04940796 .33499146 .012466431 .2769928 .012466431 .23699951 .012466431 .14898682 .0234375 .10699463 .082351688 .1539917 .084350589 .16499329 .11735535 .16499329 .13835144 .16499329 .17034912 .14099121 .19335938 .10998535 .19335938 .08198547 .19335938 .053985597 .17634583 .053985597 .13534546 .053985597 .041412355 .1579895-.01953125 .2789917-.01953125 .41799928-.01953125 .5139923 .07336426 .5139923 .1733551 .5139923 .2513275 .44999696 .32929994 .33999635 .35229493 .44499208 .39024354 .48298646 .4650879 .48298646 .5260773 .48298646 .60505679 .3919983 .6640625 .2809906 .6640625 .16999817 .6640625 .084991458 .61006167 .084991458 .5300751 .084991458 .49606324 .10699463 .47706605 .13699341 .47706605 .16799927 .47706605 .18798828 .5000763 .18798828 .5280762 .18798828 .5570679 .16799927 .57806399 .13699341 .5800781 .17199707 .62405398 .24099732 .63505557 .27799989 .63505557 .32299806 .63505557 .38598634 .6130676 .38598634 .5260773 .38598634 .48406983 .37199403 .43814088 .34599305 .4072113 .31298829 .36927796 .2849884 .3672943 .23498535 .36428834 .20999146 .3623047 .20799256 .3623047 .20298767 .3612976 .20098877 .3612976 .19299317 .3592987 .19299317 .34829713 .19299317 .33428956 .20199585 .33428956 .21899414 .33428956H.272995Z"/>
<path id="font_5_85" d="M.38198854-.23503113C.38198854-.23002625 .3789978-.22503662 .3789978-.22503662 .34999085-.19802857 .2849884-.13702393 .24299622-.009033203 .21699524 .06997681 .20498657 .16197205 .20498657 .24998474 .20498657 .4469757 .2559967 .60398867 .3659973 .7149811 .3809967 .72998049 .38198854 .73098757 .38198854 .73599246 .38198854 .74697878 .37199403 .75 .3639984 .75 .34700013 .75 .30499269 .7129822 .2869873 .6959839 .1309967 .5409851 .10798645 .35697938 .10798645 .25097657 .10798645 .12597656 .14099121 .015975953 .18798828-.06703186 .2539978-.18203736 .34498597-.24902344 .3639984-.24902344 .37199403-.24902344 .38198854-.24603272 .38198854-.23503113Z"/>
<path id="font_5_98" d="M.4149933 .14012146C.4149933 .18312073 .394989 .21812439 .3600006 .24612427 .32099916 .27511598 .2889862 .28112794 .21099854 .29412843 .17399597 .30111695 .10899353 .31211854 .10899353 .3591156 .10899353 .42111207 .20199585 .42111207 .22099304 .42111207 .29599 .42111207 .33399964 .39212037 .33898927 .33711244 .33999635 .32211305 .34098817 .3171234 .3619995 .3171234 .38598634 .3171234 .38598634 .32211305 .38598634 .3451233V.42510987C.38598634 .4441223 .38598634 .453125 .36799623 .453125 .3639984 .453125 .3619995 .453125 .32299806 .43411256 .29699708 .44711305 .2619934 .453125 .22200012 .453125 .19198609 .453125 .037994386 .453125 .037994386 .32211305 .037994386 .28211976 .057998659 .25512696 .07798767 .23812866 .117996219 .203125 .1559906 .1971283 .23298645 .18312073 .2689972 .17712403 .34399415 .16412354 .34399415 .10513306 .34399415 .030136109 .2519989 .030136109 .22999573 .030136109 .12399292 .030136109 .09799194 .103134158 .085998538 .14613343 .08099365 .16012573 .07598877 .16012573 .06199646 .16012573 .037994386 .16012573 .037994386 .15412903 .037994386 .13113404V.022140503C.037994386 .0031280518 .037994386-.005859375 .055999757-.005859375 .06298828-.005859375 .06498718-.005859375 .085998538 .009140015L.11199951 .026138306C.1579895-.005859375 .20999146-.005859375 .22999573-.005859375 .26098634-.005859375 .4149933-.005859375 .4149933 .14013672V.14012146Z"/>
<path id="font_5_66" d="M.28599549 0V.04699707H.22399903V.4501953L.049987794 .4423828V.39537049C.10899353 .39537049 .115997318 .39537049 .115997318 .3563385V.04699707H.04699707V0L.16899109 .0029907227 .28599549 0M.23799134 .60728457C.23799134 .6502838 .20298767 .6852875 .1599884 .6852875 .116989139 .6852875 .08198547 .6502838 .08198547 .60728457 .08198547 .5642853 .116989139 .5292969 .1599884 .5292969 .20298767 .5292969 .23799134 .5642853 .23799134 .60728457Z"/>
<path id="font_5_75" d="M.93499758 0V.04699707H.8659973V.30613709C.8659973 .40919496 .8149872 .4501953 .71199038 .4501953 .62098696 .4501953 .56900027 .40019227 .54299929 .3541565 .522995 .44718934 .43099977 .4501953 .3929901 .4501953 .30599977 .4501953 .24899292 .40518189 .21699524 .3421631V.4501953L.04499817 .4423828V.39537049C.10699463 .39537049 .11399841 .39537049 .11399841 .3563385V.04699707H.04499817V0L.17098999 .0029907227 .29699708 0V.04699707H.22799683V.2562256C.22799683 .3653412 .31498719 .41436769 .3769989 .41436769 .41099549 .41436769 .43299867 .39437867 .43299867 .31729127V.04699707H.3639984V0L.48999024 .0029907227 .6159973 0V.04699707H.5469971V.2562256C.5469971 .3653412 .6339874 .41436769 .69599917 .41436769 .7299957 .41436769 .7519989 .39437867 .7519989 .31729127V.04699707H.68299868V0L.8089905 .0029907227 .93499758 0Z"/>
<path id="font_5_84" d="M.59999087 .22319031C.59999087 .3561859 .5089874 .4501953 .36499024 .4501953 .2899933 .4501953 .23699951 .41918946 .21398926 .40118409V.4501953L.036987306 .4423828V.39537049C.09899902 .39537049 .10598755 .39537049 .10598755 .3573761V-.14648438H.036987306V-.1934967L.16299439-.19049073 .2889862-.1934967V-.14648438H.21998596V.03945923C.2630005 .004135132 .30699159-.005859375 .34799195-.005859375 .49798585-.005859375 .59999087 .08413696 .59999087 .22312927V.22319031M.47200013 .22312927C.47200013 .08213806 .4019928 .030136109 .33699037 .030136109 .32299806 .030136109 .27598573 .030136109 .23098755 .08413696 .21998596 .09713745 .21998596 .09812927 .21998596 .117126468V.32913209C.21998596 .34814454 .22099304 .3491516 .23498535 .36314393 .2749939 .4041443 .32699586 .41015626 .34899903 .41015626 .41600038 .41015626 .47200013 .3491516 .47200013 .22314453V.22312927Z"/>
<path id="font_5_72" d="M.29299928 0V.04699707H.22399903V.69433596L.04699707 .6855469V.63853457C.10899353 .63853457 .115997318 .63853457 .115997318 .5995636V.04699707H.04699707V0L.16999817 .0029907227 .29299928 0Z"/>
<path id="font_5_118" d="M.5799866 .3973236V.44433595C.55599978 .44232179 .526001 .44132997 .5009918 .44132997L.4099884 .44433595V.3973236C.4099884 .3973236 .45700074 .3973236 .45700074 .3853302L.45199586 .37332154 .33699037 .12713623 .20999146 .3973236H.2639923V.44433595L.13999939 .44132997 .025985718 .44433595V.3973236H.08999634L.2769928 .000045776369 .2539978-.04798889C.23199463-.09602356 .19999695-.1640625 .1289978-.1640625 .114990238-.1640625 .11299133-.16307068 .10499573-.1600647 .11399841-.1560669 .13699341-.14205933 .13699341-.10702515 .13699341-.07400513 .11299133-.049987794 .07899475-.049987794 .050994874-.049987794 .021987915-.069000247 .021987915-.10803223 .021987915-.15907288 .068984989-.20007324 .1289978-.20007324 .20599365-.20007324 .2639923-.13804627 .29100038-.08100891L.5059967 .37631227C.5130005 .39031983 .5159912 .3973236 .5799866 .3973236Z"/>
<path id="font_5_43" d="M.47799684 .117126468C.47799684 .13113404 .46398927 .13113404 .45399476 .13113404 .43598939 .13113404 .43499757 .12913513 .42999269 .11613464 .4039917 .053131105 .35598756 .03413391 .30499269 .03413391 .1659851 .03413391 .1659851 .18112183 .1659851 .22712708 .1659851 .28312684 .1659851 .41311646 .29499818 .41311646 .32998658 .41311646 .34700013 .41011048 .3600006 .40711976 .34199525 .39111329 .33999635 .3701172 .33999635 .3611145 .33999635 .3171234 .375 .29811097 .4019928 .29811097 .43299867 .29811097 .46499635 .3191223 .46499635 .3611145 .46499635 .44711305 .34899903 .453125 .29100038 .453125 .11199951 .45314027 .037994386 .33813478 .037994386 .22213745 .037994386 .08912659 .13198853-.005859375 .28599549-.005859375 .44799806-.005859375 .47799684 .11013794 .47799684 .117126468Z"/>
<path id="font_5_81" d="M.5419922 .21812439C.5419922 .35212709 .44999696 .453125 .2869873 .453125 .12298584 .453125 .03199768 .35112 .03199768 .21812439 .03199768 .09413147 .11999512-.005859375 .2869873-.005859375 .45498658-.005859375 .5419922 .09512329 .5419922 .21812439M.4139862 .22912598C.4139862 .14213562 .4139862 .03413391 .2869873 .03413391 .1599884 .03413391 .1599884 .14213562 .1599884 .22912598 .1599884 .27412416 .1599884 .32511903 .1769867 .3591156 .19599915 .39611817 .23799134 .41711427 .2869873 .41711427 .32899476 .41711427 .37098695 .40112306 .3929901 .36611939 .4139862 .3321228 .4139862 .27713014 .4139862 .22912598Z"/>
<path id="font_5_77" d="M.61499026 0V.04699707H.54599V.30613709C.54599 .41119386 .49198915 .4501953 .3919983 .4501953 .29599 .4501953 .24299622 .39318849 .21699524 .3421631V.4501953L.04499817 .4423828V.39537049C.10699463 .39537049 .11399841 .39537049 .11399841 .3563385V.04699707H.04499817V0L.17098999 .0029907227 .29699708 0V.04699707H.22799683V.2562256C.22799683 .3653412 .31399537 .41436769 .3769989 .41436769 .41099549 .41436769 .43199159 .39337159 .43199159 .31729127V.04699707H.36299134V0L.4889984 .0029907227 .61499026 0Z"/>
<path id="font_5_50" d="M.49398805 .11706543C.49398805 .13504029 .47499085 .13504029 .46998597 .13504029 .45298768 .13504029 .45098878 .13005066 .44499208 .11405945 .42399598 .066101077 .36698915 .03413391 .3019867 .03413391 .16099549 .03413391 .1599884 .16700745 .1599884 .2179718H.46199037C.48399354 .2179718 .49398805 .2179718 .49398805 .2449646 .49398805 .27598573 .48799134 .34906007 .43798829 .3991089 .40098573 .43511964 .34799195 .453125 .2789917 .453125 .11898804 .453125 .03199768 .35005189 .03199768 .22497559 .03199768 .09107971 .13198853-.005859375 .29299928-.005859375 .45098878-.005859375 .49398805 .10006714 .49398805 .11706543M.39898683 .25097657H.1599884C.1619873 .29000855 .16299439 .3320465 .18399048 .36506654 .20999146 .4051056 .25 .41711427 .2789917 .41711427 .3959961 .41711427 .397995 .28599549 .39898683 .25097657Z"/>
<path id="font_5_105" d="M.38198854 .124176029V.17721558H.33499146V.12619019C.33499146 .058151246 .30299378 .03413391 .2749939 .03413391 .21699524 .03413391 .21699524 .09817505 .21699524 .1211853V.3973236H.36299134V.44433595H.21699524V.6357422H.16999817C.16899109 .53552249 .11999512 .43632508 .020996094 .43333436V.3973236H.102996829V.123184207C.102996829 .01612854 .18998719-.005859375 .26098634-.005859375 .33699037-.005859375 .38198854 .05114746 .38198854 .124176029Z"/>
<path id="font_5_47" d="M.6009979 0V.04699707C.5389862 .04699707 .5319977 .04699707 .5319977 .086013797V.69433596L.35499574 .6855469V.63853457C.4169922 .63853457 .42399598 .63853457 .42399598 .5996704V.40518189C.37399293 .44418336 .32199098 .4501953 .2889862 .4501953 .14299011 .4501953 .037994386 .36218263 .037994386 .22116089 .037994386 .089141849 .12998963-.005859375 .27799989-.005859375 .33898927-.005859375 .3869934 .018127442 .41799928 .043136598V-.005859375L.6009979 0M.41799928 .102996829C.40499879 .08514404 .3639984 .030136109 .28799439 .030136109 .1659851 .030136109 .1659851 .15115357 .1659851 .22116089 .1659851 .26916505 .1659851 .3231659 .19198609 .36218263 .22099304 .40419007 .2679901 .41418458 .29899598 .41418458 .35598756 .41418458 .3959961 .3821869 .41799928 .35317994V.102996829Z"/>
<path id="font_5_86" d="M.33799745 .24998474C.33799745 .37498475 .30499269 .48498536 .2579956 .5679779 .19198609 .6829834 .100997928 .75 .08198547 .75 .07398987 .75 .06399536 .74697878 .06399536 .73599246 .06399536 .73098757 .06399536 .72898867 .08099365 .7129822 .20698548 .5849762 .24099732 .40797425 .24099732 .25097657 .24099732 .053970338 .18998719-.103027347 .07998657-.21403504 .06498718-.22903443 .06399536-.23002625 .06399536-.23503113 .06399536-.24603272 .07398987-.24902344 .08198547-.24902344 .09899902-.24902344 .14099121-.21203614 .15899658-.19502259 .31498719-.040023805 .33799745 .14398194 .33799745 .24998474Z"/>
<path id="font_6_3" d="M.70599368 .22944641C.7200012 .22944641 .7409973 .22944641 .7409973 .25045777 .7409973 .27246095 .7220001 .27246095 .70599368 .27246095H.42099V.5578003C.42099 .573761 .42099 .59277346 .39898683 .59277346 .37799073 .59277346 .37799073 .57177737 .37799073 .5578003V.27246095H.09199524C.07798767 .27246095 .056991579 .27246095 .056991579 .25144959 .056991579 .22944641 .07598877 .22944641 .09199524 .22944641H.37799073V-.056793214C.37799073-.07279968 .37799073-.091796878 .3999939-.091796878 .42099-.091796878 .42099-.07080078 .42099-.056793214V.22944641H.70599368Z"/>
<path id="font_7_4" d="M.3809967 .6046295C.3909912 .64260867 .3929901 .6516113 .47399903 .6516113 .49299623 .6516113 .5029907 .6516113 .5029907 .6696167 .5029907 .680603 .49299623 .6826172 .4869995 .6826172 .46699525 .6826172 .44400025 .680603 .42399598 .680603 .40098573 .680603 .36299134 .6796112 .35598756 .6796112 .33299256 .6796112 .30999757 .680603 .2869873 .680603 .2659912 .680603 .24198914 .6826172 .22200012 .6826172 .21598816 .6826172 .20199585 .6826172 .20199585 .6646118 .20199585 .6516113 .21199036 .6516113 .23199463 .6516113 .2539978 .6516113 .2769928 .6516113 .29699708 .6436157 .2979889 .6396179 .2979889 .6356201 .2979889 .63461306 .2979889 .63061526 .29699708 .6196289 .29599 .6156311L.1599884 .07595825C.15098572 .040985109 .14898682 .0309906 .07199097 .0309906 .049987794 .0309906 .038986207 .0309906 .038986207 .0129852299 .038986207 .0079956059 .040985109 0 .053985597 0 .07398987 0 .09599304 .0019989014 .116989139 .0019989014 .13999939 .0019989014 .16299439 .0029907227 .18598938 .0029907227 .20899964 .0029907227 .23199463 .0019989014 .25498963 .0019989014 .27598573 .0019989014 .2999878 0 .31999208 0 .32699586 0 .33999635 0 .33999635 .017990113 .33999635 .0309906 .32998658 .0309906 .30999757 .0309906 .27198792 .0309906 .24299622 .0309906 .24299622 .048980714 .24299622 .05596924 .24299622 .05796814 .24699402 .07196045L.3809967 .6046295Z"/>
<path id="font_8_1" d="M.6749878 .22944641C.69299319 .22944641 .71199038 .22944641 .71199038 .25144959 .71199038 .27246095 .69200137 .27246095 .6749878 .27246095H.12298584C.10598755 .27246095 .085998538 .27246095 .085998538 .25144959 .085998538 .22944641 .10499573 .22944641 .12298584 .22944641H.6749878Z"/>
<path id="font_7_1" d="M.46598817 .49519349C.46598817 .5981293 .43199159 .7050781 .33999635 .7050781 .19400025 .7050781 .040985109 .4202423 .040985109 .19825745 .040985109 .12625122 .06298828-.0107421879 .16699219-.0107421879 .31298829-.0107421879 .46598817 .27127076 .46598817 .49519349M.1499939 .36328126C.16999817 .44223023 .19099427 .5151825 .23199463 .58413699 .2559967 .62409976 .29299928 .68006899 .33898927 .68006899 .3929901 .68006899 .39698792 .59413149 .39698792 .55615237 .39698792 .4961853 .3809967 .426239 .3659973 .36328126H.1499939M.35699464 .3312683C.34098817 .26826478 .32199098 .19326782 .28199769 .12225342 .2559967 .07525635 .21598816 .014251709 .16799927 .014251709 .125 .014251709 .11099243 .06625366 .11099243 .13926697 .11099243 .20326233 .1269989 .26826478 .14199829 .3312683H.35699464Z"/>
<path id="font_6_8" d="M.70799258 .3310089C.7220001 .3310089 .7409973 .3310089 .7409973 .35202027 .7409973 .37402345 .71899417 .37402345 .70399478 .37402345H.09399414C.07899475 .37402345 .056991579 .37402345 .056991579 .35202027 .056991579 .3310089 .07699585 .3310089 .08999634 .3310089H.70799258M.70399478 .12695313C.71899417 .12695313 .7409973 .12695313 .7409973 .14894104 .7409973 .1699524 .7220001 .1699524 .70799258 .1699524H.08999634C.07699585 .1699524 .056991579 .1699524 .056991579 .14894104 .056991579 .12695313 .07899475 .12695313 .09399414 .12695313H.70399478Z"/>
<path id="font_6_5" d="M.46199037 .17704773H.43399049C.43199159 .16404724 .42399598 .10501099 .41099549 .08900452 .40499879 .07998657 .33599855 .07998657 .31599427 .07998657H.13798523L.23699951 .17404175C.40098573 .3161316 .46199037 .36915589 .46199037 .4711914 .46199037 .5860901 .36698915 .6660156 .24398804 .6660156 .1289978 .6660156 .050994874 .575119 .050994874 .4841919 .050994874 .43418885 .09399414 .42919923 .102996829 .42919923 .125 .42919923 .15499878 .44519044 .15499878 .48120118 .15499878 .51119998 .13398743 .5332031 .102996829 .5332031 .09799194 .5332031 .09498596 .5332031 .09098816 .53219607 .114990238 .6030731 .1789856 .63500979 .23298645 .63500979 .33499146 .63500979 .36999513 .5401764 .36999513 .4711914 .36999513 .36915589 .29299928 .28611756 .24499512 .23408509L.06199646 .035995485C.050994874 .024993897 .050994874 .022994996 .050994874 0H.43399049L.46199037 .17704773Z"/>
<path id="font_7_2" d="M.272995 .36865235H.3869934C.37199403 .30575563 .34599305 .20193482 .34599305 .11906433 .34599305 .112075809 .34599305 .075149539 .35499574 .03919983 .36499024 .0012512207 .37399293-.0107421879 .3939972-.0107421879 .4149933-.0107421879 .43699647 .007247925 .43699647 .030212403 .43699647 .037200929 .43598939 .04020691 .42999269 .05317688 .39898683 .123062137 .39898683 .19694519 .39898683 .21990967 .39898683 .24485779 .39898683 .28878785 .41600038 .36865235H.5329895C.54599 .36865235 .58299258 .36865235 .58299258 .4046631 .58299258 .43066407 .5609894 .43066407 .5419922 .43066407H.19599915C.17199707 .43066407 .13699341 .43066407 .08999634 .38365174 .06298828 .3566742 .026992798 .30177308 .026992798 .29377748 .026992798 .2828064 .037994386 .2828064 .040985109 .2828064 .04899597 .2828064 .050994874 .28479005 .056991579 .29478456 .10598755 .36865235 .16699219 .36865235 .18699646 .36865235H.24398804C.20098877 .21791077 .13198853 .07614136 .125 .061172487 .117996219 .047195436 .10798645 .026229859 .10798645 .018234253 .10798645 .0052490236 .116989139-.0107421879 .13899231-.0107421879 .1749878-.0107421879 .18399048 .025222779 .20498657 .10609436L.272995 .36865235Z"/>
<path id="font_6_7" d="M.0289917 .19602967V.16503906H.3019867V.07901001C.3019867 .041992189 .29899598 .0309906 .22399903 .0309906H.20199585V0C.2649994 .0029907227 .33499146 .0029907227 .34199525 .0029907227 .34700013 .0029907227 .4189911 .0029907227 .48199464 0V.0309906H.45999146C.3849945 .0309906 .38198854 .041992189 .38198854 .07901001V.16503906H.48399354V.19602967H.38198854V.64974978C.38198854 .669754 .38198854 .6767578 .36299134 .6767578 .35099793 .6767578 .34999085 .67575076 .34098817 .66174319L.0289917 .19602967M.06098938 .19602967 .30799867 .56581118V.19602967H.06098938Z"/>
<path id="font_7_8" d="M.6489868 .5746002C.6589966 .61660769 .6779938 .64860537 .7559967 .6516113 .7619934 .6516113 .7739868 .65260317 .7739868 .6696167 .7739868 .6776123 .7679901 .6826172 .7599945 .6826172 .73799136 .6826172 .6819916 .6796112 .6599884 .6796112 .6349945 .6796112 .6329956 .6796112 .60899356 .680603 .59298709 .680603 .57199099 .6826172 .5569916 .6826172 .5529938 .6826172 .5389862 .6826172 .5389862 .6646118 .5389862 .6516113 .5509949 .6516113 .5569916 .6516113 .59498599 .65060427 .6239929 .64160159 .6239929 .6085968 .6239929 .6036072 .62098696 .5895996 .62098696 .5886078L.5309906 .2305603C.49598695 .092544559 .375 .008529663 .27598573 .008529663 .22499085 .008529663 .15098572 .03553772 .15098572 .14154053 .15098572 .16755677 .15499878 .19355774 .16099549 .21955872L.2579956 .6056061C.2669983 .6436157 .269989 .6516113 .34799195 .6516113 .3639984 .6516113 .375 .6516113 .375 .6696167 .375 .6786041 .36799623 .6826172 .3600006 .6826172L.29699708 .680603C.2669983 .6796112 .2649994 .6796112 .23298645 .6796112 .20098877 .6796112 .19898987 .6796112 .16899109 .680603 .14898682 .6816101 .12298584 .6826172 .10398865 .6826172 .09799194 .6826172 .083999637 .6826172 .083999637 .6646118 .083999637 .6516113 .09399414 .6516113 .11399841 .6516113 .117996219 .6516113 .13598633 .6516113 .1519928 .6496124 .17098999 .6476135 .17599488 .64460757 .17599488 .63461306 .17599488 .6286011 .16699219 .5926056 .16099549 .57159426L.13899231 .48358155C.12998963 .44458009 .08198547 .25656129 .07798767 .236557 .069992069 .20455933 .068984989 .19355774 .068984989 .17155457 .068984989 .055541994 .1559906-.022460938 .272995-.022460938 .40299989-.022460938 .5289917 .092544559 .5609894 .2225647L.6489868 .5746002Z"/>
<path id="font_6_1" d="M.34098817-.23803711C.34098817-.23303223 .33799745-.23002625 .33198548-.22303772 .20298767-.105026248 .1639862 .07498169 .1639862 .24996948 .1639862 .40498353 .19400025 .59298709 .33499146 .72698977 .33898927 .73098757 .34098817 .73399356 .34098817 .7389984 .34098817 .74598696 .33599855 .75 .32899476 .75 .31698609 .75 .22698975 .6779785 .17298889 .568985 .125 .47297669 .100997928 .36997987 .100997928 .25097657 .100997928 .17897034 .10998535 .064971927 .16499329-.053024293 .22399903-.17602539 .31698609-.24902344 .32899476-.24902344 .33599855-.24902344 .34098817-.24502564 .34098817-.23803711Z"/>
<path id="font_6_2" d="M.2979889 .25097657C.2979889 .3329773 .28599549 .4429779 .23399353 .5539856 .1749878 .6769867 .08198547 .75 .069992069 .75 .05999756 .75 .057998659 .74198916 .057998659 .7389984 .057998659 .73399356 .05999756 .73098757 .066986087 .72398379 .125 .6719818 .23498535 .5359802 .23498535 .25097657 .23498535 .10797119 .20899964-.091033939 .06399536-.22602844 .06199646-.22903443 .057998659-.23303223 .057998659-.23803711 .057998659-.24102783 .05999756-.24902344 .069992069-.24902344 .08198547-.24902344 .17199707-.17703247 .22599793-.06802368 .27398683 .02796936 .2979889 .13098145 .2979889 .25097657Z"/>
<path id="font_7_9" d="M.13699341 .22949219C.19799805 .22949219 .2630005 .22949219 .31599427 .24247742 .4099884 .2654724 .4269867 .32144166 .4269867 .35542298 .4269867 .41238404 .37399293 .4423828 .31498719 .4423828 .19898987 .4423828 .04699707 .3444214 .04699707 .17242432 .04699707 .077316287 .102996829-.0107421879 .21099854-.0107421879 .36099244-.0107421879 .44499208 .09333801 .44499208 .10635376 .44499208 .112350467 .43798829 .12036133 .43099977 .12036133 .42599488 .12036133 .4249878 .11936951 .41600038 .10835266 .35598756 .03427124 .2649994 .014251709 .21299744 .014251709 .14199829 .014251709 .12298584 .081329349 .12298584 .13137818 .12298584 .13337708 .12298584 .16841126 .13699341 .22949219M.14399719 .25448609C.18798828 .41238404 .29899598 .41737367 .31498719 .41737367 .34899903 .41737367 .3899994 .40138246 .3899994 .35542298 .3899994 .25448609 .23899842 .25448609 .14399719 .25448609Z"/>
<path id="font_9_1" d="M.79599 .22436524C.81199648 .22436524 .83699038 .22436524 .83699038 .2503662 .83699038 .2763672 .81199648 .2763672 .79599 .2763672H.1659851C.1499939 .2763672 .125 .2763672 .125 .2503662 .125 .22436524 .1499939 .22436524 .1659851 .22436524H.79599Z"/>
<path id="font_10_3" d="M.34799195 .6244507C.34799195 .64852908 .32998658 .66452029 .30699159 .66452029 .27999879 .66452029 .25099183 .638504 .25099183 .60939028 .25099183 .5843353 .2689972 .56933596 .29100038 .56933596 .32299806 .56933596 .34799195 .59936526 .34799195 .6244507M.28799439 .27534486C.2919922 .28533937 .30099488 .3093567 .30499269 .31835938 .30799867 .32736207 .31199647 .33737184 .31199647 .35437013 .31199647 .4104004 .2619934 .44140626 .21199036 .44140626 .10998535 .44140626 .06098938 .3093567 .06098938 .28733827 .06098938 .28234864 .06498718 .27334596 .07899475 .27334596 .09298706 .27334596 .09599304 .27934266 .09899902 .28834535 .1269989 .38539125 .17999268 .4084015 .20799256 .4084015 .22799683 .4084015 .23498535 .395401 .23498535 .37239076 .23498535 .35237123 .22898865 .33737184 .22698975 .33036805L.1749878 .20230103C.16299439 .17329407 .16299439 .17129517 .1499939 .13728333 .13699341 .10726929 .13198853 .09425354 .13198853 .07725525 .13198853 .026229859 .17799378-.009765625 .23298645-.009765625 .33399964-.009765625 .38398744 .12226868 .38398744 .14428711 .38398744 .14628601 .3829956 .15829468 .36499024 .15829468 .35099793 .15829468 .34999085 .1532898 .34399415 .13427735 .32798768 .08325195 .2869873 .023223877 .23599243 .023223877 .21798706 .023223877 .20899964 .035232545 .20899964 .059249879 .20899964 .07925415 .21499634 .09425354 .22799683 .12527466L.28799439 .27534486Z"/>
<path id="font_10_1" d="M.54499819 .4801178C.54499819 .59609988 .49598695 .70410159 .3959961 .70410159 .23999024 .70410159 .07598877 .4431305 .07598877 .21417237 .07598877 .08421326 .13198853-.009765625 .22499085-.009765625 .38198854-.009765625 .54499819 .25515748 .54499819 .4801178M.19198609 .36714173C.25698854 .61509707 .34799195 .6710968 .394989 .6710968 .46499635 .6710968 .46499635 .55111697 .46499635 .53611758 .46499635 .52711489 .46499635 .46913148 .43798829 .36714173H.19198609M.42799378 .32714845C.37199403 .10121155 .2809906 .023223877 .22599793 .023223877 .1599884 .023223877 .1559906 .124191287 .1559906 .15818787 .1559906 .19218445 .1599884 .23616028 .18199158 .32714845H.42799378Z"/>
<path id="font_11_2" d="M.30499269 .69433596 .14898682 .5612335 .17098999 .53222659 .30499269 .6313324 .43899537 .53222659 .46099855 .5612335 .30499269 .69433596Z"/>
<path id="font_12_1" d="M.651001 .29811097C.651001 .43016053 .55799868 .45117188 .46998597 .45117188 .34199525 .45117188 .28199769 .3811493 .26098634 .34913636V.45117188L.07699585 .443161V.38316346C.13899231 .38316346 .1459961 .38316346 .1459961 .34413148V.05999756H.07699585V0C.099990848 .0009918213 .1659851 .0039978029 .21099854 .0039978029 .2619934 .0039978029 .32899476 .0009918213 .34498597 0V.05999756H.27598573V.24708557C.27598573 .36314393 .3889923 .40016175 .45098878 .40016175 .49899293 .40016175 .5209961 .38015748 .5209961 .30511476V.05999756H.45199586V0C.47499085 .0009918213 .54100039 .0039978029 .58599856 .0039978029 .6369934 .0039978029 .70399478 .0009918213 .7200012 0V.05999756H.651001V.29811097Z"/>
<path id="font_9_2" d="M.25 .25042726C.25 .28642274 .22099304 .31141664 .18998719 .31141664 .1539917 .31141664 .1289978 .28141786 .1289978 .25141908 .1289978 .21842957 .15499878 .19042969 .18998719 .19042969 .22200012 .19042969 .25 .21842957 .25 .25042726Z"/>
<path id="font_13_1" d="M.39698792 .44396974C.17098999 .44396974 .067993167 .26698304 .067993167 .1599884 .067993167 .066986087 .13798523-.009017944 .29499818-.009017944 .49798585-.009017944 .61898806 .11798096 .61898806 .25997926 .61898806 .292984 .6119995 .31896974 .60598757 .33398438H.71199038C.73098757 .33398438 .7480011 .33398438 .7659912 .3499756 .7719879 .35498048 .78900149 .37197877 .78900149 .39797975 .78900149 .44396974 .7449951 .44396974 .72898867 .44396974H.39698792M.2979889 .041992189C.21299744 .041992189 .18798828 .08097839 .18798828 .12998963 .18798828 .15197754 .19799805 .24597168 .24699402 .29397584 .2869873 .33398438 .35398866 .33398438 .37998963 .33398438 .45498658 .33398438 .49598695 .3209839 .49598695 .26298524 .49598695 .24298096 .48199464 .15197754 .43899537 .100982669 .4039917 .06098938 .34999085 .041992189 .2979889 .041992189Z"/>
<path id="font_10_2" d="M.5379944 .70199587C.54499819 .71798709 .54499819 .7200012 .54499819 .723999 .54499819 .73799136 .5329895 .75 .5189972 .75 .5019989 .75 .49699403 .73799136 .4909973 .723999L.099990848-.20201111C.09298706-.21800232 .09298706-.22000122 .09298706-.22401428 .09298706-.23800659 .10499573-.25 .11898804-.25 .13598633-.25 .14099121-.23800659 .14698792-.22401428L.5379944 .70199587Z"/>
<path id="font_11_1" d="M.5379944 .18702698H.5009918C.49899293 .17301941 .4889984 .10699463 .47399903 .09599304 .46699525 .08999634 .38598634 .08999634 .37199403 .08999634H.18499756L.31298829 .19403076C.34700013 .22103882 .43598939 .28504945 .46699525 .31506349 .49699403 .3450775 .5379944 .39608766 .5379944 .46710206 .5379944 .5920563 .4249878 .66503909 .29100038 .66503909 .1619873 .66503909 .07199097 .58006289 .07199097 .48609925 .07199097 .43510438 .114990238 .42910768 .12599182 .42910768 .15098572 .42910768 .17999268 .44709779 .17999268 .48310853 .17999268 .50509646 .16699219 .5371094 .12298584 .5371094 .1459961 .5880585 .20698548 .6260376 .27598573 .6260376 .3809967 .6260376 .43699647 .5480957 .43699647 .46710206 .43699647 .39608766 .3899994 .32305909 .31999208 .25904847L.08299255 .041992189C.07299805 .03199768 .07199097 .0309906 .07199097 0H.5069885L.5379944 .18702698Z"/>
<path id="font_14_107" d="M.46199037 .17704773H.43399049C.43199159 .16404724 .42399598 .10501099 .41099549 .08900452 .40499879 .07998657 .33599855 .07998657 .31599427 .07998657H.13798523L.23699951 .17404175C.40098573 .3161316 .46199037 .36915589 .46199037 .4711914 .46199037 .5860901 .36698915 .6660156 .24398804 .6660156 .1289978 .6660156 .050994874 .575119 .050994874 .4841919 .050994874 .43418885 .09399414 .42919923 .102996829 .42919923 .125 .42919923 .15499878 .44519044 .15499878 .48120118 .15499878 .51119998 .13398743 .5332031 .102996829 .5332031 .09799194 .5332031 .09498596 .5332031 .09098816 .53219607 .114990238 .6030731 .1789856 .63500979 .23298645 .63500979 .33499146 .63500979 .36999513 .5401764 .36999513 .4711914 .36999513 .36915589 .29299928 .28611756 .24499512 .23408509L.06199646 .035995485C.050994874 .024993897 .050994874 .022994996 .050994874 0H.43399049L.46199037 .17704773Z"/>
<path id="font_14_64" d="M.2849884 .1850586V.24707031H.010986328V.1850586H.2849884Z"/>
<path id="font_14_105" d="M.34199525 .12408447V.18099976H.31399537V.1270752C.31399537 .05319214 .2829895 .01725769 .24699402 .01725769 .17999268 .01725769 .17999268 .1051178 .17999268 .12309265V.3996582H.32499696V.43066407H.17999268V.6142578H.1519928C.15098572 .5304413 .115997318 .42765809 .018997193 .4246521V.3996582H.10598755V.12408447C.10598755 .012252808 .18699646-.0107421879 .23999024-.0107421879 .30699159-.011001587 .34199525 .052993776 .34199525 .12399292V.12408447Z"/>
<path id="font_14_81" d="M.48399354 .21324158C.48399354 .34423829 .37998963 .4482422 .25698854 .4482422 .12998963 .4482422 .0289917 .3412323 .0289917 .21324158 .0289917 .08824158 .1329956-.0107421879 .2559967-.0107421879 .3829956-.0107421879 .48399354 .09024048 .48399354 .21324158M.397995 .22224427C.397995 .1852417 .397995 .12724304 .37298585 .08325195 .34498597 .037246705 .29899598 .01725769 .25698854 .01725769 .20698548 .01725769 .16499329 .042251588 .14199829 .08125305 .115997318 .12324524 .114990238 .17623902 .114990238 .22224427 .114990238 .25924684 .114990238 .3162384 .13999939 .35723878 .16999817 .40823365 .21998596 .42323304 .2559967 .42323304 .31298829 .42323304 .35398866 .39123536 .37399293 .35723878 .39698792 .31523133 .397995 .26423646 .397995 .22224427Z"/>
<path id="font_14_82" d="M.43199159 0V.0309906H.3999939C.30699159 .0309906 .3039856 .042999269 .3039856 .08001709V.63912966C.3039856 .6640167 .30299378 .6660156 .27799989 .6660156 .21598816 .60227969 .12399292 .60227969 .09298706 .60227969V.57128909C.11199951 .57128909 .17298889 .57128909 .22698975 .5972748V.08001709C.22698975 .042999269 .22399903 .0309906 .1309967 .0309906H.09899902V0C.1349945 .0029907227 .22399903 .0029907227 .2649994 .0029907227 .30599977 .0029907227 .3959961 .0029907227 .43199159 0Z"/>
<path id="font_15_1" d="M.47099305 .31817628H.7749939C.79100039 .31817628 .8149872 .31817628 .8149872 .34217835 .8149872 .3671875 .7919922 .3671875 .7749939 .3671875H.47099305V.6679535C.47099305 .68592837 .47099305 .7109375 .44599916 .7109375 .42199708 .7109375 .42199708 .68792727 .42199708 .6729431V.3671875H.116989139C.099990848 .3671875 .07699585 .3671875 .07699585 .34217835 .07699585 .31817628 .100997928 .31817628 .116989139 .31817628H.42199708V.022628785H.116989139C.099990848 .022628785 .07699585 .022628785 .07699585-.002380371 .07699585-.026367188 .100997928-.026367188 .116989139-.026367188H.7749939C.79100039-.026367188 .8149872-.026367188 .8149872-.002380371 .8149872 .022628785 .7919922 .022628785 .7749939 .022628785H.47099305V.31817628Z"/>
<path id="font_16_2" d="M.70700076 .57369998C.71699526 .61265566 .73298647 .64460757 .8129883 .64660647 .81799319 .64660647 .83299258 .6476135 .83299258 .6686096 .83299258 .6746063 .8279877 .6826172 .81799319 .6826172 .7859955 .6826172 .7480011 .6786041 .71499636 .6786041 .6819916 .6786041 .6399994 .6826172 .6100006 .6826172 .6049957 .6826172 .58999636 .6826172 .58999636 .660614 .58999636 .6476135 .6029968 .64660647 .6119995 .64660647 .6589966 .6456146 .6759949 .6306305 .6759949 .6056671 .6759949 .60066226 .6749878 .5956726 .673996 .5916748 .6589966 .5267639 .58599856 .22618103 .57299807 .19522095 .5169983 .06739807 .3999939 .016464234 .31799317 .016464234 .25099183 .016464234 .17999268 .05041504 .17999268 .14927674 .17999268 .17324829 .18299866 .19721985 .18899536 .22018433L.28599549 .60466006C.29499818 .63861086 .29699708 .64660647 .37399293 .64660647 .3909912 .64660647 .4039917 .64660647 .4039917 .6686096 .4039917 .6726074 .40098573 .6826172 .3880005 .6826172 .35899354 .6826172 .28599549 .6786041 .25698854 .6786041 .23999024 .6786041 .20498657 .6786041 .18798828 .6796112 .16799927 .680603 .14399719 .6826172 .125 .6826172 .11898804 .6826172 .10398865 .6826172 .10398865 .660614 .10398865 .64660647 .115997318 .64660647 .13598633 .64660647 .13699341 .64660647 .1559906 .64660647 .17399597 .64460757 .19499207 .64260867 .19699097 .64060977 .19699097 .6306305 .19699097 .6246338 .18699646 .58569338 .18099976 .5637207L.15899658 .47584535 .101989749 .2471466C.09199524 .20620728 .09199524 .19821167 .09199524 .17823792 .09199524 .05441284 .19400025-.01953125 .31399537-.01953125 .45199586-.01953125 .58599856 .09236145 .61898806 .22317505L.70700076 .57369998Z"/>
<path id="font_15_3" d="M.12599182 .2263794C.15699768 .2263794 .15699768 .24838257 .15699768 .25038148 .15699768 .26138307 .15098572 .27539063 .12599182 .27539063V.4029541C.12599182 .41690064 .12599182 .44189454 .101989749 .44189454 .07699585 .44189454 .07699585 .4179077 .07699585 .4029541V.098083499C.07699585 .08305359 .07699585 .059051515 .101989749 .059051515 .12599182 .059051515 .12599182 .08406067 .12599182 .098083499V.2263794Z"/>
<path id="font_15_2" d="M.91999819 .2263794C.7939911 .13398743 .7769928 .0028076173 .7769928 .0018157959 .7769928-.013183594 .7869873-.013183594 .8009949-.013183594 .81900027-.013183594 .82199099-.013183594 .82699587 .0038146973 .83299258 .028808594 .848999 .092819217 .901001 .14805603 .95899966 .20930481 1.0089874 .2243805 1.0509949 .23738098 1.0569916 .23937989 1.0609894 .24537659 1.0609894 .25038148 1.0609894 .26037599 1.0549927 .26239015 1.0419922 .26638795 .897995 .3123169 .8470001 .41412355 .82598879 .502121 .82199099 .51412966 .8149872 .51412966 .8009949 .51412966 .7869873 .51412966 .7769928 .51412966 .7769928 .49913026 .7769928 .49713136 .7869873 .43013 .83599856 .3612213 .85899356 .32728578 .8869934 .29933167 .91999819 .27539063H.116989139C.100997928 .27539063 .07699585 .27539063 .07699585 .25138856 .07699585 .2263794 .099990848 .2263794 .116989139 .2263794H.91999819Z"/>
<path id="font_16_1" d="M.41299439 .6126709C.41999818 .640625 .42199708 .6436157 .44400025 .64660647H.5079956C.6009979 .64660647 .71598818 .64660647 .71598818 .5437927 .71598818 .50286868 .69699099 .43997193 .6499939 .40403749 .60899356 .37208558 .5469971 .35612489 .47799684 .35612489H.34899903L.41299439 .6126709M.59399417 .3401184C.71299746 .36810304 .81900027 .43997193 .81900027 .5288086 .81900027 .6146698 .71699526 .6826172 .57199099 .6826172H.2649994C.24598694 .6826172 .23298645 .6826172 .23298645 .660614 .23298645 .64660647 .24499512 .64660647 .2649994 .64660647 .2659912 .64660647 .2849884 .64660647 .30299378 .64460757 .32398988 .6426239 .32598878 .640625 .32598878 .63064578 .32598878 .62864688 .32598878 .6236572 .32199098 .6086731L.18899536 .07801819C.18099976 .04399109 .1789856 .035995485 .100997928 .035995485 .083999637 .035995485 .070999149 .035995485 .070999149 .01499939 .070999149 .004989624 .07798767 0 .08699036 0 .10598755 0 .1289978 .0029907227 .14898682 .0029907227 .16799927 .0029907227 .19699097 .0039978029 .21499634 .0039978029 .23498535 .0039978029 .2579956 .0029907227 .2789917 .0029907227 .2999878 .0029907227 .32499696 0 .34599305 0 .35099793 0 .36698915 0 .36698915 .020996094 .36698915 .035995485 .35699464 .035995485 .33399964 .035995485 .31799317 .035995485 .31399537 .035995485 .29599 .037994386 .27398683 .041000368 .27398683 .042999269 .27398683 .052993776 .27398683 .054000856 .27398683 .05999756 .27799989 .07501221L.34098817 .328125H.47698976C.5629883 .328125 .59999087 .2851715 .59999087 .23822022 .59999087 .22523499 .59098818 .19126892 .58599856 .16828919 .57398989 .12234497 .56999209 .10736084 .56999209 .09037781 .56999209 .011459351 .6429901-.01953125 .71699526-.01953125 .8089905-.01953125 .848999 .0783844 .848999 .09637451 .848999 .099365238 .8470001 .11035156 .83200076 .11035156 .81900027 .11035156 .81700137 .10336304 .81399539 .09336853 .7999878 .049423219 .7630005 .008468628 .72099307 .008468628 .69499209 .008468628 .6759949 .019454956 .6759949 .073394779 .6759949 .098358158 .6819916 .15031433 .6859894 .17727661 .6899872 .20425415 .6899872 .2142334 .6899872 .2242279 .6899872 .23622132 .6899872 .26818849 .6619873 .29815675 .6429901 .3191223 .6159973 .3321228 .59399417 .3401184Z"/>
<path id="font_1_2" d="M.73999026 .4358673C.73999026 .5970001 .6339874 .7050781 .4850006 .7050781 .2689972 .7050781 .04899597 .47790528 .04899597 .24472046 .04899597 .07859802 .16099549-.022460938 .30499269-.022460938 .5169983-.022460938 .73999026 .19668579 .73999026 .4358673M.31098939 .0035247803C.21199036 .0035247803 .14199829 .08459473 .14199829 .21670532 .14199829 .2607422 .1559906 .4068451 .23298645 .52394106 .3019867 .62802127 .3999939 .68006899 .47898866 .68006899 .5609894 .68006899 .651001 .62402346 .651001 .4748993 .651001 .4028473 .6239929 .24671936 .5249939 .12362671 .47698976 .062576297 .394989 .0035247803 .31098939 .0035247803Z"/>
<path id="font_2_4" d="M.2899933 .35191346C.37199403 .37893678 .42999269 .4490509 .42999269 .52809146 .42999269 .6100464 .34199525 .6660156 .24598694 .6660156 .14498902 .6660156 .068984989 .60606387 .068984989 .53009036 .068984989 .49710084 .09098816 .47808839 .11999512 .47808839 .15098572 .47808839 .17098999 .50009158 .17098999 .5290985 .17098999 .57910159 .12399292 .57910159 .10899353 .57910159 .13999939 .62802127 .20599365 .64100649 .24198914 .64100649 .2829895 .64100649 .33799745 .6190338 .33799745 .5290985 .33799745 .51708987 .33599855 .45906068 .30999757 .4149933 .27999879 .36691285 .24598694 .36390687 .22099304 .36291505 .21299744 .36190797 .18899536 .35990907 .18199158 .35990907 .17399597 .35890199 .16699219 .35791017 .16699219 .3479004 .16699219 .33691407 .17399597 .33691407 .19099427 .33691407H.23498535C.31698609 .33691407 .35398866 .2686615 .35398866 .17037964 .35398866 .034469606 .2849884 .0055389406 .24099732 .0055389406 .19799805 .0055389406 .12298584 .022491456 .08799744 .08137512 .12298584 .07637024 .1539917 .09837341 .1539917 .1363678 .1539917 .17237854 .1269989 .19238281 .09799194 .19238281 .07398987 .19238281 .041992189 .17837525 .041992189 .1343689 .041992189 .043441774 .1349945-.022460938 .24398804-.022460938 .3659973-.022460938 .45700074 .06838989 .45700074 .17037964 .45700074 .252594 .3939972 .33088685 .2899933 .35191346Z"/>
<path id="font_17_2" d="M.2679901 .31362916H.3039856L.45399476 .08192444C.46398927 .06594849 .48799134 .026992798 .49899293 .011993408 .5059967 0 .5089874 0 .5319977 0H.66999819C.6879883 0 .7029877 0 .7029877 .017990113 .7029877 .025985718 .69699099 .032989503 .6879883 .034988405 .651001 .04298401 .60198977 .10890198 .5779877 .14085388 .57099917 .15083313 .5209961 .2167511 .45399476 .32463075 .54299929 .34062196 .6289978 .37861634 .6289978 .4975891 .6289978 .63656619 .48199464 .6845703 .3639984 .6845703H.049987794C.03199768 .6845703 .015991211 .6845703 .015991211 .66656497 .015991211 .64956668 .034988405 .64956668 .042999269 .64956668 .099990848 .64956668 .10499573 .64256289 .10499573 .5925751V.091918949C.10499573 .04197693 .099990848 .034988405 .042999269 .034988405 .034988405 .034988405 .015991211 .034988405 .015991211 .017990113 .015991211 0 .03199768 0 .049987794 0H.32398988C.34199525 0 .35699464 0 .35699464 .017990113 .35699464 .034988405 .33999635 .034988405 .32899476 .034988405 .27198792 .034988405 .2679901 .04298401 .2679901 .091918949V.31362916M.46099855 .36262513C.4889984 .39961244 .49198915 .4526062 .49198915 .4965973 .49198915 .5445862 .48599244 .59757998 .45399476 .63856509 .49499513 .6295624 .59399417 .5985718 .59399417 .4975891 .59399417 .43260194 .56399539 .3816223 .46099855 .36262513M.2679901 .59558108C.2679901 .61657717 .2679901 .64956668 .32998658 .64956668 .4149933 .64956668 .45700074 .614563 .45700074 .4965973 .45700074 .36761476 .42599488 .3486328 .2679901 .3486328V.59558108M.13198853 .034988405C.13999939 .052963258 .13999939 .08093262 .13999939 .089920047V.594574C.13999939 .6045685 .13999939 .6315613 .13198853 .64956668H.24598694C.23298645 .6335602 .23298645 .61357119 .23298645 .5985718V.089920047C.23298645 .079940799 .23298645 .052963258 .24099732 .034988405H.13198853M.34498597 .31362916C.35198976 .31462098 .35598756 .31562806 .3639984 .31562806 .3789978 .31562806 .40098573 .31762696 .41600038 .31962586 .43099977 .2956543 .5389862 .117889408 .621994 .034988405H.5249939L.34498597 .31362916Z"/>
<path id="font_17_1" d="M.2619934 .30778504C.2659912 .30778504 .2869873 .30778504 .2889862 .3067932H.32299806C.526001 .3067932 .598999 .40174867 .598999 .49667359 .598999 .63856509 .47099305 .6845703 .34199525 .6845703H.049987794C.03199768 .6845703 .015991211 .6845703 .015991211 .66656497 .015991211 .64956668 .034988405 .64956668 .042999269 .64956668 .09498596 .64956668 .09899902 .64157107 .09899902 .5926056V.09194946C.09899902 .04298401 .09498596 .034988405 .04399109 .034988405 .033996583 .034988405 .015991211 .034988405 .015991211 .017990113 .015991211 0 .03199768 0 .049987794 0H.31799317C.33599855 0 .35099793 0 .35099793 .017990113 .35099793 .034988405 .33399964 .034988405 .32299806 .034988405 .2659912 .034988405 .2619934 .04298401 .2619934 .09194946V.30778504M.4269867 .3527832C.45899964 .39474488 .46199037 .45770265 .46199037 .49768067 .46199037 .55062869 .45700074 .6035919 .43099977 .64056399 .48599244 .62757876 .56399539 .5975952 .56399539 .49667359 .56399539 .4267273 .5189972 .37576295 .4269867 .3527832M.2619934 .5955963C.2619934 .6155853 .2619934 .64956668 .32199098 .64956668 .3939972 .64956668 .4269867 .62257388 .4269867 .49768067 .4269867 .3547821 .37399293 .3427887 .31199647 .3427887H.2619934V.5955963M.12599182 .034988405C.13398743 .052978517 .13398743 .07696533 .13398743 .08995056V.5946045C.13398743 .6075897 .13398743 .63157656 .12599182 .64956668H.23999024C.22698975 .63357546 .22698975 .6135864 .22698975 .5986023V.08995056C.22698975 .079956058 .22698975 .052978517 .23498535 .034988405H.12599182Z"/>
<path id="font_1_1" d="M.2649994 .37265016H.37799073C.34498597 .22489929 .33599855 .18196106 .33599855 .11508179 .33599855 .100097659 .33599855 .073150638 .34399415 .03919983 .35398866-.0047454836 .36499024-.0107421879 .37998963-.0107421879 .3999939-.0107421879 .42099 .007247925 .42099 .02722168 .42099 .033218385 .42099 .035202028 .4149933 .049179079 .38598634 .12106323 .38598634 .18595886 .38598634 .21391297 .38598634 .26683045 .3929901 .32073976 .4039917 .37265016H.5179901C.5309906 .37265016 .5669861 .37265016 .5669861 .406662 .5669861 .43066407 .54599 .43066407 .5269928 .43066407H.19198609C.16999817 .43066407 .13198853 .43066407 .08799744 .38365174 .052993776 .34469605 .026992798 .29878236 .026992798 .29379273 .026992798 .29278565 .026992798 .28379823 .038986207 .28379823 .04699707 .28379823 .04899597 .28779603 .054992677 .29577638 .10398865 .37265016 .1619873 .37265016 .18199158 .37265016H.23899842C.20698548 .25186158 .15299988 .13105774 .11099243 .04020691 .102996829 .025222779 .102996829 .023223877 .102996829 .016235352 .102996829-.002746582 .11898804-.0107421879 .13198853-.0107421879 .1619873-.0107421879 .16999817 .017242432 .18199158 .05418396 .19599915 .100097659 .19599915 .10209656 .20899964 .15202332L.2649994 .37265016Z"/>
<path id="font_4_1" d="M.33499146 .63612368C.33499146 .6630554 .33299256 .6640625 .30499269 .6640625 .24099732 .6014404 .1499939 .6004486 .10899353 .6004486V.5644531C.1329956 .5644531 .19898987 .5644531 .2539978 .592453V.08203125C.2539978 .04899597 .2539978 .035995485 .1539917 .035995485H.115997318V0C.13398743 .0009918213 .25698854 .0039978029 .2939911 .0039978029 .32499696 .0039978029 .45098878 .0009918213 .47299195 0V.035995485H.43499757C.33499146 .035995485 .33499146 .04899597 .33499146 .08203125V.63612368Z"/>
<path id="font_17_3" d="M.59599307 .6485596C.6049957 .66156008 .6049957 .66355898 .6049957 .66656497 .6049957 .6845703 .58999636 .6845703 .57199099 .6845703H.11399841C.08198547 .6845703 .08198547 .68156436 .07899475 .65556338L.06399536 .5206604 .06199646 .5076599C.06199646 .4936676 .07299805 .48867799 .07998657 .48867799 .08898926 .48867799 .09498596 .4956665 .09700012 .5036621 .100997928 .5276489 .10998535 .57162478 .17098999 .6095886 .22799683 .64656069 .2979889 .64956668 .33198548 .64956668H.41299439L.036987306 .035995485C.027999878 .022994996 .027999878 .020996094 .027999878 .017990113 .027999878 0 .04399109 0 .06199646 0H.57499697C.6049957 0 .6049957 .0019989014 .60899356 .027999878L.6359863 .22485352C.6359863 .2358551 .6269989 .24284363 .61898806 .24284363 .60398867 .24284363 .60198977 .23284912 .598999 .21287537 .58200076 .13092041 .5039978 .034988405 .3619995 .034988405H.21998596L.59599307 .6485596M.11299133 .64956668H.1659851V.6485596C.13899231 .63357546 .11999512 .6155853 .10798645 .604599L.11299133 .64956668M.45399476 .64956668H.55599978L.1789856 .034988405H.07699585L.45399476 .64956668M.5069885 .035995485C.5349884 .051986696 .5609894 .07395935 .58399966 .10194397 .58200076 .081954959 .5799866 .07096863 .57499697 .034988405H.5069885V.035995485Z"/>
<path id="font_4_2" d="M.5049896 .18203736H.47099305C.46798707 .16001892 .45799256 .100997928 .44499208 .09098816 .43699647 .084991458 .3600006 .084991458 .34599305 .084991458H.1619873C.2669983 .17803955 .3019867 .20603943 .3619995 .25306703 .43598939 .312088 .5049896 .374115 .5049896 .46914674 .5049896 .5900879 .39898683 .6640625 .2709961 .6640625 .14698792 .6640625 .06298828 .57710269 .06298828 .4851532 .06298828 .43414308 .10598755 .42915345 .115997318 .42915345 .13999939 .42915345 .16899109 .44615174 .16899109 .48214723 .16899109 .5001526 .1619873 .53515627 .10998535 .53515627 .14099121 .6060791 .20899964 .62805178 .2559967 .62805178 .35598756 .62805178 .4079895 .5501404 .4079895 .46914674 .4079895 .38212586 .34599305 .3130951 .31399537 .27708436L.07299805 .038986207C.06298828 .02999878 .06298828 .027999878 .06298828 0H.47499085L.5049896 .18203736Z"/>
<path id="font_7_6" d="M.3809967 .6125946C.3869934 .63760378 .3899994 .6476135 .4079895 .65060427 .4169922 .6516113 .44999696 .6516113 .47099305 .6516113 .5499878 .6516113 .6599884 .6516113 .6599884 .5505829 .6599884 .51356509 .644989 .4385376 .58799746 .39552308 .56399539 .3795166 .5139923 .35351563 .43299867 .35351563H.31599427L.3809967 .6125946M.5359955 .33850099C.6719971 .3735199 .7559967 .44953919 .7559967 .53157046 .7559967 .61860659 .6609955 .6826172 .5279999 .6826172H.23799134C.21998596 .6826172 .20799256 .6826172 .20799256 .6646118 .20799256 .6516113 .21699524 .6516113 .23799134 .6516113 .24198914 .6516113 .2599945 .6516113 .27598573 .6496124 .29299928 .6476135 .2999878 .6456146 .2999878 .6345978 .2999878 .62960818 .29899598 .6255951 .29599 .6145935L.16099549 .075531009C.1519928 .039535524 .1499939 .030532837 .07499695 .030532837 .055999757 .030532837 .04499817 .030532837 .04499817 .012527466 .04499817 .0015258789 .052993776-.00047302247 .05999756-.00047302247 .07598877-.00047302247 .10598755 .0005340576 .12298584 .0015258789 .14399719 .002532959 .1459961 .002532959 .18499756 .002532959 .21699524 .002532959 .21899414 .002532959 .24899292 .0015258789 .2689972 .0005340576 .2939911-.00047302247 .31298829-.00047302247 .31999208-.00047302247 .33299256-.00047302247 .33299256 .017532349 .33299256 .030532837 .32299806 .030532837 .3019867 .030532837 .2979889 .030532837 .27999879 .030532837 .2639923 .03253174 .24198914 .03552246 .24099732 .039535524 .24099732 .04852295 .24099732 .05152893 .24099732 .053527833 .24598694 .0715332L.30999757 .32850648H.43299867C.522995 .32850648 .54599 .27650453 .54599 .23851013 .54599 .2315216 .54599 .22451782 .5399933 .20251465 .5159912 .11051941 .5159912 .10151672 .5159912 .08653259 .5159912-.0034637452 .6009979-.022460938 .6519928-.022460938 .7389984-.022460938 .7749939 .07852173 .7749939 .0945282 .7749939 .10151672 .7689972 .10652161 .7619934 .10652161 .7509918 .10652161 .75 .10151672 .74598696 .089523319 .72898867 .037521364 .69200137 .002532959 .6549988 .002532959 .61698916 .002532959 .61499026 .03253174 .61499026 .061523439 .61499026 .08653259 .621994 .14451599 .6230011 .15151978 .625 .16752625 .6299896 .20751953 .6299896 .22251892 .6299896 .2795105 .59399417 .31851197 .5359955 .33850099Z"/>
<path id="font_6_4" d="M.47299195 .31976319C.47299195 .38682557 .46998597 .47288514 .43499757 .5479431 .3909912 .64201357 .31498719 .6660156 .25698854 .6660156 .19699097 .6660156 .12098694 .64201357 .07699585 .5459442 .04499817 .47688294 .039993287 .39582826 .039993287 .31976319 .039993287 .25471498 .041992189 .15765381 .084991458 .07858276 .13198853-.0064697267 .20999146-.022460938 .2559967-.022460938 .32099916-.022460938 .394989 .0055389406 .43699647 .097595218 .46699525 .1646576 .47299195 .23971558 .47299195 .31976319M.25698854 .002532959C.22698975 .002532959 .15499878 .016540528 .13598633 .12962342 .12599182 .18867493 .12599182 .2747345 .12599182 .33177186 .12599182 .39982606 .12599182 .47888185 .13798523 .53393557 .1579895 .6230011 .22200012 .64100649 .2559967 .64100649 .2939911 .64100649 .35699464 .62098696 .37599183 .5279236 .3869934 .47288514 .3869934 .39482118 .3869934 .33177186 .3869934 .2697296 .3869934 .18566895 .3769989 .12661743 .35598756 .012542725 .28199769 .002532959 .25698854 .002532959Z"/>
<path id="font_7_7" d="M.6539917 .67807009C.6569977 .68907168 .6569977 .69107058 .6569977 .69407656 .6569977 .69506838 .6559906 .7050781 .644989 .7050781 .6399994 .7050781 .6389923 .70407107 .6269989 .6900635 .61299136 .6750641 .625 .6880646 .57899478 .6340332 .5419922 .6900635 .48399354 .7050781 .43099977 .7050781 .3019867 .7050781 .17999268 .58999636 .17999268 .46990968 .17999268 .42886354 .19299317 .39483644 .21899414 .3668213 .24798584 .336792 .272995 .3307953 .34498597 .31178285L.42900086 .29075624C.46099855 .27975465 .49398805 .24871826 .49398805 .19168091 .49398805 .1026001 .40899659 .008529663 .30899049 .008529663 .25 .008529663 .1309967 .026550293 .1309967 .15464783 .1309967 .16365052 .1309967 .17866516 .13699341 .20869446 .13899231 .21269226 .13899231 .21469116 .13899231 .21569824 .13899231 .21969605 .13699341 .22669983 .125 .22669983 .11299133 .22669983 .11199951 .2217102 .10798645 .20469666L.054992677-.011474609C.054992677-.017471314 .05999756-.022460938 .066986087-.022460938 .07199097-.022460938 .07299805-.021469117 .085998538-.007461548 .09199524-.00047302247 .12098694 .03555298 .1329956 .048568727 .18499756-.018463135 .2769928-.022460938 .30699159-.022460938 .44499208-.022460938 .5649872 .10661316 .5649872 .23271179 .5649872 .35681153 .46699525 .38183595 .43598939 .38883973L.34498597 .41285707C.31199647 .42086793 .25099183 .4368744 .25099183 .51293948 .25099183 .5890045 .33099366 .677063 .43099977 .677063 .47099305 .677063 .5099945 .6660614 .5379944 .63804629 .57598879 .6010132 .57699587 .54696658 .57699587 .5209503 .57699587 .48791505 .57299807 .47691346 .57299807 .4689026 .57299807 .46089173 .57699587 .45588685 .58699038 .45588685 .59799197 .45588685 .59799197 .457901 .6029968 .47691346L.6539917 .67807009Z"/>
<path id="font_7_3" d="M.44999696 .70999148C.45599366 .723999 .45599366 .7259979 .45599366 .7279968 .45599366 .7409973 .44599916 .75 .43499757 .75 .42099 .75 .4169922 .74198916 .41600038 .73999026L.06298828-.21000672C.056991579-.22401428 .056991579-.22601319 .056991579-.22801209 .056991579-.24101258 .066986087-.25 .07798767-.25 .08799744-.25 .09599304-.2460022 .102996829-.22601319L.44999696 .70999148Z"/>
<path id="font_8_2" d="M.7409973 .33706666C.7409973 .36405946 .7319946 .37106324 .7259979 .37106324 .71299746 .37106324 .71199038 .34806825 .71099856 .33406068 .70700076 .26000978 .651001 .18792725 .56999209 .18792725 .5119934 .18792725 .46598817 .22195435 .4059906 .27601625 .34700013 .33106996 .29599 .3720703 .22799683 .3720703 .11898804 .3720703 .056991579 .26000978 .056991579 .16291809 .056991579 .13691712 .06498718 .12892151 .07199097 .12892151 .08299255 .12892151 .08699036 .1479187 .08699036 .15292359 .09298706 .27902223 .1789856 .3120575 .22799683 .3120575 .28599549 .3120575 .33198548 .2780304 .3919983 .2239685 .45098878 .1689148 .5019989 .12792969 .56999209 .12792969 .67900088 .12792969 .7409973 .23997498 .7409973 .33706666Z"/>
<path id="font_7_5" d="M.7579956 .4328766C.7579956 .5910034 .6519928 .7050781 .49499513 .7050781 .2709961 .7050781 .049987794 .47491456 .049987794 .24671936 .049987794 .082595828 .16299439-.022460938 .31399537-.022460938 .5369873-.022460938 .7579956 .2006836 .7579956 .4328766M.32099916 .007537842C.22499085 .007537842 .1459961 .080596927 .1459961 .2217102 .1459961 .27374269 .16299439 .42185975 .24598694 .53596499 .31799317 .6340332 .4139862 .677063 .48799134 .677063 .58599856 .677063 .6669922 .60601809 .6669922 .4709015 .6669922 .40585328 .6409912 .2597351 .5569916 .14663697 .48199464 .046569826 .3899994 .007537842 .32099916 .007537842Z"/>
<path id="font_6_6" d="M.30499269 .35195924C.397995 .38697816 .44198609 .46006776 .44198609 .5290985 .44198609 .60606387 .35699464 .6660156 .25299073 .6660156 .14898682 .6660156 .070999149 .60705569 .070999149 .5310974 .070999149 .49809266 .09298706 .47909547 .12199402 .47909547 .15098572 .47909547 .17199707 .50009158 .17199707 .5290985 .17199707 .5640869 .147995 .57910159 .11399841 .57910159 .13999939 .6210327 .20098877 .64100649 .25 .64100649 .33299256 .64100649 .34899903 .5750885 .34899903 .52809146 .34899903 .49809266 .34298707 .45005799 .31799317 .41201783 .2869873 .36695863 .2519989 .36495973 .22299195 .36296083 .19799805 .36094667 .19599915 .36094667 .18798828 .36094667 .1789856 .35995484 .17098999 .35894776 .17098999 .34794618 .17098999 .33496095 .1789856 .33496095 .19599915 .33496095H.24299622C.32998658 .33496095 .36799623 .2646637 .36799623 .16937256 .36799623 .04145813 .2999878 .0055389406 .24899292 .0055389406 .22999573 .0055389406 .1329956 .010528564 .08799744 .0843811 .12399292 .07939148 .1519928 .10437012 .1519928 .13838196 .1519928 .17137146 .1269989 .19238281 .09799194 .19238281 .07299805 .19238281 .042999269 .17736817 .042999269 .13537598 .042999269 .046447755 .13598633-.022460938 .2519989-.022460938 .3769989-.022460938 .46998597 .06741333 .46998597 .16937256 .46998597 .25663758 .40098573 .33093263 .30499269 .35195924Z"/>
</defs>
<use data-text="S" xlink:href="#font_1_3" transform="matrix(9.96264,0,0,-9.96264,11.289777,19.402962)"/>
<use data-text="U" xlink:href="#font_1_4" transform="matrix(9.96264,0,0,-9.96264,17.964745,19.402962)"/>
<use data-text="(" xlink:href="#font_2_1" transform="matrix(9.96264,0,0,-9.96264,25.861487,19.402962)"/>
<use data-text="2" xlink:href="#font_2_3" transform="matrix(9.96264,0,0,-9.96264,29.72699,19.402962)"/>
<use data-text=")" xlink:href="#font_2_2" transform="matrix(9.96264,0,0,-9.96264,34.70831,19.402962)"/>
<use data-text="&#x223c;" xlink:href="#font_3_1" transform="matrix(9.96264,0,0,-9.96264,41.358896,16.744179)"/>
<use data-text="=" xlink:href="#font_2_5" transform="matrix(9.96264,0,0,-9.96264,41.358896,19.901093)"/>
<use data-text="S" xlink:href="#font_1_3" transform="matrix(9.96264,0,0,-9.96264,51.874975,19.402962)"/>
<use data-text="3" xlink:href="#font_4_3" transform="matrix(6.973848,0,0,-6.973848,58.558244,15.787605)"/>
<use data-text="(" xlink:href="#font_5_85" transform="matrix(9.96264,0,0,-9.96264,72.99025,19.402962)"/>
<use data-text="s" xlink:href="#font_5_98" transform="matrix(9.96264,0,0,-9.96264,77.44355,19.402962)"/>
<use data-text="i" xlink:href="#font_5_66" transform="matrix(9.96264,0,0,-9.96264,81.96659,19.402962)"/>
<use data-text="m" xlink:href="#font_5_75" transform="matrix(9.96264,0,0,-9.96264,85.14468,19.402962)"/>
<use data-text="p" xlink:href="#font_5_84" transform="matrix(9.96264,0,0,-9.96264,94.68889,19.402962)"/>
<use data-text="l" xlink:href="#font_5_72" transform="matrix(9.96264,0,0,-9.96264,101.055019,19.402962)"/>
<use data-text="y" xlink:href="#font_5_118" transform="matrix(9.96264,0,0,-9.96264,104.2331,19.402962)"/>
<use data-text="c" xlink:href="#font_5_43" transform="matrix(9.96264,0,0,-9.96264,114.096118,19.402962)"/>
<use data-text="o" xlink:href="#font_5_81" transform="matrix(9.96264,0,0,-9.96264,119.18703,19.402962)"/>
<use data-text="n" xlink:href="#font_5_77" transform="matrix(9.96264,0,0,-9.96264,124.91554,19.402962)"/>
<use data-text="n" xlink:href="#font_5_77" transform="matrix(9.96264,0,0,-9.96264,131.28168,19.402962)"/>
<use data-text="e" xlink:href="#font_5_50" transform="matrix(9.96264,0,0,-9.96264,137.6478,19.402962)"/>
<use data-text="c" xlink:href="#font_5_43" transform="matrix(9.96264,0,0,-9.96264,142.8981,19.402962)"/>
<use data-text="t" xlink:href="#font_5_105" transform="matrix(9.96264,0,0,-9.96264,147.98902,19.402962)"/>
<use data-text="e" xlink:href="#font_5_50" transform="matrix(9.96264,0,0,-9.96264,152.4423,19.402962)"/>
<use data-text="d" xlink:href="#font_5_47" transform="matrix(9.96264,0,0,-9.96264,157.69261,19.402962)"/>
<use data-text=")" xlink:href="#font_5_86" transform="matrix(9.96264,0,0,-9.96264,164.05875,19.402962)"/>
<path transform="matrix(1,0,0,-1,78.63696,141.63556)" d="M39.68535 70.86703C39.68535 92.78493 21.9179 110.5524 0 110.5524-21.9179 110.5524-39.68535 92.78493-39.68535 70.86703-39.68535 48.94914-21.9179 31.18169 0 31.18169 21.9179 31.18169 39.68535 48.94914 39.68535 70.86703ZM0 70.86703" fill="#ebebff"/>
<path transform="matrix(1,0,0,-1,78.63696,141.63556)" stroke-width="1.19553" stroke-linecap="butt" stroke-miterlimit="10" stroke-linejoin="miter" fill="none" stroke="#000080" d="M39.68535 70.86703C39.68535 92.78493 21.9179 110.5524 0 110.5524-21.9179 110.5524-39.68535 92.78493-39.68535 70.86703-39.68535 48.94914-21.9179 31.18169 0 31.18169 21.9179 31.18169 39.68535 48.94914 39.68535 70.86703ZM0 70.86703"/>
<path transform="matrix(1,0,0,-1,78.63696,141.63556)" stroke-width=".3985" stroke-linecap="butt" stroke-miterlimit="10" stroke-linejoin="miter" fill="none" stroke="#b3b3ff" d="M39.68535 70.86703C39.68535 77.91205 21.9179 83.623 0 83.623-21.9179 83.623-39.68535 77.91205-39.68535 70.86703-39.68535 63.82204-21.9179 58.11107 0 58.11107 21.9179 58.11107 39.68535 63.82204 39.68535 70.86703ZM0 70.86703"/>
<path transform="matrix(1,0,0,-1,78.63696,141.63556)" d="M1.98447 110.5524C1.98447 111.64839 1.096 112.53688 0 112.53688-1.096 112.53688-1.98447 111.64839-1.98447 110.5524-1.98447 109.45639-1.096 108.56792 0 108.56792 1.096 108.56792 1.98447 109.45639 1.98447 110.5524ZM0 110.5524"/>
<use data-text="+" xlink:href="#font_6_3" transform="matrix(8.966376,0,0,-8.966376,72.68805,23.898293)"/>
<use data-text="I" xlink:href="#font_7_4" transform="matrix(8.966376,0,0,-8.966376,79.85557,23.898293)"/>
<path transform="matrix(1,0,0,-1,78.63696,141.63556)" d="M1.98447 31.18169C1.98447 32.27768 1.096 33.16617 0 33.16617-1.096 33.16617-1.98447 32.27768-1.98447 31.18169-1.98447 30.08568-1.096 29.1972 0 29.1972 1.096 29.1972 1.98447 30.08568 1.98447 31.18169ZM0 31.18169"/>
<use data-text="&#x2212;" xlink:href="#font_8_1" transform="matrix(8.966376,0,0,-8.966376,72.68805,122.93561)"/>
<use data-text="I" xlink:href="#font_7_4" transform="matrix(8.966376,0,0,-8.966376,79.85557,122.93561)"/>
<path transform="matrix(-.16075,.98695,.98695,.16075,115.558658,68.8981)" d="M5.30629 0C4.65466 .16344 1.79025 1.08963 0 2.09753V-2.09753C1.79025-1.08963 4.65466-.16344 5.30629 0Z"/>
<path transform="matrix(-.16075,.98695,.98695,.16075,115.558658,68.8981)" stroke-width=".3985" stroke-linecap="butt" stroke-miterlimit="10" stroke-linejoin="miter" fill="none" stroke="#000000" d="M5.30629 0C4.65466 .16344 1.79025 1.08963 0 2.09753V-2.09753C1.79025-1.08963 4.65466-.16344 5.30629 0Z"/>
<path transform="matrix(1,0,0,-1,78.63696,141.63556)" stroke-width="1.19553" stroke-linecap="butt" stroke-miterlimit="10" stroke-linejoin="miter" fill="none" stroke="#ff0000" d="M-.0002 31.18358"/>
<path transform="matrix(0,-1,-1,-0,78.636768,118.22293)" d="M5.30629 0C4.65466 .16344 1.79025 1.08963 0 2.09753V-2.09753C1.79025-1.08963 4.65466-.16344 5.30629 0Z" fill="#ff0000"/>
<path transform="matrix(0,-1,-1,-0,78.636768,118.22293)" stroke-width="1.19553" stroke-linecap="butt" stroke-miterlimit="10" stroke-linejoin="miter" fill="none" stroke="#ff0000" d="M5.30629 0C4.65466 .16344 1.79025 1.08963 0 2.09753V-2.09753C1.79025-1.08963 4.65466-.16344 5.30629 0Z"/>
<use data-text="&#x03b8;" xlink:href="#font_7_1" transform="matrix(8.966376,0,0,-8.966376,117.54831,73.88188)" fill="#ff0000"/>
<use data-text="=" xlink:href="#font_6_8" transform="matrix(8.966376,0,0,-8.966376,124.67779,73.88188)" fill="#ff0000"/>
<use data-text="2" xlink:href="#font_6_5" transform="matrix(8.966376,0,0,-8.966376,134.39734,73.88188)" fill="#ff0000"/>
<use data-text="&#x03c0;" xlink:href="#font_7_2" transform="matrix(8.966376,0,0,-8.966376,139.01282,73.88188)" fill="#ff0000"/>
<path transform="matrix(.16075,-.98695,-.98695,-.16075,41.71527,72.63904)" d="M5.30629 0C4.65466 .16344 1.79025 1.08963 0 2.09753V-2.09753C1.79025-1.08963 4.65466-.16344 5.30629 0Z"/>
<path transform="matrix(.16075,-.98695,-.98695,-.16075,41.71527,72.63904)" stroke-width=".3985" stroke-linecap="butt" stroke-miterlimit="10" stroke-linejoin="miter" fill="none" stroke="#000000" d="M5.30629 0C4.65466 .16344 1.79025 1.08963 0 2.09753V-2.09753C1.79025-1.08963 4.65466-.16344 5.30629 0Z"/>
<path transform="matrix(1,0,0,-1,78.63696,141.63556)" stroke-width="1.19553" stroke-linecap="butt" stroke-dasharray="2.98883,2.98883" stroke-miterlimit="10" stroke-linejoin="miter" fill="none" stroke="#ff8080" d="M.0002 110.55049"/>
<path transform="matrix(0,-1,-1,-0,78.63716,38.856004)" d="M5.30629 0C4.65466 .16344 1.79025 1.08963 0 2.09753V-2.09753C1.79025-1.08963 4.65466-.16344 5.30629 0Z" fill="#ff8080"/>
<path transform="matrix(0,-1,-1,-0,78.63716,38.856004)" stroke-width="1.19553" stroke-linecap="butt" stroke-miterlimit="10" stroke-linejoin="miter" fill="none" stroke="#ff8080" d="M5.30629 0C4.65466 .16344 1.79025 1.08963 0 2.09753V-2.09753C1.79025-1.08963 4.65466-.16344 5.30629 0Z"/>
<use data-text="&#x03b8;" xlink:href="#font_7_1" transform="matrix(8.966376,0,0,-8.966376,12.664792,73.88188)" fill="#800000"/>
<use data-text="=" xlink:href="#font_6_8" transform="matrix(8.966376,0,0,-8.966376,19.794272,73.88188)" fill="#800000"/>
<use data-text="4" xlink:href="#font_6_7" transform="matrix(8.966376,0,0,-8.966376,29.513825,73.88188)" fill="#800000"/>
<use data-text="&#x03c0;" xlink:href="#font_7_2" transform="matrix(8.966376,0,0,-8.966376,34.12931,73.88188)" fill="#800000"/>
<use data-text="U" xlink:href="#font_7_8" transform="matrix(8.966376,0,0,-8.966376,172.86649,56.7856)"/>
<use data-text="(" xlink:href="#font_6_1" transform="matrix(8.966376,0,0,-8.966376,180.10306,56.7856)"/>
<use data-text="&#x03b8;" xlink:href="#font_7_1" transform="matrix(8.966376,0,0,-8.966376,183.68683,56.7856)"/>
<use data-text=")" xlink:href="#font_6_2" transform="matrix(8.966376,0,0,-8.966376,188.25649,56.7856)"/>
<use data-text="=" xlink:href="#font_6_8" transform="matrix(8.966376,0,0,-8.966376,194.38948,56.7856)"/>
<use data-text="e" xlink:href="#font_7_9" transform="matrix(8.966376,0,0,-8.966376,204.12741,56.7856)"/>
<use data-text="&#x2212;" xlink:href="#font_9_1" transform="matrix(5.977584,0,0,-5.977584,208.41167,52.9766)"/>
<use data-text="i" xlink:href="#font_10_3" transform="matrix(5.977584,0,0,-5.977584,214.16782,52.9766)"/>
<use data-text="&#x03b8;" xlink:href="#font_10_1" transform="matrix(5.977584,0,0,-5.977584,216.82785,52.9766)"/>
<use data-text="&#x02c6;" xlink:href="#font_11_2" transform="matrix(5.977584,0,0,-5.977584,221.02408,52.893548)"/>
<use data-text="n" xlink:href="#font_12_1" transform="matrix(5.977584,0,0,-5.977584,220.55362,52.9766)"/>
<use data-text="&#x00b7;" xlink:href="#font_9_2" transform="matrix(5.977584,0,0,-5.977584,225.14746,52.9766)"/>
<use data-text="&#x03c3;" xlink:href="#font_13_1" transform="matrix(5.977584,0,0,-5.977584,227.41672,52.9766)"/>
<use data-text="/" xlink:href="#font_10_2" transform="matrix(5.977584,0,0,-5.977584,232.59037,52.9766)"/>
<use data-text="2" xlink:href="#font_11_1" transform="matrix(5.977584,0,0,-5.977584,236.40935,52.9766)"/>
<use data-text="U" xlink:href="#font_7_8" transform="matrix(8.966376,0,0,-8.966376,172.86649,73.01015)"/>
<use data-text="(" xlink:href="#font_6_1" transform="matrix(8.966376,0,0,-8.966376,180.10306,73.01015)"/>
<use data-text="2" xlink:href="#font_6_5" transform="matrix(8.966376,0,0,-8.966376,183.68065,73.01015)"/>
<use data-text="&#x03c0;" xlink:href="#font_7_2" transform="matrix(8.966376,0,0,-8.966376,188.29451,73.01015)"/>
<use data-text=")" xlink:href="#font_6_2" transform="matrix(8.966376,0,0,-8.966376,193.89049,73.01015)"/>
<use data-text="=" xlink:href="#font_6_8" transform="matrix(8.966376,0,0,-8.966376,200.02349,73.01015)"/>
<use data-text="&#x2212;" xlink:href="#font_8_1" transform="matrix(8.966376,0,0,-8.966376,209.76142,73.01015)"/>
<use data-text="I" xlink:href="#font_7_4" transform="matrix(8.966376,0,0,-8.966376,216.92893,73.01015)"/>
<use data-text="U" xlink:href="#font_7_8" transform="matrix(8.966376,0,0,-8.966376,172.86649,90.01839)"/>
<use data-text="(" xlink:href="#font_6_1" transform="matrix(8.966376,0,0,-8.966376,180.10306,90.01839)"/>
<use data-text="4" xlink:href="#font_6_7" transform="matrix(8.966376,0,0,-8.966376,183.68065,90.01839)"/>
<use data-text="&#x03c0;" xlink:href="#font_7_2" transform="matrix(8.966376,0,0,-8.966376,188.29451,90.01839)"/>
<use data-text=")" xlink:href="#font_6_2" transform="matrix(8.966376,0,0,-8.966376,193.89049,90.01839)"/>
<use data-text="=" xlink:href="#font_6_8" transform="matrix(8.966376,0,0,-8.966376,200.02349,90.01839)"/>
<use data-text="+" xlink:href="#font_6_3" transform="matrix(8.966376,0,0,-8.966376,209.74304,90.01839)"/>
<use data-text="I" xlink:href="#font_7_4" transform="matrix(8.966376,0,0,-8.966376,216.92893,90.01839)"/>
<path transform="matrix(1,0,0,-1,78.63696,141.63556)" stroke-width="1.59404" stroke-linecap="butt" stroke-miterlimit="10" stroke-linejoin="miter" fill="none" stroke="#595959" d="M0 17.00824V-1.97351"/>
<path transform="matrix(0,1,1,0,78.63696,143.60907)" d="M6.07884 0C5.33234 .18881 2.0509 1.25874 0 2.4231V-2.4231C2.0509-1.25874 5.33234-.18881 6.07884 0Z" fill="#595959"/>
<path transform="matrix(0,1,1,0,78.63696,143.60907)" stroke-width="1.59404" stroke-linecap="butt" stroke-miterlimit="10" stroke-linejoin="miter" fill="none" stroke="#595959" d="M6.07884 0C5.33234 .18881 2.0509 1.25874 0 2.4231V-2.4231C2.0509-1.25874 5.33234-.18881 6.07884 0Z"/>
<use data-text="2" xlink:href="#font_14_107" transform="matrix(8.966376,0,0,-8.966376,86.408618,138.90283)"/>
<use data-text="-" xlink:href="#font_14_64" transform="matrix(8.966376,0,0,-8.966376,91.017337,138.90283)"/>
<use data-text="t" xlink:href="#font_14_105" transform="matrix(8.966376,0,0,-8.966376,94.0928,138.90283)"/>
<use data-text="o" xlink:href="#font_14_81" transform="matrix(8.966376,0,0,-8.966376,97.67935,138.90283)"/>
<use data-text="-" xlink:href="#font_14_64" transform="matrix(8.966376,0,0,-8.966376,102.28806,138.90283)"/>
<use data-text="1" xlink:href="#font_14_82" transform="matrix(8.966376,0,0,-8.966376,105.36353,138.90283)"/>
<use data-text="&#x00b1;" xlink:href="#font_15_1" transform="matrix(6.973848,0,0,-6.973848,86.408618,149.27246)"/>
<use data-text="U" xlink:href="#font_16_2" transform="matrix(6.973848,0,0,-6.973848,92.63529,149.27246)"/>
<use data-text="&#xfffd;" xlink:href="#font_15_3" transform="matrix(6.973848,0,0,-6.973848,101.078067,149.27246)"/>
<use data-text="&#x2192;" xlink:href="#font_15_2" transform="matrix(6.973848,0,0,-6.973848,101.078067,149.27246)"/>
<use data-text="R" xlink:href="#font_16_1" transform="matrix(6.973848,0,0,-6.973848,111.28826,149.27246)"/>
<use data-text="S" xlink:href="#font_1_3" transform="matrix(9.96264,0,0,-9.96264,11.289777,169.64157)"/>
<use data-text="O" xlink:href="#font_1_2" transform="matrix(9.96264,0,0,-9.96264,17.964745,169.64157)"/>
<use data-text="(" xlink:href="#font_2_1" transform="matrix(9.96264,0,0,-9.96264,25.849057,169.64157)"/>
<use data-text="3" xlink:href="#font_2_4" transform="matrix(9.96264,0,0,-9.96264,29.714562,169.64157)"/>
<use data-text=")" xlink:href="#font_2_2" transform="matrix(9.96264,0,0,-9.96264,34.69588,169.64157)"/>
<use data-text="&#x223c;" xlink:href="#font_3_1" transform="matrix(9.96264,0,0,-9.96264,41.346467,166.98279)"/>
<use data-text="=" xlink:href="#font_2_5" transform="matrix(9.96264,0,0,-9.96264,41.346467,170.13971)"/>
<use data-text="R" xlink:href="#font_17_2" transform="matrix(9.96264,0,0,-9.96264,51.862546,169.64157)"/>
<use data-text="P" xlink:href="#font_17_1" transform="matrix(9.96264,0,0,-9.96264,59.055574,169.64157)"/>
<use data-text="3" xlink:href="#font_4_3" transform="matrix(6.973848,0,0,-6.973848,65.14607,165.24138)"/>
<use data-text="(" xlink:href="#font_5_85" transform="matrix(9.96264,0,0,-9.96264,79.57809,169.64157)"/>
<use data-text="&#x03c0;" xlink:href="#font_1_1" transform="matrix(9.96264,0,0,-9.96264,84.03139,169.64157)"/>
<use data-text="1" xlink:href="#font_4_1" transform="matrix(6.973848,0,0,-6.973848,89.710369,171.13596)"/>
<use data-text="=" xlink:href="#font_2_5" transform="matrix(9.96264,0,0,-9.96264,96.94707,169.64157)"/>
<use data-text="Z" xlink:href="#font_17_3" transform="matrix(9.96264,0,0,-9.96264,107.46315,169.64157)"/>
<use data-text="2" xlink:href="#font_4_2" transform="matrix(6.973848,0,0,-6.973848,114.10493,171.13596)"/>
<use data-text=")" xlink:href="#font_5_86" transform="matrix(9.96264,0,0,-9.96264,118.574298,169.64157)"/>
<path transform="matrix(1,0,0,-1,78.63696,141.63556)" d="M34.01608-73.70189C34.01608-54.91508 18.78679-39.6858 0-39.6858-18.78679-39.6858-34.01608-54.91508-34.01608-73.70189-34.01608-92.4887-18.78679-107.71797 0-107.71797 18.78679-107.71797 34.01608-92.4887 34.01608-73.70189ZM0-73.70189" fill="#f2f2f2"/>
<path transform="matrix(1,0,0,-1,78.63696,141.63556)" stroke-width="1.19553" stroke-linecap="butt" stroke-miterlimit="10" stroke-linejoin="miter" fill="none" stroke="#4c4d4c" d="M34.01608-73.70189C34.01608-54.91508 18.78679-39.6858 0-39.6858-18.78679-39.6858-34.01608-54.91508-34.01608-73.70189-34.01608-92.4887-18.78679-107.71797 0-107.71797 18.78679-107.71797 34.01608-92.4887 34.01608-73.70189ZM0-73.70189"/>
<path transform="matrix(1,0,0,-1,78.63696,141.63556)" stroke-width=".3985" stroke-linecap="butt" stroke-miterlimit="10" stroke-linejoin="miter" fill="none" stroke="#bfbfbf" d="M34.01608-73.70189C34.01608-67.43971 18.78679-62.36334 0-62.36334-18.78679-62.36334-34.01608-67.43971-34.01608-73.70189-34.01608-79.96407-18.78679-85.04044 0-85.04044 18.78679-85.04044 34.01608-79.96407 34.01608-73.70189ZM0-73.70189"/>
<path transform="matrix(1,0,0,-1,78.63696,141.63556)" d="M1.70073-73.70189C1.70073-72.76259 .93929-72.00116 0-72.00116-.93929-72.00116-1.70073-72.76259-1.70073-73.70189-1.70073-74.64119-.93929-75.40263 0-75.40263 .93929-75.40263 1.70073-74.64119 1.70073-73.70189ZM0-73.70189"/>
<use data-text="R" xlink:href="#font_7_6" transform="matrix(8.966376,0,0,-8.966376,84.99162,217.57907)"/>
<use data-text="(" xlink:href="#font_6_1" transform="matrix(8.966376,0,0,-8.966376,92.02734,217.57907)"/>
<use data-text="&#x03b8;" xlink:href="#font_7_1" transform="matrix(8.966376,0,0,-8.966376,95.6111,217.57907)"/>
<use data-text="=" xlink:href="#font_6_8" transform="matrix(8.966376,0,0,-8.966376,102.74058,217.57907)"/>
<use data-text="0" xlink:href="#font_6_4" transform="matrix(8.966376,0,0,-8.966376,112.46013,217.57907)"/>
<use data-text=")" xlink:href="#font_6_2" transform="matrix(8.966376,0,0,-8.966376,117.05988,217.57907)"/>
<use data-text="=" xlink:href="#font_6_8" transform="matrix(8.966376,0,0,-8.966376,123.19289,217.57907)"/>
<use data-text="e" xlink:href="#font_7_9" transform="matrix(8.966376,0,0,-8.966376,132.94655,217.57907)"/>
<use data-text="S" xlink:href="#font_7_7" transform="matrix(8.966376,0,0,-8.966376,172.86649,217.57907)"/>
<use data-text="U" xlink:href="#font_7_8" transform="matrix(8.966376,0,0,-8.966376,178.99053,217.57907)"/>
<use data-text="(" xlink:href="#font_6_1" transform="matrix(8.966376,0,0,-8.966376,186.24251,217.57907)"/>
<use data-text="2" xlink:href="#font_6_5" transform="matrix(8.966376,0,0,-8.966376,189.82009,217.57907)"/>
<use data-text=")" xlink:href="#font_6_2" transform="matrix(8.966376,0,0,-8.966376,194.41983,217.57907)"/>
<use data-text="/" xlink:href="#font_7_3" transform="matrix(8.966376,0,0,-8.966376,198.01772,217.57907)"/>
<use data-text="Z" xlink:href="#font_17_3" transform="matrix(8.966376,0,0,-8.966376,202.6254,217.57907)"/>
<use data-text="2" xlink:href="#font_11_1" transform="matrix(5.977584,0,0,-5.977584,208.603,218.57532)"/>
<use data-text="&#x223c;" xlink:href="#font_8_2" transform="matrix(8.966376,0,0,-8.966376,215.31388,215.23722)"/>
<use data-text="=" xlink:href="#font_6_8" transform="matrix(8.966376,0,0,-8.966376,215.31388,218.0772)"/>
<use data-text="S" xlink:href="#font_7_7" transform="matrix(8.966376,0,0,-8.966376,225.04123,217.57907)"/>
<use data-text="O" xlink:href="#font_7_5" transform="matrix(8.966376,0,0,-8.966376,231.16526,217.57907)"/>
<use data-text="(" xlink:href="#font_6_1" transform="matrix(8.966376,0,0,-8.966376,238.4489,217.57907)"/>
<use data-text="3" xlink:href="#font_6_6" transform="matrix(8.966376,0,0,-8.966376,242.02649,217.57907)"/>
<use data-text=")" xlink:href="#font_6_2" transform="matrix(8.966376,0,0,-8.966376,246.62624,217.57907)"/>
</svg>
