<svg xmlns="http://www.w3.org/2000/svg" xmlns:xlink="http://www.w3.org/1999/xlink" xmlns:inkscape="http://www.inkscape.org/namespaces/inkscape" version="1.1" width="272.18" height="206.79" viewBox="0 0 272.18 206.79">
<defs>
<path id="font_1_6" d="M.13699341 .22949219C.19799805 .22949219 .2630005 .22949219 .31599427 .24247742 .4099884 .2654724 .4269867 .32144166 .4269867 .35542298 .4269867 .41238404 .37399293 .4423828 .31498719 .4423828 .19898987 .4423828 .04699707 .3444214 .04699707 .17242432 .04699707 .077316287 .102996829-.0107421879 .21099854-.0107421879 .36099244-.0107421879 .44499208 .09333801 .44499208 .10635376 .44499208 .112350467 .43798829 .12036133 .43099977 .12036133 .42599488 .12036133 .4249878 .11936951 .41600038 .10835266 .35598756 .03427124 .2649994 .014251709 .21299744 .014251709 .14199829 .014251709 .12298584 .081329349 .12298584 .13137818 .12298584 .13337708 .12298584 .16841126 .13699341 .22949219M.14399719 .25448609C.18798828 .41238404 .29899598 .41737367 .31498719 .41737367 .34899903 .41737367 .3899994 .40138246 .3899994 .35542298 .3899994 .25448609 .23899842 .25448609 .14399719 .25448609Z"/>
<path id="font_1_7" d="M.4869995 .39335633C.4869995 .4093628 .47399903 .42237855 .45599366 .42237855 .43899537 .42237855 .41799928 .41036988 .41299439 .38233949 .3909912 .42037965 .35899354 .4423828 .31799317 .4423828 .19699097 .4423828 .07398987 .30026246 .07398987 .16012573 .07398987 .06602478 .1329956 0 .21299744 0 .2579956 0 .2979889 .024993897 .33099366 .055023195 .31799317 0 .3019867-.06703186 .2939911-.08503723 .2889862-.09605408 .25299073-.18008423 .1519928-.18008423 .13198853-.18008423 .099990848-.1790924 .07499695-.17208863 .09399414-.16407776 .11099243-.14207459 .11099243-.12106323 .11099243-.0990448 .09399414-.08503723 .07299805-.08503723 .049987794-.08503723 .017990113-.10305786 .017990113-.14407349 .017990113-.19308472 .07398987-.20507813 .1539917-.20507813 .2829895-.20507813 .35699464-.13105774 .37298585-.06703186L.4869995 .39335633M.34999085 .13009644C.34599305 .112075809 .34498597 .110076908 .32899476 .091049198 .27799989 .03300476 .23599243 .024993897 .21598816 .024993897 .16699219 .024993897 .14898682 .07304382 .14898682 .11808777 .14898682 .15711975 .17298889 .26922608 .20298767 .32728578 .22898865 .3743286 .272995 .41737367 .31900025 .41737367 .3829956 .41737367 .3999939 .34129334 .3999939 .33229066 .3999939 .33029176 .397995 .32228089 .39698792 .317276L.34999085 .13009644Z"/>
<path id="font_2_1" d="M.34098817-.23803711C.34098817-.23303223 .33799745-.23002625 .33198548-.22303772 .20298767-.105026248 .1639862 .07498169 .1639862 .24996948 .1639862 .40498353 .19400025 .59298709 .33499146 .72698977 .33898927 .73098757 .34098817 .73399356 .34098817 .7389984 .34098817 .74598696 .33599855 .75 .32899476 .75 .31698609 .75 .22698975 .6779785 .17298889 .568985 .125 .47297669 .100997928 .36997987 .100997928 .25097657 .100997928 .17897034 .10998535 .064971927 .16499329-.053024293 .22399903-.17602539 .31698609-.24902344 .32899476-.24902344 .33599855-.24902344 .34098817-.24502564 .34098817-.23803711Z"/>
<path id="font_1_8" d="M.21299744 .3996582H.30799867C.32598878 .3996582 .33799745 .3996582 .33799745 .41766358 .33799745 .43066407 .32798768 .43066407 .30999757 .43066407H.22099304L.2619934 .59646609C.2619934 .6124573 .24899292 .62545779 .23098755 .62545779 .19898987 .62545779 .19099427 .59646609 .18899536 .5864868L.14898682 .43066407H.054992677C.035995485 .43066407 .023986817 .43066407 .023986817 .4126587 .023986817 .3996582 .034988405 .3996582 .052993776 .3996582H.14199829L.07398987 .12808228C.06599426 .09811401 .06599426 .09613037 .06599426 .08215332 .06599426 .023239136 .11099243-.0107421879 .16299439-.0107421879 .2669983-.0107421879 .32598878 .1330719 .32598878 .14305115 .32598878 .14804077 .32299806 .1550293 .31298829 .1550293 .30299378 .1550293 .3019867 .15203858 .29499818 .1350708 .2639923 .06317139 .21398926 .014251709 .16499329 .014251709 .14498902 .014251709 .1329956 .027236939 .1329956 .060180665 .1329956 .08215332 .13598633 .09413147 .13999939 .10910034L.21299744 .3996582Z"/>
<path id="font_2_2" d="M.2979889 .25097657C.2979889 .3329773 .28599549 .4429779 .23399353 .5539856 .1749878 .6769867 .08198547 .75 .069992069 .75 .05999756 .75 .057998659 .74198916 .057998659 .7389984 .057998659 .73399356 .05999756 .73098757 .066986087 .72398379 .125 .6719818 .23498535 .5359802 .23498535 .25097657 .23498535 .10797119 .20899964-.091033939 .06399536-.22602844 .06199646-.22903443 .057998659-.23303223 .057998659-.23803711 .057998659-.24102783 .05999756-.24902344 .069992069-.24902344 .08198547-.24902344 .17199707-.17703247 .22599793-.06802368 .27398683 .02796936 .2979889 .13098145 .2979889 .25097657Z"/>
<path id="font_2_5" d="M.70799258 .3310089C.7220001 .3310089 .7409973 .3310089 .7409973 .35202027 .7409973 .37402345 .71899417 .37402345 .70399478 .37402345H.09399414C.07899475 .37402345 .056991579 .37402345 .056991579 .35202027 .056991579 .3310089 .07699585 .3310089 .08999634 .3310089H.70799258M.70399478 .12695313C.71899417 .12695313 .7409973 .12695313 .7409973 .14894104 .7409973 .1699524 .7220001 .1699524 .70799258 .1699524H.08999634C.07699585 .1699524 .056991579 .1699524 .056991579 .14894104 .056991579 .12695313 .07899475 .12695313 .09399414 .12695313H.70399478Z"/>
<path id="font_3_3" d="M.2689972 .39065553H.37799073C.397995 .39065553 .4119873 .39065553 .4119873 .4156494 .4119873 .43066407 .39898683 .43066407 .3809967 .43066407H.2789917L.31399537 .5685272C.31799317 .58351138 .31799317 .5894928 .31799317 .5904999 .31799317 .6144867 .29899598 .6244812 .2829895 .6244812 .2709961 .6244812 .24499512 .6174774 .23599243 .58551028L.19699097 .43066407H.08898926C.067993167 .43066407 .066986087 .42965699 .06298828 .426651 .057998659 .4226532 .053985597 .4096527 .053985597 .4046631 .056991579 .39065553 .06599426 .39065553 .085998538 .39065553H.18699646L.12799073 .15501404C.12199402 .13204956 .11399841 .09811401 .11399841 .086120609 .11399841 .028213501 .1659851-.009765625 .22698975-.009765625 .34199525-.009765625 .4099884 .12705994 .4099884 .14404297 .4099884 .14703369 .4079895 .15802002 .3909912 .15802002 .37799073 .15802002 .37599183 .1530304 .37098695 .14103699 .33699037 .06616211 .27999879 .023223877 .23098755 .023223877 .19400025 .023223877 .19299317 .060165407 .19299317 .073150638 .19299317 .087127689 .19299317 .08912659 .19799805 .10809326L.2689972 .39065553Z"/>
<path id="font_3_1" d="M.5970001 .3677826C.5970001 .3687744 .59199526 .37876893 .59199526 .379776 .59199526 .38076783 .59298709 .3817749 .61299136 .40176393L.776001 .55766299C.8009949 .5806427 .83499148 .6046295 .8450012 .6106262 .8839874 .63360598 .9189911 .64060977 .95399478 .64260867 .96798709 .6436157 .98098757 .6436157 .98098757 .66760256 .98098757 .6736145 .97499087 .6826172 .96499636 .6826172 .9359894 .6826172 .897995 .6786041 .86698916 .6786041L.80799868 .6796112C.78900149 .6796112 .7669983 .6826172 .7480011 .6826172 .7409973 .6826172 .72499087 .6826172 .72499087 .65760806 .72499087 .6436157 .7389984 .64260867 .7429962 .64260867 .7559967 .64160159 .7749939 .63760378 .7749939 .6196289 .7749939 .6056366 .7659912 .5966339 .7350006 .56565859L.6539917 .4907074C.6469879 .4837036 .58499148 .42375184 .57299807 .41375733L.46699525 .6076355C.46598817 .6096344 .46099855 .6186218 .46099855 .6206207 .46099855 .62661746 .48199464 .64060977 .5130005 .64260867 .5209961 .64260867 .5349884 .6436157 .5349884 .66760256 .5349884 .6706085 .5339966 .6826172 .5179901 .6826172 .49699403 .6826172 .47299195 .6796112 .45098878 .6796112L.3829956 .6786041C.36299134 .6786041 .34399415 .6796112 .32398988 .6796112 .3039856 .6796112 .28199769 .6826172 .2630005 .6826172 .2519989 .6826172 .24099732 .6776123 .24099732 .65760806 .24099732 .64260867 .25299073 .64260867 .272995 .64260867 .33198548 .64260867 .33799745 .63261416 .34700013 .6156311L.49699403 .34179688C.47499085 .32281495 .42599488 .2758484 .3909912 .24186707 .22499085 .080963138 .18699646 .04399109 .09199524 .039993287 .07798767 .038986207 .06498718 .038986207 .06498718 .01499939 .06498718 .0079956059 .070999149 0 .07998657 0 .10899353 0 .14698792 .0039978029 .17799378 .0039978029 .20498657 .0039978029 .2709961 0 .2979889 0 .3039856 0 .31999208 0 .31999208 .024993897 .31999208 .038986207 .30699159 .039993287 .3019867 .039993287 .28799439 .040985109 .269989 .04598999 .269989 .06297302 .269989 .067977908 .2709961 .07296753 .2809906 .08695984 .2829895 .08796692 .2849884 .09295654 .28599549 .09396362L.5149994 .30882264 .6429901 .07496643C.6469879 .066970828 .6489868 .0639801 .6489868 .0619812 .6489868 .055984498 .6289978 .041992189 .5970001 .039993287 .58999636 .039993287 .57398989 .038986207 .57398989 .01499939 .57398989 .011993408 .57598879 0 .59199526 0 .61299136 0 .6369934 .0029907227 .6589966 .0029907227L.72698977 .0039978029C.746994 .0039978029 .7659912 .0029907227 .7859955 .0029907227 .80599978 .0029907227 .8279877 0 .8470001 0 .85899356 0 .86898806 .005996704 .86898806 .024993897 .86898806 .039993287 .8529968 .039993287 .83999636 .039993287 .7779999 .039993287 .772995 .048980714 .7630005 .066970828L.5970001 .3677826Z"/>
<path id="font_4_1" d="M.015991211-.1309967 .026992798-.14399719 .06199646-.125C.115997318-.16899109 .18499756-.20898438 .2559967-.20898438 .2639923-.20898438 .27999879-.20498657 .2919922-.20098877 .35099793-.14399719 .4039917-.08102417 .45498658-.017059327L.42599488 .10887146C.4229889 .12187195 .42099 .13586426 .42099 .14985657 .42099 .27478028 .41299439 .39671327 .44299317 .45872499L.43699647 .46472169 .36499024 .42471314C.32499696 .43371583 .2849884 .4467163 .25099183 .46972657 .19599915 .43771363 .14199829 .40472413 .08898926 .36773683 .07899475 .30177308 .07398987 .23480225 .07398987 .16784668 .07398987 .13386536 .07598877 .09887695 .07798767 .06489563L.1499939-.024047852C.10499573-.06303406 .06098938-.1000061 .015991211-.1309967M.34199525 .09687805C.35299684 .0499115 .36898805-.02305603 .36898805-.045043947 .36898805-.09101868 .34298707-.1349945 .29499818-.1349945 .23899842-.1349945 .18798828-.0960083 .14698792-.055038454 .20899964-.0020599366 .2749939 .0499115 .34199525 .09687805M.22799683 .040908815C.20298767 .06390381 .1749878 .09487915 .1599884 .12387085 .1559906 .1688385 .15499878 .21481323 .15499878 .25979615 .15499878 .30377198 .15699768 .3537445 .17298889 .39372254 .22099304 .37173463 .29100038 .35873414 .34899903 .35073854 .34199525 .27578736 .33999635 .19882202 .33999635 .12286377L.22799683 .040908815Z"/>
<path id="font_1_3" d="M.43899537 .6086273C.44499208 .63061526 .44699098 .64060977 .46398927 .6436157 .47200013 .6456146 .5039978 .6456146 .5249939 .6456146 .6399994 .6456146 .673996 .63861086 .673996 .56066897 .673996 .54766848 .673996 .5326843 .6649933 .4737091L.6639862 .4657135C.6639862 .45872499 .66799929 .45173646 .6779938 .45173646 .6899872 .45173646 .69200137 .46072389 .69400027 .475708L.7200012 .64860537C.72099307 .6536102 .7220001 .65960696 .7220001 .6626129 .7220001 .6766052 .71199038 .6766052 .69299319 .6766052H.12399292C.099990848 .6766052 .09899902 .6756134 .09199524 .6566162L.02999878 .4807129C.025985718 .4677124 .025985718 .4657135 .025985718 .46472169 .025985718 .45973207 .0289917 .45173646 .038986207 .45173646 .049987794 .45173646 .051986696 .45773316 .057998659 .475708 .11299133 .6316223 .14399719 .6456146 .2889862 .6456146H.32798768C.35598756 .6456146 .35598756 .64260867 .35598756 .63461306 .35598756 .62861636 .35398866 .6216278 .35198976 .6136322L.21798706 .07896423C.20899964 .04298401 .20599365 .0309906 .099990848 .0309906 .067993167 .0309906 .05899048 .0309906 .05899048 .0129852299 .05899048 0 .07199097 0 .07598877 0 .101989749 0 .1309967 .0019989014 .1579895 .0019989014 .18598938 .0019989014 .21499634 .0029907227 .24299622 .0029907227 .2869873 .0029907227 .2889862 .0029907227 .32598878 .0019989014 .33898927 .0019989014 .40499879 0 .41299439 0 .42199708 0 .43399049 0 .43399049 .017990113 .43399049 .0309906 .4249878 .0309906 .3999939 .0309906 .375 .0309906 .36299134 .0309906 .33599855 .032989503 .31298829 .035995485 .30099488 .036987306 .30099488 .053985597 .30099488 .05897522 .30299378 .066970828 .30499269 .07395935L.43899537 .6086273Z"/>
<path id="font_3_2" d="M.22099304 .22555542C.2869873 .22555542 .36299134 .2305603 .4149933 .2475586 .5019989 .27653504 .5059967 .33747865 .5059967 .35246278 .5059967 .40141297 .45799256 .44140626 .37298585 .44140626 .25 .44140626 .07998657 .3534546 .07998657 .18247986 .07998657 .076309207 .14898682-.009765625 .27398683-.009765625 .45999146-.009765625 .5329895 .08934021 .5329895 .10134888 .5329895 .11036682 .5219879 .12138367 .5139923 .12138367 .5089874 .12138367 .5079956 .120391849 .49299623 .10536194 .43299867 .037246705 .33099366 .023223877 .27598573 .023223877 .19499207 .023223877 .1659851 .081329349 .1659851 .14543152 .1659851 .15344239 .16699219 .18649292 .1769867 .22555542H.22099304M.18598938 .25856019C.21899414 .37643434 .31698609 .4084015 .37298585 .4084015 .41999818 .4084015 .45999146 .38742066 .45999146 .3514557 .45999146 .25856019 .29299928 .25856019 .18598938 .25856019Z"/>
<path id="font_1_2" d="M.7739868 .67807009C.7769928 .6900635 .7769928 .69207766 .7769928 .69407656 .7769928 .69506838 .776001 .7050781 .7649994 .7050781 .7589874 .7050781 .7559967 .70207217 .7489929 .69407656L.6879883 .6269989C.6839905 .62197878 .6799927 .61798098 .67900088 .61798098 .6779938 .61798098 .6769867 .61898806 .67099 .6259918 .6559906 .6460266 .61099246 .7050781 .5069885 .7050781 .27799989 .7050781 .050994874 .48275758 .050994874 .25442506 .050994874 .0974884 .16299439-.022460938 .33299256-.022460938 .44699098-.022460938 .522995 .026519776 .5499878 .06150818 .55799868 .038513185 .58399966 .0005340576 .59599307 .0005340576 .60398867 .0005340576 .60598757 .0055389406 .61099246 .025527955L.6299896 .102493289C.6369934 .12948609 .6469879 .17045594 .6519928 .1924591 .6649933 .23942566 .6649933 .24142456 .72299197 .24243164 .72698977 .24243164 .73999026 .24342346 .73999026 .260437 .73999026 .26142884 .73999026 .2734375 .7259979 .2734375 .71798709 .2734375 .6799927 .27142335 .6729889 .27043153H.6159973C.59298709 .27043153 .56900027 .27142335 .5469971 .27142335 .522995 .27142335 .49699403 .2734375 .47399903 .2734375 .46499635 .2734375 .45298768 .2734375 .45298768 .25543214 .45298768 .24243164 .46199037 .24243164 .4869995 .24243164 .5089874 .24243164 .5139923 .24243164 .5389862 .24043274 .56599429 .23742676 .57099917 .23443604 .57099917 .22143555 .57099917 .21743775 .57099917 .21543885 .56399539 .1904602 .5569916 .1614685 .54499819 .113479617 .5419922 .10548401 .5079956 .03251648 .41099549 .008529663 .34899903 .008529663 .26098634 .008529663 .14498902 .056503297 .14498902 .22044373 .14498902 .2824402 .1659851 .42967225 .2599945 .54486086 .31900025 .6169739 .41799928 .67407229 .5139923 .67407229 .625 .67407229 .6839905 .5889282 .6839905 .47875978 .6839905 .44470216 .68099978 .43769837 .68099978 .42967225 .68099978 .4186554 .69299319 .4186554 .69599917 .4186554 .70899966 .4186554 .70899966 .42066957 .71398928 .43969728L.7739868 .67807009Z"/>
<path id="font_1_4" d="M.5079956 .38276673C.5329895 .40675355 .59098818 .47071839 .61499026 .49569703 .625 .5056915 .6499939 .53167727 .6599884 .54267886 .7220001 .6056366 .7619934 .6456146 .84599307 .6516113 .8580017 .65260317 .86898806 .6536102 .86898806 .6696167 .86898806 .6736145 .8659973 .6826172 .8549957 .6826172 .848999 .6826172 .8149872 .680603 .8089905 .680603 .7999878 .6796112 .7769928 .6796112 .7609863 .6796112 .7429962 .6796112 .723999 .680603 .70599368 .680603 .6879883 .680603 .66799929 .6826172 .651001 .6826172 .644989 .6826172 .6319885 .6826172 .6319885 .6646118 .6319885 .65260317 .6439972 .6516113 .6459961 .6516113 .6539917 .65060427 .6839905 .64860537 .6839905 .6226196 .6839905 .6056366 .6609955 .5816498 .6599884 .5806427L.49598695 .40975953 .40699769 .6096344C.4019928 .6196289 .4019928 .6216278 .4019928 .6226196 .4019928 .6276245 .41799928 .64860537 .46099855 .6516113 .46598817 .6516113 .47799684 .65260317 .47799684 .6696167 .47799684 .6786041 .47099305 .6826172 .46299745 .6826172 .44299317 .6826172 .41999818 .680603 .3999939 .680603 .37998963 .680603 .3600006 .6796112 .33898927 .6796112 .30599977 .6796112 .3039856 .6796112 .27999879 .680603L.22499085 .6826172C.22099304 .6826172 .20599365 .6826172 .20599365 .6646118 .20599365 .6516113 .21798706 .6516113 .22999573 .6516113 .2889862 .6516113 .2939911 .64060977 .30299378 .6206207L.42199708 .35379029C.42199708 .35279847 .42799378 .34179688 .42799378 .34080506 .42799378 .33779908 .29899598 .20388794 .28399659 .18888855 .272995 .17790222 .24699402 .14892578 .23599243 .1379242 .1749878 .07696533 .13598633 .036987306 .051986696 .0309906 .039993287 .02999878 .0289917 .0289917 .0289917 .0129852299 .0289917 .0069885256 .032989503 0 .042999269 0 .04899597 0 .08299255 .0019989014 .08898926 .0019989014 .09799194 .0029907227 .12098694 .0029907227 .13699341 .0029907227 .15499878 .0029907227 .17399597 .0019989014 .19198609 .0019989014 .20999146 .0019989014 .22898865 0 .24598694 0 .25099183 0 .2659912 0 .2659912 .017990113 .2659912 .02999878 .2539978 .0309906 .2519989 .0309906 .24398804 .03199768 .21398926 .033996583 .21398926 .05996704 .21398926 .07595825 .22599793 .08895874 .25698854 .12193298L.33399964 .20088196 .3880005 .2568512C.4059906 .27583314 .43199159 .30282594 .43998719 .31282044L.5479889 .07296753C.5529938 .06297302 .5529938 .06097412 .5529938 .05996704 .5529938 .054977418 .5369873 .033996583 .49398805 .0309906 .4889984 .0309906 .47698976 .02999878 .47698976 .0129852299 .47698976 .0039978029 .48399354 0 .49198915 0 .5119934 0 .5349884 .0019989014 .5549927 .0019989014 .57499697 .0019989014 .59498599 .0029907227 .6159973 .0029907227 .6489868 .0029907227 .651001 .0029907227 .6749878 .0019989014L.7299957 0C.73399356 0 .7489929 0 .7489929 .017990113 .7489929 .0309906 .7369995 .0309906 .72499087 .0309906 .66600039 .0309906 .6609955 .041992189 .6519928 .061965944L.5079956 .38276673Z"/>
<path id="font_2_6" d="M.2619934-.25V-.20700073H.16299439V.7069855H.2619934V.75H.11999512V-.25H.2619934Z"/>
<path id="font_1_1" d="M.18199158 .015991211C.18199158-.017044068 .18199158-.09921265 .10798645-.17036438 .101989749-.17636109 .101989749-.17736817 .101989749-.18136597 .101989749-.18836975 .10899353-.19335938 .114990238-.19335938 .12599182-.19335938 .20698548-.115249637 .20698548 .0019989014 .20698548 .06399536 .18499756 .10798645 .14199829 .10798645 .10798645 .10798645 .08799744 .08198547 .08799744 .053985597 .08799744 .025985718 .10798645 0 .14199829 0 .15699768 0 .17199707 .004989624 .18199158 .015991211Z"/>
<path id="font_1_5" d="M.61499026 .56466677C.68699648 .6456146 .7279968 .64860537 .769989 .6516113 .7779999 .65260317 .7819977 .66160586 .7819977 .6696167 .7819977 .6776123 .776001 .6826172 .7689972 .6826172 .7669983 .6826172 .7369995 .6796112 .68699648 .6796112 .6549988 .6796112 .6199951 .6826172 .58898928 .6826172 .58399966 .6826172 .57099917 .6826172 .57099917 .6646118 .57099917 .65260317 .58200076 .6516113 .58799746 .6516113 .60899356 .6496124 .6199951 .64260867 .6199951 .6296234 .6199951 .6116333 .59199526 .5816498 .59098818 .5796509L.35299684 .31381227 .23599243 .6106262C.22999573 .62461856 .22999573 .62661746 .22999573 .62861636 .22999573 .6516113 .27799989 .6516113 .2869873 .6516113 .2999878 .6516113 .31199647 .6516113 .31199647 .6696167 .31199647 .6796112 .30299378 .6826172 .29599 .6826172 .27598573 .6826172 .25299073 .680603 .23298645 .680603 .21199036 .680603 .17199707 .6796112 .17098999 .6796112 .13798523 .6796112 .13598633 .6796112 .11199951 .680603 .09599304 .6816101 .07299805 .6826172 .056991579 .6826172 .051986696 .6826172 .037994386 .6826172 .037994386 .6646118 .037994386 .6516113 .04899597 .6516113 .06098938 .6516113 .11999512 .6516113 .12399292 .6416168 .1329956 .6186218L.2630005 .28782655C.2679901 .2748413 .2679901 .2728424 .2679901 .27183534 .2679901 .26783753 .22799683 .107940677 .22299195 .08995056 .20999146 .035995485 .20899964 .03199768 .12998963 .0309906 .11399841 .0309906 .102996829 .0309906 .102996829 .0129852299 .102996829 .0039978029 .10998535 0 .117996219 0 .13398743 0 .1639862 .0009918213 .18099976 .0019989014 .20199585 .0029907227 .20399475 .0029907227 .24299622 .0029907227 .2749939 .0029907227 .2769928 .0029907227 .30699159 .0019989014 .32699586 .0009918213 .35198976 0 .37098695 0 .37799073 0 .3909912 0 .3909912 .017990113 .3909912 .0309906 .3809967 .0309906 .3600006 .0309906 .35598756 .0309906 .33799745 .0309906 .32199098 .032989503 .2999878 .035995485 .29899598 .039993287 .29899598 .048980714 .29899598 .05596924 .30699159 .08795166 .31199647 .10694885L.32899476 .17790222C.34298707 .22886658 .34298707 .23086548 .35299684 .27383424 .35598756 .2768402 .35798646 .27783204 .3639984 .28483583L.61499026 .56466677Z"/>
<path id="font_2_7" d="M.1639862-.25V.75H.021987915V.7069855H.12098694V-.20700073H.021987915V-.25H.1639862Z"/>
<path id="font_5_1" d="M.6749878 .22944641C.69299319 .22944641 .71199038 .22944641 .71199038 .25144959 .71199038 .27246095 .69200137 .27246095 .6749878 .27246095H.12298584C.10598755 .27246095 .085998538 .27246095 .085998538 .25144959 .085998538 .22944641 .10499573 .22944641 .12298584 .22944641H.6749878Z"/>
<path id="font_2_9" d="M.3999939 .22949219C.42199708 .22949219 .4269867 .22949219 .4269867 .25048829 .4269867 .35333253 .37098695 .4482422 .24299622 .4482422 .12298584 .4482422 .0289917 .3443451 .0289917 .22047425 .0289917 .08932495 .13398743-.0107421879 .2559967-.0107421879 .37799073-.0107421879 .4269867 .096343997 .4269867 .11936951 .4269867 .12637329 .42199708 .13237 .41299439 .13237 .40299989 .13237 .3999939 .12536621 .39898683 .12136841 .36499024 .019256592 .27598573 .01725769 .26098634 .01725769 .21299744 .01725769 .17199707 .044281007 .14898682 .078323367 .115997318 .12736511 .114990238 .18743897 .114990238 .22949219H.3999939M.115997318 .253479C.125 .40725709 .21499634 .42323304 .24299622 .42323304 .2979889 .42323304 .35798646 .38130189 .35899354 .253479H.115997318Z"/>
<path id="font_2_11" d="M.30499269 .224823C.2979889 .23381043 .2979889 .23480225 .2979889 .23580933 .2979889 .23780823 .37599183 .3327179 .38398744 .3407135 .4149933 .37467958 .44898988 .39865113 .5099945 .3996582V.43066407C.48098756 .42765809 .45399476 .42765809 .4249878 .42765809 .3869934 .42765809 .36898805 .42765809 .32899476 .43066407V.3996582C.34399415 .3976593 .35699464 .3896637 .35699464 .36968995 .35699464 .35369874 .34799195 .3427124 .34298707 .3367157L.2789917 .25778199 .20098877 .35668946C.19400025 .36569215 .19198609 .36769105 .19198609 .37467958 .19198609 .38667298 .20298767 .39865113 .22599793 .3996582V.43066407C.18798828 .4286499 .1619873 .42765809 .116989139 .42765809 .114990238 .42765809 .057998659 .42765809 .018997193 .43066407V.3996582C.08799744 .3996582 .08999634 .3976593 .13598633 .3387146L.23899842 .20982361C.21699524 .18385315 .1639862 .11791992 .14199829 .092941287 .09199524 .032989503 .034988405 .0309906 .01399231 .0309906V0C.042999269 .0029907227 .069992069 .0029907227 .09899902 .0029907227 .1309967 .0029907227 .16299439 .0019989014 .19499207 0V.0309906C.16999817 .033996583 .16699219 .050979616 .16699219 .060958864 .16699219 .063964847 .16699219 .07795715 .18199158 .09593201 .20599365 .12690735 .23199463 .15687561 .25698854 .18684387L.33599855 .0859375C.35499574 .063964847 .35499574 .061965944 .35499574 .05596924 .35499574 .04498291 .34498597 .03199768 .32099916 .0309906V0C.36299134 .0019989014 .3869934 .0029907227 .42999269 .0029907227 .43199159 .0029907227 .4889984 .0029907227 .5279999 0V.0309906C.48799134 .0309906 .45799256 .0309906 .43598939 .05895996L.30499269 .224823Z"/>
<path id="font_2_10" d="M.18099976 .3363495C.21499634 .3943634 .269989 .41436769 .31199647 .41436769 .3899994 .41436769 .44999696 .32434083 .44999696 .2163086 .44999696 .10227966 .38198854 .014251709 .30099488 .014251709 .2559967 .014251709 .21798706 .040252687 .19400025 .07527161 .18099976 .09527588 .18099976 .09727478 .18099976 .11628723V.3363495M.18099976 .04826355C.20698548 .022247315 .24099732-.0107421879 .30699159-.0107421879 .42599488-.0107421879 .5359955 .08526611 .5359955 .2163086 .5359955 .3423462 .43798829 .4423828 .31999208 .4423828 .2659912 .4423828 .21598816 .42037965 .17799378 .379364V.4416504L.02999878 .43066407V.3996582C.100997928 .3996582 .10699463 .3936615 .10699463 .35066224V-.11734009C.10699463-.16334534 .09599304-.16334534 .02999878-.16334534V-.19433594C.07699585-.19233704 .09599304-.19134522 .14399719-.19134522 .19198609-.19134522 .20498657-.19233704 .2579956-.19433594V-.16334534C.19198609-.16334534 .18099976-.16334534 .18099976-.11734009V.04826355Z"/>
<path id="font_6_1" d="M.7599945 .69506838C.7599945 .69807437 .7579956 .7050781 .7489929 .7050781 .74598696 .7050781 .7449951 .70407107 .73399356 .69306948L.6639862 .61598208C.6549988 .6300049 .60899356 .7050781 .49798585 .7050781 .2749939 .7050781 .049987794 .4837799 .049987794 .25144959 .049987794 .09249878 .16099549-.022460938 .32299806-.022460938 .36698915-.022460938 .4119873-.013473511 .44799806 .0015258789 .49798585 .021530152 .5169983 .042526246 .5349884 .06251526 .5439911 .037521364 .56999209 .0005340576 .5799866 .0005340576 .58499148 .0005340576 .58699038 .0035247803 .58699038 .0045318605 .58898928 .0065307619 .598999 .044525148 .60398867 .06550598L.6230011 .14248657C.6269989 .15948487 .6319885 .1764679 .6359863 .19346619 .6469879 .2384491 .647995 .240448 .7049866 .24145508 .70999148 .24145508 .72099307 .2424469 .72099307 .26145936 .72099307 .26844789 .71598818 .27246095 .70799258 .27246095 .68499758 .27246095 .6259918 .26945497 .6029968 .26945497 .57199099 .26945497 .49398805 .27246095 .46299745 .27246095 .45399476 .27246095 .44198609 .27246095 .44198609 .25245667 .44198609 .24145508 .44999696 .24145508 .47200013 .24145508 .47299195 .24145508 .5019989 .24145508 .5249939 .23945618 .5509949 .2364502 .55599978 .23345948 .55599978 .22045899 .55599978 .2114563 .54499819 .16647339 .5349884 .12948609 .5069885 .01953125 .3769989 .008529663 .34199525 .008529663 .24598694 .008529663 .14099121 .06550598 .14099121 .21846009 .14099121 .24945069 .15098572 .41467286 .2559967 .5448761 .30999757 .6129761 .40699769 .67407229 .5059967 .67407229 .60798647 .67407229 .6669922 .59695437 .6669922 .48077394 .6669922 .44070436 .6639862 .43971253 .6639862 .4296875 .6639862 .41967774 .6749878 .41967774 .67900088 .41967774 .69200137 .41967774 .69200137 .42167665 .69699099 .43971253L.7599945 .69506838Z"/>
<path id="font_7_71" d="M.59799197 .25785829H.56999209C.5589905 .15692139 .54499819 .0309906 .3659973 .0309906H.2789917C.23199463 .0309906 .22999573 .037994386 .22999573 .07196045V.6026306C.22999573 .6396179 .23399353 .6516113 .32499696 .6516113H.35699464V.6826172C.32199098 .6796112 .23098755 .6796112 .19099427 .6796112 .14498902 .6796112 .08299255 .6796112 .037994386 .6826172V.6516113H.06098938C.13798523 .6516113 .13999939 .64060977 .13999939 .6036377V.07896423C.13999939 .041992189 .13798523 .0309906 .06098938 .0309906H.037994386V0H.56999209L.59799197 .25785829Z"/>
<path id="font_7_66" d="M.25299073 0V.0309906C.18798828 .0309906 .18399048 .035995485 .18399048 .075042728V.4423828L.039993287 .43066407V.3996582C.10398865 .3996582 .11299133 .3936615 .11299133 .3447113V.07695007C.11299133 .0309906 .101989749 .0309906 .035995485 .0309906V0C.08099365 .0019989014 .101989749 .0029907227 .1459961 .0029907227 .1619873 .0029907227 .20399475 .0029907227 .25299073 0M.19699097 .6028137C.19699097 .63282778 .17298889 .6568146 .14299011 .6568146 .11299133 .6568146 .08898926 .63282778 .08898926 .6028137 .08898926 .57281497 .11299133 .5488281 .14299011 .5488281 .17298889 .5488281 .19699097 .57281497 .19699097 .6028137Z"/>
<path id="font_7_50" d="M.4269867 .11936951C.4269867 .12637329 .42199708 .13237 .41299439 .13237 .40299989 .13237 .3999939 .12536621 .39898683 .12136841 .36499024 .019256592 .27598573 .01725769 .26098634 .01725769 .21299744 .01725769 .17199707 .044281007 .14898682 .078323367 .115997318 .12736511 .114990238 .18743897 .114990238 .22949219H.3999939C.42199708 .22949219 .4269867 .22949219 .4269867 .25048829 .4269867 .35333253 .37098695 .4482422 .24299622 .4482422 .12298584 .4482422 .0289917 .3443451 .0289917 .22047425 .0289917 .08932495 .13398743-.0107421879 .2559967-.0107421879 .37799073-.0107421879 .4269867 .096343997 .4269867 .11936951M.35899354 .253479H.115997318C.125 .40725709 .21499634 .42323304 .24299622 .42323304 .2979889 .42323304 .35798646 .38130189 .35899354 .253479Z"/>
<path id="font_7_59" d="M.49899293 .40338136C.49899293 .42237855 .4850006 .45336915 .44499208 .45336915 .41600038 .45336915 .37098695 .4423828 .33599855 .40637208 .30899049 .42837525 .269989 .4423828 .22799683 .4423828 .1329956 .4423828 .06098938 .3743744 .06098938 .29537965 .06098938 .2443695 .09098816 .20837403 .10699463 .19337464 .10499573 .19137573 .07699585 .15637207 .07699585 .11038208 .07699585 .07637024 .09298706 .040374757 .11999512 .022369385 .068984989 .005874634 .0289917-.03111267 .0289917-.07809448 .0289917-.14907837 .12799073-.20605469 .2559967-.20605469 .3789978-.20605469 .48399354-.15307617 .48399354-.07609558 .48399354-.035110475 .46499635 .008880615 .42799378 .03288269 .37199403 .067871097 .31399537 .067871097 .21899414 .067871097 .19898987 .067871097 .16699219 .067871097 .15899658 .069885257 .12998963 .075927738 .11099243 .1031189 .11099243 .13534546 .11099243 .15142823 .115997318 .16642761 .125 .1794281 .1499939 .16343689 .18099976 .1484375 .22698975 .1484375 .32199098 .1484375 .3939972 .21643067 .3939972 .29542542 .3939972 .34443666 .3659973 .37843324 .35299684 .39242555 .3929901 .42843629 .43998719 .42843629 .45199586 .42843629 .44699098 .4254303 .43899537 .42042542 .43899537 .4024353 .43899537 .39143373 .44599916 .37243653 .46899415 .37243653 .48298646 .37243653 .49899293 .38243104 .49899293 .40342713V.40338136M.31698609 .29542542C.31698609 .27243043 .31698609 .1754303 .22698975 .1754303 .13798523 .17520142 .13798523 .27326966 .13798523 .2952881 .13798523 .3223114 .13999939 .35632325 .15699768 .38034059 .17199707 .4003601 .19898987 .41537477 .22698975 .41537477 .31698609 .41537477 .31698609 .31829835 .31698609 .2952881V.29542542M.42799378-.07698059C.42799378-.1340332 .35099793-.17906189 .25698854-.17906189 .15899658-.17912293 .084991458-.13212586 .084991458-.07711792 .084991458-.06112671 .09498596 .0048828127 .18099976 .0048828127H.272995C.30499269 .0048828127 .42799378 .0038757325 .42799378-.07711792V-.07698059Z"/>
<path id="font_7_96" d="M.37298585 .3798828C.37298585 .41236878 .34298707 .4423828 .2979889 .4423828 .23799134 .4423828 .19599915 .40037538 .17298889 .33787538H.17199707V.4423828L.02999878 .43066407V.3996582C.09799194 .3996582 .10699463 .3927307 .10699463 .34387208V.07698059C.10699463 .0309906 .09599304 .0309906 .02999878 .0309906V0C.08299255 .0019989014 .09599304 .0029907227 .14698792 .0029907227L.27398683 0V.0309906H.2539978C.18099976 .0309906 .17799378 .041992189 .17799378 .07897949V.22891236C.17799378 .26989747 .18899536 .4166565 .30299378 .4166565V.4156494C.30099488 .4146576 .2849884 .40264894 .2849884 .37887574 .2849884 .35186769 .30599977 .33486939 .32899476 .33486939 .34999085 .33486939 .37298585 .34986878 .37298585 .3798828Z"/>
<path id="font_7_81" d="M.48399354 .21324158C.48399354 .34423829 .37998963 .4482422 .25698854 .4482422 .12998963 .4482422 .0289917 .3412323 .0289917 .21324158 .0289917 .08824158 .1329956-.0107421879 .2559967-.0107421879 .3829956-.0107421879 .48399354 .09024048 .48399354 .21324158M.397995 .22224427C.397995 .1852417 .397995 .12724304 .37298585 .08325195 .34498597 .037246705 .29899598 .01725769 .25698854 .01725769 .20698548 .01725769 .16499329 .042251588 .14199829 .08125305 .115997318 .12324524 .114990238 .17623902 .114990238 .22224427 .114990238 .25924684 .114990238 .3162384 .13999939 .35723878 .16999817 .40823365 .21998596 .42323304 .2559967 .42323304 .31298829 .42323304 .35398866 .39123536 .37399293 .35723878 .39698792 .31523133 .397995 .26423646 .397995 .22224427Z"/>
<path id="font_7_109" d="M.5469971 .00024414063V.03125C.47898866 .03125 .46998597 .038253786 .46998597 .087265018V.4423828L.31900025 .43138124V.40037538C.3869934 .40037538 .3959961 .39337159 .3959961 .34436036V.16729737C.3959961 .07826233 .34599305 .014251709 .27398683 .014251709 .19099427 .014251709 .18598938 .057266237 .18598938 .11128235V.4423828L.034988405 .43138124V.40037538C.11199951 .40037538 .11199951 .39736939 .11199951 .3083496V.15829468C.11199951 .09327698 .11199951 .051254274 .1579895 .01625061 .18699646-.003753662 .22799683-.0107421879 .2679901-.0107421879 .31999208-.0107421879 .36898805 .012252808 .397995 .072265628H.39898683V-.0107421879L.5469971 .00024414063Z"/>
<path id="font_7_84" d="M.5359955 .21557617C.5359955 .34158326 .43798829 .4423828 .31999208 .4423828 .2659912 .4423828 .21598816 .42037965 .17799378 .37858583V.4423828L.02999878 .43066407V.3996582C.100997928 .3996582 .10699463 .39363099 .10699463 .35058595V-.116989139C.10699463-.16308594 .09599304-.16308594 .02999878-.16308594V-.1940918C.07699585-.1920929 .09599304-.19110108 .14399719-.19110108 .19198609-.19110108 .20498657-.1920929 .2579956-.1940918V-.16308594C.19198609-.16308594 .18099976-.16308594 .18099976-.116989139V.048187257C.20698548 .022232056 .24099732-.0107421879 .30699159-.0107421879 .42599488-.0107421879 .5359955 .085113529 .5359955 .21585083V.21557617M.44999696 .21585083C.44999696 .1020813 .38198854 .014251709 .30099488 .014251709 .2559967 .014251709 .21798706 .04019165 .19400025 .07513428 .18099976 .09509277 .18099976 .097091678 .18099976 .11604309V.3356018C.21499634 .39437867 .269989 .41436769 .31199647 .41436769 .3899994 .41436769 .44999696 .32437135 .44999696 .21636963V.21585083Z"/>
<path id="font_7_28" d="M.49699403 .089141849V.14515686H.46899415V.090148929C.46899415 .07914734 .46899415 .029129029 .43299867 .029129029 .39698792 .029129029 .39698792 .07714844 .39698792 .09315491V.26818849C.39698792 .32521058 .39698792 .3592224 .35198976 .40022279 .31498719 .43322755 .2669983 .4482422 .21699524 .4482422 .1329956 .4482422 .06298828 .40623475 .06298828 .34220887 .06298828 .311203 .083999637 .2942047 .10998535 .2942047 .13699341 .2942047 .1559906 .31420899 .1559906 .34020997 .1559906 .3832245 .11099243 .38822938 .11099243 .38822938 .13798523 .41423036 .18598938 .42323304 .21499634 .42323304 .2659912 .42323304 .32299806 .3852234 .32299806 .29719544V.26419068C.2689972 .26219178 .19400025 .2571869 .1269989 .22518921 .054992677 .19017029 .032989503 .13816834 .032989503 .09814453 .032989503 .01625061 .12998963-.0107421879 .19699097-.0107421879 .27999879-.0107421879 .31799317 .04425049 .33198548 .072250369 .33699037 .030136109 .3659973-.005859375 .40899659-.005859375 .43399049-.005859375 .49699403 .009140015 .49699403 .08912659V.089141849M.32299806 .14112854C.32299806 .04425049 .24798584 .014251709 .20399475 .014251709 .15699768 .014251709 .11299133 .04824829 .11299133 .098236087 .11299133 .16423035 .16999817 .23422241 .32299806 .24023438V.14112854Z"/>
<path id="font_7_72" d="M.26098634 0V.0309906C.19499207 .0309906 .18399048 .0309906 .18399048 .07701111V.69433596L.035995485 .6826172V.6516113C.10398865 .6516113 .11299133 .64460757 .11299133 .5956421V.07696533C.11299133 .0309906 .101989749 .0309906 .035995485 .0309906V0C.08299255 .0019989014 .101989749 .0029907227 .147995 .0029907227 .19499207 .0029907227 .21199036 .0019989014 .26098634 0Z"/>
<path id="font_7_35" d="M.5359955 .21636963C.5359955 .34144593 .43699647 .4423828 .31698609 .4423828 .24899292 .4423828 .20199585 .4073944 .17799378 .38046266V.69433596L.02999878 .68333438V.6523285C.09799194 .6523285 .10699463 .6453247 .10699463 .596344V.00024414063H.1349945L.17199707 .061279298C.20298767 .01725769 .25299073-.0107421879 .30699159-.0107421879 .42599488-.0107421879 .5359955 .08529663 .5359955 .21636963M.44999696 .21737671C.44999696 .17034912 .44400025 .11730957 .41799928 .07728577 .3959961 .045272829 .35499574 .014251709 .3019867 .014251709 .25698854 .014251709 .21899414 .038269044 .19499207 .075286868 .18099976 .09629822 .18099976 .0973053 .18099976 .11631775V.31944276C.18099976 .3384552 .18099976 .33944703 .19198609 .35546876 .22599793 .40141297 .2749939 .41737367 .31298829 .41737367 .35598756 .41737367 .3959961 .39343263 .42199708 .3514557 .44799806 .3084259 .44999696 .24938965 .44999696 .21737671Z"/>
<path id="font_2_4" d="M.19599915 .3766632C.19599915 .406662 .17199707 .43066407 .14199829 .43066407 .11199951 .43066407 .08799744 .406662 .08799744 .3766632 .08799744 .34765626 .11199951 .32266236 .14199829 .32266236 .17199707 .32266236 .19599915 .34765626 .19599915 .3766632M.19599915 .053985597C.19599915 .08299255 .17199707 .10798645 .14199829 .10798645 .11199951 .10798645 .08799744 .08299255 .08799744 .053985597 .08799744 .023986817 .11199951 0 .14199829 0 .17199707 0 .19599915 .023986817 .19599915 .053985597Z"/>
<path id="font_5_2" d="M.8509979 .22944641C.7319946 .14404297 .70799258 .012786865 .70799258 .0017852783 .70799258-.012207031 .72099307-.012207031 .72898867-.012207031 .7409973-.012207031 .7480011-.012207031 .7509918 .00079345706 .7779999 .118927 .8470001 .19729615 .95599368 .23745728 .96199038 .23945618 .9700012 .2424469 .9700012 .25045777 .9700012 .25946046 .96299746 .26245118 .95700076 .26445008 .83099368 .31137086 .7739868 .400177 .7509918 .4981537 .7480011 .512146 .74398806 .5131531 .72898867 .5131531 .7200012 .5131531 .70799258 .5131531 .70799258 .4991455 .70799258 .48814393 .7319946 .3562622 .8509979 .27246095H.09399414C.07699585 .27246095 .056991579 .27246095 .056991579 .25144959 .056991579 .22944641 .07598877 .22944641 .09399414 .22944641H.8509979Z"/>
<path id="font_2_3" d="M.47299195 .31976319C.47299195 .38682557 .46998597 .47288514 .43499757 .5479431 .3909912 .64201357 .31498719 .6660156 .25698854 .6660156 .19699097 .6660156 .12098694 .64201357 .07699585 .5459442 .04499817 .47688294 .039993287 .39582826 .039993287 .31976319 .039993287 .25471498 .041992189 .15765381 .084991458 .07858276 .13198853-.0064697267 .20999146-.022460938 .2559967-.022460938 .32099916-.022460938 .394989 .0055389406 .43699647 .097595218 .46699525 .1646576 .47299195 .23971558 .47299195 .31976319M.25698854 .002532959C.22698975 .002532959 .15499878 .016540528 .13598633 .12962342 .12599182 .18867493 .12599182 .2747345 .12599182 .33177186 .12599182 .39982606 .12599182 .47888185 .13798523 .53393557 .1579895 .6230011 .22200012 .64100649 .2559967 .64100649 .2939911 .64100649 .35699464 .62098696 .37599183 .5279236 .3869934 .47288514 .3869934 .39482118 .3869934 .33177186 .3869934 .2697296 .3869934 .18566895 .3769989 .12661743 .35598756 .012542725 .28199769 .002532959 .25698854 .002532959Z"/>
<path id="font_2_8" d="M.19599915 .615921C.19599915 .6459198 .17199707 .6699219 .14199829 .6699219 .11199951 .6699219 .08799744 .6459198 .08799744 .615921 .08799744 .585907 .11199951 .56192019 .14199829 .56192019 .17199707 .56192019 .19599915 .585907 .19599915 .615921Z"/>
</defs>
<path transform="matrix(1,0,0,-1,113.449619,126.32031)" d="M104.88309 0C104.88309 26.61464 57.92607 48.18947 0 48.18947-57.92607 48.18947-104.88309 26.61464-104.88309 0-104.88309-26.61464-57.92607-48.18947 0-48.18947 57.92607-48.18947 104.88309-26.61464 104.88309 0ZM0 0" fill="#e6e6ff" fill-opacity=".6"/>
<path transform="matrix(1,0,0,-1,113.449619,126.32031)" stroke-width="1.19553" stroke-linecap="butt" stroke-miterlimit="10" stroke-linejoin="miter" fill="none" stroke="#000099" d="M104.88309 0C104.88309 26.61464 57.92607 48.18947 0 48.18947-57.92607 48.18947-104.88309 26.61464-104.88309 0-104.88309-26.61464-57.92607-48.18947 0-48.18947 57.92607-48.18947 104.88309-26.61464 104.88309 0ZM0 0"/>
<path transform="matrix(1,0,0,-1,113.449619,126.32031)" d="M1.98447 0C1.98447 1.096 1.096 1.98447 0 1.98447-1.096 1.98447-1.98447 1.096-1.98447 0-1.98447-1.096-1.096-1.98447 0-1.98447 1.096-1.98447 1.98447-1.096 1.98447 0ZM0 0"/>
<use data-text="e" xlink:href="#font_1_6" transform="matrix(8.966376,0,0,-8.966376,104.22807,135.1181)"/>
<path transform="matrix(.9842,-.17688,-.17688,-.9842,143.52222,112.72611)" d="M5.30629 0C4.65466 .16344 1.79025 1.08963 0 2.09753V-2.09753C1.79025-1.08963 4.65466-.16344 5.30629 0Z"/>
<path transform="matrix(.9842,-.17688,-.17688,-.9842,143.52222,112.72611)" stroke-width=".3985" stroke-linecap="butt" stroke-miterlimit="10" stroke-linejoin="miter" fill="none" stroke="#000000" d="M5.30629 0C4.65466 .16344 1.79025 1.08963 0 2.09753V-2.09753C1.79025-1.08963 4.65466-.16344 5.30629 0Z"/>
<path transform="matrix(1,0,0,-1,113.449619,126.32031)" stroke-width="1.19553" stroke-linecap="butt" stroke-miterlimit="10" stroke-linejoin="miter" fill="none" stroke="#b30000" d="M70.86508 14.17299"/>
<path transform="matrix(0,-1,-1,-0,184.3147,119.91826)" d="M5.30629 0C4.65466 .16344 1.79025 1.08963 0 2.09753V-2.09753C1.79025-1.08963 4.65466-.16344 5.30629 0Z" fill="#b30000"/>
<path transform="matrix(0,-1,-1,-0,184.3147,119.91826)" stroke-width="1.19553" stroke-linecap="butt" stroke-miterlimit="10" stroke-linejoin="miter" fill="none" stroke="#b30000" d="M5.30629 0C4.65466 .16344 1.79025 1.08963 0 2.09753V-2.09753C1.79025-1.08963 4.65466-.16344 5.30629 0Z"/>
<use data-text="g" xlink:href="#font_1_7" transform="matrix(8.966376,0,0,-8.966376,189.25388,114.973018)" fill="#b30000"/>
<use data-text="(" xlink:href="#font_2_1" transform="matrix(8.966376,0,0,-8.966376,193.96982,114.973018)" fill="#b30000"/>
<use data-text="t" xlink:href="#font_1_8" transform="matrix(8.966376,0,0,-8.966376,197.55358,114.973018)" fill="#b30000"/>
<use data-text=")" xlink:href="#font_2_2" transform="matrix(8.966376,0,0,-8.966376,200.88135,114.973018)" fill="#b30000"/>
<use data-text="=" xlink:href="#font_2_5" transform="matrix(8.966376,0,0,-8.966376,207.01435,114.973018)" fill="#b30000"/>
<use data-text="e" xlink:href="#font_1_6" transform="matrix(8.966376,0,0,-8.966376,216.75229,114.973018)" fill="#b30000"/>
<use data-text="t" xlink:href="#font_3_3" transform="matrix(5.977584,0,0,-5.977584,221.03655,111.16402)" fill="#b30000"/>
<use data-text="X" xlink:href="#font_3_1" transform="matrix(5.977584,0,0,-5.977584,223.88187,111.16402)" fill="#b30000"/>
<path transform="matrix(1,0,0,-1,113.449619,126.32031)" d="M-48.18947 65.19777H48.18947L59.52846 93.54456H-36.85092Z" fill="#ffe8d1"/>
<path transform="matrix(1,0,0,-1,113.449619,126.32031)" stroke-width="1.19553" stroke-linecap="butt" stroke-miterlimit="10" stroke-linejoin="miter" fill="none" stroke="#b35900" d="M-48.18947 65.19777H48.18947L59.52846 93.54456H-36.85092Z"/>
<use data-text="g" xlink:href="#font_4_1" transform="matrix(8.966376,0,0,-8.966376,133.2087,71.33649)"/>
<use data-text="=" xlink:href="#font_2_5" transform="matrix(8.966376,0,0,-8.966376,140.28488,71.33649)"/>
<use data-text="T" xlink:href="#font_1_3" transform="matrix(8.966376,0,0,-8.966376,150.01224,71.33649)"/>
<use data-text="e" xlink:href="#font_3_2" transform="matrix(5.977584,0,0,-5.977584,155.38823,72.33273)"/>
<use data-text="G" xlink:href="#font_1_2" transform="matrix(8.966376,0,0,-8.966376,159.4072,71.33649)"/>
<path transform="matrix(1,0,0,-1,113.449619,126.32031)" d="M1.4174 76.53632C1.4174 77.31914 .78282 77.95374 0 77.95374-.78282 77.95374-1.4174 77.31914-1.4174 76.53632-1.4174 75.7535-.78282 75.1189 0 75.1189 .78282 75.1189 1.4174 75.7535 1.4174 76.53632ZM0 76.53632"/>
<use data-text="e" xlink:href="#font_1_6" transform="matrix(8.966376,0,0,-8.966376,105.64549,45.697137)"/>
<path transform="matrix(1,0,0,-1,113.449619,126.32031)" stroke-width="1.19553" stroke-linecap="butt" stroke-miterlimit="10" stroke-linejoin="miter" fill="none" stroke="#b30000" d="M0 76.53632 20.90396 82.80756"/>
<path transform="matrix(.95778,-.28734,-.28734,-.95778,134.35356,43.51275)" d="M5.30629 0C4.65466 .16344 1.79025 1.08963 0 2.09753V-2.09753C1.79025-1.08963 4.65466-.16344 5.30629 0Z" fill="#b30000"/>
<path transform="matrix(.95778,-.28734,-.28734,-.95778,134.35356,43.51275)" stroke-width="1.19553" stroke-linecap="butt" stroke-miterlimit="10" stroke-linejoin="miter" fill="none" stroke="#b30000" d="M5.30629 0C4.65466 .16344 1.79025 1.08963 0 2.09753V-2.09753C1.79025-1.08963 4.65466-.16344 5.30629 0Z"/>
<use data-text="X" xlink:href="#font_1_4" transform="matrix(8.966376,0,0,-8.966376,139.05683,37.193017)"/>
<use data-text="[" xlink:href="#font_2_6" transform="matrix(8.966376,0,0,-8.966376,68.77996,18.00953)"/>
<use data-text="X" xlink:href="#font_1_4" transform="matrix(8.966376,0,0,-8.966376,71.33979,18.00953)"/>
<use data-text="," xlink:href="#font_1_1" transform="matrix(8.966376,0,0,-8.966376,79.13158,18.00953)"/>
<use data-text="Y" xlink:href="#font_1_5" transform="matrix(8.966376,0,0,-8.966376,83.22024,18.00953)"/>
<use data-text="]" xlink:href="#font_2_7" transform="matrix(8.966376,0,0,-8.966376,90.63398,18.00953)"/>
<use data-text="=" xlink:href="#font_2_5" transform="matrix(8.966376,0,0,-8.966376,95.74481,18.00953)"/>
<use data-text="X" xlink:href="#font_1_4" transform="matrix(8.966376,0,0,-8.966376,105.48099,18.00953)"/>
<use data-text="Y" xlink:href="#font_1_5" transform="matrix(8.966376,0,0,-8.966376,113.783847,18.00953)"/>
<use data-text="&#x2212;" xlink:href="#font_5_1" transform="matrix(8.966376,0,0,-8.966376,123.23929,18.00953)"/>
<use data-text="Y" xlink:href="#font_1_5" transform="matrix(8.966376,0,0,-8.966376,132.45467,18.00953)"/>
<use data-text="X" xlink:href="#font_1_4" transform="matrix(8.966376,0,0,-8.966376,139.84296,18.00953)"/>
<path transform="matrix(1,0,0,-1,113.449619,126.32031)" stroke-width="1.59404" stroke-linecap="butt" stroke-miterlimit="10" stroke-linejoin="miter" fill="none" stroke="#4c4d4c" d="M39.68535 73.70186C28.3468 56.69362 28.3468 39.68535 28.3468 23.53842"/>
<path transform="matrix(0,1,1,0,141.79642,102.78189)" d="M6.07884 0C5.33234 .18881 2.0509 1.25874 0 2.4231V-2.4231C2.0509-1.25874 5.33234-.18881 6.07884 0Z" fill="#4c4d4c"/>
<path transform="matrix(0,1,1,0,141.79642,102.78189)" stroke-width="1.59404" stroke-linecap="butt" stroke-miterlimit="10" stroke-linejoin="miter" fill="none" stroke="#4c4d4c" d="M6.07884 0C5.33234 .18881 2.0509 1.25874 0 2.4231V-2.4231C2.0509-1.25874 5.33234-.18881 6.07884 0Z"/>
<use data-text="e" xlink:href="#font_2_9" transform="matrix(8.966376,0,0,-8.966376,158.0722,79.18936)"/>
<use data-text="x" xlink:href="#font_2_11" transform="matrix(8.966376,0,0,-8.966376,162.16983,79.18936)"/>
<use data-text="p" xlink:href="#font_2_10" transform="matrix(8.966376,0,0,-8.966376,167.0296,79.18936)"/>
<use data-text="G" xlink:href="#font_6_1" transform="matrix(9.96264,0,0,-9.96264,216.18326,138.22837)" fill="#000099"/>
<use data-text="L" xlink:href="#font_7_71" transform="matrix(8.966376,0,0,-8.966376,216.18326,146.88407)" fill="#000099"/>
<use data-text="i" xlink:href="#font_7_66" transform="matrix(8.966376,0,0,-8.966376,221.93967,146.88407)" fill="#000099"/>
<use data-text="e" xlink:href="#font_7_50" transform="matrix(8.966376,0,0,-8.966376,224.50406,146.88407)" fill="#000099"/>
<use data-text="g" xlink:href="#font_7_59" transform="matrix(8.966376,0,0,-8.966376,231.67716,146.88407)" fill="#000099"/>
<use data-text="r" xlink:href="#font_7_96" transform="matrix(8.966376,0,0,-8.966376,236.28588,146.88407)" fill="#000099"/>
<use data-text="o" xlink:href="#font_7_81" transform="matrix(8.966376,0,0,-8.966376,239.89035,146.88407)" fill="#000099"/>
<use data-text="u" xlink:href="#font_7_109" transform="matrix(8.966376,0,0,-8.966376,244.49907,146.88407)" fill="#000099"/>
<use data-text="p" xlink:href="#font_7_84" transform="matrix(8.966376,0,0,-8.966376,249.61887,146.88407)" fill="#000099"/>
<use data-text="g" xlink:href="#font_4_1" transform="matrix(9.96264,0,0,-9.96264,216.18326,42.705995)" fill="#b35900"/>
<use data-text="L" xlink:href="#font_7_71" transform="matrix(8.966376,0,0,-8.966376,216.18326,53.38929)" fill="#b35900"/>
<use data-text="i" xlink:href="#font_7_66" transform="matrix(8.966376,0,0,-8.966376,221.93967,53.38929)" fill="#b35900"/>
<use data-text="e" xlink:href="#font_7_50" transform="matrix(8.966376,0,0,-8.966376,224.50406,53.38929)" fill="#b35900"/>
<use data-text="a" xlink:href="#font_7_28" transform="matrix(8.966376,0,0,-8.966376,231.67716,53.38929)" fill="#b35900"/>
<use data-text="l" xlink:href="#font_7_72" transform="matrix(8.966376,0,0,-8.966376,236.28588,53.38929)" fill="#b35900"/>
<use data-text="g" xlink:href="#font_7_59" transform="matrix(8.966376,0,0,-8.966376,238.85025,53.38929)" fill="#b35900"/>
<use data-text="e" xlink:href="#font_7_50" transform="matrix(8.966376,0,0,-8.966376,243.45897,53.38929)" fill="#b35900"/>
<use data-text="b" xlink:href="#font_7_35" transform="matrix(8.966376,0,0,-8.966376,247.55661,53.38929)" fill="#b35900"/>
<use data-text="r" xlink:href="#font_7_96" transform="matrix(8.966376,0,0,-8.966376,252.6764,53.38929)" fill="#b35900"/>
<use data-text="a" xlink:href="#font_7_28" transform="matrix(8.966376,0,0,-8.966376,256.28089,53.38929)" fill="#b35900"/>
<use data-text="e" xlink:href="#font_2_9" transform="matrix(8.966376,0,0,-8.966376,41.394605,193.25862)"/>
<use data-text="x" xlink:href="#font_2_11" transform="matrix(8.966376,0,0,-8.966376,45.492238,193.25862)"/>
<use data-text="p" xlink:href="#font_2_10" transform="matrix(8.966376,0,0,-8.966376,50.352014,193.25862)"/>
<use data-text=":" xlink:href="#font_2_4" transform="matrix(8.966376,0,0,-8.966376,58.018266,193.25862)"/>
<use data-text="g" xlink:href="#font_4_1" transform="matrix(8.966376,0,0,-8.966376,63.156595,193.25862)"/>
<use data-text="&#x2192;" xlink:href="#font_5_2" transform="matrix(8.966376,0,0,-8.966376,70.232799,193.25862)"/>
<use data-text="G" xlink:href="#font_1_2" transform="matrix(8.966376,0,0,-8.966376,82.008,193.25862)"/>
<use data-text="," xlink:href="#font_1_1" transform="matrix(8.966376,0,0,-8.966376,89.21697,193.25862)"/>
<use data-text="g" xlink:href="#font_1_7" transform="matrix(8.966376,0,0,-8.966376,102.27202,193.25862)"/>
<use data-text="(" xlink:href="#font_2_1" transform="matrix(8.966376,0,0,-8.966376,107.00186,193.25862)"/>
<use data-text="0" xlink:href="#font_2_3" transform="matrix(8.966376,0,0,-8.966376,110.579448,193.25862)"/>
<use data-text=")" xlink:href="#font_2_2" transform="matrix(8.966376,0,0,-8.966376,115.1792,193.25862)"/>
<use data-text="=" xlink:href="#font_2_5" transform="matrix(8.966376,0,0,-8.966376,121.3122,193.25862)"/>
<use data-text="e" xlink:href="#font_1_6" transform="matrix(8.966376,0,0,-8.966376,131.06424,193.25862)"/>
<use data-text="," xlink:href="#font_1_1" transform="matrix(8.966376,0,0,-8.966376,135.3412,193.25862)"/>
<use data-text="&#x02d9;" xlink:href="#font_2_8" transform="matrix(8.966376,0,0,-8.966376,149.74463,193.25862)"/>
<use data-text="g" xlink:href="#font_1_7" transform="matrix(8.966376,0,0,-8.966376,148.4106,193.25862)"/>
<use data-text="(" xlink:href="#font_2_1" transform="matrix(8.966376,0,0,-8.966376,153.12653,193.25862)"/>
<use data-text="0" xlink:href="#font_2_3" transform="matrix(8.966376,0,0,-8.966376,156.70412,193.25862)"/>
<use data-text=")" xlink:href="#font_2_2" transform="matrix(8.966376,0,0,-8.966376,161.30387,193.25862)"/>
<use data-text="=" xlink:href="#font_2_5" transform="matrix(8.966376,0,0,-8.966376,167.43688,193.25862)"/>
<use data-text="X" xlink:href="#font_1_4" transform="matrix(8.966376,0,0,-8.966376,177.1889,193.25862)"/>
</svg>
