<svg xmlns="http://www.w3.org/2000/svg" xmlns:xlink="http://www.w3.org/1999/xlink" xmlns:inkscape="http://www.inkscape.org/namespaces/inkscape" version="1.1" width="348.79" height="204.72" viewBox="0 0 348.79 204.72">
<defs>
<path id="font_1_1" d="M.644989 .69506838C.644989 .69807437 .6429901 .7050781 .6339874 .7050781 .6289978 .7050781 .6279907 .70407107 .6159973 .6900635L.56799319 .6330414C.5419922 .68006899 .48999024 .7050781 .4249878 .7050781 .2979889 .7050781 .17799378 .58999636 .17799378 .4689026 .17799378 .38783265 .23098755 .34179688 .28199769 .32678224L.3889923 .2987671C.42599488 .2897644 .48098756 .27474977 .48098756 .19267273 .48098756 .1026001 .39898683 .008529663 .30099488 .008529663 .23699951 .008529663 .12599182 .030548096 .12599182 .15464783 .12599182 .17866516 .1309967 .2026825 .13198853 .20869446 .1329956 .21269226 .13398743 .21369934 .13398743 .21569824 .13398743 .22570801 .1269989 .22669983 .12199402 .22669983 .116989139 .22669983 .114990238 .22570801 .11199951 .22270203 .10798645 .21870423 .051986696-.009475708 .051986696-.012466431 .051986696-.018463135 .056991579-.022460938 .06298828-.022460938 .067993167-.022460938 .068984989-.021469117 .08099365-.007461548L.12998963 .049560548C.17298889-.008468628 .24099732-.022460938 .29899598-.022460938 .43499757-.022460938 .5529938 .11061096 .5529938 .2347107 .5529938 .30377198 .5189972 .33779908 .5039978 .35180665 .48098756 .37483216 .46598817 .37882997 .3769989 .40185548 .35499574 .40785218 .31900025 .41786195 .30999757 .41986085 .2829895 .42886354 .24899292 .457901 .24899292 .51094058 .24899292 .59199526 .32899476 .677063 .42399598 .677063 .5069885 .677063 .56799319 .6340332 .56799319 .52194216 .56799319 .48991395 .56399539 .47190858 .56399539 .4658966 .56399539 .4649048 .56399539 .45588685 .57598879 .45588685 .58599856 .45588685 .58699038 .45889283 .59098818 .47590638L.644989 .69506838Z"/>
<path id="font_2_3" d="M.5049896 .18203736H.47099305C.46798707 .16001892 .45799256 .100997928 .44499208 .09098816 .43699647 .084991458 .3600006 .084991458 .34599305 .084991458H.1619873C.2669983 .17803955 .3019867 .20603943 .3619995 .25306703 .43598939 .312088 .5049896 .374115 .5049896 .46914674 .5049896 .5900879 .39898683 .6640625 .2709961 .6640625 .14698792 .6640625 .06298828 .57710269 .06298828 .4851532 .06298828 .43414308 .10598755 .42915345 .115997318 .42915345 .13999939 .42915345 .16899109 .44615174 .16899109 .48214723 .16899109 .5001526 .1619873 .53515627 .10998535 .53515627 .14099121 .6060791 .20899964 .62805178 .2559967 .62805178 .35598756 .62805178 .4079895 .5501404 .4079895 .46914674 .4079895 .38212586 .34599305 .3130951 .31399537 .27708436L.07299805 .038986207C.06298828 .02999878 .06298828 .027999878 .06298828 0H.47499085L.5049896 .18203736Z"/>
<path id="font_3_114" d="M.8049927 .3973236V.44433595C.7819977 .44232179 .7519989 .44132997 .7279968 .44132997L.6319885 .44433595V.3973236C.6409912 .3973236 .6899872 .3963318 .6899872 .3853302 .6899872 .38232423 .68699648 .3763275 .6859894 .37332154L.58099368 .11732483 .46699525 .3973236H.522995V.44433595L.40899659 .44132997C.36698915 .44132997 .32499696 .44332887 .30899049 .44433595V.3973236H.36799623C.3889923 .34732057 .3889923 .34432984 .3889923 .34432984 .3889923 .34033204 .38598634 .33433534 .3849945 .33132936L.30599977 .139328 .20098877 .3973236H.25698854V.44433595L.13398743 .44132997 .024993897 .44433595V.3973236H.083999637L.23699951 .023101807C.24398804 .006088257 .24798584-.00390625 .272995-.00390625 .2979889-.00390625 .3019867 .006088257 .30899049 .023101807L.4149933 .28208924 .5209961 .023086548C.5279999 .006088257 .5319977-.00390625 .5569916-.00390625 .58200076-.00390625 .58599856 .006088257 .59298709 .023086548L.7369995 .37608338C.74198916 .389328 .74598696 .3973236 .8049927 .3973236Z"/>
<path id="font_3_66" d="M.28599549 0V.04699707H.22399903V.4501953L.049987794 .4423828V.39537049C.10899353 .39537049 .115997318 .39537049 .115997318 .3563385V.04699707H.04699707V0L.16899109 .0029907227 .28599549 0M.23799134 .60728457C.23799134 .6502838 .20298767 .6852875 .1599884 .6852875 .116989139 .6852875 .08198547 .6502838 .08198547 .60728457 .08198547 .5642853 .116989139 .5292969 .1599884 .5292969 .20298767 .5292969 .23799134 .5642853 .23799134 .60728457Z"/>
<path id="font_3_105" d="M.38198854 .124176029V.17721558H.33499146V.12619019C.33499146 .058151246 .30299378 .03413391 .2749939 .03413391 .21699524 .03413391 .21699524 .09817505 .21699524 .1211853V.3973236H.36299134V.44433595H.21699524V.6357422H.16999817C.16899109 .53552249 .11999512 .43632508 .020996094 .43333436V.3973236H.102996829V.123184207C.102996829 .01612854 .18998719-.005859375 .26098634-.005859375 .33699037-.005859375 .38198854 .05114746 .38198854 .124176029Z"/>
<path id="font_3_63" d="M.61499026 0V.04699707H.54599V.30613709C.54599 .41119386 .49198915 .4501953 .3919983 .4501953 .29599 .4501953 .24499512 .3921814 .22299195 .3541565H.22200012V.69433596L.04499817 .6855469V.63853457C.10699463 .63853457 .11399841 .63853457 .11399841 .5996704V.04699707H.04499817V0L.17098999 .0029907227 .29699708 0V.04699707H.22799683V.25610353C.22799683 .36515809 .31399537 .41418458 .3769989 .41418458 .41099549 .41418458 .43199159 .39317323 .43199159 .31713868V.04699707H.36299134V0L.4889984 .0029907227 .61499026 0Z"/>
<path id="font_3_81" d="M.5419922 .21812439C.5419922 .35212709 .44999696 .453125 .2869873 .453125 .12298584 .453125 .03199768 .35112 .03199768 .21812439 .03199768 .09413147 .11999512-.005859375 .2869873-.005859375 .45498658-.005859375 .5419922 .09512329 .5419922 .21812439M.4139862 .22912598C.4139862 .14213562 .4139862 .03413391 .2869873 .03413391 .1599884 .03413391 .1599884 .14213562 .1599884 .22912598 .1599884 .27412416 .1599884 .32511903 .1769867 .3591156 .19599915 .39611817 .23799134 .41711427 .2869873 .41711427 .32899476 .41711427 .37098695 .40112306 .3929901 .36611939 .4139862 .3321228 .4139862 .27713014 .4139862 .22912598Z"/>
<path id="font_3_64" d="M.31799317 .17382813V.27082826H.0129852299V.17382813H.31799317Z"/>
<path id="font_3_43" d="M.47799684 .117126468C.47799684 .13113404 .46398927 .13113404 .45399476 .13113404 .43598939 .13113404 .43499757 .12913513 .42999269 .11613464 .4039917 .053131105 .35598756 .03413391 .30499269 .03413391 .1659851 .03413391 .1659851 .18112183 .1659851 .22712708 .1659851 .28312684 .1659851 .41311646 .29499818 .41311646 .32998658 .41311646 .34700013 .41011048 .3600006 .40711976 .34199525 .39111329 .33999635 .3701172 .33999635 .3611145 .33999635 .3171234 .375 .29811097 .4019928 .29811097 .43299867 .29811097 .46499635 .3191223 .46499635 .3611145 .46499635 .44711305 .34899903 .453125 .29100038 .453125 .11199951 .45314027 .037994386 .33813478 .037994386 .22213745 .037994386 .08912659 .13198853-.005859375 .28599549-.005859375 .44799806-.005859375 .47799684 .11013794 .47799684 .117126468Z"/>
<path id="font_3_28" d="M.5529938 .023986817C.5529938 .04699707 .5399933 .04699707 .5269928 .04699707 .46598817 .04798889 .46598817 .06100464 .46598817 .083999637V.29907228C.46598817 .3881073 .394989 .453125 .24598694 .453125 .18899536 .453125 .066986087 .44911195 .066986087 .36109925 .066986087 .3170929 .101989749 .29808045 .1289978 .29808045 .1599884 .29808045 .19198609 .3190918 .19198609 .36109925 .19198609 .39111329 .17298889 .40811158 .16999817 .41011048 .19799805 .41612245 .22999573 .41711427 .24198914 .41711427 .31698609 .41711427 .35198976 .3751068 .35198976 .29907228V.26506043C.2809906 .2620697 .026992798 .25306703 .026992798 .10801697 .026992798 .012130737 .15098572-.005859375 .21998596-.005859375 .2999878-.005859375 .34700013 .035125734 .36898805 .07713318 .36898805 .04598999 .36898805 0 .47299195 0H.5209961C.54100039 0 .5529938 0 .5529938 .023986817M.35198976 .13899231C.35198976 .043151857 .2599945 .030136109 .23498535 .030136109 .18399048 .030136109 .14399719 .06517029 .14399719 .10922241 .14399719 .21734619 .3019867 .23136902 .35198976 .234375V.13899231Z"/>
<path id="font_3_96" d="M.44198609 .36819459C.44198609 .42118836 .3880005 .4501953 .33599855 .4501953 .2659912 .4501953 .22599793 .40019227 .20298767 .33718873V.4501953L.036987306 .4423828V.39537049C.09899902 .39537049 .10598755 .39537049 .10598755 .3563385V.04699707H.036987306V0L.16299439 .0029907227C.20098877 .0029907227 .2649994 .0029907227 .30099488 0V.04699707H.21398926V.22218323C.21398926 .29226686 .23899842 .41436769 .33898927 .41436769 .33898927 .41436769 .31999208 .39736939 .31999208 .36834718 .31999208 .32730104 .35198976 .3072815 .3809967 .3072815 .4099884 .3072815 .44198609 .3283081 .44198609 .36834718V.36819459Z"/>
<path id="font_3_72" d="M.29299928 0V.04699707H.22399903V.69433596L.04699707 .6855469V.63853457C.10899353 .63853457 .115997318 .63853457 .115997318 .5995636V.04699707H.04699707V0L.16999817 .0029907227 .29299928 0Z"/>
<path id="font_3_98" d="M.4149933 .14012146C.4149933 .18312073 .394989 .21812439 .3600006 .24612427 .32099916 .27511598 .2889862 .28112794 .21099854 .29412843 .17399597 .30111695 .10899353 .31211854 .10899353 .3591156 .10899353 .42111207 .20199585 .42111207 .22099304 .42111207 .29599 .42111207 .33399964 .39212037 .33898927 .33711244 .33999635 .32211305 .34098817 .3171234 .3619995 .3171234 .38598634 .3171234 .38598634 .32211305 .38598634 .3451233V.42510987C.38598634 .4441223 .38598634 .453125 .36799623 .453125 .3639984 .453125 .3619995 .453125 .32299806 .43411256 .29699708 .44711305 .2619934 .453125 .22200012 .453125 .19198609 .453125 .037994386 .453125 .037994386 .32211305 .037994386 .28211976 .057998659 .25512696 .07798767 .23812866 .117996219 .203125 .1559906 .1971283 .23298645 .18312073 .2689972 .17712403 .34399415 .16412354 .34399415 .10513306 .34399415 .030136109 .2519989 .030136109 .22999573 .030136109 .12399292 .030136109 .09799194 .103134158 .085998538 .14613343 .08099365 .16012573 .07598877 .16012573 .06199646 .16012573 .037994386 .16012573 .037994386 .15412903 .037994386 .13113404V.022140503C.037994386 .0031280518 .037994386-.005859375 .055999757-.005859375 .06298828-.005859375 .06498718-.005859375 .085998538 .009140015L.11199951 .026138306C.1579895-.005859375 .20999146-.005859375 .22999573-.005859375 .26098634-.005859375 .4149933-.005859375 .4149933 .14013672V.14012146Z"/>
<path id="font_4_3" d="M.7719879 .574646C.7819977 .6156311 .8009949 .64860537 .8789978 .6516113 .8849945 .6516113 .8969879 .65260317 .8969879 .6696167 .8969879 .6776123 .8909912 .6826172 .8829956 .6826172 .86099246 .6826172 .8049927 .6796112 .7829895 .6796112 .7579956 .6796112 .7559967 .6796112 .7319946 .680603 .71598818 .680603 .69499209 .6826172 .6799927 .6826172 .6759949 .6826172 .6619873 .6826172 .6619873 .6646118 .6619873 .6516113 .673996 .6516113 .6799927 .6516113 .71798709 .65060427 .746994 .6416168 .746994 .6086273 .746994 .6036377 .74398806 .5896454 .74398806 .5886383L.6319885 .1439209 .40299989 .6626129C.3939972 .6816101 .3929901 .6826172 .36999513 .6826172H.23699951C.21798706 .6826172 .20698548 .6826172 .20698548 .6646118 .20698548 .6516113 .21699524 .6516113 .23699951 .6516113 .24198914 .6516113 .2789917 .6516113 .30299378 .6456146L.16799927 .10594177C.1559906 .05697632 .1309967 .033996583 .06098938 .0309906 .056991579 .0309906 .04399109 .02999878 .04399109 .0129852299 .04399109 .010986328 .04399109 0 .057998659 0 .069992069 0 .09498596 .0009918213 .10798645 .0019989014 .12399292 .0029907227 .12599182 .0029907227 .1579895 .0029907227 .18299866 .0029907227 .18499756 .0029907227 .20899964 .0019989014 .22499085 .0019989014 .24598694 0 .26098634 0 .2659912 0 .2789917 0 .2789917 .017990113 .2789917 .02999878 .2679901 .0309906 .25898744 .0309906 .21199036 .03199768 .19400025 .04698181 .19400025 .07395935 .19400025 .080963138 .19499207 .081954959 .19799805 .095947269L.32899476 .6226196 .5970001 .017990113C.60398867 .0019989014 .6049957 0 .61499026 0 .6279907 0 .6289978 .0039978029 .6329956 .020996094L.7719879 .574646Z"/>
<path id="font_4_5" d="M.6539917 .67807009C.6569977 .68907168 .6569977 .69107058 .6569977 .69407656 .6569977 .69506838 .6559906 .7050781 .644989 .7050781 .6399994 .7050781 .6389923 .70407107 .6269989 .6900635 .61299136 .6750641 .625 .6880646 .57899478 .6340332 .5419922 .6900635 .48399354 .7050781 .43099977 .7050781 .3019867 .7050781 .17999268 .58999636 .17999268 .46990968 .17999268 .42886354 .19299317 .39483644 .21899414 .3668213 .24798584 .336792 .272995 .3307953 .34498597 .31178285L.42900086 .29075624C.46099855 .27975465 .49398805 .24871826 .49398805 .19168091 .49398805 .1026001 .40899659 .008529663 .30899049 .008529663 .25 .008529663 .1309967 .026550293 .1309967 .15464783 .1309967 .16365052 .1309967 .17866516 .13699341 .20869446 .13899231 .21269226 .13899231 .21469116 .13899231 .21569824 .13899231 .21969605 .13699341 .22669983 .125 .22669983 .11299133 .22669983 .11199951 .2217102 .10798645 .20469666L.054992677-.011474609C.054992677-.017471314 .05999756-.022460938 .066986087-.022460938 .07199097-.022460938 .07299805-.021469117 .085998538-.007461548 .09199524-.00047302247 .12098694 .03555298 .1329956 .048568727 .18499756-.018463135 .2769928-.022460938 .30699159-.022460938 .44499208-.022460938 .5649872 .10661316 .5649872 .23271179 .5649872 .35681153 .46699525 .38183595 .43598939 .38883973L.34498597 .41285707C.31199647 .42086793 .25099183 .4368744 .25099183 .51293948 .25099183 .5890045 .33099366 .677063 .43099977 .677063 .47099305 .677063 .5099945 .6660614 .5379944 .63804629 .57598879 .6010132 .57699587 .54696658 .57699587 .5209503 .57699587 .48791505 .57299807 .47691346 .57299807 .4689026 .57299807 .46089173 .57699587 .45588685 .58699038 .45588685 .59799197 .45588685 .59799197 .457901 .6029968 .47691346L.6539917 .67807009Z"/>
<path id="font_4_4" d="M.30899049 .31378175H.47599793C.6380005 .31378175 .769989 .42474366 .769989 .5306854 .769989 .6096344 .69898989 .6826172 .56799319 .6826172H.23799134C.21998596 .6826172 .20799256 .6826172 .20799256 .6646118 .20799256 .6516113 .21699524 .6516113 .23799134 .6516113 .24198914 .6516113 .2599945 .6516113 .27598573 .6496124 .29299928 .6476135 .2999878 .6456146 .2999878 .63461306 .2999878 .6296234 .29899598 .6256256 .29599 .614624L.16099549 .07595825C.1519928 .039993287 .1499939 .0309906 .07499695 .0309906 .055999757 .0309906 .04499817 .0309906 .04499817 .0129852299 .04499817 .0019989014 .052993776 0 .05999756 0 .07899475 0 .10398865 .0009918213 .12298584 .0019989014 .15299988 .0029907227 .15499878 .0029907227 .18699646 .0029907227 .21899414 .0029907227 .22099304 .0029907227 .25099183 .0019989014 .2709961 .0009918213 .29699708 0 .31599427 0 .32299806 0 .33599855 0 .33599855 .017990113 .33599855 .0309906 .32598878 .0309906 .30499269 .0309906 .30099488 .0309906 .2829895 .0309906 .2669983 .032989503 .24499512 .035995485 .24398804 .039993287 .24398804 .048980714 .24398804 .051971437 .24398804 .053970338 .24899292 .07196045L.30899049 .31378175M.3809967 .6126251C.3899994 .64860537 .3919983 .6516113 .43399049 .6516113H.5349884C.61299136 .6516113 .6749878 .6276245 .6749878 .55467227 .6749878 .53367617 .6639862 .43972779 .6119995 .39175416 .58999636 .37176515 .5439911 .34179688 .45799256 .34179688H.31298829L.3809967 .6126251Z"/>
<path id="font_4_1" d="M.44699098 .6673279C.44799806 .6713257 .44999696 .67832949 .44999696 .6823273 .44999696 .6923218 .44198609 .69433596 .43598939 .69433596 .4249878 .69433596 .4249878 .69132998 .41999818 .6733246L.3619995 .44337464C.18899536 .43637086 .049987794 .29934693 .049987794 .17131043 .049987794 .07928467 .11898804-.0037231446 .24798584-.01171875 .23999024-.042785646 .23298645-.07485962 .22499085-.10592651 .21099854-.16104126 .20298767-.19007874 .20298767-.1940918 .20298767-.1980896 .20498657-.20507813 .21699524-.20507813 .22799683-.20507813 .22898865-.2020874 .23498535-.17907715L.2769928-.01171875C.44898988-.0047302248 .58898928 .13230896 .58898928 .26133729 .58898928 .34135438 .5309906 .43338014 .3909912 .44337464L.44699098 .6673279M.2539978 .0132751469C.18199158 .01727295 .117996219 .060287477 .117996219 .15130615 .117996219 .26234437 .19999695 .40437318 .35598756 .41838075L.2539978 .0132751469M.38398744 .41838075C.45599366 .41337586 .519989 .37435914 .519989 .28033448 .519989 .15231323 .42399598 .025283814 .2829895 .0132751469L.38398744 .41838075Z"/>
<path id="font_5_1" d="M.8799896 .5726471C.8909912 .614624 .9109955 .63960269 .9869995 .64260867 .9929962 .64260867 1.0089874 .6436157 1.0089874 .6666107 1.0089874 .6766052 1.0029907 .6826172 .9929962 .6826172 .96899417 .6826172 .9099884 .6786041 .8860016 .6786041L.83099368 .6796112C.8129883 .6796112 .7919922 .6826172 .7749939 .6826172 .7579956 .6826172 .7529907 .6696167 .7529907 .65760806 .7529907 .64260867 .7689972 .64260867 .7769928 .64260867 .82398989 .64160159 .84298709 .62861636 .84298709 .6026306 .84298709 .5986328 .84199526 .5926361 .84098818 .5866394L.73098757 .1479187 .45799256 .6646118C.44799806 .6816101 .44699098 .6826172 .4229889 .6826172H.2789917C.2599945 .6826172 .24499512 .6826172 .24499512 .65760806 .24499512 .64260867 .25898744 .64260867 .28199769 .64260867 .28799439 .64260867 .32199098 .64260867 .34599305 .63760378L.21398926 .110946658C.20399475 .07296753 .18899536 .04298401 .10598755 .039993287 .09298706 .039993287 .083999637 .032989503 .083999637 .01399231 .084991458 .009994507 .085998538 0 .100997928 0 .125 0 .18399048 .0039978029 .20799256 .0039978029L.2630005 .0029907227C.2809906 .0029907227 .3019867 0 .31900025 0 .33999635 0 .34098817 .020996094 .34098817 .025985718 .33799745 .039993287 .32798768 .039993287 .31599427 .039993287 .269989 .040985109 .25 .053985597 .25 .07997131 .25 .08596802 .25099183 .08996582 .2539978 .10095215L.38198854 .6116333 .69599917 .016998291C.7029877 .0029907227 .7049866 0 .71899417 0 .73599246 0 .73799136 .004989624 .74198916 .022994996L.8799896 .5726471Z"/>
<path id="font_6_3" d="M.19599915 .3766632C.19599915 .406662 .17199707 .43066407 .14199829 .43066407 .11199951 .43066407 .08799744 .406662 .08799744 .3766632 .08799744 .34765626 .11199951 .32266236 .14199829 .32266236 .17199707 .32266236 .19599915 .34765626 .19599915 .3766632M.19599915 .053985597C.19599915 .08299255 .17199707 .10798645 .14199829 .10798645 .11199951 .10798645 .08799744 .08299255 .08799744 .053985597 .08799744 .023986817 .11199951 0 .14199829 0 .17199707 0 .19599915 .023986817 .19599915 .053985597Z"/>
<path id="font_7_2" d="M.5379944 .18702698H.5009918C.49899293 .17301941 .4889984 .10699463 .47399903 .09599304 .46699525 .08999634 .38598634 .08999634 .37199403 .08999634H.18499756L.31298829 .19403076C.34700013 .22103882 .43598939 .28504945 .46699525 .31506349 .49699403 .3450775 .5379944 .39608766 .5379944 .46710206 .5379944 .5920563 .4249878 .66503909 .29100038 .66503909 .1619873 .66503909 .07199097 .58006289 .07199097 .48609925 .07199097 .43510438 .114990238 .42910768 .12599182 .42910768 .15098572 .42910768 .17999268 .44709779 .17999268 .48310853 .17999268 .50509646 .16699219 .5371094 .12298584 .5371094 .1459961 .5880585 .20698548 .6260376 .27598573 .6260376 .3809967 .6260376 .43699647 .5480957 .43699647 .46710206 .43699647 .39608766 .3899994 .32305909 .31999208 .25904847L.08299255 .041992189C.07299805 .03199768 .07199097 .0309906 .07199097 0H.5069885L.5379944 .18702698Z"/>
<path id="font_8_6" d="M.4099884-.2250061C.4149933-.23800659 .41999818-.25 .43499757-.25 .44599916-.25 .45599366-.24101258 .45599366-.22801209 .45599366-.22601319 .45599366-.22401428 .44999696-.21000672L.102996829 .7259979C.09498596 .746994 .08699036 .75 .07798767 .75 .066986087 .75 .056991579 .7409973 .056991579 .7279968 .056991579 .7259979 .056991579 .723999 .06298828 .70999148L.4099884-.2250061Z"/>
<path id="font_8_3" d="M.2919922 .5760956C.2919922 .63604739 .2919922 .65904238 .32499696 .6890259 .34498597 .7060089 .375 .7220001 .42099 .72499087 .43199159 .7259979 .43998719 .7259979 .43998719 .7369995 .43998719 .75 .43099977 .75 .41799928 .75 .31999208 .75 .22200012 .7030029 .22099304 .62405398V.3682251C.21998596 .33424378 .19099427 .2682953 .085998538 .2632904 .07699585 .26229859 .07299805 .25630189 .07299805 .25028993 .07299805 .23829651 .08299255 .23730469 .09098816 .23730469 .16099549 .2342987 .20899964 .1942749 .21899414 .14723206 .22099304 .13822937 .22099304 .13623047 .22099304 .10121155V-.09692383C.22099304-.13595581 .22099304-.1849823 .29100038-.2210083 .34399415-.24900818 .40699769-.25 .41799928-.25 .43099977-.25 .43998719-.25 .43998719-.23701477 .43998719-.22601319 .42999269-.2250061 .4249878-.2250061 .33299256-.2190094 .3019867-.16897583 .29499818-.14195252 .2919922-.12994385 .2919922-.12794495 .2919922-.091918949V.058181764C.2919922 .08720398 .2919922 .13623047 .29100038 .14523316 .2809906 .20127869 .23199463 .2342987 .17599488 .25028993 .2919922 .28327943 .2919922 .3522339 .2919922 .39620973V.5760956Z"/>
<path id="font_8_4" d="M.2919922 .13223267C.29299928 .1662445 .32199098 .2322998 .4269867 .23730469 .43598939 .23829651 .43998719 .24429322 .43998719 .25028993 .43998719 .26229859 .42999269 .2632904 .42199708 .2632904 .35198976 .2662964 .3039856 .3062744 .2939911 .35324098 .2919922 .3622284 .2919922 .3642273 .2919922 .3992157V.5970764C.2919922 .63604739 .2919922 .6850281 .22200012 .72099307 .16899109 .74798586 .10598755 .75 .09498596 .75 .08299255 .75 .07299805 .75 .07299805 .7369995 .07299805 .7259979 .08299255 .72499087 .08799744 .72499087 .17999268 .71899417 .21099854 .66903689 .21798706 .64204409 .22099304 .63005068 .22099304 .62805178 .22099304 .5920868V.44218446C.22099304 .41319276 .22099304 .3642273 .22200012 .35523988 .23199463 .29927064 .2809906 .2662964 .33699037 .25028993 .22099304 .21728516 .22099304 .14823914 .22099304 .10420227V-.075912479C.22099304-.13595581 .22099304-.15896607 .18798828-.1889801 .16799927-.20599365 .13798523-.22200012 .09199524-.2250061 .08099365-.22601319 .07299805-.22601319 .07299805-.23701477 .07299805-.25 .08299255-.25 .09498596-.25 .19299317-.25 .29100038-.20298767 .2919922-.12394714V.13223267Z"/>
<path id="font_8_2" d="M.8509979 .22944641C.7319946 .14404297 .70799258 .012786865 .70799258 .0017852783 .70799258-.012207031 .72099307-.012207031 .72898867-.012207031 .7409973-.012207031 .7480011-.012207031 .7509918 .00079345706 .7779999 .118927 .8470001 .19729615 .95599368 .23745728 .96199038 .23945618 .9700012 .2424469 .9700012 .25045777 .9700012 .25946046 .96299746 .26245118 .95700076 .26445008 .83099368 .31137086 .7739868 .400177 .7509918 .4981537 .7480011 .512146 .74398806 .5131531 .72898867 .5131531 .7200012 .5131531 .70799258 .5131531 .70799258 .4991455 .70799258 .48814393 .7319946 .3562622 .8509979 .27246095H.09399414C.07699585 .27246095 .056991579 .27246095 .056991579 .25144959 .056991579 .22944641 .07598877 .22944641 .09399414 .22944641H.8509979Z"/>
<path id="font_9_1" d="M.2679901 .31362916H.3039856L.45399476 .08192444C.46398927 .06594849 .48799134 .026992798 .49899293 .011993408 .5059967 0 .5089874 0 .5319977 0H.66999819C.6879883 0 .7029877 0 .7029877 .017990113 .7029877 .025985718 .69699099 .032989503 .6879883 .034988405 .651001 .04298401 .60198977 .10890198 .5779877 .14085388 .57099917 .15083313 .5209961 .2167511 .45399476 .32463075 .54299929 .34062196 .6289978 .37861634 .6289978 .4975891 .6289978 .63656619 .48199464 .6845703 .3639984 .6845703H.049987794C.03199768 .6845703 .015991211 .6845703 .015991211 .66656497 .015991211 .64956668 .034988405 .64956668 .042999269 .64956668 .099990848 .64956668 .10499573 .64256289 .10499573 .5925751V.091918949C.10499573 .04197693 .099990848 .034988405 .042999269 .034988405 .034988405 .034988405 .015991211 .034988405 .015991211 .017990113 .015991211 0 .03199768 0 .049987794 0H.32398988C.34199525 0 .35699464 0 .35699464 .017990113 .35699464 .034988405 .33999635 .034988405 .32899476 .034988405 .27198792 .034988405 .2679901 .04298401 .2679901 .091918949V.31362916M.46099855 .36262513C.4889984 .39961244 .49198915 .4526062 .49198915 .4965973 .49198915 .5445862 .48599244 .59757998 .45399476 .63856509 .49499513 .6295624 .59399417 .5985718 .59399417 .4975891 .59399417 .43260194 .56399539 .3816223 .46099855 .36262513M.2679901 .59558108C.2679901 .61657717 .2679901 .64956668 .32998658 .64956668 .4149933 .64956668 .45700074 .614563 .45700074 .4965973 .45700074 .36761476 .42599488 .3486328 .2679901 .3486328V.59558108M.13198853 .034988405C.13999939 .052963258 .13999939 .08093262 .13999939 .089920047V.594574C.13999939 .6045685 .13999939 .6315613 .13198853 .64956668H.24598694C.23298645 .6335602 .23298645 .61357119 .23298645 .5985718V.089920047C.23298645 .079940799 .23298645 .052963258 .24099732 .034988405H.13198853M.34498597 .31362916C.35198976 .31462098 .35598756 .31562806 .3639984 .31562806 .3789978 .31562806 .40098573 .31762696 .41600038 .31962586 .43099977 .2956543 .5389862 .117889408 .621994 .034988405H.5249939L.34498597 .31362916Z"/>
<path id="font_10_1" d="M.49198915 .68133547C.49198915 .69433596 .47999574 .69433596 .47499085 .69433596 .45999146 .69433596 .45899964 .68933108 .45498658 .67233279L.397995 .44335938C.22099304 .4353485 .069992069 .30833436 .069992069 .17430115 .069992069 .061279298 .17298889-.006729126 .28399659-.010726929 .27598573-.041793825 .2689972-.0738678 .26098634-.10493469 .24899292-.15203858 .23999024-.18910218 .23999024-.19210816 .23999024-.20410156 .25299073-.20410156 .2559967-.20410156 .2709961-.20410156 .27198792-.20111084 .2769928-.18009949L.31900025-.01171875C.48999024-.0047302248 .6469879 .121292117 .6469879 .25732423 .6469879 .3623352 .5549927 .4373474 .43299867 .4423523L.49198915 .68133547M.29100038 .01727295C.21398926 .021270752 .14299011 .0632782 .14299011 .15730286 .14299011 .25732423 .21899414 .39834596 .3899994 .41435243L.29100038 .01727295M.4249878 .41435243C.5019989 .41134645 .57398989 .369339 .57398989 .2743225 .57398989 .16529846 .48799134 .031280519 .32598878 .01727295L.4249878 .41435243Z"/>
<path id="font_11_1" d="M.95500186 .56866458C.96199038 .5966339 .9720001 .63461306 1.0629883 .637619 1.0709992 .637619 1.0889893 .63861086 1.0889893 .66560366 1.0889893 .6696167 1.0859985 .6826172 1.071991 .6826172 1.0540009 .6826172 1.0329895 .6796112 1.0149994 .6796112 .996994 .6796112 .9779968 .6786041 .95899966 .6786041 .93899539 .6786041 .91999819 .6796112 .8999939 .6796112 .8819885 .6796112 .86099246 .6826172 .84298709 .6826172 .83599856 .6826172 .81900027 .6826172 .81900027 .65460208 .81900027 .637619 .83399966 .637619 .84399417 .637619 .9099884 .63661196 .91400149 .6156311 .91400149 .5986328 .91400149 .5916443 .9119873 .5866394 .9109955 .5806427L.8029938 .15092469 .5029907 .66560366C.49299623 .6826172 .4909973 .6826172 .46699525 .6826172H.31199647C.2919922 .6826172 .2769928 .6826172 .2769928 .65460208 .2769928 .637619 .2899933 .637619 .31399537 .637619 .31698609 .637619 .35699464 .637619 .38198854 .6336212L.25099183 .111953739C.24398804 .08496094 .23498535 .04699707 .14199829 .04499817 .13398743 .04499817 .116989139 .04399109 .116989139 .016998291 .116989139 .0079956059 .125 0 .13398743 0 .1519928 0 .17298889 .0029907227 .19099427 .0029907227 .20999146 .0029907227 .22898865 .0039978029 .24798584 .0039978029 .2679901 .0039978029 .2869873 .0029907227 .30699159 .0029907227 .32499696 .0029907227 .34599305 0 .3639984 0 .3769989 0 .3880005 .0069885256 .3880005 .027999878 .3880005 .04499817 .37298585 .04499817 .3619995 .04499817 .31199647 .04598999 .29299928 .05899048 .29299928 .082962039 .29299928 .08996582 .29499818 .095962528 .29699708 .10595703L.42199708 .6076355 .7659912 .017990113C.776001 0 .7819977 0 .79299929 0 .8129883 0 .81399539 .004989624 .81900027 .025985718L.95500186 .56866458Z"/>
<path id="font_2_1" d="M.35499574 .75C.16499329 .61598208 .114990238 .40397645 .114990238 .25097657 .114990238 .10997009 .15699768-.10902405 .35499574-.24902344 .36299134-.24902344 .375-.24902344 .375-.23703003 .375-.23103333 .37199403-.22903443 .36499024-.22203064 .23199463-.10203552 .18299866 .067977908 .18299866 .24996948 .18299866 .519989 .28599549 .65197756 .36799623 .72598269 .37199403 .7299957 .375 .73298647 .375 .73799136 .375 .75 .36299134 .75 .35499574 .75Z"/>
<path id="font_10_2" d="M.34098817 .30978395H.5219879C.69099429 .30978395 .83399966 .41773988 .83399966 .52667239 .83399966 .6106262 .7519989 .6826172 .61499026 .6826172H.2649994C.24499512 .6826172 .23298645 .6826172 .23298645 .660614 .23298645 .64660647 .24398804 .64660647 .2659912 .64660647 .28199769 .64660647 .28599549 .64660647 .3039856 .64460757 .32398988 .64260867 .32598878 .64060977 .32598878 .63061526 .32598878 .62861636 .32598878 .6236267 .32199098 .6086273L.18998719 .081954959C.17999268 .04298401 .1789856 .035995485 .100997928 .035995485 .08299255 .035995485 .070999149 .035995485 .070999149 .01399231 .070999149 .0129852299 .070999149 0 .08699036 0 .115997318 0 .18798828 .0039978029 .21699524 .0039978029 .23399353 .0039978029 .2689972 .0039978029 .28599549 .0029907227 .30599977 .0019989014 .33099366 0 .34999085 0 .35598756 0 .37098695 0 .37098695 .021987915 .37098695 .035995485 .35899354 .035995485 .33898927 .035995485 .33799745 .035995485 .31900025 .035995485 .30099488 .037994386 .27799989 .039993287 .27799989 .04298401 .27799989 .052978517 .27799989 .053985597 .27799989 .05996704 .28199769 .07496643L.34098817 .30978395M.41299439 .6126251C.42099 .6436157 .42199708 .64660647 .46398927 .64660647H.58099368C.673996 .64660647 .7319946 .6186218 .7319946 .54766848 .7319946 .51667788 .7200012 .43772889 .66999819 .39276124 .6339874 .3607788 .57699587 .34179688 .5049896 .34179688H.34498597L.41299439 .6126251Z"/>
<path id="font_2_2" d="M.08999634 .75C.08299255 .75 .070999149 .75 .070999149 .73799136 .070999149 .73298647 .07398987 .7299957 .07998657 .72299197 .1659851 .64398196 .2619934 .5089874 .2619934 .25097657 .2619934 .04197693 .19699097-.11602783 .08898926-.21403504 .07199097-.23103333 .070999149-.23202515 .070999149-.23703003 .070999149-.24203491 .07398987-.24902344 .083999637-.24902344 .09599304-.24902344 .19099427-.18302918 .25698854-.058029176 .30099488 .024978638 .32998658 .13298035 .32998658 .24996948 .32998658 .39097596 .28799439 .60998538 .08999634 .75Z"/>
<path id="font_5_2" d="M.746994 .6750946C.75 .687088 .75 .6890869 .75 .690094 .75 .6920929 .7489929 .70410159 .7350006 .70410159 .72698977 .70410159 .72499087 .7020874 .71398928 .690094 .70199587 .6760864 .6799927 .6520691 .6629944 .6340637 .621994 .687088 .55400088 .70410159 .49299623 .70410159 .34498597 .70410159 .21699524 .59202578 .21699524 .47792054 .21699524 .4298706 .23999024 .3968506 .25698854 .37983705 .2939911 .34179688 .32499696 .3347931 .39698792 .31977845 .4189911 .31477357 .49598695 .29675294 .5029907 .2957611 .548996 .28474427 .59098818 .24971009 .59098818 .19265747 .59098818 .10958862 .49899293 .018508912 .3809967 .018508912 .32798768 .018508912 .17599488 .028518677 .17599488 .15863037 .17599488 .15963745 .17599488 .1806488 .18099976 .20367432 .18199158 .20767212 .18299866 .2086792 .18299866 .21168518 .18299866 .22470093 .17298889 .22669983 .16499329 .22669983 .15499878 .22669983 .14898682 .22569275 .14399719 .2066803L.09199524-.0074920656C.09199524-.009490967 .09298706-.021484375 .10699463-.021484375 .11299133-.021484375 .11399841-.020492554 .12799073-.0074920656 .1289978-.0064849855 .1749878 .044525148 .1769867 .047531129 .22999573-.011489868 .32699586-.021484375 .37799073-.021484375 .5349884-.021484375 .6609955 .10559082 .6609955 .22369385 .6609955 .27874757 .6339874 .31477357 .6239929 .3257904 .58200076 .3688202 .55799868 .37382508 .4850006 .39083863 .45298768 .3978424 .4039917 .40785218 .37799073 .41386415 .32398988 .42687989 .2869873 .46090699 .2869873 .50994876 .2869873 .5870209 .3789978 .66708377 .4909973 .66708377 .57899478 .66708377 .6609955 .63005068 .6609955 .5109558 .6609955 .493927 .6589966 .47291566 .6589966 .46990968 .6589966 .4559021 .673996 .4559021 .6769867 .4559021 .69200137 .4559021 .69299319 .46090699 .69799807 .4789276L.746994 .6750946Z"/>
<path id="font_11_2" d="M.81799319 .69107058C.81799319 .69207766 .81799319 .7050781 .8019867 .7050781 .7939911 .7050781 .79299929 .70407107 .7809906 .69107058 .7689972 .67907717 .73999026 .6460571 .7279968 .6330414 .7029877 .6650696 .647995 .7050781 .5419922 .7050781 .3849945 .7050781 .25 .5960083 .25 .48391725 .25 .41186524 .30499269 .3598175 .3809967 .3387909 .3919983 .33580018 .47599793 .31878663 .49699403 .31477357 .58299258 .2967682 .6009979 .29275514 .6279907 .2707367 .6519928 .25172425 .66600039 .22570801 .66600039 .19467163 .66600039 .114608768 .56999209 .022537232 .43499757 .022537232 .3619995 .022537232 .21299744 .03755188 .21299744 .16064453 .21299744 .1746521 .21499634 .18966675 .21798706 .20368958 .21899414 .20768738 .21998596 .20869446 .21998596 .21168518 .21998596 .22669983 .20599365 .22669983 .19898987 .22669983 .18598938 .22669983 .18099976 .22570801 .17599488 .2066803L.1269989 .007537842C.1269989 .0055389406 .12298584-.007461548 .12298584-.008468628 .12298584-.010467529 .12399292-.022460938 .13999939-.022460938 .1459961-.022460938 .14698792-.021469117 .16099549-.008468628 .17298889 .0035247803 .20098877 .0345459 .21199036 .046554567 .2689972-.008468628 .35598756-.022460938 .43199159-.022460938 .598999-.022460938 .73098757 .1006012 .73098757 .21769715 .73098757 .29075624 .6769867 .35281373 .59498599 .372818 .58200076 .37582398 .4869995 .3958435 .46398927 .3998413 .394989 .41485597 .37799073 .41786195 .34799195 .44088746 .32798768 .45689393 .31498719 .47991944 .31498719 .50694277 .31498719 .5850067 .41600038 .6630707 .5389862 .6630707 .6279907 .6630707 .723999 .6310425 .723999 .50593569 .723999 .4899292 .7220001 .47590638 .7220001 .46990968 .7220001 .4559021 .7369995 .4559021 .74198916 .4559021 .7599945 .4559021 .7599945 .457901 .7649994 .47691346L.81799319 .69107058Z"/>
<path id="font_8_1" d="M.45599366 .24998474C.45599366 .36213685 .3639984 .4501953 .25698854 .4501953 .14399719 .4501953 .056991579 .3571167 .056991579 .25097657 .056991579 .13883972 .14898682 .05078125 .2559967 .05078125 .36898805 .05078125 .45599366 .1438446 .45599366 .24998474M.25698854 .09378052C.16799927 .09378052 .099990848 .16687012 .099990848 .24998474 .099990848 .33909608 .17298889 .4071808 .2559967 .4071808 .34498597 .4071808 .41299439 .3340912 .41299439 .25097657 .41299439 .16186524 .33999635 .09378052 .25698854 .09378052Z"/>
<path id="font_12_1" d="M.79599 .22436524C.81199648 .22436524 .83699038 .22436524 .83699038 .2503662 .83699038 .2763672 .81199648 .2763672 .79599 .2763672H.1659851C.1499939 .2763672 .125 .2763672 .125 .2503662 .125 .22436524 .1499939 .22436524 .1659851 .22436524H.79599Z"/>
<path id="font_7_1" d="M.35899354 .6349335C.35899354 .66503909 .35499574 .66503909 .32499696 .66503909 .25898744 .60058596 .15699768 .60058596 .12098694 .60058596V.5615845C.14698792 .5615845 .21299744 .5615845 .272995 .58958438V.08496094C.272995 .051986696 .272995 .038986207 .16999817 .038986207H.1269989V0C.18199158 .0039978029 .2599945 .0039978029 .31599427 .0039978029 .37199403 .0039978029 .44999696 .0039978029 .5049896 0V.038986207H.46199037C.35899354 .038986207 .35899354 .051986696 .35899354 .08496094V.6349335Z"/>
<path id="font_6_1" d="M.34098817-.23803711C.34098817-.23303223 .33799745-.23002625 .33198548-.22303772 .20298767-.105026248 .1639862 .07498169 .1639862 .24996948 .1639862 .40498353 .19400025 .59298709 .33499146 .72698977 .33898927 .73098757 .34098817 .73399356 .34098817 .7389984 .34098817 .74598696 .33599855 .75 .32899476 .75 .31698609 .75 .22698975 .6779785 .17298889 .568985 .125 .47297669 .100997928 .36997987 .100997928 .25097657 .100997928 .17897034 .10998535 .064971927 .16499329-.053024293 .22399903-.17602539 .31698609-.24902344 .32899476-.24902344 .33599855-.24902344 .34098817-.24502564 .34098817-.23803711Z"/>
<path id="font_4_6" d="M.4869995 .32635499C.49299623 .35235597 .5049896 .39837647 .5049896 .40237428 .5049896 .41537477 .49598695 .43138124 .47399903 .43138124 .45999146 .43138124 .44499208 .42237855 .43798829 .41036988 .43299867 .40037538 .36499024 .12928772 .35899354 .09628296 .33799745 .060272218 .2979889 .014251709 .24299622 .014251709 .18099976 .014251709 .18099976 .07727051 .18099976 .09628296 .18099976 .14129639 .19400025 .19030762 .23699951 .30233766 .24499512 .3253479 .25099183 .33935548 .25099183 .35835267 .25099183 .40737916 .21398926 .4423828 .16499329 .4423828 .068984989 .4423828 .0289917 .30033876 .0289917 .28833009 .0289917 .2793274 .035995485 .27633668 .042999269 .27633668 .053985597 .27633668 .054992677 .28233338 .05899048 .29533387 .07998657 .36735536 .11898804 .41737367 .1619873 .41737367 .18299866 .41737367 .18598938 .40237428 .18598938 .3843689 .18598938 .36735536 .18199158 .34934999 .17298889 .3253479 .12599182 .2013092 .11299133 .15930176 .11299133 .11128235 .11299133 .00024414063 .20298767-.0107421879 .23999024-.0107421879 .29699708-.0107421879 .33799745 .024246216 .3619995 .055267335 .3809967-.0107421879 .44699098-.0107421879 .45298768-.0107421879 .48199464-.0107421879 .5069885 .003250122 .5279999 .042251588 .54599 .07527161 .5609894 .13928223 .5609894 .14329529 .5609894 .14828491 .55799868 .1552887 .5479889 .1552887 .5359955 .1552887 .5349884 .15029907 .5309906 .13128662 .5109863 .052261354 .48999024 .014251709 .45599366 .014251709 .43199159 .014251709 .4249878 .03526306 .4249878 .060272218 .4249878 .07926941 .42999269 .09927368 .43899537 .1342926L.46398927 .23731995 .4869995 .32635499Z"/>
<path id="font_6_2" d="M.2979889 .25097657C.2979889 .3329773 .28599549 .4429779 .23399353 .5539856 .1749878 .6769867 .08198547 .75 .069992069 .75 .05999756 .75 .057998659 .74198916 .057998659 .7389984 .057998659 .73399356 .05999756 .73098757 .066986087 .72398379 .125 .6719818 .23498535 .5359802 .23498535 .25097657 .23498535 .10797119 .20899964-.091033939 .06399536-.22602844 .06199646-.22903443 .057998659-.23303223 .057998659-.23803711 .057998659-.24102783 .05999756-.24902344 .069992069-.24902344 .08198547-.24902344 .17199707-.17703247 .22599793-.06802368 .27398683 .02796936 .2979889 .13098145 .2979889 .25097657Z"/>
<path id="font_6_4" d="M.70799258 .3310089C.7220001 .3310089 .7409973 .3310089 .7409973 .35202027 .7409973 .37402345 .71899417 .37402345 .70399478 .37402345H.09399414C.07899475 .37402345 .056991579 .37402345 .056991579 .35202027 .056991579 .3310089 .07699585 .3310089 .08999634 .3310089H.70799258M.70399478 .12695313C.71899417 .12695313 .7409973 .12695313 .7409973 .14894104 .7409973 .1699524 .7220001 .1699524 .70799258 .1699524H.08999634C.07699585 .1699524 .056991579 .1699524 .056991579 .14894104 .056991579 .12695313 .07899475 .12695313 .09399414 .12695313H.70399478Z"/>
<path id="font_4_2" d="M.44999696 .70999148C.45599366 .723999 .45599366 .7259979 .45599366 .7279968 .45599366 .7409973 .44599916 .75 .43499757 .75 .42099 .75 .4169922 .74198916 .41600038 .73999026L.06298828-.21000672C.056991579-.22401428 .056991579-.22601319 .056991579-.22801209 .056991579-.24101258 .066986087-.25 .07798767-.25 .08799744-.25 .09599304-.2460022 .102996829-.22601319L.44999696 .70999148Z"/>
<path id="font_8_5" d="M.1639862 .71299746C.1639862 .7299957 .1639862 .75 .14299011 .75 .12098694 .75 .12098694 .73098757 .12098694 .71299746V-.2130127C.12098694-.23001099 .12098694-.25 .14199829-.25 .1639862-.25 .1639862-.23100281 .1639862-.2130127V.71299746Z"/>
</defs>
<use data-text="S" xlink:href="#font_1_1" transform="matrix(9.96264,0,0,-9.96264,112.29651,19.398713)"/>
<use data-text="2" xlink:href="#font_2_3" transform="matrix(6.973848,0,0,-6.973848,118.97978,15.783352)"/>
<use data-text="w" xlink:href="#font_3_114" transform="matrix(9.96264,0,0,-9.96264,127.26484,19.398713)"/>
<use data-text="i" xlink:href="#font_3_66" transform="matrix(9.96264,0,0,-9.96264,135.5438,19.398713)"/>
<use data-text="t" xlink:href="#font_3_105" transform="matrix(9.96264,0,0,-9.96264,138.72188,19.398713)"/>
<use data-text="h" xlink:href="#font_3_63" transform="matrix(9.96264,0,0,-9.96264,143.17517,19.398713)"/>
<use data-text="t" xlink:href="#font_3_105" transform="matrix(9.96264,0,0,-9.96264,153.357,19.398713)"/>
<use data-text="w" xlink:href="#font_3_114" transform="matrix(9.96264,0,0,-9.96264,157.50147,19.398713)"/>
<use data-text="o" xlink:href="#font_3_81" transform="matrix(9.96264,0,0,-9.96264,165.46164,19.398713)"/>
<use data-text="-" xlink:href="#font_3_64" transform="matrix(9.96264,0,0,-9.96264,171.19016,19.398713)"/>
<use data-text="c" xlink:href="#font_3_43" transform="matrix(9.96264,0,0,-9.96264,175.00583,19.398713)"/>
<use data-text="h" xlink:href="#font_3_63" transform="matrix(9.96264,0,0,-9.96264,179.77796,19.398713)"/>
<use data-text="a" xlink:href="#font_3_28" transform="matrix(9.96264,0,0,-9.96264,186.14408,19.398713)"/>
<use data-text="r" xlink:href="#font_3_96" transform="matrix(9.96264,0,0,-9.96264,191.7132,19.398713)"/>
<use data-text="t" xlink:href="#font_3_105" transform="matrix(9.96264,0,0,-9.96264,196.43549,19.398713)"/>
<use data-text="a" xlink:href="#font_3_28" transform="matrix(9.96264,0,0,-9.96264,204.69452,19.398713)"/>
<use data-text="t" xlink:href="#font_3_105" transform="matrix(9.96264,0,0,-9.96264,210.26364,19.398713)"/>
<use data-text="l" xlink:href="#font_3_72" transform="matrix(9.96264,0,0,-9.96264,214.71695,19.398713)"/>
<use data-text="a" xlink:href="#font_3_28" transform="matrix(9.96264,0,0,-9.96264,217.89505,19.398713)"/>
<use data-text="s" xlink:href="#font_3_98" transform="matrix(9.96264,0,0,-9.96264,223.46417,19.398713)"/>
<path transform="matrix(1,0,0,-1,170.14255,128.76096)" d="M42.5202 48.18947C42.5202 71.67303 23.48355 90.70969 0 90.70969-23.48355 90.70969-42.5202 71.67303-42.5202 48.18947-42.5202 24.70592-23.48355 5.66927 0 5.66927 23.48355 5.66927 42.5202 24.70592 42.5202 48.18947ZM0 48.18947" fill="#f5f5f5"/>
<path transform="matrix(1,0,0,-1,170.14255,128.76096)" stroke-width="1.19553" stroke-linecap="butt" stroke-miterlimit="10" stroke-linejoin="miter" fill="none" stroke="#404040" d="M42.5202 48.18947C42.5202 71.67303 23.48355 90.70969 0 90.70969-23.48355 90.70969-42.5202 71.67303-42.5202 48.18947-42.5202 24.70592-23.48355 5.66927 0 5.66927 23.48355 5.66927 42.5202 24.70592 42.5202 48.18947ZM0 48.18947"/>
<path transform="matrix(1,0,0,-1,170.14255,128.76096)" stroke-width=".3985" stroke-linecap="butt" stroke-miterlimit="10" stroke-linejoin="miter" fill="none" stroke="#bfbfbf" d="M42.5202 48.18947C42.5202 54.45166 23.48355 59.52802 0 59.52802-23.48355 59.52802-42.5202 54.45166-42.5202 48.18947-42.5202 41.92729-23.48355 36.85092 0 36.85092 23.48355 36.85092 42.5202 41.92729 42.5202 48.18947ZM0 48.18947"/>
<path transform="matrix(1,0,0,-1,170.14255,128.76096)" d="M1.4174 90.7097C1.4174 91.49252 .78282 92.1271 0 92.1271-.78282 92.1271-1.4174 91.49252-1.4174 90.7097-1.4174 89.92686-.78282 89.29228 0 89.29228 .78282 89.29228 1.4174 89.92686 1.4174 90.7097ZM0 90.7097"/>
<use data-text="N" xlink:href="#font_4_3" transform="matrix(8.966376,0,0,-8.966376,165.97483,33.11403)"/>
<path transform="matrix(1,0,0,-1,170.14255,128.76096)" d="M1.4174 5.66927C1.4174 6.45209 .78282 7.08669 0 7.08669-.78282 7.08669-1.4174 6.45209-1.4174 5.66927-1.4174 4.88644-.78282 4.25185 0 4.25185 .78282 4.25185 1.4174 4.88644 1.4174 5.66927ZM0 5.66927"/>
<use data-text="S" xlink:href="#font_4_5" transform="matrix(8.966376,0,0,-8.966376,167.0728,134.15598)"/>
<path transform="matrix(1,0,0,-1,170.14255,128.76096)" d="M25.79568 48.18947C25.79568 49.12877 25.03424 49.89021 24.09494 49.89021 23.15564 49.89021 22.39421 49.12877 22.39421 48.18947 22.39421 47.25017 23.15564 46.48874 24.09494 46.48874 25.03424 46.48874 25.79568 47.25017 25.79568 48.18947ZM24.09494 48.18947" fill="#ff0000"/>
<use data-text="P" xlink:href="#font_4_4" transform="matrix(8.966376,0,0,-8.966376,199.74137,83.63501)"/>
<path transform="matrix(1,0,0,-1,170.14255,128.76096)" d="M-161.57675-25.51236H-76.53635L-68.03223-2.83484H-153.07263Z" fill="#e6e6ff"/>
<path transform="matrix(1,0,0,-1,170.14255,128.76096)" stroke-width="1.19553" stroke-linecap="butt" stroke-miterlimit="10" stroke-linejoin="miter" fill="none" stroke="#000080" d="M-161.57675-25.51236H-76.53635L-68.03223-2.83484H-153.07263Z"/>
<use data-text="&#x03d5;" xlink:href="#font_4_1" transform="matrix(8.966376,0,0,-8.966376,14.539856,124.41695)"/>
<use data-text="N" xlink:href="#font_5_1" transform="matrix(5.977584,0,0,-5.977584,20.024819,125.41324)"/>
<use data-text=":" xlink:href="#font_6_3" transform="matrix(8.966376,0,0,-8.966376,29.50866,124.41695)"/>
<use data-text="S" xlink:href="#font_4_5" transform="matrix(8.966376,0,0,-8.966376,34.62832,124.41695)"/>
<use data-text="2" xlink:href="#font_7_2" transform="matrix(5.977584,0,0,-5.977584,40.76776,120.60795)"/>
<use data-text="\" xlink:href="#font_8_6" transform="matrix(8.966376,0,0,-8.966376,46.966669,124.41695)"/>
<use data-text="{" xlink:href="#font_8_3" transform="matrix(8.966376,0,0,-8.966376,53.61074,124.41695)"/>
<use data-text="N" xlink:href="#font_4_3" transform="matrix(8.966376,0,0,-8.966376,58.22991,124.41695)"/>
<use data-text="}" xlink:href="#font_8_4" transform="matrix(8.966376,0,0,-8.966376,66.565288,124.41695)"/>
<use data-text="&#x2192;" xlink:href="#font_8_2" transform="matrix(8.966376,0,0,-8.966376,73.72045,124.41695)"/>
<use data-text="R" xlink:href="#font_9_1" transform="matrix(8.966376,0,0,-8.966376,85.50802,124.41695)"/>
<use data-text="2" xlink:href="#font_7_2" transform="matrix(5.977584,0,0,-5.977584,91.98374,120.60795)"/>
<path transform="matrix(1,0,0,-1,170.14255,128.76096)" d="M-106.30058-14.17339C-106.30058-13.39056-106.93518-12.75597-107.718-12.75597-108.50082-12.75597-109.13542-13.39056-109.13542-14.17339-109.13542-14.95622-108.50082-15.5908-107.718-15.5908-106.93518-15.5908-106.30058-14.95622-106.30058-14.17339ZM-107.718-14.17339" fill="#ff0000"/>
<use data-text="&#x03d5;" xlink:href="#font_10_1" transform="matrix(6.973848,0,0,-6.973848,67.361789,144.67783)"/>
<use data-text="N" xlink:href="#font_11_1" transform="matrix(4.98132,0,0,-4.98132,72.152179,145.67963)"/>
<use data-text="(" xlink:href="#font_2_1" transform="matrix(6.973848,0,0,-6.973848,78.551837,144.67783)"/>
<use data-text="P" xlink:href="#font_10_2" transform="matrix(6.973848,0,0,-6.973848,81.66518,144.67783)"/>
<use data-text=")" xlink:href="#font_2_2" transform="matrix(6.973848,0,0,-6.973848,87.80985,144.67783)"/>
<path transform="matrix(1,0,0,-1,170.14255,128.76096)" d="M76.53635-25.51236H161.57675L170.08089-2.83484H85.04047Z" fill="#ffecd9"/>
<path transform="matrix(1,0,0,-1,170.14255,128.76096)" stroke-width="1.19553" stroke-linecap="butt" stroke-miterlimit="10" stroke-linejoin="miter" fill="none" stroke="#b35900" d="M76.53635-25.51236H161.57675L170.08089-2.83484H85.04047Z"/>
<use data-text="&#x03d5;" xlink:href="#font_4_1" transform="matrix(8.966376,0,0,-8.966376,254.54386,124.41695)"/>
<use data-text="S" xlink:href="#font_5_2" transform="matrix(5.977584,0,0,-5.977584,260.0288,125.41324)"/>
<use data-text=":" xlink:href="#font_6_3" transform="matrix(8.966376,0,0,-8.966376,267.92695,124.41695)"/>
<use data-text="S" xlink:href="#font_4_5" transform="matrix(8.966376,0,0,-8.966376,273.04658,124.41695)"/>
<use data-text="2" xlink:href="#font_7_2" transform="matrix(5.977584,0,0,-5.977584,279.18605,120.60795)"/>
<use data-text="\" xlink:href="#font_8_6" transform="matrix(8.966376,0,0,-8.966376,285.38496,124.41695)"/>
<use data-text="{" xlink:href="#font_8_3" transform="matrix(8.966376,0,0,-8.966376,292.029,124.41695)"/>
<use data-text="S" xlink:href="#font_4_5" transform="matrix(8.966376,0,0,-8.966376,296.6482,124.41695)"/>
<use data-text="}" xlink:href="#font_8_4" transform="matrix(8.966376,0,0,-8.966376,302.7876,124.41695)"/>
<use data-text="&#x2192;" xlink:href="#font_8_2" transform="matrix(8.966376,0,0,-8.966376,309.94279,124.41695)"/>
<use data-text="R" xlink:href="#font_9_1" transform="matrix(8.966376,0,0,-8.966376,321.73036,124.41695)"/>
<use data-text="2" xlink:href="#font_7_2" transform="matrix(5.977584,0,0,-5.977584,328.20606,120.60795)"/>
<path transform="matrix(1,0,0,-1,170.14255,128.76096)" d="M109.13542-14.17339C109.13542-13.39056 108.50082-12.75597 107.718-12.75597 106.93518-12.75597 106.30058-13.39056 106.30058-14.17339 106.30058-14.95622 106.93518-15.5908 107.718-15.5908 108.50082-15.5908 109.13542-14.95622 109.13542-14.17339ZM107.718-14.17339" fill="#ff0000"/>
<use data-text="&#x03d5;" xlink:href="#font_10_1" transform="matrix(6.973848,0,0,-6.973848,250.74536,144.67783)"/>
<use data-text="S" xlink:href="#font_11_2" transform="matrix(4.98132,0,0,-4.98132,255.53574,145.67963)"/>
<use data-text="(" xlink:href="#font_2_1" transform="matrix(6.973848,0,0,-6.973848,260.5517,144.67783)"/>
<use data-text="P" xlink:href="#font_10_2" transform="matrix(6.973848,0,0,-6.973848,263.66505,144.67783)"/>
<use data-text=")" xlink:href="#font_2_2" transform="matrix(6.973848,0,0,-6.973848,269.80973,144.67783)"/>
<path transform="matrix(1,0,0,-1,170.14255,128.76096)" stroke-width=".3985" stroke-linecap="butt" stroke-dasharray="2.98883,2.98883" stroke-miterlimit="10" stroke-linejoin="miter" fill="none" stroke="#595959" d="M0 90.7097 24.09494 48.18947-107.71794-14.17339"/>
<path transform="matrix(1,0,0,-1,170.14255,128.76096)" stroke-width=".3985" stroke-linecap="butt" stroke-dasharray="2.98883,2.98883" stroke-miterlimit="10" stroke-linejoin="miter" fill="none" stroke="#595959" d="M0 5.66927 24.09494 48.18947 107.71794-14.17339"/>
<path transform="matrix(1,0,0,-1,162.37162,181.20249)" d="M5.30629 0C4.65466 .16344 1.79025 1.08963 0 2.09753V-2.09753C1.79025-1.08963 4.65466-.16344 5.30629 0Z"/>
<path transform="matrix(1,0,0,-1,162.37162,181.20249)" stroke-width=".3985" stroke-linecap="butt" stroke-miterlimit="10" stroke-linejoin="miter" fill="none" stroke="#000000" d="M5.30629 0C4.65466 .16344 1.79025 1.08963 0 2.09753V-2.09753C1.79025-1.08963 4.65466-.16344 5.30629 0Z"/>
<path transform="matrix(1,0,0,-1,170.14255,128.76096)" stroke-width="1.19553" stroke-linecap="butt" stroke-miterlimit="10" stroke-linejoin="miter" fill="none" stroke="#b30000" d="M85.03879-39.68535"/>
<path transform="matrix(0,-1,-1,-0,255.18134,176.21726)" d="M5.30629 0C4.65466 .16344 1.79025 1.08963 0 2.09753V-2.09753C1.79025-1.08963 4.65466-.16344 5.30629 0Z" fill="#b30000"/>
<path transform="matrix(0,-1,-1,-0,255.18134,176.21726)" stroke-width="1.19553" stroke-linecap="butt" stroke-miterlimit="10" stroke-linejoin="miter" fill="none" stroke="#b30000" d="M5.30629 0C4.65466 .16344 1.79025 1.08963 0 2.09753V-2.09753C1.79025-1.08963 4.65466-.16344 5.30629 0Z"/>
<use data-text="&#x03d5;" xlink:href="#font_4_1" transform="matrix(8.966376,0,0,-8.966376,128.06157,190.91953)" fill="#b30000"/>
<use data-text="S" xlink:href="#font_5_2" transform="matrix(5.977584,0,0,-5.977584,133.54654,191.9158)" fill="#b30000"/>
<use data-text="&#x25e6;" xlink:href="#font_8_1" transform="matrix(8.966376,0,0,-8.966376,140.93268,190.91953)" fill="#b30000"/>
<use data-text="&#x03d5;" xlink:href="#font_4_1" transform="matrix(8.966376,0,0,-8.966376,147.58823,190.91953)" fill="#b30000"/>
<use data-text="&#x2212;" xlink:href="#font_12_1" transform="matrix(5.977584,0,0,-5.977584,153.07318,187.00093)" fill="#b30000"/>
<use data-text="1" xlink:href="#font_7_1" transform="matrix(5.977584,0,0,-5.977584,158.82935,187.00093)" fill="#b30000"/>
<use data-text="N" xlink:href="#font_5_1" transform="matrix(5.977584,0,0,-5.977584,153.07318,193.43016)" fill="#b30000"/>
<use data-text="(" xlink:href="#font_6_1" transform="matrix(8.966376,0,0,-8.966376,162.98038,190.91953)" fill="#b30000"/>
<use data-text="u" xlink:href="#font_4_6" transform="matrix(8.966376,0,0,-8.966376,166.56412,190.91953)" fill="#b30000"/>
<use data-text=")" xlink:href="#font_6_2" transform="matrix(8.966376,0,0,-8.966376,171.86713,190.91953)" fill="#b30000"/>
<use data-text="=" xlink:href="#font_6_4" transform="matrix(8.966376,0,0,-8.966376,178.00012,190.91953)" fill="#b30000"/>
<use data-text="u" xlink:href="#font_4_6" transform="matrix(8.966376,0,0,-8.966376,187.73804,190.91953)" fill="#b30000"/>
<use data-text="/" xlink:href="#font_4_2" transform="matrix(8.966376,0,0,-8.966376,193.03717,190.91953)" fill="#b30000"/>
<use data-text="|" xlink:href="#font_8_5" transform="matrix(8.966376,0,0,-8.966376,197.64875,190.91953)" fill="#b30000"/>
<use data-text="u" xlink:href="#font_4_6" transform="matrix(8.966376,0,0,-8.966376,200.20859,190.91953)" fill="#b30000"/>
<use data-text="|" xlink:href="#font_8_5" transform="matrix(8.966376,0,0,-8.966376,205.51157,190.91953)" fill="#b30000"/>
<use data-text="2" xlink:href="#font_7_2" transform="matrix(5.977584,0,0,-5.977584,208.07141,187.11052)" fill="#b30000"/>
</svg>
