<svg xmlns="http://www.w3.org/2000/svg" xmlns:xlink="http://www.w3.org/1999/xlink" xmlns:inkscape="http://www.inkscape.org/namespaces/inkscape" version="1.1" width="234.73" height="202.41" viewBox="0 0 234.73 202.41">
<defs>
<path id="font_1_7" d="M.04598999-.12519837C.038986207-.15431214 .036987306-.16334534-.006011963-.16334534-.01701355-.16334534-.029006958-.16334534-.029006958-.18135071-.029006958-.18534851-.027008057-.19433594-.01600647-.19433594L.026992798-.19233704C.032989503-.19134522 .055999757-.19134522 .069992069-.19134522 .08699036-.19134522 .10398865-.19233704 .12098694-.19233704 .13699341-.19233704 .1539917-.19433594 .16899109-.19433594 .1749878-.19433594 .18798828-.19433594 .18798828-.17634583 .18798828-.16334534 .17799378-.16334534 .16099549-.16334534 .11399841-.16334534 .11399841-.15631104 .11399841-.14727783 .11399841-.14125061 .12098694-.114151 .125-.098083499L.1619873 .051254274C.17199707 .030258179 .19999695-.0107421879 .25698854-.0107421879 .37399293-.0107421879 .5019989 .13027954 .5019989 .28033448 .5019989 .38237 .43899537 .4423828 .3639984 .4423828 .34298707 .4423828 .29299928 .43737794 .23199463 .3693695 .21699524 .42536927 .17098999 .4423828 .13699341 .4423828 .09498596 .4423828 .07398987 .41137696 .05999756 .3843689 .042999269 .34934999 .0289917 .29234315 .0289917 .28833009 .0289917 .2793274 .035995485 .27633668 .042999269 .27633668 .053985597 .27633668 .055999757 .28134156 .06098938 .30134584 .07998657 .3803711 .100997928 .41737367 .1349945 .41737367 .16499329 .41737367 .16499329 .38536073 .16499329 .37036134 .16499329 .36236573 .1639862 .34735108 .1619873 .33935548L.04598999-.12519837M.22698975 .3083496C.23199463 .32835389 .23199463 .33035279 .24499512 .34535218 .27198792 .379364 .31698609 .41737367 .3619995 .41737367 .40899659 .41737367 .42799378 .37036134 .42799378 .323349 .42799378 .27833558 .3999939 .15429688 .36898805 .10127258 .33499146 .044265748 .29299928 .014251709 .2559967 .014251709 .19099427 .014251709 .1749878 .09327698 .1749878 .10028076 .1749878 .106277469 .1769867 .11128235 .17799378 .11628723L.22698975 .3083496Z"/>
<path id="font_1_2" d="M.47399903 .34091188C.46299745 .4039917 .41799928 .45703126 .33999635 .45703126 .24798584 .45703126 .1769867 .41200257 .12199402 .3549347 .04399109 .2728424 .040985109 .17372132 .040985109 .15670777 .040985109 .09663391 .084991458-.022460938 .23199463-.022460938 .47999574-.022460938 .5799866 .32089234 .5799866 .45402528 .5799866 .6062927 .48999024 .7158203 .35598756 .7158203 .20498657 .7158203 .1599884 .58729556 .1599884 .55830386 .1599884 .54029849 .17298889 .5222931 .19898987 .5222931 .22799683 .5222931 .25299073 .54829409 .25299073 .57629397 .25299073 .6042938 .22799683 .6132965 .20899964 .6132965 .23699951 .66000369 .2899933 .69081118 .35398866 .69081118 .44699098 .69081118 .5019989 .61528018 .5019989 .50823977 .5019989 .49920655 .5009918 .43702699 .47499085 .34091188H.47399903M.23399353 .0055389406C.14299011 .0055389406 .12199402 .07461548 .12199402 .120666507 .12199402 .15570069 .14698792 .28886415 .18798828 .34492494 .22799683 .39898683 .27799989 .4320221 .33999635 .4320221 .43899537 .4320221 .45498658 .34492494 .45498658 .2988739 .45498658 .2237854 .3880005 .0055389406 .23399353 .0055389406Z"/>
<path id="font_2_2" d="M.5179901 .665329C.5209961 .6773224 .5209961 .6793213 .5209961 .68032839 .5209961 .69433596 .5059967 .69433596 .5029907 .69433596 .48799134 .69433596 .4869995 .68933108 .48199464 .6713257L.4249878 .44335938C.23699951 .4363556 .08299255 .30633546 .08299255 .17730713 .08299255 .09329224 .1499939 .0002746582 .31098939-.01171875L.2769928-.14602661C.27398683-.16105652 .2669983-.18710327 .2669983-.19010926 .2669983-.20410156 .28199769-.20410156 .28599549-.20410156 .30099488-.20410156 .30299378-.19711304 .30599977-.18310547 .30699159-.17910767 .34298707-.03778076 .34899903-.01171875 .5349884-.005722046 .69099429 .12528992 .69099429 .25431825 .69099429 .34033204 .6199951 .4323578 .46299745 .44335938L.5179901 .665329M.31900025 .021270752C.22799683 .027267456 .16099549 .072280887 .16099549 .16230774 .16099549 .2753296 .2559967 .39634706 .41600038 .4103546L.31900025 .021270752M.45399476 .4103546C.54599 .40534974 .61299136 .35934449 .61299136 .26931764 .61299136 .16130066 .5219879 .03527832 .35699464 .021270752L.45399476 .4103546Z"/>
<path id="font_2_1" d="M.54499819 .4801178C.54499819 .59609988 .49598695 .70410159 .3959961 .70410159 .23999024 .70410159 .07598877 .4431305 .07598877 .21417237 .07598877 .08421326 .13198853-.009765625 .22499085-.009765625 .38198854-.009765625 .54499819 .25515748 .54499819 .4801178M.19198609 .36714173C.25698854 .61509707 .34799195 .6710968 .394989 .6710968 .46499635 .6710968 .46499635 .55111697 .46499635 .53611758 .46499635 .52711489 .46499635 .46913148 .43798829 .36714173H.19198609M.42799378 .32714845C.37199403 .10121155 .2809906 .023223877 .22599793 .023223877 .1599884 .023223877 .1559906 .124191287 .1559906 .15818787 .1559906 .19218445 .1599884 .23616028 .18199158 .32714845H.42799378Z"/>
<path id="font_1_1" d="M.397995 .1322937C.394989 .20532227 .37998963 .27734376 .34999085 .34336854 .31698609 .41436769 .269989 .4423828 .21699524 .4423828 .08999634 .4423828 .017990113 .29335023 .017990113 .2603302 .017990113 .24932862 .0289917 .24932862 .03199768 .24932862 .039993287 .24932862 .042999269 .2513275 .04598999 .25933839 .07798767 .35237123 .17098999 .3683777 .20399475 .3683777 .36499024 .3683777 .36999513 .17630005 .36999513 .11228943 .36999513 .052261354 .3659973 .038253786 .36099244 .024246216 .33499146-.06378174 .30799867-.16682434 .30799867-.1938324 .30799867-.20082093 .30799867-.21582031 .32199098-.21582031 .32899476-.21582031 .33799745-.21582031 .35499574-.15481568 .3809967-.06277466 .3880005-.008758545 .3939972 .03225708 .394989 .043258668 .44799806 .20532227 .5379944 .3843689 .5549927 .41638185 .5549927 .41838075 .5549927 .42037965 .5549927 .42736817 .5499878 .43138124 .5419922 .43138124 .5399933 .43138124 .5329895 .43138124 .5289917 .42536927 .5059967 .3843689 .48199464 .33236695 .46099855 .28533937 .45599366 .27534486 .42900086 .21331787 .397995 .1322937Z"/>
<path id="font_3_1" d="M.34098817-.23803711C.34098817-.23303223 .33799745-.23002625 .33198548-.22303772 .20298767-.105026248 .1639862 .07498169 .1639862 .24996948 .1639862 .40498353 .19400025 .59298709 .33499146 .72698977 .33898927 .73098757 .34098817 .73399356 .34098817 .7389984 .34098817 .74598696 .33599855 .75 .32899476 .75 .31698609 .75 .22698975 .6779785 .17298889 .568985 .125 .47297669 .100997928 .36997987 .100997928 .25097657 .100997928 .17897034 .10998535 .064971927 .16499329-.053024293 .22399903-.17602539 .31698609-.24902344 .32899476-.24902344 .33599855-.24902344 .34098817-.24502564 .34098817-.23803711Z"/>
<path id="font_1_8" d="M.21299744 .3996582H.30799867C.32598878 .3996582 .33799745 .3996582 .33799745 .41766358 .33799745 .43066407 .32798768 .43066407 .30999757 .43066407H.22099304L.2619934 .59646609C.2619934 .6124573 .24899292 .62545779 .23098755 .62545779 .19898987 .62545779 .19099427 .59646609 .18899536 .5864868L.14898682 .43066407H.054992677C.035995485 .43066407 .023986817 .43066407 .023986817 .4126587 .023986817 .3996582 .034988405 .3996582 .052993776 .3996582H.14199829L.07398987 .12808228C.06599426 .09811401 .06599426 .09613037 .06599426 .08215332 .06599426 .023239136 .11099243-.0107421879 .16299439-.0107421879 .2669983-.0107421879 .32598878 .1330719 .32598878 .14305115 .32598878 .14804077 .32299806 .1550293 .31298829 .1550293 .30299378 .1550293 .3019867 .15203858 .29499818 .1350708 .2639923 .06317139 .21398926 .014251709 .16499329 .014251709 .14498902 .014251709 .1329956 .027236939 .1329956 .060180665 .1329956 .08215332 .13598633 .09413147 .13999939 .10910034L.21299744 .3996582Z"/>
<path id="font_3_2" d="M.2979889 .25097657C.2979889 .3329773 .28599549 .4429779 .23399353 .5539856 .1749878 .6769867 .08198547 .75 .069992069 .75 .05999756 .75 .057998659 .74198916 .057998659 .7389984 .057998659 .73399356 .05999756 .73098757 .066986087 .72398379 .125 .6719818 .23498535 .5359802 .23498535 .25097657 .23498535 .10797119 .20899964-.091033939 .06399536-.22602844 .06199646-.22903443 .057998659-.23303223 .057998659-.23803711 .057998659-.24102783 .05999756-.24902344 .069992069-.24902344 .08198547-.24902344 .17199707-.17703247 .22599793-.06802368 .27398683 .02796936 .2979889 .13098145 .2979889 .25097657Z"/>
<path id="font_3_5" d="M.19599915 .615921C.19599915 .6459198 .17199707 .6699219 .14199829 .6699219 .11199951 .6699219 .08799744 .6459198 .08799744 .615921 .08799744 .585907 .11199951 .56192019 .14199829 .56192019 .17199707 .56192019 .19599915 .585907 .19599915 .615921Z"/>
<path id="font_3_3" d="M.47299195 .31976319C.47299195 .38682557 .46998597 .47288514 .43499757 .5479431 .3909912 .64201357 .31498719 .6660156 .25698854 .6660156 .19699097 .6660156 .12098694 .64201357 .07699585 .5459442 .04499817 .47688294 .039993287 .39582826 .039993287 .31976319 .039993287 .25471498 .041992189 .15765381 .084991458 .07858276 .13198853-.0064697267 .20999146-.022460938 .2559967-.022460938 .32099916-.022460938 .394989 .0055389406 .43699647 .097595218 .46699525 .1646576 .47299195 .23971558 .47299195 .31976319M.25698854 .002532959C.22698975 .002532959 .15499878 .016540528 .13598633 .12962342 .12599182 .18867493 .12599182 .2747345 .12599182 .33177186 .12599182 .39982606 .12599182 .47888185 .13798523 .53393557 .1579895 .6230011 .22200012 .64100649 .2559967 .64100649 .2939911 .64100649 .35699464 .62098696 .37599183 .5279236 .3869934 .47288514 .3869934 .39482118 .3869934 .33177186 .3869934 .2697296 .3869934 .18566895 .3769989 .12661743 .35598756 .012542725 .28199769 .002532959 .25698854 .002532959Z"/>
<path id="font_4_1" d="M.644989 .69506838C.644989 .69807437 .6429901 .7050781 .6339874 .7050781 .6289978 .7050781 .6279907 .70407107 .6159973 .6900635L.56799319 .6330414C.5419922 .68006899 .48999024 .7050781 .4249878 .7050781 .2979889 .7050781 .17799378 .58999636 .17799378 .4689026 .17799378 .38783265 .23098755 .34179688 .28199769 .32678224L.3889923 .2987671C.42599488 .2897644 .48098756 .27474977 .48098756 .19267273 .48098756 .1026001 .39898683 .008529663 .30099488 .008529663 .23699951 .008529663 .12599182 .030548096 .12599182 .15464783 .12599182 .17866516 .1309967 .2026825 .13198853 .20869446 .1329956 .21269226 .13398743 .21369934 .13398743 .21569824 .13398743 .22570801 .1269989 .22669983 .12199402 .22669983 .116989139 .22669983 .114990238 .22570801 .11199951 .22270203 .10798645 .21870423 .051986696-.009475708 .051986696-.012466431 .051986696-.018463135 .056991579-.022460938 .06298828-.022460938 .067993167-.022460938 .068984989-.021469117 .08099365-.007461548L.12998963 .049560548C.17298889-.008468628 .24099732-.022460938 .29899598-.022460938 .43499757-.022460938 .5529938 .11061096 .5529938 .2347107 .5529938 .30377198 .5189972 .33779908 .5039978 .35180665 .48098756 .37483216 .46598817 .37882997 .3769989 .40185548 .35499574 .40785218 .31900025 .41786195 .30999757 .41986085 .2829895 .42886354 .24899292 .457901 .24899292 .51094058 .24899292 .59199526 .32899476 .677063 .42399598 .677063 .5069885 .677063 .56799319 .6340332 .56799319 .52194216 .56799319 .48991395 .56399539 .47190858 .56399539 .4658966 .56399539 .4649048 .56399539 .45588685 .57598879 .45588685 .58599856 .45588685 .58699038 .45889283 .59098818 .47590638L.644989 .69506838Z"/>
<path id="font_5_1" d="M.5049896 .18203736H.47099305C.46798707 .16001892 .45799256 .100997928 .44499208 .09098816 .43699647 .084991458 .3600006 .084991458 .34599305 .084991458H.1619873C.2669983 .17803955 .3019867 .20603943 .3619995 .25306703 .43598939 .312088 .5049896 .374115 .5049896 .46914674 .5049896 .5900879 .39898683 .6640625 .2709961 .6640625 .14698792 .6640625 .06298828 .57710269 .06298828 .4851532 .06298828 .43414308 .10598755 .42915345 .115997318 .42915345 .13999939 .42915345 .16899109 .44615174 .16899109 .48214723 .16899109 .5001526 .1619873 .53515627 .10998535 .53515627 .14099121 .6060791 .20899964 .62805178 .2559967 .62805178 .35598756 .62805178 .4079895 .5501404 .4079895 .46914674 .4079895 .38212586 .34599305 .3130951 .31399537 .27708436L.07299805 .038986207C.06298828 .02999878 .06298828 .027999878 .06298828 0H.47499085L.5049896 .18203736Z"/>
<path id="font_1_5" d="M.43899537 .6086273C.44499208 .63061526 .44699098 .64060977 .46398927 .6436157 .47200013 .6456146 .5039978 .6456146 .5249939 .6456146 .6399994 .6456146 .673996 .63861086 .673996 .56066897 .673996 .54766848 .673996 .5326843 .6649933 .4737091L.6639862 .4657135C.6639862 .45872499 .66799929 .45173646 .6779938 .45173646 .6899872 .45173646 .69200137 .46072389 .69400027 .475708L.7200012 .64860537C.72099307 .6536102 .7220001 .65960696 .7220001 .6626129 .7220001 .6766052 .71199038 .6766052 .69299319 .6766052H.12399292C.099990848 .6766052 .09899902 .6756134 .09199524 .6566162L.02999878 .4807129C.025985718 .4677124 .025985718 .4657135 .025985718 .46472169 .025985718 .45973207 .0289917 .45173646 .038986207 .45173646 .049987794 .45173646 .051986696 .45773316 .057998659 .475708 .11299133 .6316223 .14399719 .6456146 .2889862 .6456146H.32798768C.35598756 .6456146 .35598756 .64260867 .35598756 .63461306 .35598756 .62861636 .35398866 .6216278 .35198976 .6136322L.21798706 .07896423C.20899964 .04298401 .20599365 .0309906 .099990848 .0309906 .067993167 .0309906 .05899048 .0309906 .05899048 .0129852299 .05899048 0 .07199097 0 .07598877 0 .101989749 0 .1309967 .0019989014 .1579895 .0019989014 .18598938 .0019989014 .21499634 .0029907227 .24299622 .0029907227 .2869873 .0029907227 .2889862 .0029907227 .32598878 .0019989014 .33898927 .0019989014 .40499879 0 .41299439 0 .42199708 0 .43399049 0 .43399049 .017990113 .43399049 .0309906 .4249878 .0309906 .3999939 .0309906 .375 .0309906 .36299134 .0309906 .33599855 .032989503 .31298829 .035995485 .30099488 .036987306 .30099488 .053985597 .30099488 .05897522 .30299378 .066970828 .30499269 .07395935L.43899537 .6086273Z"/>
<path id="font_2_4" d="M.09700012-.12121582C.08999634-.14730835 .08898926-.15434265 .04598999-.15434265 .032989503-.15434265 .026992798-.15434265 .022994996-.16033936 .020996094-.16433716 .016998291-.17733765 .016998291-.18034363 .017990113-.18334961 .018997193-.19433594 .032989503-.19433594 .06098938-.19433594 .09399414-.19033814 .12298584-.19033814 .14099121-.19033814 .1599884-.19134522 .17799378-.19134522 .19499207-.19134522 .21499634-.19433594 .23199463-.19433594 .23799134-.19433594 .24499512-.19433594 .24899292-.18734741 .25099183-.18434143 .25498963-.17234802 .25498963-.16835022 .2519989-.15434265 .24198914-.15434265 .22499085-.15434265 .20098877-.15434265 .1749878-.15434265 .1749878-.14228821 .1749878-.13726807 .18199158-.11117554 .18598938-.09611511L.22200012 .050231935C.24598694 .014221191 .2829895-.009765625 .33198548-.009765625 .46398927-.009765625 .598999 .12828064 .598999 .2713318 .598999 .37538148 .526001 .44140626 .43798829 .44140626 .35699464 .44140626 .2939911 .37638856 .2889862 .3703766 .2709961 .42939759 .20899964 .44140626 .17999268 .44140626 .13398743 .44140626 .10998535 .4084015 .09700012 .38638307 .07299805 .3443756 .06098938 .29234315 .06098938 .28834535 .06098938 .27734376 .069992069 .27334596 .07899475 .27334596 .09498596 .27334596 .09599304 .28034974 .100997928 .2963562 .12199402 .37939454 .1459961 .4084015 .1769867 .4084015 .21299744 .4084015 .21299744 .36738587 .21299744 .3573761 .21299744 .34036256 .21199036 .33737184 .20999146 .32836915L.09700012-.12121582M.2849884 .30134584C.2899933 .31835938 .2899933 .32035829 .30799867 .34036256 .33999635 .37638856 .3880005 .4084015 .43499757 .4084015 .48298646 .4084015 .5139923 .37138368 .5139923 .31036378 .5139923 .27633668 .49398805 .16529846 .45498658 .104263309 .42099 .052246095 .37399293 .023223877 .33198548 .023223877 .25698854 .023223877 .23699951 .101257327 .23699951 .10926819 .23699951 .11427307 .23899842 .120269779 .23999024 .12426758L.2849884 .30134584Z"/>
<path id="font_1_4" d="M.6539917 .67807009C.6569977 .68907168 .6569977 .69107058 .6569977 .69407656 .6569977 .69506838 .6559906 .7050781 .644989 .7050781 .6399994 .7050781 .6389923 .70407107 .6269989 .6900635 .61299136 .6750641 .625 .6880646 .57899478 .6340332 .5419922 .6900635 .48399354 .7050781 .43099977 .7050781 .3019867 .7050781 .17999268 .58999636 .17999268 .46990968 .17999268 .42886354 .19299317 .39483644 .21899414 .3668213 .24798584 .336792 .272995 .3307953 .34498597 .31178285L.42900086 .29075624C.46099855 .27975465 .49398805 .24871826 .49398805 .19168091 .49398805 .1026001 .40899659 .008529663 .30899049 .008529663 .25 .008529663 .1309967 .026550293 .1309967 .15464783 .1309967 .16365052 .1309967 .17866516 .13699341 .20869446 .13899231 .21269226 .13899231 .21469116 .13899231 .21569824 .13899231 .21969605 .13699341 .22669983 .125 .22669983 .11299133 .22669983 .11199951 .2217102 .10798645 .20469666L.054992677-.011474609C.054992677-.017471314 .05999756-.022460938 .066986087-.022460938 .07199097-.022460938 .07299805-.021469117 .085998538-.007461548 .09199524-.00047302247 .12098694 .03555298 .1329956 .048568727 .18499756-.018463135 .2769928-.022460938 .30699159-.022460938 .44499208-.022460938 .5649872 .10661316 .5649872 .23271179 .5649872 .35681153 .46699525 .38183595 .43598939 .38883973L.34498597 .41285707C.31199647 .42086793 .25099183 .4368744 .25099183 .51293948 .25099183 .5890045 .33099366 .677063 .43099977 .677063 .47099305 .677063 .5099945 .6660614 .5379944 .63804629 .57598879 .6010132 .57699587 .54696658 .57699587 .5209503 .57699587 .48791505 .57299807 .47691346 .57299807 .4689026 .57299807 .46089173 .57699587 .45588685 .58699038 .45588685 .59799197 .45588685 .59799197 .457901 .6029968 .47691346L.6539917 .67807009Z"/>
<path id="font_6_1" d="M.5379944 .18702698H.5009918C.49899293 .17301941 .4889984 .10699463 .47399903 .09599304 .46699525 .08999634 .38598634 .08999634 .37199403 .08999634H.18499756L.31298829 .19403076C.34700013 .22103882 .43598939 .28504945 .46699525 .31506349 .49699403 .3450775 .5379944 .39608766 .5379944 .46710206 .5379944 .5920563 .4249878 .66503909 .29100038 .66503909 .1619873 .66503909 .07199097 .58006289 .07199097 .48609925 .07199097 .43510438 .114990238 .42910768 .12599182 .42910768 .15098572 .42910768 .17999268 .44709779 .17999268 .48310853 .17999268 .50509646 .16699219 .5371094 .12298584 .5371094 .1459961 .5880585 .20698548 .6260376 .27598573 .6260376 .3809967 .6260376 .43699647 .5480957 .43699647 .46710206 .43699647 .39608766 .3899994 .32305909 .31999208 .25904847L.08299255 .041992189C.07299805 .03199768 .07199097 .0309906 .07199097 0H.5069885L.5379944 .18702698Z"/>
<path id="font_7_1" d="M.7409973 .33706666C.7409973 .36405946 .7319946 .37106324 .7259979 .37106324 .71299746 .37106324 .71199038 .34806825 .71099856 .33406068 .70700076 .26000978 .651001 .18792725 .56999209 .18792725 .5119934 .18792725 .46598817 .22195435 .4059906 .27601625 .34700013 .33106996 .29599 .3720703 .22799683 .3720703 .11898804 .3720703 .056991579 .26000978 .056991579 .16291809 .056991579 .13691712 .06498718 .12892151 .07199097 .12892151 .08299255 .12892151 .08699036 .1479187 .08699036 .15292359 .09298706 .27902223 .1789856 .3120575 .22799683 .3120575 .28599549 .3120575 .33198548 .2780304 .3919983 .2239685 .45098878 .1689148 .5019989 .12792969 .56999209 .12792969 .67900088 .12792969 .7409973 .23997498 .7409973 .33706666Z"/>
<path id="font_3_4" d="M.70799258 .3310089C.7220001 .3310089 .7409973 .3310089 .7409973 .35202027 .7409973 .37402345 .71899417 .37402345 .70399478 .37402345H.09399414C.07899475 .37402345 .056991579 .37402345 .056991579 .35202027 .056991579 .3310089 .07699585 .3310089 .08999634 .3310089H.70799258M.70399478 .12695313C.71899417 .12695313 .7409973 .12695313 .7409973 .14894104 .7409973 .1699524 .7220001 .1699524 .70799258 .1699524H.08999634C.07699585 .1699524 .056991579 .1699524 .056991579 .14894104 .056991579 .12695313 .07899475 .12695313 .09399414 .12695313H.70399478Z"/>
<path id="font_8_1" d="M.2679901 .31362916H.3039856L.45399476 .08192444C.46398927 .06594849 .48799134 .026992798 .49899293 .011993408 .5059967 0 .5089874 0 .5319977 0H.66999819C.6879883 0 .7029877 0 .7029877 .017990113 .7029877 .025985718 .69699099 .032989503 .6879883 .034988405 .651001 .04298401 .60198977 .10890198 .5779877 .14085388 .57099917 .15083313 .5209961 .2167511 .45399476 .32463075 .54299929 .34062196 .6289978 .37861634 .6289978 .4975891 .6289978 .63656619 .48199464 .6845703 .3639984 .6845703H.049987794C.03199768 .6845703 .015991211 .6845703 .015991211 .66656497 .015991211 .64956668 .034988405 .64956668 .042999269 .64956668 .099990848 .64956668 .10499573 .64256289 .10499573 .5925751V.091918949C.10499573 .04197693 .099990848 .034988405 .042999269 .034988405 .034988405 .034988405 .015991211 .034988405 .015991211 .017990113 .015991211 0 .03199768 0 .049987794 0H.32398988C.34199525 0 .35699464 0 .35699464 .017990113 .35699464 .034988405 .33999635 .034988405 .32899476 .034988405 .27198792 .034988405 .2679901 .04298401 .2679901 .091918949V.31362916M.46099855 .36262513C.4889984 .39961244 .49198915 .4526062 .49198915 .4965973 .49198915 .5445862 .48599244 .59757998 .45399476 .63856509 .49499513 .6295624 .59399417 .5985718 .59399417 .4975891 .59399417 .43260194 .56399539 .3816223 .46099855 .36262513M.2679901 .59558108C.2679901 .61657717 .2679901 .64956668 .32998658 .64956668 .4149933 .64956668 .45700074 .614563 .45700074 .4965973 .45700074 .36761476 .42599488 .3486328 .2679901 .3486328V.59558108M.13198853 .034988405C.13999939 .052963258 .13999939 .08093262 .13999939 .089920047V.594574C.13999939 .6045685 .13999939 .6315613 .13198853 .64956668H.24598694C.23298645 .6335602 .23298645 .61357119 .23298645 .5985718V.089920047C.23298645 .079940799 .23298645 .052963258 .24099732 .034988405H.13198853M.34498597 .31362916C.35198976 .31462098 .35598756 .31562806 .3639984 .31562806 .3789978 .31562806 .40098573 .31762696 .41600038 .31962586 .43099977 .2956543 .5389862 .117889408 .621994 .034988405H.5249939L.34498597 .31362916Z"/>
<path id="font_1_6" d="M.5079956 .38276673C.5329895 .40675355 .59098818 .47071839 .61499026 .49569703 .625 .5056915 .6499939 .53167727 .6599884 .54267886 .7220001 .6056366 .7619934 .6456146 .84599307 .6516113 .8580017 .65260317 .86898806 .6536102 .86898806 .6696167 .86898806 .6736145 .8659973 .6826172 .8549957 .6826172 .848999 .6826172 .8149872 .680603 .8089905 .680603 .7999878 .6796112 .7769928 .6796112 .7609863 .6796112 .7429962 .6796112 .723999 .680603 .70599368 .680603 .6879883 .680603 .66799929 .6826172 .651001 .6826172 .644989 .6826172 .6319885 .6826172 .6319885 .6646118 .6319885 .65260317 .6439972 .6516113 .6459961 .6516113 .6539917 .65060427 .6839905 .64860537 .6839905 .6226196 .6839905 .6056366 .6609955 .5816498 .6599884 .5806427L.49598695 .40975953 .40699769 .6096344C.4019928 .6196289 .4019928 .6216278 .4019928 .6226196 .4019928 .6276245 .41799928 .64860537 .46099855 .6516113 .46598817 .6516113 .47799684 .65260317 .47799684 .6696167 .47799684 .6786041 .47099305 .6826172 .46299745 .6826172 .44299317 .6826172 .41999818 .680603 .3999939 .680603 .37998963 .680603 .3600006 .6796112 .33898927 .6796112 .30599977 .6796112 .3039856 .6796112 .27999879 .680603L.22499085 .6826172C.22099304 .6826172 .20599365 .6826172 .20599365 .6646118 .20599365 .6516113 .21798706 .6516113 .22999573 .6516113 .2889862 .6516113 .2939911 .64060977 .30299378 .6206207L.42199708 .35379029C.42199708 .35279847 .42799378 .34179688 .42799378 .34080506 .42799378 .33779908 .29899598 .20388794 .28399659 .18888855 .272995 .17790222 .24699402 .14892578 .23599243 .1379242 .1749878 .07696533 .13598633 .036987306 .051986696 .0309906 .039993287 .02999878 .0289917 .0289917 .0289917 .0129852299 .0289917 .0069885256 .032989503 0 .042999269 0 .04899597 0 .08299255 .0019989014 .08898926 .0019989014 .09799194 .0029907227 .12098694 .0029907227 .13699341 .0029907227 .15499878 .0029907227 .17399597 .0019989014 .19198609 .0019989014 .20999146 .0019989014 .22898865 0 .24598694 0 .25099183 0 .2659912 0 .2659912 .017990113 .2659912 .02999878 .2539978 .0309906 .2519989 .0309906 .24398804 .03199768 .21398926 .033996583 .21398926 .05996704 .21398926 .07595825 .22599793 .08895874 .25698854 .12193298L.33399964 .20088196 .3880005 .2568512C.4059906 .27583314 .43199159 .30282594 .43998719 .31282044L.5479889 .07296753C.5529938 .06297302 .5529938 .06097412 .5529938 .05996704 .5529938 .054977418 .5369873 .033996583 .49398805 .0309906 .4889984 .0309906 .47698976 .02999878 .47698976 .0129852299 .47698976 .0039978029 .48399354 0 .49198915 0 .5119934 0 .5349884 .0019989014 .5549927 .0019989014 .57499697 .0019989014 .59498599 .0029907227 .6159973 .0029907227 .6489868 .0029907227 .651001 .0029907227 .6749878 .0019989014L.7299957 0C.73399356 0 .7489929 0 .7489929 .017990113 .7489929 .0309906 .7369995 .0309906 .72499087 .0309906 .66600039 .0309906 .6609955 .041992189 .6519928 .061965944L.5079956 .38276673Z"/>
<path id="font_2_3" d="M.34799195 .6244507C.34799195 .64852908 .32998658 .66452029 .30699159 .66452029 .27999879 .66452029 .25099183 .638504 .25099183 .60939028 .25099183 .5843353 .2689972 .56933596 .29100038 .56933596 .32299806 .56933596 .34799195 .59936526 .34799195 .6244507M.28799439 .27534486C.2919922 .28533937 .30099488 .3093567 .30499269 .31835938 .30799867 .32736207 .31199647 .33737184 .31199647 .35437013 .31199647 .4104004 .2619934 .44140626 .21199036 .44140626 .10998535 .44140626 .06098938 .3093567 .06098938 .28733827 .06098938 .28234864 .06498718 .27334596 .07899475 .27334596 .09298706 .27334596 .09599304 .27934266 .09899902 .28834535 .1269989 .38539125 .17999268 .4084015 .20799256 .4084015 .22799683 .4084015 .23498535 .395401 .23498535 .37239076 .23498535 .35237123 .22898865 .33737184 .22698975 .33036805L.1749878 .20230103C.16299439 .17329407 .16299439 .17129517 .1499939 .13728333 .13699341 .10726929 .13198853 .09425354 .13198853 .07725525 .13198853 .026229859 .17799378-.009765625 .23298645-.009765625 .33399964-.009765625 .38398744 .12226868 .38398744 .14428711 .38398744 .14628601 .3829956 .15829468 .36499024 .15829468 .35099793 .15829468 .34999085 .1532898 .34399415 .13427735 .32798768 .08325195 .2869873 .023223877 .23599243 .023223877 .21798706 .023223877 .20899964 .035232545 .20899964 .059249879 .20899964 .07925415 .21499634 .09425354 .22799683 .12527466L.28799439 .27534486Z"/>
<path id="font_9_1" d="M.19400025-.014007568C.19400025 .0009918213 .19400025 .022994996 .17199707 .022994996 .14898682 .022994996 .14898682 .0019989014 .14898682-.014007568V-.5860596C.14898682-.60105898 .14898682-.6230469 .17098999-.6230469 .19400025-.6230469 .19400025-.6020508 .19400025-.5860596V-.014007568Z"/>
<path id="font_7_2" d="M.5609894 .22944641C.5779877 .22944641 .59799197 .22944641 .59799197 .25045777 .59799197 .27246095 .57899478 .27246095 .5609894 .27246095H.12998963C.13999939 .3961029 .24798584 .50878909 .40299989 .50878909H.5609894C.5779877 .50878909 .59799197 .50878909 .59799197 .52978518 .59799197 .55178835 .57899478 .55178835 .5609894 .55178835H.3999939C.22399903 .55178835 .085998538 .41404725 .085998538 .25144959 .085998538 .08428955 .22599793-.050827028 .3999939-.050827028H.5609894C.5779877-.050827028 .59799197-.050827028 .59799197-.029815674 .59799197-.0078125 .57899478-.0078125 .5609894-.0078125H.40299989C.24699402-.0078125 .13999939 .10531616 .12998963 .22944641H.5609894Z"/>
<path id="font_1_3" d="M.94699099 .6056366C.95599368 .64260867 .95899966 .6516113 1.0369873 .6516113 1.0529938 .6516113 1.0639954 .6516113 1.0639954 .6696167 1.0639954 .6826172 1.0540009 .6826172 1.0349884 .6826172H.9039917C.8789978 .6826172 .875 .6826172 .86299136 .66360476L.49398805 .093948367 .41099549 .6566162C.40699769 .6826172 .4059906 .6826172 .37799073 .6826172H.24099732C.22299195 .6826172 .21099854 .6826172 .21099854 .6646118 .21099854 .6516113 .22099304 .6516113 .24099732 .6516113 .24499512 .6516113 .2630005 .6516113 .2789917 .6496124 .2979889 .6476135 .30299378 .64460757 .30299378 .63461306 .30299378 .6296234 .3019867 .6256256 .29899598 .614624L.17199707 .10594177C.15899658 .053985597 .1309967 .033996583 .06498718 .0309906 .06199646 .0309906 .04798889 .02999878 .04798889 .0129852299 .04798889 .010986328 .04798889 0 .06199646 0 .07398987 0 .09899902 .0009918213 .11199951 .0019989014 .12799073 .0029907227 .12998963 .0029907227 .1619873 .0029907227 .18699646 .0029907227 .18899536 .0029907227 .21299744 .0019989014 .22898865 .0019989014 .25 0 .2649994 0 .269989 0 .2829895 0 .2829895 .017990113 .2829895 .02999878 .27198792 .0309906 .2630005 .0309906 .21598816 .03199768 .19799805 .04698181 .19799805 .07395935 .19799805 .080963138 .19898987 .081954959 .20199585 .095947269L.33699037 .6396179H.33799745L.42900086 .025985718C.43099977 .009994507 .43299867 0 .44599916 0 .45799256 0 .46398927 .009994507 .46998597 .018997193L.8769989 .64660647H.8779907L.7350006 .07595825C.7259979 .039993287 .723999 .0309906 .6489868 .0309906 .6309967 .0309906 .61898806 .0309906 .61898806 .0129852299 .61898806 .0039978029 .6259918 0 .6339874 0 .6459961 0 .68499758 .0009918213 .69699099 .0019989014 .71199038 .0029907227 .7369995 .0029907227 .7569885 .0029907227 .7599945 .0029907227 .7999878 .0019989014 .82099917 .0019989014 .84098818 .0019989014 .86299136 0 .8819885 0 .8880005 0 .901001 0 .901001 .017990113 .901001 .0309906 .8909912 .0309906 .8699951 .0309906 .8659973 .0309906 .84799197 .0309906 .83200076 .032989503 .80999758 .035995485 .8089905 .039993287 .8089905 .048980714 .8089905 .05796814 .8109894 .065963748 .8129883 .07296753L.94699099 .6056366Z"/>
</defs>
<path transform="matrix(1,0,0,-1,90.56785,86.59067)" d="M73.70186 0C73.70186 40.70493 40.70493 73.70186 0 73.70186-40.70493 73.70186-73.70186 40.70493-73.70186 0-73.70186-40.70493-40.70493-73.70186 0-73.70186 40.70493-73.70186 73.70186-40.70493 73.70186 0ZM0 0" fill="#f5f5f5"/>
<path transform="matrix(1,0,0,-1,90.56785,86.59067)" stroke-width="1.19553" stroke-linecap="butt" stroke-miterlimit="10" stroke-linejoin="miter" fill="none" stroke="#4c4d4c" d="M73.70186 0C73.70186 40.70493 40.70493 73.70186 0 73.70186-40.70493 73.70186-73.70186 40.70493-73.70186 0-73.70186-40.70493-40.70493-73.70186 0-73.70186 40.70493-73.70186 73.70186-40.70493 73.70186 0ZM0 0"/>
<path transform="matrix(1,0,0,-1,90.56785,86.59067)" stroke-width=".3985" stroke-linecap="butt" stroke-miterlimit="10" stroke-linejoin="miter" fill="none" stroke="#bfbfbf" d="M73.70186 0C73.70186 11.1939 40.70493 20.26811 0 20.26811-40.70493 20.26811-73.70186 11.1939-73.70186 0-73.70186-11.1939-40.70493-20.26811 0-20.26811 40.70493-20.26811 73.70186-11.1939 73.70186 0ZM0 0"/>
<path transform="matrix(1,0,0,-1,90.56785,86.59067)" stroke-width=".3985" stroke-linecap="butt" stroke-miterlimit="10" stroke-linejoin="miter" fill="none" stroke="#bfbfbf" d="M0 73.70186C10.17621 73.70186 18.42545 40.70493 18.42545 0 18.42545-40.70493 10.17621-73.70186 0-73.70186"/>
<path transform="matrix(1,0,0,-1,90.56785,86.59067)" stroke-width=".3985" stroke-linecap="butt" stroke-miterlimit="10" stroke-linejoin="miter" fill="none" stroke="#bfbfbf" d="M0 73.70186C20.35246 73.70186 36.85092 40.70493 36.85092 0 36.85092-40.70493 20.35246-73.70186 0-73.70186"/>
<path transform="matrix(1,0,0,-1,90.56785,86.59067)" d="M53.80203 25.79552C53.80203 27.0166 52.81215 28.00647 51.59106 28.00647 50.36998 28.00647 49.38011 27.0166 49.38011 25.79552 49.38011 24.57443 50.36998 23.58455 51.59106 23.58455 52.81215 23.58455 53.80203 24.57443 53.80203 25.79552ZM51.59106 25.79552"/>
<use data-text="p" xlink:href="#font_1_7" transform="matrix(8.966376,0,0,-8.966376,147.5214,54.058046)"/>
<path transform="matrix(1,0,0,-1,90.56785,86.59067)" d="M107.62271 53.80356C102.61813 63.81563 77.9021 61.60522 52.41708 48.8664 26.93207 36.12755 10.32985 17.6848 15.33443 7.67273 20.339-2.33932 45.05504-.1289 70.54005 12.60991 96.02509 25.34874 112.6273 43.79149 107.62271 53.80356ZM61.47858 30.73814" fill="#e0e0ff" fill-opacity=".55"/>
<path transform="matrix(1,0,0,-1,90.56785,86.59067)" stroke-width=".79701" stroke-linecap="butt" stroke-miterlimit="10" stroke-linejoin="miter" fill="none" stroke="#000080" d="M107.62271 53.80356C102.61813 63.81563 77.9021 61.60522 52.41708 48.8664 26.93207 36.12755 10.32985 17.6848 15.33443 7.67273 20.339-2.33932 45.05504-.1289 70.54005 12.60991 96.02509 25.34874 112.6273 43.79149 107.62271 53.80356ZM61.47858 30.73814"/>
<path transform="matrix(1,0,0,-1,90.56785,86.59067)" stroke-width="1.19553" stroke-linecap="butt" stroke-miterlimit="10" stroke-linejoin="miter" fill="none" stroke="#b30000" d="M51.59106 25.79552 38.5896 51.80435"/>
<path transform="matrix(-.44711,-.89441,-.89441,.44711,129.15746,34.786317)" d="M5.30629 0C4.65466 .16344 1.79025 1.08963 0 2.09753V-2.09753C1.79025-1.08963 4.65466-.16344 5.30629 0Z" fill="#b30000"/>
<path transform="matrix(-.44711,-.89441,-.89441,.44711,129.15746,34.786317)" stroke-width="1.19553" stroke-linecap="butt" stroke-miterlimit="10" stroke-linejoin="miter" fill="none" stroke="#b30000" d="M5.30629 0C4.65466 .16344 1.79025 1.08963 0 2.09753V-2.09753C1.79025-1.08963 4.65466-.16344 5.30629 0Z"/>
<use data-text="&#x2202;" xlink:href="#font_1_2" transform="matrix(8.966376,0,0,-8.966376,118.30747,24.893555)" fill="#b30000"/>
<use data-text="&#x03d5;" xlink:href="#font_2_2" transform="matrix(5.977584,0,0,-5.977584,123.18256,25.956265)" fill="#b30000"/>
<path transform="matrix(1,0,0,-1,90.56785,86.59067)" stroke-width="1.19553" stroke-linecap="butt" stroke-miterlimit="10" stroke-linejoin="miter" fill="none" stroke="#0000b3" d="M51.59106 25.79552 57.43721 55.02682"/>
<path transform="matrix(.1961,-.98053,-.98053,-.1961,148.00507,31.563847)" d="M5.30629 0C4.65466 .16344 1.79025 1.08963 0 2.09753V-2.09753C1.79025-1.08963 4.65466-.16344 5.30629 0Z" fill="#0000b3"/>
<path transform="matrix(.1961,-.98053,-.98053,-.1961,148.00507,31.563847)" stroke-width="1.19553" stroke-linecap="butt" stroke-miterlimit="10" stroke-linejoin="miter" fill="none" stroke="#0000b3" d="M5.30629 0C4.65466 .16344 1.79025 1.08963 0 2.09753V-2.09753C1.79025-1.08963 4.65466-.16344 5.30629 0Z"/>
<use data-text="&#x2202;" xlink:href="#font_1_2" transform="matrix(8.966376,0,0,-8.966376,152.31165,17.519024)" fill="#0000b3"/>
<use data-text="&#x03b8;" xlink:href="#font_2_1" transform="matrix(5.977584,0,0,-5.977584,157.18674,18.581734)" fill="#0000b3"/>
<path transform="matrix(1,0,0,-1,90.56785,86.59067)" stroke-width="1.19553" stroke-linecap="butt" stroke-miterlimit="10" stroke-linejoin="miter" fill="none" stroke="#008000" d="M0 55.27638C18.42545 36.85092 36.85092 31.3235 51.59106 25.79552 62.64647 22.11075 73.70186 0 71.85919-11.05537"/>
<use data-text="&#x03b3;" xlink:href="#font_1_1" transform="matrix(8.966376,0,0,-8.966376,97.424388,28.028504)" fill="#008000"/>
<use data-text="(" xlink:href="#font_3_1" transform="matrix(8.966376,0,0,-8.966376,102.696109,28.028504)" fill="#008000"/>
<use data-text="t" xlink:href="#font_1_8" transform="matrix(8.966376,0,0,-8.966376,106.27986,28.028504)" fill="#008000"/>
<use data-text=")" xlink:href="#font_3_2" transform="matrix(8.966376,0,0,-8.966376,109.60764,28.028504)" fill="#008000"/>
<path transform="matrix(1,0,0,-1,90.56785,86.59067)" stroke-width="1.19553" stroke-linecap="butt" stroke-miterlimit="10" stroke-linejoin="miter" fill="none" stroke="#008000" d="M51.59106 25.79552 66.3643 11.02228"/>
<path transform="matrix(.7071,.7071,.7071,-.7071,156.93216,75.56839)" d="M5.30629 0C4.65466 .16344 1.79025 1.08963 0 2.09753V-2.09753C1.79025-1.08963 4.65466-.16344 5.30629 0Z" fill="#008000"/>
<path transform="matrix(.7071,.7071,.7071,-.7071,156.93216,75.56839)" stroke-width="1.19553" stroke-linecap="butt" stroke-miterlimit="10" stroke-linejoin="miter" fill="none" stroke="#008000" d="M5.30629 0C4.65466 .16344 1.79025 1.08963 0 2.09753V-2.09753C1.79025-1.08963 4.65466-.16344 5.30629 0Z"/>
<use data-text="&#x02d9;" xlink:href="#font_3_5" transform="matrix(8.966376,0,0,-8.966376,160.78684,86.989627)" fill="#008000"/>
<use data-text="&#x03b3;" xlink:href="#font_1_1" transform="matrix(8.966376,0,0,-8.966376,159.4309,86.989627)" fill="#008000"/>
<use data-text="(" xlink:href="#font_3_1" transform="matrix(8.966376,0,0,-8.966376,164.70259,86.989627)" fill="#008000"/>
<use data-text="0" xlink:href="#font_3_3" transform="matrix(8.966376,0,0,-8.966376,168.28017,86.989627)" fill="#008000"/>
<use data-text=")" xlink:href="#font_3_2" transform="matrix(8.966376,0,0,-8.966376,172.87992,86.989627)" fill="#008000"/>
<use data-text="S" xlink:href="#font_4_1" transform="matrix(9.96264,0,0,-9.96264,11.289621,24.313744)"/>
<use data-text="2" xlink:href="#font_5_1" transform="matrix(6.973848,0,0,-6.973848,17.97289,20.698384)"/>
<path transform="matrix(1,0,0,-1,90.56785,86.59067)" d="M132.01258 64.17143H89.09305C86.8921 64.17143 85.10794 62.38727 85.10794 60.18633V50.36642C85.10794 48.16548 86.8921 46.38132 89.09305 46.38132H132.01258C134.21352 46.38132 135.99768 48.16548 135.99768 50.36642V60.18633C135.99768 62.38727 134.21352 64.17143 132.01258 64.17143ZM85.10794 46.38132" fill="#e6e6ff"/>
<path transform="matrix(1,0,0,-1,90.56785,86.59067)" stroke-width=".3985" stroke-linecap="butt" stroke-miterlimit="10" stroke-linejoin="miter" fill="none" stroke="#000080" d="M132.01258 64.17143H89.09305C86.8921 64.17143 85.10794 62.38727 85.10794 60.18633V50.36642C85.10794 48.16548 86.8921 46.38132 89.09305 46.38132H132.01258C134.21352 46.38132 135.99768 48.16548 135.99768 50.36642V60.18633C135.99768 62.38727 134.21352 64.17143 132.01258 64.17143ZM85.10794 46.38132"/>
<use data-text="T" xlink:href="#font_1_5" transform="matrix(8.966376,0,0,-8.966376,179.6609,34.065656)"/>
<use data-text="p" xlink:href="#font_2_4" transform="matrix(5.977584,0,0,-5.977584,185.0369,35.061906)"/>
<use data-text="S" xlink:href="#font_1_4" transform="matrix(8.966376,0,0,-8.966376,189.37546,34.065656)"/>
<use data-text="2" xlink:href="#font_6_1" transform="matrix(5.977584,0,0,-5.977584,195.5149,30.256657)"/>
<use data-text="&#x223c;" xlink:href="#font_7_1" transform="matrix(8.966376,0,0,-8.966376,202.22577,31.723805)"/>
<use data-text="=" xlink:href="#font_3_4" transform="matrix(8.966376,0,0,-8.966376,202.22577,34.563787)"/>
<use data-text="R" xlink:href="#font_8_1" transform="matrix(8.966376,0,0,-8.966376,211.95313,34.065656)"/>
<use data-text="2" xlink:href="#font_6_1" transform="matrix(5.977584,0,0,-5.977584,218.42885,30.256657)"/>
<path transform="matrix(1,0,0,-1,90.56785,86.59067)" stroke-width=".3985" stroke-linecap="butt" stroke-miterlimit="10" stroke-linejoin="miter" fill="none" stroke="#000080" d="M84.92519 55.28711 79.26082 48.90549"/>
<path transform="matrix(-.6638,.74783,.74783,.6638,169.82868,37.68517)" d="M3.7613 0C3.2994 .1127 1.26901 .75136 0 1.44638V-1.44638C1.26901-.75136 3.2994-.1127 3.7613 0Z" fill="#000080"/>
<path transform="matrix(-.6638,.74783,.74783,.6638,169.82868,37.68517)" stroke-width=".3985" stroke-linecap="butt" stroke-miterlimit="10" stroke-linejoin="miter" fill="none" stroke="#000080" d="M3.7613 0C3.2994 .1127 1.26901 .75136 0 1.44638V-1.44638C1.26901-.75136 3.2994-.1127 3.7613 0Z"/>
<use data-text="&#x02d9;" xlink:href="#font_3_5" transform="matrix(8.966376,0,0,-8.966376,47.60226,186.32193)"/>
<use data-text="&#x03b3;" xlink:href="#font_1_1" transform="matrix(8.966376,0,0,-8.966376,46.246324,186.32193)"/>
<use data-text="(" xlink:href="#font_3_1" transform="matrix(8.966376,0,0,-8.966376,51.51802,186.32193)"/>
<use data-text="0" xlink:href="#font_3_3" transform="matrix(8.966376,0,0,-8.966376,55.095605,186.32193)"/>
<use data-text=")" xlink:href="#font_3_2" transform="matrix(8.966376,0,0,-8.966376,59.695356,186.32193)"/>
<use data-text="=" xlink:href="#font_3_4" transform="matrix(8.966376,0,0,-8.966376,65.828357,186.32193)"/>
<use data-text="X" xlink:href="#font_1_6" transform="matrix(8.966376,0,0,-8.966376,75.5804,186.32193)"/>
<use data-text="i" xlink:href="#font_2_3" transform="matrix(5.977584,0,0,-5.977584,83.89432,182.51293)"/>
<use data-text="&#x2202;" xlink:href="#font_1_2" transform="matrix(8.966376,0,0,-8.966376,88.59197,186.32193)"/>
<use data-text="i" xlink:href="#font_2_3" transform="matrix(5.977584,0,0,-5.977584,93.46706,187.31818)"/>
<use data-text="&#xfffd;" xlink:href="#font_9_1" transform="matrix(8.966376,0,0,-8.966376,96.628818,178.70046)"/>
<use data-text="&#xfffd;" xlink:href="#font_9_1" transform="matrix(8.966376,0,0,-8.966376,96.628818,184.08034)"/>
<use data-text="p" xlink:href="#font_2_4" transform="matrix(5.977584,0,0,-5.977584,99.70061,189.95835)"/>
<use data-text="&#x2208;" xlink:href="#font_7_2" transform="matrix(8.966376,0,0,-8.966376,106.599018,186.32193)"/>
<use data-text="T" xlink:href="#font_1_5" transform="matrix(8.966376,0,0,-8.966376,115.30243,186.32193)"/>
<use data-text="p" xlink:href="#font_2_4" transform="matrix(5.977584,0,0,-5.977584,120.67842,187.31819)"/>
<use data-text="M" xlink:href="#font_1_3" transform="matrix(8.966376,0,0,-8.966376,125.017,186.32193)"/>
</svg>
