<svg xmlns="http://www.w3.org/2000/svg" xmlns:xlink="http://www.w3.org/1999/xlink" xmlns:inkscape="http://www.inkscape.org/namespaces/inkscape" version="1.1" width="288.13" height="223.14" viewBox="0 0 288.13 223.14">
<defs>
<path id="font_1_10" d="M.7719879 .574646C.7819977 .6156311 .8009949 .64860537 .8789978 .6516113 .8849945 .6516113 .8969879 .65260317 .8969879 .6696167 .8969879 .6776123 .8909912 .6826172 .8829956 .6826172 .86099246 .6826172 .8049927 .6796112 .7829895 .6796112 .7579956 .6796112 .7559967 .6796112 .7319946 .680603 .71598818 .680603 .69499209 .6826172 .6799927 .6826172 .6759949 .6826172 .6619873 .6826172 .6619873 .6646118 .6619873 .6516113 .673996 .6516113 .6799927 .6516113 .71798709 .65060427 .746994 .6416168 .746994 .6086273 .746994 .6036377 .74398806 .5896454 .74398806 .5886383L.6319885 .1439209 .40299989 .6626129C.3939972 .6816101 .3929901 .6826172 .36999513 .6826172H.23699951C.21798706 .6826172 .20698548 .6826172 .20698548 .6646118 .20698548 .6516113 .21699524 .6516113 .23699951 .6516113 .24198914 .6516113 .2789917 .6516113 .30299378 .6456146L.16799927 .10594177C.1559906 .05697632 .1309967 .033996583 .06098938 .0309906 .056991579 .0309906 .04399109 .02999878 .04399109 .0129852299 .04399109 .010986328 .04399109 0 .057998659 0 .069992069 0 .09498596 .0009918213 .10798645 .0019989014 .12399292 .0029907227 .12599182 .0029907227 .1579895 .0029907227 .18299866 .0029907227 .18499756 .0029907227 .20899964 .0019989014 .22499085 .0019989014 .24598694 0 .26098634 0 .2659912 0 .2789917 0 .2789917 .017990113 .2789917 .02999878 .2679901 .0309906 .25898744 .0309906 .21199036 .03199768 .19400025 .04698181 .19400025 .07395935 .19400025 .080963138 .19499207 .081954959 .19799805 .095947269L.32899476 .6226196 .5970001 .017990113C.60398867 .0019989014 .6049957 0 .61499026 0 .6279907 0 .6289978 .0039978029 .6329956 .020996094L.7719879 .574646Z"/>
<path id="font_1_7" d="M.18199158 .116867069C.1329956 .036987306 .08898926 .033981325 .04899597 .0309906 .041992189 .02999878 .036987306 .021987915 .036987306 .0129852299 .036987306 .0069885256 .040985109 0 .050994874 0 .069992069 0 .116989139 .0029907227 .13598633 .0029907227 .1579895 .0029907227 .21199036 0 .23399353 0 .23999024 0 .25299073 0 .25299073 .017990113 .25299073 .02999878 .24099732 .0309906 .23799134 .0309906 .22898865 .03199768 .19099427 .033981325 .19099427 .063949588 .19099427 .077926639 .20199585 .09689331 .20498657 .101882938L.28399659 .23068238H.54499819C.5479889 .2077179 .5509949 .17378235 .55400088 .14881897 .55799868 .10987854 .56399539 .06593323 .56399539 .062942508 .56399539 .047973634 .5499878 .0309906 .49198915 .0309906 .48199464 .0309906 .46899415 .0309906 .46899415 .0129852299 .46899415 .0019989014 .47698976 0 .48399354 0 .5029907 0 .5269928 .0019989014 .5469971 .0019989014 .5669861 .0019989014 .59098818 .0029907227 .6069946 .0029907227 .6399994 .0029907227 .6419983 .0029907227 .66600039 .0019989014 .6819916 .0009918213 .7049866 0 .72099307 0 .72698977 0 .73999026 0 .73999026 .017990113 .73999026 .0309906 .72898867 .0309906 .71699526 .0309906 .6569977 .0309906 .6559906 .037979127 .6529999 .06694031L.58299258 .68881228C.58099368 .7108154 .5799866 .7158203 .5629883 .7158203 .548996 .7158203 .54299929 .7088165 .5349884 .69581606L.18199158 .116867069M.30299378 .26168824 .5049896 .5917816 .5419922 .26168824H.30299378Z"/>
<path id="font_1_8" d="M.16299439 .07595825C.1539917 .039993287 .1519928 .0309906 .07699585 .0309906 .057998659 .0309906 .04699707 .0309906 .04699707 .0129852299 .04699707 0 .056991579 0 .07499695 0H.43899537C.6009979 0 .7200012 .11793518 .7200012 .21485901 .7200012 .28581239 .6609955 .34576417 .56199648 .35676576 .6759949 .37875367 .772995 .4547119 .772995 .54367068 .772995 .6216278 .70098879 .6826172 .58200076 .6826172H.23999024C.22200012 .6826172 .20999146 .6826172 .20999146 .6646118 .20999146 .6516113 .21899414 .6516113 .23999024 .6516113 .24398804 .6516113 .2619934 .6516113 .27799989 .6496124 .29499818 .6476135 .3019867 .6456146 .3019867 .63461306 .3019867 .6296234 .30099488 .6256256 .2979889 .614624L.16299439 .07595825M.31900025 .36776734 .37998963 .6126251C.3889923 .64860537 .3909912 .6516113 .43299867 .6516113H.56799319C.6719971 .6516113 .68099978 .5726471 .68099978 .54766848 .68099978 .45870973 .58799746 .36776734 .47499085 .36776734H.31900025M.2709961 .0309906C.25698854 .0309906 .25498963 .0309906 .25099183 .03199768 .24099732 .032989503 .23799134 .033996583 .23799134 .040985109 .23799134 .04397583 .23799134 .04597473 .24299622 .063964847L.31199647 .34277345H.5C.56199648 .34277345 .625 .31578065 .625 .22485352 .625 .12593079 .5339966 .0309906 .4139862 .0309906H.2709961Z"/>
<path id="font_2_1" d="M.5009918 .6898804C.4909973 .70788577 .48799134 .7128906 .46798707 .7128906 .45599366 .7128906 .44599916 .70988467 .43699647 .6938782L.067993167 .023986817C.06098938 .0129852299 .06098938 .010986328 .06098938 .009994507 .06098938 0 .068984989 0 .084991458 0H.85198977C.8679962 0 .8759918 0 .8759918 .009994507 .8759918 .010986328 .8759918 .0129852299 .86898806 .023986817L.5009918 .6898804M.43499757 .6148987 .72898867 .08198547H.14099121L.43499757 .6148987Z"/>
<path id="font_2_2" d="M.44799806 .13896179C.6119995 .1509552 .74398806 .2368927 .74398806 .34080506 .74398806 .44869996 .6069946 .53263857 .44799806 .54364016V.60061648C.44799806 .63360598 .44799806 .64660647 .5419922 .64660647H.57699587V.6826172C.5549927 .6816101 .44099427 .6786041 .4039917 .6786041 .34498597 .6786041 .24099732 .6816101 .23098755 .6826172V.64660647H.2659912C.3600006 .64660647 .3600006 .63360598 .3600006 .60061648V.5426483C.18499756 .52864077 .069992069 .43771363 .069992069 .34179688 .069992069 .24189759 .18998719 .15396118 .3600006 .13995362V.08198547C.3600006 .04899597 .3600006 .035995485 .2659912 .035995485H.23098755V0C.25299073 .0009918213 .36698915 .0039978029 .4039917 .0039978029 .46299745 .0039978029 .5669861 .0009918213 .57699587 0V.035995485H.5419922C.44799806 .035995485 .44799806 .04899597 .44799806 .08198547V.13896179M.3600006 .16796875C.2769928 .1759491 .17298889 .21292115 .17298889 .34080506 .17298889 .47268678 .2809906 .50665286 .3600006 .51464846V.16796875M.44799806 .51464846C.5389862 .50764468 .6409912 .46768189 .6409912 .34179688 .6409912 .20991516 .5319977 .1739502 .44799806 .16796875V.51464846Z"/>
<path id="font_3_97" d="M.5130005 .18504334C.5130005 .24205017 .49198915 .28604127 .46798707 .31604005 .4249878 .37104798 .37998963 .38204957 .31498719 .39704896L.22698975 .41804505C.14698792 .43804933 .12098694 .5020447 .12098694 .546051 .12098694 .6130676 .1749878 .677063 .25898744 .677063 .3880005 .677063 .43998719 .5810547 .45399476 .4800415 .45700074 .4610443 .45799256 .4560547 .46998597 .4560547 .48399354 .4560547 .48399354 .4630432 .48399354 .48405458V.677063C.48399354 .69706729 .48399354 .7050781 .47200013 .7050781 .46499635 .7050781 .46398927 .70407107 .45700074 .69207766 .44400025 .67407229 .45399476 .68707278 .42099 .6350708 .4039917 .6550751 .35198976 .7050781 .2579956 .7050781 .14099121 .7047119 .056991579 .6137085 .056991579 .51171877 .056991579 .4336853 .10398865 .38565064 .10899353 .38064576 .1539917 .33662416 .17199707 .33161927 .29100038 .30360414 .37199403 .28459168 .3809967 .28259278 .4139862 .24856568 .4139862 .24856568 .44898988 .21055603 .44898988 .1515503 .44898988 .08354187 .3999939 .008529663 .30899049 .008529663 .23199463 .008529663 .09298706 .040542604 .084991458 .20555115 .083999637 .22055054 .083999637 .2265625 .070999149 .2265625 .056991579 .2265625 .056991579 .21855164 .056991579 .19854737V.0055389406C.056991579-.014465332 .056991579-.022460938 .068984989-.022460938 .07598877-.022460938 .07699585-.021469117 .083999637-.009475708 .09700012 .008529663 .08699036-.004470825 .11999512 .047531129 .18199158-.012466431 .26098634-.022460938 .30999757-.022460938 .43199159-.022460938 .5130005 .07752991 .5130005 .18452454V.18504334Z"/>
<path id="font_3_109" d="M.5469971 .00024414063V.03125C.47898866 .03125 .46998597 .038253786 .46998597 .087265018V.4423828L.31900025 .43138124V.40037538C.3869934 .40037538 .3959961 .39337159 .3959961 .34436036V.16729737C.3959961 .07826233 .34599305 .014251709 .27398683 .014251709 .19099427 .014251709 .18598938 .057266237 .18598938 .11128235V.4423828L.034988405 .43138124V.40037538C.11199951 .40037538 .11199951 .39736939 .11199951 .3083496V.15829468C.11199951 .09327698 .11199951 .051254274 .1579895 .01625061 .18699646-.003753662 .22799683-.0107421879 .2679901-.0107421879 .31999208-.0107421879 .36898805 .012252808 .397995 .072265628H.39898683V-.0107421879L.5469971 .00024414063Z"/>
<path id="font_3_75" d="M.83299258 0V.0309906C.7819977 .03125 .7569885 .03125 .7559967 .0622406V.2539215C.7559967 .34077455 .7559967 .36872865 .72299197 .4056549 .70199587 .43037416 .6619873 .4423828 .6159973 .4423828 .5439911 .4423828 .49499513 .40037538 .46699525 .3473816 .45498658 .40637208 .4149933 .4423828 .33099366 .4423828 .25099183 .4423828 .20199585 .39038087 .18099976 .3443756H.17999268V.4423828L.034988405 .43066407V.3996582C.102996829 .3996582 .11199951 .39266969 .11199951 .34370423V.07695007C.11199951 .0309906 .100997928 .0309906 .034988405 .0309906V0C.08198547 .0019989014 .100997928 .0029907227 .14898682 .0029907227 .19699097 .0029907227 .20999146 .0019989014 .2630005 0V.0309906C.19699097 .0309906 .18598938 .0309906 .18598938 .07695007V.25878907C.18598938 .36732484 .2639923 .41737367 .32398988 .41737367 .3789978 .41737367 .39698792 .37834168 .39698792 .30825807V.077041629C.39698792 .0309906 .38598634 .0309906 .31999208 .0309906V0C.36698915 .0019989014 .38598634 .0029907227 .43399049 .0029907227 .48199464 .0029907227 .49499513 .0019989014 .5479889 0V.0309906C.48199464 .0309906 .47099305 .0309906 .47099305 .077041629V.2592163C.47099305 .36732484 .548996 .41737367 .60899356 .41737367 .6639862 .41737367 .6819916 .37834168 .6819916 .30825807V.077041629C.6819916 .0309906 .67099 .0309906 .6049957 .0309906V0C.6519928 .0019989014 .67099 .0029907227 .71899417 .0029907227 .7669983 .0029907227 .7799988 .0019989014 .83299258 0Z"/>
<path id="font_3_81" d="M.48399354 .21324158C.48399354 .34423829 .37998963 .4482422 .25698854 .4482422 .12998963 .4482422 .0289917 .3412323 .0289917 .21324158 .0289917 .08824158 .1329956-.0107421879 .2559967-.0107421879 .3829956-.0107421879 .48399354 .09024048 .48399354 .21324158M.397995 .22224427C.397995 .1852417 .397995 .12724304 .37298585 .08325195 .34498597 .037246705 .29899598 .01725769 .25698854 .01725769 .20698548 .01725769 .16499329 .042251588 .14199829 .08125305 .115997318 .12324524 .114990238 .17623902 .114990238 .22224427 .114990238 .25924684 .114990238 .3162384 .13999939 .35723878 .16999817 .40823365 .21998596 .42323304 .2559967 .42323304 .31298829 .42323304 .35398866 .39123536 .37399293 .35723878 .39698792 .31523133 .397995 .26423646 .397995 .22224427Z"/>
<path id="font_3_55" d="M.3659973 .6340637C.3659973 .67207339 .32798768 .7050781 .272995 .7050781 .19499207 .7046509 .11299133 .6456604 .11299133 .5456543V.43066407H.033996583V.3996582H.11299133V.07695007C.11299133 .0309906 .101989749 .0309906 .035995485 .0309906V0C.08898926 .0019989014 .101989749 .0029907227 .15299988 .0029907227L.27999879 0V.0309906H.2599945C.18699646 .0309906 .18399048 .04197693 .18399048 .078948978V.3996582H.2999878V.43066407H.18099976V.5436554C.18099976 .6350708 .22999573 .68006899 .272995 .68006899 .2829895 .68006899 .29299928 .67807009 .30299378 .67407229 .29299928 .67007449 .2769928 .6580658 .2769928 .6330719 .2769928 .6070709 .29599 .58906558 .32099916 .58906558 .34799195 .58906558 .3659973 .60806277 .3659973 .6340637Z"/>
<path id="font_3_28" d="M.49699403 .089141849V.14515686H.46899415V.090148929C.46899415 .07914734 .46899415 .029129029 .43299867 .029129029 .39698792 .029129029 .39698792 .07714844 .39698792 .09315491V.26818849C.39698792 .32521058 .39698792 .3592224 .35198976 .40022279 .31498719 .43322755 .2669983 .4482422 .21699524 .4482422 .1329956 .4482422 .06298828 .40623475 .06298828 .34220887 .06298828 .311203 .083999637 .2942047 .10998535 .2942047 .13699341 .2942047 .1559906 .31420899 .1559906 .34020997 .1559906 .3832245 .11099243 .38822938 .11099243 .38822938 .13798523 .41423036 .18598938 .42323304 .21499634 .42323304 .2659912 .42323304 .32299806 .3852234 .32299806 .29719544V.26419068C.2689972 .26219178 .19400025 .2571869 .1269989 .22518921 .054992677 .19017029 .032989503 .13816834 .032989503 .09814453 .032989503 .01625061 .12998963-.0107421879 .19699097-.0107421879 .27999879-.0107421879 .31799317 .04425049 .33198548 .072250369 .33699037 .030136109 .3659973-.005859375 .40899659-.005859375 .43399049-.005859375 .49699403 .009140015 .49699403 .08912659V.089141849M.32299806 .14112854C.32299806 .04425049 .24798584 .014251709 .20399475 .014251709 .15699768 .014251709 .11299133 .04824829 .11299133 .098236087 .11299133 .16423035 .16999817 .23422241 .32299806 .24023438V.14112854Z"/>
<path id="font_3_77" d="M.5469971 0V.0309906C.49598695 .03125 .47099305 .03125 .46998597 .0622406V.25431825C.46998597 .3373413 .46998597 .36636354 .44198609 .4013672 .4189911 .42938233 .3809967 .4423828 .33099366 .4423828 .23799134 .4423828 .19499207 .37335206 .18099976 .34535218H.17999268V.4423828L.034988405 .43066407V.3996582C.102996829 .3996582 .11199951 .39266969 .11199951 .34370423V.07695007C.11199951 .0309906 .100997928 .0309906 .034988405 .0309906V0C.08198547 .0019989014 .100997928 .0029907227 .14898682 .0029907227 .19699097 .0029907227 .20999146 .0019989014 .2630005 0V.0309906C.19699097 .0309906 .18598938 .0309906 .18598938 .07695007V.25878907C.18598938 .36532594 .26098634 .41737367 .32398988 .41737367 .3829956 .41737367 .3959961 .3683319 .3959961 .30825807V.077041629C.3959961 .0309906 .3849945 .0309906 .31900025 .0309906V0C.3659973 .0019989014 .3849945 .0029907227 .43299867 .0029907227 .48098756 .0029907227 .49398805 .0019989014 .5469971 0Z"/>
<path id="font_3_59" d="M.49899293 .40338136C.49899293 .42237855 .4850006 .45336915 .44499208 .45336915 .41600038 .45336915 .37098695 .4423828 .33599855 .40637208 .30899049 .42837525 .269989 .4423828 .22799683 .4423828 .1329956 .4423828 .06098938 .3743744 .06098938 .29537965 .06098938 .2443695 .09098816 .20837403 .10699463 .19337464 .10499573 .19137573 .07699585 .15637207 .07699585 .11038208 .07699585 .07637024 .09298706 .040374757 .11999512 .022369385 .068984989 .005874634 .0289917-.03111267 .0289917-.07809448 .0289917-.14907837 .12799073-.20605469 .2559967-.20605469 .3789978-.20605469 .48399354-.15307617 .48399354-.07609558 .48399354-.035110475 .46499635 .008880615 .42799378 .03288269 .37199403 .067871097 .31399537 .067871097 .21899414 .067871097 .19898987 .067871097 .16699219 .067871097 .15899658 .069885257 .12998963 .075927738 .11099243 .1031189 .11099243 .13534546 .11099243 .15142823 .115997318 .16642761 .125 .1794281 .1499939 .16343689 .18099976 .1484375 .22698975 .1484375 .32199098 .1484375 .3939972 .21643067 .3939972 .29542542 .3939972 .34443666 .3659973 .37843324 .35299684 .39242555 .3929901 .42843629 .43998719 .42843629 .45199586 .42843629 .44699098 .4254303 .43899537 .42042542 .43899537 .4024353 .43899537 .39143373 .44599916 .37243653 .46899415 .37243653 .48298646 .37243653 .49899293 .38243104 .49899293 .40342713V.40338136M.31698609 .29542542C.31698609 .27243043 .31698609 .1754303 .22698975 .1754303 .13798523 .17520142 .13798523 .27326966 .13798523 .2952881 .13798523 .3223114 .13999939 .35632325 .15699768 .38034059 .17199707 .4003601 .19898987 .41537477 .22698975 .41537477 .31698609 .41537477 .31698609 .31829835 .31698609 .2952881V.29542542M.42799378-.07698059C.42799378-.1340332 .35099793-.17906189 .25698854-.17906189 .15899658-.17912293 .084991458-.13212586 .084991458-.07711792 .084991458-.06112671 .09498596 .0048828127 .18099976 .0048828127H.272995C.30499269 .0048828127 .42799378 .0038757325 .42799378-.07711792V-.07698059Z"/>
<path id="font_3_72" d="M.26098634 0V.0309906C.19499207 .0309906 .18399048 .0309906 .18399048 .07701111V.69433596L.035995485 .6826172V.6516113C.10398865 .6516113 .11299133 .64460757 .11299133 .5956421V.07696533C.11299133 .0309906 .101989749 .0309906 .035995485 .0309906V0C.08299255 .0019989014 .101989749 .0029907227 .147995 .0029907227 .19499207 .0029907227 .21199036 .0019989014 .26098634 0Z"/>
<path id="font_3_50" d="M.4269867 .11936951C.4269867 .12637329 .42199708 .13237 .41299439 .13237 .40299989 .13237 .3999939 .12536621 .39898683 .12136841 .36499024 .019256592 .27598573 .01725769 .26098634 .01725769 .21299744 .01725769 .17199707 .044281007 .14898682 .078323367 .115997318 .12736511 .114990238 .18743897 .114990238 .22949219H.3999939C.42199708 .22949219 .4269867 .22949219 .4269867 .25048829 .4269867 .35333253 .37098695 .4482422 .24299622 .4482422 .12298584 .4482422 .0289917 .3443451 .0289917 .22047425 .0289917 .08932495 .13398743-.0107421879 .2559967-.0107421879 .37799073-.0107421879 .4269867 .096343997 .4269867 .11936951M.35899354 .253479H.115997318C.125 .40725709 .21499634 .42323304 .24299622 .42323304 .2979889 .42323304 .35798646 .38130189 .35899354 .253479Z"/>
<path id="font_3_98" d="M.36999513 .12831116C.36999513 .17330933 .34999085 .20030213 .32798768 .22329712 .2939911 .25628663 .2579956 .26327516 .18399048 .2772827 .1579895 .28227235 .084991458 .29527284 .084991458 .35224916 .084991458 .38424684 .10798645 .426239 .19898987 .426239 .30699159 .426239 .31399537 .34326173 .31599427 .31826783 .31698609 .3062744 .31698609 .3002777 .32998658 .3002777 .34399415 .3002777 .34399415 .30726625 .34399415 .32626344V.4222412C.34399415 .4392395 .34399415 .4482422 .33198548 .4482422 .32699586 .4482422 .32499696 .4482422 .31199647 .43623353 .30999757 .43423463 .30099488 .42523194 .29499818 .4202423 .2639923 .44223023 .23298645 .4482422 .19898987 .4482422 .066986087 .4482422 .033996583 .37524415 .033996583 .32426454 .033996583 .29226686 .04798889 .26628114 .070999149 .24429322 .10499573 .21330261 .14299011 .20629883 .19400025 .19729615 .24499512 .18730164 .2619934 .18431092 .28399659 .16731262 .2939911 .15931702 .31900025 .14031983 .31900025 .10229492 .31900025 .014251709 .21798706 .014251709 .20399475 .014251709 .101989749 .014251709 .07598877 .0993042 .06399536 .15332031 .06098938 .16331482 .05999756 .16931153 .04798889 .16931153 .033996583 .16931153 .033996583 .16131592 .033996583 .14331055V.01524353C.033996583-.0017547608 .033996583-.0107421879 .04598999-.0107421879 .051986696-.0107421879 .052993776-.009750366 .070999149 .009246826 .07499695 .01524353 .085998538 .028259278 .09098816 .03326416 .1329956-.007751465 .1789856-.0107421879 .20399475-.0107421879 .32699586-.0107421879 .36999513 .061279298 .36999513 .12831116Z"/>
<path id="font_4_8" d="M.70799258 .3310089C.7220001 .3310089 .7409973 .3310089 .7409973 .35202027 .7409973 .37402345 .71899417 .37402345 .70399478 .37402345H.09399414C.07899475 .37402345 .056991579 .37402345 .056991579 .35202027 .056991579 .3310089 .07699585 .3310089 .08999634 .3310089H.70799258M.70399478 .12695313C.71899417 .12695313 .7409973 .12695313 .7409973 .14894104 .7409973 .1699524 .7220001 .1699524 .70799258 .1699524H.08999634C.07699585 .1699524 .056991579 .1699524 .056991579 .14894104 .056991579 .12695313 .07899475 .12695313 .09399414 .12695313H.70399478Z"/>
<path id="font_4_7" d="M.30499269 .35195924C.397995 .38697816 .44198609 .46006776 .44198609 .5290985 .44198609 .60606387 .35699464 .6660156 .25299073 .6660156 .14898682 .6660156 .070999149 .60705569 .070999149 .5310974 .070999149 .49809266 .09298706 .47909547 .12199402 .47909547 .15098572 .47909547 .17199707 .50009158 .17199707 .5290985 .17199707 .5640869 .147995 .57910159 .11399841 .57910159 .13999939 .6210327 .20098877 .64100649 .25 .64100649 .33299256 .64100649 .34899903 .5750885 .34899903 .52809146 .34899903 .49809266 .34298707 .45005799 .31799317 .41201783 .2869873 .36695863 .2519989 .36495973 .22299195 .36296083 .19799805 .36094667 .19599915 .36094667 .18798828 .36094667 .1789856 .35995484 .17098999 .35894776 .17098999 .34794618 .17098999 .33496095 .1789856 .33496095 .19599915 .33496095H.24299622C.32998658 .33496095 .36799623 .2646637 .36799623 .16937256 .36799623 .04145813 .2999878 .0055389406 .24899292 .0055389406 .22999573 .0055389406 .1329956 .010528564 .08799744 .0843811 .12399292 .07939148 .1519928 .10437012 .1519928 .13838196 .1519928 .17137146 .1269989 .19238281 .09799194 .19238281 .07299805 .19238281 .042999269 .17736817 .042999269 .13537598 .042999269 .046447755 .13598633-.022460938 .2519989-.022460938 .3769989-.022460938 .46998597 .06741333 .46998597 .16937256 .46998597 .25663758 .40098573 .33093263 .30499269 .35195924Z"/>
<path id="font_1_2" d="M.272995 .36865235H.3869934C.37199403 .30575563 .34599305 .20193482 .34599305 .11906433 .34599305 .112075809 .34599305 .075149539 .35499574 .03919983 .36499024 .0012512207 .37399293-.0107421879 .3939972-.0107421879 .4149933-.0107421879 .43699647 .007247925 .43699647 .030212403 .43699647 .037200929 .43598939 .04020691 .42999269 .05317688 .39898683 .123062137 .39898683 .19694519 .39898683 .21990967 .39898683 .24485779 .39898683 .28878785 .41600038 .36865235H.5329895C.54599 .36865235 .58299258 .36865235 .58299258 .4046631 .58299258 .43066407 .5609894 .43066407 .5419922 .43066407H.19599915C.17199707 .43066407 .13699341 .43066407 .08999634 .38365174 .06298828 .3566742 .026992798 .30177308 .026992798 .29377748 .026992798 .2828064 .037994386 .2828064 .040985109 .2828064 .04899597 .2828064 .050994874 .28479005 .056991579 .29478456 .10598755 .36865235 .16699219 .36865235 .18699646 .36865235H.24398804C.20098877 .21791077 .13198853 .07614136 .125 .061172487 .117996219 .047195436 .10798645 .026229859 .10798645 .018234253 .10798645 .0052490236 .116989139-.0107421879 .13899231-.0107421879 .1749878-.0107421879 .18399048 .025222779 .20498657 .10609436L.272995 .36865235Z"/>
<path id="font_1_5" d="M.44999696 .70999148C.45599366 .723999 .45599366 .7259979 .45599366 .7279968 .45599366 .7409973 .44599916 .75 .43499757 .75 .42099 .75 .4169922 .74198916 .41600038 .73999026L.06298828-.21000672C.056991579-.22401428 .056991579-.22601319 .056991579-.22801209 .056991579-.24101258 .066986087-.25 .07798767-.25 .08799744-.25 .09599304-.2460022 .102996829-.22601319L.44999696 .70999148Z"/>
<path id="font_4_6" d="M.46199037 .17704773H.43399049C.43199159 .16404724 .42399598 .10501099 .41099549 .08900452 .40499879 .07998657 .33599855 .07998657 .31599427 .07998657H.13798523L.23699951 .17404175C.40098573 .3161316 .46199037 .36915589 .46199037 .4711914 .46199037 .5860901 .36698915 .6660156 .24398804 .6660156 .1289978 .6660156 .050994874 .575119 .050994874 .4841919 .050994874 .43418885 .09399414 .42919923 .102996829 .42919923 .125 .42919923 .15499878 .44519044 .15499878 .48120118 .15499878 .51119998 .13398743 .5332031 .102996829 .5332031 .09799194 .5332031 .09498596 .5332031 .09098816 .53219607 .114990238 .6030731 .1789856 .63500979 .23298645 .63500979 .33499146 .63500979 .36999513 .5401764 .36999513 .4711914 .36999513 .36915589 .29299928 .28611756 .24499512 .23408509L.06199646 .035995485C.050994874 .024993897 .050994874 .022994996 .050994874 0H.43399049L.46199037 .17704773Z"/>
<path id="font_1_6" d="M.69200137 .22721863C.7029877 .23220825 .71199038 .23721314 .71199038 .2512207 .71199038 .2642212 .70098879 .2702179 .69200137 .2742157L.12799073 .5452118C.11399841 .5522156 .10899353 .5522156 .10699463 .5522156 .09399414 .5522156 .085998538 .541214 .085998538 .5312195 .085998538 .5192261 .09199524 .5142212 .10598755 .5072174L.6409912 .2512207 .10598755-.005783081C.09199524-.012786865 .085998538-.017791748 .085998538-.029785157 .085998538-.03678894 .09199524-.05078125 .10798645-.05078125 .10899353-.05078125 .11399841-.05078125 .12599182-.044784547L.69200137 .22721863Z"/>
<path id="font_1_9" d="M.5159912 .41674806 .71899417 .5696564 .73098757 .5766449C.79299929 .6196289 .83099368 .6456146 .8899994 .6516113 .8969879 .65260317 .9079895 .6536102 .9079895 .6696167 .9079895 .6746063 .9049988 .6826172 .8959961 .6826172 .8880005 .6826172 .8819885 .6796112 .82199099 .6796112 .7859955 .6796112 .7489929 .6826172 .71398928 .6826172 .70799258 .6826172 .69499209 .6826172 .69499209 .6646118 .69499209 .65260317 .70599368 .6516113 .70899966 .6516113 .71699526 .65060427 .7369995 .6496124 .7369995 .6336212 .7369995 .6256256 .73098757 .6126251 .71699526 .6006317 .71299746 .5966339 .71199038 .5956421 .70899966 .5936432 .70599368 .5896454 .70399478 .5886383 .69898989 .5846405L.30099488 .28683473 .3809967 .6056366C.3899994 .6436157 .3929901 .6516113 .47099305 .6516113 .4869995 .6516113 .49798585 .6516113 .49798585 .6696167 .49798585 .6786041 .4909973 .6826172 .48298646 .6826172 .46398927 .6826172 .43998719 .680603 .41999818 .680603 .39898683 .6796112 .37599183 .6796112 .35598756 .6796112 .32398988 .6796112 .32199098 .6796112 .2919922 .680603 .27198792 .6816101 .24598694 .6826172 .22698975 .6826172 .22099304 .6826172 .20698548 .6826172 .20698548 .6646118 .20698548 .6516113 .21598816 .6516113 .23699951 .6516113 .24099732 .6516113 .25898744 .6516113 .2749939 .6496124 .2919922 .6476135 .29899598 .6456146 .29899598 .63461306 .29899598 .6296234 .2979889 .6256256 .29499818 .614624L.1599884 .07595825C.15098572 .039993287 .14898682 .0309906 .07398987 .0309906 .054992677 .0309906 .04399109 .0309906 .04399109 .0129852299 .04399109 .0019989014 .051986696 0 .05899048 0 .07798767 0 .102996829 .0009918213 .12199402 .0019989014 .1519928 .0029907227 .1539917 .0029907227 .18598938 .0029907227 .21798706 .0029907227 .21998596 .0029907227 .25 .0019989014 .269989 .0009918213 .29599 0 .31498719 0 .32199098 0 .33499146 0 .33499146 .017990113 .33499146 .0309906 .32499696 .0309906 .3039856 .0309906 .2999878 .0309906 .28199769 .0309906 .2659912 .032989503 .24398804 .035995485 .24299622 .039993287 .24299622 .048980714 .24299622 .05697632 .2519989 .09095764 .2919922 .24885559L.44499208 .3637848 .57299807 .08395386C.5779877 .07096863 .5799866 .06796265 .5799866 .06097412 .5799866 .03199768 .5379944 .0309906 .5299988 .0309906 .5179901 .0309906 .5059967 .0309906 .5059967 .0129852299 .5059967 .0029907227 .5149994 0 .5219879 0 .54100039 0 .5609894 .0019989014 .5799866 .0019989014 .59999087 .0019989014 .62098696 .0029907227 .6409912 .0029907227 .6579895 .0029907227 .68499758 .0029907227 .69200137 .0019989014L.7409973 0C.7449951 0 .7589874 0 .7589874 .017990113 .7589874 .0309906 .746994 .0309906 .7409973 .0309906 .70599368 .03199768 .68899539 .035995485 .6719971 .07296753L.5159912 .41674806Z"/>
<path id="font_4_5" d="M.3039856 .6392822C.3039856 .6642761 .30299378 .666275 .27799989 .666275 .21598816 .60227969 .12399292 .60227969 .09298706 .60227969V.57128909C.11199951 .57128909 .17298889 .57128909 .22698975 .5972748V.08001709C.22698975 .042999269 .22399903 .0309906 .1309967 .0309906H.09899902V0C.1349945 .0029907227 .22399903 .0029907227 .2649994 .0029907227 .30599977 .0029907227 .3959961 .0029907227 .43199159 0V.0309906H.3999939C.30699159 .0309906 .3039856 .042999269 .3039856 .08001709V.6392822Z"/>
<path id="font_1_11" d="M.3809967 .6125946C.3869934 .63760378 .3899994 .6476135 .4079895 .65060427 .4169922 .6516113 .44999696 .6516113 .47099305 .6516113 .5499878 .6516113 .6599884 .6516113 .6599884 .5505829 .6599884 .51356509 .644989 .4385376 .58799746 .39552308 .56399539 .3795166 .5139923 .35351563 .43299867 .35351563H.31599427L.3809967 .6125946M.5359955 .33850099C.6719971 .3735199 .7559967 .44953919 .7559967 .53157046 .7559967 .61860659 .6609955 .6826172 .5279999 .6826172H.23799134C.21998596 .6826172 .20799256 .6826172 .20799256 .6646118 .20799256 .6516113 .21699524 .6516113 .23799134 .6516113 .24198914 .6516113 .2599945 .6516113 .27598573 .6496124 .29299928 .6476135 .2999878 .6456146 .2999878 .6345978 .2999878 .62960818 .29899598 .6255951 .29599 .6145935L.16099549 .075531009C.1519928 .039535524 .1499939 .030532837 .07499695 .030532837 .055999757 .030532837 .04499817 .030532837 .04499817 .012527466 .04499817 .0015258789 .052993776-.00047302247 .05999756-.00047302247 .07598877-.00047302247 .10598755 .0005340576 .12298584 .0015258789 .14399719 .002532959 .1459961 .002532959 .18499756 .002532959 .21699524 .002532959 .21899414 .002532959 .24899292 .0015258789 .2689972 .0005340576 .2939911-.00047302247 .31298829-.00047302247 .31999208-.00047302247 .33299256-.00047302247 .33299256 .017532349 .33299256 .030532837 .32299806 .030532837 .3019867 .030532837 .2979889 .030532837 .27999879 .030532837 .2639923 .03253174 .24198914 .03552246 .24099732 .039535524 .24099732 .04852295 .24099732 .05152893 .24099732 .053527833 .24598694 .0715332L.30999757 .32850648H.43299867C.522995 .32850648 .54599 .27650453 .54599 .23851013 .54599 .2315216 .54599 .22451782 .5399933 .20251465 .5159912 .11051941 .5159912 .10151672 .5159912 .08653259 .5159912-.0034637452 .6009979-.022460938 .6519928-.022460938 .7389984-.022460938 .7749939 .07852173 .7749939 .0945282 .7749939 .10151672 .7689972 .10652161 .7619934 .10652161 .7509918 .10652161 .75 .10151672 .74598696 .089523319 .72898867 .037521364 .69200137 .002532959 .6549988 .002532959 .61698916 .002532959 .61499026 .03253174 .61499026 .061523439 .61499026 .08653259 .621994 .14451599 .6230011 .15151978 .625 .16752625 .6299896 .20751953 .6299896 .22251892 .6299896 .2795105 .59399417 .31851197 .5359955 .33850099Z"/>
<path id="font_5_1" d="M.5379944 .18702698H.5009918C.49899293 .17301941 .4889984 .10699463 .47399903 .09599304 .46699525 .08999634 .38598634 .08999634 .37199403 .08999634H.18499756L.31298829 .19403076C.34700013 .22103882 .43598939 .28504945 .46699525 .31506349 .49699403 .3450775 .5379944 .39608766 .5379944 .46710206 .5379944 .5920563 .4249878 .66503909 .29100038 .66503909 .1619873 .66503909 .07199097 .58006289 .07199097 .48609925 .07199097 .43510438 .114990238 .42910768 .12599182 .42910768 .15098572 .42910768 .17999268 .44709779 .17999268 .48310853 .17999268 .50509646 .16699219 .5371094 .12298584 .5371094 .1459961 .5880585 .20698548 .6260376 .27598573 .6260376 .3809967 .6260376 .43699647 .5480957 .43699647 .46710206 .43699647 .39608766 .3899994 .32305909 .31999208 .25904847L.08299255 .041992189C.07299805 .03199768 .07199097 .0309906 .07199097 0H.5069885L.5379944 .18702698Z"/>
<path id="font_4_4" d="M.47299195 .31976319C.47299195 .38682557 .46998597 .47288514 .43499757 .5479431 .3909912 .64201357 .31498719 .6660156 .25698854 .6660156 .19699097 .6660156 .12098694 .64201357 .07699585 .5459442 .04499817 .47688294 .039993287 .39582826 .039993287 .31976319 .039993287 .25471498 .041992189 .15765381 .084991458 .07858276 .13198853-.0064697267 .20999146-.022460938 .2559967-.022460938 .32099916-.022460938 .394989 .0055389406 .43699647 .097595218 .46699525 .1646576 .47299195 .23971558 .47299195 .31976319M.25698854 .002532959C.22698975 .002532959 .15499878 .016540528 .13598633 .12962342 .12599182 .18867493 .12599182 .2747345 .12599182 .33177186 .12599182 .39982606 .12599182 .47888185 .13798523 .53393557 .1579895 .6230011 .22200012 .64100649 .2559967 .64100649 .2939911 .64100649 .35699464 .62098696 .37599183 .5279236 .3869934 .47288514 .3869934 .39482118 .3869934 .33177186 .3869934 .2697296 .3869934 .18566895 .3769989 .12661743 .35598756 .012542725 .28199769 .002532959 .25698854 .002532959Z"/>
<path id="font_6_1" d="M.644989 .69506838C.644989 .69807437 .6429901 .7050781 .6339874 .7050781 .6289978 .7050781 .6279907 .70407107 .6159973 .6900635L.56799319 .6330414C.5419922 .68006899 .48999024 .7050781 .4249878 .7050781 .2979889 .7050781 .17799378 .58999636 .17799378 .4689026 .17799378 .38783265 .23098755 .34179688 .28199769 .32678224L.3889923 .2987671C.42599488 .2897644 .48098756 .27474977 .48098756 .19267273 .48098756 .1026001 .39898683 .008529663 .30099488 .008529663 .23699951 .008529663 .12599182 .030548096 .12599182 .15464783 .12599182 .17866516 .1309967 .2026825 .13198853 .20869446 .1329956 .21269226 .13398743 .21369934 .13398743 .21569824 .13398743 .22570801 .1269989 .22669983 .12199402 .22669983 .116989139 .22669983 .114990238 .22570801 .11199951 .22270203 .10798645 .21870423 .051986696-.009475708 .051986696-.012466431 .051986696-.018463135 .056991579-.022460938 .06298828-.022460938 .067993167-.022460938 .068984989-.021469117 .08099365-.007461548L.12998963 .049560548C.17298889-.008468628 .24099732-.022460938 .29899598-.022460938 .43499757-.022460938 .5529938 .11061096 .5529938 .2347107 .5529938 .30377198 .5189972 .33779908 .5039978 .35180665 .48098756 .37483216 .46598817 .37882997 .3769989 .40185548 .35499574 .40785218 .31900025 .41786195 .30999757 .41986085 .2829895 .42886354 .24899292 .457901 .24899292 .51094058 .24899292 .59199526 .32899476 .677063 .42399598 .677063 .5069885 .677063 .56799319 .6340332 .56799319 .52194216 .56799319 .48991395 .56399539 .47190858 .56399539 .4658966 .56399539 .4649048 .56399539 .45588685 .57598879 .45588685 .58599856 .45588685 .58699038 .45889283 .59098818 .47590638L.644989 .69506838Z"/>
<path id="font_2_3" d="M.5049896 .18203736H.47099305C.46798707 .16001892 .45799256 .100997928 .44499208 .09098816 .43699647 .084991458 .3600006 .084991458 .34599305 .084991458H.1619873C.2669983 .17803955 .3019867 .20603943 .3619995 .25306703 .43598939 .312088 .5049896 .374115 .5049896 .46914674 .5049896 .5900879 .39898683 .6640625 .2709961 .6640625 .14698792 .6640625 .06298828 .57710269 .06298828 .4851532 .06298828 .43414308 .10598755 .42915345 .115997318 .42915345 .13999939 .42915345 .16899109 .44615174 .16899109 .48214723 .16899109 .5001526 .1619873 .53515627 .10998535 .53515627 .14099121 .6060791 .20899964 .62805178 .2559967 .62805178 .35598756 .62805178 .4079895 .5501404 .4079895 .46914674 .4079895 .38212586 .34599305 .3130951 .31399537 .27708436L.07299805 .038986207C.06298828 .02999878 .06298828 .027999878 .06298828 0H.47499085L.5049896 .18203736Z"/>
<path id="font_4_11" d="M.3889923 .120285037C.3889923 .10227966 .3889923 .09927368 .37399293 .07827759 .34298707 .0332489 .29699708 .014251709 .25698854 .014251709 .21398926 .014251709 .17399597 .038253786 .147995 .08027649 .12199402 .123291019 .11999512 .18229676 .11999512 .21430969 .11999512 .26132203 .12599182 .3143463 .1519928 .35435487 .17399597 .3863678 .21499634 .41737367 .2679901 .41737367 .30999757 .41737367 .34999085 .39637757 .3769989 .35835267 .3889923 .3423462 .3889923 .34135438 .3889923 .32234193V.120285037M.3919983 .38336183C.3869934 .38937379 .34199525 .4423828 .2639923 .4423828 .14099121 .4423828 .033996583 .34436036 .033996583 .21531677 .033996583 .090270999 .13398743-.0107421879 .25299073-.0107421879 .32598878-.0107421879 .37098695 .03225708 .3889923 .053268434V-.011001587L.5399933 0V.0309906C.47200013 .0309906 .46299745 .037994386 .46299745 .087020877V.69433596L.31498719 .68333438V.6523285C.3829956 .6523285 .3919983 .6453247 .3919983 .5962982V.38336183Z"/>
<path id="font_1_12" d="M.39698792 .37402345C.35398866 .37001039 .34999085 .3360138 .34999085 .32901 .34999085 .31201173 .36299134 .29901124 .38198854 .29901124 .4099884 .29901124 .42900086 .32202149 .42900086 .355011 .42900086 .40527345 .37998963 .4423828 .30599977 .4423828 .17199707 .4423828 .13398743 .3420105 .13398743 .2960205 .13398743 .25810243 .15299988 .23814392 .1659851 .22616577 .18598938 .2071991 .21299744 .20121765 .24899292 .19422913 .2939911 .1852417 .3039856 .18325806 .32199098 .17027283 .33799745 .15830994 .34700013 .14231873 .34700013 .12130737 .34700013 .0953064 .32299806 .014251709 .20199585 .014251709 .1789856 .014251709 .10899353 .01725769 .08699036 .063308719 .13699341 .063308719 .14698792 .10331726 .14698792 .11730957 .14698792 .14730835 .11999512 .15332031 .10899353 .15332031 .09098816 .15332031 .052993776 .13931275 .052993776 .08731079 .052993776 .025268555 .115997318-.0107421879 .20098877-.0107421879 .36898805-.0107421879 .4059906 .11231995 .4059906 .15530396 .4059906 .1932373 .3849945 .21717835 .37298585 .2291565 .34700013 .25610353 .31498719 .26208497 .27999879 .2690735 .2679901 .2720642 .24598694 .276062 .24299622 .27705384 .20999146 .28404237 .19198609 .3040161 .19198609 .32901 .19198609 .3400116 .19898987 .37200929 .22698975 .3941803 .25498963 .41636659 .29299928 .41737367 .30599977 .41737367 .34098817 .41737367 .38198854 .40628053 .39698792 .37402345Z"/>
<path id="font_7_1" d="M.42599488-1.1462402C.42599488-1.1412354 .42399598-1.1382294 .42199708-1.1372376 .37298585-1.0862274 .30699159-1.0032044 .2689972-.86317446 .24798584-.78616335 .23098755-.69114688 .23098755-.5581207 .23098755-.25306703 .31698609-.088027957 .4229889 .022979737 .42599488 .024978638 .42599488 .02798462 .42599488 .0309906 .42599488 .037979127 .42099 .041992189 .41299439 .041992189 .394989 .041992189 .33399964-.026016236 .33198548-.028015137 .21499634-.16104126 .15699768-.35107423 .15699768-.55711367 .15699768-.76016238 .21299744-.98820498 .38598634-1.1412354 .4039917-1.1572266 .4059906-1.1572266 .41299439-1.1572266 .42099-1.1572266 .42599488-1.1532288 .42599488-1.1462402Z"/>
<path id="font_1_1" d="M.46598817 .49519349C.46598817 .5981293 .43199159 .7050781 .33999635 .7050781 .19400025 .7050781 .040985109 .4202423 .040985109 .19825745 .040985109 .12625122 .06298828-.0107421879 .16699219-.0107421879 .31298829-.0107421879 .46598817 .27127076 .46598817 .49519349M.1499939 .36328126C.16999817 .44223023 .19099427 .5151825 .23199463 .58413699 .2559967 .62409976 .29299928 .68006899 .33898927 .68006899 .3929901 .68006899 .39698792 .59413149 .39698792 .55615237 .39698792 .4961853 .3809967 .426239 .3659973 .36328126H.1499939M.35699464 .3312683C.34098817 .26826478 .32199098 .19326782 .28199769 .12225342 .2559967 .07525635 .21598816 .014251709 .16799927 .014251709 .125 .014251709 .11099243 .06625366 .11099243 .13926697 .11099243 .20326233 .1269989 .26826478 .14199829 .3312683H.35699464Z"/>
<path id="font_4_3" d="M.70599368 .22944641C.7200012 .22944641 .7409973 .22944641 .7409973 .25045777 .7409973 .27246095 .7220001 .27246095 .70599368 .27246095H.42099V.5578003C.42099 .573761 .42099 .59277346 .39898683 .59277346 .37799073 .59277346 .37799073 .57177737 .37799073 .5578003V.27246095H.09199524C.07798767 .27246095 .056991579 .27246095 .056991579 .25144959 .056991579 .22944641 .07598877 .22944641 .09199524 .22944641H.37799073V-.056793214C.37799073-.07279968 .37799073-.091796878 .3999939-.091796878 .42099-.091796878 .42099-.07080078 .42099-.056793214V.22944641H.70599368Z"/>
<path id="font_4_16" d="M.34399415 .42222596C.34399415 .4392395 .34399415 .4482422 .33198548 .4482422 .32699586 .4482422 .32499696 .4482422 .31199647 .43623353 .30999757 .43423463 .30099488 .42523194 .29499818 .42022706 .2639923 .44223023 .23298645 .4482422 .19898987 .4482422 .066986087 .4482422 .033996583 .37522889 .033996583 .324234 .033996583 .29223634 .04798889 .26623536 .070999149 .24424744 .10499573 .21324158 .14299011 .2062378 .19400025 .1972351 .24499512 .1872406 .2619934 .18424988 .28399659 .16723633 .2939911 .15924073 .31900025 .14024353 .31900025 .102249149 .31900025 .014251709 .21798706 .014251709 .20399475 .014251709 .101989749 .014251709 .07598877 .099243167 .06399536 .15324402 .06098938 .16323853 .05999756 .16925049 .04798889 .16925049 .033996583 .16925049 .033996583 .16123963 .033996583 .14324951V.01524353C.033996583-.0017547608 .033996583-.0107421879 .04598999-.0107421879 .051986696-.0107421879 .052993776-.009750366 .070999149 .009246826 .07499695 .01524353 .085998538 .028244019 .09098816 .0332489 .1329956-.007751465 .1789856-.0107421879 .20399475-.0107421879 .32699586-.0107421879 .36999513 .06124878 .36999513 .12825012 .36999513 .17324829 .34999085 .20024109 .32798768 .22323609 .2939911 .25624085 .2579956 .26324464 .18399048 .27723695 .1579895 .28224183 .084991458 .2952423 .084991458 .3522339 .084991458 .38423158 .10798645 .426239 .19898987 .426239 .30699159 .426239 .31399537 .3432312 .31599427 .3182373 .31698609 .3062439 .31698609 .30023194 .32998658 .30023194 .34399415 .30023194 .34399415 .30723573 .34399415 .3262329V.42222596Z"/>
<path id="font_4_13" d="M.18399048 .4423828 .039993287 .43138124V.40037538C.10398865 .40037538 .11299133 .3943634 .11299133 .34532167V.077041629C.11299133 .0309906 .101989749 .0309906 .035995485 .0309906V0C.08099365 .0019989014 .101989749 .0029907227 .1459961 .0029907227 .1619873 .0029907227 .20399475 .0029907227 .25299073 0V.0309906C.18798828 .0309906 .18399048 .035995485 .18399048 .075042728V.4423828M.18699646 .615921C.18699646 .6459198 .16299439 .6699219 .1329956 .6699219 .101989749 .6699219 .07899475 .6449127 .07899475 .615921 .07899475 .58691409 .101989749 .56192019 .1329956 .56192019 .16299439 .56192019 .18699646 .585907 .18699646 .615921Z"/>
<path id="font_4_14" d="M.18598938 .2592163C.18598938 .36532594 .26098634 .41737367 .32398988 .41737367 .3829956 .41737367 .3959961 .3683319 .3959961 .30825807V.077041629C.3959961 .0309906 .3849945 .0309906 .31900025 .0309906V0C.3659973 .0019989014 .3849945 .0029907227 .43299867 .0029907227 .48098756 .0029907227 .49398805 .0019989014 .5469971 0V.0309906C.49598695 .0309906 .47099305 .0309906 .46998597 .062026979V.25421144C.46998597 .33729554 .46998597 .36631776 .44198609 .40135194 .4189911 .42938233 .3809967 .4423828 .33099366 .4423828 .23799134 .4423828 .19499207 .3733368 .18099976 .3453064H.17999268V.4416504L.034988405 .43066407V.3996582C.102996829 .3996582 .11199951 .39266969 .11199951 .34370423V.07695007C.11199951 .0309906 .100997928 .0309906 .034988405 .0309906V0C.08198547 .0019989014 .100997928 .0029907227 .14898682 .0029907227 .19699097 .0029907227 .20999146 .0019989014 .2630005 0V.0309906C.19699097 .0309906 .18598938 .0309906 .18598938 .07695007V.2592163Z"/>
<path id="font_1_3" d="M.44699098 .6673279C.44799806 .6713257 .44999696 .67832949 .44999696 .6823273 .44999696 .6923218 .44198609 .69433596 .43598939 .69433596 .4249878 .69433596 .4249878 .69132998 .41999818 .6733246L.3619995 .44337464C.18899536 .43637086 .049987794 .29934693 .049987794 .17131043 .049987794 .07928467 .11898804-.0037231446 .24798584-.01171875 .23999024-.042785646 .23298645-.07485962 .22499085-.10592651 .21099854-.16104126 .20298767-.19007874 .20298767-.1940918 .20298767-.1980896 .20498657-.20507813 .21699524-.20507813 .22799683-.20507813 .22898865-.2020874 .23498535-.17907715L.2769928-.01171875C.44898988-.0047302248 .58898928 .13230896 .58898928 .26133729 .58898928 .34135438 .5309906 .43338014 .3909912 .44337464L.44699098 .6673279M.2539978 .0132751469C.18199158 .01727295 .117996219 .060287477 .117996219 .15130615 .117996219 .26234437 .19999695 .40437318 .35598756 .41838075L.2539978 .0132751469M.38398744 .41838075C.45599366 .41337586 .519989 .37435914 .519989 .28033448 .519989 .15231323 .42399598 .025283814 .2829895 .0132751469L.38398744 .41838075Z"/>
<path id="font_7_2" d="M.31298829-.5581207C.31298829-.35508729 .25698854-.12702942 .083999637 .025985718 .06599426 .041992189 .06399536 .041992189 .056991579 .041992189 .04399109 .041992189 .04399109 .032989503 .04399109 .0309906 .04399109 .02798462 .04399109 .025985718 .04899597 .019989014 .10499573-.038024904 .16499329-.122039798 .20098877-.25205995 .22200012-.32907105 .23899842-.42408753 .23899842-.55711367 .23899842-.85317996 .1579895-1.0222168 .04699707-1.1372376 .04598999-1.1392365 .04399109-1.1422272 .04399109-1.1462402 .04399109-1.1482391 .04399109-1.1572266 .056991579-1.1572266 .07499695-1.1572266 .13598633-1.0892181 .13798523-1.0872192 .25498963-.9541931 .31298829-.76416018 .31298829-.5581207Z"/>
<path id="font_1_4" d="M.18199158 .015991211C.18199158-.017044068 .18199158-.09921265 .10798645-.17036438 .101989749-.17636109 .101989749-.17736817 .101989749-.18136597 .101989749-.18836975 .10899353-.19335938 .114990238-.19335938 .12599182-.19335938 .20698548-.115249637 .20698548 .0019989014 .20698548 .06399536 .18499756 .10798645 .14199829 .10798645 .10798645 .10798645 .08799744 .08198547 .08799744 .053985597 .08799744 .025985718 .10798645 0 .14199829 0 .15699768 0 .17199707 .004989624 .18199158 .015991211Z"/>
<path id="font_4_1" d="M.45700074 .69281008C.44799806 .7108154 .44299317 .7158203 .4269867 .7158203 .41299439 .7158203 .40699769 .7108154 .3999939 .69680789L.054992677 .023986817C.050994874 .015991211 .04899597 .010986328 .04899597 .008987427 .04899597 0 .055999757 0 .07199097 0H.7829895C.798996 0 .80599978 0 .80599978 .008987427 .80599978 .009994507 .80599978 .011993408 .8009949 .021987915L.45700074 .69281008M.3939972 .61683657 .6719971 .07699585H.116989139L.3939972 .61683657Z"/>
<path id="font_4_2" d="M.4099884 .60272219C.4099884 .6396332 .4139862 .6516113 .5049896 .6516113H.5369873V.6826172C.5019989 .6796112 .4079895 .6796112 .36799623 .6796112 .32798768 .6796112 .23399353 .6796112 .19898987 .6826172V.6516113H.23098755C.32199098 .6516113 .32598878 .6396332 .32598878 .60272219V.54785159C.15699768 .530838 .056991579 .43582154 .056991579 .34178163 .056991579 .24375916 .1619873 .15074158 .32598878 .1347351V.0798645C.32598878 .04296875 .32199098 .0309906 .23098755 .0309906H.19898987V0C.23399353 .0029907227 .32798768 .0029907227 .36799623 .0029907227 .4079895 .0029907227 .5019989 .0029907227 .5369873 0V.0309906H.5049896C.4139862 .0309906 .4099884 .04296875 .4099884 .0798645V.1347351C.57299807 .14672852 .6839905 .24176026 .6839905 .3407898 .6839905 .44381715 .56999209 .5358429 .4099884 .54785159V.60272219M.32598878 .16073609C.21699524 .17373657 .1559906 .23275757 .1559906 .3407898 .1559906 .44081117 .20698548 .50683596 .32598878 .5218353V.16073609M.4099884 .5228424C.5049896 .51283267 .58499148 .4658203 .58499148 .34178163 .58499148 .22775269 .5179901 .17173767 .4099884 .159729V.5228424Z"/>
<path id="font_8_1" d="M.19599915 .25125123C.19599915 .28025819 .17298889 .30525209 .14199829 .30525209 .11099243 .30525209 .08799744 .28025819 .08799744 .25125123 .08799744 .22225952 .11099243 .19726563 .14199829 .19726563 .17298889 .19726563 .19599915 .22225952 .19599915 .25125123Z"/>
<path id="font_4_9" d="M.40899659 .69480898C.4039917 .70780947 .40098573 .7158203 .3849945 .7158203 .36898805 .7158203 .36698915 .70980837 .36099244 .69381716L.1459961 .09989929C.13398743 .06694031 .11099243 .03199768 .033996583 .0309906V0C.07199097 .0029907227 .09899902 .0029907227 .13598633 .0029907227 .17098999 .0029907227 .19299317 .0019989014 .24899292 0V.0309906C.19198609 .03199768 .1749878 .06295776 .1749878 .08192444 .1749878 .090911868 .1769867 .09590149 .1789856 .10090637L.22599793 .22973633H.4850006L.5389862 .078933719C.54299929 .06893921 .5439911 .06594849 .5439911 .060958864 .5439911 .0309906 .48799134 .0309906 .46199037 .0309906V0C.5069885 .0029907227 .5589905 .0029907227 .6049957 .0029907227 .6499939 .0029907227 .6529999 .0029907227 .73599246 0V.0309906H.71899417C.6569977 .0309906 .6459961 .039978029 .6359863 .06794739L.40899659 .69480898M.47299195 .2607422H.23699951L.35499574 .5877991 .47299195 .2607422Z"/>
<path id="font_4_15" d="M.17799378 .22918701C.17799378 .27023316 .18899536 .41737367 .30299378 .41737367V.41636659C.30099488 .41537477 .2849884 .4033661 .2849884 .3793335 .2849884 .35231019 .30599977 .33529664 .32899476 .33529664 .34999085 .33529664 .37298585 .35031129 .37298585 .38034059 .37298585 .41236878 .34298707 .4423828 .2979889 .4423828 .23799134 .4423828 .19599915 .4003601 .17298889 .3383026H.17199707V.4416504L.02999878 .43066407V.3996582C.09799194 .3996582 .10699463 .39266969 .10699463 .34370423V.07695007C.10699463 .0309906 .09599304 .0309906 .02999878 .0309906V0C.08299255 .0019989014 .09599304 .0029907227 .14698792 .0029907227 .18699646 .0029907227 .21099854 .0019989014 .27398683 0V.0309906H.2539978C.18099976 .0309906 .17799378 .04197693 .17799378 .078948978V.22918701Z"/>
<path id="font_4_12" d="M.3999939 .22949219C.42199708 .22949219 .4269867 .22949219 .4269867 .25048829 .4269867 .35333253 .37098695 .4482422 .24299622 .4482422 .12298584 .4482422 .0289917 .3443451 .0289917 .22047425 .0289917 .08932495 .13398743-.0107421879 .2559967-.0107421879 .37799073-.0107421879 .4269867 .096343997 .4269867 .11936951 .4269867 .12637329 .42199708 .13237 .41299439 .13237 .40299989 .13237 .3999939 .12536621 .39898683 .12136841 .36499024 .019256592 .27598573 .01725769 .26098634 .01725769 .21299744 .01725769 .17199707 .044281007 .14898682 .078323367 .115997318 .12736511 .114990238 .18743897 .114990238 .22949219H.3999939M.115997318 .253479C.125 .40725709 .21499634 .42323304 .24299622 .42323304 .2979889 .42323304 .35798646 .38130189 .35899354 .253479H.115997318Z"/>
<path id="font_4_10" d="M.34199525 .07209778C.34700013 .030136109 .37599183-.005859375 .4189911-.005859375 .44400025-.005859375 .5069885 .009140015 .5069885 .08909607V.14505005H.47898866V.09008789C.47898866 .07910156 .47898866 .029129029 .44299317 .029129029 .40699769 .029129029 .40699769 .07710266 .40699769 .09307861V.2679596C.40699769 .3249359 .40699769 .3589325 .3619995 .40003968 .32499696 .43322755 .2769928 .4482422 .22698975 .4482422 .14299011 .4482422 .07299805 .4060974 .07299805 .3419342 .07299805 .3109436 .09399414 .2939453 .11999512 .2939453 .14698792 .2939453 .1659851 .31393434 .1659851 .3399353 .1659851 .38293458 .12199402 .38793946 .12098694 .38793946 .147995 .41415406 .19599915 .42323304 .22499085 .42323304 .27598573 .42323304 .33299256 .38493348 .33299256 .29693605V.2639618C.2789917 .2622223 .20399475 .25723268 .13699341 .22523499 .06498718 .19023133 .042999269 .13824463 .042999269 .098236087 .042999269 .01625061 .13999939-.0107421879 .20698548-.0107421879 .2899933-.010864258 .32798768 .044128419 .34199525 .07209778M.33299256 .14105225C.33299256 .044128419 .2579956 .014129639 .21398926 .014129639 .16699219 .014129639 .12298584 .04812622 .12298584 .098083499 .12298584 .16403198 .17999268 .23397827 .33299256 .23997498V.14105225Z"/>
</defs>
<path transform="matrix(1,0,0,-1,116.07904,102.28671)" d="M79.37071 0C79.37071 43.83578 43.83578 79.37071 0 79.37071-43.83578 79.37071-79.37071 43.83578-79.37071 0-79.37071-43.83578-43.83578-79.37071 0-79.37071 43.83578-79.37071 79.37071-43.83578 79.37071 0ZM0 0" fill="#f2f2f2"/>
<path transform="matrix(1,0,0,-1,116.07904,102.28671)" stroke-width="1.19553" stroke-linecap="butt" stroke-miterlimit="10" stroke-linejoin="miter" fill="none" stroke="#404040" d="M79.37071 0C79.37071 43.83578 43.83578 79.37071 0 79.37071-43.83578 79.37071-79.37071 43.83578-79.37071 0-79.37071-43.83578-43.83578-79.37071 0-79.37071 43.83578-79.37071 79.37071-43.83578 79.37071 0ZM0 0"/>
<path transform="matrix(1,0,0,-1,116.07904,102.28671)" stroke-width=".3985" stroke-linecap="butt" stroke-dasharray="2.98883,2.98883" stroke-miterlimit="10" stroke-linejoin="miter" fill="none" stroke="#cccccc" d="M79.37071 0C79.37071 10.95892 43.83578 19.84265 0 19.84265-43.83578 19.84265-79.37071 10.95892-79.37071 0-79.37071-10.95892-43.83578-19.84265 0-19.84265 43.83578-19.84265 79.37071-10.95892 79.37071 0ZM0 0"/>
<path transform="matrix(1,0,0,-1,116.07904,102.28671)" d="M2.381 79.37071C2.381 80.68571 1.31499 81.75172 0 81.75172-1.31499 81.75172-2.381 80.68571-2.381 79.37071-2.381 78.05571-1.31499 76.9897 0 76.9897 1.31499 76.9897 2.381 78.05571 2.381 79.37071ZM0 79.37071"/>
<use data-text="N" xlink:href="#font_1_10" transform="matrix(8.966376,0,0,-8.966376,111.91132,17.4118)"/>
<path transform="matrix(1,0,0,-1,116.07904,102.28671)" d="M81.35509 0C81.35509 1.09593 80.46664 1.98438 79.37071 1.98438 78.27477 1.98438 77.38634 1.09593 77.38634 0 77.38634-1.09593 78.27477-1.98438 79.37071-1.98438 80.46664-1.98438 81.35509-1.09593 81.35509 0ZM79.37071 0"/>
<use data-text="A" xlink:href="#font_1_7" transform="matrix(8.966376,0,0,-8.966376,200.95395,105.350238)"/>
<path transform="matrix(1,0,0,-1,116.07904,102.28671)" d="M1.98438-19.84265C1.98438-18.7467 1.09593-17.85828 0-17.85828-1.09593-17.85828-1.98438-18.7467-1.98438-19.84265-1.98438-20.93858-1.09593-21.82703 0-21.82703 1.09593-21.82703 1.98438-20.93858 1.98438-19.84265ZM0-19.84265"/>
<use data-text="B" xlink:href="#font_1_8" transform="matrix(8.966376,0,0,-8.966376,112.36917,133.76065)"/>
<path transform="matrix(1,0,0,-1,116.07904,102.28671)" stroke-width="1.19553" stroke-linecap="butt" stroke-miterlimit="10" stroke-linejoin="miter" fill="none" stroke="#0000b3" d="M0 79.37071C43.83578 79.37071 79.37071 43.83578 79.37071 0"/>
<path transform="matrix(1,0,0,-1,116.07904,102.28671)" stroke-width="1.19553" stroke-linecap="butt" stroke-miterlimit="10" stroke-linejoin="miter" fill="none" stroke="#0000b3" d="M0 79.37071C0 39.68535 0 0 0-19.84265"/>
<path transform="matrix(1,0,0,-1,116.07904,102.28671)" stroke-width="1.19553" stroke-linecap="butt" stroke-miterlimit="10" stroke-linejoin="miter" fill="none" stroke="#0000b3" d="M79.37071 0C79.37071-10.95892 43.83578-19.84265 0-19.84265"/>
<path transform="matrix(1,0,0,-1,116.07904,102.28671)" d="M0 79.37071C43.83578 79.37071 79.37071 43.83578 79.37071 0 79.37071-10.95892 43.83578-19.84265 0-19.84265 0 0 0 39.68535 0 79.37071Z" fill="#ffe3c7" fill-opacity=".55"/>
<path transform="matrix(1,0,0,-1,116.07904,102.28671)" stroke-width="1.19553" stroke-linecap="butt" stroke-miterlimit="10" stroke-linejoin="miter" fill="none" stroke="#b30000" d="M0 79.37071 9.65735 72.12746"/>
<path transform="matrix(.79997,.59999,.59999,-.79997,125.736377,30.159256)" d="M5.30629 0C4.65466 .16344 1.79025 1.08963 0 2.09753V-2.09753C1.79025-1.08963 4.65466-.16344 5.30629 0Z" fill="#b30000"/>
<path transform="matrix(.79997,.59999,.59999,-.79997,125.736377,30.159256)" stroke-width="1.19553" stroke-linecap="butt" stroke-miterlimit="10" stroke-linejoin="miter" fill="none" stroke="#b30000" d="M5.30629 0C4.65466 .16344 1.79025 1.08963 0 2.09753V-2.09753C1.79025-1.08963 4.65466-.16344 5.30629 0Z"/>
<path transform="matrix(1,0,0,-1,116.07904,102.28671)" stroke-width="1.19553" stroke-linecap="butt" stroke-dasharray="2.98883,2.98883" stroke-miterlimit="10" stroke-linejoin="miter" fill="none" stroke="#ff8080" d="M0 79.37071-7.24323 69.71332"/>
<path transform="matrix(-.59999,.79997,.79997,.59999,108.83581,32.57338)" d="M5.30629 0C4.65466 .16344 1.79025 1.08963 0 2.09753V-2.09753C1.79025-1.08963 4.65466-.16344 5.30629 0Z" fill="#ff8080"/>
<path transform="matrix(-.59999,.79997,.79997,.59999,108.83581,32.57338)" stroke-width="1.19553" stroke-linecap="butt" stroke-miterlimit="10" stroke-linejoin="miter" fill="none" stroke="#ff8080" d="M5.30629 0C4.65466 .16344 1.79025 1.08963 0 2.09753V-2.09753C1.79025-1.08963 4.65466-.16344 5.30629 0Z"/>
<path transform="matrix(1,0,0,-1,116.07904,102.28671)" stroke-width=".79701" stroke-linecap="butt" stroke-miterlimit="10" stroke-linejoin="miter" fill="none" stroke="#b30000" d="M11.90572 69.05272C14.27982 72.2033 13.65038 76.6822 10.4998 79.05632 7.84393 81.05768 4.15686 80.961 1.60945 78.82341"/>
<use data-text="&#x2206;" xlink:href="#font_2_1" transform="matrix(6.973848,0,0,-6.973848,141.42592,34.029577)" fill="#b30000"/>
<use data-text="&#x03a6;" xlink:href="#font_2_2" transform="matrix(6.973848,0,0,-6.973848,147.96739,34.029577)" fill="#b30000"/>
<use data-text="S" xlink:href="#font_3_97" transform="matrix(8.966376,0,0,-8.966376,218.81224,43.287958)"/>
<use data-text="u" xlink:href="#font_3_109" transform="matrix(8.966376,0,0,-8.966376,223.93204,43.287958)"/>
<use data-text="m" xlink:href="#font_3_75" transform="matrix(8.966376,0,0,-8.966376,229.05185,43.287958)"/>
<use data-text="o" xlink:href="#font_3_81" transform="matrix(8.966376,0,0,-8.966376,239.80252,43.287958)"/>
<use data-text="f" xlink:href="#font_3_55" transform="matrix(8.966376,0,0,-8.966376,244.41126,43.287958)"/>
<use data-text="a" xlink:href="#font_3_28" transform="matrix(8.966376,0,0,-8.966376,250.30216,43.287958)"/>
<use data-text="n" xlink:href="#font_3_77" transform="matrix(8.966376,0,0,-8.966376,254.91089,43.287958)"/>
<use data-text="g" xlink:href="#font_3_59" transform="matrix(8.966376,0,0,-8.966376,260.0307,43.287958)"/>
<use data-text="l" xlink:href="#font_3_72" transform="matrix(8.966376,0,0,-8.966376,264.6394,43.287958)"/>
<use data-text="e" xlink:href="#font_3_50" transform="matrix(8.966376,0,0,-8.966376,267.2038,43.287958)"/>
<use data-text="s" xlink:href="#font_3_98" transform="matrix(8.966376,0,0,-8.966376,271.30143,43.287958)"/>
<use data-text="=" xlink:href="#font_4_8" transform="matrix(8.966376,0,0,-8.966376,218.81224,54.246858)"/>
<use data-text="3" xlink:href="#font_4_7" transform="matrix(8.966376,0,0,-8.966376,228.5318,54.246858)"/>
<use data-text="&#x03c0;" xlink:href="#font_1_2" transform="matrix(8.966376,0,0,-8.966376,233.14728,54.246858)"/>
<use data-text="/" xlink:href="#font_1_5" transform="matrix(8.966376,0,0,-8.966376,238.73334,54.246858)"/>
<use data-text="2" xlink:href="#font_4_6" transform="matrix(8.966376,0,0,-8.966376,243.35095,54.246858)"/>
<use data-text="&#x003e;" xlink:href="#font_1_6" transform="matrix(8.966376,0,0,-8.966376,250.51847,54.246858)"/>
<use data-text="&#x03c0;" xlink:href="#font_1_2" transform="matrix(8.966376,0,0,-8.966376,260.23805,54.246858)"/>
<use data-text="K" xlink:href="#font_1_9" transform="matrix(8.966376,0,0,-8.966376,218.81224,89.12268)"/>
<use data-text="=" xlink:href="#font_4_8" transform="matrix(8.966376,0,0,-8.966376,229.81397,89.12268)"/>
<use data-text="1" xlink:href="#font_4_5" transform="matrix(8.966376,0,0,-8.966376,239.53353,89.12268)"/>
<use data-text="/" xlink:href="#font_1_5" transform="matrix(8.966376,0,0,-8.966376,244.14902,89.12268)"/>
<use data-text="R" xlink:href="#font_1_11" transform="matrix(8.966376,0,0,-8.966376,248.74877,89.12268)"/>
<use data-text="2" xlink:href="#font_5_1" transform="matrix(5.977584,0,0,-5.977584,255.79242,85.313678)"/>
<use data-text="&#x003e;" xlink:href="#font_1_6" transform="matrix(8.966376,0,0,-8.966376,262.5033,89.12268)"/>
<use data-text="0" xlink:href="#font_4_4" transform="matrix(8.966376,0,0,-8.966376,272.23066,89.12268)"/>
<use data-text="S" xlink:href="#font_6_1" transform="matrix(9.96264,0,0,-9.96264,11.289291,26.970852)"/>
<use data-text="2" xlink:href="#font_2_3" transform="matrix(6.973848,0,0,-6.973848,17.97256,23.355492)"/>
<use data-text="d" xlink:href="#font_4_11" transform="matrix(8.966376,0,0,-8.966376,25.618638,208.71247)"/>
<use data-text="s" xlink:href="#font_1_12" transform="matrix(8.966376,0,0,-8.966376,30.738297,208.71247)"/>
<use data-text="2" xlink:href="#font_5_1" transform="matrix(5.977584,0,0,-5.977584,35.031217,204.90346)"/>
<use data-text="=" xlink:href="#font_4_8" transform="matrix(8.966376,0,0,-8.966376,41.742086,208.71247)"/>
<use data-text="R" xlink:href="#font_1_11" transform="matrix(8.966376,0,0,-8.966376,51.469438,208.71247)"/>
<use data-text="2" xlink:href="#font_5_1" transform="matrix(5.977584,0,0,-5.977584,58.505159,204.90346)"/>
<use data-text="(" xlink:href="#font_7_1" transform="matrix(8.966376,0,0,-8.966376,62.656198,201.46959)"/>
<use data-text="d" xlink:href="#font_4_11" transform="matrix(8.966376,0,0,-8.966376,66.87988,208.71247)"/>
<use data-text="&#x03b8;" xlink:href="#font_1_1" transform="matrix(8.966376,0,0,-8.966376,71.99954,208.71247)"/>
<use data-text="2" xlink:href="#font_5_1" transform="matrix(5.977584,0,0,-5.977584,76.5692,204.90346)"/>
<use data-text="+" xlink:href="#font_4_3" transform="matrix(8.966376,0,0,-8.966376,82.76811,208.71247)"/>
<use data-text="s" xlink:href="#font_4_16" transform="matrix(8.966376,0,0,-8.966376,91.976589,208.71247)"/>
<use data-text="i" xlink:href="#font_4_13" transform="matrix(8.966376,0,0,-8.966376,95.60797,208.71247)"/>
<use data-text="n" xlink:href="#font_4_14" transform="matrix(8.966376,0,0,-8.966376,98.16339,208.71247)"/>
<use data-text="2" xlink:href="#font_5_1" transform="matrix(5.977584,0,0,-5.977584,103.29793,204.90346)"/>
<use data-text="&#x03b8;" xlink:href="#font_1_1" transform="matrix(8.966376,0,0,-8.966376,107.44897,208.71247)"/>
<use data-text="d" xlink:href="#font_4_11" transform="matrix(8.966376,0,0,-8.966376,113.55452,208.71247)"/>
<use data-text="&#x03d5;" xlink:href="#font_1_3" transform="matrix(8.966376,0,0,-8.966376,118.67418,208.71247)"/>
<use data-text="2" xlink:href="#font_5_1" transform="matrix(5.977584,0,0,-5.977584,124.159137,204.90346)"/>
<use data-text=")" xlink:href="#font_7_2" transform="matrix(8.966376,0,0,-8.966376,128.31018,201.46959)"/>
<use data-text="," xlink:href="#font_1_4" transform="matrix(8.966376,0,0,-8.966376,132.53388,208.71247)"/>
<use data-text="&#x2206;" xlink:href="#font_4_1" transform="matrix(8.966376,0,0,-8.966376,145.59598,208.71247)"/>
<use data-text="&#x03a6;" xlink:href="#font_4_2" transform="matrix(8.966376,0,0,-8.966376,153.2712,208.71247)"/>
<use data-text="=" xlink:href="#font_4_8" transform="matrix(8.966376,0,0,-8.966376,162.47966,208.71247)"/>
<use data-text="K" xlink:href="#font_1_9" transform="matrix(8.966376,0,0,-8.966376,172.21819,208.71247)"/>
<use data-text="&#x00b7;" xlink:href="#font_8_1" transform="matrix(8.966376,0,0,-8.966376,182.70795,208.71247)"/>
<use data-text="A" xlink:href="#font_4_9" transform="matrix(8.966376,0,0,-8.966376,187.31565,208.71247)"/>
<use data-text="r" xlink:href="#font_4_15" transform="matrix(8.966376,0,0,-8.966376,194.21976,208.71247)"/>
<use data-text="e" xlink:href="#font_4_12" transform="matrix(8.966376,0,0,-8.966376,197.82424,208.71247)"/>
<use data-text="a" xlink:href="#font_4_10" transform="matrix(8.966376,0,0,-8.966376,201.92188,208.71247)"/>
</svg>
