<svg xmlns="http://www.w3.org/2000/svg" xmlns:xlink="http://www.w3.org/1999/xlink" xmlns:inkscape="http://www.inkscape.org/namespaces/inkscape" version="1.1" width="352.65" height="183.85" viewBox="0 0 352.65 183.85">
<defs>
<path id="font_1_83" d="M.72099307 .49064637C.72099307 .6005707 .621994 .6855469 .45599366 .6855469H.038986207V.63853457H.14698792V.04699707H.038986207V0C.07699585 .0029907227 .1749878 .0029907227 .21798706 .0029907227 .26098634 .0029907227 .35899354 .0029907227 .39698792 0V.04699707H.2889862V.30177308H.46598817C.6049957 .30177308 .72099307 .37374879 .72099307 .49064637M.56799319 .49064637C.56799319 .41970826 .56799319 .34277345 .4169922 .34277345H.2829895V.63853457H.41799928C.56799319 .63853457 .56799319 .56259158 .56799319 .49064637Z"/>
<path id="font_1_28" d="M.5529938 .023986817C.5529938 .04699707 .5399933 .04699707 .5269928 .04699707 .46598817 .04798889 .46598817 .06100464 .46598817 .083999637V.29907228C.46598817 .3881073 .394989 .453125 .24598694 .453125 .18899536 .453125 .066986087 .44911195 .066986087 .36109925 .066986087 .3170929 .101989749 .29808045 .1289978 .29808045 .1599884 .29808045 .19198609 .3190918 .19198609 .36109925 .19198609 .39111329 .17298889 .40811158 .16999817 .41011048 .19799805 .41612245 .22999573 .41711427 .24198914 .41711427 .31698609 .41711427 .35198976 .3751068 .35198976 .29907228V.26506043C.2809906 .2620697 .026992798 .25306703 .026992798 .10801697 .026992798 .012130737 .15098572-.005859375 .21998596-.005859375 .2999878-.005859375 .34700013 .035125734 .36898805 .07713318 .36898805 .04598999 .36898805 0 .47299195 0H.5209961C.54100039 0 .5529938 0 .5529938 .023986817M.35198976 .13899231C.35198976 .043151857 .2599945 .030136109 .23498535 .030136109 .18399048 .030136109 .14399719 .06517029 .14399719 .10922241 .14399719 .21734619 .3019867 .23136902 .35198976 .234375V.13899231Z"/>
<path id="font_1_96" d="M.44198609 .36819459C.44198609 .42118836 .3880005 .4501953 .33599855 .4501953 .2659912 .4501953 .22599793 .40019227 .20298767 .33718873V.4501953L.036987306 .4423828V.39537049C.09899902 .39537049 .10598755 .39537049 .10598755 .3563385V.04699707H.036987306V0L.16299439 .0029907227C.20098877 .0029907227 .2649994 .0029907227 .30099488 0V.04699707H.21398926V.22218323C.21398926 .29226686 .23899842 .41436769 .33898927 .41436769 .33898927 .41436769 .31999208 .39736939 .31999208 .36834718 .31999208 .32730104 .35198976 .3072815 .3809967 .3072815 .4099884 .3072815 .44198609 .3283081 .44198609 .36834718V.36819459Z"/>
<path id="font_1_72" d="M.29299928 0V.04699707H.22399903V.69433596L.04699707 .6855469V.63853457C.10899353 .63853457 .115997318 .63853457 .115997318 .5995636V.04699707H.04699707V0L.16999817 .0029907227 .29299928 0Z"/>
<path id="font_1_50" d="M.49398805 .11706543C.49398805 .13504029 .47499085 .13504029 .46998597 .13504029 .45298768 .13504029 .45098878 .13005066 .44499208 .11405945 .42399598 .066101077 .36698915 .03413391 .3019867 .03413391 .16099549 .03413391 .1599884 .16700745 .1599884 .2179718H.46199037C.48399354 .2179718 .49398805 .2179718 .49398805 .2449646 .49398805 .27598573 .48799134 .34906007 .43798829 .3991089 .40098573 .43511964 .34799195 .453125 .2789917 .453125 .11898804 .453125 .03199768 .35005189 .03199768 .22497559 .03199768 .09107971 .13198853-.005859375 .29299928-.005859375 .45098878-.005859375 .49398805 .10006714 .49398805 .11706543M.39898683 .25097657H.1599884C.1619873 .29000855 .16299439 .3320465 .18399048 .36506654 .20999146 .4051056 .25 .41711427 .2789917 .41711427 .3959961 .41711427 .397995 .28599549 .39898683 .25097657Z"/>
<path id="font_1_105" d="M.38198854 .124176029V.17721558H.33499146V.12619019C.33499146 .058151246 .30299378 .03413391 .2749939 .03413391 .21699524 .03413391 .21699524 .09817505 .21699524 .1211853V.3973236H.36299134V.44433595H.21699524V.6357422H.16999817C.16899109 .53552249 .11999512 .43632508 .020996094 .43333436V.3973236H.102996829V.123184207C.102996829 .01612854 .18998719-.005859375 .26098634-.005859375 .33699037-.005859375 .38198854 .05114746 .38198854 .124176029Z"/>
<path id="font_1_77" d="M.61499026 0V.04699707H.54599V.30613709C.54599 .41119386 .49198915 .4501953 .3919983 .4501953 .29599 .4501953 .24299622 .39318849 .21699524 .3421631V.4501953L.04499817 .4423828V.39537049C.10699463 .39537049 .11399841 .39537049 .11399841 .3563385V.04699707H.04499817V0L.17098999 .0029907227 .29699708 0V.04699707H.22799683V.2562256C.22799683 .3653412 .31399537 .41436769 .3769989 .41436769 .41099549 .41436769 .43199159 .39337159 .43199159 .31729127V.04699707H.36299134V0L.4889984 .0029907227 .61499026 0Z"/>
<path id="font_1_98" d="M.4149933 .14012146C.4149933 .18312073 .394989 .21812439 .3600006 .24612427 .32099916 .27511598 .2889862 .28112794 .21099854 .29412843 .17399597 .30111695 .10899353 .31211854 .10899353 .3591156 .10899353 .42111207 .20199585 .42111207 .22099304 .42111207 .29599 .42111207 .33399964 .39212037 .33898927 .33711244 .33999635 .32211305 .34098817 .3171234 .3619995 .3171234 .38598634 .3171234 .38598634 .32211305 .38598634 .3451233V.42510987C.38598634 .4441223 .38598634 .453125 .36799623 .453125 .3639984 .453125 .3619995 .453125 .32299806 .43411256 .29699708 .44711305 .2619934 .453125 .22200012 .453125 .19198609 .453125 .037994386 .453125 .037994386 .32211305 .037994386 .28211976 .057998659 .25512696 .07798767 .23812866 .117996219 .203125 .1559906 .1971283 .23298645 .18312073 .2689972 .17712403 .34399415 .16412354 .34399415 .10513306 .34399415 .030136109 .2519989 .030136109 .22999573 .030136109 .12399292 .030136109 .09799194 .103134158 .085998538 .14613343 .08099365 .16012573 .07598877 .16012573 .06199646 .16012573 .037994386 .16012573 .037994386 .15412903 .037994386 .13113404V.022140503C.037994386 .0031280518 .037994386-.005859375 .055999757-.005859375 .06298828-.005859375 .06498718-.005859375 .085998538 .009140015L.11199951 .026138306C.1579895-.005859375 .20999146-.005859375 .22999573-.005859375 .26098634-.005859375 .4149933-.005859375 .4149933 .14013672V.14012146Z"/>
<path id="font_1_84" d="M.59999087 .22319031C.59999087 .3561859 .5089874 .4501953 .36499024 .4501953 .2899933 .4501953 .23699951 .41918946 .21398926 .40118409V.4501953L.036987306 .4423828V.39537049C.09899902 .39537049 .10598755 .39537049 .10598755 .3573761V-.14648438H.036987306V-.1934967L.16299439-.19049073 .2889862-.1934967V-.14648438H.21998596V.03945923C.2630005 .004135132 .30699159-.005859375 .34799195-.005859375 .49798585-.005859375 .59999087 .08413696 .59999087 .22312927V.22319031M.47200013 .22312927C.47200013 .08213806 .4019928 .030136109 .33699037 .030136109 .32299806 .030136109 .27598573 .030136109 .23098755 .08413696 .21998596 .09713745 .21998596 .09812927 .21998596 .117126468V.32913209C.21998596 .34814454 .22099304 .3491516 .23498535 .36314393 .2749939 .4041443 .32699586 .41015626 .34899903 .41015626 .41600038 .41015626 .47200013 .3491516 .47200013 .22314453V.22312927Z"/>
<path id="font_1_81" d="M.5419922 .21812439C.5419922 .35212709 .44999696 .453125 .2869873 .453125 .12298584 .453125 .03199768 .35112 .03199768 .21812439 .03199768 .09413147 .11999512-.005859375 .2869873-.005859375 .45498658-.005859375 .5419922 .09512329 .5419922 .21812439M.4139862 .22912598C.4139862 .14213562 .4139862 .03413391 .2869873 .03413391 .1599884 .03413391 .1599884 .14213562 .1599884 .22912598 .1599884 .27412416 .1599884 .32511903 .1769867 .3591156 .19599915 .39611817 .23799134 .41711427 .2869873 .41711427 .32899476 .41711427 .37098695 .40112306 .3929901 .36611939 .4139862 .3321228 .4139862 .27713014 .4139862 .22912598Z"/>
<path id="font_2_1" d="M.644989 .69506838C.644989 .69807437 .6429901 .7050781 .6339874 .7050781 .6289978 .7050781 .6279907 .70407107 .6159973 .6900635L.56799319 .6330414C.5419922 .68006899 .48999024 .7050781 .4249878 .7050781 .2979889 .7050781 .17799378 .58999636 .17799378 .4689026 .17799378 .38783265 .23098755 .34179688 .28199769 .32678224L.3889923 .2987671C.42599488 .2897644 .48098756 .27474977 .48098756 .19267273 .48098756 .1026001 .39898683 .008529663 .30099488 .008529663 .23699951 .008529663 .12599182 .030548096 .12599182 .15464783 .12599182 .17866516 .1309967 .2026825 .13198853 .20869446 .1329956 .21269226 .13398743 .21369934 .13398743 .21569824 .13398743 .22570801 .1269989 .22669983 .12199402 .22669983 .116989139 .22669983 .114990238 .22570801 .11199951 .22270203 .10798645 .21870423 .051986696-.009475708 .051986696-.012466431 .051986696-.018463135 .056991579-.022460938 .06298828-.022460938 .067993167-.022460938 .068984989-.021469117 .08099365-.007461548L.12998963 .049560548C.17298889-.008468628 .24099732-.022460938 .29899598-.022460938 .43499757-.022460938 .5529938 .11061096 .5529938 .2347107 .5529938 .30377198 .5189972 .33779908 .5039978 .35180665 .48098756 .37483216 .46598817 .37882997 .3769989 .40185548 .35499574 .40785218 .31900025 .41786195 .30999757 .41986085 .2829895 .42886354 .24899292 .457901 .24899292 .51094058 .24899292 .59199526 .32899476 .677063 .42399598 .677063 .5069885 .677063 .56799319 .6340332 .56799319 .52194216 .56799319 .48991395 .56399539 .47190858 .56399539 .4658966 .56399539 .4649048 .56399539 .45588685 .57598879 .45588685 .58599856 .45588685 .58699038 .45889283 .59098818 .47590638L.644989 .69506838Z"/>
<path id="font_3_4" d="M.5049896 .18203736H.47099305C.46798707 .16001892 .45799256 .100997928 .44499208 .09098816 .43699647 .084991458 .3600006 .084991458 .34599305 .084991458H.1619873C.2669983 .17803955 .3019867 .20603943 .3619995 .25306703 .43598939 .312088 .5049896 .374115 .5049896 .46914674 .5049896 .5900879 .39898683 .6640625 .2709961 .6640625 .14698792 .6640625 .06298828 .57710269 .06298828 .4851532 .06298828 .43414308 .10598755 .42915345 .115997318 .42915345 .13999939 .42915345 .16899109 .44615174 .16899109 .48214723 .16899109 .5001526 .1619873 .53515627 .10998535 .53515627 .14099121 .6060791 .20899964 .62805178 .2559967 .62805178 .35598756 .62805178 .4079895 .5501404 .4079895 .46914674 .4079895 .38212586 .34599305 .3130951 .31399537 .27708436L.07299805 .038986207C.06298828 .02999878 .06298828 .027999878 .06298828 0H.47499085L.5049896 .18203736Z"/>
<path id="font_4_5" d="M.83399966 .5736542C.84399417 .6116333 .8600006 .64460757 .9399872 .64660647 .94499209 .64660647 .95999148 .6476135 .95999148 .6686096 .95999148 .6746063 .95500186 .6826172 .94499209 .6826172 .9119873 .6826172 .875 .6786041 .84098818 .6786041 .81700137 .6786041 .7589874 .6826172 .7350006 .6826172 .7299957 .6826172 .71499636 .6826172 .71499636 .660614 .71499636 .6476135 .7279968 .64660647 .7369995 .64660647 .7839966 .6456146 .8009949 .63061526 .8009949 .6056366 .8009949 .597641 .7999878 .59265139 .7969971 .5816498L.6879883 .1459198 .43399049 .66560366C.42599488 .6826172 .42399598 .6826172 .3999939 .6826172H.2630005C.24398804 .6826172 .23098755 .6826172 .23098755 .660614 .23098755 .64660647 .24299622 .64660647 .2639923 .64660647 .2849884 .64660647 .30699159 .6456146 .32798768 .6416168L.19400025 .10694885C.18499756 .06896973 .16799927 .038986207 .08999634 .035995485 .08299255 .035995485 .068984989 .034988405 .068984989 .01499939 .068984989 .0039978029 .07699585 0 .083999637 0 .116989139 0 .1539917 .0039978029 .18798828 .0039978029 .21199036 .0039978029 .269989 0 .2939911 0 .3039856 0 .31399537 .004989624 .31399537 .020996094 .31399537 .034988405 .3019867 .035995485 .29100038 .035995485 .22799683 .037994386 .22799683 .0639801 .22799683 .07797241 .22799683 .081970218 .22799683 .08695984 .23199463 .10295105L.3600006 .614624 .6519928 .016998291C.6599884 .0009918213 .6639862 0 .673996 0 .6899872 0 .6899872 .0029907227 .69499209 .020996094L.83399966 .5736542Z"/>
<path id="font_5_1" d="M.58799746 .69281008C.57699587 .7108154 .56999209 .7158203 .5479889 .7158203 .5269928 .7158203 .5189972 .7108154 .5079956 .69281008L.09599304 .025985718C.08898926 .01499939 .08898926 .01399231 .08898926 .010986328 .08898926 0 .09799194 0 .11399841 0H.9819946C.9980011 0 1.0069885 0 1.0069885 .010986328 1.0069885 .01399231 1.0069885 .01499939 1 .025985718L.58799746 .69281008M.5119934 .61483767 .83499148 .09098816H.18798828L.5119934 .61483767Z"/>
<path id="font_6_1" d="M.60398867 .4741211C.60398867 .5950928 .548996 .7050781 .44099427 .7050781 .2809906 .7050781 .10798645 .45413209 .10798645 .22019959 .10798645 .084228519 .17199707-.0107421879 .269989-.0107421879 .43399049-.0107421879 .60398867 .24719239 .60398867 .4741211M.22799683 .3701477C.2919922 .6190796 .3929901 .6710663 .43998719 .6710663 .49598695 .6710663 .5189972 .608078 .5189972 .52911379 .5189972 .499115 .5169983 .4591217 .49499513 .3701477H.22799683M.48298646 .32417298C.4229889 .084228519 .32199098 .023254395 .27198792 .023254395 .19699097 .023254395 .19198609 .13421631 .19198609 .16421509 .19198609 .2032013 .19898987 .2501831 .21598816 .32417298H.48298646Z"/>
<path id="font_5_3" d="M.8909912 .3408203C.9049988 .3408203 .9299927 .3408203 .9299927 .3688202 .9299927 .39682008 .901001 .39682008 .8860016 .39682008H.14099121C.12599182 .39682008 .09700012 .39682008 .09700012 .3688202 .09700012 .3408203 .12298584 .3408203 .13598633 .3408203H.8909912M.8860016 .10316467C.901001 .10316467 .9299927 .10316467 .9299927 .13116455 .9299927 .15917969 .9049988 .15917969 .8909912 .15917969H.13598633C.12199402 .15917969 .09700012 .15917969 .09700012 .13116455 .09700012 .10316467 .12599182 .10316467 .14099121 .10316467H.8860016Z"/>
<path id="font_6_3" d="M.7049866 .35466004C.72299197 .35466004 .73298647 .35466004 .746994 .36465455 .7529907 .37065126 .7630005 .3846588 .7630005 .39865113 .7630005 .43066407 .73298647 .43066407 .71598818 .43066407H.2869873C.2649994 .43066407 .21998596 .43066407 .16099549 .380661 .13398743 .35665895 .08898926 .3056488 .08898926 .2936554 .08898926 .2796631 .102996829 .2796631 .10899353 .2796631 .12298584 .2796631 .12298584 .2806549 .1309967 .2896576 .16499329 .33265687 .21299744 .35466004 .27398683 .35466004H.34498597C.30899049 .22966004 .2579956 .12565613 .22299195 .06265259 .20799256 .03665161 .20799256 .03465271 .20799256 .024658204 .20799256 .0016479492 .22599793-.01133728 .24598694-.01133728 .28799439-.01133728 .3019867 .03465271 .32499696 .11566162 .34799195 .19364929 .3659973 .26565553 .3889923 .35466004H.519989C.5159912 .33966065 .48799134 .23065186 .48799134 .1516571 .48799134 .08265686 .5130005-.01133728 .5569916-.01133728 .58099368-.01133728 .60899356 .011657715 .60899356 .03765869 .60899356 .04866028 .6049957 .053649904 .59799197 .06565857 .5519867 .14065552 .5519867 .22865296 .5519867 .24665833 .5519867 .2806549 .5569916 .32066346 .5629883 .35466004H.7049866Z"/>
<path id="font_6_4" d="M.60398867 .69999697C.61099246 .71499636 .61099246 .71899417 .61099246 .7220001 .61099246 .7369995 .59799197 .75 .58299258 .75 .5669861 .75 .5589905 .7389984 .5529938 .72499087L.13198853-.2000122C.125-.2150116 .125-.2190094 .125-.22200012 .125-.23701477 .13798523-.25 .15299988-.25 .16899109-.25 .1769867-.23901367 .18299866-.2250061L.60398867 .69999697Z"/>
<path id="font_5_2" d="M.58898928 .19296265H.5469971C.5439911 .17396546 .5339966 .11198425 .5179901 .101989749 .5099945 .09599304 .42599488 .09599304 .41099549 .09599304H.21499634C.2809906 .14497376 .35499574 .20095825 .4149933 .24093628 .5049896 .30291749 .58898928 .36090089 .58898928 .46687318 .58898928 .59495547 .46798707 .6660156 .32499696 .6660156 .18998719 .6660156 .09098816 .58795168 .09098816 .48986817 .09098816 .4378662 .1349945 .42886354 .14898682 .42886354 .17599488 .42886354 .20799256 .4468689 .20799256 .48786927 .20799256 .52386477 .18199158 .543869 .15098572 .546875 .1789856 .59194949 .23699951 .6220093 .3039856 .6220093 .40098573 .6220093 .48199464 .5639038 .48199464 .4658661 .48199464 .3818817 .42399598 .31791688 .34700013 .2529297L.102996829 .04598999C.09298706 .036987306 .09199524 .036987306 .09098816 .02999878V0H.55599978L.58898928 .19296265Z"/>
<path id="font_7_1" d="M.8769989 .6566162C.8779907 .6586151 .8839874 .6686096 .8839874 .6736145 .8839874 .6826172 .8759918 .6826172 .8580017 .6826172H.09498596C.07699585 .6826172 .068984989 .6826172 .068984989 .6736145 .068984989 .6686096 .07499695 .6596222 .07598877 .6566162L.44299317-.00579834C.45199586-.02279663 .45599366-.029800415 .47599793-.029800415 .49598695-.029800415 .5-.023803711 .5079956-.0087890629L.8769989 .6566162M.21199036 .60266116H.80599978L.5099945 .06713867H.5089874L.21199036 .60266116Z"/>
<path id="font_6_5" d="M.651001 .38078309 .86499026 .57066348C.9249878 .62461856 .9779968 .6356201 1.0379944 .637619 1.052002 .63861086 1.0579987 .65560916 1.0579987 .66560366 1.0579987 .6746063 1.0499878 .6826172 1.0410004 .6826172 1.0249939 .6826172 1.0049896 .6796112 .98799136 .6796112 .97099307 .6796112 .9529877 .6786041 .9359894 .6786041 .91400149 .6786041 .8929901 .6796112 .871994 .6796112 .8529968 .6796112 .8299866 .6826172 .8109894 .6826172 .80400088 .6826172 .7869873 .6826172 .7869873 .65460208 .7869873 .64060977 .7979889 .637619 .80599978 .637619 .81999209 .63661196 .83799746 .63261416 .83799746 .61763 .83799746 .6036377 .82899478 .5956421 .7969971 .56666567L.6299896 .41575624 .5079956 .6196289C.5239868 .63261416 .5439911 .63661196 .56199648 .637619 .56799319 .637619 .58499148 .63861086 .58499148 .66560366 .58499148 .6776123 .57499697 .6826172 .5669861 .6826172 .5439911 .6826172 .5179901 .6796112 .49499513 .6796112 .47200013 .6796112 .44799806 .6786041 .4249878 .6786041 .4039917 .6786041 .38198854 .6796112 .36099244 .6796112 .33999635 .6796112 .31799317 .6826172 .2979889 .6826172 .2809906 .6826172 .27398683 .6706085 .27398683 .65460208 .27398683 .637619 .2889862 .637619 .30699159 .637619 .37298585 .637619 .3789978 .62661746 .3880005 .6116333L.548996 .34280396 .30699159 .12394714C.3039856 .12094116 .29499818 .11494446 .29100038 .11294556 .25 .07896423 .21099854 .04798889 .115997318 .04499817 .09799194 .04399109 .09700012 .018997193 .09700012 .016998291 .09700012 .005996704 .10598755 0 .11299133 0 .12998963 0 .14898682 .0029907227 .1659851 .0029907227 .18299866 .0029907227 .20098877 .0039978029 .21798706 .0039978029 .23999024 .0039978029 .26098634 .0029907227 .28199769 .0029907227 .3019867 .0029907227 .32398988 0 .34399415 0 .35798646 0 .36799623 .0069885256 .36799623 .027999878 .36799623 .04399109 .35299684 .04499817 .34899903 .04499817 .32099916 .04699707 .31698609 .05899048 .31698609 .064971927 .31698609 .07597351 .33099366 .09196472 .33299256 .094955448 .33799745 .09996033 .5309906 .2718506 .56900027 .3078308L.70899966 .07597351C.71099856 .07197571 .71499636 .065979007 .71499636 .0639801 .71499636 .0599823 .69799807 .04699707 .6619873 .04499817 .6559906 .04499817 .6389923 .04399109 .6389923 .016998291 .6389923 .005996704 .6469879 0 .6569977 0 .6799927 0 .70599368 .0029907227 .72898867 .0029907227 .7519989 .0029907227 .776001 .0039978029 .798996 .0039978029 .81999209 .0039978029 .84199526 .0029907227 .86299136 .0029907227 .8829956 .0029907227 .9059906 0 .9259949 0 .94299319 0 .94999697 .011993408 .94999697 .027999878 .94999697 .04499817 .93499758 .04499817 .9169922 .04499817 .85198977 .04499817 .84599307 .055984498 .83699038 .06997681L.651001 .38078309Z"/>
<path id="font_4_6" d="M.6779938 .56266787C.69699099 .58265689 .71699526 .600647 .7389984 .6156311 .7799988 .6436157 .81700137 .6456146 .8299866 .64660647 .84098818 .6476135 .8529968 .6476135 .8529968 .6686096 .8529968 .6756134 .8470001 .6826172 .83898928 .6826172 .81399539 .6826172 .7839966 .6786041 .7579956 .6786041 .7259979 .6786041 .6839905 .6826172 .6539917 .6826172 .6489868 .6826172 .6339874 .6826172 .6339874 .660614 .6339874 .6476135 .6469879 .64660647 .6519928 .64660647 .68099978 .64460757 .68099978 .6336212 .68099978 .6276245 .68099978 .6186218 .6749878 .6106262 .66799929 .6016388 .6619873 .59265139 .6569977 .5856476 .651001 .5796509L.40098573 .31881715 .2689972 .6116333C.2619934 .6256256 .2619934 .6276245 .2619934 .62861636 .2619934 .64660647 .30999757 .64660647 .31599427 .64660647 .32899476 .64660647 .34199525 .64660647 .34199525 .6686096 .34199525 .6696167 .34199525 .6826172 .32598878 .6826172 .29599 .6826172 .22200012 .6786041 .19198609 .6786041 .16699219 .6786041 .102996829 .6826172 .07798767 .6826172 .069992069 .6826172 .057998659 .6796112 .057998659 .660614 .057998659 .64660647 .070999149 .64660647 .084991458 .64660647 .14299011 .64660647 .14698792 .637619 .15699768 .6156311L.31199647 .2738495 .2669983 .09095764C.2539978 .039993287 .25299073 .036987306 .1749878 .035995485 .1579895 .035995485 .14498902 .035995485 .14498902 .01499939 .14498902 .004989624 .1519928 0 .16099549 0 .17999268 0 .20298767 .0029907227 .22299195 .0029907227 .24198914 .0029907227 .2709961 .0039978029 .2889862 .0039978029 .30899049 .0039978029 .33198548 .0029907227 .35299684 .0029907227 .37399293 .0029907227 .39898683 0 .41999818 0 .42599488 0 .44198609 0 .44198609 .021987915 .44198609 .035995485 .42999269 .035995485 .4079895 .035995485 .3919983 .035995485 .3880005 .035995485 .36999513 .037994386 .35099793 .039993287 .34799195 .041992189 .34799195 .051986696 .34799195 .0579834 .3600006 .10594177 .36698915 .13293457 .375 .16491699 .3959961 .25186158 .397995 .25585938 .4019928 .2708435 .4019928 .2728424 .4119873 .2828369L.6779938 .56266787Z"/>
<path id="font_8_45" d="M.23098755 .005996704C.23098755 .06599426 .20799256 .114990238 .16099549 .114990238 .12599182 .114990238 .10398865 .08799744 .10398865 .056991579 .10398865 .032989503 .11999512 0 .1619873 0 .18699646 0 .20298767 .015991211 .20298767 .015991211 .20298767-.012023926 .20298767-.09617615 .125-.16729737 .12098694-.17131043 .117996219-.1743164 .117996219-.17932129 .117996219-.18533325 .125-.19433594 .13198853-.19433594 .14498902-.19433594 .23098755-.11520386 .23098755 .005996704Z"/>
<path id="font_3_1" d="M.62098696 .67871096H.055999757V.6427002H.07998657C.15699768 .6427002 .15899658 .6327057 .15899658 .59773257V.08097839C.15899658 .04698181 .15699768 .035995485 .07998657 .035995485H.055999757V0C.056991579 0 .16999817 .0039978029 .20799256 .0039978029 .24899292 .0039978029 .36799623 .0009918213 .3829956 0V.035995485H.34799195C.2539978 .035995485 .2539978 .048980714 .2539978 .081970218V.60372927C.2539978 .6347046 .25498963 .6427002 .3019867 .6427002H.4229889C.57499697 .6427002 .59999087 .58673098 .61698916 .4487915H.651001L.62098696 .67871096Z"/>
<path id="font_6_8" d="M.36799623 .6563263C.37199403 .67033389 .37199403 .67233279 .37199403 .6773224 .37199403 .69433596 .35699464 .69433596 .34098817 .69332888L.21798706 .6843262C.20098877 .68333438 .19898987 .6823273 .19400025 .67832949 .18998719 .6733246 .18699646 .6613312 .18699646 .6553345 .18699646 .6383209 .20298767 .6383209 .21699524 .6383209 .21798706 .6383209 .23599243 .6383209 .25099183 .636322 .269989 .6343231 .2709961 .6313324 .2709961 .6233368 .2709961 .6203308 .2709961 .6183319 .2659912 .6003418L.12799073 .048294069C.12399292 .03326416 .12399292 .03126526 .12399292 .025253296 .12399292 .002243042 .14199829-.0107421879 .1619873-.0107421879 .20098877-.0107421879 .20999146 .026260376 .21398926 .040283204L.25898744 .22460938C.2849884 .2236023 .4099884 .21658325 .4099884 .14546204 .4099884 .13845825 .4099884 .13444519 .40699769 .122421268 .4039917 .10839844 .4039917 .102386478 .4039917 .09637451 .4039917 .025253296 .46798707-.0107421879 .526001-.0107421879 .6279907-.0107421879 .66799929 .13244629 .66799929 .14447022 .66799929 .15849304 .651001 .15849304 .6469879 .15849304 .6299896 .15849304 .6279907 .1534729 .6230011 .13545227 .61299136 .10038757 .58399966 .023254395 .5299988 .023254395 .49299623 .023254395 .48799134 .060317995 .48799134 .082351688 .48799134 .083358768 .48799134 .09738159 .49198915 .1144104 .49598695 .13043213 .49699403 .14045716 .49699403 .14846802 .49699403 .23660279 .3869934 .25160218 .32099916 .25660707 .34899903 .272583 .3909912 .30654908 .40699769 .32054139 .46398927 .36553956 .5189972 .40838624 .57598879 .40838624 .598999 .40838624 .6049957 .40245057 .61099246 .3965149 .6100006 .3965149 .6049957 .3935547 .6029968 .3935547 .5569916 .37754823 .5569916 .33654786 .5569916 .33354188 .5569916 .31654359 .56900027 .2925415 .60198977 .2925415 .621994 .2925415 .6639862 .30854798 .6639862 .36354066 .6639862 .41236878 .6259918 .4423828 .5779877 .4423828 .5099945 .4423828 .45199586 .3965149 .3789978 .33753968 .34399415 .3095398 .31098939 .28456117 .2709961 .2685852L.36799623 .6563263Z"/>
<path id="font_6_6" d="M.3959961 .6244507C.3959961 .64845278 .37799073 .66744998 .35198976 .66744998 .32398988 .66744998 .29100038 .6404419 .29100038 .6074524 .29100038 .5794525 .31298829 .5644531 .33399964 .5644531 .36698915 .5644531 .3959961 .5944519 .3959961 .6244507M.44299317 .14428711C.44299317 .15829468 .42599488 .15829468 .42199708 .15829468 .40499879 .15829468 .4039917 .15429688 .397995 .13528443 .3809967 .08027649 .33599855 .023254395 .28599549 .023254395 .2630005 .023254395 .2559967 .039260866 .2559967 .061264039 .2559967 .08227539 .26098634 .09327698 .2689972 .11227417 .2769928 .1322937 .2849884 .15229798 .2899933 .16629029 .2939911 .17530823 .33299256 .2683258 .34700013 .30433656 .35499574 .32435609 .36099244 .33735658 .36099244 .35435487 .36099244 .40237428 .31498719 .4423828 .2519989 .4423828 .14698792 .4423828 .09098816 .3143463 .09098816 .28733827 .09098816 .2733307 .10699463 .2733307 .11199951 .2733307 .1289978 .2733307 .12998963 .27833558 .1349945 .29333497 .15699768 .36436463 .20498657 .40837098 .24798584 .40837098 .2669983 .40837098 .27799989 .39736939 .27799989 .37036134 .27799989 .36636354 .27799989 .35336305 .27198792 .3343506 .2649994 .3163452 .21998596 .20930481 .20599365 .17530823 .19898987 .15829468 .19898987 .15629578 .18399048 .122283939 .1789856 .10827637 .17298889 .0942688 .17298889 .07727051 .17298889 .025253296 .22200012-.0107421879 .28199769-.0107421879 .3869934-.0107421879 .44299317 .119277957 .44299317 .14428711Z"/>
<path id="font_6_7" d="M.5099945 .6244507C.5099945 .6474457 .49299623 .66744998 .46598817 .66744998 .43499757 .66744998 .4039917 .6374512 .4039917 .6074524 .4039917 .5834503 .4229889 .5644531 .44799806 .5644531 .48199464 .5644531 .5099945 .5964508 .5099945 .6244507M.2919922-.044952394C.272995-.12097168 .20999146-.17105103 .14898682-.17105103 .13198853-.17105103 .12098694-.16796875 .11299133-.16596985 .13699341-.15197754 .14399719-.12597656 .14399719-.112976077 .14399719-.09597778 .13198853-.07197571 .09899902-.07197571 .06498718-.07197571 .036987306-.10298157 .036987306-.13597107 .036987306-.1790924 .08198547-.20507813 .1499939-.20507813 .21798706-.20507813 .34799195-.17002869 .3789978-.045959474L.46899415 .31230165C.47099305 .3223114 .47399903 .3313141 .47399903 .34532167 .47399903 .40237428 .42099 .4423828 .35099793 .4423828 .22999573 .4423828 .1559906 .30729676 .1559906 .28729249 .1559906 .27326966 .17199707 .27326966 .1769867 .27326966 .19198609 .27326966 .19400025 .2772827 .19898987 .28729249 .24499512 .38536073 .31298829 .40837098 .34700013 .40837098 .3869934 .40837098 .3889923 .37234498 .3889923 .35533143 .3889923 .34132386 .3880005 .33732606 .38598634 .3293152L.2919922-.044952394Z"/>
<path id="font_1_58" d="M.8450012 .22935486V.2763672C.80999758 .2733612 .72299197 .2733612 .6839905 .2733612 .6259918 .2733612 .5329895 .2733612 .47898866 .2763672V.22935486H.6230011V.1282959C.6230011 .109298709 .6230011 .08027649 .58399966 .057266237 .55799868 .042251588 .526001 .036254884 .49398805 .036254884 .4079895 .036254884 .32199098 .06526184 .272995 .12730408 .22999573 .18232727 .21699524 .25335694 .21699524 .3443451 .21699524 .4563141 .23699951 .5142975 .27398683 .5632782 .31399537 .613266 .3909912 .6502533 .4869995 .6502533 .59399417 .6502533 .68899539 .5742798 .71099856 .4473114 .71398928 .4283142 .71499636 .4263153 .73799136 .4263153 .7639923 .4263153 .7649994 .4283142 .7649994 .4543152V.6692505C.7649994 .68826296 .7649994 .6972656 .746994 .6972656 .73799136 .6972656 .73599246 .69525149 .7279968 .68826296L.6619873 .62927249C.58898928 .68725588 .5169983 .6972656 .46499635 .6972656 .21899414 .6972656 .06399536 .55029299 .06399536 .343338 .06399536 .14431763 .20899964-.0107421879 .46699525-.0107421879 .5-.0107421879 .6029968-.008743286 .6529999 .053253175 .6839905 .026245118 .74398806 .00024414063 .7509918 .00024414063 .7649994 .00024414063 .7649994 .013244629 .7649994 .028244019V.22935486H.8450012Z"/>
<path id="font_1_109" d="M.61499026 .0001373291V.0471344C.5529938 .0471344 .54599 .0471344 .54599 .086135867V.4501953L.36299134 .44218446V.39518739C.4249878 .39518739 .43199159 .39518739 .43199159 .3561859V.16514588C.43199159 .08314514 .3809967 .030136109 .30799867 .030136109 .23098755 .030136109 .22799683 .055130006 .22799683 .10914612V.4501953L.04499817 .44218446V.39518739C.10699463 .39518739 .11399841 .39518739 .11399841 .3561859V.12313843C.11399841 .01612854 .19499207-.005859375 .2939911-.005859375 .31999208-.005859375 .3919983-.005859375 .43798829 .072143558V-.005859375L.61499026 .0001373291Z"/>
<path id="font_1_59" d="M.55799868 .3970642C.55799868 .42007447 .54100039 .45507813 .49499513 .45507813 .47999574 .45507813 .43299867 .45207215 .3889923 .41706849 .37098695 .42918397 .32899476 .4501953 .25498963 .4501953 .11099243 .4501953 .055999757 .37243653 .055999757 .3024292 .055999757 .26127626 .07598877 .22012329 .10798645 .19703675 .07998657 .16191101 .07398987 .12878418 .07398987 .10771179 .07398987 .0927124 .07798767 .04371643 .117996219 .01171875 .10499573 .008712769 .03199768-.012252808 .03199768-.075164798 .03199768-.12609864 .08699036-.2010498 .2869873-.2010498 .46398927-.2010498 .5419922-.14207459 .5419922-.07217407 .5419922-.04222107 .5339966 .020706177 .46699525 .054718019 .41099549 .08300781 .35099793 .08300781 .25498963 .08300781 .22898865 .08300781 .18299866 .08300781 .17799378 .083984378 .13398743 .0909729 .12298584 .12898255 .12298584 .14697266 .12298584 .15698242 .1269989 .17198181 .1329956 .17997742 .1789856 .15629578 .22999573 .15429688 .25498963 .15429688 .39898683 .15429688 .45399476 .23234558 .45399476 .3024292 .45399476 .34942628 .42900086 .38243104 .4139862 .3984375 .44400025 .4144287 .46499635 .4164276 .47599793 .4174347 .47399903 .4124298 .47200013 .40342713 .47200013 .39743043 .47200013 .37219239 .4889984 .354187 .5149994 .354187 .54100039 .354187 .55799868 .3731842 .55799868 .39718629V.3970642M.34298707 .30221559C.34298707 .25724793 .34298707 .19029236 .25498963 .19029236 .16699219 .19021607 .16699219 .25733949 .16699219 .3024292 .16699219 .34742738 .16699219 .41418458 .25498963 .41418458 .34298707 .41418458 .34298707 .34742738 .34298707 .3024292V.30221559M.45599366-.07501221C.45599366-.11102295 .4169922-.16503906 .2869873-.16503906 .16699219-.16503906 .117996219-.11903381 .117996219-.073013309 .117996219-.013000488 .18099976-.013000488 .19499207-.013000488H.31199647C.34298707-.013000488 .45599366-.013000488 .45599366-.07501221Z"/>
<path id="font_1_27" d="M.82699587 0V.04699707H.7299957L.47399903 .6722412C.46299745 .6982422 .45098878 .6982422 .43399049 .6982422 .4059906 .6982422 .4019928 .6902313 .394989 .6722412L.14698792 .07002258C.14099121 .055007936 .13798523 .04699707 .06199646 .04699707H.040985109V0L.1579895 .0029907227C.19699097 .0029907227 .25299073 .0029907227 .2899933 0V.04699707C.2899933 .04699707 .20098877 .04699707 .20098877 .060012819L.20498657 .07203674 .25498963 .19322205H.522995L.58299258 .04699707H.48799134V0C.526001 .0029907227 .62098696 .0029907227 .6639862 .0029907227 .70399478 .0029907227 .7919922 .0029907227 .82699587 0M.5029907 .24023438H.2749939L.3889923 .51823428 .5029907 .24023438Z"/>
<path id="font_1_34" d="M.7529907 .18592835C.7529907 .28189088 .6669922 .3488617 .5479889 .35786439 .6559906 .37686158 .72099307 .43678285 .72099307 .51368716 .72099307 .60557559 .6339874 .6855469 .47299195 .6855469H.038986207V.63853457H.14698792V.04699707H.038986207V0H.5029907C.6689911 0 .7529907 .08796692 .7529907 .18592835M.57899478 .51368716C.57899478 .43678285 .5309906 .37486268 .43399049 .37486268H.27799989V.63853457H.45999146C.5609894 .63853457 .57899478 .55963137 .57899478 .51368716M.60598757 .18693543C.60598757 .17492676 .60598757 .04699707 .46199037 .04699707H.27799989V.3388672H.47200013C.49198915 .3388672 .5389862 .3388672 .57299807 .29588319 .60598757 .253891 .60598757 .19792176 .60598757 .18693543Z"/>
<clipPath id="clip_9">
<path transform="matrix(1,0,0,-1,74.32151,87.17929)" d="M181.41947 0C181.41947 6.26218 176.3431 11.33855 170.08092 11.33855 163.81873 11.33855 158.74237 6.26218 158.74237 0 158.74237-6.26218 163.81873-11.33855 170.08092-11.33855 176.3431-11.33855 181.41947-6.26218 181.41947 0ZM170.08092 0"/>
</clipPath>
<g id="pattern_tile_10">
<path transform="matrix(1,0,0,-1,0,183.85)" stroke-width=".3985" stroke-linecap="butt" stroke-miterlimit="10" stroke-linejoin="miter" fill="none" stroke="#b35900" d="M0 .49814H99.62769"/>
</g>
<pattern id="pattern_10" patternUnits="userSpaceOnUse" patternContentUnits="userSpaceOnUse" x="0" y="0" width="99.62769" height="2.98883">
<g transform="matrix(1,0,0,-1,-0,183.85)">
<use x="0" y="0" xlink:href="#pattern_tile_10"/>
</g>
</pattern>
<path id="font_3_2" d="M.44799806 .13896179C.6119995 .1509552 .74398806 .2368927 .74398806 .34080506 .74398806 .44869996 .6069946 .53263857 .44799806 .54364016V.60061648C.44799806 .63360598 .44799806 .64660647 .5419922 .64660647H.57699587V.6826172C.5549927 .6816101 .44099427 .6786041 .4039917 .6786041 .34498597 .6786041 .24099732 .6816101 .23098755 .6826172V.64660647H.2659912C.3600006 .64660647 .3600006 .63360598 .3600006 .60061648V.5426483C.18499756 .52864077 .069992069 .43771363 .069992069 .34179688 .069992069 .24189759 .18998719 .15396118 .3600006 .13995362V.08198547C.3600006 .04899597 .3600006 .035995485 .2659912 .035995485H.23098755V0C.25299073 .0009918213 .36698915 .0039978029 .4039917 .0039978029 .46299745 .0039978029 .5669861 .0009918213 .57699587 0V.035995485H.5419922C.44799806 .035995485 .44799806 .04899597 .44799806 .08198547V.13896179M.3600006 .16796875C.2769928 .1759491 .17298889 .21292115 .17298889 .34080506 .17298889 .47268678 .2809906 .50665286 .3600006 .51464846V.16796875M.44799806 .51464846C.5389862 .50764468 .6409912 .46768189 .6409912 .34179688 .6409912 .20991516 .5319977 .1739502 .44799806 .16796875V.51464846Z"/>
<path id="font_4_1" d="M.49198915 .68133547C.49198915 .69433596 .47999574 .69433596 .47499085 .69433596 .45999146 .69433596 .45899964 .68933108 .45498658 .67233279L.397995 .44335938C.22099304 .4353485 .069992069 .30833436 .069992069 .17430115 .069992069 .061279298 .17298889-.006729126 .28399659-.010726929 .27598573-.041793825 .2689972-.0738678 .26098634-.10493469 .24899292-.15203858 .23999024-.18910218 .23999024-.19210816 .23999024-.20410156 .25299073-.20410156 .2559967-.20410156 .2709961-.20410156 .27198792-.20111084 .2769928-.18009949L.31900025-.01171875C.48999024-.0047302248 .6469879 .121292117 .6469879 .25732423 .6469879 .3623352 .5549927 .4373474 .43299867 .4423523L.49198915 .68133547M.29100038 .01727295C.21398926 .021270752 .14299011 .0632782 .14299011 .15730286 .14299011 .25732423 .21899414 .39834596 .3899994 .41435243L.29100038 .01727295M.4249878 .41435243C.5019989 .41134645 .57398989 .369339 .57398989 .2743225 .57398989 .16529846 .48799134 .031280519 .32598878 .01727295L.4249878 .41435243Z"/>
<path id="font_3_5" d="M.7679901 .3359375C.7829895 .3359375 .80599978 .3359375 .80599978 .3609314 .80599978 .38493348 .7819977 .38493348 .7689972 .38493348H.10699463C.09399414 .38493348 .069992069 .38493348 .069992069 .3609314 .069992069 .3359375 .09298706 .3359375 .10798645 .3359375H.7679901M.7689972 .11602783C.7819977 .11602783 .80599978 .11602783 .80599978 .1400299 .80599978 .16503906 .7829895 .16503906 .7679901 .16503906H.10798645C.09298706 .16503906 .069992069 .16503906 .069992069 .1400299 .069992069 .11602783 .09399414 .11602783 .10699463 .11602783H.7689972Z"/>
<path id="font_4_7" d="M.22399903 .22851563C.2519989 .22851563 .33099366 .23051453 .3849945 .24951172 .45899964 .27549745 .47299195 .3234558 .47299195 .35343934 .47299195 .4084015 .41799928 .44140626 .34899903 .44140626 .22898865 .44140626 .066986087 .34944154 .066986087 .17843628 .066986087 .077301029 .12998963-.009765625 .24699402-.009765625 .41600038-.009765625 .49499513 .08932495 .49499513 .10334778 .49499513 .10934448 .48599244 .12036133 .47799684 .12036133 .47200013 .12036133 .46998597 .11836243 .46199037 .11035156 .38398744 .018234253 .2669983 .018234253 .24899292 .018234253 .18899536 .018234253 .14898682 .058273317 .14898682 .13938904 .14898682 .15341187 .14898682 .1734314 .16099549 .22851563H.22399903M.16899109 .2565155C.20999146 .40141297 .32099916 .4133911 .34899903 .4133911 .3929901 .4133911 .42999269 .39141847 .42999269 .35343934 .42999269 .2565155 .26098634 .2565155 .21798706 .2565155H.16899109Z"/>
<path id="font_11_1" d="M.28399659 .5450897H.49499513C.5119934 .5450897 .5289917 .5450897 .5289917 .562088 .5289917 .57910159 .5130005 .57910159 .49598695 .57910159H.2919922C.29899598 .604187 .29899598 .6061859 .30499269 .63127139 .30899049 .6473236 .31698609 .6773224 .31698609 .68032839 .31698609 .6843262 .31498719 .69433596 .2999878 .69433596L.17298889 .6843262C.16499329 .68333438 .1519928 .68133547 .1519928 .6613312 .1519928 .6473236 .16499329 .6473236 .17799378 .6473236 .22599793 .6473236 .22599793 .64030459 .22599793 .63127139 .22599793 .6302643 .22599793 .6242523 .21499634 .57910159H.15699768C.13999939 .57910159 .12399292 .57910159 .12399292 .562088 .12399292 .5450897 .14099121 .5450897 .1579895 .5450897H.20599365L.07899475 .039230348C.07798767 .034240724 .07598877 .02822876 .07598877 .022232056 .07598877 .006225586 .08799744-.009765625 .10998535-.009765625 .14498902-.009765625 .15299988 .021224976 .1559906 .035232545 .16099549 .054244996 .17199707 .1002655 .1789856 .12426758 .18199158 .13928223 .19198609 .17729187 .19499207 .19230652 .19799805 .2013092 .21099854 .2543335 .21199036 .25933839 .21398926 .26834107 .2749939 .4133911 .3959961 .4133911 .45498658 .4133911 .45498658 .36038209 .45498658 .34336854 .45498658 .28434754 .41299439 .17630005 .3919983 .120269779 .38598634 .10626221 .3809967 .09326172 .3809967 .07525635 .3809967 .026229859 .42199708-.009765625 .47599793-.009765625 .57499697-.009765625 .62098696 .12626648 .62098696 .14328003 .62098696 .15628052 .6069946 .15628052 .60398867 .15628052 .58999636 .15628052 .58898928 .1512909 .58499148 .13928223 .55799868 .049240114 .5119934 .018234253 .47898866 .018234253 .45799256 .018234253 .45298768 .034240724 .45298768 .053237916 .45298768 .069244388 .45599366 .08226013 .46798707 .11326599 .48599244 .1612854 .5299988 .27233888 .5299988 .32835389 .5299988 .4113922 .46899415 .44140626 .3999939 .44140626 .33299256 .44140626 .28199769 .4104004 .23699951 .35836793L.28399659 .5450897Z"/>
<path id="font_12_1" d="M.4039917-.7628937C.5299988-.7478943 .59298709-.6448517 .59298709-.55578616 .59298709-.4727173 .5419922-.38865663 .44999696-.35766603 .45399476-.30569459 .45799256-.25671388 .46398927-.20475769 .47799684-.0987854 .5009918-.028015137 .56999209-.028015137 .58898928-.028015137 .6159973-.033950807 .6369934-.05078125 .6309967-.05279541 .6009979-.06278992 .6009979-.09579468 .6009979-.12878418 .6269989-.14178467 .6459961-.14178467 .6669922-.14178467 .69200137-.12878418 .69200137-.0947876 .69200137-.040878297 .6359863 0 .56900027 0 .5039978 0 .45700074-.038909913 .4249878-.0947876 .3899994-.15478516 .38198854-.21574402 .36499024-.34765626 .23899842-.3626709 .17599488-.4657135 .17599488-.55477908 .17599488-.6378479 .22698975-.7218933 .31900025-.75289919 .31498719-.8048706 .31098939-.85383608 .30499269-.9058075 .29100038-1.0117645 .2679901-1.0830078 .19898987-1.0830078 .17999268-1.0830078 .15299988-1.0769501 .13198853-1.0597534 .13798523-1.0577545 .16799927-1.04776 .16799927-1.0147553 .16799927-.9817505 .14199829-.96875 .12298584-.96875 .101989749-.96875 .07699585-.9817505 .07699585-1.0157623 .07699585-1.06987 .1329956-1.111023 .19999695-1.111023 .2649994-1.111023 .31199647-1.0718994 .34399415-1.0157623 .3789978-.9557648 .3869934-.8948059 .4039917-.7628937M.32299806-.7028961C.2579956-.6748657 .22499085-.6128235 .22499085-.55578616 .22499085-.48373414 .27398683-.41368104 .35798646-.3976593L.32299806-.7028961M.44499208-.40766908C.5089874-.4336853 .5439911-.49673463 .5439911-.55477908 .5439911-.62683108 .49499513-.69688418 .41099549-.7128906L.44499208-.40766908Z"/>
<path id="font_4_3" d="M.20599365 .11984253C.17098999 .06594849 .13899231 .039978029 .07998657 .035995485 .069992069 .034988405 .056991579 .034988405 .056991579 .01499939 .056991579 .0039978029 .06599426 0 .070999149 0 .09700012 0 .12998963 .0039978029 .15699768 .0039978029 .18899536 .0039978029 .22999573 0 .2599945 0 .2649994 0 .27999879 0 .27999879 .021987915 .27999879 .034988405 .2669983 .035995485 .2630005 .035995485 .25498963 .036987306 .21899414 .038986207 .21899414 .06594849 .21899414 .077926639 .22898865 .09489441 .23399353 .103881839L.31399537 .22766114H.59999087L.6239929 .061950685C.6199951 .051971437 .6139984 .035995485 .5549927 .035995485 .54299929 .035995485 .5289917 .035995485 .5289917 .01399231 .5289917 .009994507 .5319977 0 .54499819 0 .57398989 0 .644989 .0039978029 .673996 .0039978029 .69200137 .0039978029 .71499636 .0029907227 .73298647 .0029907227 .7509918 .0019989014 .7719879 0 .7899933 0 .8029938 0 .80999758 .0079956059 .80999758 .020996094 .80999758 .035995485 .7979889 .035995485 .7819977 .035995485 .723999 .035995485 .7220001 .04397583 .71899417 .06793213L.6309967 .6848755C.6279907 .70588687 .6259918 .7128906 .6069946 .7128906 .58799746 .7128906 .58200076 .70388796 .57299807 .6898804L.20599365 .11984253M.33799745 .26367188 .5479889 .5908356 .59498599 .26367188H.33799745Z"/>
<path id="font_3_6" d="M.35598756 .68333438V.6473236C.4229889 .6473236 .43099977 .6403351 .43099977 .59135439V.38438417C.3939972 .4203949 .34599305 .44140626 .29100038 .44140626 .1579895 .44140626 .04598999 .34136964 .04598999 .21531677 .04598999 .09025574 .1519928-.009765625 .2789917-.009765625 .36099244-.009765625 .4099884 .034240724 .4269867 .052246095V-.009765625L.58099368 .00022888184V.036239625C.5139923 .036239625 .5059967 .04324341 .5059967 .09225464V.69433596L.35598756 .68333438M.4269867 .105270389C.40098573 .058242799 .34999085 .018234253 .2849884 .018234253 .22898865 .018234253 .18899536 .051239015 .16899109 .08026123 .14898682 .11026001 .13699341 .15028382 .13699341 .21430969 .13699341 .23731995 .13699341 .3123474 .17799378 .359375 .21798706 .40438844 .2669983 .4133911 .29599 .4133911 .34399415 .4133911 .3869934 .39138795 .4149933 .3553772 .4269867 .33937074 .4269867 .33836366 .4269867 .3193512V.105270389Z"/>
<path id="font_4_10" d="M.24899292 .10601807C.23899842 .072021488 .20599365 .018234253 .15499878 .018234253 .1519928 .018234253 .12199402 .018234253 .100997928 .03215027 .14199829 .04508972 .14498902 .08100891 .14498902 .087020877 .14498902 .10900879 .12799073 .12402344 .10499573 .12402344 .07699585 .12402344 .04798889 .10002136 .04798889 .0630188 .04798889 .01322937 .10398865-.009765625 .15299988-.009765625 .19898987-.009765625 .23999024 .019226075 .2649994 .061019899 .2889862 .008224487 .34399415-.009765625 .38398744-.009765625 .49899293-.009765625 .55999758 .11502075 .55999758 .14305115 .55999758 .15608216 .5469971 .15608216 .5439911 .15608216 .5299988 .15608216 .5289917 .15107727 .5249939 .13905335 .5039978 .07002258 .44400025 .018234253 .3880005 .018234253 .34799195 .018234253 .32699586 .04508972 .32699586 .08302307 .32699586 .10900879 .35099793 .20018006 .3789978 .31140138 .39898683 .38841249 .44400025 .4133911 .47698976 .4133911 .47898866 .4133911 .5099945 .4133911 .5309906 .39941407 .49899293 .39041139 .4869995 .3624115 .4869995 .34440614 .4869995 .32240296 .5039978 .30740357 .5269928 .30740357 .5499878 .30740357 .58299258 .32640077 .58299258 .3684082 .58299258 .4243927 .5189972 .44140626 .47898866 .44140626 .42900086 .44140626 .3889923 .4084015 .36698915 .3704071 .34899903 .4113922 .30299378 .44140626 .24699402 .44140626 .1349945 .44140626 .070999149 .31840516 .070999149 .2883606 .070999149 .27534486 .084991458 .27534486 .08799744 .27534486 .100997928 .27534486 .101989749 .27934266 .10699463 .29237367 .13198853 .3704071 .19499207 .4133911 .24398804 .4133911 .2769928 .4133911 .3039856 .395401 .3039856 .3474121 .3039856 .32740785 .2919922 .27734376 .2829895 .24327088L.24899292 .10601807Z"/>
<path id="font_4_4" d="M.18899536 .07797241C.18099976 .04399109 .1789856 .035995485 .100997928 .035995485 .08299255 .035995485 .070999149 .035995485 .070999149 .01399231 .070999149 0 .08299255 0 .100997928 0H.45799256C.6799927 0 .8929901 .20388794 .8929901 .42175294 .8929901 .5676575 .7919922 .6826172 .6289978 .6826172H.2649994C.24499512 .6826172 .23298645 .6826172 .23298645 .660614 .23298645 .64660647 .24398804 .64660647 .2659912 .64660647 .28199769 .64660647 .28599549 .64660647 .3039856 .64460757 .32398988 .64260867 .32598878 .64060977 .32598878 .63061526 .32598878 .62861636 .32598878 .6236267 .32199098 .6086426L.18899536 .07797241M.41299439 .6126251C.42099 .6436157 .42199708 .64660647 .46398927 .64660647H.59199526C.70399478 .64660647 .7979889 .59065249 .7979889 .45472718 .7979889 .43174745 .7879944 .2588501 .6879883 .14492798 .6489868 .09994507 .5629883 .035995485 .43998719 .035995485H.3039856C.272995 .035995485 .27198792 .036987306 .27198792 .04598999 .27198792 .04698181 .27198792 .051986696 .27598573 .066970828L.41299439 .6126251Z"/>
<path id="font_6_2" d="M.09899902-.15681458C.09498596-.17282105 .09498596-.17782593 .09498596-.18081665 .09498596-.2038269 .11299133-.21582031 .13198853-.21582031 .15299988-.21582031 .17399597-.2038269 .18299866-.17082215 .19999695-.105789188 .18998719-.142807 .20599365-.07678223L.22999573 .019256592C.2689972-.0047454836 .31599427-.0107421879 .35198976-.0107421879 .41600038-.0107421879 .46899415 .019256592 .5130005 .06323242 .5309906 .003250122 .59799197-.0107421879 .6309967-.0107421879 .67099-.0107421879 .69799807 .012252808 .71899417 .04524231 .7449951 .08421326 .7589874 .13719177 .7589874 .14419556 .7589874 .15820313 .74198916 .15820313 .73799136 .15820313 .7200012 .15820313 .71899417 .15219116 .71398928 .13619995 .69599917 .06222534 .66999819 .023254395 .6349945 .023254395 .6069946 .023254395 .59498599 .04524231 .59498599 .07621765 .59498599 .097213748 .6259918 .2182312 .6649933 .37234498 .66999819 .38935853 .66999819 .39135743 .66999819 .3963623 .66999819 .41838075 .6519928 .43138124 .6329956 .43138124 .59298709 .43138124 .58499148 .39735414 .5779877 .36834718 .56599429 .32531739 .56599429 .32330323 .55599978 .2822876 .54499819 .23925781 .5319977 .18721009 .5239868 .15219116 .5169983 .12719727 .5169983 .12519837 .5 .10421753 .46798707 .06422424 .41999818 .023254395 .35699464 .023254395 .30299378 .023254395 .2599945 .04423523 .2599945 .11520386 .2599945 .13819885 .2649994 .15919495 .272995 .18821717 .2829895 .23223877 .2849884 .23925781 .29499818 .27827455L.31199647 .34532167C.31698609 .366333 .32598878 .402359 .32598878 .4073639 .32598878 .42437745 .31298829 .4423828 .2889862 .4423828 .24899292 .4423828 .23999024 .405365 .23699951 .39335633L.09899902-.15681458Z"/>
<path id="font_4_2" d="M.5249939 .33813478C.5109863 .3960724 .46598817 .4560547 .37199403 .4560547 .23199463 .4560547 .115997318 .35112 .07998657 .2612152 .07398987 .24423218 .05999756 .20327759 .05999756 .16331482 .05999756 .09437561 .11399841-.01953125 .269989-.01953125 .5289917-.01953125 .6339874 .30317689 .6339874 .4450531 .6339874 .61631777 .5219879 .7138672 .3880005 .7138672 .22499085 .7138672 .17999268 .58436587 .17999268 .55336 .17999268 .5453644 .18499756 .5173645 .21998596 .5173645 .25498963 .5173645 .27598573 .54837039 .27598573 .57237246 .27598573 .59936526 .2559967 .6083679 .23699951 .6103668 .2869873 .6848602 .36898805 .6848602 .38598634 .6848602 .46099855 .6848602 .5499878 .63816836 .5499878 .4962616 .5499878 .4530487 .54499819 .4180603 .526001 .33813478H.5249939M.27198792 .012466431C.15899658 .012466431 .1459961 .09738159 .1459961 .12834168 .1459961 .16731262 .17298889 .265213 .18299866 .29019166 .20098877 .33613587 .2630005 .42803956 .37599183 .42803956 .47299195 .42803956 .5049896 .35212709 .5049896 .2921753 .5049896 .22525025 .43998719 .012466431 .27198792 .012466431Z"/>
<path id="font_3_3" d="M.46299745 .2263794H.7689972C.7819977 .2263794 .80599978 .2263794 .80599978 .25038148 .80599978 .27539063 .7829895 .27539063 .7689972 .27539063H.46299745V.5821533C.46299745 .59513857 .46299745 .6191406 .43899537 .6191406 .4139862 .6191406 .4139862 .5961304 .4139862 .5821533V.27539063H.10699463C.09399414 .27539063 .069992069 .27539063 .069992069 .25138856 .069992069 .2263794 .09298706 .2263794 .10699463 .2263794H.4139862V-.08114624C.4139862-.09416199 .4139862-.11816406 .43798829-.11816406 .46299745-.11816406 .46299745-.09516907 .46299745-.08114624V.2263794Z"/>
<path id="font_4_9" d="M.32398988 .6253052C.32398988 .64131167 .31199647 .66329959 .28399659 .66329959 .25698854 .66329959 .22799683 .6372986 .22799683 .6083069 .22799683 .5913086 .24099732 .5703125 .2679901 .5703125 .29699708 .5703125 .32398988 .5983124 .32398988 .6253052M.11999512 .117263797C.115997318 .104263309 .11099243 .09225464 .11099243 .07525635 .11099243 .02822876 .15098572-.009765625 .20599365-.009765625 .30599977-.009765625 .34999085 .12828064 .34999085 .14328003 .34999085 .15628052 .33699037 .15628052 .33399964 .15628052 .31999208 .15628052 .31900025 .15028382 .31498719 .13928223 .2919922 .059249879 .24798584 .018234253 .20899964 .018234253 .18899536 .018234253 .18399048 .031234742 .18399048 .053237916 .18399048 .07624817 .19099427 .09526062 .19999695 .117263797 .20999146 .14428711 .22099304 .17129517 .23199463 .1973114 .24099732 .22131348 .2769928 .3123474 .2809906 .32435609 .28399659 .33436585 .2869873 .3463745 .2869873 .35636903 .2869873 .4033966 .24699402 .44140626 .19198609 .44140626 .09298706 .44140626 .04699707 .3053589 .04699707 .28834535 .04699707 .27534486 .06098938 .27534486 .06399536 .27534486 .07798767 .27534486 .07899475 .28033448 .08198547 .29135133 .10798645 .37738038 .1519928 .4133911 .18899536 .4133911 .20498657 .4133911 .21398926 .4053955 .21398926 .37838746 .21398926 .3553772 .20799256 .34036256 .18299866 .27833558L.11999512 .117263797Z"/>
<path id="font_4_8" d="M.5319977 .36935426C.5359955 .3843689 .5359955 .38937379 .5359955 .39038087 .5359955 .4123993 .5179901 .4223938 .5019989 .4223938 .47898866 .4223938 .45999146 .4033966 .45599366 .3843689 .43899537 .4113922 .40499879 .44140626 .35299684 .44140626 .22799683 .44140626 .09700012 .3072815 .09700012 .1641388 .09700012 .061019899 .16699219 0 .24899292 0 .29499818 0 .33898927 .022994996 .37399293 .054016115L.35198976-.036026C.34098817-.07803345 .33399964-.105041507 .29599-.13903809 .2519989-.17610169 .20899964-.17610169 .18399048-.17610169 .13798523-.17610169 .125-.17308045 .10699463-.16903687 .13198853-.15704346 .13899231-.13304138 .13899231-.11903381 .13899231-.09503174 .11999512-.08203125 .099990848-.08203125 .07199097-.08203125 .042999269-.105041507 .042999269-.14303589 .042999269-.20310974 .1289978-.20410156 .18499756-.20410156 .34199525-.20410156 .40899659-.1240387 .4229889-.06703186L.5319977 .36935426M.3939972 .13310242C.3899994 .11808777 .3899994 .11608887 .37298585 .096069339 .33799745 .054016115 .2899933 .027999878 .2519989 .027999878 .20098877 .027999878 .1769867 .07104492 .1769867 .12309265 .1769867 .16714478 .20399475 .2792511 .22999573 .32330323 .27198792 .39338685 .31900025 .4133911 .35299684 .4133911 .4229889 .4133911 .44198609 .33831788 .44198609 .3283081 .44198609 .3263092 .44198609 .3243103 .43899537 .31329347L.3939972 .13310242Z"/>
<path id="font_13_97" d="M.5130005 .18504334C.5130005 .24205017 .49198915 .28604127 .46798707 .31604005 .4249878 .37104798 .37998963 .38204957 .31498719 .39704896L.22698975 .41804505C.14698792 .43804933 .12098694 .5020447 .12098694 .546051 .12098694 .6130676 .1749878 .677063 .25898744 .677063 .3880005 .677063 .43998719 .5810547 .45399476 .4800415 .45700074 .4610443 .45799256 .4560547 .46998597 .4560547 .48399354 .4560547 .48399354 .4630432 .48399354 .48405458V.677063C.48399354 .69706729 .48399354 .7050781 .47200013 .7050781 .46499635 .7050781 .46398927 .70407107 .45700074 .69207766 .44400025 .67407229 .45399476 .68707278 .42099 .6350708 .4039917 .6550751 .35198976 .7050781 .2579956 .7050781 .14099121 .7047119 .056991579 .6137085 .056991579 .51171877 .056991579 .4336853 .10398865 .38565064 .10899353 .38064576 .1539917 .33662416 .17199707 .33161927 .29100038 .30360414 .37199403 .28459168 .3809967 .28259278 .4139862 .24856568 .4139862 .24856568 .44898988 .21055603 .44898988 .1515503 .44898988 .08354187 .3999939 .008529663 .30899049 .008529663 .23199463 .008529663 .09298706 .040542604 .084991458 .20555115 .083999637 .22055054 .083999637 .2265625 .070999149 .2265625 .056991579 .2265625 .056991579 .21855164 .056991579 .19854737V.0055389406C.056991579-.014465332 .056991579-.022460938 .068984989-.022460938 .07598877-.022460938 .07699585-.021469117 .083999637-.009475708 .09700012 .008529663 .08699036-.004470825 .11999512 .047531129 .18199158-.012466431 .26098634-.022460938 .30999757-.022460938 .43199159-.022460938 .5130005 .07752991 .5130005 .18452454V.18504334Z"/>
<path id="font_13_28" d="M.49699403 .089141849V.14515686H.46899415V.090148929C.46899415 .07914734 .46899415 .029129029 .43299867 .029129029 .39698792 .029129029 .39698792 .07714844 .39698792 .09315491V.26818849C.39698792 .32521058 .39698792 .3592224 .35198976 .40022279 .31498719 .43322755 .2669983 .4482422 .21699524 .4482422 .1329956 .4482422 .06298828 .40623475 .06298828 .34220887 .06298828 .311203 .083999637 .2942047 .10998535 .2942047 .13699341 .2942047 .1559906 .31420899 .1559906 .34020997 .1559906 .3832245 .11099243 .38822938 .11099243 .38822938 .13798523 .41423036 .18598938 .42323304 .21499634 .42323304 .2659912 .42323304 .32299806 .3852234 .32299806 .29719544V.26419068C.2689972 .26219178 .19400025 .2571869 .1269989 .22518921 .054992677 .19017029 .032989503 .13816834 .032989503 .09814453 .032989503 .01625061 .12998963-.0107421879 .19699097-.0107421879 .27999879-.0107421879 .31799317 .04425049 .33198548 .072250369 .33699037 .030136109 .3659973-.005859375 .40899659-.005859375 .43399049-.005859375 .49699403 .009140015 .49699403 .08912659V.089141849M.32299806 .14112854C.32299806 .04425049 .24798584 .014251709 .20399475 .014251709 .15699768 .014251709 .11299133 .04824829 .11299133 .098236087 .11299133 .16423035 .16999817 .23422241 .32299806 .24023438V.14112854Z"/>
<path id="font_13_75" d="M.83299258 0V.0309906C.7819977 .03125 .7569885 .03125 .7559967 .0622406V.2539215C.7559967 .34077455 .7559967 .36872865 .72299197 .4056549 .70199587 .43037416 .6619873 .4423828 .6159973 .4423828 .5439911 .4423828 .49499513 .40037538 .46699525 .3473816 .45498658 .40637208 .4149933 .4423828 .33099366 .4423828 .25099183 .4423828 .20199585 .39038087 .18099976 .3443756H.17999268V.4423828L.034988405 .43066407V.3996582C.102996829 .3996582 .11199951 .39266969 .11199951 .34370423V.07695007C.11199951 .0309906 .100997928 .0309906 .034988405 .0309906V0C.08198547 .0019989014 .100997928 .0029907227 .14898682 .0029907227 .19699097 .0029907227 .20999146 .0019989014 .2630005 0V.0309906C.19699097 .0309906 .18598938 .0309906 .18598938 .07695007V.25878907C.18598938 .36732484 .2639923 .41737367 .32398988 .41737367 .3789978 .41737367 .39698792 .37834168 .39698792 .30825807V.077041629C.39698792 .0309906 .38598634 .0309906 .31999208 .0309906V0C.36698915 .0019989014 .38598634 .0029907227 .43399049 .0029907227 .48199464 .0029907227 .49499513 .0019989014 .5479889 0V.0309906C.48199464 .0309906 .47099305 .0309906 .47099305 .077041629V.2592163C.47099305 .36732484 .548996 .41737367 .60899356 .41737367 .6639862 .41737367 .6819916 .37834168 .6819916 .30825807V.077041629C.6819916 .0309906 .67099 .0309906 .6049957 .0309906V0C.6519928 .0019989014 .67099 .0029907227 .71899417 .0029907227 .7669983 .0029907227 .7799988 .0019989014 .83299258 0Z"/>
<path id="font_13_50" d="M.4269867 .11936951C.4269867 .12637329 .42199708 .13237 .41299439 .13237 .40299989 .13237 .3999939 .12536621 .39898683 .12136841 .36499024 .019256592 .27598573 .01725769 .26098634 .01725769 .21299744 .01725769 .17199707 .044281007 .14898682 .078323367 .115997318 .12736511 .114990238 .18743897 .114990238 .22949219H.3999939C.42199708 .22949219 .4269867 .22949219 .4269867 .25048829 .4269867 .35333253 .37098695 .4482422 .24299622 .4482422 .12298584 .4482422 .0289917 .3443451 .0289917 .22047425 .0289917 .08932495 .13398743-.0107421879 .2559967-.0107421879 .37799073-.0107421879 .4269867 .096343997 .4269867 .11936951M.35899354 .253479H.115997318C.125 .40725709 .21499634 .42323304 .24299622 .42323304 .2979889 .42323304 .35798646 .38130189 .35899354 .253479Z"/>
<path id="font_13_66" d="M.25299073 0V.0309906C.18798828 .0309906 .18399048 .035995485 .18399048 .075042728V.4423828L.039993287 .43066407V.3996582C.10398865 .3996582 .11299133 .3936615 .11299133 .3447113V.07695007C.11299133 .0309906 .101989749 .0309906 .035995485 .0309906V0C.08099365 .0019989014 .101989749 .0029907227 .1459961 .0029907227 .1619873 .0029907227 .20399475 .0029907227 .25299073 0M.19699097 .6028137C.19699097 .63282778 .17298889 .6568146 .14299011 .6568146 .11299133 .6568146 .08898926 .63282778 .08898926 .6028137 .08898926 .57281497 .11299133 .5488281 .14299011 .5488281 .17298889 .5488281 .19699097 .57281497 .19699097 .6028137Z"/>
<path id="font_13_47" d="M.5399933 0V.0309906C.47200013 .0309906 .46299745 .037994386 .46299745 .087020877V.69433596L.31498719 .6826172V.6516113C.3829956 .6516113 .3919983 .64463809 .3919983 .59580996V.38339234C.3869934 .38938905 .34199525 .4423828 .2639923 .4423828 .14099121 .4423828 .033996583 .3443756 .033996583 .21525574 .033996583 .09013367 .13398743-.0107421879 .25299073-.0107421879 .32598878-.0107421879 .37098695 .03224182 .3889923 .053115846V-.0107421879L.5399933 0M.3889923 .12011719C.3889923 .10211182 .3889923 .099121097 .37399293 .078125 .34298707 .033218385 .29699708 .014251709 .25698854 .014251709 .21398926 .014251709 .17399597 .038208009 .147995 .0801239 .12199402 .12312317 .11999512 .18218994 .11999512 .21421814 .11999512 .26127626 .12599182 .3143463 .1519928 .35438539 .17399597 .38638307 .21499634 .41737367 .2679901 .41737367 .30999757 .41737367 .34999085 .39637757 .3769989 .35839845 .3889923 .3423767 .3889923 .34136964 .3889923 .32235719V.12011719Z"/>
<path id="font_13_44" d="M.19599915 .3766632C.19599915 .406662 .17199707 .43066407 .14199829 .43066407 .11199951 .43066407 .08799744 .406662 .08799744 .3766632 .08799744 .34765626 .11199951 .32266236 .14199829 .32266236 .17199707 .32266236 .19599915 .34765626 .19599915 .3766632M.19599915 .053985597C.19599915 .08299255 .17199707 .10798645 .14199829 .10798645 .11199951 .10798645 .08799744 .08299255 .08799744 .053985597 .08799744 .023986817 .11199951 0 .14199829 0 .17199707 0 .19599915 .023986817 .19599915 .053985597Z"/>
<path id="font_13_43" d="M.4269867 .11936951C.4269867 .13139344 .41600038 .13139344 .41299439 .13139344 .4019928 .13139344 .4019928 .12937927 .3959961 .11236572 .37298585 .043289186 .31698609 .01725769 .2659912 .01725769 .20199585 .01725769 .11999512 .06932068 .11999512 .21749878 .11999512 .3735962 .19999695 .42022706 .2599945 .42022706 .272995 .42022706 .32699586 .41825868 .3639984 .39356996 .34298707 .3895874 .32299806 .3755951 .32299806 .34658814 .32299806 .32058717 .34298707 .30059815 .36898805 .30059815 .394989 .30059815 .41600038 .31759645 .41600038 .34858705 .41600038 .4103546 .34599305 .4482422 .2579956 .4482422 .12998963 .4482422 .033996583 .3415985 .033996583 .2164917 .033996583 .08734131 .13798523-.0107421879 .2559967-.0107421879 .394989-.0107421879 .4269867 .11036682 .4269867 .11936951Z"/>
<path id="font_13_81" d="M.48399354 .21324158C.48399354 .34423829 .37998963 .4482422 .25698854 .4482422 .12998963 .4482422 .0289917 .3412323 .0289917 .21324158 .0289917 .08824158 .1329956-.0107421879 .2559967-.0107421879 .3829956-.0107421879 .48399354 .09024048 .48399354 .21324158M.397995 .22224427C.397995 .1852417 .397995 .12724304 .37298585 .08325195 .34498597 .037246705 .29899598 .01725769 .25698854 .01725769 .20698548 .01725769 .16499329 .042251588 .14199829 .08125305 .115997318 .12324524 .114990238 .17623902 .114990238 .22224427 .114990238 .25924684 .114990238 .3162384 .13999939 .35723878 .16999817 .40823365 .21998596 .42323304 .2559967 .42323304 .31298829 .42323304 .35398866 .39123536 .37399293 .35723878 .39698792 .31523133 .397995 .26423646 .397995 .22224427Z"/>
<path id="font_13_77" d="M.5469971 0V.0309906C.49598695 .03125 .47099305 .03125 .46998597 .0622406V.25431825C.46998597 .3373413 .46998597 .36636354 .44198609 .4013672 .4189911 .42938233 .3809967 .4423828 .33099366 .4423828 .23799134 .4423828 .19499207 .37335206 .18099976 .34535218H.17999268V.4423828L.034988405 .43066407V.3996582C.102996829 .3996582 .11199951 .39266969 .11199951 .34370423V.07695007C.11199951 .0309906 .100997928 .0309906 .034988405 .0309906V0C.08198547 .0019989014 .100997928 .0029907227 .14898682 .0029907227 .19699097 .0029907227 .20999146 .0019989014 .2630005 0V.0309906C.19699097 .0309906 .18598938 .0309906 .18598938 .07695007V.25878907C.18598938 .36532594 .26098634 .41737367 .32398988 .41737367 .3829956 .41737367 .3959961 .3683319 .3959961 .30825807V.077041629C.3959961 .0309906 .3849945 .0309906 .31900025 .0309906V0C.3659973 .0019989014 .3849945 .0029907227 .43299867 .0029907227 .48098756 .0029907227 .49398805 .0019989014 .5469971 0Z"/>
<path id="font_13_105" d="M.34199525 .12408447V.18099976H.31399537V.1270752C.31399537 .05319214 .2829895 .01725769 .24699402 .01725769 .17999268 .01725769 .17999268 .1051178 .17999268 .12309265V.3996582H.32499696V.43066407H.17999268V.6142578H.1519928C.15098572 .5304413 .115997318 .42765809 .018997193 .4246521V.3996582H.10598755V.12408447C.10598755 .012252808 .18699646-.0107421879 .23999024-.0107421879 .30699159-.011001587 .34199525 .052993776 .34199525 .12399292V.12408447Z"/>
<path id="font_14_1" d="M.8509979 .22944641C.7319946 .14404297 .70799258 .012786865 .70799258 .0017852783 .70799258-.012207031 .72099307-.012207031 .72898867-.012207031 .7409973-.012207031 .7480011-.012207031 .7509918 .00079345706 .7779999 .118927 .8470001 .19729615 .95599368 .23745728 .96199038 .23945618 .9700012 .2424469 .9700012 .25045777 .9700012 .25946046 .96299746 .26245118 .95700076 .26445008 .83099368 .31137086 .7739868 .400177 .7509918 .4981537 .7480011 .512146 .74398806 .5131531 .72898867 .5131531 .7200012 .5131531 .70799258 .5131531 .70799258 .4991455 .70799258 .48814393 .7319946 .3562622 .8509979 .27246095H.09399414C.07699585 .27246095 .056991579 .27246095 .056991579 .25144959 .056991579 .22944641 .07598877 .22944641 .09399414 .22944641H.8509979Z"/>
<path id="font_13_500" d="M.21199036 .58833315C.21199036 .6523285 .18598938 .69433596 .14399719 .69433596 .10899353 .69433596 .08999634 .6673279 .08999634 .6403351 .08999634 .613327 .10899353 .5863342 .14399719 .5863342 .15699768 .5863342 .16999817 .59033206 .18099976 .5993347 .18299866 .6013336 .18499756 .60232546 .18499756 .60232546 .18499756 .60232546 .18699646 .59632876 .18699646 .58732607 .18699646 .5214081 .15699768 .46046449 .10899353 .41552735 .10699463 .41352845 .10398865 .41052247 .10398865 .40553285 .10398865 .4005432 .10998535 .3935547 .116989139 .3935547 .1269989 .3935547 .21199036 .46846009 .21199036 .58833315M.4119873 .58833315C.4119873 .6523285 .38598634 .69433596 .34399415 .69433596 .30899049 .69433596 .2899933 .6673279 .2899933 .6403351 .2899933 .613327 .30899049 .5863342 .34399415 .5863342 .35699464 .5863342 .36999513 .59033206 .3809967 .5993347 .3829956 .6013336 .3849945 .60232546 .3849945 .60232546 .3849945 .60232546 .3869934 .59632876 .3869934 .58732607 .3869934 .5214081 .35699464 .46046449 .30899049 .41552735 .30699159 .41352845 .3039856 .41052247 .3039856 .40553285 .3039856 .4005432 .30999757 .3935547 .31698609 .3935547 .32699586 .3935547 .4119873 .46846009 .4119873 .58833315Z"/>
<path id="font_13_96" d="M.37298585 .3798828C.37298585 .41236878 .34298707 .4423828 .2979889 .4423828 .23799134 .4423828 .19599915 .40037538 .17298889 .33787538H.17199707V.4423828L.02999878 .43066407V.3996582C.09799194 .3996582 .10699463 .3927307 .10699463 .34387208V.07698059C.10699463 .0309906 .09599304 .0309906 .02999878 .0309906V0C.08299255 .0019989014 .09599304 .0029907227 .14698792 .0029907227L.27398683 0V.0309906H.2539978C.18099976 .0309906 .17799378 .041992189 .17799378 .07897949V.22891236C.17799378 .26989747 .18899536 .4166565 .30299378 .4166565V.4156494C.30099488 .4146576 .2849884 .40264894 .2849884 .37887574 .2849884 .35186769 .30599977 .33486939 .32899476 .33486939 .34999085 .33486939 .37298585 .34986878 .37298585 .3798828Z"/>
<path id="font_13_84" d="M.5359955 .21557617C.5359955 .34158326 .43798829 .4423828 .31999208 .4423828 .2659912 .4423828 .21598816 .42037965 .17799378 .37858583V.4423828L.02999878 .43066407V.3996582C.100997928 .3996582 .10699463 .39363099 .10699463 .35058595V-.116989139C.10699463-.16308594 .09599304-.16308594 .02999878-.16308594V-.1940918C.07699585-.1920929 .09599304-.19110108 .14399719-.19110108 .19198609-.19110108 .20498657-.1920929 .2579956-.1940918V-.16308594C.19198609-.16308594 .18099976-.16308594 .18099976-.116989139V.048187257C.20698548 .022232056 .24099732-.0107421879 .30699159-.0107421879 .42599488-.0107421879 .5359955 .085113529 .5359955 .21585083V.21557617M.44999696 .21585083C.44999696 .1020813 .38198854 .014251709 .30099488 .014251709 .2559967 .014251709 .21798706 .04019165 .19400025 .07513428 .18099976 .09509277 .18099976 .097091678 .18099976 .11604309V.3356018C.21499634 .39437867 .269989 .41436769 .31199647 .41436769 .3899994 .41436769 .44999696 .32437135 .44999696 .21636963V.21585083Z"/>
<path id="font_13_98" d="M.36999513 .12831116C.36999513 .17330933 .34999085 .20030213 .32798768 .22329712 .2939911 .25628663 .2579956 .26327516 .18399048 .2772827 .1579895 .28227235 .084991458 .29527284 .084991458 .35224916 .084991458 .38424684 .10798645 .426239 .19898987 .426239 .30699159 .426239 .31399537 .34326173 .31599427 .31826783 .31698609 .3062744 .31698609 .3002777 .32998658 .3002777 .34399415 .3002777 .34399415 .30726625 .34399415 .32626344V.4222412C.34399415 .4392395 .34399415 .4482422 .33198548 .4482422 .32699586 .4482422 .32499696 .4482422 .31199647 .43623353 .30999757 .43423463 .30099488 .42523194 .29499818 .4202423 .2639923 .44223023 .23298645 .4482422 .19898987 .4482422 .066986087 .4482422 .033996583 .37524415 .033996583 .32426454 .033996583 .29226686 .04798889 .26628114 .070999149 .24429322 .10499573 .21330261 .14299011 .20629883 .19400025 .19729615 .24499512 .18730164 .2619934 .18431092 .28399659 .16731262 .2939911 .15931702 .31900025 .14031983 .31900025 .10229492 .31900025 .014251709 .21798706 .014251709 .20399475 .014251709 .101989749 .014251709 .07598877 .0993042 .06399536 .15332031 .06098938 .16331482 .05999756 .16931153 .04798889 .16931153 .033996583 .16931153 .033996583 .16131592 .033996583 .14331055V.01524353C.033996583-.0017547608 .033996583-.0107421879 .04598999-.0107421879 .051986696-.0107421879 .052993776-.009750366 .070999149 .009246826 .07499695 .01524353 .085998538 .028259278 .09098816 .03326416 .1329956-.007751465 .1789856-.0107421879 .20399475-.0107421879 .32699586-.0107421879 .36999513 .061279298 .36999513 .12831116Z"/>
<path id="font_13_63" d="M.5469971 0V.0309906C.49598695 .03125 .47099305 .03125 .46998597 .0622406V.25431825C.46998597 .3373413 .46998597 .36636354 .44198609 .4013672 .4189911 .42938233 .3809967 .4423828 .33099366 .4423828 .2639923 .4423828 .21499634 .40737916 .18399048 .35134889H.18299866V.69433596L.034988405 .6826172V.6516113C.102996829 .6516113 .11199951 .64463809 .11199951 .59580996V.077041629C.11199951 .0309906 .100997928 .0309906 .034988405 .0309906V0C.08198547 .0019989014 .100997928 .0029907227 .14898682 .0029907227 .19699097 .0029907227 .20999146 .0019989014 .2630005 0V.0309906C.19699097 .0309906 .18598938 .0309906 .18598938 .077041629V.2592163C.18598938 .36532594 .26098634 .41737367 .32398988 .41737367 .3829956 .41737367 .3959961 .3683319 .3959961 .30825807V.077041629C.3959961 .0309906 .3849945 .0309906 .31900025 .0309906V0C.3659973 .0019989014 .3849945 .0029907227 .43299867 .0029907227 .48098756 .0029907227 .49398805 .0019989014 .5469971 0Z"/>
<path id="font_13_72" d="M.26098634 0V.0309906C.19499207 .0309906 .18399048 .0309906 .18399048 .07701111V.69433596L.035995485 .6826172V.6516113C.10398865 .6516113 .11299133 .64460757 .11299133 .5956421V.07696533C.11299133 .0309906 .101989749 .0309906 .035995485 .0309906V0C.08299255 .0019989014 .101989749 .0029907227 .147995 .0029907227 .19499207 .0029907227 .21199036 .0019989014 .26098634 0Z"/>
<path id="font_13_118" d="M.519989 .3996582V.43066407C.48799134 .42765809 .45700074 .42765809 .44400025 .42765809 .41600038 .42765809 .3849945 .4286499 .35699464 .43066407V.3996582C.40299989 .3976593 .40299989 .36167909 .40299989 .35768128 .40299989 .3466797 .39898683 .33668519 .394989 .32868959L.2939911 .090789798 .18199158 .3526764C.17599488 .3666687 .17599488 .3736725 .17599488 .3736725 .17599488 .3996582 .20999146 .3996582 .23098755 .3996582V.43066407L.11999512 .42765809C.116989139 .42765809 .05999756 .42765809 .020996094 .43066407V.3996582C.06599426 .3996582 .084991458 .3976593 .09700012 .3706665L.25498963-.00016784668 .22999573-.059143068C.20799256-.11212158 .1789856-.18008423 .11399841-.18008423 .08898926-.18008423 .07199097-.167099 .068984989-.16508484 .07699585-.16407776 .10499573-.1560669 .10499573-.12205505 .10499573-.09605408 .085998538-.080062869 .06298828-.080062869 .037994386-.080062869 .019989014-.09605408 .019989014-.123046878 .019989014-.16807556 .06199646-.20507813 .11399841-.20507813 .1789856-.20507813 .22200012-.14706421 .24598694-.092056278L.4269867 .33068849C.43798829 .3566742 .45599366 .3976593 .519989 .3996582Z"/>
<path id="font_13_109" d="M.5469971 .00024414063V.03125C.47898866 .03125 .46998597 .038253786 .46998597 .087265018V.4423828L.31900025 .43138124V.40037538C.3869934 .40037538 .3959961 .39337159 .3959961 .34436036V.16729737C.3959961 .07826233 .34599305 .014251709 .27398683 .014251709 .19099427 .014251709 .18598938 .057266237 .18598938 .11128235V.4423828L.034988405 .43138124V.40037538C.11199951 .40037538 .11199951 .39736939 .11199951 .3083496V.15829468C.11199951 .09327698 .11199951 .051254274 .1579895 .01625061 .18699646-.003753662 .22799683-.0107421879 .2679901-.0107421879 .31999208-.0107421879 .36898805 .012252808 .397995 .072265628H.39898683V-.0107421879L.5469971 .00024414063Z"/>
</defs>
<use data-text="P" xlink:href="#font_1_83" transform="matrix(9.96264,0,0,-9.96264,14.283649,19.400769)"/>
<use data-text="a" xlink:href="#font_1_28" transform="matrix(9.96264,0,0,-9.96264,21.805443,19.400769)"/>
<use data-text="r" xlink:href="#font_1_96" transform="matrix(9.96264,0,0,-9.96264,27.374558,19.400769)"/>
<use data-text="a" xlink:href="#font_1_28" transform="matrix(9.96264,0,0,-9.96264,32.096849,19.400769)"/>
<use data-text="l" xlink:href="#font_1_72" transform="matrix(9.96264,0,0,-9.96264,37.665967,19.400769)"/>
<use data-text="l" xlink:href="#font_1_72" transform="matrix(9.96264,0,0,-9.96264,40.844049,19.400769)"/>
<use data-text="e" xlink:href="#font_1_50" transform="matrix(9.96264,0,0,-9.96264,44.02213,19.400769)"/>
<use data-text="l" xlink:href="#font_1_72" transform="matrix(9.96264,0,0,-9.96264,49.27244,19.400769)"/>
<use data-text="t" xlink:href="#font_1_105" transform="matrix(9.96264,0,0,-9.96264,56.256254,19.400769)"/>
<use data-text="r" xlink:href="#font_1_96" transform="matrix(9.96264,0,0,-9.96264,60.709554,19.400769)"/>
<use data-text="a" xlink:href="#font_1_28" transform="matrix(9.96264,0,0,-9.96264,65.43184,19.400769)"/>
<use data-text="n" xlink:href="#font_1_77" transform="matrix(9.96264,0,0,-9.96264,71.00096,19.400769)"/>
<use data-text="s" xlink:href="#font_1_98" transform="matrix(9.96264,0,0,-9.96264,77.36708,19.400769)"/>
<use data-text="p" xlink:href="#font_1_84" transform="matrix(9.96264,0,0,-9.96264,81.89012,19.400769)"/>
<use data-text="o" xlink:href="#font_1_81" transform="matrix(9.96264,0,0,-9.96264,88.57506,19.400769)"/>
<use data-text="r" xlink:href="#font_1_96" transform="matrix(9.96264,0,0,-9.96264,94.30357,19.400769)"/>
<use data-text="t" xlink:href="#font_1_105" transform="matrix(9.96264,0,0,-9.96264,99.02586,19.400769)"/>
<use data-text="o" xlink:href="#font_1_81" transform="matrix(9.96264,0,0,-9.96264,107.294849,19.400769)"/>
<use data-text="n" xlink:href="#font_1_77" transform="matrix(9.96264,0,0,-9.96264,113.02336,19.400769)"/>
<use data-text="S" xlink:href="#font_2_1" transform="matrix(9.96264,0,0,-9.96264,123.205219,19.400769)"/>
<use data-text="2" xlink:href="#font_3_4" transform="matrix(6.973848,0,0,-6.973848,129.88849,15.785407)"/>
<path transform="matrix(1,0,0,-1,74.32151,87.17929)" d="M48.18947 0C48.18947 26.61464 26.61464 48.18947 0 48.18947-26.61464 48.18947-48.18947 26.61464-48.18947 0-48.18947-26.61464-26.61464-48.18947 0-48.18947 26.61464-48.18947 48.18947-26.61464 48.18947 0ZM0 0" fill="#f5f5f5"/>
<path transform="matrix(1,0,0,-1,74.32151,87.17929)" stroke-width="1.19553" stroke-linecap="butt" stroke-miterlimit="10" stroke-linejoin="miter" fill="none" stroke="#404040" d="M48.18947 0C48.18947 26.61464 26.61464 48.18947 0 48.18947-26.61464 48.18947-48.18947 26.61464-48.18947 0-48.18947-26.61464-26.61464-48.18947 0-48.18947 26.61464-48.18947 48.18947-26.61464 48.18947 0ZM0 0"/>
<path transform="matrix(1,0,0,-1,74.32151,87.17929)" stroke-width=".3985" stroke-linecap="butt" stroke-dasharray="2.98883,2.98883" stroke-miterlimit="10" stroke-linejoin="miter" fill="none" stroke="#cccccc" d="M48.18947 0C48.18947 6.26218 26.61464 11.33855 0 11.33855-26.61464 11.33855-48.18947 6.26218-48.18947 0-48.18947-6.26218-26.61464-11.33855 0-11.33855 26.61464-11.33855 48.18947-6.26218 48.18947 0ZM0 0"/>
<path transform="matrix(1,0,0,-1,74.32151,87.17929)" d="M1.4174 48.18947C1.4174 48.9723 .78282 49.60689 0 49.60689-.78282 49.60689-1.4174 48.9723-1.4174 48.18947-1.4174 47.40665-.78282 46.77205 0 46.77205 .78282 46.77205 1.4174 47.40665 1.4174 48.18947ZM0 48.18947"/>
<use data-text="N" xlink:href="#font_4_5" transform="matrix(6.973848,0,0,-6.973848,79.25874,34.902948)"/>
<path transform="matrix(1,0,0,-1,74.32151,87.17929)" stroke-width="1.19553" stroke-linecap="butt" stroke-miterlimit="10" stroke-linejoin="miter" fill="none" stroke="#86592d" d="M0 48.18947C26.61464 48.18947 48.18947 26.61464 48.18947 0"/>
<path transform="matrix(1,0,0,-1,74.32151,87.17929)" stroke-width="1.19553" stroke-linecap="butt" stroke-miterlimit="10" stroke-linejoin="miter" fill="none" stroke="#86592d" d="M48.18947 0C48.18947-6.26218 26.61464-11.33855 0-11.33855"/>
<path transform="matrix(1,0,0,-1,74.32151,87.17929)" stroke-width="1.19553" stroke-linecap="butt" stroke-miterlimit="10" stroke-linejoin="miter" fill="none" stroke="#86592d" d="M0-11.33855C0 11.33855 0 28.3468 0 48.18947"/>
<path transform="matrix(1,0,0,-1,74.32151,87.17929)" d="M0 48.18947C26.61464 48.18947 48.18947 26.61464 48.18947 0 48.18947-6.26218 26.61464-11.33855 0-11.33855 0 11.33855 0 28.3468 0 48.18947Z" fill="#ffe8d1" fill-opacity=".55"/>
<path transform="matrix(1,0,0,-1,74.32151,87.17929)" stroke-width="1.19553" stroke-linecap="butt" stroke-miterlimit="10" stroke-linejoin="miter" fill="none" stroke="#b30000" d="M0 48.18947 6.29053 43.99579"/>
<path transform="matrix(.832,.55469,.55469,-.832,80.61204,43.18349)" d="M5.30629 0C4.65466 .16344 1.79025 1.08963 0 2.09753V-2.09753C1.79025-1.08963 4.65466-.16344 5.30629 0Z" fill="#b30000"/>
<path transform="matrix(.832,.55469,.55469,-.832,80.61204,43.18349)" stroke-width="1.19553" stroke-linecap="butt" stroke-miterlimit="10" stroke-linejoin="miter" fill="none" stroke="#b30000" d="M5.30629 0C4.65466 .16344 1.79025 1.08963 0 2.09753V-2.09753C1.79025-1.08963 4.65466-.16344 5.30629 0Z"/>
<path transform="matrix(1,0,0,-1,74.32151,87.17929)" stroke-width="1.19553" stroke-linecap="butt" stroke-dasharray="2.98883,2.98883" stroke-miterlimit="10" stroke-linejoin="miter" fill="none" stroke="#ff8080" d="M0 48.18947-4.80457 42.6988"/>
<path transform="matrix(-.65848,.75253,.75253,.65848,69.51694,44.480474)" d="M5.30629 0C4.65466 .16344 1.79025 1.08963 0 2.09753V-2.09753C1.79025-1.08963 4.65466-.16344 5.30629 0Z" fill="#ff8080"/>
<path transform="matrix(-.65848,.75253,.75253,.65848,69.51694,44.480474)" stroke-width="1.19553" stroke-linecap="butt" stroke-miterlimit="10" stroke-linejoin="miter" fill="none" stroke="#ff8080" d="M5.30629 0C4.65466 .16344 1.79025 1.08963 0 2.09753V-2.09753C1.79025-1.08963 4.65466-.16344 5.30629 0Z"/>
<path transform="matrix(1,0,0,-1,74.32151,87.17929)" stroke-width=".79701" stroke-linecap="butt" stroke-miterlimit="10" stroke-linejoin="miter" fill="none" stroke="#b30000" d="M9.07117 41.10277C10.20923 42.79012 9.76404 45.08061 8.07669 46.21867 6.51317 47.27324 4.40521 46.977 3.19298 45.5323"/>
<use data-text="&#x2206;" xlink:href="#font_5_1" transform="matrix(4.98132,0,0,-4.98132,92.01471,44.487005)" fill="#b30000"/>
<use data-text="&#x03b8;" xlink:href="#font_6_1" transform="matrix(4.98132,0,0,-4.98132,97.48042,44.487005)" fill="#b30000"/>
<use data-text="=" xlink:href="#font_5_3" transform="matrix(4.98132,0,0,-4.98132,103.06329,44.487005)" fill="#b30000"/>
<use data-text="&#x03c0;" xlink:href="#font_6_3" transform="matrix(4.98132,0,0,-4.98132,110.220188,44.487005)" fill="#b30000"/>
<use data-text="/" xlink:href="#font_6_4" transform="matrix(4.98132,0,0,-4.98132,114.534008,44.487005)" fill="#b30000"/>
<use data-text="2" xlink:href="#font_5_2" transform="matrix(4.98132,0,0,-4.98132,118.20595,44.487005)" fill="#b30000"/>
<use data-text="&#x2207;" xlink:href="#font_7_1" transform="matrix(6.973848,0,0,-6.973848,54.31594,153.85855)"/>
<use data-text="X" xlink:href="#font_6_5" transform="matrix(4.98132,0,0,-4.98132,60.971574,154.86037)"/>
<use data-text="Y" xlink:href="#font_4_6" transform="matrix(6.973848,0,0,-6.973848,67.39548,153.85855)"/>
<use data-text="," xlink:href="#font_8_45" transform="matrix(6.973848,0,0,-6.973848,73.794467,153.85855)"/>
<use data-text="&#x0393;" xlink:href="#font_3_1" transform="matrix(6.973848,0,0,-6.973848,83.02086,153.85855)"/>
<use data-text="k" xlink:href="#font_6_8" transform="matrix(4.98132,0,0,-4.98132,87.94686,150.85204)"/>
<use data-text="i" xlink:href="#font_6_6" transform="matrix(4.98132,0,0,-4.98132,87.94686,155.85106)"/>
<use data-text="j" xlink:href="#font_6_7" transform="matrix(4.98132,0,0,-4.98132,90.601909,155.85106)"/>
<use data-text="G" xlink:href="#font_1_58" transform="matrix(9.96264,0,0,-9.96264,194.34449,18.788022)"/>
<use data-text="a" xlink:href="#font_1_28" transform="matrix(9.96264,0,0,-9.96264,203.35073,18.788022)"/>
<use data-text="u" xlink:href="#font_1_109" transform="matrix(9.96264,0,0,-9.96264,208.91983,18.788022)"/>
<use data-text="g" xlink:href="#font_1_59" transform="matrix(9.96264,0,0,-9.96264,215.28597,18.788022)"/>
<use data-text="e" xlink:href="#font_1_50" transform="matrix(9.96264,0,0,-9.96264,221.01448,18.788022)"/>
<use data-text="A" xlink:href="#font_1_27" transform="matrix(9.96264,0,0,-9.96264,230.08048,18.788022)"/>
<use data-text="B" xlink:href="#font_1_34" transform="matrix(9.96264,0,0,-9.96264,238.73802,18.788022)"/>
<use data-text="a" xlink:href="#font_1_28" transform="matrix(9.96264,0,0,-9.96264,250.70316,18.788022)"/>
<use data-text="n" xlink:href="#font_1_77" transform="matrix(9.96264,0,0,-9.96264,256.27229,18.788022)"/>
<use data-text="a" xlink:href="#font_1_28" transform="matrix(9.96264,0,0,-9.96264,262.6384,18.788022)"/>
<use data-text="l" xlink:href="#font_1_72" transform="matrix(9.96264,0,0,-9.96264,268.20753,18.788022)"/>
<use data-text="o" xlink:href="#font_1_81" transform="matrix(9.96264,0,0,-9.96264,271.3856,18.788022)"/>
<use data-text="g" xlink:href="#font_1_59" transform="matrix(9.96264,0,0,-9.96264,277.1141,18.788022)"/>
<use data-text="u" xlink:href="#font_1_109" transform="matrix(9.96264,0,0,-9.96264,282.84263,18.788022)"/>
<use data-text="e" xlink:href="#font_1_50" transform="matrix(9.96264,0,0,-9.96264,289.20875,18.788022)"/>
<path transform="matrix(1,0,0,-1,74.32151,87.17929)" stroke-width="1.19553" stroke-linecap="butt" stroke-miterlimit="10" stroke-linejoin="miter" fill="none" stroke="#0000b3" d="M212.60112 0C212.60112 23.48355 193.56447 42.5202 170.08092 42.5202 146.59735 42.5202 127.5607 23.48355 127.5607 0 127.5607-23.48355 146.59735-42.5202 170.08092-42.5202 193.56447-42.5202 212.60112-23.48355 212.60112 0ZM170.08092 0"/>
<path transform="matrix(-1,-0,0,1,252.17337,44.659093)" d="M5.30629 0C4.65466 .16344 1.79025 1.08963 0 2.09753V-2.09753C1.79025-1.08963 4.65466-.16344 5.30629 0Z" fill="#0000b3"/>
<path transform="matrix(-1,-0,0,1,252.17337,44.659093)" stroke-width="1.19553" stroke-linecap="butt" stroke-miterlimit="10" stroke-linejoin="miter" fill="none" stroke="#0000b3" d="M5.30629 0C4.65466 .16344 1.79025 1.08963 0 2.09753V-2.09753C1.79025-1.08963 4.65466-.16344 5.30629 0Z"/>
<path transform="matrix(1,0,0,-1,236.63254,129.69945)" d="M5.30629 0C4.65466 .16344 1.79025 1.08963 0 2.09753V-2.09753C1.79025-1.08963 4.65466-.16344 5.30629 0Z" fill="#0000b3"/>
<path transform="matrix(1,0,0,-1,236.63254,129.69945)" stroke-width="1.19553" stroke-linecap="butt" stroke-miterlimit="10" stroke-linejoin="miter" fill="none" stroke="#0000b3" d="M5.30629 0C4.65466 .16344 1.79025 1.08963 0 2.09753V-2.09753C1.79025-1.08963 4.65466-.16344 5.30629 0Z"/>
<path transform="matrix(1,0,0,-1,74.32151,87.17929)" d="M181.41947 0C181.41947 6.26218 176.3431 11.33855 170.08092 11.33855 163.81873 11.33855 158.74237 6.26218 158.74237 0 158.74237-6.26218 163.81873-11.33855 170.08092-11.33855 176.3431-11.33855 181.41947-6.26218 181.41947 0ZM170.08092 0" fill="#ffdfbf"/>
<path transform="matrix(1,0,0,-1,74.32151,87.17929)" stroke-width="1.19553" stroke-linecap="butt" stroke-miterlimit="10" stroke-linejoin="miter" fill="none" stroke="#b35900" d="M181.41947 0C181.41947 6.26218 176.3431 11.33855 170.08092 11.33855 163.81873 11.33855 158.74237 6.26218 158.74237 0 158.74237-6.26218 163.81873-11.33855 170.08092-11.33855 176.3431-11.33855 181.41947-6.26218 181.41947 0ZM170.08092 0"/>
<g clip-path="url(#clip_9)">
<rect transform="matrix(1,0,0,-1,0,183.85)" fill="url(#pattern_10)" x="233.06388" y="85.33217" width="22.677094" height="22.677094"/>
</g>
<path transform="matrix(1,0,0,-1,74.32151,87.17929)" d="M166.24109-3.37903H173.92073V3.37903H166.24109Z" fill="#ffffff"/>
<use data-text="&#x03a6;" xlink:href="#font_3_2" transform="matrix(6.973848,0,0,-6.973848,241.55887,89.56204)"/>
<path transform="matrix(1,0,0,-1,74.32151,87.17929)" stroke-width=".79701" stroke-linecap="butt" stroke-miterlimit="10" stroke-linejoin="miter" fill="none" stroke="#000080" d="M206.90459 21.2601 205.03229 24.50273"/>
<path transform="matrix(-.5,-.86601,-.86601,.5,279.3538,62.67657)" d="M4.53381 0C3.97704 .13808 1.52963 .92049 0 1.77196V-1.77196C1.52963-.92049 3.97704-.13808 4.53381 0Z" fill="#000080"/>
<path transform="matrix(-.5,-.86601,-.86601,.5,279.3538,62.67657)" stroke-width=".79701" stroke-linecap="butt" stroke-miterlimit="10" stroke-linejoin="miter" fill="none" stroke="#000080" d="M4.53381 0C3.97704 .13808 1.52963 .92049 0 1.77196V-1.77196C1.52963-.92049 3.97704-.13808 4.53381 0Z"/>
<path transform="matrix(1,0,0,-1,74.32151,87.17929)" stroke-width=".79701" stroke-linecap="butt" stroke-miterlimit="10" stroke-linejoin="miter" fill="none" stroke="#000080" d="M170.08092 42.5202H166.33629"/>
<path transform="matrix(-1,-0,0,1,240.6578,44.659093)" d="M4.53381 0C3.97704 .13808 1.52963 .92049 0 1.77196V-1.77196C1.52963-.92049 3.97704-.13808 4.53381 0Z" fill="#000080"/>
<path transform="matrix(-1,-0,0,1,240.6578,44.659093)" stroke-width=".79701" stroke-linecap="butt" stroke-miterlimit="10" stroke-linejoin="miter" fill="none" stroke="#000080" d="M4.53381 0C3.97704 .13808 1.52963 .92049 0 1.77196V-1.77196C1.52963-.92049 3.97704-.13808 4.53381 0Z"/>
<path transform="matrix(1,0,0,-1,74.32151,87.17929)" stroke-width=".79701" stroke-linecap="butt" stroke-miterlimit="10" stroke-linejoin="miter" fill="none" stroke="#000080" d="M133.25724 21.2601 131.38492 18.01744"/>
<path transform="matrix(-.5,.86601,.86601,.5,205.70642,69.161838)" d="M4.53381 0C3.97704 .13808 1.52963 .92049 0 1.77196V-1.77196C1.52963-.92049 3.97704-.13808 4.53381 0Z" fill="#000080"/>
<path transform="matrix(-.5,.86601,.86601,.5,205.70642,69.161838)" stroke-width=".79701" stroke-linecap="butt" stroke-miterlimit="10" stroke-linejoin="miter" fill="none" stroke="#000080" d="M4.53381 0C3.97704 .13808 1.52963 .92049 0 1.77196V-1.77196C1.52963-.92049 3.97704-.13808 4.53381 0Z"/>
<path transform="matrix(1,0,0,-1,74.32151,87.17929)" stroke-width=".79701" stroke-linecap="butt" stroke-miterlimit="10" stroke-linejoin="miter" fill="none" stroke="#000080" d="M133.25724-21.2601 135.12955-24.50273"/>
<path transform="matrix(.5,.86601,.86601,-.5,209.45105,111.68201)" d="M4.53381 0C3.97704 .13808 1.52963 .92049 0 1.77196V-1.77196C1.52963-.92049 3.97704-.13808 4.53381 0Z" fill="#000080"/>
<path transform="matrix(.5,.86601,.86601,-.5,209.45105,111.68201)" stroke-width=".79701" stroke-linecap="butt" stroke-miterlimit="10" stroke-linejoin="miter" fill="none" stroke="#000080" d="M4.53381 0C3.97704 .13808 1.52963 .92049 0 1.77196V-1.77196C1.52963-.92049 3.97704-.13808 4.53381 0Z"/>
<path transform="matrix(1,0,0,-1,74.32151,87.17929)" stroke-width=".79701" stroke-linecap="butt" stroke-miterlimit="10" stroke-linejoin="miter" fill="none" stroke="#000080" d="M170.08092-42.5202H173.82555"/>
<path transform="matrix(1,0,0,-1,248.14707,129.6995)" d="M4.53381 0C3.97704 .13808 1.52963 .92049 0 1.77196V-1.77196C1.52963-.92049 3.97704-.13808 4.53381 0Z" fill="#000080"/>
<path transform="matrix(1,0,0,-1,248.14707,129.6995)" stroke-width=".79701" stroke-linecap="butt" stroke-miterlimit="10" stroke-linejoin="miter" fill="none" stroke="#000080" d="M4.53381 0C3.97704 .13808 1.52963 .92049 0 1.77196V-1.77196C1.52963-.92049 3.97704-.13808 4.53381 0Z"/>
<path transform="matrix(1,0,0,-1,74.32151,87.17929)" stroke-width=".79701" stroke-linecap="butt" stroke-miterlimit="10" stroke-linejoin="miter" fill="none" stroke="#000080" d="M206.90459-21.2601 208.77692-18.01744"/>
<path transform="matrix(.5,-.86601,-.86601,-.5,283.09843,105.19675)" d="M4.53381 0C3.97704 .13808 1.52963 .92049 0 1.77196V-1.77196C1.52963-.92049 3.97704-.13808 4.53381 0Z" fill="#000080"/>
<path transform="matrix(.5,-.86601,-.86601,-.5,283.09843,105.19675)" stroke-width=".79701" stroke-linecap="butt" stroke-miterlimit="10" stroke-linejoin="miter" fill="none" stroke="#000080" d="M4.53381 0C3.97704 .13808 1.52963 .92049 0 1.77196V-1.77196C1.52963-.92049 3.97704-.13808 4.53381 0Z"/>
<use data-text="&#x03d5;" xlink:href="#font_4_1" transform="matrix(6.973848,0,0,-6.973848,296.11174,77.27292)"/>
<use data-text="=" xlink:href="#font_3_5" transform="matrix(6.973848,0,0,-6.973848,303.16984,77.27292)"/>
<use data-text="e" xlink:href="#font_4_7" transform="matrix(6.973848,0,0,-6.973848,313.0661,72.16588)"/>
<path transform="matrix(1,0,0,-1,293.79023,62.095)" stroke-width=".338711" stroke-linecap="butt" stroke-miterlimit="10" stroke-linejoin="miter" fill="none" stroke="#000000" d="M18.95884-13.43445H23.37288"/>
<use data-text="&#x210f;" xlink:href="#font_11_1" transform="matrix(6.973848,0,0,-6.973848,312.74906,82.51828)"/>
<use data-text="&#xfffd;" xlink:href="#font_12_1" transform="matrix(6.973848,0,0,-6.973848,318.3586,71.655078)"/>
<use data-text="A" xlink:href="#font_4_3" transform="matrix(6.973848,0,0,-6.973848,325.088,77.27292)"/>
<use data-text="d" xlink:href="#font_3_6" transform="matrix(6.973848,0,0,-6.973848,332.44013,77.27292)"/>
<use data-text="x" xlink:href="#font_4_10" transform="matrix(6.973848,0,0,-6.973848,336.8403,77.27292)"/>
<use data-text="=" xlink:href="#font_3_5" transform="matrix(6.973848,0,0,-6.973848,296.11174,97.996997)"/>
<use data-text="e" xlink:href="#font_4_7" transform="matrix(6.973848,0,0,-6.973848,305.69096,92.88995)"/>
<use data-text="&#x03a6;" xlink:href="#font_3_2" transform="matrix(6.973848,0,0,-6.973848,309.47093,92.88995)"/>
<path transform="matrix(1,0,0,-1,293.79023,82.81908)" stroke-width=".338711" stroke-linecap="butt" stroke-miterlimit="10" stroke-linejoin="miter" fill="none" stroke="#000000" d="M11.90073-13.43445H21.3677"/>
<use data-text="&#x210f;" xlink:href="#font_11_1" transform="matrix(6.973848,0,0,-6.973848,308.21745,103.242359)"/>
<use data-text="D" xlink:href="#font_4_4" transform="matrix(6.973848,0,0,-6.973848,215.2496,152.23572)"/>
<use data-text="&#x00b5;" xlink:href="#font_6_2" transform="matrix(4.98132,0,0,-4.98132,221.76369,153.23198)"/>
<use data-text="=" xlink:href="#font_3_5" transform="matrix(6.973848,0,0,-6.973848,228.76255,152.23572)"/>
<use data-text="&#x2202;" xlink:href="#font_4_2" transform="matrix(6.973848,0,0,-6.973848,237.14626,152.23572)"/>
<use data-text="&#x00b5;" xlink:href="#font_6_2" transform="matrix(4.98132,0,0,-4.98132,241.4008,153.23198)"/>
<use data-text="+" xlink:href="#font_3_3" transform="matrix(6.973848,0,0,-6.973848,247.94614,152.23572)"/>
<use data-text="i" xlink:href="#font_4_9" transform="matrix(6.973848,0,0,-6.973848,255.87628,152.23572)"/>
<use data-text="g" xlink:href="#font_4_8" transform="matrix(6.973848,0,0,-6.973848,258.69374,152.23572)"/>
<use data-text="A" xlink:href="#font_4_3" transform="matrix(6.973848,0,0,-6.973848,262.82225,152.23572)"/>
<use data-text="&#x00b5;" xlink:href="#font_6_2" transform="matrix(4.98132,0,0,-4.98132,268.82344,153.23198)"/>
<use data-text="S" xlink:href="#font_13_97" transform="matrix(8.966376,0,0,-8.966376,11.289829,170.72235)"/>
<use data-text="a" xlink:href="#font_13_28" transform="matrix(8.966376,0,0,-8.966376,16.40963,170.72235)"/>
<use data-text="m" xlink:href="#font_13_75" transform="matrix(8.966376,0,0,-8.966376,21.018347,170.72235)"/>
<use data-text="e" xlink:href="#font_13_50" transform="matrix(8.966376,0,0,-8.966376,28.693566,170.72235)"/>
<use data-text="i" xlink:href="#font_13_66" transform="matrix(8.966376,0,0,-8.966376,35.866666,170.72235)"/>
<use data-text="d" xlink:href="#font_13_47" transform="matrix(8.966376,0,0,-8.966376,38.43105,170.72235)"/>
<use data-text="e" xlink:href="#font_13_50" transform="matrix(8.966376,0,0,-8.966376,43.55085,170.72235)"/>
<use data-text="a" xlink:href="#font_13_28" transform="matrix(8.966376,0,0,-8.966376,47.648485,170.72235)"/>
<use data-text=":" xlink:href="#font_13_44" transform="matrix(8.966376,0,0,-8.966376,52.257204,170.72235)"/>
<use data-text="c" xlink:href="#font_13_43" transform="matrix(8.966376,0,0,-8.966376,58.91922,170.72235)"/>
<use data-text="o" xlink:href="#font_13_81" transform="matrix(8.966376,0,0,-8.966376,63.016855,170.72235)"/>
<use data-text="n" xlink:href="#font_13_77" transform="matrix(8.966376,0,0,-8.966376,67.62557,170.72235)"/>
<use data-text="n" xlink:href="#font_13_77" transform="matrix(8.966376,0,0,-8.966376,72.74538,170.72235)"/>
<use data-text="e" xlink:href="#font_13_50" transform="matrix(8.966376,0,0,-8.966376,77.86517,170.72235)"/>
<use data-text="c" xlink:href="#font_13_43" transform="matrix(8.966376,0,0,-8.966376,81.962818,170.72235)"/>
<use data-text="t" xlink:href="#font_13_105" transform="matrix(8.966376,0,0,-8.966376,86.06044,170.72235)"/>
<use data-text="i" xlink:href="#font_13_66" transform="matrix(8.966376,0,0,-8.966376,89.64699,170.72235)"/>
<use data-text="o" xlink:href="#font_13_81" transform="matrix(8.966376,0,0,-8.966376,92.21138,170.72235)"/>
<use data-text="n" xlink:href="#font_13_77" transform="matrix(8.966376,0,0,-8.966376,96.8201,170.72235)"/>
<use data-text="&#x2192;" xlink:href="#font_14_1" transform="matrix(8.966376,0,0,-8.966376,105.01837,170.72235)"/>
<use data-text="&#x201d;" xlink:href="#font_13_500" transform="matrix(8.966376,0,0,-8.966376,117.30922,170.72235)"/>
<use data-text="r" xlink:href="#font_13_96" transform="matrix(8.966376,0,0,-8.966376,121.66687,170.72235)"/>
<use data-text="o" xlink:href="#font_13_81" transform="matrix(8.966376,0,0,-8.966376,125.27136,170.72235)"/>
<use data-text="t" xlink:href="#font_13_105" transform="matrix(8.966376,0,0,-8.966376,129.88008,170.72235)"/>
<use data-text="a" xlink:href="#font_13_28" transform="matrix(8.966376,0,0,-8.966376,133.46663,170.72235)"/>
<use data-text="t" xlink:href="#font_13_105" transform="matrix(8.966376,0,0,-8.966376,138.07535,170.72235)"/>
<use data-text="i" xlink:href="#font_13_66" transform="matrix(8.966376,0,0,-8.966376,141.6619,170.72235)"/>
<use data-text="o" xlink:href="#font_13_81" transform="matrix(8.966376,0,0,-8.966376,144.22628,170.72235)"/>
<use data-text="n" xlink:href="#font_13_77" transform="matrix(8.966376,0,0,-8.966376,148.83499,170.72235)"/>
<use data-text="p" xlink:href="#font_13_84" transform="matrix(8.966376,0,0,-8.966376,157.03026,170.72235)"/>
<use data-text="e" xlink:href="#font_13_50" transform="matrix(8.966376,0,0,-8.966376,162.41008,170.72235)"/>
<use data-text="r" xlink:href="#font_13_96" transform="matrix(8.966376,0,0,-8.966376,166.50772,170.72235)"/>
<use data-text="s" xlink:href="#font_13_98" transform="matrix(8.966376,0,0,-8.966376,173.18767,170.72235)"/>
<use data-text="t" xlink:href="#font_13_105" transform="matrix(8.966376,0,0,-8.966376,176.81905,170.72235)"/>
<use data-text="e" xlink:href="#font_13_50" transform="matrix(8.966376,0,0,-8.966376,180.4056,170.72235)"/>
<use data-text="p" xlink:href="#font_13_84" transform="matrix(8.966376,0,0,-8.966376,184.50324,170.72235)"/>
<use data-text="&#x201d;" xlink:href="#font_13_500" transform="matrix(8.966376,0,0,-8.966376,189.62303,170.72235)"/>
<use data-text="&#x2192;" xlink:href="#font_14_1" transform="matrix(8.966376,0,0,-8.966376,197.05619,170.72235)"/>
<use data-text="h" xlink:href="#font_13_63" transform="matrix(8.966376,0,0,-8.966376,209.34703,170.72235)"/>
<use data-text="o" xlink:href="#font_13_81" transform="matrix(8.966376,0,0,-8.966376,214.46683,170.72235)"/>
<use data-text="l" xlink:href="#font_13_72" transform="matrix(8.966376,0,0,-8.966376,219.07555,170.72235)"/>
<use data-text="o" xlink:href="#font_13_81" transform="matrix(8.966376,0,0,-8.966376,221.63993,170.72235)"/>
<use data-text="n" xlink:href="#font_13_77" transform="matrix(8.966376,0,0,-8.966376,226.24864,170.72235)"/>
<use data-text="o" xlink:href="#font_13_81" transform="matrix(8.966376,0,0,-8.966376,231.36844,170.72235)"/>
<use data-text="m" xlink:href="#font_13_75" transform="matrix(8.966376,0,0,-8.966376,235.97716,170.72235)"/>
<use data-text="y" xlink:href="#font_13_118" transform="matrix(8.966376,0,0,-8.966376,243.40132,170.72235)"/>
<use data-text="a" xlink:href="#font_13_28" transform="matrix(8.966376,0,0,-8.966376,251.32759,170.72235)"/>
<use data-text="r" xlink:href="#font_13_96" transform="matrix(8.966376,0,0,-8.966376,255.93631,170.72235)"/>
<use data-text="o" xlink:href="#font_13_81" transform="matrix(8.966376,0,0,-8.966376,259.54078,170.72235)"/>
<use data-text="u" xlink:href="#font_13_109" transform="matrix(8.966376,0,0,-8.966376,264.1495,170.72235)"/>
<use data-text="n" xlink:href="#font_13_77" transform="matrix(8.966376,0,0,-8.966376,269.26933,170.72235)"/>
<use data-text="d" xlink:href="#font_13_47" transform="matrix(8.966376,0,0,-8.966376,274.38914,170.72235)"/>
<use data-text="a" xlink:href="#font_13_28" transform="matrix(8.966376,0,0,-8.966376,282.5844,170.72235)"/>
<use data-text="l" xlink:href="#font_13_72" transform="matrix(8.966376,0,0,-8.966376,290.2686,170.72235)"/>
<use data-text="o" xlink:href="#font_13_81" transform="matrix(8.966376,0,0,-8.966376,292.83299,170.72235)"/>
<use data-text="o" xlink:href="#font_13_81" transform="matrix(8.966376,0,0,-8.966376,297.7017,170.72235)"/>
<use data-text="p" xlink:href="#font_13_84" transform="matrix(8.966376,0,0,-8.966376,302.3104,170.72235)"/>
</svg>
