<svg xmlns="http://www.w3.org/2000/svg" xmlns:xlink="http://www.w3.org/1999/xlink" xmlns:inkscape="http://www.inkscape.org/namespaces/inkscape" version="1.1" width="413.59" height="210.12" viewBox="0 0 413.59 210.12">
<defs>
<path id="font_1_42" d="M.7659912 .22724915C.7659912 .24725342 .7589874 .2482605 .74198916 .2482605 .72898867 .2482605 .7200012 .2482605 .71899417 .23124695 .71199038 .09724426 .59098818 .036254884 .48999024 .036254884 .4119873 .036254884 .32798768 .060256959 .27598573 .12124634 .22898865 .17825318 .21699524 .25325013 .21699524 .34326173 .21699524 .39926148 .21998596 .5072632 .2829895 .57325747 .34799195 .63926699 .43499757 .6502533 .4869995 .6502533 .59498599 .6502533 .6899872 .5742645 .71199038 .44725038 .71499636 .42825318 .71598818 .42625428 .7389984 .42625428 .7649994 .42625428 .7659912 .42825318 .7659912 .45425416V.6692505C.7659912 .68826296 .7659912 .6972656 .7480011 .6972656 .7389984 .6972656 .7369995 .69525149 .72898867 .68826296L.6629944 .6292572C.6009979 .67926028 .5339966 .6972656 .46598817 .6972656 .21699524 .6972656 .06399536 .54826357 .06399536 .34326173 .06399536 .13824463 .21699524-.0107421879 .46598817-.0107421879 .6529999-.0107421879 .7659912 .11225891 .7659912 .22724915Z"/>
<path id="font_1_81" d="M.5419922 .21812439C.5419922 .35212709 .44999696 .453125 .2869873 .453125 .12298584 .453125 .03199768 .35112 .03199768 .21812439 .03199768 .09413147 .11999512-.005859375 .2869873-.005859375 .45498658-.005859375 .5419922 .09512329 .5419922 .21812439M.4139862 .22912598C.4139862 .14213562 .4139862 .03413391 .2869873 .03413391 .1599884 .03413391 .1599884 .14213562 .1599884 .22912598 .1599884 .27412416 .1599884 .32511903 .1769867 .3591156 .19599915 .39611817 .23799134 .41711427 .2869873 .41711427 .32899476 .41711427 .37098695 .40112306 .3929901 .36611939 .4139862 .3321228 .4139862 .27713014 .4139862 .22912598Z"/>
<path id="font_1_75" d="M.93499758 0V.04699707H.8659973V.30613709C.8659973 .40919496 .8149872 .4501953 .71199038 .4501953 .62098696 .4501953 .56900027 .40019227 .54299929 .3541565 .522995 .44718934 .43099977 .4501953 .3929901 .4501953 .30599977 .4501953 .24899292 .40518189 .21699524 .3421631V.4501953L.04499817 .4423828V.39537049C.10699463 .39537049 .11399841 .39537049 .11399841 .3563385V.04699707H.04499817V0L.17098999 .0029907227 .29699708 0V.04699707H.22799683V.2562256C.22799683 .3653412 .31498719 .41436769 .3769989 .41436769 .41099549 .41436769 .43299867 .39437867 .43299867 .31729127V.04699707H.3639984V0L.48999024 .0029907227 .6159973 0V.04699707H.5469971V.2562256C.5469971 .3653412 .6339874 .41436769 .69599917 .41436769 .7299957 .41436769 .7519989 .39437867 .7519989 .31729127V.04699707H.68299868V0L.8089905 .0029907227 .93499758 0Z"/>
<path id="font_1_84" d="M.59999087 .22319031C.59999087 .3561859 .5089874 .4501953 .36499024 .4501953 .2899933 .4501953 .23699951 .41918946 .21398926 .40118409V.4501953L.036987306 .4423828V.39537049C.09899902 .39537049 .10598755 .39537049 .10598755 .3573761V-.14648438H.036987306V-.1934967L.16299439-.19049073 .2889862-.1934967V-.14648438H.21998596V.03945923C.2630005 .004135132 .30699159-.005859375 .34799195-.005859375 .49798585-.005859375 .59999087 .08413696 .59999087 .22312927V.22319031M.47200013 .22312927C.47200013 .08213806 .4019928 .030136109 .33699037 .030136109 .32299806 .030136109 .27598573 .030136109 .23098755 .08413696 .21998596 .09713745 .21998596 .09812927 .21998596 .117126468V.32913209C.21998596 .34814454 .22099304 .3491516 .23498535 .36314393 .2749939 .4041443 .32699586 .41015626 .34899903 .41015626 .41600038 .41015626 .47200013 .3491516 .47200013 .22314453V.22312927Z"/>
<path id="font_1_72" d="M.29299928 0V.04699707H.22399903V.69433596L.04699707 .6855469V.63853457C.10899353 .63853457 .115997318 .63853457 .115997318 .5995636V.04699707H.04699707V0L.16999817 .0029907227 .29299928 0Z"/>
<path id="font_1_50" d="M.49398805 .11706543C.49398805 .13504029 .47499085 .13504029 .46998597 .13504029 .45298768 .13504029 .45098878 .13005066 .44499208 .11405945 .42399598 .066101077 .36698915 .03413391 .3019867 .03413391 .16099549 .03413391 .1599884 .16700745 .1599884 .2179718H.46199037C.48399354 .2179718 .49398805 .2179718 .49398805 .2449646 .49398805 .27598573 .48799134 .34906007 .43798829 .3991089 .40098573 .43511964 .34799195 .453125 .2789917 .453125 .11898804 .453125 .03199768 .35005189 .03199768 .22497559 .03199768 .09107971 .13198853-.005859375 .29299928-.005859375 .45098878-.005859375 .49398805 .10006714 .49398805 .11706543M.39898683 .25097657H.1599884C.1619873 .29000855 .16299439 .3320465 .18399048 .36506654 .20999146 .4051056 .25 .41711427 .2789917 .41711427 .3959961 .41711427 .397995 .28599549 .39898683 .25097657Z"/>
<path id="font_1_105" d="M.38198854 .124176029V.17721558H.33499146V.12619019C.33499146 .058151246 .30299378 .03413391 .2749939 .03413391 .21699524 .03413391 .21699524 .09817505 .21699524 .1211853V.3973236H.36299134V.44433595H.21699524V.6357422H.16999817C.16899109 .53552249 .11999512 .43632508 .020996094 .43333436V.3973236H.102996829V.123184207C.102996829 .01612854 .18998719-.005859375 .26098634-.005859375 .33699037-.005859375 .38198854 .05114746 .38198854 .124176029Z"/>
<path id="font_1_85" d="M.38198854-.23503113C.38198854-.23002625 .3789978-.22503662 .3789978-.22503662 .34999085-.19802857 .2849884-.13702393 .24299622-.009033203 .21699524 .06997681 .20498657 .16197205 .20498657 .24998474 .20498657 .4469757 .2559967 .60398867 .3659973 .7149811 .3809967 .72998049 .38198854 .73098757 .38198854 .73599246 .38198854 .74697878 .37199403 .75 .3639984 .75 .34700013 .75 .30499269 .7129822 .2869873 .6959839 .1309967 .5409851 .10798645 .35697938 .10798645 .25097657 .10798645 .12597656 .14099121 .015975953 .18798828-.06703186 .2539978-.18203736 .34498597-.24902344 .3639984-.24902344 .37199403-.24902344 .38198854-.24603272 .38198854-.23503113Z"/>
<path id="font_1_62" d="M.8600006 0V.04699707H.7519989V.63853457H.8600006V.6855469C.82199099 .6825409 .723999 .6825409 .68099978 .6825409 .6380005 .6825409 .5399933 .6825409 .5019989 .6855469V.63853457H.6100006V.3798828H.2889862V.63853457H.39698792V.6855469C.35899354 .6825409 .26098634 .6825409 .21798706 .6825409 .1749878 .6825409 .07699585 .6825409 .038986207 .6855469V.63853457H.14698792V.04699707H.038986207V0C.07699585 .0029907227 .1749878 .0029907227 .21798706 .0029907227 .26098634 .0029907227 .35899354 .0029907227 .39698792 0V.04699707H.2889862V.33287049H.6100006V.04699707H.5019989V0C.5399933 .0029907227 .6380005 .0029907227 .68099978 .0029907227 .723999 .0029907227 .82199099 .0029907227 .8600006 0Z"/>
<path id="font_1_66" d="M.28599549 0V.04699707H.22399903V.4501953L.049987794 .4423828V.39537049C.10899353 .39537049 .115997318 .39537049 .115997318 .3563385V.04699707H.04699707V0L.16899109 .0029907227 .28599549 0M.23799134 .60728457C.23799134 .6502838 .20298767 .6852875 .1599884 .6852875 .116989139 .6852875 .08198547 .6502838 .08198547 .60728457 .08198547 .5642853 .116989139 .5292969 .1599884 .5292969 .20298767 .5292969 .23799134 .5642853 .23799134 .60728457Z"/>
<path id="font_1_35" d="M.59999087 .22319031C.59999087 .3561859 .5059967 .4501953 .36099244 .4501953 .28799439 .4501953 .23799134 .42118836 .21398926 .40118409V.69433596L.036987306 .6863251V.639328C.09899902 .639328 .10598755 .639328 .10598755 .600296V.00018310547H.15299988C.16899109 .019180298 .18598938 .03718567 .20199585 .05618286 .20999146 .04814148 .25898744-.005859375 .34799195-.005859375 .49699403-.005859375 .59999087 .08413696 .59999087 .22315979V.22319031M.47200013 .22315979C.47200013 .17614746 .47200013 .12113953 .44599916 .08213806 .4169922 .041137697 .37098695 .030136109 .33898927 .030136109 .2689972 .030136109 .22999573 .08413696 .21998596 .09913635V.35017396C.24699402 .3851776 .29499818 .41418458 .34999085 .41418458 .47200013 .41418458 .47200013 .2931671 .47200013 .22315979Z"/>
<path id="font_1_96" d="M.44198609 .36819459C.44198609 .42118836 .3880005 .4501953 .33599855 .4501953 .2659912 .4501953 .22599793 .40019227 .20298767 .33718873V.4501953L.036987306 .4423828V.39537049C.09899902 .39537049 .10598755 .39537049 .10598755 .3563385V.04699707H.036987306V0L.16299439 .0029907227C.20098877 .0029907227 .2649994 .0029907227 .30099488 0V.04699707H.21398926V.22218323C.21398926 .29226686 .23899842 .41436769 .33898927 .41436769 .33898927 .41436769 .31999208 .39736939 .31999208 .36834718 .31999208 .32730104 .35198976 .3072815 .3809967 .3072815 .4099884 .3072815 .44198609 .3283081 .44198609 .36834718V.36819459Z"/>
<path id="font_1_86" d="M.33799745 .24998474C.33799745 .37498475 .30499269 .48498536 .2579956 .5679779 .19198609 .6829834 .100997928 .75 .08198547 .75 .07398987 .75 .06399536 .74697878 .06399536 .73599246 .06399536 .73098757 .06399536 .72898867 .08099365 .7129822 .20698548 .5849762 .24099732 .40797425 .24099732 .25097657 .24099732 .053970338 .18998719-.103027347 .07998657-.21403504 .06498718-.22903443 .06399536-.23002625 .06399536-.23503113 .06399536-.24603272 .07398987-.24902344 .08198547-.24902344 .09899902-.24902344 .14099121-.21203614 .15899658-.19502259 .31498719-.040023805 .33799745 .14398194 .33799745 .24998474Z"/>
<path id="font_2_2" d="M.24899292 .10601807C.23899842 .072021488 .20599365 .018234253 .15499878 .018234253 .1519928 .018234253 .12199402 .018234253 .100997928 .03215027 .14199829 .04508972 .14498902 .08100891 .14498902 .087020877 .14498902 .10900879 .12799073 .12402344 .10499573 .12402344 .07699585 .12402344 .04798889 .10002136 .04798889 .0630188 .04798889 .01322937 .10398865-.009765625 .15299988-.009765625 .19898987-.009765625 .23999024 .019226075 .2649994 .061019899 .2889862 .008224487 .34399415-.009765625 .38398744-.009765625 .49899293-.009765625 .55999758 .11502075 .55999758 .14305115 .55999758 .15608216 .5469971 .15608216 .5439911 .15608216 .5299988 .15608216 .5289917 .15107727 .5249939 .13905335 .5039978 .07002258 .44400025 .018234253 .3880005 .018234253 .34799195 .018234253 .32699586 .04508972 .32699586 .08302307 .32699586 .10900879 .35099793 .20018006 .3789978 .31140138 .39898683 .38841249 .44400025 .4133911 .47698976 .4133911 .47898866 .4133911 .5099945 .4133911 .5309906 .39941407 .49899293 .39041139 .4869995 .3624115 .4869995 .34440614 .4869995 .32240296 .5039978 .30740357 .5269928 .30740357 .5499878 .30740357 .58299258 .32640077 .58299258 .3684082 .58299258 .4243927 .5189972 .44140626 .47898866 .44140626 .42900086 .44140626 .3889923 .4084015 .36698915 .3704071 .34899903 .4113922 .30299378 .44140626 .24699402 .44140626 .1349945 .44140626 .070999149 .31840516 .070999149 .2883606 .070999149 .27534486 .084991458 .27534486 .08799744 .27534486 .100997928 .27534486 .101989749 .27934266 .10699463 .29237367 .13198853 .3704071 .19499207 .4133911 .24398804 .4133911 .2769928 .4133911 .3039856 .395401 .3039856 .3474121 .3039856 .32740785 .2919922 .27734376 .2829895 .24327088L.24899292 .10601807Z"/>
<path id="font_3_1" d="M.397995 .63591006C.397995 .6660156 .394989 .6660156 .3619995 .6660156 .29100038 .6016083 .17999268 .6016083 .1599884 .6016083H.14299011V.5576172H.1599884C.18299866 .5576172 .24798584 .5606079 .30599977 .58561709V.08596802C.30599977 .054977418 .30599977 .04399109 .19999695 .04399109H.1499939V0C.20498657 .0039978029 .2939911 .0039978029 .35198976 .0039978029 .4099884 .0039978029 .49899293 .0039978029 .55400088 0V.04399109H.5039978C.397995 .04399109 .397995 .054977418 .397995 .08596802V.63591006Z"/>
<path id="font_3_2" d="M.58898928 .19296265H.5469971C.5439911 .17396546 .5339966 .11198425 .5179901 .101989749 .5099945 .09599304 .42599488 .09599304 .41099549 .09599304H.21499634C.2809906 .14497376 .35499574 .20095825 .4149933 .24093628 .5049896 .30291749 .58898928 .36090089 .58898928 .46687318 .58898928 .59495547 .46798707 .6660156 .32499696 .6660156 .18998719 .6660156 .09098816 .58795168 .09098816 .48986817 .09098816 .4378662 .1349945 .42886354 .14898682 .42886354 .17599488 .42886354 .20799256 .4468689 .20799256 .48786927 .20799256 .52386477 .18199158 .543869 .15098572 .546875 .1789856 .59194949 .23699951 .6220093 .3039856 .6220093 .40098573 .6220093 .48199464 .5639038 .48199464 .4658661 .48199464 .3818817 .42399598 .31791688 .34700013 .2529297L.102996829 .04598999C.09298706 .036987306 .09199524 .036987306 .09098816 .02999878V0H.55599978L.58898928 .19296265Z"/>
<path id="font_3_3" d="M.32998658 .3310547C.42199708 .3310547 .48298646 .2737732 .48298646 .17437744 .48298646 .07237244 .41999818 .01852417 .33099366 .01852417 .31999208 .01852417 .20098877 .01852417 .1499939 .070373538 .19099427 .07637024 .20298767 .1073761 .20298767 .13137818 .20298767 .16838074 .1749878 .19238281 .14199829 .19238281 .10998535 .19238281 .07998657 .17137146 .07998657 .12937927 .07998657 .025512696 .19799805-.022460938 .33399964-.022460938 .49798585-.022460938 .59999087 .07637024 .59999087 .17337036 .59999087 .25567628 .5269928 .3260193 .41299439 .35205079 .5329895 .3909912 .5649872 .46684266 .5649872 .5228424 .5649872 .60491946 .46299745 .6660156 .33699037 .6660156 .21398926 .6660156 .114990238 .61395266 .114990238 .5238342 .114990238 .47683717 .15299988 .46484376 .17199707 .46484376 .20098877 .46484376 .22898865 .48583985 .22898865 .5218353 .22898865 .5448303 .21699524 .5728302 .18099976 .57884219 .22399903 .625 .31298829 .628006 .33399964 .628006 .40699769 .628006 .45899964 .5908661 .45899964 .5228424 .45899964 .46484376 .42099 .37402345 .31599427 .368042 .28799439 .3670349 .28399659 .3660431 .2579956 .365036 .24699402 .3640442 .23599243 .36305238 .23599243 .34805299 .23599243 .3310547 .24598694 .3310547 .2639923 .3310547H.32998658Z"/>
<path id="font_4_4" d="M.49198915 .40434266C.45498658 .39733888 .44400025 .3653412 .44400025 .3503418 .44400025 .33132936 .45799256 .31433106 .48298646 .31433106 .5109863 .31433106 .5379944 .33833314 .5379944 .3733368 .5379944 .41937257 .48799134 .4423828 .44099427 .4423828 .3809967 .4423828 .34599305 .38934327 .33399964 .3683319 .31498719 .41737367 .2709961 .4423828 .22299195 .4423828 .115997318 .4423828 .057998659 .31433106 .057998659 .28833009 .057998659 .2793274 .06498718 .2763214 .07199097 .2763214 .08099365 .2763214 .083999637 .2813263 .085998538 .287323 .116989139 .38633729 .18299866 .41737367 .22099304 .41737367 .25 .41737367 .27598573 .3983307 .27598573 .35133363 .27598573 .31533814 .23298645 .15530396 .21998596 .107284549 .21199036 .076293949 .18199158 .014251709 .1269989 .014251709 .10699463 .014251709 .085998538 .021270752 .07598877 .027282715 .102996829 .032287599 .12298584 .055282594 .12298584 .08128357 .12298584 .106292728 .10398865 .11729431 .084991458 .11729431 .055999757 .11729431 .02999878 .092285159 .02999878 .058288576 .02999878 .009246826 .083999637-.0107421879 .12599182-.0107421879 .18399048-.0107421879 .21798706 .03729248 .23298645 .06428528 .2579956-.0017547608 .31698609-.0107421879 .34399415-.0107421879 .45199586-.0107421879 .5089874 .11929321 .5089874 .14329529 .5089874 .14830017 .5059967 .15530396 .49598695 .15530396 .4850006 .15530396 .48399354 .1512909 .47898866 .1362915 .45700074 .06428528 .39898683 .014251709 .34700013 .014251709 .31799317 .014251709 .29100038 .032287599 .29100038 .08029175 .29100038 .10229492 .30499269 .15730286 .31399537 .1953125 .31799317 .21331787 .34498597 .32133485 .34700013 .32833863 .35899354 .3643341 .3889923 .41737367 .43998719 .41737367 .45799256 .41737367 .47698976 .41436769 .49198915 .40434266Z"/>
<path id="font_5_4" d="M.5609894 .22944641C.5779877 .22944641 .59799197 .22944641 .59799197 .25045777 .59799197 .27246095 .57899478 .27246095 .5609894 .27246095H.12998963C.13999939 .3961029 .24798584 .50878909 .40299989 .50878909H.5609894C.5779877 .50878909 .59799197 .50878909 .59799197 .52978518 .59799197 .55178835 .57899478 .55178835 .5609894 .55178835H.3999939C.22399903 .55178835 .085998538 .41404725 .085998538 .25144959 .085998538 .08428955 .22599793-.050827028 .3999939-.050827028H.5609894C.5779877-.050827028 .59799197-.050827028 .59799197-.029815674 .59799197-.0078125 .57899478-.0078125 .5609894-.0078125H.40299989C.24699402-.0078125 .13999939 .10531616 .12998963 .22944641H.5609894Z"/>
<path id="font_5_6" d="M.34199525 .33467103C.35598756 .38464356 .36799623 .43563844 .37799073 .4866333 .3919983 .5656128 .3959961 .61961367 .3959961 .6246033 .3959961 .6476135 .3849945 .6826172 .32699586 .6826172 .1309967 .6826172 .021987915 .518631 .021987915 .4946289 .021987915 .48963929 .025985718 .48764039 .0309906 .48764039 .038986207 .48764039 .057998659 .49363709 .07598877 .5046234 .09899902 .5196228 .101989749 .52563479 .11199951 .5426178 .13999939 .59461978 .17298889 .6266022 .25898744 .6266022 .30299378 .6266022 .30899049 .59461978 .30899049 .5806122 .30899049 .57962039 .30899049 .5096283 .2659912 .33467103H.22399903C.19898987 .33067323 .15299988 .3007202 .15299988 .28573609 .15299988 .27975465 .1539917 .27874757 .1769867 .27874757H.25C.22799683 .19587708 .18699646 .0740509 .1539917-.010864258 .1459961-.030853272 .1459961-.032852174 .1459961-.033859254 .1459961-.039855958 .1519928-.040863038 .1559906-.040863038 .16899109-.040863038 .19599915-.02986145 .21899414-.009857178 .22799683-.0018615723 .23098755 .005142212 .23199463 .006134033 .2519989 .05506897 .30499269 .20185852 .32499696 .27874757H.5569916C.56999209 .27874757 .58699038 .27874757 .6049957 .2897339 .58299258 .20684815 .57299807 .15692139 .57099917 .14494324 .5589905 .08103943 .5529938 .015136719 .5529938 .0071411135 .5529938-.020858765 .56999209-.049865724 .61499026-.049865724 .7489929-.049865724 .82699587 .032104494 .82699587 .0660553 .82699587 .0700531 .82499697 .0740509 .81700137 .0740509 .80400088 .0740509 .7429962 .05307007 .73599246 .012130737 .71899417 .009140015 .70098879 .006134033 .6839905 .006134033 .6539917 .006134033 .6399994 .02810669 .6399994 .051086427 .6399994 .062057496 .6459961 .11299133 .647995 .12097168 .6719971 .2967224 .74398806 .5116272 .7999878 .65960696 .8049927 .6716156 .8049927 .6736145 .8049927 .6756134 .8049927 .6826172 .798996 .6826172 .79499819 .6826172 .7809906 .6826172 .7519989 .6686096 .7350006 .65460208 .7220001 .64260867 .72099307 .64060977 .70799258 .60661318 .67099 .5066376 .6409912 .4156494 .6179962 .33467103H.34199525Z"/>
<path id="font_6_2" d="M.29299928 .3463745C.28799439 .4223938 .21798706 .44140626 .17999268 .44140626 .14199829 .44140626 .115997318 .418396 .09799194 .38638307 .07299805 .34536744 .06098938 .29234315 .06098938 .28834535 .06098938 .27734376 .069992069 .27334596 .07899475 .27334596 .09498596 .27334596 .09599304 .28034974 .100997928 .2963562 .12098694 .37638856 .14498902 .4084015 .1769867 .4084015 .21299744 .4084015 .21299744 .36738587 .21299744 .3573761 .21299744 .34136964 .20298767 .30134584 .19599915 .27334596 .18899536 .24632263 .1789856 .205307 .17399597 .18330384 .16699219 .15829468 .16099549 .13227844 .1539917 .10726929 .14698792 .07925415 .1349945 .02923584 .1349945 .023223877 .1349945 .0012207031 .1519928-.009765625 .16999817-.009765625 .18798828-.009765625 .20498657 .0022277833 .21299744 .017227173 .21499634 .023223877 .22399903 .058242799 .22898865 .07824707L.25099183 .16828919C.2579956 .19430542 .2619934 .21231079 .2679901 .23532105 .2769928 .2693329 .31199647 .32235719 .34899903 .359375 .36898805 .37838746 .4119873 .4084015 .46598817 .4084015 .5299988 .4084015 .5299988 .3573761 .5299988 .33836366 .5299988 .27934266 .4869995 .17228699 .46899415 .12727356 .46299745 .11026001 .45599366 .09425354 .45599366 .07725525 .45599366 .026229859 .5019989-.009765625 .5569916-.009765625 .6579895-.009765625 .70799258 .12226868 .70799258 .14428711 .70799258 .14628601 .70700076 .15829468 .68899539 .15829468 .6749878 .15829468 .673996 .1532898 .66799929 .13427735 .6519928 .08125305 .61099246 .023223877 .55999758 .023223877 .54100039 .023223877 .5329895 .038238527 .5329895 .059249879 .5329895 .07925415 .5399933 .09625244 .548996 .117263797 .56399539 .15628052 .60899356 .2693329 .60899356 .32536317 .60899356 .4073944 .5469971 .44140626 .47099305 .44140626 .42099 .44140626 .35699464 .42539979 .29299928 .3463745Z"/>
<path id="font_5_2" d="M.8509979 .22944641C.7319946 .14404297 .70799258 .012786865 .70799258 .0017852783 .70799258-.012207031 .72099307-.012207031 .72898867-.012207031 .7409973-.012207031 .7480011-.012207031 .7509918 .00079345706 .7779999 .118927 .8470001 .19729615 .95599368 .23745728 .96199038 .23945618 .9700012 .2424469 .9700012 .25045777 .9700012 .25946046 .96299746 .26245118 .95700076 .26445008 .83099368 .31137086 .7739868 .400177 .7509918 .4981537 .7480011 .512146 .74398806 .5131531 .72898867 .5131531 .7200012 .5131531 .70799258 .5131531 .70799258 .4991455 .70799258 .48814393 .7319946 .3562622 .8509979 .27246095H.09399414C.07699585 .27246095 .056991579 .27246095 .056991579 .25144959 .056991579 .22944641 .07598877 .22944641 .09399414 .22944641H.8509979Z"/>
<path id="font_7_1" d="M.33099366 .33467103C.34399415 .38165284 .35699464 .4326477 .36698915 .4806366 .3789978 .5476227 .38598634 .61460879 .38598634 .6266022 .38598634 .6826172 .33099366 .6826172 .31900025 .6826172 .24299622 .6826172 .1749878 .65460208 .12799073 .62260439 .04699707 .56762698 .020996094 .5006256 .020996094 .495636 .020996094 .4886322 .027999878 .4886322 .0309906 .4886322 .038986207 .4886322 .085998538 .5006256 .10699463 .53862 .13398743 .58961489 .16299439 .62760928 .25299073 .62760928 .2939911 .62760928 .30099488 .5996094 .30099488 .58361819 .30099488 .5826111 .2979889 .5356293 .28599549 .4666443 .2809906 .4386444 .27799989 .42063905 .25698854 .33467103H.22099304C.19299317 .33366395 .14698792 .30171205 .14698792 .2867279 .14698792 .28074647 .147995 .27973939 .16999817 .27973939H.24198914C.22099304 .20983887 .19299317 .113967899 .14698792-.007888794 .13798523-.030883789 .13798523-.03288269 .13798523-.03388977 .13798523-.040878297 .1459961-.040878297 .147995-.040878297 .1619873-.040878297 .19299317-.027877808 .21299744-.007888794 .21798706-.001876831 .21998596 .00012207031 .22399903 .010116577 .25898744 .09799194 .2889862 .18786621 .31498719 .27973939H.5399933C.5509949 .27973939 .56999209 .27973939 .58599856 .2897339 .57499697 .24778748 .5339966 .085006717 .5339966 .0061187746 .5339966-.022888184 .5509949-.04888916 .59399417-.04888916 .72698977-.04888916 .8009949 .034088136 .8009949 .06604004 .8009949 .072021488 .79599 .074020389 .79100039 .074020389 .7829895 .074020389 .7299957 .060043336 .71499636 .021102906 .71099856 .0131073 .70999148 .0121154789 .69099429 .009109497 .6799927 .0071105959 .6609955 .0061187746 .6599884 .0061187746 .6419983 .0061187746 .61898806 .018096924 .61898806 .049057008 .61898806 .061050416 .6259918 .1159668 .6289978 .13793946 .6459961 .2487793 .69499209 .4366455 .7809906 .6646118 .7839966 .6716156 .7839966 .6736145 .7839966 .6756134 .7839966 .6826172 .7779999 .6826172 .7739868 .6826172 .7589874 .6826172 .7299957 .6686096 .71099856 .6516113 .70999148 .6496124 .70399478 .64460757 .69999697 .63560488 .6599884 .5376282 .6289978 .4366455 .598999 .33467103H.33099366Z"/>
<path id="font_1_65" d="M.40299989 0V.04699707H.2889862V.63853457H.40299989V.6855469C.3619995 .6825409 .2639923 .6825409 .21798706 .6825409 .17199707 .6825409 .07398987 .6825409 .032989503 .6855469V.63853457H.14698792V.04699707H.032989503V0C.07398987 .0029907227 .17199707 .0029907227 .21798706 .0029907227 .2639923 .0029907227 .3619995 .0029907227 .40299989 0Z"/>
<path id="font_1_77" d="M.61499026 0V.04699707H.54599V.30613709C.54599 .41119386 .49198915 .4501953 .3919983 .4501953 .29599 .4501953 .24299622 .39318849 .21699524 .3421631V.4501953L.04499817 .4423828V.39537049C.10699463 .39537049 .11399841 .39537049 .11399841 .3563385V.04699707H.04499817V0L.17098999 .0029907227 .29699708 0V.04699707H.22799683V.2562256C.22799683 .3653412 .31399537 .41436769 .3769989 .41436769 .41099549 .41436769 .43199159 .39337159 .43199159 .31729127V.04699707H.36299134V0L.4889984 .0029907227 .61499026 0Z"/>
<path id="font_1_43" d="M.47799684 .117126468C.47799684 .13113404 .46398927 .13113404 .45399476 .13113404 .43598939 .13113404 .43499757 .12913513 .42999269 .11613464 .4039917 .053131105 .35598756 .03413391 .30499269 .03413391 .1659851 .03413391 .1659851 .18112183 .1659851 .22712708 .1659851 .28312684 .1659851 .41311646 .29499818 .41311646 .32998658 .41311646 .34700013 .41011048 .3600006 .40711976 .34199525 .39111329 .33999635 .3701172 .33999635 .3611145 .33999635 .3171234 .375 .29811097 .4019928 .29811097 .43299867 .29811097 .46499635 .3191223 .46499635 .3611145 .46499635 .44711305 .34899903 .453125 .29100038 .453125 .11199951 .45314027 .037994386 .33813478 .037994386 .22213745 .037994386 .08912659 .13198853-.005859375 .28599549-.005859375 .44799806-.005859375 .47799684 .11013794 .47799684 .117126468Z"/>
<path id="font_8_1" d="M.47799684-.008560181C.61898806 .020431519 .7449951 .13237 .7449951 .3422699 .7449951 .59413149 .56799319 .70410159 .3889923 .70410159 .20599365 .70410159 .032989503 .58914187 .032989503 .34326173 .032989503 .12937927 .16099549 .027435303 .2789917-.0035552979 .32398988-.10656738 .4229889-.17855835 .5469971-.17855835 .5970001-.17855835 .6519928-.16856385 .70399478-.14855957 .7220001-.14155579 .7319946-.13755799 .7319946-.12556458 .7319946-.11355591 .72299197-.107559207 .71499636-.107559207 .71299746-.107559207 .71199038-.107559207 .7049866-.109558109 .6769867-.11656189 .66600039-.11656189 .6499939-.11656189 .55799868-.11656189 .5009918-.058563234 .47799684-.008560181M.25099183 .6411133C.18998719 .57014468 .17399597 .45321656 .17399597 .34326173 .17399597 .24531555 .18598938 .12037659 .2519989 .042419435 .18299866 .06840515 .067993167 .14837647 .067993167 .3422699 .067993167 .54615786 .19198609 .6201172 .25 .6421051L.25099183 .6411133M.5279999 .6421051C.59498599 .61712649 .70999148 .5371704 .70999148 .34326173 .70999148 .13937378 .58599856 .06541443 .526001 .042419435 .58799746 .11538696 .60398867 .23233032 .60398867 .3422699 .60398867 .44021607 .59199526 .565155 .5269928 .6411133L.5279999 .6421051M.3889923 .016433716C.22698975 .016433716 .20899964 .22833252 .20899964 .3422699 .20899964 .46220399 .22898865 .6690979 .3889923 .6690979 .5509949 .6690979 .56900027 .45721437 .56900027 .34326173 .56900027 .22332764 .548996 .016433716 .3889923 .016433716M.32299806-.0135650639C.35099793-.018554688 .3880005-.018554688 .3889923-.018554688 .3939972-.018554688 .4149933-.018554688 .44299317-.015563965 .46998597-.078567508 .5169983-.11656189 .5669861-.13656616 .57699587-.14056397 .5779877-.14056397 .5779877-.14155579 .5779877-.14355469 .55999758-.14355469 .5469971-.14355469 .46199037-.14355469 .375-.1035614 .32299806-.0135650639Z"/>
<path id="font_2_1" d="M.5089874 .4123993C.5099945 .4163971 .5109863 .4223938 .5109863 .42739869 .5109863 .4333954 .5069885 .44140626 .49798585 .44140626 .48799134 .44140626 .44599916 .4073944 .42599488 .37538148 .41600038 .39538575 .3829956 .44140626 .31900025 .44140626 .19099427 .44140626 .06098938 .300354 .06098938 .15628052 .06098938 .059249879 .12599182-.009765625 .21199036-.009765625 .2689972-.009765625 .31599427 .026229859 .33799745 .04524231 .33699037 .042236329 .30599977-.08406067 .3019867-.101119998 .28799439-.15634156 .2869873-.15733338 .22499085-.15834046 .21299744-.15834046 .19898987-.15834046 .19898987-.18034363 .19898987-.18634033 .20399475-.19433594 .21398926-.19433594 .24699402-.19433594 .28399659-.19033814 .31799317-.19033814 .35198976-.19033814 .3939972-.19433594 .4249878-.19433594 .43399049-.19433594 .44499208-.19134522 .44499208-.17234802 .44499208-.15834046 .43099977-.15834046 .4189911-.15834046 .39698792-.15834046 .36999513-.15834046 .36999513-.14630127 .36999513-.14328003 .36999513-.14128113 .375-.12420654L.5089874 .4123993M.35798646 .12626648C.35299684 .10926819 .35299684 .10726929 .33999635 .09126282 .30099488 .04524231 .2539978 .018234253 .21499634 .018234253 .17799378 .018234253 .14199829 .04423523 .14199829 .11526489 .14199829 .16828919 .17098999 .27833558 .19400025 .31835938 .23999024 .39839173 .29100038 .4133911 .31900025 .4133911 .3889923 .4133911 .4079895 .33636476 .4079895 .32635499 .4079895 .32136537 .4059906 .3153534 .40499879 .3113556L.35798646 .12626648Z"/>
<path id="font_5_8" d="M.3999939-.85002139 .21798706-.46102906C.21099854-.44602967 .20698548-.44502259 .20199585-.44502259 .19699097-.44502259 .19499207-.44702149 .18699646-.45303346L.08699036-.5260315C.07798767-.5320282 .07398987-.536026 .07398987-.5430298 .07398987-.5470276 .07699585-.5550232 .085998538-.5550232 .09199524-.5550232 .09799194-.55003359 .11999512-.53302 .1289978-.5270233 .14199829-.5170288 .15299988-.5090332L.35499574-.9410095C.36299134-.9580078 .36799623-.9580078 .3769989-.9580078 .3919983-.9580078 .3959961-.95401 .4039917-.9380188L.8699951 .0009613037C.8730011 .006958008 .8769989 .014953613 .8769989 .020965577 .8769989 .033966066 .86698916 .04296875 .85598757 .04296875 .8470001 .04296875 .83999636 .03895569 .83099368 .020965577L.3999939-.85002139Z"/>
<path id="font_9_2" d="M.46199037 .17704773H.43399049C.43199159 .16404724 .42399598 .10501099 .41099549 .08900452 .40499879 .07998657 .33599855 .07998657 .31599427 .07998657H.13798523L.23699951 .17404175C.40098573 .3161316 .46199037 .36915589 .46199037 .4711914 .46199037 .5860901 .36698915 .6660156 .24398804 .6660156 .1289978 .6660156 .050994874 .575119 .050994874 .4841919 .050994874 .43418885 .09399414 .42919923 .102996829 .42919923 .125 .42919923 .15499878 .44519044 .15499878 .48120118 .15499878 .51119998 .13398743 .5332031 .102996829 .5332031 .09799194 .5332031 .09498596 .5332031 .09098816 .53219607 .114990238 .6030731 .1789856 .63500979 .23298645 .63500979 .33499146 .63500979 .36999513 .5401764 .36999513 .4711914 .36999513 .36915589 .29299928 .28611756 .24499512 .23408509L.06199646 .035995485C.050994874 .024993897 .050994874 .022994996 .050994874 0H.43399049L.46199037 .17704773Z"/>
<path id="font_4_2" d="M.44999696 .70999148C.45599366 .723999 .45599366 .7259979 .45599366 .7279968 .45599366 .7409973 .44599916 .75 .43499757 .75 .42099 .75 .4169922 .74198916 .41600038 .73999026L.06298828-.21000672C.056991579-.22401428 .056991579-.22601319 .056991579-.22801209 .056991579-.24101258 .066986087-.25 .07798767-.25 .08799744-.25 .09599304-.2460022 .102996829-.22601319L.44999696 .70999148Z"/>
<path id="font_4_3" d="M.46099855 .40837098C.46499635 .42237855 .46499635 .42437745 .46499635 .42837525 .46499635 .44036866 .45498658 .4423828 .45298768 .4423828 .44299317 .4423828 .40499879 .40837098 .3849945 .3733673 .36898805 .40937806 .33799745 .4423828 .2869873 .4423828 .17098999 .4423828 .041992189 .30433656 .041992189 .1512909 .041992189 .041259767 .11199951-.0107421879 .1789856-.0107421879 .22200012-.0107421879 .26098634 .011245728 .2979889 .04626465L.2599945-.10812378C.24699402-.15933228 .24598694-.16233826 .18299866-.16334534 .17098999-.16334534 .15899658-.16334534 .15899658-.18135071 .15899658-.18334961 .15899658-.19433594 .17298889-.19433594 .19499207-.19433594 .2519989-.19134522 .27398683-.19134522 .30699159-.19134522 .30899049-.19134522 .32499696-.19233704 .33799745-.19334412 .3659973-.19433594 .37799073-.19433594 .38398744-.19433594 .39698792-.19433594 .39698792-.17634583 .39698792-.16334534 .3869934-.16334534 .36999513-.16334534 .32299806-.16334534 .32299806-.15631104 .32299806-.14727783 .32299806-.14627075 .32299806-.14025879 .32699586-.12519837L.46099855 .40837098M.31698609 .122283939C.31199647 .103271488 .31199647 .10227966 .29599 .08326721 .2599945 .040252687 .21899414 .014251709 .18199158 .014251709 .1329956 .014251709 .115997318 .06526184 .115997318 .10827637 .115997318 .15730286 .14498902 .27233888 .16899109 .32034303 .20098877 .3803711 .24699402 .41737367 .2869873 .41737367 .35398866 .41737367 .36898805 .33735658 .36898805 .33035279 .36898805 .3253479 .36698915 .3193512 .3659973 .31533814L.31698609 .122283939Z"/>
<path id="font_10_42" d="M.6839905 .23170471C.6839905 .24171448 .6839905 .25073243 .66999819 .25073243 .6569977 .25073243 .6569977 .24372864 .6559906 .2347107 .647995 .082595828 .5279999 .008529663 .4249878 .008529663 .33999635 .008529663 .15899658 .061569215 .15899658 .34179688 .15899658 .6210327 .34098817 .67407229 .42399598 .67407229 .522995 .67407229 .6279907 .5990143 .6519928 .4368744 .6539917 .4238739 .6549988 .41886903 .66799929 .41886903 .6839905 .41886903 .6839905 .4238739 .6839905 .44488526V.67907717C.6839905 .69607546 .6839905 .7050781 .6719971 .7050781 .6649933 .7050781 .6619873 .70207217 .6559906 .69306948L.6049957 .61802676C.57299807 .64904788 .5159912 .7050781 .4149933 .7050781 .22099304 .7050781 .056991579 .5439606 .056991579 .34179688 .056991579 .13563538 .22299195-.022460938 .4149933-.022460938 .58099368-.022460938 .6839905 .11462402 .6839905 .23170471Z"/>
<path id="font_10_28" d="M.49699403 .089141849V.14515686H.46899415V.090148929C.46899415 .07914734 .46899415 .029129029 .43299867 .029129029 .39698792 .029129029 .39698792 .07714844 .39698792 .09315491V.26818849C.39698792 .32521058 .39698792 .3592224 .35198976 .40022279 .31498719 .43322755 .2669983 .4482422 .21699524 .4482422 .1329956 .4482422 .06298828 .40623475 .06298828 .34220887 .06298828 .311203 .083999637 .2942047 .10998535 .2942047 .13699341 .2942047 .1559906 .31420899 .1559906 .34020997 .1559906 .3832245 .11099243 .38822938 .11099243 .38822938 .13798523 .41423036 .18598938 .42323304 .21499634 .42323304 .2659912 .42323304 .32299806 .3852234 .32299806 .29719544V.26419068C.2689972 .26219178 .19400025 .2571869 .1269989 .22518921 .054992677 .19017029 .032989503 .13816834 .032989503 .09814453 .032989503 .01625061 .12998963-.0107421879 .19699097-.0107421879 .27999879-.0107421879 .31799317 .04425049 .33198548 .072250369 .33699037 .030136109 .3659973-.005859375 .40899659-.005859375 .43399049-.005859375 .49699403 .009140015 .49699403 .08912659V.089141849M.32299806 .14112854C.32299806 .04425049 .24798584 .014251709 .20399475 .014251709 .15699768 .014251709 .11299133 .04824829 .11299133 .098236087 .11299133 .16423035 .16999817 .23422241 .32299806 .24023438V.14112854Z"/>
<path id="font_10_109" d="M.5469971 .00024414063V.03125C.47898866 .03125 .46998597 .038253786 .46998597 .087265018V.4423828L.31900025 .43138124V.40037538C.3869934 .40037538 .3959961 .39337159 .3959961 .34436036V.16729737C.3959961 .07826233 .34599305 .014251709 .27398683 .014251709 .19099427 .014251709 .18598938 .057266237 .18598938 .11128235V.4423828L.034988405 .43138124V.40037538C.11199951 .40037538 .11199951 .39736939 .11199951 .3083496V.15829468C.11199951 .09327698 .11199951 .051254274 .1579895 .01625061 .18699646-.003753662 .22799683-.0107421879 .2679901-.0107421879 .31999208-.0107421879 .36898805 .012252808 .397995 .072265628H.39898683V-.0107421879L.5469971 .00024414063Z"/>
<path id="font_10_43" d="M.4269867 .11936951C.4269867 .13139344 .41600038 .13139344 .41299439 .13139344 .4019928 .13139344 .4019928 .12937927 .3959961 .11236572 .37298585 .043289186 .31698609 .01725769 .2659912 .01725769 .20199585 .01725769 .11999512 .06932068 .11999512 .21749878 .11999512 .3735962 .19999695 .42022706 .2599945 .42022706 .272995 .42022706 .32699586 .41825868 .3639984 .39356996 .34298707 .3895874 .32299806 .3755951 .32299806 .34658814 .32299806 .32058717 .34298707 .30059815 .36898805 .30059815 .394989 .30059815 .41600038 .31759645 .41600038 .34858705 .41600038 .4103546 .34599305 .4482422 .2579956 .4482422 .12998963 .4482422 .033996583 .3415985 .033996583 .2164917 .033996583 .08734131 .13798523-.0107421879 .2559967-.0107421879 .394989-.0107421879 .4269867 .11036682 .4269867 .11936951Z"/>
<path id="font_10_63" d="M.5469971 0V.0309906C.49598695 .03125 .47099305 .03125 .46998597 .0622406V.25431825C.46998597 .3373413 .46998597 .36636354 .44198609 .4013672 .4189911 .42938233 .3809967 .4423828 .33099366 .4423828 .2639923 .4423828 .21499634 .40737916 .18399048 .35134889H.18299866V.69433596L.034988405 .6826172V.6516113C.102996829 .6516113 .11199951 .64463809 .11199951 .59580996V.077041629C.11199951 .0309906 .100997928 .0309906 .034988405 .0309906V0C.08198547 .0019989014 .100997928 .0029907227 .14898682 .0029907227 .19699097 .0029907227 .20999146 .0019989014 .2630005 0V.0309906C.19699097 .0309906 .18598938 .0309906 .18598938 .077041629V.2592163C.18598938 .36532594 .26098634 .41737367 .32398988 .41737367 .3829956 .41737367 .3959961 .3683319 .3959961 .30825807V.077041629C.3959961 .0309906 .3849945 .0309906 .31900025 .0309906V0C.3659973 .0019989014 .3849945 .0029907227 .43299867 .0029907227 .48098756 .0029907227 .49398805 .0019989014 .5469971 0Z"/>
<path id="font_10_118" d="M.519989 .3996582V.43066407C.48799134 .42765809 .45700074 .42765809 .44400025 .42765809 .41600038 .42765809 .3849945 .4286499 .35699464 .43066407V.3996582C.40299989 .3976593 .40299989 .36167909 .40299989 .35768128 .40299989 .3466797 .39898683 .33668519 .394989 .32868959L.2939911 .090789798 .18199158 .3526764C.17599488 .3666687 .17599488 .3736725 .17599488 .3736725 .17599488 .3996582 .20999146 .3996582 .23098755 .3996582V.43066407L.11999512 .42765809C.116989139 .42765809 .05999756 .42765809 .020996094 .43066407V.3996582C.06599426 .3996582 .084991458 .3976593 .09700012 .3706665L.25498963-.00016784668 .22999573-.059143068C.20799256-.11212158 .1789856-.18008423 .11399841-.18008423 .08898926-.18008423 .07199097-.167099 .068984989-.16508484 .07699585-.16407776 .10499573-.1560669 .10499573-.12205505 .10499573-.09605408 .085998538-.080062869 .06298828-.080062869 .037994386-.080062869 .019989014-.09605408 .019989014-.123046878 .019989014-.16807556 .06199646-.20507813 .11399841-.20507813 .1789856-.20507813 .22200012-.14706421 .24598694-.092056278L.4269867 .33068849C.43798829 .3566742 .45599366 .3976593 .519989 .3996582Z"/>
<path id="font_10_45" d="M.20698548 .0019989014C.20698548 .070999149 .18099976 .10798645 .14199829 .10798645 .10699463 .10798645 .08799744 .08099365 .08799744 .053985597 .08799744 .026992798 .10699463 0 .14199829 0 .16699219 0 .18199158 .015991211 .18199158 .015991211 .18199158-.017044068 .18199158-.09919739 .10598755-.17132569 .101989749-.17633057 .101989749-.18135071 .101989749-.18135071 .101989749-.18635559 .10798645-.19335938 .114990238-.19335938 .12599182-.19335938 .20698548-.1162262 .20698548 .0019989014Z"/>
<path id="font_10_77" d="M.5469971 0V.0309906C.49598695 .03125 .47099305 .03125 .46998597 .0622406V.25431825C.46998597 .3373413 .46998597 .36636354 .44198609 .4013672 .4189911 .42938233 .3809967 .4423828 .33099366 .4423828 .23799134 .4423828 .19499207 .37335206 .18099976 .34535218H.17999268V.4423828L.034988405 .43066407V.3996582C.102996829 .3996582 .11199951 .39266969 .11199951 .34370423V.07695007C.11199951 .0309906 .100997928 .0309906 .034988405 .0309906V0C.08198547 .0019989014 .100997928 .0029907227 .14898682 .0029907227 .19699097 .0029907227 .20999146 .0019989014 .2630005 0V.0309906C.19699097 .0309906 .18598938 .0309906 .18598938 .07695007V.25878907C.18598938 .36532594 .26098634 .41737367 .32398988 .41737367 .3829956 .41737367 .3959961 .3683319 .3959961 .30825807V.077041629C.3959961 .0309906 .3849945 .0309906 .31900025 .0309906V0C.3659973 .0019989014 .3849945 .0029907227 .43299867 .0029907227 .48098756 .0029907227 .49398805 .0019989014 .5469971 0Z"/>
<path id="font_10_81" d="M.48399354 .21324158C.48399354 .34423829 .37998963 .4482422 .25698854 .4482422 .12998963 .4482422 .0289917 .3412323 .0289917 .21324158 .0289917 .08824158 .1329956-.0107421879 .2559967-.0107421879 .3829956-.0107421879 .48399354 .09024048 .48399354 .21324158M.397995 .22224427C.397995 .1852417 .397995 .12724304 .37298585 .08325195 .34498597 .037246705 .29899598 .01725769 .25698854 .01725769 .20698548 .01725769 .16499329 .042251588 .14199829 .08125305 .115997318 .12324524 .114990238 .17623902 .114990238 .22224427 .114990238 .25924684 .114990238 .3162384 .13999939 .35723878 .16999817 .40823365 .21998596 .42323304 .2559967 .42323304 .31298829 .42323304 .35398866 .39123536 .37399293 .35723878 .39698792 .31523133 .397995 .26423646 .397995 .22224427Z"/>
<path id="font_10_72" d="M.26098634 0V.0309906C.19499207 .0309906 .18399048 .0309906 .18399048 .07701111V.69433596L.035995485 .6826172V.6516113C.10398865 .6516113 .11299133 .64460757 .11299133 .5956421V.07696533C.11299133 .0309906 .101989749 .0309906 .035995485 .0309906V0C.08299255 .0019989014 .101989749 .0029907227 .147995 .0029907227 .19499207 .0029907227 .21199036 .0019989014 .26098634 0Z"/>
<path id="font_10_66" d="M.25299073 0V.0309906C.18798828 .0309906 .18399048 .035995485 .18399048 .075042728V.4423828L.039993287 .43066407V.3996582C.10398865 .3996582 .11299133 .3936615 .11299133 .3447113V.07695007C.11299133 .0309906 .101989749 .0309906 .035995485 .0309906V0C.08099365 .0019989014 .101989749 .0029907227 .1459961 .0029907227 .1619873 .0029907227 .20399475 .0029907227 .25299073 0M.19699097 .6028137C.19699097 .63282778 .17298889 .6568146 .14299011 .6568146 .11299133 .6568146 .08898926 .63282778 .08898926 .6028137 .08898926 .57281497 .11299133 .5488281 .14299011 .5488281 .17298889 .5488281 .19699097 .57281497 .19699097 .6028137Z"/>
<path id="font_10_75" d="M.83299258 0V.0309906C.7819977 .03125 .7569885 .03125 .7559967 .0622406V.2539215C.7559967 .34077455 .7559967 .36872865 .72299197 .4056549 .70199587 .43037416 .6619873 .4423828 .6159973 .4423828 .5439911 .4423828 .49499513 .40037538 .46699525 .3473816 .45498658 .40637208 .4149933 .4423828 .33099366 .4423828 .25099183 .4423828 .20199585 .39038087 .18099976 .3443756H.17999268V.4423828L.034988405 .43066407V.3996582C.102996829 .3996582 .11199951 .39266969 .11199951 .34370423V.07695007C.11199951 .0309906 .100997928 .0309906 .034988405 .0309906V0C.08198547 .0019989014 .100997928 .0029907227 .14898682 .0029907227 .19699097 .0029907227 .20999146 .0019989014 .2630005 0V.0309906C.19699097 .0309906 .18598938 .0309906 .18598938 .07695007V.25878907C.18598938 .36732484 .2639923 .41737367 .32398988 .41737367 .3789978 .41737367 .39698792 .37834168 .39698792 .30825807V.077041629C.39698792 .0309906 .38598634 .0309906 .31999208 .0309906V0C.36698915 .0019989014 .38598634 .0029907227 .43399049 .0029907227 .48199464 .0029907227 .49499513 .0019989014 .5479889 0V.0309906C.48199464 .0309906 .47099305 .0309906 .47099305 .077041629V.2592163C.47099305 .36732484 .548996 .41737367 .60899356 .41737367 .6639862 .41737367 .6819916 .37834168 .6819916 .30825807V.077041629C.6819916 .0309906 .67099 .0309906 .6049957 .0309906V0C.6519928 .0019989014 .67099 .0029907227 .71899417 .0029907227 .7669983 .0029907227 .7799988 .0019989014 .83299258 0Z"/>
<path id="font_10_105" d="M.34199525 .12408447V.18099976H.31399537V.1270752C.31399537 .05319214 .2829895 .01725769 .24699402 .01725769 .17999268 .01725769 .17999268 .1051178 .17999268 .12309265V.3996582H.32499696V.43066407H.17999268V.6142578H.1519928C.15098572 .5304413 .115997318 .42765809 .018997193 .4246521V.3996582H.10598755V.12408447C.10598755 .012252808 .18699646-.0107421879 .23999024-.0107421879 .30699159-.011001587 .34199525 .052993776 .34199525 .12399292V.12408447Z"/>
<path id="font_10_62" d="M.7319946 0V.0309906H.70899966C.6319885 .0309906 .6299896 .041992189 .6299896 .07896423V.60365298C.6299896 .640625 .6319885 .6516113 .70899966 .6516113H.7319946V.6826172C.68699648 .6796112 .6309967 .6796112 .58499148 .6796112 .5389862 .6796112 .48298646 .6796112 .43798829 .6826172V.6516113H.46099855C.5379944 .6516113 .5399933 .640625 .5399933 .60365298V.37083436H.22999573V.60365298C.22999573 .640625 .23199463 .6516113 .30899049 .6516113H.33198548V.6826172C.2869873 .6796112 .23098755 .6796112 .18499756 .6796112 .13899231 .6796112 .08299255 .6796112 .037994386 .6826172V.6516113H.06098938C.13798523 .6516113 .13999939 .640625 .13999939 .60365298V.07896423C.13999939 .041992189 .13798523 .0309906 .06098938 .0309906H.037994386V0C.08299255 .0029907227 .13899231 .0029907227 .18499756 .0029907227 .23098755 .0029907227 .2869873 .0029907227 .33198548 0V.0309906H.30899049C.23199463 .0309906 .22999573 .041992189 .22999573 .07896423V.33984376H.5399933V.07896423C.5399933 .041992189 .5379944 .0309906 .46099855 .0309906H.43798829V0C.48298646 .0029907227 .5389862 .0029907227 .58499148 .0029907227 .6309967 .0029907227 .68699648 .0029907227 .7319946 0Z"/>
<path id="font_10_35" d="M.5359955 .21636963C.5359955 .34144593 .43699647 .4423828 .31698609 .4423828 .24899292 .4423828 .20199585 .4073944 .17799378 .38046266V.69433596L.02999878 .68333438V.6523285C.09799194 .6523285 .10699463 .6453247 .10699463 .596344V.00024414063H.1349945L.17199707 .061279298C.20298767 .01725769 .25299073-.0107421879 .30699159-.0107421879 .42599488-.0107421879 .5359955 .08529663 .5359955 .21636963M.44999696 .21737671C.44999696 .17034912 .44400025 .11730957 .41799928 .07728577 .3959961 .045272829 .35499574 .014251709 .3019867 .014251709 .25698854 .014251709 .21899414 .038269044 .19499207 .075286868 .18099976 .09629822 .18099976 .0973053 .18099976 .11631775V.31944276C.18099976 .3384552 .18099976 .33944703 .19198609 .35546876 .22599793 .40141297 .2749939 .41737367 .31298829 .41737367 .35598756 .41737367 .3959961 .39343263 .42199708 .3514557 .44799806 .3084259 .44999696 .24938965 .44999696 .21737671Z"/>
<path id="font_10_50" d="M.4269867 .11936951C.4269867 .12637329 .42199708 .13237 .41299439 .13237 .40299989 .13237 .3999939 .12536621 .39898683 .12136841 .36499024 .019256592 .27598573 .01725769 .26098634 .01725769 .21299744 .01725769 .17199707 .044281007 .14898682 .078323367 .115997318 .12736511 .114990238 .18743897 .114990238 .22949219H.3999939C.42199708 .22949219 .4269867 .22949219 .4269867 .25048829 .4269867 .35333253 .37098695 .4482422 .24299622 .4482422 .12298584 .4482422 .0289917 .3443451 .0289917 .22047425 .0289917 .08932495 .13398743-.0107421879 .2559967-.0107421879 .37799073-.0107421879 .4269867 .096343997 .4269867 .11936951M.35899354 .253479H.115997318C.125 .40725709 .21499634 .42323304 .24299622 .42323304 .2979889 .42323304 .35798646 .38130189 .35899354 .253479Z"/>
<path id="font_10_96" d="M.37298585 .3798828C.37298585 .41236878 .34298707 .4423828 .2979889 .4423828 .23799134 .4423828 .19599915 .40037538 .17298889 .33787538H.17199707V.4423828L.02999878 .43066407V.3996582C.09799194 .3996582 .10699463 .3927307 .10699463 .34387208V.07698059C.10699463 .0309906 .09599304 .0309906 .02999878 .0309906V0C.08299255 .0019989014 .09599304 .0029907227 .14698792 .0029907227L.27398683 0V.0309906H.2539978C.18099976 .0309906 .17799378 .041992189 .17799378 .07897949V.22891236C.17799378 .26989747 .18899536 .4166565 .30299378 .4166565V.4156494C.30099488 .4146576 .2849884 .40264894 .2849884 .37887574 .2849884 .35186769 .30599977 .33486939 .32899476 .33486939 .34999085 .33486939 .37298585 .34986878 .37298585 .3798828Z"/>
<path id="font_10_44" d="M.19599915 .3766632C.19599915 .406662 .17199707 .43066407 .14199829 .43066407 .11199951 .43066407 .08799744 .406662 .08799744 .3766632 .08799744 .34765626 .11199951 .32266236 .14199829 .32266236 .17199707 .32266236 .19599915 .34765626 .19599915 .3766632M.19599915 .053985597C.19599915 .08299255 .17199707 .10798645 .14199829 .10798645 .11199951 .10798645 .08799744 .08299255 .08799744 .053985597 .08799744 .023986817 .11199951 0 .14199829 0 .17199707 0 .19599915 .023986817 .19599915 .053985597Z"/>
<path id="font_5_7" d="M.17599488 .7149811C.17599488 .7299957 .17599488 .75 .15499878 .75 .1329956 .75 .1329956 .72698977 .1329956 .70999148V-.20903015C.1329956-.22602844 .1329956-.24902344 .15499878-.24902344 .17599488-.24902344 .17599488-.22903443 .17599488-.21403504V.7149811M.37998963 .70999148C.37998963 .72698977 .37998963 .75 .35798646 .75 .33699037 .75 .33699037 .7299957 .33699037 .7149811V-.21403504C.33699037-.22903443 .33699037-.24902344 .35798646-.24902344 .37998963-.24902344 .37998963-.22602844 .37998963-.20903015V.70999148Z"/>
<path id="font_5_1" d="M.6749878 .22944641C.69299319 .22944641 .71199038 .22944641 .71199038 .25144959 .71199038 .27246095 .69200137 .27246095 .6749878 .27246095H.12298584C.10598755 .27246095 .085998538 .27246095 .085998538 .25144959 .085998538 .22944641 .10499573 .22944641 .12298584 .22944641H.6749878Z"/>
<path id="font_6_1" d="M.47299195 .086257938C.46798707 .06524658 .45899964 .030227662 .45899964 .023223877 .45899964 .0012207031 .47599793-.009765625 .49398805-.009765625 .5119934-.009765625 .5289917 .0022277833 .5369873 .017227173 .5389862 .023223877 .5479889 .058242799 .5529938 .07824707L.57499697 .16828919C.58200076 .19430542 .58599856 .21231079 .59199526 .23532105 .6009979 .2693329 .6359863 .32235719 .6729889 .359375 .69299319 .37838746 .73599246 .4084015 .7899933 .4084015 .85398867 .4084015 .85398867 .3573761 .85398867 .33836366 .85398867 .27934266 .8109894 .17228699 .79299929 .12727356 .7869873 .11026001 .7799988 .09425354 .7799988 .07725525 .7799988 .026229859 .82598879-.009765625 .8809967-.009765625 .9819946-.009765625 1.0319977 .12226868 1.0319977 .14428711 1.0319977 .14628601 1.0309906 .15829468 1.0130005 .15829468 .9989929 .15829468 .9980011 .1532898 .99198916 .13427735 .973999 .07624817 .93099978 .023223877 .8849945 .023223877 .87098696 .023223877 .8569946 .02923584 .8569946 .059249879 .8569946 .07925415 .8639984 .09725952 .8730011 .118270877 .8839874 .14628601 .93299868 .26733399 .93299868 .32536317 .93299868 .4073944 .87098696 .44140626 .79499819 .44140626 .73999026 .44140626 .673996 .42140199 .60899356 .33636476 .6029968 .4104004 .5439911 .44140626 .47099305 .44140626 .42099 .44140626 .35699464 .42539979 .29299928 .3463745 .28799439 .4223938 .21798706 .44140626 .17999268 .44140626 .14199829 .44140626 .115997318 .418396 .09799194 .38638307 .07199097 .3443756 .06098938 .29135133 .06098938 .28834535 .06098938 .27734376 .069992069 .27334596 .07899475 .27334596 .09498596 .27334596 .09599304 .28034974 .100997928 .2963562 .12098694 .37538148 .14498902 .4084015 .1769867 .4084015 .21099854 .4084015 .21299744 .37338258 .21299744 .3573761 .21299744 .34136964 .20298767 .30134584 .19599915 .27334596 .18899536 .24632263 .1789856 .205307 .17399597 .18330384 .16699219 .15829468 .16099549 .13227844 .1539917 .10726929 .14698792 .07925415 .1349945 .02923584 .1349945 .023223877 .1349945 .0012207031 .1519928-.009765625 .16999817-.009765625 .18798828-.009765625 .20498657 .0022277833 .21299744 .017227173 .21499634 .023223877 .22399903 .058242799 .22898865 .07824707L.25099183 .16828919C.2579956 .19430542 .2619934 .21231079 .2679901 .23532105 .2769928 .2693329 .31199647 .32235719 .34899903 .359375 .36898805 .37838746 .4119873 .4084015 .46598817 .4084015 .5299988 .4084015 .5299988 .3573761 .5299988 .33836366 .5299988 .31436158 .519989 .27433778 .5119934 .24232483L.47299195 .086257938Z"/>
<path id="font_9_1" d="M.47299195 .31976319C.47299195 .38682557 .46998597 .47288514 .43499757 .5479431 .3909912 .64201357 .31498719 .6660156 .25698854 .6660156 .19699097 .6660156 .12098694 .64201357 .07699585 .5459442 .04499817 .47688294 .039993287 .39582826 .039993287 .31976319 .039993287 .25471498 .041992189 .15765381 .084991458 .07858276 .13198853-.0064697267 .20999146-.022460938 .2559967-.022460938 .32099916-.022460938 .394989 .0055389406 .43699647 .097595218 .46699525 .1646576 .47299195 .23971558 .47299195 .31976319M.25698854 .002532959C.22698975 .002532959 .15499878 .016540528 .13598633 .12962342 .12599182 .18867493 .12599182 .2747345 .12599182 .33177186 .12599182 .39982606 .12599182 .47888185 .13798523 .53393557 .1579895 .6230011 .22200012 .64100649 .2559967 .64100649 .2939911 .64100649 .35699464 .62098696 .37599183 .5279236 .3869934 .47288514 .3869934 .39482118 .3869934 .33177186 .3869934 .2697296 .3869934 .18566895 .3769989 .12661743 .35598756 .012542725 .28199769 .002532959 .25698854 .002532959Z"/>
<path id="font_5_3" d="M.73999026 .3310089C.79100039 .28700257 .83999636 .2639923 .8730011 .25097657 .8299866 .23197937 .7849884 .20796204 .73999026 .1699524H.09199524C.07699585 .1699524 .056991579 .1699524 .056991579 .14894104 .056991579 .12695313 .07899475 .12695313 .09700012 .12695313H.69200137C.6289978 .060073854 .59399417-.0087890629 .59399417-.016799927 .59399417-.029800415 .60598757-.029800415 .61499026-.029800415 .6269989-.029800415 .6319885-.029800415 .6369934-.02079773 .71798709 .13494873 .8299866 .20196533 .95899966 .23797608 .96699526 .23997498 .9700012 .24597168 .9700012 .24998474 .9700012 .25997926 .96099856 .26197816 .95899966 .26298524 .9099884 .2769928 .83999636 .29600526 .7539978 .36901856 .71699526 .401062 .6749878 .44813539 .6419983 .5112457 .6319885 .5302429 .6309967 .53125 .61499026 .53125 .60598757 .53125 .59399417 .53125 .59399417 .5182495 .59399417 .51023867 .6279907 .4421234 .69200137 .37402345H.09700012C.07899475 .37402345 .056991579 .37402345 .056991579 .35202027 .056991579 .3310089 .07699585 .3310089 .09199524 .3310089H.73999026Z"/>
<path id="font_5_5" d="M.5130005 .6573334C.5130005 .69132998 .5079956 .69433596 .47599793 .69433596H.09399414C.07699585 .69433596 .056991579 .69433596 .056991579 .6733246 .056991579 .6513214 .07598877 .6513214 .09399414 .6513214H.46998597V.36917115H.11099243C.09399414 .36917115 .070999149 .36917115 .070999149 .34716798 .070999149 .32617188 .09098816 .32617188 .10598755 .32617188H.46998597V.042999269H.09399414C.07699585 .042999269 .056991579 .042999269 .056991579 .021987915 .056991579 0 .07598877 0 .09399414 0H.47599793C.5079956 0 .5130005 .0029907227 .5130005 .036987306V.6573334Z"/>
<path id="font_4_1" d="M.18199158 .015991211C.18199158-.017044068 .18199158-.09921265 .10798645-.17036438 .101989749-.17636109 .101989749-.17736817 .101989749-.18136597 .101989749-.18836975 .10899353-.19335938 .114990238-.19335938 .12599182-.19335938 .20698548-.115249637 .20698548 .0019989014 .20698548 .06399536 .18499756 .10798645 .14199829 .10798645 .10798645 .10798645 .08799744 .08198547 .08799744 .053985597 .08799744 .025985718 .10798645 0 .14199829 0 .15699768 0 .17199707 .004989624 .18199158 .015991211Z"/>
</defs>
<use data-text="C" xlink:href="#font_1_42" transform="matrix(9.96264,0,0,-9.96264,44.80459,18.759119)"/>
<use data-text="o" xlink:href="#font_1_81" transform="matrix(9.96264,0,0,-9.96264,53.08354,18.759119)"/>
<use data-text="m" xlink:href="#font_1_75" transform="matrix(9.96264,0,0,-9.96264,58.81206,18.759119)"/>
<use data-text="p" xlink:href="#font_1_84" transform="matrix(9.96264,0,0,-9.96264,68.35627,18.759119)"/>
<use data-text="l" xlink:href="#font_1_72" transform="matrix(9.96264,0,0,-9.96264,74.7224,18.759119)"/>
<use data-text="e" xlink:href="#font_1_50" transform="matrix(9.96264,0,0,-9.96264,77.90048,18.759119)"/>
<use data-text="t" xlink:href="#font_1_105" transform="matrix(9.96264,0,0,-9.96264,83.15079,18.759119)"/>
<use data-text="e" xlink:href="#font_1_50" transform="matrix(9.96264,0,0,-9.96264,87.604099,18.759119)"/>
<use data-text="(" xlink:href="#font_1_85" transform="matrix(9.96264,0,0,-9.96264,96.67009,18.759119)"/>
<use data-text="H" xlink:href="#font_1_62" transform="matrix(9.96264,0,0,-9.96264,101.1234,18.759119)"/>
<use data-text="i" xlink:href="#font_1_66" transform="matrix(9.96264,0,0,-9.96264,110.08977,18.759119)"/>
<use data-text="l" xlink:href="#font_1_72" transform="matrix(9.96264,0,0,-9.96264,113.26785,18.759119)"/>
<use data-text="b" xlink:href="#font_1_35" transform="matrix(9.96264,0,0,-9.96264,116.44594,18.759119)"/>
<use data-text="e" xlink:href="#font_1_50" transform="matrix(9.96264,0,0,-9.96264,123.130878,18.759119)"/>
<use data-text="r" xlink:href="#font_1_96" transform="matrix(9.96264,0,0,-9.96264,128.38118,18.759119)"/>
<use data-text="t" xlink:href="#font_1_105" transform="matrix(9.96264,0,0,-9.96264,133.10347,18.759119)"/>
<use data-text=")" xlink:href="#font_1_86" transform="matrix(9.96264,0,0,-9.96264,137.55678,18.759119)"/>
<path transform="matrix(1,0,0,-1,93.40794,101.303859)" d="M85.04042 0C85.04042 31.31142 46.96713 56.69362 0 56.69362-46.96713 56.69362-85.04042 31.31142-85.04042 0-85.04042-31.31142-46.96713-56.69362 0-56.69362 46.96713-56.69362 85.04042-31.31142 85.04042 0ZM0 0" fill="#e6e6ff"/>
<path transform="matrix(1,0,0,-1,93.40794,101.303859)" stroke-width=".79701" stroke-linecap="butt" stroke-miterlimit="10" stroke-linejoin="miter" fill="none" stroke="#000080" d="M85.04042 0C85.04042 31.31142 46.96713 56.69362 0 56.69362-46.96713 56.69362-85.04042 31.31142-85.04042 0-85.04042-31.31142-46.96713-56.69362 0-56.69362 46.96713-56.69362 85.04042-31.31142 85.04042 0ZM0 0"/>
<path transform="matrix(1,0,0,-1,93.40794,101.303859)" stroke-width=".3985" stroke-linecap="butt" stroke-dasharray="2.98883,2.98883" stroke-miterlimit="10" stroke-linejoin="miter" fill="none" stroke="#cccccc" d="M-70.867-28.3468 70.867 28.3468"/>
<path transform="matrix(1,0,0,-1,93.40794,101.303859)" stroke-width=".3985" stroke-linecap="butt" stroke-dasharray="2.98883,2.98883" stroke-miterlimit="10" stroke-linejoin="miter" fill="none" stroke="#cccccc" d="M-70.867 0H70.867"/>
<path transform="matrix(1,0,0,-1,93.40794,101.303859)" stroke-width=".3985" stroke-linecap="butt" stroke-dasharray="2.98883,2.98883" stroke-miterlimit="10" stroke-linejoin="miter" fill="none" stroke="#cccccc" d="M-70.867 28.3468 70.867-28.3468"/>
<path transform="matrix(1,0,0,-1,93.40794,101.303859)" d="M-54.70914 14.17339C-54.70914 15.2694-55.59761 16.15787-56.69362 16.15787-57.78961 16.15787-58.6781 15.2694-58.6781 14.17339-58.6781 13.0774-57.78961 12.1889-56.69362 12.1889-55.59761 12.1889-54.70914 13.0774-54.70914 14.17339ZM-56.69362 14.17339"/>
<use data-text="x" xlink:href="#font_2_2" transform="matrix(6.973848,0,0,-6.973848,32.51126,81.19694)"/>
<use data-text="1" xlink:href="#font_3_1" transform="matrix(4.98132,0,0,-4.98132,37.02906,82.1932)"/>
<path transform="matrix(1,0,0,-1,93.40794,101.303859)" d="M-26.64607 0C-26.64607 .93929-27.4075 1.70073-28.3468 1.70073-29.2861 1.70073-30.04755 .93929-30.04755 0-30.04755-.93929-29.2861-1.70073-28.3468-1.70073-27.4075-1.70073-26.64607-.93929-26.64607 0ZM-28.3468 0"/>
<use data-text="x" xlink:href="#font_2_2" transform="matrix(6.973848,0,0,-6.973848,60.85806,95.37035)"/>
<use data-text="2" xlink:href="#font_3_2" transform="matrix(4.98132,0,0,-4.98132,65.375858,96.366619)"/>
<path transform="matrix(1,0,0,-1,93.40794,101.303859)" d="M-7.0867 8.50412C-7.0867 9.28694-7.72128 9.92154-8.50412 9.92154-9.28694 9.92154-9.92154 9.28694-9.92154 8.50412-9.92154 7.72128-9.28694 7.0867-8.50412 7.0867-7.72128 7.0867-7.0867 7.72128-7.0867 8.50412ZM-8.50412 8.50412"/>
<use data-text="x" xlink:href="#font_2_2" transform="matrix(6.973848,0,0,-6.973848,80.70076,87.71659)"/>
<use data-text="3" xlink:href="#font_3_3" transform="matrix(4.98132,0,0,-4.98132,85.21856,88.712848)"/>
<path transform="matrix(1,0,0,-1,93.40794,101.303859)" d="M2.55109 11.33855C2.55109 11.96465 2.04352 12.47221 1.4174 12.47221 .7913 12.47221 .28374 11.96465 .28374 11.33855 .28374 10.71243 .7913 10.20486 1.4174 10.20486 2.04352 10.20486 2.55109 10.71243 2.55109 11.33855ZM1.4174 11.33855"/>
<path transform="matrix(1,0,0,-1,93.40794,101.303859)" d="M8.07892 11.9056C8.07892 12.45358 7.63469 12.89783 7.08669 12.89783 6.53868 12.89783 6.09445 12.45358 6.09445 11.9056 6.09445 11.35759 6.53868 10.91336 7.08669 10.91336 7.63469 10.91336 8.07892 11.35759 8.07892 11.9056ZM7.08669 11.9056"/>
<path transform="matrix(1,0,0,-1,93.40794,101.303859)" d="M13.32303 12.75595C13.32303 13.85196 12.43454 14.74043 11.33855 14.74043 10.24254 14.74043 9.35406 13.85196 9.35406 12.75595 9.35406 11.65996 10.24254 10.77147 11.33855 10.77147 12.43454 10.77147 13.32303 11.65996 13.32303 12.75595ZM11.33855 12.75595" fill="#ff0000"/>
<use data-text="x" xlink:href="#font_4_4" transform="matrix(8.966376,0,0,-8.966376,111.101139,89.96548)" fill="#ff0000"/>
<use data-text="&#x2208;" xlink:href="#font_5_4" transform="matrix(8.966376,0,0,-8.966376,118.884418,89.96548)" fill="#ff0000"/>
<use data-text="H" xlink:href="#font_5_6" transform="matrix(8.966376,0,0,-8.966376,127.5818,89.96548)" fill="#ff0000"/>
<use data-text="x" xlink:href="#font_4_4" transform="matrix(8.966376,0,0,-8.966376,78.46734,164.81995)"/>
<use data-text="n" xlink:href="#font_6_2" transform="matrix(5.977584,0,0,-5.977584,83.69079,165.8162)"/>
<use data-text="&#x2192;" xlink:href="#font_5_2" transform="matrix(8.966376,0,0,-8.966376,91.34952,164.81995)"/>
<use data-text="x" xlink:href="#font_4_4" transform="matrix(8.966376,0,0,-8.966376,103.124729,164.81995)"/>
<use data-text="H" xlink:href="#font_7_1" transform="matrix(9.96264,0,0,-9.96264,20.391484,56.51832)" fill="#000080"/>
<use data-text="I" xlink:href="#font_1_65" transform="matrix(9.96264,0,0,-9.96264,282.16069,18.759119)"/>
<use data-text="n" xlink:href="#font_1_77" transform="matrix(9.96264,0,0,-9.96264,286.5044,18.759119)"/>
<use data-text="c" xlink:href="#font_1_43" transform="matrix(9.96264,0,0,-9.96264,292.8705,18.759119)"/>
<use data-text="o" xlink:href="#font_1_81" transform="matrix(9.96264,0,0,-9.96264,297.96144,18.759119)"/>
<use data-text="m" xlink:href="#font_1_75" transform="matrix(9.96264,0,0,-9.96264,303.68995,18.759119)"/>
<use data-text="p" xlink:href="#font_1_84" transform="matrix(9.96264,0,0,-9.96264,313.23417,18.759119)"/>
<use data-text="l" xlink:href="#font_1_72" transform="matrix(9.96264,0,0,-9.96264,319.60029,18.759119)"/>
<use data-text="e" xlink:href="#font_1_50" transform="matrix(9.96264,0,0,-9.96264,322.77839,18.759119)"/>
<use data-text="t" xlink:href="#font_1_105" transform="matrix(9.96264,0,0,-9.96264,328.0287,18.759119)"/>
<use data-text="e" xlink:href="#font_1_50" transform="matrix(9.96264,0,0,-9.96264,332.482,18.759119)"/>
<use data-text="(" xlink:href="#font_1_85" transform="matrix(9.96264,0,0,-9.96264,341.54798,18.759119)"/>
<use data-text="Q" xlink:href="#font_8_1" transform="matrix(9.96264,0,0,-9.96264,346.00129,18.759119)"/>
<use data-text=")" xlink:href="#font_1_86" transform="matrix(9.96264,0,0,-9.96264,353.75004,18.759119)"/>
<path transform="matrix(1,0,0,-1,93.40794,101.303859)" d="M311.815 0C311.815 31.31142 273.7417 56.69362 226.77457 56.69362 179.80744 56.69362 141.73413 31.31142 141.73413 0 141.73413-31.31142 179.80744-56.69362 226.77457-56.69362 273.7417-56.69362 311.815-31.31142 311.815 0ZM226.77457 0" fill="#f2f2f2"/>
<path transform="matrix(1,0,0,-1,93.40794,101.303859)" stroke-width=".79701" stroke-linecap="butt" stroke-dasharray="2.98883,2.98883" stroke-miterlimit="10" stroke-linejoin="miter" fill="none" stroke="#bfbfbf" d="M311.815 0C311.815 31.31142 273.7417 56.69362 226.77457 56.69362 179.80744 56.69362 141.73413 31.31142 141.73413 0 141.73413-31.31142 179.80744-56.69362 226.77457-56.69362 273.7417-56.69362 311.815-31.31142 311.815 0ZM226.77457 0"/>
<path transform="matrix(1,0,0,-1,93.40794,101.303859)" d="M159.87607 22.67752C159.87607 23.30362 159.3685 23.81119 158.7424 23.81119 158.11629 23.81119 157.60872 23.30362 157.60872 22.67752 157.60872 22.0514 158.11629 21.54384 158.7424 21.54384 159.3685 21.54384 159.87607 22.0514 159.87607 22.67752ZM158.7424 22.67752" fill="#595959"/>
<path transform="matrix(1,0,0,-1,93.40794,101.303859)" d="M171.21462-14.17339C171.21462-13.54729 170.70705-13.03972 170.08095-13.03972 169.45484-13.03972 168.94727-13.54729 168.94727-14.17339 168.94727-14.7995 169.45484-15.30707 170.08095-15.30707 170.70705-15.30707 171.21462-14.7995 171.21462-14.17339ZM170.08095-14.17339" fill="#595959"/>
<path transform="matrix(1,0,0,-1,93.40794,101.303859)" d="M182.55318 8.50412C182.55318 9.13022 182.04561 9.63779 181.41951 9.63779 180.7934 9.63779 180.28583 9.13022 180.28583 8.50412 180.28583 7.878 180.7934 7.37044 181.41951 7.37044 182.04561 7.37044 182.55318 7.878 182.55318 8.50412ZM181.41951 8.50412" fill="#595959"/>
<path transform="matrix(1,0,0,-1,93.40794,101.303859)" d="M199.56143-19.84267C199.56143-19.21655 199.05387-18.70898 198.42775-18.70898 197.80165-18.70898 197.29409-19.21655 197.29409-19.84267 197.29409-20.46877 197.80165-20.97633 198.42775-20.97633 199.05387-20.97633 199.56143-20.46877 199.56143-19.84267ZM198.42775-19.84267" fill="#595959"/>
<path transform="matrix(1,0,0,-1,93.40794,101.303859)" d="M210.9 17.00824C210.9 17.63435 210.39243 18.1419 209.76631 18.1419 209.14022 18.1419 208.63265 17.63435 208.63265 17.00824 208.63265 16.38213 209.14022 15.87457 209.76631 15.87457 210.39243 15.87457 210.9 16.38213 210.9 17.00824ZM209.76631 17.00824" fill="#595959"/>
<path transform="matrix(1,0,0,-1,93.40794,101.303859)" d="M233.57752-14.17339C233.57752-13.54729 233.06995-13.03972 232.44384-13.03972 231.81774-13.03972 231.31017-13.54729 231.31017-14.17339 231.31017-14.7995 231.81774-15.30707 232.44384-15.30707 233.06995-15.30707 233.57752-14.7995 233.57752-14.17339ZM232.44384-14.17339" fill="#595959"/>
<path transform="matrix(1,0,0,-1,93.40794,101.303859)" d="M247.7509 5.66927C247.7509 6.29538 247.24335 6.80293 246.61724 6.80293 245.99112 6.80293 245.48357 6.29538 245.48357 5.66927 245.48357 5.04315 245.99112 4.5356 246.61724 4.5356 247.24335 4.5356 247.7509 5.04315 247.7509 5.66927ZM246.61724 5.66927" fill="#595959"/>
<path transform="matrix(1,0,0,-1,93.40794,101.303859)" d="M264.75917-17.00824C264.75917-16.38213 264.2516-15.87457 263.6255-15.87457 262.9994-15.87457 262.49183-16.38213 262.49183-17.00824 262.49183-17.63435 262.9994-18.1419 263.6255-18.1419 264.2516-18.1419 264.75917-17.63435 264.75917-17.00824ZM263.6255-17.00824" fill="#595959"/>
<path transform="matrix(1,0,0,-1,93.40794,101.303859)" d="M278.93257 11.33855C278.93257 11.96465 278.425 12.47221 277.7989 12.47221 277.1728 12.47221 276.66523 11.96465 276.66523 11.33855 276.66523 10.71243 277.1728 10.20486 277.7989 10.20486 278.425 10.20486 278.93257 10.71243 278.93257 11.33855ZM277.7989 11.33855" fill="#595959"/>
<path transform="matrix(1,0,0,-1,93.40794,101.303859)" d="M290.27113-8.50412C290.27113-7.878 289.76359-7.37044 289.13746-7.37044 288.51136-7.37044 288.00379-7.878 288.00379-8.50412 288.00379-9.13022 288.51136-9.63779 289.13746-9.63779 289.76359-9.63779 290.27113-9.13022 290.27113-8.50412ZM289.13746-8.50412" fill="#595959"/>
<path transform="matrix(1,0,0,-1,93.40794,101.303859)" d="M298.77525 19.84267C298.77525 20.46877 298.26768 20.97633 297.6416 20.97633 297.01548 20.97633 296.5079 20.46877 296.5079 19.84267 296.5079 19.21655 297.01548 18.70898 297.6416 18.70898 298.26768 18.70898 298.77525 19.21655 298.77525 19.84267ZM297.6416 19.84267" fill="#595959"/>
<path transform="matrix(1,0,0,-1,93.40794,101.303859)" d="M191.0573 25.51193C191.0573 26.13805 190.54975 26.64561 189.92363 26.64561 189.29752 26.64561 188.78997 26.13805 188.78997 25.51193 188.78997 24.88583 189.29752 24.37827 189.92363 24.37827 190.54975 24.37827 191.0573 24.88583 191.0573 25.51193ZM189.92363 25.51193" fill="#595959"/>
<path transform="matrix(1,0,0,-1,93.40794,101.303859)" d="M216.56969-28.3468C216.56969-27.72069 216.06212-27.21313 215.43602-27.21313 214.8099-27.21313 214.30234-27.72069 214.30234-28.3468 214.30234-28.97292 214.8099-29.48047 215.43602-29.48047 216.06212-29.48047 216.56969-28.97292 216.56969-28.3468ZM215.43602-28.3468" fill="#595959"/>
<path transform="matrix(1,0,0,-1,93.40794,101.303859)" d="M256.25505 28.3468C256.25505 28.97292 255.74748 29.48047 255.12137 29.48047 254.49527 29.48047 253.9877 28.97292 253.9877 28.3468 253.9877 27.72069 254.49527 27.21313 255.12137 27.21313 255.74748 27.21313 256.25505 27.72069 256.25505 28.3468ZM255.12137 28.3468" fill="#595959"/>
<path transform="matrix(1,0,0,-1,93.40794,101.303859)" d="M284.60185-25.51193C284.60185-24.88583 284.09428-24.37827 283.4682-24.37827 282.84208-24.37827 282.3345-24.88583 282.3345-25.51193 282.3345-26.13805 282.84208-26.64561 283.4682-26.64561 284.09428-26.64561 284.60185-26.13805 284.60185-25.51193ZM283.4682-25.51193" fill="#595959"/>
<path transform="matrix(1,0,0,-1,93.40794,101.303859)" d="M186.23883 14.17339C186.23883 15.2694 185.35036 16.15787 184.25435 16.15787 183.15836 16.15787 182.26987 15.2694 182.26987 14.17339 182.26987 13.0774 183.15836 12.1889 184.25435 12.1889 185.35036 12.1889 186.23883 13.0774 186.23883 14.17339ZM184.25435 14.17339"/>
<use data-text="q" xlink:href="#font_2_1" transform="matrix(6.973848,0,0,-6.973848,273.8924,80.8372)"/>
<use data-text="1" xlink:href="#font_3_1" transform="matrix(4.98132,0,0,-4.98132,277.54389,81.83346)"/>
<path transform="matrix(1,0,0,-1,93.40794,101.303859)" d="M208.63263 15.59082C208.63263 16.53012 207.87119 17.29156 206.93189 17.29156 205.99259 17.29156 205.23116 16.53012 205.23116 15.59082 205.23116 14.65152 205.99259 13.89009 206.93189 13.89009 207.87119 13.89009 208.63263 14.65152 208.63263 15.59082ZM206.93189 15.59082"/>
<use data-text="q" xlink:href="#font_2_1" transform="matrix(6.973848,0,0,-6.973848,296.56993,79.41978)"/>
<use data-text="2" xlink:href="#font_3_2" transform="matrix(4.98132,0,0,-4.98132,300.22145,80.41604)"/>
<path transform="matrix(1,0,0,-1,93.40794,101.303859)" d="M225.35713 14.17339C225.35713 14.95622 224.72254 15.5908 223.93972 15.5908 223.15689 15.5908 222.5223 14.95622 222.5223 14.17339 222.5223 13.39056 223.15689 12.75597 223.93972 12.75597 224.72254 12.75597 225.35713 13.39056 225.35713 14.17339ZM223.93972 14.17339"/>
<use data-text="q" xlink:href="#font_2_1" transform="matrix(6.973848,0,0,-6.973848,313.57774,80.8372)"/>
<use data-text="3" xlink:href="#font_3_3" transform="matrix(4.98132,0,0,-4.98132,317.22926,81.83346)"/>
<path transform="matrix(1,0,0,-1,93.40794,101.303859)" d="M233.57752 13.0397C233.57752 13.66582 233.06995 14.17337 232.44384 14.17337 231.81774 14.17337 231.31017 13.66582 231.31017 13.0397 231.31017 12.41359 231.81774 11.90604 232.44384 11.90604 233.06995 11.90604 233.57752 12.41359 233.57752 13.0397ZM232.44384 13.0397"/>
<path transform="matrix(1,0,0,-1,93.40794,101.303859)" d="M236.83797 12.75595C236.83797 13.30396 236.39374 13.74818 235.84574 13.74818 235.29773 13.74818 234.8535 13.30396 234.8535 12.75595 234.8535 12.20796 235.29773 11.76372 235.84574 11.76372 236.39374 11.76372 236.83797 12.20796 236.83797 12.75595ZM235.84574 12.75595"/>
<path transform="matrix(1,0,0,-1,93.40794,101.303859)" stroke-width="1.19553" stroke-linecap="butt" stroke-dasharray="2.98883,2.98883" stroke-miterlimit="10" stroke-linejoin="miter" fill="none" stroke="#ff0000" d="M243.21575 12.75595C243.21575 14.79126 241.56583 16.44118 239.53054 16.44118 237.49523 16.44118 235.8453 14.79126 235.8453 12.75595 235.8453 10.72066 237.49523 9.07074 239.53054 9.07074 241.56583 9.07074 243.21575 10.72066 243.21575 12.75595ZM239.53054 12.75595"/>
<use data-text="&#x221a;" xlink:href="#font_5_8" transform="matrix(8.966376,0,0,-8.966376,341.2772,83.05205)" fill="#ff0000"/>
<path transform="matrix(1,0,0,-1,319.86927,61.16542)" stroke-width=".378585" stroke-linecap="butt" stroke-miterlimit="10" stroke-linejoin="miter" fill="none" stroke="#ff0000" d="M29.08742-21.69734H33.69512"/>
<use data-text="2" xlink:href="#font_9_2" transform="matrix(8.966376,0,0,-8.966376,348.9567,90.47172)" fill="#ff0000"/>
<use data-text="/" xlink:href="#font_4_2" transform="matrix(8.966376,0,0,-8.966376,357.14814,90.47172)" fill="#ff0000"/>
<use data-text="&#x2208;" xlink:href="#font_5_4" transform="matrix(8.966376,0,0,-8.966376,356.1242,90.47172)" fill="#ff0000"/>
<use data-text="Q" xlink:href="#font_8_1" transform="matrix(8.966376,0,0,-8.966376,364.82765,90.47172)" fill="#ff0000"/>
<use data-text="q" xlink:href="#font_4_3" transform="matrix(8.966376,0,0,-8.966376,270.34825,163.9781)"/>
<use data-text="n" xlink:href="#font_6_2" transform="matrix(5.977584,0,0,-5.977584,274.46574,164.97435)"/>
<use data-text="C" xlink:href="#font_10_42" transform="matrix(8.966376,0,0,-8.966376,282.64015,163.9781)"/>
<use data-text="a" xlink:href="#font_10_28" transform="matrix(8.966376,0,0,-8.966376,289.29319,163.9781)"/>
<use data-text="u" xlink:href="#font_10_109" transform="matrix(8.966376,0,0,-8.966376,293.9019,163.9781)"/>
<use data-text="c" xlink:href="#font_10_43" transform="matrix(8.966376,0,0,-8.966376,299.0217,163.9781)"/>
<use data-text="h" xlink:href="#font_10_63" transform="matrix(8.966376,0,0,-8.966376,302.8683,163.9781)"/>
<use data-text="y" xlink:href="#font_10_118" transform="matrix(8.966376,0,0,-8.966376,307.72807,163.9781)"/>
<use data-text="," xlink:href="#font_10_45" transform="matrix(8.966376,0,0,-8.966376,311.8167,163.9781)"/>
<use data-text="n" xlink:href="#font_10_77" transform="matrix(8.966376,0,0,-8.966376,317.4476,163.9781)"/>
<use data-text="o" xlink:href="#font_10_81" transform="matrix(8.966376,0,0,-8.966376,322.56739,163.9781)"/>
<use data-text="l" xlink:href="#font_10_72" transform="matrix(8.966376,0,0,-8.966376,330.2516,163.9781)"/>
<use data-text="i" xlink:href="#font_10_66" transform="matrix(8.966376,0,0,-8.966376,332.81599,163.9781)"/>
<use data-text="m" xlink:href="#font_10_75" transform="matrix(8.966376,0,0,-8.966376,335.38038,163.9781)"/>
<use data-text="i" xlink:href="#font_10_66" transform="matrix(8.966376,0,0,-8.966376,343.05558,163.9781)"/>
<use data-text="t" xlink:href="#font_10_105" transform="matrix(8.966376,0,0,-8.966376,345.61997,163.9781)"/>
<use data-text="i" xlink:href="#font_10_66" transform="matrix(8.966376,0,0,-8.966376,352.28199,163.9781)"/>
<use data-text="n" xlink:href="#font_10_77" transform="matrix(8.966376,0,0,-8.966376,354.84638,163.9781)"/>
<use data-text="Q" xlink:href="#font_8_1" transform="matrix(8.966376,0,0,-8.966376,363.04164,163.9781)"/>
<use data-text="Q" xlink:href="#font_8_1" transform="matrix(9.96264,0,0,-9.96264,247.16603,55.71579)" fill="#595959"/>
<use data-text="H" xlink:href="#font_10_62" transform="matrix(8.966376,0,0,-8.966376,114.34871,196.58898)"/>
<use data-text="i" xlink:href="#font_10_66" transform="matrix(8.966376,0,0,-8.966376,121.26178,196.58898)"/>
<use data-text="l" xlink:href="#font_10_72" transform="matrix(8.966376,0,0,-8.966376,123.826168,196.58898)"/>
<use data-text="b" xlink:href="#font_10_35" transform="matrix(8.966376,0,0,-8.966376,126.39055,196.58898)"/>
<use data-text="e" xlink:href="#font_10_50" transform="matrix(8.966376,0,0,-8.966376,131.77037,196.58898)"/>
<use data-text="r" xlink:href="#font_10_96" transform="matrix(8.966376,0,0,-8.966376,135.86801,196.58898)"/>
<use data-text="t" xlink:href="#font_10_105" transform="matrix(8.966376,0,0,-8.966376,139.47249,196.58898)"/>
<use data-text=":" xlink:href="#font_10_44" transform="matrix(8.966376,0,0,-8.966376,143.05905,196.58898)"/>
<use data-text="&#x2225;" xlink:href="#font_5_7" transform="matrix(8.966376,0,0,-8.966376,149.72405,196.58898)"/>
<use data-text="x" xlink:href="#font_4_4" transform="matrix(8.966376,0,0,-8.966376,154.33173,196.58898)"/>
<use data-text="n" xlink:href="#font_6_2" transform="matrix(5.977584,0,0,-5.977584,159.55518,197.58522)"/>
<use data-text="&#x2212;" xlink:href="#font_5_1" transform="matrix(8.966376,0,0,-8.966376,166.70195,196.58898)"/>
<use data-text="x" xlink:href="#font_4_4" transform="matrix(8.966376,0,0,-8.966376,175.91733,196.58898)"/>
<use data-text="m" xlink:href="#font_6_1" transform="matrix(5.977584,0,0,-5.977584,181.14078,197.58522)"/>
<use data-text="&#x2225;" xlink:href="#font_5_7" transform="matrix(8.966376,0,0,-8.966376,188.17685,196.58898)"/>
<use data-text="&#x2192;" xlink:href="#font_5_2" transform="matrix(8.966376,0,0,-8.966376,195.33203,196.58898)"/>
<use data-text="0" xlink:href="#font_9_1" transform="matrix(8.966376,0,0,-8.966376,207.11959,196.58898)"/>
<use data-text="&#x21d2;" xlink:href="#font_5_3" transform="matrix(8.966376,0,0,-8.966376,216.84693,196.58898)"/>
<use data-text="&#x2203;" xlink:href="#font_5_5" transform="matrix(8.966376,0,0,-8.966376,231.16625,196.58898)"/>
<use data-text="x" xlink:href="#font_4_4" transform="matrix(8.966376,0,0,-8.966376,237.83753,196.58898)"/>
<use data-text="&#x2208;" xlink:href="#font_5_4" transform="matrix(8.966376,0,0,-8.966376,245.6208,196.58898)"/>
<use data-text="H" xlink:href="#font_5_6" transform="matrix(8.966376,0,0,-8.966376,254.31819,196.58898)"/>
<use data-text="," xlink:href="#font_4_1" transform="matrix(8.966376,0,0,-8.966376,262.1872,196.58898)"/>
<use data-text="x" xlink:href="#font_4_4" transform="matrix(8.966376,0,0,-8.966376,269.35133,196.58898)"/>
<use data-text="n" xlink:href="#font_6_2" transform="matrix(5.977584,0,0,-5.977584,274.58186,197.58522)"/>
<use data-text="&#x2192;" xlink:href="#font_5_2" transform="matrix(8.966376,0,0,-8.966376,282.2406,196.58898)"/>
<use data-text="x" xlink:href="#font_4_4" transform="matrix(8.966376,0,0,-8.966376,294.0158,196.58898)"/>
</svg>
