<svg xmlns="http://www.w3.org/2000/svg" xmlns:xlink="http://www.w3.org/1999/xlink" xmlns:inkscape="http://www.inkscape.org/namespaces/inkscape" version="1.1" width="356.56" height="195.22" viewBox="0 0 356.56 195.22">
<defs>
<path id="font_1_1" d="M.2679901 .31362916H.3039856L.45399476 .08192444C.46398927 .06594849 .48799134 .026992798 .49899293 .011993408 .5059967 0 .5089874 0 .5319977 0H.66999819C.6879883 0 .7029877 0 .7029877 .017990113 .7029877 .025985718 .69699099 .032989503 .6879883 .034988405 .651001 .04298401 .60198977 .10890198 .5779877 .14085388 .57099917 .15083313 .5209961 .2167511 .45399476 .32463075 .54299929 .34062196 .6289978 .37861634 .6289978 .4975891 .6289978 .63656619 .48199464 .6845703 .3639984 .6845703H.049987794C.03199768 .6845703 .015991211 .6845703 .015991211 .66656497 .015991211 .64956668 .034988405 .64956668 .042999269 .64956668 .099990848 .64956668 .10499573 .64256289 .10499573 .5925751V.091918949C.10499573 .04197693 .099990848 .034988405 .042999269 .034988405 .034988405 .034988405 .015991211 .034988405 .015991211 .017990113 .015991211 0 .03199768 0 .049987794 0H.32398988C.34199525 0 .35699464 0 .35699464 .017990113 .35699464 .034988405 .33999635 .034988405 .32899476 .034988405 .27198792 .034988405 .2679901 .04298401 .2679901 .091918949V.31362916M.46099855 .36262513C.4889984 .39961244 .49198915 .4526062 .49198915 .4965973 .49198915 .5445862 .48599244 .59757998 .45399476 .63856509 .49499513 .6295624 .59399417 .5985718 .59399417 .4975891 .59399417 .43260194 .56399539 .3816223 .46099855 .36262513M.2679901 .59558108C.2679901 .61657717 .2679901 .64956668 .32998658 .64956668 .4149933 .64956668 .45700074 .614563 .45700074 .4965973 .45700074 .36761476 .42599488 .3486328 .2679901 .3486328V.59558108M.13198853 .034988405C.13999939 .052963258 .13999939 .08093262 .13999939 .089920047V.594574C.13999939 .6045685 .13999939 .6315613 .13198853 .64956668H.24598694C.23298645 .6335602 .23298645 .61357119 .23298645 .5985718V.089920047C.23298645 .079940799 .23298645 .052963258 .24099732 .034988405H.13198853M.34498597 .31362916C.35198976 .31462098 .35598756 .31562806 .3639984 .31562806 .3789978 .31562806 .40098573 .31762696 .41600038 .31962586 .43099977 .2956543 .5389862 .117889408 .621994 .034988405H.5249939L.34498597 .31362916Z"/>
<path id="font_2_4" d="M.47299195 .31976319C.47299195 .38682557 .46998597 .47288514 .43499757 .5479431 .3909912 .64201357 .31498719 .6660156 .25698854 .6660156 .19699097 .6660156 .12098694 .64201357 .07699585 .5459442 .04499817 .47688294 .039993287 .39582826 .039993287 .31976319 .039993287 .25471498 .041992189 .15765381 .084991458 .07858276 .13198853-.0064697267 .20999146-.022460938 .2559967-.022460938 .32099916-.022460938 .394989 .0055389406 .43699647 .097595218 .46699525 .1646576 .47299195 .23971558 .47299195 .31976319M.25698854 .002532959C.22698975 .002532959 .15499878 .016540528 .13598633 .12962342 .12599182 .18867493 .12599182 .2747345 .12599182 .33177186 .12599182 .39982606 .12599182 .47888185 .13798523 .53393557 .1579895 .6230011 .22200012 .64100649 .2559967 .64100649 .2939911 .64100649 .35699464 .62098696 .37599183 .5279236 .3869934 .47288514 .3869934 .39482118 .3869934 .33177186 .3869934 .2697296 .3869934 .18566895 .3769989 .12661743 .35598756 .012542725 .28199769 .002532959 .25698854 .002532959Z"/>
<path id="font_3_46" d="M.72698977 .33580018C.72698977 .52568057 .58799746 .6826172 .4119873 .6826172H.039993287V.6516113H.06298828C.13999939 .6516113 .14199829 .64060977 .14199829 .6036377V.07896423C.14199829 .041992189 .13999939 .0309906 .06298828 .0309906H.039993287V0H.4119873C.58499148 0 .72698977 .1479187 .72698977 .33580018M.6279907 .33580018C.6279907 .29483033 .6279907 .18989563 .57299807 .11993408 .5209961 .051986696 .44898988 .0309906 .38598634 .0309906H.27799989C.23098755 .0309906 .22898865 .037994386 .22898865 .07196045V.6106262C.22898865 .64460757 .23098755 .6516113 .27799989 .6516113H.3849945C.48199464 .6516113 .5419922 .6006317 .56900027 .56466677 .61299136 .5066986 .6279907 .43473817 .6279907 .33580018Z"/>
<path id="font_3_66" d="M.25299073 0V.0309906C.18798828 .0309906 .18399048 .035995485 .18399048 .075042728V.4423828L.039993287 .43066407V.3996582C.10398865 .3996582 .11299133 .3936615 .11299133 .3447113V.07695007C.11299133 .0309906 .101989749 .0309906 .035995485 .0309906V0C.08099365 .0019989014 .101989749 .0029907227 .1459961 .0029907227 .1619873 .0029907227 .20399475 .0029907227 .25299073 0M.19699097 .6028137C.19699097 .63282778 .17298889 .6568146 .14299011 .6568146 .11299133 .6568146 .08898926 .63282778 .08898926 .6028137 .08898926 .57281497 .11299133 .5488281 .14299011 .5488281 .17298889 .5488281 .19699097 .57281497 .19699097 .6028137Z"/>
<path id="font_3_98" d="M.36999513 .12831116C.36999513 .17330933 .34999085 .20030213 .32798768 .22329712 .2939911 .25628663 .2579956 .26327516 .18399048 .2772827 .1579895 .28227235 .084991458 .29527284 .084991458 .35224916 .084991458 .38424684 .10798645 .426239 .19898987 .426239 .30699159 .426239 .31399537 .34326173 .31599427 .31826783 .31698609 .3062744 .31698609 .3002777 .32998658 .3002777 .34399415 .3002777 .34399415 .30726625 .34399415 .32626344V.4222412C.34399415 .4392395 .34399415 .4482422 .33198548 .4482422 .32699586 .4482422 .32499696 .4482422 .31199647 .43623353 .30999757 .43423463 .30099488 .42523194 .29499818 .4202423 .2639923 .44223023 .23298645 .4482422 .19898987 .4482422 .066986087 .4482422 .033996583 .37524415 .033996583 .32426454 .033996583 .29226686 .04798889 .26628114 .070999149 .24429322 .10499573 .21330261 .14299011 .20629883 .19400025 .19729615 .24499512 .18730164 .2619934 .18431092 .28399659 .16731262 .2939911 .15931702 .31900025 .14031983 .31900025 .10229492 .31900025 .014251709 .21798706 .014251709 .20399475 .014251709 .101989749 .014251709 .07598877 .0993042 .06399536 .15332031 .06098938 .16331482 .05999756 .16931153 .04798889 .16931153 .033996583 .16931153 .033996583 .16131592 .033996583 .14331055V.01524353C.033996583-.0017547608 .033996583-.0107421879 .04598999-.0107421879 .051986696-.0107421879 .052993776-.009750366 .070999149 .009246826 .07499695 .01524353 .085998538 .028259278 .09098816 .03326416 .1329956-.007751465 .1789856-.0107421879 .20399475-.0107421879 .32699586-.0107421879 .36999513 .061279298 .36999513 .12831116Z"/>
<path id="font_3_43" d="M.4269867 .11936951C.4269867 .13139344 .41600038 .13139344 .41299439 .13139344 .4019928 .13139344 .4019928 .12937927 .3959961 .11236572 .37298585 .043289186 .31698609 .01725769 .2659912 .01725769 .20199585 .01725769 .11999512 .06932068 .11999512 .21749878 .11999512 .3735962 .19999695 .42022706 .2599945 .42022706 .272995 .42022706 .32699586 .41825868 .3639984 .39356996 .34298707 .3895874 .32299806 .3755951 .32299806 .34658814 .32299806 .32058717 .34298707 .30059815 .36898805 .30059815 .394989 .30059815 .41600038 .31759645 .41600038 .34858705 .41600038 .4103546 .34599305 .4482422 .2579956 .4482422 .12998963 .4482422 .033996583 .3415985 .033996583 .2164917 .033996583 .08734131 .13798523-.0107421879 .2559967-.0107421879 .394989-.0107421879 .4269867 .11036682 .4269867 .11936951Z"/>
<path id="font_3_96" d="M.37298585 .3798828C.37298585 .41236878 .34298707 .4423828 .2979889 .4423828 .23799134 .4423828 .19599915 .40037538 .17298889 .33787538H.17199707V.4423828L.02999878 .43066407V.3996582C.09799194 .3996582 .10699463 .3927307 .10699463 .34387208V.07698059C.10699463 .0309906 .09599304 .0309906 .02999878 .0309906V0C.08299255 .0019989014 .09599304 .0029907227 .14698792 .0029907227L.27398683 0V.0309906H.2539978C.18099976 .0309906 .17799378 .041992189 .17799378 .07897949V.22891236C.17799378 .26989747 .18899536 .4166565 .30299378 .4166565V.4156494C.30099488 .4146576 .2849884 .40264894 .2849884 .37887574 .2849884 .35186769 .30599977 .33486939 .32899476 .33486939 .34999085 .33486939 .37298585 .34986878 .37298585 .3798828Z"/>
<path id="font_3_50" d="M.4269867 .11936951C.4269867 .12637329 .42199708 .13237 .41299439 .13237 .40299989 .13237 .3999939 .12536621 .39898683 .12136841 .36499024 .019256592 .27598573 .01725769 .26098634 .01725769 .21299744 .01725769 .17199707 .044281007 .14898682 .078323367 .115997318 .12736511 .114990238 .18743897 .114990238 .22949219H.3999939C.42199708 .22949219 .4269867 .22949219 .4269867 .25048829 .4269867 .35333253 .37098695 .4482422 .24299622 .4482422 .12298584 .4482422 .0289917 .3443451 .0289917 .22047425 .0289917 .08932495 .13398743-.0107421879 .2559967-.0107421879 .37799073-.0107421879 .4269867 .096343997 .4269867 .11936951M.35899354 .253479H.115997318C.125 .40725709 .21499634 .42323304 .24299622 .42323304 .2979889 .42323304 .35798646 .38130189 .35899354 .253479Z"/>
<path id="font_3_105" d="M.34199525 .12408447V.18099976H.31399537V.1270752C.31399537 .05319214 .2829895 .01725769 .24699402 .01725769 .17999268 .01725769 .17999268 .1051178 .17999268 .12309265V.3996582H.32499696V.43066407H.17999268V.6142578H.1519928C.15098572 .5304413 .115997318 .42765809 .018997193 .4246521V.3996582H.10598755V.12408447C.10598755 .012252808 .18699646-.0107421879 .23999024-.0107421879 .30699159-.011001587 .34199525 .052993776 .34199525 .12399292V.12408447Z"/>
<path id="font_3_44" d="M.19599915 .3766632C.19599915 .406662 .17199707 .43066407 .14199829 .43066407 .11199951 .43066407 .08799744 .406662 .08799744 .3766632 .08799744 .34765626 .11199951 .32266236 .14199829 .32266236 .17199707 .32266236 .19599915 .34765626 .19599915 .3766632M.19599915 .053985597C.19599915 .08299255 .17199707 .10798645 .14199829 .10798645 .11199951 .10798645 .08799744 .08299255 .08799744 .053985597 .08799744 .023986817 .11199951 0 .14199829 0 .17199707 0 .19599915 .023986817 .19599915 .053985597Z"/>
<path id="font_3_63" d="M.5469971 0V.0309906C.49598695 .03125 .47099305 .03125 .46998597 .0622406V.25431825C.46998597 .3373413 .46998597 .36636354 .44198609 .4013672 .4189911 .42938233 .3809967 .4423828 .33099366 .4423828 .2639923 .4423828 .21499634 .40737916 .18399048 .35134889H.18299866V.69433596L.034988405 .6826172V.6516113C.102996829 .6516113 .11199951 .64463809 .11199951 .59580996V.077041629C.11199951 .0309906 .100997928 .0309906 .034988405 .0309906V0C.08198547 .0019989014 .100997928 .0029907227 .14898682 .0029907227 .19699097 .0029907227 .20999146 .0019989014 .2630005 0V.0309906C.19699097 .0309906 .18598938 .0309906 .18598938 .077041629V.2592163C.18598938 .36532594 .26098634 .41737367 .32398988 .41737367 .3829956 .41737367 .3959961 .3683319 .3959961 .30825807V.077041629C.3959961 .0309906 .3849945 .0309906 .31900025 .0309906V0C.3659973 .0019989014 .3849945 .0029907227 .43299867 .0029907227 .48098756 .0029907227 .49398805 .0019989014 .5469971 0Z"/>
<path id="font_3_28" d="M.49699403 .089141849V.14515686H.46899415V.090148929C.46899415 .07914734 .46899415 .029129029 .43299867 .029129029 .39698792 .029129029 .39698792 .07714844 .39698792 .09315491V.26818849C.39698792 .32521058 .39698792 .3592224 .35198976 .40022279 .31498719 .43322755 .2669983 .4482422 .21699524 .4482422 .1329956 .4482422 .06298828 .40623475 .06298828 .34220887 .06298828 .311203 .083999637 .2942047 .10998535 .2942047 .13699341 .2942047 .1559906 .31420899 .1559906 .34020997 .1559906 .3832245 .11099243 .38822938 .11099243 .38822938 .13798523 .41423036 .18598938 .42323304 .21499634 .42323304 .2659912 .42323304 .32299806 .3852234 .32299806 .29719544V.26419068C.2689972 .26219178 .19400025 .2571869 .1269989 .22518921 .054992677 .19017029 .032989503 .13816834 .032989503 .09814453 .032989503 .01625061 .12998963-.0107421879 .19699097-.0107421879 .27999879-.0107421879 .31799317 .04425049 .33198548 .072250369 .33699037 .030136109 .3659973-.005859375 .40899659-.005859375 .43399049-.005859375 .49699403 .009140015 .49699403 .08912659V.089141849M.32299806 .14112854C.32299806 .04425049 .24798584 .014251709 .20399475 .014251709 .15699768 .014251709 .11299133 .04824829 .11299133 .098236087 .11299133 .16423035 .16999817 .23422241 .32299806 .24023438V.14112854Z"/>
<path id="font_3_75" d="M.83299258 0V.0309906C.7819977 .03125 .7569885 .03125 .7559967 .0622406V.2539215C.7559967 .34077455 .7559967 .36872865 .72299197 .4056549 .70199587 .43037416 .6619873 .4423828 .6159973 .4423828 .5439911 .4423828 .49499513 .40037538 .46699525 .3473816 .45498658 .40637208 .4149933 .4423828 .33099366 .4423828 .25099183 .4423828 .20199585 .39038087 .18099976 .3443756H.17999268V.4423828L.034988405 .43066407V.3996582C.102996829 .3996582 .11199951 .39266969 .11199951 .34370423V.07695007C.11199951 .0309906 .100997928 .0309906 .034988405 .0309906V0C.08198547 .0019989014 .100997928 .0029907227 .14898682 .0029907227 .19699097 .0029907227 .20999146 .0019989014 .2630005 0V.0309906C.19699097 .0309906 .18598938 .0309906 .18598938 .07695007V.25878907C.18598938 .36732484 .2639923 .41737367 .32398988 .41737367 .3789978 .41737367 .39698792 .37834168 .39698792 .30825807V.077041629C.39698792 .0309906 .38598634 .0309906 .31999208 .0309906V0C.36698915 .0019989014 .38598634 .0029907227 .43399049 .0029907227 .48199464 .0029907227 .49499513 .0019989014 .5479889 0V.0309906C.48199464 .0309906 .47099305 .0309906 .47099305 .077041629V.2592163C.47099305 .36732484 .548996 .41737367 .60899356 .41737367 .6639862 .41737367 .6819916 .37834168 .6819916 .30825807V.077041629C.6819916 .0309906 .67099 .0309906 .6049957 .0309906V0C.6519928 .0019989014 .67099 .0029907227 .71899417 .0029907227 .7669983 .0029907227 .7799988 .0019989014 .83299258 0Z"/>
<path id="font_3_81" d="M.48399354 .21324158C.48399354 .34423829 .37998963 .4482422 .25698854 .4482422 .12998963 .4482422 .0289917 .3412323 .0289917 .21324158 .0289917 .08824158 .1329956-.0107421879 .2559967-.0107421879 .3829956-.0107421879 .48399354 .09024048 .48399354 .21324158M.397995 .22224427C.397995 .1852417 .397995 .12724304 .37298585 .08325195 .34498597 .037246705 .29899598 .01725769 .25698854 .01725769 .20698548 .01725769 .16499329 .042251588 .14199829 .08125305 .115997318 .12324524 .114990238 .17623902 .114990238 .22224427 .114990238 .25924684 .114990238 .3162384 .13999939 .35723878 .16999817 .40823365 .21998596 .42323304 .2559967 .42323304 .31298829 .42323304 .35398866 .39123536 .37399293 .35723878 .39698792 .31523133 .397995 .26423646 .397995 .22224427Z"/>
<path id="font_3_77" d="M.5469971 0V.0309906C.49598695 .03125 .47099305 .03125 .46998597 .0622406V.25431825C.46998597 .3373413 .46998597 .36636354 .44198609 .4013672 .4189911 .42938233 .3809967 .4423828 .33099366 .4423828 .23799134 .4423828 .19499207 .37335206 .18099976 .34535218H.17999268V.4423828L.034988405 .43066407V.3996582C.102996829 .3996582 .11199951 .39266969 .11199951 .34370423V.07695007C.11199951 .0309906 .100997928 .0309906 .034988405 .0309906V0C.08198547 .0019989014 .100997928 .0029907227 .14898682 .0029907227 .19699097 .0029907227 .20999146 .0019989014 .2630005 0V.0309906C.19699097 .0309906 .18598938 .0309906 .18598938 .07695007V.25878907C.18598938 .36532594 .26098634 .41737367 .32398988 .41737367 .3829956 .41737367 .3959961 .3683319 .3959961 .30825807V.077041629C.3959961 .0309906 .3849945 .0309906 .31900025 .0309906V0C.3659973 .0019989014 .3849945 .0029907227 .43299867 .0029907227 .48098756 .0029907227 .49398805 .0019989014 .5469971 0Z"/>
<path id="font_3_72" d="M.26098634 0V.0309906C.19499207 .0309906 .18399048 .0309906 .18399048 .07701111V.69433596L.035995485 .6826172V.6516113C.10398865 .6516113 .11299133 .64460757 .11299133 .5956421V.07696533C.11299133 .0309906 .101989749 .0309906 .035995485 .0309906V0C.08299255 .0019989014 .101989749 .0029907227 .147995 .0029907227 .19499207 .0029907227 .21199036 .0019989014 .26098634 0Z"/>
<path id="font_1_2" d="M.25498963 .55018618H.44898988C.46598817 .55018618 .47698976 .55018618 .47698976 .5621948 .47698976 .5751953 .46499635 .5751953 .44599916 .5751953H.26098634C.2679901 .600235 .2679901 .6022339 .27398683 .6272888 .2789917 .64530947 .28799439 .68032839 .28799439 .6823273 .28799439 .69132998 .28199769 .69433596 .27398683 .69433596 .25498963 .69433596 .17599488 .6863251 .1519928 .6843262 .14399719 .68333438 .1329956 .6823273 .1329956 .6633301 .1329956 .6523285 .14299011 .6523285 .15699768 .6523285 .20498657 .6523285 .20698548 .64530947 .20698548 .6352997 .20698548 .62828066 .19799805 .5952301 .19299317 .5751953H.13699341C.116989139 .5751953 .10598755 .5751953 .10598755 .5621948 .10598755 .55018618 .114990238 .55018618 .13398743 .55018618H.18699646L.05899048 .040252687C.054992677 .025253296 .054992677 .023254395 .054992677 .01725769 .054992677-.0047454836 .07199097-.0107421879 .083999637-.0107421879 .102996829-.0107421879 .116989139 .003250122 .12098694 .01625061 .12298584 .021255494 .13398743 .06626892 .13999939 .091278079L.16299439 .18029785C.1659851 .1953125 .17599488 .23332215 .1789856 .24832154 .18399048 .264328 .19099427 .29533387 .19198609 .29833985 .19999695 .31533814 .2539978 .42037965 .35398866 .42037965 .397995 .42037965 .4079895 .3843689 .4079895 .35134889 .4079895 .28933717 .3619995 .16729737 .34399415 .121276859 .33799745 .105285648 .33299256 .091278079 .33299256 .072265628 .33299256 .020248414 .36999513-.0107421879 .4149933-.0107421879 .5109863-.0107421879 .54599 .13728333 .54599 .14329529 .54599 .1532898 .5369873 .1532898 .5339966 .1532898 .5239868 .1532898 .5239868 .15029907 .5189972 .13528443 .48999024 .03326416 .44499208 .011245728 .41799928 .011245728 .39898683 .011245728 .3929901 .023254395 .3929901 .044265748 .3929901 .0692749 .4039917 .09727478 .4099884 .11428833 .4269867 .15829468 .47200013 .27833558 .47200013 .3343506 .47200013 .4073639 .42599488 .4423828 .35699464 .4423828 .32598878 .4423828 .2659912 .43537904 .20899964 .36636354L.25498963 .55018618Z"/>
<path id="font_4_2" d="M.621994 .3703308C.621994 .39935304 .6119995 .4423523 .57598879 .4423523 .5499878 .4423523 .5249939 .4173584 .5249939 .39234925 .5249939 .37634278 .5299988 .37434388 .5379944 .366333 .5509949 .35333253 .57499697 .32832337 .57499697 .27830506 .57499697 .21730042 .5109863 .06324768 .40899659 .06324768 .35299684 .06324768 .32099916 .103256229 .31098939 .14527893 .31098939 .15827942 .34599305 .2303009 .34599305 .26730348 .34599305 .2803192 .33898927 .29231263 .32398988 .29231263 .31599427 .29231263 .30699159 .28831483 .30099488 .28131105 .28199769 .25730897 .272995 .17628479 .272995 .15127564 .23999024 .10525513 .19799805 .06425476 .13798523 .06425476 .07299805 .06425476 .049987794 .119262699 .049987794 .17628479 .049987794 .25230409 .08099365 .31932069 .14399719 .40335084 .1499939 .41134645 .1499939 .41534425 .1499939 .42034913 .1499939 .4293518 .14099121 .4373474 .13198853 .4373474 .12199402 .4373474 .11399841 .4293518 .10899353 .4213562 .053985597 .34432984 .01399231 .23329163 .01399231 .13726807 .01399231 .060256959 .040985109-.0107421879 .1289978-.0107421879 .19198609-.0107421879 .24899292 .04324341 .2789917 .089263919 .2919922 .04824829 .31599427-.0107421879 .3959961-.0107421879 .47299195-.0107421879 .5239868 .052246095 .56199648 .13127136 .58099368 .17028809 .59298709 .21328736 .6029968 .25430299 .61299136 .29832459 .621994 .33932496 .621994 .3703308Z"/>
<path id="font_2_1" d="M.34098817-.23803711C.34098817-.23303223 .33799745-.23002625 .33198548-.22303772 .20298767-.105026248 .1639862 .07498169 .1639862 .24996948 .1639862 .40498353 .19400025 .59298709 .33499146 .72698977 .33898927 .73098757 .34098817 .73399356 .34098817 .7389984 .34098817 .74598696 .33599855 .75 .32899476 .75 .31698609 .75 .22698975 .6779785 .17298889 .568985 .125 .47297669 .100997928 .36997987 .100997928 .25097657 .100997928 .17897034 .10998535 .064971927 .16499329-.053024293 .22399903-.17602539 .31698609-.24902344 .32899476-.24902344 .33599855-.24902344 .34098817-.24502564 .34098817-.23803711Z"/>
<path id="font_4_6" d="M.18899536 .15730286C.19999695 .20431519 .21899414 .2773285 .21998596 .28533937 .22200012 .29133607 .24699402 .33935548 .2829895 .37435914 .31199647 .4013672 .34999085 .41737367 .3889923 .41737367 .44299317 .41737367 .44299317 .36436463 .44299317 .34735108 .44299317 .28633119 .3959961 .16429138 .3849945 .13328552 .37298585 .10227966 .36898805 .0922699 .36898805 .073272708 .36898805 .019256592 .4099884-.0107421879 .45498658-.0107421879 .5509949-.0107421879 .58999636 .1322937 .58999636 .14329529 .58999636 .14828491 .58699038 .1552887 .57699587 .1552887 .56599429 .1552887 .5649872 .15029907 .5609894 .13728333 .5359955 .052261354 .49398805 .014251709 .45799256 .014251709 .45098878 .014251709 .43299867 .014251709 .43299867 .04626465 .43299867 .0712738 .44299317 .09727478 .45098878 .119277957 .47099305 .17030335 .5109863 .27633668 .5109863 .33235169 .5109863 .42137147 .44499208 .4423828 .3919983 .4423828 .29899598 .4423828 .25 .37635804 .23399353 .35536195 .22799683 .40937806 .18699646 .4423828 .13699341 .4423828 .09498596 .4423828 .07398987 .41137696 .05999756 .3843689 .042999269 .34934999 .0289917 .29234315 .0289917 .28833009 .0289917 .2793274 .035995485 .27633668 .042999269 .27633668 .053985597 .27633668 .055999757 .28134156 .06098938 .30134584 .07998657 .3803711 .100997928 .41737367 .1349945 .41737367 .16499329 .41737367 .16499329 .38536073 .16499329 .37036134 .16499329 .34934999 .15699768 .31834413 .15098572 .29234315 .14399719 .2663269 .13398743 .22331238 .12998963 .21131897L.08999634 .04725647C.08299255 .023254395 .08299255 .021255494 .08299255 .018249512 .08299255 .0052490236 .09199524-.0107421879 .11399841-.0107421879 .12799073-.0107421879 .14299011-.0017547608 .1499939 .010253906 .15299988 .01625061 .16099549 .04826355 .1659851 .06826782L.18899536 .15730286Z"/>
<path id="font_2_3" d="M.70599368 .22944641C.7200012 .22944641 .7409973 .22944641 .7409973 .25045777 .7409973 .27246095 .7220001 .27246095 .70599368 .27246095H.42099V.5578003C.42099 .573761 .42099 .59277346 .39898683 .59277346 .37799073 .59277346 .37799073 .57177737 .37799073 .5578003V.27246095H.09199524C.07798767 .27246095 .056991579 .27246095 .056991579 .25144959 .056991579 .22944641 .07598877 .22944641 .09199524 .22944641H.37799073V-.056793214C.37799073-.07279968 .37799073-.091796878 .3999939-.091796878 .42099-.091796878 .42099-.07080078 .42099-.056793214V.22944641H.70599368Z"/>
<path id="font_5_1" d="M.35899354 .6349335C.35899354 .66503909 .35499574 .66503909 .32499696 .66503909 .25898744 .60058596 .15699768 .60058596 .12098694 .60058596V.5615845C.14698792 .5615845 .21299744 .5615845 .272995 .58958438V.08496094C.272995 .051986696 .272995 .038986207 .16999817 .038986207H.1269989V0C.18199158 .0039978029 .2599945 .0039978029 .31599427 .0039978029 .37199403 .0039978029 .44999696 .0039978029 .5049896 0V.038986207H.46199037C.35899354 .038986207 .35899354 .051986696 .35899354 .08496094V.6349335Z"/>
<path id="font_5_2" d="M.5379944 .18702698H.5009918C.49899293 .17301941 .4889984 .10699463 .47399903 .09599304 .46699525 .08999634 .38598634 .08999634 .37199403 .08999634H.18499756L.31298829 .19403076C.34700013 .22103882 .43598939 .28504945 .46699525 .31506349 .49699403 .3450775 .5379944 .39608766 .5379944 .46710206 .5379944 .5920563 .4249878 .66503909 .29100038 .66503909 .1619873 .66503909 .07199097 .58006289 .07199097 .48609925 .07199097 .43510438 .114990238 .42910768 .12599182 .42910768 .15098572 .42910768 .17999268 .44709779 .17999268 .48310853 .17999268 .50509646 .16699219 .5371094 .12298584 .5371094 .1459961 .5880585 .20698548 .6260376 .27598573 .6260376 .3809967 .6260376 .43699647 .5480957 .43699647 .46710206 .43699647 .39608766 .3899994 .32305909 .31999208 .25904847L.08299255 .041992189C.07299805 .03199768 .07199097 .0309906 .07199097 0H.5069885L.5379944 .18702698Z"/>
<path id="font_2_2" d="M.2979889 .25097657C.2979889 .3329773 .28599549 .4429779 .23399353 .5539856 .1749878 .6769867 .08198547 .75 .069992069 .75 .05999756 .75 .057998659 .74198916 .057998659 .7389984 .057998659 .73399356 .05999756 .73098757 .066986087 .72398379 .125 .6719818 .23498535 .5359802 .23498535 .25097657 .23498535 .10797119 .20899964-.091033939 .06399536-.22602844 .06199646-.22903443 .057998659-.23303223 .057998659-.23803711 .057998659-.24102783 .05999756-.24902344 .069992069-.24902344 .08198547-.24902344 .17199707-.17703247 .22599793-.06802368 .27398683 .02796936 .2979889 .13098145 .2979889 .25097657Z"/>
<path id="font_6_1" d="M.7919922 .23097229C.7979889 .24395752 .7979889 .24797058 .7979889 .2489624 .7979889 .2549591 .7939911 .26296998 .7809906 .26296998 .7789917 .26296998 .7739868 .26296998 .769989 .2589569 .7679901 .256958 .7669983 .2559662 .7549896 .22996521 .6899872 .08598328 .6389923 .035995485 .47599793 .035995485H.30599977C.2749939 .035995485 .27398683 .036987306 .27398683 .04598999 .27398683 .04699707 .27398683 .051986696 .27799989 .066986087L.34498597 .33496095H.45700074C.5359955 .33496095 .5479889 .32196046 .5479889 .2889557 .5479889 .2779541 .54499819 .2609558 .54100039 .24395752 .5379944 .2349701 .5379944 .23396302 .5379944 .23196411 .5379944 .22996521 .5389862 .2179718 .5549927 .2179718 .56900027 .2179718 .56999209 .22296143 .57398989 .23995972L.6289978 .45884706C.6319885 .4708252 .6319885 .4728241 .6319885 .47381593 .6319885 .48381043 .6239929 .48780824 .61499026 .48780824 .60198977 .48780824 .6009979 .4828186 .59498599 .46183778 .57398989 .38394166 .5439911 .37095643 .45899964 .37095643H.35398866L.4139862 .60865786C.42199708 .6396179 .4229889 .64260867 .46499635 .64260867H.6279907C.7589874 .64260867 .7919922 .61564639 .7919922 .52674868 .7919922 .50079348 .7879944 .4708252 .7879944 .46583558 .7879944 .45783998 .79100039 .44885255 .8049927 .44885255 .81999209 .44885255 .82099917 .45783998 .82299807 .474823L.84098818 .64860537C.84399417 .6786041 .83699038 .6786041 .81199648 .6786041H.2619934C.24198914 .6786041 .22999573 .6786041 .22999573 .6566162 .22999573 .64260867 .24099732 .64260867 .2630005 .64260867 .2789917 .64260867 .2829895 .64260867 .30099488 .64060977 .32099916 .63861086 .32299806 .63661196 .32299806 .6266327 .32299806 .61964419 .31999208 .60964968 .31900025 .60466006L.18798828 .08198547C.17799378 .04298401 .1769867 .035995485 .09899902 .035995485 .08099365 .035995485 .068984989 .035995485 .068984989 .01399231 .068984989 0 .08099365 0 .09899902 0H.6639862C.68899539 0 .6899872 0 .69799807 .017990113L.7919922 .23097229Z"/>
<path id="font_7_1" d="M.6009979 .31976319C.6009979 .3918152 .6009979 .6660156 .33999635 .6660156 .07899475 .6660156 .07899475 .3918152 .07899475 .31976319 .07899475 .2467041 .07899475-.022460938 .33999635-.022460938 .6009979-.022460938 .6009979 .2467041 .6009979 .31976319M.33999635 .010528564C.30299378 .010528564 .21899414 .023544312 .19400025 .12461853 .17999268 .17866516 .1789856 .24971009 .1789856 .33177186 .1789856 .405838 .1789856 .47488404 .19499207 .5319214 .21998596 .6159973 .29699708 .63301089 .33999635 .63301089 .4139862 .63301089 .46699525 .5949707 .4869995 .5249176 .5009918 .47387696 .5009918 .39082337 .5009918 .33177186 .5009918 .26371766 .5009918 .18266297 .48599244 .12261963 .45999146 .025543213 .37998963 .010528564 .33999635 .010528564Z"/>
<path id="font_7_2" d="M.397995 .63591006C.397995 .6660156 .394989 .6660156 .3619995 .6660156 .29100038 .6016083 .17999268 .6016083 .1599884 .6016083H.14299011V.5576172H.1599884C.18299866 .5576172 .24798584 .5606079 .30599977 .58561709V.08596802C.30599977 .054977418 .30599977 .04399109 .19999695 .04399109H.1499939V0C.20498657 .0039978029 .2939911 .0039978029 .35198976 .0039978029 .4099884 .0039978029 .49899293 .0039978029 .55400088 0V.04399109H.5039978C.397995 .04399109 .397995 .054977418 .397995 .08596802V.63591006Z"/>
<path id="font_7_3" d="M.58898928 .19296265H.5469971C.5439911 .17396546 .5339966 .11198425 .5179901 .101989749 .5099945 .09599304 .42599488 .09599304 .41099549 .09599304H.21499634C.2809906 .14497376 .35499574 .20095825 .4149933 .24093628 .5049896 .30291749 .58898928 .36090089 .58898928 .46687318 .58898928 .59495547 .46798707 .6660156 .32499696 .6660156 .18998719 .6660156 .09098816 .58795168 .09098816 .48986817 .09098816 .4378662 .1349945 .42886354 .14898682 .42886354 .17599488 .42886354 .20799256 .4468689 .20799256 .48786927 .20799256 .52386477 .18199158 .543869 .15098572 .546875 .1789856 .59194949 .23699951 .6220093 .3039856 .6220093 .40098573 .6220093 .48199464 .5639038 .48199464 .4658661 .48199464 .3818817 .42399598 .31791688 .34700013 .2529297L.102996829 .04598999C.09298706 .036987306 .09199524 .036987306 .09098816 .02999878V0H.55599978L.58898928 .19296265Z"/>
<path id="font_7_4" d="M.32998658 .3310547C.42199708 .3310547 .48298646 .2737732 .48298646 .17437744 .48298646 .07237244 .41999818 .01852417 .33099366 .01852417 .31999208 .01852417 .20098877 .01852417 .1499939 .070373538 .19099427 .07637024 .20298767 .1073761 .20298767 .13137818 .20298767 .16838074 .1749878 .19238281 .14199829 .19238281 .10998535 .19238281 .07998657 .17137146 .07998657 .12937927 .07998657 .025512696 .19799805-.022460938 .33399964-.022460938 .49798585-.022460938 .59999087 .07637024 .59999087 .17337036 .59999087 .25567628 .5269928 .3260193 .41299439 .35205079 .5329895 .3909912 .5649872 .46684266 .5649872 .5228424 .5649872 .60491946 .46299745 .6660156 .33699037 .6660156 .21398926 .6660156 .114990238 .61395266 .114990238 .5238342 .114990238 .47683717 .15299988 .46484376 .17199707 .46484376 .20098877 .46484376 .22898865 .48583985 .22898865 .5218353 .22898865 .5448303 .21699524 .5728302 .18099976 .57884219 .22399903 .625 .31298829 .628006 .33399964 .628006 .40699769 .628006 .45899964 .5908661 .45899964 .5228424 .45899964 .46484376 .42099 .37402345 .31599427 .368042 .28799439 .3670349 .28399659 .3660431 .2579956 .365036 .24699402 .3640442 .23599243 .36305238 .23599243 .34805299 .23599243 .3310547 .24598694 .3310547 .2639923 .3310547H.32998658Z"/>
<path id="font_7_5" d="M.61698916 .1630249V.20703125H.49198915V.64675906C.49198915 .67074587 .4909973 .6767578 .46499635 .6767578 .44499208 .6767578 .44400025 .67575076 .43299867 .66174319L.06298828 .20703125V.1630249H.3959961V.085006717C.3959961 .054000856 .3959961 .04399109 .30899049 .04399109H.27398683V0C.32099916 .0019989014 .38598634 .0039978029 .44400025 .0039978029 .5019989 .0039978029 .56599429 .0019989014 .6139984 0V.04399109H.57899478C.49198915 .04399109 .49198915 .054000856 .49198915 .085006717V.1630249H.61698916M.4039917 .5688019V.20703125H.10998535L.4039917 .5688019Z"/>
<path id="font_7_6" d="M.19599915 .55078127C.24899292 .53778079 .2939911 .53778079 .30499269 .53778079 .37298585 .53778079 .4229889 .55778506 .44898988 .57177737 .47299195 .583786 .54100039 .6267853 .54100039 .64878848 .54100039 .66378787 .5299988 .66578677 .5269928 .66578677 .5249939 .66578677 .522995 .66578677 .5119934 .66078189 .47399903 .6477814 .4119873 .63378909 .34599305 .63378909 .2889862 .63378909 .23399353 .64378359 .18099976 .66178897 .16999817 .66578677 .16799927 .66578677 .1659851 .66578677 .1519928 .66578677 .1519928 .6537781 .1519928 .63778689V.33763124C.1519928 .32061769 .1519928 .30760194 .17098999 .30760194 .18199158 .30760194 .18299866 .30960084 .19198609 .32061769 .22999573 .36468507 .2829895 .38671876 .35099793 .38671876 .40899659 .38671876 .44099427 .35266114 .45498658 .33163453 .47799684 .2975769 .48298646 .2525177 .48298646 .20446778 .48298646 .16246033 .47898866 .10646057 .43998719 .067489627 .394989 .021530152 .33799745 .01852417 .31599427 .01852417 .25099183 .01852417 .17799378 .04650879 .14698792 .10546875 .18899536 .10845947 .20298767 .13845825 .20298767 .1614685 .20298767 .19346619 .1789856 .21746826 .14698792 .21746826 .125 .21746826 .09098816 .20446778 .09098816 .15846253 .09098816 .0605011 .18699646-.022460938 .31799317-.022460938 .46699525-.022460938 .58898928 .07748413 .58898928 .20146179 .58898928 .3146057 .49198915 .41970826 .35299684 .41970826 .2899933 .41970826 .23899842 .40371705 .19599915 .37068177V.55078127Z"/>
<path id="font_4_3" d="M.19599915 .053985597C.19599915 .08299255 .17298889 .10798645 .14199829 .10798645 .11099243 .10798645 .08799744 .08299255 .08799744 .053985597 .08799744 .024993897 .11099243 0 .14199829 0 .17298889 0 .19599915 .024993897 .19599915 .053985597Z"/>
<path id="font_3_42" d="M.6839905 .23170471C.6839905 .24171448 .6839905 .25073243 .66999819 .25073243 .6569977 .25073243 .6569977 .24372864 .6559906 .2347107 .647995 .082595828 .5279999 .008529663 .4249878 .008529663 .33999635 .008529663 .15899658 .061569215 .15899658 .34179688 .15899658 .6210327 .34098817 .67407229 .42399598 .67407229 .522995 .67407229 .6279907 .5990143 .6519928 .4368744 .6539917 .4238739 .6549988 .41886903 .66799929 .41886903 .6839905 .41886903 .6839905 .4238739 .6839905 .44488526V.67907717C.6839905 .69607546 .6839905 .7050781 .6719971 .7050781 .6649933 .7050781 .6619873 .70207217 .6559906 .69306948L.6049957 .61802676C.57299807 .64904788 .5159912 .7050781 .4149933 .7050781 .22099304 .7050781 .056991579 .5439606 .056991579 .34179688 .056991579 .13563538 .22299195-.022460938 .4149933-.022460938 .58099368-.022460938 .6839905 .11462402 .6839905 .23170471Z"/>
<path id="font_3_109" d="M.5469971 .00024414063V.03125C.47898866 .03125 .46998597 .038253786 .46998597 .087265018V.4423828L.31900025 .43138124V.40037538C.3869934 .40037538 .3959961 .39337159 .3959961 .34436036V.16729737C.3959961 .07826233 .34599305 .014251709 .27398683 .014251709 .19099427 .014251709 .18598938 .057266237 .18598938 .11128235V.4423828L.034988405 .43138124V.40037538C.11199951 .40037538 .11199951 .39736939 .11199951 .3083496V.15829468C.11199951 .09327698 .11199951 .051254274 .1579895 .01625061 .18699646-.003753662 .22799683-.0107421879 .2679901-.0107421879 .31999208-.0107421879 .36898805 .012252808 .397995 .072265628H.39898683V-.0107421879L.5469971 .00024414063Z"/>
<path id="font_3_55" d="M.3659973 .6340637C.3659973 .67207339 .32798768 .7050781 .272995 .7050781 .19499207 .7046509 .11299133 .6456604 .11299133 .5456543V.43066407H.033996583V.3996582H.11299133V.07695007C.11299133 .0309906 .101989749 .0309906 .035995485 .0309906V0C.08898926 .0019989014 .101989749 .0029907227 .15299988 .0029907227L.27999879 0V.0309906H.2599945C.18699646 .0309906 .18399048 .04197693 .18399048 .078948978V.3996582H.2999878V.43066407H.18099976V.5436554C.18099976 .6350708 .22999573 .68006899 .272995 .68006899 .2829895 .68006899 .29299928 .67807009 .30299378 .67407229 .29299928 .67007449 .2769928 .6580658 .2769928 .6330719 .2769928 .6070709 .29599 .58906558 .32099916 .58906558 .34799195 .58906558 .3659973 .60806277 .3659973 .6340637Z"/>
<path id="font_3_84" d="M.5359955 .21557617C.5359955 .34158326 .43798829 .4423828 .31999208 .4423828 .2659912 .4423828 .21598816 .42037965 .17799378 .37858583V.4423828L.02999878 .43066407V.3996582C.100997928 .3996582 .10699463 .39363099 .10699463 .35058595V-.116989139C.10699463-.16308594 .09599304-.16308594 .02999878-.16308594V-.1940918C.07699585-.1920929 .09599304-.19110108 .14399719-.19110108 .19198609-.19110108 .20498657-.1920929 .2579956-.1940918V-.16308594C.19198609-.16308594 .18099976-.16308594 .18099976-.116989139V.048187257C.20698548 .022232056 .24099732-.0107421879 .30699159-.0107421879 .42599488-.0107421879 .5359955 .085113529 .5359955 .21585083V.21557617M.44999696 .21585083C.44999696 .1020813 .38198854 .014251709 .30099488 .014251709 .2559967 .014251709 .21798706 .04019165 .19400025 .07513428 .18099976 .09509277 .18099976 .097091678 .18099976 .11604309V.3356018C.21499634 .39437867 .269989 .41436769 .31199647 .41436769 .3899994 .41436769 .44999696 .32437135 .44999696 .21636963V.21585083Z"/>
<path id="font_4_5" d="M.31399537 .33789063H.41600038C.4869995 .33789063 .5019989 .32588197 .5019989 .29289247 .5019989 .28489686 .49899293 .26391603 .49499513 .24790955 .49299623 .24191284 .49198915 .23692322 .49198915 .23391724 .49198915 .23292542 .49198915 .220932 .5049896 .220932 .5169983 .220932 .5179901 .22792053 .5219879 .24291992L.57499697 .45280458C.57899478 .46678163 .57899478 .46878053 .57899478 .47277833 .57899478 .48077394 .57299807 .48576356 .5649872 .48576356 .55400088 .48576356 .5529938 .47976686 .5479889 .46080018 .5279999 .38186646 .49699403 .36888124 .4169922 .36888124H.32199098C.33699037 .43081666 .38398744 .620636 .3889923 .6326294 .394989 .64660647 .4019928 .64860537 .43499757 .64860537H.58200076C.70700076 .64860537 .7350006 .6186371 .7350006 .5377197 .7350006 .5067444 .7299957 .47677613 .7299957 .4697876 .7299957 .461792 .7350006 .45480348 .74398806 .45480348 .7559967 .45480348 .7569885 .461792 .7589874 .47976686L.7799988 .66560366C.7799988 .6796112 .769989 .6796112 .7509918 .6796112H.23599243C.21699524 .6796112 .20599365 .6796112 .20599365 .66160586 .20599365 .64860537 .21598816 .64860537 .23699951 .64860537 .24099732 .64860537 .25898744 .64860537 .2749939 .64660647 .29699708 .6436157 .2979889 .6396179 .2979889 .6306305 .2979889 .6276245 .2979889 .6256256 .29299928 .60765078L.1599884 .07597351C.15098572 .039993287 .14898682 .0309906 .07398987 .0309906 .054992677 .0309906 .04399109 .0309906 .04399109 .0129852299 .04399109 0 .053985597 0 .07199097 0H.59999087C.6179962 0 .6199951 0 .6230011 .0029907227 .6259918 .004989624 .6269989 .005996704 .6329956 .018997193 .644989 .04598999 .7299957 .23591614 .7299957 .24491883 .7299957 .25291444 .723999 .2579193 .71598818 .2579193 .70799258 .2579193 .70700076 .25691224 .69599917 .23391724 .6339874 .09396362 .59298709 .0309906 .4269867 .0309906H.27398683C.2599945 .0309906 .2579956 .0309906 .2539978 .03199768 .24398804 .032989503 .24099732 .033996583 .24099732 .040985109 .24099732 .04399109 .24099732 .04598999 .24598694 .0639801L.31399537 .33789063Z"/>
<path id="font_8_2" d="M.69200137 .326828C.70098879 .3308258 .71199038 .3368225 .71199038 .349823 .71199038 .3628235 .7049866 .3668213 .69400027 .37182618L.12799073 .64482119C.11399841 .65182498 .10899353 .65182498 .10699463 .65182498 .09599304 .65182498 .085998538 .64282229 .085998538 .62983706 .085998538 .61683657 .09700012 .6108246 .10598755 .6068268L.6409912 .35083009 .10998535 .094818118C.09399414 .08682251 .085998538 .08381653 .085998538 .06982422 .085998538 .061813356 .09199524 .048828126 .10798645 .048828126 .10899353 .048828126 .11399841 .048828126 .12599182 .05482483L.69200137 .326828M.6749878-.15429688C.69200137-.15429688 .71199038-.15429688 .71199038-.13330078 .71199038-.11129761 .6899872-.11129761 .6749878-.11129761H.12298584C.10798645-.11129761 .085998538-.11129761 .085998538-.13330078 .085998538-.15429688 .10598755-.15429688 .12298584-.15429688H.6749878Z"/>
<path id="font_8_3" d="M.8509979 .22944641C.7319946 .14404297 .70799258 .012786865 .70799258 .0017852783 .70799258-.012207031 .72099307-.012207031 .72898867-.012207031 .7409973-.012207031 .7480011-.012207031 .7509918 .00079345706 .7779999 .118927 .8470001 .19729615 .95599368 .23745728 .96199038 .23945618 .9700012 .2424469 .9700012 .25045777 .9700012 .25946046 .96299746 .26245118 .95700076 .26445008 .83099368 .31137086 .7739868 .400177 .7509918 .4981537 .7480011 .512146 .74398806 .5131531 .72898867 .5131531 .7200012 .5131531 .70799258 .5131531 .70799258 .4991455 .70799258 .48814393 .7319946 .3562622 .8509979 .27246095H.09399414C.07699585 .27246095 .056991579 .27246095 .056991579 .25144959 .056991579 .22944641 .07598877 .22944641 .09399414 .22944641H.8509979Z"/>
<path id="font_8_5" d="M.5209961 .27322389C.47399903 .33322145 .45700074 .35421754 .41999818 .3822174 .35198976 .43421937 .2919922 .44221498 .25498963 .44221498 .13699341 .44221498 .056991579 .33322145 .056991579 .21524048 .056991579 .100250247 .13398743-.0107421879 .2519989-.0107421879 .3869934-.0107421879 .47099305 .10723877 .5059967 .15823365 .5529938 .09825134 .56999209 .07723999 .6069946 .04925537 .6749878-.002746582 .7350006-.0107421879 .7719879-.0107421879 .8899994-.0107421879 .9700012 .09825134 .9700012 .2162323 .9700012 .33122254 .8929901 .44221498 .7749939 .44221498 .6399994 .44221498 .55599978 .32421876 .5209961 .27322389M.5499878 .2372284C.59599307 .31622315 .673996 .40722657 .7819977 .40722657 .8869934 .40722657 .94499209 .30722047 .94499209 .2162323 .94499209 .115249637 .87098696 .040252687 .7879944 .040252687 .70399478 .040252687 .651001 .10824585 .5499878 .2372284M.47698976 .19422913C.43099977 .115249637 .35299684 .024246216 .24499512 .024246216 .13999939 .024246216 .08198547 .12423706 .08198547 .21524048 .08198547 .31622315 .1559906 .3912201 .23899842 .3912201 .32299806 .3912201 .37599183 .32322694 .47698976 .19422913Z"/>
<path id="font_9_2" d="M.16999817 .1111145C.1349945 .05203247 .100997928 .03199768 .052993776 .0289917 .041992189 .027999878 .033996583 .027999878 .033996583 .009994507 .033996583 .0039978029 .038986207 0 .04598999 0 .06399536 0 .10899353 .0019989014 .1269989 .0019989014 .1559906 .0019989014 .18798828 0 .21598816 0 .22200012 0 .23399353 0 .23399353 .018997193 .23399353 .027999878 .22599793 .0289917 .21998596 .0289917 .19699097 .0309906 .17799378 .039001466 .17799378 .06304932 .17799378 .07707214 .18399048 .08808899 .19699097 .11012268L.272995 .23632813H.5279999C.5289917 .22731018 .5289917 .21929932 .5299988 .21028137 .5329895 .18423462 .54499819 .080078128 .54499819 .061050416 .54499819 .0309906 .49398805 .0289917 .47799684 .0289917 .46699525 .0289917 .45599366 .0289917 .45599366 .010986328 .45599366 0 .46499635 0 .47099305 0 .48799134 0 .5079956 .0019989014 .5249939 .0019989014H.58200076C.6429901 .0019989014 .68699648 0 .6879883 0 .69499209 0 .70599368 0 .70599368 .018997193 .70599368 .0289917 .69699099 .0289917 .6819916 .0289917 .6269989 .0289917 .6259918 .038009645 .6230011 .0680542L.56199648 .691864C.55999758 .711853 .55599978 .7138672 .54499819 .7138672 .5349884 .7138672 .5289917 .711853 .519989 .69685366L.16999817 .1111145M.2899933 .26531983 .4909973 .6009674 .5249939 .26531983H.2899933Z"/>
<path id="font_10_1" d="M.6749878 .32421876C.68899539 .32421876 .70700076 .32421876 .70700076 .34220887 .70700076 .36120606 .6899872 .36120606 .6749878 .36120606H.085998538C.07199097 .36120606 .053985597 .36120606 .053985597 .34321595 .053985597 .32421876 .070999149 .32421876 .085998538 .32421876H.6749878M.6749878 .13780213C.68899539 .13780213 .70700076 .13780213 .70700076 .15579224 .70700076 .17480469 .6899872 .17480469 .6749878 .17480469H.085998538C.07199097 .17480469 .053985597 .17480469 .053985597 .15679932 .053985597 .13780213 .070999149 .13780213 .085998538 .13780213H.6749878Z"/>
<path id="font_11_1" d="M.27198792-.88031008C.25898744-1.0443573 .22299195-1.0888672 .1659851-1.0888672 .15299988-1.0888672 .12298584-1.0859375 .101989749-1.0683136 .1309967-1.0643616 .13899231-1.0413666 .13899231-1.027359 .13899231-.99835208 .116989139-.98535159 .09799194-.98535159 .07798767-.98535159 .055999757-.99835208 .055999757-1.0283661 .055999757-1.0761414 .10598755-1.1108704 .1659851-1.1108704 .26098634-1.1108704 .30899049-1.024353 .33099366-.93434146 .34399415-.88230898 .37998963-.5911865 .3880005-.48013307L.40699769-.23103333C.42099-.04698181 .45498658-.022003174 .5-.022003174 .5099945-.022003174 .54100039-.024002076 .5629883-.04298401 .5339966-.04698181 .526001-.06997681 .526001-.083984378 .526001-.11299133 .5479889-.12597656 .5669861-.12597656 .58699038-.12597656 .60899356-.11299133 .60899356-.082977298 .60899356-.034988405 .5589905 0 .49899293 0 .4039917 0 .36499024-.09698486 .34799195-.17300415 .33599855-.22802735 .2999878-.5101471 .29100038-.6312103L.27198792-.88031008Z"/>
<path id="font_12_2" d="M.548996 .36465455C.5669861 .36465455 .57398989 .36465455 .58599856 .37265016 .5970001 .38165284 .6009979 .3956604 .6009979 .40264894 .6009979 .43066407 .57598879 .43066407 .5589905 .43066407H.31298829C.15899658 .43066407 .040985109 .2728119 .040985109 .15200806 .040985109 .0541687 .11099243-.009765625 .20399475-.009765625 .32998658-.009765625 .46699525 .111068729 .46699525 .25982667 .46699525 .31373597 .44799806 .34568788 .43699647 .36465455H.548996M.20498657 .018234253C.15499878 .018234253 .11099243 .05117798 .11099243 .124053958 .11099243 .1659851 .13598633 .36465455 .29699708 .36465455 .3939972 .36465455 .3939972 .29078675 .3939972 .26982118 .3939972 .16697693 .32299806 .018234253 .20498657 .018234253Z"/>
<path id="font_13_1" d="M.33299256-.25C.34098817-.25 .35299684-.25 .35299684-.23800659 .35299684-.23400879 .35198976-.23300171 .33898927-.22000122 .20199585-.09100342 .16799927 .09498596 .16799927 .25 .16799927 .5379944 .2869873 .6729889 .33799745 .71899417 .35198976 .7319946 .35299684 .73298647 .35299684 .73799136 .35299684 .7429962 .34899903 .75 .33898927 .75 .32299806 .75 .272995 .69898989 .2649994 .6899872 .1309967 .5499878 .102996829 .36999513 .102996829 .25 .102996829 .025985718 .19699097-.15400696 .33299256-.25Z"/>
<path id="font_12_3" d="M.18499756 .11885071C.13899231 .04597473 .09799194 .035980226 .06199646 .032989503 .051986696 .03199768 .039993287 .0309906 .039993287 .01399231 .039993287 .010986328 .041992189 0 .053985597 0 .06298828 0 .068984989 .0029907227 .13899231 .0029907227 .20698548 .0029907227 .22999573 0 .23498535 0 .23999024 0 .25498963 0 .25498963 .018997193 .25498963 .03199768 .24198914 .032989503 .23699951 .032989503 .21598816 .033996583 .19499207 .04197693 .19499207 .063934329 .19499207 .07891846 .20298767 .09188843 .22200012 .12084961L.2899933 .23066712H.56399539L.58499148 .061950685C.58499148 .047973634 .5669861 .032989503 .519989 .032989503 .5049896 .032989503 .49198915 .032989503 .49198915 .01399231 .49198915 .0129852299 .49299623 0 .5089874 0 .5189972 0 .5569916 .0019989014 .56599429 .0029907227H.6289978C.71899417 .0029907227 .73599246 0 .74398806 0 .7480011 0 .7639923 0 .7639923 .018997193 .7639923 .032989503 .7509918 .032989503 .7350006 .032989503 .6799927 .032989503 .67900088 .04197693 .6759949 .06694031L.5970001 .6848602C.59399417 .7068634 .59298709 .7138672 .57598879 .7138672 .55799868 .7138672 .5519867 .7038574 .54599 .6938629L.18499756 .11885071M.31098939 .26367188 .5179901 .5928192 .55999758 .26367188H.31098939Z"/>
<path id="font_13_2" d="M.30899049 .25C.30899049 .34500123 .29299928 .45899964 .23098755 .57699587 .18199158 .6689911 .09098816 .75 .07299805 .75 .06298828 .75 .05999756 .7429962 .05999756 .73799136 .05999756 .73399356 .05999756 .7319946 .07199097 .7200012 .21199036 .58699038 .24398804 .4039917 .24398804 .25 .24398804-.037002565 .125-.17300415 .07398987-.2190094 .06098938-.23200989 .05999756-.23300171 .05999756-.23800659 .05999756-.24301148 .06298828-.25 .07299805-.25 .08898926-.25 .13899231-.19900513 .14698792-.19000244 .2809906-.05000305 .30899049 .12998963 .30899049 .25Z"/>
<path id="font_9_1" d="M.30899049 .62332156C.28399659 .69433596 .20498657 .69433596 .19198609 .69433596 .18598938 .69433596 .1749878 .69433596 .1749878 .6843262 .1749878 .67633059 .18099976 .6753235 .18598938 .67433169 .20098877 .67233279 .21299744 .67033389 .22898865 .6413269 .23899842 .62231448 .34199525 .3232727 .34199525 .3212738 .34199525 .32026673 .34098817 .3192749 .33299256 .3112793L.07299805 .048233034C.06098938 .036224367 .052993776 .02822876 .052993776 .0152282719 .052993776 .0012207031 .06498718-.010772705 .08099365-.010772705 .084991458-.010772705 .09599304-.008773804 .101989749-.0027770997 .117996219 .01222229 .26098634 .18725586 .35198976 .29527284 .37799073 .21725464 .4099884 .12524414 .44099427 .041229249 .44599916 .026229859 .45098878 .01222229 .46499635-.00077819827 .47499085-.009765625 .47698976-.009765625 .5049896-.009765625H.5239868C.5279999-.009765625 .5349884-.009765625 .5349884-.0017700195 .5349884 .0022277833 .5339966 .0032196046 .5299988 .007232666 .5209961 .018234253 .5139923 .036224367 .5099945 .048233034L.30899049 .62332156Z"/>
<path id="font_10_2" d="M.2999878 .68333438V.6543274C.36799623 .6543274 .37599183 .64733889 .37599183 .5983429V.37738038C.35499574 .40638734 .31199647 .44140626 .25099183 .44140626 .1349945 .44140626 .034988405 .34336854 .034988405 .21531677 .034988405 .088256839 .12998963-.009765625 .23999024-.009765625 .31599427-.009765625 .3600006 .040237428 .37399293 .059249879V-.009765625L.5149994 .00022888184V.02923584C.44699098 .02923584 .43899537 .036239625 .43899537 .085250858V.69433596L.2999878 .68333438M.37399293 .11727905C.37399293 .09925842 .37399293 .0962677 .3600006 .07424927 .33599855 .039245607 .29499818 .010223389 .24499512 .010223389 .21899414 .010223389 .11099243 .020233155 .11099243 .21430969 .11099243 .28634645 .12298584 .32635499 .14498902 .359375 .16499329 .39038087 .20498657 .42140199 .25498963 .42140199 .31698609 .42140199 .35198976 .3763733 .3619995 .36036683 .37399293 .34336854 .37399293 .34136964 .37399293 .32336427V.11727905Z"/>
<path id="font_9_3" d="M.69499209 .23190308C.69599917 .23490906 .69898989 .24189759 .69898989 .24589539 .69898989 .25090028 .69499209 .2558899 .68899539 .2558899 .68499758 .2558899 .68299868 .25489808 .6799927 .2518921 .6779938 .25090028 .6779938 .24890137 .6689911 .22891236 .6100006 .088974 .5669861 .0289917 .40699769 .0289917H.26098634C.24699402 .0289917 .24499512 .0289917 .23899842 .02999878 .22799683 .0309906 .22698975 .032989503 .22698975 .040985109 .22698975 .04798889 .22898865 .053985597 .23098755 .06297302L.2999878 .3388672H.39898683C.47698976 .3388672 .48298646 .3218689 .48298646 .29188539 .48298646 .28189088 .48298646 .27288819 .47599793 .24290467 .47399903 .23890686 .47299195 .23490906 .47299195 .23190308 .47299195 .22491455 .47799684 .22190857 .48399354 .22190857 .49299623 .22190857 .49398805 .22891236 .49798585 .24290467L.5549927 .47476197C.5549927 .47976686 .5509949 .48475648 .54499819 .48475648 .5359955 .48475648 .5349884 .48075868 .5309906 .46676637 .5109863 .3898468 .4909973 .3678589 .4019928 .3678589H.30699159L.36898805 .61364749C.37799073 .6486206 .37998963 .6516113 .42099 .6516113H.56399539C.68699648 .6516113 .71199038 .6186371 .71199038 .54270938 .71199038 .5417023 .71199038 .5137329 .70799258 .48075868 .70700076 .47676087 .70599368 .47076417 .70599368 .46876527 .70599368 .4607849 .71099856 .45777894 .71699526 .45777894 .723999 .45777894 .7279968 .46177674 .7299957 .47976686L.7509918 .65460208C.7509918 .65760806 .7529907 .66760256 .7529907 .6696167 .7529907 .680603 .74398806 .680603 .7259979 .680603H.23799134C.21899414 .680603 .20899964 .680603 .20899964 .6626129 .20899964 .6516113 .21598816 .6516113 .23298645 .6516113 .29499818 .6516113 .29499818 .6446228 .29499818 .6336212 .29499818 .6286316 .2939911 .6246338 .29100038 .61364749L.1559906 .07397461C.14698792 .038986207 .14498902 .0289917 .07499695 .0289917 .055999757 .0289917 .04598999 .0289917 .04598999 .010986328 .04598999 0 .051986696 0 .07199097 0H.57398989C.59599307 0 .5970001 .0009918213 .60398867 .016998291L.69499209 .23190308Z"/>
<path id="font_12_1" d="M.37599183 .28729249C.41299439 .19628906 .47399903 .03327942 .4850006 .015274048 .5019989-.009719849 .5219879-.009719849 .54599-.009719849 .57499697-.009719849 .58299258-.009719849 .58299258 .0022735596 .58299258 .0072784426 .58099368 .010269165 .57699587 .0132751469 .5649872 .027267456 .55999758 .03727722 .5529938 .056274415L.32798768 .62731936C.32099916 .6463165 .3019867 .69433596 .19898987 .69433596 .18899536 .69433596 .17399597 .69433596 .17399597 .68032839 .17399597 .6683197 .18399048 .6673279 .18899536 .6663208 .20899964 .6633301 .22799683 .6613312 .25099183 .60331729L.32299806 .42330934 .3619995 .32229615 .07598877 .057281496C.06498718 .04727173 .054992677 .03527832 .054992677 .021270752 .054992677 .0012664795 .07199097-.01171875 .08898926-.01171875 .102996829-.01171875 .116989139-.0007324219 .12599182 .009277344L.37599183 .28729249Z"/>
<path id="font_4_1" d="M.5319977 .36865235C.54499819 .36865235 .58200076 .36865235 .58200076 .4046631 .58200076 .43066407 .55999758 .43066407 .54100039 .43066407H.30599977C.15499878 .43066407 .038986207 .27381898 .038986207 .1490326 .038986207 .048187257 .10998535-.0107421879 .19499207-.0107421879 .31698609-.0107421879 .45199586 .11009216 .45199586 .26184083 .45199586 .32473756 .4249878 .36366273 .42199708 .36865235H.5319977M.19599915 .014251709C.15899658 .014251709 .10499573 .035217287 .10499573 .12207031 .10499573 .19094849 .14399719 .36865235 .2889862 .36865235 .33799745 .36865235 .38398744 .34669496 .38398744 .2728119 .38398744 .24786377 .37199403 .15701294 .32598878 .09312439 .29299928 .046203615 .24198914 .014251709 .19599915 .014251709Z"/>
<path id="font_4_4" d="M.18199158 .116867069C.1329956 .036987306 .08898926 .033981325 .04899597 .0309906 .041992189 .02999878 .036987306 .021987915 .036987306 .0129852299 .036987306 .0069885256 .040985109 0 .050994874 0 .069992069 0 .116989139 .0029907227 .13598633 .0029907227 .1579895 .0029907227 .21199036 0 .23399353 0 .23999024 0 .25299073 0 .25299073 .017990113 .25299073 .02999878 .24099732 .0309906 .23799134 .0309906 .22898865 .03199768 .19099427 .033981325 .19099427 .063949588 .19099427 .077926639 .20199585 .09689331 .20498657 .101882938L.28399659 .23068238H.54499819C.5479889 .2077179 .5509949 .17378235 .55400088 .14881897 .55799868 .10987854 .56399539 .06593323 .56399539 .062942508 .56399539 .047973634 .5499878 .0309906 .49198915 .0309906 .48199464 .0309906 .46899415 .0309906 .46899415 .0129852299 .46899415 .0019989014 .47698976 0 .48399354 0 .5029907 0 .5269928 .0019989014 .5469971 .0019989014 .5669861 .0019989014 .59098818 .0029907227 .6069946 .0029907227 .6399994 .0029907227 .6419983 .0029907227 .66600039 .0019989014 .6819916 .0009918213 .7049866 0 .72099307 0 .72698977 0 .73999026 0 .73999026 .017990113 .73999026 .0309906 .72898867 .0309906 .71699526 .0309906 .6569977 .0309906 .6559906 .037979127 .6529999 .06694031L.58299258 .68881228C.58099368 .7108154 .5799866 .7158203 .5629883 .7158203 .548996 .7158203 .54299929 .7088165 .5349884 .69581606L.18199158 .116867069M.30299378 .26168824 .5049896 .5917816 .5419922 .26168824H.30299378Z"/>
<path id="font_8_1" d="M.6749878 .6093292C.69299319 .6093292 .71199038 .6093292 .71199038 .6313324 .71199038 .65234377 .69200137 .65234377 .6749878 .65234377H.3999939C.22399903 .65234377 .085998538 .51423647 .085998538 .35107423 .085998538 .18391419 .22599793 .048828126 .3999939 .048828126H.6749878C.69299319 .048828126 .71199038 .048828126 .71199038 .07081604 .71199038 .09182739 .69200137 .09182739 .6749878 .09182739H.40299989C.24099732 .09182739 .1289978 .21495056 .1289978 .3500824 .1289978 .4882202 .24299622 .6093292 .40299989 .6093292H.6749878M.14399719-.11129761C.1289978-.11129761 .10798645-.11129761 .10798645-.13230896 .10798645-.15429688 .12799073-.15429688 .14399719-.15429688H.6749878C.69299319-.15429688 .71199038-.15429688 .71199038-.13230896 .71199038-.11129761 .69200137-.11129761 .6749878-.11129761H.14399719Z"/>
<path id="font_3_85" d="M.34098817-.23803711C.34098817-.23303223 .33799745-.23002625 .33198548-.22303772 .20298767-.105026248 .1639862 .07498169 .1639862 .24998474 .1639862 .40498353 .19400025 .59298709 .33499146 .72698977 .33898927 .73098757 .34098817 .7339783 .34098817 .73898318 .34098817 .74598696 .33599855 .75 .32899476 .75 .31698609 .75 .22698975 .6779785 .17298889 .568985 .125 .47297669 .100997928 .36997987 .100997928 .25097657 .100997928 .17897034 .10998535 .064971927 .16499329-.053024293 .22399903-.17602539 .31698609-.24902344 .32899476-.24902344 .33599855-.24902344 .34098817-.24502564 .34098817-.23803711Z"/>
<path id="font_3_64" d="M.2849884 .1850586V.24707031H.010986328V.1850586H.2849884Z"/>
<path id="font_3_47" d="M.5399933 0V.0309906C.47200013 .0309906 .46299745 .037994386 .46299745 .087020877V.69433596L.31498719 .6826172V.6516113C.3829956 .6516113 .3919983 .64463809 .3919983 .59580996V.38339234C.3869934 .38938905 .34199525 .4423828 .2639923 .4423828 .14099121 .4423828 .033996583 .3443756 .033996583 .21525574 .033996583 .09013367 .13398743-.0107421879 .25299073-.0107421879 .32598878-.0107421879 .37098695 .03224182 .3889923 .053115846V-.0107421879L.5399933 0M.3889923 .12011719C.3889923 .10211182 .3889923 .099121097 .37399293 .078125 .34298707 .033218385 .29699708 .014251709 .25698854 .014251709 .21398926 .014251709 .17399597 .038208009 .147995 .0801239 .12199402 .12312317 .11999512 .18218994 .11999512 .21421814 .11999512 .26127626 .12599182 .3143463 .1519928 .35438539 .17399597 .38638307 .21499634 .41737367 .2679901 .41737367 .30999757 .41737367 .34999085 .39637757 .3769989 .35839845 .3889923 .3423767 .3889923 .34136964 .3889923 .32235719V.12011719Z"/>
<path id="font_3_68" d="M.21798706-.047973634V.4423828L.06199646 .43138124V.40037538C.13798523 .40037538 .14698792 .39337159 .14698792 .34432984V-.050979616C.14698792-.08000183 .14299011-.18008423 .07499695-.18008423 .07199097-.18008423 .04598999-.18008423 .021987915-.16807556 .053985597-.1580658 .053985597-.13005066 .053985597-.1240387 .053985597-.09802246 .034988405-.07800293 .0079956059-.07800293-.021011353-.07800293-.039001466-.09802246-.039001466-.12504578-.039001466-.17707825 .018997193-.20507813 .07598877-.20507813 .15499878-.20500183 .21798706-.14001465 .21798706-.04800415V-.047973634M.21798706 .6032257C.21798706 .6332245 .19400025 .65722659 .1639862 .65722659 .13398743 .65722659 .10998535 .6332245 .10998535 .6032257 .10998535 .57321169 .13398743 .54922488 .1639862 .54922488 .19400025 .54922488 .21798706 .57321169 .21798706 .6032257Z"/>
<path id="font_8_4" d="M.73999026 .3310089C.79100039 .28700257 .83999636 .2639923 .8730011 .25097657 .8299866 .23197937 .7849884 .20796204 .73999026 .1699524H.09199524C.07699585 .1699524 .056991579 .1699524 .056991579 .14894104 .056991579 .12695313 .07899475 .12695313 .09700012 .12695313H.69200137C.6289978 .060073854 .59399417-.0087890629 .59399417-.016799927 .59399417-.029800415 .60598757-.029800415 .61499026-.029800415 .6269989-.029800415 .6319885-.029800415 .6369934-.02079773 .71798709 .13494873 .8299866 .20196533 .95899966 .23797608 .96699526 .23997498 .9700012 .24597168 .9700012 .24998474 .9700012 .25997926 .96099856 .26197816 .95899966 .26298524 .9099884 .2769928 .83999636 .29600526 .7539978 .36901856 .71699526 .401062 .6749878 .44813539 .6419983 .5112457 .6319885 .5302429 .6309967 .53125 .61499026 .53125 .60598757 .53125 .59399417 .53125 .59399417 .5182495 .59399417 .51023867 .6279907 .4421234 .69200137 .37402345H.09700012C.07899475 .37402345 .056991579 .37402345 .056991579 .35202027 .056991579 .3310089 .07699585 .3310089 .09199524 .3310089H.73999026Z"/>
<path id="font_3_86" d="M.2979889 .25097657C.2979889 .3329773 .28599549 .4429779 .23399353 .5539856 .1749878 .6769867 .08198547 .75 .069992069 .75 .05999756 .75 .057998659 .74198916 .057998659 .73898318 .057998659 .7339783 .05999756 .73098757 .066986087 .72398379 .125 .6719818 .23498535 .5359802 .23498535 .25097657 .23498535 .10797119 .20899964-.091033939 .06399536-.22602844 .06199646-.22903443 .057998659-.23303223 .057998659-.23803711 .057998659-.24102783 .05999756-.24902344 .069992069-.24902344 .08198547-.24902344 .17199707-.17703247 .22599793-.06802368 .27398683 .02796936 .2979889 .13098145 .2979889 .25097657Z"/>
<path id="font_3_97" d="M.5130005 .18504334C.5130005 .24205017 .49198915 .28604127 .46798707 .31604005 .4249878 .37104798 .37998963 .38204957 .31498719 .39704896L.22698975 .41804505C.14698792 .43804933 .12098694 .5020447 .12098694 .546051 .12098694 .6130676 .1749878 .677063 .25898744 .677063 .3880005 .677063 .43998719 .5810547 .45399476 .4800415 .45700074 .4610443 .45799256 .4560547 .46998597 .4560547 .48399354 .4560547 .48399354 .4630432 .48399354 .48405458V.677063C.48399354 .69706729 .48399354 .7050781 .47200013 .7050781 .46499635 .7050781 .46398927 .70407107 .45700074 .69207766 .44400025 .67407229 .45399476 .68707278 .42099 .6350708 .4039917 .6550751 .35198976 .7050781 .2579956 .7050781 .14099121 .7047119 .056991579 .6137085 .056991579 .51171877 .056991579 .4336853 .10398865 .38565064 .10899353 .38064576 .1539917 .33662416 .17199707 .33161927 .29100038 .30360414 .37199403 .28459168 .3809967 .28259278 .4139862 .24856568 .4139862 .24856568 .44898988 .21055603 .44898988 .1515503 .44898988 .08354187 .3999939 .008529663 .30899049 .008529663 .23199463 .008529663 .09298706 .040542604 .084991458 .20555115 .083999637 .22055054 .083999637 .2265625 .070999149 .2265625 .056991579 .2265625 .056991579 .21855164 .056991579 .19854737V.0055389406C.056991579-.014465332 .056991579-.022460938 .068984989-.022460938 .07598877-.022460938 .07699585-.021469117 .083999637-.009475708 .09700012 .008529663 .08699036-.004470825 .11999512 .047531129 .18199158-.012466431 .26098634-.022460938 .30999757-.022460938 .43199159-.022460938 .5130005 .07752991 .5130005 .18452454V.18504334Z"/>
<path id="font_14_1" d="M.43299867 .28630067 .5519867 .026275635C.5589905 .012268066 .57099917 .0032806397 .57199099 .0032806397 .58999636-.009719849 .59799197-.009719849 .6159973-.009719849H.6359863C.6539917-.009719849 .66600039-.009719849 .66600039 .004272461 .66600039 .010269165 .6629944 .014266968 .6589966 .01727295 .647995 .026275635 .6409912 .040283204 .6349945 .05328369L.37199403 .62931826C.36099244 .6543274 .34199525 .69433596 .23199463 .69433596 .21798706 .69433596 .20098877 .69433596 .20098877 .6773224 .20098877 .6673279 .20899964 .662323 .21499634 .6613312 .24699402 .6583252 .2649994 .6533203 .29599 .5883179L.41600038 .32429505 .11299133 .06227112C.09899902 .05027771 .08999634 .042282106 .08999634 .024276734 .08999634-.0007324219 .10998535-.01171875 .12599182-.01171875 .14299011-.01171875 .1539917 .0002746582 .1619873 .008270264L.43299867 .28630067Z"/>
<path id="font_3_45" d="M.20698548 .0019989014C.20698548 .070999149 .18099976 .10798645 .14199829 .10798645 .10699463 .10798645 .08799744 .08099365 .08799744 .053985597 .08799744 .026992798 .10699463 0 .14199829 0 .16699219 0 .18199158 .015991211 .18199158 .015991211 .18199158-.017044068 .18199158-.09919739 .10598755-.17132569 .101989749-.17633057 .101989749-.18135071 .101989749-.18135071 .101989749-.18635559 .10798645-.19335938 .114990238-.19335938 .12599182-.19335938 .20698548-.1162262 .20698548 .0019989014Z"/>
</defs>
<path transform="matrix(1,0,0,-1,36.71505,104.21892)" stroke-width=".79701" stroke-linecap="butt" stroke-miterlimit="10" stroke-linejoin="miter" fill="none" stroke="#000000" d="M-28.3468 0H291.46455"/>
<path transform="matrix(1,0,0,-1,328.1796,104.21892)" d="M4.53381 0C3.97704 .13808 1.52963 .92049 0 1.77196V-1.77196C1.52963-.92049 3.97704-.13808 4.53381 0Z"/>
<path transform="matrix(1,0,0,-1,328.1796,104.21892)" stroke-width=".79701" stroke-linecap="butt" stroke-miterlimit="10" stroke-linejoin="miter" fill="none" stroke="#000000" d="M4.53381 0C3.97704 .13808 1.52963 .92049 0 1.77196V-1.77196C1.52963-.92049 3.97704-.13808 4.53381 0Z"/>
<use data-text="R" xlink:href="#font_1_1" transform="matrix(9.96264,0,0,-9.96264,338.07563,107.65053)"/>
<path transform="matrix(1,0,0,-1,36.71505,104.21892)" stroke-width=".79701" stroke-linecap="butt" stroke-miterlimit="10" stroke-linejoin="miter" fill="none" stroke="#000000" d="M0-2.83484V2.83484"/>
<use data-text="0" xlink:href="#font_2_4" transform="matrix(8.966376,0,0,-8.966376,34.411188,117.76897)"/>
<use data-text="D" xlink:href="#font_3_46" transform="matrix(8.966376,0,0,-8.966376,84.12194,52.30141)"/>
<use data-text="i" xlink:href="#font_3_66" transform="matrix(8.966376,0,0,-8.966376,91.160549,52.30141)"/>
<use data-text="s" xlink:href="#font_3_98" transform="matrix(8.966376,0,0,-8.966376,93.72493,52.30141)"/>
<use data-text="c" xlink:href="#font_3_43" transform="matrix(8.966376,0,0,-8.966376,97.35631,52.30141)"/>
<use data-text="r" xlink:href="#font_3_96" transform="matrix(8.966376,0,0,-8.966376,101.45395,52.30141)"/>
<use data-text="e" xlink:href="#font_3_50" transform="matrix(8.966376,0,0,-8.966376,105.058429,52.30141)"/>
<use data-text="t" xlink:href="#font_3_105" transform="matrix(8.966376,0,0,-8.966376,109.15607,52.30141)"/>
<use data-text="e" xlink:href="#font_3_50" transform="matrix(8.966376,0,0,-8.966376,112.742618,52.30141)"/>
<use data-text=":" xlink:href="#font_3_44" transform="matrix(8.966376,0,0,-8.966376,116.84025,52.30141)"/>
<use data-text="h" xlink:href="#font_3_63" transform="matrix(8.966376,0,0,-8.966376,123.502269,52.30141)"/>
<use data-text="a" xlink:href="#font_3_28" transform="matrix(8.966376,0,0,-8.966376,128.62207,52.30141)"/>
<use data-text="r" xlink:href="#font_3_96" transform="matrix(8.966376,0,0,-8.966376,133.23079,52.30141)"/>
<use data-text="m" xlink:href="#font_3_75" transform="matrix(8.966376,0,0,-8.966376,136.83527,52.30141)"/>
<use data-text="o" xlink:href="#font_3_81" transform="matrix(8.966376,0,0,-8.966376,144.51049,52.30141)"/>
<use data-text="n" xlink:href="#font_3_77" transform="matrix(8.966376,0,0,-8.966376,149.1192,52.30141)"/>
<use data-text="i" xlink:href="#font_3_66" transform="matrix(8.966376,0,0,-8.966376,154.239,52.30141)"/>
<use data-text="c" xlink:href="#font_3_43" transform="matrix(8.966376,0,0,-8.966376,156.80339,52.30141)"/>
<use data-text="o" xlink:href="#font_3_81" transform="matrix(8.966376,0,0,-8.966376,163.97649,52.30141)"/>
<use data-text="s" xlink:href="#font_3_98" transform="matrix(8.966376,0,0,-8.966376,168.5852,52.30141)"/>
<use data-text="c" xlink:href="#font_3_43" transform="matrix(8.966376,0,0,-8.966376,172.21659,52.30141)"/>
<use data-text="i" xlink:href="#font_3_66" transform="matrix(8.966376,0,0,-8.966376,176.31423,52.30141)"/>
<use data-text="l" xlink:href="#font_3_72" transform="matrix(8.966376,0,0,-8.966376,178.8786,52.30141)"/>
<use data-text="l" xlink:href="#font_3_72" transform="matrix(8.966376,0,0,-8.966376,181.443,52.30141)"/>
<use data-text="a" xlink:href="#font_3_28" transform="matrix(8.966376,0,0,-8.966376,184.00737,52.30141)"/>
<use data-text="t" xlink:href="#font_3_105" transform="matrix(8.966376,0,0,-8.966376,188.61609,52.30141)"/>
<use data-text="o" xlink:href="#font_3_81" transform="matrix(8.966376,0,0,-8.966376,192.20264,52.30141)"/>
<use data-text="r" xlink:href="#font_3_96" transform="matrix(8.966376,0,0,-8.966376,196.81136,52.30141)"/>
<use data-text="&#x210f;" xlink:href="#font_1_2" transform="matrix(8.966376,0,0,-8.966376,203.49433,52.30141)"/>
<use data-text="&#x03c9;" xlink:href="#font_4_2" transform="matrix(8.966376,0,0,-8.966376,208.33869,52.30141)"/>
<use data-text="(" xlink:href="#font_2_1" transform="matrix(8.966376,0,0,-8.966376,214.3937,52.30141)"/>
<use data-text="n" xlink:href="#font_4_6" transform="matrix(8.966376,0,0,-8.966376,217.97747,52.30141)"/>
<use data-text="+" xlink:href="#font_2_3" transform="matrix(8.966376,0,0,-8.966376,225.58432,52.30141)"/>
<use data-text="1" xlink:href="#font_5_1" transform="matrix(5.977584,0,0,-5.977584,235.99521,48.62787)"/>
<path transform="matrix(1,0,0,-1,119.40689,20.08429)" stroke-width=".378585" stroke-linecap="butt" stroke-miterlimit="10" stroke-linejoin="miter" fill="none" stroke="#000000" d="M116.58831-29.97553H120.24122"/>
<use data-text="2" xlink:href="#font_5_2" transform="matrix(5.977584,0,0,-5.977584,235.99521,55.34402)"/>
<use data-text=")" xlink:href="#font_2_2" transform="matrix(8.966376,0,0,-8.966376,240.84363,52.30141)"/>
<path transform="matrix(1,0,0,-1,36.71505,104.21892)" d="M31.18166 28.3468C31.18166 29.91246 29.91246 31.18166 28.3468 31.18166 26.78114 31.18166 25.51195 29.91246 25.51195 28.3468 25.51195 26.78114 26.78114 25.51195 28.3468 25.51195 29.91246 25.51195 31.18166 26.78114 31.18166 28.3468ZM28.3468 28.3468" fill="#0000b3"/>
<path transform="matrix(1,0,0,-1,36.71505,104.21892)" stroke-width=".3985" stroke-linecap="butt" stroke-miterlimit="10" stroke-linejoin="miter" fill="none" stroke="#000080" d="M28.3468 28.3468V0"/>
<use data-text="E" xlink:href="#font_6_1" transform="matrix(6.973848,0,0,-6.973848,60.1932,69.37154)" fill="#0000b3"/>
<use data-text="0" xlink:href="#font_7_1" transform="matrix(4.98132,0,0,-4.98132,66.04213,70.3678)" fill="#0000b3"/>
<path transform="matrix(1,0,0,-1,36.71505,104.21892)" d="M70.867 28.3468C70.867 29.91246 69.59781 31.18166 68.03217 31.18166 66.4665 31.18166 65.19731 29.91246 65.19731 28.3468 65.19731 26.78114 66.4665 25.51195 68.03217 25.51195 69.59781 25.51195 70.867 26.78114 70.867 28.3468ZM68.03217 28.3468" fill="#0000b3"/>
<path transform="matrix(1,0,0,-1,36.71505,104.21892)" stroke-width=".3985" stroke-linecap="butt" stroke-miterlimit="10" stroke-linejoin="miter" fill="none" stroke="#000080" d="M68.03217 28.3468V0"/>
<use data-text="E" xlink:href="#font_6_1" transform="matrix(6.973848,0,0,-6.973848,99.87856,69.37154)" fill="#0000b3"/>
<use data-text="1" xlink:href="#font_7_2" transform="matrix(4.98132,0,0,-4.98132,105.72749,70.3678)" fill="#0000b3"/>
<path transform="matrix(1,0,0,-1,36.71505,104.21892)" d="M110.5528 28.3468C110.5528 29.91246 109.2836 31.18166 107.71794 31.18166 106.1523 31.18166 104.88309 29.91246 104.88309 28.3468 104.88309 26.78114 106.1523 25.51195 107.71794 25.51195 109.2836 25.51195 110.5528 26.78114 110.5528 28.3468ZM107.71794 28.3468" fill="#0000b3"/>
<path transform="matrix(1,0,0,-1,36.71505,104.21892)" stroke-width=".3985" stroke-linecap="butt" stroke-miterlimit="10" stroke-linejoin="miter" fill="none" stroke="#000080" d="M107.71794 28.3468V0"/>
<use data-text="E" xlink:href="#font_6_1" transform="matrix(6.973848,0,0,-6.973848,139.56433,69.37154)" fill="#0000b3"/>
<use data-text="2" xlink:href="#font_7_3" transform="matrix(4.98132,0,0,-4.98132,145.41327,70.3678)" fill="#0000b3"/>
<path transform="matrix(1,0,0,-1,36.71505,104.21892)" d="M150.23816 28.3468C150.23816 29.91246 148.96897 31.18166 147.40332 31.18166 145.83766 31.18166 144.56847 29.91246 144.56847 28.3468 144.56847 26.78114 145.83766 25.51195 147.40332 25.51195 148.96897 25.51195 150.23816 26.78114 150.23816 28.3468ZM147.40332 28.3468" fill="#0000b3"/>
<path transform="matrix(1,0,0,-1,36.71505,104.21892)" stroke-width=".3985" stroke-linecap="butt" stroke-miterlimit="10" stroke-linejoin="miter" fill="none" stroke="#000080" d="M147.40332 28.3468V0"/>
<use data-text="E" xlink:href="#font_6_1" transform="matrix(6.973848,0,0,-6.973848,179.24973,69.37154)" fill="#0000b3"/>
<use data-text="3" xlink:href="#font_7_4" transform="matrix(4.98132,0,0,-4.98132,185.09865,70.3678)" fill="#0000b3"/>
<path transform="matrix(1,0,0,-1,36.71505,104.21892)" d="M189.92395 28.3468C189.92395 29.91246 188.65476 31.18166 187.0891 31.18166 185.52346 31.18166 184.25424 29.91246 184.25424 28.3468 184.25424 26.78114 185.52346 25.51195 187.0891 25.51195 188.65476 25.51195 189.92395 26.78114 189.92395 28.3468ZM187.0891 28.3468" fill="#0000b3"/>
<path transform="matrix(1,0,0,-1,36.71505,104.21892)" stroke-width=".3985" stroke-linecap="butt" stroke-miterlimit="10" stroke-linejoin="miter" fill="none" stroke="#000080" d="M187.0891 28.3468V0"/>
<use data-text="E" xlink:href="#font_6_1" transform="matrix(6.973848,0,0,-6.973848,218.93552,69.37154)" fill="#0000b3"/>
<use data-text="4" xlink:href="#font_7_5" transform="matrix(4.98132,0,0,-4.98132,224.78444,70.3678)" fill="#0000b3"/>
<path transform="matrix(1,0,0,-1,36.71505,104.21892)" d="M229.60932 28.3468C229.60932 29.91246 228.34012 31.18166 226.77448 31.18166 225.20882 31.18166 223.93962 29.91246 223.93962 28.3468 223.93962 26.78114 225.20882 25.51195 226.77448 25.51195 228.34012 25.51195 229.60932 26.78114 229.60932 28.3468ZM226.77448 28.3468" fill="#0000b3"/>
<path transform="matrix(1,0,0,-1,36.71505,104.21892)" stroke-width=".3985" stroke-linecap="butt" stroke-miterlimit="10" stroke-linejoin="miter" fill="none" stroke="#000080" d="M226.77448 28.3468V0"/>
<use data-text="E" xlink:href="#font_6_1" transform="matrix(6.973848,0,0,-6.973848,258.62089,69.37154)" fill="#0000b3"/>
<use data-text="5" xlink:href="#font_7_6" transform="matrix(4.98132,0,0,-4.98132,264.4698,70.3678)" fill="#0000b3"/>
<use data-text="." xlink:href="#font_4_3" transform="matrix(8.966376,0,0,-8.966376,275.51347,76.35642)" fill="#0000b3"/>
<use data-text="." xlink:href="#font_4_3" transform="matrix(8.966376,0,0,-8.966376,279.6021,76.35642)" fill="#0000b3"/>
<use data-text="." xlink:href="#font_4_3" transform="matrix(8.966376,0,0,-8.966376,283.6908,76.35642)" fill="#0000b3"/>
<use data-text="C" xlink:href="#font_3_42" transform="matrix(8.966376,0,0,-8.966376,100.53806,159.41516)"/>
<use data-text="o" xlink:href="#font_3_81" transform="matrix(8.966376,0,0,-8.966376,107.19112,159.41516)"/>
<use data-text="n" xlink:href="#font_3_77" transform="matrix(8.966376,0,0,-8.966376,111.799839,159.41516)"/>
<use data-text="t" xlink:href="#font_3_105" transform="matrix(8.966376,0,0,-8.966376,116.66857,159.41516)"/>
<use data-text="i" xlink:href="#font_3_66" transform="matrix(8.966376,0,0,-8.966376,120.25513,159.41516)"/>
<use data-text="n" xlink:href="#font_3_77" transform="matrix(8.966376,0,0,-8.966376,122.8195,159.41516)"/>
<use data-text="u" xlink:href="#font_3_109" transform="matrix(8.966376,0,0,-8.966376,127.67928,159.41516)"/>
<use data-text="o" xlink:href="#font_3_81" transform="matrix(8.966376,0,0,-8.966376,132.79909,159.41516)"/>
<use data-text="u" xlink:href="#font_3_109" transform="matrix(8.966376,0,0,-8.966376,137.4078,159.41516)"/>
<use data-text="s" xlink:href="#font_3_98" transform="matrix(8.966376,0,0,-8.966376,142.5276,159.41516)"/>
<use data-text=":" xlink:href="#font_3_44" transform="matrix(8.966376,0,0,-8.966376,146.15898,159.41516)"/>
<use data-text="f" xlink:href="#font_3_55" transform="matrix(8.966376,0,0,-8.966376,152.81204,159.41516)"/>
<use data-text="r" xlink:href="#font_3_96" transform="matrix(8.966376,0,0,-8.966376,155.62749,159.41516)"/>
<use data-text="e" xlink:href="#font_3_50" transform="matrix(8.966376,0,0,-8.966376,159.23197,159.41516)"/>
<use data-text="e" xlink:href="#font_3_50" transform="matrix(8.966376,0,0,-8.966376,163.32959,159.41516)"/>
<use data-text="p" xlink:href="#font_3_84" transform="matrix(8.966376,0,0,-8.966376,170.5027,159.41516)"/>
<use data-text="a" xlink:href="#font_3_28" transform="matrix(8.966376,0,0,-8.966376,175.6225,159.41516)"/>
<use data-text="r" xlink:href="#font_3_96" transform="matrix(8.966376,0,0,-8.966376,180.23122,159.41516)"/>
<use data-text="t" xlink:href="#font_3_105" transform="matrix(8.966376,0,0,-8.966376,183.8357,159.41516)"/>
<use data-text="i" xlink:href="#font_3_66" transform="matrix(8.966376,0,0,-8.966376,187.42226,159.41516)"/>
<use data-text="c" xlink:href="#font_3_43" transform="matrix(8.966376,0,0,-8.966376,189.98664,159.41516)"/>
<use data-text="l" xlink:href="#font_3_72" transform="matrix(8.966376,0,0,-8.966376,194.08428,159.41516)"/>
<use data-text="e" xlink:href="#font_3_50" transform="matrix(8.966376,0,0,-8.966376,196.64865,159.41516)"/>
<use data-text="E" xlink:href="#font_4_5" transform="matrix(8.966376,0,0,-8.966376,203.82474,159.41516)"/>
<use data-text="&#x2265;" xlink:href="#font_8_2" transform="matrix(8.966376,0,0,-8.966376,213.6766,159.41516)"/>
<use data-text="0" xlink:href="#font_2_4" transform="matrix(8.966376,0,0,-8.966376,223.40396,159.41516)"/>
<path transform="matrix(1,0,0,-1,36.71505,104.21892)" d="M0-31.18166V-19.84267H269.29469V-31.18166ZM269.29469-19.84267" fill="#ffbf80" fill-opacity=".5"/>
<path transform="matrix(1,0,0,-1,36.71505,104.21892)" stroke-width="1.19553" stroke-linecap="butt" stroke-miterlimit="10" stroke-linejoin="miter" fill="none" stroke="#b35900" d="M0-25.51193H269.29469"/>
<use data-text="&#x2192;" xlink:href="#font_8_3" transform="matrix(8.966376,0,0,-8.966376,309.52958,131.66114)" fill="#b35900"/>
<use data-text="&#x221e;" xlink:href="#font_8_5" transform="matrix(8.966376,0,0,-8.966376,321.29347,131.66114)" fill="#b35900"/>
<use data-text="A" xlink:href="#font_9_2" transform="matrix(11.955168,0,0,-11.955168,11.888069,20.921978)"/>
<use data-text="=" xlink:href="#font_10_1" transform="matrix(11.955168,0,0,-11.955168,23.98425,20.921978)"/>
<use data-text="&#x222b;" xlink:href="#font_11_1" transform="matrix(11.955168,0,0,-11.955168,36.40973,11.291359)"/>
<use data-text="&#x03c3;" xlink:href="#font_12_2" transform="matrix(7.970112,0,0,-7.970112,42.05523,25.07314)"/>
<use data-text="(" xlink:href="#font_13_1" transform="matrix(7.970112,0,0,-7.970112,47.18053,25.07314)"/>
<use data-text="A" xlink:href="#font_12_3" transform="matrix(7.970112,0,0,-7.970112,50.473779,25.07314)"/>
<use data-text=")" xlink:href="#font_13_2" transform="matrix(7.970112,0,0,-7.970112,56.81675,25.07314)"/>
<use data-text="&#x03bb;" xlink:href="#font_9_1" transform="matrix(11.955168,0,0,-11.955168,62.60063,20.92197)"/>
<use data-text="d" xlink:href="#font_10_2" transform="matrix(11.955168,0,0,-11.955168,71.421619,20.92197)"/>
<use data-text="E" xlink:href="#font_9_3" transform="matrix(11.955168,0,0,-11.955168,77.92494,20.92197)"/>
<use data-text="&#x03bb;" xlink:href="#font_12_1" transform="matrix(7.970112,0,0,-7.970112,86.59029,22.715229)"/>
<use data-text="&#x03c3;" xlink:href="#font_4_1" transform="matrix(8.966376,0,0,-8.966376,11.888069,38.42838)"/>
<use data-text="(" xlink:href="#font_2_1" transform="matrix(8.966376,0,0,-8.966376,17.47921,38.42838)"/>
<use data-text="A" xlink:href="#font_4_4" transform="matrix(8.966376,0,0,-8.966376,21.06297,38.42838)"/>
<use data-text=")" xlink:href="#font_2_2" transform="matrix(8.966376,0,0,-8.966376,27.97312,38.42838)"/>
<use data-text="&#x2286;" xlink:href="#font_8_1" transform="matrix(8.966376,0,0,-8.966376,34.11671,38.42838)"/>
<use data-text="R" xlink:href="#font_1_1" transform="matrix(8.966376,0,0,-8.966376,43.84406,38.42838)"/>
<use data-text="(" xlink:href="#font_3_85" transform="matrix(8.966376,0,0,-8.966376,55.885179,38.42838)"/>
<use data-text="s" xlink:href="#font_3_98" transform="matrix(8.966376,0,0,-8.966376,59.47173,38.42838)"/>
<use data-text="e" xlink:href="#font_3_50" transform="matrix(8.966376,0,0,-8.966376,63.10311,38.42838)"/>
<use data-text="l" xlink:href="#font_3_72" transform="matrix(8.966376,0,0,-8.966376,67.200748,38.42838)"/>
<use data-text="f" xlink:href="#font_3_55" transform="matrix(8.966376,0,0,-8.966376,69.76514,38.42838)"/>
<use data-text="-" xlink:href="#font_3_64" transform="matrix(8.966376,0,0,-8.966376,72.580577,38.42838)"/>
<use data-text="a" xlink:href="#font_3_28" transform="matrix(8.966376,0,0,-8.966376,75.656047,38.42838)"/>
<use data-text="d" xlink:href="#font_3_47" transform="matrix(8.966376,0,0,-8.966376,80.26476,38.42838)"/>
<use data-text="j" xlink:href="#font_3_68" transform="matrix(8.966376,0,0,-8.966376,85.38457,38.42838)"/>
<use data-text="o" xlink:href="#font_3_81" transform="matrix(8.966376,0,0,-8.966376,88.200008,38.42838)"/>
<use data-text="i" xlink:href="#font_3_66" transform="matrix(8.966376,0,0,-8.966376,92.80872,38.42838)"/>
<use data-text="n" xlink:href="#font_3_77" transform="matrix(8.966376,0,0,-8.966376,95.37311,38.42838)"/>
<use data-text="t" xlink:href="#font_3_105" transform="matrix(8.966376,0,0,-8.966376,100.24185,38.42838)"/>
<use data-text="&#x21d2;" xlink:href="#font_8_4" transform="matrix(8.966376,0,0,-8.966376,106.8949,38.42838)"/>
<use data-text="r" xlink:href="#font_3_96" transform="matrix(8.966376,0,0,-8.966376,119.185749,38.42838)"/>
<use data-text="e" xlink:href="#font_3_50" transform="matrix(8.966376,0,0,-8.966376,122.79023,38.42838)"/>
<use data-text="a" xlink:href="#font_3_28" transform="matrix(8.966376,0,0,-8.966376,126.88786,38.42838)"/>
<use data-text="l" xlink:href="#font_3_72" transform="matrix(8.966376,0,0,-8.966376,131.49658,38.42838)"/>
<use data-text="s" xlink:href="#font_3_98" transform="matrix(8.966376,0,0,-8.966376,137.13645,38.42838)"/>
<use data-text="p" xlink:href="#font_3_84" transform="matrix(8.966376,0,0,-8.966376,140.76782,38.42838)"/>
<use data-text="e" xlink:href="#font_3_50" transform="matrix(8.966376,0,0,-8.966376,146.14765,38.42838)"/>
<use data-text="c" xlink:href="#font_3_43" transform="matrix(8.966376,0,0,-8.966376,150.24529,38.42838)"/>
<use data-text="t" xlink:href="#font_3_105" transform="matrix(8.966376,0,0,-8.966376,154.34293,38.42838)"/>
<use data-text="r" xlink:href="#font_3_96" transform="matrix(8.966376,0,0,-8.966376,157.92948,38.42838)"/>
<use data-text="u" xlink:href="#font_3_109" transform="matrix(8.966376,0,0,-8.966376,161.53395,38.42838)"/>
<use data-text="m" xlink:href="#font_3_75" transform="matrix(8.966376,0,0,-8.966376,166.65375,38.42838)"/>
<use data-text=")" xlink:href="#font_3_86" transform="matrix(8.966376,0,0,-8.966376,174.32898,38.42838)"/>
<use data-text="S" xlink:href="#font_3_97" transform="matrix(8.966376,0,0,-8.966376,22.340809,182.09227)"/>
<use data-text="p" xlink:href="#font_3_84" transform="matrix(8.966376,0,0,-8.966376,27.46061,182.09227)"/>
<use data-text="e" xlink:href="#font_3_50" transform="matrix(8.966376,0,0,-8.966376,32.840436,182.09227)"/>
<use data-text="c" xlink:href="#font_3_43" transform="matrix(8.966376,0,0,-8.966376,36.93807,182.09227)"/>
<use data-text="t" xlink:href="#font_3_105" transform="matrix(8.966376,0,0,-8.966376,41.0357,182.09227)"/>
<use data-text="r" xlink:href="#font_3_96" transform="matrix(8.966376,0,0,-8.966376,44.622255,182.09227)"/>
<use data-text="a" xlink:href="#font_3_28" transform="matrix(8.966376,0,0,-8.966376,48.226739,182.09227)"/>
<use data-text="l" xlink:href="#font_3_72" transform="matrix(8.966376,0,0,-8.966376,52.835454,182.09227)"/>
<use data-text="m" xlink:href="#font_3_75" transform="matrix(8.966376,0,0,-8.966376,58.475305,182.09227)"/>
<use data-text="e" xlink:href="#font_3_50" transform="matrix(8.966376,0,0,-8.966376,66.15052,182.09227)"/>
<use data-text="a" xlink:href="#font_3_28" transform="matrix(8.966376,0,0,-8.966376,70.24815,182.09227)"/>
<use data-text="s" xlink:href="#font_3_98" transform="matrix(8.966376,0,0,-8.966376,74.85687,182.09227)"/>
<use data-text="u" xlink:href="#font_3_109" transform="matrix(8.966376,0,0,-8.966376,78.48826,182.09227)"/>
<use data-text="r" xlink:href="#font_3_96" transform="matrix(8.966376,0,0,-8.966376,83.608058,182.09227)"/>
<use data-text="e" xlink:href="#font_3_50" transform="matrix(8.966376,0,0,-8.966376,87.21254,182.09227)"/>
<use data-text="E" xlink:href="#font_4_5" transform="matrix(8.966376,0,0,-8.966376,94.385669,182.09227)"/>
<use data-text="&#x03bb;" xlink:href="#font_14_1" transform="matrix(5.977584,0,0,-5.977584,101.167148,183.15499)"/>
<use data-text=":" xlink:href="#font_3_44" transform="matrix(8.966376,0,0,-8.966376,106.065418,182.09227)"/>
<use data-text="j" xlink:href="#font_3_68" transform="matrix(8.966376,0,0,-8.966376,112.72743,182.09227)"/>
<use data-text="u" xlink:href="#font_3_109" transform="matrix(8.966376,0,0,-8.966376,115.54287,182.09227)"/>
<use data-text="m" xlink:href="#font_3_75" transform="matrix(8.966376,0,0,-8.966376,120.662677,182.09227)"/>
<use data-text="p" xlink:href="#font_3_84" transform="matrix(8.966376,0,0,-8.966376,128.33789,182.09227)"/>
<use data-text="s" xlink:href="#font_3_98" transform="matrix(8.966376,0,0,-8.966376,133.45769,182.09227)"/>
<use data-text="a" xlink:href="#font_3_28" transform="matrix(8.966376,0,0,-8.966376,140.16455,182.09227)"/>
<use data-text="t" xlink:href="#font_3_105" transform="matrix(8.966376,0,0,-8.966376,144.77327,182.09227)"/>
<use data-text="p" xlink:href="#font_3_84" transform="matrix(8.966376,0,0,-8.966376,151.43529,182.09227)"/>
<use data-text="o" xlink:href="#font_3_81" transform="matrix(8.966376,0,0,-8.966376,156.81511,182.09227)"/>
<use data-text="i" xlink:href="#font_3_66" transform="matrix(8.966376,0,0,-8.966376,161.42383,182.09227)"/>
<use data-text="n" xlink:href="#font_3_77" transform="matrix(8.966376,0,0,-8.966376,163.98822,182.09227)"/>
<use data-text="t" xlink:href="#font_3_105" transform="matrix(8.966376,0,0,-8.966376,168.85697,182.09227)"/>
<use data-text="s" xlink:href="#font_3_98" transform="matrix(8.966376,0,0,-8.966376,175.51001,182.09227)"/>
<use data-text="p" xlink:href="#font_3_84" transform="matrix(8.966376,0,0,-8.966376,179.14139,182.09227)"/>
<use data-text="e" xlink:href="#font_3_50" transform="matrix(8.966376,0,0,-8.966376,184.52123,182.09227)"/>
<use data-text="c" xlink:href="#font_3_43" transform="matrix(8.966376,0,0,-8.966376,188.61887,182.09227)"/>
<use data-text="t" xlink:href="#font_3_105" transform="matrix(8.966376,0,0,-8.966376,192.7165,182.09227)"/>
<use data-text="r" xlink:href="#font_3_96" transform="matrix(8.966376,0,0,-8.966376,196.30306,182.09227)"/>
<use data-text="u" xlink:href="#font_3_109" transform="matrix(8.966376,0,0,-8.966376,199.90753,182.09227)"/>
<use data-text="m" xlink:href="#font_3_75" transform="matrix(8.966376,0,0,-8.966376,205.02733,182.09227)"/>
<use data-text="," xlink:href="#font_3_45" transform="matrix(8.966376,0,0,-8.966376,212.70255,182.09227)"/>
<use data-text="s" xlink:href="#font_3_98" transform="matrix(8.966376,0,0,-8.966376,218.34239,182.09227)"/>
<use data-text="m" xlink:href="#font_3_75" transform="matrix(8.966376,0,0,-8.966376,221.97377,182.09227)"/>
<use data-text="o" xlink:href="#font_3_81" transform="matrix(8.966376,0,0,-8.966376,229.64899,182.09227)"/>
<use data-text="o" xlink:href="#font_3_81" transform="matrix(8.966376,0,0,-8.966376,234.51773,182.09227)"/>
<use data-text="t" xlink:href="#font_3_105" transform="matrix(8.966376,0,0,-8.966376,239.12645,182.09227)"/>
<use data-text="h" xlink:href="#font_3_63" transform="matrix(8.966376,0,0,-8.966376,242.713,182.09227)"/>
<use data-text="o" xlink:href="#font_3_81" transform="matrix(8.966376,0,0,-8.966376,250.90827,182.09227)"/>
<use data-text="n" xlink:href="#font_3_77" transform="matrix(8.966376,0,0,-8.966376,255.51699,182.09227)"/>
<use data-text="c" xlink:href="#font_3_43" transform="matrix(8.966376,0,0,-8.966376,263.71226,182.09227)"/>
<use data-text="o" xlink:href="#font_3_81" transform="matrix(8.966376,0,0,-8.966376,267.80989,182.09227)"/>
<use data-text="n" xlink:href="#font_3_77" transform="matrix(8.966376,0,0,-8.966376,272.4186,182.09227)"/>
<use data-text="t" xlink:href="#font_3_105" transform="matrix(8.966376,0,0,-8.966376,277.28736,182.09227)"/>
<use data-text="i" xlink:href="#font_3_66" transform="matrix(8.966376,0,0,-8.966376,280.8739,182.09227)"/>
<use data-text="n" xlink:href="#font_3_77" transform="matrix(8.966376,0,0,-8.966376,283.43827,182.09227)"/>
<use data-text="u" xlink:href="#font_3_109" transform="matrix(8.966376,0,0,-8.966376,288.29804,182.09227)"/>
<use data-text="u" xlink:href="#font_3_109" transform="matrix(8.966376,0,0,-8.966376,293.41786,182.09227)"/>
<use data-text="m" xlink:href="#font_3_75" transform="matrix(8.966376,0,0,-8.966376,298.53764,182.09227)"/>
</svg>
