<svg xmlns="http://www.w3.org/2000/svg" xmlns:xlink="http://www.w3.org/1999/xlink" xmlns:inkscape="http://www.inkscape.org/namespaces/inkscape" version="1.1" width="394.21" height="155.61" viewBox="0 0 394.21 155.61">
<defs>
<path id="font_1_1" d="M.08799744 .059265138C.084991458 .044265748 .07899475 .021255494 .07899475 .01625061 .07899475-.0017547608 .09298706-.0107421879 .10798645-.0107421879 .11999512-.0107421879 .13798523-.002746582 .14498902 .01725769 .1459961 .019256592 .1579895 .06626892 .1639862 .091278079L.18598938 .18130493C.19198609 .2033081 .19799805 .22531128 .20298767 .24832154 .20698548 .26531983 .21499634 .29434205 .21598816 .29833985 .23098755 .3293457 .28399659 .42037965 .3789978 .42037965 .42399598 .42037965 .43299867 .38336183 .43299867 .35035707 .43299867 .28833009 .38398744 .16029358 .36799623 .11727905 .35899354 .0942688 .35798646 .08227539 .35798646 .0712738 .35798646 .024261475 .3929901-.0107421879 .43998719-.0107421879 .5339966-.0107421879 .57099917 .13528443 .57099917 .14329529 .57099917 .1532898 .56199648 .1532898 .5589905 .1532898 .548996 .1532898 .548996 .15029907 .5439911 .13528443 .5239868 .06726074 .4909973 .011245728 .44198609 .011245728 .4249878 .011245728 .41799928 .021255494 .41799928 .044265748 .41799928 .0692749 .4269867 .09327698 .43598939 .11528015 .45498658 .16830445 .49699403 .27833558 .49699403 .3353424 .49699403 .40237428 .45399476 .4423828 .38198854 .4423828 .2919922 .4423828 .24299622 .37835694 .22599793 .35534669 .22099304 .41137696 .17999268 .4423828 .13398743 .4423828 .08799744 .4423828 .068984989 .4033661 .05899048 .38536073 .042999269 .35134889 .0289917 .29232789 .0289917 .28833009 .0289917 .27833558 .038986207 .27833558 .040985109 .27833558 .050994874 .27833558 .051986696 .2793274 .057998659 .30133058 .07499695 .37236024 .09498596 .42037965 .1309967 .42037965 .15098572 .42037965 .1619873 .4073639 .1619873 .37435914 .1619873 .35334779 .15899658 .3423462 .1459961 .29032899L.08799744 .059265138Z"/>
<path id="font_2_5" d="M.68699648 .32714845C.70199587 .32714845 .72099307 .32714845 .72099307 .34713746 .72099307 .36714173 .70199587 .36714173 .6879883 .36714173H.08898926C.07499695 .36714173 .055999757 .36714173 .055999757 .34713746 .055999757 .32714845 .07499695 .32714845 .08999634 .32714845H.68699648M.6879883 .13284302C.70199587 .13284302 .72099307 .13284302 .72099307 .15284729 .72099307 .17285156 .70199587 .17285156 .68699648 .17285156H.08999634C.07499695 .17285156 .055999757 .17285156 .055999757 .15284729 .055999757 .13284302 .07499695 .13284302 .08898926 .13284302H.6879883Z"/>
<path id="font_2_2" d="M.2939911 .64004519C.2939911 .66400149 .2939911 .6660156 .2709961 .6660156 .20899964 .60227969 .12098694 .60227969 .08898926 .60227969V.57128909C.10899353 .57128909 .16799927 .57128909 .21998596 .5972748V.07902527C.21998596 .042999269 .21699524 .0309906 .1269989 .0309906H.09498596V0C.12998963 .0029907227 .21699524 .0029907227 .25698854 .0029907227 .29699708 .0029907227 .38398744 .0029907227 .4189911 0V.0309906H.3869934C.29699708 .0309906 .2939911 .041992189 .2939911 .07902527V.64004519Z"/>
<path id="font_3_7" d="M.2869873 .6603241C.29100038 .67433169 .29100038 .67633059 .29100038 .68032839 .29100038 .68933108 .2849884 .69433596 .27598573 .69433596 .2619934 .69433596 .17399597 .6863251 .1539917 .6843262 .14399719 .68333438 .1329956 .6823273 .1329956 .665329 .1329956 .6523285 .14399719 .6523285 .1599884 .6523285 .20698548 .6523285 .20698548 .6453247 .20698548 .6363373 .20698548 .6323395 .20698548 .6303406 .20199585 .6123352L.05899048 .037261964C.054992677 .023254395 .054992677 .021255494 .054992677 .018249512 .054992677 .002243042 .067993167-.0107421879 .085998538-.0107421879 .11898804-.0107421879 .12599182 .018249512 .1309967 .038253786L.17799378 .22732544C.24598694 .22132874 .29699708 .19432068 .29699708 .14430237 .29699708 .1382904 .29699708 .1342926 .2939911 .11929321 .29299928 .11528015 .2899933 .10128784 .2899933 .090270999 .2899933 .03125 .33099366-.0107421879 .38598634-.0107421879 .42399598-.0107421879 .44799806 .012252808 .46598817 .041259767 .4909973 .07926941 .5049896 .13929749 .5049896 .14329529 .5049896 .14830017 .5019989 .15530396 .49198915 .15530396 .48098756 .15530396 .47898866 .15029907 .47399903 .1322937 .46099855 .08126831 .43598939 .014251709 .3889923 .014251709 .3600006 .014251709 .35699464 .040252687 .35699464 .06227112 .35699464 .08728027 .36299134 .11328125 .3639984 .11528015 .3659973 .121292117 .36799623 .13328552 .36799623 .14529419 .36799623 .21531677 .29499818 .24232483 .21798706 .25134278 .24798584 .27033998 .269989 .29135133 .3019867 .32336427 .35299684 .37435914 .394989 .41737367 .44799806 .41737367 .45999146 .41737367 .47299195 .41436769 .48098756 .405365 .43598939 .4013672 .4249878 .36436463 .4249878 .35035707 .4249878 .33135987 .43899537 .31436158 .46398927 .31436158 .4869995 .31436158 .5189972 .33236695 .5189972 .37635804 .5189972 .4093628 .49499513 .4423828 .44799806 .4423828 .3869934 .4423828 .33799745 .39335633 .29599 .35035707 .24798584 .30336 .22399903 .27934266 .18699646 .26333619L.2869873 .6603241Z"/>
<path id="font_4_108" d="M.7859955 .64660647V.6826172C.74598696 .6796112 .7049866 .6786041 .6649933 .6786041 .625 .6786041 .58399966 .6796112 .5439911 .6826172V.64660647C.6469879 .64660647 .6469879 .6016693 .6469879 .57470706V.23216248C.6469879 .09436035 .54100039 .016464234 .43699647 .016464234 .37799073 .016464234 .2539978 .047424318 .2539978 .22717285V.6016693C.2539978 .6356201 .2559967 .64660647 .33299256 .64660647H.35699464V.6826172L.20698548 .6786041 .055999757 .6826172V.64660647H.07998657C.15699768 .64660647 .15899658 .6366272 .15899658 .6016693V.23017884C.15899658 .086364749 .2869873-.01953125 .43499757-.01953125 .57199099-.01953125 .68299868 .08935547 .68299868 .22917176V.57470706C.68299868 .6016693 .68299868 .64660647 .7859955 .64660647Z"/>
<path id="font_4_77" d="M.58999636 0V.035995485C.5249939 .035995485 .5149994 .035995485 .5149994 .07904053V.3032837C.5149994 .3903656 .47200013 .44140626 .36499024 .44140626 .2829895 .44140626 .22999573 .39637757 .20199585 .34432984H.20098877V.44140626L.053985597 .43052674V.39453126C.12098694 .39453126 .1289978 .3875122 .1289978 .33843995V.079055789C.1289978 .035995485 .11898804 .035995485 .053985597 .035995485V0C.053985597 0 .12599182 .0039978029 .16799927 .0039978029 .20498657 .0039978029 .27398683 .0009918213 .2829895 0V.035995485C.21798706 .035995485 .20799256 .035995485 .20799256 .079055789V.25932313C.20799256 .36434938 .29100038 .4133911 .35699464 .4133911 .4269867 .4133911 .43598939 .3583374 .43598939 .3072815V.07904053C.43598939 .035995485 .42599488 .035995485 .36099244 .035995485V0C.36099244 0 .43299867 .0039978029 .47499085 .0039978029 .5119934 .0039978029 .58099368 .0009918213 .58999636 0Z"/>
<path id="font_4_66" d="M.27398683 0V.035995485C.21598816 .035995485 .20599365 .035995485 .20599365 .07803345V.44140626L.05899048 .43052674V.39453126C.12199402 .39453126 .1309967 .3885193 .1309967 .33952333V.07952881C.1309967 .035995485 .12098694 .035995485 .055999757 .035995485V0C.055999757 0 .12799073 .0039978029 .16799927 .0039978029 .20298767 .0039978029 .23899842 .0029907227 .27398683 0M.21899414 .60214236C.21899414 .6341553 .19400025 .66015627 .1619873 .66015627 .12799073 .66015627 .10499573 .6321411 .10499573 .6031494 .10499573 .57115176 .12998963 .54515078 .1619873 .54515078 .19599915 .54515078 .21899414 .57315066 .21899414 .60214236Z"/>
<path id="font_4_55" d="M.397995 .63075259C.397995 .6737671 .35499574 .7037811 .2999878 .7037811 .22099304 .7037811 .1309967 .6477661 .1309967 .54270938V.43066407H.04499817V.39465333H.1309967V.078948978C.1309967 .035995485 .12098694 .035995485 .055999757 .035995485V0C.06098938 0 .1289978 .0039978029 .16999817 .0039978029L.2999878 0V.035995485H.27999879C.20599365 .03565979 .20599365 .046661378 .20599365 .08065796V.39465333H.33099366V.43066407H.20199585V.54270938C.20199585 .63375857 .2559967 .67578127 .29899598 .67578127 .30799867 .67578127 .31799317 .6737671 .32798768 .67077639 .31399537 .6627655 .30599977 .64675906 .30599977 .63075259 .30599977 .6037445 .32499696 .58473208 .35198976 .58473208 .3789978 .58473208 .397995 .6037445 .397995 .63075259Z"/>
<path id="font_4_81" d="M.5289917 .21325684C.5289917 .3382721 .42199708 .44628907 .28399659 .44628907 .1459961 .44628907 .038986207 .3382721 .038986207 .21325684 .038986207 .0892334 .14898682-.009765625 .28399659-.009765625 .4189911-.009765625 .5289917 .0892334 .5289917 .21325684M.43798829 .22225952C.43798829 .17424011 .43499757 .12124634 .4059906 .08023071 .3789978 .042236329 .33299256 .022232056 .28399659 .022232056 .24699402 .022232056 .19299317 .034225465 .1599884 .083236698 .1329956 .12423706 .12998963 .17625427 .12998963 .22225952 .12998963 .2652588 .1309967 .32426454 .1659851 .36727906 .19099427 .39627076 .23298645 .41827394 .28399659 .41827394 .34298707 .41827394 .3849945 .39027406 .40699769 .3592682 .43499757 .32026673 .43798829 .27026368 .43798829 .22225952Z"/>
<path id="font_4_96" d="M.40699769 .37739564C.40699769 .4113922 .375 .44140626 .32798768 .44140626 .27799989 .44140626 .22299195 .4104004 .19299317 .33439637H.19198609V.44140626L.04899597 .43052674V.39453126C.115997318 .39453126 .12399292 .3875122 .12399292 .33843995V.079055789C.12399292 .035995485 .11399841 .035995485 .04899597 .035995485V0C.053985597 0 .12199402 .0039978029 .16299439 .0039978029L.29299928 0V.035995485H.272995C.19898987 .036071779 .19898987 .047073366 .19898987 .081085208V.22807312C.19898987 .31207276 .23799134 .41308595 .33299256 .41308595 .32398988 .40608216 .31599427 .39308167 .31599427 .3770752 .31599427 .3440857 .34199525 .3310852 .36099244 .3310852 .3849945 .3310852 .40699769 .34707643 .40699769 .3770752V.37739564Z"/>
<path id="font_4_75" d="M.8969879 0V.035995485C.83200076 .035995485 .82199099 .035995485 .82199099 .07904053V.3032837C.82199099 .3903656 .7789917 .44140626 .6719971 .44140626 .59298709 .44140626 .5389862 .39837647 .5119934 .34832765 .49198915 .41940309 .43798829 .44140626 .36499024 .44140626 .2829895 .44140626 .22999573 .39637757 .20199585 .34432984H.20098877V.44140626L.053985597 .43052674V.39453126C.12098694 .39453126 .1289978 .3875122 .1289978 .33843995V.079055789C.1289978 .035995485 .11898804 .035995485 .053985597 .035995485V0C.053985597 0 .12599182 .0039978029 .16799927 .0039978029 .20498657 .0039978029 .27398683 .0009918213 .2829895 0V.035995485C.21798706 .035995485 .20799256 .035995485 .20799256 .079055789V.25932313C.20799256 .36434938 .29100038 .4133911 .35699464 .4133911 .4269867 .4133911 .43598939 .3583374 .43598939 .3072815V.07904053C.43598939 .035995485 .42599488 .035995485 .36099244 .035995485V0C.36099244 0 .43299867 .0039978029 .47499085 .0039978029 .5119934 .0039978029 .58099368 .0009918213 .58999636 0V.035995485C.5249939 .035995485 .5149994 .035995485 .5149994 .07904053V.25923158C.5149994 .36434938 .59799197 .4133911 .6639862 .4133911 .73399356 .4133911 .7429962 .3583374 .7429962 .3072815V.07904053C.7429962 .035995485 .73298647 .035995485 .66799929 .035995485V0C.66799929 0 .73999026 .0039978029 .7819977 .0039978029 .81900027 .0039978029 .8880005 .0009918213 .8969879 0Z"/>
<path id="font_4_126" d="M.5970001 0V.035995485C.5319977 .035995485 .5219879 .035995485 .5219879 .078948978V.69377139C.5139923 .69277957 .48399354 .68777468 .48098756 .68777468 .48098756 .68777468 .47698976 .68777468 .47200013 .69078066 .43598939 .7037811 .3929901 .7037811 .37399293 .7037811 .2519989 .7037811 .12399292 .649765 .12399292 .54071047V.43066407H.037994386V.39465333H.12399292V.078948978C.12399292 .035995485 .11399841 .035995485 .04899597 .035995485V0C.04899597 0 .12098694 .0039978029 .16099549 .0039978029 .19898987 .0039978029 .23599243 .0029907227 .27398683 0V.035995485C.20899964 .035995485 .19898987 .035995485 .19898987 .078948978V.39465333H.44699098V.078948978C.44699098 .035995485 .43699647 .035995485 .37199403 .035995485V0C.37199403 0 .44400025 .0039978029 .48399354 .0039978029 .5219879 .0039978029 .5589905 .0029907227 .5970001 0M.44699098 .43066407H.19499207V.53970339C.19499207 .6277466 .2769928 .67578127 .37298585 .67578127 .397995 .67578127 .41799928 .67477419 .44299317 .66877749 .43099977 .6607666 .42399598 .64575198 .42399598 .63075259 .42399598 .62475588 .42599488 .6027374 .44699098 .59072878V.43066407Z"/>
<path id="font_4_28" d="M.5439911 .09013367V.14515686H.5099945V.09114075C.5099945 .08113098 .5099945 .033111574 .47299195 .033111574 .43598939 .033111574 .43598939 .0801239 .43598939 .09313965V.268219C.43598939 .3212433 .43598939 .35925294 .3899994 .39627076 .34899903 .4302826 .30099488 .44628907 .24198914 .44628907 .14698792 .44628907 .07998657 .41027833 .07998657 .34925843 .07998657 .31723023 .101989749 .30023194 .12799073 .30023194 .15499878 .30023194 .1749878 .3202362 .1749878 .34724427 .1749878 .3642578 .16699219 .38526917 .13999939 .39326478 .17599488 .41827394 .23399353 .41827394 .23999024 .41827394 .29599 .41827394 .35699464 .38127137 .35699464 .29722596V.2662201C.3019867 .26420594 .23599243 .2612152 .16299439 .23420716 .07299805 .20118714 .04499817 .14616394 .04499817 .101135257 .04499817 .0152282719 .14898682-.009765625 .21998596-.009765625 .2999878-.009765625 .34700013 .035232545 .36799623 .07423401 .37199403 .033111574 .39898683-.0048828127 .44499208-.0048828127 .44499208-.0048828127 .5439911-.0048828127 .5439911 .09010315V.09013367M.35699464 .14111328C.35699464 .04522705 .272995 .018234253 .22799683 .018234253 .1769867 .018234253 .1289978 .052230836 .1289978 .10122681 .1289978 .15621948 .1769867 .23323059 .35699464 .24023438V.14111328Z"/>
<path id="font_4_105" d="M.375 .12606812V.1809845H.34098817V.12705994C.34098817 .059173585 .30899049 .022232056 .269989 .022232056 .20098877 .022232056 .20098877 .10609436 .20098877 .124069217V.39465333H.35699464V.43066407H.20098877V.6142578H.16699219C.1659851 .5244446 .125 .42565919 .0289917 .4226532V.39465333H.12199402V.1250763C.12199402 .01322937 .20599365-.009765625 .2619934-.009765625 .32899476-.010009766 .375 .04699707 .375 .12599182V.12606812Z"/>
<path id="font_2_4" d="M.44898988 .20022583C.44898988 .3193512 .36698915 .41944886 .25898744 .41944886 .21099854 .41944886 .16799927 .40345765 .13198853 .36842347V.5637665C.1519928 .5577698 .18499756 .55078127 .21699524 .55078127 .33999635 .55078127 .4099884 .6417694 .4099884 .6547699 .4099884 .6607666 .40699769 .6657715 .3999939 .6657715 .39898683 .6657715 .39698792 .6657715 .3919983 .66278079 .37199403 .6537781 .32299806 .6337738 .2559967 .6337738 .21598816 .6337738 .16999817 .6407776 .12298584 .6617737 .114990238 .66477969 .11299133 .66477969 .11099243 .66477969 .100997928 .66477969 .100997928 .6567688 .100997928 .6407776V.34439088C.100997928 .32637025 .100997928 .31835938 .114990238 .31835938 .12199402 .31835938 .12399292 .32136537 .12799073 .32736207 .13899231 .3433838 .17599488 .39746095 .25698854 .39746095 .30899049 .39746095 .33399964 .35139466 .34199525 .33337403 .35798646 .29632569 .3600006 .25727845 .3600006 .20722962 .3600006 .17222595 .3600006 .11222839 .33599855 .07035828 .31199647 .031463624 .2749939 .0055389406 .22898865 .0055389406 .1559906 .0055389406 .09899902 .058380128 .08198547 .11723328 .084991458 .1162262 .08799744 .115234378 .09899902 .115234378 .13198853 .115234378 .14898682 .14022827 .14898682 .16423035 .14898682 .18823242 .13198853 .21322632 .09899902 .21322632 .084991458 .21322632 .049987794 .20622254 .049987794 .16023255 .049987794 .07434082 .11898804-.022460938 .23098755-.022460938 .34700013-.022460938 .44898988 .073349 .44898988 .20022583Z"/>
<path id="font_4_35" d="M.58399966 .21640015C.58399966 .33839417 .48098756 .44140626 .34999085 .44140626 .2899933 .44140626 .23498535 .41740418 .19898987 .38139344V.69433596L.04899597 .68333438V.6473236C.116989139 .6473236 .12399292 .639328 .12399292 .58935549V.00022888184H.1579895L.19299317 .06124878C.23098755 .011230469 .28599549-.009765625 .33898927-.009765625 .47099305-.009765625 .58399966 .089263919 .58399966 .2163086V.21640015M.49299623 .21731568C.49299623 .19430542 .49299623 .119277957 .45199586 .072250369 .4119873 .027236939 .36299134 .018234253 .33399964 .018234253 .2539978 .018234253 .21398926 .08125305 .20298767 .102264408V.33535768C.23098755 .38137818 .2849884 .4133911 .34498597 .4133911 .40098573 .4133911 .44099427 .38137818 .46099855 .35136415 .48098756 .32235719 .49299623 .28334046 .49299623 .21731568Z"/>
<path id="font_4_50" d="M.46798707 .12036133C.46798707 .12435913 .46598817 .13438416 .45098878 .13438416 .43798829 .13438416 .43598939 .12837219 .43299867 .11836243 .4019928 .037246705 .32598878 .022232056 .2899933 .022232056 .24299622 .022232056 .19799805 .043258668 .16799927 .08131409 .1309967 .12837219 .12998963 .18945313 .12998963 .22851563H.43998719C.46099855 .22851563 .46798707 .22851563 .46798707 .25050355 .46798707 .33839417 .4189911 .44628907 .269989 .44628907 .13899231 .44628907 .038986207 .34239198 .038986207 .21949768 .038986207 .092315677 .1499939-.009765625 .2829895-.009765625 .41799928-.009765625 .46798707 .09832764 .46798707 .12036133M.397995 .25450135H.1309967C.14199829 .39530946 .23199463 .41827394 .269989 .41827394 .3929901 .41827394 .39698792 .27947999 .397995 .25450135Z"/>
<path id="font_4_72" d="M.2809906 0V.035995485C.21598816 .035995485 .20599365 .035995485 .20599365 .07901001V.69433596L.055999757 .6826172V.64660647C.12298584 .64660647 .1309967 .6396179 .1309967 .59065249V.07896423C.1309967 .035995485 .12098694 .035995485 .055999757 .035995485V0C.055999757 0 .12799073 .0039978029 .16799927 .0039978029 .20599365 .0039978029 .24299622 .0029907227 .2809906 0Z"/>
<path id="font_4_63" d="M.58999636 0V.035995485C.5249939 .035995485 .5149994 .035995485 .5149994 .0790863V.3035736C.5149994 .39045716 .47200013 .44140626 .36499024 .44140626 .27598573 .44140626 .22698975 .3884735 .20498657 .35058595H.20399475V.69433596L.053985597 .6826172V.64660647C.12098694 .64660647 .1289978 .6396179 .1289978 .59065249V.07896423C.1289978 .035995485 .11898804 .035995485 .053985597 .035995485V0C.053985597 0 .12599182 .0039978029 .16799927 .0039978029 .20498657 .0039978029 .27398683 .0009918213 .2829895 0V.035995485C.21798706 .035995485 .20799256 .035995485 .20799256 .07904053V.25923158C.20799256 .36434938 .29100038 .4133911 .35699464 .4133911 .4269867 .4133911 .43598939 .3583374 .43598939 .3072815V.07904053C.43598939 .035995485 .42599488 .035995485 .36099244 .035995485V0C.36099244 0 .43299867 .0039978029 .47499085 .0039978029 .5119934 .0039978029 .58099368 .0009918213 .58999636 0Z"/>
<path id="font_4_109" d="M.58999636 0V.035995485C.522995 .035995485 .5149994 .042999269 .5149994 .092056278V.44140626L.36099244 .43052674V.39453126C.42799378 .39439393 .43598939 .3874359 .43598939 .33872987V.16749573C.43598939 .079330448 .3789978 .018234253 .30299378 .018234253 .21199036 .018234253 .20799256 .061309816 .20799256 .11239624V.44140626L.053985597 .43052674V.39453126C.1289978 .39453126 .1289978 .39154054 .1289978 .30273438V.15246582C.1289978 .083343509 .1289978-.009765625 .29599-.009765625 .31799317-.009765625 .3909912-.009765625 .43899537 .07432556H.43998719V-.009765625L.58999636 0Z"/>
<path id="font_4_84" d="M.58399966 .21640015C.58399966 .33940126 .48199464 .44140626 .35499574 .44140626 .2979889 .44140626 .23999024 .4203949 .19898987 .3804016V.44140626L.04899597 .43052674V.39453126C.11898804 .39453126 .12399292 .38952638 .12399292 .34753419V-.11437988C.12399292-.15736389 .11399841-.15736389 .04899597-.15736389V-.19335938C.04899597-.19346619 .12098694-.18945313 .16299439-.18945313 .19999695-.18936157 .2689972-.19236756 .27799989-.19335938V-.15736389C.21299744-.15736389 .20298767-.15736389 .20298767-.114486698V.048233034C.20799256 .04324341 .25498963-.009765625 .33898927-.009765625 .47099305-.009765625 .58399966 .089263919 .58399966 .2163086V.21640015M.49299623 .2163086C.49299623 .102264408 .41799928 .018234253 .33299256 .018234253 .24499512 .018234253 .20599365 .09526062 .20298767 .101257327V.33335877C.23298645 .38339234 .29100038 .4093933 .34399415 .4093933 .42799378 .4093933 .49299623 .32136537 .49299623 .2163086Z"/>
<path id="font_2_3" d="M.2899933 .35191346C.37199403 .37893678 .42999269 .4490509 .42999269 .52809146 .42999269 .6100464 .34199525 .6660156 .24598694 .6660156 .14498902 .6660156 .068984989 .60606387 .068984989 .53009036 .068984989 .49710084 .09098816 .47808839 .11999512 .47808839 .15098572 .47808839 .17098999 .50009158 .17098999 .5290985 .17098999 .57910159 .12399292 .57910159 .10899353 .57910159 .13999939 .62802127 .20599365 .64100649 .24198914 .64100649 .2829895 .64100649 .33799745 .6190338 .33799745 .5290985 .33799745 .51708987 .33599855 .45906068 .30999757 .4149933 .27999879 .36691285 .24598694 .36390687 .22099304 .36291505 .21299744 .36190797 .18899536 .35990907 .18199158 .35990907 .17399597 .35890199 .16699219 .35791017 .16699219 .3479004 .16699219 .33691407 .17399597 .33691407 .19099427 .33691407H.23498535C.31698609 .33691407 .35398866 .2686615 .35398866 .17037964 .35398866 .034469606 .2849884 .0055389406 .24099732 .0055389406 .19799805 .0055389406 .12298584 .022491456 .08799744 .08137512 .12298584 .07637024 .1539917 .09837341 .1539917 .1363678 .1539917 .17237854 .1269989 .19238281 .09799194 .19238281 .07398987 .19238281 .041992189 .17837525 .041992189 .1343689 .041992189 .043441774 .1349945-.022460938 .24398804-.022460938 .3659973-.022460938 .45700074 .06838989 .45700074 .17037964 .45700074 .252594 .3939972 .33088685 .2899933 .35191346Z"/>
<path id="font_2_1" d="M.45999146 .31976319C.45999146 .39982606 .45498658 .47988893 .41999818 .5539398 .37399293 .65000918 .2919922 .6660156 .25 .6660156 .18998719 .6660156 .116989139 .64001467 .07598877 .54693606 .04399109 .47789 .038986207 .39982606 .038986207 .31976319 .038986207 .24472046 .042999269 .15464783 .083999637 .07859802 .1269989-.0024719239 .19999695-.022460938 .24899292-.022460938 .30299378-.022460938 .3789978-.0014648438 .4229889 .09359741 .45498658 .16265869 .45999146 .2407074 .45999146 .31976319M.24899292-.00047302247C.20999146-.00047302247 .15098572 .024551392 .1329956 .12062073 .12199402 .18066406 .12199402 .2727356 .12199402 .3317871 .12199402 .39582826 .12199402 .46188355 .12998963 .5159149 .14898682 .63500979 .22399903 .64401248 .24899292 .64401248 .28199769 .64401248 .34799195 .6259918 .36698915 .52693179 .3769989 .47088624 .3769989 .39482118 .3769989 .3317871 .3769989 .25672914 .3769989 .18867493 .3659973 .12461853 .35099793 .029556275 .2939911-.00047302247 .24899292-.00047302247Z"/>
<path id="font_4_58" d="M.82199099 .24035645V.2763672C.8149872 .2763672 .74198916 .27235414 .69299319 .27235414 .6399994 .27235414 .56399539 .27235414 .5119934 .2763672V.24035645H.5499878C.6499939 .24034119 .6499939 .22735596 .6499939 .19436646V.13040161C.6499939 .1084137 .6499939 .06942749 .59298709 .04144287 .5439911 .016464234 .48799134 .016464234 .47499085 .016464234 .3619995 .016464234 .1769867 .0814209 .1769867 .34228517 .1769867 .60813906 .36698915 .66711428 .46598817 .66711428 .5629883 .66711428 .68299868 .60214236 .70899966 .429245 .71099856 .4169922 .7200012 .4169922 .72698977 .4169922 .7449951 .4172516 .7449951 .4232483 .7449951 .4432373V.677124C.7449951 .6941223 .7449951 .703125 .73098757 .703125 .72698977 .703125 .7220001 .703125 .71398928 .69111636L.6609955 .6151428C.6119995 .66511538 .54100039 .703125 .45298768 .703125 .24499512 .703125 .069992069 .5421753 .069992069 .34228517 .069992069 .14439392 .23999024-.01953125 .45599366-.01953125 .5109863-.01953125 .621994-.009536743 .6689911 .060440065 .6859894 .034454347 .72299197 .00045776368 .73298647 .00045776368 .7449951 .00045776368 .7449951 .011459351 .7449951 .02645874V.19636536C.7449951 .24035645 .7549896 .24035645 .82199099 .24035645Z"/>
<path id="font_4_98" d="M.40699769 .1315155C.40699769 .1694336 .3899994 .1993866 .3639984 .2233429 .32598878 .25827027 .27999879 .2662506 .24499512 .2722473 .16499329 .28622438 .099990848 .29818727 .099990848 .35113526 .099990848 .38320924 .1269989 .422287 .22200012 .422287 .33799745 .422287 .34298707 .34114076 .34498597 .3121643 .34599305 .30119325 .35798646 .30119325 .3619995 .30119325 .3789978 .30119325 .3789978 .30818177 .3789978 .32714845V.42027284C.3789978 .43728639 .3789978 .44628907 .36499024 .44628907 .3600006 .44628907 .35798646 .44628907 .34498597 .4342804 .34298707 .43328858 .33299256 .4242859 .32699586 .419281 .29699708 .4402771 .25898744 .44628907 .22200012 .44628907 .07899475 .44628907 .04499817 .3711853 .04499817 .32115174 .04499817 .2892151 .05899048 .2632599 .08299255 .24330139 .12098694 .21035767 .15899658 .20336914 .22099304 .1933899 .2709961 .18440247 .35198976 .17044068 .35198976 .103515628 .35198976 .06437683 .32499696 .018234253 .22898865 .018234253 .1329956 .018234253 .09799194 .08143616 .07998657 .1494751 .07699585 .16244507 .07598877 .16644287 .06199646 .16644287 .04499817 .16644287 .04499817 .15945435 .04499817 .13949585V.016220093C.04499817-.00077819827 .04499817-.009765625 .05899048-.009765625 .067993167-.009765625 .08699036 .011230469 .10699463 .03327942 .15098572-.0077667238 .20498657-.009765625 .22898865-.009765625 .35899354-.009765625 .40699769 .06036377 .40699769 .1315155Z"/>
<path id="font_4_59" d="M.54499819 .40040589C.54499819 .42340089 .526001 .45140077 .48599244 .45140077 .47099305 .45140077 .4169922 .44839479 .36999513 .4053955 .33999635 .42739869 .2979889 .44140626 .2539978 .44140626 .15098572 .44140626 .07598877 .372406 .07598877 .29440309 .07598877 .2554016 .09599304 .21939087 .12399292 .19340515 .115997318 .18440247 .09399414 .1513977 .09399414 .11239624 .09399414 .09939575 .09700012 .05239868 .13598633 .023391724 .09098816 .0082092289 .038986207-.024841309 .038986207-.076934818 .038986207-.15003968 .14898682-.20507813 .28399659-.20507813 .41099549-.20507813 .5289917-.15505982 .5289917-.074920658 .5289917-.0448761 .5169983 .00920105 .46199037 .039260866 .40299989 .0703125 .34399415 .0703125 .24699402 .0703125 .22499085 .0703125 .18899536 .0703125 .18099976 .07130432 .14898682 .078308109 .1309967 .108306888 .1309967 .13729859 .1309967 .16246033 .13798523 .17045594 .14399719 .17845154 .15899658 .16944885 .19499207 .14746094 .25299073 .14746094 .35598756 .14746094 .43099977 .21644593 .43099977 .29444886 .43099977 .33345033 .41299439 .36445619 .3889923 .39045716 .43399049 .42245484 .47299195 .42344667 .48999024 .42344667 .48599244 .41944886 .48098756 .41545106 .48098756 .39945985 .48098756 .37945558 .49598695 .3674469 .5130005 .3674469 .5269928 .3674469 .54499819 .37745667 .54499819 .40045167V.40040589M.35099793 .29444886C.35099793 .27845765 .35099793 .2384491 .33099366 .21244812 .31698609 .19544983 .2899933 .17745972 .2539978 .17745972 .1559906 .17720032 .1559906 .2732849 .1559906 .29429627 .1559906 .310318 .1559906 .3503418 .17599488 .3763733 .18998719 .39338685 .21699524 .4113922 .25299073 .4113922 .35099793 .4113922 .35099793 .31532289 .35099793 .29429627V.29444886M.46798707-.07600403C.46798707-.12904358 .3889923-.17507935 .28399659-.17507935 .1789856-.17507935 .099990848-.12808228 .099990848-.07608032 .099990848-.04107666 .13198853 .0019226074 .19599915 .0029296876H.2539978C.34298707 .0029296876 .46798707 .0029296876 .46798707-.07608032V-.07600403Z"/>
<path id="font_3_6" d="M.72499087 .6476135C.7319946 .65560916 .73799136 .66160586 .73799136 .6726074 .73799136 .6826172 .73098757 .6826172 .71199038 .6826172H.2789917C.2539978 .6826172 .25299073 .6816101 .24699402 .66160586L.19400025 .48971559C.19099427 .4807129 .18899536 .4747162 .18899536 .47071839 .18899536 .46272279 .19499207 .45773316 .20298767 .45773316 .20999146 .45773316 .21398926 .46173097 .21598816 .46772767 .2539978 .58065798 .30299378 .6516113 .46499635 .6516113H.6319885L.06399536 .026992798C.06298828 .022994996 .05999756 .01499939 .05999756 .010986328 .05999756 0 .06599426 0 .085998538 0H.5329895C.55799868 0 .5589905 .0009918213 .5649872 .019989014L.6349945 .23986817C.6349945 .24085999 .6389923 .2528534 .6389923 .25386048 .6389923 .25785829 .6369934 .2668457 .6259918 .2668457 .61499026 .2668457 .61299136 .26185609 .6069946 .24285889 .5649872 .11294556 .519989 .033996583 .34298707 .033996583H.16699219L.72499087 .6476135Z"/>
<path id="font_5_2" d="M.29299928 .3463745C.28799439 .4223938 .21798706 .44140626 .17999268 .44140626 .14199829 .44140626 .115997318 .418396 .09799194 .38638307 .07299805 .34536744 .06098938 .29234315 .06098938 .28834535 .06098938 .27734376 .069992069 .27334596 .07899475 .27334596 .09498596 .27334596 .09599304 .28034974 .100997928 .2963562 .12098694 .37638856 .14498902 .4084015 .1769867 .4084015 .21299744 .4084015 .21299744 .36738587 .21299744 .3573761 .21299744 .34136964 .20298767 .30134584 .19599915 .27334596 .18899536 .24632263 .1789856 .205307 .17399597 .18330384 .16699219 .15829468 .16099549 .13227844 .1539917 .10726929 .14698792 .07925415 .1349945 .02923584 .1349945 .023223877 .1349945 .0012207031 .1519928-.009765625 .16999817-.009765625 .18798828-.009765625 .20498657 .0022277833 .21299744 .017227173 .21499634 .023223877 .22399903 .058242799 .22898865 .07824707L.25099183 .16828919C.2579956 .19430542 .2619934 .21231079 .2679901 .23532105 .2769928 .2693329 .31199647 .32235719 .34899903 .359375 .36898805 .37838746 .4119873 .4084015 .46598817 .4084015 .5299988 .4084015 .5299988 .3573761 .5299988 .33836366 .5299988 .27934266 .4869995 .17228699 .46899415 .12727356 .46299745 .11026001 .45599366 .09425354 .45599366 .07725525 .45599366 .026229859 .5019989-.009765625 .5569916-.009765625 .6579895-.009765625 .70799258 .12226868 .70799258 .14428711 .70799258 .14628601 .70700076 .15829468 .68899539 .15829468 .6749878 .15829468 .673996 .1532898 .66799929 .13427735 .6519928 .08125305 .61099246 .023223877 .55999758 .023223877 .54100039 .023223877 .5329895 .038238527 .5329895 .059249879 .5329895 .07925415 .5399933 .09625244 .548996 .117263797 .56399539 .15628052 .60899356 .2693329 .60899356 .32536317 .60899356 .4073944 .5469971 .44140626 .47099305 .44140626 .42099 .44140626 .35699464 .42539979 .29299928 .3463745Z"/>
<path id="font_6_5" d="M.70799258 .3310089C.7220001 .3310089 .7409973 .3310089 .7409973 .35202027 .7409973 .37402345 .71899417 .37402345 .70399478 .37402345H.09399414C.07899475 .37402345 .056991579 .37402345 .056991579 .35202027 .056991579 .3310089 .07699585 .3310089 .08999634 .3310089H.70799258M.70399478 .12695313C.71899417 .12695313 .7409973 .12695313 .7409973 .14894104 .7409973 .1699524 .7220001 .1699524 .70799258 .1699524H.08999634C.07699585 .1699524 .056991579 .1699524 .056991579 .14894104 .056991579 .12695313 .07899475 .12695313 .09399414 .12695313H.70399478Z"/>
<path id="font_3_5" d="M.6539917 .67807009C.6569977 .68907168 .6569977 .69107058 .6569977 .69407656 .6569977 .69506838 .6559906 .7050781 .644989 .7050781 .6399994 .7050781 .6389923 .70407107 .6269989 .6900635 .61299136 .6750641 .625 .6880646 .57899478 .6340332 .5419922 .6900635 .48399354 .7050781 .43099977 .7050781 .3019867 .7050781 .17999268 .58999636 .17999268 .46990968 .17999268 .42886354 .19299317 .39483644 .21899414 .3668213 .24798584 .336792 .272995 .3307953 .34498597 .31178285L.42900086 .29075624C.46099855 .27975465 .49398805 .24871826 .49398805 .19168091 .49398805 .1026001 .40899659 .008529663 .30899049 .008529663 .25 .008529663 .1309967 .026550293 .1309967 .15464783 .1309967 .16365052 .1309967 .17866516 .13699341 .20869446 .13899231 .21269226 .13899231 .21469116 .13899231 .21569824 .13899231 .21969605 .13699341 .22669983 .125 .22669983 .11299133 .22669983 .11199951 .2217102 .10798645 .20469666L.054992677-.011474609C.054992677-.017471314 .05999756-.022460938 .066986087-.022460938 .07199097-.022460938 .07299805-.021469117 .085998538-.007461548 .09199524-.00047302247 .12098694 .03555298 .1329956 .048568727 .18499756-.018463135 .2769928-.022460938 .30699159-.022460938 .44499208-.022460938 .5649872 .10661316 .5649872 .23271179 .5649872 .35681153 .46699525 .38183595 .43598939 .38883973L.34498597 .41285707C.31199647 .42086793 .25099183 .4368744 .25099183 .51293948 .25099183 .5890045 .33099366 .677063 .43099977 .677063 .47099305 .677063 .5099945 .6660614 .5379944 .63804629 .57598879 .6010132 .57699587 .54696658 .57699587 .5209503 .57699587 .48791505 .57299807 .47691346 .57299807 .4689026 .57299807 .46089173 .57699587 .45588685 .58699038 .45588685 .59799197 .45588685 .59799197 .457901 .6029968 .47691346L.6539917 .67807009Z"/>
<path id="font_7_1" d="M.6749878 .22944641C.69299319 .22944641 .71199038 .22944641 .71199038 .25144959 .71199038 .27246095 .69200137 .27246095 .6749878 .27246095H.12298584C.10598755 .27246095 .085998538 .27246095 .085998538 .25144959 .085998538 .22944641 .10499573 .22944641 .12298584 .22944641H.6749878Z"/>
<path id="font_3_8" d="M.18899536 .15730286C.19999695 .20431519 .21899414 .2773285 .21998596 .28533937 .22200012 .29133607 .24699402 .33935548 .2829895 .37435914 .31199647 .4013672 .34999085 .41737367 .3889923 .41737367 .44299317 .41737367 .44299317 .36436463 .44299317 .34735108 .44299317 .28633119 .3959961 .16429138 .3849945 .13328552 .37298585 .10227966 .36898805 .0922699 .36898805 .073272708 .36898805 .019256592 .4099884-.0107421879 .45498658-.0107421879 .5509949-.0107421879 .58999636 .1322937 .58999636 .14329529 .58999636 .14828491 .58699038 .1552887 .57699587 .1552887 .56599429 .1552887 .5649872 .15029907 .5609894 .13728333 .5359955 .052261354 .49398805 .014251709 .45799256 .014251709 .45098878 .014251709 .43299867 .014251709 .43299867 .04626465 .43299867 .0712738 .44299317 .09727478 .45098878 .119277957 .47099305 .17030335 .5109863 .27633668 .5109863 .33235169 .5109863 .42137147 .44499208 .4423828 .3919983 .4423828 .29899598 .4423828 .25 .37635804 .23399353 .35536195 .22799683 .40937806 .18699646 .4423828 .13699341 .4423828 .09498596 .4423828 .07398987 .41137696 .05999756 .3843689 .042999269 .34934999 .0289917 .29234315 .0289917 .28833009 .0289917 .2793274 .035995485 .27633668 .042999269 .27633668 .053985597 .27633668 .055999757 .28134156 .06098938 .30134584 .07998657 .3803711 .100997928 .41737367 .1349945 .41737367 .16499329 .41737367 .16499329 .38536073 .16499329 .37036134 .16499329 .34934999 .15699768 .31834413 .15098572 .29234315 .14399719 .2663269 .13398743 .22331238 .12998963 .21131897L.08999634 .04725647C.08299255 .023254395 .08299255 .021255494 .08299255 .018249512 .08299255 .0052490236 .09199524-.0107421879 .11399841-.0107421879 .12799073-.0107421879 .14299011-.0017547608 .1499939 .010253906 .15299988 .01625061 .16099549 .04826355 .1659851 .06826782L.18899536 .15730286Z"/>
<path id="font_3_1" d="M.23699951 .35734559C.24198914 .37535096 .25099183 .4093628 .25099183 .41337586 .25099183 .42938233 .23799134 .4423828 .21998596 .4423828 .18798828 .4423828 .17999268 .41337586 .17799378 .4033661L.034988405-.16481018C.0309906-.17881775 .0309906-.18081665 .0309906-.18682862 .0309906-.2038269 .042999269-.21582031 .06199646-.21582031 .09399414-.21582031 .101989749-.18582154 .10499573-.17082215L.15299988 .019256592C.1789856-.0017547608 .21899414-.0107421879 .2519989-.0107421879 .28799439-.0107421879 .33599855 .00024414063 .3880005 .061264039 .3999939 .008255005 .44699098-.0107421879 .48098756-.0107421879 .5099945-.0107421879 .5349884 .002243042 .5569916 .044265748 .57499697 .07727051 .58898928 .13928223 .58898928 .14329529 .58898928 .14828491 .58599856 .1552887 .57598879 .1552887 .56399539 .1552887 .5629883 .15028382 .5589905 .13128662 .5369873 .044265748 .5149994 .014251709 .48399354 .014251709 .45899964 .014251709 .45298768 .038253786 .45298768 .060256959 .45298768 .07926941 .45799256 .09927368 .46699525 .1342926L.49198915 .23731995 .5149994 .32633973C.5209961 .35235597 .5329895 .3983612 .5329895 .40237428 .5329895 .41537477 .5239868 .43138124 .5019989 .43138124 .46998597 .43138124 .46299745 .40437318 .45599366 .37635804L.43499757 .29333497C.4249878 .25332643 .3959961 .13728333 .3889923 .11128235 .3880005 .107284549 .33898927 .014251709 .2559967 .014251709 .18099976 .014251709 .18099976 .08427429 .18099976 .10227966 .18099976 .12528992 .18399048 .14329529 .19499207 .18930054L.23699951 .35734559Z"/>
<path id="font_3_2" d="M.5319977 .36865235C.54499819 .36865235 .58200076 .36865235 .58200076 .4046631 .58200076 .43066407 .55999758 .43066407 .54100039 .43066407H.30599977C.15499878 .43066407 .038986207 .27381898 .038986207 .1490326 .038986207 .048187257 .10998535-.0107421879 .19499207-.0107421879 .31698609-.0107421879 .45199586 .11009216 .45199586 .26184083 .45199586 .32473756 .4249878 .36366273 .42199708 .36865235H.5319977M.19599915 .014251709C.15899658 .014251709 .10499573 .035217287 .10499573 .12207031 .10499573 .19094849 .14399719 .36865235 .2889862 .36865235 .33799745 .36865235 .38398744 .34669496 .38398744 .2728119 .38398744 .24786377 .37199403 .15701294 .32598878 .09312439 .29299928 .046203615 .24198914 .014251709 .19599915 .014251709Z"/>
<path id="font_7_3" d="M.3999939-.85002139 .21798706-.46102906C.21099854-.44602967 .20698548-.44502259 .20199585-.44502259 .19699097-.44502259 .19499207-.44702149 .18699646-.45303346L.08699036-.5260315C.07798767-.5320282 .07398987-.536026 .07398987-.5430298 .07398987-.5470276 .07699585-.5550232 .085998538-.5550232 .09199524-.5550232 .09799194-.55003359 .11999512-.53302 .1289978-.5270233 .14199829-.5170288 .15299988-.5090332L.35499574-.9410095C.36299134-.9580078 .36799623-.9580078 .3769989-.9580078 .3919983-.9580078 .3959961-.95401 .4039917-.9380188L.8699951 .0009613037C.8730011 .006958008 .8769989 .014953613 .8769989 .020965577 .8769989 .033966066 .86698916 .04296875 .85598757 .04296875 .8470001 .04296875 .83999636 .03895569 .83099368 .020965577L.3999939-.85002139Z"/>
<path id="font_5_1" d="M.6049957 .66430667C.60598757 .66830447 .60798647 .67430117 .60798647 .67930606 .60798647 .6953125 .58799746 .6943054 .57598879 .69329836L.46398927 .6843109C.44699098 .68330386 .43399049 .682312 .43399049 .65930178 .43399049 .64331057 .44699098 .64331057 .46199037 .64331057 .49198915 .64331057 .49899293 .64131167 .5119934 .63630679 .5109863 .62132266 .5109863 .61932376 .5079956 .60632327 .4869995 .5203552 .47099305 .45339967 .45098878 .38139344 .43699647 .4044037 .40299989 .44140626 .34098817 .44140626 .21299744 .44140626 .07499695 .3073578 .07499695 .16029358 .07499695 .052246095 .15098572-.009765625 .23599243-.009765625 .30299378-.009765625 .3600006 .036239625 .3849945 .06124878 .4039917-.0017700195 .47099305-.009765625 .49299623-.009765625 .5289917-.009765625 .5549927 .010223389 .57398989 .041229249 .598999 .08125305 .61299136 .13928223 .61299136 .14428711 .61299136 .14628601 .6119995 .15829468 .59399417 .15829468 .57899478 .15829468 .57699587 .1512909 .57299807 .13528443 .5569916 .07424927 .5359955 .023223877 .49699403 .023223877 .46299745 .023223877 .45999146 .059249879 .45999146 .07424927 .45999146 .087249759 .45999146 .09025574 .46499635 .10826111L.6049957 .66430667M.3889923 .13127136C.38398744 .11326599 .38398744 .11126709 .36999513 .09625244 .31498719 .034225465 .2639923 .023223877 .23899842 .023223877 .19898987 .023223877 .1599884 .050231935 .1599884 .121276859 .1599884 .16229248 .18099976 .2603302 .21299744 .3173523 .24299622 .37138368 .2939911 .4084015 .34199525 .4084015 .4169922 .4084015 .43598939 .32936097 .43598939 .32235719L.43299867 .3083496 .3889923 .13127136Z"/>
<path id="font_7_2" d="M.8509979 .22944641C.7319946 .14404297 .70799258 .012786865 .70799258 .0017852783 .70799258-.012207031 .72099307-.012207031 .72898867-.012207031 .7409973-.012207031 .7480011-.012207031 .7509918 .00079345706 .7779999 .118927 .8470001 .19729615 .95599368 .23745728 .96199038 .23945618 .9700012 .2424469 .9700012 .25045777 .9700012 .25946046 .96299746 .26245118 .95700076 .26445008 .83099368 .31137086 .7739868 .400177 .7509918 .4981537 .7480011 .512146 .74398806 .5131531 .72898867 .5131531 .7200012 .5131531 .70799258 .5131531 .70799258 .4991455 .70799258 .48814393 .7319946 .3562622 .8509979 .27246095H.09399414C.07699585 .27246095 .056991579 .27246095 .056991579 .25144959 .056991579 .22944641 .07598877 .22944641 .09399414 .22944641H.8509979Z"/>
<path id="font_3_4" d="M.7719879 .574646C.7819977 .6156311 .8009949 .64860537 .8789978 .6516113 .8849945 .6516113 .8969879 .65260317 .8969879 .6696167 .8969879 .6776123 .8909912 .6826172 .8829956 .6826172 .86099246 .6826172 .8049927 .6796112 .7829895 .6796112 .7579956 .6796112 .7559967 .6796112 .7319946 .680603 .71598818 .680603 .69499209 .6826172 .6799927 .6826172 .6759949 .6826172 .6619873 .6826172 .6619873 .6646118 .6619873 .6516113 .673996 .6516113 .6799927 .6516113 .71798709 .65060427 .746994 .6416168 .746994 .6086273 .746994 .6036377 .74398806 .5896454 .74398806 .5886383L.6319885 .1439209 .40299989 .6626129C.3939972 .6816101 .3929901 .6826172 .36999513 .6826172H.23699951C.21798706 .6826172 .20698548 .6826172 .20698548 .6646118 .20698548 .6516113 .21699524 .6516113 .23699951 .6516113 .24198914 .6516113 .2789917 .6516113 .30299378 .6456146L.16799927 .10594177C.1559906 .05697632 .1309967 .033996583 .06098938 .0309906 .056991579 .0309906 .04399109 .02999878 .04399109 .0129852299 .04399109 .010986328 .04399109 0 .057998659 0 .069992069 0 .09498596 .0009918213 .10798645 .0019989014 .12399292 .0029907227 .12599182 .0029907227 .1579895 .0029907227 .18299866 .0029907227 .18499756 .0029907227 .20899964 .0019989014 .22499085 .0019989014 .24598694 0 .26098634 0 .2659912 0 .2789917 0 .2789917 .017990113 .2789917 .02999878 .2679901 .0309906 .25898744 .0309906 .21199036 .03199768 .19400025 .04698181 .19400025 .07395935 .19400025 .080963138 .19499207 .081954959 .19799805 .095947269L.32899476 .6226196 .5970001 .017990113C.60398867 .0019989014 .6049957 0 .61499026 0 .6279907 0 .6289978 .0039978029 .6329956 .020996094L.7719879 .574646Z"/>
<path id="font_6_1" d="M.34098817-.23803711C.34098817-.23303223 .33799745-.23002625 .33198548-.22303772 .20298767-.105026248 .1639862 .07498169 .1639862 .24996948 .1639862 .40498353 .19400025 .59298709 .33499146 .72698977 .33898927 .73098757 .34098817 .73399356 .34098817 .7389984 .34098817 .74598696 .33599855 .75 .32899476 .75 .31698609 .75 .22698975 .6779785 .17298889 .568985 .125 .47297669 .100997928 .36997987 .100997928 .25097657 .100997928 .17897034 .10998535 .064971927 .16499329-.053024293 .22399903-.17602539 .31698609-.24902344 .32899476-.24902344 .33599855-.24902344 .34098817-.24502564 .34098817-.23803711Z"/>
<path id="font_6_3" d="M.47299195 .31976319C.47299195 .38682557 .46998597 .47288514 .43499757 .5479431 .3909912 .64201357 .31498719 .6660156 .25698854 .6660156 .19699097 .6660156 .12098694 .64201357 .07699585 .5459442 .04499817 .47688294 .039993287 .39582826 .039993287 .31976319 .039993287 .25471498 .041992189 .15765381 .084991458 .07858276 .13198853-.0064697267 .20999146-.022460938 .2559967-.022460938 .32099916-.022460938 .394989 .0055389406 .43699647 .097595218 .46699525 .1646576 .47299195 .23971558 .47299195 .31976319M.25698854 .002532959C.22698975 .002532959 .15499878 .016540528 .13598633 .12962342 .12599182 .18867493 .12599182 .2747345 .12599182 .33177186 .12599182 .39982606 .12599182 .47888185 .13798523 .53393557 .1579895 .6230011 .22200012 .64100649 .2559967 .64100649 .2939911 .64100649 .35699464 .62098696 .37599183 .5279236 .3869934 .47288514 .3869934 .39482118 .3869934 .33177186 .3869934 .2697296 .3869934 .18566895 .3769989 .12661743 .35598756 .012542725 .28199769 .002532959 .25698854 .002532959Z"/>
<path id="font_3_3" d="M.18199158 .015991211C.18199158-.017044068 .18199158-.09921265 .10798645-.17036438 .101989749-.17636109 .101989749-.17736817 .101989749-.18136597 .101989749-.18836975 .10899353-.19335938 .114990238-.19335938 .12599182-.19335938 .20698548-.115249637 .20698548 .0019989014 .20698548 .06399536 .18499756 .10798645 .14199829 .10798645 .10798645 .10798645 .08799744 .08198547 .08799744 .053985597 .08799744 .025985718 .10798645 0 .14199829 0 .15699768 0 .17199707 .004989624 .18199158 .015991211Z"/>
<path id="font_6_4" d="M.3039856 .6392822C.3039856 .6642761 .30299378 .666275 .27799989 .666275 .21598816 .60227969 .12399292 .60227969 .09298706 .60227969V.57128909C.11199951 .57128909 .17298889 .57128909 .22698975 .5972748V.08001709C.22698975 .042999269 .22399903 .0309906 .1309967 .0309906H.09899902V0C.1349945 .0029907227 .22399903 .0029907227 .2649994 .0029907227 .30599977 .0029907227 .3959961 .0029907227 .43199159 0V.0309906H.3999939C.30699159 .0309906 .3039856 .042999269 .3039856 .08001709V.6392822Z"/>
<path id="font_6_2" d="M.2979889 .25097657C.2979889 .3329773 .28599549 .4429779 .23399353 .5539856 .1749878 .6769867 .08198547 .75 .069992069 .75 .05999756 .75 .057998659 .74198916 .057998659 .7389984 .057998659 .73399356 .05999756 .73098757 .066986087 .72398379 .125 .6719818 .23498535 .5359802 .23498535 .25097657 .23498535 .10797119 .20899964-.091033939 .06399536-.22602844 .06199646-.22903443 .057998659-.23303223 .057998659-.23803711 .057998659-.24102783 .05999756-.24902344 .069992069-.24902344 .08198547-.24902344 .17199707-.17703247 .22599793-.06802368 .27398683 .02796936 .2979889 .13098145 .2979889 .25097657Z"/>
</defs>
<use data-text="n" xlink:href="#font_1_1" transform="matrix(9.96264,0,0,-9.96264,49.50698,17.711997)"/>
<use data-text="=" xlink:href="#font_2_5" transform="matrix(9.96264,0,0,-9.96264,58.254243,17.711997)"/>
<use data-text="1" xlink:href="#font_2_2" transform="matrix(9.96264,0,0,-9.96264,68.75487,17.711997)"/>
<path transform="matrix(1,0,0,-1,19.10926,92.09883)" stroke-width=".79701" stroke-linecap="butt" stroke-miterlimit="10" stroke-linejoin="miter" fill="none" stroke="#000000" d="M-8.50412 0H87.36761"/>
<path transform="matrix(1,0,0,-1,106.47687,92.09883)" d="M4.53381 0C3.97704 .13808 1.52963 .92049 0 1.77196V-1.77196C1.52963-.92049 3.97704-.13808 4.53381 0Z"/>
<path transform="matrix(1,0,0,-1,106.47687,92.09883)" stroke-width=".79701" stroke-linecap="butt" stroke-miterlimit="10" stroke-linejoin="miter" fill="none" stroke="#000000" d="M4.53381 0C3.97704 .13808 1.52963 .92049 0 1.77196V-1.77196C1.52963-.92049 3.97704-.13808 4.53381 0Z"/>
<use data-text="k" xlink:href="#font_3_7" transform="matrix(8.966376,0,0,-8.966376,116.37287,95.21219)"/>
<path transform="matrix(1,0,0,-1,19.10926,92.09883)" stroke-width=".79701" stroke-linecap="butt" stroke-miterlimit="10" stroke-linejoin="miter" fill="none" stroke="#000000" d="M0-5.66927V50.51668"/>
<path transform="matrix(0,-1,-1,-0,19.10926,41.58215)" d="M4.53381 0C3.97704 .13808 1.52963 .92049 0 1.77196V-1.77196C1.52963-.92049 3.97704-.13808 4.53381 0Z"/>
<path transform="matrix(0,-1,-1,-0,19.10926,41.58215)" stroke-width=".79701" stroke-linecap="butt" stroke-miterlimit="10" stroke-linejoin="miter" fill="none" stroke="#000000" d="M4.53381 0C3.97704 .13808 1.52963 .92049 0 1.77196V-1.77196C1.52963-.92049 3.97704-.13808 4.53381 0Z"/>
<path transform="matrix(1,0,0,-1,19.10926,92.09883)" d="M0 0V28.3468H10.20485V0ZM10.20485 28.3468" fill="#b8b8ff"/>
<path transform="matrix(1,0,0,-1,19.10926,92.09883)" stroke-width=".79701" stroke-linecap="butt" stroke-miterlimit="10" stroke-linejoin="miter" fill="none" stroke="#000099" d="M0 0V28.3468H10.20485V0ZM10.20485 28.3468"/>
<path transform="matrix(1,0,0,-1,19.10926,92.09883)" d="M11.33855 0V28.3468H21.5434V0ZM21.5434 28.3468" fill="#b8b8ff"/>
<path transform="matrix(1,0,0,-1,19.10926,92.09883)" stroke-width=".79701" stroke-linecap="butt" stroke-miterlimit="10" stroke-linejoin="miter" fill="none" stroke="#000099" d="M11.33855 0V28.3468H21.5434V0ZM21.5434 28.3468"/>
<path transform="matrix(1,0,0,-1,19.10926,92.09883)" d="M22.6771 0V28.3468H32.88196V0ZM32.88196 28.3468" fill="#b8b8ff"/>
<path transform="matrix(1,0,0,-1,19.10926,92.09883)" stroke-width=".79701" stroke-linecap="butt" stroke-miterlimit="10" stroke-linejoin="miter" fill="none" stroke="#000099" d="M22.6771 0V28.3468H32.88196V0ZM32.88196 28.3468"/>
<path transform="matrix(1,0,0,-1,19.10926,92.09883)" d="M34.01564 0V28.3468H44.2205V0ZM44.2205 28.3468" fill="#b8b8ff"/>
<path transform="matrix(1,0,0,-1,19.10926,92.09883)" stroke-width=".79701" stroke-linecap="butt" stroke-miterlimit="10" stroke-linejoin="miter" fill="none" stroke="#000099" d="M34.01564 0V28.3468H44.2205V0ZM44.2205 28.3468"/>
<path transform="matrix(1,0,0,-1,19.10926,92.09883)" d="M45.35419 0V28.3468H55.55905V0ZM55.55905 28.3468" fill="#b8b8ff"/>
<path transform="matrix(1,0,0,-1,19.10926,92.09883)" stroke-width=".79701" stroke-linecap="butt" stroke-miterlimit="10" stroke-linejoin="miter" fill="none" stroke="#000099" d="M45.35419 0V28.3468H55.55905V0ZM55.55905 28.3468"/>
<path transform="matrix(1,0,0,-1,19.10926,92.09883)" d="M56.69275 0V28.3468H66.8976V0ZM66.8976 28.3468" fill="#b8b8ff"/>
<path transform="matrix(1,0,0,-1,19.10926,92.09883)" stroke-width=".79701" stroke-linecap="butt" stroke-miterlimit="10" stroke-linejoin="miter" fill="none" stroke="#000099" d="M56.69275 0V28.3468H66.8976V0ZM66.8976 28.3468"/>
<path transform="matrix(1,0,0,-1,19.10926,92.09883)" stroke-width=".79701" stroke-linecap="butt" stroke-dasharray="2.98883,2.98883" stroke-miterlimit="10" stroke-linejoin="miter" fill="none" stroke="#cc0000" d="M-5.66927 28.3468H85.04042"/>
<use data-text="U" xlink:href="#font_4_108" transform="matrix(6.973848,0,0,-6.973848,11.290527,54.79857)" fill="#cc0000"/>
<use data-text="n" xlink:href="#font_4_77" transform="matrix(6.973848,0,0,-6.973848,17.16948,54.79857)" fill="#cc0000"/>
<use data-text="i" xlink:href="#font_4_66" transform="matrix(6.973848,0,0,-6.973848,21.569977,54.79857)" fill="#cc0000"/>
<use data-text="f" xlink:href="#font_4_55" transform="matrix(6.973848,0,0,-6.973848,23.822529,54.79857)" fill="#cc0000"/>
<use data-text="o" xlink:href="#font_4_81" transform="matrix(6.973848,0,0,-6.973848,26.291272,54.79857)" fill="#cc0000"/>
<use data-text="r" xlink:href="#font_4_96" transform="matrix(6.973848,0,0,-6.973848,30.259392,54.79857)" fill="#cc0000"/>
<use data-text="m" xlink:href="#font_4_75" transform="matrix(6.973848,0,0,-6.973848,33.369729,54.79857)" fill="#cc0000"/>
<use data-text="f" xlink:href="#font_4_126" transform="matrix(6.973848,0,0,-6.973848,55.834115,114.70169)"/>
<use data-text="a" xlink:href="#font_4_28" transform="matrix(6.973848,0,0,-6.973848,60.346197,114.70169)"/>
<use data-text="t" xlink:href="#font_4_105" transform="matrix(6.973848,0,0,-6.973848,64.314319,114.70169)"/>
<use data-text="n" xlink:href="#font_1_1" transform="matrix(9.96264,0,0,-9.96264,177.06769,17.711997)"/>
<use data-text="=" xlink:href="#font_2_5" transform="matrix(9.96264,0,0,-9.96264,185.81494,17.711997)"/>
<use data-text="5" xlink:href="#font_2_4" transform="matrix(9.96264,0,0,-9.96264,196.31557,17.711997)"/>
<path transform="matrix(1,0,0,-1,19.10926,92.09883)" stroke-width=".79701" stroke-linecap="butt" stroke-miterlimit="10" stroke-linejoin="miter" fill="none" stroke="#000000" d="M119.05656 0H214.92832"/>
<path transform="matrix(1,0,0,-1,234.03757,92.09883)" d="M4.53381 0C3.97704 .13808 1.52963 .92049 0 1.77196V-1.77196C1.52963-.92049 3.97704-.13808 4.53381 0Z"/>
<path transform="matrix(1,0,0,-1,234.03757,92.09883)" stroke-width=".79701" stroke-linecap="butt" stroke-miterlimit="10" stroke-linejoin="miter" fill="none" stroke="#000000" d="M4.53381 0C3.97704 .13808 1.52963 .92049 0 1.77196V-1.77196C1.52963-.92049 3.97704-.13808 4.53381 0Z"/>
<use data-text="k" xlink:href="#font_3_7" transform="matrix(8.966376,0,0,-8.966376,243.93357,95.21219)"/>
<path transform="matrix(1,0,0,-1,19.10926,92.09883)" stroke-width=".79701" stroke-linecap="butt" stroke-miterlimit="10" stroke-linejoin="miter" fill="none" stroke="#000000" d="M127.56068-5.66927V50.51668"/>
<path transform="matrix(0,-1,-1,-0,146.66994,41.58215)" d="M4.53381 0C3.97704 .13808 1.52963 .92049 0 1.77196V-1.77196C1.52963-.92049 3.97704-.13808 4.53381 0Z"/>
<path transform="matrix(0,-1,-1,-0,146.66994,41.58215)" stroke-width=".79701" stroke-linecap="butt" stroke-miterlimit="10" stroke-linejoin="miter" fill="none" stroke="#000000" d="M4.53381 0C3.97704 .13808 1.52963 .92049 0 1.77196V-1.77196C1.52963-.92049 3.97704-.13808 4.53381 0Z"/>
<path transform="matrix(1,0,0,-1,19.10926,92.09883)" d="M127.56068 0V2.83484H132.94664V0ZM132.94664 2.83484" fill="#b8b8ff"/>
<path transform="matrix(1,0,0,-1,19.10926,92.09883)" stroke-width=".3985" stroke-linecap="butt" stroke-miterlimit="10" stroke-linejoin="miter" fill="none" stroke="#000099" d="M127.56068 0V2.83484H132.94664V0ZM132.94664 2.83484"/>
<path transform="matrix(1,0,0,-1,19.10926,92.09883)" d="M133.5137 0V5.66927H138.89966V0ZM138.89966 5.66927" fill="#b8b8ff"/>
<path transform="matrix(1,0,0,-1,19.10926,92.09883)" stroke-width=".3985" stroke-linecap="butt" stroke-miterlimit="10" stroke-linejoin="miter" fill="none" stroke="#000099" d="M133.5137 0V5.66927H138.89966V0ZM138.89966 5.66927"/>
<path transform="matrix(1,0,0,-1,19.10926,92.09883)" d="M139.46672 0V11.33855H144.85268V0ZM144.85268 11.33855" fill="#b8b8ff"/>
<path transform="matrix(1,0,0,-1,19.10926,92.09883)" stroke-width=".3985" stroke-linecap="butt" stroke-miterlimit="10" stroke-linejoin="miter" fill="none" stroke="#000099" d="M139.46672 0V11.33855H144.85268V0ZM144.85268 11.33855"/>
<path transform="matrix(1,0,0,-1,19.10926,92.09883)" d="M145.41974 0V18.42523H150.8057V0ZM150.8057 18.42523" fill="#b8b8ff"/>
<path transform="matrix(1,0,0,-1,19.10926,92.09883)" stroke-width=".3985" stroke-linecap="butt" stroke-miterlimit="10" stroke-linejoin="miter" fill="none" stroke="#000099" d="M145.41974 0V18.42523H150.8057V0ZM150.8057 18.42523"/>
<path transform="matrix(1,0,0,-1,19.10926,92.09883)" d="M151.37277 0V26.92937H156.75872V0ZM156.75872 26.92937" fill="#b8b8ff"/>
<path transform="matrix(1,0,0,-1,19.10926,92.09883)" stroke-width=".3985" stroke-linecap="butt" stroke-miterlimit="10" stroke-linejoin="miter" fill="none" stroke="#000099" d="M151.37277 0V26.92937H156.75872V0ZM156.75872 26.92937"/>
<path transform="matrix(1,0,0,-1,19.10926,92.09883)" d="M157.32579 0V34.01608H162.71175V0ZM162.71175 34.01608" fill="#b8b8ff"/>
<path transform="matrix(1,0,0,-1,19.10926,92.09883)" stroke-width=".3985" stroke-linecap="butt" stroke-miterlimit="10" stroke-linejoin="miter" fill="none" stroke="#000099" d="M157.32579 0V34.01608H162.71175V0ZM162.71175 34.01608"/>
<path transform="matrix(1,0,0,-1,19.10926,92.09883)" d="M163.27881 0V39.68535H168.66477V0ZM168.66477 39.68535" fill="#b8b8ff"/>
<path transform="matrix(1,0,0,-1,19.10926,92.09883)" stroke-width=".3985" stroke-linecap="butt" stroke-miterlimit="10" stroke-linejoin="miter" fill="none" stroke="#000099" d="M163.27881 0V39.68535H168.66477V0ZM168.66477 39.68535"/>
<path transform="matrix(1,0,0,-1,19.10926,92.09883)" d="M169.23183 0V39.68535H174.6178V0ZM174.6178 39.68535" fill="#b8b8ff"/>
<path transform="matrix(1,0,0,-1,19.10926,92.09883)" stroke-width=".3985" stroke-linecap="butt" stroke-miterlimit="10" stroke-linejoin="miter" fill="none" stroke="#000099" d="M169.23183 0V39.68535H174.6178V0ZM174.6178 39.68535"/>
<path transform="matrix(1,0,0,-1,19.10926,92.09883)" d="M175.18485 0V34.01608H180.57082V0ZM180.57082 34.01608" fill="#b8b8ff"/>
<path transform="matrix(1,0,0,-1,19.10926,92.09883)" stroke-width=".3985" stroke-linecap="butt" stroke-miterlimit="10" stroke-linejoin="miter" fill="none" stroke="#000099" d="M175.18485 0V34.01608H180.57082V0ZM180.57082 34.01608"/>
<path transform="matrix(1,0,0,-1,19.10926,92.09883)" d="M181.13787 0V26.92937H186.52384V0ZM186.52384 26.92937" fill="#b8b8ff"/>
<path transform="matrix(1,0,0,-1,19.10926,92.09883)" stroke-width=".3985" stroke-linecap="butt" stroke-miterlimit="10" stroke-linejoin="miter" fill="none" stroke="#000099" d="M181.13787 0V26.92937H186.52384V0ZM186.52384 26.92937"/>
<path transform="matrix(1,0,0,-1,19.10926,92.09883)" d="M187.0909 0V18.42523H192.47686V0ZM192.47686 18.42523" fill="#b8b8ff"/>
<path transform="matrix(1,0,0,-1,19.10926,92.09883)" stroke-width=".3985" stroke-linecap="butt" stroke-miterlimit="10" stroke-linejoin="miter" fill="none" stroke="#000099" d="M187.0909 0V18.42523H192.47686V0ZM192.47686 18.42523"/>
<path transform="matrix(1,0,0,-1,19.10926,92.09883)" d="M193.04392 0V11.33855H198.42987V0ZM198.42987 11.33855" fill="#b8b8ff"/>
<path transform="matrix(1,0,0,-1,19.10926,92.09883)" stroke-width=".3985" stroke-linecap="butt" stroke-miterlimit="10" stroke-linejoin="miter" fill="none" stroke="#000099" d="M193.04392 0V11.33855H198.42987V0ZM198.42987 11.33855"/>
<path transform="matrix(1,0,0,-1,19.10926,92.09883)" d="M198.99694 0V5.66927H204.38289V0ZM204.38289 5.66927" fill="#b8b8ff"/>
<path transform="matrix(1,0,0,-1,19.10926,92.09883)" stroke-width=".3985" stroke-linecap="butt" stroke-miterlimit="10" stroke-linejoin="miter" fill="none" stroke="#000099" d="M198.99694 0V5.66927H204.38289V0ZM204.38289 5.66927"/>
<path transform="matrix(1,0,0,-1,19.10926,92.09883)" d="M204.94995 0V2.83484H210.3359V0ZM210.3359 2.83484" fill="#b8b8ff"/>
<path transform="matrix(1,0,0,-1,19.10926,92.09883)" stroke-width=".3985" stroke-linecap="butt" stroke-miterlimit="10" stroke-linejoin="miter" fill="none" stroke="#000099" d="M204.94995 0V2.83484H210.3359V0ZM210.3359 2.83484"/>
<path transform="matrix(1,0,0,-1,19.10926,92.09883)" stroke-width=".79701" stroke-linecap="butt" stroke-miterlimit="10" stroke-linejoin="miter" fill="none" stroke="#cc0000" d="M119.05656 .55666C119.05656 .55666 119.98973 .64531 120.34813 .68427 120.70653 .7232 121.28128 .79137 121.63968 .83737 121.9981 .88339 122.57285 .96172 122.93124 1.01602 123.28964 1.07031 123.86441 1.1645 124.22281 1.22884 124.5812 1.29315 125.15598 1.4042 125.51437 1.47969 125.87276 1.55519 126.44753 1.68445 126.80591 1.77295 127.16429 1.86147 127.73907 2.01561 128.09746 2.11769 128.45584 2.21977 129.03061 2.39186 129.38903 2.5087 129.74742 2.62553 130.32218 2.82526 130.68058 2.95985 131.03899 3.09445 131.61374 3.32605 131.97214 3.47888 132.33054 3.63173 132.90529 3.88922 133.2637 4.06152 133.6221 4.23383 134.19686 4.52663 134.55525 4.7207 134.91367 4.9148 135.48842 5.24321 135.84682 5.46034 136.20522 5.67747 136.77999 6.04433 137.13838 6.28563 137.49677 6.52693 138.07154 6.93347 138.42992 7.19957 138.78832 7.46567 139.36309 7.9119 139.72148 8.20349 140.07988 8.4951 140.65465 8.98381 141.01305 9.30128 141.37145 9.61874 141.9462 10.14769 142.3046 10.49162 142.66301 10.83556 143.23777 11.41019 143.59616 11.78015 143.95456 12.15013 144.52933 12.76399 144.88773 13.15822 145.24613 13.55243 145.82088 14.20369 146.17928 14.6215 146.53769 15.0393 147.11244 15.72935 147.47084 16.16954 147.82924 16.60974 148.404 17.33447 148.7624 17.79416 149.1208 18.25386 149.69557 19.00659 150.05397 19.48279 150.41236 19.95898 150.98712 20.73653 151.3455 21.22635 151.70389 21.71617 152.27867 22.51393 152.63707 23.01317 152.99547 23.51242 153.57022 24.32071 153.92864 24.82465 154.28704 25.32857 154.86179 26.14125 155.22019 26.64519 155.57859 27.14911 156.15335 27.95805 156.51175 28.45665 156.87015 28.95525 157.4449 29.75075 157.80332 30.23872 158.16172 30.72668 158.73647 31.50156 159.09487 31.97363 159.45328 32.4457 160.02803 33.19078 160.38643 33.64105 160.74483 34.09134 161.3196 34.7964 161.678 35.21896 162.03638 35.64151 162.61115 36.29713 162.96953 36.68657 163.32793 37.07599 163.9027 37.6741 164.2611 38.02571 164.61949 38.3773 165.19425 38.91208 165.55266 39.2208 165.91106 39.5295 166.48581 39.98979 166.84421 40.25067 167.20262 40.51155 167.77738 40.89095 168.13578 41.10104 168.49417 41.31116 169.06894 41.60927 169.42734 41.765 169.78574 41.92073 170.36049 42.1244 170.71889 42.22346 171.0773 42.32254 171.65206 42.43831 172.01045 42.47911 172.36885 42.51991 172.94364 42.5353 173.30202 42.5176 173.6604 42.49991 174.23517 42.42706 174.59355 42.3515 174.95195 42.27596 175.52672 42.10637 175.88512 41.97304 176.24352 41.83969 176.81829 41.5786 177.17668 41.3904 177.53508 41.20221 178.10984 40.85736 178.46825 40.6166 178.82665 40.37582 179.4014 39.94487 179.7598 39.65508 180.1182 39.36526 180.69297 38.8625 181.05136 38.52788 181.40976 38.19325 181.98451 37.6185 182.34293 37.24324 182.70133 36.86798 183.27608 36.23335 183.63448 35.82321 183.99288 35.41307 184.56764 34.72691 184.92604 34.28726 185.28444 33.84761 185.8592 33.11821 186.2176 32.65443 186.57599 32.19066 187.15076 31.4273 187.50914 30.94463 187.86754 30.46194 188.4423 29.67119 188.8007 29.17554 189.1591 28.67989 189.73386 27.8744 190.09227 27.37228 190.45067 26.87016 191.02542 26.06042 191.38382 25.55649 191.74224 25.05257 192.31699 24.24185 192.67539 23.74026 193.03379 23.23868 193.60854 22.43526 193.96695 21.94135 194.32535 21.44743 194.9001 20.66263 195.2585 20.18048 195.61692 19.69833 196.19167 18.9331 196.55007 18.46632 196.90847 17.99954 197.48325 17.26466 197.84163 16.8162 198.20001 16.36772 198.77478 15.66121 199.13317 15.23398 199.49156 14.80673 200.06633 14.14114 200.42473 13.73695 200.78313 13.33276 201.3579 12.7009 201.7163 12.32083 202.07469 11.94077 202.64945 11.35176 203.00785 10.9977 203.36626 10.64363 203.94101 10.0969 204.29941 9.76886 204.6578 9.44083 205.23258 8.93555 205.59098 8.63344 205.94937 8.33133 206.52413 7.86765 206.88254 7.59146 207.24094 7.31529 207.81569 6.89369 208.17409 6.64291 208.53249 6.39212 209.10727 6.01054 209.46566 5.78389 209.82404 5.55722 210.3988 5.21283 210.7572 5.00922 211.11559 4.8056 211.69036 4.49739 212.04875 4.31627 212.40715 4.13516 212.98192 3.86427 213.34032 3.7038 213.69872 3.54333 214.27347 3.30124 214.63188 3.15968 214.99028 3.01811 215.56504 2.80743 215.92343 2.68344 216.28185 2.55946 216.8566 2.37405 217.215 2.26605 217.5734 2.15804 218.14815 1.998 218.50656 1.90488 218.86496 1.81175 219.43972 1.67499 219.79811 1.59476 220.15653 1.51453 221.08968 1.32658 221.08968 1.32658"/>
<use data-text="b" xlink:href="#font_4_35" transform="matrix(6.973848,0,0,-6.973848,221.05677,74.64126)" fill="#cc0000"/>
<use data-text="e" xlink:href="#font_4_50" transform="matrix(6.973848,0,0,-6.973848,225.67346,74.64126)" fill="#cc0000"/>
<use data-text="l" xlink:href="#font_4_72" transform="matrix(6.973848,0,0,-6.973848,229.21617,74.64126)" fill="#cc0000"/>
<use data-text="l" xlink:href="#font_4_72" transform="matrix(6.973848,0,0,-6.973848,231.46872,74.64126)" fill="#cc0000"/>
<use data-text="h" xlink:href="#font_4_63" transform="matrix(6.973848,0,0,-6.973848,179.42316,114.63196)"/>
<use data-text="u" xlink:href="#font_4_109" transform="matrix(6.973848,0,0,-6.973848,183.61444,114.63196)"/>
<use data-text="m" xlink:href="#font_4_75" transform="matrix(6.973848,0,0,-6.973848,188.01494,114.63196)"/>
<use data-text="p" xlink:href="#font_4_84" transform="matrix(6.973848,0,0,-6.973848,194.56339,114.63196)"/>
<use data-text="n" xlink:href="#font_1_1" transform="matrix(9.96264,0,0,-9.96264,302.13768,17.711997)"/>
<use data-text="=" xlink:href="#font_2_5" transform="matrix(9.96264,0,0,-9.96264,310.88496,17.711997)"/>
<use data-text="3" xlink:href="#font_2_3" transform="matrix(9.96264,0,0,-9.96264,321.38557,17.711997)"/>
<use data-text="0" xlink:href="#font_2_1" transform="matrix(9.96264,0,0,-9.96264,326.36689,17.711997)"/>
<path transform="matrix(1,0,0,-1,19.10926,92.09883)" stroke-width=".79701" stroke-linecap="butt" stroke-miterlimit="10" stroke-linejoin="miter" fill="none" stroke="#000000" d="M246.61727 0H342.489"/>
<path transform="matrix(1,0,0,-1,361.59828,92.09883)" d="M4.53381 0C3.97704 .13808 1.52963 .92049 0 1.77196V-1.77196C1.52963-.92049 3.97704-.13808 4.53381 0Z"/>
<path transform="matrix(1,0,0,-1,361.59828,92.09883)" stroke-width=".79701" stroke-linecap="butt" stroke-miterlimit="10" stroke-linejoin="miter" fill="none" stroke="#000000" d="M4.53381 0C3.97704 .13808 1.52963 .92049 0 1.77196V-1.77196C1.52963-.92049 3.97704-.13808 4.53381 0Z"/>
<use data-text="k" xlink:href="#font_3_7" transform="matrix(8.966376,0,0,-8.966376,371.49427,95.21219)"/>
<path transform="matrix(1,0,0,-1,19.10926,92.09883)" stroke-width=".79701" stroke-linecap="butt" stroke-miterlimit="10" stroke-linejoin="miter" fill="none" stroke="#000000" d="M255.12139-5.66927V50.51668"/>
<path transform="matrix(0,-1,-1,-0,274.23066,41.58215)" d="M4.53381 0C3.97704 .13808 1.52963 .92049 0 1.77196V-1.77196C1.52963-.92049 3.97704-.13808 4.53381 0Z"/>
<path transform="matrix(0,-1,-1,-0,274.23066,41.58215)" stroke-width=".79701" stroke-linecap="butt" stroke-miterlimit="10" stroke-linejoin="miter" fill="none" stroke="#000000" d="M4.53381 0C3.97704 .13808 1.52963 .92049 0 1.77196V-1.77196C1.52963-.92049 3.97704-.13808 4.53381 0Z"/>
<path transform="matrix(1,0,0,-1,19.10926,92.09883)" d="M255.12139 0V.06961H257.3892V0ZM257.3892 .06961" fill="#b8b8ff"/>
<path transform="matrix(1,0,0,-1,19.10926,92.09883)" stroke-width=".3985" stroke-linecap="butt" stroke-miterlimit="10" stroke-linejoin="miter" fill="none" stroke="#000099" d="M255.12139 0V.06961H257.3892V0ZM257.3892 .06961"/>
<path transform="matrix(1,0,0,-1,19.10926,92.09883)" d="M257.95625 0V.17169H260.22404V0ZM260.22404 .17169" fill="#b8b8ff"/>
<path transform="matrix(1,0,0,-1,19.10926,92.09883)" stroke-width=".3985" stroke-linecap="butt" stroke-miterlimit="10" stroke-linejoin="miter" fill="none" stroke="#000099" d="M257.95625 0V.17169H260.22404V0ZM260.22404 .17169"/>
<path transform="matrix(1,0,0,-1,19.10926,92.09883)" d="M260.79109 0V.39618H263.05888V0ZM263.05888 .39618" fill="#b8b8ff"/>
<path transform="matrix(1,0,0,-1,19.10926,92.09883)" stroke-width=".3985" stroke-linecap="butt" stroke-miterlimit="10" stroke-linejoin="miter" fill="none" stroke="#000099" d="M260.79109 0V.39618H263.05888V0ZM263.05888 .39618"/>
<path transform="matrix(1,0,0,-1,19.10926,92.09883)" d="M263.62593 0V.85252H265.89375V0ZM265.89375 .85252" fill="#b8b8ff"/>
<path transform="matrix(1,0,0,-1,19.10926,92.09883)" stroke-width=".3985" stroke-linecap="butt" stroke-miterlimit="10" stroke-linejoin="miter" fill="none" stroke="#000099" d="M263.62593 0V.85252H265.89375V0ZM265.89375 .85252"/>
<path transform="matrix(1,0,0,-1,19.10926,92.09883)" d="M266.4608 0V1.71542H268.72859V0ZM268.72859 1.71542" fill="#b8b8ff"/>
<path transform="matrix(1,0,0,-1,19.10926,92.09883)" stroke-width=".3985" stroke-linecap="butt" stroke-miterlimit="10" stroke-linejoin="miter" fill="none" stroke="#000099" d="M266.4608 0V1.71542H268.72859V0ZM268.72859 1.71542"/>
<path transform="matrix(1,0,0,-1,19.10926,92.09883)" d="M269.29566 0V3.23883H271.56346V0ZM271.56346 3.23883" fill="#b8b8ff"/>
<path transform="matrix(1,0,0,-1,19.10926,92.09883)" stroke-width=".3985" stroke-linecap="butt" stroke-miterlimit="10" stroke-linejoin="miter" fill="none" stroke="#000099" d="M269.29566 0V3.23883H271.56346V0ZM271.56346 3.23883"/>
<path transform="matrix(1,0,0,-1,19.10926,92.09883)" d="M272.13053 0V5.70647H274.3983V0ZM274.3983 5.70647" fill="#b8b8ff"/>
<path transform="matrix(1,0,0,-1,19.10926,92.09883)" stroke-width=".3985" stroke-linecap="butt" stroke-miterlimit="10" stroke-linejoin="miter" fill="none" stroke="#000099" d="M272.13053 0V5.70647H274.3983V0ZM274.3983 5.70647"/>
<path transform="matrix(1,0,0,-1,19.10926,92.09883)" d="M274.96537 0V9.40811H277.23316V0ZM277.23316 9.40811" fill="#b8b8ff"/>
<path transform="matrix(1,0,0,-1,19.10926,92.09883)" stroke-width=".3985" stroke-linecap="butt" stroke-miterlimit="10" stroke-linejoin="miter" fill="none" stroke="#000099" d="M274.96537 0V9.40811H277.23316V0ZM277.23316 9.40811"/>
<path transform="matrix(1,0,0,-1,19.10926,92.09883)" d="M277.80024 0V14.51768H280.06803V0ZM280.06803 14.51768" fill="#b8b8ff"/>
<path transform="matrix(1,0,0,-1,19.10926,92.09883)" stroke-width=".3985" stroke-linecap="butt" stroke-miterlimit="10" stroke-linejoin="miter" fill="none" stroke="#000099" d="M277.80024 0V14.51768H280.06803V0ZM280.06803 14.51768"/>
<path transform="matrix(1,0,0,-1,19.10926,92.09883)" d="M280.63508 0V20.94736H282.90287V0ZM282.90287 20.94736" fill="#b8b8ff"/>
<path transform="matrix(1,0,0,-1,19.10926,92.09883)" stroke-width=".3985" stroke-linecap="butt" stroke-miterlimit="10" stroke-linejoin="miter" fill="none" stroke="#000099" d="M280.63508 0V20.94736H282.90287V0ZM282.90287 20.94736"/>
<path transform="matrix(1,0,0,-1,19.10926,92.09883)" d="M283.4699 0V28.27412H285.73774V0ZM285.73774 28.27412" fill="#b8b8ff"/>
<path transform="matrix(1,0,0,-1,19.10926,92.09883)" stroke-width=".3985" stroke-linecap="butt" stroke-miterlimit="10" stroke-linejoin="miter" fill="none" stroke="#000099" d="M283.4699 0V28.27412H285.73774V0ZM285.73774 28.27412"/>
<path transform="matrix(1,0,0,-1,19.10926,92.09883)" d="M286.30479 0V35.70644H288.57258V0ZM288.57258 35.70644" fill="#b8b8ff"/>
<path transform="matrix(1,0,0,-1,19.10926,92.09883)" stroke-width=".3985" stroke-linecap="butt" stroke-miterlimit="10" stroke-linejoin="miter" fill="none" stroke="#000099" d="M286.30479 0V35.70644H288.57258V0ZM288.57258 35.70644"/>
<path transform="matrix(1,0,0,-1,19.10926,92.09883)" d="M289.13963 0V42.18022H291.4074V0ZM291.4074 42.18022" fill="#b8b8ff"/>
<path transform="matrix(1,0,0,-1,19.10926,92.09883)" stroke-width=".3985" stroke-linecap="butt" stroke-miterlimit="10" stroke-linejoin="miter" fill="none" stroke="#000099" d="M289.13963 0V42.18022H291.4074V0ZM291.4074 42.18022"/>
<path transform="matrix(1,0,0,-1,19.10926,92.09883)" d="M291.97447 0V46.61937H294.24229V0ZM294.24229 46.61937" fill="#b8b8ff"/>
<path transform="matrix(1,0,0,-1,19.10926,92.09883)" stroke-width=".3985" stroke-linecap="butt" stroke-miterlimit="10" stroke-linejoin="miter" fill="none" stroke="#000099" d="M291.97447 0V46.61937H294.24229V0ZM294.24229 46.61937"/>
<path transform="matrix(1,0,0,-1,19.10926,92.09883)" d="M294.80934 0V48.18947H297.07713V0ZM297.07713 48.18947" fill="#b8b8ff"/>
<path transform="matrix(1,0,0,-1,19.10926,92.09883)" stroke-width=".3985" stroke-linecap="butt" stroke-miterlimit="10" stroke-linejoin="miter" fill="none" stroke="#000099" d="M294.80934 0V48.18947H297.07713V0ZM297.07713 48.18947"/>
<path transform="matrix(1,0,0,-1,19.10926,92.09883)" d="M297.6442 0V46.61937H299.912V0ZM299.912 46.61937" fill="#b8b8ff"/>
<path transform="matrix(1,0,0,-1,19.10926,92.09883)" stroke-width=".3985" stroke-linecap="butt" stroke-miterlimit="10" stroke-linejoin="miter" fill="none" stroke="#000099" d="M297.6442 0V46.61937H299.912V0ZM299.912 46.61937"/>
<path transform="matrix(1,0,0,-1,19.10926,92.09883)" d="M300.47908 0V42.18022H302.74684V0ZM302.74684 42.18022" fill="#b8b8ff"/>
<path transform="matrix(1,0,0,-1,19.10926,92.09883)" stroke-width=".3985" stroke-linecap="butt" stroke-miterlimit="10" stroke-linejoin="miter" fill="none" stroke="#000099" d="M300.47908 0V42.18022H302.74684V0ZM302.74684 42.18022"/>
<path transform="matrix(1,0,0,-1,19.10926,92.09883)" d="M303.3139 0V35.70644H305.5817V0ZM305.5817 35.70644" fill="#b8b8ff"/>
<path transform="matrix(1,0,0,-1,19.10926,92.09883)" stroke-width=".3985" stroke-linecap="butt" stroke-miterlimit="10" stroke-linejoin="miter" fill="none" stroke="#000099" d="M303.3139 0V35.70644H305.5817V0ZM305.5817 35.70644"/>
<path transform="matrix(1,0,0,-1,19.10926,92.09883)" d="M306.14878 0V28.27412H308.41658V0ZM308.41658 28.27412" fill="#b8b8ff"/>
<path transform="matrix(1,0,0,-1,19.10926,92.09883)" stroke-width=".3985" stroke-linecap="butt" stroke-miterlimit="10" stroke-linejoin="miter" fill="none" stroke="#000099" d="M306.14878 0V28.27412H308.41658V0ZM308.41658 28.27412"/>
<path transform="matrix(1,0,0,-1,19.10926,92.09883)" d="M308.9836 0V20.94736H311.2514V0ZM311.2514 20.94736" fill="#b8b8ff"/>
<path transform="matrix(1,0,0,-1,19.10926,92.09883)" stroke-width=".3985" stroke-linecap="butt" stroke-miterlimit="10" stroke-linejoin="miter" fill="none" stroke="#000099" d="M308.9836 0V20.94736H311.2514V0ZM311.2514 20.94736"/>
<path transform="matrix(1,0,0,-1,19.10926,92.09883)" d="M311.81846 0V14.51768H314.08628V0ZM314.08628 14.51768" fill="#b8b8ff"/>
<path transform="matrix(1,0,0,-1,19.10926,92.09883)" stroke-width=".3985" stroke-linecap="butt" stroke-miterlimit="10" stroke-linejoin="miter" fill="none" stroke="#000099" d="M311.81846 0V14.51768H314.08628V0ZM314.08628 14.51768"/>
<path transform="matrix(1,0,0,-1,19.10926,92.09883)" d="M314.6533 0V9.40811H316.9211V0ZM316.9211 9.40811" fill="#b8b8ff"/>
<path transform="matrix(1,0,0,-1,19.10926,92.09883)" stroke-width=".3985" stroke-linecap="butt" stroke-miterlimit="10" stroke-linejoin="miter" fill="none" stroke="#000099" d="M314.6533 0V9.40811H316.9211V0ZM316.9211 9.40811"/>
<path transform="matrix(1,0,0,-1,19.10926,92.09883)" d="M317.48817 0V5.70647H319.75596V0ZM319.75596 5.70647" fill="#b8b8ff"/>
<path transform="matrix(1,0,0,-1,19.10926,92.09883)" stroke-width=".3985" stroke-linecap="butt" stroke-miterlimit="10" stroke-linejoin="miter" fill="none" stroke="#000099" d="M317.48817 0V5.70647H319.75596V0ZM319.75596 5.70647"/>
<path transform="matrix(1,0,0,-1,19.10926,92.09883)" d="M320.32304 0V3.23883H322.59083V0ZM322.59083 3.23883" fill="#b8b8ff"/>
<path transform="matrix(1,0,0,-1,19.10926,92.09883)" stroke-width=".3985" stroke-linecap="butt" stroke-miterlimit="10" stroke-linejoin="miter" fill="none" stroke="#000099" d="M320.32304 0V3.23883H322.59083V0ZM322.59083 3.23883"/>
<path transform="matrix(1,0,0,-1,19.10926,92.09883)" d="M323.15788 0V1.71542H325.42567V0ZM325.42567 1.71542" fill="#b8b8ff"/>
<path transform="matrix(1,0,0,-1,19.10926,92.09883)" stroke-width=".3985" stroke-linecap="butt" stroke-miterlimit="10" stroke-linejoin="miter" fill="none" stroke="#000099" d="M323.15788 0V1.71542H325.42567V0ZM325.42567 1.71542"/>
<path transform="matrix(1,0,0,-1,19.10926,92.09883)" d="M325.99275 0V.85252H328.26054V0ZM328.26054 .85252" fill="#b8b8ff"/>
<path transform="matrix(1,0,0,-1,19.10926,92.09883)" stroke-width=".3985" stroke-linecap="butt" stroke-miterlimit="10" stroke-linejoin="miter" fill="none" stroke="#000099" d="M325.99275 0V.85252H328.26054V0ZM328.26054 .85252"/>
<path transform="matrix(1,0,0,-1,19.10926,92.09883)" d="M328.82759 0V.39618H331.09538V0ZM331.09538 .39618" fill="#b8b8ff"/>
<path transform="matrix(1,0,0,-1,19.10926,92.09883)" stroke-width=".3985" stroke-linecap="butt" stroke-miterlimit="10" stroke-linejoin="miter" fill="none" stroke="#000099" d="M328.82759 0V.39618H331.09538V0ZM331.09538 .39618"/>
<path transform="matrix(1,0,0,-1,19.10926,92.09883)" d="M331.66246 0V.17169H333.93025V0ZM333.93025 .17169" fill="#b8b8ff"/>
<path transform="matrix(1,0,0,-1,19.10926,92.09883)" stroke-width=".3985" stroke-linecap="butt" stroke-miterlimit="10" stroke-linejoin="miter" fill="none" stroke="#000099" d="M331.66246 0V.17169H333.93025V0ZM333.93025 .17169"/>
<path transform="matrix(1,0,0,-1,19.10926,92.09883)" d="M334.49729 0V.06961H336.76509V0ZM336.76509 .06961" fill="#b8b8ff"/>
<path transform="matrix(1,0,0,-1,19.10926,92.09883)" stroke-width=".3985" stroke-linecap="butt" stroke-miterlimit="10" stroke-linejoin="miter" fill="none" stroke="#000099" d="M334.49729 0V.06961H336.76509V0ZM336.76509 .06961"/>
<path transform="matrix(1,0,0,-1,19.10926,92.09883)" d="M337.33216 0V.02637H339.59996V0ZM339.59996 .02637" fill="#b8b8ff"/>
<path transform="matrix(1,0,0,-1,19.10926,92.09883)" stroke-width=".3985" stroke-linecap="butt" stroke-miterlimit="10" stroke-linejoin="miter" fill="none" stroke="#000099" d="M337.33216 0V.02637H339.59996V0ZM339.59996 .02637"/>
<path transform="matrix(1,0,0,-1,19.10926,92.09883)" stroke-width=".79701" stroke-linecap="butt" stroke-miterlimit="10" stroke-linejoin="miter" fill="none" stroke="#cc0000" d="M246.61727 .00041C246.61727 .00041 247.55042-.0007 247.90883 .00041 248.26723 .00156 248.84198 .00679 249.20038 .00864 249.55879 .0105 250.13355 .01204 250.49195 .01382 250.85034 .01563 251.42511 .01886 251.78351 .0216 252.1419 .02437 252.71668 .02953 253.07506 .03372 253.43346 .03792 254.00823 .0456 254.36661 .0519 254.72499 .05818 255.29978 .06984 255.65816 .07913 256.01655 .08842 256.5913 .10556 256.9497 .11893 257.3081 .13231 257.88288 .15663 258.24128 .17558 258.59968 .19455 259.17445 .22891 259.53285 .25562 259.89125 .2823 260.466 .33147 260.8244 .36807 261.1828 .40468 261.75755 .46965 262.11595 .51945 262.47438 .56926 263.04914 .65952 263.40754 .72708 263.7659 .79466 264.34068 .91685 264.69908 1.0065 265.05747 1.09615 265.63224 1.25621 265.99064 1.37329 266.349 1.49037 266.92378 1.69926 267.28218 1.85037 267.6406 2.00148 268.21534 2.27122 268.57377 2.46242 268.93214 2.65363 269.5069 2.98972 269.8653 3.22845 270.22373 3.46718 270.79847 3.88942 271.15687 4.18306 271.51527 4.4767 272.09 4.98904 272.44844 5.34485 272.80683 5.70067 273.3816 6.32358 273.73997 6.74757 274.0984 7.17157 274.67314 7.9039 275.03157 8.40074 275.38996 8.89758 275.9647 9.75537 276.3231 10.32857 276.6815 10.90176 277.25627 11.88179 277.61466 12.5319 277.97306 13.18204 278.54783 14.29001 278.9062 15.01424 279.2646 15.73848 279.83937 16.96063 280.19779 17.75179 280.55619 18.54294 281.13093 19.86769 281.48933 20.7164 281.84773 21.56511 282.4225 22.97723 282.78089 23.86873 283.13929 24.76021 283.71406 26.22617 284.07246 27.14174 284.43086 28.05731 285.0056 29.54933 285.364 30.46753 285.7224 31.38573 286.29716 32.86339 286.65556 33.75957 287.01396 34.65576 287.58876 36.07922 287.94715 36.92662 288.30555 37.774 288.8803 39.09525 289.2387 39.86702 289.59709 40.6388 290.17185 41.81834 290.53025 42.48904 290.8886 43.15976 291.4634 44.15535 291.8218 44.70107 292.18019 45.24677 292.75495 46.0222 293.11338 46.42212 293.47178 46.82204 294.0465 47.3441 294.4049 47.5835 294.7633 47.82288 295.33808 48.07726 295.69648 48.14752 296.05488 48.21777 296.6296 48.19165 296.98805 48.09 297.34645 47.98834 297.9212 47.68431 298.2796 47.4148 298.638 47.14528 299.21275 46.57542 299.57115 46.14746 299.92955 45.71951 300.50434 44.9002 300.86274 44.33037 301.2211 43.76054 301.79588 42.73138 302.15425 42.04051 302.51268 41.34964 303.08744 40.1388 303.44584 39.351 303.8042 38.5632 304.37898 37.22061 304.73738 36.3626 305.0958 35.50458 305.67054 34.06918 306.02894 33.167 306.38734 32.26482 306.9621 30.78049 307.3205 29.86024 307.6789 28.94002 308.25367 27.44739 308.61207 26.53447 308.97047 25.62154 309.5452 24.16531 309.9036 23.28049 310.26203 22.39566 310.8368 20.99646 311.1952 20.15712 311.55357 19.31776 312.12834 18.0108 312.48674 17.23099 312.84516 16.45117 313.4199 15.24757 313.7783 14.53671 314.1367 13.82585 314.71147 12.74284 315.06986 12.10759 315.42823 11.47235 316.003 10.5174 316.3614 9.95831 316.7198 9.39923 317.29457 8.56166 317.65299 8.07806 318.01139 7.59448 318.58613 6.88359 318.94453 6.47292 319.30293 6.06226 319.8777 5.46196 320.23609 5.11821 320.59449 4.77446 321.16926 4.27884 321.52766 3.99533 321.88606 3.71182 322.4608 3.30492 322.8192 3.07489 323.1776 2.84488 323.75239 2.52063 324.11076 2.33742 324.46916 2.1542 325.0439 1.89821 325.40235 1.75436 325.7607 1.61052 326.33549 1.41237 326.69386 1.30063 327.05226 1.18889 327.62705 1.0346 327.98545 .94897 328.34385 .86334 328.91859 .74754 329.277 .6834 329.63539 .61925 330.21015 .53358 330.56855 .48659 330.92698 .4396 331.5017 .37898 331.8601 .34471 332.2185 .31044 332.79328 .2647 333.15168 .23961 333.51008 .21452 334.0848 .1818 334.4432 .16391 334.80165 .14604 335.3764 .12318 335.7348 .1107 336.0932 .09822 336.66798 .08258 337.02635 .07394 337.38475 .06532 337.9595 .05429 338.3179 .04843 338.67628 .04256 339.25105 .03558 339.60945 .03157 339.96788 .02756 340.54264 .02214 340.90104 .01945 341.2594 .01675 341.83418 .0137 342.19258 .0121 342.551 .01048 343.12574 .00938 343.48414 .00778 343.84254 .00616 344.4173 .00143 344.7757 .00041 345.1341-.00058 345.70887 .00041 346.06727 .00041 346.42567 .00041 347.0004 .00041 347.3588 .00041 347.71723 .00041 348.6504 .00041 348.6504 .00041"/>
<use data-text="G" xlink:href="#font_4_58" transform="matrix(6.973848,0,0,-6.973848,351.45234,80.30703)" fill="#cc0000"/>
<use data-text="a" xlink:href="#font_4_28" transform="matrix(6.973848,0,0,-6.973848,357.61723,80.30703)" fill="#cc0000"/>
<use data-text="u" xlink:href="#font_4_109" transform="matrix(6.973848,0,0,-6.973848,361.58534,80.30703)" fill="#cc0000"/>
<use data-text="s" xlink:href="#font_4_98" transform="matrix(6.973848,0,0,-6.973848,365.98585,80.30703)" fill="#cc0000"/>
<use data-text="s" xlink:href="#font_4_98" transform="matrix(6.973848,0,0,-6.973848,369.145,80.30703)" fill="#cc0000"/>
<use data-text="i" xlink:href="#font_4_66" transform="matrix(6.973848,0,0,-6.973848,372.30415,80.30703)" fill="#cc0000"/>
<use data-text="a" xlink:href="#font_4_28" transform="matrix(6.973848,0,0,-6.973848,374.5567,80.30703)" fill="#cc0000"/>
<use data-text="n" xlink:href="#font_4_77" transform="matrix(6.973848,0,0,-6.973848,378.5248,80.30703)" fill="#cc0000"/>
<use data-text="t" xlink:href="#font_4_105" transform="matrix(6.973848,0,0,-6.973848,300.7631,114.63196)"/>
<use data-text="i" xlink:href="#font_4_66" transform="matrix(6.973848,0,0,-6.973848,303.87345,114.63196)"/>
<use data-text="g" xlink:href="#font_4_59" transform="matrix(6.973848,0,0,-6.973848,306.12599,114.63196)"/>
<use data-text="h" xlink:href="#font_4_63" transform="matrix(6.973848,0,0,-6.973848,310.09413,114.63196)"/>
<use data-text="t" xlink:href="#font_4_105" transform="matrix(6.973848,0,0,-6.973848,314.2854,114.63196)"/>
<use data-text="b" xlink:href="#font_4_35" transform="matrix(6.973848,0,0,-6.973848,320.07368,114.63196)"/>
<use data-text="e" xlink:href="#font_4_50" transform="matrix(6.973848,0,0,-6.973848,324.69038,114.63196)"/>
<use data-text="l" xlink:href="#font_4_72" transform="matrix(6.973848,0,0,-6.973848,328.2331,114.63196)"/>
<use data-text="l" xlink:href="#font_4_72" transform="matrix(6.973848,0,0,-6.973848,330.48564,114.63196)"/>
<use data-text="Z" xlink:href="#font_3_6" transform="matrix(8.966376,0,0,-8.966376,137.75745,135.89151)"/>
<use data-text="n" xlink:href="#font_5_2" transform="matrix(5.977584,0,0,-5.977584,144.02696,136.88776)"/>
<use data-text="=" xlink:href="#font_6_5" transform="matrix(8.966376,0,0,-8.966376,151.68569,135.89151)"/>
<use data-text="S" xlink:href="#font_3_5" transform="matrix(8.966376,0,0,-8.966376,162.60855,130.0926)"/>
<use data-text="n" xlink:href="#font_5_2" transform="matrix(5.977584,0,0,-5.977584,168.2381,131.08885)"/>
<use data-text="&#x2212;" xlink:href="#font_7_1" transform="matrix(8.966376,0,0,-8.966376,175.38488,130.0926)"/>
<use data-text="n" xlink:href="#font_3_8" transform="matrix(8.966376,0,0,-8.966376,184.60025,130.0926)"/>
<use data-text="&#x00b5;" xlink:href="#font_3_1" transform="matrix(8.966376,0,0,-8.966376,190.15044,130.0926)"/>
<path transform="matrix(1,0,0,-1,190.64818,115.79465)" stroke-width=".378585" stroke-linecap="butt" stroke-miterlimit="10" stroke-linejoin="miter" fill="none" stroke="#000000" d="M-28.03963-17.85527H5.06312"/>
<use data-text="&#x03c3;" xlink:href="#font_3_2" transform="matrix(8.966376,0,0,-8.966376,169.74514,142.19289)"/>
<use data-text="&#x221a;" xlink:href="#font_7_3" transform="matrix(8.966376,0,0,-8.966376,175.33628,135.73213)"/>
<path transform="matrix(1,0,0,-1,190.64818,115.79465)" stroke-width=".378585" stroke-linecap="butt" stroke-miterlimit="10" stroke-linejoin="miter" fill="none" stroke="#000000" d="M-7.63242-19.74819H-2.07343"/>
<use data-text="n" xlink:href="#font_3_8" transform="matrix(8.966376,0,0,-8.966376,183.01576,142.19289)"/>
<use data-text="d" xlink:href="#font_5_1" transform="matrix(5.977584,0,0,-5.977584,201.80045,130.76012)"/>
<use data-text="&#x2212;" xlink:href="#font_7_1" transform="matrix(8.966376,0,0,-8.966376,199.46665,135.89151)"/>
<use data-text="&#x2192;" xlink:href="#font_7_2" transform="matrix(8.966376,0,0,-8.966376,200.03153,135.89151)"/>
<use data-text="N" xlink:href="#font_3_4" transform="matrix(8.966376,0,0,-8.966376,211.8075,135.89151)"/>
<use data-text="(" xlink:href="#font_6_1" transform="matrix(8.966376,0,0,-8.966376,220.14287,135.89151)"/>
<use data-text="0" xlink:href="#font_6_3" transform="matrix(8.966376,0,0,-8.966376,223.72046,135.89151)"/>
<use data-text="," xlink:href="#font_3_3" transform="matrix(8.966376,0,0,-8.966376,228.33432,135.89151)"/>
<use data-text="1" xlink:href="#font_6_4" transform="matrix(8.966376,0,0,-8.966376,232.43006,135.89151)"/>
<use data-text=")" xlink:href="#font_6_2" transform="matrix(8.966376,0,0,-8.966376,237.0298,135.89151)"/>
</svg>
