<svg xmlns="http://www.w3.org/2000/svg" xmlns:xlink="http://www.w3.org/1999/xlink" xmlns:inkscape="http://www.inkscape.org/namespaces/inkscape" version="1.1" width="440.43" height="260.36" viewBox="0 0 440.43 260.36">
<defs>
<path id="font_1_83" d="M.72099307 .49064637C.72099307 .6005707 .621994 .6855469 .45599366 .6855469H.038986207V.63853457H.14698792V.04699707H.038986207V0C.07699585 .0029907227 .1749878 .0029907227 .21798706 .0029907227 .26098634 .0029907227 .35899354 .0029907227 .39698792 0V.04699707H.2889862V.30177308H.46598817C.6049957 .30177308 .72099307 .37374879 .72099307 .49064637M.56799319 .49064637C.56799319 .41970826 .56799319 .34277345 .4169922 .34277345H.2829895V.63853457H.41799928C.56799319 .63853457 .56799319 .56259158 .56799319 .49064637Z"/>
<path id="font_1_81" d="M.5419922 .21812439C.5419922 .35212709 .44999696 .453125 .2869873 .453125 .12298584 .453125 .03199768 .35112 .03199768 .21812439 .03199768 .09413147 .11999512-.005859375 .2869873-.005859375 .45498658-.005859375 .5419922 .09512329 .5419922 .21812439M.4139862 .22912598C.4139862 .14213562 .4139862 .03413391 .2869873 .03413391 .1599884 .03413391 .1599884 .14213562 .1599884 .22912598 .1599884 .27412416 .1599884 .32511903 .1769867 .3591156 .19599915 .39611817 .23799134 .41711427 .2869873 .41711427 .32899476 .41711427 .37098695 .40112306 .3929901 .36611939 .4139862 .3321228 .4139862 .27713014 .4139862 .22912598Z"/>
<path id="font_1_66" d="M.28599549 0V.04699707H.22399903V.4501953L.049987794 .4423828V.39537049C.10899353 .39537049 .115997318 .39537049 .115997318 .3563385V.04699707H.04699707V0L.16899109 .0029907227 .28599549 0M.23799134 .60728457C.23799134 .6502838 .20298767 .6852875 .1599884 .6852875 .116989139 .6852875 .08198547 .6502838 .08198547 .60728457 .08198547 .5642853 .116989139 .5292969 .1599884 .5292969 .20298767 .5292969 .23799134 .5642853 .23799134 .60728457Z"/>
<path id="font_1_77" d="M.61499026 0V.04699707H.54599V.30613709C.54599 .41119386 .49198915 .4501953 .3919983 .4501953 .29599 .4501953 .24299622 .39318849 .21699524 .3421631V.4501953L.04499817 .4423828V.39537049C.10699463 .39537049 .11399841 .39537049 .11399841 .3563385V.04699707H.04499817V0L.17098999 .0029907227 .29699708 0V.04699707H.22799683V.2562256C.22799683 .3653412 .31399537 .41436769 .3769989 .41436769 .41099549 .41436769 .43199159 .39337159 .43199159 .31729127V.04699707H.36299134V0L.4889984 .0029907227 .61499026 0Z"/>
<path id="font_1_105" d="M.38198854 .124176029V.17721558H.33499146V.12619019C.33499146 .058151246 .30299378 .03413391 .2749939 .03413391 .21699524 .03413391 .21699524 .09817505 .21699524 .1211853V.3973236H.36299134V.44433595H.21699524V.6357422H.16999817C.16899109 .53552249 .11999512 .43632508 .020996094 .43333436V.3973236H.102996829V.123184207C.102996829 .01612854 .18998719-.005859375 .26098634-.005859375 .33699037-.005859375 .38198854 .05114746 .38198854 .124176029Z"/>
<path id="font_1_98" d="M.4149933 .14012146C.4149933 .18312073 .394989 .21812439 .3600006 .24612427 .32099916 .27511598 .2889862 .28112794 .21099854 .29412843 .17399597 .30111695 .10899353 .31211854 .10899353 .3591156 .10899353 .42111207 .20199585 .42111207 .22099304 .42111207 .29599 .42111207 .33399964 .39212037 .33898927 .33711244 .33999635 .32211305 .34098817 .3171234 .3619995 .3171234 .38598634 .3171234 .38598634 .32211305 .38598634 .3451233V.42510987C.38598634 .4441223 .38598634 .453125 .36799623 .453125 .3639984 .453125 .3619995 .453125 .32299806 .43411256 .29699708 .44711305 .2619934 .453125 .22200012 .453125 .19198609 .453125 .037994386 .453125 .037994386 .32211305 .037994386 .28211976 .057998659 .25512696 .07798767 .23812866 .117996219 .203125 .1559906 .1971283 .23298645 .18312073 .2689972 .17712403 .34399415 .16412354 .34399415 .10513306 .34399415 .030136109 .2519989 .030136109 .22999573 .030136109 .12399292 .030136109 .09799194 .103134158 .085998538 .14613343 .08099365 .16012573 .07598877 .16012573 .06199646 .16012573 .037994386 .16012573 .037994386 .15412903 .037994386 .13113404V.022140503C.037994386 .0031280518 .037994386-.005859375 .055999757-.005859375 .06298828-.005859375 .06498718-.005859375 .085998538 .009140015L.11199951 .026138306C.1579895-.005859375 .20999146-.005859375 .22999573-.005859375 .26098634-.005859375 .4149933-.005859375 .4149933 .14013672V.14012146Z"/>
<path id="font_1_109" d="M.61499026 .0001373291V.0471344C.5529938 .0471344 .54599 .0471344 .54599 .086135867V.4501953L.36299134 .44218446V.39518739C.4249878 .39518739 .43199159 .39518739 .43199159 .3561859V.16514588C.43199159 .08314514 .3809967 .030136109 .30799867 .030136109 .23098755 .030136109 .22799683 .055130006 .22799683 .10914612V.4501953L.04499817 .44218446V.39518739C.10699463 .39518739 .11399841 .39518739 .11399841 .3561859V.12313843C.11399841 .01612854 .19499207-.005859375 .2939911-.005859375 .31999208-.005859375 .3919983-.005859375 .43798829 .072143558V-.005859375L.61499026 .0001373291Z"/>
<path id="font_1_96" d="M.44198609 .36819459C.44198609 .42118836 .3880005 .4501953 .33599855 .4501953 .2659912 .4501953 .22599793 .40019227 .20298767 .33718873V.4501953L.036987306 .4423828V.39537049C.09899902 .39537049 .10598755 .39537049 .10598755 .3563385V.04699707H.036987306V0L.16299439 .0029907227C.20098877 .0029907227 .2649994 .0029907227 .30099488 0V.04699707H.21398926V.22218323C.21398926 .29226686 .23899842 .41436769 .33898927 .41436769 .33898927 .41436769 .31999208 .39736939 .31999208 .36834718 .31999208 .32730104 .35198976 .3072815 .3809967 .3072815 .4099884 .3072815 .44198609 .3283081 .44198609 .36834718V.36819459Z"/>
<path id="font_1_43" d="M.47799684 .117126468C.47799684 .13113404 .46398927 .13113404 .45399476 .13113404 .43598939 .13113404 .43499757 .12913513 .42999269 .11613464 .4039917 .053131105 .35598756 .03413391 .30499269 .03413391 .1659851 .03413391 .1659851 .18112183 .1659851 .22712708 .1659851 .28312684 .1659851 .41311646 .29499818 .41311646 .32998658 .41311646 .34700013 .41011048 .3600006 .40711976 .34199525 .39111329 .33999635 .3701172 .33999635 .3611145 .33999635 .3171234 .375 .29811097 .4019928 .29811097 .43299867 .29811097 .46499635 .3191223 .46499635 .3611145 .46499635 .44711305 .34899903 .453125 .29100038 .453125 .11199951 .45314027 .037994386 .33813478 .037994386 .22213745 .037994386 .08912659 .13198853-.005859375 .28599549-.005859375 .44799806-.005859375 .47799684 .11013794 .47799684 .117126468Z"/>
<path id="font_1_50" d="M.49398805 .11706543C.49398805 .13504029 .47499085 .13504029 .46998597 .13504029 .45298768 .13504029 .45098878 .13005066 .44499208 .11405945 .42399598 .066101077 .36698915 .03413391 .3019867 .03413391 .16099549 .03413391 .1599884 .16700745 .1599884 .2179718H.46199037C.48399354 .2179718 .49398805 .2179718 .49398805 .2449646 .49398805 .27598573 .48799134 .34906007 .43798829 .3991089 .40098573 .43511964 .34799195 .453125 .2789917 .453125 .11898804 .453125 .03199768 .35005189 .03199768 .22497559 .03199768 .09107971 .13198853-.005859375 .29299928-.005859375 .45098878-.005859375 .49398805 .10006714 .49398805 .11706543M.39898683 .25097657H.1599884C.1619873 .29000855 .16299439 .3320465 .18399048 .36506654 .20999146 .4051056 .25 .41711427 .2789917 .41711427 .3959961 .41711427 .397995 .28599549 .39898683 .25097657Z"/>
<path id="font_2_2" d="M.83399966 .23046875C.7789917 .1884613 .7519989 .14746094 .74398806 .13446045 .69898989 .065460208 .69099429 .002456665 .69099429 .0014648438 .69099429-.010543823 .7029877-.010543823 .71099856-.010543823 .7279968-.010543823 .72898867-.008544922 .73298647 .009460449 .7559967 .10746765 .8149872 .19146729 .9279938 .23745728 .9399872 .24145508 .94299319 .24345398 .94299319 .25045777 .94299319 .25746156 .93699648 .26046754 .93499758 .26145936 .8909912 .27845765 .769989 .3284607 .7319946 .49645997 .72898867 .5084686 .7279968 .51145938 .71099856 .51145938 .7029877 .51145938 .69099429 .51145938 .69099429 .49946595 .69099429 .49746705 .69999697 .4344635 .74198916 .36746217 .7619934 .33746339 .79100039 .30245973 .83399966 .27046205H.09098816C.07299805 .27046205 .054992677 .27046205 .054992677 .25045777 .054992677 .23046875 .07299805 .23046875 .09098816 .23046875H.83399966Z"/>
<path id="font_3_3" d="M.7599945 .69506838C.7599945 .69807437 .7579956 .7050781 .7489929 .7050781 .74598696 .7050781 .7449951 .70407107 .73399356 .69306948L.6639862 .61598208C.6549988 .6300049 .60899356 .7050781 .49798585 .7050781 .2749939 .7050781 .049987794 .4837799 .049987794 .25144959 .049987794 .09249878 .16099549-.022460938 .32299806-.022460938 .36698915-.022460938 .4119873-.013473511 .44799806 .0015258789 .49798585 .021530152 .5169983 .042526246 .5349884 .06251526 .5439911 .037521364 .56999209 .0005340576 .5799866 .0005340576 .58499148 .0005340576 .58699038 .0035247803 .58699038 .0045318605 .58898928 .0065307619 .598999 .044525148 .60398867 .06550598L.6230011 .14248657C.6269989 .15948487 .6319885 .1764679 .6359863 .19346619 .6469879 .2384491 .647995 .240448 .7049866 .24145508 .70999148 .24145508 .72099307 .2424469 .72099307 .26145936 .72099307 .26844789 .71598818 .27246095 .70799258 .27246095 .68499758 .27246095 .6259918 .26945497 .6029968 .26945497 .57199099 .26945497 .49398805 .27246095 .46299745 .27246095 .45399476 .27246095 .44198609 .27246095 .44198609 .25245667 .44198609 .24145508 .44999696 .24145508 .47200013 .24145508 .47299195 .24145508 .5019989 .24145508 .5249939 .23945618 .5509949 .2364502 .55599978 .23345948 .55599978 .22045899 .55599978 .2114563 .54499819 .16647339 .5349884 .12948609 .5069885 .01953125 .3769989 .008529663 .34199525 .008529663 .24598694 .008529663 .14099121 .06550598 .14099121 .21846009 .14099121 .24945069 .15098572 .41467286 .2559967 .5448761 .30999757 .6129761 .40699769 .67407229 .5059967 .67407229 .60798647 .67407229 .6669922 .59695437 .6669922 .48077394 .6669922 .44070436 .6639862 .43971253 .6639862 .4296875 .6639862 .41967774 .6749878 .41967774 .67900088 .41967774 .69200137 .41967774 .69200137 .42167665 .69699099 .43971253L.7599945 .69506838Z"/>
<path id="font_4_1" d="M.33099366-.2400055C.33099366-.23701477 .33099366-.23500061 .31399537-.21800232 .18899536-.0920105 .15699768 .09700012 .15699768 .25 .15699768 .42399598 .19499207 .59799197 .31799317 .72299197 .33099366 .73498538 .33099366 .7369995 .33099366 .73999026 .33099366 .746994 .32699586 .75 .32099916 .75 .31098939 .75 .22099304 .6819916 .1619873 .5549927 .11099243 .44499208 .09899902 .33399964 .09899902 .25 .09899902 .17199707 .10998535 .050994874 .16499329-.06201172 .22499085-.18501282 .31098939-.25 .32099916-.25 .32699586-.25 .33099366-.24700928 .33099366-.2400055Z"/>
<path id="font_3_5" d="M.33399964 .30233766C.33999635 .32835389 .36299134 .42037965 .43299867 .42037965 .43798829 .42037965 .46199037 .42037965 .48298646 .40734864 .45498658 .402359 .43499757 .37734986 .43499757 .35334779 .43499757 .33735658 .44599916 .31835938 .47299195 .31835938 .49499513 .31835938 .5269928 .3363495 .5269928 .37635804 .5269928 .42837525 .46798707 .4423828 .43399049 .4423828 .37599183 .4423828 .34098817 .38935853 .32899476 .36634828 .3039856 .43237306 .25 .4423828 .22099304 .4423828 .116989139 .4423828 .05999756 .3133545 .05999756 .28834535 .05999756 .27833558 .069992069 .27833558 .07199097 .27833558 .07998657 .27833558 .08299255 .28033448 .084991458 .28933717 .11898804 .39535523 .18499756 .42037965 .21899414 .42037965 .23799134 .42037965 .272995 .4113617 .272995 .35334779 .272995 .32235719 .2559967 .25532533 .21899414 .11528015 .20298767 .053268434 .16799927 .011245728 .12399292 .011245728 .117996219 .011245728 .09498596 .011245728 .07398987 .024276734 .09899902 .029266358 .12098694 .05027771 .12098694 .07827759 .12098694 .105270389 .09899902 .11328125 .083999637 .11328125 .053985597 .11328125 .0289917 .08728027 .0289917 .055267335 .0289917 .009246826 .07899475-.0107421879 .12298584-.0107421879 .18899536-.0107421879 .22499085 .059280397 .22799683 .0652771 .23999024 .028274537 .27598573-.0107421879 .33599855-.0107421879 .43899537-.0107421879 .49598695 .118270877 .49598695 .14328003 .49598695 .1532898 .4869995 .1532898 .48399354 .1532898 .47499085 .1532898 .47299195 .14929199 .47099305 .14228821 .43798829 .03527832 .36999513 .011245728 .33799745 .011245728 .29899598 .011245728 .2829895 .043273927 .2829895 .07727051 .2829895 .09927368 .2889862 .121276859 .2999878 .16529846L.33399964 .30233766Z"/>
<path id="font_3_2" d="M.20298767 .0009918213C.20298767 .066986087 .17799378 .10598755 .13899231 .10598755 .10598755 .10598755 .085998538 .08099365 .085998538 .052993776 .085998538 .025985718 .10598755 0 .13899231 0 .15098572 0 .1639862 .0039978029 .17399597 .0129852299 .1769867 .01499939 .17799378 .015991211 .1789856 .015991211 .17999268 .015991211 .18099976 .01499939 .18099976 .0009918213 .18099976-.07316589 .1459961-.13328552 .11299133-.16635132 .101989749-.17736817 .101989749-.17936707 .101989749-.18237305 .101989749-.18936157 .10699463-.19335938 .11199951-.19335938 .12298584-.19335938 .20298767-.116256717 .20298767 .0009918213Z"/>
<path id="font_5_1" d="M.2899933 .4720459C.2979889 .4890442 .29899598 .49705506 .29899598 .5040436 .29899598 .53504946 .2709961 .5590515 .23999024 .5590515 .20199585 .5590515 .18998719 .52804568 .18499756 .51205447L.052993776 .07901001C.051986696 .07701111 .04798889 .06401062 .04798889 .06300354 .04798889 .05101013 .07899475 .041015626 .08699036 .041015626 .09399414 .041015626 .09498596 .043014528 .101989749 .058013917L.2899933 .4720459Z"/>
<path id="font_4_2" d="M.2889862 .25C.2889862 .32798768 .27799989 .44898988 .22299195 .56199648 .16299439 .68499758 .07699585 .75 .066986087 .75 .06098938 .75 .056991579 .74598696 .056991579 .73999026 .056991579 .7369995 .056991579 .73498538 .07598877 .71699526 .17399597 .6179962 .23098755 .45899964 .23098755 .25 .23098755 .07899475 .19400025-.09700012 .069992069-.2230072 .056991579-.23500061 .056991579-.23701477 .056991579-.2400055 .056991579-.2460022 .06098938-.25 .066986087-.25 .07699585-.25 .16699219-.18200684 .22599793-.055007936 .2769928 .054992677 .2889862 .16600037 .2889862 .25Z"/>
<path id="font_6_7" d="M.49198915 .40434266C.45498658 .39733888 .44400025 .3653412 .44400025 .3503418 .44400025 .33132936 .45799256 .31433106 .48298646 .31433106 .5109863 .31433106 .5379944 .33833314 .5379944 .3733368 .5379944 .41937257 .48799134 .4423828 .44099427 .4423828 .3809967 .4423828 .34599305 .38934327 .33399964 .3683319 .31498719 .41737367 .2709961 .4423828 .22299195 .4423828 .115997318 .4423828 .057998659 .31433106 .057998659 .28833009 .057998659 .2793274 .06498718 .2763214 .07199097 .2763214 .08099365 .2763214 .083999637 .2813263 .085998538 .287323 .116989139 .38633729 .18299866 .41737367 .22099304 .41737367 .25 .41737367 .27598573 .3983307 .27598573 .35133363 .27598573 .31533814 .23298645 .15530396 .21998596 .107284549 .21199036 .076293949 .18199158 .014251709 .1269989 .014251709 .10699463 .014251709 .085998538 .021270752 .07598877 .027282715 .102996829 .032287599 .12298584 .055282594 .12298584 .08128357 .12298584 .106292728 .10398865 .11729431 .084991458 .11729431 .055999757 .11729431 .02999878 .092285159 .02999878 .058288576 .02999878 .009246826 .083999637-.0107421879 .12599182-.0107421879 .18399048-.0107421879 .21798706 .03729248 .23298645 .06428528 .2579956-.0017547608 .31698609-.0107421879 .34399415-.0107421879 .45199586-.0107421879 .5089874 .11929321 .5089874 .14329529 .5089874 .14830017 .5059967 .15530396 .49598695 .15530396 .4850006 .15530396 .48399354 .1512909 .47898866 .1362915 .45700074 .06428528 .39898683 .014251709 .34700013 .014251709 .31799317 .014251709 .29100038 .032287599 .29100038 .08029175 .29100038 .10229492 .30499269 .15730286 .31399537 .1953125 .31799317 .21331787 .34498597 .32133485 .34700013 .32833863 .35899354 .3643341 .3889923 .41737367 .43998719 .41737367 .45799256 .41737367 .47698976 .41436769 .49198915 .40434266Z"/>
<path id="font_6_1" d="M.2679901 .43603517C.1539917 .41105653 .042999269 .29112245 .042999269 .15919495 .042999269 .04824829 .12098694-.01171875 .20799256-.01171875 .32398988-.01171875 .41099549 .14019776 .41099549 .28211976 .41099549 .3740692 .36698915 .42803956 .33599855 .46601869 .30099488 .5090027 .23599243 .58795168 .23599243 .6329346 .23599243 .6499176 .24899292 .6769104 .29100038 .6769104 .32199098 .6769104 .34199525 .664917 .36299134 .6509247 .3769989 .6429291 .4059906 .62493899 .42099 .62493899 .44198609 .62493899 .46099855 .6439209 .46099855 .6659088 .46099855 .687912 .44799806 .6909027 .40098573 .7009125 .35198976 .71191409 .33399964 .71191409 .31999208 .71191409 .21998596 .71191409 .20498657 .6409302 .20498657 .60894778 .20498657 .5589752 .23699951 .49101258 .2679901 .43603517M.28199769 .41204835C.33499146 .31910707 .33699037 .27412416 .33699037 .2411499 .33699037 .16519165 .29599 .0132751469 .20698548 .0132751469 .1639862 .0132751469 .10899353 .041259767 .10899353 .13121033 .10899353 .19517517 .14399719 .3740692 .28199769 .41204835Z"/>
<path id="font_7_1" d="M.34098817-.23803711C.34098817-.23303223 .33799745-.23002625 .33198548-.22303772 .20298767-.105026248 .1639862 .07498169 .1639862 .24996948 .1639862 .40498353 .19400025 .59298709 .33499146 .72698977 .33898927 .73098757 .34098817 .73399356 .34098817 .7389984 .34098817 .74598696 .33599855 .75 .32899476 .75 .31698609 .75 .22698975 .6779785 .17298889 .568985 .125 .47297669 .100997928 .36997987 .100997928 .25097657 .100997928 .17897034 .10998535 .064971927 .16499329-.053024293 .22399903-.17602539 .31698609-.24902344 .32899476-.24902344 .33599855-.24902344 .34098817-.24502564 .34098817-.23803711Z"/>
<path id="font_8_1" d="M.6749878 .22944641C.69299319 .22944641 .71199038 .22944641 .71199038 .25144959 .71199038 .27246095 .69200137 .27246095 .6749878 .27246095H.12298584C.10598755 .27246095 .085998538 .27246095 .085998538 .25144959 .085998538 .22944641 .10499573 .22944641 .12298584 .22944641H.6749878Z"/>
<path id="font_9_1" d="M.31399537 .47006227C.32099916 .48506166 .32299806 .49606324 .32299806 .50205996 .32299806 .53305056 .29499818 .5590515 .2619934 .5590515 .22200012 .5590515 .20999146 .5240631 .20599365 .51005557L.06599426 .08206177C.06399536 .076049808 .06098938 .0680542 .06098938 .0640564 .06098938 .047058107 .100997928 .0390625 .101989749 .0390625 .11099243 .0390625 .114990238 .048049928 .11898804 .05606079L.31399537 .47006227Z"/>
<path id="font_7_2" d="M.2979889 .25097657C.2979889 .3329773 .28599549 .4429779 .23399353 .5539856 .1749878 .6769867 .08198547 .75 .069992069 .75 .05999756 .75 .057998659 .74198916 .057998659 .7389984 .057998659 .73399356 .05999756 .73098757 .066986087 .72398379 .125 .6719818 .23498535 .5359802 .23498535 .25097657 .23498535 .10797119 .20899964-.091033939 .06399536-.22602844 .06199646-.22903443 .057998659-.23303223 .057998659-.23803711 .057998659-.24102783 .05999756-.24902344 .069992069-.24902344 .08198547-.24902344 .17199707-.17703247 .22599793-.06802368 .27398683 .02796936 .2979889 .13098145 .2979889 .25097657Z"/>
<path id="font_6_4" d="M.7739868 .67807009C.7769928 .6900635 .7769928 .69207766 .7769928 .69407656 .7769928 .69506838 .776001 .7050781 .7649994 .7050781 .7589874 .7050781 .7559967 .70207217 .7489929 .69407656L.6879883 .6269989C.6839905 .62197878 .6799927 .61798098 .67900088 .61798098 .6779938 .61798098 .6769867 .61898806 .67099 .6259918 .6559906 .6460266 .61099246 .7050781 .5069885 .7050781 .27799989 .7050781 .050994874 .48275758 .050994874 .25442506 .050994874 .0974884 .16299439-.022460938 .33299256-.022460938 .44699098-.022460938 .522995 .026519776 .5499878 .06150818 .55799868 .038513185 .58399966 .0005340576 .59599307 .0005340576 .60398867 .0005340576 .60598757 .0055389406 .61099246 .025527955L.6299896 .102493289C.6369934 .12948609 .6469879 .17045594 .6519928 .1924591 .6649933 .23942566 .6649933 .24142456 .72299197 .24243164 .72698977 .24243164 .73999026 .24342346 .73999026 .260437 .73999026 .26142884 .73999026 .2734375 .7259979 .2734375 .71798709 .2734375 .6799927 .27142335 .6729889 .27043153H.6159973C.59298709 .27043153 .56900027 .27142335 .5469971 .27142335 .522995 .27142335 .49699403 .2734375 .47399903 .2734375 .46499635 .2734375 .45298768 .2734375 .45298768 .25543214 .45298768 .24243164 .46199037 .24243164 .4869995 .24243164 .5089874 .24243164 .5139923 .24243164 .5389862 .24043274 .56599429 .23742676 .57099917 .23443604 .57099917 .22143555 .57099917 .21743775 .57099917 .21543885 .56399539 .1904602 .5569916 .1614685 .54499819 .113479617 .5419922 .10548401 .5079956 .03251648 .41099549 .008529663 .34899903 .008529663 .26098634 .008529663 .14498902 .056503297 .14498902 .22044373 .14498902 .2824402 .1659851 .42967225 .2599945 .54486086 .31900025 .6169739 .41799928 .67407229 .5139923 .67407229 .625 .67407229 .6839905 .5889282 .6839905 .47875978 .6839905 .44470216 .68099978 .43769837 .68099978 .42967225 .68099978 .4186554 .69299319 .4186554 .69599917 .4186554 .70899966 .4186554 .70899966 .42066957 .71398928 .43969728L.7739868 .67807009Z"/>
<path id="font_6_3" d="M.18199158 .015991211C.18199158-.017044068 .18199158-.09921265 .10798645-.17036438 .101989749-.17636109 .101989749-.17736817 .101989749-.18136597 .101989749-.18836975 .10899353-.19335938 .114990238-.19335938 .12599182-.19335938 .20698548-.115249637 .20698548 .0019989014 .20698548 .06399536 .18499756 .10798645 .14199829 .10798645 .10798645 .10798645 .08799744 .08198547 .08799744 .053985597 .08799744 .025985718 .10798645 0 .14199829 0 .15699768 0 .17199707 .004989624 .18199158 .015991211Z"/>
<path id="font_6_5" d="M.3809967 .6036377C.3899994 .6416168 .3929901 .6516113 .48599244 .6516113 .5139923 .6516113 .522995 .6516113 .522995 .6696167 .522995 .6826172 .5099945 .6826172 .5069885 .6826172 .48399354 .6826172 .45799256 .680603 .43399049 .680603 .4099884 .680603 .38598634 .6796112 .3619995 .6796112 .33898927 .6796112 .31498719 .6796112 .29299928 .680603 .2749939 .6816101 .24398804 .6826172 .22698975 .6826172 .22099304 .6826172 .20698548 .6826172 .20698548 .6646118 .20698548 .6516113 .21598816 .6516113 .23699951 .6516113 .24099732 .6516113 .25898744 .6516113 .2749939 .6496124 .2919922 .6476135 .29899598 .6456146 .29899598 .63461306 .29899598 .6296234 .2979889 .6256256 .29499818 .614624L.1599884 .07595825C.15098572 .039993287 .14898682 .0309906 .07398987 .0309906 .054992677 .0309906 .04399109 .0309906 .04399109 .0129852299 .04399109 0 .053985597 0 .07199097 0H.5439911C.56799319 0 .56900027 .0009918213 .57699587 .021987915 .58699038 .04698181 .6589966 .23686219 .6589966 .24485779 .6589966 .2528534 .6519928 .25785829 .644989 .25785829 .6349945 .25785829 .6339874 .25386048 .6259918 .23387146 .59199526 .14492798 .5479889 .0309906 .37298585 .0309906H.27398683C.2599945 .0309906 .2579956 .0309906 .2539978 .03199768 .24398804 .032989503 .24099732 .033996583 .24099732 .040985109 .24099732 .04399109 .24099732 .04598999 .24598694 .063964847L.3809967 .6036377Z"/>
<path id="font_7_3" d="M.70799258 .3310089C.7220001 .3310089 .7409973 .3310089 .7409973 .35202027 .7409973 .37402345 .71899417 .37402345 .70399478 .37402345H.09399414C.07899475 .37402345 .056991579 .37402345 .056991579 .35202027 .056991579 .3310089 .07699585 .3310089 .08999634 .3310089H.70799258M.70399478 .12695313C.71899417 .12695313 .7409973 .12695313 .7409973 .14894104 .7409973 .1699524 .7220001 .1699524 .70799258 .1699524H.08999634C.07699585 .1699524 .056991579 .1699524 .056991579 .14894104 .056991579 .12695313 .07899475 .12695313 .09399414 .12695313H.70399478Z"/>
<path id="font_1_27" d="M.82699587 0V.04699707H.7299957L.47399903 .6722412C.46299745 .6982422 .45098878 .6982422 .43399049 .6982422 .4059906 .6982422 .4019928 .6902313 .394989 .6722412L.14698792 .07002258C.14099121 .055007936 .13798523 .04699707 .06199646 .04699707H.040985109V0L.1579895 .0029907227C.19699097 .0029907227 .25299073 .0029907227 .2899933 0V.04699707C.2899933 .04699707 .20098877 .04699707 .20098877 .060012819L.20498657 .07203674 .25498963 .19322205H.522995L.58299258 .04699707H.48799134V0C.526001 .0029907227 .62098696 .0029907227 .6639862 .0029907227 .70399478 .0029907227 .7919922 .0029907227 .82699587 0M.5029907 .24023438H.2749939L.3889923 .51823428 .5029907 .24023438Z"/>
<path id="font_1_35" d="M.59999087 .22319031C.59999087 .3561859 .5059967 .4501953 .36099244 .4501953 .28799439 .4501953 .23799134 .42118836 .21398926 .40118409V.69433596L.036987306 .6863251V.639328C.09899902 .639328 .10598755 .639328 .10598755 .600296V.00018310547H.15299988C.16899109 .019180298 .18598938 .03718567 .20199585 .05618286 .20999146 .04814148 .25898744-.005859375 .34799195-.005859375 .49699403-.005859375 .59999087 .08413696 .59999087 .22315979V.22319031M.47200013 .22315979C.47200013 .17614746 .47200013 .12113953 .44599916 .08213806 .4169922 .041137697 .37098695 .030136109 .33898927 .030136109 .2689972 .030136109 .22999573 .08413696 .21998596 .09913635V.35017396C.24699402 .3851776 .29499818 .41418458 .34999085 .41418458 .47200013 .41418458 .47200013 .2931671 .47200013 .22315979Z"/>
<path id="font_1_28" d="M.5529938 .023986817C.5529938 .04699707 .5399933 .04699707 .5269928 .04699707 .46598817 .04798889 .46598817 .06100464 .46598817 .083999637V.29907228C.46598817 .3881073 .394989 .453125 .24598694 .453125 .18899536 .453125 .066986087 .44911195 .066986087 .36109925 .066986087 .3170929 .101989749 .29808045 .1289978 .29808045 .1599884 .29808045 .19198609 .3190918 .19198609 .36109925 .19198609 .39111329 .17298889 .40811158 .16999817 .41011048 .19799805 .41612245 .22999573 .41711427 .24198914 .41711427 .31698609 .41711427 .35198976 .3751068 .35198976 .29907228V.26506043C.2809906 .2620697 .026992798 .25306703 .026992798 .10801697 .026992798 .012130737 .15098572-.005859375 .21998596-.005859375 .2999878-.005859375 .34700013 .035125734 .36898805 .07713318 .36898805 .04598999 .36898805 0 .47299195 0H.5209961C.54100039 0 .5529938 0 .5529938 .023986817M.35198976 .13899231C.35198976 .043151857 .2599945 .030136109 .23498535 .030136109 .18399048 .030136109 .14399719 .06517029 .14399719 .10922241 .14399719 .21734619 .3019867 .23136902 .35198976 .234375V.13899231Z"/>
<path id="font_1_118" d="M.5799866 .3973236V.44433595C.55599978 .44232179 .526001 .44132997 .5009918 .44132997L.4099884 .44433595V.3973236C.4099884 .3973236 .45700074 .3973236 .45700074 .3853302L.45199586 .37332154 .33699037 .12713623 .20999146 .3973236H.2639923V.44433595L.13999939 .44132997 .025985718 .44433595V.3973236H.08999634L.2769928 .000045776369 .2539978-.04798889C.23199463-.09602356 .19999695-.1640625 .1289978-.1640625 .114990238-.1640625 .11299133-.16307068 .10499573-.1600647 .11399841-.1560669 .13699341-.14205933 .13699341-.10702515 .13699341-.07400513 .11299133-.049987794 .07899475-.049987794 .050994874-.049987794 .021987915-.069000247 .021987915-.10803223 .021987915-.15907288 .068984989-.20007324 .1289978-.20007324 .20599365-.20007324 .2639923-.13804627 .29100038-.08100891L.5059967 .37631227C.5130005 .39031983 .5159912 .3973236 .5799866 .3973236Z"/>
<path id="font_3_4" d="M.36698915 .3996582H.45298768C.47299195 .3996582 .48298646 .3996582 .48298646 .41966249 .48298646 .43066407 .47299195 .43066407 .45599366 .43066407H.37298585L.3939972 .5449524C.397995 .5660095 .4119873 .6370239 .41799928 .6490326 .4269867 .66804507 .44400025 .68307498 .46499635 .68307498 .46899415 .68307498 .49499513 .68307498 .5139923 .66503909 .46998597 .661026 .45999146 .6260376 .45999146 .6110382 .45999146 .58802798 .47799684 .57603457 .49699403 .57603457 .522995 .57603457 .5519867 .5980377 .5519867 .6360321 .5519867 .6820679 .5059967 .7050781 .46499635 .7050781 .43099977 .7050781 .36799623 .68707278 .33799745 .58802798 .33198548 .56700137 .32899476 .5569763 .30499269 .43066407H.23599243C.21699524 .43066407 .20599365 .43066407 .20599365 .4116516 .20599365 .3996582 .21499634 .3996582 .23399353 .3996582H.2999878L.22499085 .0048828127C.20698548-.09207153 .18998719-.18309021 .13798523-.18309021 .13398743-.18309021 .10899353-.18309021 .08999634-.16506958 .13598633-.1620636 .14498902-.12606812 .14498902-.111068729 .14498902-.08807373 .1269989-.07606506 .10798645-.07606506 .08198547-.07606506 .052993776-.09806824 .052993776-.13606262 .052993776-.18109131 .09700012-.20507813 .13798523-.20507813 .19299317-.20507813 .23298645-.14607239 .25099183-.108062747 .2829895-.04508972 .30599977 .07583618 .30699159 .082839969L.36698915 .3996582Z"/>
<path id="font_3_1" d="M.48199464 .66833499C.48298646 .67233279 .4850006 .67832949 .4850006 .68333438 .4850006 .69332888 .47799684 .69433596 .47299195 .69433596 .46299745 .69433596 .46199037 .6923218 .45799256 .67433169L.2919922 .013244629C.21598816 .022247315 .17799378 .059265138 .17799378 .12528992 .17799378 .14529419 .17799378 .17129517 .23199463 .31134034 .23599243 .323349 .24299622 .3403473 .24299622 .36035157 .24299622 .405365 .21099854 .4423828 .16099549 .4423828 .06599426 .4423828 .0289917 .29733277 .0289917 .28833009 .0289917 .27833558 .038986207 .27833558 .040985109 .27833558 .050994874 .27833558 .051986696 .28033448 .056991579 .29634095 .083999637 .39135743 .12399292 .42037965 .1579895 .42037965 .1659851 .42037965 .18299866 .42037965 .18299866 .3883667 .18299866 .36235047 .17298889 .3373413 .1599884 .30233766 .11199951 .17630005 .11199951 .15029907 .11199951 .13328552 .11199951 .038253786 .18998719-.002746582 .28599549-.008743286 .27799989-.044815065 .27799989-.046813966 .2639923-.09992981 .26098634-.110946658 .24099732-.1920929 .24099732-.19508362 .24099732-.1960907 .24099732-.20507813 .25299073-.20507813 .25498963-.20507813 .2599945-.20507813 .2619934-.20108032 .2649994-.19908142 .2709961-.17407227 .27398683-.16003418L.31199647-.0107421879C.34899903-.0107421879 .43699647-.0107421879 .5309906 .09628296 .57199099 .14228821 .59298709 .18630982 .60398867 .2163086 .61299136 .24131775 .6349945 .32833863 .6349945 .37236024 .6349945 .42837525 .60798647 .4423828 .59098818 .4423828 .56599429 .4423828 .54100039 .41636659 .54100039 .3943634 .54100039 .38136292 .5469971 .3753662 .55599978 .36735536 .5669861 .35635377 .59199526 .33035279 .59199526 .28233338 .59199526 .2183075 .5399933 .1362915 .5049896 .10028076 .4169922 .011245728 .35299684 .011245728 .31698609 .011245728L.48199464 .66833499Z"/>
<path id="font_4_3" d="M.68699648 .32714845C.70199587 .32714845 .72099307 .32714845 .72099307 .34713746 .72099307 .36714173 .70199587 .36714173 .6879883 .36714173H.08898926C.07499695 .36714173 .055999757 .36714173 .055999757 .34713746 .055999757 .32714845 .07499695 .32714845 .08999634 .32714845H.68699648M.6879883 .13284302C.70199587 .13284302 .72099307 .13284302 .72099307 .15284729 .72099307 .17285156 .70199587 .17285156 .68699648 .17285156H.08999634C.07499695 .17285156 .055999757 .17285156 .055999757 .15284729 .055999757 .13284302 .07499695 .13284302 .08898926 .13284302H.6879883Z"/>
<path id="font_2_1" d="M.2749939 .42684938C.27598573 .44084168 .27598573 .46484376 .25 .46484376 .23399353 .46484376 .22099304 .45184327 .22399903 .43884278V.42585755L.23799134 .27098084 .10998535 .36390687C.100997928 .36889649 .09899902 .3708954 .09199524 .3708954 .07798767 .3708954 .06498718 .35691834 .06498718 .34292604 .06498718 .3269348 .07499695 .322937 .084991458 .3179474L.22698975 .25 .08898926 .18305969C.07299805 .17506409 .06498718 .17106629 .06498718 .15608216 .06498718 .14109802 .07798767 .1281128 .09199524 .1281128 .09899902 .1281128 .100997928 .1281128 .12599182 .14709473L.23799134 .22802735 .22299195 .060165407C.22299195 .03916931 .24099732 .034179689 .24899292 .034179689 .26098634 .034179689 .27598573 .041168214 .27598573 .060165407L.26098634 .22802735 .3889923 .13510132C.397995 .1301117 .3999939 .1281128 .40699769 .1281128 .42099 .1281128 .43399049 .14208985 .43399049 .15608216 .43399049 .17106629 .4249878 .17607117 .41299439 .18206787 .35299684 .21203614 .35099793 .21203614 .27198792 .24900818L.4099884 .3159485C.42599488 .3239441 .43399049 .3279419 .43399049 .34292604 .43399049 .35791017 .42099 .3708954 .40699769 .3708954 .3999939 .3708954 .397995 .3708954 .37298585 .35191346L.26098634 .27098084 .2749939 .42684938Z"/>
<path id="font_6_6" d="M.37399293 .3996582H.46398927C.48399354 .3996582 .49398805 .3996582 .49398805 .41766358 .49398805 .43066407 .48399354 .43066407 .46499635 .43066407H.37998963C.3909912 .49082948 .40499879 .5730438 .41799928 .62705996 .4269867 .6660614 .45098878 .68006899 .47099305 .68006899 .47698976 .68006899 .5 .67807009 .5169983 .6660614 .49699403 .66204836 .46798707 .6440582 .46798707 .61105349 .46798707 .5860596 .4869995 .575058 .5059967 .575058 .5329895 .575058 .5609894 .59706118 .5609894 .63505557 .5609894 .68006899 .5169983 .7050781 .46998597 .7050781 .4249878 .7050781 .37998963 .6730652 .35899354 .63204959 .33699037 .5890503 .32998658 .5499878 .30899049 .43066407H.23699951C.21798706 .43066407 .20599365 .43066407 .20599365 .4126587 .20599365 .3996582 .21699524 .3996582 .23498535 .3996582H.30299378C.2749939 .25474549 .23999024 .054855348 .21798706-.049087526 .20599365-.10406494 .18998719-.18008423 .14199829-.18008423 .1269989-.18008423 .10699463-.17407227 .09700012-.16607666 .12199402-.1620636 .14698792-.1410675 .14698792-.111068729 .14698792-.08607483 .12799073-.07507324 .10899353-.07507324 .08198547-.07507324 .053985597-.097076419 .053985597-.1350708 .053985597-.18109131 .099990848-.20507813 .14199829-.20507813 .24398804-.20507813 .29100038-.039093019 .30699159 .04685974L.37399293 .3996582Z"/>
<path id="font_6_2" d="M.49699403 .68333438C.49699403 .6843262 .49699403 .69433596 .48399354 .69433596 .47200013 .69433596 .47099305 .68933108 .46699525 .6733246L.30299378 .01625061C.23098755 .025253296 .18598938 .058258058 .18598938 .12728882 .18598938 .14828491 .18899536 .17829895 .23699951 .30233766 .24499512 .32434083 .25099183 .33935548 .25099183 .35835267 .25099183 .40737916 .21398926 .4423828 .16499329 .4423828 .068984989 .4423828 .0289917 .30033876 .0289917 .28833009 .0289917 .2793274 .035995485 .27633668 .042999269 .27633668 .053985597 .27633668 .054992677 .28233338 .05899048 .29533387 .07998657 .36836244 .11999512 .41737367 .1619873 .41737367 .18199158 .41737367 .18598938 .40437318 .18598938 .3843689 .18598938 .36135865 .1789856 .3403473 .17098999 .31834413 .12199402 .1933136 .115997318 .15930176 .115997318 .1342926 .115997318 .06227112 .16499329 .00024414063 .29599-.008743286L.25099183-.1940918C.25099183-.19508362 .25099183-.20507813 .2639923-.20507813 .27598573-.20507813 .2769928-.2020874 .28199769-.18008423 .29599-.1239624 .31098939-.067855838 .32398988-.0107421879 .3600006-.0107421879 .46398927-.0107421879 .56399539 .11428833 .6119995 .17430115 .6289978 .22431946 .6469879 .31533814 .6519928 .34436036 .6519928 .35935975 .6519928 .3693695 .6519928 .43937684 .61499026 .44337464 .60598757 .44337464 .58099368 .44337464 .5549927 .41638185 .5549927 .39337159 .5549927 .3783722 .56399539 .37036134 .57099917 .36436463 .59799197 .33935548 .6069946 .30734254 .6069946 .28134156 .6069946 .23931885 .57899478 .16229248 .5119934 .09628296 .43299867 .01725769 .36698915 .014251709 .33099366 .014251709L.49699403 .68333438Z"/>
<path id="font_10_1" d="M.57699587-.046875C.55999758-.04988098 .5399933-.06388855 .5399933-.08988953 .5399933-.12188721 .56599429-.13388062 .58299258-.13388062 .6009979-.13388062 .6269989-.12287903 .6269989-.08888245 .6269989-.039916994 .5779877 0 .5130005 0 .37098695 0 .34498597-.19085694 .33499146-.26383973 .32398988-.34680177 .2939911-.5667267 .28199769-.7466583 .27999879-.78063967 .2749939-.83862307 .2709961-.8825989 .2599945-.99957278 .24499512-1.0859375 .16999817-1.0859375 .16299439-1.0859375 .1329956-1.0859375 .10699463-1.0635681 .12399292-1.0605774 .14399719-1.0465698 .14399719-1.0205689 .14399719-.98857119 .117996219-.9765625 .100997928-.9765625 .08299255-.9765625 .056991579-.9875641 .056991579-1.0215759 .056991579-1.070694 .10598755-1.1109467 .17098999-1.1109467 .2789917-1.1109467 .32299806-.99357607 .33799745-.923584 .34799195-.8766022 .3899994-.5627289 .40299989-.36380006 .40499879-.32980348 .4099884-.27183534 .4139862-.22784424 .42399598-.115875247 .43798829-.025009156 .5139923-.025009156 .5209961-.025009156 .5509949-.025009156 .57699587-.046875Z"/>
<path id="font_7_4" d="M.3889923 .120285037C.3889923 .10227966 .3889923 .09927368 .37399293 .07827759 .34298707 .0332489 .29699708 .014251709 .25698854 .014251709 .21398926 .014251709 .17399597 .038253786 .147995 .08027649 .12199402 .123291019 .11999512 .18229676 .11999512 .21430969 .11999512 .26132203 .12599182 .3143463 .1519928 .35435487 .17399597 .3863678 .21499634 .41737367 .2679901 .41737367 .30999757 .41737367 .34999085 .39637757 .3769989 .35835267 .3889923 .3423462 .3889923 .34135438 .3889923 .32234193V.120285037M.3919983 .38336183C.3869934 .38937379 .34199525 .4423828 .2639923 .4423828 .14099121 .4423828 .033996583 .34436036 .033996583 .21531677 .033996583 .090270999 .13398743-.0107421879 .25299073-.0107421879 .32598878-.0107421879 .37098695 .03225708 .3889923 .053268434V-.011001587L.5399933 0V.0309906C.47200013 .0309906 .46299745 .037994386 .46299745 .087020877V.69433596L.31498719 .68333438V.6523285C.3829956 .6523285 .3919983 .6453247 .3919983 .5962982V.38336183Z"/>
<path id="font_11_71" d="M.59799197 .25785829H.56999209C.5589905 .15692139 .54499819 .0309906 .3659973 .0309906H.2789917C.23199463 .0309906 .22999573 .037994386 .22999573 .07196045V.6026306C.22999573 .6396179 .23399353 .6516113 .32499696 .6516113H.35699464V.6826172C.32199098 .6796112 .23098755 .6796112 .19099427 .6796112 .14498902 .6796112 .08299255 .6796112 .037994386 .6826172V.6516113H.06098938C.13798523 .6516113 .13999939 .64060977 .13999939 .6036377V.07896423C.13999939 .041992189 .13798523 .0309906 .06098938 .0309906H.037994386V0H.56999209L.59799197 .25785829Z"/>
<path id="font_11_66" d="M.25299073 0V.0309906C.18798828 .0309906 .18399048 .035995485 .18399048 .075042728V.4423828L.039993287 .43066407V.3996582C.10398865 .3996582 .11299133 .3936615 .11299133 .3447113V.07695007C.11299133 .0309906 .101989749 .0309906 .035995485 .0309906V0C.08099365 .0019989014 .101989749 .0029907227 .1459961 .0029907227 .1619873 .0029907227 .20399475 .0029907227 .25299073 0M.19699097 .6028137C.19699097 .63282778 .17298889 .6568146 .14299011 .6568146 .11299133 .6568146 .08898926 .63282778 .08898926 .6028137 .08898926 .57281497 .11299133 .5488281 .14299011 .5488281 .17298889 .5488281 .19699097 .57281497 .19699097 .6028137Z"/>
<path id="font_11_77" d="M.5469971 0V.0309906C.49598695 .03125 .47099305 .03125 .46998597 .0622406V.25431825C.46998597 .3373413 .46998597 .36636354 .44198609 .4013672 .4189911 .42938233 .3809967 .4423828 .33099366 .4423828 .23799134 .4423828 .19499207 .37335206 .18099976 .34535218H.17999268V.4423828L.034988405 .43066407V.3996582C.102996829 .3996582 .11199951 .39266969 .11199951 .34370423V.07695007C.11199951 .0309906 .100997928 .0309906 .034988405 .0309906V0C.08198547 .0019989014 .100997928 .0029907227 .14898682 .0029907227 .19699097 .0029907227 .20999146 .0019989014 .2630005 0V.0309906C.19699097 .0309906 .18598938 .0309906 .18598938 .07695007V.25878907C.18598938 .36532594 .26098634 .41737367 .32398988 .41737367 .3829956 .41737367 .3959961 .3683319 .3959961 .30825807V.077041629C.3959961 .0309906 .3849945 .0309906 .31900025 .0309906V0C.3659973 .0019989014 .3849945 .0029907227 .43299867 .0029907227 .48098756 .0029907227 .49398805 .0019989014 .5469971 0Z"/>
<path id="font_11_50" d="M.4269867 .11936951C.4269867 .12637329 .42199708 .13237 .41299439 .13237 .40299989 .13237 .3999939 .12536621 .39898683 .12136841 .36499024 .019256592 .27598573 .01725769 .26098634 .01725769 .21299744 .01725769 .17199707 .044281007 .14898682 .078323367 .115997318 .12736511 .114990238 .18743897 .114990238 .22949219H.3999939C.42199708 .22949219 .4269867 .22949219 .4269867 .25048829 .4269867 .35333253 .37098695 .4482422 .24299622 .4482422 .12298584 .4482422 .0289917 .3443451 .0289917 .22047425 .0289917 .08932495 .13398743-.0107421879 .2559967-.0107421879 .37799073-.0107421879 .4269867 .096343997 .4269867 .11936951M.35899354 .253479H.115997318C.125 .40725709 .21499634 .42323304 .24299622 .42323304 .2979889 .42323304 .35798646 .38130189 .35899354 .253479Z"/>
<path id="font_11_28" d="M.49699403 .089141849V.14515686H.46899415V.090148929C.46899415 .07914734 .46899415 .029129029 .43299867 .029129029 .39698792 .029129029 .39698792 .07714844 .39698792 .09315491V.26818849C.39698792 .32521058 .39698792 .3592224 .35198976 .40022279 .31498719 .43322755 .2669983 .4482422 .21699524 .4482422 .1329956 .4482422 .06298828 .40623475 .06298828 .34220887 .06298828 .311203 .083999637 .2942047 .10998535 .2942047 .13699341 .2942047 .1559906 .31420899 .1559906 .34020997 .1559906 .3832245 .11099243 .38822938 .11099243 .38822938 .13798523 .41423036 .18598938 .42323304 .21499634 .42323304 .2659912 .42323304 .32299806 .3852234 .32299806 .29719544V.26419068C.2689972 .26219178 .19400025 .2571869 .1269989 .22518921 .054992677 .19017029 .032989503 .13816834 .032989503 .09814453 .032989503 .01625061 .12998963-.0107421879 .19699097-.0107421879 .27999879-.0107421879 .31799317 .04425049 .33198548 .072250369 .33699037 .030136109 .3659973-.005859375 .40899659-.005859375 .43399049-.005859375 .49699403 .009140015 .49699403 .08912659V.089141849M.32299806 .14112854C.32299806 .04425049 .24798584 .014251709 .20399475 .014251709 .15699768 .014251709 .11299133 .04824829 .11299133 .098236087 .11299133 .16423035 .16999817 .23422241 .32299806 .24023438V.14112854Z"/>
<path id="font_11_96" d="M.37298585 .3798828C.37298585 .41236878 .34298707 .4423828 .2979889 .4423828 .23799134 .4423828 .19599915 .40037538 .17298889 .33787538H.17199707V.4423828L.02999878 .43066407V.3996582C.09799194 .3996582 .10699463 .3927307 .10699463 .34387208V.07698059C.10699463 .0309906 .09599304 .0309906 .02999878 .0309906V0C.08299255 .0019989014 .09599304 .0029907227 .14698792 .0029907227L.27398683 0V.0309906H.2539978C.18099976 .0309906 .17799378 .041992189 .17799378 .07897949V.22891236C.17799378 .26989747 .18899536 .4166565 .30299378 .4166565V.4156494C.30099488 .4146576 .2849884 .40264894 .2849884 .37887574 .2849884 .35186769 .30599977 .33486939 .32899476 .33486939 .34999085 .33486939 .37298585 .34986878 .37298585 .3798828Z"/>
<path id="font_11_105" d="M.34199525 .12408447V.18099976H.31399537V.1270752C.31399537 .05319214 .2829895 .01725769 .24699402 .01725769 .17999268 .01725769 .17999268 .1051178 .17999268 .12309265V.3996582H.32499696V.43066407H.17999268V.6142578H.1519928C.15098572 .5304413 .115997318 .42765809 .018997193 .4246521V.3996582H.10598755V.12408447C.10598755 .012252808 .18699646-.0107421879 .23999024-.0107421879 .30699159-.011001587 .34199525 .052993776 .34199525 .12399292V.12408447Z"/>
<path id="font_11_118" d="M.519989 .3996582V.43066407C.48799134 .42765809 .45700074 .42765809 .44400025 .42765809 .41600038 .42765809 .3849945 .4286499 .35699464 .43066407V.3996582C.40299989 .3976593 .40299989 .36167909 .40299989 .35768128 .40299989 .3466797 .39898683 .33668519 .394989 .32868959L.2939911 .090789798 .18199158 .3526764C.17599488 .3666687 .17599488 .3736725 .17599488 .3736725 .17599488 .3996582 .20999146 .3996582 .23098755 .3996582V.43066407L.11999512 .42765809C.116989139 .42765809 .05999756 .42765809 .020996094 .43066407V.3996582C.06599426 .3996582 .084991458 .3976593 .09700012 .3706665L.25498963-.00016784668 .22999573-.059143068C.20799256-.11212158 .1789856-.18008423 .11399841-.18008423 .08898926-.18008423 .07199097-.167099 .068984989-.16508484 .07699585-.16407776 .10499573-.1560669 .10499573-.12205505 .10499573-.09605408 .085998538-.080062869 .06298828-.080062869 .037994386-.080062869 .019989014-.09605408 .019989014-.123046878 .019989014-.16807556 .06199646-.20507813 .11399841-.20507813 .1789856-.20507813 .22200012-.14706421 .24598694-.092056278L.4269867 .33068849C.43798829 .3566742 .45599366 .3976593 .519989 .3996582Z"/>
<path id="font_11_44" d="M.19599915 .3766632C.19599915 .406662 .17199707 .43066407 .14199829 .43066407 .11199951 .43066407 .08799744 .406662 .08799744 .3766632 .08799744 .34765626 .11199951 .32266236 .14199829 .32266236 .17199707 .32266236 .19599915 .34765626 .19599915 .3766632M.19599915 .053985597C.19599915 .08299255 .17199707 .10798645 .14199829 .10798645 .11199951 .10798645 .08799744 .08299255 .08799744 .053985597 .08799744 .023986817 .11199951 0 .14199829 0 .17199707 0 .19599915 .023986817 .19599915 .053985597Z"/>
<path id="font_11_98" d="M.36999513 .12831116C.36999513 .17330933 .34999085 .20030213 .32798768 .22329712 .2939911 .25628663 .2579956 .26327516 .18399048 .2772827 .1579895 .28227235 .084991458 .29527284 .084991458 .35224916 .084991458 .38424684 .10798645 .426239 .19898987 .426239 .30699159 .426239 .31399537 .34326173 .31599427 .31826783 .31698609 .3062744 .31698609 .3002777 .32998658 .3002777 .34399415 .3002777 .34399415 .30726625 .34399415 .32626344V.4222412C.34399415 .4392395 .34399415 .4482422 .33198548 .4482422 .32699586 .4482422 .32499696 .4482422 .31199647 .43623353 .30999757 .43423463 .30099488 .42523194 .29499818 .4202423 .2639923 .44223023 .23298645 .4482422 .19898987 .4482422 .066986087 .4482422 .033996583 .37524415 .033996583 .32426454 .033996583 .29226686 .04798889 .26628114 .070999149 .24429322 .10499573 .21330261 .14299011 .20629883 .19400025 .19729615 .24499512 .18730164 .2619934 .18431092 .28399659 .16731262 .2939911 .15931702 .31900025 .14031983 .31900025 .10229492 .31900025 .014251709 .21798706 .014251709 .20399475 .014251709 .101989749 .014251709 .07598877 .0993042 .06399536 .15332031 .06098938 .16331482 .05999756 .16931153 .04798889 .16931153 .033996583 .16931153 .033996583 .16131592 .033996583 .14331055V.01524353C.033996583-.0017547608 .033996583-.0107421879 .04598999-.0107421879 .051986696-.0107421879 .052993776-.009750366 .070999149 .009246826 .07499695 .01524353 .085998538 .028259278 .09098816 .03326416 .1329956-.007751465 .1789856-.0107421879 .20399475-.0107421879 .32699586-.0107421879 .36999513 .061279298 .36999513 .12831116Z"/>
<path id="font_11_81" d="M.48399354 .21324158C.48399354 .34423829 .37998963 .4482422 .25698854 .4482422 .12998963 .4482422 .0289917 .3412323 .0289917 .21324158 .0289917 .08824158 .1329956-.0107421879 .2559967-.0107421879 .3829956-.0107421879 .48399354 .09024048 .48399354 .21324158M.397995 .22224427C.397995 .1852417 .397995 .12724304 .37298585 .08325195 .34498597 .037246705 .29899598 .01725769 .25698854 .01725769 .20698548 .01725769 .16499329 .042251588 .14199829 .08125305 .115997318 .12324524 .114990238 .17623902 .114990238 .22224427 .114990238 .25924684 .114990238 .3162384 .13999939 .35723878 .16999817 .40823365 .21998596 .42323304 .2559967 .42323304 .31298829 .42323304 .35398866 .39123536 .37399293 .35723878 .39698792 .31523133 .397995 .26423646 .397995 .22224427Z"/>
<path id="font_11_109" d="M.5469971 .00024414063V.03125C.47898866 .03125 .46998597 .038253786 .46998597 .087265018V.4423828L.31900025 .43138124V.40037538C.3869934 .40037538 .3959961 .39337159 .3959961 .34436036V.16729737C.3959961 .07826233 .34599305 .014251709 .27398683 .014251709 .19099427 .014251709 .18598938 .057266237 .18598938 .11128235V.4423828L.034988405 .43138124V.40037538C.11199951 .40037538 .11199951 .39736939 .11199951 .3083496V.15829468C.11199951 .09327698 .11199951 .051254274 .1579895 .01625061 .18699646-.003753662 .22799683-.0107421879 .2679901-.0107421879 .31999208-.0107421879 .36898805 .012252808 .397995 .072265628H.39898683V-.0107421879L.5469971 .00024414063Z"/>
<path id="font_11_43" d="M.4269867 .11936951C.4269867 .13139344 .41600038 .13139344 .41299439 .13139344 .4019928 .13139344 .4019928 .12937927 .3959961 .11236572 .37298585 .043289186 .31698609 .01725769 .2659912 .01725769 .20199585 .01725769 .11999512 .06932068 .11999512 .21749878 .11999512 .3735962 .19999695 .42022706 .2599945 .42022706 .272995 .42022706 .32699586 .41825868 .3639984 .39356996 .34298707 .3895874 .32299806 .3755951 .32299806 .34658814 .32299806 .32058717 .34298707 .30059815 .36898805 .30059815 .394989 .30059815 .41600038 .31759645 .41600038 .34858705 .41600038 .4103546 .34599305 .4482422 .2579956 .4482422 .12998963 .4482422 .033996583 .3415985 .033996583 .2164917 .033996583 .08734131 .13798523-.0107421879 .2559967-.0107421879 .394989-.0107421879 .4269867 .11036682 .4269867 .11936951Z"/>
<path id="font_11_75" d="M.83299258 0V.0309906C.7819977 .03125 .7569885 .03125 .7559967 .0622406V.2539215C.7559967 .34077455 .7559967 .36872865 .72299197 .4056549 .70199587 .43037416 .6619873 .4423828 .6159973 .4423828 .5439911 .4423828 .49499513 .40037538 .46699525 .3473816 .45498658 .40637208 .4149933 .4423828 .33099366 .4423828 .25099183 .4423828 .20199585 .39038087 .18099976 .3443756H.17999268V.4423828L.034988405 .43066407V.3996582C.102996829 .3996582 .11199951 .39266969 .11199951 .34370423V.07695007C.11199951 .0309906 .100997928 .0309906 .034988405 .0309906V0C.08198547 .0019989014 .100997928 .0029907227 .14898682 .0029907227 .19699097 .0029907227 .20999146 .0019989014 .2630005 0V.0309906C.19699097 .0309906 .18598938 .0309906 .18598938 .07695007V.25878907C.18598938 .36732484 .2639923 .41737367 .32398988 .41737367 .3789978 .41737367 .39698792 .37834168 .39698792 .30825807V.077041629C.39698792 .0309906 .38598634 .0309906 .31999208 .0309906V0C.36698915 .0019989014 .38598634 .0029907227 .43399049 .0029907227 .48199464 .0029907227 .49499513 .0019989014 .5479889 0V.0309906C.48199464 .0309906 .47099305 .0309906 .47099305 .077041629V.2592163C.47099305 .36732484 .548996 .41737367 .60899356 .41737367 .6639862 .41737367 .6819916 .37834168 .6819916 .30825807V.077041629C.6819916 .0309906 .67099 .0309906 .6049957 .0309906V0C.6519928 .0019989014 .67099 .0029907227 .71899417 .0029907227 .7669983 .0029907227 .7799988 .0019989014 .83299258 0Z"/>
<path id="font_11_55" d="M.3659973 .6340637C.3659973 .67207339 .32798768 .7050781 .272995 .7050781 .19499207 .7046509 .11299133 .6456604 .11299133 .5456543V.43066407H.033996583V.3996582H.11299133V.07695007C.11299133 .0309906 .101989749 .0309906 .035995485 .0309906V0C.08898926 .0019989014 .101989749 .0029907227 .15299988 .0029907227L.27999879 0V.0309906H.2599945C.18699646 .0309906 .18399048 .04197693 .18399048 .078948978V.3996582H.2999878V.43066407H.18099976V.5436554C.18099976 .6350708 .22999573 .68006899 .272995 .68006899 .2829895 .68006899 .29299928 .67807009 .30299378 .67407229 .29299928 .67007449 .2769928 .6580658 .2769928 .6330719 .2769928 .6070709 .29599 .58906558 .32099916 .58906558 .34799195 .58906558 .3659973 .60806277 .3659973 .6340637Z"/>
<path id="font_11_84" d="M.5359955 .21557617C.5359955 .34158326 .43798829 .4423828 .31999208 .4423828 .2659912 .4423828 .21598816 .42037965 .17799378 .37858583V.4423828L.02999878 .43066407V.3996582C.100997928 .3996582 .10699463 .39363099 .10699463 .35058595V-.116989139C.10699463-.16308594 .09599304-.16308594 .02999878-.16308594V-.1940918C.07699585-.1920929 .09599304-.19110108 .14399719-.19110108 .19198609-.19110108 .20498657-.1920929 .2579956-.1940918V-.16308594C.19198609-.16308594 .18099976-.16308594 .18099976-.116989139V.048187257C.20698548 .022232056 .24099732-.0107421879 .30699159-.0107421879 .42599488-.0107421879 .5359955 .085113529 .5359955 .21585083V.21557617M.44999696 .21585083C.44999696 .1020813 .38198854 .014251709 .30099488 .014251709 .2559967 .014251709 .21798706 .04019165 .19400025 .07513428 .18099976 .09509277 .18099976 .097091678 .18099976 .11604309V.3356018C.21499634 .39437867 .269989 .41436769 .31199647 .41436769 .3899994 .41436769 .44999696 .32437135 .44999696 .21636963V.21585083Z"/>
<path id="font_11_99" d="M.19599915 .3766632C.19599915 .406662 .17199707 .43066407 .14199829 .43066407 .11199951 .43066407 .08799744 .406662 .08799744 .3766632 .08799744 .34765626 .11199951 .32266236 .14199829 .32266236 .17199707 .32266236 .19599915 .34765626 .19599915 .3766632M.19898987 .0039978029C.19898987 .0289917 .19898987 .10798645 .14099121 .10798645 .10998535 .10798645 .08799744 .083999637 .08799744 .053985597 .08799744 .026992798 .10699463 0 .14199829 0 .1619873 0 .16799927 .0039978029 .17399597 .008987427 .17399597-.015029907 .17298889-.095184329 .10998535-.16731262 .101989749-.17633057 .101989749-.17733765 .101989749-.18135071 .101989749-.18635559 .10798645-.19335938 .114990238-.19335938 .12399292-.19335938 .19898987-.1162262 .19898987 .0039978029Z"/>
<path id="font_11_63" d="M.5469971 0V.0309906C.49598695 .03125 .47099305 .03125 .46998597 .0622406V.25431825C.46998597 .3373413 .46998597 .36636354 .44198609 .4013672 .4189911 .42938233 .3809967 .4423828 .33099366 .4423828 .2639923 .4423828 .21499634 .40737916 .18399048 .35134889H.18299866V.69433596L.034988405 .6826172V.6516113C.102996829 .6516113 .11199951 .64463809 .11199951 .59580996V.077041629C.11199951 .0309906 .100997928 .0309906 .034988405 .0309906V0C.08198547 .0019989014 .100997928 .0029907227 .14898682 .0029907227 .19699097 .0029907227 .20999146 .0019989014 .2630005 0V.0309906C.19699097 .0309906 .18598938 .0309906 .18598938 .077041629V.2592163C.18598938 .36532594 .26098634 .41737367 .32398988 .41737367 .3829956 .41737367 .3959961 .3683319 .3959961 .30825807V.077041629C.3959961 .0309906 .3849945 .0309906 .31900025 .0309906V0C.3659973 .0019989014 .3849945 .0029907227 .43299867 .0029907227 .48098756 .0029907227 .49398805 .0019989014 .5469971 0Z"/>
<path id="font_11_58" d="M.7549896 .24243164V.2734375C.6899872 .27043153 .67900088 .27043153 .6259918 .27043153 .58699038 .27043153 .5009918 .27043153 .46598817 .2734375V.24243164H.49798585C.59098818 .24243164 .59399417 .23043823 .59399417 .19345093V.1304779C.59399417 .008529663 .44198609 .008529663 .42900086 .008529663 .34700013 .008529663 .15899658 .057510377 .15899658 .34153749 .15899658 .62098696 .34098817 .67407229 .42399598 .67407229 .522995 .67407229 .6279907 .59895327 .6519928 .43669129 .6539917 .42367555 .6549988 .4186554 .66799929 .4186554 .6839905 .4186554 .6839905 .42367555 .6839905 .44470216V.67907717C.6839905 .69607546 .6839905 .7050781 .6719971 .7050781 .6649933 .7050781 .6619873 .70207217 .6559906 .69306948L.6049957 .61798098C.57299807 .6490326 .5159912 .7050781 .4149933 .7050781 .22099304 .7050781 .056991579 .54385378 .056991579 .34153749 .056991579 .13748169 .21998596-.022460938 .41600038-.022460938 .5099945-.022460938 .58200076 .013534546 .6100006 .06251526 .6269989 .03552246 .6629944 .0005340576 .6729889 .0005340576 .6839905 .0005340576 .6839905 .009536743 .6839905 .025527955V.19744873C.6839905 .23742676 .6879883 .24243164 .7549896 .24243164Z"/>
<path id="font_11_64" d="M.2849884 .1850586V.24707031H.010986328V.1850586H.2849884Z"/>
<path id="font_11_88" d="M.19599915 .053985597C.19599915 .08299255 .17199707 .10798645 .14199829 .10798645 .11199951 .10798645 .08799744 .08299255 .08799744 .053985597 .08799744 .023986817 .11199951 0 .14199829 0 .17199707 0 .19599915 .023986817 .19599915 .053985597Z"/>
</defs>
<use data-text="P" xlink:href="#font_1_83" transform="matrix(9.96264,0,0,-9.96264,64.42572,18.780282)"/>
<use data-text="o" xlink:href="#font_1_81" transform="matrix(9.96264,0,0,-9.96264,71.94751,18.780282)"/>
<use data-text="i" xlink:href="#font_1_66" transform="matrix(9.96264,0,0,-9.96264,77.67603,18.780282)"/>
<use data-text="n" xlink:href="#font_1_77" transform="matrix(9.96264,0,0,-9.96264,80.85412,18.780282)"/>
<use data-text="t" xlink:href="#font_1_105" transform="matrix(9.96264,0,0,-9.96264,86.90144,18.780282)"/>
<use data-text="s" xlink:href="#font_1_98" transform="matrix(9.96264,0,0,-9.96264,95.16047,18.780282)"/>
<use data-text="o" xlink:href="#font_1_81" transform="matrix(9.96264,0,0,-9.96264,99.68351,18.780282)"/>
<use data-text="u" xlink:href="#font_1_109" transform="matrix(9.96264,0,0,-9.96264,105.412029,18.780282)"/>
<use data-text="r" xlink:href="#font_1_96" transform="matrix(9.96264,0,0,-9.96264,111.77815,18.780282)"/>
<use data-text="c" xlink:href="#font_1_43" transform="matrix(9.96264,0,0,-9.96264,116.50044,18.780282)"/>
<use data-text="e" xlink:href="#font_1_50" transform="matrix(9.96264,0,0,-9.96264,121.591358,18.780282)"/>
<use data-text="&#x2192;" xlink:href="#font_2_2" transform="matrix(9.96264,0,0,-9.96264,130.65737,18.780282)"/>
<use data-text="G" xlink:href="#font_3_3" transform="matrix(9.96264,0,0,-9.96264,143.38736,18.780282)"/>
<use data-text="(" xlink:href="#font_4_1" transform="matrix(9.96264,0,0,-9.96264,151.22048,18.780282)"/>
<use data-text="x" xlink:href="#font_3_5" transform="matrix(9.96264,0,0,-9.96264,155.09485,18.780282)"/>
<use data-text="," xlink:href="#font_3_2" transform="matrix(9.96264,0,0,-9.96264,160.78353,18.780282)"/>
<use data-text="x" xlink:href="#font_3_5" transform="matrix(9.96264,0,0,-9.96264,165.19698,18.780282)"/>
<use data-text="&#x2032;" xlink:href="#font_5_1" transform="matrix(6.973848,0,0,-6.973848,170.91053,15.164921)"/>
<use data-text=")" xlink:href="#font_4_2" transform="matrix(9.96264,0,0,-9.96264,173.7056,18.780282)"/>
<path transform="matrix(1,0,0,-1,121.00354,109.83121)" stroke-width=".79701" stroke-linecap="butt" stroke-miterlimit="10" stroke-linejoin="miter" fill="none" stroke="#000000" d="M-70.867 0H64.69008"/>
<path transform="matrix(1,0,0,-1,185.69362,109.83121)" d="M4.53381 0C3.97704 .13808 1.52963 .92049 0 1.77196V-1.77196C1.52963-.92049 3.97704-.13808 4.53381 0Z"/>
<path transform="matrix(1,0,0,-1,185.69362,109.83121)" stroke-width=".79701" stroke-linecap="butt" stroke-miterlimit="10" stroke-linejoin="miter" fill="none" stroke="#000000" d="M4.53381 0C3.97704 .13808 1.52963 .92049 0 1.77196V-1.77196C1.52963-.92049 3.97704-.13808 4.53381 0Z"/>
<use data-text="x" xlink:href="#font_6_7" transform="matrix(8.966376,0,0,-8.966376,195.5896,111.761478)"/>
<path transform="matrix(1,0,0,-1,121.00354,109.83121)" stroke-width="1.59404" stroke-linecap="butt" stroke-miterlimit="10" stroke-linejoin="miter" fill="none" stroke="#cc0000" d="M0 0V35.99002"/>
<path transform="matrix(0,-1,-1,-0,121.00354,73.84119)" d="M6.07884 0C5.33234 .18881 2.0509 1.25874 0 2.4231V-2.4231C2.0509-1.25874 5.33234-.18881 6.07884 0Z" fill="#cc0000"/>
<path transform="matrix(0,-1,-1,-0,121.00354,73.84119)" stroke-width="1.59404" stroke-linecap="butt" stroke-miterlimit="10" stroke-linejoin="miter" fill="none" stroke="#cc0000" d="M6.07884 0C5.33234 .18881 2.0509 1.25874 0 2.4231V-2.4231C2.0509-1.25874 5.33234-.18881 6.07884 0Z"/>
<use data-text="&#x03b4;" xlink:href="#font_6_1" transform="matrix(8.966376,0,0,-8.966376,127.3582,75.42445)" fill="#cc0000"/>
<use data-text="(" xlink:href="#font_7_1" transform="matrix(8.966376,0,0,-8.966376,131.78359,75.42445)" fill="#cc0000"/>
<use data-text="x" xlink:href="#font_6_7" transform="matrix(8.966376,0,0,-8.966376,135.36734,75.42445)" fill="#cc0000"/>
<use data-text="&#x2212;" xlink:href="#font_8_1" transform="matrix(8.966376,0,0,-8.966376,142.63867,75.42445)" fill="#cc0000"/>
<use data-text="x" xlink:href="#font_6_7" transform="matrix(8.966376,0,0,-8.966376,151.85404,75.42445)" fill="#cc0000"/>
<use data-text="&#x2032;" xlink:href="#font_9_1" transform="matrix(5.977584,0,0,-5.977584,157.07749,71.61546)" fill="#cc0000"/>
<use data-text=")" xlink:href="#font_7_2" transform="matrix(8.966376,0,0,-8.966376,159.76187,75.42445)" fill="#cc0000"/>
<path transform="matrix(1,0,0,-1,121.00354,109.83121)" stroke-width=".79701" stroke-linecap="butt" stroke-miterlimit="10" stroke-linejoin="miter" fill="none" stroke="#000000" d="M-70.867-70.86703H64.69008"/>
<path transform="matrix(1,0,0,-1,185.69362,180.69824)" d="M4.53381 0C3.97704 .13808 1.52963 .92049 0 1.77196V-1.77196C1.52963-.92049 3.97704-.13808 4.53381 0Z"/>
<path transform="matrix(1,0,0,-1,185.69362,180.69824)" stroke-width=".79701" stroke-linecap="butt" stroke-miterlimit="10" stroke-linejoin="miter" fill="none" stroke="#000000" d="M4.53381 0C3.97704 .13808 1.52963 .92049 0 1.77196V-1.77196C1.52963-.92049 3.97704-.13808 4.53381 0Z"/>
<use data-text="x" xlink:href="#font_6_7" transform="matrix(8.966376,0,0,-8.966376,195.5896,182.62853)"/>
<path transform="matrix(1,0,0,-1,121.00354,109.83121)" stroke-width="1.19553" stroke-linecap="butt" stroke-miterlimit="10" stroke-linejoin="miter" fill="none" stroke="#0000b3" d="M-65.19774-68.02614C-65.19774-68.02614-64.40614-67.94467-64.10211-67.91281-63.7981-67.88095-63.31052-67.82909-63.00648-67.79645-62.70247-67.76381-62.21489-67.71172-61.91087-67.6775-61.60684-67.64331-61.1193-67.58572-60.81526-67.54991-60.51125-67.51408-60.02367-67.45625-59.71964-67.4193-59.41562-67.38234-58.92804-67.322-58.62402-67.28348-58.31999-67.24495-57.83243-67.18132-57.5284-67.1416-57.22438-67.10187-56.7368-67.0384-56.43277-66.99713-56.12875-66.95586-55.64119-66.88728-55.33717-66.84402-55.03314-66.80075-54.54558-66.73013-54.24155-66.68526-53.93753-66.64038-53.44995-66.56728-53.14592-66.52048-52.8419-66.47366-52.35432-66.3966-52.05031-66.34789-51.74628-66.29916-51.25871-66.2196-50.95468-66.16925-50.65067-66.1189-50.1631-66.03731-49.85907-65.98499-49.55505-65.93266-49.06747-65.84637-48.76346-65.79207-48.45943-65.73778-47.97186-65.65019-47.66783-65.59355-47.36382-65.53691-46.87624-65.44275-46.5722-65.38376-46.26819-65.32478-45.78062-65.22932-45.47661-65.16837-45.17258-65.1074-44.68501-65.00766-44.38098-64.9443-44.07697-64.88094-43.58939-64.77774-43.28535-64.71161-42.98134-64.64548-42.49376-64.53648-42.18974-64.46765-41.88571-64.3988-41.39815-64.28706-41.09412-64.21547-40.7901-64.14389-40.30254-64.02599-39.9985-63.95163-39.69449-63.87727-39.20691-63.7566-38.9029-63.67957-38.59886-63.60251-38.1113-63.47612-37.80727-63.39626-37.50325-63.31639-37.01567-63.1869-36.71164-63.10387-36.40762-63.02081-35.92004-62.88414-35.61603-62.79762-35.312-62.71109-34.82445-62.5702-34.52042-62.48013-34.21638-62.39006-33.72882-62.242-33.42479-62.14839-33.12077-62.05478-32.6332-61.90254-32.32918-61.80539-32.02515-61.70822-31.53758-61.54922-31.23355-61.4481-30.92952-61.34698-30.44196-61.18156-30.13792-61.07655-29.83391-60.97154-29.34634-60.80049-29.04233-60.69116-28.7383-60.58182-28.25073-60.40219-27.9467-60.28847-27.64267-60.17474-27.1551-59.98947-26.85107-59.87149-26.54706-59.75351-26.05948-59.5604-25.75546-59.4381-25.45143-59.3158-24.96387-59.11746-24.65984-58.98999-24.3558-58.86252-23.86826-58.65195-23.56422-58.51938-23.26021-58.38683-22.77263-58.17224-22.46861-58.03452-22.16458-57.89679-21.67702-57.66989-21.37299-57.52672-21.06895-57.38353-20.58139-57.15117-20.27736-57.00247-19.97334-56.85376-19.48576-56.60953-19.18175-56.45488-18.87772-56.30023-18.39017-56.04831-18.08614-55.88783-17.7821-55.72736-17.29454-55.4654-16.99051-55.29826-16.6865-55.13113-16.19891-54.85706-15.8949-54.68321-15.59087-54.50937-15.1033-54.22543-14.79927-54.04521-14.49524-53.86499-14.00768-53.57158-13.70364-53.3843-13.39963-53.197-12.91206-52.89037-12.60805-52.69527-12.30402-52.50017-11.81645-52.18108-11.51242-51.9781-11.20839-51.77515-10.72083-51.44289-10.4168-51.23242-10.11278-51.02197-9.6252-50.67993-9.32118-50.4612-9.01715-50.24246-8.52959-49.8836-8.22556-49.6558-7.92152-49.42801-7.43398-49.05574-7.12994-48.81929-6.82593-48.58284-6.33835-48.1975-6.03433-47.95163-5.7303-47.70575-5.24272-47.30283-4.9387-47.04718-4.63467-46.79153-4.14711-46.3745-3.84308-46.10901-3.53906-45.84352-3.05148-45.40944-2.74747-45.13364-2.44344-44.85782-1.95587-44.40785-1.65186-44.12106-1.34782-43.83426-.86026-43.21524-.55623-43.06653-.25221-42.91782 .23534-42.90526 .53935-43.04922 .84338-43.19319 1.33096-43.81696 1.63498-44.10419 1.93901-44.39142 2.42657-44.84319 2.7306-45.11935 3.03462-45.39554 3.52219-45.82918 3.8262-46.09473 4.13023-46.36028 4.61781-46.77762 4.92183-47.03333 5.22586-47.28905 5.71342-47.69154 6.01746-47.93777 6.32147-48.184 6.80905-48.57166 7.11307-48.80804 7.4171-49.04443 7.90468-49.41414 8.2087-49.64154 8.51273-49.86893 9.00027-50.22775 9.3043-50.44691 9.60832-50.66609 10.0959-51.01028 10.39992-51.22118 10.70395-51.43205 11.19153-51.7639 11.49554-51.96686 11.79958-52.16982 12.28714-52.4889 12.59117-52.68402 12.89519-52.87912 13.38277-53.1854 13.68678-53.37305 13.99081-53.5607 14.47838-53.856 14.7824-54.03656 15.08643-54.21713 15.57399-54.50107 15.87802-54.67456 16.18204-54.84807 16.66962-55.11984 16.97363-55.28703 17.27766-55.45422 17.76524-55.71872 18.06926-55.87961 18.37329-56.0405 18.86086-56.29207 19.16489-56.44666 19.4689-56.60124 19.95647-56.84476 20.26048-56.99382 20.56451-57.1429 21.0521-57.3779 21.35611-57.52109 21.66014-57.66428 22.1477-57.88812 22.45174-58.02585 22.75575-58.16359 23.24333-58.3812 23.54735-58.51376 23.85138-58.64632 24.33896-58.85393 24.64297-58.98134 24.947-59.10875 25.43456-59.30931 25.73859-59.43204 26.0426-59.55476 26.53018-59.74783 26.8342-59.86588 27.13823-59.98392 27.62581-60.16911 27.92982-60.28285 28.23386-60.39658 28.72142-60.5762 29.02545-60.68553 29.32947-60.79486 29.81705-60.96591 30.12106-61.07094 30.4251-61.17595 30.91266-61.34135 31.21667-61.44249 31.5207-61.54361 32.00827-61.7026 32.3123-61.79976 32.61632-61.89691 33.1039-62.04915 33.40793-62.14276 33.71194-62.23637 34.19952-62.38445 34.50354-62.47452 34.80757-62.56459 35.29514-62.70546 35.59917-62.79199 35.90318-62.87852 36.39075-63.01482 36.69478-63.09824 36.9988-63.18166 37.48637-63.31293 37.79039-63.39323 38.09442-63.47353 38.58199-63.59987 38.88602-63.67697 39.19003-63.75407 39.67761-63.87474 39.98164-63.94904 40.28566-64.02332 40.77324-64.14087 41.07726-64.21245 41.38129-64.28404 41.86884-64.39658 42.17287-64.46504 42.47688-64.53351 42.96446-64.63991 43.2685-64.70598 43.57251-64.77205 44.06009-64.87755 44.3641-64.94128 44.66814-65.005 45.1557-65.10437 45.45973-65.16533 45.76375-65.22629 46.25133-65.32175 46.55536-65.38074 46.85938-65.43973 47.34694-65.53386 47.65096-65.59052 47.95499-65.64716 48.44255-65.73474 48.74658-65.78905 49.0506-65.84335 49.53818-65.92964 49.84221-65.98196 50.14622-66.03429 50.6338-66.11588 50.93782-66.16623 51.24185-66.21657 51.72942-66.29608 52.03345-66.34486 52.33746-66.39365 52.82503-66.47107 53.12906-66.51787 53.43307-66.56468 53.92065-66.63742 54.22467-66.68224 54.5287-66.72705 55.01627-66.79771 55.3203-66.84097 55.62431-66.88425 56.1119-66.95241 56.41592-66.99411 56.71994-67.03581 57.20752-67.10187 57.51154-67.1416 57.81557-67.18132 58.30312-67.24228 58.60715-67.28044 58.91116-67.31859 59.39874-67.37932 59.70277-67.41669 60.00679-67.45407 60.49437-67.51414 60.79839-67.54991 61.10242-67.58566 61.58998-67.64029 61.89401-67.67448 62.19803-67.7087 62.68561-67.76338 62.98964-67.79645 63.29366-67.82951 63.78122-67.88132 64.08524-67.91281 64.38927-67.9443 65.18086-68.02354 65.18086-68.02354"/>
<use data-text="G" xlink:href="#font_6_4" transform="matrix(8.966376,0,0,-8.966376,161.37429,174.63829)" fill="#0000b3"/>
<use data-text="(" xlink:href="#font_7_1" transform="matrix(8.966376,0,0,-8.966376,168.59009,174.63829)" fill="#0000b3"/>
<use data-text="x" xlink:href="#font_6_7" transform="matrix(8.966376,0,0,-8.966376,172.17386,174.63829)" fill="#0000b3"/>
<use data-text="," xlink:href="#font_6_3" transform="matrix(8.966376,0,0,-8.966376,177.39228,174.63829)" fill="#0000b3"/>
<use data-text="x" xlink:href="#font_6_7" transform="matrix(8.966376,0,0,-8.966376,181.48096,174.63829)" fill="#0000b3"/>
<use data-text="&#x2032;" xlink:href="#font_9_1" transform="matrix(5.977584,0,0,-5.977584,186.71649,170.82929)" fill="#0000b3"/>
<use data-text=")" xlink:href="#font_7_2" transform="matrix(8.966376,0,0,-8.966376,189.40087,174.63829)" fill="#0000b3"/>
<path transform="matrix(1,0,0,-1,121.00354,109.83121)" stroke-width="1.19553" stroke-linecap="butt" stroke-miterlimit="10" stroke-linejoin="miter" fill="none" stroke="#000000" d="M0-11.33855V-34.74925"/>
<path transform="matrix(0,1,1,0,121.00354,144.58046)" d="M5.30629 0C4.65466 .16344 1.79025 1.08963 0 2.09753V-2.09753C1.79025-1.08963 4.65466-.16344 5.30629 0Z"/>
<path transform="matrix(0,1,1,0,121.00354,144.58046)" stroke-width="1.19553" stroke-linecap="butt" stroke-miterlimit="10" stroke-linejoin="miter" fill="none" stroke="#000000" d="M5.30629 0C4.65466 .16344 1.79025 1.08963 0 2.09753V-2.09753C1.79025-1.08963 4.65466-.16344 5.30629 0Z"/>
<use data-text="L" xlink:href="#font_6_5" transform="matrix(8.966376,0,0,-8.966376,128.77519,139.87395)"/>
<use data-text="G" xlink:href="#font_6_4" transform="matrix(8.966376,0,0,-8.966376,136.57595,139.87395)"/>
<use data-text="=" xlink:href="#font_7_3" transform="matrix(8.966376,0,0,-8.966376,146.35762,139.87395)"/>
<use data-text="&#x03b4;" xlink:href="#font_6_1" transform="matrix(8.966376,0,0,-8.966376,156.08496,139.87395)"/>
<use data-text="A" xlink:href="#font_1_27" transform="matrix(9.96264,0,0,-9.96264,276.75245,19.278428)"/>
<use data-text="r" xlink:href="#font_1_96" transform="matrix(9.96264,0,0,-9.96264,285.40998,19.278428)"/>
<use data-text="b" xlink:href="#font_1_35" transform="matrix(9.96264,0,0,-9.96264,290.13227,19.278428)"/>
<use data-text="i" xlink:href="#font_1_66" transform="matrix(9.96264,0,0,-9.96264,296.49839,19.278428)"/>
<use data-text="t" xlink:href="#font_1_105" transform="matrix(9.96264,0,0,-9.96264,299.67646,19.278428)"/>
<use data-text="r" xlink:href="#font_1_96" transform="matrix(9.96264,0,0,-9.96264,304.12977,19.278428)"/>
<use data-text="a" xlink:href="#font_1_28" transform="matrix(9.96264,0,0,-9.96264,308.85206,19.278428)"/>
<use data-text="r" xlink:href="#font_1_96" transform="matrix(9.96264,0,0,-9.96264,314.42118,19.278428)"/>
<use data-text="y" xlink:href="#font_1_118" transform="matrix(9.96264,0,0,-9.96264,319.14347,19.278428)"/>
<use data-text="f" xlink:href="#font_3_4" transform="matrix(9.96264,0,0,-9.96264,329.00648,19.278428)"/>
<use data-text="&#x2192;" xlink:href="#font_2_2" transform="matrix(9.96264,0,0,-9.96264,337.72377,19.278428)"/>
<use data-text="&#x03c8;" xlink:href="#font_3_1" transform="matrix(9.96264,0,0,-9.96264,350.45375,19.278428)"/>
<use data-text="=" xlink:href="#font_4_3" transform="matrix(9.96264,0,0,-9.96264,360.0681,19.278428)"/>
<use data-text="G" xlink:href="#font_3_3" transform="matrix(9.96264,0,0,-9.96264,370.58418,19.278428)"/>
<use data-text="&#x2217;" xlink:href="#font_2_1" transform="matrix(9.96264,0,0,-9.96264,378.97077,19.278428)"/>
<use data-text="f" xlink:href="#font_3_4" transform="matrix(9.96264,0,0,-9.96264,384.50556,19.278428)"/>
<path transform="matrix(1,0,0,-1,121.00354,109.83121)" stroke-width=".79701" stroke-linecap="butt" stroke-miterlimit="10" stroke-linejoin="miter" fill="none" stroke="#000000" d="M141.73413 0H277.29124"/>
<path transform="matrix(1,0,0,-1,398.29478,109.83121)" d="M4.53381 0C3.97704 .13808 1.52963 .92049 0 1.77196V-1.77196C1.52963-.92049 3.97704-.13808 4.53381 0Z"/>
<path transform="matrix(1,0,0,-1,398.29478,109.83121)" stroke-width=".79701" stroke-linecap="butt" stroke-miterlimit="10" stroke-linejoin="miter" fill="none" stroke="#000000" d="M4.53381 0C3.97704 .13808 1.52963 .92049 0 1.77196V-1.77196C1.52963-.92049 3.97704-.13808 4.53381 0Z"/>
<use data-text="x" xlink:href="#font_6_7" transform="matrix(8.966376,0,0,-8.966376,408.19078,113.39618)"/>
<use data-text="&#x2032;" xlink:href="#font_9_1" transform="matrix(5.977584,0,0,-5.977584,413.4142,109.58718)"/>
<path transform="matrix(1,0,0,-1,121.00354,109.83121)" stroke-width="1.19553" stroke-linecap="butt" stroke-miterlimit="10" stroke-linejoin="miter" fill="none" stroke="#b35900" d="M147.40341 5.66927C170.08095 39.68535 184.25434 0 204.09703 19.84267 226.77455 42.5202 240.94795 14.17339 257.9562 25.51193 269.29478 31.18166 274.96406 11.33855 277.7989 8.50412"/>
<use data-text="f" xlink:href="#font_6_6" transform="matrix(8.966376,0,0,-8.966376,373.97547,75.42445)" fill="#b35900"/>
<use data-text="(" xlink:href="#font_7_1" transform="matrix(8.966376,0,0,-8.966376,379.42378,75.42445)" fill="#b35900"/>
<use data-text="x" xlink:href="#font_6_7" transform="matrix(8.966376,0,0,-8.966376,383.0075,75.42445)" fill="#b35900"/>
<use data-text="&#x2032;" xlink:href="#font_9_1" transform="matrix(5.977584,0,0,-5.977584,388.23097,71.61546)" fill="#b35900"/>
<use data-text=")" xlink:href="#font_7_2" transform="matrix(8.966376,0,0,-8.966376,390.91535,75.42445)" fill="#b35900"/>
<path transform="matrix(1,0,0,-1,121.00354,109.83121)" stroke-width=".79701" stroke-linecap="butt" stroke-miterlimit="10" stroke-linejoin="miter" fill="none" stroke="#000000" d="M141.73413-70.86703H277.29124"/>
<path transform="matrix(1,0,0,-1,398.29478,180.69824)" d="M4.53381 0C3.97704 .13808 1.52963 .92049 0 1.77196V-1.77196C1.52963-.92049 3.97704-.13808 4.53381 0Z"/>
<path transform="matrix(1,0,0,-1,398.29478,180.69824)" stroke-width=".79701" stroke-linecap="butt" stroke-miterlimit="10" stroke-linejoin="miter" fill="none" stroke="#000000" d="M4.53381 0C3.97704 .13808 1.52963 .92049 0 1.77196V-1.77196C1.52963-.92049 3.97704-.13808 4.53381 0Z"/>
<use data-text="x" xlink:href="#font_6_7" transform="matrix(8.966376,0,0,-8.966376,408.19078,182.62853)"/>
<path transform="matrix(1,0,0,-1,121.00354,109.83121)" stroke-width="1.19553" stroke-linecap="butt" stroke-miterlimit="10" stroke-linejoin="miter" fill="none" stroke="#0000b3" d="M147.40341-59.52849C184.25434-51.02437 212.60115-53.8588 240.94795-48.18951 257.9562-45.35509 269.29478-53.8588 277.7989-56.69365"/>
<use data-text="&#x03c8;" xlink:href="#font_6_2" transform="matrix(8.966376,0,0,-8.966376,373.97547,174.43575)" fill="#0000b3"/>
<use data-text="(" xlink:href="#font_7_1" transform="matrix(8.966376,0,0,-8.966376,380.3093,174.43575)" fill="#0000b3"/>
<use data-text="x" xlink:href="#font_6_7" transform="matrix(8.966376,0,0,-8.966376,383.89308,174.43575)" fill="#0000b3"/>
<use data-text=")" xlink:href="#font_7_2" transform="matrix(8.966376,0,0,-8.966376,389.11653,174.43575)" fill="#0000b3"/>
<path transform="matrix(1,0,0,-1,121.00354,109.83121)" stroke-width="1.19553" stroke-linecap="butt" stroke-miterlimit="10" stroke-linejoin="miter" fill="none" stroke="#86592d" d="M212.60115-11.33855V-34.74925"/>
<path transform="matrix(0,1,1,0,333.60469,144.58046)" d="M5.30629 0C4.65466 .16344 1.79025 1.08963 0 2.09753V-2.09753C1.79025-1.08963 4.65466-.16344 5.30629 0Z" fill="#86592d"/>
<path transform="matrix(0,1,1,0,333.60469,144.58046)" stroke-width="1.19553" stroke-linecap="butt" stroke-miterlimit="10" stroke-linejoin="miter" fill="none" stroke="#86592d" d="M5.30629 0C4.65466 .16344 1.79025 1.08963 0 2.09753V-2.09753C1.79025-1.08963 4.65466-.16344 5.30629 0Z"/>
<use data-text="&#x03c8;" xlink:href="#font_6_2" transform="matrix(8.966376,0,0,-8.966376,341.37635,139.00218)" fill="#86592d"/>
<use data-text="=" xlink:href="#font_7_3" transform="matrix(8.966376,0,0,-8.966376,350.27003,139.00218)" fill="#86592d"/>
<use data-text="&#x222b;" xlink:href="#font_10_1" transform="matrix(8.966376,0,0,-8.966376,358.46147,131.77922)" fill="#86592d"/>
<use data-text="G" xlink:href="#font_6_4" transform="matrix(8.966376,0,0,-8.966376,364.60505,139.00218)" fill="#86592d"/>
<use data-text="f" xlink:href="#font_6_6" transform="matrix(8.966376,0,0,-8.966376,371.81404,139.00218)" fill="#86592d"/>
<use data-text="d" xlink:href="#font_7_4" transform="matrix(8.966376,0,0,-8.966376,378.80509,139.00218)" fill="#86592d"/>
<use data-text="x" xlink:href="#font_6_7" transform="matrix(8.966376,0,0,-8.966376,383.92475,139.00218)" fill="#86592d"/>
<use data-text="&#x2032;" xlink:href="#font_9_1" transform="matrix(5.977584,0,0,-5.977584,389.1482,135.19318)" fill="#86592d"/>
<use data-text="L" xlink:href="#font_11_71" transform="matrix(8.966376,0,0,-8.966376,11.28923,247.23303)"/>
<use data-text="i" xlink:href="#font_11_66" transform="matrix(8.966376,0,0,-8.966376,17.045643,247.23303)"/>
<use data-text="n" xlink:href="#font_11_77" transform="matrix(8.966376,0,0,-8.966376,19.610028,247.23303)"/>
<use data-text="e" xlink:href="#font_11_50" transform="matrix(8.966376,0,0,-8.966376,24.729828,247.23303)"/>
<use data-text="a" xlink:href="#font_11_28" transform="matrix(8.966376,0,0,-8.966376,28.827462,247.23303)"/>
<use data-text="r" xlink:href="#font_11_96" transform="matrix(8.966376,0,0,-8.966376,33.43618,247.23303)"/>
<use data-text="i" xlink:href="#font_11_66" transform="matrix(8.966376,0,0,-8.966376,37.040666,247.23303)"/>
<use data-text="t" xlink:href="#font_11_105" transform="matrix(8.966376,0,0,-8.966376,39.60505,247.23303)"/>
<use data-text="y" xlink:href="#font_11_118" transform="matrix(8.966376,0,0,-8.966376,42.940538,247.23303)"/>
<use data-text=":" xlink:href="#font_11_44" transform="matrix(8.966376,0,0,-8.966376,47.800317,247.23303)"/>
<use data-text="a" xlink:href="#font_11_28" transform="matrix(8.966376,0,0,-8.966376,54.45337,247.23303)"/>
<use data-text="n" xlink:href="#font_11_77" transform="matrix(8.966376,0,0,-8.966376,59.062089,247.23303)"/>
<use data-text="y" xlink:href="#font_11_118" transform="matrix(8.966376,0,0,-8.966376,63.930833,247.23303)"/>
<use data-text="s" xlink:href="#font_11_98" transform="matrix(8.966376,0,0,-8.966376,71.85711,247.23303)"/>
<use data-text="o" xlink:href="#font_11_81" transform="matrix(8.966376,0,0,-8.966376,75.488498,247.23303)"/>
<use data-text="u" xlink:href="#font_11_109" transform="matrix(8.966376,0,0,-8.966376,80.09721,247.23303)"/>
<use data-text="r" xlink:href="#font_11_96" transform="matrix(8.966376,0,0,-8.966376,85.21702,247.23303)"/>
<use data-text="c" xlink:href="#font_11_43" transform="matrix(8.966376,0,0,-8.966376,88.8215,247.23303)"/>
<use data-text="e" xlink:href="#font_11_50" transform="matrix(8.966376,0,0,-8.966376,92.91914,247.23303)"/>
<use data-text="f" xlink:href="#font_6_6" transform="matrix(8.966376,0,0,-8.966376,100.09523,247.23303)"/>
<use data-text="i" xlink:href="#font_11_66" transform="matrix(8.966376,0,0,-8.966376,108.619,247.23303)"/>
<use data-text="s" xlink:href="#font_11_98" transform="matrix(8.966376,0,0,-8.966376,111.18338,247.23303)"/>
<use data-text="a" xlink:href="#font_11_28" transform="matrix(8.966376,0,0,-8.966376,117.89023,247.23303)"/>
<use data-text="s" xlink:href="#font_11_98" transform="matrix(8.966376,0,0,-8.966376,125.57442,247.23303)"/>
<use data-text="u" xlink:href="#font_11_109" transform="matrix(8.966376,0,0,-8.966376,129.2058,247.23303)"/>
<use data-text="m" xlink:href="#font_11_75" transform="matrix(8.966376,0,0,-8.966376,134.32559,247.23303)"/>
<use data-text="o" xlink:href="#font_11_81" transform="matrix(8.966376,0,0,-8.966376,145.07628,247.23303)"/>
<use data-text="f" xlink:href="#font_11_55" transform="matrix(8.966376,0,0,-8.966376,149.685,247.23303)"/>
<use data-text="p" xlink:href="#font_11_84" transform="matrix(8.966376,0,0,-8.966376,155.57592,247.23303)"/>
<use data-text="o" xlink:href="#font_11_81" transform="matrix(8.966376,0,0,-8.966376,160.95574,247.23303)"/>
<use data-text="i" xlink:href="#font_11_66" transform="matrix(8.966376,0,0,-8.966376,165.56446,247.23303)"/>
<use data-text="n" xlink:href="#font_11_77" transform="matrix(8.966376,0,0,-8.966376,168.12883,247.23303)"/>
<use data-text="t" xlink:href="#font_11_105" transform="matrix(8.966376,0,0,-8.966376,172.99758,247.23303)"/>
<use data-text="s" xlink:href="#font_11_98" transform="matrix(8.966376,0,0,-8.966376,179.65062,247.23303)"/>
<use data-text="o" xlink:href="#font_11_81" transform="matrix(8.966376,0,0,-8.966376,183.282,247.23303)"/>
<use data-text="u" xlink:href="#font_11_109" transform="matrix(8.966376,0,0,-8.966376,187.89072,247.23303)"/>
<use data-text="r" xlink:href="#font_11_96" transform="matrix(8.966376,0,0,-8.966376,193.01052,247.23303)"/>
<use data-text="c" xlink:href="#font_11_43" transform="matrix(8.966376,0,0,-8.966376,196.61499,247.23303)"/>
<use data-text="e" xlink:href="#font_11_50" transform="matrix(8.966376,0,0,-8.966376,200.71263,247.23303)"/>
<use data-text="s" xlink:href="#font_11_98" transform="matrix(8.966376,0,0,-8.966376,204.81027,247.23303)"/>
<use data-text=";" xlink:href="#font_11_99" transform="matrix(8.966376,0,0,-8.966376,208.44165,247.23303)"/>
<use data-text="t" xlink:href="#font_11_105" transform="matrix(8.966376,0,0,-8.966376,217.15697,247.23303)"/>
<use data-text="h" xlink:href="#font_11_63" transform="matrix(8.966376,0,0,-8.966376,220.74352,247.23303)"/>
<use data-text="e" xlink:href="#font_11_50" transform="matrix(8.966376,0,0,-8.966376,225.86333,247.23303)"/>
<use data-text="r" xlink:href="#font_11_96" transform="matrix(8.966376,0,0,-8.966376,233.03643,247.23303)"/>
<use data-text="e" xlink:href="#font_11_50" transform="matrix(8.966376,0,0,-8.966376,236.64092,247.23303)"/>
<use data-text="s" xlink:href="#font_11_98" transform="matrix(8.966376,0,0,-8.966376,240.73854,247.23303)"/>
<use data-text="p" xlink:href="#font_11_84" transform="matrix(8.966376,0,0,-8.966376,244.36992,247.23303)"/>
<use data-text="o" xlink:href="#font_11_81" transform="matrix(8.966376,0,0,-8.966376,249.74974,247.23303)"/>
<use data-text="n" xlink:href="#font_11_77" transform="matrix(8.966376,0,0,-8.966376,254.35845,247.23303)"/>
<use data-text="s" xlink:href="#font_11_98" transform="matrix(8.966376,0,0,-8.966376,259.47828,247.23303)"/>
<use data-text="e" xlink:href="#font_11_50" transform="matrix(8.966376,0,0,-8.966376,263.10963,247.23303)"/>
<use data-text="i" xlink:href="#font_11_66" transform="matrix(8.966376,0,0,-8.966376,270.2827,247.23303)"/>
<use data-text="s" xlink:href="#font_11_98" transform="matrix(8.966376,0,0,-8.966376,272.8471,247.23303)"/>
<use data-text="t" xlink:href="#font_11_105" transform="matrix(8.966376,0,0,-8.966376,279.55397,247.23303)"/>
<use data-text="h" xlink:href="#font_11_63" transform="matrix(8.966376,0,0,-8.966376,283.1405,247.23303)"/>
<use data-text="e" xlink:href="#font_11_50" transform="matrix(8.966376,0,0,-8.966376,288.2603,247.23303)"/>
<use data-text="s" xlink:href="#font_11_98" transform="matrix(8.966376,0,0,-8.966376,295.4334,247.23303)"/>
<use data-text="u" xlink:href="#font_11_109" transform="matrix(8.966376,0,0,-8.966376,299.06483,247.23303)"/>
<use data-text="m" xlink:href="#font_11_75" transform="matrix(8.966376,0,0,-8.966376,304.18464,247.23303)"/>
<use data-text="o" xlink:href="#font_11_81" transform="matrix(8.966376,0,0,-8.966376,314.9353,247.23303)"/>
<use data-text="f" xlink:href="#font_11_55" transform="matrix(8.966376,0,0,-8.966376,319.544,247.23303)"/>
<use data-text="G" xlink:href="#font_11_58" transform="matrix(8.966376,0,0,-8.966376,325.43495,247.23303)"/>
<use data-text="r" xlink:href="#font_11_96" transform="matrix(8.966376,0,0,-8.966376,332.67079,247.23303)"/>
<use data-text="e" xlink:href="#font_11_50" transform="matrix(8.966376,0,0,-8.966376,336.27528,247.23303)"/>
<use data-text="e" xlink:href="#font_11_50" transform="matrix(8.966376,0,0,-8.966376,340.37294,247.23303)"/>
<use data-text="n" xlink:href="#font_11_77" transform="matrix(8.966376,0,0,-8.966376,344.47053,247.23303)"/>
<use data-text="-" xlink:href="#font_11_64" transform="matrix(8.966376,0,0,-8.966376,349.59034,247.23303)"/>
<use data-text="f" xlink:href="#font_11_55" transform="matrix(8.966376,0,0,-8.966376,352.66584,247.23303)"/>
<use data-text="u" xlink:href="#font_11_109" transform="matrix(8.966376,0,0,-8.966376,355.48127,247.23303)"/>
<use data-text="n" xlink:href="#font_11_77" transform="matrix(8.966376,0,0,-8.966376,360.60108,247.23303)"/>
<use data-text="c" xlink:href="#font_11_43" transform="matrix(8.966376,0,0,-8.966376,365.7209,247.23303)"/>
<use data-text="t" xlink:href="#font_11_105" transform="matrix(8.966376,0,0,-8.966376,369.81849,247.23303)"/>
<use data-text="i" xlink:href="#font_11_66" transform="matrix(8.966376,0,0,-8.966376,373.40504,247.23303)"/>
<use data-text="o" xlink:href="#font_11_81" transform="matrix(8.966376,0,0,-8.966376,375.96943,247.23303)"/>
<use data-text="n" xlink:href="#font_11_77" transform="matrix(8.966376,0,0,-8.966376,380.57814,247.23303)"/>
<use data-text="r" xlink:href="#font_11_96" transform="matrix(8.966376,0,0,-8.966376,388.77345,247.23303)"/>
<use data-text="e" xlink:href="#font_11_50" transform="matrix(8.966376,0,0,-8.966376,392.37794,247.23303)"/>
<use data-text="s" xlink:href="#font_11_98" transform="matrix(8.966376,0,0,-8.966376,396.47554,247.23303)"/>
<use data-text="p" xlink:href="#font_11_84" transform="matrix(8.966376,0,0,-8.966376,400.10694,247.23303)"/>
<use data-text="o" xlink:href="#font_11_81" transform="matrix(8.966376,0,0,-8.966376,405.48677,247.23303)"/>
<use data-text="n" xlink:href="#font_11_77" transform="matrix(8.966376,0,0,-8.966376,410.09547,247.23303)"/>
<use data-text="s" xlink:href="#font_11_98" transform="matrix(8.966376,0,0,-8.966376,415.21528,247.23303)"/>
<use data-text="e" xlink:href="#font_11_50" transform="matrix(8.966376,0,0,-8.966376,418.84663,247.23303)"/>
<use data-text="s" xlink:href="#font_11_98" transform="matrix(8.966376,0,0,-8.966376,422.94429,247.23303)"/>
<use data-text="." xlink:href="#font_11_88" transform="matrix(8.966376,0,0,-8.966376,426.57563,247.23303)"/>
</svg>
