<svg xmlns="http://www.w3.org/2000/svg" xmlns:xlink="http://www.w3.org/1999/xlink" xmlns:inkscape="http://www.inkscape.org/namespaces/inkscape" version="1.1" width="536.71" height="283.01" viewBox="0 0 536.71 283.01">
<defs>
<path id="font_1_1" d="M.2899933 .2504425C.2899933 .28344728 .2619934 .31144715 .22898865 .31144715 .19599915 .31144715 .16799927 .28344728 .16799927 .2504425 .16799927 .217453 .19599915 .18945313 .22898865 .18945313 .2619934 .18945313 .2899933 .217453 .2899933 .2504425Z"/>
<path id="font_2_1" d="M.37298585 .37835694C.35499574 .41537477 .32598878 .4423828 .2809906 .4423828 .1639862 .4423828 .039993287 .29533387 .039993287 .14929199 .039993287 .055267335 .09498596-.0107421879 .17298889-.0107421879 .19299317-.0107421879 .24299622-.0067443849 .30299378 .06427002 .31098939 .022247315 .34599305-.0107421879 .3939972-.0107421879 .42900086-.0107421879 .45199586 .012252808 .46798707 .044265748 .4850006 .08027649 .49798585 .14129639 .49798585 .14329529 .49798585 .1532898 .4889984 .1532898 .48599244 .1532898 .47599793 .1532898 .47499085 .14929199 .47200013 .13528443 .45498658 .07026672 .43699647 .011245728 .3959961 .011245728 .36898805 .011245728 .3659973 .037261964 .3659973 .057266237 .3659973 .07926941 .36799623 .08728027 .3789978 .13128662 .3899994 .17329407 .3919983 .18330384 .40098573 .22131348L.43699647 .36135865C.44400025 .38935853 .44400025 .39135743 .44400025 .39537049 .44400025 .41236878 .43199159 .42237855 .4149933 .42237855 .3909912 .42237855 .37599183 .4003601 .37298585 .37835694M.30799867 .119277957C.30299378 .10127258 .30299378 .09927368 .28799439 .08227539 .24398804 .027252198 .20298767 .011245728 .1749878 .011245728 .125 .011245728 .11099243 .06626892 .11099243 .105285648 .11099243 .1552887 .14299011 .27833558 .1659851 .32434083 .19699097 .38336183 .24198914 .42037965 .28199769 .42037965 .34700013 .42037965 .36099244 .3383484 .36099244 .33235169 .36099244 .32633973 .35899354 .32034303 .35798646 .31533814L.30799867 .119277957Z"/>
<path id="font_3_1" d="M.68699648 .32714845C.70199587 .32714845 .72099307 .32714845 .72099307 .34713746 .72099307 .36714173 .70199587 .36714173 .6879883 .36714173H.08898926C.07499695 .36714173 .055999757 .36714173 .055999757 .34713746 .055999757 .32714845 .07499695 .32714845 .08999634 .32714845H.68699648M.6879883 .13284302C.70199587 .13284302 .72099307 .13284302 .72099307 .15284729 .72099307 .17285156 .70199587 .17285156 .68699648 .17285156H.08999634C.07499695 .17285156 .055999757 .17285156 .055999757 .15284729 .055999757 .13284302 .07499695 .13284302 .08898926 .13284302H.6879883Z"/>
<path id="font_2_2" d="M.47099305 .3773346C.47200013 .3833313 .47399903 .38833619 .47399903 .39535523 .47399903 .41236878 .46199037 .42237855 .44499208 .42237855 .43499757 .42237855 .4079895 .41537477 .4039917 .3793335 .38598634 .41636659 .35099793 .4423828 .31098939 .4423828 .19699097 .4423828 .07299805 .30226136 .07299805 .15812683 .07299805 .059020997 .13398743 0 .20599365 0 .2649994 0 .31199647 .04701233 .32199098 .058029176L.32299806 .057022096C.3019867-.031982423 .2899933-.07295227 .2899933-.07495117 .28599549-.08395386 .2519989-.18309021 .1459961-.18309021 .1269989-.18309021 .09399414-.18206787 .06599426-.17297364 .09599304-.16394043 .10699463-.13793946 .10699463-.12094116 .10699463-.10494995 .09599304-.0859375 .068984989-.0859375 .04699707-.0859375 .01499939-.10394287 .01499939-.14395142 .01499939-.18508911 .051986696-.20507813 .147995-.20507813 .272995-.20507813 .34498597-.12693787 .3600006-.06695557L.47099305 .3773346M.34098817 .12809754C.33499146 .10206604 .31199647 .077041629 .2899933 .058029176 .2689972 .040008546 .23799134 .021987915 .20899964 .021987915 .15899658 .021987915 .14399719 .074035648 .14399719 .11407471 .14399719 .16212464 .17298889 .28024293 .19999695 .33128358 .22698975 .38034059 .269989 .42037965 .31199647 .42037965 .37799073 .42037965 .3919983 .33929444 .3919983 .33428956 .3919983 .32928468 .3899994 .3232727 .3889923 .3192749L.34098817 .12809754Z"/>
<path id="font_4_95" d="M.6529999 .030334473 .48298646 .32032777C.54599 .33532716 .6409912 .37332154 .6409912 .4973297 .6409912 .69433596 .42399598 .69433596 .3789978 .69433596H.13899231C.102996829 .69433596 .09098816 .68333438 .09098816 .6463318V.048080446C.09098816 .012008667 .101989749 0 .13899231 0H.18699646C.22499085 0 .23498535 .013015747 .23498535 .048080446V.31152345H.34599305L.5099945 .024032593C.5239868 0 .5349884 0 .5569916 0H.6159973C.6359863 0 .6529999 0 .6529999 .030044556V.030334473M.5019989 .49642945C.5019989 .43746949 .48799134 .3835144 .36499024 .3835144H.23498535V.60832217H.36499024C.48098756 .60832217 .5019989 .5623627 .5019989 .49642945Z"/>
<path id="font_4_81" d="M.5179901 .22494507C.5179901 .3886261 .43798829 .47460938 .2749939 .47460938 .10798645 .47460938 .0309906 .38563539 .0309906 .22494507 .0309906 .06225586 .116989139-.0107421879 .27398683-.0107421879 .43099977-.0107421879 .5179901 .06124878 .5179901 .22494507M.38198854 .23692322C.38198854 .15808106 .38198854 .06724548 .2749939 .06724548 .16699219 .06724548 .16699219 .15707398 .16699219 .23692322 .16699219 .31376649 .16699219 .40260316 .27398683 .40260316 .38198854 .40260316 .38198854 .31477357 .38198854 .23692322Z"/>
<path id="font_4_43" d="M.45700074 .050247194C.45700074 .06124878 .45298768 .107177738 .45098878 .120147708 .45098878 .12313843 .44898988 .13311768 .43899537 .13311768 .43499757 .13311768 .43299867 .13311768 .4229889 .12313843 .4059906 .108169559 .35899354 .06724548 .2769928 .06724548 .17298889 .06724548 .17298889 .16804505 .17298889 .2319336 .17298889 .3127594 .17799378 .39660646 .27999879 .39660646 .34498597 .39660646 .37199403 .3806305 .4079895 .35069276 .41999818 .33970643 .42199708 .33970643 .42599488 .33970643 .43598939 .33970643 .43798829 .34869386 .43899537 .35269166 .44099427 .360672 .45098878 .41659547 .45098878 .42160035 .45098878 .43060304 .44400025 .43460084 .4269867 .44259645 .3789978 .4645996 .34899903 .47460938 .2789917 .47460938 .12998963 .47460938 .036987306 .40460206 .036987306 .22993469 .036987306 .06425476 .12298584-.0107421879 .27398683-.0107421879 .30099488-.0107421879 .36099244-.009750366 .42799378 .024246216 .45599366 .039245607 .45700074 .040252687 .45700074 .050247194Z"/>
<path id="font_4_70" d="M.49699403 .022003174C.49699403 .022003174 .49699403 .03100586 .4869995 .044006349L.31298829 .27212525 .46699525 .41519166C.47898866 .42619325 .48199464 .42919923 .48199464 .43719483 .48199464 .45820619 .46199037 .45820619 .44799806 .45820619H.3899994C.37199403 .45820619 .35299684 .45820619 .32998658 .43719483L.18598938 .3031311V.64630129C.18598938 .6783142 .1789856 .69433596 .13798523 .69433596H.116989139C.08099365 .69433596 .068984989 .6833191 .068984989 .64630129V.04801941C.068984989 .011993408 .07998657 0 .116989139 0H.1349945C.17298889 0 .18299866 .013000488 .18299866 .04801941V.15206909C.19898987 .16607666 .21398926 .18107605 .22999573 .19508362L.3600006 .025009156C.3769989 .0029907227 .38398744 0 .41299439 0H.46099855C.47499085 0 .49699403 0 .49699403 .022003174Z"/>
<path id="font_4_50" d="M.47898866 .25959779C.47898866 .38859559 .4189911 .47460938 .269989 .47460938 .10998535 .47525025 .0309906 .3852539 .0309906 .23324585 .0309906 .069244388 .12599182-.0107421879 .2829895-.0107421879 .32099916-.0107421879 .37799073-.0057525637 .44400025 .027252198 .46598817 .038253786 .47299195 .041244508 .47299195 .053253175 .47299195 .060256959 .46998597 .08924866 .46899415 .09724426 .46499635 .12825012 .46398927 .1292572 .45498658 .1292572 .45098878 .1292572 .44898988 .1292572 .43798829 .11924744 .3789978 .06825256 .31900025 .06124878 .2869873 .06124878 .17399597 .06085205 .1619873 .14985657 .15899658 .21386719H.43099977C.45399476 .21386719 .47898866 .21485901 .47898866 .25985719V.25959779M.36799623 .26686097H.1599884C.16299439 .32774354 .18299866 .40260316 .269989 .40260316 .34999085 .40260316 .36499024 .3447113 .36799623 .26686097Z"/>
<path id="font_4_105" d="M.37298585 .04725647C.37298585 .050247194 .37098695 .057250978 .36499024 .078125 .3600006 .09811401 .35798646 .10411072 .34899903 .10411072 .34399415 .10411072 .34298707 .1031189 .33699037 .09712219 .32598878 .08911133 .29899598 .06724548 .25698854 .06724548 .23298645 .06724548 .21798706 .084121707 .21798706 .15011597V.3860016H.30699159C.31900025 .3860016 .35499574 .3860016 .35499574 .42199708 .35499574 .4580078 .31900025 .4580078 .30699159 .4580078H.21798706V.5409088C.21798706 .572876 .21099854 .5888672 .16999817 .5888672H.13899231C.102996829 .5888672 .09098816 .5778656 .09098816 .5409088V.4580078H.067993167C.056991579 .4580078 .019989014 .4580078 .019989014 .42199708 .019989014 .3860016 .055999757 .3860016 .067993167 .3860016H.08799744V.13311768C.08799744 .03225708 .12399292-.0107421879 .19299317-.0107421879 .20199585-.0107421879 .24598694-.0107421879 .2979889 .0052490236 .31498719 .010253906 .37298585 .028244019 .37298585 .04725647Z"/>
<path id="font_4_45" d="M.21798706 .026992798V.10398865C.21798706 .12998963 .21699524 .1309967 .19099427 .1309967H.11399841C.08799744 .1309967 .08699036 .12998963 .08699036 .10398865V.026992798C.08699036 .0009918213 .08799744 0 .12098694 0 .114990238-.016067505 .10998535-.03213501 .10398865-.048202516 .09799194-.0632782 .08799744-.09339905 .08799744-.09339905 .08799744-.10644531 .09799194-.10644531 .11399841-.10644531H.12599182C.1459961-.10644531 .14698792-.10545349 .15699768-.08938599L.20899964-.0060272219C.21798706 .0079956059 .21798706 .009994507 .21798706 .026992798Z"/>
<path id="font_5_1" d="M.38198854 .3803711C.36299134 .41638185 .33198548 .4423828 .2869873 .4423828 .17098999 .4423828 .041992189 .30433656 .041992189 .1512909 .041992189 .041259767 .11199951-.0107421879 .1789856-.0107421879 .24398804-.0107421879 .29699708 .043258668 .31298829 .06227112 .32398988 .007247925 .37399293-.0107421879 .4059906-.0107421879 .43499757-.0107421879 .45999146 .002243042 .48199464 .044265748 .5 .07727051 .5139923 .13928223 .5139923 .14329529 .5139923 .14828491 .5109863 .1552887 .5009918 .1552887 .4889984 .1552887 .48799134 .15029907 .48399354 .13128662 .46199037 .044265748 .43998719 .014251709 .40899659 .014251709 .38398744 .014251709 .37799073 .038253786 .37799073 .060272218 .37799073 .07926941 .3829956 .09927368 .3919983 .1342926L.4169922 .23731995C.42399598 .2623291 .44198609 .33735658 .44599916 .35235597 .44999696 .36636354 .45599366 .3903656 .45599366 .39337159 .45599366 .40937806 .44299317 .42237855 .4249878 .42237855 .4119873 .42237855 .3869934 .41438294 .38198854 .3803711M.31698609 .122283939C.31199647 .103271488 .31199647 .10227966 .29599 .08326721 .2599945 .040252687 .21899414 .014251709 .18199158 .014251709 .1329956 .014251709 .115997318 .06526184 .115997318 .10827637 .115997318 .15730286 .14498902 .27233888 .16899109 .32034303 .20098877 .3803711 .24699402 .41737367 .2869873 .41737367 .35398866 .41737367 .36898805 .33735658 .36898805 .33035279 .36898805 .3253479 .36698915 .3193512 .3659973 .31533814L.31698609 .122283939Z"/>
<path id="font_6_1" d="M.70799258 .3310089C.7220001 .3310089 .7409973 .3310089 .7409973 .35202027 .7409973 .37402345 .71899417 .37402345 .70399478 .37402345H.09399414C.07899475 .37402345 .056991579 .37402345 .056991579 .35202027 .056991579 .3310089 .07699585 .3310089 .08999634 .3310089H.70799258M.70399478 .12695313C.71899417 .12695313 .7409973 .12695313 .7409973 .14894104 .7409973 .1699524 .7220001 .1699524 .70799258 .1699524H.08999634C.07699585 .1699524 .056991579 .1699524 .056991579 .14894104 .056991579 .12695313 .07899475 .12695313 .09399414 .12695313H.70399478Z"/>
<path id="font_5_2" d="M.4869995 .39335633C.4869995 .4093628 .47399903 .42237855 .45599366 .42237855 .43899537 .42237855 .41799928 .41036988 .41299439 .38233949 .3909912 .42037965 .35899354 .4423828 .31799317 .4423828 .19699097 .4423828 .07398987 .30026246 .07398987 .16012573 .07398987 .06602478 .1329956 0 .21299744 0 .2579956 0 .2979889 .024993897 .33099366 .055023195 .31799317 0 .3019867-.06703186 .2939911-.08503723 .2889862-.09605408 .25299073-.18008423 .1519928-.18008423 .13198853-.18008423 .099990848-.1790924 .07499695-.17208863 .09399414-.16407776 .11099243-.14207459 .11099243-.12106323 .11099243-.0990448 .09399414-.08503723 .07299805-.08503723 .049987794-.08503723 .017990113-.10305786 .017990113-.14407349 .017990113-.19308472 .07398987-.20507813 .1539917-.20507813 .2829895-.20507813 .35699464-.13105774 .37298585-.06703186L.4869995 .39335633M.34999085 .13009644C.34599305 .112075809 .34498597 .110076908 .32899476 .091049198 .27799989 .03300476 .23599243 .024993897 .21598816 .024993897 .16699219 .024993897 .14898682 .07304382 .14898682 .11808777 .14898682 .15711975 .17298889 .26922608 .20298767 .32728578 .22898865 .3743286 .272995 .41737367 .31900025 .41737367 .3829956 .41737367 .3999939 .34129334 .3999939 .33229066 .3999939 .33029176 .397995 .32228089 .39698792 .317276L.34999085 .13009644Z"/>
<path id="font_7_85" d="M.35299684-.25C.34999085-.2480011 .25299073-.16500855 .20698548-.009002686 .18299866 .069000247 .17098999 .15098572 .17098999 .25 .17098999 .59599307 .33299256 .7330017 .35299684 .75H.30499269C.28799439 .75 .28599549 .75 .27398683 .7389984 .147995 .6289978 .083999637 .45098878 .083999637 .25 .083999637 .06098938 .14099121-.1210022 .272995-.23701477 .28599549-.25 .28799439-.25 .30499269-.25H.35299684Z"/>
<path id="font_7_55" d="M.36799623 .621109V.6940918C.34199525 .7000885 .31098939 .70410159 .28399659 .70410159 .18099976 .70410159 .10598755 .6301117 .10598755 .5312195V.44433595H.0289917V.3813324H.10598755V0H.18998719V.3813324H.3039856V.44433595H.18699646V.55918887C.18699646 .6281128 .25 .63809207 .2829895 .63809207 .3039856 .63809207 .33099366 .6351013 .36799623 .621109Z"/>
<path id="font_7_28" d="M.43598939 .00022888184V.28799439C.43598939 .38998414 .35798646 .45898438 .25898744 .45898438 .19599915 .45898438 .147995 .4459839 .09199524 .41596986L.09799194 .34298707C.1309967 .36497499 .17999268 .39497376 .25898744 .39497376 .30299378 .39497376 .34899903 .36198426 .34899903 .2869873V.24699402C.20098877 .24198914 .054992677 .21099854 .054992677 .118118289 .054992677 .06820679 .08898926-.009765625 .1769867-.009765625 .21998596-.009765625 .29899598-.00077819827 .35198976 .038223268V.00022888184H.43598939M.34899903 .14207459C.34899903 .12211609 .34899903 .09616089 .31399537 .07519531 .28199769 .05722046 .24299622 .056228639 .23199463 .056228639 .1769867 .056228639 .1349945 .08117676 .1349945 .11911011 .1349945 .18299866 .3039856 .18899536 .34899903 .19099427V.14207459Z"/>
<path id="font_7_96" d="M.34700013 .38008119V.45410157C.2630005 .45309449 .20199585 .41207887 .1619873 .35906983V.45109559H.084991458V0H.16899109V.21304322C.16899109 .32106019 .25898744 .3790741 .34700013 .38008119Z"/>
<path id="font_7_81" d="M.5 .21910095C.5 .35101319 .394989 .45898438 .2649994 .45898438 .1349945 .45898438 .02999878 .3500061 .02999878 .21910095 .02999878 .09220886 .13598633-.009765625 .2649994-.009765625 .394989-.009765625 .5 .09220886 .5 .21910095M.41299439 .23010254C.41299439 .11618042 .34199525 .05921936 .2649994 .05921936 .18598938 .05921936 .116989139 .1171875 .116989139 .23010254 .116989139 .34301759 .19099427 .39297486 .2649994 .39297486 .33999635 .39297486 .41299439 .34101869 .41299439 .23010254Z"/>
<path id="font_7_75" d="M.7599945 0V.29606629C.7599945 .37408448 .7369995 .45410157 .6139984 .45410157 .5299988 .45410157 .47799684 .40509034 .45399476 .37309266 .44400025 .4001007 .4189911 .45410157 .31900025 .45410157 .2619934 .45410157 .20698548 .4310913 .16299439 .37808229V.45109559H.08299255V0H.16999817V.24305725C.16999817 .30906678 .19799805 .38809205 .2749939 .38809205 .37799073 .38809205 .37799073 .31806947 .37799073 .2890625V0H.46499635V.24305725C.46499635 .30906678 .49299623 .38809205 .56999209 .38809205 .6729889 .38809205 .6729889 .31806947 .6729889 .2890625V0H.7599945Z"/>
<path id="font_7_77" d="M.46499635 0V.29606629C.46499635 .37408448 .44198609 .45410157 .31900025 .45410157 .2619934 .45410157 .20698548 .4310913 .16299439 .37808229V.45109559H.08299255V0H.16999817V.24305725C.16999817 .30906678 .19799805 .38809205 .2749939 .38809205 .37799073 .38809205 .37799073 .31806947 .37799073 .2890625V0H.46499635Z"/>
<path id="font_7_118" d="M.47399903 .44433595H.3929901C.31199647 .2531891 .2559967 .12408447 .2519989 .06304932 .25 .09106445 .23199463 .14109802 .21398926 .18814087 .19799805 .22816468 .18199158 .26820375 .1639862 .30722047L.100997928 .44433595H.01499939L.22200012 0 .18399048-.08807373C.16299439-.13009644 .14898682-.144104 .12199402-.144104 .117996219-.144104 .08099365-.144104 .037994386-.12609864L.04399109-.19610596C.052993776-.19810486 .08999634-.20410156 .12098694-.20410156 .16099549-.20410156 .19699097-.18910218 .23899842-.093063358L.47399903 .44433595Z"/>
<path id="font_7_98" d="M.3829956 .1301117C.3829956 .14808655 .3809967 .18702698 .33898927 .22496033 .3019867 .25790406 .2659912 .26489259 .21798706 .27388 .15899658 .2848816 .11299133 .29388429 .11299133 .33789063 .11299133 .39497376 .18598938 .39497376 .20098877 .39497376 .2579956 .39497376 .3019867 .38294984 .35198976 .35691834L.36499024 .42797853C.29699708 .4559784 .24699402 .45898438 .21099854 .45898438 .18598938 .45898438 .034988405 .45898438 .034988405 .32588197 .034988405 .2788849 .06098938 .25291444 .07398987 .24093628 .10899353 .20599365 .15098572 .19799805 .20399475 .1880188 .25099183 .17903137 .30499269 .16905213 .30499269 .12112427 .30499269 .05822754 .22200012 .05822754 .20799256 .05822754 .14399719 .05822754 .083999637 .08119202 .04399109 .10914612L.02999878 .034225465C.06399536 .017227173 .125-.009765625 .20799256-.009765625 .25299073-.009765625 .29699708-.0027770997 .33399964 .024230957 .37098695 .052230836 .3829956 .09616089 .3829956 .1301117Z"/>
<path id="font_7_105" d="M.35398866 .026916504 .33699037 .090927127C.3039856 .06692505 .2689972 .058929445 .24099732 .058929445 .19898987 .058929445 .18798828 .09991455 .18798828 .14595032V.3813324H.33599855V.44433595H.18798828V.57128909H.11099243V.44433595H.019989014V.3813324H.10798645V.12792969C.10798645 .06123352 .125-.009765625 .19699097-.009765625 .2689972-.009765625 .32398988 .01322937 .35398866 .02722168V.026916504Z"/>
<path id="font_7_86" d="M.32798768 .25C.32798768 .43899537 .2709961 .62098696 .13899231 .7369995 .12599182 .75 .12399292 .75 .10699463 .75H.05899048C.06199646 .7480011 .15899658 .6649933 .20498657 .5089874 .22898865 .43099977 .24099732 .34899903 .24099732 .25 .24099732-.0960083 .07899475-.23300171 .05899048-.25H.10699463C.12399292-.25 .12599182-.25 .13798523-.23901367 .2639923-.12901306 .32798768 .04899597 .32798768 .25Z"/>
<path id="font_5_3" d="M.18899536 .15730286C.19999695 .20431519 .21899414 .2773285 .21998596 .28533937 .22200012 .29133607 .24699402 .33935548 .2829895 .37435914 .31199647 .4013672 .34999085 .41737367 .3889923 .41737367 .44299317 .41737367 .44299317 .36436463 .44299317 .34735108 .44299317 .33535768 .44299317 .3213501 .43099977 .27233888L.4079895 .18330384C.37599183 .054260255 .36799623 .023254395 .36799623 .018249512 .36799623 .0052490236 .3769989-.0107421879 .39898683-.0107421879 .41299439-.0107421879 .42799378-.0017547608 .43499757 .010253906 .43798829 .01625061 .44599916 .04826355 .45098878 .06826782L.47399903 .15730286C.4850006 .20431519 .5039978 .2773285 .5049896 .28533937 .5069885 .29133607 .5319977 .33935548 .56799319 .37435914 .5970001 .4013672 .6349945 .41737367 .673996 .41737367 .7279968 .41737367 .7279968 .36436463 .7279968 .34735108 .7279968 .28633119 .68099978 .16429138 .66999819 .13328552 .6579895 .10227966 .6539917 .0922699 .6539917 .073272708 .6539917 .019256592 .69499209-.0107421879 .73999026-.0107421879 .83599856-.0107421879 .875 .1322937 .875 .14329529 .875 .14828491 .871994 .1552887 .8619995 .1552887 .8509979 .1552887 .84999087 .15029907 .84599307 .13728333 .82099917 .052261354 .7789917 .014251709 .7429962 .014251709 .73599246 .014251709 .71798709 .014251709 .71798709 .04626465 .71798709 .0712738 .7279968 .09727478 .73599246 .119277957 .7559967 .17030335 .79599 .27633668 .79599 .33235169 .79599 .42137147 .7299957 .4423828 .6769867 .4423828 .58200076 .4423828 .5299988 .3713684 .5119934 .34635926 .5019989 .42938233 .43399049 .4423828 .3919983 .4423828 .29899598 .4423828 .25 .37635804 .23399353 .35536195 .22799683 .40937806 .18699646 .4423828 .13699341 .4423828 .09498596 .4423828 .07398987 .41137696 .05999756 .3843689 .042999269 .34934999 .0289917 .29234315 .0289917 .28833009 .0289917 .2793274 .035995485 .27633668 .042999269 .27633668 .053985597 .27633668 .055999757 .28134156 .06098938 .30134584 .07998657 .3803711 .100997928 .41737367 .1349945 .41737367 .16499329 .41737367 .16499329 .38536073 .16499329 .37036134 .16499329 .34934999 .15699768 .31834413 .15098572 .29234315 .14399719 .2663269 .13398743 .22331238 .12998963 .21131897L.08999634 .04725647C.08299255 .023254395 .08299255 .021255494 .08299255 .018249512 .08299255 .0052490236 .09199524-.0107421879 .11399841-.0107421879 .12799073-.0107421879 .14299011-.0017547608 .1499939 .010253906 .15299988 .01625061 .16099549 .04826355 .1659851 .06826782L.18899536 .15730286Z"/>
<path id="font_8_2" d="M.22698975 .61576846C.22698975 .6457672 .20199585 .67578127 .16699219 .67578127 .13598633 .67578127 .10699463 .6517792 .10699463 .61576846 .10699463 .57977297 .13598633 .5557709 .16699219 .5557709 .20199585 .5557709 .22698975 .58576968 .22698975 .61576846M.067993167 .43040467V.3914032C.13398743 .3914032 .14299011 .38438417 .14299011 .33532716V.08204651C.14299011 .038986207 .1329956 .038986207 .06399536 .038986207V0C.09298706 .0019989014 .17098999 .0039978029 .18099976 .0039978029 .19099427 .0039978029 .2669983 .0019989014 .29299928 0V.038986207C.23098755 .038986207 .22200012 .038986207 .22200012 .08103943V.44140626L.067993167 .43040467Z"/>
<path id="font_8_3" d="M.5469971 .3022766C.5469971 .40039063 .4909973 .44140626 .3899994 .44140626 .3019867 .44140626 .24699402 .39538575 .21798706 .34733583V.44140626L.06298828 .43040467V.39138795C.1329956 .39138795 .14199829 .3843689 .14199829 .3353119V.08204651C.14199829 .038986207 .13198853 .038986207 .06298828 .038986207V0C.069992069 .0009918213 .13798523 .0039978029 .18299866 .0039978029 .22799683 .0039978029 .2939911 .0009918213 .3039856 0V.038986207C.23498535 .038986207 .22499085 .038986207 .22499085 .08204651V.25823976C.22499085 .36836244 .31900025 .4093933 .3809967 .4093933 .44799806 .4093933 .46398927 .36735536 .46398927 .3052826V.08204651C.46398927 .038986207 .45399476 .038986207 .3849945 .038986207V0C.3919983 .0009918213 .45999146 .0039978029 .5049896 .0039978029 .5499878 .0039978029 .6159973 .0009918213 .6259918 0V.038986207C.5569916 .038986207 .5469971 .038986207 .5469971 .08204651V.3022766Z"/>
<path id="font_9_1" d="M.6859894 .42385865C.7029877 .42385865 .7220001 .42385865 .7220001 .44386292 .7220001 .4638672 .70399478 .4638672 .68699648 .4638672H.08999634C.07299805 .4638672 .054992677 .4638672 .054992677 .44386292 .054992677 .42385865 .07499695 .42385865 .09098816 .42385865H.6859894M.68699648 .036132814C.70399478 .036132814 .7220001 .036132814 .7220001 .056121828 .7220001 .0761261 .7029877 .0761261 .6859894 .0761261H.09098816C.07499695 .0761261 .054992677 .0761261 .054992677 .056121828 .054992677 .036132814 .07299805 .036132814 .08999634 .036132814H.68699648M.68699648 .23046875C.70399478 .23046875 .7220001 .23046875 .7220001 .25045777 .7220001 .27046205 .70399478 .27046205 .68699648 .27046205H.08999634C.07299805 .27046205 .054992677 .27046205 .054992677 .25045777 .054992677 .23046875 .07299805 .23046875 .08999634 .23046875H.68699648Z"/>
<path id="font_4_66" d="M.19400025 .04798889V.41000367C.19400025 .44200135 .18699646 .4580078 .1459961 .4580078H.10899353C.07299805 .4580078 .06098938 .44700624 .06098938 .41000367V.04798889C.06098938 .011993408 .07199097 0 .10899353 0H.1459961C.18399048 0 .19400025 .0129852299 .19400025 .04798889M.20098877 .6058502V.6248474C.20098877 .6568451 .19400025 .67285159 .15299988 .67285159H.101989749C.06399536 .67285159 .053985597 .6598511 .053985597 .6248474V.6058502C.053985597 .57684329 .05899048 .55784609 .101989749 .55784609H.15299988C.19499207 .55784609 .20098877 .5758362 .20098877 .6058502Z"/>
<path id="font_4_77" d="M.5 .047470094V.32447816C.5 .42774964 .45599366 .46875 .35398866 .46875 .24899292 .46875 .20399475 .39274598 .19099427 .36576844H.18998719V.41574098C.18998719 .44773866 .18299866 .46374513 .14199829 .46374513H.10798645C.07199097 .46374513 .05999756 .45274354 .05999756 .41574098V.047958375C.05999756 .011978149 .070999149 0 .10798645 0H.147995C.18598938 0 .19599915 .0129852299 .19599915 .047958375V.26882936C.19599915 .35577394 .2539978 .39674378 .30599977 .39674378 .35398866 .39674378 .3639984 .37376405 .3639984 .32278443V.047958375C.3639984 .015975953 .37098695 0 .4119873 0H.45199586C.48999024 0 .5 .0129852299 .5 .047958375V.047470094Z"/>
<path id="font_4_47" d="M.49899293 .04824829V.6462097C.49899293 .6782837 .49198915 .69433596 .45098878 .69433596H.4139862C.37599183 .69433596 .3659973 .6812897 .3659973 .6462097V.41874696C.32099916 .46174623 .2709961 .46875 .23999024 .46875 .036987306 .46875 .036987306 .2769165 .036987306 .22799683 .036987306 .18206787 .036987306-.0107421879 .23498535-.0107421879 .2769928-.0107421879 .31999208 .0012512207 .36299134 .04725647 .36299134 .010253906 .3769989 .00024414063 .41099549 .00024414063H.45098878C.4889984 .00024414063 .49899293 .013244629 .49899293 .04824829M.36299134 .12515259C.36299134 .108184818 .36299134 .09919739 .33399964 .07922363 .30899049 .06324768 .28599549 .06124878 .27398683 .06124878 .17298889 .06124878 .17298889 .15310669 .17298889 .22799683 .17298889 .30288697 .17298889 .39674378 .2849884 .39674378 .31399537 .39674378 .34098817 .38674928 .36299134 .3657837V.12515259Z"/>
<path id="font_4_98" d="M.3959961 .14111328C.3959961 .19700623 .3659973 .2319336 .34799195 .24790955 .30799867 .28382875 .272995 .28982545 .23098755 .2978058 .17599488 .30778504 .13598633 .31576539 .13598633 .35469056 .13598633 .39561463 .16899109 .40359498 .20799256 .40359498 .2749939 .40359498 .31098939 .37864686 .33699037 .35668946 .34700013 .3467102 .34899903 .3467102 .35299684 .3467102 .36299134 .3467102 .36499024 .35569764 .3659973 .35968019 .36799623 .36767579 .37799073 .42359925 .37799073 .42860414 .37799073 .44459535 .32499696 .4586029 .31399537 .4626007 .27398683 .4736023 .24198914 .47460938 .21598816 .47460938 .17098999 .47460938 .036987306 .47460938 .036987306 .33174134 .036987306 .2828369 .05899048 .25289918 .085998538 .22894287 .12098694 .19700623 .1599884 .1900177 .21699524 .17903137 .24598694 .17404175 .29699708 .16506958 .29699708 .12113953 .29699708 .07423401 .2579956 .06724548 .21899414 .06724548 .1749878 .06724548 .11898804 .08023071 .07199097 .13612366 .066986087 .14111328 .06399536 .144104 .057998659 .144104 .04798889 .144104 .04598999 .13511658 .04499817 .12913513 .042999269 .11515808 .0309906 .058242799 .0309906 .04824829 .0309906 .03024292 .10598755 .0062561037 .10598755 .0062561037 .16099549-.0107421879 .20199585-.0107421879 .21899414-.0107421879 .269989-.0107421879 .3959961-.0067443849 .3959961 .14111328Z"/>
<path id="font_4_59" d="M.5339966 .40473939C.5339966 .40873719 .5289917 .43273927 .5269928 .44274903 .522995 .46673585 .522995 .46875 .5049896 .46875 .47399903 .46875 .42399598 .45674134 .38598634 .43374635 .33898927 .46473695 .2869873 .46875 .24398804 .46875 .20199585 .46875 .042999269 .46875 .042999269 .30386354 .042999269 .26391603 .053985597 .21398926 .09199524 .18103028 .06498718 .14405823 .06498718 .10505676 .06498718 .10005188 .06498718 .08106995 .070999149 .048080446 .09199524 .021102906 .07699585 .015106201 .024993897-.0028839112 .024993897-.066833499 .024993897-.0978241 .039993287-.14979553 .102996829-.17880249 .1599884-.20480347 .22698975-.20579529 .27398683-.20579529 .33299256-.20579529 .5239868-.20579529 .5239868-.06384277 .5239868 .092056278 .3829956 .092056278 .24798584 .092056278H.19999695C.1639862 .092056278 .1499939 .092056278 .13598633 .10404968 .13198853 .108047489 .114990238 .123062137 .114990238 .14904785 .114990238 .15605164 .115997318 .15805054 .116989139 .1640625 .1639862 .13795471 .22299195 .13795471 .24398804 .13795471 .28599549 .13795471 .44499208 .13795471 .44499208 .3028412 .44499208 .3607788 .4229889 .3957367 .4139862 .40673829 .43099977 .40673829 .46598817 .40673829 .5069885 .3957367 .5109863 .3937378 .5179901 .39175416 .5209961 .39175416 .5289917 .39175416 .5339966 .3977356 .5339966 .40473939M.31698609 .30384828C.31698609 .24891663 .31399537 .20996094 .24398804 .20996094 .17399597 .20996094 .17098999 .24790955 .17098999 .3028412 .17098999 .3577881 .17399597 .39674378 .24398804 .39674378 .31399537 .39674378 .31698609 .3587799 .31698609 .30384828M.42099-.06669617C.42099-.13378906 .30699159-.13378906 .2749939-.13378906 .23498535-.13378906 .12799073-.13378906 .12799073-.063690189 .12799073-.016601563 .15899658-.016601563 .18199158-.016601563H.2979889C.3789978-.01701355 .42099-.03100586 .42099-.06700134V-.06669617Z"/>
<path id="font_4_109" d="M.5 .04824829V.41003419C.5 .4420166 .49299623 .4580078 .45199586 .4580078H.4119873C.37399293 .4580078 .3639984 .44500733 .3639984 .41003419V.173172C.3639984 .10720825 .32899476 .050247194 .2579956 .050247194 .20199585 .050247194 .19599915 .0642395 .19599915 .11720276V.41003419C.19599915 .4420166 .18899536 .4580078 .147995 .4580078H.10798645C.07199097 .4580078 .05999756 .44700624 .05999756 .41003419V.12620545C.05999756 .019256592 .117996219-.0107421879 .22200012-.0107421879 .24899292-.0107421879 .31999208-.0107421879 .36698915 .07423401V.04824829C.36698915 .01625061 .37399293 .00024414063 .4149933 .00024414063H.45199586C.48999024 .00024414063 .5 .013244629 .5 .04824829Z"/>
<path id="font_4_63" d="M.5 .047470094V.32447816C.5 .42774964 .45599366 .46875 .35398866 .46875 .2539978 .46875 .20799256 .39974977 .19400025 .37176515H.19299317V.6462097C.19299317 .6782837 .18598938 .69433596 .14498902 .69433596H.10798645C.07199097 .69433596 .05999756 .68330386 .05999756 .6462097V.047958375C.05999756 .011978149 .070999149 0 .10798645 0H.147995C.18598938 0 .19599915 .0129852299 .19599915 .047958375V.26882936C.19599915 .35577394 .2539978 .39674378 .30599977 .39674378 .35398866 .39674378 .3639984 .37376405 .3639984 .32278443V.047958375C.3639984 .015975953 .37098695 0 .4119873 0H.45199586C.48999024 0 .5 .0129852299 .5 .047958375V.047470094Z"/>
<path id="font_4_28" d="M.47399903 .04824829V.31578065C.47399903 .4736023 .32199098 .47460938 .27198792 .47460938 .22499085 .47460938 .1749878 .4705963 .10798645 .44259645 .08699036 .433609 .08198547 .43060304 .08198547 .41960145 .08198547 .41259767 .08799744 .3547058 .08898926 .34672547 .08999634 .34072877 .09498596 .33573915 .101989749 .33573915 .10699463 .33573915 .10998535 .33872987 .11299133 .34172059 .1559906 .38664247 .20599365 .40859986 .2679901 .40859986 .32199098 .40859986 .33799745 .3756714 .33799745 .31677247V.2818451C.30299378 .2818451 .040985109 .2798462 .040985109 .13311768 .040985109 .06324768 .09700012-.0107421879 .18499756-.0107421879 .21899414-.0107421879 .2939911-.00074768069 .34098817 .068237308V.04824829C.34098817 .01625061 .34799195 .00024414063 .3889923 .00024414063H.42599488C.46398927 .00024414063 .47399903 .013244629 .47399903 .04824829M.33799745 .15408325C.33799745 .06124878 .24299622 .06124878 .23999024 .06124878 .19799805 .06124878 .17098999 .09718323 .17098999 .13511658 .17098999 .23292542 .30999757 .23991394 .33799745 .24092102V.15408325Z"/>
<path id="font_4_35" d="M.522995 .23098755C.522995 .2789154 .522995 .46875 .33499146 .46875 .25299073 .46875 .20298767 .42274476 .19400025 .412735V.6462097C.19400025 .6782837 .18699646 .69433596 .1459961 .69433596H.10899353C.07299805 .69433596 .06098938 .68330386 .06098938 .6462097V.04824829C.06098938 .012252808 .07199097 .00024414063 .10899353 .00024414063H.14898682C.1659851 .00024414063 .19599915 .00024414063 .19699097 .039245607 .24299622-.0107421879 .2939911-.0107421879 .30999757-.0107421879 .522995-.0107421879 .522995 .18106079 .522995 .23098755M.3869934 .22999573C.3869934 .15611267 .3869934 .06124878 .2749939 .06124878 .23298645 .06124878 .20799256 .08621216 .19699097 .10018921V.3617859C.20999146 .3737793 .23999024 .39674378 .28599549 .39674378 .3869934 .39674378 .3869934 .30488587 .3869934 .22999573Z"/>
<path id="font_4_72" d="M.19400025 .04801941V.64630129C.19400025 .6783142 .18699646 .69433596 .1459961 .69433596H.10899353C.07299805 .69433596 .06098938 .6833191 .06098938 .64630129V.04801941C.06098938 .011993408 .07199097 0 .10899353 0H.1459961C.18399048 0 .19400025 .013000488 .19400025 .04801941Z"/>
<path id="font_10_72" d="M.1619873 0V.69433596H.08198547V0H.1619873Z"/>
<path id="font_10_81" d="M.48298646 .22009278C.48298646 .3509674 .3829956 .4609375 .2559967 .4609375 .13198853 .4609375 .02999878 .3529663 .02999878 .22009278 .02999878 .08822632 .1349945-.0107421879 .2559967-.0107421879 .37998963-.0107421879 .48298646 .09022522 .48298646 .22009278M.3999939 .23008728C.3999939 .11419678 .32998658 .057250978 .25698854 .057250978 .17999268 .057250978 .11299133 .1171875 .11299133 .23008728 .11299133 .3469696 .18798828 .39593507 .2559967 .39593507 .32798768 .39593507 .3999939 .3449707 .3999939 .23008728Z"/>
<path id="font_10_43" d="M.4269867 .037246705 .42099 .10820007C.37298585 .07522583 .31999208 .057250978 .2599945 .057250978 .1749878 .057250978 .11898804 .12818909 .11898804 .22309876 .11898804 .3000183 .15699768 .39292909 .2639923 .39292909 .32699586 .39292909 .35899354 .38093568 .40899659 .3469696L.42199708 .41693116C.3659973 .44892884 .33499146 .4609375 .2630005 .4609375 .12098694 .4609375 .035995485 .3409729 .035995485 .22209168 .035995485 .09820557 .1289978-.0107421879 .25898744-.0107421879 .32899476-.0107421879 .38198854 .010253906 .4269867 .037246705Z"/>
<path id="font_10_28" d="M.42199708 .00024414063V.28903199C.42199708 .38793946 .34899903 .4609375 .25 .4609375 .18499756 .4609375 .13699341 .44392396 .08898926 .41693116L.09498596 .34597779C.14498902 .38294984 .19400025 .39793397 .24899292 .39793397 .30499269 .39793397 .33898927 .3529663 .33898927 .2880249V.24606323C.16699219 .24206543 .053985597 .19706726 .053985597 .11616516 .053985597 .069229129 .084991458-.0107421879 .17199707-.0107421879 .19198609-.0107421879 .2789917-.008743286 .34199525 .038253786V.00024414063H.42199708M.33898927 .14013672C.33898927 .119155887 .33898927 .094192508 .30299378 .07322693 .27799989 .058242799 .24499512 .054244996 .22499085 .054244996 .17399597 .054244996 .1309967 .07821655 .1309967 .11816406 .1309967 .18907166 .32598878 .19206238 .33898927 .19206238V.14013672Z"/>
<path id="font_10_118" d="M.45899964 .44433595H.37998963C.3039856 .26220704 .24899292 .12910462 .24398804 .059051515 .24099732 .10508728 .19898987 .2081604 .18699646 .23718262 .1459961 .33924867 .1289978 .37327577 .09799194 .44433595H.01399231L.21398926 .000015258789 .1769867-.08905029C.15098572-.14508057 .13198853-.14508057 .117996219-.14508057 .101989749-.14508057 .066986087-.14108277 .036987306-.12806702L.042999269-.19708252C.04598999-.1980896 .08299255-.20507813 .116989139-.20507813 .14399719-.20507813 .18699646-.20507813 .23699951-.08604431L.45899964 .44433595Z"/>
<path id="font_8_1" d="M.1579895 .17570496C.18199158 .16169739 .22200012 .14570618 .27198792 .14570618 .3829956 .14570618 .45999146 .21681214 .45999146 .29304505 .45999146 .3492279 .4189911 .38633729 .4169922 .38833619 .46199037 .418396 .5049896 .4203949 .519989 .4203949 .5169983 .4163971 .5130005 .4123993 .5130005 .39837647 .5130005 .38031007 .526001 .3652649 .54599 .3652649 .56799319 .3652649 .5799866 .38131715 .5799866 .3993683 .5799866 .42140199 .5609894 .45239259 .5169983 .45239259 .47499085 .45239259 .42900086 .4353943 .3939972 .40638734 .36099244 .42939759 .31599427 .44140626 .272995 .44140626 .16499329 .44140626 .084991458 .37228395 .084991458 .29304505 .084991458 .2619629 .09799194 .22584534 .13398743 .19274903 .11199951 .16470337 .10499573 .13673401 .10499573 .11282349 .10499573 .05796814 .13999939 .02796936 .1459961 .022964478 .10699463 .011962891 .04598999-.02003479 .04598999-.076049808 .04598999-.15307617 .16699219-.20507813 .30499269-.20507813 .43299867-.20507813 .56399539-.15908814 .56399539-.0740509 .56399539-.049041749 .55599978 .014968872 .47599793 .047973634 .4189911 .07197571 .3619995 .07197571 .2679901 .07197571 .24398804 .07197571 .20498657 .07197571 .19699097 .07395935 .17098999 .077941898 .1459961 .1028595 .1459961 .13772583 .1459961 .15870667 .1559906 .17269898 .1579895 .17570496M.272995 .17871094C.18998719 .17871094 .16899109 .23988343 .16899109 .29304505 .16899109 .31210328 .16899109 .4084015 .27198792 .4084015 .36099244 .4084015 .37599183 .33818055 .37599183 .29405213 .37599183 .2749939 .37599183 .17871094 .272995 .17871094M.32899476 .0009765625C.3600006 .0009765625 .49899293-.0010375977 .49899293-.076049808 .49899293-.1250763 .4169922-.17208863 .30499269-.17208863 .19699097-.17208863 .11099243-.1270752 .11099243-.07505798 .11099243-.050048829 .13398743 .0009765625 .21798706 .0009765625H.32899476Z"/>
<path id="font_8_4" d="M.21598816 .22425843C.21598816 .3173828 .2639923 .4073944 .35299684 .4093933 .34399415 .40040589 .33999635 .38839723 .33999635 .37539674 .33999635 .34840394 .3600006 .32839967 .3869934 .32839967 .4139862 .32839967 .43399049 .34840394 .43399049 .37539674 .43399049 .41540528 .3959961 .44140626 .35198976 .44140626 .2919922 .44140626 .24099732 .4053955 .20999146 .33839417H.20899964V.44140626L.057998659 .43040467V.3914032C.12799073 .3914032 .13699341 .3843994 .13699341 .33540345V.08204651C.13699341 .038986207 .1269989 .038986207 .057998659 .038986207V0C.08299255 .0019989014 .15699768 .0039978029 .1789856 .0039978029 .23098755 .0039978029 .2999878 .0009918213 .31399537 0V.038986207H.2919922C.21699524 .038986207 .21598816 .04901123 .21598816 .08305359V.22425843Z"/>
<path id="font_4_49" d="M.59498599 .04798889V.06199646C.59498599 .11000061 .57199099 .11000061 .5389862 .11000061L.38398744 .10798645 .23799134 .10598755V.31126405H.5009918C.5319977 .31126405 .548996 .31826783 .548996 .3582611 .548996 .39526368 .5359955 .40527345 .5009918 .40527345H.23799134V.59039309H.2869873L.5219879 .58740237C.5569916 .58740237 .5799866 .58740237 .5799866 .63539126V.6434021C.5799866 .6753998 .57299807 .69140627 .5319977 .69140627H.13899231C.102996829 .69140627 .09098816 .68040469 .09098816 .6434021V.04798889C.09098816 .011993408 .101989749 0 .13899231 0H.5469971C.58499148 0 .59498599 .0129852299 .59498599 .04798889Z"/>
<path id="font_4_96" d="M.35598756 .39486695V.441864C.35598756 .46185304 .35598756 .4688568 .33799745 .4688568 .30999757 .4688568 .23699951 .4588623 .18998719 .3508606H.18899536V.41586305C.18899536 .44786073 .18199158 .4638672 .14099121 .4638672H.10899353C.07299805 .4638672 .06098938 .4528656 .06098938 .41586305V.047973634C.06098938 .011993408 .07199097 0 .10899353 0H.1459961C.18399048 0 .19400025 .0129852299 .19400025 .047973634V.22990418C.19400025 .32487489 .272995 .36386109 .33599855 .3678589 .35398866 .36886598 .35598756 .36886598 .35598756 .39486695Z"/>
<path id="font_7_66" d="M.16799927 0V.44433595H.083999637V0H.16799927M.1769867 .5601196V.6611328H.07598877V.5601196H.1769867Z"/>
<path id="font_7_43" d="M.44099427 .036224367 .43499757 .109191898C.3849945 .07720947 .33099366 .05921936 .2689972 .05921936 .1769867 .05921936 .12298584 .13316345 .12298584 .22309876 .12298584 .30004884 .16299439 .38998414 .27198792 .38998414 .33999635 .38998414 .37199403 .37599183 .4229889 .3440094L.43598939 .41596986C.37599183 .4459839 .34999085 .45898438 .27198792 .45898438 .12199402 .45898438 .035995485 .3380127 .035995485 .22210694 .035995485 .10018921 .13198853-.009765625 .2679901-.009765625 .33799745-.009765625 .397995 .011230469 .44099427 .036224367Z"/>
<path id="font_7_63" d="M.46499635 0V.29606629C.46499635 .37408448 .44198609 .45410157 .31900025 .45410157 .23298645 .45410157 .18699646 .4040985 .16699219 .38308717V.69433596H.08299255V0H.16999817V.24305725C.16999817 .30906678 .19799805 .38809205 .2749939 .38809205 .37799073 .38809205 .37799073 .31806947 .37799073 .2890625V0H.46499635Z"/>
<path id="font_7_50" d="M.43998719 .21928406C.43998719 .2652893 .43499757 .33213807 .3959961 .3889923 .3600006 .43997193 .2999878 .45898438 .25099183 .45898438 .1289978 .45898438 .034988405 .35209657 .034988405 .22529602 .034988405 .09724426 .1349945-.009765625 .2669983-.009765625 .32499696-.009765625 .3849945 .007232666 .43598939 .038223268L.42999269 .10925293C.37399293 .069229129 .31098939 .056228639 .2679901 .056228639 .18099976 .056228639 .114990238 .1272583 .11199951 .21928406H.43998719M.3789978 .27929688H.11898804C.14199829 .35906983 .20098877 .39297486 .25099183 .39297486 .29499818 .39297486 .3600006 .3720398 .3789978 .27929688Z"/>
<path id="font_7_59" d="M.5149994 .38609315 .5029907 .45410157C.48098756 .45410157 .4139862 .45309449 .33799745 .42408753L.33599855 .4230957C.2999878 .44709779 .2649994 .45410157 .23599243 .45410157 .13798523 .45410157 .06498718 .37709046 .06498718 .29109193 .06498718 .25608827 .07699585 .22009278 .099990848 .1920929 .085998538 .1750946 .070999149 .14709473 .070999149 .10910034 .070999149 .07009888 .08699036 .04508972 .09599304 .033096315 .040985109 .0011291504 .02999878-.044921876 .02999878-.06896973 .02999878-.14508057 .1349945-.20507813 .2649994-.20507813 .3959961-.20507813 .5-.14508057 .5-.06896973 .5 .072128299 .32499696 .072128299 .28199769 .072128299H.18899536C.17298889 .072128299 .12998963 .072128299 .12998963 .1239624 .12998963 .14395142 .13699341 .15394593 .13798523 .15594483 .17298889 .13394165 .20799256 .12695313 .23498535 .12695313 .33299256 .12695313 .4059906 .20394898 .4059906 .2899475 .4059906 .3219452 .39698792 .35095216 .3789978 .37794496 .375 .38394166 .375 .38594056 .375 .38594056 .375 .3899536 .43499757 .3899536 .43998719 .3899536 .43998719 .3899536 .47898866 .3899536 .5149994 .38594056V.38609315M.32899476 .29093934C.32899476 .21295166 .2789917 .18894959 .23599243 .18894959 .18199158 .18902588 .14199829 .22303772 .14199829 .29005433 .14199829 .36808778 .19198609 .39208985 .23498535 .39208985 .2889862 .39208985 .32899476 .358078 .32899476 .2910614V.29093934M.42399598-.07006836C.42399598-.113082889 .34899903-.14308167 .2649994-.14308167 .18099976-.14286804 .10598755-.11286926 .10598755-.069869998 .10598755-.06486511 .10598755-.005859375 .18699646-.005859375H.2829895C.30599977-.005859375 .42399598-.005859375 .42399598-.069869998V-.07006836Z"/>
<path id="font_7_109" d="M.46499635 .00022888184V.44433595H.37799073V.1542511C.37799073 .07423401 .30999757 .049224855 .2519989 .049224855 .17799378 .049224855 .16999817 .069229129 .16999817 .115249637V.44433595H.08299255V.10923767C.08299255 .020233155 .12199402-.009765625 .19198609-.009765625 .23298645-.009765625 .32099916-.0017700195 .3809967 .04623413V.00022888184H.46499635Z"/>
<path id="font_7_47" d="M.46299745 .00022888184V.69433596H.3789978V.40109254C.31498719 .4480896 .25 .45410157 .22099304 .45410157 .115997318 .45410157 .035995485 .34910584 .035995485 .22216797 .035995485 .095214847 .114990238-.009765625 .21798706-.009765625 .27999879-.009765625 .33799745 .018234253 .37599183 .052230836V.00022888184H.46299745M.37599183 .12420654C.35099793 .083221439 .31298829 .056228639 .2649994 .056228639 .19499207 .056228639 .12298584 .10520935 .12298584 .22116089 .12298584 .3461151 .20799256 .38809205 .27598573 .38809205 .31599427 .38809205 .34999085 .37109376 .37599183 .33711244V.12420654Z"/>
<path id="font_4_91" d="M.49899293-.14575196V.42074586C.49899293 .45274354 .49198915 .46875 .45098878 .46875H.4139862C.37599183 .46875 .3659973 .4557495 .3659973 .42074586V.40174867C.32199098 .46875 .2630005 .46875 .24598694 .46875 .052993776 .46875 .036987306 .3078766 .036987306 .22799683 .036987306 .15011597 .052993776-.0107421879 .23899842-.0107421879 .2919922-.0107421879 .32899476 .009246826 .36299134 .04824829V-.14575196C.36299134-.17736817 .36999513-.19335938 .41099549-.19335938H.45098878C.4889984-.1940155 .49899293-.18101502 .49899293-.14601135V-.14575196M.3659973 .114990238C.34799195 .09020996 .32099916 .06124878 .2749939 .06124878 .17298889 .06124878 .17298889 .18804932 .17298889 .22698975 .17298889 .26693727 .17298889 .39074708 .2849884 .39074708 .30099488 .39074708 .32199098 .38674928 .33999635 .3677826 .3659973 .34262086 .3659973 .32461549 .3659973 .31262208V.114990238Z"/>
<path id="font_4_112" d="M.47299195 .42999269C.47299195 .4580078 .44799806 .4580078 .43299867 .4580078H.4119873C.36999513 .4580078 .35899354 .44299317 .34999085 .4149933L.25099183 .11299133 .1519928 .4149933C.14498902 .43600465 .13798523 .4580078 .08999634 .4580078H.06599426C.050994874 .4580078 .025985718 .4580078 .025985718 .42999269 .025985718 .42700196 .025985718 .42500306 .0309906 .41099549L.1499939 .041992189C.1639862 0 .19499207 0 .21299744 0H.28599549C.3039856 0 .33499146 0 .34899903 .041992189L.46798707 .41099549C.47299195 .42500306 .47299195 .42700196 .47299195 .42999269Z"/>
<path id="font_4_84" d="M.522995 .23098755C.522995 .27990724 .522995 .46875 .34199525 .46875 .2829895 .46875 .22999573 .44474793 .19400025 .41073609 .19400025 .44773866 .17999268 .4577484 .1459961 .4577484H.10899353C.07299805 .4577484 .06098938 .44674684 .06098938 .40974427V-.14546204C.06098938-.18139649 .07199097-.19335938 .10899353-.19335938H.14898682C.18699646-.19335938 .19699097-.1803894 .19699097-.14546204V.039245607C.24198914-.0107421879 .29699708-.0107421879 .31098939-.0107421879 .522995-.0107421879 .522995 .18106079 .522995 .23098755M.3869934 .22898865C.3869934 .1890564 .3869934 .06124878 .27398683 .06124878 .25099183 .06124878 .23298645 .069244388 .22099304 .07823181 .19699097 .095199588 .19699097 .10018921 .19699097 .11816406V.3577881C.20799256 .3677826 .24099732 .39074708 .28399659 .39074708 .38598634 .39074708 .3869934 .2729187 .3869934 .22898865Z"/>
<path id="font_4_44" d="M.21798706 .3540039V.43099977C.21798706 .45700074 .21699524 .4580078 .19099427 .4580078H.11399841C.08799744 .4580078 .08699036 .45700074 .08699036 .43099977V.3540039C.08699036 .32800294 .08799744 .32699586 .11399841 .32699586H.19099427C.21699524 .32699586 .21798706 .32800294 .21798706 .3540039M.21798706 .026992798V.10398865C.21798706 .12998963 .21699524 .1309967 .19099427 .1309967H.11399841C.08799744 .1309967 .08699036 .12998963 .08699036 .10398865V.026992798C.08699036 .0009918213 .08799744 0 .11399841 0H.19099427C.21699524 0 .21798706 .0009918213 .21798706 .026992798Z"/>
<path id="font_10_109" d="M.44898988 .00024414063V.44433595H.3659973V.15527344C.3659973 .07525635 .30299378 .04824829 .24299622 .04824829 .17098999 .04824829 .1639862 .071258548 .1639862 .11425781V.44433595H.08099365V.10926819C.08099365 .024246216 .114990238-.0107421879 .18598938-.0107421879 .24398804-.0107421879 .32199098 .0062561037 .36898805 .04824829V.00024414063H.44898988Z"/>
<path id="font_10_77" d="M.44898988 0V.2970581C.44898988 .37106324 .42900086 .45507813 .30799867 .45507813 .22898865 .45507813 .18099976 .40907289 .1579895 .3790741V.45007325H.08099365V0H.1639862V.24403382C.1639862 .3100586 .18998719 .39007569 .2659912 .39007569 .3659973 .39007569 .3659973 .31906129 .3659973 .29005433V0H.44898988Z"/>
<path id="font_10_66" d="M.1619873 0V.44433595H.08198547V0H.1619873M.17098999 .5631714V.6591797H.07499695V.5631714H.17098999Z"/>
<path id="font_10_55" d="M.35598756 .62309268V.69407656C.34399415 .69706729 .31199647 .7050781 .27398683 .7050781 .1769867 .7050781 .102996829 .6320801 .102996829 .5322113V.44433595H.027999878V.38232423H.102996829V0H.18299866V.38232423H.2939911V.44433595H.17999268V.56018069C.17999268 .6320801 .24499512 .6400757 .272995 .6400757 .28199769 .6400757 .31498719 .6400757 .35598756 .62309268Z"/>
<path id="font_10_96" d="M.33599855 .38305665V.45507813C.2639923 .45407105 .19799805 .4180603 .15699768 .35905458V.45007325H.08299255V0H.16299439V.21302796C.16299439 .31803895 .24499512 .38204957 .33599855 .38305665Z"/>
<path id="font_10_75" d="M.73399356 0V.2970581C.73399356 .37106324 .71398928 .45507813 .59298709 .45507813 .5089874 .45507813 .46199037 .404068 .43798829 .37306214 .43099977 .3930664 .4099884 .45507813 .30799867 .45507813 .22898865 .45507813 .18099976 .40907289 .1579895 .3790741V.45007325H.08099365V0H.1639862V.24403382C.1639862 .3100586 .18998719 .39007569 .2659912 .39007569 .3659973 .39007569 .3659973 .31906129 .3659973 .29005433V0H.44898988V.24403382C.44898988 .3100586 .47499085 .39007569 .5509949 .39007569 .651001 .39007569 .651001 .31906129 .651001 .29005433V0H.73399356Z"/>
<path id="font_10_50" d="M.4269867 .21931458C.4269867 .25030519 .42599488 .32615663 .3869934 .3859558 .34498597 .44892884 .2809906 .4609375 .24299622 .4609375 .1269989 .4609375 .034988405 .35406495 .034988405 .22631836 .034988405 .0942688 .1329956-.0107421879 .2579956-.0107421879 .30599977-.0107421879 .3639984 .0012512207 .42199708 .038253786L.41600038 .10726929C.35299684 .06225586 .2939911 .054244996 .25898744 .054244996 .17599488 .054244996 .11199951 .12727356 .10899353 .21931458H.4269867M.36698915 .2783203H.114990238C.1309967 .34210206 .17999268 .39593507 .24299622 .39593507 .27999879 .39593507 .34799195 .37898255 .36698915 .2783203Z"/>
<path id="font_10_105" d="M.34199525 .026245118 .32499696 .089263919C.29899598 .06925964 .2639923 .057250978 .23298645 .057250978 .19400025 .057250978 .18099976 .09225464 .18099976 .14427185V.38232423H.32499696V.44433595H.18099976V.57128909H.10699463V.44433595H.018997193V.38232423H.10398865V.12626648C.10398865 .06724548 .116989139-.0107421879 .18998719-.0107421879 .23399353-.0107421879 .28599549-.0017547608 .34199525 .026245118Z"/>
<path id="font_10_47" d="M.44699098 .00024414063V.69433596H.36698915V.4000702C.31098939 .44706727 .24699402 .45507813 .21499634 .45507813 .11399841 .45507813 .035995485 .35009767 .035995485 .22216797 .035995485 .0932312 .11299133-.0107421879 .21099854-.0107421879 .24099732-.0107421879 .3039856-.003753662 .3639984 .052246095V.00024414063H.44699098M.3639984 .14120484C.3639984 .12220764 .3639984 .12020874 .35299684 .10621643 .32598878 .070236209 .2919922 .054244996 .2559967 .054244996 .19099427 .054244996 .11898804 .10122681 .11898804 .22116089 .11898804 .34909059 .20399475 .39007569 .2669983 .39007569 .31298829 .39007569 .34498597 .36408998 .3639984 .33810426V.14120484Z"/>
<path id="font_10_98" d="M.36999513 .12911988C.36999513 .1640625 .35598756 .19898987 .32099916 .22894287 .2869873 .2578888 .25698854 .2638855 .19499207 .27586366 .15899658 .28285218 .10899353 .29185487 .10899353 .3388672 .10899353 .39793397 .17999268 .39793397 .19499207 .39793397 .2679901 .39793397 .31098939 .37490846 .33999635 .35888673L.35299684 .42892457C.29100038 .45692445 .24499512 .4609375 .20399475 .4609375 .18099976 .4609375 .033996583 .4609375 .033996583 .32885743 .033996583 .28085328 .06298828 .25090028 .07398987 .2399292 .11199951 .20698548 .13798523 .20199585 .20599365 .18901062 .23799134 .18302918 .29499818 .17204285 .29499818 .12113953 .29499818 .056243898 .21398926 .056243898 .20098877 .056243898 .14199829 .056243898 .084991458 .07621765 .041992189 .106155399L.0289917 .0332489C.08898926 .0012512207 .1499939-.0107421879 .20098877-.0107421879 .2659912-.0107421879 .36999513 .010253906 .36999513 .12911988Z"/>
<path id="font_10_59" d="M.49899293 .38806153 .4869995 .45507813C.46798707 .45507813 .40098573 .45507813 .32699586 .4230652 .31199647 .43406678 .2749939 .45507813 .22799683 .45507813 .13598633 .45507813 .06298828 .38006593 .06298828 .2919922 .06298828 .26698304 .068984989 .22994995 .09700012 .19091797 .07798767 .16592407 .067993167 .1359253 .067993167 .107925418 .067993167 .07992554 .07798767 .05192566 .09298706 .032928468 .040985109-.000061035159 .0289917-.043060304 .0289917-.07106018 .0289917-.14405823 .1269989-.20605469 .2559967-.20605469 .3849945-.20552063 .48399354-.14451599 .48399354-.06951904 .48399354 .069107059 .31799317 .07110596 .27398683 .07110596H.18199158C.16899109 .07110596 .12399292 .07110596 .12399292 .12294006 .12399292 .14292908 .12799073 .14892578 .1329956 .15692139 .1599884 .13891602 .19400025 .12792969 .22799683 .12792969 .31999208 .12792969 .3929901 .20292664 .3929901 .29092408 .3929901 .32492066 .3829956 .35292054 .36698915 .3799286 .36299134 .3849182 .36299134 .3869171 .36299134 .3869171 .36299134 .39207459 .4119873 .39207459 .4249878 .39207459 .43299867 .39207459 .46998597 .39207459 .49899293 .38806153M.31900025 .2919922C.31900025 .2109375 .2679901 .18792725 .22799683 .18792725 .18199158 .18792725 .13699341 .21694947 .13699341 .29100038 .13699341 .3720703 .18798828 .3950653 .22799683 .3950653 .27398683 .3950653 .31900025 .3660736 .31900025 .29208375V.2919922M.4099884-.070510867C.4099884-.11451721 .33699037-.14550781 .25698854-.14550781 .1789856-.14550781 .102996829-.11651611 .102996829-.06951904 .102996829-.06951904 .102996829-.0048828127 .17999268-.0048828127H.27398683C.29499818-.0048828127 .4099884-.0048828127 .4099884-.070510867Z"/>
<path id="font_10_63" d="M.44898988 0V.2970581C.44898988 .37106324 .42900086 .45507813 .30799867 .45507813 .25099183 .45507813 .19699097 .42807008 .16099549 .3830719V.69433596H.08099365V0H.1639862V.24403382C.1639862 .3100586 .18998719 .39007569 .2659912 .39007569 .3659973 .39007569 .3659973 .31906129 .3659973 .29005433V0H.44898988Z"/>
<path id="font_10_35" d="M.49398805 .22306824C.49398805 .34407044 .42799378 .45507813 .32998658 .45507813 .30299378 .45507813 .23098755 .45007325 .16299439 .3970642V.69433596H.08299255V.000076293948L.1659851 .00024414063V.04725647C.1789856 .0332489 .22999573-.0107421879 .3039856-.0107421879 .4079895-.0107421879 .49398805 .09022522 .49398805 .22315979V.22306824M.41099549 .22315979C.41099549 .09422302 .32499696 .054244996 .2639923 .054244996 .19999695 .054244996 .17098999 .10722351 .1659851 .11621094V.33410646C.18099976 .35508729 .21699524 .39007569 .27398683 .39007569 .33399964 .39007569 .41099549 .34809876 .41099549 .22315979Z"/>
<path id="font_10_112" d="M.45899964 .44433595H.37998963C.33699037 .33424378 .33599855 .33325196 .30099488 .24118042 .2809906 .18913269 .24398804 .092056278 .23899842 .055038454H.23699951C.23498535 .072052 .23199463 .09106445 .1769867 .23516846L.09599304 .44433595H.01399231L.18998719 0H.2829895L.45899964 .44433595Z"/>
<path id="font_10_125" d="M.46998597 .6092987V.6953125H.38398744V.6092987H.46998597M.46699525 0V.44433595H.3869934V0H.46699525M.30299378 .38232423V.44433595H.17999268V.5623169C.17999268 .6260834 .21699524 .6400757 .24099732 .6400757 .25898744 .6400757 .28199769 .6360779 .30299378 .62109377V.69407656C.29499818 .69706729 .269989 .7050781 .24099732 .7050781 .16499329 .7050781 .102996829 .634079 .102996829 .5332184V.44433595H.027999878V.38232423H.102996829V0H.18299866V.38232423H.30299378Z"/>
<path id="font_10_88" d="M.18499756 0V.085998538H.09899902V0H.18499756Z"/>
</defs>
<use data-text="&#x00b7;" xlink:href="#font_1_1" transform="matrix(4.98132,0,0,-4.98132,14.123692,13.743668)" fill="#bfbfbf"/>
<use data-text="&#x00b7;" xlink:href="#font_1_1" transform="matrix(4.98132,0,0,-4.98132,31.131939,53.429018)" fill="#bfbfbf"/>
<use data-text="&#x00b7;" xlink:href="#font_1_1" transform="matrix(4.98132,0,0,-4.98132,11.289265,87.445117)" fill="#bfbfbf"/>
<use data-text="&#x00b7;" xlink:href="#font_1_1" transform="matrix(4.98132,0,0,-4.98132,28.297085,124.29605)" fill="#bfbfbf"/>
<use data-text="&#x00b7;" xlink:href="#font_1_1" transform="matrix(4.98132,0,0,-4.98132,19.793385,172.48552)" fill="#bfbfbf"/>
<use data-text="&#x00b7;" xlink:href="#font_1_1" transform="matrix(4.98132,0,0,-4.98132,39.63608,195.16306)" fill="#bfbfbf"/>
<path transform="matrix(1,0,0,-1,117.313938,137.2414)" d="M-34.01608-70.867V56.69362C-34.01608 76.53629-11.33855 90.7097 0 90.7097 11.33855 90.7097 34.01608 76.53629 34.01608 56.69362V-70.867Z" fill="#e0e0ff"/>
<path transform="matrix(1,0,0,-1,117.313938,137.2414)" stroke-width=".79701" stroke-linecap="butt" stroke-miterlimit="10" stroke-linejoin="miter" fill="none" stroke="#0000b3" d="M-34.01608-70.867V56.69362C-34.01608 76.53629-11.33855 90.7097 0 90.7097 11.33855 90.7097 34.01608 76.53629 34.01608 56.69362V-70.867Z"/>
<path transform="matrix(1,0,0,-1,117.313938,137.2414)" d="M-34.01608-70.867-53.85875-87.87527-34.01608-51.02432Z" fill="#e0e0ff"/>
<path transform="matrix(1,0,0,-1,117.313938,137.2414)" stroke-width=".79701" stroke-linecap="butt" stroke-miterlimit="10" stroke-linejoin="miter" fill="none" stroke="#0000b3" d="M-34.01608-70.867-53.85875-87.87527-34.01608-51.02432Z"/>
<path transform="matrix(1,0,0,-1,117.313938,137.2414)" d="M34.01608-70.867 53.85875-87.87527 34.01608-51.02432Z" fill="#e0e0ff"/>
<path transform="matrix(1,0,0,-1,117.313938,137.2414)" stroke-width=".79701" stroke-linecap="butt" stroke-miterlimit="10" stroke-linejoin="miter" fill="none" stroke="#0000b3" d="M34.01608-70.867 53.85875-87.87527 34.01608-51.02432Z"/>
<path transform="matrix(1,0,0,-1,117.313938,137.2414)" d="M-26.92937-42.5202V45.35506H26.92937V-42.5202ZM26.92937 45.35506" fill="#ffffff"/>
<path transform="matrix(1,0,0,-1,117.313938,137.2414)" stroke-width=".3985" stroke-linecap="butt" stroke-miterlimit="10" stroke-linejoin="miter" fill="none" stroke="#000099" d="M-26.92937-42.5202V45.35506H26.92937V-42.5202ZM26.92937 45.35506"/>
<path transform="matrix(1,0,0,-1,117.313938,137.2414)" stroke-width=".79701" stroke-linecap="butt" stroke-miterlimit="10" stroke-linejoin="miter" fill="none" stroke="#4c4d4c" d="M-26.92937-42.5202H26.92937"/>
<path transform="matrix(1,0,0,-1,117.313938,137.2414)" d="M-9.07074-26.92937C-9.07074-24.89407-10.72066-23.24416-12.75595-23.24416-14.79126-23.24416-16.44118-24.89407-16.44118-26.92937-16.44118-28.96468-14.79126-30.6146-12.75595-30.6146-10.72066-30.6146-9.07074-28.96468-9.07074-26.92937ZM-12.75595-26.92937" fill="#bfbfbf"/>
<path transform="matrix(1,0,0,-1,117.313938,137.2414)" stroke-width=".79701" stroke-linecap="round" stroke-miterlimit="10" stroke-linejoin="miter" fill="none" stroke="#000000" d="M-9.07074-26.92937C-9.07074-24.89407-10.72066-23.24416-12.75595-23.24416-14.79126-23.24416-16.44118-24.89407-16.44118-26.92937-16.44118-28.96468-14.79126-30.6146-12.75595-30.6146-10.72066-30.6146-9.07074-28.96468-9.07074-26.92937ZM-12.75595-26.92937"/>
<path transform="matrix(1,0,0,-1,117.313938,137.2414)" d="M-12.75595-30.6146V-41.10277" fill="#bfbfbf"/>
<path transform="matrix(1,0,0,-1,117.313938,137.2414)" stroke-width=".79701" stroke-linecap="round" stroke-miterlimit="10" stroke-linejoin="miter" fill="none" stroke="#000000" d="M-12.75595-30.6146V-41.10277"/>
<path transform="matrix(1,0,0,-1,117.313938,137.2414)" stroke-width=".79701" stroke-linecap="butt" stroke-miterlimit="10" stroke-linejoin="miter" fill="none" stroke="#d90000" d="M-5.1022-26.92937C1.4174-30.6146 8.50412-36.85092 15.59082-41.95314"/>
<path transform="matrix(1,0,0,-1,117.313938,137.2414)" d="M-3.4115-26.92937C-3.4115-25.99562-4.16846-25.23866-5.1022-25.23866-6.03595-25.23866-6.79291-25.99562-6.79291-26.92937-6.79291-27.86311-6.03595-28.62007-5.1022-28.62007-4.16846-28.62007-3.4115-27.86311-3.4115-26.92937ZM-5.1022-26.92937" fill="#d90000"/>
<path transform="matrix(1,0,0,-1,117.313938,137.2414)" stroke-width=".3985" stroke-linecap="butt" stroke-miterlimit="10" stroke-linejoin="miter" fill="none" stroke="#d90000" d="M-3.4115-26.92937C-3.4115-25.99562-4.16846-25.23866-5.1022-25.23866-6.03595-25.23866-6.79291-25.99562-6.79291-26.92937-6.79291-27.86311-6.03595-28.62007-5.1022-28.62007-4.16846-28.62007-3.4115-27.86311-3.4115-26.92937ZM-5.1022-26.92937"/>
<path transform="matrix(1,0,0,-1,117.313938,137.2414)" d="M17.28152-41.95314C17.28152-41.01938 16.52457-40.26244 15.59082-40.26244 14.65707-40.26244 13.90012-41.01938 13.90012-41.95314 13.90012-42.88689 14.65707-43.64384 15.59082-43.64384 16.52457-43.64384 17.28152-42.88689 17.28152-41.95314ZM15.59082-41.95314" fill="#d90000"/>
<path transform="matrix(1,0,0,-1,117.313938,137.2414)" stroke-width=".3985" stroke-linecap="butt" stroke-miterlimit="10" stroke-linejoin="miter" fill="none" stroke="#d90000" d="M17.28152-41.95314C17.28152-41.01938 16.52457-40.26244 15.59082-40.26244 14.65707-40.26244 13.90012-41.01938 13.90012-41.95314 13.90012-42.88689 14.65707-43.64384 15.59082-43.64384 16.52457-43.64384 17.28152-42.88689 17.28152-41.95314ZM15.59082-41.95314"/>
<path transform="matrix(1,0,0,-1,117.313938,137.2414)" stroke-width="1.19553" stroke-linecap="butt" stroke-miterlimit="10" stroke-linejoin="miter" fill="none" stroke="#0000bf" d="M-73.70186-65.19774V60.71498"/>
<path transform="matrix(0,-1,-1,-0,43.612077,79.41383)" d="M5.66776 0 1.93039 1.42111 3.18628 0 1.93039-1.42111Z" fill="#0000bf"/>
<path transform="matrix(0,-1,-1,-0,43.612077,79.41383)" stroke-width="1.19553" stroke-linecap="butt" stroke-miterlimit="10" stroke-linejoin="miter" fill="none" stroke="#0000bf" d="M5.66776 0 1.93039 1.42111 3.18628 0 1.93039-1.42111Z"/>
<use data-text="a" xlink:href="#font_2_1" transform="matrix(9.96264,0,0,-9.96264,31.782505,61.88127)" fill="#0000bf"/>
<use data-text="=" xlink:href="#font_3_1" transform="matrix(9.96264,0,0,-9.96264,39.815996,61.88127)" fill="#0000bf"/>
<use data-text="g" xlink:href="#font_2_2" transform="matrix(9.96264,0,0,-9.96264,50.332075,61.88127)" fill="#0000bf"/>
<path transform="matrix(1,0,0,-1,117.313938,137.2414)" stroke-width="1.19553" stroke-linecap="butt" stroke-miterlimit="10" stroke-linejoin="miter" fill="none" stroke="#0000bf" d="M73.70186-65.19774V60.71498"/>
<path transform="matrix(0,-1,-1,-0,191.0158,79.41383)" d="M5.66776 0 1.93039 1.42111 3.18628 0 1.93039-1.42111Z" fill="#0000bf"/>
<path transform="matrix(0,-1,-1,-0,191.0158,79.41383)" stroke-width="1.19553" stroke-linecap="butt" stroke-miterlimit="10" stroke-linejoin="miter" fill="none" stroke="#0000bf" d="M5.66776 0 1.93039 1.42111 3.18628 0 1.93039-1.42111Z"/>
<use data-text="R" xlink:href="#font_4_95" transform="matrix(8.966376,0,0,-8.966376,89.06145,28.928666)" fill="#0000b3"/>
<use data-text="o" xlink:href="#font_4_81" transform="matrix(8.966376,0,0,-8.966376,95.364818,28.928666)" fill="#0000b3"/>
<use data-text="c" xlink:href="#font_4_43" transform="matrix(8.966376,0,0,-8.966376,100.57428,28.928666)" fill="#0000b3"/>
<use data-text="k" xlink:href="#font_4_70" transform="matrix(8.966376,0,0,-8.966376,104.95884,28.928666)" fill="#0000b3"/>
<use data-text="e" xlink:href="#font_4_50" transform="matrix(8.966376,0,0,-8.966376,109.451,28.928666)" fill="#0000b3"/>
<use data-text="t" xlink:href="#font_4_105" transform="matrix(8.966376,0,0,-8.966376,114.032817,28.928666)" fill="#0000b3"/>
<use data-text="," xlink:href="#font_4_45" transform="matrix(8.966376,0,0,-8.966376,117.65523,28.928666)" fill="#0000b3"/>
<use data-text="a" xlink:href="#font_5_1" transform="matrix(8.966376,0,0,-8.966376,123.68062,28.928666)" fill="#0000b3"/>
<use data-text="=" xlink:href="#font_6_1" transform="matrix(8.966376,0,0,-8.966376,131.12245,28.928666)" fill="#0000b3"/>
<use data-text="g" xlink:href="#font_5_2" transform="matrix(8.966376,0,0,-8.966376,140.8498,28.928666)" fill="#0000b3"/>
<use data-text="(" xlink:href="#font_7_85" transform="matrix(7.970112,0,0,-7.970112,84.22958,40.02014)" fill="#000080"/>
<use data-text="f" xlink:href="#font_7_55" transform="matrix(7.970112,0,0,-7.970112,87.52124,40.02014)" fill="#000080"/>
<use data-text="a" xlink:href="#font_7_28" transform="matrix(7.970112,0,0,-7.970112,90.11153,40.02014)" fill="#000080"/>
<use data-text="r" xlink:href="#font_7_96" transform="matrix(7.970112,0,0,-7.970112,93.94516,40.02014)" fill="#000080"/>
<use data-text="f" xlink:href="#font_7_55" transform="matrix(7.970112,0,0,-7.970112,99.65176,40.02014)" fill="#000080"/>
<use data-text="r" xlink:href="#font_7_96" transform="matrix(7.970112,0,0,-7.970112,102.24204,40.02014)" fill="#000080"/>
<use data-text="o" xlink:href="#font_7_81" transform="matrix(7.970112,0,0,-7.970112,105.13519,40.02014)" fill="#000080"/>
<use data-text="m" xlink:href="#font_7_75" transform="matrix(7.970112,0,0,-7.970112,109.367328,40.02014)" fill="#000080"/>
<use data-text="a" xlink:href="#font_7_28" transform="matrix(7.970112,0,0,-7.970112,118.91552,40.02014)" fill="#000080"/>
<use data-text="n" xlink:href="#font_7_77" transform="matrix(7.970112,0,0,-7.970112,122.98028,40.02014)" fill="#000080"/>
<use data-text="y" xlink:href="#font_7_118" transform="matrix(7.970112,0,0,-7.970112,127.35587,40.02014)" fill="#000080"/>
<use data-text="s" xlink:href="#font_7_98" transform="matrix(7.970112,0,0,-7.970112,134.08264,40.02014)" fill="#000080"/>
<use data-text="t" xlink:href="#font_7_105" transform="matrix(7.970112,0,0,-7.970112,137.32648,40.02014)" fill="#000080"/>
<use data-text="a" xlink:href="#font_7_28" transform="matrix(7.970112,0,0,-7.970112,140.38701,40.02014)" fill="#000080"/>
<use data-text="r" xlink:href="#font_7_96" transform="matrix(7.970112,0,0,-7.970112,144.22064,40.02014)" fill="#000080"/>
<use data-text=")" xlink:href="#font_7_86" transform="matrix(7.970112,0,0,-7.970112,147.11379,40.02014)" fill="#000080"/>
<use data-text="m" xlink:href="#font_5_3" transform="matrix(8.966376,0,0,-8.966376,106.72462,243.55664)"/>
<use data-text="i" xlink:href="#font_8_2" transform="matrix(5.977584,0,0,-5.977584,114.84344,244.55289)"/>
<use data-text="n" xlink:href="#font_8_3" transform="matrix(5.977584,0,0,-5.977584,116.941577,244.55289)"/>
<use data-text="a" xlink:href="#font_5_1" transform="matrix(8.966376,0,0,-8.966376,123.02103,243.55664)"/>
<use data-text="&#x2261;" xlink:href="#font_9_1" transform="matrix(24.787053,0,0,-24.787053,263.58183,131.65039)"/>
<use data-text="i" xlink:href="#font_4_66" transform="matrix(9.96264,0,0,-9.96264,235.96063,156.68058)"/>
<use data-text="n" xlink:href="#font_4_77" transform="matrix(9.96264,0,0,-9.96264,238.51108,156.68058)"/>
<use data-text="d" xlink:href="#font_4_47" transform="matrix(9.96264,0,0,-9.96264,244.10012,156.68058)"/>
<use data-text="i" xlink:href="#font_4_66" transform="matrix(9.96264,0,0,-9.96264,249.68915,156.68058)"/>
<use data-text="s" xlink:href="#font_4_98" transform="matrix(9.96264,0,0,-9.96264,252.2396,156.68058)"/>
<use data-text="t" xlink:href="#font_4_105" transform="matrix(9.96264,0,0,-9.96264,256.44383,156.68058)"/>
<use data-text="i" xlink:href="#font_4_66" transform="matrix(9.96264,0,0,-9.96264,260.46876,156.68058)"/>
<use data-text="n" xlink:href="#font_4_77" transform="matrix(9.96264,0,0,-9.96264,263.01918,156.68058)"/>
<use data-text="g" xlink:href="#font_4_59" transform="matrix(9.96264,0,0,-9.96264,268.60823,156.68058)"/>
<use data-text="u" xlink:href="#font_4_109" transform="matrix(9.96264,0,0,-9.96264,274.08769,156.68058)"/>
<use data-text="i" xlink:href="#font_4_66" transform="matrix(9.96264,0,0,-9.96264,279.6767,156.68058)"/>
<use data-text="s" xlink:href="#font_4_98" transform="matrix(9.96264,0,0,-9.96264,282.22715,156.68058)"/>
<use data-text="h" xlink:href="#font_4_63" transform="matrix(9.96264,0,0,-9.96264,286.4314,156.68058)"/>
<use data-text="a" xlink:href="#font_4_28" transform="matrix(9.96264,0,0,-9.96264,292.02043,156.68058)"/>
<use data-text="b" xlink:href="#font_4_35" transform="matrix(9.96264,0,0,-9.96264,297.2508,156.68058)"/>
<use data-text="l" xlink:href="#font_4_72" transform="matrix(9.96264,0,0,-9.96264,302.83985,156.68058)"/>
<use data-text="e" xlink:href="#font_4_50" transform="matrix(9.96264,0,0,-9.96264,305.3903,156.68058)"/>
<use data-text="l" xlink:href="#font_10_72" transform="matrix(8.966376,0,0,-8.966376,261.10319,167.78052)"/>
<use data-text="o" xlink:href="#font_10_81" transform="matrix(8.966376,0,0,-8.966376,263.29994,167.78052)"/>
<use data-text="c" xlink:href="#font_10_43" transform="matrix(8.966376,0,0,-8.966376,268.16868,167.78052)"/>
<use data-text="a" xlink:href="#font_10_28" transform="matrix(8.966376,0,0,-8.966376,272.2663,167.78052)"/>
<use data-text="l" xlink:href="#font_10_72" transform="matrix(8.966376,0,0,-8.966376,276.6957,167.78052)"/>
<use data-text="l" xlink:href="#font_10_72" transform="matrix(8.966376,0,0,-8.966376,278.89247,167.78052)"/>
<use data-text="y" xlink:href="#font_10_118" transform="matrix(8.966376,0,0,-8.966376,281.08924,167.78052)"/>
<use data-text="m" xlink:href="#font_5_3" transform="matrix(8.966376,0,0,-8.966376,245.78836,194.78598)"/>
<use data-text="i" xlink:href="#font_8_2" transform="matrix(5.977584,0,0,-5.977584,253.90718,195.78223)"/>
<use data-text="n" xlink:href="#font_8_3" transform="matrix(5.977584,0,0,-5.977584,256.0053,195.78223)"/>
<use data-text="a" xlink:href="#font_5_1" transform="matrix(8.966376,0,0,-8.966376,262.08479,194.78598)"/>
<use data-text="=" xlink:href="#font_6_1" transform="matrix(8.966376,0,0,-8.966376,269.5266,194.78598)"/>
<use data-text="m" xlink:href="#font_5_3" transform="matrix(8.966376,0,0,-8.966376,279.25398,194.78598)"/>
<use data-text="g" xlink:href="#font_8_1" transform="matrix(5.977584,0,0,-5.977584,287.37278,195.78223)"/>
<use data-text="r" xlink:href="#font_8_4" transform="matrix(5.977584,0,0,-5.977584,291.0251,195.78223)"/>
<use data-text="g" xlink:href="#font_5_2" transform="matrix(8.966376,0,0,-8.966376,295.93778,194.78598)"/>
<path transform="matrix(1,0,0,-1,117.313938,137.2414)" d="M212.60108-104.88309C240.94789-90.7097 283.4681-85.04042 311.8149-85.04042 340.1617-85.04042 382.68193-90.7097 411.02873-104.88309V-113.38724H212.60108Z" fill="#e8e8e8"/>
<path transform="matrix(1,0,0,-1,117.313938,137.2414)" stroke-width=".79701" stroke-linecap="butt" stroke-miterlimit="10" stroke-linejoin="miter" fill="none" stroke="#4c4d4c" d="M212.60108-104.88309C240.94789-90.7097 283.4681-85.04042 311.8149-85.04042 340.1617-85.04042 382.68193-90.7097 411.02873-104.88309V-113.38724H212.60108Z"/>
<path transform="matrix(1,0,0,-1,117.313938,137.2414)" stroke-width=".79701" stroke-linecap="butt" stroke-miterlimit="10" stroke-linejoin="miter" fill="none" stroke="#404040" d="M212.60108-104.88309H411.02873"/>
<path transform="matrix(1,0,0,-1,117.313938,137.2414)" stroke-width=".3985" stroke-linecap="butt" stroke-miterlimit="10" stroke-linejoin="miter" fill="none" stroke="#404040" d="M221.1052-104.88309 216.00299-113.38724"/>
<path transform="matrix(1,0,0,-1,117.313938,137.2414)" stroke-width=".3985" stroke-linecap="butt" stroke-miterlimit="10" stroke-linejoin="miter" fill="none" stroke="#404040" d="M238.11304-104.88309 233.0108-113.38724"/>
<path transform="matrix(1,0,0,-1,117.313938,137.2414)" stroke-width=".3985" stroke-linecap="butt" stroke-miterlimit="10" stroke-linejoin="miter" fill="none" stroke="#404040" d="M255.12128-104.88309 250.01908-113.38724"/>
<path transform="matrix(1,0,0,-1,117.313938,137.2414)" stroke-width=".3985" stroke-linecap="butt" stroke-miterlimit="10" stroke-linejoin="miter" fill="none" stroke="#404040" d="M272.12956-104.88309 267.02735-113.38724"/>
<path transform="matrix(1,0,0,-1,117.313938,137.2414)" stroke-width=".3985" stroke-linecap="butt" stroke-miterlimit="10" stroke-linejoin="miter" fill="none" stroke="#404040" d="M289.13737-104.88309 284.03517-113.38724"/>
<path transform="matrix(1,0,0,-1,117.313938,137.2414)" stroke-width=".3985" stroke-linecap="butt" stroke-miterlimit="10" stroke-linejoin="miter" fill="none" stroke="#404040" d="M306.14564-104.88309 301.0434-113.38724"/>
<path transform="matrix(1,0,0,-1,117.313938,137.2414)" stroke-width=".3985" stroke-linecap="butt" stroke-miterlimit="10" stroke-linejoin="miter" fill="none" stroke="#404040" d="M323.15345-104.88309 318.0512-113.38724"/>
<path transform="matrix(1,0,0,-1,117.313938,137.2414)" stroke-width=".3985" stroke-linecap="butt" stroke-miterlimit="10" stroke-linejoin="miter" fill="none" stroke="#404040" d="M340.1617-104.88309 335.05949-113.38724"/>
<path transform="matrix(1,0,0,-1,117.313938,137.2414)" stroke-width=".3985" stroke-linecap="butt" stroke-miterlimit="10" stroke-linejoin="miter" fill="none" stroke="#404040" d="M357.16996-104.88309 352.06776-113.38724"/>
<path transform="matrix(1,0,0,-1,117.313938,137.2414)" stroke-width=".3985" stroke-linecap="butt" stroke-miterlimit="10" stroke-linejoin="miter" fill="none" stroke="#404040" d="M374.1778-104.88309 369.0756-113.38724"/>
<path transform="matrix(1,0,0,-1,117.313938,137.2414)" stroke-width=".3985" stroke-linecap="butt" stroke-miterlimit="10" stroke-linejoin="miter" fill="none" stroke="#404040" d="M391.18605-104.88309 386.08384-113.38724"/>
<path transform="matrix(1,0,0,-1,117.313938,137.2414)" stroke-width=".3985" stroke-linecap="butt" stroke-miterlimit="10" stroke-linejoin="miter" fill="none" stroke="#404040" d="M408.19389-104.88309 403.09169-113.38724"/>
<path transform="matrix(1,0,0,-1,117.313938,137.2414)" d="M277.7988-70.867V56.69362H345.831V-70.867ZM345.831 56.69362" fill="#f5f5f5"/>
<path transform="matrix(1,0,0,-1,117.313938,137.2414)" stroke-width=".79701" stroke-linecap="butt" stroke-miterlimit="10" stroke-linejoin="miter" fill="none" stroke="#4c4d4c" d="M277.7988-70.867V56.69362H345.831V-70.867ZM345.831 56.69362"/>
<path transform="matrix(1,0,0,-1,117.313938,137.2414)" d="M274.96397 56.69362 311.8149 73.70186 348.66584 56.69362Z" fill="#f0f0f0"/>
<path transform="matrix(1,0,0,-1,117.313938,137.2414)" stroke-width=".79701" stroke-linecap="butt" stroke-miterlimit="10" stroke-linejoin="miter" fill="none" stroke="#4c4d4c" d="M274.96397 56.69362 311.8149 73.70186 348.66584 56.69362Z"/>
<path transform="matrix(1,0,0,-1,117.313938,137.2414)" stroke-width=".3985" stroke-linecap="butt" stroke-miterlimit="10" stroke-linejoin="miter" fill="none" stroke="#404040" d="M284.88554-42.5202V45.35506H338.7443V-42.5202ZM338.7443 45.35506"/>
<path transform="matrix(1,0,0,-1,117.313938,137.2414)" stroke-width=".79701" stroke-linecap="butt" stroke-miterlimit="10" stroke-linejoin="miter" fill="none" stroke="#4c4d4c" d="M284.88554-42.5202H338.7443"/>
<path transform="matrix(1,0,0,-1,117.313938,137.2414)" d="M302.74418-26.92937C302.74418-24.89407 301.09425-23.24416 299.05894-23.24416 297.02366-23.24416 295.37373-24.89407 295.37373-26.92937 295.37373-28.96468 297.02366-30.6146 299.05894-30.6146 301.09425-30.6146 302.74418-28.96468 302.74418-26.92937ZM299.05894-26.92937" fill="#bfbfbf"/>
<path transform="matrix(1,0,0,-1,117.313938,137.2414)" stroke-width=".79701" stroke-linecap="round" stroke-miterlimit="10" stroke-linejoin="miter" fill="none" stroke="#000000" d="M302.74418-26.92937C302.74418-24.89407 301.09425-23.24416 299.05894-23.24416 297.02366-23.24416 295.37373-24.89407 295.37373-26.92937 295.37373-28.96468 297.02366-30.6146 299.05894-30.6146 301.09425-30.6146 302.74418-28.96468 302.74418-26.92937ZM299.05894-26.92937"/>
<path transform="matrix(1,0,0,-1,117.313938,137.2414)" d="M299.05894-30.6146V-41.10277" fill="#bfbfbf"/>
<path transform="matrix(1,0,0,-1,117.313938,137.2414)" stroke-width=".79701" stroke-linecap="round" stroke-miterlimit="10" stroke-linejoin="miter" fill="none" stroke="#000000" d="M299.05894-30.6146V-41.10277"/>
<path transform="matrix(1,0,0,-1,117.313938,137.2414)" stroke-width=".79701" stroke-linecap="butt" stroke-miterlimit="10" stroke-linejoin="miter" fill="none" stroke="#d90000" d="M306.71269-26.92937C313.23234-30.6146 320.31904-36.85092 327.40574-41.95314"/>
<path transform="matrix(1,0,0,-1,117.313938,137.2414)" d="M308.4034-26.92937C308.4034-25.99562 307.64646-25.23866 306.71269-25.23866 305.77897-25.23866 305.022-25.99562 305.022-26.92937 305.022-27.86311 305.77897-28.62007 306.71269-28.62007 307.64646-28.62007 308.4034-27.86311 308.4034-26.92937ZM306.71269-26.92937" fill="#d90000"/>
<path transform="matrix(1,0,0,-1,117.313938,137.2414)" stroke-width=".3985" stroke-linecap="butt" stroke-miterlimit="10" stroke-linejoin="miter" fill="none" stroke="#d90000" d="M308.4034-26.92937C308.4034-25.99562 307.64646-25.23866 306.71269-25.23866 305.77897-25.23866 305.022-25.99562 305.022-26.92937 305.022-27.86311 305.77897-28.62007 306.71269-28.62007 307.64646-28.62007 308.4034-27.86311 308.4034-26.92937ZM306.71269-26.92937"/>
<path transform="matrix(1,0,0,-1,117.313938,137.2414)" d="M329.09645-41.95314C329.09645-41.01938 328.33949-40.26244 327.40574-40.26244 326.472-40.26244 325.71504-41.01938 325.71504-41.95314 325.71504-42.88689 326.472-43.64384 327.40574-43.64384 328.33949-43.64384 329.09645-42.88689 329.09645-41.95314ZM327.40574-41.95314" fill="#d90000"/>
<path transform="matrix(1,0,0,-1,117.313938,137.2414)" stroke-width=".3985" stroke-linecap="butt" stroke-miterlimit="10" stroke-linejoin="miter" fill="none" stroke="#d90000" d="M329.09645-41.95314C329.09645-41.01938 328.33949-40.26244 327.40574-40.26244 326.472-40.26244 325.71504-41.01938 325.71504-41.95314 325.71504-42.88689 326.472-43.64384 327.40574-43.64384 328.33949-43.64384 329.09645-42.88689 329.09645-41.95314ZM327.40574-41.95314"/>
<path transform="matrix(1,0,0,-1,117.313938,137.2414)" stroke-width="1.19553" stroke-linecap="butt" stroke-miterlimit="10" stroke-linejoin="miter" fill="none" stroke="#333333" d="M238.11304 65.19774V-60.71498"/>
<path transform="matrix(0,1,1,0,355.42698,195.06896)" d="M5.66776 0 1.93039 1.42111 3.18628 0 1.93039-1.42111Z" fill="#333333"/>
<path transform="matrix(0,1,1,0,355.42698,195.06896)" stroke-width="1.19553" stroke-linecap="butt" stroke-miterlimit="10" stroke-linejoin="miter" fill="none" stroke="#333333" d="M5.66776 0 1.93039 1.42111 3.18628 0 1.93039-1.42111Z"/>
<use data-text="g" xlink:href="#font_2_2" transform="matrix(9.96264,0,0,-9.96264,352.87229,61.88127)" fill="#333333"/>
<path transform="matrix(1,0,0,-1,117.313938,137.2414)" stroke-width="1.19553" stroke-linecap="butt" stroke-miterlimit="10" stroke-linejoin="miter" fill="none" stroke="#333333" d="M385.51679 65.19774V-60.71498"/>
<path transform="matrix(0,1,1,0,502.83073,195.06896)" d="M5.66776 0 1.93039 1.42111 3.18628 0 1.93039-1.42111Z" fill="#333333"/>
<path transform="matrix(0,1,1,0,502.83073,195.06896)" stroke-width="1.19553" stroke-linecap="butt" stroke-miterlimit="10" stroke-linejoin="miter" fill="none" stroke="#333333" d="M5.66776 0 1.93039 1.42111 3.18628 0 1.93039-1.42111Z"/>
<use data-text="E" xlink:href="#font_4_49" transform="matrix(8.966376,0,0,-8.966376,412.66658,28.928666)" fill="#262626"/>
<use data-text="a" xlink:href="#font_4_28" transform="matrix(8.966376,0,0,-8.966376,418.42298,28.928666)" fill="#262626"/>
<use data-text="r" xlink:href="#font_4_96" transform="matrix(8.966376,0,0,-8.966376,422.86134,28.928666)" fill="#262626"/>
<use data-text="t" xlink:href="#font_4_105" transform="matrix(8.966376,0,0,-8.966376,426.19685,28.928666)" fill="#262626"/>
<use data-text="h" xlink:href="#font_4_63" transform="matrix(8.966376,0,0,-8.966376,429.81925,28.928666)" fill="#262626"/>
<use data-text="," xlink:href="#font_4_45" transform="matrix(8.966376,0,0,-8.966376,434.8494,28.928666)" fill="#262626"/>
<use data-text="g" xlink:href="#font_5_2" transform="matrix(8.966376,0,0,-8.966376,440.8748,28.928666)" fill="#262626"/>
<use data-text="(" xlink:href="#font_7_85" transform="matrix(7.970112,0,0,-7.970112,389.8556,40.02014)" fill="#404040"/>
<use data-text="s" xlink:href="#font_7_98" transform="matrix(7.970112,0,0,-7.970112,393.14726,40.02014)" fill="#404040"/>
<use data-text="t" xlink:href="#font_7_105" transform="matrix(7.970112,0,0,-7.970112,396.39109,40.02014)" fill="#404040"/>
<use data-text="a" xlink:href="#font_7_28" transform="matrix(7.970112,0,0,-7.970112,399.4516,40.02014)" fill="#404040"/>
<use data-text="t" xlink:href="#font_7_105" transform="matrix(7.970112,0,0,-7.970112,403.51637,40.02014)" fill="#404040"/>
<use data-text="i" xlink:href="#font_7_66" transform="matrix(7.970112,0,0,-7.970112,406.5769,40.02014)" fill="#404040"/>
<use data-text="c" xlink:href="#font_7_43" transform="matrix(7.970112,0,0,-7.970112,408.59333,40.02014)" fill="#404040"/>
<use data-text="o" xlink:href="#font_7_81" transform="matrix(7.970112,0,0,-7.970112,415.17665,40.02014)" fill="#404040"/>
<use data-text="n" xlink:href="#font_7_77" transform="matrix(7.970112,0,0,-7.970112,419.40879,40.02014)" fill="#404040"/>
<use data-text="t" xlink:href="#font_7_105" transform="matrix(7.970112,0,0,-7.970112,426.60578,40.02014)" fill="#404040"/>
<use data-text="h" xlink:href="#font_7_63" transform="matrix(7.970112,0,0,-7.970112,429.66633,40.02014)" fill="#404040"/>
<use data-text="e" xlink:href="#font_7_50" transform="matrix(7.970112,0,0,-7.970112,434.0419,40.02014)" fill="#404040"/>
<use data-text="g" xlink:href="#font_7_59" transform="matrix(7.970112,0,0,-7.970112,440.6252,40.02014)" fill="#404040"/>
<use data-text="r" xlink:href="#font_7_96" transform="matrix(7.970112,0,0,-7.970112,444.85737,40.02014)" fill="#404040"/>
<use data-text="o" xlink:href="#font_7_81" transform="matrix(7.970112,0,0,-7.970112,447.7505,40.02014)" fill="#404040"/>
<use data-text="u" xlink:href="#font_7_109" transform="matrix(7.970112,0,0,-7.970112,451.98265,40.02014)" fill="#404040"/>
<use data-text="n" xlink:href="#font_7_77" transform="matrix(7.970112,0,0,-7.970112,456.35823,40.02014)" fill="#404040"/>
<use data-text="d" xlink:href="#font_7_47" transform="matrix(7.970112,0,0,-7.970112,460.73384,40.02014)" fill="#404040"/>
<use data-text=")" xlink:href="#font_7_86" transform="matrix(7.970112,0,0,-7.970112,465.10945,40.02014)" fill="#404040"/>
<use data-text="m" xlink:href="#font_5_3" transform="matrix(8.966376,0,0,-8.966376,418.42884,242.97547)"/>
<use data-text="g" xlink:href="#font_8_1" transform="matrix(5.977584,0,0,-5.977584,426.54768,243.97171)"/>
<use data-text="r" xlink:href="#font_8_4" transform="matrix(5.977584,0,0,-5.977584,430.19996,243.97171)"/>
<use data-text="g" xlink:href="#font_5_2" transform="matrix(8.966376,0,0,-8.966376,435.11268,242.97547)"/>
<use data-text="E" xlink:href="#font_4_49" transform="matrix(8.966376,0,0,-8.966376,33.874303,269.87403)"/>
<use data-text="i" xlink:href="#font_4_66" transform="matrix(8.966376,0,0,-8.966376,39.630716,269.87403)"/>
<use data-text="n" xlink:href="#font_4_77" transform="matrix(8.966376,0,0,-8.966376,41.926107,269.87403)"/>
<use data-text="s" xlink:href="#font_4_98" transform="matrix(8.966376,0,0,-8.966376,46.95624,269.87403)"/>
<use data-text="t" xlink:href="#font_4_105" transform="matrix(8.966376,0,0,-8.966376,50.74005,269.87403)"/>
<use data-text="e" xlink:href="#font_4_50" transform="matrix(8.966376,0,0,-8.966376,54.362466,269.87403)"/>
<use data-text="i" xlink:href="#font_4_66" transform="matrix(8.966376,0,0,-8.966376,58.944284,269.87403)"/>
<use data-text="n" xlink:href="#font_4_77" transform="matrix(8.966376,0,0,-8.966376,61.239679,269.87403)"/>
<use data-text="e" xlink:href="#font_4_50" transform="matrix(8.966376,0,0,-8.966376,69.56047,269.87403)"/>
<use data-text="q" xlink:href="#font_4_91" transform="matrix(8.966376,0,0,-8.966376,74.14229,269.87403)"/>
<use data-text="u" xlink:href="#font_4_109" transform="matrix(8.966376,0,0,-8.966376,79.172428,269.87403)"/>
<use data-text="i" xlink:href="#font_4_66" transform="matrix(8.966376,0,0,-8.966376,84.20256,269.87403)"/>
<use data-text="v" xlink:href="#font_4_112" transform="matrix(8.966376,0,0,-8.966376,86.497959,269.87403)"/>
<use data-text="a" xlink:href="#font_4_28" transform="matrix(8.966376,0,0,-8.966376,90.98114,269.87403)"/>
<use data-text="l" xlink:href="#font_4_72" transform="matrix(8.966376,0,0,-8.966376,95.68849,269.87403)"/>
<use data-text="e" xlink:href="#font_4_50" transform="matrix(8.966376,0,0,-8.966376,97.98389,269.87403)"/>
<use data-text="n" xlink:href="#font_4_77" transform="matrix(8.966376,0,0,-8.966376,102.565708,269.87403)"/>
<use data-text="c" xlink:href="#font_4_43" transform="matrix(8.966376,0,0,-8.966376,107.59584,269.87403)"/>
<use data-text="e" xlink:href="#font_4_50" transform="matrix(8.966376,0,0,-8.966376,111.9804,269.87403)"/>
<use data-text="p" xlink:href="#font_4_84" transform="matrix(8.966376,0,0,-8.966376,119.85289,269.87403)"/>
<use data-text="r" xlink:href="#font_4_96" transform="matrix(8.966376,0,0,-8.966376,124.61403,269.87403)"/>
<use data-text="i" xlink:href="#font_4_66" transform="matrix(8.966376,0,0,-8.966376,127.949527,269.87403)"/>
<use data-text="n" xlink:href="#font_4_77" transform="matrix(8.966376,0,0,-8.966376,130.24492,269.87403)"/>
<use data-text="c" xlink:href="#font_4_43" transform="matrix(8.966376,0,0,-8.966376,135.27506,269.87403)"/>
<use data-text="i" xlink:href="#font_4_66" transform="matrix(8.966376,0,0,-8.966376,139.6596,269.87403)"/>
<use data-text="p" xlink:href="#font_4_84" transform="matrix(8.966376,0,0,-8.966376,141.955,269.87403)"/>
<use data-text="l" xlink:href="#font_4_72" transform="matrix(8.966376,0,0,-8.966376,146.98514,269.87403)"/>
<use data-text="e" xlink:href="#font_4_50" transform="matrix(8.966376,0,0,-8.966376,149.28054,269.87403)"/>
<use data-text=":" xlink:href="#font_4_44" transform="matrix(8.966376,0,0,-8.966376,153.86235,269.87403)"/>
<use data-text="a" xlink:href="#font_10_28" transform="matrix(8.966376,0,0,-8.966376,162.74803,269.87403)"/>
<use data-text="u" xlink:href="#font_10_109" transform="matrix(8.966376,0,0,-8.966376,170.2529,269.87403)"/>
<use data-text="n" xlink:href="#font_10_77" transform="matrix(8.966376,0,0,-8.966376,175.01404,269.87403)"/>
<use data-text="i" xlink:href="#font_10_66" transform="matrix(8.966376,0,0,-8.966376,179.77518,269.87403)"/>
<use data-text="f" xlink:href="#font_10_55" transform="matrix(8.966376,0,0,-8.966376,181.97194,269.87403)"/>
<use data-text="o" xlink:href="#font_10_81" transform="matrix(8.966376,0,0,-8.966376,184.78739,269.87403)"/>
<use data-text="r" xlink:href="#font_10_96" transform="matrix(8.966376,0,0,-8.966376,189.14505,269.87403)"/>
<use data-text="m" xlink:href="#font_10_75" transform="matrix(8.966376,0,0,-8.966376,192.29225,269.87403)"/>
<use data-text="l" xlink:href="#font_10_72" transform="matrix(8.966376,0,0,-8.966376,199.60881,269.87403)"/>
<use data-text="y" xlink:href="#font_10_118" transform="matrix(8.966376,0,0,-8.966376,201.80558,269.87403)"/>
<use data-text="a" xlink:href="#font_10_28" transform="matrix(8.966376,0,0,-8.966376,209.12213,269.87403)"/>
<use data-text="c" xlink:href="#font_10_43" transform="matrix(8.966376,0,0,-8.966376,213.55152,269.87403)"/>
<use data-text="c" xlink:href="#font_10_43" transform="matrix(8.966376,0,0,-8.966376,217.64916,269.87403)"/>
<use data-text="e" xlink:href="#font_10_50" transform="matrix(8.966376,0,0,-8.966376,221.7468,269.87403)"/>
<use data-text="l" xlink:href="#font_10_72" transform="matrix(8.966376,0,0,-8.966376,225.84444,269.87403)"/>
<use data-text="e" xlink:href="#font_10_50" transform="matrix(8.966376,0,0,-8.966376,228.0412,269.87403)"/>
<use data-text="r" xlink:href="#font_10_96" transform="matrix(8.966376,0,0,-8.966376,232.13884,269.87403)"/>
<use data-text="a" xlink:href="#font_10_28" transform="matrix(8.966376,0,0,-8.966376,235.28604,269.87403)"/>
<use data-text="t" xlink:href="#font_10_105" transform="matrix(8.966376,0,0,-8.966376,239.71543,269.87403)"/>
<use data-text="e" xlink:href="#font_10_50" transform="matrix(8.966376,0,0,-8.966376,243.04195,269.87403)"/>
<use data-text="d" xlink:href="#font_10_47" transform="matrix(8.966376,0,0,-8.966376,247.13959,269.87403)"/>
<use data-text="f" xlink:href="#font_10_55" transform="matrix(8.966376,0,0,-8.966376,254.9762,269.87403)"/>
<use data-text="r" xlink:href="#font_10_96" transform="matrix(8.966376,0,0,-8.966376,257.79164,269.87403)"/>
<use data-text="a" xlink:href="#font_10_28" transform="matrix(8.966376,0,0,-8.966376,260.9388,269.87403)"/>
<use data-text="m" xlink:href="#font_10_75" transform="matrix(8.966376,0,0,-8.966376,265.3682,269.87403)"/>
<use data-text="e" xlink:href="#font_10_50" transform="matrix(8.966376,0,0,-8.966376,272.68476,269.87403)"/>
<use data-text="i" xlink:href="#font_10_66" transform="matrix(8.966376,0,0,-8.966376,279.85786,269.87403)"/>
<use data-text="s" xlink:href="#font_10_98" transform="matrix(8.966376,0,0,-8.966376,282.05464,269.87403)"/>
<use data-text="l" xlink:href="#font_10_72" transform="matrix(8.966376,0,0,-8.966376,288.66285,269.87403)"/>
<use data-text="o" xlink:href="#font_10_81" transform="matrix(8.966376,0,0,-8.966376,290.85963,269.87403)"/>
<use data-text="c" xlink:href="#font_10_43" transform="matrix(8.966376,0,0,-8.966376,295.72834,269.87403)"/>
<use data-text="a" xlink:href="#font_10_28" transform="matrix(8.966376,0,0,-8.966376,299.82597,269.87403)"/>
<use data-text="l" xlink:href="#font_10_72" transform="matrix(8.966376,0,0,-8.966376,304.25535,269.87403)"/>
<use data-text="l" xlink:href="#font_10_72" transform="matrix(8.966376,0,0,-8.966376,306.45213,269.87403)"/>
<use data-text="y" xlink:href="#font_10_118" transform="matrix(8.966376,0,0,-8.966376,308.6489,269.87403)"/>
<use data-text="i" xlink:href="#font_10_66" transform="matrix(8.966376,0,0,-8.966376,315.97444,269.87403)"/>
<use data-text="n" xlink:href="#font_10_77" transform="matrix(8.966376,0,0,-8.966376,318.1712,269.87403)"/>
<use data-text="d" xlink:href="#font_10_47" transform="matrix(8.966376,0,0,-8.966376,322.93235,269.87403)"/>
<use data-text="i" xlink:href="#font_10_66" transform="matrix(8.966376,0,0,-8.966376,327.69349,269.87403)"/>
<use data-text="s" xlink:href="#font_10_98" transform="matrix(8.966376,0,0,-8.966376,329.89027,269.87403)"/>
<use data-text="t" xlink:href="#font_10_105" transform="matrix(8.966376,0,0,-8.966376,333.423,269.87403)"/>
<use data-text="i" xlink:href="#font_10_66" transform="matrix(8.966376,0,0,-8.966376,336.74955,269.87403)"/>
<use data-text="n" xlink:href="#font_10_77" transform="matrix(8.966376,0,0,-8.966376,338.94633,269.87403)"/>
<use data-text="g" xlink:href="#font_10_59" transform="matrix(8.966376,0,0,-8.966376,343.70747,269.87403)"/>
<use data-text="u" xlink:href="#font_10_109" transform="matrix(8.966376,0,0,-8.966376,348.31617,269.87403)"/>
<use data-text="i" xlink:href="#font_10_66" transform="matrix(8.966376,0,0,-8.966376,353.0773,269.87403)"/>
<use data-text="s" xlink:href="#font_10_98" transform="matrix(8.966376,0,0,-8.966376,355.27409,269.87403)"/>
<use data-text="h" xlink:href="#font_10_63" transform="matrix(8.966376,0,0,-8.966376,358.80683,269.87403)"/>
<use data-text="a" xlink:href="#font_10_28" transform="matrix(8.966376,0,0,-8.966376,363.56797,269.87403)"/>
<use data-text="b" xlink:href="#font_10_35" transform="matrix(8.966376,0,0,-8.966376,367.99736,269.87403)"/>
<use data-text="l" xlink:href="#font_10_72" transform="matrix(8.966376,0,0,-8.966376,372.75849,269.87403)"/>
<use data-text="e" xlink:href="#font_10_50" transform="matrix(8.966376,0,0,-8.966376,374.95527,269.87403)"/>
<use data-text="f" xlink:href="#font_10_55" transform="matrix(8.966376,0,0,-8.966376,382.12837,269.87403)"/>
<use data-text="r" xlink:href="#font_10_96" transform="matrix(8.966376,0,0,-8.966376,384.9438,269.87403)"/>
<use data-text="o" xlink:href="#font_10_81" transform="matrix(8.966376,0,0,-8.966376,388.09098,269.87403)"/>
<use data-text="m" xlink:href="#font_10_75" transform="matrix(8.966376,0,0,-8.966376,392.69969,269.87403)"/>
<use data-text="a" xlink:href="#font_10_28" transform="matrix(8.966376,0,0,-8.966376,403.0917,269.87403)"/>
<use data-text="u" xlink:href="#font_10_109" transform="matrix(8.966376,0,0,-8.966376,410.59657,269.87403)"/>
<use data-text="n" xlink:href="#font_10_77" transform="matrix(8.966376,0,0,-8.966376,415.3577,269.87403)"/>
<use data-text="i" xlink:href="#font_10_66" transform="matrix(8.966376,0,0,-8.966376,420.11885,269.87403)"/>
<use data-text="f" xlink:href="#font_10_55" transform="matrix(8.966376,0,0,-8.966376,422.3156,269.87403)"/>
<use data-text="o" xlink:href="#font_10_81" transform="matrix(8.966376,0,0,-8.966376,425.13105,269.87403)"/>
<use data-text="r" xlink:href="#font_10_96" transform="matrix(8.966376,0,0,-8.966376,429.48869,269.87403)"/>
<use data-text="m" xlink:href="#font_10_75" transform="matrix(8.966376,0,0,-8.966376,432.63587,269.87403)"/>
<use data-text="g" xlink:href="#font_10_59" transform="matrix(8.966376,0,0,-8.966376,443.01893,269.87403)"/>
<use data-text="r" xlink:href="#font_10_96" transform="matrix(8.966376,0,0,-8.966376,447.62763,269.87403)"/>
<use data-text="a" xlink:href="#font_10_28" transform="matrix(8.966376,0,0,-8.966376,450.7748,269.87403)"/>
<use data-text="v" xlink:href="#font_10_112" transform="matrix(8.966376,0,0,-8.966376,455.2042,269.87403)"/>
<use data-text="i" xlink:href="#font_10_66" transform="matrix(8.966376,0,0,-8.966376,459.45426,269.87403)"/>
<use data-text="t" xlink:href="#font_10_105" transform="matrix(8.966376,0,0,-8.966376,461.65104,269.87403)"/>
<use data-text="a" xlink:href="#font_10_28" transform="matrix(8.966376,0,0,-8.966376,464.97758,269.87403)"/>
<use data-text="t" xlink:href="#font_10_105" transform="matrix(8.966376,0,0,-8.966376,469.40696,269.87403)"/>
<use data-text="i" xlink:href="#font_10_66" transform="matrix(8.966376,0,0,-8.966376,472.7335,269.87403)"/>
<use data-text="o" xlink:href="#font_10_81" transform="matrix(8.966376,0,0,-8.966376,474.93028,269.87403)"/>
<use data-text="n" xlink:href="#font_10_77" transform="matrix(8.966376,0,0,-8.966376,479.53898,269.87403)"/>
<use data-text="a" xlink:href="#font_10_28" transform="matrix(8.966376,0,0,-8.966376,484.3001,269.87403)"/>
<use data-text="l" xlink:href="#font_10_72" transform="matrix(8.966376,0,0,-8.966376,488.7295,269.87403)"/>
<use data-text="f" xlink:href="#font_10_125" transform="matrix(8.966376,0,0,-8.966376,494.00175,269.87403)"/>
<use data-text="e" xlink:href="#font_10_50" transform="matrix(8.966376,0,0,-8.966376,498.9422,269.87403)"/>
<use data-text="l" xlink:href="#font_10_72" transform="matrix(8.966376,0,0,-8.966376,503.03987,269.87403)"/>
<use data-text="d" xlink:href="#font_10_47" transform="matrix(8.966376,0,0,-8.966376,505.23664,269.87403)"/>
<use data-text="." xlink:href="#font_10_88" transform="matrix(8.966376,0,0,-8.966376,509.9978,269.87403)"/>
</svg>
