<svg xmlns="http://www.w3.org/2000/svg" xmlns:xlink="http://www.w3.org/1999/xlink" xmlns:inkscape="http://www.inkscape.org/namespaces/inkscape" version="1.1" width="519.54" height="152.03" viewBox="0 0 519.54 152.03">
<defs>
<path id="font_1_97" d="M.5130005 .18504334C.5130005 .24205017 .49198915 .28604127 .46798707 .31604005 .4249878 .37104798 .37998963 .38204957 .31498719 .39704896L.22698975 .41804505C.14698792 .43804933 .12098694 .5020447 .12098694 .546051 .12098694 .6130676 .1749878 .677063 .25898744 .677063 .3880005 .677063 .43998719 .5810547 .45399476 .4800415 .45700074 .4610443 .45799256 .4560547 .46998597 .4560547 .48399354 .4560547 .48399354 .4630432 .48399354 .48405458V.677063C.48399354 .69706729 .48399354 .7050781 .47200013 .7050781 .46499635 .7050781 .46398927 .70407107 .45700074 .69207766 .44400025 .67407229 .45399476 .68707278 .42099 .6350708 .4039917 .6550751 .35198976 .7050781 .2579956 .7050781 .14099121 .7047119 .056991579 .6137085 .056991579 .51171877 .056991579 .4336853 .10398865 .38565064 .10899353 .38064576 .1539917 .33662416 .17199707 .33161927 .29100038 .30360414 .37199403 .28459168 .3809967 .28259278 .4139862 .24856568 .4139862 .24856568 .44898988 .21055603 .44898988 .1515503 .44898988 .08354187 .3999939 .008529663 .30899049 .008529663 .23199463 .008529663 .09298706 .040542604 .084991458 .20555115 .083999637 .22055054 .083999637 .2265625 .070999149 .2265625 .056991579 .2265625 .056991579 .21855164 .056991579 .19854737V.0055389406C.056991579-.014465332 .056991579-.022460938 .068984989-.022460938 .07598877-.022460938 .07699585-.021469117 .083999637-.009475708 .09700012 .008529663 .08699036-.004470825 .11999512 .047531129 .18199158-.012466431 .26098634-.022460938 .30999757-.022460938 .43199159-.022460938 .5130005 .07752991 .5130005 .18452454V.18504334Z"/>
<path id="font_1_109" d="M.5469971 .00024414063V.03125C.47898866 .03125 .46998597 .038253786 .46998597 .087265018V.4423828L.31900025 .43138124V.40037538C.3869934 .40037538 .3959961 .39337159 .3959961 .34436036V.16729737C.3959961 .07826233 .34599305 .014251709 .27398683 .014251709 .19099427 .014251709 .18598938 .057266237 .18598938 .11128235V.4423828L.034988405 .43138124V.40037538C.11199951 .40037538 .11199951 .39736939 .11199951 .3083496V.15829468C.11199951 .09327698 .11199951 .051254274 .1579895 .01625061 .18699646-.003753662 .22799683-.0107421879 .2679901-.0107421879 .31999208-.0107421879 .36898805 .012252808 .397995 .072265628H.39898683V-.0107421879L.5469971 .00024414063Z"/>
<path id="font_1_77" d="M.5469971 0V.0309906C.49598695 .03125 .47099305 .03125 .46998597 .0622406V.25431825C.46998597 .3373413 .46998597 .36636354 .44198609 .4013672 .4189911 .42938233 .3809967 .4423828 .33099366 .4423828 .23799134 .4423828 .19499207 .37335206 .18099976 .34535218H.17999268V.4423828L.034988405 .43066407V.3996582C.102996829 .3996582 .11199951 .39266969 .11199951 .34370423V.07695007C.11199951 .0309906 .100997928 .0309906 .034988405 .0309906V0C.08198547 .0019989014 .100997928 .0029907227 .14898682 .0029907227 .19699097 .0029907227 .20999146 .0019989014 .2630005 0V.0309906C.19699097 .0309906 .18598938 .0309906 .18598938 .07695007V.25878907C.18598938 .36532594 .26098634 .41737367 .32398988 .41737367 .3829956 .41737367 .3959961 .3683319 .3959961 .30825807V.077041629C.3959961 .0309906 .3849945 .0309906 .31900025 .0309906V0C.3659973 .0019989014 .3849945 .0029907227 .43299867 .0029907227 .48098756 .0029907227 .49398805 .0019989014 .5469971 0Z"/>
<path id="font_1_45" d="M.20698548 .0019989014C.20698548 .070999149 .18099976 .10798645 .14199829 .10798645 .10699463 .10798645 .08799744 .08099365 .08799744 .053985597 .08799744 .026992798 .10699463 0 .14199829 0 .16699219 0 .18199158 .015991211 .18199158 .015991211 .18199158-.017044068 .18199158-.09919739 .10598755-.17132569 .101989749-.17633057 .101989749-.18135071 .101989749-.18135071 .101989749-.18635559 .10798645-.19335938 .114990238-.19335938 .12599182-.19335938 .20698548-.1162262 .20698548 .0019989014Z"/>
<path id="font_2_4" d="M.94699099 .6056366C.95599368 .64260867 .95899966 .6516113 1.0369873 .6516113 1.0529938 .6516113 1.0639954 .6516113 1.0639954 .6696167 1.0639954 .6826172 1.0540009 .6826172 1.0349884 .6826172H.9039917C.8789978 .6826172 .875 .6826172 .86299136 .66360476L.49398805 .093948367 .41099549 .6566162C.40699769 .6826172 .4059906 .6826172 .37799073 .6826172H.24099732C.22299195 .6826172 .21099854 .6826172 .21099854 .6646118 .21099854 .6516113 .22099304 .6516113 .24099732 .6516113 .24499512 .6516113 .2630005 .6516113 .2789917 .6496124 .2979889 .6476135 .30299378 .64460757 .30299378 .63461306 .30299378 .6296234 .3019867 .6256256 .29899598 .614624L.17199707 .10594177C.15899658 .053985597 .1309967 .033996583 .06498718 .0309906 .06199646 .0309906 .04798889 .02999878 .04798889 .0129852299 .04798889 .010986328 .04798889 0 .06199646 0 .07398987 0 .09899902 .0009918213 .11199951 .0019989014 .12799073 .0029907227 .12998963 .0029907227 .1619873 .0029907227 .18699646 .0029907227 .18899536 .0029907227 .21299744 .0019989014 .22898865 .0019989014 .25 0 .2649994 0 .269989 0 .2829895 0 .2829895 .017990113 .2829895 .02999878 .27198792 .0309906 .2630005 .0309906 .21598816 .03199768 .19799805 .04698181 .19799805 .07395935 .19799805 .080963138 .19898987 .081954959 .20199585 .095947269L.33699037 .6396179H.33799745L.42900086 .025985718C.43099977 .009994507 .43299867 0 .44599916 0 .45799256 0 .46398927 .009994507 .46998597 .018997193L.8769989 .64660647H.8779907L.7350006 .07595825C.7259979 .039993287 .723999 .0309906 .6489868 .0309906 .6309967 .0309906 .61898806 .0309906 .61898806 .0129852299 .61898806 .0039978029 .6259918 0 .6339874 0 .6459961 0 .68499758 .0009918213 .69699099 .0019989014 .71199038 .0029907227 .7369995 .0029907227 .7569885 .0029907227 .7599945 .0029907227 .7999878 .0019989014 .82099917 .0019989014 .84098818 .0019989014 .86299136 0 .8819885 0 .8880005 0 .901001 0 .901001 .017990113 .901001 .0309906 .8909912 .0309906 .8699951 .0309906 .8659973 .0309906 .84799197 .0309906 .83200076 .032989503 .80999758 .035995485 .8089905 .039993287 .8089905 .048980714 .8089905 .05796814 .8109894 .065963748 .8129883 .07296753L.94699099 .6056366Z"/>
<path id="font_3_1" d="M.86898806 .24998474C.86898806 .4647827 .69499209 .6386719 .48098756 .6386719 .2669983 .6386719 .09298706 .4647827 .09298706 .24998474 .09298706 .035186769 .2669983-.13867188 .48098756-.13867188 .69499209-.13867188 .86898806 .035186769 .86898806 .24998474M.48098756-.10168457C.2869873-.10168457 .12998963 .05517578 .12998963 .24998474 .12998963 .44480897 .2869873 .6016693 .48098756 .6016693 .6749878 .6016693 .83200076 .44480897 .83200076 .24998474 .83200076 .05517578 .6749878-.10168457 .48098756-.10168457M.55999758 .24998474C.55999758 .2929535 .5239868 .32891847 .48098756 .32891847 .43798829 .32891847 .4019928 .2929535 .4019928 .24998474 .4019928 .20703125 .43798829 .17106629 .48098756 .17106629 .5239868 .17106629 .55999758 .20703125 .55999758 .24998474Z"/>
<path id="font_4_1" d="M.3880005 .6125946C.39698792 .64660647 .397995 .6496124 .43899537 .6496124H.519989C.60198977 .6496124 .67900088 .6286011 .67900088 .54756167 .67900088 .50354006 .6559906 .4335022 .6100006 .40048219 .56199648 .36647035 .5049896 .35546876 .44699098 .35546876H.32398988L.3880005 .6125946M.55799868 .33946229C.68099978 .37046815 .7769928 .44551087 .7769928 .5305481 .7769928 .6175995 .67900088 .6826172 .5399933 .6826172H.24499512C.22698975 .6826172 .21398926 .6826172 .21398926 .66360476 .21398926 .6496124 .22698975 .6496124 .24299622 .6496124 .27598573 .6496124 .30499269 .6496124 .30499269 .63360598 .30499269 .6295929 .3039856 .6286011 .30099488 .6156006L.16699219 .0789032C.1579895 .040985109 .1559906 .032989503 .08198547 .032989503 .06298828 .032989503 .050994874 .032989503 .050994874 .01399231 .050994874 .009994507 .053985597 0 .066986087 0 .085998538 0 .10899353 .0019989014 .1289978 .0029907227H.19099427C.28399659 .0029907227 .31298829 0 .31900025 0 .32499696 0 .33898927 0 .33898927 .018997193 .33898927 .032989503 .32598878 .032989503 .30899049 .032989503 .30599977 .032989503 .28799439 .032989503 .2709961 .034988405 .25 .036987306 .24798584 .039978029 .24798584 .048965455 .24798584 .053955079 .25 .059936525 .25099183 .064941409L.31599427 .3274536H.44599916C.5359955 .3274536 .56399539 .27946473 .56399539 .23847962 .56399539 .22447205 .5569916 .19648743 .5519867 .17547608 .5439911 .14648438 .5339966 .10649109 .5339966 .08850098 .5339966 .011505127 .59999087-.021484375 .673996-.021484375 .7609863-.021484375 .8019867 .07649231 .8019867 .0954895 .8019867 .099487308 .798996 .10949707 .7859955 .10949707 .7749939 .10949707 .7719879 .100494388 .7709961 .09649658 .7489929 .027511597 .70599368 .006515503 .6769867 .006515503 .6399994 .006515503 .6359863 .034500123 .6359863 .06750488 .6359863 .100494388 .6419983 .14448548 .6459961 .17749024 .6499939 .20747376 .6499939 .21347046 .6499939 .22348023 .6499939 .28346253 .61099246 .3184662 .55799868 .33946229Z"/>
<path id="font_5_28" d="M.5139923 .09020996V.14530945H.48298646V.09020996C.48298646 .0491333 .46798707 .033111574 .44699098 .033111574 .4099884 .033111574 .4099884 .079193118 .4099884 .09020996V.29856874C.4099884 .39653016 .31498719 .44628907 .22399903 .44628907 .14099121 .44628907 .066986087 .4143219 .066986087 .34857179 .066986087 .318573 .08799744 .30056764 .11399841 .30056764 .14199829 .30056764 .16099549 .3205719 .16099549 .3475647 .16099549 .37156678 .1459961 .38856507 .12399292 .3935547 .16099549 .41827394 .21499634 .41827394 .22200012 .41827394 .27799989 .41827394 .33399964 .37957765 .33399964 .29756166V.26651C.27598573 .26350404 .20899964 .26049806 .13899231 .23144531 .050994874 .1933899 .033996583 .13528443 .033996583 .10223389 .033996583 .016220093 .1349945-.009765625 .20399475-.009765625 .2769928-.009765625 .32199098 .031219483 .34399415 .07122803 .34899903 .033111574 .375-.0048828127 .4189911-.0048828127 .42900086-.0048828127 .5139923-.00088500979 .5139923 .09010315V.09020996M.33399964 .14111328C.33399964 .04421997 .2519989 .018234253 .21199036 .018234253 .1599884 .018234253 .115997318 .053222658 .115997318 .10122681 .115997318 .16722107 .17799378 .23522949 .33399964 .24023438V.14111328Z"/>
<path id="font_5_43" d="M.44099427 .12031555C.44099427 .13232422 .42799378 .13232422 .4249878 .13232422 .41799928 .13232422 .41299439 .13131714 .4099884 .12130737 .40299989 .10029602 .375 .021224976 .2749939 .021224976 .21299744 .021224976 .12399292 .0692749 .12399292 .21739197 .12399292 .3614807 .19799805 .4152832 .2709961 .4152832 .27999879 .4152832 .33299256 .4152832 .36799623 .39746095 .33999635 .3884735 .33599855 .36547853 .33599855 .35346986 .33599855 .32647706 .35499574 .30647279 .3829956 .30647279 .40899659 .30625917 .42999269 .32426454 .42999269 .35427857 .42999269 .41627503 .3619995 .44628907 .2679901 .44628907 .1289978 .44628907 .034988405 .3352661 .034988405 .21624756 .034988405 .0892334 .13899231-.009765625 .2649994-.009765625 .4059906-.009765625 .44099427 .10824585 .44099427 .12023926V.12031555Z"/>
<path id="font_5_105" d="M.35299684 .1250763V.1809845H.32199098V.12705994C.32199098 .058166505 .29100038 .021224976 .25299073 .021224976 .18598938 .021224976 .18598938 .10710144 .18598938 .12307739V.3976593H.33499146V.43066407H.18598938V.6142578H.15499878C.1539917 .52345278 .11299133 .4286499 .019989014 .42565919V.3976593H.10998535V.1250763C.10998535 .008224487 .19999695-.009765625 .24598694-.009765625 .31298829-.010009766 .35299684 .049987794 .35299684 .125V.1250763Z"/>
<path id="font_5_109" d="M.56199648 .00022888184V.033233644C.49398805 .033233644 .48599244 .040237428 .48599244 .08924866V.44140626L.33399964 .43040467V.3973999C.4019928 .3973999 .4099884 .39039613 .4099884 .34136964V.16726685C.4099884 .08125305 .35798646 .018234253 .2829895 .018234253 .19699097 .018234253 .19299317 .06123352 .19299317 .11126709V.44140626L.040985109 .43040467V.3973999C.116989139 .3973999 .116989139 .39439393 .116989139 .30534364V.15527344C.116989139 .08325195 .116989139-.009765625 .2769928-.009765625 .37098695-.009765625 .40699769 .0622406 .4119873 .071243289H.41299439V-.009765625L.56199648 .00022888184Z"/>
<path id="font_5_72" d="M.2669983 0V.032989503C.20298767 .032989503 .19099427 .032989503 .19099427 .07801819V.69433596L.041992189 .6826172V.6496124C.10998535 .6496124 .117996219 .64260867 .117996219 .5936432V.07795715C.117996219 .032989503 .10598755 .032989503 .041992189 .032989503V0C.08099365 .0029907227 .13699341 .0029907227 .1539917 .0029907227 .17399597 .0029907227 .22799683 .0029907227 .2669983 0Z"/>
<path id="font_5_98" d="M.3829956 .12924195C.3829956 .1772461 .35398866 .24725342 .23498535 .2692566 .22698975 .2712555 .17098999 .28126527 .16699219 .28126527 .13598633 .28826905 .08898926 .30926515 .08898926 .34927369 .08898926 .37927247 .11099243 .4212799 .20599365 .4212799 .31799317 .4212799 .32299806 .33926393 .32499696 .31126405 .32598878 .30326844 .33299256 .30026246 .33999635 .30026246 .35598756 .30026246 .35598756 .30726625 .35598756 .32626344V.4202881C.35598756 .4362793 .35598756 .44628907 .34298707 .44628907 .33799745 .44628907 .33499146 .44628907 .31900025 .4302826 .31698609 .4292755 .30799867 .4202881 .30499269 .4202881 .30499269 .4202881 .3019867 .4202881 .29599 .4242859 .27999879 .43528749 .25099183 .44628907 .20599365 .44628907 .06599426 .44628907 .034988405 .37026979 .034988405 .32226563 .034988405 .27226258 .07199097 .24325562 .07499695 .24024964 .114990238 .21025086 .13798523 .20625305 .20498657 .19424439 .2519989 .18525696 .32899476 .17124939 .32899476 .10324097 .32899476 .0642395 .30299378 .018234253 .21099854 .018234253 .10998535 .018234253 .08099365 .09623718 .067993167 .14924622 .06399536 .1622467 .06298828 .16725159 .050994874 .16725159 .034988405 .16725159 .034988405 .15924073 .034988405 .14024353V.016220093C.034988405 .00022888184 .034988405-.009765625 .04798889-.009765625 .053985597-.009765625 .054992677-.008773804 .07299805 .010223389 .07798767 .0152282719 .08898926 .02822876 .09399414 .033233644 .13899231-.0077667238 .18598938-.009765625 .21199036-.009765625 .33898927-.009765625 .3829956 .06323242 .3829956 .12924195Z"/>
<path id="font_5_96" d="M.38398744 .3784027C.38398744 .4133911 .35198976 .44140626 .30799867 .44140626 .24299622 .44140626 .19898987 .39239503 .17799378 .33639527H.1769867V.44140626L.034988405 .43045045V.39746095C.102996829 .39746095 .11099243 .3904419 .11099243 .3413849V.078048709C.11099243 .032989503 .09899902 .032989503 .034988405 .032989503V0C.07398987 .0029907227 .1289978 .0029907227 .15299988 .0029907227 .21199036 .0029907227 .21398926 .0029907227 .2789917 0V.032989503H.25898744C.18598938 .032989503 .18399048 .044006349 .18399048 .08004761V.22824097C.18399048 .30332948 .21499634 .41145326 .31098939 .41345216 .30499269 .40899659 .29499818 .40098573 .29499818 .37799073 .29499818 .34700013 .31900025 .33299256 .33898927 .33299256 .36299134 .33299256 .38398744 .34899903 .38398744 .37799073V.3784027Z"/>
<path id="font_5_49" d="M.69200137 .25993348H.6609955C.6349945 .10997009 .6139984 .032989503 .43399049 .032989503H.2849884C.23899842 .032989503 .23699951 .039993287 .23699951 .07397461V.33691407H.33399964C.43299867 .33691407 .44699098 .30691529 .44699098 .21994019H.47799684V.4868164H.44699098C.44699098 .39988709 .43299867 .36990357 .33399964 .36990357H.23699951V.6057129C.23699951 .63967898 .23899842 .64668276 .2849884 .64668276H.4269867C.59298709 .64668276 .6139984 .5867157 .6319885 .45277406H.6629944L.6339874 .6796875H.04399109V.64668276H.06599426C.14299011 .64668276 .14498902 .63568118 .14498902 .5987091V.080963138C.14498902 .04399109 .14299011 .032989503 .06599426 .032989503H.04399109V0H.647995L.69200137 .25993348Z"/>
<path id="font_5_63" d="M.56199648 0V.032989503C.49798585 .032989503 .48599244 .032989503 .48599244 .07814026V.30371095C.48599244 .38746644 .44799806 .44140626 .34298707 .44140626 .25498963 .44140626 .20899964 .3854828 .19099427 .3535614H.18998719V.69433596L.040985109 .6826172V.6496124C.10899353 .6496124 .116989139 .64263918 .116989139 .5938263V.07814026C.116989139 .032989503 .10499573 .032989503 .040985109 .032989503V0C.083999637 .0029907227 .12799073 .0029907227 .15499878 .0029907227 .18399048 .0029907227 .22599793 .0029907227 .2689972 0V.032989503C.20498657 .032989503 .19299317 .032989503 .19299317 .07814026V.2597046C.19299317 .36453248 .272995 .4133911 .33399964 .4133911 .394989 .4133911 .4099884 .37051393 .4099884 .30769349V.07814026C.4099884 .032989503 .397995 .032989503 .33399964 .032989503V0C.3769989 .0029907227 .42099 .0029907227 .44799806 .0029907227 .47698976 .0029907227 .5189972 .0029907227 .56199648 0Z"/>
<path id="font_5_81" d="M.5 .21325684C.5 .3382721 .39698792 .44628907 .2649994 .44628907 .1329956 .44628907 .02999878 .3382721 .02999878 .21325684 .02999878 .08824158 .13699341-.009765625 .2649994-.009765625 .3939972-.009765625 .5 .08824158 .5 .21325684M.41099549 .22225952C.41099549 .17625427 .40899659 .12124634 .3809967 .07923889 .35398866 .039230348 .30899049 .021224976 .2649994 .021224976 .21099854 .021224976 .16899109 .047225954 .14698792 .082229617 .12199402 .12324524 .11898804 .17224121 .11898804 .22225952 .11898804 .2602539 .11898804 .32026673 .1499939 .363266 .17599488 .3982849 .21798706 .41827394 .2649994 .41827394 .31698609 .41827394 .3600006 .39328004 .3829956 .35827638 .4099884 .31626893 .41099549 .2622528 .41099549 .22225952Z"/>
<path id="font_5_35" d="M.55400088 .21650696C.55400088 .3425293 .45098878 .44140626 .32899476 .44140626 .25 .44140626 .20098877 .39845277 .18399048 .38053895V.69433596L.034988405 .68333438V.6503296C.102996829 .6503296 .11099243 .6433258 .11099243 .5943451V.00048828127H.14199829L.17799378 .0625C.20199585 .02822876 .24899292-.009765625 .31698609-.009765625 .44400025-.009765625 .55400088 .08828735 .55400088 .21640015V.21650696M.46499635 .21740723C.46499635 .19438172 .46499635 .12332153 .42900086 .07627869 .3929901 .031234742 .34599305 .018234253 .31298829 .018234253 .2649994 .018234253 .22499085 .04324341 .19898987 .08229065 .18699646 .1013031 .18699646 .10231018 .18699646 .12132263V.3164978C.18699646 .33551026 .18699646 .3375244 .20199585 .3555298 .23098755 .39248658 .27799989 .4133911 .32299806 .4133911 .375 .4133911 .4139862 .38252259 .43399049 .35253907 .45098878 .3255005 .46499635 .29048158 .46499635 .21740723Z"/>
<path id="font_5_50" d="M.44099427 .12036133C.44099427 .12435913 .43798829 .13438416 .4249878 .13438416 .4139862 .13438416 .4119873 .12736511 .4099884 .12136841 .37399293 .024230957 .28799439 .021224976 .269989 .021224976 .22499085 .021224976 .1789856 .042251588 .14898682 .08831787 .11898804 .13438416 .11898804 .19847107 .11898804 .22851563H.41299439C.43499757 .22851563 .44099427 .22851563 .44099427 .25151063 .44099427 .34039308 .3919983 .44628907 .25099183 .44628907 .1269989 .44628907 .02999878 .3433838 .02999878 .21949768 .02999878 .09031677 .13798523-.009765625 .2639923-.009765625 .3909912-.009765625 .44099427 .097335819 .44099427 .12036133M.37298585 .25450135H.11999512C.1289978 .39431764 .21398926 .41827394 .25099183 .41827394 .36799623 .41827394 .37199403 .27748109 .37298585 .25450135Z"/>
<path id="font_5_112" d="M.5379944 .3976593V.43066407C.5029907 .42765809 .5009918 .42765809 .45999146 .42765809 .45098878 .42765809 .4039917 .42765809 .37298585 .43066407V.3976593C.4079895 .3956604 .4169922 .37368775 .4169922 .35671998 .4169922 .34672547 .4149933 .34173585 .41099549 .3327484L.30299378 .081100467 .18499756 .3517151C.1789856 .36470033 .1789856 .37269593 .1789856 .37269593 .1789856 .3976593 .21499634 .3976593 .23199463 .3976593V.43066407C.18899536 .42765809 .14199829 .42765809 .12298584 .42765809 .101989749 .42765809 .053985597 .42765809 .021987915 .43066407V.3976593C.08299255 .3976593 .08799744 .3916626 .102996829 .3577118L.25299073 .012191772C.2599945-.0027770997 .2659912-.009765625 .27999879-.009765625 .2939911-.009765625 .30099488-.0017852783 .30599977 .010192871L.44299317 .3277588C.46699525 .38368226 .5009918 .39665223 .5379944 .3976593Z"/>
<path id="font_5_84" d="M.55400088 .21640015C.55400088 .34140016 .45298768 .44140626 .33198548 .44140626 .29299928 .44140626 .23498535 .43139649 .18399048 .37939454V.44140626L.034988405 .43045045V.39746095C.10598755 .39746095 .11099243 .39144898 .11099243 .34947206V-.1159668C.11099243-.16113281 .09899902-.16113281 .034988405-.16113281V-.19413758C.07798767-.19114685 .12199402-.19114685 .14898682-.19114685 .17799378-.19114685 .21998596-.19114685 .2630005-.19413758V-.16113281C.19898987-.16113281 .18699646-.16113281 .18699646-.1159668V.049545289C.23399353-.0017700195 .2849884-.009765625 .31698609-.009765625 .44400025-.009765625 .55400088 .088256839 .55400088 .2163086V.21640015M.46499635 .2163086C.46499635 .101257327 .3929901 .018234253 .31199647 .018234253 .2769928 .018234253 .23098755 .033233644 .19898987 .08325195 .18699646 .1002655 .18699646 .101257327 .18699646 .120269779V.33335877C.20999146 .37338258 .2599945 .4104004 .32299806 .4104004 .3999939 .4104004 .46499635 .32536317 .46499635 .2163086Z"/>
<path id="font_5_77" d="M.56199648 0V.032989503C.49798585 .032989503 .48599244 .032989503 .48599244 .07803345V.3032837C.48599244 .38737489 .44799806 .44140626 .34298707 .44140626 .24398804 .44140626 .19898987 .36935426 .18699646 .34532167H.18598938V.44140626L.040985109 .43045045V.39746095C.10899353 .39746095 .116989139 .3904419 .116989139 .3413849V.078048709C.116989139 .032989503 .10499573 .032989503 .040985109 .032989503V0C.083999637 .0029907227 .12799073 .0029907227 .15499878 .0029907227 .18399048 .0029907227 .22599793 .0029907227 .2689972 0V.032989503C.20498657 .032989503 .19299317 .032989503 .19299317 .078048709V.25927735C.19299317 .36434938 .272995 .4133911 .33399964 .4133911 .394989 .4133911 .4099884 .37036134 .4099884 .3072815V.07803345C.4099884 .032989503 .397995 .032989503 .33399964 .032989503V0C.3769989 .0029907227 .42099 .0029907227 .44799806 .0029907227 .47698976 .0029907227 .5189972 .0029907227 .56199648 0Z"/>
<path id="font_5_66" d="M.2599945 .0001373291V.03314209C.19499207 .03314209 .19099427 .038146974 .19099427 .07714844V.44140626L.04499817 .43045045V.39746095C.10899353 .39746095 .117996219 .39144898 .117996219 .34239198V.07814026C.117996219 .03314209 .10598755 .03314209 .041992189 .03314209V0C.08099365 .0029907227 .13699341 .0029907227 .1519928 .0029907227 .16499329 .0029907227 .22499085 .0029907227 .2599945 0V.0001373291M.20298767 .6021881C.20298767 .6351929 .1769867 .6582031 .147995 .6582031 .11898804 .6582031 .09298706 .6351929 .09298706 .6021881 .09298706 .5731964 .115997318 .54719546 .147995 .54719546 .1789856 .54719546 .20298767 .5731964 .20298767 .6021881Z"/>
<path id="font_4_2" d="M.24398804 .66430667C.24499512 .66630557 .24798584 .67930606 .24798584 .68029788 .24798584 .68530276 .24398804 .6943054 .23199463 .6943054 .22799683 .6943054 .19699097 .69129946 .17399597 .68930056L.117996219 .68530276C.09599304 .68330386 .085998538 .682312 .085998538 .66430667 .085998538 .6502991 .099990848 .6502991 .11199951 .6502991 .1599884 .6502991 .1599884 .64430239 .1599884 .63531497 .1599884 .62931826 .1499939 .5893402 .14399719 .5663452L.056991579 .2183075C.04899597 .18429566 .04899597 .16929627 .04899597 .15228272 .04899597 .049240114 .11199951-.009765625 .18899536-.009765625 .31199647-.009765625 .43998719 .13227844 .43998719 .27734376 .43998719 .37638856 .37599183 .44140626 .29599 .44140626 .23999024 .44140626 .19699097 .4053955 .1749878 .38638307L.24398804 .66430667M.18899536 .018234253C.15299988 .018234253 .116989139 .04623413 .116989139 .119277957 .116989139 .14628601 .12098694 .17129517 .1329956 .21931458 .13999939 .24832154 .14698792 .27633668 .15499878 .3053589 .1599884 .32336427 .1599884 .32536317 .17199707 .34036256 .20599365 .38238526 .25099183 .4133911 .29299928 .4133911 .34298707 .4133911 .3619995 .36437989 .3619995 .3193512 .3619995 .28234864 .33999635 .17529297 .30999757 .11627197 .28399659 .0622406 .23599243 .018234253 .18899536 .018234253Z"/>
<path id="font_6_1" d="M.7659912 .46887208C.7659912 .49987794 .7549896 .50387576 .75 .50387576 .7409973 .50387576 .7350006 .49087525 .73399356 .47787477 .73298647 .45687867 .7299957 .42488099 .6899872 .39190675 .6609955 .368927 .6239929 .35794068 .58898928 .35794068 .526001 .35794068 .47099305 .39390565 .4189911 .42887879 .35798646 .46987916 .30299378 .5048828 .23599243 .5048828 .1329956 .5048828 .05899048 .42488099 .05899048 .3299408 .05899048 .29893495 .069992069 .29493714 .07499695 .29493714 .08898926 .29493714 .09098816 .3209381 .09098816 .3269348 .09498596 .39091493 .1619873 .4408722 .23599243 .4408722 .29899598 .4408722 .35398866 .40490724 .4059906 .36993409 .46699525 .32893373 .5219879 .2939453 .58898928 .2939453 .69200137 .2939453 .7659912 .37393189 .7659912 .46887208M.7659912 .21496582C.7659912 .2449646 .7549896 .24996948 .75 .24996948 .7409973 .24996948 .7350006 .236969 .73399356 .2239685 .73298647 .20297241 .7299957 .17097473 .6899872 .13800049 .6609955 .11502075 .6239929 .104034427 .58898928 .104034427 .526001 .104034427 .47099305 .13999939 .4189911 .17497254 .35798646 .2159729 .30299378 .25097657 .23599243 .25097657 .1329956 .25097657 .05899048 .17097473 .05899048 .076034549 .05899048 .045028688 .069992069 .041030885 .07499695 .041030885 .08898926 .041030885 .09098816 .06703186 .09098816 .073028568 .09498596 .13700867 .1619873 .18696594 .23599243 .18696594 .29899598 .18696594 .35398866 .15100098 .4059906 .11602783 .46699525 .075027469 .5219879 .040039064 .58898928 .040039064 .69200137 .040039064 .7659912 .120025638 .7659912 .21496582Z"/>
<path id="font_2_1" d="M.4909973 .23532105C.4909973 .3843689 .40098573 .4423828 .31599427 .4423828 .17999268 .4423828 .042999269 .30433656 .042999269 .16029358 .042999269 .057266237 .11299133-.0107421879 .20999146-.0107421879 .31799317-.0107421879 .3999939 .053268434 .42599488 .073272708 .43899537 .023254395 .47200013-.0107421879 .5209961-.0107421879 .57499697-.0107421879 .60798647 .042251588 .60798647 .060272218 .60798647 .0712738 .5970001 .0712738 .59399417 .0712738 .58299258 .0712738 .58200076 .06726074 .57899478 .058258058 .56799319 .029251099 .5419922 .014251709 .5239868 .014251709 .49198915 .014251709 .49198915 .103271488 .49198915 .123291019 .49198915 .1362915 .49198915 .1382904 .5009918 .14929199 .5179901 .17030335 .54499819 .205307 .57099917 .2563324 .6009979 .31533814 .61698916 .37635804 .61698916 .38237 .61698916 .38336183 .61698916 .39337159 .60398867 .39337159 .59199526 .39337159 .59199526 .3903656 .58699038 .37435914 .57699587 .33935548 .55400088 .26333619 .4909973 .17930603V.23532105M.42099 .10227966C.3959961 .08126831 .31498719 .014251709 .21299744 .014251709 .15699768 .014251709 .11999512 .051254274 .11999512 .123291019 .11999512 .16630554 .13899231 .26533509 .1789856 .3293457 .20498657 .37036134 .2579956 .41737367 .31599427 .41737367 .3829956 .41737367 .40499879 .35736085 .4139862 .29733277 .42199708 .24331665 .41600038 .14729309 .42099 .10227966Z"/>
<path id="font_7_5" d="M.70799258 .3310089C.7220001 .3310089 .7409973 .3310089 .7409973 .35202027 .7409973 .37402345 .71899417 .37402345 .70399478 .37402345H.09399414C.07899475 .37402345 .056991579 .37402345 .056991579 .35202027 .056991579 .3310089 .07699585 .3310089 .08999634 .3310089H.70799258M.70399478 .12695313C.71899417 .12695313 .7409973 .12695313 .7409973 .14894104 .7409973 .1699524 .7220001 .1699524 .70799258 .1699524H.08999634C.07699585 .1699524 .056991579 .1699524 .056991579 .14894104 .056991579 .12695313 .07899475 .12695313 .09399414 .12695313H.70399478Z"/>
<path id="font_7_2" d="M.0289917 .19602967V.16503906H.3019867V.07901001C.3019867 .041992189 .29899598 .0309906 .22399903 .0309906H.20199585V0C.2649994 .0029907227 .33499146 .0029907227 .34199525 .0029907227 .34700013 .0029907227 .4189911 .0029907227 .48199464 0V.0309906H.45999146C.3849945 .0309906 .38198854 .041992189 .38198854 .07901001V.16503906H.48399354V.19602967H.38198854V.64974978C.38198854 .669754 .38198854 .6767578 .36299134 .6767578 .35099793 .6767578 .34999085 .67575076 .34098817 .66174319L.0289917 .19602967M.06098938 .19602967 .30799867 .56581118V.19602967H.06098938Z"/>
<path id="font_2_3" d="M.7739868 .67807009C.7769928 .6900635 .7769928 .69207766 .7769928 .69407656 .7769928 .69506838 .776001 .7050781 .7649994 .7050781 .7589874 .7050781 .7559967 .70207217 .7489929 .69407656L.6879883 .6269989C.6839905 .62197878 .6799927 .61798098 .67900088 .61798098 .6779938 .61798098 .6769867 .61898806 .67099 .6259918 .6559906 .6460266 .61099246 .7050781 .5069885 .7050781 .27799989 .7050781 .050994874 .48275758 .050994874 .25442506 .050994874 .0974884 .16299439-.022460938 .33299256-.022460938 .44699098-.022460938 .522995 .026519776 .5499878 .06150818 .55799868 .038513185 .58399966 .0005340576 .59599307 .0005340576 .60398867 .0005340576 .60598757 .0055389406 .61099246 .025527955L.6299896 .102493289C.6369934 .12948609 .6469879 .17045594 .6519928 .1924591 .6649933 .23942566 .6649933 .24142456 .72299197 .24243164 .72698977 .24243164 .73999026 .24342346 .73999026 .260437 .73999026 .26142884 .73999026 .2734375 .7259979 .2734375 .71798709 .2734375 .6799927 .27142335 .6729889 .27043153H.6159973C.59298709 .27043153 .56900027 .27142335 .5469971 .27142335 .522995 .27142335 .49699403 .2734375 .47399903 .2734375 .46499635 .2734375 .45298768 .2734375 .45298768 .25543214 .45298768 .24243164 .46199037 .24243164 .4869995 .24243164 .5089874 .24243164 .5139923 .24243164 .5389862 .24043274 .56599429 .23742676 .57099917 .23443604 .57099917 .22143555 .57099917 .21743775 .57099917 .21543885 .56399539 .1904602 .5569916 .1614685 .54499819 .113479617 .5419922 .10548401 .5079956 .03251648 .41099549 .008529663 .34899903 .008529663 .26098634 .008529663 .14498902 .056503297 .14498902 .22044373 .14498902 .2824402 .1659851 .42967225 .2599945 .54486086 .31900025 .6169739 .41799928 .67407229 .5139923 .67407229 .625 .67407229 .6839905 .5889282 .6839905 .47875978 .6839905 .44470216 .68099978 .43769837 .68099978 .42967225 .68099978 .4186554 .69299319 .4186554 .69599917 .4186554 .70899966 .4186554 .70899966 .42066957 .71398928 .43969728L.7739868 .67807009Z"/>
<path id="font_2_6" d="M.23899842 .6603241C.24299622 .67433169 .24299622 .67633059 .24299622 .68032839 .24299622 .68933108 .23699951 .69433596 .22799683 .69433596 .21398926 .69433596 .12599182 .6863251 .10598755 .6843262 .09599304 .68333438 .084991458 .6823273 .084991458 .665329 .084991458 .6523285 .09599304 .6523285 .11199951 .6523285 .15899658 .6523285 .15899658 .6453247 .15899658 .6363373 .15899658 .6303406 .15899658 .6283264 .1519928 .6013336L.09899902 .3903656C.084991458 .3343506 .07199097 .28334046 .06098938 .23631287 .053985597 .21131897 .04699707 .18130493 .04699707 .14929199 .04699707 .06326294 .09498596-.0107421879 .18099976-.0107421879 .2979889-.0107421879 .42599488 .13027954 .42599488 .28033448 .42599488 .38237 .36299134 .4423828 .28799439 .4423828 .23699951 .4423828 .19299317 .40737916 .16999817 .38536073L.23899842 .6603241M.1559906 .32835389C.18399048 .36836244 .23498535 .41737367 .28599549 .41737367 .33299256 .41737367 .35198976 .37036134 .35198976 .323349 .35198976 .27833558 .32398988 .15429688 .29299928 .10127258 .2559967 .037261964 .21199036 .014251709 .18099976 .014251709 .1309967 .014251709 .11099243 .06427002 .11099243 .11528015 .11099243 .15029907 .117996219 .17730713 .14099121 .2683258L.1559906 .32835389Z"/>
<path id="font_2_7" d="M.4019928 .38200379C.3639984 .38101197 .34399415 .352005 .34399415 .3270111 .34399415 .29800416 .36999513 .29101563 .38198854 .29101563 .4019928 .29101563 .43798829 .30801393 .43798829 .355011 .43798829 .40827943 .3849945 .4423828 .31599427 .4423828 .17999268 .4423828 .042999269 .30400086 .042999269 .16012573 .042999269 .06021118 .10998535-.0107421879 .21099854-.0107421879 .36099244-.0107421879 .44499208 .093185428 .44499208 .106170658 .44499208 .11216736 .43798829 .120162967 .43099977 .120162967 .42599488 .120162967 .4249878 .119155887 .41600038 .108169559 .35598756 .034225465 .2649994 .014251709 .21299744 .014251709 .15699768 .014251709 .11999512 .051223756 .11999512 .12315369 .11999512 .16612244 .13899231 .2650299 .1789856 .32901 .20199585 .3650055 .2539978 .41737367 .31698609 .41737367 .33599855 .41737367 .37799073 .41333009 .4019928 .38200379Z"/>
<path id="font_8_1" d="M.5379944 .18702698H.5009918C.49899293 .17301941 .4889984 .10699463 .47399903 .09599304 .46699525 .08999634 .38598634 .08999634 .37199403 .08999634H.18499756L.31298829 .19403076C.34700013 .22103882 .43598939 .28504945 .46699525 .31506349 .49699403 .3450775 .5379944 .39608766 .5379944 .46710206 .5379944 .5920563 .4249878 .66503909 .29100038 .66503909 .1619873 .66503909 .07199097 .58006289 .07199097 .48609925 .07199097 .43510438 .114990238 .42910768 .12599182 .42910768 .15098572 .42910768 .17999268 .44709779 .17999268 .48310853 .17999268 .50509646 .16699219 .5371094 .12298584 .5371094 .1459961 .5880585 .20698548 .6260376 .27598573 .6260376 .3809967 .6260376 .43699647 .5480957 .43699647 .46710206 .43699647 .39608766 .3899994 .32305909 .31999208 .25904847L.08299255 .041992189C.07299805 .03199768 .07199097 .0309906 .07199097 0H.5069885L.5379944 .18702698Z"/>
<path id="font_9_1" d="M.7409973 .46012879C.7409973 .48612977 .7319946 .49313355 .7259979 .49313355 .71499636 .49313355 .71199038 .47312928 .71099856 .46913148 .70899966 .44613648 .70700076 .41410829 .6619873 .38105775 .6389923 .36302186 .6049957 .35101319 .56999209 .35101319 .5139923 .35101319 .46499635 .37904359 .40499879 .42010499 .34298707 .4621277 .29100038 .49414063 .22799683 .49414063 .12799073 .49414063 .056991579 .4151001 .056991579 .3250122 .056991579 .29901124 .06599426 .29200746 .07199097 .29200746 .08198547 .29200746 .085998538 .31001283 .08699036 .31600953 .08799744 .33700563 .08999634 .3710327 .13598633 .40408326 .15899658 .42211915 .19299317 .4341278 .22799683 .4341278 .28399659 .4341278 .33399964 .40509034 .3919983 .36602784 .45700074 .3210144 .5079956 .29101563 .56999209 .29101563 .66999819 .29101563 .7409973 .3700409 .7409973 .46012879M.7409973 .21696472C.7409973 .2409668 .73298647 .24996948 .7259979 .24996948 .71499636 .24996948 .71199038 .22996521 .71099856 .2259674 .70899966 .20297241 .70700076 .17094422 .6619873 .13789368 .6359863 .11785889 .60198977 .10784912 .56999209 .10784912 .5139923 .10784912 .46499635 .13587952 .40499879 .17694092 .34298707 .21896363 .29100038 .25097657 .22799683 .25097657 .12799073 .25097657 .056991579 .17193604 .056991579 .081848148 .056991579 .055847169 .06599426 .048843385 .07199097 .048843385 .08198547 .048843385 .085998538 .066848758 .08699036 .07284546 .08799744 .09384155 .08999634 .12786865 .13598633 .16091919 .15899658 .17895508 .19299317 .19096375 .22799683 .19096375 .28399659 .19096375 .33399964 .16192627 .3919983 .12286377 .45700074 .07785034 .5079956 .047851564 .56999209 .047851564 .67099 .047851564 .7409973 .12786865 .7409973 .21696472Z"/>
<path id="font_7_1" d="M.3039856 .6392822C.3039856 .6642761 .30299378 .666275 .27799989 .666275 .21598816 .60227969 .12399292 .60227969 .09298706 .60227969V.57128909C.11199951 .57128909 .17298889 .57128909 .22698975 .5972748V.08001709C.22698975 .042999269 .22399903 .0309906 .1309967 .0309906H.09899902V0C.1349945 .0029907227 .22399903 .0029907227 .2649994 .0029907227 .30599977 .0029907227 .3959961 .0029907227 .43199159 0V.0309906H.3999939C.30699159 .0309906 .3039856 .042999269 .3039856 .08001709V.6392822Z"/>
<path id="font_2_2" d="M.19599915 .053985597C.19599915 .08299255 .17298889 .10798645 .14199829 .10798645 .11099243 .10798645 .08799744 .08299255 .08799744 .053985597 .08799744 .024993897 .11099243 0 .14199829 0 .17298889 0 .19599915 .024993897 .19599915 .053985597Z"/>
<path id="font_7_4" d="M.48999024 .60954287C.49899293 .62054446 .49899293 .62254336 .49899293 .6435547H.25C.12399292 .6435547 .12098694 .6565399 .117996219 .67555239H.08999634L.056991579 .46655274H.084991458C.08898926 .48954774 .09700012 .5455475 .10998535 .55755618 .116989139 .56355288 .19599915 .56355288 .20999146 .56355288H.41999818L.32398988 .4325409C.19400025 .25354005 .18199158 .090530399 .18199158 .03353882 .18199158 .022537232 .18199158-.022460938 .22799683-.022460938 .2749939-.022460938 .2749939 .021530152 .2749939 .03453064V.08352661C.2749939 .23054505 .29699708 .34654237 .34999085 .41854859L.48999024 .60954287Z"/>
<path id="font_7_3" d="M.10398865 .3444519C.10398865 .32641603 .10398865 .31539918 .117996219 .31539918 .12599182 .31539918 .1289978 .31941224 .1349945 .32843019 .16499329 .3704834 .21299744 .39453126 .2649994 .39453126 .37199403 .39453126 .37199403 .24029541 .37199403 .20425415 .37199403 .17324829 .37199403 .11125183 .34399415 .06637573 .31698609 .024475098 .2749939 .0055389406 .23599243 .0055389406 .1769867 .0055389406 .10998535 .042434694 .085998538 .116256717 .08699036 .116256717 .09298706 .11425781 .099990848 .11425781 .11999512 .11425781 .14898682 .12724304 .14898682 .16325379 .14898682 .19424439 .1269989 .21224976 .099990848 .21224976 .07899475 .21224976 .050994874 .20025635 .050994874 .1602478 .050994874 .069366458 .1269989-.022460938 .23799134-.022460938 .35899354-.022460938 .46199037 .0753479 .46199037 .19924927 .46199037 .3204193 .37599183 .41952516 .2669983 .41952516 .21899414 .41952516 .16999817 .40351869 .1349945 .36747743V.56477358C.16499329 .5557709 .19599915 .55078127 .22698975 .55078127 .34999085 .55078127 .42199708 .6397705 .42199708 .652771 .42199708 .6617737 .41600038 .6657715 .41099549 .6657715 .40899659 .6657715 .40699769 .6657715 .397995 .6607666 .35099793 .6417694 .30499269 .6337738 .2630005 .6337738 .21998596 .6337738 .1749878 .6417694 .1289978 .6607666 .11898804 .6657715 .116989139 .6657715 .115997318 .6657715 .10398865 .6657715 .10398865 .655777 .10398865 .6387787V.3444519Z"/>
<path id="font_3_2" d="M.31399537 .47006227C.32099916 .48506166 .32299806 .49606324 .32299806 .50205996 .32299806 .53305056 .29499818 .5590515 .2619934 .5590515 .22200012 .5590515 .20999146 .5240631 .20599365 .51005557L.06599426 .08206177C.06399536 .076049808 .06098938 .0680542 .06098938 .0640564 .06098938 .047058107 .100997928 .0390625 .101989749 .0390625 .11099243 .0390625 .114990238 .048049928 .11898804 .05606079L.31399537 .47006227Z"/>
<path id="font_1_28" d="M.49699403 .089141849V.14515686H.46899415V.090148929C.46899415 .07914734 .46899415 .029129029 .43299867 .029129029 .39698792 .029129029 .39698792 .07714844 .39698792 .09315491V.26818849C.39698792 .32521058 .39698792 .3592224 .35198976 .40022279 .31498719 .43322755 .2669983 .4482422 .21699524 .4482422 .1329956 .4482422 .06298828 .40623475 .06298828 .34220887 .06298828 .311203 .083999637 .2942047 .10998535 .2942047 .13699341 .2942047 .1559906 .31420899 .1559906 .34020997 .1559906 .3832245 .11099243 .38822938 .11099243 .38822938 .13798523 .41423036 .18598938 .42323304 .21499634 .42323304 .2659912 .42323304 .32299806 .3852234 .32299806 .29719544V.26419068C.2689972 .26219178 .19400025 .2571869 .1269989 .22518921 .054992677 .19017029 .032989503 .13816834 .032989503 .09814453 .032989503 .01625061 .12998963-.0107421879 .19699097-.0107421879 .27999879-.0107421879 .31799317 .04425049 .33198548 .072250369 .33699037 .030136109 .3659973-.005859375 .40899659-.005859375 .43399049-.005859375 .49699403 .009140015 .49699403 .08912659V.089141849M.32299806 .14112854C.32299806 .04425049 .24798584 .014251709 .20399475 .014251709 .15699768 .014251709 .11299133 .04824829 .11299133 .098236087 .11299133 .16423035 .16999817 .23422241 .32299806 .24023438V.14112854Z"/>
<path id="font_1_105" d="M.34199525 .12408447V.18099976H.31399537V.1270752C.31399537 .05319214 .2829895 .01725769 .24699402 .01725769 .17999268 .01725769 .17999268 .1051178 .17999268 .12309265V.3996582H.32499696V.43066407H.17999268V.6142578H.1519928C.15098572 .5304413 .115997318 .42765809 .018997193 .4246521V.3996582H.10598755V.12408447C.10598755 .012252808 .18699646-.0107421879 .23999024-.0107421879 .30699159-.011001587 .34199525 .052993776 .34199525 .12399292V.12408447Z"/>
<path id="font_2_5" d="M.3809967 .6125946C.3869934 .63760378 .3899994 .6476135 .4079895 .65060427 .4169922 .6516113 .44999696 .6516113 .47099305 .6516113 .5499878 .6516113 .6599884 .6516113 .6599884 .5505829 .6599884 .51356509 .644989 .4385376 .58799746 .39552308 .56399539 .3795166 .5139923 .35351563 .43299867 .35351563H.31599427L.3809967 .6125946M.5359955 .33850099C.6719971 .3735199 .7559967 .44953919 .7559967 .53157046 .7559967 .61860659 .6609955 .6826172 .5279999 .6826172H.23799134C.21998596 .6826172 .20799256 .6826172 .20799256 .6646118 .20799256 .6516113 .21699524 .6516113 .23799134 .6516113 .24198914 .6516113 .2599945 .6516113 .27598573 .6496124 .29299928 .6476135 .2999878 .6456146 .2999878 .6345978 .2999878 .62960818 .29899598 .6255951 .29599 .6145935L.16099549 .075531009C.1519928 .039535524 .1499939 .030532837 .07499695 .030532837 .055999757 .030532837 .04499817 .030532837 .04499817 .012527466 .04499817 .0015258789 .052993776-.00047302247 .05999756-.00047302247 .07598877-.00047302247 .10598755 .0005340576 .12298584 .0015258789 .14399719 .002532959 .1459961 .002532959 .18499756 .002532959 .21699524 .002532959 .21899414 .002532959 .24899292 .0015258789 .2689972 .0005340576 .2939911-.00047302247 .31298829-.00047302247 .31999208-.00047302247 .33299256-.00047302247 .33299256 .017532349 .33299256 .030532837 .32299806 .030532837 .3019867 .030532837 .2979889 .030532837 .27999879 .030532837 .2639923 .03253174 .24198914 .03552246 .24099732 .039535524 .24099732 .04852295 .24099732 .05152893 .24099732 .053527833 .24598694 .0715332L.30999757 .32850648H.43299867C.522995 .32850648 .54599 .27650453 .54599 .23851013 .54599 .2315216 .54599 .22451782 .5399933 .20251465 .5159912 .11051941 .5159912 .10151672 .5159912 .08653259 .5159912-.0034637452 .6009979-.022460938 .6519928-.022460938 .7389984-.022460938 .7749939 .07852173 .7749939 .0945282 .7749939 .10151672 .7689972 .10652161 .7619934 .10652161 .7509918 .10652161 .75 .10151672 .74598696 .089523319 .72898867 .037521364 .69200137 .002532959 .6549988 .002532959 .61698916 .002532959 .61499026 .03253174 .61499026 .061523439 .61499026 .08653259 .621994 .14451599 .6230011 .15151978 .625 .16752625 .6299896 .20751953 .6299896 .22251892 .6299896 .2795105 .59399417 .31851197 .5359955 .33850099Z"/>
<path id="font_5_47" d="M.55400088 0V.032989503C.48599244 .032989503 .47799684 .039993287 .47799684 .089019779V.69433596L.32899476 .6826172V.6496124C.39698792 .6496124 .40499879 .64263918 .40499879 .5938263V.38339234C.36999513 .42140199 .32299806 .44140626 .2709961 .44140626 .1459961 .44140626 .034988405 .3443756 .034988405 .21531677 .034988405 .09225464 .1349945-.009765625 .26098634-.009765625 .31999208-.009765625 .36898805 .018234253 .4019928 .053237916V-.009765625L.55400088 0M.4019928 .12399292C.4019928 .10598755 .4019928 .101989749 .3869934 .08198547 .35899354 .042236329 .31298829 .018234253 .2659912 .018234253 .21998596 .018234253 .17999268 .042236329 .1559906 .07925415 .1289978 .118270877 .12399292 .16729737 .12399292 .21430969 .12399292 .27233888 .1329956 .3133545 .1559906 .3483734 .17999268 .38539125 .22499085 .4133911 .27598573 .4133911 .32398988 .4133911 .37199403 .38938905 .4019928 .33737184V.12399292Z"/>
<path id="font_5_126" d="M.55400088 0V.032989503C.48999024 .032989503 .47799684 .032989503 .47799684 .07795715V.6940918L.43798829 .6880951C.43399049 .6880951 .43299867 .6890869 .42900086 .6911011 .3959961 .70410159 .35198976 .70410159 .33999635 .70410159 .23199463 .70410159 .11099243 .65104678 .11099243 .5408478V.43066407H.0289917V.3976593H.11099243V.07795715C.11099243 .032989503 .09899902 .032989503 .034988405 .032989503V0C.07398987 .0029907227 .12998963 .0029907227 .14698792 .0029907227 .16699219 .0029907227 .22099304 .0029907227 .2599945 0V.032989503C.19599915 .032989503 .18399048 .032989503 .18399048 .07795715V.3976593H.40499879V.07795715C.40499879 .032989503 .3929901 .032989503 .32899476 .032989503V0C.36799623 .0029907227 .42399598 .0029907227 .44099427 .0029907227 .46099855 .0029907227 .5149994 .0029907227 .55400088 0M.40499879 .43066407H.18099976V.53985598C.18099976 .63101199 .25898744 .6760864 .33898927 .6760864 .375 .6760864 .3909912 .6720886 .4019928 .66908267 .3880005 .6600647 .3829956 .64704897 .3829956 .63201907 .3829956 .6029663 .40299989 .5929413 .40499879 .59194949V.43066407Z"/>
</defs>
<path transform="matrix(1,0,0,-1,272.25297,66.53891)" d="M24.09494 0C24.09494 13.30742 13.30742 24.09494 0 24.09494-13.30742 24.09494-24.09494 13.30742-24.09494 0-24.09494-13.30742-13.30742-24.09494 0-24.09494 13.30742-24.09494 24.09494-13.30742 24.09494 0ZM0 0" fill="#ff9f00"/>
<path transform="matrix(1,0,0,-1,272.25297,66.53891)" stroke-width=".79701" stroke-linecap="butt" stroke-miterlimit="10" stroke-linejoin="miter" fill="none" stroke="#ff4000" d="M24.09494 0C24.09494 13.30742 13.30742 24.09494 0 24.09494-13.30742 24.09494-24.09494 13.30742-24.09494 0-24.09494-13.30742-13.30742-24.09494 0-24.09494 13.30742-24.09494 24.09494-13.30742 24.09494 0ZM0 0"/>
<use data-text="S" xlink:href="#font_1_97" transform="matrix(8.966376,0,0,-8.966376,254.17464,68.78636)"/>
<use data-text="u" xlink:href="#font_1_109" transform="matrix(8.966376,0,0,-8.966376,259.29444,68.78636)"/>
<use data-text="n" xlink:href="#font_1_77" transform="matrix(8.966376,0,0,-8.966376,264.41426,68.78636)"/>
<use data-text="," xlink:href="#font_1_45" transform="matrix(8.966376,0,0,-8.966376,269.53404,68.78636)"/>
<use data-text="M" xlink:href="#font_2_4" transform="matrix(8.966376,0,0,-8.966376,275.17393,68.78636)"/>
<use data-text="&#x2299;" xlink:href="#font_3_1" transform="matrix(5.977584,0,0,-5.977584,284.0766,69.78261)"/>
<path transform="matrix(1,0,0,-1,272.25297,66.53891)" stroke-width=".3985" stroke-linecap="butt" stroke-miterlimit="10" stroke-linejoin="miter" fill="none" stroke="#4c4d4c" d="M0 0 9.75612 16.89769"/>
<path transform="matrix(.49998,-.86601,-.86601,-.49998,282.0091,49.64124)" d="M3.7613 0C3.2994 .1127 1.26901 .75136 0 1.44638V-1.44638C1.26901-.75136 3.2994-.1127 3.7613 0Z" fill="#4c4d4c"/>
<path transform="matrix(.49998,-.86601,-.86601,-.49998,282.0091,49.64124)" stroke-width=".3985" stroke-linecap="butt" stroke-miterlimit="10" stroke-linejoin="miter" fill="none" stroke="#4c4d4c" d="M3.7613 0C3.2994 .1127 1.26901 .75136 0 1.44638V-1.44638C1.26901-.75136 3.2994-.1127 3.7613 0Z"/>
<use data-text="R" xlink:href="#font_4_1" transform="matrix(7.970112,0,0,-7.970112,273.732,54.808408)" fill="#404040"/>
<use data-text="&#x2299;" xlink:href="#font_3_1" transform="matrix(5.977584,0,0,-5.977584,280.10987,55.882139)" fill="#404040"/>
<path transform="matrix(1,0,0,-1,272.25297,66.53891)" d="M-213.1814 52.44176C-213.1814 53.6869-214.19077 54.69627-215.43592 54.69627-216.68106 54.69627-217.69043 53.6869-217.69043 52.44176-217.69043 51.19661-216.68106 50.18724-215.43592 50.18724-214.19077 50.18724-213.1814 51.19661-213.1814 52.44176ZM-215.43592 52.44176" fill="#0000b3"/>
<use data-text="a" xlink:href="#font_5_28" transform="matrix(7.970112,0,0,-7.970112,11.2872929,16.822976)"/>
<use data-text="c" xlink:href="#font_5_43" transform="matrix(7.970112,0,0,-7.970112,15.519424,16.822976)"/>
<use data-text="t" xlink:href="#font_5_105" transform="matrix(7.970112,0,0,-7.970112,19.281311,16.822976)"/>
<use data-text="u" xlink:href="#font_5_109" transform="matrix(7.970112,0,0,-7.970112,22.572968,16.822976)"/>
<use data-text="a" xlink:href="#font_5_28" transform="matrix(7.970112,0,0,-7.970112,27.27533,16.822976)"/>
<use data-text="l" xlink:href="#font_5_72" transform="matrix(7.970112,0,0,-7.970112,31.507462,16.822976)"/>
<use data-text="s" xlink:href="#font_5_98" transform="matrix(7.970112,0,0,-7.970112,36.68007,16.822976)"/>
<use data-text="t" xlink:href="#font_5_105" transform="matrix(7.970112,0,0,-7.970112,40.019548,16.822976)"/>
<use data-text="a" xlink:href="#font_5_28" transform="matrix(7.970112,0,0,-7.970112,43.311204,16.822976)"/>
<use data-text="r" xlink:href="#font_5_96" transform="matrix(7.970112,0,0,-7.970112,47.543336,16.822976)"/>
<path transform="matrix(1,0,0,-1,272.25297,66.53891)" d="M220.53812-39.68535C220.53812-36.86745 218.25382-34.58315 215.43592-34.58315 212.61801-34.58315 210.3337-36.86745 210.3337-39.68535 210.3337-42.50325 212.61801-44.78755 215.43592-44.78755 218.25382-44.78755 220.53812-42.50325 220.53812-39.68535ZM215.43592-39.68535" fill="#0073ff"/>
<path transform="matrix(1,0,0,-1,272.25297,66.53891)" stroke-width=".79701" stroke-linecap="butt" stroke-miterlimit="10" stroke-linejoin="miter" fill="none" stroke="#000066" d="M220.53812-39.68535C220.53812-36.86745 218.25382-34.58315 215.43592-34.58315 212.61801-34.58315 210.3337-36.86745 210.3337-39.68535 210.3337-42.50325 212.61801-44.78755 215.43592-44.78755 218.25382-44.78755 220.53812-42.50325 220.53812-39.68535ZM215.43592-39.68535"/>
<use data-text="E" xlink:href="#font_5_49" transform="matrix(7.970112,0,0,-7.970112,486.9658,118.871639)"/>
<use data-text="a" xlink:href="#font_5_28" transform="matrix(7.970112,0,0,-7.970112,492.72819,118.871639)"/>
<use data-text="r" xlink:href="#font_5_96" transform="matrix(7.970112,0,0,-7.970112,496.96034,118.871639)"/>
<use data-text="t" xlink:href="#font_5_105" transform="matrix(7.970112,0,0,-7.970112,500.25996,118.871639)"/>
<use data-text="h" xlink:href="#font_5_63" transform="matrix(7.970112,0,0,-7.970112,503.55158,118.871639)"/>
<use data-text="o" xlink:href="#font_5_81" transform="matrix(7.970112,0,0,-7.970112,473.7911,99.02895)"/>
<use data-text="b" xlink:href="#font_5_35" transform="matrix(7.970112,0,0,-7.970112,478.02326,99.02895)"/>
<use data-text="s" xlink:href="#font_5_98" transform="matrix(7.970112,0,0,-7.970112,482.7256,99.02895)"/>
<use data-text="e" xlink:href="#font_5_50" transform="matrix(7.970112,0,0,-7.970112,486.06507,99.02895)"/>
<use data-text="r" xlink:href="#font_5_96" transform="matrix(7.970112,0,0,-7.970112,489.82698,99.02895)"/>
<use data-text="v" xlink:href="#font_5_112" transform="matrix(7.970112,0,0,-7.970112,493.1266,99.02895)"/>
<use data-text="e" xlink:href="#font_5_50" transform="matrix(7.970112,0,0,-7.970112,497.3667,99.02895)"/>
<use data-text="r" xlink:href="#font_5_96" transform="matrix(7.970112,0,0,-7.970112,501.12858,99.02895)"/>
<use data-text="a" xlink:href="#font_5_28" transform="matrix(7.970112,0,0,-7.970112,25.759842,83.97884)" fill="#464646"/>
<use data-text="p" xlink:href="#font_5_84" transform="matrix(7.970112,0,0,-7.970112,29.991974,83.97884)" fill="#464646"/>
<use data-text="p" xlink:href="#font_5_84" transform="matrix(7.970112,0,0,-7.970112,34.694337,83.97884)" fill="#464646"/>
<use data-text="a" xlink:href="#font_5_28" transform="matrix(7.970112,0,0,-7.970112,39.396699,83.97884)" fill="#464646"/>
<use data-text="r" xlink:href="#font_5_96" transform="matrix(7.970112,0,0,-7.970112,43.62883,83.97884)" fill="#464646"/>
<use data-text="e" xlink:href="#font_5_50" transform="matrix(7.970112,0,0,-7.970112,46.92845,83.97884)" fill="#464646"/>
<use data-text="n" xlink:href="#font_5_77" transform="matrix(7.970112,0,0,-7.970112,50.69034,83.97884)" fill="#464646"/>
<use data-text="t" xlink:href="#font_5_105" transform="matrix(7.970112,0,0,-7.970112,55.16156,83.97884)" fill="#464646"/>
<use data-text="p" xlink:href="#font_5_84" transform="matrix(7.970112,0,0,-7.970112,61.266664,83.97884)" fill="#464646"/>
<use data-text="o" xlink:href="#font_5_81" transform="matrix(7.970112,0,0,-7.970112,66.20813,83.97884)" fill="#464646"/>
<use data-text="s" xlink:href="#font_5_98" transform="matrix(7.970112,0,0,-7.970112,70.44026,83.97884)" fill="#464646"/>
<use data-text="i" xlink:href="#font_5_66" transform="matrix(7.970112,0,0,-7.970112,73.77974,83.97884)" fill="#464646"/>
<use data-text="t" xlink:href="#font_5_105" transform="matrix(7.970112,0,0,-7.970112,76.13092,83.97884)" fill="#464646"/>
<use data-text="i" xlink:href="#font_5_66" transform="matrix(7.970112,0,0,-7.970112,79.42258,83.97884)" fill="#464646"/>
<use data-text="o" xlink:href="#font_5_81" transform="matrix(7.970112,0,0,-7.970112,81.77376,83.97884)" fill="#464646"/>
<use data-text="n" xlink:href="#font_5_77" transform="matrix(7.970112,0,0,-7.970112,86.005878,83.97884)" fill="#464646"/>
<path transform="matrix(1,0,0,-1,272.25297,66.53891)" stroke-width=".79701" stroke-linecap="butt" stroke-dasharray="2.98883,2.98883" stroke-miterlimit="10" stroke-linejoin="miter" fill="none" stroke="#595959" d="M215.43592-39.68535-206.44893-1.96738"/>
<path transform="matrix(-.99599,-.08904,-.08904,.99599,65.80405,68.5063)" d="M4.53381 0C3.97704 .13808 1.52963 .92049 0 1.77196V-1.77196C1.52963-.92049 3.97704-.13808 4.53381 0Z" fill="#595959"/>
<path transform="matrix(-.99599,-.08904,-.08904,.99599,65.80405,68.5063)" stroke-width=".79701" stroke-linecap="butt" stroke-miterlimit="10" stroke-linejoin="miter" fill="none" stroke="#595959" d="M4.53381 0C3.97704 .13808 1.52963 .92049 0 1.77196V-1.77196C1.52963-.92049 3.97704-.13808 4.53381 0Z"/>
<path transform="matrix(1,0,0,-1,272.25297,66.53891)" stroke-width=".79701" stroke-linecap="butt" stroke-miterlimit="10" stroke-linejoin="miter" fill="none" stroke="#b35900" d="M-215.43592 52.44176C-90.7097 43.93764-17.00824 29.76422-1.4174 26.92937 34.01608 24.09494 113.38724-8.50412 215.43592-39.68535"/>
<path transform="matrix(.96738,.25319,.25319,-.96738,292.1816,43.31818)" d="M4.53381 0C3.97704 .13808 1.52963 .92049 0 1.77196V-1.77196C1.52963-.92049 3.97704-.13808 4.53381 0Z" fill="#b35900"/>
<path transform="matrix(.96738,.25319,.25319,-.96738,292.1816,43.31818)" stroke-width=".79701" stroke-linecap="butt" stroke-miterlimit="10" stroke-linejoin="miter" fill="none" stroke="#b35900" d="M4.53381 0C3.97704 .13808 1.52963 .92049 0 1.77196V-1.77196C1.52963-.92049 3.97704-.13808 4.53381 0Z"/>
<path transform="matrix(1,0,0,-1,272.25297,66.53891)" stroke-width=".3985" stroke-linecap="butt" stroke-miterlimit="10" stroke-linejoin="miter" fill="none" stroke="#4c4d4c" d="M-90.7097 4.58284V35.1025"/>
<path transform="matrix(0,1,1,0,181.54326,61.95607)" d="M3.7613 0C3.2994 .1127 1.26901 .75136 0 1.44638V-1.44638C1.26901-.75136 3.2994-.1127 3.7613 0Z" fill="#4c4d4c"/>
<path transform="matrix(0,1,1,0,181.54326,61.95607)" stroke-width=".3985" stroke-linecap="butt" stroke-miterlimit="10" stroke-linejoin="miter" fill="none" stroke="#4c4d4c" d="M3.7613 0C3.2994 .1127 1.26901 .75136 0 1.44638V-1.44638C1.26901-.75136 3.2994-.1127 3.7613 0Z"/>
<path transform="matrix(0,-1,-1,-0,181.54326,31.436409)" d="M3.7613 0C3.2994 .1127 1.26901 .75136 0 1.44638V-1.44638C1.26901-.75136 3.2994-.1127 3.7613 0Z" fill="#4c4d4c"/>
<path transform="matrix(0,-1,-1,-0,181.54326,31.436409)" stroke-width=".3985" stroke-linecap="butt" stroke-miterlimit="10" stroke-linejoin="miter" fill="none" stroke="#4c4d4c" d="M3.7613 0C3.2994 .1127 1.26901 .75136 0 1.44638V-1.44638C1.26901-.75136 3.2994-.1127 3.7613 0Z"/>
<use data-text="b" xlink:href="#font_4_2" transform="matrix(7.970112,0,0,-7.970112,153.59674,48.511709)"/>
<use data-text="&#x2248;" xlink:href="#font_6_1" transform="matrix(7.970112,0,0,-7.970112,159.57166,48.511709)"/>
<use data-text="R" xlink:href="#font_4_1" transform="matrix(7.970112,0,0,-7.970112,168.51049,48.511709)"/>
<use data-text="&#x2299;" xlink:href="#font_3_1" transform="matrix(5.977584,0,0,-5.977584,174.88837,49.585439)"/>
<path transform="matrix(1,0,0,-1,272.25297,66.53891)" stroke-width=".79701" stroke-linecap="butt" stroke-miterlimit="10" stroke-linejoin="miter" fill="none" stroke="#bf0000" d="M31.18166 33.449C33.40297 27.95088 33.93115 21.91093 32.69856 16.1108"/>
<use data-text="&#x03b1;" xlink:href="#font_2_1" transform="matrix(8.966376,0,0,-8.966376,327.40754,50.894315)" fill="#bf0000"/>
<use data-text="&#x03b1;" xlink:href="#font_2_1" transform="matrix(8.966376,0,0,-8.966376,212.43433,134.65901)"/>
<use data-text="=" xlink:href="#font_7_5" transform="matrix(8.966376,0,0,-8.966376,220.90702,134.65901)"/>
<use data-text="4" xlink:href="#font_7_2" transform="matrix(8.966376,0,0,-8.966376,231.82988,128.86013)"/>
<use data-text="G" xlink:href="#font_2_3" transform="matrix(8.966376,0,0,-8.966376,236.43758,128.86013)"/>
<use data-text="M" xlink:href="#font_2_4" transform="matrix(8.966376,0,0,-8.966376,243.64655,128.86013)"/>
<path transform="matrix(1,0,0,-1,12.18137,140.12183)" stroke-width=".378585" stroke-linecap="butt" stroke-miterlimit="10" stroke-linejoin="miter" fill="none" stroke="#000000" d="M219.6485 7.7044H241.34328"/>
<use data-text="b" xlink:href="#font_2_6" transform="matrix(8.966376,0,0,-8.966376,235.8645,140.74022)"/>
<use data-text="c" xlink:href="#font_2_7" transform="matrix(8.966376,0,0,-8.966376,241.34296,140.74022)"/>
<use data-text="2" xlink:href="#font_8_1" transform="matrix(5.977584,0,0,-5.977584,245.33899,138.16654)"/>
<use data-text="&#x2248;" xlink:href="#font_9_1" transform="matrix(8.966376,0,0,-8.966376,257.28,134.65901)"/>
<use data-text="1" xlink:href="#font_7_1" transform="matrix(8.966376,0,0,-8.966376,267.00736,134.65901)"/>
<use data-text="." xlink:href="#font_2_2" transform="matrix(8.966376,0,0,-8.966376,271.61503,134.65901)"/>
<use data-text="7" xlink:href="#font_7_4" transform="matrix(8.966376,0,0,-8.966376,274.17488,134.65901)"/>
<use data-text="5" xlink:href="#font_7_3" transform="matrix(8.966376,0,0,-8.966376,278.77464,134.65901)"/>
<use data-text="&#x2032;" xlink:href="#font_3_2" transform="matrix(5.977584,0,0,-5.977584,283.39027,130.85002)"/>
<use data-text="&#x2032;" xlink:href="#font_3_2" transform="matrix(5.977584,0,0,-5.977584,285.57209,130.85002)"/>
<use data-text="a" xlink:href="#font_1_28" transform="matrix(8.966376,0,0,-8.966376,291.33634,134.65901)"/>
<use data-text="t" xlink:href="#font_1_105" transform="matrix(8.966376,0,0,-8.966376,295.94505,134.65901)"/>
<use data-text="b" xlink:href="#font_2_6" transform="matrix(8.966376,0,0,-8.966376,302.6071,134.65901)"/>
<use data-text="=" xlink:href="#font_7_5" transform="matrix(8.966376,0,0,-8.966376,309.11598,134.65901)"/>
<use data-text="R" xlink:href="#font_2_5" transform="matrix(8.966376,0,0,-8.966376,318.84333,134.65901)"/>
<use data-text="&#x2299;" xlink:href="#font_3_1" transform="matrix(5.977584,0,0,-5.977584,325.81584,135.65528)"/>
<path transform="matrix(1,0,0,-1,272.25297,66.53891)" stroke-width=".79701" stroke-linecap="butt" stroke-dasharray="2.98883,2.98883" stroke-miterlimit="10" stroke-linejoin="miter" fill="none" stroke="#595959" d="M-1.4174 26.92937 90.7097 36.85092"/>
<use data-text="u" xlink:href="#font_5_109" transform="matrix(7.970112,0,0,-7.970112,356.21028,28.201806)" fill="#464646"/>
<use data-text="n" xlink:href="#font_5_77" transform="matrix(7.970112,0,0,-7.970112,360.9126,28.201806)" fill="#464646"/>
<use data-text="d" xlink:href="#font_5_47" transform="matrix(7.970112,0,0,-7.970112,365.615,28.201806)" fill="#464646"/>
<use data-text="e" xlink:href="#font_5_50" transform="matrix(7.970112,0,0,-7.970112,370.31733,28.201806)" fill="#464646"/>
<use data-text="f" xlink:href="#font_5_126" transform="matrix(7.970112,0,0,-7.970112,374.07923,28.201806)" fill="#464646"/>
<use data-text="e" xlink:href="#font_5_50" transform="matrix(7.970112,0,0,-7.970112,378.7816,28.201806)" fill="#464646"/>
<use data-text="c" xlink:href="#font_5_43" transform="matrix(7.970112,0,0,-7.970112,382.54347,28.201806)" fill="#464646"/>
<use data-text="t" xlink:href="#font_5_105" transform="matrix(7.970112,0,0,-7.970112,386.30537,28.201806)" fill="#464646"/>
<use data-text="e" xlink:href="#font_5_50" transform="matrix(7.970112,0,0,-7.970112,389.59703,28.201806)" fill="#464646"/>
<use data-text="d" xlink:href="#font_5_47" transform="matrix(7.970112,0,0,-7.970112,393.3589,28.201806)" fill="#464646"/>
</svg>
