<svg xmlns="http://www.w3.org/2000/svg" xmlns:xlink="http://www.w3.org/1999/xlink" xmlns:inkscape="http://www.inkscape.org/namespaces/inkscape" version="1.1" width="324.43" height="302.81" viewBox="0 0 324.43 302.81">
<defs>
<path id="font_1_55" d="M.3769989 .63201907C.3769989 .6750946 .33499146 .70410159 .28199769 .70410159 .20698548 .70410159 .117996219 .65005496 .117996219 .54286196V.43066407H.035995485V.3976593H.117996219V.07795715C.117996219 .032989503 .10598755 .032989503 .041992189 .032989503V0C.08099365 .0029907227 .13598633 .0029907227 .1599884 .0029907227 .21899414 .0029907227 .22099304 .0029907227 .28599549 0V.032989503H.2659912C.19299317 .032989503 .19099427 .04397583 .19099427 .079956058V.3976593H.31098939V.43066407H.18798828V.54385378C.18798828 .63108828 .23699951 .6760864 .2809906 .6760864 .29699708 .6760864 .30599977 .6720886 .30999757 .6710968 .2919922 .6620941 .2869873 .6450958 .2869873 .63209536 .2869873 .60609439 .30599977 .58709719 .33198548 .58709719 .35899354 .58709719 .3769989 .60609439 .3769989 .63209536V.63201907Z"/>
<path id="font_1_109" d="M.56199648 .00022888184V.033233644C.49398805 .033233644 .48599244 .040237428 .48599244 .08924866V.44140626L.33399964 .43040467V.3973999C.4019928 .3973999 .4099884 .39039613 .4099884 .34136964V.16726685C.4099884 .08125305 .35798646 .018234253 .2829895 .018234253 .19699097 .018234253 .19299317 .06123352 .19299317 .11126709V.44140626L.040985109 .43040467V.3973999C.116989139 .3973999 .116989139 .39439393 .116989139 .30534364V.15527344C.116989139 .08325195 .116989139-.009765625 .2769928-.009765625 .37098695-.009765625 .40699769 .0622406 .4119873 .071243289H.41299439V-.009765625L.56199648 .00022888184Z"/>
<path id="font_1_105" d="M.35299684 .1250763V.1809845H.32199098V.12705994C.32199098 .058166505 .29100038 .021224976 .25299073 .021224976 .18598938 .021224976 .18598938 .10710144 .18598938 .12307739V.3976593H.33499146V.43066407H.18598938V.6142578H.15499878C.1539917 .52345278 .11299133 .4286499 .019989014 .42565919V.3976593H.10998535V.1250763C.10998535 .008224487 .19999695-.009765625 .24598694-.009765625 .31298829-.010009766 .35299684 .049987794 .35299684 .125V.1250763Z"/>
<path id="font_1_96" d="M.38398744 .3784027C.38398744 .4133911 .35198976 .44140626 .30799867 .44140626 .24299622 .44140626 .19898987 .39239503 .17799378 .33639527H.1769867V.44140626L.034988405 .43045045V.39746095C.102996829 .39746095 .11099243 .3904419 .11099243 .3413849V.078048709C.11099243 .032989503 .09899902 .032989503 .034988405 .032989503V0C.07398987 .0029907227 .1289978 .0029907227 .15299988 .0029907227 .21199036 .0029907227 .21398926 .0029907227 .2789917 0V.032989503H.25898744C.18598938 .032989503 .18399048 .044006349 .18399048 .08004761V.22824097C.18399048 .30332948 .21499634 .41145326 .31098939 .41345216 .30499269 .40899659 .29499818 .40098573 .29499818 .37799073 .29499818 .34700013 .31900025 .33299256 .33898927 .33299256 .36299134 .33299256 .38398744 .34899903 .38398744 .37799073V.3784027Z"/>
<path id="font_1_50" d="M.44099427 .12036133C.44099427 .12435913 .43798829 .13438416 .4249878 .13438416 .4139862 .13438416 .4119873 .12736511 .4099884 .12136841 .37399293 .024230957 .28799439 .021224976 .269989 .021224976 .22499085 .021224976 .1789856 .042251588 .14898682 .08831787 .11898804 .13438416 .11898804 .19847107 .11898804 .22851563H.41299439C.43499757 .22851563 .44099427 .22851563 .44099427 .25151063 .44099427 .34039308 .3919983 .44628907 .25099183 .44628907 .1269989 .44628907 .02999878 .3433838 .02999878 .21949768 .02999878 .09031677 .13798523-.009765625 .2639923-.009765625 .3909912-.009765625 .44099427 .097335819 .44099427 .12036133M.37298585 .25450135H.11999512C.1289978 .39431764 .21398926 .41827394 .25099183 .41827394 .36799623 .41827394 .37199403 .27748109 .37298585 .25450135Z"/>
<path id="font_1_63" d="M.56199648 0V.032989503C.49798585 .032989503 .48599244 .032989503 .48599244 .07814026V.30371095C.48599244 .38746644 .44799806 .44140626 .34298707 .44140626 .25498963 .44140626 .20899964 .3854828 .19099427 .3535614H.18998719V.69433596L.040985109 .6826172V.6496124C.10899353 .6496124 .116989139 .64263918 .116989139 .5938263V.07814026C.116989139 .032989503 .10499573 .032989503 .040985109 .032989503V0C.083999637 .0029907227 .12799073 .0029907227 .15499878 .0029907227 .18399048 .0029907227 .22599793 .0029907227 .2689972 0V.032989503C.20498657 .032989503 .19299317 .032989503 .19299317 .07814026V.2597046C.19299317 .36453248 .272995 .4133911 .33399964 .4133911 .394989 .4133911 .4099884 .37051393 .4099884 .30769349V.07814026C.4099884 .032989503 .397995 .032989503 .33399964 .032989503V0C.3769989 .0029907227 .42099 .0029907227 .44799806 .0029907227 .47698976 .0029907227 .5189972 .0029907227 .56199648 0Z"/>
<path id="font_1_81" d="M.5 .21325684C.5 .3382721 .39698792 .44628907 .2649994 .44628907 .1329956 .44628907 .02999878 .3382721 .02999878 .21325684 .02999878 .08824158 .13699341-.009765625 .2649994-.009765625 .3939972-.009765625 .5 .08824158 .5 .21325684M.41099549 .22225952C.41099549 .17625427 .40899659 .12124634 .3809967 .07923889 .35398866 .039230348 .30899049 .021224976 .2649994 .021224976 .21099854 .021224976 .16899109 .047225954 .14698792 .082229617 .12199402 .12324524 .11898804 .17224121 .11898804 .22225952 .11898804 .2602539 .11898804 .32026673 .1499939 .363266 .17599488 .3982849 .21798706 .41827394 .2649994 .41827394 .31698609 .41827394 .3600006 .39328004 .3829956 .35827638 .4099884 .31626893 .41099549 .2622528 .41099549 .22225952Z"/>
<path id="font_1_66" d="M.2599945 .0001373291V.03314209C.19499207 .03314209 .19099427 .038146974 .19099427 .07714844V.44140626L.04499817 .43045045V.39746095C.10899353 .39746095 .117996219 .39144898 .117996219 .34239198V.07814026C.117996219 .03314209 .10598755 .03314209 .041992189 .03314209V0C.08099365 .0029907227 .13699341 .0029907227 .1519928 .0029907227 .16499329 .0029907227 .22499085 .0029907227 .2599945 0V.0001373291M.20298767 .6021881C.20298767 .6351929 .1769867 .6582031 .147995 .6582031 .11898804 .6582031 .09298706 .6351929 .09298706 .6021881 .09298706 .5731964 .115997318 .54719546 .147995 .54719546 .1789856 .54719546 .20298767 .5731964 .20298767 .6021881Z"/>
<path id="font_1_120" d="M.4269867 .19284058H.3959961C.38598634 .07695007 .36698915 .0309906 .24398804 .0309906H.125L.4149933 .3956604C.42199708 .4046631 .42399598 .406662 .42399598 .4146576 .42399598 .43066407 .4119873 .43066407 .3959961 .43066407H.055999757L.04399109 .2637787H.07499695C.08099365 .36769105 .102996829 .40264894 .21499634 .40264894H.32899476L.038986207 .036987306C.03199768 .027999878 .02999878 .025985718 .02999878 .016998291 .02999878 0 .040985109 0 .057998659 0H.40899659L.4269867 .19284058Z"/>
<path id="font_1_77" d="M.56199648 0V.032989503C.49798585 .032989503 .48599244 .032989503 .48599244 .07803345V.3032837C.48599244 .38737489 .44799806 .44140626 .34298707 .44140626 .24398804 .44140626 .19898987 .36935426 .18699646 .34532167H.18598938V.44140626L.040985109 .43045045V.39746095C.10899353 .39746095 .116989139 .3904419 .116989139 .3413849V.078048709C.116989139 .032989503 .10499573 .032989503 .040985109 .032989503V0C.083999637 .0029907227 .12799073 .0029907227 .15499878 .0029907227 .18399048 .0029907227 .22599793 .0029907227 .2689972 0V.032989503C.20498657 .032989503 .19299317 .032989503 .19299317 .078048709V.25927735C.19299317 .36434938 .272995 .4133911 .33399964 .4133911 .394989 .4133911 .4099884 .37036134 .4099884 .3072815V.07803345C.4099884 .032989503 .397995 .032989503 .33399964 .032989503V0C.3769989 .0029907227 .42099 .0029907227 .44799806 .0029907227 .47698976 .0029907227 .5189972 .0029907227 .56199648 0Z"/>
<path id="font_2_1" d="M.6409912 .3356781H.35499574C.37998963 .43167115 .3849945 .45565797 .3889923 .47964479 .4039917 .55662539 .4079895 .61761477 .4079895 .62161257 .4079895 .64660647 .3929901 .6826172 .33699037 .6826172 .1329956 .6826172 .022994996 .51364138 .022994996 .49365235 .022994996 .48765565 .026992798 .48565675 .032989503 .48565675 .04699707 .48565675 .09098816 .50164797 .11099243 .5336304 .13798523 .57962039 .16499329 .6246033 .2659912 .6246033 .31298829 .6246033 .31900025 .59262087 .31900025 .57762148 .31900025 .57263186 .31498719 .51564028 .3039856 .45666505 .29499818 .40766908 .2899933 .38967896 .2769928 .3356781H.23498535C.20999146 .33268739 .16099549 .30273438 .16099549 .28475953 .16099549 .277771 .16899109 .277771 .18598938 .277771H.26098634C.23399353 .1769104 .19499207 .0680542 .1599884-.019851685 .1559906-.02986145 .1559906-.03186035 .1559906-.033859254 .1559906-.035858156 .15699768-.040863038 .16699219-.040863038 .1789856-.040863038 .20799256-.02885437 .22799683-.012863159 .24099732-.0008544922 .24198914 .0011444092 .25898744 .0440979 .2869873 .11898804 .31599427 .2048645 .33799745 .277771H.5799866C.59098818 .277771 .6100006 .277771 .6279907 .28775025 .6159973 .24580384 .6009979 .18688965 .59298709 .1409607 .57899478 .05607605 .57699587 .012130737 .57699587 .010147095 .57699587-.022857666 .598999-.049865724 .6409912-.049865724 .7839966-.049865724 .85899356 .036102296 .85899356 .0680542 .85899356 .0700531 .8580017 .076049808 .848999 .076049808 .83200076 .076049808 .7859955 .05607605 .7719879 .028121949 .769989 .025115967 .7669983 .018127442 .7659912 .015136719 .7350006 .008148193 .73298647 .008148193 .71199038 .008148193 .68099978 .008148193 .66600039 .02911377 .66600039 .05407715 .66600039 .117996219 .7029877 .34268189 .82398989 .65260317 .83099368 .6706085 .83099368 .6726074 .83099368 .6746063 .83099368 .6826172 .82299807 .6826172 .82099917 .6826172 .80400088 .6826172 .772995 .6666107 .7539978 .6496124 .746994 .64260867 .74398806 .63560488 .73999026 .62561038 .72299197 .58262637 .70098879 .52064517 .69999697 .51763918L.6409912 .3356781Z"/>
<path id="font_3_1" d="M.49299623 .22436524H.81599429C.8299866 .22436524 .8549957 .22436524 .8549957 .2503662 .8549957 .2763672 .8299866 .2763672 .81599429 .2763672H.49299623V.60014346C.49299623 .61413577 .49299623 .63912966 .46699525 .63912966 .44099427 .63912966 .44099427 .61413577 .44099427 .60014346V.2763672H.117996219C.10398865 .2763672 .07899475 .2763672 .07899475 .2503662 .07899475 .22436524 .10398865 .22436524 .117996219 .22436524H.44099427V-.10014343C.44099427-.11416626 .44099427-.13917542 .46699525-.13917542 .49299623-.13917542 .49299623-.11416626 .49299623-.10014343V.22436524Z"/>
<path id="font_1_84" d="M.55400088 .21640015C.55400088 .34140016 .45298768 .44140626 .33198548 .44140626 .29299928 .44140626 .23498535 .43139649 .18399048 .37939454V.44140626L.034988405 .43045045V.39746095C.10598755 .39746095 .11099243 .39144898 .11099243 .34947206V-.1159668C.11099243-.16113281 .09899902-.16113281 .034988405-.16113281V-.19413758C.07798767-.19114685 .12199402-.19114685 .14898682-.19114685 .17799378-.19114685 .21998596-.19114685 .2630005-.19413758V-.16113281C.19898987-.16113281 .18699646-.16113281 .18699646-.1159668V.049545289C.23399353-.0017700195 .2849884-.009765625 .31698609-.009765625 .44400025-.009765625 .55400088 .088256839 .55400088 .2163086V.21640015M.46499635 .2163086C.46499635 .101257327 .3929901 .018234253 .31199647 .018234253 .2769928 .018234253 .23098755 .033233644 .19898987 .08325195 .18699646 .1002655 .18699646 .101257327 .18699646 .120269779V.33335877C.20999146 .37338258 .2599945 .4104004 .32299806 .4104004 .3999939 .4104004 .46499635 .32536317 .46499635 .2163086Z"/>
<path id="font_1_28" d="M.5139923 .09020996V.14530945H.48298646V.09020996C.48298646 .0491333 .46798707 .033111574 .44699098 .033111574 .4099884 .033111574 .4099884 .079193118 .4099884 .09020996V.29856874C.4099884 .39653016 .31498719 .44628907 .22399903 .44628907 .14099121 .44628907 .066986087 .4143219 .066986087 .34857179 .066986087 .318573 .08799744 .30056764 .11399841 .30056764 .14199829 .30056764 .16099549 .3205719 .16099549 .3475647 .16099549 .37156678 .1459961 .38856507 .12399292 .3935547 .16099549 .41827394 .21499634 .41827394 .22200012 .41827394 .27799989 .41827394 .33399964 .37957765 .33399964 .29756166V.26651C.27598573 .26350404 .20899964 .26049806 .13899231 .23144531 .050994874 .1933899 .033996583 .13528443 .033996583 .10223389 .033996583 .016220093 .1349945-.009765625 .20399475-.009765625 .2769928-.009765625 .32199098 .031219483 .34399415 .07122803 .34899903 .033111574 .375-.0048828127 .4189911-.0048828127 .42900086-.0048828127 .5139923-.00088500979 .5139923 .09010315V.09020996M.33399964 .14111328C.33399964 .04421997 .2519989 .018234253 .21199036 .018234253 .1599884 .018234253 .115997318 .053222658 .115997318 .10122681 .115997318 .16722107 .17799378 .23522949 .33399964 .24023438V.14111328Z"/>
<path id="font_1_98" d="M.3829956 .12924195C.3829956 .1772461 .35398866 .24725342 .23498535 .2692566 .22698975 .2712555 .17098999 .28126527 .16699219 .28126527 .13598633 .28826905 .08898926 .30926515 .08898926 .34927369 .08898926 .37927247 .11099243 .4212799 .20599365 .4212799 .31799317 .4212799 .32299806 .33926393 .32499696 .31126405 .32598878 .30326844 .33299256 .30026246 .33999635 .30026246 .35598756 .30026246 .35598756 .30726625 .35598756 .32626344V.4202881C.35598756 .4362793 .35598756 .44628907 .34298707 .44628907 .33799745 .44628907 .33499146 .44628907 .31900025 .4302826 .31698609 .4292755 .30799867 .4202881 .30499269 .4202881 .30499269 .4202881 .3019867 .4202881 .29599 .4242859 .27999879 .43528749 .25099183 .44628907 .20599365 .44628907 .06599426 .44628907 .034988405 .37026979 .034988405 .32226563 .034988405 .27226258 .07199097 .24325562 .07499695 .24024964 .114990238 .21025086 .13798523 .20625305 .20498657 .19424439 .2519989 .18525696 .32899476 .17124939 .32899476 .10324097 .32899476 .0642395 .30299378 .018234253 .21099854 .018234253 .10998535 .018234253 .08099365 .09623718 .067993167 .14924622 .06399536 .1622467 .06298828 .16725159 .050994874 .16725159 .034988405 .16725159 .034988405 .15924073 .034988405 .14024353V.016220093C.034988405 .00022888184 .034988405-.009765625 .04798889-.009765625 .053985597-.009765625 .054992677-.008773804 .07299805 .010223389 .07798767 .0152282719 .08898926 .02822876 .09399414 .033233644 .13899231-.0077667238 .18598938-.009765625 .21199036-.009765625 .33898927-.009765625 .3829956 .06323242 .3829956 .12924195Z"/>
<path id="font_4_1" d="M.79599 .22436524C.81199648 .22436524 .83699038 .22436524 .83699038 .2503662 .83699038 .2763672 .81199648 .2763672 .79599 .2763672H.1659851C.1499939 .2763672 .125 .2763672 .125 .2503662 .125 .22436524 .1499939 .22436524 .1659851 .22436524H.79599Z"/>
<path id="font_5_4" d="M.49198915 .40434266C.45498658 .39733888 .44400025 .3653412 .44400025 .3503418 .44400025 .33132936 .45799256 .31433106 .48298646 .31433106 .5109863 .31433106 .5379944 .33833314 .5379944 .3733368 .5379944 .41937257 .48799134 .4423828 .44099427 .4423828 .3809967 .4423828 .34599305 .38934327 .33399964 .3683319 .31498719 .41737367 .2709961 .4423828 .22299195 .4423828 .115997318 .4423828 .057998659 .31433106 .057998659 .28833009 .057998659 .2793274 .06498718 .2763214 .07199097 .2763214 .08099365 .2763214 .083999637 .2813263 .085998538 .287323 .116989139 .38633729 .18299866 .41737367 .22099304 .41737367 .25 .41737367 .27598573 .3983307 .27598573 .35133363 .27598573 .31533814 .23298645 .15530396 .21998596 .107284549 .21199036 .076293949 .18199158 .014251709 .1269989 .014251709 .10699463 .014251709 .085998538 .021270752 .07598877 .027282715 .102996829 .032287599 .12298584 .055282594 .12298584 .08128357 .12298584 .106292728 .10398865 .11729431 .084991458 .11729431 .055999757 .11729431 .02999878 .092285159 .02999878 .058288576 .02999878 .009246826 .083999637-.0107421879 .12599182-.0107421879 .18399048-.0107421879 .21798706 .03729248 .23298645 .06428528 .2579956-.0017547608 .31698609-.0107421879 .34399415-.0107421879 .45199586-.0107421879 .5089874 .11929321 .5089874 .14329529 .5089874 .14830017 .5059967 .15530396 .49598695 .15530396 .4850006 .15530396 .48399354 .1512909 .47898866 .1362915 .45700074 .06428528 .39898683 .014251709 .34700013 .014251709 .31799317 .014251709 .29100038 .032287599 .29100038 .08029175 .29100038 .10229492 .30499269 .15730286 .31399537 .1953125 .31799317 .21331787 .34498597 .32133485 .34700013 .32833863 .35899354 .3643341 .3889923 .41737367 .43998719 .41737367 .45799256 .41737367 .47698976 .41436769 .49198915 .40434266Z"/>
<path id="font_5_2" d="M.4019928 .38200379C.3639984 .38101197 .34399415 .352005 .34399415 .3270111 .34399415 .29800416 .36999513 .29101563 .38198854 .29101563 .4019928 .29101563 .43798829 .30801393 .43798829 .355011 .43798829 .40827943 .3849945 .4423828 .31599427 .4423828 .17999268 .4423828 .042999269 .30400086 .042999269 .16012573 .042999269 .06021118 .10998535-.0107421879 .21099854-.0107421879 .36099244-.0107421879 .44499208 .093185428 .44499208 .106170658 .44499208 .11216736 .43798829 .120162967 .43099977 .120162967 .42599488 .120162967 .4249878 .119155887 .41600038 .108169559 .35598756 .034225465 .2649994 .014251709 .21299744 .014251709 .15699768 .014251709 .11999512 .051223756 .11999512 .12315369 .11999512 .16612244 .13899231 .2650299 .1789856 .32901 .20199585 .3650055 .2539978 .41737367 .31698609 .41737367 .33599855 .41737367 .37799073 .41333009 .4019928 .38200379Z"/>
<path id="font_5_3" d="M.21299744 .3996582H.30799867C.32598878 .3996582 .33799745 .3996582 .33799745 .41766358 .33799745 .43066407 .32798768 .43066407 .30999757 .43066407H.22099304L.2619934 .59646609C.2619934 .6124573 .24899292 .62545779 .23098755 .62545779 .19898987 .62545779 .19099427 .59646609 .18899536 .5864868L.14898682 .43066407H.054992677C.035995485 .43066407 .023986817 .43066407 .023986817 .4126587 .023986817 .3996582 .034988405 .3996582 .052993776 .3996582H.14199829L.07398987 .12808228C.06599426 .09811401 .06599426 .09613037 .06599426 .08215332 .06599426 .023239136 .11099243-.0107421879 .16299439-.0107421879 .2669983-.0107421879 .32598878 .1330719 .32598878 .14305115 .32598878 .14804077 .32299806 .1550293 .31298829 .1550293 .30299378 .1550293 .3019867 .15203858 .29499818 .1350708 .2639923 .06317139 .21398926 .014251709 .16499329 .014251709 .14498902 .014251709 .1329956 .027236939 .1329956 .060180665 .1329956 .08215332 .13598633 .09413147 .13999939 .10910034L.21299744 .3996582Z"/>
<path id="font_6_5" d="M.7809906 .4298706C.7809906 .59402468 .6669922 .70410159 .5069885 .70410159 .27398683 .70410159 .050994874 .47291566 .050994874 .24972534 .050994874 .095581058 .15899658-.021484375 .32699586-.021484375 .5509949-.021484375 .7809906 .19366455 .7809906 .4298706M.33499146 .011505127C.23298645 .011505127 .1499939 .08457947 .1499939 .22769165 .1499939 .24371338 .1499939 .41085816 .2649994 .5529785 .3019867 .59802249 .3919983 .6730957 .5 .6730957 .59999087 .6730957 .6879883 .6040344 .6879883 .4649048 .6879883 .40986634 .6669922 .25372315 .56399539 .13160706 .5059967 .06254578 .41999818 .011505127 .33499146 .011505127Z"/>
<path id="font_6_1" d="M.20298767 .2952423C.23999024 .28125 .2769928 .28125 .29899598 .28125 .33299256 .28125 .397995 .28125 .397995 .31730653 .397995 .34733583 .34399415 .34733583 .30999757 .34733583 .2899933 .34733583 .25898744 .34733583 .21998596 .33433534 .19799805 .35533143 .18899536 .38331605 .18899536 .41130067 .18899536 .4672699 .22799683 .53822329 .30099488 .57321169 .32299806 .5502167 .34899903 .5502167 .36999513 .5502167 .4079895 .5502167 .46499635 .5522156 .46499635 .5861969 .46499635 .61621096 .41099549 .61621096 .37599183 .61621096 .35899354 .61621096 .34199525 .61621096 .31399537 .6121979 .31199647 .61920168 .30899049 .6292114 .30899049 .6422272 .30899049 .65623477 .31298829 .6732483 .31298829 .6762543 .31399537 .67726138 .31399537 .68125918 .31399537 .682251 .31399537 .69125369 .30699159 .6972656 .2999878 .6972656 .27799989 .6972656 .27799989 .65223696 .27799989 .64323428 .27799989 .62420657 .2829895 .60720828 .28399659 .60520938 .17199707 .5762024 .102996829 .49624635 .102996829 .41729737 .102996829 .36732484 .12998963 .33332826 .16799927 .31126405 .06098938 .25021363 .023986817 .1491394 .023986817 .10310364 .023986817 .012039185 .115997318-.020996094 .147995-.03300476 .20399475-.054016115 .20599365-.054016115 .25498963-.07102966 .2789917-.08003235 .31900025-.095047 .32598878-.0990448 .34199525-.109054569 .34199525-.123062137 .34199525-.1290741 .34199525-.14707947 .32899476-.17610169 .29699708-.17610169 .2889862-.17610169 .24798584-.17410279 .20799256-.15008545 .19799805-.14308167 .19699097-.14208985 .19198609-.14208985 .18099976-.14208985 .17799378-.15208435 .17799378-.15609741 .17799378-.17210388 .24198914-.20410156 .2979889-.20410156 .3639984-.20410156 .40499879-.14108277 .40499879-.095047 .40499879-.07702637 .397995-.058013917 .38598634-.044006349 .37298585-.02999878 .3600006-.024993897 .3039856-.0049743654 .21699524 .026046753 .1519928 .049057008 .13598633 .05807495 .10398865 .0750885 .08299255 .099105838 .08299255 .13212586 .08299255 .17315674 .11999512 .25021363 .20298767 .2952423M.4269867 .5832062C.4169922 .5812073 .40699769 .5782013 .37098695 .5782013 .34999085 .5782013 .34599305 .5782013 .33399964 .584198 .34999085 .5881958 .3600006 .5881958 .37799073 .5881958 .40499879 .5881958 .4119873 .587204 .4269867 .584198V.5832062M.3600006 .31428529C.35099793 .31227113 .34098817 .30924989 .3019867 .30924989 .2829895 .30924989 .272995 .30924989 .25698854 .31428529 .2789917 .31933595 .29100038 .31933595 .30899049 .31933595 .33799745 .31933595 .34599305 .3183136 .3600006 .31529237V.31428529Z"/>
<path id="font_7_3" d="M.73098757 .3330078C.74598696 .3330078 .7659912 .3330078 .7659912 .3560028 .7659912 .3789978 .74198916 .3789978 .72698977 .3789978H.09799194C.08299255 .3789978 .05899048 .3789978 .05899048 .3560028 .05899048 .3330078 .07899475 .3330078 .09399414 .3330078H.73098757M.72698977 .12098694C.74198916 .12098694 .7659912 .12098694 .7659912 .14398194 .7659912 .16699219 .74598696 .16699219 .73098757 .16699219H.09399414C.07899475 .16699219 .05899048 .16699219 .05899048 .14398194 .05899048 .12098694 .08299255 .12098694 .09799194 .12098694H.72698977Z"/>
<path id="font_7_1" d="M.31399537 .63708499C.31399537 .664032 .31199647 .66503909 .2849884 .66503909 .24398804 .6251831 .19099427 .6013489 .09599304 .6013489V.5683594C.12298584 .5683594 .1769867 .5683594 .23498535 .5953522V.08203125C.23498535 .04499817 .23199463 .032989503 .13699341 .032989503H.101989749V0C.14299011 .0029907227 .22898865 .0029907227 .27398683 .0029907227 .31900025 .0029907227 .4059906 .0029907227 .44699098 0V.032989503H.4119873C.31698609 .032989503 .31399537 .04499817 .31399537 .08203125V.63708499Z"/>
<path id="font_6_2" d="M.20298767 .054992677C.20298767 .08898926 .1749878 .11099243 .147995 .11099243 .115997318 .11099243 .09199524 .084991458 .09199524 .055999757 .09199524 .021987915 .11999512 0 .14698792 0 .1789856 0 .20298767 .025985718 .20298767 .054992677Z"/>
<path id="font_7_2" d="M.13798523 .33073426C.13798523 .41377259 .14498902 .4868164 .18099976 .54782107 .21099854 .5978241 .2619934 .6390381 .32499696 .6390381 .34498597 .6390381 .3909912 .63601687 .4139862 .60084536 .36898805 .5988312 .36499024 .5648346 .36499024 .553833 .36499024 .5238342 .3880005 .50683596 .4119873 .50683596 .42999269 .50683596 .45899964 .51782229 .45899964 .5558319 .45899964 .615921 .4139862 .66503909 .32398988 .66503909 .18499756 .66503909 .04399109 .53282168 .04399109 .31672669 .04399109 .045532228 .16999817-.021484375 .2669983-.021484375 .31498719-.021484375 .36698915-.0084991459 .4119873 .03453064 .45199586 .07354736 .48599244 .11558533 .48599244 .20263672 .48599244 .33372499 .3869934 .42578126 .27598573 .42578126 .20399475 .42578126 .16099549 .37976075 .13798523 .33073426M.2669983 .008514404C.21398926 .008514404 .18099976 .045532228 .1659851 .07354736 .14299011 .11859131 .14099121 .18663025 .14099121 .22465515 .14099121 .32373048 .19499207 .3977661 .27198792 .3977661 .32199098 .3977661 .35198976 .37176515 .37098695 .33673097 .3919983 .29971314 .3919983 .25468446 .3919983 .2036438 .3919983 .15260315 .3919983 .10858154 .37199403 .07255554 .34599305 .026519776 .31098939 .008514404 .2669983 .008514404Z"/>
<path id="font_1_72" d="M.2669983 0V.032989503C.20298767 .032989503 .19099427 .032989503 .19099427 .07801819V.69433596L.041992189 .6826172V.6496124C.10998535 .6496124 .117996219 .64260867 .117996219 .5936432V.07795715C.117996219 .032989503 .10598755 .032989503 .041992189 .032989503V0C.08099365 .0029907227 .13699341 .0029907227 .1539917 .0029907227 .17399597 .0029907227 .22799683 .0029907227 .2669983 0Z"/>
<path id="font_1_59" d="M.5149994 .40124513C.5149994 .418396 .5019989 .45239259 .45799256 .45239259 .44099427 .45239259 .3929901 .44839479 .34700013 .40625 .32199098 .4243927 .2829895 .44140626 .23599243 .44140626 .13699341 .44140626 .06399536 .37223817 .06399536 .294281 .06399536 .2472992 .08999634 .21231079 .11099243 .19232178 .08898926 .16732788 .08099365 .13531494 .08099365 .111328128 .08099365 .07032776 .100997928 .0393219 .12298584 .022323609 .070999149 .007904053 .02999878-.031097413 .02999878-.0770874 .02999878-.14909363 .1329956-.20507813 .2649994-.20507813 .3899994-.20507813 .5-.15408325 .5-.0750885 .5-.021102906 .46798707 .020904541 .43499757 .037902833 .37599183 .06889343 .32699586 .06889343 .22898865 .06889343H.17298889C.14199829 .07191467 .116989139 .099105838 .116989139 .13536072 .116989139 .15945435 .12298584 .16845703 .12998963 .17745972 .17199707 .15245056 .21099854 .14746094 .23498535 .14746094 .33399964 .14746094 .40699769 .21644593 .40699769 .29444886 .40699769 .3324585 .3899994 .36445619 .3659973 .39045716 .37998963 .40245057 .41299439 .42344667 .46199037 .42445375 .45799256 .42144776 .45298768 .41645814 .45298768 .40045167 .45298768 .3824463 .46598817 .36946107 .48399354 .36946107 .49798585 .36946107 .5149994 .3784485 .5149994 .40145875V.40124513M.32798768 .29444886C.32798768 .2574463 .32299806 .23146057 .30799867 .2114563 .28599549 .18345642 .2539978 .17645264 .23599243 .17645264 .14299011 .1761322 .14299011 .27218629 .14299011 .29418946 .14299011 .33122254 .147995 .35723878 .16299439 .37724305 .17999268 .40023805 .20799256 .4123993 .23498535 .4123993 .32798768 .4123993 .32798768 .3162079 .32798768 .29418946V.29444886M.44099427-.07601929C.44099427-.13005066 .3639984-.17608643 .2649994-.17608643 .16499329-.17610169 .08898926-.13009644 .08898926-.07609558 .08898926-.055099489 .10499573 .00390625 .18699646 .00390625H.2829895C.30999757 .00390625 .44099427 .00390625 .44099427-.07609558V-.07601929Z"/>
<path id="font_6_7" d="M.3919983 .38137818C.3829956 .39839173 .35398866 .44140626 .29299928 .44140626 .17399597 .44140626 .042999269 .3023529 .042999269 .15428162 .042999269 .050247194 .10998535-.009765625 .18699646-.009765625 .25099183-.009765625 .30599977 .041229249 .32398988 .06124878 .34199525-.0077667238 .4099884-.009765625 .42199708-.009765625 .46798707-.009765625 .4909973 .02822876 .49899293 .04524231 .5189972 .08125305 .5329895 .13928223 .5329895 .14328003 .5329895 .14927674 .5289917 .15628052 .5169983 .15628052 .5049896 .15628052 .5029907 .15028382 .49699403 .12527466 .48298646 .070251468 .46398927 .018234253 .4249878 .018234253 .4019928 .018234253 .3929901 .037231447 .3929901 .06524658 .3929901 .08226013 .4019928 .11627197 .4079895 .14128113 .4139862 .16629029 .42900086 .22631836 .43299867 .24432373L.45298768 .32035829C.45799256 .3443756 .46899415 .38638307 .46899415 .39138795 .46899415 .4143982 .44999696 .4223938 .43699647 .4223938 .42199708 .4223938 .39698792 .4123993 .3919983 .38137818M.32398988 .10826111C.27398683 .039230348 .22200012 .018234253 .18998719 .018234253 .14399719 .018234253 .12098694 .0602417 .12098694 .11227417 .12098694 .1592865 .147995 .2663269 .16999817 .3103485 .19898987 .37138368 .24798584 .4133911 .2939911 .4133911 .35899354 .4133911 .37799073 .34036256 .37799073 .32835389 .37799073 .32435609 .35299684 .22631836 .34700013 .20030213 .33399964 .1532898 .33399964 .1512909 .32398988 .10826111Z"/>
<path id="font_1_75" d="M.8569946 0V.032989503C.79299929 .032989503 .7809906 .032989503 .7809906 .07803345V.3032837C.7809906 .3843689 .74598696 .44140626 .6369934 .44140626 .54499819 .44140626 .49899293 .37835694 .48298646 .34933473 .46499635 .42140199 .4079895 .44140626 .34298707 .44140626 .24598694 .44140626 .19999695 .37236024 .18699646 .34532167H.18598938V.44140626L.040985109 .43045045V.39746095C.10899353 .39746095 .116989139 .3904419 .116989139 .3413849V.078048709C.116989139 .032989503 .10499573 .032989503 .040985109 .032989503V0C.083999637 .0029907227 .12799073 .0029907227 .15499878 .0029907227 .18399048 .0029907227 .22599793 .0029907227 .2689972 0V.032989503C.20498657 .032989503 .19299317 .032989503 .19299317 .078048709V.25927735C.19299317 .36434938 .27198792 .4133911 .33499146 .4133911 .3999939 .4133911 .41099549 .36235047 .41099549 .3072815V.07803345C.41099549 .032989503 .39898683 .032989503 .33499146 .032989503V0C.37799073 .0029907227 .42199708 .0029907227 .44898988 .0029907227 .47799684 .0029907227 .519989 .0029907227 .5629883 0V.032989503C.49899293 .032989503 .4869995 .032989503 .4869995 .07803345V.25923158C.4869995 .36434938 .56599429 .4133911 .6289978 .4133911 .69400027 .4133911 .7049866 .36235047 .7049866 .3072815V.07803345C.7049866 .032989503 .69299319 .032989503 .6289978 .032989503V0C.6719971 .0029907227 .71598818 .0029907227 .7429962 .0029907227 .7719879 .0029907227 .81399539 .0029907227 .8569946 0Z"/>
<path id="font_1_47" d="M.55400088 0V.032989503C.48599244 .032989503 .47799684 .039993287 .47799684 .089019779V.69433596L.32899476 .6826172V.6496124C.39698792 .6496124 .40499879 .64263918 .40499879 .5938263V.38339234C.36999513 .42140199 .32299806 .44140626 .2709961 .44140626 .1459961 .44140626 .034988405 .3443756 .034988405 .21531677 .034988405 .09225464 .1349945-.009765625 .26098634-.009765625 .31999208-.009765625 .36898805 .018234253 .4019928 .053237916V-.009765625L.55400088 0M.4019928 .12399292C.4019928 .10598755 .4019928 .101989749 .3869934 .08198547 .35899354 .042236329 .31298829 .018234253 .2659912 .018234253 .21998596 .018234253 .17999268 .042236329 .1559906 .07925415 .1289978 .118270877 .12399292 .16729737 .12399292 .21430969 .12399292 .27233888 .1329956 .3133545 .1559906 .3483734 .17999268 .38539125 .22499085 .4133911 .27598573 .4133911 .32398988 .4133911 .37199403 .38938905 .4019928 .33737184V.12399292Z"/>
<path id="font_1_95" d="M.7779999 .09051514C.7779999 .0965271 .7779999 .10952759 .7619934 .10952759 .7480011 .10952759 .7480011 .098526 .746994 .09152222 .74198916 .028518677 .70700076 .006515503 .67900088 .006515503 .625 .006515503 .61898806 .052520753 .6009979 .17953491 .59399417 .23654175 .58399966 .30555726 .47399903 .33955384 .5519867 .3595581 .647995 .41656495 .647995 .50257876 .647995 .601593 .5209961 .6826172 .37199403 .6826172H.04598999V.6496124H.067993167C.14498902 .6496124 .14698792 .63861086 .14698792 .601593V.08052063C.14698792 .04397583 .14498902 .032989503 .067993167 .032989503H.04598999V0L.19099427 .0029907227 .33699037 0V.032989503H.31498719C.23799134 .032989503 .23599243 .04397583 .23599243 .0809021V.3274536H.3619995C.43598939 .3274536 .46899415 .29052735 .47599793 .282547 .5049896 .2505951 .5049896 .23162842 .5049896 .16375733 .5049896 .100875858 .5049896 .05795288 .5469971 .020996094 .58999636-.016494751 .6459961-.021484375 .6749878-.021484375 .7579956-.021484375 .7779999 .0605011 .7779999 .09049988V.09051514M.5439911 .50253298C.5439911 .3914795 .46398927 .35546876 .35899354 .35546876H.23599243V.6085968C.23599243 .6345978 .23699951 .6456146 .26098634 .64860537 .269989 .6496124 .3019867 .6496124 .32199098 .6496124 .4119873 .6496124 .5439911 .6496124 .5439911 .50253298Z"/>
<path id="font_1_114" d="M.7449951 .3976593V.43066407C.71199038 .42765809 .70999148 .42765809 .6669922 .42765809 .6349945 .42765809 .60798647 .42765809 .57598879 .43066407V.3976593C.6199951 .3956604 .6309967 .36968995 .6309967 .3517151 .6309967 .33973695 .6279907 .33374024 .6259918 .3267517L.5309906 .07810974 .42799378 .35072328C.4229889 .3637085 .4229889 .36669923 .4229889 .37069703 .4229889 .39665223 .45498658 .3976593 .47898866 .3976593V.43066407C.43998719 .42765809 .3869934 .42765809 .3769989 .42765809 .35499574 .42765809 .31399537 .42765809 .28399659 .43066407V.3976593C.34498597 .3976593 .34700013 .39266969 .3659973 .33973695L.27398683 .09307861 .1749878 .3517151C.17399597 .3557129 .16999817 .36669923 .16999817 .37069703 .16999817 .3976593 .20799256 .3976593 .22599793 .3976593V.43066407C.18299866 .42765809 .13798523 .42765809 .11898804 .42765809 .100997928 .42765809 .049987794 .42765809 .020996094 .43066407V.3976593C.070999149 .3976593 .08099365 .3936615 .09199524 .3657074L.22599793 .014190674C.23199463-.00079345706 .23498535-.009765625 .25099183-.009765625 .2679901-.009765625 .27198792 .0012054443 .2769928 .014190674L.3829956 .2947998 .4889984 .014190674C.49398805 .0012054443 .49798585-.009765625 .5149994-.009765625 .5309906-.009765625 .5349884 .00021362305 .5389862 .011199951L.6599884 .3297577C.6689911 .35272218 .6859894 .39665223 .7449951 .3976593Z"/>
<path id="font_3_2" d="M.5379944 .18702698H.5009918C.49899293 .17301941 .4889984 .10699463 .47399903 .09599304 .46699525 .08999634 .38598634 .08999634 .37199403 .08999634H.18499756L.31298829 .19403076C.34700013 .22103882 .43598939 .28504945 .46699525 .31506349 .49699403 .3450775 .5379944 .39608766 .5379944 .46710206 .5379944 .5920563 .4249878 .66503909 .29100038 .66503909 .1619873 .66503909 .07199097 .58006289 .07199097 .48609925 .07199097 .43510438 .114990238 .42910768 .12599182 .42910768 .15098572 .42910768 .17999268 .44709779 .17999268 .48310853 .17999268 .50509646 .16699219 .5371094 .12298584 .5371094 .1459961 .5880585 .20698548 .6260376 .27598573 .6260376 .3809967 .6260376 .43699647 .5480957 .43699647 .46710206 .43699647 .39608766 .3899994 .32305909 .31999208 .25904847L.08299255 .041992189C.07299805 .03199768 .07199097 .0309906 .07199097 0H.5069885L.5379944 .18702698Z"/>
<path id="font_8_1" d="M.6749878 .22944641C.69299319 .22944641 .71199038 .22944641 .71199038 .25144959 .71199038 .27246095 .69200137 .27246095 .6749878 .27246095H.12298584C.10598755 .27246095 .085998538 .27246095 .085998538 .25144959 .085998538 .22944641 .10499573 .22944641 .12298584 .22944641H.6749878Z"/>
<path id="font_9_1" d="M.70799258 .3310089C.7220001 .3310089 .7409973 .3310089 .7409973 .35202027 .7409973 .37402345 .71899417 .37402345 .70399478 .37402345H.09399414C.07899475 .37402345 .056991579 .37402345 .056991579 .35202027 .056991579 .3310089 .07699585 .3310089 .08999634 .3310089H.70799258M.70399478 .12695313C.71899417 .12695313 .7409973 .12695313 .7409973 .14894104 .7409973 .1699524 .7220001 .1699524 .70799258 .1699524H.08999634C.07699585 .1699524 .056991579 .1699524 .056991579 .14894104 .056991579 .12695313 .07899475 .12695313 .09399414 .12695313H.70399478Z"/>
<path id="font_3_3" d="M.56399539 .1640625V.2030487H.44699098V.6448059C.44699098 .6678009 .44699098 .6748047 .42199708 .6748047 .4039917 .6748047 .4019928 .6717987 .3929901 .65979006L.04598999 .2030487V.1640625H.35699464V.08401489C.35699464 .050994874 .35699464 .038986207 .272995 .038986207H.24398804V0C.2639923 .0009918213 .35798646 .0039978029 .4019928 .0039978029 .44599916 .0039978029 .5399933 .0009918213 .55999758 0V.038986207H.5309906C.44699098 .038986207 .44699098 .050994874 .44699098 .08401489V.1640625H.56399539M.3639984 .56585696V.2030487H.08898926L.3639984 .56585696Z"/>
<path id="font_5_1" d="M.38198854 .3803711C.36299134 .41638185 .33198548 .4423828 .2869873 .4423828 .17098999 .4423828 .041992189 .30433656 .041992189 .1512909 .041992189 .041259767 .11199951-.0107421879 .1789856-.0107421879 .24398804-.0107421879 .29699708 .043258668 .31298829 .06227112 .32398988 .007247925 .37399293-.0107421879 .4059906-.0107421879 .43499757-.0107421879 .45999146 .002243042 .48199464 .044265748 .5 .07727051 .5139923 .13928223 .5139923 .14329529 .5139923 .14828491 .5109863 .1552887 .5009918 .1552887 .4889984 .1552887 .48799134 .15029907 .48399354 .13128662 .46199037 .044265748 .43998719 .014251709 .40899659 .014251709 .38398744 .014251709 .37799073 .038253786 .37799073 .060272218 .37799073 .07926941 .3829956 .09927368 .3919983 .1342926L.4169922 .23731995C.42399598 .2623291 .44198609 .33735658 .44599916 .35235597 .44999696 .36636354 .45599366 .3903656 .45599366 .39337159 .45599366 .40937806 .44299317 .42237855 .4249878 .42237855 .4119873 .42237855 .3869934 .41438294 .38198854 .3803711M.31698609 .122283939C.31199647 .103271488 .31199647 .10227966 .29599 .08326721 .2599945 .040252687 .21899414 .014251709 .18199158 .014251709 .1329956 .014251709 .115997318 .06526184 .115997318 .10827637 .115997318 .15730286 .14498902 .27233888 .16899109 .32034303 .20098877 .3803711 .24699402 .41737367 .2869873 .41737367 .35398866 .41737367 .36898805 .33735658 .36898805 .33035279 .36898805 .3253479 .36698915 .3193512 .3659973 .31533814L.31698609 .122283939Z"/>
<path id="font_6_3" d="M.31599427 .32344056H.41999818C.5019989 .32344056 .5059967 .3074646 .5059967 .27851869 .5059967 .27153016 .5059967 .2615509 .49899293 .23561096 .49798585 .23161316 .49699403 .22363281 .49699403 .22062683 .49699403 .21963501 .49699403 .20666504 .5119934 .20666504 .5239868 .20666504 .5269928 .21664429 .5299988 .22961426L.58299258 .4434967C.58399966 .4454956 .58699038 .4584961 .58699038 .45950318 .58699038 .46350099 .58399966 .47351075 .57099917 .47351075 .5589905 .47351075 .5569916 .46450807 .55400088 .4524994 .5339966 .37445069 .5109863 .3564453 .42199708 .3564453H.32499696L.3880005 .60858157C.39698792 .64460757 .397995 .64660647 .43899537 .64660647H.58599856C.7049866 .64660647 .7389984 .6215973 .7389984 .5355377 .7389984 .51452639 .73399356 .48851014 .73399356 .46949769 .73399356 .45750428 .7409973 .4524994 .7489929 .4524994 .7630005 .4524994 .7639923 .46150209 .7659912 .47851563L.7839966 .64860537C.7849884 .6536102 .7849884 .660614 .7849884 .66560366 .7849884 .6796112 .772995 .6796112 .7549896 .6796112H.24198914C.22399903 .6796112 .21099854 .6796112 .21099854 .66160586 .21099854 .64660647 .22299195 .64660647 .23999024 .64660647 .24699402 .64660647 .26098634 .64660647 .27799989 .64460757 .29899598 .64260867 .3019867 .64060977 .3019867 .6306 .3019867 .6255951 .30099488 .6215973 .2979889 .6105957L.16499329 .0789032C.1559906 .04096985 .1539917 .032989503 .07998657 .032989503 .06098938 .032989503 .04899597 .032989503 .04899597 .01399231 .04899597 .009994507 .051986696 0 .06498718 0 .085998538 0 .10998535 .0029907227 .13198853 .0029907227H.269989C.2889862 .0019989014 .32499696 0 .34399415 0 .35099793 0 .36499024 0 .36499024 .018997193 .36499024 .032989503 .35299684 .032989503 .33198548 .032989503 .31098939 .032989503 .30299378 .032989503 .27999879 .034988405 .25299073 .037979127 .25 .04096985 .25 .052947999 .25 .053955079 .25 .059936525 .2539978 .074905399L.31599427 .32344056Z"/>
<path id="font_6_6" d="M.31498719 .31178285H.49699403C.6409912 .31178285 .79100039 .41174317 .79100039 .52967837 .79100039 .614624 .71099856 .6826172 .58200076 .6826172H.24499512C.22698975 .6826172 .21398926 .6826172 .21398926 .66360476 .21398926 .6496124 .22698975 .6496124 .24299622 .6496124 .27598573 .6496124 .30499269 .6496124 .30499269 .6336212 .30499269 .6296234 .3039856 .62861636 .30099488 .6156311L.16699219 .07896423C.1579895 .041992189 .1559906 .032989503 .084991458 .032989503 .06199646 .032989503 .050994874 .032989503 .050994874 .01399231 .050994874 .009994507 .053985597 0 .066986087 0 .085998538 0 .10998535 .0019989014 .1289978 .0029907227H.19299317C.2889862 .0029907227 .31498719 0 .32199098 0 .32798768 0 .34199525 0 .34199525 .018997193 .34199525 .032989503 .32899476 .032989503 .31199647 .032989503 .30899049 .032989503 .29100038 .032989503 .27398683 .034988405 .25299073 .036987306 .25099183 .039993287 .25099183 .048980714 .25099183 .053970338 .25299073 .05996704 .2539978 .064971927L.31498719 .31178285M.3880005 .6126251C.39698792 .64660647 .397995 .6496124 .43899537 .6496124H.548996C.6309967 .6496124 .69400027 .6256256 .69400027 .55166628 .69400027 .53868106 .68899539 .4497223 .6329956 .39476014 .6179962 .37976075 .56999209 .34179688 .47200013 .34179688H.31999208L.3880005 .6126251Z"/>
<path id="font_6_4" d="M.3880005 .6046295C.39698792 .63861086 .39898683 .6496124 .4909973 .6496124 .5189972 .6496124 .5289917 .6496124 .5289917 .6686096 .5289917 .6706085 .5269928 .6826172 .5119934 .6826172 .4909973 .6826172 .46099855 .680603 .43998719 .6796112H.36799623C.2639923 .6796112 .23999024 .6826172 .23298645 .6826172 .22898865 .6826172 .21299744 .6826172 .21299744 .66360476 .21299744 .6496124 .22599793 .6496124 .24198914 .6496124 .2749939 .6496124 .3039856 .6496124 .3039856 .6336212 .3039856 .6296234 .30299378 .62861636 .2999878 .6156311L.1659851 .07896423C.15699768 .040985109 .15499878 .032989503 .08099365 .032989503 .06199646 .032989503 .049987794 .032989503 .049987794 .01399231 .049987794 0 .06298828 0 .07998657 0H.5629883C.58799746 0 .58898928 .0009918213 .5970001 .019989014 .6069946 .04798889 .6799927 .23587036 .6799927 .24586487 .6799927 .2548523 .6719971 .25985719 .6649933 .25985719 .6539917 .25985719 .6519928 .2528534 .644989 .23786927 .60899356 .14492798 .56599429 .032989503 .3869934 .032989503H.2599945C.25099183 .034988405 .24798584 .034988405 .24798584 .041992189 .24798584 .049987794 .25 .0579834 .2519989 .0639801L.3880005 .6046295Z"/>
<path id="font_10_95" d="M.8829956 .09687805C.8829956 .11882019 .8679962 .12080383 .8569946 .12080383 .83399966 .12080383 .83299258 .10684204 .83200076 .09687805 .82699587 .04798889 .79599 .027999878 .7679901 .027999878 .70799258 .027999878 .69999697 .087890628 .6879883 .17367554 .6769867 .2474823 .66999819 .30134584 .57099917 .3383026 .6559906 .3623047 .73799136 .41534425 .73799136 .49942018 .73799136 .60450747 .6199951 .6855469 .43099977 .6855469H.041992189V.63653567H.1499939V.04899597H.041992189V0C.07798767 .0029907227 .17799378 .0029907227 .21899414 .0029907227 .2599945 .0029907227 .36099244 .0029907227 .39698792 0V.04899597H.2889862V.32229615H.4119873C.45298768 .32229615 .47999574 .31332398 .5089874 .2834015 .5369873 .25546266 .5369873 .23153687 .5369873 .16470337 .5369873 .10185242 .5369873 .054977418 .5970001 .019989014 .6409912-.005004883 .70399478-.012008667 .7589874-.012008667 .8659973-.012008667 .8829956 .074920658 .8829956 .09687805M.58099368 .49942018C.58099368 .44236756 .57899478 .3623047 .41299439 .3623047H.2889862V.63653567H.4149933C.5779877 .63653567 .58099368 .5594635 .58099368 .49942018Z"/>
<path id="font_10_66" d="M.2919922 0V.04899597H.23098755V.4501953L.054992677 .4423828V.39337159C.11299133 .39337159 .11999512 .39337159 .11999512 .3543396V.04899597H.051986696V0C.11898804 .0019989014 .13198853 .0029907227 .17399597 .0029907227 .22299195 .0029907227 .23599243 .0019989014 .2919922 0M.24198914 .6053314C.24198914 .65234377 .20399475 .68434146 .1639862 .68434146 .12199402 .68434146 .085998538 .6503296 .085998538 .6063385 .085998538 .55934146 .12399292 .52734377 .1639862 .52734377 .20599365 .52734377 .24198914 .56134036 .24198914 .6053314Z"/>
<path id="font_10_77" d="M.6299896-.0002746582V.048721315H.56199648V.30471803C.56199648 .4237213 .48999024 .4497223 .40299989 .4497223 .27999879 .4497223 .23098755 .35972596 .22399903 .34472657H.22299195V.4497223L.049987794 .44172669V.39271546C.10998535 .39271546 .117996219 .39271546 .117996219 .353714V.048721315H.049987794V-.0002746582L.17599488 .0027160645 .30299378-.0002746582V.048721315H.23498535V.25372315C.23498535 .36572267 .32699586 .40971376 .3869934 .40971376 .4249878 .40971376 .44499208 .38871766 .44499208 .3137207V.048721315H.3769989V-.0002746582L.5029907 .0027160645 .6299896-.0002746582Z"/>
<path id="font_10_47" d="M.61499026 0V.04899597C.5549927 .04899597 .5469971 .04899597 .5469971 .088012699V.69433596L.36799623 .6855469V.63653567C.42799378 .63653567 .43598939 .63653567 .43598939 .5976715V.40518189C.3919983 .43719483 .34498597 .4501953 .29699708 .4501953 .13398743 .4501953 .038986207 .35118104 .038986207 .22216797 .038986207 .089141849 .1329956-.005859375 .2849884-.005859375 .34799195-.005859375 .397995 .018127442 .42999269 .044128419V-.005859375L.61499026 0M.42999269 .10899353C.4079895 .074142459 .3600006 .03413391 .29599 .03413391 .17199707 .03413391 .17199707 .15414429 .17199707 .22015381 .17199707 .27816773 .17298889 .32118226 .19898987 .3581848 .22499085 .39819337 .272995 .41018678 .30799867 .41018678 .35798646 .41018678 .39898683 .3881836 .42999269 .34918214V.10899353Z"/>
<path id="font_10_72" d="M.29899598 0V.04899597H.23098755V.69433596L.051986696 .6855469V.63653567C.11199951 .63653567 .11999512 .63653567 .11999512 .5975647V.04899597H.051986696V0L.1749878 .0029907227 .29899598 0Z"/>
<path id="font_10_50" d="M.5089874 .11605835C.5089874 .13604737 .4889984 .13604737 .48298646 .13604737 .46499635 .13604737 .46299745 .13005066 .45700074 .11605835 .43399049 .06410217 .37298585 .037139894 .30999757 .037139894 .16799927 .037139894 .1659851 .16601563 .1659851 .21496582H.47599793C.49699403 .21496582 .5089874 .21496582 .5089874 .2429657 .5089874 .26498414 .5069885 .35305787 .44198609 .4071045 .39698792 .4441223 .33699037 .453125 .28799439 .453125 .116989139 .453125 .032989503 .345047 .032989503 .22497559 .032989503 .09408569 .13198853-.005859375 .3019867-.005859375 .46699525-.005859375 .5089874 .1000824 .5089874 .11605835M.41099549 .25097657H.1659851C.16799927 .29701234 .17298889 .41311646 .28799439 .41311646 .40499879 .41311646 .40899659 .29100038 .41099549 .25097657Z"/>
<path id="font_10_96" d="M.45498658 .36618043C.45498658 .41719056 .40299989 .4501953 .34399415 .4501953 .27398683 .4501953 .23098755 .39918519 .20899964 .34118653H.20799256V.4501953L.040985109 .4423828V.39337159C.100997928 .39337159 .10899353 .39337159 .10899353 .3543396V.04899597H.040985109V0L.16899109 .0029907227C.19400025 .0029907227 .2519989 .0029907227 .30499269 0V.04899597H.21998596V.21818543C.21998596 .29125978 .24699402 .40737916 .34399415 .41036988 .33299256 .39898683 .32798768 .38198854 .32798768 .3659973 .32798768 .32199098 .36299134 .3019867 .3909912 .3019867 .4229889 .3019867 .45498658 .32398988 .45498658 .3659973V.36618043Z"/>
<path id="font_10_114" d="M.8279877 .3953247V.44433595C.7999878 .44132997 .7749939 .44132997 .7480011 .44132997 .71598818 .44132997 .68499758 .44232179 .6529999 .44433595V.3953247C.66600039 .3953247 .68899539 .3953247 .70899966 .38632203 .70700076 .37832643 .70700076 .37731935 .70399478 .37031556L.59799197 .11618042 .48199464 .3953247H.5359955V.44433595L.42399598 .44132997C.4139862 .44132997 .36499024 .44132997 .32199098 .44433595V.3953247H.37998963C.3929901 .36631776 .3929901 .36431886 .39898683 .3493042L.31199647 .13919068 .20498657 .3953247H.25898744V.44433595L.13699341 .44132997C.11399841 .44132997 .07699585 .44132997 .025985718 .44433595V.3953247H.083999637L.23999024 .021118164C.25099183-.0048828127 .2669983-.0048828127 .2789917-.0048828127 .30599977-.0048828127 .31098939 .0061187746 .31799317 .023132325L.4269867 .28326417 .5359955 .021118164C.5469971-.0048828127 .56199648-.0048828127 .57499697-.0048828127 .58699038-.0048828127 .6029968-.0048828127 .6139984 .021118164L.7609863 .37332154C.7679901 .389328 .769989 .3953247 .8279877 .3953247Z"/>
<path id="font_10_59" d="M.57499697 .39517213C.57499697 .42118836 .5549927 .45619203 .5089874 .45619203 .45999146 .45619203 .41799928 .43218995 .39898683 .41818238 .35699464 .44319154 .31098939 .4501953 .2630005 .4501953 .10998535 .4501953 .057998659 .36715699 .057998659 .30212403 .057998659 .24708557 .09199524 .21107483 .10998535 .19606018 .08898926 .17304993 .07699585 .13902283 .07699585 .10900879 .07699585 .06599426 .09799194 .031967164 .11898804 .012954712 .042999269-.008056641 .032989503-.051071168 .032989503-.0730896 .032989503-.13311768 .101989749-.20114136 .29499818-.20114136 .46998597-.2010498 .55799868-.14604187 .55799868-.0700531 .55799868-.03504944 .54499819 .026947022 .47599793 .05895996 .41799928 .08496094 .36499024 .08496094 .2659912 .08496094H.21598816C.18399048 .08496094 .16999817 .08496094 .15299988 .09802246 .13798523 .111083988 .12998963 .12817383 .12998963 .14828491 .12998963 .1683197 .13798523 .17930603 .13798523 .17930603 .1749878 .16030884 .21899414 .15332031 .2630005 .15332031 .41600038 .15332031 .46798707 .23631287 .46798707 .3013153 .46798707 .34231568 .44898988 .37532044 .42799378 .39631654 .45498658 .41018678 .47499085 .41218568 .48799134 .41418458 .4869995 .41018678 .4850006 .40419007 .4850006 .39419557 .4850006 .36721803 .5059967 .3492279 .5299988 .3492279 .5519867 .3492279 .57499697 .36521913 .57499697 .39520265V.39517213M.35299684 .3022461C.35299684 .25727845 .35299684 .1933136 .2630005 .1933136 .17298889 .1933136 .17298889 .25727845 .17298889 .30125428 .17298889 .34622193 .17298889 .41018678 .2630005 .41018678 .35299684 .41018678 .35299684 .34622193 .35299684 .3022461M.46899415-.07408142C.46899415-.10610962 .43199159-.16113281 .29599-.16113281 .1639862-.16113281 .12199402-.1111145 .12199402-.07208252 .12199402-.014053345 .18598938-.014053345 .20098877-.014053345H.32199098C.35299684-.014007568 .46899415-.014007568 .46899415-.07400513V-.07408142Z"/>
<path id="font_10_44" d="M.24299622 .36532594C.24299622 .41133119 .20599365 .44433595 .16499329 .44433595 .11898804 .44433595 .085998538 .40733338 .085998538 .366333 .085998538 .32232667 .12098694 .287323 .16499329 .287323 .20799256 .287323 .24299622 .32232667 .24299622 .36532594M.24299622 .07798767C.24299622 .12399292 .20599365 .15699768 .16499329 .15699768 .11898804 .15699768 .085998538 .11999512 .085998538 .07899475 .085998538 .032989503 .12298584 0 .1639862 0 .20999146 0 .24299622 .036987306 .24299622 .07798767Z"/>
<path id="font_10_63" d="M.6299896 0V.04899597H.56199648V.30513C.56199648 .42419435 .48999024 .4501953 .40299989 .4501953 .30799867 .4501953 .25498963 .3961792 .22898865 .35516358V.69433596L.049987794 .6855469V.63653567C.10998535 .63653567 .117996219 .63653567 .117996219 .5976715V.04899597H.049987794V0L.17599488 .0029907227 .30299378 0V.04899597H.23498535V.2541046C.23498535 .36616517 .32699586 .41018678 .3869934 .41018678 .4249878 .41018678 .44499208 .38917542 .44499208 .3141327V.04899597H.3769989V0L.5029907 .0029907227 .6299896 0Z"/>
<path id="font_10_118" d="M.59599307 .3953247V.44433595C.56799319 .44132997 .54299929 .44132997 .5149994 .44132997 .4850006 .44132997 .45399476 .44232179 .4249878 .44433595V.3953247C.4249878 .3953247 .46899415 .3953247 .46899415 .38331605 .46899415 .38331605 .46899415 .38131715 .46398927 .37130738L.34498597 .12709046 .21499634 .3953247H.2659912V.44433595L.14299011 .44132997C.10699463 .44132997 .08699036 .44132997 .027999878 .44433595V.3953247H.09098816L.2829895-.000015258789C.24798584-.082092288 .20999146-.16015625 .1329956-.16015625 .1269989-.16015625 .12098694-.16015625 .11399841-.15716553 .1309967-.14814759 .14299011-.13014221 .14299011-.1051178 .14299011-.06707764 .114990238-.045059205 .08299255-.045059205 .050994874-.045059205 .022994996-.06707764 .022994996-.1051178 .022994996-.15916443 .07299805-.2001648 .13198853-.2001648 .20999146-.2001648 .27198792-.14215088 .30299378-.0770874L.5219879 .37330628C.5289917 .38832093 .5329895 .3953247 .59599307 .3953247Z"/>
<path id="font_10_84" d="M.61698916 .22218323C.61698916 .354187 .526001 .4501953 .375 .4501953 .2939911 .45033265 .23899842 .41633607 .21998596 .40234376V.4501953L.040985109 .4423828V.39337159C.06098938 .39337159 .07699585 .39337159 .08999634 .39038087 .10899353 .38737489 .10899353 .3763733 .10899353 .3553772V-.14453125H.040985109V-.19354248L.16699219-.1905365 .2939911-.19354248V-.14453125H.22599793V.03942871C.2849884-.005859375 .33999635-.005859375 .35899354-.005859375 .5159912-.005859375 .61698916 .089141849 .61698916 .22216797V.22218323M.48399354 .22315979C.48399354 .08413696 .41299439 .03413391 .34700013 .03413391 .29599 .03413391 .25299073 .06314087 .22599793 .104141239V.34518434C.24398804 .3671875 .29100038 .4071808 .35899354 .4071808 .42900086 .4071808 .48399354 .34518434 .48399354 .22315979Z"/>
<path id="font_10_35" d="M.61698916 .22207642C.61698916 .35716249 .519989 .4501953 .37199403 .4501953 .2919922 .4501953 .23899842 .41618348 .21998596 .4021759V.69433596L.040985109 .6863251V.6373291C.100997928 .6373291 .10899353 .6373291 .10899353 .5982971V0H.1599884L.20698548 .056991579C.23899842 .025131226 .28799439-.005859375 .35899354-.005859375 .5149994-.005859375 .61698916 .088134769 .61698916 .22216797V.22207642M.48399354 .22416687C.48399354 .18215943 .48399354 .13014221 .46299745 .09414673 .42999269 .038131715 .36898805 .03413391 .34899903 .03413391 .2869873 .03413391 .24699402 .072143558 .22599793 .104141239V.34617616C.25099183 .3781891 .29899598 .41018678 .3600006 .41018678 .48399354 .41018678 .48399354 .2901764 .48399354 .22416687Z"/>
<path id="font_10_81" d="M.55799868 .21812439C.55799868 .3491211 .46598817 .453125 .29599 .453125 .11999512 .453125 .032989503 .3441162 .032989503 .21812439 .032989503 .09413147 .12298584-.005859375 .29499818-.005859375 .47399903-.005859375 .55799868 .09913635 .55799868 .21812439M.4249878 .22912598C.4249878 .14312744 .4249878 .037139894 .29599 .037139894 .1659851 .037139894 .1659851 .14213562 .1659851 .22912598 .1659851 .3131256 .1659851 .41311646 .29499818 .41311646 .4249878 .41311646 .4249878 .3131256 .4249878 .22912598Z"/>
<path id="font_10_43" d="M.49198915 .11613464C.49198915 .13212586 .47698976 .13212586 .46598817 .13212586 .44599916 .13212586 .44599916 .13113404 .43798829 .11312866 .41799928 .06512451 .37298585 .037139894 .31399537 .037139894 .17199707 .037139894 .17199707 .18112183 .17199707 .22612 .17199707 .28611756 .17298889 .41011048 .3039856 .41011048 .31098939 .41011048 .36499024 .40911866 .36499024 .40411378L.3619995 .39912416C.35299684 .38812257 .34899903 .3721161 .34899903 .35812379 .34899903 .3171234 .37998963 .29312135 .4139862 .29312135 .44499208 .29312135 .47898866 .31411744 .47898866 .3591156 .47898866 .453125 .33898927 .453125 .2999878 .453125 .10798645 .453125 .038986207 .33111573 .038986207 .22212219 .038986207 .09613037 .1289978-.005859375 .29499818-.005859375 .33198548-.005859375 .3809967 .0001373291 .4229889 .026138306 .47999574 .06098938 .49198915 .11299133 .49198915 .115997318V.11613464Z"/>
<path id="font_10_98" d="M.4269867 .14027405C.4269867 .19128418 .397995 .22328186 .37998963 .23828125 .33499146 .27627564 .30299378 .28128053 .22399903 .294281 .17599488 .3022766 .11299133 .31228639 .11299133 .35728456 .11299133 .41711427 .20599365 .41711427 .22799683 .41711427 .33999635 .41711427 .34399415 .35827638 .34599305 .33128358 .34700013 .3173828 .36099244 .3173828 .37098695 .3173828 .3959961 .3173828 .39698792 .32237245 .39698792 .3463745V.42411805C.39698792 .4421234 .39698792 .453125 .3769989 .453125 .36698915 .453125 .35099793 .44511415 .33299256 .43511964 .30099488 .44911195 .2619934 .453125 .22898865 .453125 .19799805 .4532776 .038986207 .4532776 .038986207 .32128907 .038986207 .2162323 .16999817 .19421387 .20498657 .18821717 .2869873 .1742096 .35299684 .16320801 .35299684 .106170658 .35299684 .03413391 .25898744 .03413391 .23699951 .03413391 .18598938 .03413391 .12098694 .0471344 .09199524 .13919068 .08699036 .15620423 .085998538 .15919495 .06498718 .15919495 .038986207 .15919495 .038986207 .15319824 .038986207 .12918091V.023132325C.038986207 .005126953 .038986207-.005859375 .05899048-.005859375 .06599426-.005859375 .067993167-.005859375 .08999634 .008132935L.116989139 .025131226C.1639862-.005859375 .21699524-.005859375 .23699951-.005859375 .2669983-.005859375 .4269867-.005859375 .4269867 .1401825V.14027405Z"/>
<path id="font_10_28" d="M.56900027 .025131226C.56900027 .0491333 .5529938 .0491333 .54299929 .0491333 .47898866 .050125123 .47898866 .060134889 .47898866 .08413696V.29812623C.47898866 .38612367 .40699769 .453125 .25299073 .453125 .19599915 .453125 .067993167 .45111085 .067993167 .3591156 .067993167 .31411744 .101989749 .29312135 .1329956 .29312135 .16699219 .29312135 .19799805 .3171234 .19799805 .35812379 .19799805 .38711549 .18099976 .40411378 .17799378 .40711976 .18798828 .40911866 .21199036 .41311646 .24899292 .41311646 .32099916 .41311646 .3619995 .37712098 .3619995 .29812623V.26612855C.19599915 .26612855 .027999878 .22312927 .027999878 .11213684 .027999878 .013137817 .15299988-.005859375 .22499085-.005859375 .30099488-.005859375 .35299684 .027130127 .37998963 .0741272 .37998963 .04798889 .37998963 0 .4869995 0H.5359955C.5549927 0 .56900027 0 .56900027 .024993897V.025131226M.3619995 .13899231C.3619995 .033996583 .24598694 .033996583 .24198914 .033996583 .19099427 .033996583 .14898682 .066986087 .14898682 .11199951 .14898682 .14498902 .16699219 .22299195 .3619995 .23199463V.13899231Z"/>
<path id="font_10_105" d="M.3929901 .123184207V.1762085H.34199525V.12617493C.34199525 .055145265 .30599977 .037139894 .2809906 .037139894 .22299195 .037139894 .22299195 .09716797 .22299195 .1211853V.3953247H.37399293V.44433595H.22299195V.6357422H.17199707C.17098999 .5415344 .12399292 .43832398 .021987915 .43533326V.3953247H.10598755V.123184207C.10598755 .009140015 .20498657-.005859375 .2669983-.005859375 .34498597-.005859375 .3929901 .05014038 .3929901 .123184207Z"/>
<path id="font_10_120" d="M.47599793 .20513916H.4249878C.41600038 .10205078 .39698792 .042999269 .2659912 .042999269H.1789856L.46099855 .39631654C.47099305 .4083252 .47200013 .412323 .47200013 .42132569 .47200013 .44433595 .45599366 .44433595 .43798829 .44433595H.06199646L.04899597 .26519776H.099990848C.10699463 .36328126 .13198853 .4043274 .24299622 .4043274H.32699586L.04399109 .05000305C.033996583 .036987306 .032989503 .033996583 .032989503 .023986817 .032989503 0 .04798889 0 .066986087 0H.45700074L.47599793 .20513916Z"/>
</defs>
<path transform="matrix(1,0,0,-1,126.581729,155.22379)" d="M0 0 113.38724 113.38724H130.39548V-113.38724H113.38724Z" fill="#fffbd2"/>
<path transform="matrix(1,0,0,-1,126.581729,155.22379)" stroke-width="1.19553" stroke-linecap="butt" stroke-dasharray="2.98883,2.98883" stroke-miterlimit="10" stroke-linejoin="miter" fill="none" stroke="#000000" d="M-11.33855-11.33855 116.22208 116.22208"/>
<path transform="matrix(1,0,0,-1,126.581729,155.22379)" stroke-width="1.19553" stroke-linecap="butt" stroke-dasharray="2.98883,2.98883" stroke-miterlimit="10" stroke-linejoin="miter" fill="none" stroke="#000000" d="M-11.33855 11.33855 116.22208-116.22208"/>
<use data-text="f" xlink:href="#font_1_55" transform="matrix(5.635666,-5.635666,-5.635666,-5.635666,197.5868,79.128238)"/>
<use data-text="u" xlink:href="#font_1_109" transform="matrix(5.635666,-5.635666,-5.635666,-5.635666,199.4184,77.296649)"/>
<use data-text="t" xlink:href="#font_1_105" transform="matrix(5.635666,-5.635666,-5.635666,-5.635666,202.74344,73.9716)"/>
<use data-text="u" xlink:href="#font_1_109" transform="matrix(5.635666,-5.635666,-5.635666,-5.635666,205.07099,71.64407)"/>
<use data-text="r" xlink:href="#font_1_96" transform="matrix(5.635666,-5.635666,-5.635666,-5.635666,208.39603,68.31902)"/>
<use data-text="e" xlink:href="#font_1_50" transform="matrix(5.635666,-5.635666,-5.635666,-5.635666,210.72919,65.985858)"/>
<use data-text="h" xlink:href="#font_1_63" transform="matrix(5.635666,-5.635666,-5.635666,-5.635666,215.38425,61.330797)"/>
<use data-text="o" xlink:href="#font_1_81" transform="matrix(5.635666,-5.635666,-5.635666,-5.635666,218.70929,58.00575)"/>
<use data-text="r" xlink:href="#font_1_96" transform="matrix(5.635666,-5.635666,-5.635666,-5.635666,221.70185,55.01321)"/>
<use data-text="i" xlink:href="#font_1_66" transform="matrix(5.635666,-5.635666,-5.635666,-5.635666,224.035,52.680044)"/>
<use data-text="z" xlink:href="#font_1_120" transform="matrix(5.635666,-5.635666,-5.635666,-5.635666,225.69751,51.01752)"/>
<use data-text="o" xlink:href="#font_1_81" transform="matrix(5.635666,-5.635666,-5.635666,-5.635666,228.35755,48.357488)"/>
<use data-text="n" xlink:href="#font_1_77" transform="matrix(5.635666,-5.635666,-5.635666,-5.635666,231.3501,45.36495)"/>
<use data-text="H" xlink:href="#font_2_1" transform="matrix(5.635666,-5.635666,-5.635666,-5.635666,236.67017,40.04488)"/>
<use data-text="+" xlink:href="#font_3_1" transform="matrix(4.2267496,-4.2267496,-4.2267496,-4.2267496,239.78394,32.95325)"/>
<use data-text="p" xlink:href="#font_1_84" transform="matrix(5.635666,5.635666,5.635666,-5.635666,206.05358,227.53122)"/>
<use data-text="a" xlink:href="#font_1_28" transform="matrix(5.635666,5.635666,5.635666,-5.635666,209.37862,230.85626)"/>
<use data-text="s" xlink:href="#font_1_98" transform="matrix(5.635666,5.635666,5.635666,-5.635666,212.37116,233.84879)"/>
<use data-text="t" xlink:href="#font_1_105" transform="matrix(5.635666,5.635666,5.635666,-5.635666,214.7325,236.21015)"/>
<use data-text="h" xlink:href="#font_1_63" transform="matrix(5.635666,5.635666,5.635666,-5.635666,219.05506,240.53269)"/>
<use data-text="o" xlink:href="#font_1_81" transform="matrix(5.635666,5.635666,5.635666,-5.635666,222.3801,243.85774)"/>
<use data-text="r" xlink:href="#font_1_96" transform="matrix(5.635666,5.635666,5.635666,-5.635666,225.37264,246.85028)"/>
<use data-text="i" xlink:href="#font_1_66" transform="matrix(5.635666,5.635666,5.635666,-5.635666,227.70581,249.18344)"/>
<use data-text="z" xlink:href="#font_1_120" transform="matrix(5.635666,5.635666,5.635666,-5.635666,229.36833,250.84597)"/>
<use data-text="o" xlink:href="#font_1_81" transform="matrix(5.635666,5.635666,5.635666,-5.635666,232.02837,253.506)"/>
<use data-text="n" xlink:href="#font_1_77" transform="matrix(5.635666,5.635666,5.635666,-5.635666,235.0209,256.49855)"/>
<use data-text="H" xlink:href="#font_2_1" transform="matrix(5.635666,5.635666,5.635666,-5.635666,240.34098,261.8186)"/>
<use data-text="&#x2212;" xlink:href="#font_4_1" transform="matrix(4.2267496,4.2267496,4.2267496,-4.2267496,247.4326,264.93238)"/>
<path transform="matrix(1,0,0,-1,126.581729,155.22379)" stroke-width=".79701" stroke-linecap="butt" stroke-miterlimit="10" stroke-linejoin="miter" fill="none" stroke="#000000" d="M-11.33855 0H135.32933"/>
<path transform="matrix(1,0,0,-1,261.91108,155.22379)" d="M4.76161 0C4.17688 .14473 1.60649 .96486 0 1.85738V-1.85738C1.60649-.96486 4.17688-.14473 4.76161 0Z"/>
<path transform="matrix(1,0,0,-1,261.91108,155.22379)" stroke-width=".79701" stroke-linecap="butt" stroke-miterlimit="10" stroke-linejoin="miter" fill="none" stroke="#000000" d="M4.76161 0C4.17688 .14473 1.60649 .96486 0 1.85738V-1.85738C1.60649-.96486 4.17688-.14473 4.76161 0Z"/>
<use data-text="x" xlink:href="#font_5_4" transform="matrix(8.966376,0,0,-8.966376,272.03486,157.15406)"/>
<path transform="matrix(1,0,0,-1,126.581729,155.22379)" stroke-width=".79701" stroke-linecap="butt" stroke-miterlimit="10" stroke-linejoin="miter" fill="none" stroke="#000000" d="M0-113.38724V118.32106"/>
<path transform="matrix(0,-1,-1,-0,126.581729,36.902727)" d="M4.76161 0C4.17688 .14473 1.60649 .96486 0 1.85738V-1.85738C1.60649-.96486 4.17688-.14473 4.76161 0Z"/>
<path transform="matrix(0,-1,-1,-0,126.581729,36.902727)" stroke-width=".79701" stroke-linecap="butt" stroke-miterlimit="10" stroke-linejoin="miter" fill="none" stroke="#000000" d="M4.76161 0C4.17688 .14473 1.60649 .96486 0 1.85738V-1.85738C1.60649-.96486 4.17688-.14473 4.76161 0Z"/>
<use data-text="c" xlink:href="#font_5_2" transform="matrix(8.966376,0,0,-8.966376,122.92305,26.77893)"/>
<use data-text="t" xlink:href="#font_5_3" transform="matrix(8.966376,0,0,-8.966376,126.90413,26.77893)"/>
<use data-text="O" xlink:href="#font_6_5" transform="matrix(7.970112,0,0,-7.970112,116.40117,164.1899)"/>
<path transform="matrix(1,0,0,-1,126.581729,155.22379)" stroke-width="1.19553" stroke-linecap="butt" stroke-miterlimit="10" stroke-linejoin="miter" fill="none" stroke="#d90000" d="M63.74355-57.095C63.74355-57.095 62.25034-55.42268 61.69244-54.79434 61.13457-54.166 60.25816-53.1746 59.72267-52.56631 59.18718-51.95802 58.34639-50.99908 57.83292-50.41011 57.31943-49.82115 56.51385-48.89206 56.02187-48.3214 55.52989-47.75073 54.75865-46.85025 54.28696-46.29712 53.81526-45.74397 53.0739-44.87067 52.62213-44.33469 52.17035-43.79872 51.46284-42.9539 51.0308-42.43413 50.59879-41.91435 49.92172-41.09277 49.50829-40.58849 49.09486-40.08418 48.44637-39.28886 48.05106-38.79951 47.65575-38.31017 47.03651-37.53687 46.65915-37.06157 46.2818-36.58626 45.69145-35.8355 45.33125-35.37381 44.97107-34.91212 44.40675-34.18283 44.06306-33.73405 43.71938-33.28528 43.18144-32.57593 42.85413-32.13928 42.52681-31.70264 42.01552-31.01167 41.70401-30.5869 41.39249-30.16212 40.90503-29.49129 40.60881-29.07779 40.31258-28.66429 39.8501-28.00984 39.569-27.60672 39.28789-27.20361 38.84921-26.5655 38.58281-26.17244 38.3164-25.77936 37.90137-25.15695 37.64896-24.77359 37.39655-24.39023 37.00221-23.78374 36.76355-23.40936 36.52487-23.035 36.1535-22.44144 35.92876-22.07542 35.70401-21.70941 35.35507-21.12943 35.14369-20.77132 34.93233-20.41322 34.604-19.84494 34.40535-19.49448 34.20671-19.14401 33.8979-18.58858 33.71199-18.2453 33.52608-17.90202 33.2386-17.35725 33.06534-17.02036 32.89209-16.68346 32.62437-16.14777 32.46326-15.81703 32.30212-15.4863 32.053-14.96149 31.90399-14.63664 31.75497-14.31178 31.52644-13.7954 31.38927-13.47571 31.25208-13.15602 31.04086-12.64738 30.9152-12.3325 30.78955-12.01762 30.59767-11.51662 30.48354-11.20618 30.3694-10.89574 30.19531-10.4016 30.09251-10.09499 29.98973-9.78838 29.8343-9.29929 29.7426-8.99634 29.65091-8.69339 29.51219-8.21124 29.4316-7.91154 29.35101-7.61183 29.2313-7.13324 29.16168-6.83624 29.09209-6.53925 28.98854-6.06563 28.92986-5.7709 28.87119-5.47618 28.78662-5.00475 28.73868-4.71205 28.69073-4.41937 28.62158-3.95247 28.58426-3.66142 28.54694-3.37036 28.49614-2.90434 28.46964-2.61424 28.44312-2.32414 28.40915-1.85966 28.39308-1.57053 28.37701-1.28139 28.35918-.81822 28.35371-.53029 28.34827-.24234 28.34857 .21669 28.35371 .50476 28.35887 .79282 28.3752 1.25674 28.39091 1.54588 28.40663 1.83502 28.4407 2.2988 28.46704 2.58871 28.49336 2.87863 28.54384 3.34435 28.5808 3.63547 28.61775 3.92659 28.6856 4.3944 28.73347 4.68697 28.78137 4.97952 28.8674 5.4495 28.92596 5.7441 28.98454 6.0387 29.0864 6.51323 29.15564 6.8103 29.22488 7.10736 29.34494 7.58545 29.42511 7.88515 29.50528 8.18486 29.64224 8.66751 29.7335 8.9704 29.82478 9.27327 29.9804 9.76181 30.08301 10.06818 30.18562 10.37454 30.35913 10.86818 30.47314 11.1785 30.58716 11.48882 30.7794 11.99017 30.90483 12.30482 31.03024 12.61948 31.24026 13.12686 31.37715 13.44629 31.51402 13.76573 31.74274 14.28226 31.89145 14.60722 32.04015 14.93219 32.28827 15.45782 32.44897 15.7885 32.6097 16.11917 32.87677 16.65385 33.04977 16.99051 33.2228 17.32718 33.5105 17.8718 33.696 18.21501 33.8815 18.55823 34.18842 19.11401 34.38676 19.46419 34.5851 19.81438 34.91423 20.38121 35.12553 20.73888 35.33684 21.09656 35.68529 21.6764 35.90973 22.04211 36.13417 22.40784 36.50504 23.00046 36.74323 23.37477 36.9814 23.74907 37.37448 24.35649 37.62646 24.73985 37.87846 25.12323 38.29335 25.74503 38.55945 26.13782 38.82555 26.53061 39.26353 27.16808 39.54434 27.57082 39.82513 27.97356 40.2875 28.62715 40.5833 29.04059 40.8791 29.45403 41.36522 30.12616 41.67632 30.55057 41.98743 30.97498 42.49869 31.66327 42.82558 32.0995 43.15247 32.53574 43.68915 33.24603 44.03235 33.69469 44.37556 34.14334 44.93942 34.87177 45.29926 35.33315 45.65909 35.79453 46.24886 36.5451 46.62584 37.02005 47.00284 37.495 47.62144 38.26726 48.01646 38.75626 48.41147 39.24524 49.05974 40.04044 49.47281 40.54437 49.88588 41.0483 50.56206 41.86899 50.99362 42.38828 51.42517 42.90756 52.13214 43.75143 52.58319 44.28711 53.03426 44.82278 53.77348 45.69656 54.24457 46.24911 54.71567 46.80165 55.48692 47.69955 55.97862 48.2695 56.4703 48.83943 57.27548 49.76814 57.78835 50.35692 58.30122 50.94571 59.1403 51.90514 59.67508 52.51312 60.20985 53.12112 61.08519 54.11105 61.6427 54.73897 62.20023 55.36688 63.69336 57.03877 63.69336 57.03877"/>
<path transform="matrix(1,0,0,-1,126.581729,155.22379)" stroke-width="1.19553" stroke-linecap="butt" stroke-miterlimit="10" stroke-linejoin="miter" fill="none" stroke="#990000" d="M101.98985-91.352C101.98985-91.352 99.60083-88.67645 98.70819-87.67111 97.81554-86.66577 96.4131-85.07944 95.55629-84.10614 94.69946-83.13284 93.35437-81.59853 92.53284-80.6562 91.7113-79.71388 90.42245-78.22748 89.63527-77.31442 88.84808-76.40138 87.61397-74.96059 86.85924-74.07558 86.10449-73.19055 84.91852-71.79337 84.19566-70.93578 83.47281-70.0782 82.3406-68.72629 81.64932-67.8946 80.95802-67.06294 79.87473-65.74855 79.21326-64.94168 78.55179-64.1348 77.51436-62.86214 76.88188-62.07915 76.2494-61.29614 75.25854-60.05884 74.65475-59.29836 74.05096-58.53786 73.10643-57.33665 72.53012-56.598 71.95381-55.85936 71.05098-54.69275 70.50108-53.97467 69.95119-53.2566 69.0905-52.12135 68.56677-51.42268 68.04303-50.72403 67.2248-49.61865 66.72632-48.93907 66.22786-48.25948 65.44803-47.18622 64.97412-46.52463 64.5002-45.86304 63.76031-44.8158 63.31058-44.17078 62.86084-43.52576 62.15895-42.50465 61.73267-41.87572 61.3064-41.24678 60.64215-40.25117 60.23825-39.63777 59.83437-39.02437 59.20355-38.05374 58.82169-37.45474 58.43983-36.85576 57.84561-35.90622 57.48601-35.3206 57.12642-34.73499 56.56808-33.80699 56.22992-33.23404 55.89175-32.66109 55.3665-31.75192 55.04866-31.19116 54.73083-30.63042 54.23668-29.74165 53.9392-29.19241 53.64171-28.64316 53.18176-27.7716 52.90457-27.23257 52.62737-26.69354 52.19911-25.83655 51.9413-25.30734 51.6835-24.77815 51.2848-23.93823 51.04639-23.41846 50.80795-22.89868 50.44235-22.07263 50.22282-21.56114 50.00331-21.04965 49.66519-20.23581 49.46416-19.73193 49.26312-19.22806 48.95644-18.42628 48.77383-17.92955 48.59123-17.43283 48.31244-16.64238 48.14795-16.15182 47.98347-15.66127 47.73499-14.87872 47.58826-14.39398 47.44153-13.90926 47.21936-13.13771 47.09041-12.6582 46.96144-12.17871 46.77011-11.41318 46.65872-10.938 46.54735-10.46281 46.38152-9.70496 46.2876-9.23337 46.19368-8.7618 46.05849-8.0074 45.9818-7.53912 45.9051-7.07085 45.79453-6.32397 45.73482-5.85828 45.67513-5.39258 45.59386-4.64682 45.55142-4.18263 45.509-3.71844 45.45476-2.97523 45.42902-2.51259 45.40329-2.04994 45.37463-1.30884 45.36588-.84819 45.35712-.38754 45.3576 .34671 45.36588 .80754 45.37415 1.26837 45.4004 2.01059 45.42555 2.47324 45.4507 2.93587 45.50497 3.67807 45.54709 4.14197 45.58922 4.60587 45.67003 5.351 45.7292 5.81676 45.78836 6.28252 45.89696 7.0308 45.97359 7.4989 46.05022 7.967 46.18782 8.71915 46.28156 9.19055 46.37529 9.66194 46.53844 10.42117 46.64922 10.89648 46.75998 11.37178 46.95177 12.13675 47.08002 12.61626 47.20827 13.09575 47.42747 13.86784 47.57353 14.35245 47.71959 14.83707 47.96861 15.6188 48.13281 16.109 48.29701 16.59918 48.57452 17.38895 48.75696 17.88542 48.9394 18.38191 49.24704 19.18394 49.44772 19.6874 49.6484 20.19084 49.98433 21.00287 50.20337 21.51399 50.42241 22.02513 50.78856 22.85136 51.0265 23.37132 51.26443 23.89127 51.66129 24.73242 51.91838 25.2615 52.17548 25.79057 52.60263 26.64589 52.87949 27.18457 53.15633 27.72325 53.61687 28.59479 53.91368 29.14397 54.21051 29.69313 54.70146 30.58243 55.01881 31.14272 55.33615 31.703 55.86284 32.60986 56.20094 33.18214 56.53905 33.75443 57.09662 34.68227 57.45573 35.2674 57.81485 35.85252 58.40817 36.80052 58.78925 37.39938 59.17033 37.99825 59.79918 38.97029 60.20235 39.5837 60.60551 40.1971 61.26932 41.1919 61.69505 41.82034 62.12077 42.44879 62.82147 43.4688 63.27078 44.11324 63.7201 44.75766 64.46011 45.80342 64.93346 46.46495 65.40678 47.12648 66.18446 48.20204 66.6822 48.8811 67.17995 49.56017 67.99791 50.66116 68.52092 51.35912 69.04393 52.05707 69.9026 53.19363 70.45177 53.91151 71.00095 54.6294 71.90332 55.79492 72.47908 56.53314 73.05484 57.27136 73.99834 58.47229 74.60155 59.23218 75.20474 59.99207 76.19453 61.22754 76.82652 62.00993 77.45851 62.79231 78.49568 64.06488 79.1566 64.87117 79.81752 65.67744 80.89955 66.9902 81.59006 67.82108 82.28056 68.65196 83.41173 70.00255 84.13338 70.85965 84.85503 71.71675 86.03755 73.11453 86.79132 73.99858 87.5451 74.88264 88.77934 76.31947 89.56607 77.23138 90.35278 78.14328 91.64091 79.62897 92.46147 80.571 93.28203 81.51302 94.62448 83.0481 95.48015 84.02092 96.33583 84.99374 97.73656 86.57776 98.62859 87.58244 99.52063 88.58711 101.9094 91.26204 101.9094 91.26204"/>
<path transform="matrix(1,0,0,-1,126.581729,155.22379)" stroke-width="1.19553" stroke-linecap="butt" stroke-miterlimit="10" stroke-linejoin="miter" fill="none" stroke="#660000" d="M152.98392-137.02759C152.98392-137.02759 149.4001-133.01383 148.0612-131.5058 146.72229-129.99779 144.61919-127.61867 143.33399-126.15878 142.0488-124.69888 140.03078-122.39745 138.7984-120.98389 137.56603-119.57033 135.63259-117.3404 134.45183-115.97078 133.27106-114.60115 131.4203-112.44008 130.28821-111.11252 129.15613-109.78496 127.3767-107.68893 126.29243-106.4026 125.20818-105.11627 123.51039-103.08893 122.47354-101.84148 121.43669-100.59404 119.81174-98.62216 118.81947-97.41187 117.82721-96.20158 116.27072-94.2929 115.32198-93.1185 114.37321-91.94409 112.88713-90.08827 111.98148-88.94753 111.07582-87.8068 109.65903-86.0049 108.79453-84.8968 107.93004-83.78873 106.57565-82.03821 105.75076-80.96115 104.92587-79.8841 103.63481-78.182 102.84929-77.13405 102.06378-76.0861 100.83691-74.42767 100.08926-73.40817 99.34163-72.38867 98.17172-70.77849 97.46074-69.7861 96.74976-68.79372 95.63966-67.22314 94.965-66.25572 94.29034-65.2883 93.23747-63.75699 92.59814-62.81358 91.95883-61.87018 90.96295-60.3763 90.35718-59.45622 89.7514-58.53615 88.80493-57.08081 88.2321-56.18234 87.65929-55.28387 86.76799-53.85918 86.22859-52.9807 85.6892-52.10222 84.85175-50.7103 84.34447-49.85085 83.83717-48.99141 83.0491-47.62746 82.57236-46.78632 82.0956-45.94518 81.35457-44.61224 80.90837-43.78839 80.46217-42.96454 79.77226-41.65706 79.35643-40.84843 78.9406-40.03981 78.29803-38.75412 77.91132-37.96039 77.5246-37.16664 76.92677-35.90732 76.56917-35.12769 76.21155-34.34805 75.66306-33.10857 75.33382-32.3413 75.0046-31.57402 74.49788-30.3534 74.19626-29.5977 73.89464-28.84201 73.43385-27.63983 73.1599-26.89478 72.88594-26.1497 72.46843-24.96362 72.22173-24.22774 71.975-23.49185 71.60179-22.31805 71.38173-21.59099 71.16167-20.86392 70.82903-19.70685 70.6356-18.98753 70.44218-18.26822 70.15474-17.11943 69.98767-16.40659 69.8206-15.69376 69.57225-14.55716 69.43141-13.84985 69.29056-13.14253 69.08759-12.01114 68.97249-11.30869 68.8574-10.60623 68.6914-9.48553 68.6018-8.78699 68.5122-8.08846 68.39038-6.97015 68.3267-6.27396 68.26305-5.57774 68.18147-4.46306 68.14288-3.76912 68.10431-3.07518 68.06166-1.9635 68.0486-1.2725 68.03552-.58151 68.03624 .51979 68.0486 1.21109 68.06096 1.90239 68.09995 3.01593 68.1377 3.70987 68.17545 4.40381 68.25742 5.51672 68.32066 6.21252 68.3839 6.90833 68.5049 8.02599 68.59358 8.72472 68.68227 9.42345 68.84505 10.54643 68.95995 11.24858 69.07486 11.95073 69.28136 13.07838 69.42189 13.7854 69.56244 14.49242 69.80672 15.63133 69.97295 16.3443 70.13919 17.05725 70.42757 18.20464 70.62003 18.92395 70.81248 19.64326 71.14105 20.80176 71.3601 21.5287 71.57915 22.25565 71.9525 23.42801 72.19879 24.1633 72.44508 24.89859 72.86159 26.08333 73.13524 26.82816 73.40889 27.57298 73.87016 28.77638 74.17117 29.53152 74.47218 30.28667 74.97633 31.50412 75.30484 32.27078 75.63336 33.03745 76.18199 34.27725 76.53888 35.05719 76.89578 35.83713 77.4914 37.09843 77.87715 37.89204 78.26292 38.68567 78.904 39.96906 79.31923 40.77707 79.73447 41.58508 80.42471 42.89204 80.86989 43.71573 81.31505 44.53941 82.05179 45.87323 82.5278 46.71365 83.00383 47.55408 83.79366 48.91458 84.30077 49.77301 84.80788 50.63142 85.64406 52.02292 86.18274 52.90067 86.72142 53.77843 87.61154 55.20094 88.18323 56.09929 88.75491 56.99763 89.69829 58.45528 90.3031 59.37535 90.90791 60.29541 91.90369 61.78784 92.54236 62.73053 93.18102 63.67322 94.23228 65.20306 94.90617 66.16965 95.58006 67.13622 96.68942 68.70479 97.39932 69.69699 98.10922 70.6892 99.27599 72.30219 100.02267 73.32079 100.76936 74.3394 101.9964 75.99147 102.78096 77.03847 103.56552 78.08545 104.85355 79.7901 105.67723 80.86685 106.50092 81.94362 107.85396 83.69174 108.71754 84.79906 109.58115 85.90637 110.99663 87.70773 111.90146 88.84763 112.80627 89.9875 114.2909 91.84113 115.23892 93.01468 116.18695 94.18825 117.74289 96.09644 118.73425 97.3059 119.72562 98.51535 121.34831 100.4853 122.38402 101.73161 123.41974 102.97792 125.11642 105.00279 126.199 106.2884 127.28159 107.57402 129.05593 109.67134 130.18657 110.99745 131.31722 112.32356 133.16797 114.4783 134.348 115.84619 135.52805 117.21408 137.46063 119.44313 138.69156 120.85628 139.9225 122.26942 141.93637 124.572 143.2198 126.03117 144.50325 127.49034 146.60376 129.86602 147.94182 131.37302 149.27988 132.88002 152.86367 136.89264 152.86367 136.89264"/>
<path transform="matrix(1,0,0,-1,126.581729,155.22379)" stroke-width=".3985" stroke-linecap="butt" stroke-dasharray="2.98883,2.98883" stroke-miterlimit="10" stroke-linejoin="miter" fill="none" stroke="#b2b3b2" d="M0 0 130.39548 70.00842"/>
<path transform="matrix(1,0,0,-1,126.581729,155.22379)" stroke-width=".3985" stroke-linecap="butt" stroke-dasharray="2.98883,2.98883" stroke-miterlimit="10" stroke-linejoin="miter" fill="none" stroke="#b2b3b2" d="M0 0 130.39548-70.00842"/>
<path transform="matrix(1,0,0,-1,126.581729,155.22379)" stroke-width=".3985" stroke-linecap="butt" stroke-dasharray="2.98883,2.98883" stroke-miterlimit="10" stroke-linejoin="miter" fill="none" stroke="#bfbfbf" d="M0 0 130.39548 99.29643"/>
<path transform="matrix(1,0,0,-1,126.581729,155.22379)" stroke-width=".3985" stroke-linecap="butt" stroke-dasharray="2.98883,2.98883" stroke-miterlimit="10" stroke-linejoin="miter" fill="none" stroke="#bfbfbf" d="M0 0 130.39548-99.29643"/>
<path transform="matrix(1,0,0,-1,126.581729,155.22379)" d="M46.74983 0C46.74983 .77031 46.12537 1.39478 45.35506 1.39478 44.58473 1.39478 43.96027 .77031 43.96027 0 43.96027-.77031 44.58473-1.39478 45.35506-1.39478 46.12537-1.39478 46.74983-.77031 46.74983 0ZM45.35506 0"/>
<use data-text="&#x03be;" xlink:href="#font_6_1" transform="matrix(7.970112,0,0,-7.970112,176.87358,162.31855)"/>
<use data-text="=" xlink:href="#font_7_3" transform="matrix(7.970112,0,0,-7.970112,183.25945,162.31855)"/>
<use data-text="1" xlink:href="#font_7_1" transform="matrix(7.970112,0,0,-7.970112,192.19394,162.31855)"/>
<use data-text="." xlink:href="#font_6_2" transform="matrix(7.970112,0,0,-7.970112,196.43247,162.31855)"/>
<use data-text="6" xlink:href="#font_7_2" transform="matrix(7.970112,0,0,-7.970112,198.78478,162.31855)"/>
<use data-text="l" xlink:href="#font_1_72" transform="matrix(7.970112,0,0,-7.970112,195.26251,98.660099)" fill="#d90000"/>
<use data-text="a" xlink:href="#font_1_28" transform="matrix(7.970112,0,0,-7.970112,197.61371,98.660099)" fill="#d90000"/>
<use data-text="r" xlink:href="#font_1_96" transform="matrix(7.970112,0,0,-7.970112,201.84583,98.660099)" fill="#d90000"/>
<use data-text="g" xlink:href="#font_1_59" transform="matrix(7.970112,0,0,-7.970112,205.14545,98.660099)" fill="#d90000"/>
<use data-text="e" xlink:href="#font_1_50" transform="matrix(7.970112,0,0,-7.970112,209.3776,98.660099)" fill="#d90000"/>
<use data-text="a" xlink:href="#font_6_7" transform="matrix(7.970112,0,0,-7.970112,215.96089,98.660099)" fill="#d90000"/>
<use data-text="m" xlink:href="#font_1_75" transform="matrix(7.970112,0,0,-7.970112,233.50882,65.18017)" fill="#990000"/>
<use data-text="e" xlink:href="#font_1_50" transform="matrix(7.970112,0,0,-7.970112,240.56238,65.18017)" fill="#990000"/>
<use data-text="d" xlink:href="#font_1_47" transform="matrix(7.970112,0,0,-7.970112,244.32427,65.18017)" fill="#990000"/>
<use data-text="i" xlink:href="#font_1_66" transform="matrix(7.970112,0,0,-7.970112,249.02664,65.18017)" fill="#990000"/>
<use data-text="u" xlink:href="#font_1_109" transform="matrix(7.970112,0,0,-7.970112,251.3778,65.18017)" fill="#990000"/>
<use data-text="m" xlink:href="#font_1_75" transform="matrix(7.970112,0,0,-7.970112,256.0802,65.18017)" fill="#990000"/>
<use data-text="a" xlink:href="#font_6_7" transform="matrix(7.970112,0,0,-7.970112,265.95515,65.18017)" fill="#990000"/>
<use data-text="s" xlink:href="#font_1_98" transform="matrix(7.970112,0,0,-7.970112,284.5029,19.504593)" fill="#660000"/>
<use data-text="m" xlink:href="#font_1_75" transform="matrix(7.970112,0,0,-7.970112,287.84239,19.504593)" fill="#660000"/>
<use data-text="a" xlink:href="#font_1_28" transform="matrix(7.970112,0,0,-7.970112,294.89595,19.504593)" fill="#660000"/>
<use data-text="l" xlink:href="#font_1_72" transform="matrix(7.970112,0,0,-7.970112,299.12806,19.504593)" fill="#660000"/>
<use data-text="l" xlink:href="#font_1_72" transform="matrix(7.970112,0,0,-7.970112,301.47926,19.504593)" fill="#660000"/>
<use data-text="a" xlink:href="#font_6_7" transform="matrix(7.970112,0,0,-7.970112,306.65187,19.504593)" fill="#660000"/>
<use data-text="R" xlink:href="#font_1_95" transform="matrix(7.970112,0,0,-7.970112,193.84848,141.5817)"/>
<use data-text="i" xlink:href="#font_1_66" transform="matrix(7.970112,0,0,-7.970112,200.08112,141.5817)"/>
<use data-text="n" xlink:href="#font_1_77" transform="matrix(7.970112,0,0,-7.970112,202.4323,141.5817)"/>
<use data-text="d" xlink:href="#font_1_47" transform="matrix(7.970112,0,0,-7.970112,207.13468,141.5817)"/>
<use data-text="l" xlink:href="#font_1_72" transform="matrix(7.970112,0,0,-7.970112,211.83704,141.5817)"/>
<use data-text="e" xlink:href="#font_1_50" transform="matrix(7.970112,0,0,-7.970112,214.18822,141.5817)"/>
<use data-text="r" xlink:href="#font_1_96" transform="matrix(7.970112,0,0,-7.970112,217.9501,141.5817)"/>
<use data-text="w" xlink:href="#font_1_114" transform="matrix(7.970112,0,0,-7.970112,224.07117,141.5817)"/>
<use data-text="e" xlink:href="#font_1_50" transform="matrix(7.970112,0,0,-7.970112,229.9531,141.5817)"/>
<use data-text="d" xlink:href="#font_1_47" transform="matrix(7.970112,0,0,-7.970112,233.715,141.5817)"/>
<use data-text="g" xlink:href="#font_1_59" transform="matrix(7.970112,0,0,-7.970112,238.41736,141.5817)"/>
<use data-text="e" xlink:href="#font_1_50" transform="matrix(7.970112,0,0,-7.970112,242.6495,141.5817)"/>
<path transform="matrix(1,0,0,-1,126.581729,155.22379)" d="M132.60837-51.44185H68.65413C67.55367-51.44185 66.66158-52.33392 66.66158-53.4344V-76.96107C66.66158-78.06154 67.55367-78.95363 68.65413-78.95363H132.60837C133.70885-78.95363 134.60092-78.06154 134.60092-76.96107V-53.4344C134.60092-52.33392 133.70885-51.44185 132.60837-51.44185ZM66.66158-78.95363" fill="#ffffff"/>
<path transform="matrix(1,0,0,-1,126.581729,155.22379)" stroke-width=".3985" stroke-linecap="butt" stroke-miterlimit="10" stroke-linejoin="miter" fill="none" stroke="#b9b9b9" d="M132.60837-51.44185H68.65413C67.55367-51.44185 66.66158-52.33392 66.66158-53.4344V-76.96107C66.66158-78.06154 67.55367-78.95363 68.65413-78.95363H132.60837C133.70885-78.95363 134.60092-78.06154 134.60092-76.96107V-53.4344C134.60092-52.33392 133.70885-51.44185 132.60837-51.44185ZM66.66158-78.95363"/>
<use data-text="x" xlink:href="#font_5_4" transform="matrix(8.966376,0,0,-8.966376,197.22841,224.11103)"/>
<use data-text="2" xlink:href="#font_3_2" transform="matrix(5.977584,0,0,-5.977584,202.45186,220.30202)"/>
<use data-text="&#x2212;" xlink:href="#font_8_1" transform="matrix(8.966376,0,0,-8.966376,208.65077,224.11103)"/>
<use data-text="c" xlink:href="#font_5_2" transform="matrix(8.966376,0,0,-8.966376,217.86615,224.11103)"/>
<use data-text="2" xlink:href="#font_3_2" transform="matrix(5.977584,0,0,-5.977584,221.85569,220.30202)"/>
<use data-text="t" xlink:href="#font_5_3" transform="matrix(8.966376,0,0,-8.966376,226.00672,224.11103)"/>
<use data-text="2" xlink:href="#font_3_2" transform="matrix(5.977584,0,0,-5.977584,229.3345,220.30202)"/>
<use data-text="=" xlink:href="#font_9_1" transform="matrix(8.966376,0,0,-8.966376,236.04538,224.11103)"/>
<use data-text="c" xlink:href="#font_5_2" transform="matrix(8.966376,0,0,-8.966376,247.41449,218.31212)"/>
<use data-text="4" xlink:href="#font_3_3" transform="matrix(5.977584,0,0,-5.977584,251.40402,214.50312)"/>
<path transform="matrix(1,0,0,-1,142.64669,140.88938)" stroke-width=".378585" stroke-linecap="butt" stroke-miterlimit="10" stroke-linejoin="miter" fill="none" stroke="#000000" d="M104.32155-80.98005H113.3546"/>
<use data-text="a" xlink:href="#font_5_1" transform="matrix(8.966376,0,0,-8.966376,246.96823,230.19222)"/>
<use data-text="2" xlink:href="#font_3_2" transform="matrix(5.977584,0,0,-5.977584,251.85025,227.61853)"/>
<use data-text="F" xlink:href="#font_6_3" transform="matrix(7.970112,0,0,-7.970112,87.93599,83.42814)" fill="#b2b3b2"/>
<use data-text="r" xlink:href="#font_1_96" transform="matrix(7.970112,0,0,-7.970112,97.292697,83.42814)" fill="#b2b3b2"/>
<use data-text="e" xlink:href="#font_1_50" transform="matrix(7.970112,0,0,-7.970112,100.59233,83.42814)" fill="#b2b3b2"/>
<use data-text="g" xlink:href="#font_1_59" transform="matrix(7.970112,0,0,-7.970112,104.35422,83.42814)" fill="#b2b3b2"/>
<use data-text="i" xlink:href="#font_1_66" transform="matrix(7.970112,0,0,-7.970112,108.58635,83.42814)" fill="#b2b3b2"/>
<use data-text="o" xlink:href="#font_1_81" transform="matrix(7.970112,0,0,-7.970112,110.93753,83.42814)" fill="#b2b3b2"/>
<use data-text="n" xlink:href="#font_1_77" transform="matrix(7.970112,0,0,-7.970112,115.16966,83.42814)" fill="#b2b3b2"/>
<use data-text="P" xlink:href="#font_6_6" transform="matrix(7.970112,0,0,-7.970112,87.93114,230.83185)" fill="#b2b3b2"/>
<use data-text="r" xlink:href="#font_1_96" transform="matrix(7.970112,0,0,-7.970112,97.29754,230.83185)" fill="#b2b3b2"/>
<use data-text="e" xlink:href="#font_1_50" transform="matrix(7.970112,0,0,-7.970112,100.59717,230.83185)" fill="#b2b3b2"/>
<use data-text="g" xlink:href="#font_1_59" transform="matrix(7.970112,0,0,-7.970112,104.35906,230.83185)" fill="#b2b3b2"/>
<use data-text="i" xlink:href="#font_1_66" transform="matrix(7.970112,0,0,-7.970112,108.591197,230.83185)" fill="#b2b3b2"/>
<use data-text="o" xlink:href="#font_1_81" transform="matrix(7.970112,0,0,-7.970112,110.942378,230.83185)" fill="#b2b3b2"/>
<use data-text="n" xlink:href="#font_1_77" transform="matrix(7.970112,0,0,-7.970112,115.17451,230.83185)" fill="#b2b3b2"/>
<use data-text="L" xlink:href="#font_6_4" transform="matrix(7.970112,0,0,-7.970112,48.762289,157.17252)" fill="#b2b3b2"/>
<use data-text="w" xlink:href="#font_1_114" transform="matrix(7.970112,0,0,-7.970112,57.342748,157.17252)" fill="#b2b3b2"/>
<use data-text="e" xlink:href="#font_1_50" transform="matrix(7.970112,0,0,-7.970112,63.224695,157.17252)" fill="#b2b3b2"/>
<use data-text="d" xlink:href="#font_1_47" transform="matrix(7.970112,0,0,-7.970112,66.98659,157.17252)" fill="#b2b3b2"/>
<use data-text="g" xlink:href="#font_1_59" transform="matrix(7.970112,0,0,-7.970112,71.68896,157.17252)" fill="#b2b3b2"/>
<use data-text="e" xlink:href="#font_1_50" transform="matrix(7.970112,0,0,-7.970112,75.92109,157.17252)" fill="#b2b3b2"/>
<path transform="matrix(1,0,0,-1,126.581729,155.22379)" d="M0 0-113.38724 113.38724V-113.38724Z" fill="#f2f2f2"/>
<path transform="matrix(1,0,0,-1,126.581729,155.22379)" stroke-width=".79701" stroke-linecap="butt" stroke-dasharray="2.98883,2.98883" stroke-miterlimit="10" stroke-linejoin="miter" fill="none" stroke="#bfbfbf" d="M-11.33855 11.33855-116.22208 116.22208"/>
<path transform="matrix(1,0,0,-1,126.581729,155.22379)" stroke-width=".79701" stroke-linecap="butt" stroke-dasharray="2.98883,2.98883" stroke-miterlimit="10" stroke-linejoin="miter" fill="none" stroke="#bfbfbf" d="M-11.33855-11.33855-116.22208-116.22208"/>
<use data-text="R" xlink:href="#font_10_95" transform="matrix(8.966376,0,0,-8.966376,43.97304,19.506226)"/>
<use data-text="i" xlink:href="#font_10_66" transform="matrix(8.966376,0,0,-8.966376,51.926218,19.506226)"/>
<use data-text="n" xlink:href="#font_10_77" transform="matrix(8.966376,0,0,-8.966376,54.876153,19.506226)"/>
<use data-text="d" xlink:href="#font_10_47" transform="matrix(8.966376,0,0,-8.966376,60.76706,19.506226)"/>
<use data-text="l" xlink:href="#font_10_72" transform="matrix(8.966376,0,0,-8.966376,66.65797,19.506226)"/>
<use data-text="e" xlink:href="#font_10_50" transform="matrix(8.966376,0,0,-8.966376,69.6079,19.506226)"/>
<use data-text="r" xlink:href="#font_10_96" transform="matrix(8.966376,0,0,-8.966376,74.47665,19.506226)"/>
<use data-text="w" xlink:href="#font_10_114" transform="matrix(8.966376,0,0,-8.966376,82.384998,19.506226)"/>
<use data-text="e" xlink:href="#font_10_50" transform="matrix(8.966376,0,0,-8.966376,89.76432,19.506226)"/>
<use data-text="d" xlink:href="#font_10_47" transform="matrix(8.966376,0,0,-8.966376,94.633068,19.506226)"/>
<use data-text="g" xlink:href="#font_10_59" transform="matrix(8.966376,0,0,-8.966376,100.52397,19.506226)"/>
<use data-text="e" xlink:href="#font_10_50" transform="matrix(8.966376,0,0,-8.966376,105.83207,19.506226)"/>
<use data-text=":" xlink:href="#font_10_44" transform="matrix(8.966376,0,0,-8.966376,110.70081,19.506226)"/>
<use data-text="h" xlink:href="#font_10_63" transform="matrix(8.966376,0,0,-8.966376,118.34914,19.506226)"/>
<use data-text="y" xlink:href="#font_10_118" transform="matrix(8.966376,0,0,-8.966376,123.953128,19.506226)"/>
<use data-text="p" xlink:href="#font_10_84" transform="matrix(8.966376,0,0,-8.966376,129.55712,19.506226)"/>
<use data-text="e" xlink:href="#font_10_50" transform="matrix(8.966376,0,0,-8.966376,135.73496,19.506226)"/>
<use data-text="r" xlink:href="#font_10_96" transform="matrix(8.966376,0,0,-8.966376,140.6037,19.506226)"/>
<use data-text="b" xlink:href="#font_10_35" transform="matrix(8.966376,0,0,-8.966376,144.9793,19.506226)"/>
<use data-text="o" xlink:href="#font_10_81" transform="matrix(8.966376,0,0,-8.966376,151.16609,19.506226)"/>
<use data-text="l" xlink:href="#font_10_72" transform="matrix(8.966376,0,0,-8.966376,156.47418,19.506226)"/>
<use data-text="i" xlink:href="#font_10_66" transform="matrix(8.966376,0,0,-8.966376,159.42412,19.506226)"/>
<use data-text="c" xlink:href="#font_10_43" transform="matrix(8.966376,0,0,-8.966376,162.37406,19.506226)"/>
<use data-text="w" xlink:href="#font_10_114" transform="matrix(8.966376,0,0,-8.966376,170.62311,19.506226)"/>
<use data-text="o" xlink:href="#font_10_81" transform="matrix(8.966376,0,0,-8.966376,178.00243,19.506226)"/>
<use data-text="r" xlink:href="#font_10_96" transform="matrix(8.966376,0,0,-8.966376,183.31052,19.506226)"/>
<use data-text="l" xlink:href="#font_10_72" transform="matrix(8.966376,0,0,-8.966376,187.68611,19.506226)"/>
<use data-text="d" xlink:href="#font_10_47" transform="matrix(8.966376,0,0,-8.966376,190.63605,19.506226)"/>
<use data-text="l" xlink:href="#font_10_72" transform="matrix(8.966376,0,0,-8.966376,196.52696,19.506226)"/>
<use data-text="i" xlink:href="#font_10_66" transform="matrix(8.966376,0,0,-8.966376,199.4769,19.506226)"/>
<use data-text="n" xlink:href="#font_10_77" transform="matrix(8.966376,0,0,-8.966376,202.42684,19.506226)"/>
<use data-text="e" xlink:href="#font_10_50" transform="matrix(8.966376,0,0,-8.966376,208.31775,19.506226)"/>
<use data-text="s" xlink:href="#font_10_98" transform="matrix(8.966376,0,0,-8.966376,213.1865,19.506226)"/>
<use data-text="a" xlink:href="#font_10_28" transform="matrix(8.966376,0,0,-8.966376,220.89759,19.506226)"/>
<use data-text="n" xlink:href="#font_10_77" transform="matrix(8.966376,0,0,-8.966376,226.05326,19.506226)"/>
<use data-text="d" xlink:href="#font_10_47" transform="matrix(8.966376,0,0,-8.966376,231.94417,19.506226)"/>
<use data-text="t" xlink:href="#font_10_105" transform="matrix(8.966376,0,0,-8.966376,241.36783,19.506226)"/>
<use data-text="h" xlink:href="#font_10_63" transform="matrix(8.966376,0,0,-8.966376,245.49236,19.506226)"/>
<use data-text="e" xlink:href="#font_10_50" transform="matrix(8.966376,0,0,-8.966376,251.38326,19.506226)"/>
<use data-text="h" xlink:href="#font_10_63" transform="matrix(8.966376,0,0,-8.966376,259.78474,19.506226)"/>
<use data-text="o" xlink:href="#font_10_81" transform="matrix(8.966376,0,0,-8.966376,265.67567,19.506226)"/>
<use data-text="r" xlink:href="#font_10_96" transform="matrix(8.966376,0,0,-8.966376,270.98377,19.506226)"/>
<use data-text="i" xlink:href="#font_10_66" transform="matrix(8.966376,0,0,-8.966376,275.3593,19.506226)"/>
<use data-text="z" xlink:href="#font_10_120" transform="matrix(8.966376,0,0,-8.966376,278.30928,19.506226)"/>
<use data-text="o" xlink:href="#font_10_81" transform="matrix(8.966376,0,0,-8.966376,283.02558,19.506226)"/>
<use data-text="n" xlink:href="#font_10_77" transform="matrix(8.966376,0,0,-8.966376,288.33369,19.506226)"/>
</svg>
