<svg xmlns="http://www.w3.org/2000/svg" xmlns:xlink="http://www.w3.org/1999/xlink" xmlns:inkscape="http://www.inkscape.org/namespaces/inkscape" version="1.1" width="307.62" height="314.69" viewBox="0 0 307.62 314.69">
<defs>
<path id="font_1_6" d="M.33399964 .30233766C.33999635 .32835389 .36299134 .42037965 .43299867 .42037965 .43798829 .42037965 .46199037 .42037965 .48298646 .40734864 .45498658 .402359 .43499757 .37734986 .43499757 .35334779 .43499757 .33735658 .44599916 .31835938 .47299195 .31835938 .49499513 .31835938 .5269928 .3363495 .5269928 .37635804 .5269928 .42837525 .46798707 .4423828 .43399049 .4423828 .37599183 .4423828 .34098817 .38935853 .32899476 .36634828 .3039856 .43237306 .25 .4423828 .22099304 .4423828 .116989139 .4423828 .05999756 .3133545 .05999756 .28834535 .05999756 .27833558 .069992069 .27833558 .07199097 .27833558 .07998657 .27833558 .08299255 .28033448 .084991458 .28933717 .11898804 .39535523 .18499756 .42037965 .21899414 .42037965 .23799134 .42037965 .272995 .4113617 .272995 .35334779 .272995 .32235719 .2559967 .25532533 .21899414 .11528015 .20298767 .053268434 .16799927 .011245728 .12399292 .011245728 .117996219 .011245728 .09498596 .011245728 .07398987 .024276734 .09899902 .029266358 .12098694 .05027771 .12098694 .07827759 .12098694 .105270389 .09899902 .11328125 .083999637 .11328125 .053985597 .11328125 .0289917 .08728027 .0289917 .055267335 .0289917 .009246826 .07899475-.0107421879 .12298584-.0107421879 .18899536-.0107421879 .22499085 .059280397 .22799683 .0652771 .23999024 .028274537 .27598573-.0107421879 .33599855-.0107421879 .43899537-.0107421879 .49598695 .118270877 .49598695 .14328003 .49598695 .1532898 .4869995 .1532898 .48399354 .1532898 .47499085 .1532898 .47299195 .14929199 .47099305 .14228821 .43798829 .03527832 .36999513 .011245728 .33799745 .011245728 .29899598 .011245728 .2829895 .043273927 .2829895 .07727051 .2829895 .09927368 .2889862 .121276859 .2999878 .16529846L.33399964 .30233766Z"/>
<path id="font_1_5" d="M.20599365 .3996582H.2999878C.31999208 .3996582 .32998658 .3996582 .32998658 .41966249 .32998658 .43066407 .31999208 .43066407 .3019867 .43066407H.21398926C.25 .5724945 .25498963 .59246829 .25498963 .59846499 .25498963 .61546328 .24299622 .62545779 .22599793 .62545779 .22299195 .62545779 .19499207 .62446597 .18598938 .58947756L.14698792 .43066407H.052993776C.032989503 .43066407 .022994996 .43066407 .022994996 .4116516 .022994996 .3996582 .0309906 .3996582 .050994874 .3996582H.13899231C.066986087 .11608887 .06298828 .099121097 .06298828 .08114624 .06298828 .02722168 .100997928-.0107421879 .15499878-.0107421879 .25698854-.0107421879 .31399537 .13505554 .31399537 .14305115 .31399537 .1530304 .30599977 .1530304 .3019867 .1530304 .29299928 .1530304 .2919922 .15003968 .2869873 .13905335 .24398804 .035217287 .19099427 .011245728 .15699768 .011245728 .13598633 .011245728 .12599182 .024230957 .12599182 .057174684 .12599182 .08114624 .12799073 .088134769 .13198853 .10510254L.20599365 .3996582Z"/>
<path id="font_2_2" d="M.32398988 .6253052C.32398988 .64131167 .31199647 .66329959 .28399659 .66329959 .25698854 .66329959 .22799683 .6372986 .22799683 .6083069 .22799683 .5913086 .24099732 .5703125 .2679901 .5703125 .29699708 .5703125 .32398988 .5983124 .32398988 .6253052M.11999512 .117263797C.115997318 .104263309 .11099243 .09225464 .11099243 .07525635 .11099243 .02822876 .15098572-.009765625 .20599365-.009765625 .30599977-.009765625 .34999085 .12828064 .34999085 .14328003 .34999085 .15628052 .33699037 .15628052 .33399964 .15628052 .31999208 .15628052 .31900025 .15028382 .31498719 .13928223 .2919922 .059249879 .24798584 .018234253 .20899964 .018234253 .18899536 .018234253 .18399048 .031234742 .18399048 .053237916 .18399048 .07624817 .19099427 .09526062 .19999695 .117263797 .20999146 .14428711 .22099304 .17129517 .23199463 .1973114 .24099732 .22131348 .2769928 .3123474 .2809906 .32435609 .28399659 .33436585 .2869873 .3463745 .2869873 .35636903 .2869873 .4033966 .24699402 .44140626 .19198609 .44140626 .09298706 .44140626 .04699707 .3053589 .04699707 .28834535 .04699707 .27534486 .06098938 .27534486 .06399536 .27534486 .07798767 .27534486 .07899475 .28033448 .08198547 .29135133 .10798645 .37738038 .1519928 .4133911 .18899536 .4133911 .20498657 .4133911 .21398926 .4053955 .21398926 .37838746 .21398926 .3553772 .20799256 .34036256 .18299866 .27833558L.11999512 .117263797Z"/>
<path id="font_2_1" d="M.40699769 .39465333H.5049896C.5249939 .39465333 .5379944 .39465333 .5379944 .4166565 .5379944 .43066407 .5249939 .43066407 .5069885 .43066407H.4139862C.43699647 .5580139 .44499208 .6040497 .45298768 .63305667 .45799256 .6550598 .47999574 .6760864 .5039978 .6760864 .5049896 .6760864 .5319977 .6760864 .5509949 .6640625 .5099945 .651062 .5069885 .61505129 .5069885 .60905459 .5069885 .5870514 .5239868 .572052 .5469971 .572052 .57398989 .572052 .60398867 .59506228 .60398867 .63305667 .60398867 .6790924 .5549927 .70410159 .5039978 .70410159 .45999146 .70410159 .41099549 .6790924 .38398744 .62905886 .3639984 .5920563 .35598756 .5469818 .33499146 .43066407H.2559967C.23599243 .43066407 .22299195 .43066407 .22299195 .4086609 .22299195 .39465333 .23599243 .39465333 .2539978 .39465333H.32798768C.32699586 .38865663 .2639923 .028869629 .23999024-.078063968 .23498535-.10006714 .21798706-.17610169 .16999817-.17610169 .16899109-.17610169 .14498902-.17610169 .12599182-.1640625 .16699219-.15107727 .16999817-.11506653 .16999817-.109069827 .16999817-.08706665 .15299988-.07206726 .12998963-.07206726 .102996829-.07206726 .07299805-.095077518 .07299805-.1330719 .07299805-.17811585 .11999512-.20410156 .16999817-.20410156 .23399353-.20410156 .27799989-.13807678 .2899933-.11607361 .32598878-.049087526 .34899903 .07385254 .35099793 .08584595L.40699769 .39465333Z"/>
<path id="font_3_1" d="M.44198609 .69781497C.43499757 .7108154 .43299867 .7158203 .41600038 .7158203 .39898683 .7158203 .39698792 .7108154 .3899994 .69781497L.051986696 .019989014C.04699707 .010986328 .04699707 .008987427 .04699707 .0079956059 .04699707 0 .052993776 0 .068984989 0H.7630005C.7789917 0 .7849884 0 .7849884 .0079956059 .7849884 .008987427 .7849884 .010986328 .7799988 .019989014L.44198609 .69781497M.38398744 .61582949 .6529999 .07598877H.11399841L.38398744 .61582949Z"/>
<path id="font_3_4" d="M.68699648 .32714845C.70199587 .32714845 .72099307 .32714845 .72099307 .34713746 .72099307 .36714173 .70199587 .36714173 .6879883 .36714173H.08898926C.07499695 .36714173 .055999757 .36714173 .055999757 .34713746 .055999757 .32714845 .07499695 .32714845 .08999634 .32714845H.68699648M.6879883 .13284302C.70199587 .13284302 .72099307 .13284302 .72099307 .15284729 .72099307 .17285156 .70199587 .17285156 .68699648 .17285156H.08999634C.07499695 .17285156 .055999757 .17285156 .055999757 .15284729 .055999757 .13284302 .07499695 .13284302 .08898926 .13284302H.6879883Z"/>
<path id="font_1_4" d="M.4269867 .6066284C.43399049 .63461306 .43798829 .64060977 .44999696 .6436157 .45899964 .6456146 .49198915 .6456146 .5130005 .6456146 .6139984 .6456146 .6589966 .6416168 .6589966 .56365969 .6589966 .54867556 .6549988 .50968936 .651001 .4837036 .6499939 .4797058 .647995 .4677124 .647995 .46472169 .647995 .45872499 .651001 .45173646 .6599884 .45173646 .67099 .45173646 .6729889 .45973207 .6749878 .4747162L.70199587 .64860537C.7029877 .65260317 .70399478 .6626129 .70399478 .66560366 .70399478 .6766052 .69400027 .6766052 .6769867 .6766052H.12199402C.09799194 .6766052 .09700012 .6756134 .08999634 .6566162L.02999878 .4807129C.0289917 .478714 .023986817 .46472169 .023986817 .46272279 .023986817 .45672608 .0289917 .45173646 .035995485 .45173646 .04598999 .45173646 .04699707 .45672608 .052993776 .4727173 .10699463 .6276245 .1329956 .6456146 .2809906 .6456146H.31999208C.34799195 .6456146 .34799195 .6416168 .34799195 .6336212 .34799195 .6276245 .34498597 .6156311 .34399415 .6126251L.20999146 .07896423C.20098877 .041992189 .19799805 .0309906 .09098816 .0309906 .054992677 .0309906 .04899597 .0309906 .04899597 .011993408 .04899597 0 .05999756 0 .06599426 0 .09298706 0 .12098694 .0019989014 .147995 .0019989014 .17599488 .0019989014 .20498657 .0029907227 .23298645 .0029907227 .26098634 .0029907227 .2889862 .0019989014 .31599427 .0019989014 .34498597 .0019989014 .375 0 .40299989 0 .41299439 0 .4249878 0 .4249878 .019989014 .4249878 .0309906 .4169922 .0309906 .3909912 .0309906 .3659973 .0309906 .35299684 .0309906 .32699586 .032989503 .2979889 .035995485 .2899933 .038986207 .2899933 .054977418 .2899933 .05596924 .2899933 .06097412 .2939911 .07595825L.4269867 .6066284Z"/>
<path id="font_1_2" d="M.43899537 .71199038C.44400025 .72499087 .44400025 .72898867 .44400025 .7299957 .44400025 .7409973 .43499757 .75 .42399598 .75 .4169922 .75 .4099884 .746994 .40699769 .7409973L.05999756-.21200562C.054992677-.2250061 .054992677-.2290039 .054992677-.23001099 .054992677-.24101258 .06399536-.25 .07499695-.25 .08799744-.25 .09098816-.24301148 .09700012-.22601319L.43899537 .71199038Z"/>
<path id="font_1_3" d="M.7559967 .577652C.7659912 .61763 .7839966 .64860537 .8639984 .6516113 .86898806 .6516113 .8809967 .65260317 .8809967 .6716156 .8809967 .6726074 .8809967 .6826172 .8679962 .6826172 .83499148 .6826172 .7999878 .6796112 .7669983 .6796112 .73298647 .6796112 .69799807 .6826172 .6649933 .6826172 .6589966 .6826172 .6469879 .6826172 .6469879 .6626129 .6469879 .6516113 .6569977 .6516113 .6649933 .6516113 .7220001 .65060427 .73298647 .6296234 .73298647 .6076355 .73298647 .6046295 .73098757 .5896454 .7299957 .5866394L.6179962 .141922 .39698792 .66360476C.3889923 .6816101 .3880005 .6826172 .36499024 .6826172H.23098755C.21099854 .6826172 .20199585 .6826172 .20199585 .6626129 .20199585 .6516113 .21099854 .6516113 .22999573 .6516113 .23498535 .6516113 .2979889 .6516113 .2979889 .64260867L.1639862 .10594177C.1539917 .065963748 .13699341 .033996583 .055999757 .0309906 .049987794 .0309906 .038986207 .02999878 .038986207 .010986328 .038986207 .0039978029 .04399109 0 .051986696 0 .083999637 0 .11898804 .0029907227 .1519928 .0029907227 .18598938 .0029907227 .22200012 0 .25498963 0 .2599945 0 .272995 0 .272995 .019989014 .272995 .02999878 .2639923 .0309906 .25299073 .0309906 .19499207 .032989503 .18699646 .054977418 .18699646 .07496643 .18699646 .081954959 .18798828 .08695984 .19099427 .09794617L.32299806 .6256256C.32699586 .6196289 .32699586 .61763 .33198548 .6076355L.58099368 .018997193C.58799746 .0019989014 .59098818 0 .59999087 0 .61099246 0 .61099246 .0029907227 .6159973 .020996094L.7559967 .577652Z"/>
<path id="font_2_3" d="M.12199402 .06324768C.117996219 .050247194 .11199951 .025222779 .11199951 .022232056 .11199951 .00022888184 .12998963-.009765625 .1459961-.009765625 .1639862-.009765625 .17999268 .0032196046 .18499756 .01222229 .18998719 .021224976 .19799805 .053237916 .20298767 .07424927 .20799256 .09326172 .21899414 .13928223 .22499085 .16429138 .23098755 .18629456 .23699951 .20831299 .24198914 .23132324 .25299073 .27233888 .25498963 .28033448 .28399659 .32136537 .31199647 .3613739 .35899354 .4133911 .43399049 .4133911 .49198915 .4133911 .49299623 .36238099 .49299623 .34336854 .49299623 .28334046 .44999696 .17228699 .43399049 .13027954 .4229889 .102264408 .4189911 .09326172 .4189911 .07624817 .4189911 .023223877 .46299745-.009765625 .5139923-.009765625 .6139984-.009765625 .6579895 .12828064 .6579895 .14328003 .6579895 .15628052 .644989 .15628052 .6419983 .15628052 .6279907 .15628052 .6269989 .15028382 .6230011 .13928223 .59999087 .059249879 .5569916 .018234253 .5169983 .018234253 .49598695 .018234253 .49198915 .032226564 .49198915 .053237916 .49198915 .07624817 .49699403 .089263919 .5149994 .13427735 .5269928 .1652832 .56799319 .2713318 .56799319 .32736207 .56799319 .4243927 .4909973 .44140626 .43798829 .44140626 .35499574 .44140626 .29899598 .39038087 .2689972 .3503723 .2619934 .41940309 .20298767 .44140626 .1619873 .44140626 .11898804 .44140626 .09599304 .4104004 .08299255 .38739015 .06098938 .3503723 .04699707 .29335023 .04699707 .28834535 .04699707 .27534486 .06098938 .27534486 .06399536 .27534486 .07798767 .27534486 .07899475 .27833558 .085998538 .3053589 .100997928 .36437989 .11999512 .4133911 .15899658 .4133911 .18499756 .4133911 .19198609 .39138795 .19198609 .36437989 .19198609 .34536744 .18299866 .3083496 .17599488 .28134156 .16899109 .2543335 .15899658 .21331787 .1539917 .19129944L.12199402 .06324768Z"/>
<path id="font_3_2" d="M.33099366-.2400055C.33099366-.23701477 .33099366-.23500061 .31399537-.21800232 .18899536-.0920105 .15699768 .09700012 .15699768 .25 .15699768 .42399598 .19499207 .59799197 .31799317 .72299197 .33099366 .73498538 .33099366 .7369995 .33099366 .73999026 .33099366 .746994 .32699586 .75 .32099916 .75 .31098939 .75 .22099304 .6819916 .1619873 .5549927 .11099243 .44499208 .09899902 .33399964 .09899902 .25 .09899902 .17199707 .10998535 .050994874 .16499329-.06201172 .22499085-.18501282 .31098939-.25 .32099916-.25 .32699586-.25 .33099366-.24700928 .33099366-.2400055Z"/>
<path id="font_1_1" d="M.20298767 .0009918213C.20298767 .066986087 .17799378 .10598755 .13899231 .10598755 .10598755 .10598755 .085998538 .08099365 .085998538 .052993776 .085998538 .025985718 .10598755 0 .13899231 0 .15098572 0 .1639862 .0039978029 .17399597 .0129852299 .1769867 .01499939 .17799378 .015991211 .1789856 .015991211 .17999268 .015991211 .18099976 .01499939 .18099976 .0009918213 .18099976-.07316589 .1459961-.13328552 .11299133-.16635132 .101989749-.17736817 .101989749-.17936707 .101989749-.18237305 .101989749-.18936157 .10699463-.19335938 .11199951-.19335938 .12298584-.19335938 .20298767-.116256717 .20298767 .0009918213Z"/>
<path id="font_3_3" d="M.2889862 .25C.2889862 .32798768 .27799989 .44898988 .22299195 .56199648 .16299439 .68499758 .07699585 .75 .066986087 .75 .06098938 .75 .056991579 .74598696 .056991579 .73999026 .056991579 .7369995 .056991579 .73498538 .07598877 .71699526 .17399597 .6179962 .23098755 .45899964 .23098755 .25 .23098755 .07899475 .19400025-.09700012 .069992069-.2230072 .056991579-.23500061 .056991579-.23701477 .056991579-.2400055 .056991579-.2460022 .06098938-.25 .066986087-.25 .07699585-.25 .16699219-.18200684 .22599793-.055007936 .2769928 .054992677 .2889862 .16600037 .2889862 .25Z"/>
<path id="font_4_5" d="M.49198915 .40434266C.45498658 .39733888 .44400025 .3653412 .44400025 .3503418 .44400025 .33132936 .45799256 .31433106 .48298646 .31433106 .5109863 .31433106 .5379944 .33833314 .5379944 .3733368 .5379944 .41937257 .48799134 .4423828 .44099427 .4423828 .3809967 .4423828 .34599305 .38934327 .33399964 .3683319 .31498719 .41737367 .2709961 .4423828 .22299195 .4423828 .115997318 .4423828 .057998659 .31433106 .057998659 .28833009 .057998659 .2793274 .06498718 .2763214 .07199097 .2763214 .08099365 .2763214 .083999637 .2813263 .085998538 .287323 .116989139 .38633729 .18299866 .41737367 .22099304 .41737367 .25 .41737367 .27598573 .3983307 .27598573 .35133363 .27598573 .31533814 .23298645 .15530396 .21998596 .107284549 .21199036 .076293949 .18199158 .014251709 .1269989 .014251709 .10699463 .014251709 .085998538 .021270752 .07598877 .027282715 .102996829 .032287599 .12298584 .055282594 .12298584 .08128357 .12298584 .106292728 .10398865 .11729431 .084991458 .11729431 .055999757 .11729431 .02999878 .092285159 .02999878 .058288576 .02999878 .009246826 .083999637-.0107421879 .12599182-.0107421879 .18399048-.0107421879 .21798706 .03729248 .23298645 .06428528 .2579956-.0017547608 .31698609-.0107421879 .34399415-.0107421879 .45199586-.0107421879 .5089874 .11929321 .5089874 .14329529 .5089874 .14830017 .5059967 .15530396 .49598695 .15530396 .4850006 .15530396 .48399354 .1512909 .47898866 .1362915 .45700074 .06428528 .39898683 .014251709 .34700013 .014251709 .31799317 .014251709 .29100038 .032287599 .29100038 .08029175 .29100038 .10229492 .30499269 .15730286 .31399537 .1953125 .31799317 .21331787 .34498597 .32133485 .34700013 .32833863 .35899354 .3643341 .3889923 .41737367 .43998719 .41737367 .45799256 .41737367 .47698976 .41436769 .49198915 .40434266Z"/>
<path id="font_5_3" d="M.4099884 .40327455C.3999939 .39727784 .3889923 .38327027 .3889923 .36227418 .3889923 .3362732 .4079895 .31427003 .43699647 .31427003 .46798707 .31427003 .48599244 .3362732 .48599244 .363266 .48599244 .44328309 .37998963 .44628907 .31698609 .44628907 .13198853 .44628907 .053985597 .31427003 .053985597 .21624756 .053985597 .0912323 .16499329-.009765625 .30499269-.009765625 .46398927-.009765625 .49899293 .10923767 .49899293 .12023926 .49899293 .13424683 .48399354 .13424683 .47999574 .13424683 .46699525 .13424683 .46499635 .12924195 .46099855 .11923218 .45498658 .10423279 .44400025 .07524109 .4099884 .052230836 .3880005 .037231447 .35499574 .025222779 .31599427 .025222779 .23899842 .025222779 .14898682 .08023071 .14898682 .21725464 .14898682 .2602539 .15699768 .31626893 .19299317 .3592682 .23799134 .4112854 .29100038 .4112854 .32099916 .4112854 .34899903 .4112854 .3829956 .41027833 .4099884 .40327455Z"/>
<path id="font_5_4" d="M.22200012 .69433596 .06399536 .68333438V.6443329C.13398743 .6443329 .14299011 .6373291 .14299011 .5883026V.08201599C.14299011 .038986207 .1329956 .038986207 .06399536 .038986207V0C.09399414 .0019989014 .17399597 .0039978029 .18199158 .0039978029 .22200012 .0039978029 .26098634 .0029907227 .30099488 0V.038986207C.23199463 .038986207 .22200012 .038986207 .22200012 .08201599V.69433596Z"/>
<path id="font_6_1" d="M.34098817-.23803711C.34098817-.23303223 .33799745-.23002625 .33198548-.22303772 .20298767-.105026248 .1639862 .07498169 .1639862 .24996948 .1639862 .40498353 .19400025 .59298709 .33499146 .72698977 .33898927 .73098757 .34098817 .73399356 .34098817 .7389984 .34098817 .74598696 .33599855 .75 .32899476 .75 .31698609 .75 .22698975 .6779785 .17298889 .568985 .125 .47297669 .100997928 .36997987 .100997928 .25097657 .100997928 .17897034 .10998535 .064971927 .16499329-.053024293 .22399903-.17602539 .31698609-.24902344 .32899476-.24902344 .33599855-.24902344 .34098817-.24502564 .34098817-.23803711Z"/>
<path id="font_4_4" d="M.21299744 .3996582H.30799867C.32598878 .3996582 .33799745 .3996582 .33799745 .41766358 .33799745 .43066407 .32798768 .43066407 .30999757 .43066407H.22099304L.2619934 .59646609C.2619934 .6124573 .24899292 .62545779 .23098755 .62545779 .19898987 .62545779 .19099427 .59646609 .18899536 .5864868L.14898682 .43066407H.054992677C.035995485 .43066407 .023986817 .43066407 .023986817 .4126587 .023986817 .3996582 .034988405 .3996582 .052993776 .3996582H.14199829L.07398987 .12808228C.06599426 .09811401 .06599426 .09613037 .06599426 .08215332 .06599426 .023239136 .11099243-.0107421879 .16299439-.0107421879 .2669983-.0107421879 .32598878 .1330719 .32598878 .14305115 .32598878 .14804077 .32299806 .1550293 .31298829 .1550293 .30299378 .1550293 .3019867 .15203858 .29499818 .1350708 .2639923 .06317139 .21398926 .014251709 .16499329 .014251709 .14498902 .014251709 .1329956 .027236939 .1329956 .060180665 .1329956 .08215332 .13598633 .09413147 .13999939 .10910034L.21299744 .3996582Z"/>
<path id="font_6_2" d="M.2979889 .25097657C.2979889 .3329773 .28599549 .4429779 .23399353 .5539856 .1749878 .6769867 .08198547 .75 .069992069 .75 .05999756 .75 .057998659 .74198916 .057998659 .7389984 .057998659 .73399356 .05999756 .73098757 .066986087 .72398379 .125 .6719818 .23498535 .5359802 .23498535 .25097657 .23498535 .10797119 .20899964-.091033939 .06399536-.22602844 .06199646-.22903443 .057998659-.23303223 .057998659-.23803711 .057998659-.24102783 .05999756-.24902344 .069992069-.24902344 .08198547-.24902344 .17199707-.17703247 .22599793-.06802368 .27398683 .02796936 .2979889 .13098145 .2979889 .25097657Z"/>
<path id="font_4_2" d="M.5159912 .41674806 .71899417 .5696564 .73098757 .5766449C.79299929 .6196289 .83099368 .6456146 .8899994 .6516113 .8969879 .65260317 .9079895 .6536102 .9079895 .6696167 .9079895 .6746063 .9049988 .6826172 .8959961 .6826172 .8880005 .6826172 .8819885 .6796112 .82199099 .6796112 .7859955 .6796112 .7489929 .6826172 .71398928 .6826172 .70799258 .6826172 .69499209 .6826172 .69499209 .6646118 .69499209 .65260317 .70599368 .6516113 .70899966 .6516113 .71699526 .65060427 .7369995 .6496124 .7369995 .6336212 .7369995 .6256256 .73098757 .6126251 .71699526 .6006317 .71299746 .5966339 .71199038 .5956421 .70899966 .5936432 .70599368 .5896454 .70399478 .5886383 .69898989 .5846405L.30099488 .28683473 .3809967 .6056366C.3899994 .6436157 .3929901 .6516113 .47099305 .6516113 .4869995 .6516113 .49798585 .6516113 .49798585 .6696167 .49798585 .6786041 .4909973 .6826172 .48298646 .6826172 .46398927 .6826172 .43998719 .680603 .41999818 .680603 .39898683 .6796112 .37599183 .6796112 .35598756 .6796112 .32398988 .6796112 .32199098 .6796112 .2919922 .680603 .27198792 .6816101 .24598694 .6826172 .22698975 .6826172 .22099304 .6826172 .20698548 .6826172 .20698548 .6646118 .20698548 .6516113 .21598816 .6516113 .23699951 .6516113 .24099732 .6516113 .25898744 .6516113 .2749939 .6496124 .2919922 .6476135 .29899598 .6456146 .29899598 .63461306 .29899598 .6296234 .2979889 .6256256 .29499818 .614624L.1599884 .07595825C.15098572 .039993287 .14898682 .0309906 .07398987 .0309906 .054992677 .0309906 .04399109 .0309906 .04399109 .0129852299 .04399109 .0019989014 .051986696 0 .05899048 0 .07798767 0 .102996829 .0009918213 .12199402 .0019989014 .1519928 .0029907227 .1539917 .0029907227 .18598938 .0029907227 .21798706 .0029907227 .21998596 .0029907227 .25 .0019989014 .269989 .0009918213 .29599 0 .31498719 0 .32199098 0 .33499146 0 .33499146 .017990113 .33499146 .0309906 .32499696 .0309906 .3039856 .0309906 .2999878 .0309906 .28199769 .0309906 .2659912 .032989503 .24398804 .035995485 .24299622 .039993287 .24299622 .048980714 .24299622 .05697632 .2519989 .09095764 .2919922 .24885559L.44499208 .3637848 .57299807 .08395386C.5779877 .07096863 .5799866 .06796265 .5799866 .06097412 .5799866 .03199768 .5379944 .0309906 .5299988 .0309906 .5179901 .0309906 .5059967 .0309906 .5059967 .0129852299 .5059967 .0029907227 .5149994 0 .5219879 0 .54100039 0 .5609894 .0019989014 .5799866 .0019989014 .59999087 .0019989014 .62098696 .0029907227 .6409912 .0029907227 .6579895 .0029907227 .68499758 .0029907227 .69200137 .0019989014L.7409973 0C.7449951 0 .7589874 0 .7589874 .017990113 .7589874 .0309906 .746994 .0309906 .7409973 .0309906 .70599368 .03199768 .68899539 .035995485 .6719971 .07296753L.5159912 .41674806Z"/>
<path id="font_7_3" d="M.43099977 .39065553H.5329895C.5529938 .39065553 .5669861 .39065553 .5669861 .4156494 .5669861 .43066407 .55400088 .43066407 .5359955 .43066407H.43798829C.46798707 .5951538 .46798707 .5971527 .47200013 .6151428 .47698976 .637146 .47898866 .6461487 .49398805 .6581421 .5059967 .66711428 .5149994 .6710968 .5299988 .6710968 .54599 .6710968 .56199648 .66911318 .57598879 .6621399 .55599978 .6541443 .5379944 .6321411 .5379944 .6081543 .5379944 .58714297 .5549927 .57014468 .57899478 .57014468 .6049957 .57014468 .6359863 .5921478 .6359863 .6311493 .6359863 .6860962 .57398989 .70410159 .5299988 .70410159 .4850006 .70410159 .4169922 .6830902 .3869934 .58314517 .3789978 .55810549 .37599183 .53804019 .36898805 .50190737 .3639984 .47280885 .3619995 .45976258 .35598756 .43066407H.27398683C.2539978 .43066407 .23999024 .43066407 .23999024 .4056549 .23999024 .39065553 .25299073 .39065553 .2709961 .39065553H.34899903C.30999757 .16674805 .29599 .089767459 .2919922 .071777347 .26098634-.10015869 .2559967-.11016846 .24699402-.12716675 .23298645-.15116883 .21598816-.17111206 .19099427-.17111206 .18499756-.17111206 .16299439-.16912842 .14698792-.16215515 .16699219-.15415955 .18499756-.13215637 .18499756-.108169559 .18499756-.0871582 .16799927-.07015991 .14399719-.07015991 .117996219-.07015991 .08699036-.092163089 .08699036-.13116455 .08699036-.18710327 .1499939-.20410156 .18998719-.20410156 .24499512-.20410156 .28399659-.15916443 .3019867-.13716126 .34599305-.07817078 .36698915 .040786745 .36898805 .04978943L.43099977 .39065553Z"/>
<path id="font_4_1" d="M.18199158 .015991211C.18199158-.017044068 .18199158-.09921265 .10798645-.17036438 .101989749-.17636109 .101989749-.17736817 .101989749-.18136597 .101989749-.18836975 .10899353-.19335938 .114990238-.19335938 .12599182-.19335938 .20698548-.115249637 .20698548 .0019989014 .20698548 .06399536 .18499756 .10798645 .14199829 .10798645 .10798645 .10798645 .08799744 .08198547 .08799744 .053985597 .08799744 .025985718 .10798645 0 .14199829 0 .15699768 0 .17199707 .004989624 .18199158 .015991211Z"/>
<path id="font_6_3" d="M.19599915 .3766632C.19599915 .406662 .17199707 .43066407 .14199829 .43066407 .11199951 .43066407 .08799744 .406662 .08799744 .3766632 .08799744 .34765626 .11199951 .32266236 .14199829 .32266236 .17199707 .32266236 .19599915 .34765626 .19599915 .3766632M.17399597 .008987427C.17399597-.015045166 .17298889-.095199588 .10998535-.1673584 .101989749-.17636109 .101989749-.17736817 .101989749-.18136597 .101989749-.18637085 .10798645-.19335938 .114990238-.19335938 .12399292-.19335938 .19898987-.116256717 .19898987 .0039978029 .19898987 .0289917 .19898987 .10798645 .14099121 .10798645 .10998535 .10798645 .08799744 .083999637 .08799744 .053985597 .08799744 .026992798 .10699463 0 .14199829 0 .1619873 0 .16799927 .0039978029 .17399597 .008987427Z"/>
<path id="font_7_4" d="M.34799195 .6244507C.34799195 .64852908 .32998658 .66452029 .30699159 .66452029 .27999879 .66452029 .25099183 .638504 .25099183 .60939028 .25099183 .5843353 .2689972 .56933596 .29100038 .56933596 .32299806 .56933596 .34799195 .59936526 .34799195 .6244507M.28799439 .27534486C.2919922 .28533937 .30099488 .3093567 .30499269 .31835938 .30799867 .32736207 .31199647 .33737184 .31199647 .35437013 .31199647 .4104004 .2619934 .44140626 .21199036 .44140626 .10998535 .44140626 .06098938 .3093567 .06098938 .28733827 .06098938 .28234864 .06498718 .27334596 .07899475 .27334596 .09298706 .27334596 .09599304 .27934266 .09899902 .28834535 .1269989 .38539125 .17999268 .4084015 .20799256 .4084015 .22799683 .4084015 .23498535 .395401 .23498535 .37239076 .23498535 .35237123 .22898865 .33737184 .22698975 .33036805L.1749878 .20230103C.16299439 .17329407 .16299439 .17129517 .1499939 .13728333 .13699341 .10726929 .13198853 .09425354 .13198853 .07725525 .13198853 .026229859 .17799378-.009765625 .23298645-.009765625 .33399964-.009765625 .38398744 .12226868 .38398744 .14428711 .38398744 .14628601 .3829956 .15829468 .36499024 .15829468 .35099793 .15829468 .34999085 .1532898 .34399415 .13427735 .32798768 .08325195 .2869873 .023223877 .23599243 .023223877 .21798706 .023223877 .20899964 .035232545 .20899964 .059249879 .20899964 .07925415 .21499634 .09425354 .22799683 .12527466L.28799439 .27534486Z"/>
<path id="font_6_4" d="M.70799258 .3310089C.7220001 .3310089 .7409973 .3310089 .7409973 .35202027 .7409973 .37402345 .71899417 .37402345 .70399478 .37402345H.09399414C.07899475 .37402345 .056991579 .37402345 .056991579 .35202027 .056991579 .3310089 .07699585 .3310089 .08999634 .3310089H.70799258M.70399478 .12695313C.71899417 .12695313 .7409973 .12695313 .7409973 .14894104 .7409973 .1699524 .7220001 .1699524 .70799258 .1699524H.08999634C.07699585 .1699524 .056991579 .1699524 .056991579 .14894104 .056991579 .12695313 .07899475 .12695313 .09399414 .12695313H.70399478Z"/>
<path id="font_8_1" d="M.91999819-.049804689C.875-.05378723 .87098696-.08879089 .87098696-.0987854 .87098696-.13278198 .897995-.14878845 .91999819-.14878845 .94400027-.14878845 .9700012-.13278198 .9700012-.09779358 .9700012-.04286194 .91600039 0 .8569946 0 .7549896 0 .69599917-.13278198 .651001-.28479005 .625-.37179566 .49598695-.8718262 .3899994-1.4648743 .37298585-1.5608673 .32398988-1.8368988 .28399659-1.986908 .2679901-2.0449067 .22599793-2.1972657 .16899109-2.1972657 .16099549-2.1972657 .1309967-2.1952515 .10699463-2.1719208 .1519928-2.1679078 .1559906-2.132904 .1559906-2.1229096 .1559906-2.088913 .1289978-2.0729066 .10699463-2.0729066 .08299255-2.0729066 .056991579-2.088913 .056991579-2.1239014 .056991579-2.179016 .11099243-2.2222748 .16999817-2.2222748 .27198792-2.2222748 .33099366-2.088913 .37599183-1.9369049 .4019928-1.8488922 .5309906-1.3478546 .6369934-.7568207 .6539917-.6608124 .7029877-.38479615 .7429962-.23478699 .7589874-.17678833 .8009949-.025009156 .8580017-.025009156 .8659973-.025009156 .8959961-.026992798 .91999819-.049804689Z"/>
<path id="font_9_1" d="M.21398926 0C.45498658 0 .7879944 .17791748 .7879944 .4497223 .7879944 .53767397 .74598696 .59962466 .6779938 .63661196 .59199526 .6826172 .5069885 .6826172 .4119873 .6826172 .32598878 .6826172 .25698854 .6826172 .16999817 .6436157 .033996583 .5816345 .020996094 .49969483 .020996094 .49569703 .020996094 .49169923 .022994996 .48770143 .0309906 .48770143 .038986207 .48770143 .056991579 .4927063 .07598877 .5046997 .101989749 .52168276 .10398865 .52767947 .10998535 .5446625 .12399292 .5846405 .1459961 .61961367 .2829895 .6266022 .269989 .42874146 .22200012 .23587036 .1459961 .052993776 .099990848 .035995485 .084991458 .0129852299 .084991458 .0069885256 .084991458 .0009918213 .085998538 0 .10899353 0H.21398926M.21798706 .055999757C.31098939 .2818451 .34700013 .4437256 .36698915 .6266022 .43998719 .6266022 .70098879 .6266022 .70098879 .40576173 .70098879 .20689392 .519989 .055999757 .27598573 .055999757H.21798706Z"/>
<path id="font_4_3" d="M.13699341 .22949219C.19799805 .22949219 .2630005 .22949219 .31599427 .24247742 .4099884 .2654724 .4269867 .32144166 .4269867 .35542298 .4269867 .41238404 .37399293 .4423828 .31498719 .4423828 .19898987 .4423828 .04699707 .3444214 .04699707 .17242432 .04699707 .077316287 .102996829-.0107421879 .21099854-.0107421879 .36099244-.0107421879 .44499208 .09333801 .44499208 .10635376 .44499208 .112350467 .43798829 .12036133 .43099977 .12036133 .42599488 .12036133 .4249878 .11936951 .41600038 .10835266 .35598756 .03427124 .2649994 .014251709 .21299744 .014251709 .14199829 .014251709 .12298584 .081329349 .12298584 .13137818 .12298584 .13337708 .12298584 .16841126 .13699341 .22949219M.14399719 .25448609C.18798828 .41238404 .29899598 .41737367 .31498719 .41737367 .34899903 .41737367 .3899994 .40138246 .3899994 .35542298 .3899994 .25448609 .23899842 .25448609 .14399719 .25448609Z"/>
<path id="font_7_2" d="M.746994 .6750946C.75 .687088 .75 .6890869 .75 .690094 .75 .6920929 .7489929 .70410159 .7350006 .70410159 .72698977 .70410159 .72499087 .7020874 .71398928 .690094 .70199587 .6760864 .6799927 .6520691 .6629944 .6340637 .621994 .687088 .55400088 .70410159 .49299623 .70410159 .34498597 .70410159 .21699524 .59202578 .21699524 .47792054 .21699524 .4298706 .23999024 .3968506 .25698854 .37983705 .2939911 .34179688 .32499696 .3347931 .39698792 .31977845 .4189911 .31477357 .49598695 .29675294 .5029907 .2957611 .548996 .28474427 .59098818 .24971009 .59098818 .19265747 .59098818 .10958862 .49899293 .018508912 .3809967 .018508912 .32798768 .018508912 .17599488 .028518677 .17599488 .15863037 .17599488 .15963745 .17599488 .1806488 .18099976 .20367432 .18199158 .20767212 .18299866 .2086792 .18299866 .21168518 .18299866 .22470093 .17298889 .22669983 .16499329 .22669983 .15499878 .22669983 .14898682 .22569275 .14399719 .2066803L.09199524-.0074920656C.09199524-.009490967 .09298706-.021484375 .10699463-.021484375 .11299133-.021484375 .11399841-.020492554 .12799073-.0074920656 .1289978-.0064849855 .1749878 .044525148 .1769867 .047531129 .22999573-.011489868 .32699586-.021484375 .37799073-.021484375 .5349884-.021484375 .6609955 .10559082 .6609955 .22369385 .6609955 .27874757 .6339874 .31477357 .6239929 .3257904 .58200076 .3688202 .55799868 .37382508 .4850006 .39083863 .45298768 .3978424 .4039917 .40785218 .37799073 .41386415 .32398988 .42687989 .2869873 .46090699 .2869873 .50994876 .2869873 .5870209 .3789978 .66708377 .4909973 .66708377 .57899478 .66708377 .6609955 .63005068 .6609955 .5109558 .6609955 .493927 .6589966 .47291566 .6589966 .46990968 .6589966 .4559021 .673996 .4559021 .6769867 .4559021 .69200137 .4559021 .69299319 .46090699 .69799807 .4789276L.746994 .6750946Z"/>
<path id="font_5_1" d="M.31199647 .69799807V.75H.14898682V-.25H.31199647V-.1980133H.20098877V.69799807H.31199647Z"/>
<path id="font_7_5" d="M.5629883 .39352418C.5279999 .38352967 .519989 .3545227 .519989 .33952333 .519989 .30752564 .54599 .30052186 .55999758 .30052186 .58898928 .30052186 .6179962 .32452394 .6179962 .3635254 .6179962 .41740418 .5589905 .44140626 .5079956 .44140626 .44198609 .44140626 .4019928 .3905182 .3909912 .371521 .37799073 .39649964 .33999635 .44140626 .2649994 .44140626 .1499939 .44140626 .08198547 .32252503 .08198547 .28749085 .08198547 .2824707 .085998538 .27345277 .099990848 .27345277 .11399841 .27345277 .116989139 .27946473 .11999512 .28848268 .14498902 .3695221 .21299744 .4084015 .2619934 .4084015 .31098939 .4084015 .32598878 .37652589 .32598878 .34352113 .32598878 .3315277 .32598878 .32252503 .31799317 .29148866 .29499818 .19825745 .272995 .10707092 .2679901 .095077518 .25299073 .05708313 .21699524 .023223877 .1749878 .023223877 .16899109 .023223877 .14099121 .023223877 .117996219 .038085939 .15699768 .051071168 .16099549 .08407593 .16099549 .09207153 .16099549 .11807251 .14099121 .13108826 .12098694 .13108826 .09298706 .13108826 .06298828 .10908508 .06298828 .06808472 .06298828 .011230469 .12599182-.009765625 .17298889-.009765625 .22999573-.009765625 .2709961 .029159546 .2899933 .060073854 .30999757 .018234253 .35798646-.009765625 .4149933-.009765625 .5329895-.009765625 .598999 .111083988 .598999 .14411927 .598999 .14611817 .59799197 .15815735 .5799866 .15815735 .56599429 .15815735 .56399539 .1511383 .5609894 .1421051 .5319977 .05508423 .46099855 .023223877 .4189911 .023223877 .3809967 .023223877 .35398866 .045074464 .35398866 .08708191 .35398866 .1060791 .35899354 .12808228 .36799623 .16316223L.3999939 .2935028C.4099884 .33251954 .4149933 .3505249 .43598939 .37452699 .44999696 .38952638 .47399903 .4084015 .5059967 .4084015 .5109863 .4084015 .54100039 .4084015 .5629883 .39352418Z"/>
<path id="font_5_2" d="M.20199585 .75H.038986207V.69799807H.1499939V-.1980133H.038986207V-.25H.20199585V.75Z"/>
<path id="font_7_1" d="M.5379944 .70199587C.54499819 .71798709 .54499819 .7200012 .54499819 .723999 .54499819 .73799136 .5329895 .75 .5189972 .75 .5019989 .75 .49699403 .73799136 .4909973 .723999L.099990848-.20201111C.09298706-.21800232 .09298706-.22000122 .09298706-.22401428 .09298706-.23800659 .10499573-.25 .11898804-.25 .13598633-.25 .14099121-.23800659 .14698792-.22401428L.5379944 .70199587Z"/>
<path id="font_10_1" d="M.28399659 .5450897H.49499513C.5119934 .5450897 .5289917 .5450897 .5289917 .562088 .5289917 .57910159 .5130005 .57910159 .49598695 .57910159H.2919922C.29899598 .604187 .29899598 .6061859 .30499269 .63127139 .30899049 .6473236 .31698609 .6773224 .31698609 .68032839 .31698609 .6843262 .31498719 .69433596 .2999878 .69433596L.17298889 .6843262C.16499329 .68333438 .1519928 .68133547 .1519928 .6613312 .1519928 .6473236 .16499329 .6473236 .17799378 .6473236 .22599793 .6473236 .22599793 .64030459 .22599793 .63127139 .22599793 .6302643 .22599793 .6242523 .21499634 .57910159H.15699768C.13999939 .57910159 .12399292 .57910159 .12399292 .562088 .12399292 .5450897 .14099121 .5450897 .1579895 .5450897H.20599365L.07899475 .039230348C.07798767 .034240724 .07598877 .02822876 .07598877 .022232056 .07598877 .006225586 .08799744-.009765625 .10998535-.009765625 .14498902-.009765625 .15299988 .021224976 .1559906 .035232545 .16099549 .054244996 .17199707 .1002655 .1789856 .12426758 .18199158 .13928223 .19198609 .17729187 .19499207 .19230652 .19799805 .2013092 .21099854 .2543335 .21199036 .25933839 .21398926 .26834107 .2749939 .4133911 .3959961 .4133911 .45498658 .4133911 .45498658 .36038209 .45498658 .34336854 .45498658 .28434754 .41299439 .17630005 .3919983 .120269779 .38598634 .10626221 .3809967 .09326172 .3809967 .07525635 .3809967 .026229859 .42199708-.009765625 .47599793-.009765625 .57499697-.009765625 .62098696 .12626648 .62098696 .14328003 .62098696 .15628052 .6069946 .15628052 .60398867 .15628052 .58999636 .15628052 .58898928 .1512909 .58499148 .13928223 .55799868 .049240114 .5119934 .018234253 .47898866 .018234253 .45799256 .018234253 .45298768 .034240724 .45298768 .053237916 .45298768 .069244388 .45599366 .08226013 .46798707 .11326599 .48599244 .1612854 .5299988 .27233888 .5299988 .32835389 .5299988 .4113922 .46899415 .44140626 .3999939 .44140626 .33299256 .44140626 .28199769 .4104004 .23699951 .35836793L.28399659 .5450897Z"/>
</defs>
<path transform="matrix(1,0,0,-1,25.56527,249.8992)" stroke-width=".19925" stroke-linecap="butt" stroke-dasharray="2.98883,2.98883" stroke-miterlimit="10" stroke-linejoin="miter" fill="none" stroke="#a0a0a0" d="M-5.66927 14.17339H221.10518"/>
<path transform="matrix(1,0,0,-1,25.56527,249.8992)" stroke-width=".19925" stroke-linecap="butt" stroke-dasharray="2.98883,2.98883" stroke-miterlimit="10" stroke-linejoin="miter" fill="none" stroke="#a0a0a0" d="M-5.66927 37.20518H221.10518"/>
<path transform="matrix(1,0,0,-1,25.56527,249.8992)" stroke-width=".19925" stroke-linecap="butt" stroke-dasharray="2.98883,2.98883" stroke-miterlimit="10" stroke-linejoin="miter" fill="none" stroke="#a0a0a0" d="M-5.66927 60.23695H221.10518"/>
<path transform="matrix(1,0,0,-1,25.56527,249.8992)" stroke-width=".19925" stroke-linecap="butt" stroke-dasharray="2.98883,2.98883" stroke-miterlimit="10" stroke-linejoin="miter" fill="none" stroke="#a0a0a0" d="M-5.66927 83.26874H221.10518"/>
<path transform="matrix(1,0,0,-1,25.56527,249.8992)" stroke-width=".19925" stroke-linecap="butt" stroke-dasharray="2.98883,2.98883" stroke-miterlimit="10" stroke-linejoin="miter" fill="none" stroke="#a0a0a0" d="M-5.66927 106.30052H221.10518"/>
<path transform="matrix(1,0,0,-1,25.56527,249.8992)" stroke-width=".19925" stroke-linecap="butt" stroke-dasharray="2.98883,2.98883" stroke-miterlimit="10" stroke-linejoin="miter" fill="none" stroke="#a0a0a0" d="M-5.66927 129.33229H221.10518"/>
<path transform="matrix(1,0,0,-1,25.56527,249.8992)" stroke-width=".19925" stroke-linecap="butt" stroke-dasharray="2.98883,2.98883" stroke-miterlimit="10" stroke-linejoin="miter" fill="none" stroke="#a0a0a0" d="M-5.66927 152.36409H221.10518"/>
<path transform="matrix(1,0,0,-1,25.56527,249.8992)" stroke-width=".19925" stroke-linecap="butt" stroke-dasharray="2.98883,2.98883" stroke-miterlimit="10" stroke-linejoin="miter" fill="none" stroke="#a0a0a0" d="M-5.66927 175.39588H221.10518"/>
<path transform="matrix(1,0,0,-1,25.56527,249.8992)" stroke-width=".19925" stroke-linecap="butt" stroke-dasharray="2.98883,2.98883" stroke-miterlimit="10" stroke-linejoin="miter" fill="none" stroke="#a0a0a0" d="M-5.66927 198.42766H221.10518"/>
<path transform="matrix(1,0,0,-1,25.56527,249.8992)" stroke-width=".79701" stroke-linecap="butt" stroke-miterlimit="10" stroke-linejoin="miter" fill="none" stroke="#000000" d="M-14.17339 0H220.59755"/>
<path transform="matrix(1,0,0,-1,246.16281,249.8992)" d="M4.53381 0C3.97704 .13808 1.52963 .92049 0 1.77196V-1.77196C1.52963-.92049 3.97704-.13808 4.53381 0Z"/>
<path transform="matrix(1,0,0,-1,246.16281,249.8992)" stroke-width=".79701" stroke-linecap="butt" stroke-miterlimit="10" stroke-linejoin="miter" fill="none" stroke="#000000" d="M4.53381 0C3.97704 .13808 1.52963 .92049 0 1.77196V-1.77196C1.52963-.92049 3.97704-.13808 4.53381 0Z"/>
<use data-text="x" xlink:href="#font_1_6" transform="matrix(9.96264,0,0,-9.96264,256.0588,252.04395)"/>
<path transform="matrix(1,0,0,-1,25.56527,249.8992)" stroke-width=".79701" stroke-linecap="butt" stroke-miterlimit="10" stroke-linejoin="miter" fill="none" stroke="#000000" d="M0-14.17339V220.59755"/>
<path transform="matrix(0,-1,-1,-0,25.56527,29.301651)" d="M4.53381 0C3.97704 .13808 1.52963 .92049 0 1.77196V-1.77196C1.52963-.92049 3.97704-.13808 4.53381 0Z"/>
<path transform="matrix(0,-1,-1,-0,25.56527,29.301651)" stroke-width=".79701" stroke-linecap="butt" stroke-miterlimit="10" stroke-linejoin="miter" fill="none" stroke="#000000" d="M4.53381 0C3.97704 .13808 1.52963 .92049 0 1.77196V-1.77196C1.52963-.92049 3.97704-.13808 4.53381 0Z"/>
<use data-text="t" xlink:href="#font_1_5" transform="matrix(9.96264,0,0,-9.96264,23.766442,19.405655)"/>
<use data-text="t" xlink:href="#font_1_5" transform="matrix(9.96264,0,0,-9.96264,15.1308979,238.04256)"/>
<use data-text="i" xlink:href="#font_2_2" transform="matrix(6.973848,0,0,-6.973848,18.728539,239.53694)"/>
<use data-text="t" xlink:href="#font_1_5" transform="matrix(9.96264,0,0,-9.96264,13.283009,53.11026)"/>
<use data-text="f" xlink:href="#font_2_1" transform="matrix(6.973848,0,0,-6.973848,16.88065,54.604646)"/>
<path transform="matrix(1,0,0,-1,25.56527,249.8992)" stroke-width=".3985" stroke-linecap="butt" stroke-dasharray=".3985,1.99255" stroke-miterlimit="10" stroke-linejoin="miter" fill="none" stroke="#000000" d="M0 14.17339H28.3468"/>
<path transform="matrix(1,0,0,-1,25.56527,249.8992)" stroke-width=".3985" stroke-linecap="butt" stroke-dasharray=".3985,1.99255" stroke-miterlimit="10" stroke-linejoin="miter" fill="none" stroke="#000000" d="M0 198.42766H184.25424"/>
<use data-text="x" xlink:href="#font_1_6" transform="matrix(9.96264,0,0,-9.96264,49.406625,257.70854)"/>
<use data-text="i" xlink:href="#font_2_2" transform="matrix(6.973848,0,0,-6.973848,55.100557,259.2029)"/>
<use data-text="x" xlink:href="#font_1_6" transform="matrix(9.96264,0,0,-9.96264,204.39014,257.70854)"/>
<use data-text="f" xlink:href="#font_2_1" transform="matrix(6.973848,0,0,-6.973848,210.08406,259.2029)"/>
<path transform="matrix(1,0,0,-1,25.56527,249.8992)" stroke-width=".3985" stroke-linecap="butt" stroke-dasharray=".3985,1.99255" stroke-miterlimit="10" stroke-linejoin="miter" fill="none" stroke="#000000" d="M28.3468 0V14.17339"/>
<path transform="matrix(1,0,0,-1,25.56527,249.8992)" stroke-width=".3985" stroke-linecap="butt" stroke-dasharray=".3985,1.99255" stroke-miterlimit="10" stroke-linejoin="miter" fill="none" stroke="#000000" d="M184.25424 0V198.42766"/>
<path transform="matrix(1,0,0,-1,25.56527,249.8992)" stroke-width=".79701" stroke-linecap="butt" stroke-miterlimit="10" stroke-linejoin="miter" fill="none" stroke="#000000" d="M215.43592 106.30052C216.63146 106.89827 217.42847 108.29308 217.42847 110.28563V113.8313C217.42847 115.82385 218.22547 117.21866 219.42102 117.8164 218.22547 118.41414 217.42847 119.80896 217.42847 121.80151V125.34718C217.42847 127.33974 216.63146 128.73456 215.43592 129.33229"/>
<use data-text="&#x2206;" xlink:href="#font_3_1" transform="matrix(9.96264,0,0,-9.96264,248.70536,134.57349)"/>
<use data-text="t" xlink:href="#font_1_5" transform="matrix(9.96264,0,0,-9.96264,257.00758,134.57349)"/>
<use data-text="=" xlink:href="#font_3_4" transform="matrix(9.96264,0,0,-9.96264,263.37257,134.57349)"/>
<use data-text="T" xlink:href="#font_1_4" transform="matrix(9.96264,0,0,-9.96264,273.8886,134.57349)"/>
<use data-text="/" xlink:href="#font_1_2" transform="matrix(9.96264,0,0,-9.96264,280.81266,134.57349)"/>
<use data-text="N" xlink:href="#font_1_3" transform="matrix(9.96264,0,0,-9.96264,285.24604,134.57349)"/>
<path transform="matrix(1,0,0,-1,25.56527,249.8992)" stroke-width=".3985" stroke-linecap="butt" stroke-miterlimit="10" stroke-linejoin="miter" fill="none" stroke="#aaaaaa" d="M28.3468 14.17339C28.3468 14.17339 38.58714 29.37813 42.5202 36.85092 46.45326 44.32372 53.15387 59.37944 56.69362 68.03217 60.23335 76.68488 64.0991 91.74097 68.03217 99.21382 71.96521 106.68668 79.5341 116.38509 85.04042 121.89136 90.54675 127.39761 101.42502 133.7862 107.71794 138.89917 114.01086 144.01216 124.10262 153.6293 130.39548 158.7423 136.68834 163.85527 147.56633 171.81707 153.07259 175.75012 158.57886 179.68318 165.75446 183.94264 170.08086 187.0891 174.40724 190.23557 184.25424 198.42766 184.25424 198.42766"/>
<path transform="matrix(1,0,0,-1,25.56527,249.8992)" stroke-width=".3985" stroke-linecap="butt" stroke-miterlimit="10" stroke-linejoin="miter" fill="none" stroke="#aaaaaa" d="M28.3468 14.17339C28.3468 14.17339 31.65623 34.26074 34.01608 42.5202 36.37593 50.77966 41.422 65.04913 45.35506 73.70186 49.2881 82.35458 56.85663 97.01697 62.36288 104.88309 67.86916 112.74922 78.35423 124.49588 85.04042 130.39548 91.72662 136.29508 103.47284 142.68366 110.55237 147.40332 117.6319 152.12299 129.77184 160.08518 136.06476 164.41156 142.35767 168.73796 150.79445 175.04524 155.90744 178.58498 161.02043 182.12471 168.98265 187.1704 172.9157 189.92353 176.84876 192.67665 184.25424 198.42766 184.25424 198.42766"/>
<path transform="matrix(1,0,0,-1,25.56527,249.8992)" stroke-width=".3985" stroke-linecap="butt" stroke-miterlimit="10" stroke-linejoin="miter" fill="none" stroke="#aaaaaa" d="M28.3468 14.17339C28.3468 14.17339 48.43414 28.50981 56.69362 34.01608 64.95308 39.52234 80.00914 47.95915 87.87527 53.85875 95.7414 59.75835 107.09438 69.45676 113.38724 76.53629 119.68008 83.61581 128.90352 97.01697 133.2299 104.88309 137.55629 112.74922 141.81577 125.75705 144.5689 133.2299 147.32202 140.70276 150.71279 152.44937 153.07259 158.7423 155.43239 165.0352 158.82353 174.25864 161.5767 178.58498 164.3299 182.9113 169.76924 187.1704 172.9157 189.92353 176.06217 192.67665 184.25424 198.42766 184.25424 198.42766"/>
<path transform="matrix(1,0,0,-1,25.56527,249.8992)" stroke-width=".3985" stroke-linecap="butt" stroke-miterlimit="10" stroke-linejoin="miter" fill="none" stroke="#aaaaaa" d="M28.3468 14.17339 45.35506 36.85092 39.68535 59.52846 68.03217 82.20555 62.36288 104.88309 102.04868 127.56062 96.37897 153.07259 130.39548 175.75012 158.7423 187.0891 184.25424 198.42766"/>
<path transform="matrix(1,0,0,-1,25.56527,249.8992)" stroke-width=".3985" stroke-linecap="butt" stroke-miterlimit="10" stroke-linejoin="miter" fill="none" stroke="#aaaaaa" d="M28.3468 14.17339 56.69362 36.85092 51.02432 59.52846 90.7097 82.20555 113.38724 104.88309 107.71794 127.56062 141.73404 153.07259 136.06476 175.75012 164.41156 187.0891 184.25424 198.42766"/>
<path transform="matrix(1,0,0,-1,25.56527,249.8992)" stroke-width=".3985" stroke-linecap="butt" stroke-miterlimit="10" stroke-linejoin="miter" fill="none" stroke="#aaaaaa" d="M28.3468 14.17339C28.3468 14.17339 24.2507 37.96349 22.67752 48.18947 21.10432 58.41547 16.22165 76.86267 17.00824 87.87527 17.79483 98.88788 23.23387 118.51463 28.3468 127.56062 33.45973 136.60663 45.99261 147.17299 53.85875 153.07259 61.72487 158.97219 75.99437 165.75446 85.04042 170.08086 94.08649 174.40724 110.40378 181.50113 119.0565 184.25424 127.70923 187.00737 140.32379 188.35033 147.40332 189.92353 154.48285 191.49672 164.96787 194.41286 170.08086 195.5928 175.19384 196.77274 184.25424 198.42766 184.25424 198.42766"/>
<path transform="matrix(1,0,0,-1,25.56527,249.8992)" stroke-width=".3985" stroke-linecap="butt" stroke-miterlimit="10" stroke-linejoin="miter" fill="none" stroke="#aaaaaa" d="M28.3468 14.17339C28.3468 14.17339 44.7314 31.81923 51.02432 39.68535 57.31725 47.55148 68.9822 62.21422 73.70186 70.867 78.42152 79.51979 81.10736 94.57588 85.04042 102.04868 88.97348 109.52145 96.5424 118.43292 102.04868 124.72578 107.55493 131.01863 120.00612 141.1104 124.72578 147.40332 129.44545 153.69623 132.1317 165.36119 136.06476 170.08086 139.9978 174.80052 148.35292 178.27294 153.07259 181.4194 157.79225 184.56586 165.75446 190.39852 170.08086 192.75838 174.40724 195.11824 184.25424 198.42766 184.25424 198.42766"/>
<path transform="matrix(1,0,0,-1,25.56527,249.8992)" stroke-width="1.59404" stroke-linecap="butt" stroke-miterlimit="10" stroke-linejoin="miter" fill="none" stroke="#aa3728" d="M28.3468 14.17339 184.25424 198.42766"/>
<path transform="matrix(1,0,0,-1,25.56527,249.8992)" d="M88.40614 83.26874C88.40614 84.14911 87.69247 84.8628 86.81209 84.8628 85.93172 84.8628 85.21805 84.14911 85.21805 83.26874 85.21805 82.38837 85.93172 81.67468 86.81209 81.67468 87.69247 81.67468 88.40614 82.38837 88.40614 83.26874ZM86.81209 83.26874"/>
<use data-text="x" xlink:href="#font_1_6" transform="matrix(9.96264,0,0,-9.96264,97.036,160.91179)"/>
<use data-text="n" xlink:href="#font_2_3" transform="matrix(6.973848,0,0,-6.973848,102.729938,162.40618)"/>
<path transform="matrix(1,0,0,-1,25.56527,249.8992)" d="M30.5386 14.17339C30.5386 15.3839 29.55731 16.36519 28.3468 16.36519 27.13629 16.36519 26.155 15.3839 26.155 14.17339 26.155 12.96289 27.13629 11.98158 28.3468 11.98158 29.55731 11.98158 30.5386 12.96289 30.5386 14.17339ZM28.3468 14.17339"/>
<path transform="matrix(1,0,0,-1,25.56527,249.8992)" d="M186.44606 198.42766C186.44606 199.63817 185.46475 200.61946 184.25424 200.61946 183.04375 200.61946 182.06244 199.63817 182.06244 198.42766 182.06244 197.21717 183.04375 196.23586 184.25424 196.23586 185.46475 196.23586 186.44606 197.21717 186.44606 198.42766ZM184.25424 198.42766"/>
<use data-text="(" xlink:href="#font_3_2" transform="matrix(9.96264,0,0,-9.96264,58.13636,247.42218)"/>
<use data-text="x" xlink:href="#font_1_6" transform="matrix(9.96264,0,0,-9.96264,62.01073,247.42218)"/>
<use data-text="i" xlink:href="#font_2_2" transform="matrix(6.973848,0,0,-6.973848,67.704669,248.91657)"/>
<use data-text="," xlink:href="#font_1_1" transform="matrix(9.96264,0,0,-9.96264,71.021518,247.42218)"/>
<use data-text="t" xlink:href="#font_1_5" transform="matrix(9.96264,0,0,-9.96264,75.43496,247.42218)"/>
<use data-text="i" xlink:href="#font_2_2" transform="matrix(6.973848,0,0,-6.973848,79.04696,248.91657)"/>
<use data-text=")" xlink:href="#font_3_3" transform="matrix(9.96264,0,0,-9.96264,82.363819,247.42218)"/>
<use data-text="(" xlink:href="#font_3_2" transform="matrix(9.96264,0,0,-9.96264,214.04383,44.396806)"/>
<use data-text="x" xlink:href="#font_1_6" transform="matrix(9.96264,0,0,-9.96264,217.91819,44.396806)"/>
<use data-text="f" xlink:href="#font_2_1" transform="matrix(6.973848,0,0,-6.973848,223.61212,45.89119)"/>
<use data-text="," xlink:href="#font_1_1" transform="matrix(9.96264,0,0,-9.96264,228.77683,44.396806)"/>
<use data-text="t" xlink:href="#font_1_5" transform="matrix(9.96264,0,0,-9.96264,233.19028,44.396806)"/>
<use data-text="f" xlink:href="#font_2_1" transform="matrix(6.973848,0,0,-6.973848,236.80228,45.89119)"/>
<use data-text=")" xlink:href="#font_3_3" transform="matrix(9.96264,0,0,-9.96264,241.96698,44.396806)"/>
<use data-text="x" xlink:href="#font_4_5" transform="matrix(5.8825705,-6.767014,-6.767014,-5.8825705,167.57953,146.12819)" fill="#aa3728"/>
<use data-text="c" xlink:href="#font_5_3" transform="matrix(3.9217134,-4.5113427,-4.5113427,-3.9217134,171.8085,142.88323)" fill="#aa3728"/>
<use data-text="l" xlink:href="#font_5_4" transform="matrix(3.9217134,-4.5113427,-4.5113427,-3.9217134,173.94976,140.42003)" fill="#aa3728"/>
<use data-text="(" xlink:href="#font_6_1" transform="matrix(5.8825705,-6.767014,-6.767014,-5.8825705,174.85552,137.75826)" fill="#aa3728"/>
<use data-text="t" xlink:href="#font_4_4" transform="matrix(5.8825705,-6.767014,-6.767014,-5.8825705,177.20671,135.05356)" fill="#aa3728"/>
<use data-text=")" xlink:href="#font_6_2" transform="matrix(5.8825705,-6.767014,-6.767014,-5.8825705,179.38997,132.54204)" fill="#aa3728"/>
<path transform="matrix(1,0,0,-1,25.56527,249.8992)" d="M187.0824-24.74109H39.69206C38.5916-24.74109 37.69951-25.63318 37.69951-26.73364V-52.63705C37.69951-53.73753 38.5916-54.62961 39.69206-54.62961H187.0824C188.18286-54.62961 189.07495-53.73753 189.07495-52.63705V-26.73364C189.07495-25.63318 188.18286-24.74109 187.0824-24.74109ZM37.69951-54.62961" fill="#ffffff"/>
<path transform="matrix(1,0,0,-1,25.56527,249.8992)" stroke-width=".3985" stroke-linecap="butt" stroke-miterlimit="10" stroke-linejoin="miter" fill="none" stroke="#7f807f" d="M187.0824-24.74109H39.69206C38.5916-24.74109 37.69951-25.63318 37.69951-26.73364V-52.63705C37.69951-53.73753 38.5916-54.62961 39.69206-54.62961H187.0824C188.18286-54.62961 189.07495-53.73753 189.07495-52.63705V-26.73364C189.07495-25.63318 188.18286-24.74109 187.0824-24.74109ZM37.69951-54.62961"/>
<use data-text="K" xlink:href="#font_4_2" transform="matrix(8.966376,0,0,-8.966376,68.24617,291.82618)"/>
<use data-text="(" xlink:href="#font_6_1" transform="matrix(8.966376,0,0,-8.966376,76.68807,291.82618)"/>
<use data-text="x" xlink:href="#font_4_5" transform="matrix(8.966376,0,0,-8.966376,80.271839,291.82618)"/>
<use data-text="f" xlink:href="#font_7_3" transform="matrix(5.977584,0,0,-5.977584,85.495288,292.8889)"/>
<use data-text="," xlink:href="#font_4_1" transform="matrix(8.966376,0,0,-8.966376,90.26905,291.82618)"/>
<use data-text="t" xlink:href="#font_4_4" transform="matrix(8.966376,0,0,-8.966376,94.35772,291.82618)"/>
<use data-text="f" xlink:href="#font_7_3" transform="matrix(5.977584,0,0,-5.977584,97.69255,292.8889)"/>
<use data-text=";" xlink:href="#font_6_3" transform="matrix(8.966376,0,0,-8.966376,102.466327,291.82618)"/>
<use data-text="x" xlink:href="#font_4_5" transform="matrix(8.966376,0,0,-8.966376,106.56205,291.82618)"/>
<use data-text="i" xlink:href="#font_7_4" transform="matrix(5.977584,0,0,-5.977584,111.7855,292.82243)"/>
<use data-text="," xlink:href="#font_4_1" transform="matrix(8.966376,0,0,-8.966376,114.94726,291.82618)"/>
<use data-text="t" xlink:href="#font_4_4" transform="matrix(8.966376,0,0,-8.966376,119.03593,291.82618)"/>
<use data-text="i" xlink:href="#font_7_4" transform="matrix(5.977584,0,0,-5.977584,122.37076,292.82243)"/>
<use data-text=")" xlink:href="#font_6_2" transform="matrix(8.966376,0,0,-8.966376,125.53252,291.82618)"/>
<use data-text="=" xlink:href="#font_6_4" transform="matrix(8.966376,0,0,-8.966376,134.22095,291.82618)"/>
<use data-text="&#x222b;" xlink:href="#font_8_1" transform="matrix(8.966376,0,0,-8.966376,146.5231,279.62184)"/>
<use data-text="D" xlink:href="#font_9_1" transform="matrix(8.966376,0,0,-8.966376,155.7385,291.82618)"/>
<use data-text="x" xlink:href="#font_4_5" transform="matrix(8.966376,0,0,-8.966376,163.11164,291.82618)"/>
<use data-text="(" xlink:href="#font_6_1" transform="matrix(8.966376,0,0,-8.966376,168.33509,291.82618)"/>
<use data-text="t" xlink:href="#font_4_4" transform="matrix(8.966376,0,0,-8.966376,171.91884,291.82618)"/>
<use data-text=")" xlink:href="#font_6_2" transform="matrix(8.966376,0,0,-8.966376,175.24662,291.82618)"/>
<use data-text="e" xlink:href="#font_4_3" transform="matrix(8.966376,0,0,-8.966376,181.3902,291.82618)"/>
<use data-text="i" xlink:href="#font_7_4" transform="matrix(5.977584,0,0,-5.977584,185.67447,287.51905)"/>
<use data-text="S" xlink:href="#font_7_2" transform="matrix(5.977584,0,0,-5.977584,188.33449,287.51905)"/>
<use data-text="[" xlink:href="#font_5_1" transform="matrix(5.977584,0,0,-5.977584,193.17826,287.51905)"/>
<use data-text="x" xlink:href="#font_7_5" transform="matrix(5.977584,0,0,-5.977584,195.28147,287.51905)"/>
<use data-text="]" xlink:href="#font_5_2" transform="matrix(5.977584,0,0,-5.977584,199.45331,287.51905)"/>
<use data-text="/" xlink:href="#font_7_1" transform="matrix(5.977584,0,0,-5.977584,201.5565,287.51905)"/>
<use data-text="&#x210f;" xlink:href="#font_10_1" transform="matrix(5.977584,0,0,-5.977584,205.37549,287.51905)"/>
</svg>
