<svg xmlns="http://www.w3.org/2000/svg" xmlns:xlink="http://www.w3.org/1999/xlink" xmlns:inkscape="http://www.inkscape.org/namespaces/inkscape" version="1.1" width="386.45" height="271.86" viewBox="0 0 386.45 271.86">
<defs>
<path id="font_1_8" d="M.22898865 .35351563V.6105957C.22898865 .63661196 .23098755 .6456146 .25 .6496124 .25898744 .6516113 .29100038 .6516113 .31199647 .6516113 .397995 .6516113 .5249939 .6516113 .5249939 .5025635 .5249939 .41653443 .48098756 .35351563 .34498597 .35351563H.22898865M.45399476 .33850099C.548996 .36550904 .6269989 .42453004 .6269989 .5025635 .6269989 .601593 .5059967 .6826172 .35899354 .6826172H.039993287V.6516113H.06298828C.13999939 .6516113 .14199829 .64060977 .14199829 .6035919V.07891846C.14199829 .04197693 .13999939 .0309906 .06298828 .0309906H.039993287V0C.08699036 .0029907227 .13699341 .0029907227 .18499756 .0029907227 .23298645 .0029907227 .2829895 .0029907227 .33099366 0V.0309906H.30799867C.23098755 .0309906 .22898865 .04197693 .22898865 .07891846V.32850648H.34899903C.42099 .32850648 .45298768 .29051209 .45700074 .28651429 .4869995 .24951172 .4869995 .23451233 .4869995 .16351319 .4869995 .0965271 .4869995 .052520753 .5349884 .014526367 .58200076-.022460938 .6419983-.022460938 .6529999-.022460938 .7369995-.022460938 .7519989 .06452942 .7519989 .088531497 .7519989 .0945282 .7519989 .10652161 .73799136 .10652161 .72499087 .10652161 .72499087 .09751892 .723999 .089523319 .71899417 .026535035 .6879883 .002532959 .6569977 .002532959 .625 .002532959 .6139984 .022537232 .60598757 .039535524 .5970001 .061523439 .58799746 .1295166 .58200076 .17451477 .57398989 .23651123 .5649872 .30351258 .45399476 .33850099Z"/>
<path id="font_1_9" d="M.3999939 .22949219C.42199708 .22949219 .4269867 .22949219 .4269867 .25048829 .4269867 .35333253 .37098695 .4482422 .24299622 .4482422 .12298584 .4482422 .0289917 .3443451 .0289917 .22047425 .0289917 .08932495 .13398743-.0107421879 .2559967-.0107421879 .37799073-.0107421879 .4269867 .096343997 .4269867 .11936951 .4269867 .12637329 .42199708 .13237 .41299439 .13237 .40299989 .13237 .3999939 .12536621 .39898683 .12136841 .36499024 .019256592 .27598573 .01725769 .26098634 .01725769 .21299744 .01725769 .17199707 .044281007 .14898682 .078323367 .115997318 .12736511 .114990238 .18743897 .114990238 .22949219H.3999939M.115997318 .253479C.125 .40725709 .21499634 .42323304 .24299622 .42323304 .2979889 .42323304 .35798646 .38130189 .35899354 .253479H.115997318Z"/>
<path id="font_2_9" d="M.2869873 .6603241C.29100038 .67433169 .29100038 .67633059 .29100038 .68032839 .29100038 .68933108 .2849884 .69433596 .27598573 .69433596 .2619934 .69433596 .17399597 .6863251 .1539917 .6843262 .14399719 .68333438 .1329956 .6823273 .1329956 .665329 .1329956 .6523285 .14399719 .6523285 .1599884 .6523285 .20698548 .6523285 .20698548 .6453247 .20698548 .6363373 .20698548 .6323395 .20698548 .6303406 .20199585 .6123352L.05899048 .037261964C.054992677 .023254395 .054992677 .021255494 .054992677 .018249512 .054992677 .002243042 .067993167-.0107421879 .085998538-.0107421879 .11898804-.0107421879 .12599182 .018249512 .1309967 .038253786L.17799378 .22732544C.24598694 .22132874 .29699708 .19432068 .29699708 .14430237 .29699708 .1382904 .29699708 .1342926 .2939911 .11929321 .29299928 .11528015 .2899933 .10128784 .2899933 .090270999 .2899933 .03125 .33099366-.0107421879 .38598634-.0107421879 .42399598-.0107421879 .44799806 .012252808 .46598817 .041259767 .4909973 .07926941 .5049896 .13929749 .5049896 .14329529 .5049896 .14830017 .5019989 .15530396 .49198915 .15530396 .48098756 .15530396 .47898866 .15029907 .47399903 .1322937 .46099855 .08126831 .43598939 .014251709 .3889923 .014251709 .3600006 .014251709 .35699464 .040252687 .35699464 .06227112 .35699464 .08728027 .36299134 .11328125 .3639984 .11528015 .3659973 .121292117 .36799623 .13328552 .36799623 .14529419 .36799623 .21531677 .29499818 .24232483 .21798706 .25134278 .24798584 .27033998 .269989 .29135133 .3019867 .32336427 .35299684 .37435914 .394989 .41737367 .44799806 .41737367 .45999146 .41737367 .47299195 .41436769 .48098756 .405365 .43598939 .4013672 .4249878 .36436463 .4249878 .35035707 .4249878 .33135987 .43899537 .31436158 .46398927 .31436158 .4869995 .31436158 .5189972 .33236695 .5189972 .37635804 .5189972 .4093628 .49499513 .4423828 .44799806 .4423828 .3869934 .4423828 .33799745 .39335633 .29599 .35035707 .24798584 .30336 .22399903 .27934266 .18699646 .26333619L.2869873 .6603241Z"/>
<path id="font_3_1" d="M.5499878 .31877137C.5499878 .39183045 .5499878 .66503909 .30499269 .66503909 .05999756 .66503909 .05999756 .39183045 .05999756 .31877137 .05999756 .2467041 .05999756-.021484375 .30499269-.021484375 .5499878-.021484375 .5499878 .2467041 .5499878 .31877137M.30499269 .010513306C.2630005 .010513306 .19499207 .030517579 .17098999 .113601688 .15499878 .17164612 .15499878 .2697296 .15499878 .33177186 .15499878 .39883424 .15499878 .4758911 .16899109 .52993777 .19400025 .6200104 .269989 .6330261 .30499269 .6330261 .35099793 .6330261 .4169922 .6110077 .43899537 .5349426 .45399476 .48190309 .45498658 .408844 .45498658 .33177186 .45498658 .26771546 .45498658 .16664124 .43798829 .1105957 .4099884 .023513794 .33799745 .010513306 .30499269 .010513306Z"/>
<path id="font_1_7" d="M.22999573 .6036377C.22999573 .6396179 .23199463 .6516113 .31199647 .6516113H.33699037V.6826172C.29599 .6796112 .22799683 .6796112 .18499756 .6796112 .14199829 .6796112 .07398987 .6796112 .032989503 .6826172V.6516113H.057998659C.13798523 .6516113 .13999939 .6396179 .13999939 .6036377V.07896423C.13999939 .04298401 .13798523 .0309906 .057998659 .0309906H.032989503V0C.07398987 .0029907227 .14199829 .0029907227 .18499756 .0029907227 .22799683 .0029907227 .29599 .0029907227 .33699037 0V.0309906H.31199647C.23199463 .0309906 .22999573 .04298401 .22999573 .07896423V.6036377Z"/>
<path id="font_1_10" d="M.18598938 .2592163C.18598938 .36732484 .2639923 .41737367 .32398988 .41737367 .3789978 .41737367 .39698792 .37834168 .39698792 .30825807V.077041629C.39698792 .0309906 .38598634 .0309906 .31999208 .0309906V0C.36698915 .0019989014 .38598634 .0029907227 .43399049 .0029907227 .48199464 .0029907227 .49499513 .0019989014 .5479889 0V.0309906C.48199464 .0309906 .47099305 .0309906 .47099305 .077041629V.2592163C.47099305 .36732484 .548996 .41737367 .60899356 .41737367 .6639862 .41737367 .6819916 .37834168 .6819916 .30825807V.077041629C.6819916 .0309906 .67099 .0309906 .6049957 .0309906V0C.6519928 .0019989014 .67099 .0029907227 .71899417 .0029907227 .7669983 .0029907227 .7799988 .0019989014 .83299258 0V.0309906C.7819977 .0309906 .7569885 .0309906 .7559967 .062026979V.25421144C.7559967 .34129334 .7559967 .36932374 .72299197 .4063568 .70199587 .43037416 .6619873 .4423828 .6159973 .4423828 .5439911 .4423828 .49499513 .4003601 .46699525 .3473053 .45498658 .4063568 .4149933 .4423828 .33099366 .4423828 .25099183 .4423828 .20199585 .39035035 .18099976 .34429933L.17999268 .34370423V.4416504L.034988405 .43066407V.3996582C.102996829 .3996582 .11199951 .39266969 .11199951 .34370423V.07695007C.11199951 .0309906 .100997928 .0309906 .034988405 .0309906V0C.08198547 .0019989014 .100997928 .0029907227 .14898682 .0029907227 .19699097 .0029907227 .20999146 .0019989014 .2630005 0V.0309906C.19699097 .0309906 .18598938 .0309906 .18598938 .07695007V.2592163Z"/>
<path id="font_1_4" d="M.47299195 .31976319C.47299195 .38682557 .46998597 .47288514 .43499757 .5479431 .3909912 .64201357 .31498719 .6660156 .25698854 .6660156 .19699097 .6660156 .12098694 .64201357 .07699585 .5459442 .04499817 .47688294 .039993287 .39582826 .039993287 .31976319 .039993287 .25471498 .041992189 .15765381 .084991458 .07858276 .13198853-.0064697267 .20999146-.022460938 .2559967-.022460938 .32099916-.022460938 .394989 .0055389406 .43699647 .097595218 .46699525 .1646576 .47299195 .23971558 .47299195 .31976319M.25698854 .002532959C.22698975 .002532959 .15499878 .016540528 .13598633 .12962342 .12599182 .18867493 .12599182 .2747345 .12599182 .33177186 .12599182 .39982606 .12599182 .47888185 .13798523 .53393557 .1579895 .6230011 .22200012 .64100649 .2559967 .64100649 .2939911 .64100649 .35699464 .62098696 .37599183 .5279236 .3869934 .47288514 .3869934 .39482118 .3869934 .33177186 .3869934 .2697296 .3869934 .18566895 .3769989 .12661743 .35598756 .012542725 .28199769 .002532959 .25698854 .002532959Z"/>
<path id="font_4_1" d="M.6749878 .22944641C.69299319 .22944641 .71199038 .22944641 .71199038 .25144959 .71199038 .27246095 .69200137 .27246095 .6749878 .27246095H.12298584C.10598755 .27246095 .085998538 .27246095 .085998538 .25144959 .085998538 .22944641 .10499573 .22944641 .12298584 .22944641H.6749878Z"/>
<path id="font_2_2" d="M.621994 .3703308C.621994 .39935304 .6119995 .4423523 .57598879 .4423523 .5499878 .4423523 .5249939 .4173584 .5249939 .39234925 .5249939 .37634278 .5299988 .37434388 .5379944 .366333 .5509949 .35333253 .57499697 .32832337 .57499697 .27830506 .57499697 .21730042 .5109863 .06324768 .40899659 .06324768 .35299684 .06324768 .32099916 .103256229 .31098939 .14527893 .31098939 .15827942 .34599305 .2303009 .34599305 .26730348 .34599305 .2803192 .33898927 .29231263 .32398988 .29231263 .31599427 .29231263 .30699159 .28831483 .30099488 .28131105 .28199769 .25730897 .272995 .17628479 .272995 .15127564 .23999024 .10525513 .19799805 .06425476 .13798523 .06425476 .07299805 .06425476 .049987794 .119262699 .049987794 .17628479 .049987794 .25230409 .08099365 .31932069 .14399719 .40335084 .1499939 .41134645 .1499939 .41534425 .1499939 .42034913 .1499939 .4293518 .14099121 .4373474 .13198853 .4373474 .12199402 .4373474 .11399841 .4293518 .10899353 .4213562 .053985597 .34432984 .01399231 .23329163 .01399231 .13726807 .01399231 .060256959 .040985109-.0107421879 .1289978-.0107421879 .19198609-.0107421879 .24899292 .04324341 .2789917 .089263919 .2919922 .04824829 .31599427-.0107421879 .3959961-.0107421879 .47299195-.0107421879 .5239868 .052246095 .56199648 .13127136 .58099368 .17028809 .59298709 .21328736 .6029968 .25430299 .61299136 .29832459 .621994 .33932496 .621994 .3703308Z"/>
<path id="font_5_1" d="M.42199708 .27020265 .57299807 .37332154C.58299258 .38032533 .58898928 .38432313 .6409912 .38432313H.66799929V.44433595C.6579895 .44332887 .6139984 .44032289 .57398989 .44032289 .5299988 .44032289 .44999696 .44332887 .43798829 .44433595V.38432313C.44898988 .38432313 .45199586 .3833313 .45700074 .38032533L.2579956 .2441864V.69433596L.06599426 .6863251V.6263275C.12799073 .6263275 .1349945 .6263275 .1349945 .58732607V.05999756H.06599426V0C.084991458 .0009918213 .1499939 .0039978029 .19198609 .0039978029 .23799134 .0039978029 .30099488 .0009918213 .31900025 0V.05999756H.25V.15208435L.33099366 .20814514 .47299195 .06399536C.46699525 .05999756 .46499635 .05999756 .45298768 .05999756V0C.46998597 .0009918213 .5389862 .0039978029 .58599856 .0039978029 .58799746 .0039978029 .6669922 .0029907227 .69799807 0V.05999756H.6629944C.6289978 .05999756 .6259918 .06199646 .61698916 .070999149L.42199708 .27020265Z"/>
<path id="font_1_3" d="M.70599368 .22944641C.7200012 .22944641 .7409973 .22944641 .7409973 .25045777 .7409973 .27246095 .7220001 .27246095 .70599368 .27246095H.42099V.5578003C.42099 .573761 .42099 .59277346 .39898683 .59277346 .37799073 .59277346 .37799073 .57177737 .37799073 .5578003V.27246095H.09199524C.07798767 .27246095 .056991579 .27246095 .056991579 .25144959 .056991579 .22944641 .07598877 .22944641 .09199524 .22944641H.37799073V-.056793214C.37799073-.07279968 .37799073-.091796878 .3999939-.091796878 .42099-.091796878 .42099-.07080078 .42099-.056793214V.22944641H.70599368Z"/>
<path id="font_2_6" d="M.7739868 .67807009C.7769928 .6900635 .7769928 .69207766 .7769928 .69407656 .7769928 .69506838 .776001 .7050781 .7649994 .7050781 .7589874 .7050781 .7559967 .70207217 .7489929 .69407656L.6879883 .6270294C.6839905 .62202456 .6799927 .61802676 .67900088 .61802676 .6779938 .61802676 .6769867 .61901858 .67099 .62602236 .6559906 .64604189 .61099246 .7050781 .5069885 .7050781 .27799989 .7050781 .050994874 .48291017 .050994874 .25473023 .050994874 .09159851 .16999817-.022460938 .33099366-.022460938 .43499757-.022460938 .5169983 .031555177 .55599978 .0665741 .6469879 .14764405 .6639862 .23571778 .6639862 .23971558 .6639862 .24372864 .6619873 .25073243 .6499939 .25073243 .6389923 .25073243 .6369934 .24472046 .6359863 .24072266 .58699038 .079589847 .44400025 .008529663 .34399415 .008529663 .24699402 .008529663 .14399719 .06758118 .14399719 .21870423 .14399719 .2637329 .15899658 .42185975 .2599945 .54496768 .31999208 .61701968 .41799928 .67407229 .5139923 .67407229 .625 .67407229 .6839905 .5890045 .6839905 .47891236 .6839905 .44488526 .68099978 .43788148 .68099978 .4298706 .68099978 .41886903 .69299319 .41886903 .69599917 .41886903 .70899966 .41886903 .70899966 .42086793 .71398928 .43988038L.7739868 .67807009Z"/>
<path id="font_6_3" d="M.43499757 .60858157C.44299317 .64060977 .44400025 .64260867 .48599244 .64260867H.58399966C.6839905 .64260867 .7569885 .6175995 .7569885 .5385437 .7569885 .5035095 .74198916 .43145753 .6729889 .3924408 .6339874 .37042237 .5799866 .35742188 .5119934 .35742188H.37199403L.43499757 .60858157M.6399994 .3394165C.7369995 .36141969 .86499026 .42945863 .86499026 .52752688 .86499026 .6105957 .7599945 .6826172 .60398867 .6826172H.2809906C.2619934 .6826172 .24699402 .6826172 .24699402 .65760806 .24699402 .64260867 .2619934 .64260867 .27999879 .64260867 .2979889 .64260867 .32299806 .64260867 .34399415 .63560488 .34399415 .6255951 .34399415 .6195984 .33999635 .60357668L.20899964 .082901C.19999695 .04698181 .19799805 .039993287 .12298584 .039993287 .100997928 .039993287 .09899902 .039993287 .09498596 .036987306 .08999634 .032989503 .085998538 .019989014 .085998538 .01399231 .08699036 .009994507 .08799744 0 .102996829 0 .1329956 0 .20599365 .0039978029 .23599243 .0039978029 .29699708 .0039978029 .23199463 .0039978029 .30499269 .0029907227 .32699586 .0029907227 .35099793 0 .37199403 0 .37799073 0 .3849945 0 .3889923 .0069885256 .3909912 .009994507 .394989 .021987915 .394989 .025985718 .3919983 .039993287 .3829956 .039993287 .3600006 .039993287 .34799195 .039993287 .33299256 .040985109 .32199098 .041992189 .3039856 .04397583 .29699708 .04397583 .29699708 .05496216 .29699708 .058944704 .2979889 .062942508 .30099488 .07292175L.3639984 .3244171H.5079956C.59599307 .3244171 .6399994 .28442384 .6399994 .23643494 .6399994 .22444153 .6309967 .1904602 .625 .16746521 .6139984 .12147522 .6100006 .10748291 .6100006 .08947754 .6100006 .01550293 .6779938-.021484375 .7649994-.021484375 .85899356-.021484375 .9029999 .07348633 .9029999 .09648132 .9029999 .10247803 .897995 .11148071 .8849945 .11148071 .87098696 .11148071 .8679962 .10348511 .8659973 .09648132 .84298709 .028503418 .79499819 .011505127 .769989 .011505127 .7429962 .011505127 .72099307 .021499634 .72099307 .08049011 .72099307 .10348511 .7279968 .15846253 .73098757 .1844635 .7319946 .19445801 .7350006 .2154541 .7350006 .2234497 .7350006 .2894287 .68299868 .3244171 .6399994 .3394165Z"/>
<path id="font_7_85" d="M.34098817-.23803711C.34098817-.23303223 .33799745-.23002625 .33198548-.22303772 .20298767-.105026248 .1639862 .07498169 .1639862 .24998474 .1639862 .40498353 .19400025 .59298709 .33499146 .72698977 .33898927 .73098757 .34098817 .7339783 .34098817 .73898318 .34098817 .74598696 .33599855 .75 .32899476 .75 .31698609 .75 .22698975 .6779785 .17298889 .568985 .125 .47297669 .100997928 .36997987 .100997928 .25097657 .100997928 .17897034 .10998535 .064971927 .16499329-.053024293 .22399903-.17602539 .31698609-.24902344 .32899476-.24902344 .33599855-.24902344 .34098817-.24502564 .34098817-.23803711Z"/>
<path id="font_7_96" d="M.37298585 .3798828C.37298585 .41236878 .34298707 .4423828 .2979889 .4423828 .23799134 .4423828 .19599915 .40037538 .17298889 .33787538H.17199707V.4423828L.02999878 .43066407V.3996582C.09799194 .3996582 .10699463 .3927307 .10699463 .34387208V.07698059C.10699463 .0309906 .09599304 .0309906 .02999878 .0309906V0C.08299255 .0019989014 .09599304 .0029907227 .14698792 .0029907227L.27398683 0V.0309906H.2539978C.18099976 .0309906 .17799378 .041992189 .17799378 .07897949V.22891236C.17799378 .26989747 .18899536 .4166565 .30299378 .4166565V.4156494C.30099488 .4146576 .2849884 .40264894 .2849884 .37887574 .2849884 .35186769 .30599977 .33486939 .32899476 .33486939 .34999085 .33486939 .37298585 .34986878 .37298585 .3798828Z"/>
<path id="font_7_50" d="M.4269867 .11936951C.4269867 .12637329 .42199708 .13237 .41299439 .13237 .40299989 .13237 .3999939 .12536621 .39898683 .12136841 .36499024 .019256592 .27598573 .01725769 .26098634 .01725769 .21299744 .01725769 .17199707 .044281007 .14898682 .078323367 .115997318 .12736511 .114990238 .18743897 .114990238 .22949219H.3999939C.42199708 .22949219 .4269867 .22949219 .4269867 .25048829 .4269867 .35333253 .37098695 .4482422 .24299622 .4482422 .12298584 .4482422 .0289917 .3443451 .0289917 .22047425 .0289917 .08932495 .13398743-.0107421879 .2559967-.0107421879 .37799073-.0107421879 .4269867 .096343997 .4269867 .11936951M.35899354 .253479H.115997318C.125 .40725709 .21499634 .42323304 .24299622 .42323304 .2979889 .42323304 .35798646 .38130189 .35899354 .253479Z"/>
<path id="font_7_105" d="M.34199525 .12408447V.18099976H.31399537V.1270752C.31399537 .05319214 .2829895 .01725769 .24699402 .01725769 .17999268 .01725769 .17999268 .1051178 .17999268 .12309265V.3996582H.32499696V.43066407H.17999268V.6142578H.1519928C.15098572 .5304413 .115997318 .42765809 .018997193 .4246521V.3996582H.10598755V.12408447C.10598755 .012252808 .18699646-.0107421879 .23999024-.0107421879 .30699159-.011001587 .34199525 .052993776 .34199525 .12399292V.12408447Z"/>
<path id="font_7_28" d="M.49699403 .089141849V.14515686H.46899415V.090148929C.46899415 .07914734 .46899415 .029129029 .43299867 .029129029 .39698792 .029129029 .39698792 .07714844 .39698792 .09315491V.26818849C.39698792 .32521058 .39698792 .3592224 .35198976 .40022279 .31498719 .43322755 .2669983 .4482422 .21699524 .4482422 .1329956 .4482422 .06298828 .40623475 .06298828 .34220887 .06298828 .311203 .083999637 .2942047 .10998535 .2942047 .13699341 .2942047 .1559906 .31420899 .1559906 .34020997 .1559906 .3832245 .11099243 .38822938 .11099243 .38822938 .13798523 .41423036 .18598938 .42323304 .21499634 .42323304 .2659912 .42323304 .32299806 .3852234 .32299806 .29719544V.26419068C.2689972 .26219178 .19400025 .2571869 .1269989 .22518921 .054992677 .19017029 .032989503 .13816834 .032989503 .09814453 .032989503 .01625061 .12998963-.0107421879 .19699097-.0107421879 .27999879-.0107421879 .31799317 .04425049 .33198548 .072250369 .33699037 .030136109 .3659973-.005859375 .40899659-.005859375 .43399049-.005859375 .49699403 .009140015 .49699403 .08912659V.089141849M.32299806 .14112854C.32299806 .04425049 .24798584 .014251709 .20399475 .014251709 .15699768 .014251709 .11299133 .04824829 .11299133 .098236087 .11299133 .16423035 .16999817 .23422241 .32299806 .24023438V.14112854Z"/>
<path id="font_7_47" d="M.5399933 0V.0309906C.47200013 .0309906 .46299745 .037994386 .46299745 .087020877V.69433596L.31498719 .6826172V.6516113C.3829956 .6516113 .3919983 .64463809 .3919983 .59580996V.38339234C.3869934 .38938905 .34199525 .4423828 .2639923 .4423828 .14099121 .4423828 .033996583 .3443756 .033996583 .21525574 .033996583 .09013367 .13398743-.0107421879 .25299073-.0107421879 .32598878-.0107421879 .37098695 .03224182 .3889923 .053115846V-.0107421879L.5399933 0M.3889923 .12011719C.3889923 .10211182 .3889923 .099121097 .37399293 .078125 .34298707 .033218385 .29699708 .014251709 .25698854 .014251709 .21398926 .014251709 .17399597 .038208009 .147995 .0801239 .12199402 .12312317 .11999512 .18218994 .11999512 .21421814 .11999512 .26127626 .12599182 .3143463 .1519928 .35438539 .17399597 .38638307 .21499634 .41737367 .2679901 .41737367 .30999757 .41737367 .34999085 .39637757 .3769989 .35839845 .3889923 .3423767 .3889923 .34136964 .3889923 .32235719V.12011719Z"/>
<path id="font_7_86" d="M.2979889 .25097657C.2979889 .3329773 .28599549 .4429779 .23399353 .5539856 .1749878 .6769867 .08198547 .75 .069992069 .75 .05999756 .75 .057998659 .74198916 .057998659 .73898318 .057998659 .7339783 .05999756 .73098757 .066986087 .72398379 .125 .6719818 .23498535 .5359802 .23498535 .25097657 .23498535 .10797119 .20899964-.091033939 .06399536-.22602844 .06199646-.22903443 .057998659-.23303223 .057998659-.23803711 .057998659-.24102783 .05999756-.24902344 .069992069-.24902344 .08198547-.24902344 .17199707-.17703247 .22599793-.06802368 .27398683 .02796936 .2979889 .13098145 .2979889 .25097657Z"/>
<path id="font_6_1" d="M.22599793 .12182617C.18798828 .063949588 .1539917 .04397583 .09799194 .039993287 .083999637 .038986207 .07199097 .037994386 .07199097 .01499939 .07199097 .004989624 .07998657 0 .08699036 0 .114990238 0 .147995 .0039978029 .1769867 .0039978029 .20098877 .0039978029 .2599945 0 .28399659 0 .29499818 0 .30599977 .004989624 .30599977 .024993897 .30599977 .038986207 .2919922 .039993287 .2889862 .039993287 .2649994 .040985109 .24299622 .04698181 .24299622 .06893921 .24299622 .0809021 .2539978 .09786987 .25698854 .10386658L.33898927 .22662354H.6399994L.66600039 .06593323C.66600039 .039993287 .60798647 .039993287 .59799197 .039993287 .58499148 .039993287 .56900027 .039993287 .56900027 .01499939 .56900027 .009994507 .57398989 0 .58599856 0 .6159973 0 .68899539 .0039978029 .71899417 .0039978029 .7389984 .0039978029 .7579956 .0029907227 .7779999 .0029907227 .7979889 .0029907227 .81999209 0 .83898928 0 .8450012 0 .86099246 0 .86099246 .024993897 .86099246 .039993287 .84799197 .039993287 .83299258 .039993287 .7709961 .039993287 .769989 .04698181 .7659912 .07192993L.66600039 .68685916C.6629944 .7048645 .6619873 .7138672 .6399994 .7138672 .61898806 .7138672 .61299136 .7058563 .60398867 .691864L.22599793 .12182617M.36499024 .26661683 .58099368 .5917969 .6329956 .26661683H.36499024Z"/>
<path id="font_7_112" d="M.5209961 .3996582V.43066407C.4909973 .42765809 .44400025 .42765809 .44400025 .42765809 .41600038 .42765809 .3849945 .4286499 .35699464 .43066407V.3996582C.38598634 .3976593 .40299989 .38267518 .40299989 .35671998 .40299989 .34674073 .4019928 .34474183 .397995 .3337555L.2939911 .0821228 .17999268 .35472108C.1769867 .36071778 .1749878 .36669923 .1749878 .37368775 .1749878 .3996582 .21099854 .3996582 .22999573 .3996582V.43066407C.18699646 .4286499 .1639862 .42765809 .11999512 .42765809 .084991458 .42765809 .055999757 .42765809 .019989014 .43066407V.3996582C.066986087 .3996582 .085998538 .3996582 .100997928 .36271668L.24699402 .008224487C.25299073-.007751465 .26098634-.0107421879 .269989-.0107421879 .2789917-.0107421879 .2869873-.008758545 .2939911 .008224487L.42999269 .3357544C.45098878 .38667298 .48599244 .39865113 .5209961 .3996582Z"/>
<path id="font_7_77" d="M.5469971 0V.0309906C.49598695 .03125 .47099305 .03125 .46998597 .0622406V.25431825C.46998597 .3373413 .46998597 .36636354 .44198609 .4013672 .4189911 .42938233 .3809967 .4423828 .33099366 .4423828 .23799134 .4423828 .19499207 .37335206 .18099976 .34535218H.17999268V.4423828L.034988405 .43066407V.3996582C.102996829 .3996582 .11199951 .39266969 .11199951 .34370423V.07695007C.11199951 .0309906 .100997928 .0309906 .034988405 .0309906V0C.08198547 .0019989014 .100997928 .0029907227 .14898682 .0029907227 .19699097 .0029907227 .20999146 .0019989014 .2630005 0V.0309906C.19699097 .0309906 .18598938 .0309906 .18598938 .07695007V.25878907C.18598938 .36532594 .26098634 .41737367 .32398988 .41737367 .3829956 .41737367 .3959961 .3683319 .3959961 .30825807V.077041629C.3959961 .0309906 .3849945 .0309906 .31900025 .0309906V0C.3659973 .0019989014 .3849945 .0029907227 .43299867 .0029907227 .48098756 .0029907227 .49398805 .0019989014 .5469971 0Z"/>
<path id="font_7_43" d="M.4269867 .11936951C.4269867 .13139344 .41600038 .13139344 .41299439 .13139344 .4019928 .13139344 .4019928 .12937927 .3959961 .11236572 .37298585 .043289186 .31698609 .01725769 .2659912 .01725769 .20199585 .01725769 .11999512 .06932068 .11999512 .21749878 .11999512 .3735962 .19999695 .42022706 .2599945 .42022706 .272995 .42022706 .32699586 .41825868 .3639984 .39356996 .34298707 .3895874 .32299806 .3755951 .32299806 .34658814 .32299806 .32058717 .34298707 .30059815 .36898805 .30059815 .394989 .30059815 .41600038 .31759645 .41600038 .34858705 .41600038 .4103546 .34599305 .4482422 .2579956 .4482422 .12998963 .4482422 .033996583 .3415985 .033996583 .2164917 .033996583 .08734131 .13798523-.0107421879 .2559967-.0107421879 .394989-.0107421879 .4269867 .11036682 .4269867 .11936951Z"/>
<path id="font_6_2" d="M.3639984 .31939698H.47898866C.5589905 .31939698 .57199099 .30641175 .57199099 .27348329 .57199099 .25952149 .56599429 .23057556 .56199648 .21661377 .56199648 .21560669 .56399539 .20263672 .58099368 .20263672 .59498599 .20263672 .5970001 .20762635 .6009979 .22459412L.6609955 .46247865C.6609955 .46347047 .6589966 .4764862 .6419983 .4764862 .6269989 .4764862 .625 .46948243 .621994 .45646668 .59999087 .3774109 .57598879 .35939027 .48199464 .35939027H.375L.43598939 .60458377C.44400025 .63661196 .44499208 .63861086 .4869995 .63861086H.651001C.7819977 .63861086 .81799319 .6135864 .81799319 .5215149 .81799319 .49949647 .81399539 .46447755 .81399539 .46147157 .81399539 .444458 .8279877 .444458 .83299258 .444458 .848999 .444458 .84999087 .45246888 .85198977 .47047425L.8699951 .6476135C.8730011 .6786041 .86499026 .6786041 .83999636 .6786041H.27799989C.25898744 .6786041 .24398804 .6786041 .24398804 .6536102 .24398804 .63861086 .25898744 .63861086 .2769928 .63861086 .29499818 .63861086 .31999208 .63861086 .34098817 .63160708 .34098817 .6215973 .34098817 .6155853 .33699037 .59957888L.20698548 .082901C.19799805 .04698181 .19599915 .039993287 .12098694 .039993287 .09899902 .039993287 .09700012 .039993287 .09298706 .036987306 .08799744 .032989503 .083999637 .019989014 .083999637 .01399231 .084991458 .009994507 .085998538 0 .101989749 0 .12298584 0 .14698792 .0029907227 .16899109 .0029907227 .19299317 .0029907227 .21598816 .0039978029 .23999024 .0039978029 .2669983 .0039978029 .29599 .0029907227 .32299806 .0029907227 .34700013 .0029907227 .375 0 .39898683 0 .4059906 0 .4229889 0 .4229889 .024993897 .4229889 .039993287 .41099549 .039993287 .38598634 .039993287 .3829956 .039993287 .35798646 .039993287 .33399964 .041992189 .30299378 .04397583 .2999878 .04698181 .2999878 .05795288 .2999878 .058944704 .2999878 .063934329 .3039856 .0789032L.3639984 .31939698Z"/>
<path id="font_7_54" d="M.6269989 .4550171 .598999 .6796875H.037994386V.64868167H.06098938C.13798523 .64868167 .13999939 .6376953 .13999939 .60076907V.07902527C.13999939 .041992189 .13798523 .0309906 .06098938 .0309906H.037994386V0C.08299255 .0029907227 .14498902 .0029907227 .19099427 .0029907227 .23098755 .0029907227 .32199098 .0029907227 .35699464 0V.0309906H.32499696C.23399353 .0309906 .22999573 .042999269 .22999573 .08001709V.3251953H.31999208C.4169922 .3251953 .42799378 .29318238 .42799378 .20819092H.45599366V.47299195H.42799378C.42799378 .38813783 .4169922 .3561859 .31999208 .3561859H.22999573V.60775759C.22999573 .6416931 .23199463 .64868167 .2789917 .64868167H.40499879C.55799868 .64868167 .58299258 .59277346 .598999 .4550171H.6269989Z"/>
<path id="font_7_118" d="M.519989 .3996582V.43066407C.48799134 .42765809 .45700074 .42765809 .44400025 .42765809 .41600038 .42765809 .3849945 .4286499 .35699464 .43066407V.3996582C.40299989 .3976593 .40299989 .36167909 .40299989 .35768128 .40299989 .3466797 .39898683 .33668519 .394989 .32868959L.2939911 .090789798 .18199158 .3526764C.17599488 .3666687 .17599488 .3736725 .17599488 .3736725 .17599488 .3996582 .20999146 .3996582 .23098755 .3996582V.43066407L.11999512 .42765809C.116989139 .42765809 .05999756 .42765809 .020996094 .43066407V.3996582C.06599426 .3996582 .084991458 .3976593 .09700012 .3706665L.25498963-.00016784668 .22999573-.059143068C.20799256-.11212158 .1789856-.18008423 .11399841-.18008423 .08898926-.18008423 .07199097-.167099 .068984989-.16508484 .07699585-.16407776 .10499573-.1560669 .10499573-.12205505 .10499573-.09605408 .085998538-.080062869 .06298828-.080062869 .037994386-.080062869 .019989014-.09605408 .019989014-.123046878 .019989014-.16807556 .06199646-.20507813 .11399841-.20507813 .1789856-.20507813 .22200012-.14706421 .24598694-.092056278L.4269867 .33068849C.43798829 .3566742 .45599366 .3976593 .519989 .3996582Z"/>
<path id="font_7_75" d="M.83299258 0V.0309906C.7819977 .03125 .7569885 .03125 .7559967 .0622406V.2539215C.7559967 .34077455 .7559967 .36872865 .72299197 .4056549 .70199587 .43037416 .6619873 .4423828 .6159973 .4423828 .5439911 .4423828 .49499513 .40037538 .46699525 .3473816 .45498658 .40637208 .4149933 .4423828 .33099366 .4423828 .25099183 .4423828 .20199585 .39038087 .18099976 .3443756H.17999268V.4423828L.034988405 .43066407V.3996582C.102996829 .3996582 .11199951 .39266969 .11199951 .34370423V.07695007C.11199951 .0309906 .100997928 .0309906 .034988405 .0309906V0C.08198547 .0019989014 .100997928 .0029907227 .14898682 .0029907227 .19699097 .0029907227 .20999146 .0019989014 .2630005 0V.0309906C.19699097 .0309906 .18598938 .0309906 .18598938 .07695007V.25878907C.18598938 .36732484 .2639923 .41737367 .32398988 .41737367 .3789978 .41737367 .39698792 .37834168 .39698792 .30825807V.077041629C.39698792 .0309906 .38598634 .0309906 .31999208 .0309906V0C.36698915 .0019989014 .38598634 .0029907227 .43399049 .0029907227 .48199464 .0029907227 .49499513 .0019989014 .5479889 0V.0309906C.48199464 .0309906 .47099305 .0309906 .47099305 .077041629V.2592163C.47099305 .36732484 .548996 .41737367 .60899356 .41737367 .6639862 .41737367 .6819916 .37834168 .6819916 .30825807V.077041629C.6819916 .0309906 .67099 .0309906 .6049957 .0309906V0C.6519928 .0019989014 .67099 .0029907227 .71899417 .0029907227 .7669983 .0029907227 .7799988 .0019989014 .83299258 0Z"/>
<path id="font_2_8" d="M.2899933 .62428286C.2899933 .646286 .27398683 .6612854 .2519989 .6612854 .22499085 .6612854 .19799805 .6352844 .19799805 .60827639 .19799805 .58828738 .21299744 .57128909 .23599243 .57128909 .2630005 .57128909 .2899933 .59628298 .2899933 .62428286M.3039856 .14329529C.3039856 .14828491 .30099488 .1552887 .29100038 .1552887 .27999879 .1552887 .2789917 .15029907 .2749939 .13728333 .25099183 .055267335 .20999146 .014251709 .17199707 .014251709 .1559906 .014251709 .147995 .022247315 .147995 .04725647 .147995 .0712738 .1559906 .09327698 .1639862 .11227417 .18199158 .16029358 .18199158 .16229248 .19499207 .1933136 .21099854 .23631287 .23298645 .29333497 .24299622 .3213501 .25 .33935548 .25 .34934999 .25 .35835267 .25 .41537477 .20498657 .4423828 .16499329 .4423828 .067993167 .4423828 .0289917 .29934693 .0289917 .28833009 .0289917 .2793274 .035995485 .27633668 .042999269 .27633668 .053985597 .27633668 .054992677 .28233338 .05899048 .29533387 .07998657 .36636354 .117996219 .41737367 .1619873 .41737367 .17199707 .41737367 .18598938 .41537477 .18598938 .38536073 .18598938 .36036683 .17599488 .3343506 .16699219 .31134034L.09599304 .12628174C.08898926 .107284549 .08299255 .091278079 .08299255 .073272708 .08299255 .026260376 .117996219-.0107421879 .16899109-.0107421879 .2659912-.0107421879 .3039856 .13328552 .3039856 .14329529Z"/>
<path id="font_2_3" d="M.14399719 .22492981C.17999268 .2109375 .20498657 .2109375 .23199463 .2109375 .25898744 .2109375 .31498719 .2109375 .31498719 .2440033 .31498719 .26704408 .2889862 .27304078 .24099732 .27304078 .21899414 .27304078 .18499756 .27104188 .14498902 .25404359 .10699463 .2740326 .10499573 .3010559 .10499573 .30906678 .10499573 .36608888 .19999695 .40312196 .29499818 .40312196 .31599427 .40312196 .34999085 .40211488 .3909912 .37309266 .39698792 .36909486 .4019928 .36608888 .4099884 .36608888 .41999818 .36608888 .43798829 .3771057 .43798829 .39411927 .43798829 .41311646 .40699769 .42712403 .3880005 .43611146 .37399293 .44311524 .34498597 .453125 .30599977 .453125 .18399048 .453125 .07699585 .3821106 .07699585 .30906678 .07699585 .28704835 .08898926 .2590332 .116989139 .23995972 .084991458 .220932 .027999878 .17285156 .027999878 .10569763 .027999878 .030532837 .09799194-.022460938 .19499207-.022460938 .33099366-.022460938 .3880005 .06460571 .3880005 .08265686 .3880005 .08866882 .38398744 .094680789 .37599183 .094680789 .36999513 .094680789 .36799623 .091674808 .36099244 .07965088 .33499146 .03855896 .2769928 .027526856 .20599365 .027526856 .068984989 .027526856 .055999757 .08566284 .055999757 .111709598 .055999757 .14678955 .08898926 .19889832 .14399719 .22492981M.18199158 .23995972C.20298767 .24601746 .21998596 .24804688 .23999024 .24804688 .2599945 .24804688 .2649994 .24702454 .2849884 .24299622 .269989 .23693848 .2679901 .2359314 .23199463 .2359314 .21499634 .2359314 .19898987 .2359314 .18199158 .23995972Z"/>
<path id="font_8_1" d="M.31399537 .47006227C.32099916 .48506166 .32299806 .49606324 .32299806 .50205996 .32299806 .53305056 .29499818 .5590515 .2619934 .5590515 .22200012 .5590515 .20999146 .5240631 .20599365 .51005557L.06599426 .08206177C.06399536 .076049808 .06098938 .0680542 .06098938 .0640564 .06098938 .047058107 .100997928 .0390625 .101989749 .0390625 .11099243 .0390625 .114990238 .048049928 .11898804 .05606079L.31399537 .47006227Z"/>
<path id="font_2_10" d="M.21299744 .3996582H.30799867C.32598878 .3996582 .33799745 .3996582 .33799745 .41766358 .33799745 .43066407 .32798768 .43066407 .30999757 .43066407H.22099304L.2619934 .59646609C.2619934 .6124573 .24899292 .62545779 .23098755 .62545779 .19898987 .62545779 .19099427 .59646609 .18899536 .5864868L.14898682 .43066407H.054992677C.035995485 .43066407 .023986817 .43066407 .023986817 .4126587 .023986817 .3996582 .034988405 .3996582 .052993776 .3996582H.14199829L.07398987 .12808228C.06599426 .09811401 .06599426 .09613037 .06599426 .08215332 .06599426 .023239136 .11099243-.0107421879 .16299439-.0107421879 .2669983-.0107421879 .32598878 .1330719 .32598878 .14305115 .32598878 .14804077 .32299806 .1550293 .31298829 .1550293 .30299378 .1550293 .3019867 .15203858 .29499818 .1350708 .2639923 .06317139 .21398926 .014251709 .16499329 .014251709 .14498902 .014251709 .1329956 .027236939 .1329956 .060180665 .1329956 .08215332 .13598633 .09413147 .13999939 .10910034L.21299744 .3996582Z"/>
<path id="font_2_5" d="M.69200137 .22721863C.7029877 .23220825 .71199038 .23721314 .71199038 .2512207 .71199038 .2642212 .70098879 .2702179 .69200137 .2742157L.12799073 .5452118C.11399841 .5522156 .10899353 .5522156 .10699463 .5522156 .09399414 .5522156 .085998538 .541214 .085998538 .5312195 .085998538 .5192261 .09199524 .5142212 .10598755 .5072174L.6409912 .2512207 .10598755-.005783081C.09199524-.012786865 .085998538-.017791748 .085998538-.029785157 .085998538-.03678894 .09199524-.05078125 .10798645-.05078125 .10899353-.05078125 .11399841-.05078125 .12599182-.044784547L.69200137 .22721863Z"/>
<path id="font_1_5" d="M.19599915 .3766632C.19599915 .406662 .17199707 .43066407 .14199829 .43066407 .11199951 .43066407 .08799744 .406662 .08799744 .3766632 .08799744 .34765626 .11199951 .32266236 .14199829 .32266236 .17199707 .32266236 .19599915 .34765626 .19599915 .3766632M.19599915 .053985597C.19599915 .08299255 .17199707 .10798645 .14199829 .10798645 .11199951 .10798645 .08799744 .08299255 .08799744 .053985597 .08799744 .023986817 .11199951 0 .14199829 0 .17199707 0 .19599915 .023986817 .19599915 .053985597Z"/>
<path id="font_7_72" d="M.26098634 0V.0309906C.19499207 .0309906 .18399048 .0309906 .18399048 .07701111V.69433596L.035995485 .6826172V.6516113C.10398865 .6516113 .11299133 .64460757 .11299133 .5956421V.07696533C.11299133 .0309906 .101989749 .0309906 .035995485 .0309906V0C.08299255 .0019989014 .101989749 .0029907227 .147995 .0029907227 .19499207 .0029907227 .21199036 .0019989014 .26098634 0Z"/>
<path id="font_7_81" d="M.48399354 .21324158C.48399354 .34423829 .37998963 .4482422 .25698854 .4482422 .12998963 .4482422 .0289917 .3412323 .0289917 .21324158 .0289917 .08824158 .1329956-.0107421879 .2559967-.0107421879 .3829956-.0107421879 .48399354 .09024048 .48399354 .21324158M.397995 .22224427C.397995 .1852417 .397995 .12724304 .37298585 .08325195 .34498597 .037246705 .29899598 .01725769 .25698854 .01725769 .20698548 .01725769 .16499329 .042251588 .14199829 .08125305 .115997318 .12324524 .114990238 .17623902 .114990238 .22224427 .114990238 .25924684 .114990238 .3162384 .13999939 .35723878 .16999817 .40823365 .21998596 .42323304 .2559967 .42323304 .31298829 .42323304 .35398866 .39123536 .37399293 .35723878 .39698792 .31523133 .397995 .26423646 .397995 .22224427Z"/>
<path id="font_7_98" d="M.36999513 .12831116C.36999513 .17330933 .34999085 .20030213 .32798768 .22329712 .2939911 .25628663 .2579956 .26327516 .18399048 .2772827 .1579895 .28227235 .084991458 .29527284 .084991458 .35224916 .084991458 .38424684 .10798645 .426239 .19898987 .426239 .30699159 .426239 .31399537 .34326173 .31599427 .31826783 .31698609 .3062744 .31698609 .3002777 .32998658 .3002777 .34399415 .3002777 .34399415 .30726625 .34399415 .32626344V.4222412C.34399415 .4392395 .34399415 .4482422 .33198548 .4482422 .32699586 .4482422 .32499696 .4482422 .31199647 .43623353 .30999757 .43423463 .30099488 .42523194 .29499818 .4202423 .2639923 .44223023 .23298645 .4482422 .19898987 .4482422 .066986087 .4482422 .033996583 .37524415 .033996583 .32426454 .033996583 .29226686 .04798889 .26628114 .070999149 .24429322 .10499573 .21330261 .14299011 .20629883 .19400025 .19729615 .24499512 .18730164 .2619934 .18431092 .28399659 .16731262 .2939911 .15931702 .31900025 .14031983 .31900025 .10229492 .31900025 .014251709 .21798706 .014251709 .20399475 .014251709 .101989749 .014251709 .07598877 .0993042 .06399536 .15332031 .06098938 .16331482 .05999756 .16931153 .04798889 .16931153 .033996583 .16931153 .033996583 .16131592 .033996583 .14331055V.01524353C.033996583-.0017547608 .033996583-.0107421879 .04598999-.0107421879 .051986696-.0107421879 .052993776-.009750366 .070999149 .009246826 .07499695 .01524353 .085998538 .028259278 .09098816 .03326416 .1329956-.007751465 .1789856-.0107421879 .20399475-.0107421879 .32699586-.0107421879 .36999513 .061279298 .36999513 .12831116Z"/>
<path id="font_7_114" d="M.72099307 .3996582V.43066407C.68099978 .42765809 .67900088 .42765809 .6459961 .42765809 .60798647 .42765809 .59399417 .42765809 .55400088 .43066407V.3996582C.5970001 .39865113 .61099246 .3717041 .61099246 .35173036 .61099246 .34173585 .60899356 .3357544 .60598757 .32876588L.5139923 .07911682 .41299439 .35272218C.4079895 .3657074 .4079895 .36869813 .4079895 .3717041 .4079895 .3976593 .43899537 .3996582 .46499635 .3996582V.43066407C.4189911 .42765809 .37799073 .42765809 .3619995 .42765809 .33099366 .42765809 .3019867 .42765809 .269989 .43066407V.3996582C.3019867 .3996582 .32199098 .39865113 .33299256 .38467408 .34199525 .37368775 .35499574 .3337555 .35499574 .3307495L.34999085 .31677247 .2679901 .09210205 .17298889 .35173036C.16699219 .36669923 .16699219 .36869813 .16699219 .37269593 .16699219 .3996582 .20599365 .3996582 .22499085 .3996582V.43066407L.115997318 .42765809C.08299255 .42765809 .053985597 .42765809 .019989014 .43066407V.3996582C.067993167 .3996582 .08099365 .3976593 .09298706 .3637085L.22200012 .01121521C.22698975-.00076293948 .22999573-.0107421879 .24499512-.0107421879 .2599945-.0107421879 .2639923 .00022888184 .2679901 .010223389L.36999513 .28981019 .47299195 .010223389C.47698976 .00022888184 .48098756-.0107421879 .49598695-.0107421879 .5109863-.0107421879 .5139923-.00076293948 .5179901 .009216309L.6369934 .3337555C.6589966 .39466859 .69999697 .39865113 .72099307 .3996582Z"/>
<path id="font_7_63" d="M.5469971 0V.0309906C.49598695 .03125 .47099305 .03125 .46998597 .0622406V.25431825C.46998597 .3373413 .46998597 .36636354 .44198609 .4013672 .4189911 .42938233 .3809967 .4423828 .33099366 .4423828 .2639923 .4423828 .21499634 .40737916 .18399048 .35134889H.18299866V.69433596L.034988405 .6826172V.6516113C.102996829 .6516113 .11199951 .64463809 .11199951 .59580996V.077041629C.11199951 .0309906 .100997928 .0309906 .034988405 .0309906V0C.08198547 .0019989014 .100997928 .0029907227 .14898682 .0029907227 .19699097 .0029907227 .20999146 .0019989014 .2630005 0V.0309906C.19699097 .0309906 .18598938 .0309906 .18598938 .077041629V.2592163C.18598938 .36532594 .26098634 .41737367 .32398988 .41737367 .3829956 .41737367 .3959961 .3683319 .3959961 .30825807V.077041629C.3959961 .0309906 .3849945 .0309906 .31900025 .0309906V0C.3659973 .0019989014 .3849945 .0029907227 .43299867 .0029907227 .48098756 .0029907227 .49398805 .0019989014 .5469971 0Z"/>
<path id="font_7_55" d="M.3659973 .6340637C.3659973 .67207339 .32798768 .7050781 .272995 .7050781 .19499207 .7046509 .11299133 .6456604 .11299133 .5456543V.43066407H.033996583V.3996582H.11299133V.07695007C.11299133 .0309906 .101989749 .0309906 .035995485 .0309906V0C.08898926 .0019989014 .101989749 .0029907227 .15299988 .0029907227L.27999879 0V.0309906H.2599945C.18699646 .0309906 .18399048 .04197693 .18399048 .078948978V.3996582H.2999878V.43066407H.18099976V.5436554C.18099976 .6350708 .22999573 .68006899 .272995 .68006899 .2829895 .68006899 .29299928 .67807009 .30299378 .67407229 .29299928 .67007449 .2769928 .6580658 .2769928 .6330719 .2769928 .6070709 .29599 .58906558 .32099916 .58906558 .34799195 .58906558 .3659973 .60806277 .3659973 .6340637Z"/>
<path id="font_2_4" d="M.69200137 .5072174C.70098879 .5112152 .71199038 .5172272 .71199038 .53022769 .71199038 .541214 .70399478 .5522156 .6899872 .5522156 .68899539 .5522156 .6839905 .5522156 .6719971 .5462189L.10598755 .2742157C.09700012 .2702179 .085998538 .2642212 .085998538 .2512207 .085998538 .23721314 .09498596 .23220825 .10598755 .22721863L.66999819-.043792726C.6839905-.05078125 .6879883-.05078125 .6899872-.05078125 .70599368-.05078125 .71199038-.03678894 .71199038-.029785157 .71199038-.016784668 .7049866-.012786865 .69400027-.0077819826L.15699768 .2512207 .69200137 .5072174Z"/>
<path id="font_7_109" d="M.5469971 .00024414063V.03125C.47898866 .03125 .46998597 .038253786 .46998597 .087265018V.4423828L.31900025 .43138124V.40037538C.3869934 .40037538 .3959961 .39337159 .3959961 .34436036V.16729737C.3959961 .07826233 .34599305 .014251709 .27398683 .014251709 .19099427 .014251709 .18598938 .057266237 .18598938 .11128235V.4423828L.034988405 .43138124V.40037538C.11199951 .40037538 .11199951 .39736939 .11199951 .3083496V.15829468C.11199951 .09327698 .11199951 .051254274 .1579895 .01625061 .18699646-.003753662 .22799683-.0107421879 .2679901-.0107421879 .31999208-.0107421879 .36898805 .012252808 .397995 .072265628H.39898683V-.0107421879L.5469971 .00024414063Z"/>
<path id="font_7_84" d="M.5359955 .21557617C.5359955 .34158326 .43798829 .4423828 .31999208 .4423828 .2659912 .4423828 .21598816 .42037965 .17799378 .37858583V.4423828L.02999878 .43066407V.3996582C.100997928 .3996582 .10699463 .39363099 .10699463 .35058595V-.116989139C.10699463-.16308594 .09599304-.16308594 .02999878-.16308594V-.1940918C.07699585-.1920929 .09599304-.19110108 .14399719-.19110108 .19198609-.19110108 .20498657-.1920929 .2579956-.1940918V-.16308594C.19198609-.16308594 .18099976-.16308594 .18099976-.116989139V.048187257C.20698548 .022232056 .24099732-.0107421879 .30699159-.0107421879 .42599488-.0107421879 .5359955 .085113529 .5359955 .21585083V.21557617M.44999696 .21585083C.44999696 .1020813 .38198854 .014251709 .30099488 .014251709 .2559967 .014251709 .21798706 .04019165 .19400025 .07513428 .18099976 .09509277 .18099976 .097091678 .18099976 .11604309V.3356018C.21499634 .39437867 .269989 .41436769 .31199647 .41436769 .3899994 .41436769 .44999696 .32437135 .44999696 .21636963V.21585083Z"/>
<path id="font_7_42" d="M.6839905 .23170471C.6839905 .24171448 .6839905 .25073243 .66999819 .25073243 .6569977 .25073243 .6569977 .24372864 .6559906 .2347107 .647995 .082595828 .5279999 .008529663 .4249878 .008529663 .33999635 .008529663 .15899658 .061569215 .15899658 .34179688 .15899658 .6210327 .34098817 .67407229 .42399598 .67407229 .522995 .67407229 .6279907 .5990143 .6519928 .4368744 .6539917 .4238739 .6549988 .41886903 .66799929 .41886903 .6839905 .41886903 .6839905 .4238739 .6839905 .44488526V.67907717C.6839905 .69607546 .6839905 .7050781 .6719971 .7050781 .6649933 .7050781 .6619873 .70207217 .6559906 .69306948L.6049957 .61802676C.57299807 .64904788 .5159912 .7050781 .4149933 .7050781 .22099304 .7050781 .056991579 .5439606 .056991579 .34179688 .056991579 .13563538 .22299195-.022460938 .4149933-.022460938 .58099368-.022460938 .6839905 .11462402 .6839905 .23170471Z"/>
<path id="font_7_116" d="M.5279999 0V.0309906C.48799134 .0309906 .45799256 .0309906 .43598939 .05897522L.30499269 .22491455C.2979889 .23390198 .2979889 .23590088 .2979889 .23590088 .2979889 .23590088 .37599183 .33285523 .38398744 .3408661 .4149933 .37483216 .44898988 .39866639 .5099945 .3996582V.43066407C.48098756 .42765809 .45399476 .42765809 .4249878 .42765809 .3869934 .42765809 .36898805 .42765809 .32899476 .43066407V.3996582C.34399415 .39767457 .35699464 .38972474 .35699464 .3698578 .35699464 .35386659 .34799195 .342865 .34298707 .3368683L.2789917 .2578888 .20098877 .3568573C.19400025 .36586 .19198609 .3678589 .19198609 .37483216 .19198609 .38674928 .20298767 .39866639 .22599793 .3996582V.43066407C.18798828 .4286499 .1619873 .42765809 .116989139 .42765809 .116989139 .42765809 .057998659 .42765809 .018997193 .43066407V.3996582C.08799744 .3996582 .08999634 .39767457 .13598633 .3388672L.23899842 .20991516 .14199829 .0929718C.09199524 .032989503 .034988405 .0309906 .01399231 .0309906V0C.042999269 .0029907227 .069992069 .0029907227 .09899902 .0029907227 .1309967 .0029907227 .16299439 .0019989014 .19499207 0V.0309906C.16999817 .033996583 .16699219 .050979616 .16699219 .06097412 .16699219 .0639801 .16699219 .07797241 .18199158 .095962528 .20599365 .12695313 .23199463 .15693665 .25698854 .18692017L.33599855 .08596802C.35499574 .0639801 .35499574 .0619812 .35499574 .055984498 .35499574 .04498291 .34498597 .03199768 .32099916 .0309906V0C.36299134 .0019989014 .3869934 .0029907227 .42999269 .0029907227 .42999269 .0029907227 .4889984 .0029907227 .5279999 0Z"/>
<path id="font_7_44" d="M.19599915 .3766632C.19599915 .406662 .17199707 .43066407 .14199829 .43066407 .11199951 .43066407 .08799744 .406662 .08799744 .3766632 .08799744 .34765626 .11199951 .32266236 .14199829 .32266236 .17199707 .32266236 .19599915 .34765626 .19599915 .3766632M.19599915 .053985597C.19599915 .08299255 .17199707 .10798645 .14199829 .10798645 .11199951 .10798645 .08799744 .08299255 .08799744 .053985597 .08799744 .023986817 .11199951 0 .14199829 0 .17199707 0 .19599915 .023986817 .19599915 .053985597Z"/>
<path id="font_1_11" d="M.40899659 .6689453C.38198854 .64193728 .35899354 .62294009 .32798768 .62294009 .30599977 .62294009 .2869873 .63194277 .2559967 .64894106 .24299622 .6559448 .21998596 .6689453 .19599915 .6689453 .15899658 .6689453 .13999939 .64894106 .085998538 .58973696L.10398865 .57273867C.1309967 .5997925 .1539917 .61894229 .18499756 .61894229 .20698548 .61894229 .22599793 .6098633 .25698854 .5927429 .269989 .58573916 .29299928 .57273867 .31698609 .57273867 .35398866 .57273867 .37298585 .5927429 .4269867 .65193179L.40899659 .6689453Z"/>
<path id="font_2_7" d="M.7739868 .67807009C.7769928 .6900635 .7769928 .69207766 .7769928 .69407656 .7769928 .69506838 .776001 .7050781 .7649994 .7050781 .7589874 .7050781 .7559967 .70207217 .7489929 .69407656L.6879883 .6269989C.6839905 .62197878 .6799927 .61798098 .67900088 .61798098 .6779938 .61798098 .6769867 .61898806 .67099 .6259918 .6559906 .6460266 .61099246 .7050781 .5069885 .7050781 .27799989 .7050781 .050994874 .48275758 .050994874 .25442506 .050994874 .0974884 .16299439-.022460938 .33299256-.022460938 .44699098-.022460938 .522995 .026519776 .5499878 .06150818 .55799868 .038513185 .58399966 .0005340576 .59599307 .0005340576 .60398867 .0005340576 .60598757 .0055389406 .61099246 .025527955L.6299896 .102493289C.6369934 .12948609 .6469879 .17045594 .6519928 .1924591 .6649933 .23942566 .6649933 .24142456 .72299197 .24243164 .72698977 .24243164 .73999026 .24342346 .73999026 .260437 .73999026 .26142884 .73999026 .2734375 .7259979 .2734375 .71798709 .2734375 .6799927 .27142335 .6729889 .27043153H.6159973C.59298709 .27043153 .56900027 .27142335 .5469971 .27142335 .522995 .27142335 .49699403 .2734375 .47399903 .2734375 .46499635 .2734375 .45298768 .2734375 .45298768 .25543214 .45298768 .24243164 .46199037 .24243164 .4869995 .24243164 .5089874 .24243164 .5139923 .24243164 .5389862 .24043274 .56599429 .23742676 .57099917 .23443604 .57099917 .22143555 .57099917 .21743775 .57099917 .21543885 .56399539 .1904602 .5569916 .1614685 .54499819 .113479617 .5419922 .10548401 .5079956 .03251648 .41099549 .008529663 .34899903 .008529663 .26098634 .008529663 .14498902 .056503297 .14498902 .22044373 .14498902 .2824402 .1659851 .42967225 .2599945 .54486086 .31900025 .6169739 .41799928 .67407229 .5139923 .67407229 .625 .67407229 .6839905 .5889282 .6839905 .47875978 .6839905 .44470216 .68099978 .43769837 .68099978 .42967225 .68099978 .4186554 .69299319 .4186554 .69599917 .4186554 .70899966 .4186554 .70899966 .42066957 .71398928 .43969728L.7739868 .67807009Z"/>
<path id="font_1_1" d="M.34098817-.23803711C.34098817-.23303223 .33799745-.23002625 .33198548-.22303772 .20298767-.105026248 .1639862 .07498169 .1639862 .24996948 .1639862 .40498353 .19400025 .59298709 .33499146 .72698977 .33898927 .73098757 .34098817 .73399356 .34098817 .7389984 .34098817 .74598696 .33599855 .75 .32899476 .75 .31698609 .75 .22698975 .6779785 .17298889 .568985 .125 .47297669 .100997928 .36997987 .100997928 .25097657 .100997928 .17897034 .10998535 .064971927 .16499329-.053024293 .22399903-.17602539 .31698609-.24902344 .32899476-.24902344 .33599855-.24902344 .34098817-.24502564 .34098817-.23803711Z"/>
<path id="font_1_2" d="M.2979889 .25097657C.2979889 .3329773 .28599549 .4429779 .23399353 .5539856 .1749878 .6769867 .08198547 .75 .069992069 .75 .05999756 .75 .057998659 .74198916 .057998659 .7389984 .057998659 .73399356 .05999756 .73098757 .066986087 .72398379 .125 .6719818 .23498535 .5359802 .23498535 .25097657 .23498535 .10797119 .20899964-.091033939 .06399536-.22602844 .06199646-.22903443 .057998659-.23303223 .057998659-.23803711 .057998659-.24102783 .05999756-.24902344 .069992069-.24902344 .08198547-.24902344 .17199707-.17703247 .22599793-.06802368 .27398683 .02796936 .2979889 .13098145 .2979889 .25097657Z"/>
<path id="font_1_6" d="M.70799258 .3310089C.7220001 .3310089 .7409973 .3310089 .7409973 .35202027 .7409973 .37402345 .71899417 .37402345 .70399478 .37402345H.09399414C.07899475 .37402345 .056991579 .37402345 .056991579 .35202027 .056991579 .3310089 .07699585 .3310089 .08999634 .3310089H.70799258M.70399478 .12695313C.71899417 .12695313 .7409973 .12695313 .7409973 .14894104 .7409973 .1699524 .7220001 .1699524 .70799258 .1699524H.08999634C.07699585 .1699524 .056991579 .1699524 .056991579 .14894104 .056991579 .12695313 .07899475 .12695313 .09399414 .12695313H.70399478Z"/>
<path id="font_3_2" d="M.5379944 .18702698H.5009918C.49899293 .17301941 .4889984 .10699463 .47399903 .09599304 .46699525 .08999634 .38598634 .08999634 .37199403 .08999634H.18499756L.31298829 .19403076C.34700013 .22103882 .43598939 .28504945 .46699525 .31506349 .49699403 .3450775 .5379944 .39608766 .5379944 .46710206 .5379944 .5920563 .4249878 .66503909 .29100038 .66503909 .1619873 .66503909 .07199097 .58006289 .07199097 .48609925 .07199097 .43510438 .114990238 .42910768 .12599182 .42910768 .15098572 .42910768 .17999268 .44709779 .17999268 .48310853 .17999268 .50509646 .16699219 .5371094 .12298584 .5371094 .1459961 .5880585 .20698548 .6260376 .27598573 .6260376 .3809967 .6260376 .43699647 .5480957 .43699647 .46710206 .43699647 .39608766 .3899994 .32305909 .31999208 .25904847L.08299255 .041992189C.07299805 .03199768 .07199097 .0309906 .07199097 0H.5069885L.5379944 .18702698Z"/>
<path id="font_2_1" d="M.30799867 .22583008C.32499696 .22583008 .34098817 .22583008 .34098817 .24282837 .34098817 .25683595 .32899476 .25683595 .31098939 .25683595H.14498902C.17098999 .34472657 .22999573 .3996582 .31999208 .3996582H.35198976C.36799623 .3996582 .3849945 .3996582 .3849945 .4156494 .3849945 .43066407 .37298585 .43066407 .35398866 .43066407H.31698609C.19299317 .43066407 .04899597 .33972169 .04899597 .18092346 .04899597 .05517578 .13899231-.0107421879 .23599243-.0107421879 .30299378-.0107421879 .37199403 .029220581 .37199403 .04219055 .37199403 .0501709 .36698915 .058166505 .3600006 .058166505 .35598756 .058166505 .35499574 .057159425 .34899903 .05317688 .31599427 .031219483 .2769928 .014251709 .23799134 .014251709 .17799378 .014251709 .12599182 .057159425 .12599182 .14399719 .12599182 .15995789 .1289978 .19090271 .13699341 .22583008H.30799867Z"/>
</defs>
<path transform="matrix(1,0,0,-1,164.27405,135.93239)" stroke-width=".79701" stroke-linecap="butt" stroke-miterlimit="10" stroke-linejoin="miter" fill="none" stroke="#000000" d="M-155.90744 0H149.73052"/>
<path transform="matrix(1,0,0,-1,314.00459,135.93239)" d="M4.53381 0C3.97704 .13808 1.52963 .92049 0 1.77196V-1.77196C1.52963-.92049 3.97704-.13808 4.53381 0Z"/>
<path transform="matrix(1,0,0,-1,314.00459,135.93239)" stroke-width=".79701" stroke-linecap="butt" stroke-miterlimit="10" stroke-linejoin="miter" fill="none" stroke="#000000" d="M4.53381 0C3.97704 .13808 1.52963 .92049 0 1.77196V-1.77196C1.52963-.92049 3.97704-.13808 4.53381 0Z"/>
<use data-text="R" xlink:href="#font_1_8" transform="matrix(8.966376,0,0,-8.966376,323.90058,139.76303)"/>
<use data-text="e" xlink:href="#font_1_9" transform="matrix(8.966376,0,0,-8.966376,330.67915,139.76303)"/>
<use data-text="k" xlink:href="#font_2_9" transform="matrix(8.966376,0,0,-8.966376,336.31849,139.76303)"/>
<use data-text="0" xlink:href="#font_3_1" transform="matrix(5.977584,0,0,-5.977584,341.37934,135.95404)"/>
<path transform="matrix(1,0,0,-1,164.27405,135.93239)" stroke-width=".79701" stroke-linecap="butt" stroke-miterlimit="10" stroke-linejoin="miter" fill="none" stroke="#000000" d="M0-68.03217V61.85522"/>
<path transform="matrix(0,-1,-1,-0,164.27405,74.07716)" d="M4.53381 0C3.97704 .13808 1.52963 .92049 0 1.77196V-1.77196C1.52963-.92049 3.97704-.13808 4.53381 0Z"/>
<path transform="matrix(0,-1,-1,-0,164.27405,74.07716)" stroke-width=".79701" stroke-linecap="butt" stroke-miterlimit="10" stroke-linejoin="miter" fill="none" stroke="#000000" d="M4.53381 0C3.97704 .13808 1.52963 .92049 0 1.77196V-1.77196C1.52963-.92049 3.97704-.13808 4.53381 0Z"/>
<use data-text="I" xlink:href="#font_1_7" transform="matrix(8.966376,0,0,-8.966376,153.39708,64.18115)"/>
<use data-text="m" xlink:href="#font_1_10" transform="matrix(8.966376,0,0,-8.966376,156.71463,64.18115)"/>
<use data-text="k" xlink:href="#font_2_9" transform="matrix(8.966376,0,0,-8.966376,165.93885,64.18115)"/>
<use data-text="0" xlink:href="#font_3_1" transform="matrix(5.977584,0,0,-5.977584,170.9997,60.372148)"/>
<use data-text="0" xlink:href="#font_1_4" transform="matrix(8.966376,0,0,-8.966376,156.14649,145.23059)"/>
<path transform="matrix(1,0,0,-1,164.27405,135.93239)" stroke-width=".79701" stroke-linecap="butt" stroke-miterlimit="10" stroke-linejoin="miter" fill="none" stroke="#000000" d="M-85.04042 3.40146V-3.40146"/>
<use data-text="&#x2212;" xlink:href="#font_4_1" transform="matrix(8.966376,0,0,-8.966376,70.3492,150.35894)"/>
<use data-text="&#x03c9;" xlink:href="#font_2_2" transform="matrix(8.966376,0,0,-8.966376,77.516719,150.35894)"/>
<use data-text="k" xlink:href="#font_5_1" transform="matrix(5.977584,0,0,-5.977584,83.25004,151.42165)"/>
<path transform="matrix(1,0,0,-1,164.27405,135.93239)" stroke-width=".79701" stroke-linecap="butt" stroke-miterlimit="10" stroke-linejoin="miter" fill="none" stroke="#000000" d="M85.04042 3.40146V-3.40146"/>
<use data-text="+" xlink:href="#font_1_3" transform="matrix(8.966376,0,0,-8.966376,240.43006,150.35894)"/>
<use data-text="&#x03c9;" xlink:href="#font_2_2" transform="matrix(8.966376,0,0,-8.966376,247.59757,150.35894)"/>
<use data-text="k" xlink:href="#font_5_1" transform="matrix(5.977584,0,0,-5.977584,253.33089,151.42165)"/>
<path transform="matrix(1,0,0,-1,164.27405,135.93239)" stroke-width=".79701" stroke-linecap="butt" stroke-dasharray="2.98883,2.98883" stroke-miterlimit="10" stroke-linejoin="miter" fill="none" stroke="#0000b3" d="M-147.40332 5.1022H147.40332"/>
<use data-text="C" xlink:href="#font_2_6" transform="matrix(8.966376,0,0,-8.966376,315.1972,133.07631)" fill="#0000b3"/>
<use data-text="R" xlink:href="#font_6_3" transform="matrix(5.977584,0,0,-5.977584,321.77513,134.0726)" fill="#0000b3"/>
<use data-text="(" xlink:href="#font_7_85" transform="matrix(8.966376,0,0,-8.966376,330.88279,133.07631)" fill="#0000b3"/>
<use data-text="r" xlink:href="#font_7_96" transform="matrix(8.966376,0,0,-8.966376,334.46934,133.07631)" fill="#0000b3"/>
<use data-text="e" xlink:href="#font_7_50" transform="matrix(8.966376,0,0,-8.966376,338.07383,133.07631)" fill="#0000b3"/>
<use data-text="t" xlink:href="#font_7_105" transform="matrix(8.966376,0,0,-8.966376,342.17146,133.07631)" fill="#0000b3"/>
<use data-text="a" xlink:href="#font_7_28" transform="matrix(8.966376,0,0,-8.966376,345.758,133.07631)" fill="#0000b3"/>
<use data-text="r" xlink:href="#font_7_96" transform="matrix(8.966376,0,0,-8.966376,350.3667,133.07631)" fill="#0000b3"/>
<use data-text="d" xlink:href="#font_7_47" transform="matrix(8.966376,0,0,-8.966376,353.9712,133.07631)" fill="#0000b3"/>
<use data-text="e" xlink:href="#font_7_50" transform="matrix(8.966376,0,0,-8.966376,359.091,133.07631)" fill="#0000b3"/>
<use data-text="d" xlink:href="#font_7_47" transform="matrix(8.966376,0,0,-8.966376,363.18864,133.07631)" fill="#0000b3"/>
<use data-text=")" xlink:href="#font_7_86" transform="matrix(8.966376,0,0,-8.966376,368.3084,133.07631)" fill="#0000b3"/>
<path transform="matrix(1,0,0,-1,164.27405,135.93239)" stroke-width=".79701" stroke-linecap="butt" stroke-dasharray="2.98883,1.99255,.79701,1.99255" stroke-miterlimit="10" stroke-linejoin="miter" fill="none" stroke="#d96c00" d="M-147.40332-5.1022H147.40332"/>
<use data-text="C" xlink:href="#font_2_6" transform="matrix(8.966376,0,0,-8.966376,315.1972,143.28072)" fill="#d96c00"/>
<use data-text="A" xlink:href="#font_6_1" transform="matrix(5.977584,0,0,-5.977584,321.77513,144.27701)" fill="#d96c00"/>
<use data-text="(" xlink:href="#font_7_85" transform="matrix(8.966376,0,0,-8.966376,330.8724,143.28072)" fill="#d96c00"/>
<use data-text="a" xlink:href="#font_7_28" transform="matrix(8.966376,0,0,-8.966376,334.45896,143.28072)" fill="#d96c00"/>
<use data-text="d" xlink:href="#font_7_47" transform="matrix(8.966376,0,0,-8.966376,339.0677,143.28072)" fill="#d96c00"/>
<use data-text="v" xlink:href="#font_7_112" transform="matrix(8.966376,0,0,-8.966376,344.1875,143.28072)" fill="#d96c00"/>
<use data-text="a" xlink:href="#font_7_28" transform="matrix(8.966376,0,0,-8.966376,348.54518,143.28072)" fill="#d96c00"/>
<use data-text="n" xlink:href="#font_7_77" transform="matrix(8.966376,0,0,-8.966376,353.15388,143.28072)" fill="#d96c00"/>
<use data-text="c" xlink:href="#font_7_43" transform="matrix(8.966376,0,0,-8.966376,358.27369,143.28072)" fill="#d96c00"/>
<use data-text="e" xlink:href="#font_7_50" transform="matrix(8.966376,0,0,-8.966376,362.3713,143.28072)" fill="#d96c00"/>
<use data-text="d" xlink:href="#font_7_47" transform="matrix(8.966376,0,0,-8.966376,366.46894,143.28072)" fill="#d96c00"/>
<use data-text=")" xlink:href="#font_7_86" transform="matrix(8.966376,0,0,-8.966376,371.58876,143.28072)" fill="#d96c00"/>
<path transform="matrix(1,0,0,-1,164.27405,135.93239)" stroke-width="1.19553" stroke-linecap="butt" stroke-miterlimit="10" stroke-linejoin="miter" fill="none" stroke="#b30000" d="M-147.40332 0H-100.63126C-100.63126-8.61067-93.6511-15.59082-85.04042-15.59082-76.42975-15.59082-69.44958-8.61067-69.44958 0H69.44957C69.44957 8.61067 76.42973 15.59082 85.0404 15.59082 93.65108 15.59082 100.63124 8.61067 100.63124 0H147.40332"/>
<use data-text="C" xlink:href="#font_2_6" transform="matrix(8.966376,0,0,-8.966376,315.1972,122.58769)" fill="#b30000"/>
<use data-text="F" xlink:href="#font_6_2" transform="matrix(5.977584,0,0,-5.977584,321.77513,123.583988)" fill="#b30000"/>
<use data-text="(" xlink:href="#font_7_85" transform="matrix(8.966376,0,0,-8.966376,330.94993,122.58769)" fill="#b30000"/>
<use data-text="F" xlink:href="#font_7_54" transform="matrix(8.966376,0,0,-8.966376,334.53648,122.58769)" fill="#b30000"/>
<use data-text="e" xlink:href="#font_7_50" transform="matrix(8.966376,0,0,-8.966376,339.79078,122.58769)" fill="#b30000"/>
<use data-text="y" xlink:href="#font_7_118" transform="matrix(8.966376,0,0,-8.966376,343.8884,122.58769)" fill="#b30000"/>
<use data-text="n" xlink:href="#font_7_77" transform="matrix(8.966376,0,0,-8.966376,348.74818,122.58769)" fill="#b30000"/>
<use data-text="m" xlink:href="#font_7_75" transform="matrix(8.966376,0,0,-8.966376,353.86799,122.58769)" fill="#b30000"/>
<use data-text="a" xlink:href="#font_7_28" transform="matrix(8.966376,0,0,-8.966376,361.5432,122.58769)" fill="#b30000"/>
<use data-text="n" xlink:href="#font_7_77" transform="matrix(8.966376,0,0,-8.966376,366.15193,122.58769)" fill="#b30000"/>
<use data-text=")" xlink:href="#font_7_86" transform="matrix(8.966376,0,0,-8.966376,371.27174,122.58769)" fill="#b30000"/>
<path transform="matrix(1,0,0,-1,164.27405,135.93239)" stroke-width="1.19553" stroke-linecap="butt" stroke-miterlimit="10" stroke-linejoin="miter" fill="none" stroke="#b30000" d="M-45.35506 0H-47.4563"/>
<path transform="matrix(1,0,0,-1,116.81775,135.93239)" d="M5.30629 0C4.65466 .16344 1.79025 1.08963 0 2.09753V-2.09753C1.79025-1.08963 4.65466-.16344 5.30629 0Z" fill="#b30000"/>
<path transform="matrix(1,0,0,-1,116.81775,135.93239)" stroke-width="1.19553" stroke-linecap="butt" stroke-miterlimit="10" stroke-linejoin="miter" fill="none" stroke="#b30000" d="M5.30629 0C4.65466 .16344 1.79025 1.08963 0 2.09753V-2.09753C1.79025-1.08963 4.65466-.16344 5.30629 0Z"/>
<path transform="matrix(1,0,0,-1,164.27405,135.93239)" stroke-width="1.19553" stroke-linecap="butt" stroke-miterlimit="10" stroke-linejoin="miter" fill="none" stroke="#b30000" d="M39.68535 0H37.5841"/>
<path transform="matrix(1,0,0,-1,201.85816,135.93239)" d="M5.30629 0C4.65466 .16344 1.79025 1.08963 0 2.09753V-2.09753C1.79025-1.08963 4.65466-.16344 5.30629 0Z" fill="#b30000"/>
<path transform="matrix(1,0,0,-1,201.85816,135.93239)" stroke-width="1.19553" stroke-linecap="butt" stroke-miterlimit="10" stroke-linejoin="miter" fill="none" stroke="#b30000" d="M5.30629 0C4.65466 .16344 1.79025 1.08963 0 2.09753V-2.09753C1.79025-1.08963 4.65466-.16344 5.30629 0Z"/>
<path transform="matrix(1,0,0,-1,164.27405,135.93239)" d="M-83.04787 12.75595C-83.04787 13.85643-83.93996 14.7485-85.04042 14.7485-86.1409 14.7485-87.03297 13.85643-87.03297 12.75595-87.03297 11.65549-86.1409 10.7634-85.04042 10.7634-83.93996 10.7634-83.04787 11.65549-83.04787 12.75595ZM-85.04042 12.75595"/>
<path transform="matrix(1,0,0,-1,164.27405,135.93239)" stroke-width=".3985" stroke-linecap="butt" stroke-miterlimit="10" stroke-linejoin="miter" fill="none" stroke="#000000" d="M-83.04787 12.75595C-83.04787 13.85643-83.93996 14.7485-85.04042 14.7485-86.1409 14.7485-87.03297 13.85643-87.03297 12.75595-87.03297 11.65549-86.1409 10.7634-85.04042 10.7634-83.93996 10.7634-83.04787 11.65549-83.04787 12.75595ZM-85.04042 12.75595"/>
<use data-text="&#x2212;" xlink:href="#font_4_1" transform="matrix(8.966376,0,0,-8.966376,82.75345,118.59389)"/>
<use data-text="&#x03c9;" xlink:href="#font_2_2" transform="matrix(8.966376,0,0,-8.966376,89.92097,118.59389)"/>
<use data-text="k" xlink:href="#font_5_1" transform="matrix(5.977584,0,0,-5.977584,95.65429,119.6566)"/>
<use data-text="+" xlink:href="#font_1_3" transform="matrix(8.966376,0,0,-8.966376,102.56998,118.59389)"/>
<use data-text="i" xlink:href="#font_2_8" transform="matrix(8.966376,0,0,-8.966376,111.785358,118.59389)"/>
<use data-text="&#x03b5;" xlink:href="#font_2_3" transform="matrix(8.966376,0,0,-8.966376,114.932559,118.59389)"/>
<use data-text="&#x2032;" xlink:href="#font_8_1" transform="matrix(5.977584,0,0,-5.977584,119.21674,114.78489)"/>
<path transform="matrix(1,0,0,-1,164.27405,135.93239)" d="M87.03297-12.75595C87.03297-11.65549 86.1409-10.7634 85.04042-10.7634 83.93996-10.7634 83.04787-11.65549 83.04787-12.75595 83.04787-13.85643 83.93996-14.7485 85.04042-14.7485 86.1409-14.7485 87.03297-13.85643 87.03297-12.75595ZM85.04042-12.75595"/>
<path transform="matrix(1,0,0,-1,164.27405,135.93239)" stroke-width=".3985" stroke-linecap="butt" stroke-miterlimit="10" stroke-linejoin="miter" fill="none" stroke="#000000" d="M87.03297-12.75595C87.03297-11.65549 86.1409-10.7634 85.04042-10.7634 83.93996-10.7634 83.04787-11.65549 83.04787-12.75595 83.04787-13.85643 83.93996-14.7485 85.04042-14.7485 86.1409-14.7485 87.03297-13.85643 87.03297-12.75595ZM85.04042-12.75595"/>
<use data-text="+" xlink:href="#font_1_3" transform="matrix(8.966376,0,0,-8.966376,206.64652,159.33815)"/>
<use data-text="&#x03c9;" xlink:href="#font_2_2" transform="matrix(8.966376,0,0,-8.966376,213.81404,159.33815)"/>
<use data-text="k" xlink:href="#font_5_1" transform="matrix(5.977584,0,0,-5.977584,219.54737,160.40087)"/>
<use data-text="&#x2212;" xlink:href="#font_4_1" transform="matrix(8.966376,0,0,-8.966376,226.46305,159.33815)"/>
<use data-text="i" xlink:href="#font_2_8" transform="matrix(8.966376,0,0,-8.966376,235.67844,159.33815)"/>
<use data-text="&#x03b5;" xlink:href="#font_2_3" transform="matrix(8.966376,0,0,-8.966376,238.82563,159.33815)"/>
<use data-text="&#x2032;" xlink:href="#font_8_1" transform="matrix(5.977584,0,0,-5.977584,243.10982,155.52915)"/>
<path transform="matrix(1,0,0,-1,164.27405,135.93239)" stroke-width="1.19553" stroke-linecap="butt" stroke-miterlimit="10" stroke-linejoin="miter" fill="none" stroke="#000000" d="M-88.4419 16.15744-81.63893 9.35448"/>
<path transform="matrix(1,0,0,-1,164.27405,135.93239)" stroke-width="1.19553" stroke-linecap="butt" stroke-miterlimit="10" stroke-linejoin="miter" fill="none" stroke="#000000" d="M-88.4419 9.35448-81.63893 16.15744"/>
<path transform="matrix(1,0,0,-1,164.27405,135.93239)" stroke-width="1.19553" stroke-linecap="butt" stroke-miterlimit="10" stroke-linejoin="miter" fill="none" stroke="#000000" d="M81.63893-9.35448 88.4419-16.15744"/>
<path transform="matrix(1,0,0,-1,164.27405,135.93239)" stroke-width="1.19553" stroke-linecap="butt" stroke-miterlimit="10" stroke-linejoin="miter" fill="none" stroke="#000000" d="M81.63893-16.15744 88.4419-9.35448"/>
<path transform="matrix(1,0,0,-1,164.27405,135.93239)" stroke-width=".79701" stroke-linecap="butt" stroke-dasharray="2.98883,2.98883" stroke-miterlimit="10" stroke-linejoin="miter" fill="none" stroke="#a6a6a6" d="M-127.56062 0C-127.56062-70.45068-70.45068-127.56062 0-127.56062 70.45068-127.56062 127.56062-70.45068 127.56062 0"/>
<use data-text="t" xlink:href="#font_2_10" transform="matrix(8.966376,0,0,-8.966376,119.43097,196.97559)" fill="#404040"/>
<use data-text="&#x003e;" xlink:href="#font_2_5" transform="matrix(8.966376,0,0,-8.966376,125.31291,196.97559)" fill="#404040"/>
<use data-text="0" xlink:href="#font_1_4" transform="matrix(8.966376,0,0,-8.966376,135.04593,196.97559)" fill="#404040"/>
<use data-text=":" xlink:href="#font_1_5" transform="matrix(8.966376,0,0,-8.966376,142.2011,196.97559)" fill="#404040"/>
<use data-text="c" xlink:href="#font_7_43" transform="matrix(8.966376,0,0,-8.966376,147.84874,196.97559)" fill="#404040"/>
<use data-text="l" xlink:href="#font_7_72" transform="matrix(8.966376,0,0,-8.966376,151.94638,196.97559)" fill="#404040"/>
<use data-text="o" xlink:href="#font_7_81" transform="matrix(8.966376,0,0,-8.966376,154.51076,196.97559)" fill="#404040"/>
<use data-text="s" xlink:href="#font_7_98" transform="matrix(8.966376,0,0,-8.966376,159.11948,196.97559)" fill="#404040"/>
<use data-text="e" xlink:href="#font_7_50" transform="matrix(8.966376,0,0,-8.966376,162.75086,196.97559)" fill="#404040"/>
<use data-text="l" xlink:href="#font_7_72" transform="matrix(8.966376,0,0,-8.966376,169.92395,196.97559)" fill="#404040"/>
<use data-text="o" xlink:href="#font_7_81" transform="matrix(8.966376,0,0,-8.966376,172.48834,196.97559)" fill="#404040"/>
<use data-text="w" xlink:href="#font_7_114" transform="matrix(8.966376,0,0,-8.966376,176.84601,196.97559)" fill="#404040"/>
<use data-text="e" xlink:href="#font_7_50" transform="matrix(8.966376,0,0,-8.966376,183.23902,196.97559)" fill="#404040"/>
<use data-text="r" xlink:href="#font_7_96" transform="matrix(8.966376,0,0,-8.966376,187.33667,196.97559)" fill="#404040"/>
<use data-text="h" xlink:href="#font_7_63" transform="matrix(8.966376,0,0,-8.966376,194.00763,196.97559)" fill="#404040"/>
<use data-text="a" xlink:href="#font_7_28" transform="matrix(8.966376,0,0,-8.966376,199.12744,196.97559)" fill="#404040"/>
<use data-text="l" xlink:href="#font_7_72" transform="matrix(8.966376,0,0,-8.966376,203.73615,196.97559)" fill="#404040"/>
<use data-text="f" xlink:href="#font_7_55" transform="matrix(8.966376,0,0,-8.966376,206.30054,196.97559)" fill="#404040"/>
<path transform="matrix(1,0,0,-1,164.27405,135.93239)" stroke-width=".79701" stroke-linecap="butt" stroke-dasharray="2.98883,2.98883" stroke-miterlimit="10" stroke-linejoin="miter" fill="none" stroke="#a6a6a6" d="M-127.56062 0C-127.56062 70.45068-70.45068 127.56062 0 127.56062 70.45068 127.56062 127.56062 70.45068 127.56062 0"/>
<use data-text="t" xlink:href="#font_2_10" transform="matrix(8.966376,0,0,-8.966376,118.27429,80.11231)" fill="#404040"/>
<use data-text="&#x003c;" xlink:href="#font_2_4" transform="matrix(8.966376,0,0,-8.966376,124.156238,80.11231)" fill="#404040"/>
<use data-text="0" xlink:href="#font_1_4" transform="matrix(8.966376,0,0,-8.966376,133.88924,80.11231)" fill="#404040"/>
<use data-text=":" xlink:href="#font_1_5" transform="matrix(8.966376,0,0,-8.966376,141.04442,80.11231)" fill="#404040"/>
<use data-text="c" xlink:href="#font_7_43" transform="matrix(8.966376,0,0,-8.966376,146.69207,80.11231)" fill="#404040"/>
<use data-text="l" xlink:href="#font_7_72" transform="matrix(8.966376,0,0,-8.966376,150.78969,80.11231)" fill="#404040"/>
<use data-text="o" xlink:href="#font_7_81" transform="matrix(8.966376,0,0,-8.966376,153.35408,80.11231)" fill="#404040"/>
<use data-text="s" xlink:href="#font_7_98" transform="matrix(8.966376,0,0,-8.966376,157.96279,80.11231)" fill="#404040"/>
<use data-text="e" xlink:href="#font_7_50" transform="matrix(8.966376,0,0,-8.966376,161.59416,80.11231)" fill="#404040"/>
<use data-text="u" xlink:href="#font_7_109" transform="matrix(8.966376,0,0,-8.966376,168.76728,80.11231)" fill="#404040"/>
<use data-text="p" xlink:href="#font_7_84" transform="matrix(8.966376,0,0,-8.966376,173.88707,80.11231)" fill="#404040"/>
<use data-text="p" xlink:href="#font_7_84" transform="matrix(8.966376,0,0,-8.966376,179.00687,80.11231)" fill="#404040"/>
<use data-text="e" xlink:href="#font_7_50" transform="matrix(8.966376,0,0,-8.966376,184.38669,80.11231)" fill="#404040"/>
<use data-text="r" xlink:href="#font_7_96" transform="matrix(8.966376,0,0,-8.966376,188.48433,80.11231)" fill="#404040"/>
<use data-text="h" xlink:href="#font_7_63" transform="matrix(8.966376,0,0,-8.966376,195.16428,80.11231)" fill="#404040"/>
<use data-text="a" xlink:href="#font_7_28" transform="matrix(8.966376,0,0,-8.966376,200.28408,80.11231)" fill="#404040"/>
<use data-text="l" xlink:href="#font_7_72" transform="matrix(8.966376,0,0,-8.966376,204.89279,80.11231)" fill="#404040"/>
<use data-text="f" xlink:href="#font_7_55" transform="matrix(8.966376,0,0,-8.966376,207.45717,80.11231)" fill="#404040"/>
<path transform="matrix(1,0,0,-1,164.27405,135.93239)" stroke-width=".79701" stroke-linecap="butt" stroke-miterlimit="10" stroke-linejoin="miter" fill="none" stroke="#4c4d4c" d="M124.72578-14.17339C121.49277-32.50867 114.27155-49.93694 107.13597-60.12906"/>
<path transform="matrix(-.5735,.81918,.81918,.5735,271.41004,196.06145)" d="M4.53381 0C3.97704 .13808 1.52963 .92049 0 1.77196V-1.77196C1.52963-.92049 3.97704-.13808 4.53381 0Z" fill="#4c4d4c"/>
<path transform="matrix(-.5735,.81918,.81918,.5735,271.41004,196.06145)" stroke-width=".79701" stroke-linecap="butt" stroke-miterlimit="10" stroke-linejoin="miter" fill="none" stroke="#4c4d4c" d="M4.53381 0C3.97704 .13808 1.52963 .92049 0 1.77196V-1.77196C1.52963-.92049 3.97704-.13808 4.53381 0Z"/>
<path transform="matrix(1,0,0,-1,164.27405,135.93239)" stroke-width=".79701" stroke-linecap="butt" stroke-miterlimit="10" stroke-linejoin="miter" fill="none" stroke="#4c4d4c" d="M-124.72578 14.17339C-121.49277 32.50867-114.27155 49.93694-107.13597 60.12906"/>
<path transform="matrix(.5735,-.81918,-.81918,-.5735,57.13806,75.80333)" d="M4.53381 0C3.97704 .13808 1.52963 .92049 0 1.77196V-1.77196C1.52963-.92049 3.97704-.13808 4.53381 0Z" fill="#4c4d4c"/>
<path transform="matrix(.5735,-.81918,-.81918,-.5735,57.13806,75.80333)" stroke-width=".79701" stroke-linecap="butt" stroke-miterlimit="10" stroke-linejoin="miter" fill="none" stroke="#4c4d4c" d="M4.53381 0C3.97704 .13808 1.52963 .92049 0 1.77196V-1.77196C1.52963-.92049 3.97704-.13808 4.53381 0Z"/>
<use data-text="C" xlink:href="#font_7_42" transform="matrix(8.966376,0,0,-8.966376,32.8936,57.13904)"/>
<use data-text="o" xlink:href="#font_7_81" transform="matrix(8.966376,0,0,-8.966376,39.546655,57.13904)"/>
<use data-text="m" xlink:href="#font_7_75" transform="matrix(8.966376,0,0,-8.966376,44.155374,57.13904)"/>
<use data-text="p" xlink:href="#font_7_84" transform="matrix(8.966376,0,0,-8.966376,51.83059,57.13904)"/>
<use data-text="l" xlink:href="#font_7_72" transform="matrix(8.966376,0,0,-8.966376,56.950395,57.13904)"/>
<use data-text="e" xlink:href="#font_7_50" transform="matrix(8.966376,0,0,-8.966376,59.51478,57.13904)"/>
<use data-text="x" xlink:href="#font_7_116" transform="matrix(8.966376,0,0,-8.966376,63.61241,57.13904)"/>
<use data-text="k" xlink:href="#font_2_9" transform="matrix(8.966376,0,0,-8.966376,71.54766,57.13904)"/>
<use data-text="0" xlink:href="#font_3_1" transform="matrix(5.977584,0,0,-5.977584,76.60853,53.33004)"/>
<use data-text="p" xlink:href="#font_7_84" transform="matrix(8.966376,0,0,-8.966376,83.835048,57.139039)"/>
<use data-text="l" xlink:href="#font_7_72" transform="matrix(8.966376,0,0,-8.966376,88.95484,57.139039)"/>
<use data-text="a" xlink:href="#font_7_28" transform="matrix(8.966376,0,0,-8.966376,91.51922,57.139039)"/>
<use data-text="n" xlink:href="#font_7_77" transform="matrix(8.966376,0,0,-8.966376,96.12794,57.139039)"/>
<use data-text="e" xlink:href="#font_7_50" transform="matrix(8.966376,0,0,-8.966376,101.247737,57.139039)"/>
<use data-text=":" xlink:href="#font_7_44" transform="matrix(8.966376,0,0,-8.966376,105.345378,57.139039)"/>
<use data-text="p" xlink:href="#font_7_84" transform="matrix(8.966376,0,0,-8.966376,112.00739,57.139039)"/>
<use data-text="o" xlink:href="#font_7_81" transform="matrix(8.966376,0,0,-8.966376,117.387218,57.139039)"/>
<use data-text="l" xlink:href="#font_7_72" transform="matrix(8.966376,0,0,-8.966376,121.99593,57.139039)"/>
<use data-text="e" xlink:href="#font_7_50" transform="matrix(8.966376,0,0,-8.966376,124.56031,57.139039)"/>
<use data-text="s" xlink:href="#font_7_98" transform="matrix(8.966376,0,0,-8.966376,128.65796,57.139039)"/>
<use data-text="a" xlink:href="#font_7_28" transform="matrix(8.966376,0,0,-8.966376,135.3648,57.139039)"/>
<use data-text="n" xlink:href="#font_7_77" transform="matrix(8.966376,0,0,-8.966376,139.97351,57.139039)"/>
<use data-text="d" xlink:href="#font_7_47" transform="matrix(8.966376,0,0,-8.966376,145.09333,57.139039)"/>
<use data-text="c" xlink:href="#font_7_43" transform="matrix(8.966376,0,0,-8.966376,153.28858,57.139039)"/>
<use data-text="o" xlink:href="#font_7_81" transform="matrix(8.966376,0,0,-8.966376,157.38623,57.139039)"/>
<use data-text="n" xlink:href="#font_7_77" transform="matrix(8.966376,0,0,-8.966376,161.99494,57.139039)"/>
<use data-text="t" xlink:href="#font_7_105" transform="matrix(8.966376,0,0,-8.966376,166.86368,57.139039)"/>
<use data-text="o" xlink:href="#font_7_81" transform="matrix(8.966376,0,0,-8.966376,170.45023,57.139039)"/>
<use data-text="u" xlink:href="#font_7_109" transform="matrix(8.966376,0,0,-8.966376,175.05896,57.139039)"/>
<use data-text="r" xlink:href="#font_7_96" transform="matrix(8.966376,0,0,-8.966376,180.17874,57.139039)"/>
<use data-text="s" xlink:href="#font_7_98" transform="matrix(8.966376,0,0,-8.966376,183.78324,57.139039)"/>
<use data-text="o" xlink:href="#font_7_81" transform="matrix(8.966376,0,0,-8.966376,190.48111,57.139039)"/>
<use data-text="f" xlink:href="#font_7_55" transform="matrix(8.966376,0,0,-8.966376,195.08982,57.139039)"/>
<use data-text="&#x02dc;" xlink:href="#font_1_11" transform="matrix(8.966376,0,0,-8.966376,203.05579,54.872549)"/>
<use data-text="G" xlink:href="#font_2_7" transform="matrix(8.966376,0,0,-8.966376,200.98377,57.139039)"/>
<use data-text="(" xlink:href="#font_1_1" transform="matrix(8.966376,0,0,-8.966376,208.19959,57.139039)"/>
<use data-text="k" xlink:href="#font_2_9" transform="matrix(8.966376,0,0,-8.966376,211.78336,57.139039)"/>
<use data-text=")" xlink:href="#font_1_2" transform="matrix(8.966376,0,0,-8.966376,216.84421,57.139039)"/>
<use data-text="=" xlink:href="#font_1_6" transform="matrix(8.966376,0,0,-8.966376,222.9772,57.139039)"/>
<use data-text="i" xlink:href="#font_2_8" transform="matrix(8.966376,0,0,-8.966376,262.60649,51.340139)"/>
<path transform="matrix(1,0,0,-1,-59.38044,-6.788559)" stroke-width=".378585" stroke-linecap="butt" stroke-miterlimit="10" stroke-linejoin="miter" fill="none" stroke="#000000" d="M293.29109-61.68601H353.83607"/>
<use data-text="(" xlink:href="#font_1_1" transform="matrix(8.966376,0,0,-8.966376,233.91065,63.220239)"/>
<use data-text="k" xlink:href="#font_2_9" transform="matrix(8.966376,0,0,-8.966376,237.49442,63.220239)"/>
<use data-text="0" xlink:href="#font_3_1" transform="matrix(5.977584,0,0,-5.977584,242.55527,60.64656)"/>
<use data-text=")" xlink:href="#font_1_2" transform="matrix(8.966376,0,0,-8.966376,246.7063,63.220239)"/>
<use data-text="2" xlink:href="#font_3_2" transform="matrix(5.977584,0,0,-5.977584,250.29007,60.64656)"/>
<use data-text="&#x2212;" xlink:href="#font_4_1" transform="matrix(8.966376,0,0,-8.966376,256.48899,63.220239)"/>
<use data-text="&#x03c9;" xlink:href="#font_2_2" transform="matrix(8.966376,0,0,-8.966376,265.70439,63.220239)"/>
<use data-text="2" xlink:href="#font_3_2" transform="matrix(5.977584,0,0,-5.977584,271.7594,60.13185)"/>
<use data-text="k" xlink:href="#font_5_1" transform="matrix(5.977584,0,0,-5.977584,271.4377,65.7973)"/>
<use data-text="+" xlink:href="#font_1_3" transform="matrix(8.966376,0,0,-8.966376,278.3534,63.220254)"/>
<use data-text="i" xlink:href="#font_2_8" transform="matrix(8.966376,0,0,-8.966376,287.5688,63.220254)"/>
<use data-text="&#x03f5;" xlink:href="#font_2_1" transform="matrix(8.966376,0,0,-8.966376,290.71598,63.220254)"/>
</svg>
