<svg xmlns="http://www.w3.org/2000/svg" xmlns:xlink="http://www.w3.org/1999/xlink" xmlns:inkscape="http://www.inkscape.org/namespaces/inkscape" version="1.1" width="250.93" height="137.65" viewBox="0 0 250.93 137.65">
<defs>
<path id="font_1_3" d="M.13699341 .22949219C.19799805 .22949219 .2630005 .22949219 .31599427 .24247742 .4099884 .2654724 .4269867 .32144166 .4269867 .35542298 .4269867 .41238404 .37399293 .4423828 .31498719 .4423828 .19898987 .4423828 .04699707 .3444214 .04699707 .17242432 .04699707 .077316287 .102996829-.0107421879 .21099854-.0107421879 .36099244-.0107421879 .44499208 .09333801 .44499208 .10635376 .44499208 .112350467 .43798829 .12036133 .43099977 .12036133 .42599488 .12036133 .4249878 .11936951 .41600038 .10835266 .35598756 .03427124 .2649994 .014251709 .21299744 .014251709 .14199829 .014251709 .12298584 .081329349 .12298584 .13137818 .12298584 .13337708 .12298584 .16841126 .13699341 .22949219M.14399719 .25448609C.18798828 .41238404 .29899598 .41737367 .31498719 .41737367 .34899903 .41737367 .3899994 .40138246 .3899994 .35542298 .3899994 .25448609 .23899842 .25448609 .14399719 .25448609Z"/>
<path id="font_2_1" d="M.79599 .22436524C.81199648 .22436524 .83699038 .22436524 .83699038 .2503662 .83699038 .2763672 .81199648 .2763672 .79599 .2763672H.1659851C.1499939 .2763672 .125 .2763672 .125 .2503662 .125 .22436524 .1499939 .22436524 .1659851 .22436524H.79599Z"/>
<path id="font_3_1" d="M.49299623 .22436524H.81599429C.8299866 .22436524 .8549957 .22436524 .8549957 .2503662 .8549957 .2763672 .8299866 .2763672 .81599429 .2763672H.49299623V.60014346C.49299623 .61413577 .49299623 .63912966 .46699525 .63912966 .44099427 .63912966 .44099427 .61413577 .44099427 .60014346V.2763672H.117996219C.10398865 .2763672 .07899475 .2763672 .07899475 .2503662 .07899475 .22436524 .10398865 .22436524 .117996219 .22436524H.44099427V-.10014343C.44099427-.11416626 .44099427-.13917542 .46699525-.13917542 .49299623-.13917542 .49299623-.11416626 .49299623-.10014343V.22436524Z"/>
<path id="font_1_2" d="M.23699951 .35734559C.24198914 .37535096 .25099183 .4093628 .25099183 .41337586 .25099183 .42938233 .23799134 .4423828 .21998596 .4423828 .18798828 .4423828 .17999268 .41337586 .17799378 .4033661L.034988405-.16481018C.0309906-.17881775 .0309906-.18081665 .0309906-.18682862 .0309906-.2038269 .042999269-.21582031 .06199646-.21582031 .09399414-.21582031 .101989749-.18582154 .10499573-.17082215L.15299988 .019256592C.1789856-.0017547608 .21899414-.0107421879 .2519989-.0107421879 .28799439-.0107421879 .33599855 .00024414063 .3880005 .061264039 .3999939 .008255005 .44699098-.0107421879 .48098756-.0107421879 .5099945-.0107421879 .5349884 .002243042 .5569916 .044265748 .57499697 .07727051 .58898928 .13928223 .58898928 .14329529 .58898928 .14828491 .58599856 .1552887 .57598879 .1552887 .56399539 .1552887 .5629883 .15028382 .5589905 .13128662 .5369873 .044265748 .5149994 .014251709 .48399354 .014251709 .45899964 .014251709 .45298768 .038253786 .45298768 .060256959 .45298768 .07926941 .45799256 .09927368 .46699525 .1342926L.49198915 .23731995 .5149994 .32633973C.5209961 .35235597 .5329895 .3983612 .5329895 .40237428 .5329895 .41537477 .5239868 .43138124 .5019989 .43138124 .46998597 .43138124 .46299745 .40437318 .45599366 .37635804L.43499757 .29333497C.4249878 .25332643 .3959961 .13728333 .3889923 .11128235 .3880005 .107284549 .33898927 .014251709 .2559967 .014251709 .18099976 .014251709 .18099976 .08427429 .18099976 .10227966 .18099976 .12528992 .18399048 .14329529 .19499207 .18930054L.23699951 .35734559Z"/>
<path id="font_1_6" d="M.04598999-.12519837C.038986207-.15431214 .036987306-.16334534-.006011963-.16334534-.01701355-.16334534-.029006958-.16334534-.029006958-.18135071-.029006958-.18534851-.027008057-.19433594-.01600647-.19433594L.026992798-.19233704C.032989503-.19134522 .055999757-.19134522 .069992069-.19134522 .08699036-.19134522 .10398865-.19233704 .12098694-.19233704 .13699341-.19233704 .1539917-.19433594 .16899109-.19433594 .1749878-.19433594 .18798828-.19433594 .18798828-.17634583 .18798828-.16334534 .17799378-.16334534 .16099549-.16334534 .11399841-.16334534 .11399841-.15631104 .11399841-.14727783 .11399841-.14125061 .12098694-.114151 .125-.098083499L.1619873 .051254274C.17199707 .030258179 .19999695-.0107421879 .25698854-.0107421879 .37399293-.0107421879 .5019989 .13027954 .5019989 .28033448 .5019989 .38237 .43899537 .4423828 .3639984 .4423828 .34298707 .4423828 .29299928 .43737794 .23199463 .3693695 .21699524 .42536927 .17098999 .4423828 .13699341 .4423828 .09498596 .4423828 .07398987 .41137696 .05999756 .3843689 .042999269 .34934999 .0289917 .29234315 .0289917 .28833009 .0289917 .2793274 .035995485 .27633668 .042999269 .27633668 .053985597 .27633668 .055999757 .28134156 .06098938 .30134584 .07998657 .3803711 .100997928 .41737367 .1349945 .41737367 .16499329 .41737367 .16499329 .38536073 .16499329 .37036134 .16499329 .36236573 .1639862 .34735108 .1619873 .33935548L.04598999-.12519837M.22698975 .3083496C.23199463 .32835389 .23199463 .33035279 .24499512 .34535218 .27198792 .379364 .31698609 .41737367 .3619995 .41737367 .40899659 .41737367 .42799378 .37036134 .42799378 .323349 .42799378 .27833558 .3999939 .15429688 .36898805 .10127258 .33499146 .044265748 .29299928 .014251709 .2559967 .014251709 .19099427 .014251709 .1749878 .09327698 .1749878 .10028076 .1749878 .106277469 .1769867 .11128235 .17799378 .11628723L.22698975 .3083496Z"/>
<path id="font_3_2" d="M.35899354 .6349335C.35899354 .66503909 .35499574 .66503909 .32499696 .66503909 .25898744 .60058596 .15699768 .60058596 .12098694 .60058596V.5615845C.14698792 .5615845 .21299744 .5615845 .272995 .58958438V.08496094C.272995 .051986696 .272995 .038986207 .16999817 .038986207H.1269989V0C.18199158 .0039978029 .2599945 .0039978029 .31599427 .0039978029 .37199403 .0039978029 .44999696 .0039978029 .5049896 0V.038986207H.46199037C.35899354 .038986207 .35899354 .051986696 .35899354 .08496094V.6349335Z"/>
<path id="font_3_3" d="M.5379944 .18702698H.5009918C.49899293 .17301941 .4889984 .10699463 .47399903 .09599304 .46699525 .08999634 .38598634 .08999634 .37199403 .08999634H.18499756L.31298829 .19403076C.34700013 .22103882 .43598939 .28504945 .46699525 .31506349 .49699403 .3450775 .5379944 .39608766 .5379944 .46710206 .5379944 .5920563 .4249878 .66503909 .29100038 .66503909 .1619873 .66503909 .07199097 .58006289 .07199097 .48609925 .07199097 .43510438 .114990238 .42910768 .12599182 .42910768 .15098572 .42910768 .17999268 .44709779 .17999268 .48310853 .17999268 .50509646 .16699219 .5371094 .12298584 .5371094 .1459961 .5880585 .20698548 .6260376 .27598573 .6260376 .3809967 .6260376 .43699647 .5480957 .43699647 .46710206 .43699647 .39608766 .3899994 .32305909 .31999208 .25904847L.08299255 .041992189C.07299805 .03199768 .07199097 .0309906 .07199097 0H.5069885L.5379944 .18702698Z"/>
<path id="font_3_4" d="M.2939911 .33203126C.3789978 .33203126 .43598939 .274765 .43598939 .17237854 .43598939 .062408449 .36999513 .014511108 .29699708 .014511108 .269989 .014511108 .16699219 .020492554 .12199402 .07836914 .16099549 .0823822 .1769867 .10836792 .1769867 .13537598 .1769867 .16937256 .15299988 .19238281 .11999512 .19238281 .09298706 .19238281 .06298828 .17536927 .06298828 .13337708 .06298828 .034469606 .17298889-.021484375 .2999878-.021484375 .44799806-.021484375 .5469971 .07337952 .5469971 .17237854 .5469971 .24562073 .4909973 .3229828 .37199403 .35302735 .45098878 .37902833 .5149994 .44306947 .5149994 .5251007 .5149994 .60505679 .42099 .66503909 .30099488 .66503909 .18399048 .66503909 .09498596 .61105349 .09498596 .5290985 .09498596 .48609925 .12799073 .47409059 .147995 .47409059 .17399597 .47409059 .20098877 .49209596 .20098877 .5270996 .20098877 .5580902 .1789856 .5760956 .1519928 .5800934 .19898987 .6320343 .2899933 .6320343 .29899598 .6320343 .34999085 .6320343 .4139862 .60806277 .4139862 .5251007 .4139862 .47009278 .3829956 .37402345 .2829895 .36802674 .2649994 .36701966 .23799134 .36502076 .22898865 .36502076 .21899414 .36402894 .20799256 .36302186 .20799256 .34802247 .20799256 .33203126 .21899414 .33203126 .23599243 .33203126H.2939911Z"/>
<path id="font_3_5" d="M.56399539 .1640625V.2030487H.44699098V.6448059C.44699098 .6678009 .44699098 .6748047 .42199708 .6748047 .4039917 .6748047 .4019928 .6717987 .3929901 .65979006L.04598999 .2030487V.1640625H.35699464V.08401489C.35699464 .050994874 .35699464 .038986207 .272995 .038986207H.24398804V0C.2639923 .0009918213 .35798646 .0039978029 .4019928 .0039978029 .44599916 .0039978029 .5399933 .0009918213 .55999758 0V.038986207H.5309906C.44699098 .038986207 .44699098 .050994874 .44699098 .08401489V.1640625H.56399539M.3639984 .56585696V.2030487H.08898926L.3639984 .56585696Z"/>
<path id="font_1_7" d="M.46099855 .40837098C.46499635 .42237855 .46499635 .42437745 .46499635 .42837525 .46499635 .44036866 .45498658 .4423828 .45298768 .4423828 .44299317 .4423828 .40499879 .40837098 .3849945 .3733673 .36898805 .40937806 .33799745 .4423828 .2869873 .4423828 .17098999 .4423828 .041992189 .30433656 .041992189 .1512909 .041992189 .041259767 .11199951-.0107421879 .1789856-.0107421879 .22200012-.0107421879 .26098634 .011245728 .2979889 .04626465L.2599945-.10812378C.24699402-.15933228 .24598694-.16233826 .18299866-.16334534 .17098999-.16334534 .15899658-.16334534 .15899658-.18135071 .15899658-.18334961 .15899658-.19433594 .17298889-.19433594 .19499207-.19433594 .2519989-.19134522 .27398683-.19134522 .30699159-.19134522 .30899049-.19134522 .32499696-.19233704 .33799745-.19334412 .3659973-.19433594 .37799073-.19433594 .38398744-.19433594 .39698792-.19433594 .39698792-.17634583 .39698792-.16334534 .3869934-.16334534 .36999513-.16334534 .32299806-.16334534 .32299806-.15631104 .32299806-.14727783 .32299806-.14627075 .32299806-.14025879 .32699586-.12519837L.46099855 .40837098M.31698609 .122283939C.31199647 .103271488 .31199647 .10227966 .29599 .08326721 .2599945 .040252687 .21899414 .014251709 .18199158 .014251709 .1329956 .014251709 .115997318 .06526184 .115997318 .10827637 .115997318 .15730286 .14498902 .27233888 .16899109 .32034303 .20098877 .3803711 .24699402 .41737367 .2869873 .41737367 .35398866 .41737367 .36898805 .33735658 .36898805 .33035279 .36898805 .3253479 .36698915 .3193512 .3659973 .31533814L.31698609 .122283939Z"/>
<path id="font_4_2" d="M.70799258 .3310089C.7220001 .3310089 .7409973 .3310089 .7409973 .35202027 .7409973 .37402345 .71899417 .37402345 .70399478 .37402345H.09399414C.07899475 .37402345 .056991579 .37402345 .056991579 .35202027 .056991579 .3310089 .07699585 .3310089 .08999634 .3310089H.70799258M.70399478 .12695313C.71899417 .12695313 .7409973 .12695313 .7409973 .14894104 .7409973 .1699524 .7220001 .1699524 .70799258 .1699524H.08999634C.07699585 .1699524 .056991579 .1699524 .056991579 .14894104 .056991579 .12695313 .07899475 .12695313 .09399414 .12695313H.70399478Z"/>
<path id="font_4_1" d="M.70599368 .22944641C.7200012 .22944641 .7409973 .22944641 .7409973 .25045777 .7409973 .27246095 .7220001 .27246095 .70599368 .27246095H.42099V.5578003C.42099 .573761 .42099 .59277346 .39898683 .59277346 .37799073 .59277346 .37799073 .57177737 .37799073 .5578003V.27246095H.09199524C.07798767 .27246095 .056991579 .27246095 .056991579 .25144959 .056991579 .22944641 .07598877 .22944641 .09199524 .22944641H.37799073V-.056793214C.37799073-.07279968 .37799073-.091796878 .3999939-.091796878 .42099-.091796878 .42099-.07080078 .42099-.056793214V.22944641H.70599368Z"/>
<path id="font_5_1" d="M.6749878 .22944641C.69299319 .22944641 .71199038 .22944641 .71199038 .25144959 .71199038 .27246095 .69200137 .27246095 .6749878 .27246095H.12298584C.10598755 .27246095 .085998538 .27246095 .085998538 .25144959 .085998538 .22944641 .10499573 .22944641 .12298584 .22944641H.6749878Z"/>
<path id="font_1_5" d="M.2899933 .62428286C.2899933 .646286 .27398683 .6612854 .2519989 .6612854 .22499085 .6612854 .19799805 .6352844 .19799805 .60827639 .19799805 .58828738 .21299744 .57128909 .23599243 .57128909 .2630005 .57128909 .2899933 .59628298 .2899933 .62428286M.3039856 .14329529C.3039856 .14828491 .30099488 .1552887 .29100038 .1552887 .27999879 .1552887 .2789917 .15029907 .2749939 .13728333 .25099183 .055267335 .20999146 .014251709 .17199707 .014251709 .1559906 .014251709 .147995 .022247315 .147995 .04725647 .147995 .0712738 .1559906 .09327698 .1639862 .11227417 .18199158 .16029358 .18199158 .16229248 .19499207 .1933136 .21099854 .23631287 .23298645 .29333497 .24299622 .3213501 .25 .33935548 .25 .34934999 .25 .35835267 .25 .41537477 .20498657 .4423828 .16499329 .4423828 .067993167 .4423828 .0289917 .29934693 .0289917 .28833009 .0289917 .2793274 .035995485 .27633668 .042999269 .27633668 .053985597 .27633668 .054992677 .28233338 .05899048 .29533387 .07998657 .36636354 .117996219 .41737367 .1619873 .41737367 .17199707 .41737367 .18598938 .41537477 .18598938 .38536073 .18598938 .36036683 .17599488 .3343506 .16699219 .31134034L.09599304 .12628174C.08898926 .107284549 .08299255 .091278079 .08299255 .073272708 .08299255 .026260376 .117996219-.0107421879 .16899109-.0107421879 .2659912-.0107421879 .3039856 .13328552 .3039856 .14329529Z"/>
<path id="font_1_1" d="M.397995 .1322937C.394989 .20532227 .37998963 .27734376 .34999085 .34336854 .31698609 .41436769 .269989 .4423828 .21699524 .4423828 .08999634 .4423828 .017990113 .29335023 .017990113 .2603302 .017990113 .24932862 .0289917 .24932862 .03199768 .24932862 .039993287 .24932862 .042999269 .2513275 .04598999 .25933839 .07798767 .35237123 .17098999 .3683777 .20399475 .3683777 .36499024 .3683777 .36999513 .17630005 .36999513 .11228943 .36999513 .052261354 .3659973 .038253786 .36099244 .024246216 .33499146-.06378174 .30799867-.16682434 .30799867-.1938324 .30799867-.20082093 .30799867-.21582031 .32199098-.21582031 .32899476-.21582031 .33799745-.21582031 .35499574-.15481568 .3809967-.06277466 .3880005-.008758545 .3939972 .03225708 .394989 .043258668 .44799806 .20532227 .5379944 .3843689 .5549927 .41638185 .5549927 .41838075 .5549927 .42037965 .5549927 .42736817 .5499878 .43138124 .5419922 .43138124 .5399933 .43138124 .5329895 .43138124 .5289917 .42536927 .5059967 .3843689 .48199464 .33236695 .46099855 .28533937 .45599366 .27534486 .42900086 .21331787 .397995 .1322937Z"/>
<path id="font_6_1" d="M.46699525 .14128113C.46199037 .12226868 .46199037 .120269779 .44400025 .09725952 .42199708 .070251468 .375 .023223877 .31298829 .023223877 .22499085 .023223877 .22499085 .09225464 .22499085 .11225891 .22499085 .13827515 .22799683 .15127564 .23599243 .18429566 .24499512 .21731568 .24699402 .22531128 .2559967 .2623291 .2649994 .29934693 .2669983 .3073578 .27598573 .34036256 .2809906 .3633728 .29100038 .40238954 .29100038 .4073944 .29100038 .43139649 .27198792 .44140626 .2559967 .44140626 .21899414 .44140626 .20999146 .40638734 .20698548 .39338685L.066986087-.16784668C.06498718-.17584229 .06399536-.17884827 .06399536-.18183899 .06399536-.19384766 .07299805-.21484375 .099990848-.21484375 .1349945-.21484375 .14399719-.18484497 .14898682-.16383362 .1539917-.14782715 .16799927-.08580017 .19599915 .020233155 .23699951-.009765625 .2979889-.009765625 .30899049-.009765625 .3849945-.009765625 .43099977 .035232545 .45899964 .06324768 .47799684-.0017700195 .54599-.009765625 .56799319-.009765625 .60398867-.009765625 .6299896 .010223389 .6489868 .041229249 .673996 .08125305 .6879883 .13928223 .6879883 .14428711 .6879883 .14628601 .68699648 .15827942 .6689911 .15827942 .6539917 .15827942 .6519928 .15127564 .647995 .13526917 .6319885 .07424927 .61099246 .023223877 .57199099 .023223877 .5379944 .023223877 .5349884 .059249879 .5349884 .07424927 .5349884 .087249759 .5379944 .0982666 .54599 .13127136 .55599978 .16929627 .55599978 .17129517 .5649872 .20831299L.60398867 .3613739C.6069946 .37338258 .6119995 .39338685 .6119995 .39839173 .6119995 .4104004 .6029968 .43139649 .57598879 .43139649 .5589905 .43139649 .5419922 .4203949 .5349884 .40638734 .5309906 .39938355 .5239868 .3683777 .5189972 .34936524L.46699525 .14128113Z"/>
<path id="font_6_2" d="M.27198792 .42736817C.2709961 .43138124 .269989 .44137574 .2539978 .44137574 .2519989 .44137574 .19299317 .43637086 .18499756 .43637086 .1559906 .43338014 .1539917 .43338014 .12799073 .43138124 .10998535 .43037416 .09799194 .42837525 .09799194 .40538026 .09799194 .3903656 .11099243 .3903656 .1269989 .3903656 .14399719 .3903656 .1559906 .3883667 .15699768 .3883667 .17399597 .3863678 .17599488 .3843689 .17599488 .37535096 .17599488 .36935426 .1659851 .330307 .1599884 .3072815L.13598633 .21218872 .09599304 .04801941C.09298706 .038009645 .08799744 .018997193 .08799744 .015991211 .08799744 0 .102996829 0 .10798645 0H.125C.25898744 .020996094 .37998963 .08305359 .46798707 .16014099 .59999087 .2752533 .621994 .40037538 .621994 .40737916 .621994 .43138124 .6029968 .44137574 .58699038 .44137574 .57499697 .44137574 .548996 .43537904 .5399933 .40237428 .48098756 .19416809 .31199647 .09005737 .19999695 .052017213L.19198609 .04902649 .1769867 .045013429 .27198792 .42736817Z"/>
<path id="font_1_4" d="M.4869995 .39335633C.4869995 .4093628 .47399903 .42237855 .45599366 .42237855 .43899537 .42237855 .41799928 .41036988 .41299439 .38233949 .3909912 .42037965 .35899354 .4423828 .31799317 .4423828 .19699097 .4423828 .07398987 .30026246 .07398987 .16012573 .07398987 .06602478 .1329956 0 .21299744 0 .2579956 0 .2979889 .024993897 .33099366 .055023195 .31799317 0 .3019867-.06703186 .2939911-.08503723 .2889862-.09605408 .25299073-.18008423 .1519928-.18008423 .13198853-.18008423 .099990848-.1790924 .07499695-.17208863 .09399414-.16407776 .11099243-.14207459 .11099243-.12106323 .11099243-.0990448 .09399414-.08503723 .07299805-.08503723 .049987794-.08503723 .017990113-.10305786 .017990113-.14407349 .017990113-.19308472 .07398987-.20507813 .1539917-.20507813 .2829895-.20507813 .35699464-.13105774 .37298585-.06703186L.4869995 .39335633M.34999085 .13009644C.34599305 .112075809 .34498597 .110076908 .32899476 .091049198 .27799989 .03300476 .23599243 .024993897 .21598816 .024993897 .16699219 .024993897 .14898682 .07304382 .14898682 .11808777 .14898682 .15711975 .17298889 .26922608 .20298767 .32728578 .22898865 .3743286 .272995 .41737367 .31900025 .41737367 .3829956 .41737367 .3999939 .34129334 .3999939 .33229066 .3999939 .33029176 .397995 .32228089 .39698792 .317276L.34999085 .13009644Z"/>
<path id="font_7_2" d="M.18699646 .23144531C.21598816 .23144531 .2899933 .23344422 .33999635 .2544403 .4099884 .28442384 .4149933 .34339906 .4149933 .35740663 .4149933 .40138246 .3769989 .4423828 .30799867 .4423828 .19699097 .4423828 .04598999 .34539796 .04598999 .17037964 .04598999 .06829834 .10499573-.0107421879 .20298767-.0107421879 .34599305-.0107421879 .42999269 .095321658 .42999269 .10733032 .42999269 .113342288 .42399598 .12034607 .41799928 .12034607 .41299439 .12034607 .41099549 .11834717 .40499879 .1103363 .32598878 .011245728 .21699524 .011245728 .20498657 .011245728 .1269989 .011245728 .117996219 .095321658 .117996219 .12734986 .117996219 .13935852 .11898804 .17037964 .13398743 .23144531H.18699646M.13999939 .25343324C.1789856 .40538026 .28199769 .42037965 .30799867 .42037965 .35499574 .42037965 .38198854 .39138795 .38198854 .35740663 .38198854 .25343324 .22200012 .25343324 .18099976 .25343324H.13999939Z"/>
<path id="font_8_1" d="M.46299745 .2263794H.7689972C.7819977 .2263794 .80599978 .2263794 .80599978 .25038148 .80599978 .27539063 .7829895 .27539063 .7689972 .27539063H.46299745V.5821533C.46299745 .59513857 .46299745 .6191406 .43899537 .6191406 .4139862 .6191406 .4139862 .5961304 .4139862 .5821533V.27539063H.10699463C.09399414 .27539063 .069992069 .27539063 .069992069 .25138856 .069992069 .2263794 .09298706 .2263794 .10699463 .2263794H.4139862V-.08114624C.4139862-.09416199 .4139862-.11816406 .43798829-.11816406 .46299745-.11816406 .46299745-.09516907 .46299745-.08114624V.2263794Z"/>
<path id="font_9_1" d="M.74398806 .2263794C.7599945 .2263794 .7839966 .2263794 .7839966 .25038148 .7839966 .27539063 .7609863 .27539063 .74398806 .27539063H.147995C.13198853 .27539063 .10798645 .27539063 .10798645 .25138856 .10798645 .2263794 .1309967 .2263794 .147995 .2263794H.74398806Z"/>
<path id="font_10_1" d="M.83399966 .23046875C.7789917 .1884613 .7519989 .14746094 .74398806 .13446045 .69898989 .065460208 .69099429 .002456665 .69099429 .0014648438 .69099429-.010543823 .7029877-.010543823 .71099856-.010543823 .7279968-.010543823 .72898867-.008544922 .73298647 .009460449 .7559967 .10746765 .8149872 .19146729 .9279938 .23745728 .9399872 .24145508 .94299319 .24345398 .94299319 .25045777 .94299319 .25746156 .93699648 .26046754 .93499758 .26145936 .8909912 .27845765 .769989 .3284607 .7319946 .49645997 .72898867 .5084686 .7279968 .51145938 .71099856 .51145938 .7029877 .51145938 .69099429 .51145938 .69099429 .49946595 .69099429 .49746705 .69999697 .4344635 .74198916 .36746217 .7619934 .33746339 .79100039 .30245973 .83399966 .27046205H.09098816C.07299805 .27046205 .054992677 .27046205 .054992677 .25045777 .054992677 .23046875 .07299805 .23046875 .09098816 .23046875H.83399966Z"/>
<path id="font_7_1" d="M.23098755 .35134889C.23599243 .37236024 .24598694 .41036988 .24598694 .41537477 .24598694 .43237306 .23399353 .4423828 .21699524 .4423828 .21398926 .4423828 .18598938 .44137574 .1769867 .40637208L.032989503-.17282105C.02999878-.18482971 .02999878-.18682862 .02999878-.18882752 .02999878-.2038269 .040985109-.21582031 .057998659-.21582031 .07899475-.21582031 .09098816-.1978302 .09298706-.19482422 .09700012-.18582154 .10998535-.13380432 .147995 .020248414 .17999268-.0067443849 .22499085-.0107421879 .24499512-.0107421879 .31498719-.0107421879 .35398866 .03425598 .37799073 .06227112 .3869934 .01725769 .42399598-.0107421879 .46798707-.0107421879 .5029907-.0107421879 .526001 .012252808 .5419922 .044265748 .5589905 .08027649 .57199099 .14129639 .57199099 .14329529 .57199099 .1532898 .5629883 .1532898 .55999758 .1532898 .5499878 .1532898 .548996 .14929199 .54599 .13528443 .5289917 .07026672 .5109863 .011245728 .46998597 .011245728 .44299317 .011245728 .43998719 .037261964 .43998719 .057266237 .43998719 .07926941 .45199586 .12628174 .45999146 .16130066L.48799134 .2693329C.4909973 .28433229 .5009918 .32234193 .5049896 .3373413 .5099945 .36035157 .519989 .3983612 .519989 .40437318 .519989 .42237855 .5059967 .43138124 .4909973 .43138124 .48599244 .43138124 .45999146 .43037416 .45199586 .3963623L.40499879 .20930481C.3929901 .15930176 .38198854 .11727905 .3789978 .107284549 .37799073 .10227966 .32998658 .011245728 .24899292 .011245728 .19898987 .011245728 .1749878 .044265748 .1749878 .09828186 .1749878 .12728882 .18199158 .1552887 .18899536 .18330384L.23098755 .35134889Z"/>
<path id="font_11_72" d="M.29299928 0V.04699707H.22399903V.69433596L.04699707 .6855469V.63853457C.10899353 .63853457 .115997318 .63853457 .115997318 .5995636V.04699707H.04699707V0L.16999817 .0029907227 .29299928 0Z"/>
<path id="font_11_50" d="M.49398805 .11706543C.49398805 .13504029 .47499085 .13504029 .46998597 .13504029 .45298768 .13504029 .45098878 .13005066 .44499208 .11405945 .42399598 .066101077 .36698915 .03413391 .3019867 .03413391 .16099549 .03413391 .1599884 .16700745 .1599884 .2179718H.46199037C.48399354 .2179718 .49398805 .2179718 .49398805 .2449646 .49398805 .27598573 .48799134 .34906007 .43798829 .3991089 .40098573 .43511964 .34799195 .453125 .2789917 .453125 .11898804 .453125 .03199768 .35005189 .03199768 .22497559 .03199768 .09107971 .13198853-.005859375 .29299928-.005859375 .45098878-.005859375 .49398805 .10006714 .49398805 .11706543M.39898683 .25097657H.1599884C.1619873 .29000855 .16299439 .3320465 .18399048 .36506654 .20999146 .4051056 .25 .41711427 .2789917 .41711427 .3959961 .41711427 .397995 .28599549 .39898683 .25097657Z"/>
<path id="font_11_28" d="M.5529938 .023986817C.5529938 .04699707 .5399933 .04699707 .5269928 .04699707 .46598817 .04798889 .46598817 .06100464 .46598817 .083999637V.29907228C.46598817 .3881073 .394989 .453125 .24598694 .453125 .18899536 .453125 .066986087 .44911195 .066986087 .36109925 .066986087 .3170929 .101989749 .29808045 .1289978 .29808045 .1599884 .29808045 .19198609 .3190918 .19198609 .36109925 .19198609 .39111329 .17298889 .40811158 .16999817 .41011048 .19799805 .41612245 .22999573 .41711427 .24198914 .41711427 .31698609 .41711427 .35198976 .3751068 .35198976 .29907228V.26506043C.2809906 .2620697 .026992798 .25306703 .026992798 .10801697 .026992798 .012130737 .15098572-.005859375 .21998596-.005859375 .2999878-.005859375 .34700013 .035125734 .36898805 .07713318 .36898805 .04598999 .36898805 0 .47299195 0H.5209961C.54100039 0 .5529938 0 .5529938 .023986817M.35198976 .13899231C.35198976 .043151857 .2599945 .030136109 .23498535 .030136109 .18399048 .030136109 .14399719 .06517029 .14399719 .10922241 .14399719 .21734619 .3019867 .23136902 .35198976 .234375V.13899231Z"/>
<path id="font_11_47" d="M.6009979 0V.04699707C.5389862 .04699707 .5319977 .04699707 .5319977 .086013797V.69433596L.35499574 .6855469V.63853457C.4169922 .63853457 .42399598 .63853457 .42399598 .5996704V.40518189C.37399293 .44418336 .32199098 .4501953 .2889862 .4501953 .14299011 .4501953 .037994386 .36218263 .037994386 .22116089 .037994386 .089141849 .12998963-.005859375 .27799989-.005859375 .33898927-.005859375 .3869934 .018127442 .41799928 .043136598V-.005859375L.6009979 0M.41799928 .102996829C.40499879 .08514404 .3639984 .030136109 .28799439 .030136109 .1659851 .030136109 .1659851 .15115357 .1659851 .22116089 .1659851 .26916505 .1659851 .3231659 .19198609 .36218263 .22099304 .40419007 .2679901 .41418458 .29899598 .41418458 .35598756 .41418458 .3959961 .3821869 .41799928 .35317994V.102996829Z"/>
<path id="font_11_66" d="M.28599549 0V.04699707H.22399903V.4501953L.049987794 .4423828V.39537049C.10899353 .39537049 .115997318 .39537049 .115997318 .3563385V.04699707H.04699707V0L.16899109 .0029907227 .28599549 0M.23799134 .60728457C.23799134 .6502838 .20298767 .6852875 .1599884 .6852875 .116989139 .6852875 .08198547 .6502838 .08198547 .60728457 .08198547 .5642853 .116989139 .5292969 .1599884 .5292969 .20298767 .5292969 .23799134 .5642853 .23799134 .60728457Z"/>
<path id="font_11_77" d="M.61499026 0V.04699707H.54599V.30613709C.54599 .41119386 .49198915 .4501953 .3919983 .4501953 .29599 .4501953 .24299622 .39318849 .21699524 .3421631V.4501953L.04499817 .4423828V.39537049C.10699463 .39537049 .11399841 .39537049 .11399841 .3563385V.04699707H.04499817V0L.17098999 .0029907227 .29699708 0V.04699707H.22799683V.2562256C.22799683 .3653412 .31399537 .41436769 .3769989 .41436769 .41099549 .41436769 .43199159 .39337159 .43199159 .31729127V.04699707H.36299134V0L.4889984 .0029907227 .61499026 0Z"/>
<path id="font_11_59" d="M.55799868 .3970642C.55799868 .42007447 .54100039 .45507813 .49499513 .45507813 .47999574 .45507813 .43299867 .45207215 .3889923 .41706849 .37098695 .42918397 .32899476 .4501953 .25498963 .4501953 .11099243 .4501953 .055999757 .37243653 .055999757 .3024292 .055999757 .26127626 .07598877 .22012329 .10798645 .19703675 .07998657 .16191101 .07398987 .12878418 .07398987 .10771179 .07398987 .0927124 .07798767 .04371643 .117996219 .01171875 .10499573 .008712769 .03199768-.012252808 .03199768-.075164798 .03199768-.12609864 .08699036-.2010498 .2869873-.2010498 .46398927-.2010498 .5419922-.14207459 .5419922-.07217407 .5419922-.04222107 .5339966 .020706177 .46699525 .054718019 .41099549 .08300781 .35099793 .08300781 .25498963 .08300781 .22898865 .08300781 .18299866 .08300781 .17799378 .083984378 .13398743 .0909729 .12298584 .12898255 .12298584 .14697266 .12298584 .15698242 .1269989 .17198181 .1329956 .17997742 .1789856 .15629578 .22999573 .15429688 .25498963 .15429688 .39898683 .15429688 .45399476 .23234558 .45399476 .3024292 .45399476 .34942628 .42900086 .38243104 .4139862 .3984375 .44400025 .4144287 .46499635 .4164276 .47599793 .4174347 .47399903 .4124298 .47200013 .40342713 .47200013 .39743043 .47200013 .37219239 .4889984 .354187 .5149994 .354187 .54100039 .354187 .55799868 .3731842 .55799868 .39718629V.3970642M.34298707 .30221559C.34298707 .25724793 .34298707 .19029236 .25498963 .19029236 .16699219 .19021607 .16699219 .25733949 .16699219 .3024292 .16699219 .34742738 .16699219 .41418458 .25498963 .41418458 .34298707 .41418458 .34298707 .34742738 .34298707 .3024292V.30221559M.45599366-.07501221C.45599366-.11102295 .4169922-.16503906 .2869873-.16503906 .16699219-.16503906 .117996219-.11903381 .117996219-.073013309 .117996219-.013000488 .18099976-.013000488 .19499207-.013000488H.31199647C.34298707-.013000488 .45599366-.013000488 .45599366-.07501221Z"/>
<path id="font_11_64" d="M.31799317 .17382813V.27082826H.0129852299V.17382813H.31799317Z"/>
<path id="font_11_81" d="M.5419922 .21812439C.5419922 .35212709 .44999696 .453125 .2869873 .453125 .12298584 .453125 .03199768 .35112 .03199768 .21812439 .03199768 .09413147 .11999512-.005859375 .2869873-.005859375 .45498658-.005859375 .5419922 .09512329 .5419922 .21812439M.4139862 .22912598C.4139862 .14213562 .4139862 .03413391 .2869873 .03413391 .1599884 .03413391 .1599884 .14213562 .1599884 .22912598 .1599884 .27412416 .1599884 .32511903 .1769867 .3591156 .19599915 .39611817 .23799134 .41711427 .2869873 .41711427 .32899476 .41711427 .37098695 .40112306 .3929901 .36611939 .4139862 .3321228 .4139862 .27713014 .4139862 .22912598Z"/>
<path id="font_11_96" d="M.44198609 .36819459C.44198609 .42118836 .3880005 .4501953 .33599855 .4501953 .2659912 .4501953 .22599793 .40019227 .20298767 .33718873V.4501953L.036987306 .4423828V.39537049C.09899902 .39537049 .10598755 .39537049 .10598755 .3563385V.04699707H.036987306V0L.16299439 .0029907227C.20098877 .0029907227 .2649994 .0029907227 .30099488 0V.04699707H.21398926V.22218323C.21398926 .29226686 .23899842 .41436769 .33898927 .41436769 .33898927 .41436769 .31999208 .39736939 .31999208 .36834718 .31999208 .32730104 .35198976 .3072815 .3809967 .3072815 .4099884 .3072815 .44198609 .3283081 .44198609 .36834718V.36819459Z"/>
<path id="font_11_54" d="M.6749878 .4391327 .6439972 .6798096H.038986207V.6328125H.14698792V.04699707H.038986207V0C.07699585 .0029907227 .17799378 .0029907227 .22200012 .0029907227 .2709961 .0029907227 .37998963 .0029907227 .42399598 0V.04699707H.2889862V.31724549H.33898927C.43499757 .31724549 .44400025 .2742157 .44400025 .20013428H.4909973V.48106385H.44400025C.44400025 .4071808 .43598939 .3642578 .33898927 .3642578H.2889862V.6328125H.42900086C.58999636 .6328125 .61299136 .5559387 .6279907 .4391327H.6749878Z"/>
<path id="font_11_118" d="M.5799866 .3973236V.44433595C.55599978 .44232179 .526001 .44132997 .5009918 .44132997L.4099884 .44433595V.3973236C.4099884 .3973236 .45700074 .3973236 .45700074 .3853302L.45199586 .37332154 .33699037 .12713623 .20999146 .3973236H.2639923V.44433595L.13999939 .44132997 .025985718 .44433595V.3973236H.08999634L.2769928 .000045776369 .2539978-.04798889C.23199463-.09602356 .19999695-.1640625 .1289978-.1640625 .114990238-.1640625 .11299133-.16307068 .10499573-.1600647 .11399841-.1560669 .13699341-.14205933 .13699341-.10702515 .13699341-.07400513 .11299133-.049987794 .07899475-.049987794 .050994874-.049987794 .021987915-.069000247 .021987915-.10803223 .021987915-.15907288 .068984989-.20007324 .1289978-.20007324 .20599365-.20007324 .2639923-.13804627 .29100038-.08100891L.5059967 .37631227C.5130005 .39031983 .5159912 .3973236 .5799866 .3973236Z"/>
<path id="font_11_75" d="M.93499758 0V.04699707H.8659973V.30613709C.8659973 .40919496 .8149872 .4501953 .71199038 .4501953 .62098696 .4501953 .56900027 .40019227 .54299929 .3541565 .522995 .44718934 .43099977 .4501953 .3929901 .4501953 .30599977 .4501953 .24899292 .40518189 .21699524 .3421631V.4501953L.04499817 .4423828V.39537049C.10699463 .39537049 .11399841 .39537049 .11399841 .3563385V.04699707H.04499817V0L.17098999 .0029907227 .29699708 0V.04699707H.22799683V.2562256C.22799683 .3653412 .31498719 .41436769 .3769989 .41436769 .41099549 .41436769 .43299867 .39437867 .43299867 .31729127V.04699707H.3639984V0L.48999024 .0029907227 .6159973 0V.04699707H.5469971V.2562256C.5469971 .3653412 .6339874 .41436769 .69599917 .41436769 .7299957 .41436769 .7519989 .39437867 .7519989 .31729127V.04699707H.68299868V0L.8089905 .0029907227 .93499758 0Z"/>
</defs>
<path transform="matrix(1,0,0,-1,124.82863,80.304218)" stroke-width=".79701" stroke-linecap="butt" stroke-miterlimit="10" stroke-linejoin="miter" fill="none" stroke="#000000" d="M-102.04868 45.35506-34.01608 0"/>
<path transform="matrix(.83202,.55467,.55467,-.83202,55.012353,56.437246)" d="M4.53381 0C3.97704 .13808 1.52963 .92049 0 1.77196V-1.77196C1.52963-.92049 3.97704-.13808 4.53381 0Z"/>
<path transform="matrix(.83202,.55467,.55467,-.83202,55.012353,56.437246)" stroke-width=".79701" stroke-linecap="butt" stroke-miterlimit="10" stroke-linejoin="miter" fill="none" stroke="#000000" d="M4.53381 0C3.97704 .13808 1.52963 .92049 0 1.77196V-1.77196C1.52963-.92049 3.97704-.13808 4.53381 0Z"/>
<path transform="matrix(1,0,0,-1,124.82863,80.304218)" stroke-width=".79701" stroke-linecap="butt" stroke-miterlimit="10" stroke-linejoin="miter" fill="none" stroke="#000000" d="M-34.01608 0-102.04868-45.35506"/>
<path transform="matrix(-.83202,.55467,.55467,.83202,58.58017,101.79228)" d="M4.53381 0C3.97704 .13808 1.52963 .92049 0 1.77196V-1.77196C1.52963-.92049 3.97704-.13808 4.53381 0Z"/>
<path transform="matrix(-.83202,.55467,.55467,.83202,58.58017,101.79228)" stroke-width=".79701" stroke-linecap="butt" stroke-miterlimit="10" stroke-linejoin="miter" fill="none" stroke="#000000" d="M4.53381 0C3.97704 .13808 1.52963 .92049 0 1.77196V-1.77196C1.52963-.92049 3.97704-.13808 4.53381 0Z"/>
<path transform="matrix(1,0,0,-1,124.82863,80.304218)" stroke-width=".79701" stroke-linecap="butt" stroke-miterlimit="10" stroke-linejoin="miter" fill="none" stroke="#000000" d="M34.01608 0 102.04868 45.35506"/>
<path transform="matrix(.83202,-.55467,-.55467,-.83202,191.07709,58.816148)" d="M4.53381 0C3.97704 .13808 1.52963 .92049 0 1.77196V-1.77196C1.52963-.92049 3.97704-.13808 4.53381 0Z"/>
<path transform="matrix(.83202,-.55467,-.55467,-.83202,191.07709,58.816148)" stroke-width=".79701" stroke-linecap="butt" stroke-miterlimit="10" stroke-linejoin="miter" fill="none" stroke="#000000" d="M4.53381 0C3.97704 .13808 1.52963 .92049 0 1.77196V-1.77196C1.52963-.92049 3.97704-.13808 4.53381 0Z"/>
<path transform="matrix(1,0,0,-1,124.82863,80.304218)" stroke-width=".79701" stroke-linecap="butt" stroke-miterlimit="10" stroke-linejoin="miter" fill="none" stroke="#000000" d="M102.04868-45.35506 34.01608 0"/>
<path transform="matrix(-.83202,-.55467,-.55467,.83202,194.6449,104.17119)" d="M4.53381 0C3.97704 .13808 1.52963 .92049 0 1.77196V-1.77196C1.52963-.92049 3.97704-.13808 4.53381 0Z"/>
<path transform="matrix(-.83202,-.55467,-.55467,.83202,194.6449,104.17119)" stroke-width=".79701" stroke-linecap="butt" stroke-miterlimit="10" stroke-linejoin="miter" fill="none" stroke="#000000" d="M4.53381 0C3.97704 .13808 1.52963 .92049 0 1.77196V-1.77196C1.52963-.92049 3.97704-.13808 4.53381 0Z"/>
<path transform="matrix(1,0,0,-1,124.82863,80.304218)" stroke-width=".79701" stroke-linecap="butt" stroke-miterlimit="10" stroke-linejoin="miter" fill="none" stroke="#000000" d="M-34.01608 0C-32.95308 0-32.42157 3.4016-31.35857 3.4016-30.58897 3.4016-29.92566 1.74161-29.23257 0-28.5395-1.7416-27.87619-3.4016-27.10658-3.4016-26.33698-3.4016-25.67368-1.74161-24.98058 0-24.2875 1.7416-23.6242 3.4016-22.85458 3.4016-22.08499 3.4016-21.42168 1.74161-20.72859 0-20.03552-1.7416-19.37221-3.4016-18.6026-3.4016-17.833-3.4016-17.16968-1.74161-16.4766 0-15.78352 1.7416-15.12021 3.4016-14.3506 3.4016-13.581 3.4016-12.9177 1.74161-12.22461 0-11.53152-1.7416-10.86823-3.4016-10.0986-3.4016-9.32901-3.4016-8.6657-1.74161-7.97261 0-7.27954 1.7416-6.61623 3.4016-5.84662 3.4016-5.07701 3.4016-4.41371 1.74161-3.72061 0-3.02754-1.7416-2.36423-3.4016-1.59462-3.4016-.82501-3.4016-.16171-1.74161 .53136 0 1.22444 1.7416 1.88774 3.4016 2.65736 3.4016 3.42696 3.4016 4.09027 1.74161 4.78336 0 5.47643-1.7416 6.13974-3.4016 6.90935-3.4016 7.67896-3.4016 8.34225-1.74161 9.03535 0 9.72842 1.7416 10.39172 3.4016 11.16135 3.4016 11.93094 3.4016 12.59425 1.74161 13.28734 0 13.98042-1.7416 14.64372-3.4016 15.41335-3.4016 16.18294-3.4016 16.84625-1.74161 17.53934 0 18.2324 1.7416 18.89572 3.4016 19.66533 3.4016 20.43494 3.4016 21.09824 1.74161 21.79134 0 22.4844-1.7416 23.1477-3.4016 23.91733-3.4016 24.68692-3.4016 25.35023-1.74161 26.04332 0 26.73639 1.7416 27.3997 3.4016 28.16931 3.4016 29.23253 3.4016 29.76404 0 30.82704 0H34.01608"/>
<path transform="matrix(1,0,0,-1,124.82863,80.304218)" d="M-32.04347 0C-32.04347 1.08945-32.92662 1.9726-34.01608 1.9726-35.10553 1.9726-35.98868 1.08945-35.98868 0-35.98868-1.08945-35.10553-1.9726-34.01608-1.9726-32.92662-1.9726-32.04347-1.08945-32.04347 0ZM-34.01608 0"/>
<path transform="matrix(1,0,0,-1,124.82863,80.304218)" d="M35.98868 0C35.98868 1.08945 35.10553 1.9726 34.01608 1.9726 32.92662 1.9726 32.04347 1.08945 32.04347 0 32.04347-1.08945 32.92662-1.9726 34.01608-1.9726 35.10553-1.9726 35.98868-1.08945 35.98868 0ZM34.01608 0"/>
<use data-text="e" xlink:href="#font_1_3" transform="matrix(8.966376,0,0,-8.966376,7.304077,38.76319)"/>
<use data-text="&#x2212;" xlink:href="#font_2_1" transform="matrix(5.977584,0,0,-5.977584,11.588337,34.954195)"/>
<use data-text="e" xlink:href="#font_1_3" transform="matrix(8.966376,0,0,-8.966376,7.470108,129.4733)"/>
<use data-text="+" xlink:href="#font_3_1" transform="matrix(5.977584,0,0,-5.977584,11.754368,125.66429)"/>
<use data-text="&#x00b5;" xlink:href="#font_1_2" transform="matrix(8.966376,0,0,-8.966376,231.81453,37.891466)"/>
<use data-text="&#x2212;" xlink:href="#font_2_1" transform="matrix(5.977584,0,0,-5.977584,237.36661,34.082464)"/>
<use data-text="&#x00b5;" xlink:href="#font_1_2" transform="matrix(8.966376,0,0,-8.966376,231.81453,128.60157)"/>
<use data-text="+" xlink:href="#font_3_1" transform="matrix(5.977584,0,0,-5.977584,237.36661,124.79256)"/>
<use data-text="p" xlink:href="#font_1_6" transform="matrix(8.966376,0,0,-8.966376,49.00583,45.84365)"/>
<use data-text="1" xlink:href="#font_3_2" transform="matrix(5.977584,0,0,-5.977584,53.63187,46.839906)"/>
<use data-text="p" xlink:href="#font_1_6" transform="matrix(8.966376,0,0,-8.966376,49.00583,116.88181)"/>
<use data-text="2" xlink:href="#font_3_3" transform="matrix(5.977584,0,0,-5.977584,53.63187,117.87806)"/>
<use data-text="p" xlink:href="#font_1_6" transform="matrix(8.966376,0,0,-8.966376,191.87422,45.84365)"/>
<use data-text="3" xlink:href="#font_3_4" transform="matrix(5.977584,0,0,-5.977584,196.50026,46.839906)"/>
<use data-text="p" xlink:href="#font_1_6" transform="matrix(8.966376,0,0,-8.966376,191.87422,116.88181)"/>
<use data-text="4" xlink:href="#font_3_5" transform="matrix(5.977584,0,0,-5.977584,196.50026,117.87806)"/>
<use data-text="q" xlink:href="#font_1_7" transform="matrix(8.966376,0,0,-8.966376,102.05646,65.119358)"/>
<use data-text="=" xlink:href="#font_4_2" transform="matrix(8.966376,0,0,-8.966376,109.0555,65.119358)"/>
<use data-text="p" xlink:href="#font_1_6" transform="matrix(8.966376,0,0,-8.966376,118.782848,65.119358)"/>
<use data-text="1" xlink:href="#font_3_2" transform="matrix(5.977584,0,0,-5.977584,123.40888,66.1156)"/>
<use data-text="+" xlink:href="#font_4_1" transform="matrix(8.966376,0,0,-8.966376,129.60779,65.119358)"/>
<use data-text="p" xlink:href="#font_1_6" transform="matrix(8.966376,0,0,-8.966376,138.82318,65.119358)"/>
<use data-text="2" xlink:href="#font_3_3" transform="matrix(5.977584,0,0,-5.977584,143.44922,66.1156)"/>
<use data-text="&#x2212;" xlink:href="#font_5_1" transform="matrix(8.966376,0,0,-8.966376,78.383319,94.191867)"/>
<use data-text="i" xlink:href="#font_1_5" transform="matrix(8.966376,0,0,-8.966376,85.55084,94.191867)"/>
<use data-text="e" xlink:href="#font_1_3" transform="matrix(8.966376,0,0,-8.966376,88.69804,94.191867)"/>
<use data-text="&#x03b3;" xlink:href="#font_1_1" transform="matrix(8.966376,0,0,-8.966376,92.97499,94.191867)"/>
<use data-text="&#x00b5;" xlink:href="#font_6_1" transform="matrix(5.977584,0,0,-5.977584,98.26018,90.38286)"/>
<use data-text="&#x2212;" xlink:href="#font_5_1" transform="matrix(8.966376,0,0,-8.966376,146.59537,94.191867)"/>
<use data-text="i" xlink:href="#font_1_5" transform="matrix(8.966376,0,0,-8.966376,153.76288,94.191867)"/>
<use data-text="e" xlink:href="#font_1_3" transform="matrix(8.966376,0,0,-8.966376,156.91008,94.191867)"/>
<use data-text="&#x03b3;" xlink:href="#font_1_1" transform="matrix(8.966376,0,0,-8.966376,161.18704,94.191867)"/>
<use data-text="&#x03bd;" xlink:href="#font_6_2" transform="matrix(5.977584,0,0,-5.977584,166.47223,90.38286)"/>
<use data-text="&#x2212;" xlink:href="#font_5_1" transform="matrix(8.966376,0,0,-8.966376,112.91855,105.3313)"/>
<use data-text="i" xlink:href="#font_1_5" transform="matrix(8.966376,0,0,-8.966376,120.08607,105.3313)"/>
<use data-text="g" xlink:href="#font_1_4" transform="matrix(8.966376,0,0,-8.966376,123.23327,105.3313)"/>
<use data-text="&#x00b5;" xlink:href="#font_6_1" transform="matrix(5.977584,0,0,-5.977584,127.633678,106.32755)"/>
<use data-text="&#x03bd;" xlink:href="#font_6_2" transform="matrix(5.977584,0,0,-5.977584,132.11685,106.32755)"/>
<path transform="matrix(1,0,0,-1,58.89441,102.82585)" stroke-width=".378585" stroke-linecap="butt" stroke-miterlimit="10" stroke-linejoin="miter" fill="none" stroke="#000000" d="M54.02414-6.06276H77.84396"/>
<use data-text="q" xlink:href="#font_1_7" transform="matrix(8.966376,0,0,-8.966376,120.53334,117.2114)"/>
<use data-text="2" xlink:href="#font_3_3" transform="matrix(5.977584,0,0,-5.977584,124.97255,114.63772)"/>
<use data-text="e" xlink:href="#font_7_2" transform="matrix(9.96264,0,0,-9.96264,11.214806,15.237104)"/>
<use data-text="+" xlink:href="#font_8_1" transform="matrix(6.973848,0,0,-6.973848,15.853676,11.621744)"/>
<use data-text="e" xlink:href="#font_7_2" transform="matrix(9.96264,0,0,-9.96264,22.467789,15.237104)"/>
<use data-text="&#x2212;" xlink:href="#font_9_1" transform="matrix(6.973848,0,0,-6.973848,27.106659,11.621744)"/>
<use data-text="&#x2192;" xlink:href="#font_10_1" transform="matrix(9.96264,0,0,-9.96264,36.598794,15.237104)"/>
<use data-text="&#x00b5;" xlink:href="#font_7_1" transform="matrix(9.96264,0,0,-9.96264,49.32879,15.237104)"/>
<use data-text="+" xlink:href="#font_8_1" transform="matrix(6.973848,0,0,-6.973848,55.33178,11.621744)"/>
<use data-text="&#x00b5;" xlink:href="#font_7_1" transform="matrix(9.96264,0,0,-9.96264,61.945894,15.237104)"/>
<use data-text="&#x2212;" xlink:href="#font_9_1" transform="matrix(6.973848,0,0,-6.973848,67.94888,11.621744)"/>
<use data-text="l" xlink:href="#font_11_72" transform="matrix(9.96264,0,0,-9.96264,78.48937,15.237104)"/>
<use data-text="e" xlink:href="#font_11_50" transform="matrix(9.96264,0,0,-9.96264,81.66746,15.237104)"/>
<use data-text="a" xlink:href="#font_11_28" transform="matrix(9.96264,0,0,-9.96264,86.91776,15.237104)"/>
<use data-text="d" xlink:href="#font_11_47" transform="matrix(9.96264,0,0,-9.96264,92.486888,15.237104)"/>
<use data-text="i" xlink:href="#font_11_66" transform="matrix(9.96264,0,0,-9.96264,98.85302,15.237104)"/>
<use data-text="n" xlink:href="#font_11_77" transform="matrix(9.96264,0,0,-9.96264,102.031108,15.237104)"/>
<use data-text="g" xlink:href="#font_11_59" transform="matrix(9.96264,0,0,-9.96264,108.39724,15.237104)"/>
<use data-text="-" xlink:href="#font_11_64" transform="matrix(9.96264,0,0,-9.96264,114.125759,15.237104)"/>
<use data-text="o" xlink:href="#font_11_81" transform="matrix(9.96264,0,0,-9.96264,117.941448,15.237104)"/>
<use data-text="r" xlink:href="#font_11_96" transform="matrix(9.96264,0,0,-9.96264,123.66996,15.237104)"/>
<use data-text="d" xlink:href="#font_11_47" transform="matrix(9.96264,0,0,-9.96264,128.39225,15.237104)"/>
<use data-text="e" xlink:href="#font_11_50" transform="matrix(9.96264,0,0,-9.96264,134.75839,15.237104)"/>
<use data-text="r" xlink:href="#font_11_96" transform="matrix(9.96264,0,0,-9.96264,140.0087,15.237104)"/>
<use data-text="F" xlink:href="#font_11_54" transform="matrix(9.96264,0,0,-9.96264,148.54666,15.237104)"/>
<use data-text="e" xlink:href="#font_11_50" transform="matrix(9.96264,0,0,-9.96264,154.81317,15.237104)"/>
<use data-text="y" xlink:href="#font_11_118" transform="matrix(9.96264,0,0,-9.96264,160.06348,15.237104)"/>
<use data-text="n" xlink:href="#font_11_77" transform="matrix(9.96264,0,0,-9.96264,166.11078,15.237104)"/>
<use data-text="m" xlink:href="#font_11_75" transform="matrix(9.96264,0,0,-9.96264,172.47693,15.237104)"/>
<use data-text="a" xlink:href="#font_11_28" transform="matrix(9.96264,0,0,-9.96264,182.02112,15.237104)"/>
<use data-text="n" xlink:href="#font_11_77" transform="matrix(9.96264,0,0,-9.96264,187.59024,15.237104)"/>
<use data-text="d" xlink:href="#font_11_47" transform="matrix(9.96264,0,0,-9.96264,197.76212,15.237104)"/>
<use data-text="i" xlink:href="#font_11_66" transform="matrix(9.96264,0,0,-9.96264,204.12824,15.237104)"/>
<use data-text="a" xlink:href="#font_11_28" transform="matrix(9.96264,0,0,-9.96264,207.30634,15.237104)"/>
<use data-text="g" xlink:href="#font_11_59" transform="matrix(9.96264,0,0,-9.96264,212.87546,15.237104)"/>
<use data-text="r" xlink:href="#font_11_96" transform="matrix(9.96264,0,0,-9.96264,218.60398,15.237104)"/>
<use data-text="a" xlink:href="#font_11_28" transform="matrix(9.96264,0,0,-9.96264,223.32627,15.237104)"/>
<use data-text="m" xlink:href="#font_11_75" transform="matrix(9.96264,0,0,-9.96264,228.89539,15.237104)"/>
</svg>
