<svg xmlns="http://www.w3.org/2000/svg" xmlns:xlink="http://www.w3.org/1999/xlink" xmlns:inkscape="http://www.inkscape.org/namespaces/inkscape" version="1.1" width="381.9" height="250.55" viewBox="0 0 381.9 250.55">
<defs>
<path id="font_1_5" d="M.49198915 .40434266C.45498658 .39733888 .44400025 .3653412 .44400025 .3503418 .44400025 .33132936 .45799256 .31433106 .48298646 .31433106 .5109863 .31433106 .5379944 .33833314 .5379944 .3733368 .5379944 .41937257 .48799134 .4423828 .44099427 .4423828 .3809967 .4423828 .34599305 .38934327 .33399964 .3683319 .31498719 .41737367 .2709961 .4423828 .22299195 .4423828 .115997318 .4423828 .057998659 .31433106 .057998659 .28833009 .057998659 .2793274 .06498718 .2763214 .07199097 .2763214 .08099365 .2763214 .083999637 .2813263 .085998538 .287323 .116989139 .38633729 .18299866 .41737367 .22099304 .41737367 .25 .41737367 .27598573 .3983307 .27598573 .35133363 .27598573 .31533814 .23298645 .15530396 .21998596 .107284549 .21199036 .076293949 .18199158 .014251709 .1269989 .014251709 .10699463 .014251709 .085998538 .021270752 .07598877 .027282715 .102996829 .032287599 .12298584 .055282594 .12298584 .08128357 .12298584 .106292728 .10398865 .11729431 .084991458 .11729431 .055999757 .11729431 .02999878 .092285159 .02999878 .058288576 .02999878 .009246826 .083999637-.0107421879 .12599182-.0107421879 .18399048-.0107421879 .21798706 .03729248 .23298645 .06428528 .2579956-.0017547608 .31698609-.0107421879 .34399415-.0107421879 .45199586-.0107421879 .5089874 .11929321 .5089874 .14329529 .5089874 .14830017 .5059967 .15530396 .49598695 .15530396 .4850006 .15530396 .48399354 .1512909 .47898866 .1362915 .45700074 .06428528 .39898683 .014251709 .34700013 .014251709 .31799317 .014251709 .29100038 .032287599 .29100038 .08029175 .29100038 .10229492 .30499269 .15730286 .31399537 .1953125 .31799317 .21331787 .34498597 .32133485 .34700013 .32833863 .35899354 .3643341 .3889923 .41737367 .43998719 .41737367 .45799256 .41737367 .47698976 .41436769 .49198915 .40434266Z"/>
<path id="font_1_6" d="M.5019989 .38536073C.5029907 .3903656 .5049896 .39637757 .5049896 .40237428 .5049896 .41537477 .49598695 .43138124 .47399903 .43138124 .46099855 .43138124 .44299317 .42337037 .43499757 .40437318 .43399049 .40037538 .42399598 .35935975 .41799928 .33735658L.36799623 .13728333C.3600006 .10827637 .3600006 .106277469 .35798646 .09727478 .35699464 .09327698 .31498719 .014251709 .24299622 .014251709 .18099976 .014251709 .18099976 .07727051 .18099976 .09628296 .18099976 .14129639 .19400025 .19030762 .23699951 .30233766 .24499512 .3253479 .25099183 .33935548 .25099183 .35835267 .25099183 .40737916 .21398926 .4423828 .16499329 .4423828 .068984989 .4423828 .0289917 .30033876 .0289917 .28833009 .0289917 .2793274 .035995485 .27633668 .042999269 .27633668 .053985597 .27633668 .054992677 .28233338 .05899048 .29533387 .07998657 .3693695 .11999512 .41737367 .1619873 .41737367 .18598938 .41737367 .18598938 .39837647 .18598938 .3843689 .18598938 .36735536 .18199158 .34934999 .17298889 .3253479 .12599182 .2013092 .11299133 .15930176 .11299133 .11128235 .11299133 .00024414063 .20298767-.0107421879 .23999024-.0107421879 .2889862-.0107421879 .32398988 .01524353 .34199525 .0332489 .32899476-.017745972 .31799317-.0627594 .2789917-.11276245 .24899292-.15286255 .20899964-.18008423 .16499329-.18008423 .13699341-.18008423 .10398865-.16999817 .08999634-.14176941 .14299011-.14176941 .1499939-.09776306 .1499939-.087768558 .1499939-.06576538 .13398743-.051757814 .11199951-.051757814 .08799744-.051757814 .055999757-.07077026 .055999757-.116760257 .055999757-.16899109 .101989749-.20507813 .16499329-.20507813 .2669983-.20507813 .37599183-.117767337 .40499879-.00074768069L.5019989 .38536073Z"/>
<path id="font_1_2" d="M.7579956 .4328766C.7579956 .5910034 .6519928 .7050781 .49499513 .7050781 .2709961 .7050781 .049987794 .47491456 .049987794 .24671936 .049987794 .082595828 .16299439-.022460938 .31399537-.022460938 .5369873-.022460938 .7579956 .2006836 .7579956 .4328766M.32099916 .007537842C.22499085 .007537842 .1459961 .080596927 .1459961 .2217102 .1459961 .27374269 .16299439 .42185975 .24598694 .53596499 .31799317 .6340332 .4139862 .677063 .48799134 .677063 .58599856 .677063 .6669922 .60601809 .6669922 .4709015 .6669922 .40585328 .6409912 .2597351 .5569916 .14663697 .48199464 .046569826 .3899994 .007537842 .32099916 .007537842Z"/>
<path id="font_2_1" d="M.34098817-.23803711C.34098817-.23303223 .33799745-.23002625 .33198548-.22303772 .20298767-.105026248 .1639862 .07498169 .1639862 .24996948 .1639862 .40498353 .19400025 .59298709 .33499146 .72698977 .33898927 .73098757 .34098817 .73399356 .34098817 .7389984 .34098817 .74598696 .33599855 .75 .32899476 .75 .31698609 .75 .22698975 .6779785 .17298889 .568985 .125 .47297669 .100997928 .36997987 .100997928 .25097657 .100997928 .17897034 .10998535 .064971927 .16499329-.053024293 .22399903-.17602539 .31698609-.24902344 .32899476-.24902344 .33599855-.24902344 .34098817-.24502564 .34098817-.23803711Z"/>
<path id="font_3_1" d="M.5499878 .31877137C.5499878 .39183045 .5499878 .66503909 .30499269 .66503909 .05999756 .66503909 .05999756 .39183045 .05999756 .31877137 .05999756 .2467041 .05999756-.021484375 .30499269-.021484375 .5499878-.021484375 .5499878 .2467041 .5499878 .31877137M.30499269 .010513306C.2630005 .010513306 .19499207 .030517579 .17098999 .113601688 .15499878 .17164612 .15499878 .2697296 .15499878 .33177186 .15499878 .39883424 .15499878 .4758911 .16899109 .52993777 .19400025 .6200104 .269989 .6330261 .30499269 .6330261 .35099793 .6330261 .4169922 .6110077 .43899537 .5349426 .45399476 .48190309 .45498658 .408844 .45498658 .33177186 .45498658 .26771546 .45498658 .16664124 .43798829 .1105957 .4099884 .023513794 .33799745 .010513306 .30499269 .010513306Z"/>
<path id="font_1_1" d="M.18199158 .015991211C.18199158-.017044068 .18199158-.09921265 .10798645-.17036438 .101989749-.17636109 .101989749-.17736817 .101989749-.18136597 .101989749-.18836975 .10899353-.19335938 .114990238-.19335938 .12599182-.19335938 .20698548-.115249637 .20698548 .0019989014 .20698548 .06399536 .18499756 .10798645 .14199829 .10798645 .10798645 .10798645 .08799744 .08198547 .08799744 .053985597 .08799744 .025985718 .10798645 0 .14199829 0 .15699768 0 .17199707 .004989624 .18199158 .015991211Z"/>
<path id="font_1_3" d="M.37399293 .3996582H.46398927C.48399354 .3996582 .49398805 .3996582 .49398805 .41766358 .49398805 .43066407 .48399354 .43066407 .46499635 .43066407H.37998963C.3909912 .49082948 .40499879 .5730438 .41799928 .62705996 .4269867 .6660614 .45098878 .68006899 .47099305 .68006899 .47698976 .68006899 .5 .67807009 .5169983 .6660614 .49699403 .66204836 .46798707 .6440582 .46798707 .61105349 .46798707 .5860596 .4869995 .575058 .5059967 .575058 .5329895 .575058 .5609894 .59706118 .5609894 .63505557 .5609894 .68006899 .5169983 .7050781 .46998597 .7050781 .4249878 .7050781 .37998963 .6730652 .35899354 .63204959 .33699037 .5890503 .32998658 .5499878 .30899049 .43066407H.23699951C.21798706 .43066407 .20599365 .43066407 .20599365 .4126587 .20599365 .3996582 .21699524 .3996582 .23498535 .3996582H.30299378C.2749939 .25474549 .23999024 .054855348 .21798706-.049087526 .20599365-.10406494 .18998719-.18008423 .14199829-.18008423 .1269989-.18008423 .10699463-.17407227 .09700012-.16607666 .12199402-.1620636 .14698792-.1410675 .14698792-.111068729 .14698792-.08607483 .12799073-.07507324 .10899353-.07507324 .08198547-.07507324 .053985597-.097076419 .053985597-.1350708 .053985597-.18109131 .099990848-.20507813 .14199829-.20507813 .24398804-.20507813 .29100038-.039093019 .30699159 .04685974L.37399293 .3996582Z"/>
<path id="font_2_2" d="M.2979889 .25097657C.2979889 .3329773 .28599549 .4429779 .23399353 .5539856 .1749878 .6769867 .08198547 .75 .069992069 .75 .05999756 .75 .057998659 .74198916 .057998659 .7389984 .057998659 .73399356 .05999756 .73098757 .066986087 .72398379 .125 .6719818 .23498535 .5359802 .23498535 .25097657 .23498535 .10797119 .20899964-.091033939 .06399536-.22602844 .06199646-.22903443 .057998659-.23303223 .057998659-.23803711 .057998659-.24102783 .05999756-.24902344 .069992069-.24902344 .08198547-.24902344 .17199707-.17703247 .22599793-.06802368 .27398683 .02796936 .2979889 .13098145 .2979889 .25097657Z"/>
<path id="font_4_1" d="M.6749878 .22944641C.69299319 .22944641 .71199038 .22944641 .71199038 .25144959 .71199038 .27246095 .69200137 .27246095 .6749878 .27246095H.12298584C.10598755 .27246095 .085998538 .27246095 .085998538 .25144959 .085998538 .22944641 .10499573 .22944641 .12298584 .22944641H.6749878Z"/>
<path id="font_5_1" d="M.46499635 .14109802C.4909973 .12310791 .49299623 .12310791 .5 .12310791 .5169983 .12310791 .5329895 .1381073 .5329895 .15808106 .5329895 .17807007 .5179901 .18406677 .5099945 .18806458 .45899964 .20904541 .4079895 .23002625 .35598756 .24900818 .45799256 .29096986 .48599244 .30096437 .5039978 .30895997 .5189972 .3159485 .5329895 .3209381 .5329895 .34092713 .5329895 .36090089 .5169983 .37590028 .5 .37590028 .49198915 .37590028 .48599244 .37190248 .47799684 .36689759L.33599855 .27697755C.33699037 .29096986 .34098817 .325943 .34199525 .33792115 .34399415 .35791017 .35198976 .41786195 .35198976 .43484498 .35198976 .45184327 .33699037 .46484376 .31900025 .46484376 .3019867 .46484376 .28599549 .45184327 .28599549 .43484498 .28599549 .43284608 .29499818 .34292604 .29599 .33892823 .29699708 .3279419 .30099488 .28996278 .3019867 .27697755L.1599884 .36689759C.1519928 .37190248 .1459961 .37590028 .13798523 .37590028 .12098694 .37590028 .10499573 .36090089 .10499573 .34092713 .10499573 .3209381 .11999512 .3149414 .12799073 .31095887 .1789856 .28996278 .22999573 .26898194 .28199769 .25 .17999268 .20803833 .1519928 .19804383 .13398743 .19004822 .11898804 .18305969 .10499573 .17807007 .10499573 .15808106 .10499573 .1381073 .12098694 .12310791 .13798523 .12310791 .1459961 .12310791 .16299439 .1341095 .1749878 .14208985 .18899536 .15008545 .22299195 .17207337 .23599243 .18106079 .2689972 .20204163 .2809906 .21003723 .3019867 .22203064 .30099488 .20803833 .29699708 .17306519 .29599 .16108704L.28599549 .06416321C.28599549 .047164918 .3019867 .034179689 .31900025 .034179689 .33699037 .034179689 .35198976 .047164918 .35198976 .06416321 .35198976 .06517029 .34298707 .15509033 .34199525 .16007996 .34098817 .17106629 .33699037 .20904541 .33599855 .22203064L.46499635 .14109802Z"/>
<path id="font_1_4" d="M.04598999-.12519837C.038986207-.15431214 .036987306-.16334534-.006011963-.16334534-.01701355-.16334534-.029006958-.16334534-.029006958-.18135071-.029006958-.18534851-.027008057-.19433594-.01600647-.19433594L.026992798-.19233704C.032989503-.19134522 .055999757-.19134522 .069992069-.19134522 .08699036-.19134522 .10398865-.19233704 .12098694-.19233704 .13699341-.19233704 .1539917-.19433594 .16899109-.19433594 .1749878-.19433594 .18798828-.19433594 .18798828-.17634583 .18798828-.16334534 .17799378-.16334534 .16099549-.16334534 .11399841-.16334534 .11399841-.15631104 .11399841-.14727783 .11399841-.14125061 .12098694-.114151 .125-.098083499L.1619873 .051254274C.17199707 .030258179 .19999695-.0107421879 .25698854-.0107421879 .37399293-.0107421879 .5019989 .13027954 .5019989 .28033448 .5019989 .38237 .43899537 .4423828 .3639984 .4423828 .34298707 .4423828 .29299928 .43737794 .23199463 .3693695 .21699524 .42536927 .17098999 .4423828 .13699341 .4423828 .09498596 .4423828 .07398987 .41137696 .05999756 .3843689 .042999269 .34934999 .0289917 .29234315 .0289917 .28833009 .0289917 .2793274 .035995485 .27633668 .042999269 .27633668 .053985597 .27633668 .055999757 .28134156 .06098938 .30134584 .07998657 .3803711 .100997928 .41737367 .1349945 .41737367 .16499329 .41737367 .16499329 .38536073 .16499329 .37036134 .16499329 .36236573 .1639862 .34735108 .1619873 .33935548L.04598999-.12519837M.22698975 .3083496C.23199463 .32835389 .23199463 .33035279 .24499512 .34535218 .27198792 .379364 .31698609 .41737367 .3619995 .41737367 .40899659 .41737367 .42799378 .37036134 .42799378 .323349 .42799378 .27833558 .3999939 .15429688 .36898805 .10127258 .33499146 .044265748 .29299928 .014251709 .2559967 .014251709 .19099427 .014251709 .1749878 .09327698 .1749878 .10028076 .1749878 .106277469 .1769867 .11128235 .17799378 .11628723L.22698975 .3083496Z"/>
<path id="font_2_3" d="M.70799258 .3310089C.7220001 .3310089 .7409973 .3310089 .7409973 .35202027 .7409973 .37402345 .71899417 .37402345 .70399478 .37402345H.09399414C.07899475 .37402345 .056991579 .37402345 .056991579 .35202027 .056991579 .3310089 .07699585 .3310089 .08999634 .3310089H.70799258M.70399478 .12695313C.71899417 .12695313 .7409973 .12695313 .7409973 .14894104 .7409973 .1699524 .7220001 .1699524 .70799258 .1699524H.08999634C.07699585 .1699524 .056991579 .1699524 .056991579 .14894104 .056991579 .12695313 .07899475 .12695313 .09399414 .12695313H.70399478Z"/>
<path id="font_5_2" d="M.31399537 .47006227C.32099916 .48506166 .32299806 .49606324 .32299806 .50205996 .32299806 .53305056 .29499818 .5590515 .2619934 .5590515 .22200012 .5590515 .20999146 .5240631 .20599365 .51005557L.06599426 .08206177C.06399536 .076049808 .06098938 .0680542 .06098938 .0640564 .06098938 .047058107 .100997928 .0390625 .101989749 .0390625 .11099243 .0390625 .114990238 .048049928 .11898804 .05606079L.31399537 .47006227Z"/>
<path id="font_6_85" d="M.3929901-.23400879C.3929901-.22801209 .3899994-.2250061 .37799073-.2130127 .24699402-.0900116 .21099854 .08799744 .21099854 .25 .21099854 .4169922 .25 .59098818 .37399293 .71099856 .3919983 .7279968 .3929901 .72898867 .3929901 .7350006 .3929901 .746994 .38198854 .75 .37298585 .75 .35198976 .75 .29899598 .69999697 .28799439 .68899539 .18798828 .5950012 .10998535 .43998719 .10998535 .25 .10998535 .008987427 .23199463-.13800049 .28399659-.18701172 .2919922-.19400025 .35099793-.25 .37298585-.25 .3769989-.25 .3929901-.25 .3929901-.23400879Z"/>
<path id="font_6_28" d="M.56900027 .025131226C.56900027 .0491333 .5529938 .0491333 .54299929 .0491333 .47898866 .050125123 .47898866 .060134889 .47898866 .08413696V.29812623C.47898866 .38612367 .40699769 .453125 .25299073 .453125 .19599915 .453125 .067993167 .45111085 .067993167 .3591156 .067993167 .31411744 .101989749 .29312135 .1329956 .29312135 .16699219 .29312135 .19799805 .3171234 .19799805 .35812379 .19799805 .38711549 .18099976 .40411378 .17799378 .40711976 .18798828 .40911866 .21199036 .41311646 .24899292 .41311646 .32099916 .41311646 .3619995 .37712098 .3619995 .29812623V.26612855C.19599915 .26612855 .027999878 .22312927 .027999878 .11213684 .027999878 .013137817 .15299988-.005859375 .22499085-.005859375 .30099488-.005859375 .35299684 .027130127 .37998963 .0741272 .37998963 .04798889 .37998963 0 .4869995 0H.5359955C.5549927 0 .56900027 0 .56900027 .024993897V.025131226M.3619995 .13899231C.3619995 .033996583 .24598694 .033996583 .24198914 .033996583 .19099427 .033996583 .14898682 .066986087 .14898682 .11199951 .14898682 .14498902 .16699219 .22299195 .3619995 .23199463V.13899231Z"/>
<path id="font_6_86" d="M.34899903 .25C.34899903 .4909973 .22698975 .6380005 .1749878 .68699648 .16699219 .69400027 .10798645 .75 .085998538 .75 .07899475 .75 .06599426 .7480011 .06599426 .73399356 .06599426 .7279968 .069992069 .723999 .07998657 .71398928 .20199585 .59599307 .24798584 .43699647 .24798584 .25 .24798584 .08299255 .20899964-.09100342 .084991458-.2110138 .066986087-.22801209 .06599426-.2290039 .06599426-.23400879 .06599426-.2480011 .07798767-.25 .085998538-.25 .10699463-.25 .1599884-.2000122 .17098999-.18901062 .2709961-.09500122 .34899903 .05999756 .34899903 .25Z"/>
<path id="font_6_84" d="M.61698916 .22218323C.61698916 .354187 .526001 .4501953 .375 .4501953 .2939911 .45033265 .23899842 .41633607 .21998596 .40234376V.4501953L.040985109 .4423828V.39337159C.06098938 .39337159 .07699585 .39337159 .08999634 .39038087 .10899353 .38737489 .10899353 .3763733 .10899353 .3553772V-.14453125H.040985109V-.19354248L.16699219-.1905365 .2939911-.19354248V-.14453125H.22599793V.03942871C.2849884-.005859375 .33999635-.005859375 .35899354-.005859375 .5159912-.005859375 .61698916 .089141849 .61698916 .22216797V.22218323M.48399354 .22315979C.48399354 .08413696 .41299439 .03413391 .34700013 .03413391 .29599 .03413391 .25299073 .06314087 .22599793 .104141239V.34518434C.24398804 .3671875 .29100038 .4071808 .35899354 .4071808 .42900086 .4071808 .48399354 .34518434 .48399354 .22315979Z"/>
<path id="font_6_96" d="M.45498658 .36618043C.45498658 .41719056 .40299989 .4501953 .34399415 .4501953 .27398683 .4501953 .23098755 .39918519 .20899964 .34118653H.20799256V.4501953L.040985109 .4423828V.39337159C.100997928 .39337159 .10899353 .39337159 .10899353 .3543396V.04899597H.040985109V0L.16899109 .0029907227C.19400025 .0029907227 .2519989 .0029907227 .30499269 0V.04899597H.21998596V.21818543C.21998596 .29125978 .24699402 .40737916 .34399415 .41036988 .33299256 .39898683 .32798768 .38198854 .32798768 .3659973 .32798768 .32199098 .36299134 .3019867 .3909912 .3019867 .4229889 .3019867 .45498658 .32398988 .45498658 .3659973V.36618043Z"/>
<path id="font_6_66" d="M.2919922 0V.04899597H.23098755V.4501953L.054992677 .4423828V.39337159C.11299133 .39337159 .11999512 .39337159 .11999512 .3543396V.04899597H.051986696V0C.11898804 .0019989014 .13198853 .0029907227 .17399597 .0029907227 .22299195 .0029907227 .23599243 .0019989014 .2919922 0M.24198914 .6053314C.24198914 .65234377 .20399475 .68434146 .1639862 .68434146 .12199402 .68434146 .085998538 .6503296 .085998538 .6063385 .085998538 .55934146 .12399292 .52734377 .1639862 .52734377 .20599365 .52734377 .24198914 .56134036 .24198914 .6053314Z"/>
<path id="font_6_75" d="M.95899966-.0002746582V.048721315H.8909912V.30471803C.8909912 .42271424 .81999209 .4497223 .7319946 .4497223 .6279907 .4497223 .57699587 .38671876 .55799868 .3557129 .5359955 .4457245 .44799806 .4497223 .4039917 .4497223 .27999879 .4497223 .23098755 .35972596 .22399903 .34472657H.22299195V.4497223L.049987794 .44172669V.39271546C.10998535 .39271546 .117996219 .39271546 .117996219 .353714V.048721315H.049987794V-.0002746582L.17599488 .0027160645 .30299378-.0002746582V.048721315H.23498535V.25372315C.23498535 .36471559 .32699586 .40971376 .3869934 .40971376 .4249878 .40971376 .44599916 .38972474 .44599916 .3137207V.048721315H.37799073V-.0002746582L.5039978 .0027160645 .6309967-.0002746582V.048721315H.5629883V.25372315C.5629883 .36471559 .6549988 .40971376 .71499636 .40971376 .7529907 .40971376 .7739868 .38972474 .7739868 .3137207V.048721315H.70599368V-.0002746582L.83200076 .0027160645 .95899966-.0002746582Z"/>
<path id="font_6_72" d="M.29899598 0V.04899597H.23098755V.69433596L.051986696 .6855469V.63653567C.11199951 .63653567 .11999512 .63653567 .11999512 .5975647V.04899597H.051986696V0L.1749878 .0029907227 .29899598 0Z"/>
<path id="font_6_44" d="M.24299622 .36532594C.24299622 .41133119 .20599365 .44433595 .16499329 .44433595 .11898804 .44433595 .085998538 .40733338 .085998538 .366333 .085998538 .32232667 .12098694 .287323 .16499329 .287323 .20799256 .287323 .24299622 .32232667 .24299622 .36532594M.24299622 .07798767C.24299622 .12399292 .20599365 .15699768 .16499329 .15699768 .11898804 .15699768 .085998538 .11999512 .085998538 .07899475 .085998538 .032989503 .12298584 0 .1639862 0 .20999146 0 .24299622 .036987306 .24299622 .07798767Z"/>
<path id="font_6_77" d="M.6299896-.0002746582V.048721315H.56199648V.30471803C.56199648 .4237213 .48999024 .4497223 .40299989 .4497223 .27999879 .4497223 .23098755 .35972596 .22399903 .34472657H.22299195V.4497223L.049987794 .44172669V.39271546C.10998535 .39271546 .117996219 .39271546 .117996219 .353714V.048721315H.049987794V-.0002746582L.17599488 .0027160645 .30299378-.0002746582V.048721315H.23498535V.25372315C.23498535 .36572267 .32699586 .40971376 .3869934 .40971376 .4249878 .40971376 .44499208 .38871766 .44499208 .3137207V.048721315H.3769989V-.0002746582L.5029907 .0027160645 .6299896-.0002746582Z"/>
<path id="font_6_47" d="M.61499026 0V.04899597C.5549927 .04899597 .5469971 .04899597 .5469971 .088012699V.69433596L.36799623 .6855469V.63653567C.42799378 .63653567 .43598939 .63653567 .43598939 .5976715V.40518189C.3919983 .43719483 .34498597 .4501953 .29699708 .4501953 .13398743 .4501953 .038986207 .35118104 .038986207 .22216797 .038986207 .089141849 .1329956-.005859375 .2849884-.005859375 .34799195-.005859375 .397995 .018127442 .42999269 .044128419V-.005859375L.61499026 0M.42999269 .10899353C.4079895 .074142459 .3600006 .03413391 .29599 .03413391 .17199707 .03413391 .17199707 .15414429 .17199707 .22015381 .17199707 .27816773 .17298889 .32118226 .19898987 .3581848 .22499085 .39819337 .272995 .41018678 .30799867 .41018678 .35798646 .41018678 .39898683 .3881836 .42999269 .34918214V.10899353Z"/>
<path id="font_6_105" d="M.3929901 .123184207V.1762085H.34199525V.12617493C.34199525 .055145265 .30599977 .037139894 .2809906 .037139894 .22299195 .037139894 .22299195 .09716797 .22299195 .1211853V.3953247H.37399293V.44433595H.22299195V.6357422H.17199707C.17098999 .5415344 .12399292 .43832398 .021987915 .43533326V.3953247H.10598755V.123184207C.10598755 .009140015 .20498657-.005859375 .2669983-.005859375 .34498597-.005859375 .3929901 .05014038 .3929901 .123184207Z"/>
<path id="font_6_59" d="M.57499697 .39517213C.57499697 .42118836 .5549927 .45619203 .5089874 .45619203 .45999146 .45619203 .41799928 .43218995 .39898683 .41818238 .35699464 .44319154 .31098939 .4501953 .2630005 .4501953 .10998535 .4501953 .057998659 .36715699 .057998659 .30212403 .057998659 .24708557 .09199524 .21107483 .10998535 .19606018 .08898926 .17304993 .07699585 .13902283 .07699585 .10900879 .07699585 .06599426 .09799194 .031967164 .11898804 .012954712 .042999269-.008056641 .032989503-.051071168 .032989503-.0730896 .032989503-.13311768 .101989749-.20114136 .29499818-.20114136 .46998597-.2010498 .55799868-.14604187 .55799868-.0700531 .55799868-.03504944 .54499819 .026947022 .47599793 .05895996 .41799928 .08496094 .36499024 .08496094 .2659912 .08496094H.21598816C.18399048 .08496094 .16999817 .08496094 .15299988 .09802246 .13798523 .111083988 .12998963 .12817383 .12998963 .14828491 .12998963 .1683197 .13798523 .17930603 .13798523 .17930603 .1749878 .16030884 .21899414 .15332031 .2630005 .15332031 .41600038 .15332031 .46798707 .23631287 .46798707 .3013153 .46798707 .34231568 .44898988 .37532044 .42799378 .39631654 .45498658 .41018678 .47499085 .41218568 .48799134 .41418458 .4869995 .41018678 .4850006 .40419007 .4850006 .39419557 .4850006 .36721803 .5059967 .3492279 .5299988 .3492279 .5519867 .3492279 .57499697 .36521913 .57499697 .39520265V.39517213M.35299684 .3022461C.35299684 .25727845 .35299684 .1933136 .2630005 .1933136 .17298889 .1933136 .17298889 .25727845 .17298889 .30125428 .17298889 .34622193 .17298889 .41018678 .2630005 .41018678 .35299684 .41018678 .35299684 .34622193 .35299684 .3022461M.46899415-.07408142C.46899415-.10610962 .43199159-.16113281 .29599-.16113281 .1639862-.16113281 .12199402-.1111145 .12199402-.07208252 .12199402-.014053345 .18598938-.014053345 .20098877-.014053345H.32199098C.35299684-.014007568 .46899415-.014007568 .46899415-.07400513V-.07408142Z"/>
<path id="font_6_50" d="M.5089874 .11605835C.5089874 .13604737 .4889984 .13604737 .48298646 .13604737 .46499635 .13604737 .46299745 .13005066 .45700074 .11605835 .43399049 .06410217 .37298585 .037139894 .30999757 .037139894 .16799927 .037139894 .1659851 .16601563 .1659851 .21496582H.47599793C.49699403 .21496582 .5089874 .21496582 .5089874 .2429657 .5089874 .26498414 .5069885 .35305787 .44198609 .4071045 .39698792 .4441223 .33699037 .453125 .28799439 .453125 .116989139 .453125 .032989503 .345047 .032989503 .22497559 .032989503 .09408569 .13198853-.005859375 .3019867-.005859375 .46699525-.005859375 .5089874 .1000824 .5089874 .11605835M.41099549 .25097657H.1659851C.16799927 .29701234 .17298889 .41311646 .28799439 .41311646 .40499879 .41311646 .40899659 .29100038 .41099549 .25097657Z"/>
<path id="font_6_112" d="M.59599307 .3953247V.44433595C.56799319 .44132997 .54299929 .44132997 .5149994 .44132997 .48599244 .44132997 .45399476 .44132997 .4249878 .44433595V.3953247C.45298768 .3953247 .46199037 .39033509 .47099305 .38632203 .46998597 .38232423 .46998597 .38032533 .46499635 .37231446L.34498597 .123184207 .21398926 .3953247H.2659912V.44433595L.14299011 .44132997C.10699463 .44132997 .08699036 .44132997 .027999878 .44433595V.3953247H.09098816L.269989 .023132325C.2789917 .004119873 .2869873-.0048828127 .31199647-.0048828127 .33699037-.0048828127 .34498597 .004119873 .35398866 .023132325L.522995 .37431336C.5299988 .38832093 .5329895 .3953247 .59599307 .3953247Z"/>
<path id="font_6_81" d="M.55799868 .21812439C.55799868 .3491211 .46598817 .453125 .29599 .453125 .11999512 .453125 .032989503 .3441162 .032989503 .21812439 .032989503 .09413147 .12298584-.005859375 .29499818-.005859375 .47399903-.005859375 .55799868 .09913635 .55799868 .21812439M.4249878 .22912598C.4249878 .14312744 .4249878 .037139894 .29599 .037139894 .1659851 .037139894 .1659851 .14213562 .1659851 .22912598 .1659851 .3131256 .1659851 .41311646 .29499818 .41311646 .4249878 .41311646 .4249878 .3131256 .4249878 .22912598Z"/>
<path id="font_7_98" d="M.36999513 .12831116C.36999513 .17330933 .34999085 .20030213 .32798768 .22329712 .2939911 .25628663 .2579956 .26327516 .18399048 .2772827 .1579895 .28227235 .084991458 .29527284 .084991458 .35224916 .084991458 .38424684 .10798645 .426239 .19898987 .426239 .30699159 .426239 .31399537 .34326173 .31599427 .31826783 .31698609 .3062744 .31698609 .3002777 .32998658 .3002777 .34399415 .3002777 .34399415 .30726625 .34399415 .32626344V.4222412C.34399415 .4392395 .34399415 .4482422 .33198548 .4482422 .32699586 .4482422 .32499696 .4482422 .31199647 .43623353 .30999757 .43423463 .30099488 .42523194 .29499818 .4202423 .2639923 .44223023 .23298645 .4482422 .19898987 .4482422 .066986087 .4482422 .033996583 .37524415 .033996583 .32426454 .033996583 .29226686 .04798889 .26628114 .070999149 .24429322 .10499573 .21330261 .14299011 .20629883 .19400025 .19729615 .24499512 .18730164 .2619934 .18431092 .28399659 .16731262 .2939911 .15931702 .31900025 .14031983 .31900025 .10229492 .31900025 .014251709 .21798706 .014251709 .20399475 .014251709 .101989749 .014251709 .07598877 .0993042 .06399536 .15332031 .06098938 .16331482 .05999756 .16931153 .04798889 .16931153 .033996583 .16931153 .033996583 .16131592 .033996583 .14331055V.01524353C.033996583-.0017547608 .033996583-.0107421879 .04598999-.0107421879 .051986696-.0107421879 .052993776-.009750366 .070999149 .009246826 .07499695 .01524353 .085998538 .028259278 .09098816 .03326416 .1329956-.007751465 .1789856-.0107421879 .20399475-.0107421879 .32699586-.0107421879 .36999513 .061279298 .36999513 .12831116Z"/>
<path id="font_7_72" d="M.26098634 0V.0309906C.19499207 .0309906 .18399048 .0309906 .18399048 .07701111V.69433596L.035995485 .6826172V.6516113C.10398865 .6516113 .11299133 .64460757 .11299133 .5956421V.07696533C.11299133 .0309906 .101989749 .0309906 .035995485 .0309906V0C.08299255 .0019989014 .101989749 .0029907227 .147995 .0029907227 .19499207 .0029907227 .21199036 .0019989014 .26098634 0Z"/>
<path id="font_7_81" d="M.48399354 .21324158C.48399354 .34423829 .37998963 .4482422 .25698854 .4482422 .12998963 .4482422 .0289917 .3412323 .0289917 .21324158 .0289917 .08824158 .1329956-.0107421879 .2559967-.0107421879 .3829956-.0107421879 .48399354 .09024048 .48399354 .21324158M.397995 .22224427C.397995 .1852417 .397995 .12724304 .37298585 .08325195 .34498597 .037246705 .29899598 .01725769 .25698854 .01725769 .20698548 .01725769 .16499329 .042251588 .14199829 .08125305 .115997318 .12324524 .114990238 .17623902 .114990238 .22224427 .114990238 .25924684 .114990238 .3162384 .13999939 .35723878 .16999817 .40823365 .21998596 .42323304 .2559967 .42323304 .31298829 .42323304 .35398866 .39123536 .37399293 .35723878 .39698792 .31523133 .397995 .26423646 .397995 .22224427Z"/>
<path id="font_7_84" d="M.5359955 .21557617C.5359955 .34158326 .43798829 .4423828 .31999208 .4423828 .2659912 .4423828 .21598816 .42037965 .17799378 .37858583V.4423828L.02999878 .43066407V.3996582C.100997928 .3996582 .10699463 .39363099 .10699463 .35058595V-.116989139C.10699463-.16308594 .09599304-.16308594 .02999878-.16308594V-.1940918C.07699585-.1920929 .09599304-.19110108 .14399719-.19110108 .19198609-.19110108 .20498657-.1920929 .2579956-.1940918V-.16308594C.19198609-.16308594 .18099976-.16308594 .18099976-.116989139V.048187257C.20698548 .022232056 .24099732-.0107421879 .30699159-.0107421879 .42599488-.0107421879 .5359955 .085113529 .5359955 .21585083V.21557617M.44999696 .21585083C.44999696 .1020813 .38198854 .014251709 .30099488 .014251709 .2559967 .014251709 .21798706 .04019165 .19400025 .07513428 .18099976 .09509277 .18099976 .097091678 .18099976 .11604309V.3356018C.21499634 .39437867 .269989 .41436769 .31199647 .41436769 .3899994 .41436769 .44999696 .32437135 .44999696 .21636963V.21585083Z"/>
<path id="font_7_50" d="M.4269867 .11936951C.4269867 .12637329 .42199708 .13237 .41299439 .13237 .40299989 .13237 .3999939 .12536621 .39898683 .12136841 .36499024 .019256592 .27598573 .01725769 .26098634 .01725769 .21299744 .01725769 .17199707 .044281007 .14898682 .078323367 .115997318 .12736511 .114990238 .18743897 .114990238 .22949219H.3999939C.42199708 .22949219 .4269867 .22949219 .4269867 .25048829 .4269867 .35333253 .37098695 .4482422 .24299622 .4482422 .12298584 .4482422 .0289917 .3443451 .0289917 .22047425 .0289917 .08932495 .13398743-.0107421879 .2559967-.0107421879 .37799073-.0107421879 .4269867 .096343997 .4269867 .11936951M.35899354 .253479H.115997318C.125 .40725709 .21499634 .42323304 .24299622 .42323304 .2979889 .42323304 .35798646 .38130189 .35899354 .253479Z"/>
<path id="font_2_4" d="M.3889923 .120285037C.3889923 .10227966 .3889923 .09927368 .37399293 .07827759 .34298707 .0332489 .29699708 .014251709 .25698854 .014251709 .21398926 .014251709 .17399597 .038253786 .147995 .08027649 .12199402 .123291019 .11999512 .18229676 .11999512 .21430969 .11999512 .26132203 .12599182 .3143463 .1519928 .35435487 .17399597 .3863678 .21499634 .41737367 .2679901 .41737367 .30999757 .41737367 .34999085 .39637757 .3769989 .35835267 .3889923 .3423462 .3889923 .34135438 .3889923 .32234193V.120285037M.3919983 .38336183C.3869934 .38937379 .34199525 .4423828 .2639923 .4423828 .14099121 .4423828 .033996583 .34436036 .033996583 .21531677 .033996583 .090270999 .13398743-.0107421879 .25299073-.0107421879 .32598878-.0107421879 .37098695 .03225708 .3889923 .053268434V-.011001587L.5399933 0V.0309906C.47200013 .0309906 .46299745 .037994386 .46299745 .087020877V.69433596L.31498719 .68333438V.6523285C.3829956 .6523285 .3919983 .6453247 .3919983 .5962982V.38336183Z"/>
<path id="font_8_1" d="M.19400025-.014007568C.19400025 .0009918213 .19400025 .022994996 .17199707 .022994996 .14898682 .022994996 .14898682 .0019989014 .14898682-.014007568V-.5860596C.14898682-.60105898 .14898682-.6230469 .17098999-.6230469 .19400025-.6230469 .19400025-.6020508 .19400025-.5860596V-.014007568Z"/>
<path id="font_9_1" d="M.09700012-.12121582C.08999634-.14730835 .08898926-.15434265 .04598999-.15434265 .032989503-.15434265 .026992798-.15434265 .022994996-.16033936 .020996094-.16433716 .016998291-.17733765 .016998291-.18034363 .017990113-.18334961 .018997193-.19433594 .032989503-.19433594 .06098938-.19433594 .09399414-.19033814 .12298584-.19033814 .14099121-.19033814 .1599884-.19134522 .17799378-.19134522 .19499207-.19134522 .21499634-.19433594 .23199463-.19433594 .23799134-.19433594 .24499512-.19433594 .24899292-.18734741 .25099183-.18434143 .25498963-.17234802 .25498963-.16835022 .2519989-.15434265 .24198914-.15434265 .22499085-.15434265 .20098877-.15434265 .1749878-.15434265 .1749878-.14228821 .1749878-.13726807 .18199158-.11117554 .18598938-.09611511L.22200012 .050231935C.24598694 .014221191 .2829895-.009765625 .33198548-.009765625 .46398927-.009765625 .598999 .12828064 .598999 .2713318 .598999 .37538148 .526001 .44140626 .43798829 .44140626 .35699464 .44140626 .2939911 .37638856 .2889862 .3703766 .2709961 .42939759 .20899964 .44140626 .17999268 .44140626 .13398743 .44140626 .10998535 .4084015 .09700012 .38638307 .07299805 .3443756 .06098938 .29234315 .06098938 .28834535 .06098938 .27734376 .069992069 .27334596 .07899475 .27334596 .09498596 .27334596 .09599304 .28034974 .100997928 .2963562 .12199402 .37939454 .1459961 .4084015 .1769867 .4084015 .21299744 .4084015 .21299744 .36738587 .21299744 .3573761 .21299744 .34036256 .21199036 .33737184 .20999146 .32836915L.09700012-.12121582M.2849884 .30134584C.2899933 .31835938 .2899933 .32035829 .30799867 .34036256 .33999635 .37638856 .3880005 .4084015 .43499757 .4084015 .48298646 .4084015 .5139923 .37138368 .5139923 .31036378 .5139923 .27633668 .49398805 .16529846 .45498658 .104263309 .42099 .052246095 .37399293 .023223877 .33198548 .023223877 .25698854 .023223877 .23699951 .101257327 .23699951 .10926819 .23699951 .11427307 .23899842 .120269779 .23999024 .12426758L.2849884 .30134584Z"/>
<path id="font_10_1" d="M.6009979 .31976319C.6009979 .3918152 .6009979 .6660156 .33999635 .6660156 .07899475 .6660156 .07899475 .3918152 .07899475 .31976319 .07899475 .2467041 .07899475-.022460938 .33999635-.022460938 .6009979-.022460938 .6009979 .2467041 .6009979 .31976319M.33999635 .010528564C.30299378 .010528564 .21899414 .023544312 .19400025 .12461853 .17999268 .17866516 .1789856 .24971009 .1789856 .33177186 .1789856 .405838 .1789856 .47488404 .19499207 .5319214 .21998596 .6159973 .29699708 .63301089 .33999635 .63301089 .4139862 .63301089 .46699525 .5949707 .4869995 .5249176 .5009918 .47387696 .5009918 .39082337 .5009918 .33177186 .5009918 .26371766 .5009918 .18266297 .48599244 .12261963 .45999146 .025543213 .37998963 .010528564 .33999635 .010528564Z"/>
<path id="font_6_35" d="M.61698916 .22207642C.61698916 .35716249 .519989 .4501953 .37199403 .4501953 .2919922 .4501953 .23899842 .41618348 .21998596 .4021759V.69433596L.040985109 .6863251V.6373291C.100997928 .6373291 .10899353 .6373291 .10899353 .5982971V0H.1599884L.20698548 .056991579C.23899842 .025131226 .28799439-.005859375 .35899354-.005859375 .5149994-.005859375 .61698916 .088134769 .61698916 .22216797V.22207642M.48399354 .22416687C.48399354 .18215943 .48399354 .13014221 .46299745 .09414673 .42999269 .038131715 .36898805 .03413391 .34899903 .03413391 .2869873 .03413391 .24699402 .072143558 .22599793 .104141239V.34617616C.25099183 .3781891 .29899598 .41018678 .3600006 .41018678 .48399354 .41018678 .48399354 .2901764 .48399354 .22416687Z"/>
<path id="font_6_109" d="M.6299896 0V.04899597C.56999209 .04899597 .56199648 .04899597 .56199648 .088012699V.4501953L.3769989 .4423828V.39337159C.43699647 .39337159 .44499208 .39337159 .44499208 .35437013V.16433716C.44499208 .08433533 .3929901 .03413391 .31599427 .03413391 .23899842 .03413391 .23498535 .056259157 .23498535 .10932922V.4501953L.049987794 .4423828V.39337159C.10998535 .39337159 .117996219 .39337159 .117996219 .35437013V.12333679C.117996219 .014129639 .20399475-.005859375 .30099488-.005859375 .33198548-.005859375 .3999939-.005859375 .45098878 .06933594V-.005859375L.6299896 0Z"/>
<path id="font_6_98" d="M.4269867 .14027405C.4269867 .19128418 .397995 .22328186 .37998963 .23828125 .33499146 .27627564 .30299378 .28128053 .22399903 .294281 .17599488 .3022766 .11299133 .31228639 .11299133 .35728456 .11299133 .41711427 .20599365 .41711427 .22799683 .41711427 .33999635 .41711427 .34399415 .35827638 .34599305 .33128358 .34700013 .3173828 .36099244 .3173828 .37098695 .3173828 .3959961 .3173828 .39698792 .32237245 .39698792 .3463745V.42411805C.39698792 .4421234 .39698792 .453125 .3769989 .453125 .36698915 .453125 .35099793 .44511415 .33299256 .43511964 .30099488 .44911195 .2619934 .453125 .22898865 .453125 .19799805 .4532776 .038986207 .4532776 .038986207 .32128907 .038986207 .2162323 .16999817 .19421387 .20498657 .18821717 .2869873 .1742096 .35299684 .16320801 .35299684 .106170658 .35299684 .03413391 .25898744 .03413391 .23699951 .03413391 .18598938 .03413391 .12098694 .0471344 .09199524 .13919068 .08699036 .15620423 .085998538 .15919495 .06498718 .15919495 .038986207 .15919495 .038986207 .15319824 .038986207 .12918091V.023132325C.038986207 .005126953 .038986207-.005859375 .05899048-.005859375 .06599426-.005859375 .067993167-.005859375 .08999634 .008132935L.116989139 .025131226C.1639862-.005859375 .21699524-.005859375 .23699951-.005859375 .2669983-.005859375 .4269867-.005859375 .4269867 .1401825V.14027405Z"/>
<path id="font_6_55" d="M.45098878 .6111908C.45098878 .65615847 .4119873 .70014956 .33399964 .70014956 .22898865 .70014956 .12098694 .65515139 .12098694 .5432434V.44433595H.04399109V.3953247H.12098694V.04899597H.052993776V0L.18099976 .0029907227C.20599365 .0029907227 .2639923 .0029907227 .31698609 0V.04899597H.23199463V.3953247H.35099793V.44433595H.22599793V.5432434C.22599793 .65216067 .3039856 .66015627 .32899476 .66015627 .33198548 .66015627 .34199525 .65815737 .34199525 .65815737 .34199525 .65815737 .34199525 .65615847 .33999635 .65415957 .32899476 .6411438 .32398988 .6271515 .32398988 .611145 .32398988 .56915286 .35798646 .54714968 .3869934 .54714968 .41999818 .54714968 .45098878 .57115176 .45098878 .611145V.6111908Z"/>
<path id="font_6_43" d="M.49198915 .11613464C.49198915 .13212586 .47698976 .13212586 .46598817 .13212586 .44599916 .13212586 .44599916 .13113404 .43798829 .11312866 .41799928 .06512451 .37298585 .037139894 .31399537 .037139894 .17199707 .037139894 .17199707 .18112183 .17199707 .22612 .17199707 .28611756 .17298889 .41011048 .3039856 .41011048 .31098939 .41011048 .36499024 .40911866 .36499024 .40411378L.3619995 .39912416C.35299684 .38812257 .34899903 .3721161 .34899903 .35812379 .34899903 .3171234 .37998963 .29312135 .4139862 .29312135 .44499208 .29312135 .47898866 .31411744 .47898866 .3591156 .47898866 .453125 .33898927 .453125 .2999878 .453125 .10798645 .453125 .038986207 .33111573 .038986207 .22212219 .038986207 .09613037 .1289978-.005859375 .29499818-.005859375 .33198548-.005859375 .3809967 .0001373291 .4229889 .026138306 .47999574 .06098938 .49198915 .11299133 .49198915 .115997318V.11613464Z"/>
</defs>
<path transform="matrix(1,0,0,-1,49.10534,139.41806)" stroke-width=".79701" stroke-linecap="butt" stroke-miterlimit="10" stroke-linejoin="miter" fill="none" stroke="#b2b3b2" d="M-5.66927 0H154.63193"/>
<path transform="matrix(1,0,0,-1,201.27219,139.41806)" d="M5.44046 0 1.28699 1.5706 2.66432 0 1.28699-1.5706Z" fill="#b2b3b2"/>
<path transform="matrix(1,0,0,-1,201.27219,139.41806)" stroke-width=".79701" stroke-linecap="butt" stroke-miterlimit="10" stroke-linejoin="miter" fill="none" stroke="#b2b3b2" d="M5.44046 0 1.28699 1.5706 2.66432 0 1.28699-1.5706Z"/>
<use data-text="x" xlink:href="#font_1_5" transform="matrix(8.966376,0,0,-8.966376,211.56671,146.99765)"/>
<path transform="matrix(1,0,0,-1,49.10534,139.41806)" stroke-width=".79701" stroke-linecap="butt" stroke-miterlimit="10" stroke-linejoin="miter" fill="none" stroke="#b2b3b2" d="M0-56.69362V97.93831"/>
<path transform="matrix(0,-1,-1,-0,49.10534,43.944818)" d="M5.44046 0 1.28699 1.5706 2.66432 0 1.28699-1.5706Z" fill="#b2b3b2"/>
<path transform="matrix(0,-1,-1,-0,49.10534,43.944818)" stroke-width=".79701" stroke-linecap="butt" stroke-miterlimit="10" stroke-linejoin="miter" fill="none" stroke="#b2b3b2" d="M5.44046 0 1.28699 1.5706 2.66432 0 1.28699-1.5706Z"/>
<use data-text="y" xlink:href="#font_1_6" transform="matrix(8.966376,0,0,-8.966376,40.52602,38.427919)"/>
<use data-text="O" xlink:href="#font_1_2" transform="matrix(8.966376,0,0,-8.966376,38.31719,149.06494)" fill="#a6a6a6"/>
<path transform="matrix(1,0,0,-1,49.10534,139.41806)" stroke-width=".3985" stroke-linecap="butt" stroke-miterlimit="10" stroke-linejoin="miter" fill="none" stroke="#bfbfbf" d="M-2.83484 51.20253 153.07259-94.25824"/>
<path transform="matrix(1,0,0,-1,49.10534,139.41806)" stroke-width=".3985" stroke-linecap="butt" stroke-miterlimit="10" stroke-linejoin="miter" fill="none" stroke="#bfbfbf" d="M-2.83484 37.32411 153.07259-35.48323"/>
<path transform="matrix(1,0,0,-1,49.10534,139.41806)" stroke-width=".3985" stroke-linecap="butt" stroke-miterlimit="10" stroke-linejoin="miter" fill="none" stroke="#bfbfbf" d="M-2.83484 14.17339H153.07259"/>
<path transform="matrix(1,0,0,-1,49.10534,139.41806)" stroke-width=".3985" stroke-linecap="butt" stroke-miterlimit="10" stroke-linejoin="miter" fill="none" stroke="#bfbfbf" d="M-2.83484-18.2466 153.07259 54.56076"/>
<path transform="matrix(1,0,0,-1,49.10534,139.41806)" stroke-width=".3985" stroke-linecap="butt" stroke-miterlimit="10" stroke-linejoin="miter" fill="none" stroke="#bfbfbf" d="M-2.83484-102.96391 127.56062 70.85187"/>
<path transform="matrix(1,0,0,-1,49.10534,139.41806)" stroke-width="1.19553" stroke-linecap="butt" stroke-miterlimit="10" stroke-linejoin="miter" fill="none" stroke="#000000" d="M1.4174 50.1026C1.4174 50.1026 2.7784 48.35188 3.30112 47.69551 3.82384 47.03915 4.66212 46.00511 5.18483 45.37192 5.70753 44.73872 6.5458 43.74185 7.06851 43.1318 7.59122 42.52176 8.4295 41.5621 8.95222 40.97517 9.47495 40.38824 10.31323 39.46535 10.83594 38.90158 11.35864 38.33781 12.19691 37.45245 12.71962 36.91191 13.24232 36.37138 14.08061 35.52313 14.60333 35.0057 15.12605 34.48828 15.96434 33.6769 16.48705 33.18257 17.00975 32.68825 17.84802 31.91399 18.37073 31.4429 18.89343 30.9718 19.73172 30.23509 20.25444 29.78714 20.77716 29.3392 21.61543 28.63927 22.13815 28.21443 22.66087 27.7896 23.49915 27.12682 24.02185 26.7252 24.54456 26.32361 25.38284 25.69833 25.90555 25.31989 26.42825 24.94145 27.26654 24.35295 27.78926 23.99762 28.31198 23.64229 29.15025 23.091 29.67296 22.75885 30.19566 22.42668 31.03395 21.91254 31.55666 21.60353 32.07936 21.29451 32.91765 20.8176 33.44037 20.5317 33.96309 20.24579 34.80136 19.80565 35.32407 19.54291 35.84677 19.28018 36.68506 18.87755 37.20776 18.63805 37.73047 18.39853 38.56876 18.03305 39.09148 17.81665 39.6142 17.60025 40.45247 17.27155 40.97517 17.07832 41.49788 16.88509 42.33617 16.59395 42.85887 16.42389 43.38158 16.25383 44.21986 15.99942 44.74258 15.85251 45.26529 15.7056 46.10356 15.48877 46.62628 15.36502 47.149 15.24129 47.98729 15.06125 48.51 14.9606 49.0327 14.85997 49.87099 14.71707 50.39368 14.63966 50.91638 14.56226 51.75467 14.45688 52.27739 14.40263 52.80011 14.34839 53.6384 14.27979 54.1611 14.24866 54.6838 14.21751 55.52208 14.18613 56.04478 14.17815 56.56749 14.17017 57.40578 14.17596 57.9285 14.19113 58.45122 14.2063 59.2895 14.24925 59.81221 14.28758 60.33492 14.32593 61.17319 14.406 61.69589 14.46751 62.2186 14.52902 63.05688 14.64632 63.5796 14.73094 64.10233 14.81555 64.9406 14.9696 65.46332 15.0774 65.98604 15.18517 66.82431 15.37677 67.34702 15.50777 67.86972 15.63878 68.70801 15.86752 69.23071 16.02164 69.75342 16.17574 70.5917 16.44125 71.11443 16.61852 71.63715 16.79579 72.47542 17.0989 72.99812 17.29935 73.52083 17.49979 74.35912 17.83966 74.88182 18.06322 75.40453 18.28676 76.24281 18.66377 76.76553 18.91054 77.28825 19.15732 78.12653 19.57185 78.64923 19.8418 79.17194 20.11174 80.01022 20.56306 80.53293 20.85611 81.05563 21.14914 81.89392 21.63768 82.41664 21.95389 82.93936 22.27008 83.77762 22.79578 84.30034 23.13513 84.82306 23.4745 85.66135 24.03734 86.18405 24.39989 86.70676 24.76242 87.54504 25.3624 88.06775 25.7481 88.59045 26.1338 89.42873 26.77094 89.95145 27.17981 90.47417 27.58868 91.31245 28.26302 91.83516 28.69499 92.35786 29.12697 93.19615 29.83809 93.71886 30.29321 94.24156 30.74835 95.07983 31.49701 95.60255 31.97536 96.12527 32.45372 96.96356 33.23952 97.48627 33.74098 98.00897 34.24245 98.84726 35.06502 99.36996 35.58965 99.89267 36.11429 100.73094 36.97443 101.25366 37.52223 101.77638 38.07004 102.61465 38.96695 103.13737 39.53784 103.6601 40.10873 104.49838 41.04283 105.02109 41.63695 105.5438 42.23108 106.38206 43.20268 106.90477 43.81996 107.42747 44.43726 108.26576 45.44563 108.78848 46.08603 109.3112 46.72644 110.14949 47.77203 110.6722 48.4356 111.1949 49.09917 112.03317 50.18187 112.55588 50.8686 113.07858 51.55534 113.91687 52.67522 114.43959 53.38512 114.96231 54.09502 115.8006 55.25204 116.3233 55.9851 116.84601 56.71819 117.68428 57.91241 118.20699 58.66858 118.72969 59.42474 119.56798 60.65575 120.0907 61.43507 120.61342 62.2144 121.45169 63.48296 121.97441 64.2855 122.49713 65.08807 123.3354 66.39375 123.85811 67.21942 124.38081 68.04507 125.2191 69.38754 125.7418 70.23637 126.26451 71.0852 127.1028 72.46526 127.6255 73.33723 128.14823 74.20923 128.98651 75.62599 129.50922 76.52115 130.03192 77.41629 130.87021 78.87065 131.39292 79.78897 131.91562 80.70729 132.75389 82.19841 133.27661 83.13985 133.79933 84.08127 134.63762 85.6096 135.16033 86.57419 135.68303 87.53879 136.52132 89.1042 137.04402 90.09203 137.56673 91.07985 138.405 92.68277 138.92772 93.69377 139.45044 94.70476 140.28873 96.34448 140.81143 97.37856 141.33414 98.41264 142.17243 100.08957 142.69513 101.14682 143.21784 102.20409 144.0561 103.91823 144.57883 104.99858 145.10155 106.07895 145.93982 107.82986 146.46254 108.93338 146.98526 110.03691 147.82355 111.82533 148.34626 112.95209 148.86896 114.07884 150.22994 117.05429 150.22994 117.05429"/>
<path transform="matrix(1,0,0,-1,49.10534,139.41806)" stroke-width="1.19553" stroke-linecap="butt" stroke-miterlimit="10" stroke-linejoin="miter" fill="none" stroke="#bf0000" d="M-1.4174-45.92168 153.07259 77.6704"/>
<path transform="matrix(1,0,0,-1,49.10534,139.41806)" d="M92.30374 27.77974C92.30374 28.66011 91.59007 29.3738 90.7097 29.3738 89.82932 29.3738 89.11565 28.66011 89.11565 27.77974 89.11565 26.89937 89.82932 26.18568 90.7097 26.18568 91.59007 26.18568 92.30374 26.89937 92.30374 27.77974ZM90.7097 27.77974" fill="#bf0000"/>
<path transform="matrix(1,0,0,-1,49.10534,139.41806)" stroke-width=".3985" stroke-linecap="butt" stroke-miterlimit="10" stroke-linejoin="miter" fill="none" stroke="#bf0000" d="M92.30374 27.77974C92.30374 28.66011 91.59007 29.3738 90.7097 29.3738 89.82932 29.3738 89.11565 28.66011 89.11565 27.77974 89.11565 26.89937 89.82932 26.18568 90.7097 26.18568 91.59007 26.18568 92.30374 26.89937 92.30374 27.77974ZM90.7097 27.77974"/>
<use data-text="(" xlink:href="#font_2_1" transform="matrix(8.966376,0,0,-8.966376,93.66662,104.8806)" fill="#bf0000"/>
<use data-text="x" xlink:href="#font_1_5" transform="matrix(8.966376,0,0,-8.966376,97.25038,104.8806)" fill="#bf0000"/>
<use data-text="0" xlink:href="#font_3_1" transform="matrix(5.977584,0,0,-5.977584,102.47383,105.87685)" fill="#bf0000"/>
<use data-text="," xlink:href="#font_1_1" transform="matrix(8.966376,0,0,-8.966376,106.62487,104.8806)" fill="#bf0000"/>
<use data-text="f" xlink:href="#font_1_3" transform="matrix(8.966376,0,0,-8.966376,110.71353,104.8806)" fill="#bf0000"/>
<use data-text="(" xlink:href="#font_2_1" transform="matrix(8.966376,0,0,-8.966376,116.1689,104.8806)" fill="#bf0000"/>
<use data-text="x" xlink:href="#font_1_5" transform="matrix(8.966376,0,0,-8.966376,119.752658,104.8806)" fill="#bf0000"/>
<use data-text="0" xlink:href="#font_3_1" transform="matrix(5.977584,0,0,-5.977584,124.976108,105.87685)" fill="#bf0000"/>
<use data-text=")" xlink:href="#font_2_2" transform="matrix(8.966376,0,0,-8.966376,129.12715,104.8806)" fill="#bf0000"/>
<use data-text=")" xlink:href="#font_2_2" transform="matrix(8.966376,0,0,-8.966376,132.70473,104.8806)" fill="#bf0000"/>
<path transform="matrix(1,0,0,-1,49.10534,139.41806)" d="M1.59404-44.788C1.59404-43.90762 .88037-43.19395 0-43.19395-.88037-43.19395-1.59404-43.90762-1.59404-44.788-1.59404-45.66838-.88037-46.38205 0-46.38205 .88037-46.38205 1.59404-45.66838 1.59404-44.788ZM0-44.788" fill="#bf0000"/>
<path transform="matrix(1,0,0,-1,49.10534,139.41806)" stroke-width=".3985" stroke-linecap="butt" stroke-miterlimit="10" stroke-linejoin="miter" fill="none" stroke="#bf0000" d="M1.59404-44.788C1.59404-43.90762 .88037-43.19395 0-43.19395-.88037-43.19395-1.59404-43.90762-1.59404-44.788-1.59404-45.66838-.88037-46.38205 0-46.38205 .88037-46.38205 1.59404-45.66838 1.59404-44.788ZM0-44.788"/>
<path transform="matrix(1,0,0,-1,49.10534,139.41806)" stroke-width=".3985" stroke-linecap="butt" stroke-dasharray="2.98883,2.98883" stroke-miterlimit="10" stroke-linejoin="miter" fill="none" stroke="#bf0000" d="M0-44.788H-12.75595"/>
<use data-text="&#x2212;" xlink:href="#font_4_1" transform="matrix(8.966376,0,0,-8.966376,11.29015,186.4477)" fill="#bf0000"/>
<use data-text="f" xlink:href="#font_1_3" transform="matrix(8.966376,0,0,-8.966376,18.45767,186.4477)" fill="#bf0000"/>
<use data-text="&#x2217;" xlink:href="#font_5_1" transform="matrix(5.977584,0,0,-5.977584,23.90597,182.63869)" fill="#bf0000"/>
<use data-text="(" xlink:href="#font_2_1" transform="matrix(8.966376,0,0,-8.966376,28.22309,186.4477)" fill="#bf0000"/>
<use data-text="p" xlink:href="#font_1_4" transform="matrix(8.966376,0,0,-8.966376,31.80685,186.4477)" fill="#bf0000"/>
<use data-text="0" xlink:href="#font_3_1" transform="matrix(5.977584,0,0,-5.977584,36.432889,187.44394)" fill="#bf0000"/>
<use data-text=")" xlink:href="#font_2_2" transform="matrix(8.966376,0,0,-8.966376,40.58393,186.4477)" fill="#bf0000"/>
<path transform="matrix(1,0,0,-1,49.10534,139.41806)" stroke-width=".3985" stroke-linecap="butt" stroke-dasharray="2.98883,2.98883" stroke-miterlimit="10" stroke-linejoin="miter" fill="none" stroke="#bfbfbf" d="M90.7097 0V27.77974"/>
<use data-text="x" xlink:href="#font_1_5" transform="matrix(8.966376,0,0,-8.966376,135.12775,147.9321)"/>
<use data-text="0" xlink:href="#font_3_1" transform="matrix(5.977584,0,0,-5.977584,140.3512,148.92835)"/>
<use data-text="y" xlink:href="#font_1_6" transform="matrix(8.966376,0,0,-8.966376,162.00727,56.619264)"/>
<use data-text="=" xlink:href="#font_2_3" transform="matrix(8.966376,0,0,-8.966376,169.4273,56.619264)"/>
<use data-text="f" xlink:href="#font_1_3" transform="matrix(8.966376,0,0,-8.966376,179.15467,56.619264)"/>
<use data-text="(" xlink:href="#font_2_1" transform="matrix(8.966376,0,0,-8.966376,184.60297,56.619264)"/>
<use data-text="x" xlink:href="#font_1_5" transform="matrix(8.966376,0,0,-8.966376,188.18672,56.619264)"/>
<use data-text=")" xlink:href="#font_2_2" transform="matrix(8.966376,0,0,-8.966376,193.41017,56.619264)"/>
<path transform="matrix(1,0,0,-1,49.10534,139.41806)" stroke-width=".3985" stroke-linecap="butt" stroke-miterlimit="10" stroke-linejoin="miter" fill="none" stroke="#000000" d="M130.39548 80.78856 127.56062 74.64653"/>
<use data-text="y" xlink:href="#font_1_6" transform="matrix(8.966376,0,0,-8.966376,156.77835,69.37524)" fill="#bf0000"/>
<use data-text="=" xlink:href="#font_2_3" transform="matrix(8.966376,0,0,-8.966376,164.1984,69.37524)" fill="#bf0000"/>
<use data-text="p" xlink:href="#font_1_4" transform="matrix(8.966376,0,0,-8.966376,173.92575,69.37524)" fill="#bf0000"/>
<use data-text="0" xlink:href="#font_3_1" transform="matrix(5.977584,0,0,-5.977584,178.55179,70.37148)" fill="#bf0000"/>
<use data-text="x" xlink:href="#font_1_5" transform="matrix(8.966376,0,0,-8.966376,182.70284,69.37524)" fill="#bf0000"/>
<use data-text="&#x2212;" xlink:href="#font_4_1" transform="matrix(8.966376,0,0,-8.966376,189.97415,69.37524)" fill="#bf0000"/>
<use data-text="f" xlink:href="#font_1_3" transform="matrix(8.966376,0,0,-8.966376,199.18953,69.37524)" fill="#bf0000"/>
<use data-text="&#x2217;" xlink:href="#font_5_1" transform="matrix(5.977584,0,0,-5.977584,204.63784,65.56624)" fill="#bf0000"/>
<use data-text="(" xlink:href="#font_2_1" transform="matrix(8.966376,0,0,-8.966376,208.95496,69.37524)" fill="#bf0000"/>
<use data-text="p" xlink:href="#font_1_4" transform="matrix(8.966376,0,0,-8.966376,212.53871,69.37524)" fill="#bf0000"/>
<use data-text="0" xlink:href="#font_3_1" transform="matrix(5.977584,0,0,-5.977584,217.16475,70.37148)" fill="#bf0000"/>
<use data-text=")" xlink:href="#font_2_2" transform="matrix(8.966376,0,0,-8.966376,221.3158,69.37524)" fill="#bf0000"/>
<path transform="matrix(1,0,0,-1,49.10534,139.41806)" stroke-width=".3985" stroke-linecap="butt" stroke-miterlimit="10" stroke-linejoin="miter" fill="none" stroke="#bf0000" d="M141.73404 68.59921V70.01706"/>
<use data-text="p" xlink:href="#font_1_4" transform="matrix(8.966376,0,0,-8.966376,71.59063,85.168628)" fill="#bf0000"/>
<use data-text="0" xlink:href="#font_3_1" transform="matrix(5.977584,0,0,-5.977584,76.21667,86.16487)" fill="#bf0000"/>
<use data-text="=" xlink:href="#font_2_3" transform="matrix(8.966376,0,0,-8.966376,82.927539,85.168628)" fill="#bf0000"/>
<use data-text="f" xlink:href="#font_1_3" transform="matrix(8.966376,0,0,-8.966376,92.65489,85.168628)" fill="#bf0000"/>
<use data-text="&#x2032;" xlink:href="#font_5_2" transform="matrix(5.977584,0,0,-5.977584,98.10319,81.35962)" fill="#bf0000"/>
<use data-text="(" xlink:href="#font_2_1" transform="matrix(8.966376,0,0,-8.966376,100.78757,85.168628)" fill="#bf0000"/>
<use data-text="x" xlink:href="#font_1_5" transform="matrix(8.966376,0,0,-8.966376,104.37133,85.168628)" fill="#bf0000"/>
<use data-text="0" xlink:href="#font_3_1" transform="matrix(5.977584,0,0,-5.977584,109.59478,86.16487)" fill="#bf0000"/>
<use data-text=")" xlink:href="#font_2_2" transform="matrix(8.966376,0,0,-8.966376,113.74582,85.168628)" fill="#bf0000"/>
<use data-text="(" xlink:href="#font_6_85" transform="matrix(8.966376,0,0,-8.966376,44.257394,39.611024)"/>
<use data-text="a" xlink:href="#font_6_28" transform="matrix(8.966376,0,0,-8.966376,48.381929,39.611024)"/>
<use data-text=")" xlink:href="#font_6_86" transform="matrix(8.966376,0,0,-8.966376,53.53759,39.611024)"/>
<use data-text="p" xlink:href="#font_6_84" transform="matrix(8.966376,0,0,-8.966376,61.194879,39.611024)"/>
<use data-text="r" xlink:href="#font_6_96" transform="matrix(8.966376,0,0,-8.966376,67.085788,39.611024)"/>
<use data-text="i" xlink:href="#font_6_66" transform="matrix(8.966376,0,0,-8.966376,71.46138,39.611024)"/>
<use data-text="m" xlink:href="#font_6_75" transform="matrix(8.966376,0,0,-8.966376,74.411319,39.611024)"/>
<use data-text="a" xlink:href="#font_6_28" transform="matrix(8.966376,0,0,-8.966376,83.25217,39.611024)"/>
<use data-text="l" xlink:href="#font_6_72" transform="matrix(8.966376,0,0,-8.966376,88.40783,39.611024)"/>
<use data-text=":" xlink:href="#font_6_44" transform="matrix(8.966376,0,0,-8.966376,91.357769,39.611024)"/>
<use data-text="f" xlink:href="#font_1_3" transform="matrix(8.966376,0,0,-8.966376,99.01804,39.611024)"/>
<use data-text="a" xlink:href="#font_6_28" transform="matrix(8.966376,0,0,-8.966376,107.9991,39.611024)"/>
<use data-text="n" xlink:href="#font_6_77" transform="matrix(8.966376,0,0,-8.966376,113.15477,39.611024)"/>
<use data-text="d" xlink:href="#font_6_47" transform="matrix(8.966376,0,0,-8.966376,119.04568,39.611024)"/>
<use data-text="t" xlink:href="#font_6_105" transform="matrix(8.966376,0,0,-8.966376,128.46933,39.611024)"/>
<use data-text="a" xlink:href="#font_6_28" transform="matrix(8.966376,0,0,-8.966376,132.59387,39.611024)"/>
<use data-text="n" xlink:href="#font_6_77" transform="matrix(8.966376,0,0,-8.966376,137.74954,39.611024)"/>
<use data-text="g" xlink:href="#font_6_59" transform="matrix(8.966376,0,0,-8.966376,143.64044,39.611024)"/>
<use data-text="e" xlink:href="#font_6_50" transform="matrix(8.966376,0,0,-8.966376,148.94855,39.611024)"/>
<use data-text="n" xlink:href="#font_6_77" transform="matrix(8.966376,0,0,-8.966376,153.81729,39.611024)"/>
<use data-text="t" xlink:href="#font_6_105" transform="matrix(8.966376,0,0,-8.966376,159.42127,39.611024)"/>
<use data-text="e" xlink:href="#font_6_50" transform="matrix(8.966376,0,0,-8.966376,167.0696,39.611024)"/>
<use data-text="n" xlink:href="#font_6_77" transform="matrix(8.966376,0,0,-8.966376,171.93834,39.611024)"/>
<use data-text="v" xlink:href="#font_6_112" transform="matrix(8.966376,0,0,-8.966376,177.54233,39.611024)"/>
<use data-text="e" xlink:href="#font_6_50" transform="matrix(8.966376,0,0,-8.966376,182.85042,39.611024)"/>
<use data-text="l" xlink:href="#font_6_72" transform="matrix(8.966376,0,0,-8.966376,187.71916,39.611024)"/>
<use data-text="o" xlink:href="#font_6_81" transform="matrix(8.966376,0,0,-8.966376,190.6691,39.611024)"/>
<use data-text="p" xlink:href="#font_6_84" transform="matrix(8.966376,0,0,-8.966376,195.97719,39.611024)"/>
<use data-text="e" xlink:href="#font_6_50" transform="matrix(8.966376,0,0,-8.966376,202.15503,39.611024)"/>
<path transform="matrix(1,0,0,-1,49.10534,139.41806)" stroke-width=".79701" stroke-linecap="butt" stroke-miterlimit="10" stroke-linejoin="miter" fill="none" stroke="#b2b3b2" d="M192.7585 0H293.53123"/>
<path transform="matrix(1,0,0,-1,340.1715,139.41806)" d="M5.44046 0 1.28699 1.5706 2.66432 0 1.28699-1.5706Z" fill="#b2b3b2"/>
<path transform="matrix(1,0,0,-1,340.1715,139.41806)" stroke-width=".79701" stroke-linecap="butt" stroke-miterlimit="10" stroke-linejoin="miter" fill="none" stroke="#b2b3b2" d="M5.44046 0 1.28699 1.5706 2.66432 0 1.28699-1.5706Z"/>
<use data-text="p" xlink:href="#font_1_4" transform="matrix(8.966376,0,0,-8.966376,350.466,146.99765)"/>
<path transform="matrix(1,0,0,-1,49.10534,139.41806)" stroke-width=".79701" stroke-linecap="butt" stroke-miterlimit="10" stroke-linejoin="miter" fill="none" stroke="#b2b3b2" d="M240.94797-42.5202V97.93831"/>
<path transform="matrix(0,-1,-1,-0,290.0533,43.944818)" d="M5.44046 0 1.28699 1.5706 2.66432 0 1.28699-1.5706Z" fill="#b2b3b2"/>
<path transform="matrix(0,-1,-1,-0,290.0533,43.944818)" stroke-width=".79701" stroke-linecap="butt" stroke-miterlimit="10" stroke-linejoin="miter" fill="none" stroke="#b2b3b2" d="M5.44046 0 1.28699 1.5706 2.66432 0 1.28699-1.5706Z"/>
<use data-text="f" xlink:href="#font_1_3" transform="matrix(8.966376,0,0,-8.966376,276.56874,39.792825)"/>
<use data-text="&#x2217;" xlink:href="#font_5_1" transform="matrix(5.977584,0,0,-5.977584,282.01704,35.983827)"/>
<use data-text="O" xlink:href="#font_1_2" transform="matrix(8.966376,0,0,-8.966376,279.26518,149.06494)" fill="#a6a6a6"/>
<path transform="matrix(1,0,0,-1,49.10534,139.41806)" stroke-width="1.19553" stroke-linecap="butt" stroke-miterlimit="10" stroke-linejoin="miter" fill="none" stroke="#000000" d="M201.26262-51.87514C201.26262-51.87514 202.04015-51.9393 202.33878-51.95213 202.6374-51.96497 203.1163-51.9719 203.41493-51.9677 203.71356-51.9635 204.19246-51.94302 204.49109-51.92184 204.78972-51.90067 205.26863-51.8531 205.56725-51.815 205.86586-51.77692 206.34476-51.70232 206.64339-51.64717 206.94202-51.59204 207.42093-51.4897 207.71956-51.41751 208.01818-51.3453 208.49707-51.21602 208.7957-51.12685 209.09433-51.03767 209.57324-50.8809 209.87186-50.77475 210.17049-50.6686 210.64939-50.48488 210.94802-50.36168 211.24665-50.23848 211.72554-50.027 212.02417-49.88676 212.3228-49.74652 212.80171-49.50801 213.10033-49.35085 213.39894-49.19366 213.87784-48.92809 214.17647-48.75394 214.4751-48.57979 214.95401-48.2868 215.25264-48.09561 215.55126-47.90442 216.03015-47.5841 216.32878-47.37587 216.62741-47.16763 217.10633-46.81993 217.40494-46.59471 217.70357-46.36949 218.18247-45.99477 218.4811-45.75255 218.77973-45.51033 219.25862-45.10818 219.55725-44.84898 219.85588-44.5898 220.3348-44.16066 220.6334-43.88443 220.93202-43.60818 221.41092-43.15129 221.70955-42.85802 222.00818-42.56474 222.48709-42.08081 222.78572-41.7706 223.08435-41.46039 223.56324-40.94946 223.86186-40.62222 224.16049-40.29497 224.6394-39.75629 224.93804-39.41199 225.23665-39.06769 225.71555-38.50203 226.01418-38.14075 226.3128-37.77948 226.79172-37.18642 227.09033-36.8081 227.38896-36.42978 227.86788-35.80928 228.16649-35.41403 228.4651-35.01878 228.944-34.37163 229.24263-33.9594 229.54126-33.54716 230.02017-32.87227 230.3188-32.44293 230.61743-32.0136 231.09632-31.31134 231.39495-30.86502 231.69358-30.41872 232.17249-29.68944 232.47112-29.22615 232.76973-28.76285 233.24864-28.0061 233.54726-27.52583 233.84587-27.04556 234.32479-26.26183 234.6234-25.76454 234.92203-25.26727 235.40094-24.45615 235.69957-23.94183 235.9982-23.42752 236.47708-22.58899 236.77571-22.0577 237.07434-21.5264 237.55326-20.6609 237.85189-20.11258 238.15052-19.56424 238.6294-18.67099 238.92803-18.10559 239.22666-17.5402 239.70558-16.62 240.0042-16.03763 240.3028-15.45525 240.78171-14.50758 241.08032-13.90823 241.37894-13.30888 241.85785-12.33421 242.15648-11.71788 242.4551-11.10155 242.934-10.0994 243.23264-9.46608 243.53127-8.83276 244.01016-7.80367 244.30878-7.1533 244.6074-6.50293 245.08632-5.44608 245.38495-4.77866 245.68358-4.11125 246.16246-3.02737 246.46109-2.34305 246.75972-1.6587 247.23863-.54782 247.53726 .15353 247.83589 .8549 248.31479 1.99358 248.6134 2.71199 248.91202 3.4304 249.39093 4.5961 249.68956 5.33145 249.98818 6.0668 250.46709 7.2595 250.76572 8.01189 251.06435 8.76428 251.54325 9.98474 251.84186 10.75418 252.14049 11.5236 252.6194 12.7711 252.91803 13.55745 253.21666 14.34381 253.69554 15.61832 253.99417 16.42172 254.2928 17.22511 254.77172 18.5274 255.07035 19.34784 255.36898 20.16827 255.84787 21.49753 256.14649 22.33495 256.4451 23.17238 256.924 24.52907 257.22264 25.38348 257.52128 26.2379 258.00019 27.62161 258.2988 28.493 258.59745 29.3644 259.07633 30.7755 259.37495 31.66394 259.67359 32.55237 260.15248 33.99081 260.4511 34.89629 260.74974 35.80176 261.22865 37.2676 261.52726 38.19006 261.82588 39.11253 262.3048 40.60538 262.60343 41.54483 262.90205 42.48428 263.38096 44.00458 263.67958 44.96101 263.97819 45.91745 264.4571 47.4647 264.7557 48.43817 265.05436 49.41165 265.53327 50.98674 265.83189 51.97722 266.13053 52.96768 266.6094 54.56935 266.90806 55.5768 267.20668 56.58424 267.68556 58.21373 267.9842 59.23822 268.2828 60.26271 268.76173 61.91917 269.06034 62.96065 269.35896 64.00212 269.8379 65.68597 270.1365 66.74449 270.43513 67.80301 270.91404 69.51427 271.21266 70.58975 271.51127 71.66525 271.99018 73.40352 272.2888 74.49602 272.58744 75.5885 273.06636 77.35416 273.36497 78.46368 273.6636 79.57321 274.1425 81.36626 274.44114 82.49277 274.73973 83.61928 275.21864 85.43935 275.51728 86.58284 275.8159 87.72633 276.2948 89.5738 276.5934 90.73434 276.89204 91.89487 277.37098 93.76967 277.6696 94.94727 277.96824 96.12485 278.44715 98.02704 278.74574 99.2216 279.04435 100.41617 279.52326 102.34544 279.82188 103.55693 280.1205 104.76842 280.5994 106.72472 280.89805 107.95325 281.19667 109.1818 281.67558 111.16585 281.9742 112.41142 282.27284 113.657 282.7517 115.668 283.05036 116.93057 283.34898 118.19315 283.82789 120.2316 284.1265 121.51115 284.42515 122.79071 284.90406 124.85619 285.20268 126.15271 285.5013 127.44925 286.2788 130.8557 286.2788 130.8557"/>
<path transform="matrix(1,0,0,-1,49.10534,139.41806)" d="M265.4188 44.788C265.4188 45.77843 264.6159 46.5813 263.6255 46.5813 262.63508 46.5813 261.8322 45.77843 261.8322 44.788 261.8322 43.79758 262.63508 42.9947 263.6255 42.9947 264.6159 42.9947 265.4188 43.79758 265.4188 44.788ZM263.6255 44.788" fill="#bf0000"/>
<path transform="matrix(1,0,0,-1,49.10534,139.41806)" stroke-width=".3985" stroke-linecap="butt" stroke-miterlimit="10" stroke-linejoin="miter" fill="none" stroke="#bf0000" d="M265.4188 44.788C265.4188 45.77843 264.6159 46.5813 263.6255 46.5813 262.63508 46.5813 261.8322 45.77843 261.8322 44.788 261.8322 43.79758 262.63508 42.9947 263.6255 42.9947 264.6159 42.9947 265.4188 43.79758 265.4188 44.788ZM263.6255 44.788"/>
<use data-text="(" xlink:href="#font_2_1" transform="matrix(8.966376,0,0,-8.966376,265.45265,86.87607)" fill="#bf0000"/>
<use data-text="p" xlink:href="#font_1_4" transform="matrix(8.966376,0,0,-8.966376,269.03639,86.87607)" fill="#bf0000"/>
<use data-text="0" xlink:href="#font_3_1" transform="matrix(5.977584,0,0,-5.977584,273.6624,87.872318)" fill="#bf0000"/>
<use data-text="," xlink:href="#font_1_1" transform="matrix(8.966376,0,0,-8.966376,277.81349,86.87607)" fill="#bf0000"/>
<use data-text="f" xlink:href="#font_1_3" transform="matrix(8.966376,0,0,-8.966376,281.90214,86.87607)" fill="#bf0000"/>
<use data-text="&#x2217;" xlink:href="#font_5_1" transform="matrix(5.977584,0,0,-5.977584,287.35749,83.06708)" fill="#bf0000"/>
<use data-text="(" xlink:href="#font_2_1" transform="matrix(8.966376,0,0,-8.966376,291.67463,86.87607)" fill="#bf0000"/>
<use data-text="p" xlink:href="#font_1_4" transform="matrix(8.966376,0,0,-8.966376,295.2584,86.87607)" fill="#bf0000"/>
<use data-text="0" xlink:href="#font_3_1" transform="matrix(5.977584,0,0,-5.977584,299.88444,87.872318)" fill="#bf0000"/>
<use data-text=")" xlink:href="#font_2_2" transform="matrix(8.966376,0,0,-8.966376,304.03547,86.87607)" fill="#bf0000"/>
<use data-text=")" xlink:href="#font_2_2" transform="matrix(8.966376,0,0,-8.966376,307.61305,86.87607)" fill="#bf0000"/>
<path transform="matrix(1,0,0,-1,49.10534,139.41806)" stroke-width=".3985" stroke-linecap="butt" stroke-dasharray="2.98883,2.98883" stroke-miterlimit="10" stroke-linejoin="miter" fill="none" stroke="#bfbfbf" d="M263.6255 0V44.788"/>
<use data-text="p" xlink:href="#font_1_4" transform="matrix(8.966376,0,0,-8.966376,308.34226,147.93209)"/>
<use data-text="0" xlink:href="#font_3_1" transform="matrix(5.977584,0,0,-5.977584,312.9683,148.92833)"/>
<path transform="matrix(1,0,0,-1,49.10534,139.41806)" stroke-width=".79701" stroke-linecap="butt" stroke-dasharray="2.98883,2.98883" stroke-miterlimit="10" stroke-linejoin="miter" fill="none" stroke="#bf0000" d="M252.28653 8.50499 274.96409 81.07101"/>
<use data-text="s" xlink:href="#font_7_98" transform="matrix(8.966376,0,0,-8.966376,328.15629,62.00612)" fill="#bf0000"/>
<use data-text="l" xlink:href="#font_7_72" transform="matrix(8.966376,0,0,-8.966376,331.78767,62.00612)" fill="#bf0000"/>
<use data-text="o" xlink:href="#font_7_81" transform="matrix(8.966376,0,0,-8.966376,334.35206,62.00612)" fill="#bf0000"/>
<use data-text="p" xlink:href="#font_7_84" transform="matrix(8.966376,0,0,-8.966376,338.96076,62.00612)" fill="#bf0000"/>
<use data-text="e" xlink:href="#font_7_50" transform="matrix(8.966376,0,0,-8.966376,344.34059,62.00612)" fill="#bf0000"/>
<use data-text="=" xlink:href="#font_2_3" transform="matrix(8.966376,0,0,-8.966376,351.5137,62.00612)" fill="#bf0000"/>
<use data-text="x" xlink:href="#font_1_5" transform="matrix(8.966376,0,0,-8.966376,361.24104,62.00612)" fill="#bf0000"/>
<use data-text="0" xlink:href="#font_3_1" transform="matrix(5.977584,0,0,-5.977584,366.46449,63.002367)" fill="#bf0000"/>
<use data-text="f" xlink:href="#font_1_3" transform="matrix(8.966376,0,0,-8.966376,214.16272,56.619264)"/>
<use data-text="&#x2217;" xlink:href="#font_5_1" transform="matrix(5.977584,0,0,-5.977584,219.61101,52.810266)"/>
<use data-text="(" xlink:href="#font_2_1" transform="matrix(8.966376,0,0,-8.966376,223.92813,56.619264)"/>
<use data-text="p" xlink:href="#font_1_4" transform="matrix(8.966376,0,0,-8.966376,227.51189,56.619264)"/>
<use data-text=")" xlink:href="#font_2_2" transform="matrix(8.966376,0,0,-8.966376,232.13793,56.619264)"/>
<use data-text="=" xlink:href="#font_2_3" transform="matrix(8.966376,0,0,-8.966376,238.27094,56.619264)"/>
<use data-text="p" xlink:href="#font_1_4" transform="matrix(8.966376,0,0,-8.966376,248.00887,56.619264)"/>
<use data-text="x" xlink:href="#font_1_5" transform="matrix(8.966376,0,0,-8.966376,254.15979,56.619264)"/>
<use data-text="(" xlink:href="#font_2_1" transform="matrix(8.966376,0,0,-8.966376,259.39427,56.619264)"/>
<use data-text="p" xlink:href="#font_1_4" transform="matrix(8.966376,0,0,-8.966376,262.97804,56.619264)"/>
<use data-text=")" xlink:href="#font_2_2" transform="matrix(8.966376,0,0,-8.966376,267.60408,56.619264)"/>
<use data-text="&#x2212;" xlink:href="#font_4_1" transform="matrix(8.966376,0,0,-8.966376,273.23567,56.619264)"/>
<use data-text="f" xlink:href="#font_1_3" transform="matrix(8.966376,0,0,-8.966376,282.45106,56.619264)"/>
<use data-text="(" xlink:href="#font_2_1" transform="matrix(8.966376,0,0,-8.966376,287.89936,56.619264)"/>
<use data-text="x" xlink:href="#font_1_5" transform="matrix(8.966376,0,0,-8.966376,291.4831,56.619264)"/>
<use data-text="(" xlink:href="#font_2_1" transform="matrix(8.966376,0,0,-8.966376,296.70655,56.619264)"/>
<use data-text="p" xlink:href="#font_1_4" transform="matrix(8.966376,0,0,-8.966376,300.2903,56.619264)"/>
<use data-text=")" xlink:href="#font_2_2" transform="matrix(8.966376,0,0,-8.966376,304.91636,56.619264)"/>
<use data-text=")" xlink:href="#font_2_2" transform="matrix(8.966376,0,0,-8.966376,308.49397,56.619264)"/>
<path transform="matrix(1,0,0,-1,49.10534,139.41806)" stroke-width=".3985" stroke-linecap="butt" stroke-miterlimit="10" stroke-linejoin="miter" fill="none" stroke="#000000" d="M214.0186 80.78856 211.18375-48.84564"/>
<use data-text="x" xlink:href="#font_1_5" transform="matrix(8.966376,0,0,-8.966376,307.45503,172.01111)"/>
<use data-text="0" xlink:href="#font_3_1" transform="matrix(5.977584,0,0,-5.977584,312.67848,173.00736)"/>
<use data-text="=" xlink:href="#font_2_3" transform="matrix(8.966376,0,0,-8.966376,319.38935,172.01111)"/>
<use data-text="d" xlink:href="#font_2_4" transform="matrix(8.966376,0,0,-8.966376,330.3122,166.2122)"/>
<use data-text="f" xlink:href="#font_1_3" transform="matrix(8.966376,0,0,-8.966376,335.43186,166.2122)"/>
<use data-text="&#x2217;" xlink:href="#font_5_1" transform="matrix(5.977584,0,0,-5.977584,340.88017,162.4032)"/>
<path transform="matrix(1,0,0,-1,330.34968,104.589229)" stroke-width=".378585" stroke-linecap="butt" stroke-miterlimit="10" stroke-linejoin="miter" fill="none" stroke="#000000" d="M-.03747-65.18029H14.84761"/>
<use data-text="d" xlink:href="#font_2_4" transform="matrix(8.966376,0,0,-8.966376,332.8819,178.09232)"/>
<use data-text="p" xlink:href="#font_1_4" transform="matrix(8.966376,0,0,-8.966376,338.00157,178.09232)"/>
<use data-text="&#xfffd;" xlink:href="#font_8_1" transform="matrix(8.966376,0,0,-8.966376,346.3928,159.00977)"/>
<use data-text="&#xfffd;" xlink:href="#font_8_1" transform="matrix(8.966376,0,0,-8.966376,346.3928,164.38964)"/>
<use data-text="&#xfffd;" xlink:href="#font_8_1" transform="matrix(8.966376,0,0,-8.966376,346.3928,169.76952)"/>
<use data-text="&#xfffd;" xlink:href="#font_8_1" transform="matrix(8.966376,0,0,-8.966376,346.3928,175.1494)"/>
<use data-text="p" xlink:href="#font_9_1" transform="matrix(5.977584,0,0,-5.977584,349.4646,181.0274)"/>
<use data-text="0" xlink:href="#font_10_1" transform="matrix(4.98132,0,0,-4.98132,353.30506,182.17865)"/>
<use data-text="(" xlink:href="#font_6_85" transform="matrix(8.966376,0,0,-8.966376,230.89313,39.611024)"/>
<use data-text="b" xlink:href="#font_6_35" transform="matrix(8.966376,0,0,-8.966376,235.01767,39.611024)"/>
<use data-text=")" xlink:href="#font_6_86" transform="matrix(8.966376,0,0,-8.966376,240.90857,39.611024)"/>
<use data-text="d" xlink:href="#font_6_47" transform="matrix(8.966376,0,0,-8.966376,248.56586,39.611024)"/>
<use data-text="u" xlink:href="#font_6_109" transform="matrix(8.966376,0,0,-8.966376,254.45677,39.611024)"/>
<use data-text="a" xlink:href="#font_6_28" transform="matrix(8.966376,0,0,-8.966376,260.3477,39.611024)"/>
<use data-text="l" xlink:href="#font_6_72" transform="matrix(8.966376,0,0,-8.966376,265.50337,39.611024)"/>
<use data-text=":" xlink:href="#font_6_44" transform="matrix(8.966376,0,0,-8.966376,268.45329,39.611024)"/>
<use data-text="f" xlink:href="#font_1_3" transform="matrix(8.966376,0,0,-8.966376,276.11357,39.611024)"/>
<use data-text="&#x2217;" xlink:href="#font_5_1" transform="matrix(5.977584,0,0,-5.977584,281.56187,35.802026)"/>
<use data-text="a" xlink:href="#font_6_28" transform="matrix(8.966376,0,0,-8.966376,289.41175,39.611024)"/>
<use data-text="s" xlink:href="#font_6_98" transform="matrix(8.966376,0,0,-8.966376,294.5674,39.611024)"/>
<use data-text="f" xlink:href="#font_6_55" transform="matrix(8.966376,0,0,-8.966376,302.28746,39.611024)"/>
<use data-text="u" xlink:href="#font_6_109" transform="matrix(8.966376,0,0,-8.966376,305.53327,39.611024)"/>
<use data-text="n" xlink:href="#font_6_77" transform="matrix(8.966376,0,0,-8.966376,311.4242,39.611024)"/>
<use data-text="c" xlink:href="#font_6_43" transform="matrix(8.966376,0,0,-8.966376,317.3151,39.611024)"/>
<use data-text="t" xlink:href="#font_6_105" transform="matrix(8.966376,0,0,-8.966376,322.0314,39.611024)"/>
<use data-text="i" xlink:href="#font_6_66" transform="matrix(8.966376,0,0,-8.966376,326.15596,39.611024)"/>
<use data-text="o" xlink:href="#font_6_81" transform="matrix(8.966376,0,0,-8.966376,329.1059,39.611024)"/>
<use data-text="n" xlink:href="#font_6_77" transform="matrix(8.966376,0,0,-8.966376,334.41398,39.611024)"/>
<use data-text="o" xlink:href="#font_6_81" transform="matrix(8.966376,0,0,-8.966376,343.83766,39.611024)"/>
<use data-text="f" xlink:href="#font_6_55" transform="matrix(8.966376,0,0,-8.966376,349.14576,39.611024)"/>
<use data-text="p" xlink:href="#font_1_4" transform="matrix(8.966376,0,0,-8.966376,355.92436,39.611024)"/>
</svg>
