<svg xmlns="http://www.w3.org/2000/svg" xmlns:xlink="http://www.w3.org/1999/xlink" xmlns:inkscape="http://www.inkscape.org/namespaces/inkscape" version="1.1" width="369.88" height="3419.7" viewBox="0 0 369.88 3419.7">
<defs>
<path id="font_1_3" d="M.46798707 .37236024C.46798707 .42637635 .44198609 .4423828 .42399598 .4423828 .39898683 .4423828 .375 .41636659 .375 .3943634 .375 .38136292 .37998963 .3753662 .3909912 .36434938 .4119873 .3443451 .4249878 .31834413 .4249878 .28233338 .4249878 .24032593 .3639984 .011245728 .24699402 .011245728 .19599915 .011245728 .17298889 .04626465 .17298889 .09828186 .17298889 .15429688 .19999695 .22731018 .23098755 .31033326 .23799134 .3273468 .24299622 .34135438 .24299622 .36035157 .24299622 .405365 .21099854 .4423828 .16099549 .4423828 .066986087 .4423828 .0289917 .29733277 .0289917 .28833009 .0289917 .27833558 .038986207 .27833558 .040985109 .27833558 .050994874 .27833558 .051986696 .28033448 .056991579 .29634095 .085998538 .39736939 .1289978 .42037965 .1579895 .42037965 .1659851 .42037965 .18299866 .42037965 .18299866 .3883667 .18299866 .36335755 .17298889 .3363495 .1659851 .31834413 .12199402 .20230103 .10899353 .15629578 .10899353 .11328125 .10899353 .0052490236 .19699097-.0107421879 .24299622-.0107421879 .41099549-.0107421879 .46798707 .32034303 .46798707 .37236024Z"/>
<path id="font_1_2" d="M.04499817-.122177127C.036987306-.15631104 .034988405-.16334534-.009002686-.16334534-.021011353-.16334534-.03201294-.16334534-.03201294-.18234253-.03201294-.19033814-.027008057-.19433594-.019012452-.19433594 .0079956059-.19433594 .036987306-.19134522 .06498718-.19134522 .09799194-.19134522 .13198853-.19433594 .1639862-.19433594 .16899109-.19433594 .18199158-.19433594 .18199158-.17434693 .18199158-.16334534 .17199707-.16334534 .1579895-.16334534 .10798645-.16334534 .10798645-.15631104 .10798645-.14727783 .10798645-.13523865 .1499939 .028259278 .15699768 .053268434 .16999817 .024261475 .19799805-.0107421879 .24899292-.0107421879 .36499024-.0107421879 .48999024 .13528443 .48999024 .28233338 .48999024 .37635804 .43299867 .4423828 .35699464 .4423828 .30699159 .4423828 .25898744 .40637208 .22599793 .36735536 .21598816 .42137147 .17298889 .4423828 .13598633 .4423828 .08999634 .4423828 .070999149 .4033661 .06199646 .38536073 .04399109 .35134889 .0309906 .29133607 .0309906 .28833009 .0309906 .27833558 .040985109 .27833558 .042999269 .27833558 .052993776 .27833558 .053985597 .2793274 .05999756 .30133058 .07699585 .37236024 .09700012 .42037965 .1329956 .42037965 .1499939 .42037965 .1639862 .41236878 .1639862 .37435914 .1639862 .35134889 .16099549 .3403473 .15699768 .323349L.04499817-.122177127M.22099304 .3123474C.22799683 .33935548 .25498963 .36735536 .272995 .38235475 .30799867 .41337586 .33699037 .42037965 .35398866 .42037965 .3939972 .42037965 .41799928 .38536073 .41799928 .32633973 .41799928 .26733399 .3849945 .15229798 .36698915 .11428833 .33299256 .044265748 .2849884 .011245728 .24798584 .011245728 .18199158 .011245728 .16899109 .0942688 .16899109 .10028076 .16899109 .10227966 .16899109 .104278568 .17199707 .11628723L.22099304 .3123474Z"/>
<path id="font_1_1" d="M.73999026 .4358673C.73999026 .5970001 .6339874 .7050781 .4850006 .7050781 .2689972 .7050781 .04899597 .47790528 .04899597 .24472046 .04899597 .07859802 .16099549-.022460938 .30499269-.022460938 .5169983-.022460938 .73999026 .19668579 .73999026 .4358673M.31098939 .0035247803C.21199036 .0035247803 .14199829 .08459473 .14199829 .21670532 .14199829 .2607422 .1559906 .4068451 .23298645 .52394106 .3019867 .62802127 .3999939 .68006899 .47898866 .68006899 .5609894 .68006899 .651001 .62402346 .651001 .4748993 .651001 .4028473 .6239929 .24671936 .5249939 .12362671 .47698976 .062576297 .394989 .0035247803 .31098939 .0035247803Z"/>
<path id="font_2_1" d="M.34098817-.23803711C.34098817-.23303223 .33799745-.23002625 .33198548-.22303772 .20298767-.105026248 .1639862 .07498169 .1639862 .24996948 .1639862 .40498353 .19400025 .59298709 .33499146 .72698977 .33898927 .73098757 .34098817 .73399356 .34098817 .7389984 .34098817 .74598696 .33599855 .75 .32899476 .75 .31698609 .75 .22698975 .6779785 .17298889 .568985 .125 .47297669 .100997928 .36997987 .100997928 .25097657 .100997928 .17897034 .10998535 .064971927 .16499329-.053024293 .22399903-.17602539 .31698609-.24902344 .32899476-.24902344 .33599855-.24902344 .34098817-.24502564 .34098817-.23803711Z"/>
<path id="font_3_10" d="M.48098756 .3693695C.48098756 .43937684 .44400025 .44337464 .43499757 .44337464 .4099884 .44337464 .38398744 .41638185 .38398744 .39337159 .38398744 .3783722 .3929901 .37036134 .3999939 .36436463 .4269867 .33935548 .43598939 .30734254 .43598939 .28134156 .43598939 .23731995 .37298585 .014251709 .25698854 .014251709 .18199158 .014251709 .18199158 .08427429 .18199158 .10227966 .18199158 .14529419 .19599915 .19630432 .23098755 .28733827 .24699402 .3293457 .25099183 .33935548 .25099183 .35835267 .25099183 .40737916 .21398926 .4423828 .16499329 .4423828 .068984989 .4423828 .0289917 .30033876 .0289917 .28833009 .0289917 .2793274 .035995485 .27633668 .042999269 .27633668 .053985597 .27633668 .054992677 .28233338 .05899048 .29533387 .07998657 .36836244 .11999512 .41737367 .1619873 .41737367 .18199158 .41737367 .18598938 .40437318 .18598938 .3843689 .18598938 .36735536 .18199158 .34934999 .17298889 .3253479 .13699341 .22932434 .11299133 .16529846 .11299133 .11528015 .11299133 .021255494 .18399048-.0107421879 .25299073-.0107421879 .42099-.0107421879 .48098756 .30534364 .48098756 .3693695Z"/>
<path id="font_4_1" d="M.46398927 .38404847C.45098878 .38105775 .4169922 .36405946 .4169922 .32705689 .4169922 .30204774 .43598939 .2890625 .45700074 .2890625 .48098756 .2890625 .5149994 .3060608 .5149994 .35404969 .5149994 .41940309 .43899537 .44140626 .375 .44140626 .21998596 .44140626 .07499695 .3070526 .07499695 .1681366 .07499695 .07319641 .14399719-.009765625 .272995-.009765625 .46099855-.009765625 .5329895 .09017944 .5329895 .10118103 .5329895 .11016846 .5219879 .121170047 .5139923 .121170047 .5089874 .121170047 .5079956 .120162967 .49299623 .10517883 .43899537 .04321289 .34599305 .023223877 .2749939 .023223877 .19198609 .023223877 .1619873 .077194217 .1619873 .1351471 .1619873 .13815308 .1639862 .2540741 .23298645 .3390503 .24798584 .35604859 .2999878 .40838624 .37599183 .40838624 .3809967 .40838624 .43399049 .40838624 .46398927 .38404847Z"/>
<path id="font_3_1" d="M.18199158 .015991211C.18199158-.017044068 .18199158-.09921265 .10798645-.17036438 .101989749-.17636109 .101989749-.17736817 .101989749-.18136597 .101989749-.18836975 .10899353-.19335938 .114990238-.19335938 .12599182-.19335938 .20698548-.115249637 .20698548 .0019989014 .20698548 .06399536 .18499756 .10798645 .14199829 .10798645 .10798645 .10798645 .08799744 .08198547 .08799744 .053985597 .08799744 .025985718 .10798645 0 .14199829 0 .15699768 0 .17199707 .004989624 .18199158 .015991211Z"/>
<path id="font_3_9" d="M.04598999-.12519837C.038986207-.15431214 .036987306-.16334534-.006011963-.16334534-.01701355-.16334534-.029006958-.16334534-.029006958-.18135071-.029006958-.18534851-.027008057-.19433594-.01600647-.19433594L.026992798-.19233704C.032989503-.19134522 .055999757-.19134522 .069992069-.19134522 .08699036-.19134522 .10398865-.19233704 .12098694-.19233704 .13699341-.19233704 .1539917-.19433594 .16899109-.19433594 .1749878-.19433594 .18798828-.19433594 .18798828-.17634583 .18798828-.16334534 .17799378-.16334534 .16099549-.16334534 .11399841-.16334534 .11399841-.15631104 .11399841-.14727783 .11399841-.14125061 .12098694-.114151 .125-.098083499L.1619873 .051254274C.17199707 .030258179 .19999695-.0107421879 .25698854-.0107421879 .37399293-.0107421879 .5019989 .13027954 .5019989 .28033448 .5019989 .38237 .43899537 .4423828 .3639984 .4423828 .34298707 .4423828 .29299928 .43737794 .23199463 .3693695 .21699524 .42536927 .17098999 .4423828 .13699341 .4423828 .09498596 .4423828 .07398987 .41137696 .05999756 .3843689 .042999269 .34934999 .0289917 .29234315 .0289917 .28833009 .0289917 .2793274 .035995485 .27633668 .042999269 .27633668 .053985597 .27633668 .055999757 .28134156 .06098938 .30134584 .07998657 .3803711 .100997928 .41737367 .1349945 .41737367 .16499329 .41737367 .16499329 .38536073 .16499329 .37036134 .16499329 .36236573 .1639862 .34735108 .1619873 .33935548L.04598999-.12519837M.22698975 .3083496C.23199463 .32835389 .23199463 .33035279 .24499512 .34535218 .27198792 .379364 .31698609 .41737367 .3619995 .41737367 .40899659 .41737367 .42799378 .37036134 .42799378 .323349 .42799378 .27833558 .3999939 .15429688 .36898805 .10127258 .33499146 .044265748 .29299928 .014251709 .2559967 .014251709 .19099427 .014251709 .1749878 .09327698 .1749878 .10028076 .1749878 .106277469 .1769867 .11128235 .17799378 .11628723L.22698975 .3083496Z"/>
<path id="font_2_2" d="M.2979889 .25097657C.2979889 .3329773 .28599549 .4429779 .23399353 .5539856 .1749878 .6769867 .08198547 .75 .069992069 .75 .05999756 .75 .057998659 .74198916 .057998659 .7389984 .057998659 .73399356 .05999756 .73098757 .066986087 .72398379 .125 .6719818 .23498535 .5359802 .23498535 .25097657 .23498535 .10797119 .20899964-.091033939 .06399536-.22602844 .06199646-.22903443 .057998659-.23303223 .057998659-.23803711 .057998659-.24102783 .05999756-.24902344 .069992069-.24902344 .08198547-.24902344 .17199707-.17703247 .22599793-.06802368 .27398683 .02796936 .2979889 .13098145 .2979889 .25097657Z"/>
<path id="font_4_3" d="M.2999878 .66430667C.30099488 .66830447 .30299378 .67430117 .30299378 .67930606 .30299378 .6953125 .2829895 .6943054 .2709961 .69329836L.15899658 .6843109C.14199829 .68330386 .1289978 .682312 .1289978 .65830996 .1289978 .6432953 .14199829 .6432953 .1579895 .6432953 .18699646 .6432953 .19400025 .64030459 .20698548 .63630679 .20698548 .6242981 .20698548 .6222992 .20298767 .6062927L.08099365 .12023926C.07798767 .10923767 .07598877 .100234989 .07598877 .08622742 .07598877 .025222779 .13198853-.009765625 .18798828-.009765625 .22999573-.009765625 .2539978 .017227173 .2679901 .040222169 .29499818 .083236698 .30799867 .14024353 .30799867 .14424134 .30799867 .14624024 .30699159 .1582489 .2889862 .1582489 .27398683 .1582489 .27198792 .15124512 .2679901 .13523865 .25 .0642395 .22698975 .023223877 .19198609 .023223877 .15499878 .023223877 .15499878 .06323242 .15499878 .07322693 .15499878 .0892334 .15699768 .097229007 .1599884 .10823059L.2999878 .66430667Z"/>
<path id="font_4_2" d="M.5669861 .36535646C.57099917 .38136292 .57099917 .3863678 .57099917 .38937379 .57099917 .4113922 .55400088 .4223938 .5359955 .4223938 .5189972 .4223938 .49499513 .4104004 .4889984 .38237 .47799684 .39938355 .44400025 .44140626 .37799073 .44140626 .24398804 .44140626 .11199951 .30429078 .11199951 .1681366 .11199951 .06903076 .18099976 0 .2749939 0 .32699586 0 .37399293 .025985718 .40699769 .054016115L.3849945-.036026C.37399293-.077056888 .36698915-.10507202 .32598878-.13609314 .27999879-.17111206 .23999024-.17111206 .20999146-.17111206 .1659851-.17111206 .15299988-.16911316 .13398743-.1651001 .1559906-.15109253 .1599884-.12908936 .1599884-.11907959 .1599884-.08706665 .13398743-.080062869 .11999512-.080062869 .08799744-.080062869 .06199646-.108078 .06199646-.14109802 .06199646-.20410156 .15699768-.20410156 .21099854-.20410156 .34199525-.20410156 .43699647-.15409851 .45999146-.062042238L.5669861 .36535646M.42799378 .13911438C.4229889 .12208557 .4229889 .12008667 .40899659 .10406494 .37298585 .062026979 .32299806 .032989503 .27799989 .032989503 .24099732 .032989503 .19799805 .056015016 .19799805 .13009644 .19799805 .17414856 .22099304 .27424623 .2519989 .3243103 .2889862 .38337709 .33898927 .4084015 .37799073 .4084015 .45298768 .4084015 .47399903 .33432008 .47399903 .3243103 .47399903 .31930543 .47200013 .31329347 .47099305 .30828858L.42799378 .13911438Z"/>
<path id="font_5_3" d="M.40499879 .41827394C.40499879 .43528749 .40499879 .44628907 .3889923 .44628907 .38398744 .44628907 .38198854 .44628907 .36698915 .4342804 .36499024 .4322815 .3639984 .4312744 .34899903 .419281 .31098939 .44528199 .2599945 .44628907 .23999024 .44628907 .08299255 .44628907 .052993776 .36727906 .052993776 .32226563 .052993776 .22425843 .17098999 .20524597 .24699402 .19325257 .2919922 .18624878 .3789978 .17224121 .3789978 .10623169 .3789978 .067230228 .34899903 .022232056 .24699402 .022232056 .15098572 .022232056 .11099243 .07823181 .09098816 .15324402 .08799744 .1622467 .085998538 .16824341 .07199097 .16824341 .052993776 .16824341 .052993776 .15924073 .052993776 .13923645V.018234253C.052993776 .0012207031 .052993776-.009765625 .068984989-.009765625 .07499695-.009765625 .07598877-.008773804 .09498596 .009231567L.117996219 .033233644C.16699219-.009765625 .22698975-.009765625 .24699402-.009765625 .394989-.009765625 .43399049 .070236209 .43399049 .12924195 .43399049 .16925049 .4139862 .19924927 .3919983 .21824646 .34999085 .25526429 .30999757 .2622528 .25 .27226258 .1749878 .28425599 .10798645 .29626466 .10798645 .34727479 .10798645 .37628175 .1349945 .4172821 .23899842 .4172821 .30899049 .4172821 .3619995 .39128114 .36799623 .32026673 .36898805 .30726625 .36999513 .29927064 .38598634 .29927064 .40499879 .29927064 .40499879 .30827333 .40499879 .3272705V.41827394Z"/>
<path id="font_5_2" d="M.47499085 .29823304C.47499085 .39126588 .37998963 .44628907 .2679901 .44628907 .21998596 .44628907 .101989749 .44128419 .101989749 .35725404 .101989749 .33024598 .11999512 .3082428 .15098572 .3082428 .17999268 .3082428 .19898987 .33024598 .19898987 .3562622 .19898987 .37426759 .19099427 .39126588 .17298889 .39927674 .20599365 .41427613 .2559967 .41427613 .2659912 .41427613 .33699037 .41427613 .3919983 .37226869 .3919983 .29623414V.27023316C.34599305 .26823426 .2659912 .2662201 .19299317 .24023438 .1269989 .21722412 .06399536 .17222595 .06399536 .10522461 .06399536 .016220093 .16999817-.009765625 .24798584-.009765625 .33198548-.009765625 .38198854 .032226564 .4039917 .07022095 .41099549 .018234253 .44400025-.004776001 .47898866-.004776001 .48298646-.004776001 .58999636-.004776001 .58999636 .09022522V.14523316H.5529938V.09222412C.5529938 .082229617 .5529938 .037231447 .5139923 .037231447 .47499085 .037231447 .47499085 .082229617 .47499085 .09222412V.29823304M.3919983 .14222718C.3919983 .038223268 .2889862 .022232056 .25698854 .022232056 .20298767 .022232056 .1519928 .055221559 .1519928 .10522461 .1519928 .16122437 .20599365 .23422241 .3919983 .24023438V.14222718Z"/>
<path id="font_5_4" d="M.21798706 .3916626H.38198854V.43066407H.21798706V.6147156H.18099976C.17999268 .5256958 .13699341 .42765809 .035995485 .42366029V.3916626H.1349945V.1250763C.1349945 .020233155 .21398926-.009765625 .28199769-.009765625 .35099793-.009765625 .40098573 .045196535 .40098573 .12606812V.1809845H.3639984V.12806702C.3639984 .057174684 .32699586 .025222779 .2899933 .025222779 .21798706 .025222779 .21798706 .10609436 .21798706 .1250763V.3916626Z"/>
<path id="font_3_6" d="M.43899537 .6086273C.44499208 .63061526 .44699098 .64060977 .46398927 .6436157 .47200013 .6456146 .5039978 .6456146 .5249939 .6456146 .6399994 .6456146 .673996 .63861086 .673996 .56066897 .673996 .54766848 .673996 .5326843 .6649933 .4737091L.6639862 .4657135C.6639862 .45872499 .66799929 .45173646 .6779938 .45173646 .6899872 .45173646 .69200137 .46072389 .69400027 .475708L.7200012 .64860537C.72099307 .6536102 .7220001 .65960696 .7220001 .6626129 .7220001 .6766052 .71199038 .6766052 .69299319 .6766052H.12399292C.099990848 .6766052 .09899902 .6756134 .09199524 .6566162L.02999878 .4807129C.025985718 .4677124 .025985718 .4657135 .025985718 .46472169 .025985718 .45973207 .0289917 .45173646 .038986207 .45173646 .049987794 .45173646 .051986696 .45773316 .057998659 .475708 .11299133 .6316223 .14399719 .6456146 .2889862 .6456146H.32798768C.35598756 .6456146 .35598756 .64260867 .35598756 .63461306 .35598756 .62861636 .35398866 .6216278 .35198976 .6136322L.21798706 .07896423C.20899964 .04298401 .20599365 .0309906 .099990848 .0309906 .067993167 .0309906 .05899048 .0309906 .05899048 .0129852299 .05899048 0 .07199097 0 .07598877 0 .101989749 0 .1309967 .0019989014 .1579895 .0019989014 .18598938 .0019989014 .21499634 .0029907227 .24299622 .0029907227 .2869873 .0029907227 .2889862 .0029907227 .32598878 .0019989014 .33898927 .0019989014 .40499879 0 .41299439 0 .42199708 0 .43399049 0 .43399049 .017990113 .43399049 .0309906 .4249878 .0309906 .3999939 .0309906 .375 .0309906 .36299134 .0309906 .33599855 .032989503 .31298829 .035995485 .30099488 .036987306 .30099488 .053985597 .30099488 .05897522 .30299378 .066970828 .30499269 .07395935L.43899537 .6086273Z"/>
<path id="font_3_3" d="M.69200137 .22721863C.7029877 .23220825 .71199038 .23721314 .71199038 .2512207 .71199038 .2642212 .70098879 .2702179 .69200137 .2742157L.12799073 .5452118C.11399841 .5522156 .10899353 .5522156 .10699463 .5522156 .09399414 .5522156 .085998538 .541214 .085998538 .5312195 .085998538 .5192261 .09199524 .5142212 .10598755 .5072174L.6409912 .2512207 .10598755-.005783081C.09199524-.012786865 .085998538-.017791748 .085998538-.029785157 .085998538-.03678894 .09199524-.05078125 .10798645-.05078125 .10899353-.05078125 .11399841-.05078125 .12599182-.044784547L.69200137 .22721863Z"/>
<path id="font_2_5" d="M.70799258 .3310089C.7220001 .3310089 .7409973 .3310089 .7409973 .35202027 .7409973 .37402345 .71899417 .37402345 .70399478 .37402345H.09399414C.07899475 .37402345 .056991579 .37402345 .056991579 .35202027 .056991579 .3310089 .07699585 .3310089 .08999634 .3310089H.70799258M.70399478 .12695313C.71899417 .12695313 .7409973 .12695313 .7409973 .14894104 .7409973 .1699524 .7220001 .1699524 .70799258 .1699524H.08999634C.07699585 .1699524 .056991579 .1699524 .056991579 .14894104 .056991579 .12695313 .07899475 .12695313 .09399414 .12695313H.70399478Z"/>
<path id="font_3_2" d="M.69200137 .5072174C.70098879 .5112152 .71199038 .5172272 .71199038 .53022769 .71199038 .541214 .70399478 .5522156 .6899872 .5522156 .68899539 .5522156 .6839905 .5522156 .6719971 .5462189L.10598755 .2742157C.09700012 .2702179 .085998538 .2642212 .085998538 .2512207 .085998538 .23721314 .09498596 .23220825 .10598755 .22721863L.66999819-.043792726C.6839905-.05078125 .6879883-.05078125 .6899872-.05078125 .70599368-.05078125 .71199038-.03678894 .71199038-.029785157 .71199038-.016784668 .7049866-.012786865 .69400027-.0077819826L.15699768 .2512207 .69200137 .5072174Z"/>
<path id="font_3_4" d="M.18199158 .116867069C.1329956 .036987306 .08898926 .033981325 .04899597 .0309906 .041992189 .02999878 .036987306 .021987915 .036987306 .0129852299 .036987306 .0069885256 .040985109 0 .050994874 0 .069992069 0 .116989139 .0029907227 .13598633 .0029907227 .1579895 .0029907227 .21199036 0 .23399353 0 .23999024 0 .25299073 0 .25299073 .017990113 .25299073 .02999878 .24099732 .0309906 .23799134 .0309906 .22898865 .03199768 .19099427 .033981325 .19099427 .063949588 .19099427 .077926639 .20199585 .09689331 .20498657 .101882938L.28399659 .23068238H.54499819C.5479889 .2077179 .5509949 .17378235 .55400088 .14881897 .55799868 .10987854 .56399539 .06593323 .56399539 .062942508 .56399539 .047973634 .5499878 .0309906 .49198915 .0309906 .48199464 .0309906 .46899415 .0309906 .46899415 .0129852299 .46899415 .0019989014 .47698976 0 .48399354 0 .5029907 0 .5269928 .0019989014 .5469971 .0019989014 .5669861 .0019989014 .59098818 .0029907227 .6069946 .0029907227 .6399994 .0029907227 .6419983 .0029907227 .66600039 .0019989014 .6819916 .0009918213 .7049866 0 .72099307 0 .72698977 0 .73999026 0 .73999026 .017990113 .73999026 .0309906 .72898867 .0309906 .71699526 .0309906 .6569977 .0309906 .6559906 .037979127 .6529999 .06694031L.58299258 .68881228C.58099368 .7108154 .5799866 .7158203 .5629883 .7158203 .548996 .7158203 .54299929 .7088165 .5349884 .69581606L.18199158 .116867069M.30299378 .26168824 .5049896 .5917816 .5419922 .26168824H.30299378Z"/>
<path id="font_6_1" d="M.34498597 .5483093C.4019928 .47428895 .46598817 .44128419 .49699403 .4272766 .5349884 .41127015 .57299807 .40327455 .57699587 .40327455 .59298709 .40327455 .59298709 .42027284 .59298709 .4292755 .59298709 .4512787 .59098818 .45228578 .56399539 .45828248 .46199037 .48428346 .37098695 .5613098 .33599855 .67433169 .33198548 .68733218 .32998658 .69433596 .31900025 .69433596 .30799867 .69433596 .30499269 .68533328 .3019867 .67433169 .2619934 .5523071 .17098999 .48329164 .07199097 .45828248 .04699707 .45228578 .04499817 .4512787 .04499817 .4292755 .04499817 .42027284 .04499817 .40327455 .06098938 .40327455 .06399536 .40327455 .09498596 .40927125 .13398743 .42427064 .18299866 .4442749 .24299622 .48228456 .29299928 .5483093V-.15284729C.29299928-.16885376 .29299928-.19386292 .31900025-.19386292 .34498597-.19386292 .34498597-.16885376 .34498597-.15284729V.5483093Z"/>
<path id="font_6_2" d="M.34498597 .6533203C.34498597 .6693268 .34498597 .69433596 .31900025 .69433596 .29299928 .69433596 .29299928 .6693268 .29299928 .6533203V-.047836305C.24499512 .015182495 .18998719 .05218506 .14099121 .07319641 .102996829 .08920288 .06498718 .09719849 .06098938 .09719849 .04499817 .09719849 .04499817 .080200199 .04499817 .07119751 .04499817 .049194337 .04699707 .048187257 .07398987 .04219055 .1539917 .02218628 .25898744-.03982544 .3019867-.17385865 .30499269-.18486023 .30799867-.19386292 .31900025-.19386292 .32998658-.19386292 .33198548-.18585205 .33499146-.17585755 .37298585-.05683899 .46199037 .016189576 .56599429 .04219055 .59098818 .048187257 .59298709 .049194337 .59298709 .07119751 .59298709 .080200199 .59298709 .09719849 .57699587 .09719849 .57398989 .09719849 .54299929 .09120178 .5039978 .07620239 .45199586 .05519104 .3939972 .016189576 .34498597-.047836305V.6533203Z"/>
<path id="font_7_1" d="M.57598879-1.7458496C.57598879-1.7438507 .57598879-1.7418366 .57499697-1.7398377L.5479889-1.7128449C.45098878-1.6148529 .37098695-1.471878 .32699586-1.3218842 .2829895-1.1719055 .2649994-1.0149231 .2649994-.8579407 .2649994-.5079651 .34700013-.20399475 .56199648 .011978149 .57598879 .024978638 .57598879 .026977539 .57598879 .0309906 .57598879 .041992189 .56599429 .041992189 .5549927 .041992189 .5399933 .041992189 .5379944 .041992189 .5139923 .018981934 .25898744-.22099304 .18499756-.55696108 .18499756-.8569336 .18499756-1.2618866 .31999208-1.5688629 .5309906-1.7478485 .5399933-1.7568359 .5419922-1.7568359 .5549927-1.7568359 .56599429-1.7568359 .57598879-1.7568359 .57598879-1.7458496Z"/>
<path id="font_2_3" d="M.70599368 .22944641C.7200012 .22944641 .7409973 .22944641 .7409973 .25045777 .7409973 .27246095 .7220001 .27246095 .70599368 .27246095H.42099V.5578003C.42099 .573761 .42099 .59277346 .39898683 .59277346 .37799073 .59277346 .37799073 .57177737 .37799073 .5578003V.27246095H.09199524C.07798767 .27246095 .056991579 .27246095 .056991579 .25144959 .056991579 .22944641 .07598877 .22944641 .09199524 .22944641H.37799073V-.056793214C.37799073-.07279968 .37799073-.091796878 .3999939-.091796878 .42099-.091796878 .42099-.07080078 .42099-.056793214V.22944641H.70599368Z"/>
<path id="font_3_7" d="M.38198854 .3803711C.36299134 .41638185 .33198548 .4423828 .2869873 .4423828 .17098999 .4423828 .041992189 .30433656 .041992189 .1512909 .041992189 .041259767 .11199951-.0107421879 .1789856-.0107421879 .24398804-.0107421879 .29699708 .043258668 .31298829 .06227112 .32398988 .007247925 .37399293-.0107421879 .4059906-.0107421879 .43499757-.0107421879 .45999146 .002243042 .48199464 .044265748 .5 .07727051 .5139923 .13928223 .5139923 .14329529 .5139923 .14828491 .5109863 .1552887 .5009918 .1552887 .4889984 .1552887 .48799134 .15029907 .48399354 .13128662 .46199037 .044265748 .43998719 .014251709 .40899659 .014251709 .38398744 .014251709 .37799073 .038253786 .37799073 .060272218 .37799073 .07926941 .3829956 .09927368 .3919983 .1342926L.4169922 .23731995C.42399598 .2623291 .44198609 .33735658 .44599916 .35235597 .44999696 .36636354 .45599366 .3903656 .45599366 .39337159 .45599366 .40937806 .44299317 .42237855 .4249878 .42237855 .4119873 .42237855 .3869934 .41438294 .38198854 .3803711M.31698609 .122283939C.31199647 .103271488 .31199647 .10227966 .29599 .08326721 .2599945 .040252687 .21899414 .014251709 .18199158 .014251709 .1329956 .014251709 .115997318 .06526184 .115997318 .10827637 .115997318 .15730286 .14498902 .27233888 .16899109 .32034303 .20098877 .3803711 .24699402 .41737367 .2869873 .41737367 .35398866 .41737367 .36898805 .33735658 .36898805 .33035279 .36898805 .3253479 .36698915 .3193512 .3659973 .31533814L.31698609 .122283939Z"/>
<path id="font_5_1" d="M.5379944 .18702698H.5009918C.49899293 .17301941 .4889984 .10699463 .47399903 .09599304 .46699525 .08999634 .38598634 .08999634 .37199403 .08999634H.18499756L.31298829 .19403076C.34700013 .22103882 .43598939 .28504945 .46699525 .31506349 .49699403 .3450775 .5379944 .39608766 .5379944 .46710206 .5379944 .5920563 .4249878 .66503909 .29100038 .66503909 .1619873 .66503909 .07199097 .58006289 .07199097 .48609925 .07199097 .43510438 .114990238 .42910768 .12599182 .42910768 .15098572 .42910768 .17999268 .44709779 .17999268 .48310853 .17999268 .50509646 .16699219 .5371094 .12298584 .5371094 .1459961 .5880585 .20698548 .6260376 .27598573 .6260376 .3809967 .6260376 .43699647 .5480957 .43699647 .46710206 .43699647 .39608766 .3899994 .32305909 .31999208 .25904847L.08299255 .041992189C.07299805 .03199768 .07199097 .0309906 .07199097 0H.5069885L.5379944 .18702698Z"/>
<path id="font_7_2" d="M.42799378-.8569336C.42799378-.4599762 .29599-.14900208 .08198547 .032989503 .07299805 .041992189 .070999149 .041992189 .057998659 .041992189 .04798889 .041992189 .036987306 .041992189 .036987306 .0309906 .036987306 .0289917 .036987306 .025985718 .038986207 .024978638 .039993287 .023986817 .039993287 .021987915 .06599426-.0040130617 .14698792-.085006717 .23599243-.22099304 .28599549-.39297486 .32998658-.54296877 .34799195-.6999512 .34799195-.8569336 .34799195-1.2098999 .2649994-1.5118713 .050994874-1.7268372 .036987306-1.7398377 .036987306-1.7418366 .036987306-1.7458496 .036987306-1.7568359 .04798889-1.7568359 .057998659-1.7568359 .07299805-1.7568359 .07499695-1.7568359 .09899902-1.733841 .35099793-1.4978638 .42799378-1.1649017 .42799378-.8569336Z"/>
<path id="font_8_1" d="M.6749878 .22944641C.69299319 .22944641 .71199038 .22944641 .71199038 .25144959 .71199038 .27246095 .69200137 .27246095 .6749878 .27246095H.12298584C.10598755 .27246095 .085998538 .27246095 .085998538 .25144959 .085998538 .22944641 .10499573 .22944641 .12298584 .22944641H.6749878Z"/>
<path id="font_3_8" d="M.23899842 .6603241C.24299622 .67433169 .24299622 .67633059 .24299622 .68032839 .24299622 .68933108 .23699951 .69433596 .22799683 .69433596 .21398926 .69433596 .12599182 .6863251 .10598755 .6843262 .09599304 .68333438 .084991458 .6823273 .084991458 .665329 .084991458 .6523285 .09599304 .6523285 .11199951 .6523285 .15899658 .6523285 .15899658 .6453247 .15899658 .6363373 .15899658 .6303406 .15899658 .6283264 .1519928 .6013336L.09899902 .3903656C.084991458 .3343506 .07199097 .28334046 .06098938 .23631287 .053985597 .21131897 .04699707 .18130493 .04699707 .14929199 .04699707 .06326294 .09498596-.0107421879 .18099976-.0107421879 .2979889-.0107421879 .42599488 .13027954 .42599488 .28033448 .42599488 .38237 .36299134 .4423828 .28799439 .4423828 .23699951 .4423828 .19299317 .40737916 .16999817 .38536073L.23899842 .6603241M.1559906 .32835389C.18399048 .36836244 .23498535 .41737367 .28599549 .41737367 .33299256 .41737367 .35198976 .37036134 .35198976 .323349 .35198976 .27833558 .32398988 .15429688 .29299928 .10127258 .2559967 .037261964 .21199036 .014251709 .18099976 .014251709 .1309967 .014251709 .11099243 .06427002 .11099243 .11528015 .11099243 .15029907 .117996219 .17730713 .14099121 .2683258L.1559906 .32835389Z"/>
<path id="font_3_5" d="M.3809967 .6125946C.3869934 .63760378 .3899994 .6476135 .4079895 .65060427 .4169922 .6516113 .44999696 .6516113 .47099305 .6516113 .5499878 .6516113 .6599884 .6516113 .6599884 .5505829 .6599884 .51356509 .644989 .4385376 .58799746 .39552308 .56399539 .3795166 .5139923 .35351563 .43299867 .35351563H.31599427L.3809967 .6125946M.5359955 .33850099C.6719971 .3735199 .7559967 .44953919 .7559967 .53157046 .7559967 .61860659 .6609955 .6826172 .5279999 .6826172H.23799134C.21998596 .6826172 .20799256 .6826172 .20799256 .6646118 .20799256 .6516113 .21699524 .6516113 .23799134 .6516113 .24198914 .6516113 .2599945 .6516113 .27598573 .6496124 .29299928 .6476135 .2999878 .6456146 .2999878 .6345978 .2999878 .62960818 .29899598 .6255951 .29599 .6145935L.16099549 .075531009C.1519928 .039535524 .1499939 .030532837 .07499695 .030532837 .055999757 .030532837 .04499817 .030532837 .04499817 .012527466 .04499817 .0015258789 .052993776-.00047302247 .05999756-.00047302247 .07598877-.00047302247 .10598755 .0005340576 .12298584 .0015258789 .14399719 .002532959 .1459961 .002532959 .18499756 .002532959 .21699524 .002532959 .21899414 .002532959 .24899292 .0015258789 .2689972 .0005340576 .2939911-.00047302247 .31298829-.00047302247 .31999208-.00047302247 .33299256-.00047302247 .33299256 .017532349 .33299256 .030532837 .32299806 .030532837 .3019867 .030532837 .2979889 .030532837 .27999879 .030532837 .2639923 .03253174 .24198914 .03552246 .24099732 .039535524 .24099732 .04852295 .24099732 .05152893 .24099732 .053527833 .24598694 .0715332L.30999757 .32850648H.43299867C.522995 .32850648 .54599 .27650453 .54599 .23851013 .54599 .2315216 .54599 .22451782 .5399933 .20251465 .5159912 .11051941 .5159912 .10151672 .5159912 .08653259 .5159912-.0034637452 .6009979-.022460938 .6519928-.022460938 .7389984-.022460938 .7749939 .07852173 .7749939 .0945282 .7749939 .10151672 .7689972 .10652161 .7619934 .10652161 .7509918 .10652161 .75 .10151672 .74598696 .089523319 .72898867 .037521364 .69200137 .002532959 .6549988 .002532959 .61698916 .002532959 .61499026 .03253174 .61499026 .061523439 .61499026 .08653259 .621994 .14451599 .6230011 .15151978 .625 .16752625 .6299896 .20751953 .6299896 .22251892 .6299896 .2795105 .59399417 .31851197 .5359955 .33850099Z"/>
<path id="font_9_74" d="M.897995 0V.0309906H.875C.7979889 .0309906 .79599 .041992189 .79599 .07896423V.6036377C.79599 .64060977 .7979889 .6516113 .875 .6516113H.897995V.6826172H.7299957C.70899966 .6826172 .70199587 .6826172 .69499209 .6646118L.47099305 .09794617 .24699402 .660614C.23899842 .680603 .23799134 .6826172 .21099854 .6826172H.042999269V.6516113H.06599426C.14299011 .6516113 .14498902 .64060977 .14498902 .6036377V.10594177C.14498902 .07896423 .14498902 .0309906 .042999269 .0309906V0C.09799194 .0019989014 .11199951 .0029907227 .16099549 .0029907227 .20899964 .0029907227 .22399903 .0019989014 .27799989 0V.0309906C.17599488 .0309906 .17599488 .07896423 .17599488 .10594177V.64060977L.1769867 .6416168 .4229889 .021987915C.42799378 .008987427 .43199159 0 .44400025 0 .45498658 0 .45999146 .008987427 .46398927 .017990113L.71398928 .6496124 .71499636 .64860537V.07896423C.71499636 .041992189 .71299746 .0309906 .6359863 .0309906H.61299136V0C.6729889 .0029907227 .73999026 .0029907227 .7549896 .0029907227 .7609863 .0029907227 .83499148 .0029907227 .897995 0Z"/>
<path id="font_9_28" d="M.49699403 .089141849V.14515686H.46899415V.090148929C.46899415 .07914734 .46899415 .029129029 .43299867 .029129029 .39698792 .029129029 .39698792 .07714844 .39698792 .09315491V.26818849C.39698792 .32521058 .39698792 .3592224 .35198976 .40022279 .31498719 .43322755 .2669983 .4482422 .21699524 .4482422 .1329956 .4482422 .06298828 .40623475 .06298828 .34220887 .06298828 .311203 .083999637 .2942047 .10998535 .2942047 .13699341 .2942047 .1559906 .31420899 .1559906 .34020997 .1559906 .3832245 .11099243 .38822938 .11099243 .38822938 .13798523 .41423036 .18598938 .42323304 .21499634 .42323304 .2659912 .42323304 .32299806 .3852234 .32299806 .29719544V.26419068C.2689972 .26219178 .19400025 .2571869 .1269989 .22518921 .054992677 .19017029 .032989503 .13816834 .032989503 .09814453 .032989503 .01625061 .12998963-.0107421879 .19699097-.0107421879 .27999879-.0107421879 .31799317 .04425049 .33198548 .072250369 .33699037 .030136109 .3659973-.005859375 .40899659-.005859375 .43399049-.005859375 .49699403 .009140015 .49699403 .08912659V.089141849M.32299806 .14112854C.32299806 .04425049 .24798584 .014251709 .20399475 .014251709 .15699768 .014251709 .11299133 .04824829 .11299133 .098236087 .11299133 .16423035 .16999817 .23422241 .32299806 .24023438V.14112854Z"/>
<path id="font_9_116" d="M.5279999 0V.0309906C.48799134 .0309906 .45799256 .0309906 .43598939 .05897522L.30499269 .22491455C.2979889 .23390198 .2979889 .23590088 .2979889 .23590088 .2979889 .23590088 .37599183 .33285523 .38398744 .3408661 .4149933 .37483216 .44898988 .39866639 .5099945 .3996582V.43066407C.48098756 .42765809 .45399476 .42765809 .4249878 .42765809 .3869934 .42765809 .36898805 .42765809 .32899476 .43066407V.3996582C.34399415 .39767457 .35699464 .38972474 .35699464 .3698578 .35699464 .35386659 .34799195 .342865 .34298707 .3368683L.2789917 .2578888 .20098877 .3568573C.19400025 .36586 .19198609 .3678589 .19198609 .37483216 .19198609 .38674928 .20298767 .39866639 .22599793 .3996582V.43066407C.18798828 .4286499 .1619873 .42765809 .116989139 .42765809 .116989139 .42765809 .057998659 .42765809 .018997193 .43066407V.3996582C.08799744 .3996582 .08999634 .39767457 .13598633 .3388672L.23899842 .20991516 .14199829 .0929718C.09199524 .032989503 .034988405 .0309906 .01399231 .0309906V0C.042999269 .0029907227 .069992069 .0029907227 .09899902 .0029907227 .1309967 .0029907227 .16299439 .0019989014 .19499207 0V.0309906C.16999817 .033996583 .16699219 .050979616 .16699219 .06097412 .16699219 .0639801 .16699219 .07797241 .18199158 .095962528 .20599365 .12695313 .23199463 .15693665 .25698854 .18692017L.33599855 .08596802C.35499574 .0639801 .35499574 .0619812 .35499574 .055984498 .35499574 .04498291 .34498597 .03199768 .32099916 .0309906V0C.36299134 .0019989014 .3869934 .0029907227 .42999269 .0029907227 .42999269 .0029907227 .4889984 .0029907227 .5279999 0Z"/>
<path id="font_9_114" d="M.72099307 .3996582V.43066407C.68099978 .42765809 .67900088 .42765809 .6459961 .42765809 .60798647 .42765809 .59399417 .42765809 .55400088 .43066407V.3996582C.5970001 .39865113 .61099246 .3717041 .61099246 .35173036 .61099246 .34173585 .60899356 .3357544 .60598757 .32876588L.5139923 .07911682 .41299439 .35272218C.4079895 .3657074 .4079895 .36869813 .4079895 .3717041 .4079895 .3976593 .43899537 .3996582 .46499635 .3996582V.43066407C.4189911 .42765809 .37799073 .42765809 .3619995 .42765809 .33099366 .42765809 .3019867 .42765809 .269989 .43066407V.3996582C.3019867 .3996582 .32199098 .39865113 .33299256 .38467408 .34199525 .37368775 .35499574 .3337555 .35499574 .3307495L.34999085 .31677247 .2679901 .09210205 .17298889 .35173036C.16699219 .36669923 .16699219 .36869813 .16699219 .37269593 .16699219 .3996582 .20599365 .3996582 .22499085 .3996582V.43066407L.115997318 .42765809C.08299255 .42765809 .053985597 .42765809 .019989014 .43066407V.3996582C.067993167 .3996582 .08099365 .3976593 .09298706 .3637085L.22200012 .01121521C.22698975-.00076293948 .22999573-.0107421879 .24499512-.0107421879 .2599945-.0107421879 .2639923 .00022888184 .2679901 .010223389L.36999513 .28981019 .47299195 .010223389C.47698976 .00022888184 .48098756-.0107421879 .49598695-.0107421879 .5109863-.0107421879 .5139923-.00076293948 .5179901 .009216309L.6369934 .3337555C.6589966 .39466859 .69999697 .39865113 .72099307 .3996582Z"/>
<path id="font_9_50" d="M.4269867 .11936951C.4269867 .12637329 .42199708 .13237 .41299439 .13237 .40299989 .13237 .3999939 .12536621 .39898683 .12136841 .36499024 .019256592 .27598573 .01725769 .26098634 .01725769 .21299744 .01725769 .17199707 .044281007 .14898682 .078323367 .115997318 .12736511 .114990238 .18743897 .114990238 .22949219H.3999939C.42199708 .22949219 .4269867 .22949219 .4269867 .25048829 .4269867 .35333253 .37098695 .4482422 .24299622 .4482422 .12298584 .4482422 .0289917 .3443451 .0289917 .22047425 .0289917 .08932495 .13398743-.0107421879 .2559967-.0107421879 .37799073-.0107421879 .4269867 .096343997 .4269867 .11936951M.35899354 .253479H.115997318C.125 .40725709 .21499634 .42323304 .24299622 .42323304 .2979889 .42323304 .35798646 .38130189 .35899354 .253479Z"/>
<path id="font_9_72" d="M.26098634 0V.0309906C.19499207 .0309906 .18399048 .0309906 .18399048 .07701111V.69433596L.035995485 .6826172V.6516113C.10398865 .6516113 .11299133 .64460757 .11299133 .5956421V.07696533C.11299133 .0309906 .101989749 .0309906 .035995485 .0309906V0C.08299255 .0019989014 .101989749 .0029907227 .147995 .0029907227 .19499207 .0029907227 .21199036 .0019989014 .26098634 0Z"/>
<path id="font_9_44" d="M.19599915 .3766632C.19599915 .406662 .17199707 .43066407 .14199829 .43066407 .11199951 .43066407 .08799744 .406662 .08799744 .3766632 .08799744 .34765626 .11199951 .32266236 .14199829 .32266236 .17199707 .32266236 .19599915 .34765626 .19599915 .3766632M.19599915 .053985597C.19599915 .08299255 .17199707 .10798645 .14199829 .10798645 .11199951 .10798645 .08799744 .08299255 .08799744 .053985597 .08799744 .023986817 .11199951 0 .14199829 0 .17199707 0 .19599915 .023986817 .19599915 .053985597Z"/>
<path id="font_8_2" d="M.9299927 .12695313C.94799807 .12695313 .9700012 .12695313 .9700012 .14894104 .9700012 .1699524 .95098879 .1699524 .93499758 .1699524H.2869873C.23599243 .21395874 .18699646 .236969 .1539917 .24998474 .19699097 .26898194 .24198914 .29299928 .2869873 .3310089H.93499758C.95098879 .3310089 .9700012 .3310089 .9700012 .35202027 .9700012 .37402345 .94799807 .37402345 .9299927 .37402345H.33499146C.397995 .4411316 .43299867 .51023867 .43299867 .5182495 .43299867 .53125 .42099 .53125 .4119873 .53125 .3999939 .53125 .394989 .53125 .3899994 .5222473 .30899049 .36601258 .19699097 .29899598 .067993167 .26298524 .05999756 .26098634 .056991579 .25498963 .056991579 .25097657 .056991579 .24098206 .06599426 .23898316 .067993167 .23797608 .116989139 .2239685 .18699646 .20495606 .272995 .13194275 .30999757 .099990848 .35198976 .053085329 .3849945-.009796143 .394989-.028793335 .3959961-.029800415 .4119873-.029800415 .42099-.029800415 .43299867-.029800415 .43299867-.016799927 .43299867-.0087890629 .39898683 .05908203 .33499146 .12695313H.9299927Z"/>
<path id="font_8_3" d="M.73999026 .3310089C.79100039 .28700257 .83999636 .2639923 .8730011 .25097657 .8299866 .23197937 .7849884 .20796204 .73999026 .1699524H.09199524C.07699585 .1699524 .056991579 .1699524 .056991579 .14894104 .056991579 .12695313 .07899475 .12695313 .09700012 .12695313H.69200137C.6289978 .060073854 .59399417-.0087890629 .59399417-.016799927 .59399417-.029800415 .60598757-.029800415 .61499026-.029800415 .6269989-.029800415 .6319885-.029800415 .6369934-.02079773 .71798709 .13494873 .8299866 .20196533 .95899966 .23797608 .96699526 .23997498 .9700012 .24597168 .9700012 .24998474 .9700012 .25997926 .96099856 .26197816 .95899966 .26298524 .9099884 .2769928 .83999636 .29600526 .7539978 .36901856 .71699526 .401062 .6749878 .44813539 .6419983 .5112457 .6319885 .5302429 .6309967 .53125 .61499026 .53125 .60598757 .53125 .59399417 .53125 .59399417 .5182495 .59399417 .51023867 .6279907 .4421234 .69200137 .37402345H.09700012C.07899475 .37402345 .056991579 .37402345 .056991579 .35202027 .056991579 .3310089 .07699585 .3310089 .09199524 .3310089H.73999026Z"/>
<path id="font_7_3" d="M.5099945-1.3887177C.6759949-1.3887177 .7919922-1.2557678 .7919922-1.1108704 .7919922-1.0159302 .7409973-.90600588 .61898806-.85401919 .6380005-.7569885 .6549988-.63594058 .70399478-.4018402 .7299957-.28079225 .7839966-.025009156 .8580017-.025009156 .8659973-.025009156 .8959961-.026992798 .91999819-.04977417 .875-.053741456 .87098696-.08874512 .87098696-.098739627 .87098696-.1327362 .897995-.14874268 .91999819-.14874268 .94400027-.14874268 .9700012-.1327362 .9700012-.0977478 .9700012-.04283142 .91600039 0 .8569946 0 .7480011 0 .69299319-.15473938 .6619873-.2507782 .6239929-.3628235 .54299929-.7169647 .5169983-.8330078 .35099793-.8330078 .23498535-.96595767 .23498535-1.1108704 .23498535-1.2057953 .28599549-1.3157349 .4079895-1.3677063 .3889923-1.4647369 .37199403-1.5857849 .32299806-1.8198547 .29699708-1.9409027 .24299622-2.1972657 .16899109-2.1972657 .16099549-2.1972657 .1309967-2.1952515 .10699463-2.1719819 .1519928-2.1679536 .1559906-2.1329499 .1559906-2.1229554 .1559906-2.0889588 .1289978-2.0729523 .10699463-2.0729523 .08299255-2.0729523 .056991579-2.0889588 .056991579-2.1239472 .056991579-2.179062 .11099243-2.2222748 .16999817-2.2222748 .2789917-2.2222748 .33399964-2.0669556 .36499024-1.9709168 .40299989-1.8588715 .48399354-1.5047455 .5099945-1.3887177M.4149933-1.3247223C.30999757-1.2737579 .27799989-1.1788178 .27799989-1.1108704 .27799989-.9929352 .36799623-.88101199 .5079956-.87602236L.4149933-1.3247223M.61099246-.8970032C.70999148-.9429779 .7489929-1.0349121 .7489929-1.1108704 .7489929-1.2287903 .6589966-1.3407135 .5189972-1.3457031L.61099246-.8970032Z"/>
<path id="font_2_6" d="M.3889923 .120285037C.3889923 .10227966 .3889923 .09927368 .37399293 .07827759 .34298707 .0332489 .29699708 .014251709 .25698854 .014251709 .21398926 .014251709 .17399597 .038253786 .147995 .08027649 .12199402 .123291019 .11999512 .18229676 .11999512 .21430969 .11999512 .26132203 .12599182 .3143463 .1519928 .35435487 .17399597 .3863678 .21499634 .41737367 .2679901 .41737367 .30999757 .41737367 .34999085 .39637757 .3769989 .35835267 .3889923 .3423462 .3889923 .34135438 .3889923 .32234193V.120285037M.3919983 .38336183C.3869934 .38937379 .34199525 .4423828 .2639923 .4423828 .14099121 .4423828 .033996583 .34436036 .033996583 .21531677 .033996583 .090270999 .13398743-.0107421879 .25299073-.0107421879 .32598878-.0107421879 .37098695 .03225708 .3889923 .053268434V-.011001587L.5399933 0V.0309906C.47200013 .0309906 .46299745 .037994386 .46299745 .087020877V.69433596L.31498719 .68333438V.6523285C.3829956 .6523285 .3919983 .6453247 .3919983 .5962982V.38336183Z"/>
<path id="font_2_4" d="M.47299195 .31976319C.47299195 .38682557 .46998597 .47288514 .43499757 .5479431 .3909912 .64201357 .31498719 .6660156 .25698854 .6660156 .19699097 .6660156 .12098694 .64201357 .07699585 .5459442 .04499817 .47688294 .039993287 .39582826 .039993287 .31976319 .039993287 .25471498 .041992189 .15765381 .084991458 .07858276 .13198853-.0064697267 .20999146-.022460938 .2559967-.022460938 .32099916-.022460938 .394989 .0055389406 .43699647 .097595218 .46699525 .1646576 .47299195 .23971558 .47299195 .31976319M.25698854 .002532959C.22698975 .002532959 .15499878 .016540528 .13598633 .12962342 .12599182 .18867493 .12599182 .2747345 .12599182 .33177186 .12599182 .39982606 .12599182 .47888185 .13798523 .53393557 .1579895 .6230011 .22200012 .64100649 .2559967 .64100649 .2939911 .64100649 .35699464 .62098696 .37599183 .5279236 .3869934 .47288514 .3869934 .39482118 .3869934 .33177186 .3869934 .2697296 .3869934 .18566895 .3769989 .12661743 .35598756 .012542725 .28199769 .002532959 .25698854 .002532959Z"/>
</defs>
<path transform="matrix(1,0,0,-1,27.38982,3400.0745)" d="M41.0435 66.07233C41.0435 66.07233 41.22827 64.50768 41.29915 63.9516 41.37001 63.39552 41.48347 62.57777 41.55434 62.06442 41.62521 61.55107 41.7391 60.73477 41.80998 60.25166 41.88084 59.76855 41.99437 59.02946 42.06517 58.5825 42.13599 58.13553 42.2495 57.44276 42.32037 57.03012 42.39124 56.61748 42.50511 55.98148 42.57599 55.60837 42.64687 55.23528 42.76033 54.6852 42.8312 54.34103 42.90207 53.99686 43.01595 53.46112 43.08682 53.12776 43.1577 52.7944 43.27121 52.25154 43.34203 51.93828 43.41283 51.62502 43.52634 51.13655 43.59721 50.86992 43.66809 50.60329 43.78198 50.25912 43.85284 50.01651 43.92372 49.77388 44.03717 49.3599 44.10805 49.12115 44.17892 48.88243 44.29282 48.5067 44.36368 48.29587 44.43456 48.08505 44.54807 47.78937 44.61888 47.60165 44.68968 47.41394 44.8032 47.11597 44.87407 46.9429 44.94495 46.76982 45.05882 46.50351 45.1297 46.35422 45.20056 46.20491 45.31404 46.00476 45.3849 45.86674 45.45578 45.72873 45.56966 45.48769 45.64053 45.35938 45.7114 45.23108 45.8249 45.05522 45.89572 44.94199 45.96654 44.82874 46.08005 44.6447 46.15092 44.54317 46.22179 44.44164 46.33568 44.29721 46.40656 44.21013 46.47743 44.12305 46.59088 43.99034 46.66174 43.91557 46.73262 43.8408 46.84651 43.736 46.91739 43.67119 46.98827 43.60638 47.10178 43.50046 47.17258 43.44843 47.2434 43.39641 47.3569 43.33698 47.42778 43.29617 47.49866 43.25537 47.61253 43.19475 47.6834 43.1543 47.75427 43.11386 47.86774 43.04544 47.93861 43.00464 48.00948 42.96384 48.12337 42.88693 48.19423 42.86018 48.2651 42.83342 48.37862 42.82277 48.44943 42.81172 48.52023 42.80069 48.63376 42.78575 48.70462 42.7806 48.7755 42.77544 48.88939 42.77237 48.96027 42.77454 49.03113 42.77669 49.14458 42.78627 49.21545 42.79616 49.28633 42.80606 49.40022 42.83469 49.47108 42.8459 49.54196 42.85712 49.65547 42.86102 49.72629 42.87704 49.7971 42.89307 49.91061 42.93506 49.98148 42.9614 50.05235 42.98772 50.16623 43.03561 50.2371 43.06693 50.30797 43.09824 50.42145 43.14871 50.49231 43.18716 50.56319 43.22563 50.67706 43.30553 50.74794 43.34418 50.8188 43.38283 50.93233 43.42552 51.00313 43.46573 51.07394 43.50594 51.18745 43.5869 51.25833 43.63399 51.3292 43.68108 51.44308 43.75409 51.51396 43.80527 51.58484 43.85646 51.69829 43.9496 51.76917 44.00294 51.84003 44.05629 51.95392 44.13448 52.0248 44.1898 52.09567 44.24512 52.20918 44.34383 52.28 44.40173 52.3508 44.45964 52.46431 44.54611 52.53519 44.6072 52.60606 44.66827 52.71994 44.78049 52.7908 44.84206 52.86168 44.90363 52.97514 44.98941 53.04602 45.05098 53.1169 45.11255 53.23077 45.21762 53.30164 45.28584 53.37251 45.35408 53.48602 45.47166 53.55684 45.54279 53.62764 45.61389 53.74117 45.7258 53.81203 45.7984 53.8829 45.871 53.9968 45.9936 54.06767 46.06615 54.13853 46.1387 54.252 46.24658 54.32286 46.32135 54.39374 46.39612 54.50763 46.53009 54.5785 46.60509 54.64937 46.6801 54.76288 46.78923 54.8337 46.86201 54.90451 46.93481 55.01802 47.0518 55.0889 47.12976 55.15976 47.20772 55.27364 47.34438 55.34451 47.42389 55.41539 47.50339 55.52885 47.62294 55.59972 47.70287 55.6706 47.7828 55.78447 47.91751 55.85535 48.00003 55.92622 48.08255 56.03973 48.2166 56.11053 48.2976 56.18135 48.37862 56.29486 48.50276 56.36574 48.58395 56.43661 48.66515 56.5505 48.802 56.62137 48.88284 56.69225 48.96367 56.8057 49.08467 56.87657 49.16658 56.94743 49.24849 57.06134 49.38947 57.1322 49.47325 57.20308 49.55702 57.31659 49.68788 57.3874 49.7704 57.4582 49.85292 57.57173 49.98824 57.6426 50.06798 57.71347 50.14774 57.82735 50.26424 57.89822 50.34525 57.96909 50.42627 58.08255 50.5651 58.15343 50.65192 58.2243 50.73875 58.33818 50.88599 58.40904 50.97113 58.47992 51.05627 58.66425 51.26569 58.66425 51.26569L58.71832 66.0256H41.0435Z" fill="#ffd2a6" fill-opacity=".7"/>
<path transform="matrix(1,0,0,-1,27.38982,3400.0745)" d="M58.71832 66.0256V51.30893C58.71832 51.30893 59.2064 51.88008 59.39394 52.10309 59.58147 52.32608 59.88248 52.69458 60.07 52.91626 60.25754 53.13792 60.55815 53.487 60.74562 53.70088 60.93309 53.91475 61.23372 54.24458 61.42125 54.45781 61.60878 54.67104 61.90977 55.0273 62.0973 55.23769 62.28484 55.44809 62.5854 55.77014 62.77293 55.9743 62.96046 56.17847 63.26144 56.5076 63.44897 56.70918 63.6365 56.91075 63.93715 57.23276 64.12462 57.42719 64.31209 57.62161 64.6127 57.91791 64.80023 58.11061 64.98776 58.3033 65.28876 58.62703 65.47629 58.81607 65.66382 59.0051 65.96439 59.2912 66.15192 59.4731 66.33945 59.65498 66.64043 59.95143 66.82797 60.12709 67.0155 60.30275 67.31612 60.56929 67.50359 60.73914 67.69106 60.90897 67.9917 61.18266 68.17923 61.35118 68.36676 61.5197 68.66774 61.79082 68.85527 61.95369 69.0428 62.11656 69.34341 62.36803 69.5309 62.52507 69.71837 62.68213 70.019 62.9327 70.20653 63.08565 70.39406 63.23862 70.69504 63.48029 70.88258 63.62761 71.07011 63.77493 71.37067 64.00471 71.5582 64.14754 71.74573 64.29036 72.04672 64.51964 72.23425 64.65706 72.4218 64.7945 72.72241 65.00433 72.90988 65.13803 73.09735 65.27174 73.39796 65.49048 73.58551 65.62076 73.77304 65.75104 74.07404 65.95435 74.26157 66.07707 74.4491 66.1998 74.74965 66.38649 74.93718 66.50531 75.12473 66.62411 75.42572 66.82008 75.61325 66.93352 75.80078 67.04694 76.1014 67.21368 76.28886 67.32278 76.47635 67.4319 76.77696 67.61334 76.9645 67.71986 77.15202 67.82639 77.45302 67.98926 77.64055 68.09055 77.82808 68.19185 78.12865 68.35475 78.31618 68.44998 78.50371 68.54523 78.8047 68.68427 78.99223 68.77698 79.17976 68.86969 79.4804 69.02771 79.66786 69.11827 79.85533 69.20882 80.15594 69.34569 80.34348 69.42969 80.531 69.5137 80.83202 69.64261 81.01955 69.7238 81.20708 69.805 81.50763 69.93564 81.69516 70.01491 81.88269 70.09418 82.1837 70.21976 82.37123 70.29518 82.55876 70.37062 82.85938 70.48906 83.04684 70.55861 83.23431 70.62816 83.53494 70.72935 83.72247 70.79651 83.91 70.86365 84.211 70.97908 84.39853 71.04262 84.58606 71.10617 84.88663 71.19492 85.07416 71.25456 85.26169 71.31422 85.56267 71.41298 85.7502 71.47256 85.93773 71.53215 86.23837 71.629 86.42584 71.68407 86.61331 71.73915 86.91393 71.81946 87.10146 71.86963 87.28899 71.91978 87.58998 71.99881 87.77751 72.04568 87.96504 72.09254 88.26561 72.161 88.45314 72.20744 88.64067 72.25389 88.94167 72.33594 89.1292 72.38046 89.31673 72.42499 89.61734 72.4889 89.80481 72.52838 89.99228 72.56787 90.29292 72.62709 90.48045 72.66507 90.66798 72.70305 90.96896 72.7678 91.1565 72.80219 91.34402 72.83658 91.64459 72.88116 91.83212 72.9129 92.01965 72.94464 92.32065 73.00034 92.50818 73.03099 92.69571 73.06166 92.99634 73.10538 93.1838 73.13394 93.37128 73.1625 93.67189 73.21097 93.85942 73.2369 94.04695 73.26282 94.34796 73.29576 94.53549 73.32079 94.72302 73.34581 95.02357 73.39374 95.2111 73.41725 95.39864 73.44077 95.69965 73.47176 95.88718 73.49036 96.0747 73.50894 96.37532 73.53448 96.56279 73.55135 96.75026 73.5682 97.05089 73.59462 97.23842 73.6119 97.42595 73.62917 97.72694 73.66055 97.91447 73.6759 98.102 73.69127 98.40257 73.71141 98.5901 73.72263 98.77763 73.73384 99.07863 73.74733 99.26616 73.7568 99.45369 73.76627 99.7543 73.78168 99.94179 73.79097 100.12926 73.80026 100.42987 73.81563 100.6174 73.82384 100.80493 73.83205 101.10593 73.84526 101.29347 73.85023 101.481 73.8552 101.78162 73.8561 101.96909 73.85974 102.15656 73.86339 102.45718 73.8732 102.64471 73.8766 102.83224 73.88 103.13324 73.88416 103.32077 73.88438 103.5083 73.88461 103.80885 73.879 103.9964 73.87834 104.18393 73.87769 104.48492 73.88004 104.67245 73.87964 104.85999 73.87923 105.1606 73.87807 105.34808 73.87532 105.53555 73.87256 105.83617 73.86388 106.0237 73.85974 106.21123 73.8556 106.51222 73.8507 106.69975 73.84547 106.8873 73.84026 107.18785 73.82834 107.37538 73.82211 107.56291 73.81587 107.86389 73.80762 108.05142 73.80049 108.23895 73.79337 108.5396 73.77843 108.72707 73.77063 108.91454 73.76283 109.21515 73.75348 109.40268 73.74426 109.59023 73.73503 109.8912 73.71501 110.07874 73.70404 110.26627 73.69305 110.56683 73.67722 110.75436 73.6651 110.94191 73.65298 111.24289 73.6292 111.43042 73.61665 111.61795 73.60411 111.91856 73.58807 112.10603 73.57469 112.2935 73.56131 112.59415 73.53447 112.78168 73.5202 112.96921 73.50592 113.27019 73.4871 113.45772 73.47174 113.64525 73.45639 113.94582 73.42673 114.13335 73.40947 114.32088 73.3922 114.62187 73.36423 114.8094 73.34718 114.99693 73.33014 115.29756 73.30391 115.48503 73.28664 115.6725 73.26936 115.97311 73.2408 116.16064 73.22261 116.34818 73.20444 116.64919 73.17476 116.83672 73.15556 117.02425 73.13637 117.3248 73.10405 117.51233 73.0842 117.69986 73.06435 118.00087 73.03275 118.1884 73.0124 118.37593 72.99207 118.86401 72.93756 118.86401 72.93756L118.86488 66.0256Z" fill="#ffd2a6" fill-opacity=".7"/>
<path transform="matrix(1,0,0,-1,27.38982,3400.0745)" stroke-width=".79701" stroke-linecap="butt" stroke-miterlimit="10" stroke-linejoin="miter" fill="none" stroke="#9f9f9f" d="M0 0H319.01585"/>
<path transform="matrix(1,0,0,-1,346.40568,3400.0745)" d="M3.62775 0C3.18224 .11159 1.22395 .74397 0 1.43217V-1.43217C1.22395-.74397 3.18224-.11159 3.62775 0Z" fill="#9f9f9f"/>
<path transform="matrix(1,0,0,-1,346.40568,3400.0745)" stroke-width=".79701" stroke-linecap="butt" stroke-miterlimit="10" stroke-linejoin="miter" fill="none" stroke="#9f9f9f" d="M3.62775 0C3.18224 .11159 1.22395 .74397 0 1.43217V-1.43217C1.22395-.74397 3.18224-.11159 3.62775 0Z"/>
<use data-text="v" xlink:href="#font_1_3" transform="matrix(9.96264,0,0,-9.96264,355.3956,3402.2193)"/>
<path transform="matrix(1,0,0,-1,27.38982,3400.0745)" stroke-width=".79701" stroke-linecap="butt" stroke-miterlimit="10" stroke-linejoin="miter" fill="none" stroke="#9f9f9f" d="M0 0V192.02356"/>
<path transform="matrix(0,-1,-1,-0,27.38982,3208.0509)" d="M3.62775 0C3.18224 .11159 1.22395 .74397 0 1.43217V-1.43217C1.22395-.74397 3.18224-.11159 3.62775 0Z" fill="#9f9f9f"/>
<path transform="matrix(0,-1,-1,-0,27.38982,3208.0509)" stroke-width=".79701" stroke-linecap="butt" stroke-miterlimit="10" stroke-linejoin="miter" fill="none" stroke="#9f9f9f" d="M3.62775 0C3.18224 .11159 1.22395 .74397 0 1.43217V-1.43217C1.22395-.74397 3.18224-.11159 3.62775 0Z"/>
<use data-text="p" xlink:href="#font_1_2" transform="matrix(9.96264,0,0,-9.96264,24.883564,3197.1239)"/>
<use data-text="O" xlink:href="#font_1_1" transform="matrix(9.96264,0,0,-9.96264,15.993881,3410.402)"/>
<path transform="matrix(1,0,0,-1,27.38982,3400.0745)" stroke-width="1.19553" stroke-linecap="butt" stroke-miterlimit="10" stroke-linejoin="miter" fill="none" stroke="#0000b3" d="M27.21225 3393.5408C27.21225 3393.5408 28.6973 2282.725 29.26767 1997.7286 29.83803 1712.7322 30.75273 1481.1039 31.32309 1339.4854 31.89345 1197.8668 32.80814 1057.6956 33.37851 977.041 33.94887 896.3864 34.86357 808.18447 35.43393 758.1833 36.0043 708.1822 36.91899 649.6166 37.48935 616.66769 38.05971 583.71878 38.97441 543.4078 39.54478 520.7104 40.11514 498.013 41.02983 469.31846 41.60019 453.0805 42.17055 436.8426 43.08524 415.65684 43.65561 403.67863 44.22597 391.7004 45.14067 375.82649 45.71103 366.74983 46.2814 357.67314 47.19609 345.3368 47.76645 338.26029 48.3368 331.18376 49.25151 321.37367 49.82188 315.7471 50.39224 310.1205 51.30693 302.27256 51.87729 297.70768 52.44765 293.1428 53.36235 286.62763 53.93272 282.84654 54.50308 279.06544 55.41777 273.63829 55.98813 270.45606 56.5585 267.27384 57.4732 262.63468 58.04356 259.9112 58.61392 257.1877 59.52861 253.18978 60.09898 250.82704 60.66934 248.46431 61.58403 244.96753 62.15439 242.88219 62.72475 240.79685 63.63945 237.65715 64.20982 235.79721 64.78018 233.93726 65.69487 231.1511 66.26523 229.47696 66.8356 227.80283 67.7503 225.2575 68.32066 223.73113 68.89102 222.20475 69.80571 219.8762 70.37608 218.47579 70.94644 217.07537 71.86115 214.93157 72.4315 213.63785 73.00186 212.34413 73.91655 210.35495 74.48692 209.15157 75.05728 207.94818 75.97197 206.09214 76.54233 204.9646 77.1127 203.83707 78.0274 202.08759 78.59776 201.02504 79.16812 199.9625 80.08281 198.30988 80.65318 197.30652 81.22354 196.30316 82.13824 194.74646 82.7086 193.79344 83.27896 192.84044 84.19365 191.34694 84.76402 190.4378 85.33438 189.52867 86.24908 188.10901 86.81944 187.24092 87.38982 186.37284 88.3045 185.01053 88.87486 184.18114 89.44522 183.35175 90.35992 182.06023 90.9303 181.26325 91.50066 180.46627 92.41534 179.20401 92.9857 178.43704 93.55608 177.67008 94.47075 176.47454 95.04112 175.73542 95.61148 174.99629 96.52618 173.82329 97.09654 173.10991 97.66692 172.39653 98.5816 171.28343 99.15196 170.59383 99.72232 169.90422 100.63708 168.80786 101.2074 168.13962 101.7777 167.47138 102.69208 166.4226 103.26237 165.77753 103.83269 165.13245 104.74744 164.11704 105.3178 163.49027 105.88815 162.86348 106.80286 161.86852 107.37323 161.2601 107.94359 160.65169 108.85828 159.69608 109.42863 159.1052 109.999 158.5143 110.91368 157.576 111.48405 157.00133 112.05441 156.42665 112.96912 155.52187 113.53947 154.96321 114.10985 154.40456 115.02454 153.51885 115.5949 152.97483 116.16525 152.4308 117.07996 151.57158 117.65033 151.04225 118.22069 150.51294 119.13538 149.67536 119.70573 149.15984 120.2761 148.64434 121.1908 147.82953 121.76117 147.32674 122.33153 146.82396 123.24622 146.02664 123.81657 145.53604 124.38695 145.04544 125.30164 144.26905 125.872 143.79074 126.44235 143.31246 127.35706 142.55538 127.92743 142.08872 128.49779 141.62207 129.41248 140.88344 129.98284 140.42734 130.55319 139.97124 131.4679 139.24756 132.03827 138.80142 132.60863 138.3553 133.52332 137.6476 134.09368 137.21186 134.66405 136.7761 135.57875 136.08573 136.14911 135.66078 136.71947 135.23583 137.63416 134.56494 138.20453 134.14905 138.77489 133.73316 139.68959 133.07102 140.25995 132.66329 140.8303 132.25556 141.745 131.6094 142.31537 131.21039 142.88573 130.81136 143.80042 130.17748 144.37078 129.78734 144.94115 129.3972 145.85585 128.78044 146.42621 128.39846 146.99657 128.01648 147.91126 127.4078 148.48163 127.03423 149.05199 126.66066 149.96669 126.07103 150.53705 125.70592 151.10742 125.34079 152.0221 124.76149 152.59247 124.40268 153.16283 124.04387 154.07753 123.47102 154.64789 123.11977 155.21826 122.76851 156.13295 122.21437 156.70331 121.87103 157.27367 121.5277 158.18836 120.98225 158.75873 120.64522 159.32909 120.3082 160.24379 119.77286 160.81415 119.4419 161.38452 119.11093 162.29921 118.5845 162.86957 118.25977 163.43993 117.93504 164.35463 117.41919 164.92499 117.10143 165.49536 116.78366 166.41005 116.28123 166.98041 115.96947 167.55077 115.65771 168.46547 115.16075 169.03585 114.85439 169.6062 114.54802 170.52089 114.0625 171.09125 113.76137 171.66162 113.46024 172.57633 112.97923 173.14669 112.68391 173.71704 112.3886 174.63173 111.92235 175.20209 111.63284 175.77246 111.34334 176.68715 110.88168 177.2575 110.59735 177.82787 110.31302 178.74257 109.86243 179.31295 109.58348 179.8833 109.30455 180.79799 108.8613 181.36835 108.58691 181.93872 108.31253 182.85343 107.87532 183.42378 107.60593 183.99414 107.33653 184.90883 106.90967 185.47919 106.64526 186.04956 106.38086 186.96427 105.95982 187.53462 105.70015 188.10498 105.44049 189.01967 105.02908 189.59004 104.77367 190.1604 104.51826 191.07509 104.1108 191.64545 103.85927 192.21582 103.60776 193.13053 103.2078 193.70088 102.96089 194.27124 102.714 195.18593 102.32245 195.75629 102.07982 196.32666 101.83719 197.24137 101.45094 197.81172 101.21214 198.38208 100.97336 199.29677 100.59357 199.86714 100.35873 200.4375 100.12392 201.3522 99.75053 201.92256 99.51962 202.49294 99.28871 203.40763 98.9216 203.97798 98.69434 204.54834 98.46707 205.46305 98.10521 206.0334 97.8816 206.60378 97.658 207.51847 97.30264 208.08882 97.0827 208.65918 96.86276 209.57387 96.51262 210.14424 96.29634 210.7146 96.08006 211.6293 95.73688 212.19966 95.52385 212.77004 95.3108 213.68473 94.97083 214.25508 94.76083 214.82544 94.55086 215.74015 94.2167 216.3105 94.01038 216.88088 93.80406 217.79557 93.47661 218.36592 93.27377 218.93628 93.07092 219.85099 92.74866 220.42136 92.5484 220.99172 92.34814 221.9064 92.02742 222.47676 91.8304 223.04714 91.63338 223.96183 91.32242 224.53218 91.12839 225.10254 90.93437 226.01725 90.62344 226.58762 90.432 227.15798 90.24057 228.07266 89.9374 228.64302 89.7486 229.21338 89.5598 230.12808 89.25679 230.69846 89.07124 231.26882 88.88568 232.1835 88.5935 232.75386 88.4112 233.32424 88.22887 234.23894 87.9378 234.8093 87.75719 235.37966 87.57655 236.29434 87.28688 236.86472 87.10924 237.43508 86.93161 238.34978 86.65146 238.92014 86.47687 239.4905 86.30229 240.40518 86.02382 240.97556 85.851 241.54592 85.67816 242.4606 85.40141 243.03096 85.23116 243.60134 85.06091 244.51604 84.79132 245.0864 84.62389 245.65676 84.45645 246.57144 84.18983 247.14182 84.02438 247.71218 83.85892 248.62688 83.59465 249.19724 83.43137 249.7676 83.26808 250.68228 83.00822 251.25266 82.84744 251.82302 82.68668 252.73772 82.43138 253.30808 82.2726 253.87845 82.11382 254.79314 81.85933 255.3635 81.70294 255.93386 81.54657 256.84855 81.29922 257.4189 81.14542 257.98927 80.99161 258.904 80.74692 259.47434 80.59436 260.0447 80.4418 260.95939 80.19652 261.52976 80.0459 262.1001 79.89528 263.01484 79.65686 263.58518 79.50868 264.15556 79.3605 265.07026 79.1242 265.6406 78.97797 266.21095 78.83173 267.12568 78.59917 267.69606 78.45459 268.2664 78.31001 269.1811 78.07855 269.75144 77.93597 270.3218 77.7934 271.23658 77.56747 271.8069 77.42688 272.37718 77.28627 273.29158 77.06122 273.86186 76.92253 274.43217 76.78384 275.34693 76.56447 275.91728 76.42729 276.48765 76.2901 277.4023 76.0692 277.9727 75.93375 278.54307 75.79831 279.45777 75.58432 280.0281 75.45105 280.59849 75.31776 281.51319 75.10529 282.08354 74.9731 282.65388 74.8409 283.5686 74.6287 284.13896 74.49817 284.70933 74.36765 285.62403 74.16069 286.19438 74.03232 286.7647 73.90396 287.67945 73.70018 288.2498 73.57297 288.82017 73.44574 289.73487 73.24106 290.3052 73.11534 290.87559 72.98961 291.79029 72.79083 292.36064 72.66681 292.93098 72.54277 293.8457 72.34378 294.41606 72.2213 294.98643 72.09882 295.90113 71.90515 296.47148 71.784 297.0418 71.66283 297.95655 71.46788 298.5269 71.34799 299.09727 71.22809 300.01197 71.03793 300.5823 70.91977 301.15269 70.8016 302.06739 70.61322 302.63774 70.49632 303.2081 70.37943 304.1228 70.1926 304.69316 70.0772 305.26353 69.96179 306.17823 69.77838 306.74858 69.66455 307.31895 69.55072 308.23365 69.36942 308.804 69.25667 309.37437 69.1439 310.28907 68.96332 310.8594 68.85182 311.42979 68.74033 312.91484 68.45302 312.91484 68.45302"/>
<path transform="matrix(1,0,0,-1,27.38982,3400.0745)" stroke-width="1.19553" stroke-linecap="butt" stroke-miterlimit="10" stroke-linejoin="miter" fill="none" stroke="#000000" d="M27.21225 2168.8255C27.21225 2168.8255 28.51036 1432.1056 29.00902 1240.0198 29.50768 1047.9341 30.30757 882.6234 30.80621 784.40548 31.30486 686.1875 32.10439 587.971 32.60297 532.1333 33.10155 476.2956 33.90108 415.84443 34.39973 381.96607 34.89838 348.0877 35.69827 309.4388 36.19691 287.96174 36.69557 266.48463 37.49504 241.20206 37.99368 227.17414 38.49234 213.1462 39.29222 196.22803 39.79088 186.85814 40.28954 177.48825 41.08905 165.97895 41.58765 159.6424 42.08624 153.30585 42.88576 145.51218 43.38441 141.18862 43.88307 136.86505 44.68297 131.4476 45.18161 128.48107 45.68025 125.51453 46.4797 121.85794 46.97836 119.80782 47.47702 117.75769 48.27692 115.11942 48.77557 113.70514 49.27423 112.29085 50.07375 110.5704 50.57233 109.61464 51.0709 108.65886 51.87044 107.46426 52.3691 106.81654 52.86775 106.16881 53.66763 105.37292 54.16629 104.94624 54.66493 104.51955 55.4644 104.01233 55.96304 103.7412 56.4617 103.47006 57.26158 103.16338 57.76024 102.99205 58.2589 102.82071 59.05843 102.60976 59.557 102.50629 60.05559 102.40283 60.8551 102.30011 61.35376 102.24634 61.85242 102.19257 62.65231 102.144 63.15097 102.11874 63.64963 102.0935 64.44908 102.0723 64.94772 102.06425 65.44637 102.05621 66.24626 102.0645 66.74492 102.06079 67.24358 102.05708 68.04309 102.04193 68.54169 102.03743 69.04028 102.03293 69.8398 102.02959 70.33846 102.02835 70.83711 102.0271 71.637 102.03506 72.13565 102.02835 72.6343 102.02162 73.43384 101.99765 73.93242 101.97989 74.43098 101.96214 75.23053 101.92815 75.72917 101.90031 76.2278 101.87248 77.02771 101.81569 77.52635 101.7792 78.02501 101.74272 78.82446 101.6821 79.32312 101.63733 79.82178 101.59256 80.62166 101.51245 81.12032 101.45653 81.61897 101.40059 82.41849 101.29811 82.91708 101.2342 83.41568 101.1703 84.2152 101.06932 84.71385 100.99586 85.21251 100.92241 86.01239 100.78946 86.51105 100.70479 87.0097 100.6201 87.80916 100.4776 88.30782 100.38556 88.80647 100.2935 89.60637 100.13847 90.10501 100.04126 90.60365 99.94405 91.40318 99.79005 91.90176 99.68484 92.40034 99.57965 93.19987 99.39536 93.69853 99.28302 94.19717 99.17067 94.99707 98.99397 95.49571 98.87515 95.99437 98.75633 96.79384 98.55106 97.29248 98.4266 97.79114 98.30214 98.59102 98.10619 99.08968 97.97807 99.58833 97.84995 100.38786 97.63599 100.88644 97.50313 101.38503 97.37025 102.18454 97.15652 102.6832 97.02042 103.18185 96.88431 103.98175 96.663 104.48041 96.52214 104.97906 96.3813 105.77858 96.14977 106.27716 96.00526 106.77574 95.86075 107.57527 95.6273 108.07393 95.48058 108.57259 95.33385 109.37247 95.09616 109.87112 94.94771 110.36978 94.79924 111.16924 94.5617 111.6679 94.41048 112.16655 94.25925 112.96643 94.0111 113.46509 93.85771 113.96373 93.70432 114.76328 93.45891 115.26186 93.30492 115.76042 93.15092 116.55995 92.9031 117.0586 92.7478 117.55725 92.5925 118.35715 92.3413 118.8558 92.1855 119.35446 92.02971 120.15392 91.78157 120.65256 91.62494 121.1512 91.46832 121.9511 91.2143 122.44975 91.0566 122.94841 90.89888 123.74792 90.6466 124.24652 90.48824 124.74512 90.32986 125.54463 90.0739 126.04329 89.91512 126.54195 89.75633 127.34183 89.5021 127.84048 89.34373 128.33914 89.18536 129.1386 88.93135 129.63726 88.77365 130.13591 88.61594 130.9358 88.36534 131.43445 88.20703 131.93309 88.0487 132.73262 87.79076 133.2312 87.63261 133.72977 87.47449 134.52931 87.22458 135.02797 87.06729 135.52661 86.90999 136.3265 86.65556 136.82515 86.49893 137.3238 86.3423 138.12332 86.09415 138.62192 85.93835 139.12052 85.78256 139.92003 85.53204 140.41869 85.37607 140.91735 85.2201 141.71723 84.96867 142.21588 84.8142 142.71454 84.65973 143.51399 84.41658 144.01265 84.26271 144.5113 84.10883 145.3112 83.85857 145.80985 83.70517 146.30849 83.55179 147.10802 83.3092 147.6066 83.15714 148.10518 83.00508 148.90471 82.76036 149.40337 82.60913 149.90203 82.4579 150.7019 82.2173 151.20056 82.06714 151.69922 81.91699 152.49868 81.67639 152.99733 81.52692 153.49599 81.37743 154.29587 81.13727 154.79451 80.9897 155.29317 80.84213 156.09272 80.60913 156.59128 80.4633 157.08986 80.31747 157.88939 80.08403 158.38803 79.93863 158.88669 79.79321 159.68659 79.55977 160.18524 79.41527 160.6839 79.27075 161.48336 79.04051 161.982 78.89708 162.48064 78.75365 163.28054 78.52367 163.77919 78.3815 164.27785 78.23933 165.07736 78.01306 165.57596 77.8724 166.07456 77.73174 166.87407 77.50696 167.37273 77.36761 167.87139 77.22827 168.67127 77.00648 169.16992 76.86804 169.66858 76.7296 170.46811 76.50676 170.96669 76.36977 171.46527 76.23276 172.26479 76.01624 172.76345 75.88055 173.2621 75.74489 174.062 75.52681 174.56066 75.39178 175.0593 75.25676 175.85877 75.04045 176.35739 74.90735 176.85604 74.77423 177.65593 74.56421 178.15459 74.43242 178.65325 74.30063 179.45276 74.08838 179.95136 73.95749 180.44995 73.8266 181.24947 73.61868 181.74813 73.48906 182.24678 73.35944 183.04666 73.15158 183.54532 73.02321 184.04398 72.89485 184.84343 72.69041 185.34209 72.56386 185.84075 72.4373 186.64064 72.23671 187.13928 72.111 187.63793 71.98526 188.43746 71.78258 188.93604 71.6577 189.43462 71.5328 190.23415 71.33379 190.7328 71.21088 191.23146 71.08797 192.03134 70.8939 192.53 70.77185 193.02864 70.6498 193.82811 70.45189 194.32677 70.3311 194.82541 70.2103 195.6253 70.02022 196.12395 69.90115 196.6226 69.78209 197.42212 69.59111 197.92072 69.47295 198.41931 69.35478 199.21883 69.16675 199.71749 69.04948 200.21614 68.93224 201.01604 68.74399 201.51468 68.62776 202.01332 68.51152 202.81285 68.32617 203.31143 68.21167 203.81002 68.09717 204.60955 67.9159 205.1082 67.80247 205.60686 67.68906 206.40674 67.50673 206.9054 67.39417 207.40406 67.28159 208.2035 67.1023 208.70217 66.99104 209.20082 66.87978 210.0007 66.70265 210.49936 66.59224 210.99802 66.48183 211.79753 66.30444 212.29613 66.19518 212.79473 66.08589 213.59424 65.91237 214.0929 65.80458 214.59154 65.69681 215.39145 65.5251 215.89008 65.41833 216.38872 65.31157 217.18819 65.14096 217.68683 65.03511 218.18549 64.92926 218.98538 64.7601 219.48404 64.65533 219.9827 64.55055 220.78221 64.38333 221.28079 64.27989 221.77938 64.17644 222.5789 64.01201 223.07756 63.90964 223.57622 63.80727 224.3761 63.64333 224.87476 63.54198 225.37342 63.44063 226.17287 63.27979 226.67153 63.17908 227.17018 63.07838 227.97006 62.91599 228.46872 62.81618 228.96738 62.71638 229.7669 62.55806 230.26549 62.45976 230.76407 62.36147 231.5636 62.20514 232.06224 62.10768 232.56089 62.01021 233.36078 61.85406 233.85944 61.75732 234.35808 61.6606 235.15755 61.50609 235.6562 61.41043 236.15485 61.31479 236.95473 61.16231 237.45339 61.06786 237.95204 60.9734 238.75156 60.82298 239.25016 60.72961 239.74875 60.63625 240.54827 60.48749 241.04692 60.39484 241.54558 60.30219 242.34546 60.1536 242.84412 60.06178 243.34278 59.96996 244.1423 59.82379 244.64089 59.73305 245.13947 59.6423 245.939 59.49785 246.43764 59.40778 246.93628 59.3177 247.73618 59.17322 248.23484 59.0838 248.73349 58.99438 249.53295 58.85121 250.0316 58.7633 250.53026 58.67538 251.33014 58.53722 251.8288 58.45013 252.32746 58.36307 253.12697 58.22252 253.62557 58.13568 254.12415 58.04886 254.92368 57.90984 255.42234 57.82426 255.92098 57.7387 256.7209 57.60338 257.2195 57.51888 257.71815 57.43439 258.5176 57.29926 259.01628 57.21526 259.51493 57.13124 260.31483 56.99649 260.81349 56.91333 261.31214 56.83015 262.11167 56.69807 262.61024 56.61575 263.1088 56.53342 263.90834 56.40155 264.407 56.31989 264.90565 56.23822 265.70555 56.10783 266.2042 56.02707 266.70286 55.9463 267.5023 55.81763 268.00096 55.7377 268.49964 55.65776 269.2995 55.53003 269.79817 55.45093 270.2968 55.37183 271.09635 55.24622 271.5949 55.1676 272.0935 55.089 272.893 54.96227 273.3917 54.88431 273.89036 54.80635 274.69023 54.68268 275.18888 54.60574 275.68754 54.52881 276.48707 54.40587 276.98564 54.32977 277.4842 54.2537 278.28376 54.13266 278.7824 54.05728 279.28105 53.98192 280.08094 53.86147 280.5796 53.78653 281.07826 53.71158 281.8777 53.59134 282.37638 53.51706 282.87504 53.44276 283.6749 53.3245 284.17356 53.25104 284.6722 53.17758 285.47175 53.06021 285.9703 52.98761 286.4689 52.91501 287.26844 52.79936 287.76707 52.72766 288.26573 52.65594 289.0656 52.542 289.56428 52.47073 290.06294 52.39944 290.86238 52.28485 291.36106 52.2138 291.8597 52.14275 292.65959 52.02905 293.15824 51.9586 293.6569 51.88815 294.4564 51.77538 294.955 51.70601 295.45359 51.63664 296.2531 51.52707 296.75175 51.4586 297.2504 51.39012 298.0503 51.28052 298.54896 51.21248 299.0476 51.14444 299.84706 51.0359 300.34574 50.96811 300.8444 50.9003 301.64427 50.79092 302.1429 50.72372 302.64158 50.65651 303.4411 50.55002 303.93968 50.48364 304.43827 50.41728 305.2378 50.31079 305.73643 50.24533 306.23509 50.17987 307.03498 50.077 307.53364 50.01176 308.0323 49.94653 308.8318 49.83997 309.3304 49.77516 309.829 49.71036 310.6285 49.60835 311.12718 49.54462 311.62583 49.4809 312.92436 49.3158 312.92436 49.3158"/>
<path transform="matrix(1,0,0,-1,27.38982,3400.0745)" stroke-width="1.19553" stroke-linecap="butt" stroke-miterlimit="10" stroke-linejoin="miter" fill="none" stroke="#990000" d="M28.57301 1090.3976C28.57301 1090.3976 28.73738 1033.4124 28.80052 1012.8409 28.86365 992.2695 28.96498 960.94277 29.02805 942.13308 29.09113 923.3233 29.19206 894.47958 29.25513 877.27359 29.31818 860.0675 29.41956 833.86306 29.48264 818.12399 29.5457 802.38497 29.64665 778.28427 29.70972 763.8374 29.7728 749.3906 29.8741 727.27908 29.93724 714.0013 30.00037 700.72348 30.10167 680.38998 30.16475 668.14016 30.22781 655.89028 30.32877 637.0246 30.39183 625.7129 30.45491 614.4012 30.55627 597.04977 30.61934 586.6132 30.68242 576.1767 30.78336 560.1643 30.84644 550.49368 30.9095 540.82308 31.01082 525.87777 31.07394 516.914 31.13708 507.9503 31.23839 494.19914 31.30145 485.88938 31.36453 477.57966 31.46547 464.7503 31.52855 457.0231 31.59161 449.2959 31.693 437.37644 31.75606 430.19709 31.81914 423.01777 31.92007 411.966 31.98314 405.27943 32.04622 398.59288 32.14752 388.22615 32.21066 382.005 32.27379 375.78385 32.37509 366.2437 32.43817 360.44169 32.50125 354.63966 32.60219 345.60795 32.66525 340.18809 32.72833 334.76826 32.8297 326.43367 32.89278 321.37919 32.95584 316.3247 33.05678 308.48023 33.11986 303.75889 33.18294 299.03755 33.28424 291.76643 33.34737 287.35099 33.4105 282.93553 33.51181 276.06745 33.57489 271.93534 33.63795 267.8032 33.73889 261.4149 33.80197 257.56944 33.86505 253.72399 33.96643 247.83069 34.02948 244.22002 34.09254 240.60935 34.1935 234.94817 34.25656 231.54622 34.31961 228.14427 34.42099 222.88616 34.48407 219.70117 34.54713 216.51619 34.64809 211.5738 34.71115 208.591 34.77423 205.60822 34.87553 201.001 34.93867 198.20317 35.0018 195.40534 35.1031 191.0623 35.16618 188.42609 35.22925 185.78986 35.3302 181.67168 35.39326 179.20308 35.45634 176.73447 35.55771 172.9557 35.62079 170.63407 35.68385 168.31244 35.78479 164.65543 35.84787 162.47034 35.91093 160.28524 36.01225 156.92617 36.07538 154.88535 36.13852 152.84453 36.23982 149.68579 36.30289 147.76145 36.36597 145.8371 36.4669 142.83148 36.52998 141.01602 36.59305 139.20056 36.69443 136.3905 36.75749 134.67676 36.82057 132.963 36.92151 130.2727 36.98459 128.66446 37.04765 127.05621 37.14896 124.59038 37.2121 123.08559 37.27522 121.58081 37.37654 119.23845 37.4396 117.819 37.50269 116.39957 37.60362 114.1919 37.66669 112.85521 37.72977 111.51852 37.83113 109.43558 37.89421 108.18509 37.95728 106.93459 38.05823 105.0188 38.12129 103.8424 38.18437 102.66602 38.28568 100.81482 38.3488 99.70648 38.41194 98.59816 38.51324 96.89091 38.57632 95.85431 38.63939 94.8177 38.74034 93.21959 38.8034 92.23524 38.86649 91.2509 38.96786 89.68883 39.03091 88.75981 39.09398 87.83081 39.19492 86.42062 39.258 85.53957 39.32106 84.65851 39.42238 83.23933 39.48552 82.40971 39.54866 81.58011 39.64998 80.32472 39.71303 79.56015 39.7761 78.7956 39.87703 77.61862 39.94011 76.89919 40.00317 76.17975 40.10455 75.05095 40.16763 74.3749 40.23071 73.69885 40.33165 72.6605 40.3947 72.02664 40.45776 71.39279 40.55908 70.41087 40.62222 69.80643 40.68535 69.20198 40.78667 68.24031 40.84975 67.67012 40.91281 67.09995 41.01376 66.21803 41.07681 65.69688 41.13988 65.17572 41.24126 64.402 41.30434 63.91396 41.3674 63.42593 41.46834 62.64308 41.53142 62.17949 41.5945 61.7159 41.6958 61.0023 41.75893 60.57262 41.82207 60.14291 41.92337 59.48825 41.98645 59.0825 42.04951 58.67677 42.15045 58.02222 42.21353 57.64822 42.2766 57.27422 42.37798 56.73845 42.44104 56.38695 42.50412 56.03545 42.60506 55.4469 42.66814 55.11484 42.7312 54.78279 42.8325 54.29898 42.89565 53.9937 42.95877 53.68842 43.06009 53.2036 43.12315 52.91452 43.18623 52.62544 43.28717 52.17134 43.35025 51.91017 43.41331 51.649 43.51468 51.27625 43.57776 51.03212 43.64082 50.788 43.74178 50.38094 43.80484 50.1506 43.86792 49.92027 43.96922 49.58095 44.03235 49.37204 44.09549 49.16313 44.1968 48.84328 44.25987 48.64494 44.32294 48.4466 44.42389 48.12553 44.48695 47.9425 44.55003 47.75948 44.65141 47.48706 44.71446 47.3257 44.77753 47.16432 44.87846 46.9278 44.94154 46.7794 45.00461 46.631 45.10594 46.39453 45.16907 46.25603 45.23221 46.11752 45.33353 45.90599 45.39658 45.7811 45.45964 45.65622 45.56058 45.46411 45.62366 45.35591 45.68672 45.24773 45.7881 45.09863 45.85118 45.00124 45.91426 44.90384 46.0152 44.74663 46.07825 44.6539 46.14131 44.56119 46.24263 44.41745 46.30577 44.33296 46.3689 44.24847 46.5333 44.04489 46.5333 44.04489"/>
<path transform="matrix(1,0,0,-1,27.38982,3400.0745)" stroke-width="1.19553" stroke-linecap="butt" stroke-dasharray="2.98883,2.98883" stroke-miterlimit="10" stroke-linejoin="miter" fill="none" stroke="#990000" d="M46.56746 44.02629C46.56746 44.02629 47.04373 43.56618 47.22664 43.42982 47.40955 43.29347 47.70291 43.12933 47.88583 43.04358 48.06874 42.95782 48.3621 42.84755 48.54501 42.81172 48.72792 42.77591 49.0213 42.7685 49.20421 42.78535 49.38712 42.80222 49.68048 42.8741 49.86339 42.93327 50.04631 42.99243 50.33968 43.12216 50.52258 43.21182 50.70549 43.30148 50.99886 43.46541 51.18176 43.57948 51.36469 43.69356 51.65805 43.89691 51.84096 44.03409 52.02386 44.17126 52.31723 44.41206 52.50015 44.56827 52.68306 44.72447 52.97643 44.98804 53.15933 45.15997 53.34224 45.33191 53.63562 45.62386 53.81853 45.8075 54.00143 45.99113 54.2948 46.29018 54.4777 46.48354 54.66061 46.6769 54.954 47.00237 55.1369 47.20113 55.31981 47.3999 55.61317 47.7143 55.79608 47.9161 55.979 48.11794 56.27237 48.44403 56.45528 48.65575 56.63818 48.86746 56.93155 49.22481 57.11446 49.44211 57.29738 49.6594 57.59074 50.00575 57.77365 50.22198 57.95656 50.4382 58.24992 50.78467 58.43285 51.00053 58.61575 51.2164 58.90912 51.56758 59.09203 51.7778 59.27493 51.98804 59.56831 52.30376 59.75122 52.51572 59.93413 52.72768 60.2275 53.09225 60.4104 53.30553 60.5933 53.51881 60.88669 53.84473 61.0696 54.05296 61.2525 54.2612 61.54587 54.60078 61.72878 54.80644 61.9117 55.01208 62.20506 55.33627 62.38797 55.53526 62.57088 55.73427 62.86424 56.04372 63.04716 56.24072 63.23007 56.43774 63.52344 56.757 63.70634 56.95528 63.88925 57.15356 64.18262 57.4769 64.36554 57.66983 64.54845 57.86278 64.84181 58.15837 65.02472 58.3459 65.20763 58.53343 65.501 58.83812 65.68391 59.02151 65.86682 59.20493 66.16019 59.49167 66.3431 59.66774 66.526 59.84381 66.81938 60.11777 67.00229 60.2906 67.1852 60.46342 67.47856 60.74794 67.66147 60.91344 67.84439 61.07895 68.13776 61.32648 68.32066 61.48352 68.50357 61.64058 68.79694 61.88809 68.97986 62.0454 69.16277 62.20268 69.45613 62.46275 69.63904 62.61722 69.82195 62.77168 70.11531 63.01143 70.29823 63.15875 70.48114 63.30608 70.7745 63.53476 70.95741 63.6791 71.14032 63.82341 71.4337 64.05751 71.61661 64.199 71.79951 64.34052 72.09288 64.56467 72.27579 64.69902 72.45871 64.83337 72.75208 65.03874 72.93498 65.16745 73.11789 65.29617 73.41125 65.5015 73.59416 65.62682 73.77708 65.75212 74.07045 65.9507 74.25336 66.0706 74.43626 66.1905 74.72963 66.37544 74.91255 66.49103 75.09546 66.60661 75.38881 66.79326 75.57172 66.90367 75.75462 67.01408 76.04799 67.18037 76.23091 67.2869 76.41382 67.39342 76.70718 67.56729 76.89009 67.67142 77.073 67.77553 77.36638 67.93665 77.54929 68.03734 77.7322 68.13805 78.02556 68.30193 78.20847 68.39722 78.39139 68.49252 78.68475 68.63348 78.86766 68.72421 79.05057 68.81494 79.34393 68.96371 79.52684 69.05121 79.70976 69.1387 80.00313 69.27126 80.18604 69.35486 80.36894 69.43845 80.66231 69.5719 80.84523 69.65373 81.02814 69.73558 81.3215 69.86682 81.50441 69.94484 81.68732 70.02286 81.98068 70.14433 82.1636 70.21605 82.34651 70.28775 82.63988 70.39243 82.82278 70.46173 83.00569 70.53104 83.29907 70.64691 83.48198 70.71562 83.66489 70.78435 83.95825 70.89476 84.14116 70.95697 84.32408 71.0192 84.61745 71.10559 84.80035 71.16417 84.98326 71.22273 85.27663 71.32056 85.45953 71.37914 85.64246 71.43771 85.93582 71.53107 86.11873 71.58632 86.30164 71.64159 86.595 71.72699 86.77792 71.7775 86.96083 71.82802 87.2542 71.903 87.4371 71.95052 87.62001 71.99803 87.91338 72.07364 88.0963 72.12007 88.2792 72.16652 88.57257 72.2427 88.75548 72.28531 88.93839 72.32791 89.23177 72.38655 89.41467 72.42717 89.59758 72.46779 89.89095 72.53708 90.07385 72.57813 90.25677 72.61917 90.55014 72.68614 90.73305 72.72304 90.91595 72.75993 91.20932 72.81131 91.39223 72.84413 91.57515 72.87695 91.86852 72.92871 92.05142 72.95963 92.23433 72.99052 92.5277 73.038 92.71062 73.06691 92.89352 73.09581 93.18689 73.14087 93.3698 73.16812 93.5527 73.19536 93.84607 73.23802 94.02899 73.26326 94.2119 73.28851 94.50526 73.32753 94.68817 73.3502 94.87108 73.3729 95.16446 73.40623 95.34737 73.42676 95.53027 73.44728 95.82364 73.47894 96.00655 73.49814 96.18947 73.51733 96.48283 73.54875 96.66574 73.56519 96.84865 73.5816 97.14201 73.60172 97.32492 73.61665 97.50784 73.63159 97.80121 73.65819 97.98412 73.67288 98.16702 73.68759 98.64331 73.72263 98.64331 73.72263"/>
<path transform="matrix(1,0,0,-1,27.38982,3400.0745)" stroke-width="1.19553" stroke-linecap="butt" stroke-miterlimit="10" stroke-linejoin="miter" fill="none" stroke="#990000" d="M98.64633 73.72392C98.64633 73.72392 99.94662 73.80392 100.44612 73.82384 100.94562 73.84375 101.74684 73.85931 102.24634 73.86752 102.74583 73.87573 103.54665 73.88269 104.04613 73.8831 104.54562 73.88351 105.3468 73.87944 105.84634 73.87056 106.3459 73.86168 107.1471 73.83768 107.64659 73.81908 108.14607 73.80049 108.94688 73.76323 109.44638 73.73648 109.94586 73.70972 110.7471 73.65857 111.2466 73.62617 111.7461 73.59378 112.54689 73.54135 113.04639 73.5029 113.54588 73.46443 114.34706 73.39445 114.8466 73.3489 115.34616 73.30338 116.14734 73.22536 116.64682 73.17459 117.14632 73.12384 117.94713 73.03873 118.44662 72.98299 118.9461 72.92725 119.74736 72.83308 120.24686 72.77278 120.74634 72.71246 121.54713 72.61183 122.04663 72.5483 122.54613 72.48474 123.3473 72.38293 123.84686 72.31471 124.34642 72.24648 125.14758 72.12837 125.64708 72.05649 126.14658 71.9846 126.94739 71.8704 127.44687 71.79654 127.94637 71.72267 128.7476 71.60074 129.24709 71.52403 129.74658 71.44734 130.5474 71.3235 131.04689 71.24374 131.54637 71.164 132.34755 71.0311 132.8471 70.94919 133.34665 70.86728 134.14785 70.73715 134.64734 70.65334 135.14682 70.5695 135.94763 70.43045 136.44713 70.34494 136.94663 70.25943 137.74785 70.1238 138.24735 70.03697 138.74684 69.95013 139.54766 69.8081 140.04714 69.71904 140.54663 69.62999 141.34787 69.48558 141.84735 69.39508 142.34685 69.30458 143.14766 69.15794 143.64716 69.06679 144.14664 68.97565 144.94782 68.82988 145.44738 68.73807 145.94692 68.64624 146.74811 68.49791 147.2476 68.405 147.74709 68.3121 148.54788 68.1623 149.04738 68.0685 149.54688 67.9747 150.34812 67.82358 150.84761 67.72894 151.3471 67.63431 152.14792 67.48143 152.6474 67.38638 153.1469 67.29132 153.94808 67.13838 154.44762 67.04381 154.94718 66.94923 155.74835 66.79951 156.24785 66.7047 156.74733 66.60988 157.54814 66.45612 158.04764 66.3604 158.54712 66.26468 159.34836 66.11069 159.84786 66.0148 160.34735 65.9189 161.14815 65.76515 161.64765 65.66919 162.14714 65.57324 162.94834 65.41847 163.44788 65.32317 163.94744 65.22786 164.74861 65.07797 165.2481 64.98233 165.74759 64.88667 166.5484 64.72942 167.04788 64.63371 167.54738 64.538 168.34862 64.38814 168.84812 64.29243 169.3476 64.19672 170.1484 64.03928 170.6479 63.9438 171.14739 63.84833 171.94863 63.6989 172.44812 63.60426 172.94762 63.50963 173.74842 63.35632 174.24791 63.26169 174.7474 63.16705 175.5486 63.01636 176.04814 62.92215 176.5477 62.82794 177.34888 62.67676 177.84836 62.58261 178.34786 62.48846 179.14867 62.33723 179.64817 62.2435 180.14765 62.14977 180.94889 62.0001 181.44838 61.90698 181.94786 61.81386 182.74868 61.6651 183.24817 61.5722 183.74767 61.4793 184.54883 61.32965 185.04839 61.23743 185.54795 61.14519 186.34912 60.9992 186.84862 60.9074 187.34812 60.81557 188.14891 60.66702 188.64839 60.57564 189.14789 60.48424 189.94915 60.3398 190.44863 60.24864 190.94812 60.15749 191.74893 60.00868 192.24843 59.91861 192.74791 59.82854 193.54909 59.68863 194.04865 59.5994 194.54819 59.51016 195.34937 59.36441 195.84886 59.27542 196.34835 59.18643 197.14916 59.04651 197.64865 58.95795 198.14815 58.86938 198.94937 58.7254 199.44887 58.63701 199.94837 58.5486 200.74918 58.40808 201.24866 58.32082 201.74816 58.23355 202.54941 58.09467 203.04889 58.00809 203.54839 57.9215 204.34918 57.78265 204.84868 57.69666 205.34816 57.61066 206.14936 57.47408 206.64891 57.38826 207.14846 57.30244 207.94963 57.16328 208.44913 57.07813 208.94863 56.99298 209.74942 56.85873 210.24892 56.77449 210.74842 56.69023 211.54964 56.55444 212.04914 56.47084 212.54863 56.38725 213.34944 56.25447 213.84893 56.17195 214.34842 56.08945 215.1496 55.95839 215.64914 55.87611 216.1487 55.79384 216.94989 55.66063 217.44939 55.57896 217.94887 55.4973 218.74968 55.36844 219.24918 55.28743 219.74866 55.20642 220.5499 55.07556 221.0494 54.99504 221.54889 54.9145 222.34969 54.78671 222.84918 54.70695 223.34868 54.62721 224.14986 54.49951 224.6494 54.42018 225.14896 54.34087 225.95014 54.21358 226.44962 54.13515 226.94911 54.05672 227.74993 53.93263 228.24942 53.85486 228.7489 53.77708 229.55016 53.6521 230.04965 53.57457 230.54914 53.49704 231.34995 53.37247 231.84944 53.29602 232.34893 53.21956 233.1501 53.09937 233.64966 53.02351 234.14922 52.94768 234.95038 52.8249 235.44988 52.7493 235.94937 52.67368 236.75019 52.55348 237.24967 52.47853 237.74916 52.40358 238.5504 52.28316 239.04988 52.20905 239.54938 52.13493 240.35019 52.01779 240.84969 51.94434 241.34917 51.87088 242.15042 51.75241 242.64992 51.67963 243.1494 51.60683 243.9502 51.4918 244.44969 51.41966 244.94919 51.34753 245.75037 51.23123 246.24993 51.15971 246.74948 51.08818 247.55065 50.9752 248.05014 50.90408 248.54964 50.83298 249.35045 50.71803 249.84993 50.64716 250.34943 50.5763 251.15067 50.46346 251.65015 50.39326 252.14965 50.32306 252.95046 50.2102 253.44995 50.14108 253.94944 50.07196 254.75061 49.96344 255.25017 49.89497 255.74971 49.82649 256.5509 49.7156 257.0504 49.64755 257.54988 49.57951 258.3507 49.4721 258.8502 49.40448 259.3497 49.33684 260.1509 49.22723 260.6504 49.1601 261.1499 49.09294 261.9507 48.98701 262.4502 48.92046 262.94969 48.85391 263.7509 48.74654 264.2504 48.6804 264.74998 48.61427 265.55116 48.50903 266.05064 48.4438 266.55015 48.37857 267.35096 48.2748 267.85044 48.21024 268.3499 48.14568 269.15119 48.04277 269.65068 47.9784 270.15016 47.91402 270.95094 47.80984 271.45045 47.74612 271.94996 47.6824 272.7512 47.58186 273.25068 47.51904 273.75019 47.4562 274.551 47.3559 275.05046 47.29326 275.54997 47.2306 276.35115 47.12994 276.85069 47.06747 277.35023 47.005 278.1514 46.90456 278.6509 46.84299 279.1504 46.78142 279.9512 46.6846 280.4507 46.62369 280.95018 46.56277 281.75144 46.46426 282.25093 46.40396 282.7504 46.34364 283.5512 46.24905 284.0507 46.18898 284.5502 46.12892 285.3514 46.03099 285.85096 45.971 286.3505 45.91098 287.15168 45.81561 287.65116 45.75644 288.15065 45.69728 288.95146 45.60307 289.45097 45.54451 289.95045 45.48595 290.75169 45.3922 291.25117 45.3343 291.75068 45.2764 292.55149 45.18477 293.05097 45.1271 293.55046 45.06944 294.35163 44.97586 294.85118 44.91861 295.35075 44.86136 296.15193 44.77106 296.6514 44.71446 297.1509 44.65788 297.95173 44.56668 298.4512 44.51074 298.9507 44.45482 299.75196 44.36708 300.25144 44.31134 300.75093 44.2556 301.55174 44.16441 302.0512 44.10892 302.5507 44.0534 303.35188 43.96591 303.85145 43.91124 304.35099 43.85658 305.15217 43.7691 305.65168 43.71486 306.15116 43.66061 306.95195 43.57423 307.45146 43.52023 307.95094 43.46623 308.75218 43.37892 309.25169 43.32559 309.75117 43.27225 310.55198 43.18861 311.05146 43.1357 311.55097 43.08278 312.85169 42.94409 312.85169 42.94409"/>
<path transform="matrix(1,0,0,-1,27.38982,3400.0745)" stroke-width=".79701" stroke-linecap="butt" stroke-dasharray="2.98883,2.98883" stroke-miterlimit="10" stroke-linejoin="miter" fill="none" stroke="#990000" d="M41.0435 66.0256H118.86488"/>
<path transform="matrix(1,0,0,-1,27.38982,3400.0745)" d="M70.42322 102.04868C70.42322 103.36922 69.3527 104.43973 68.03217 104.43973 66.71161 104.43973 65.6411 103.36922 65.6411 102.04868 65.6411 100.72812 66.71161 99.65761 68.03217 99.65761 69.3527 99.65761 70.42322 100.72812 70.42322 102.04868ZM68.03217 102.04868" fill="#ff0000"/>
<use data-text="(" xlink:href="#font_2_1" transform="matrix(8.966376,0,0,-8.966376,99.93808,3291.268)"/>
<use data-text="v" xlink:href="#font_3_10" transform="matrix(8.966376,0,0,-8.966376,103.52184,3291.268)"/>
<use data-text="c" xlink:href="#font_4_1" transform="matrix(5.977584,0,0,-5.977584,107.998088,3292.2645)"/>
<use data-text="," xlink:href="#font_3_1" transform="matrix(8.966376,0,0,-8.966376,111.83855,3291.268)"/>
<use data-text="p" xlink:href="#font_3_9" transform="matrix(8.966376,0,0,-8.966376,115.927219,3291.268)"/>
<use data-text="c" xlink:href="#font_4_1" transform="matrix(5.977584,0,0,-5.977584,120.5603,3292.2645)"/>
<use data-text=")" xlink:href="#font_2_2" transform="matrix(8.966376,0,0,-8.966376,124.400768,3291.268)"/>
<path transform="matrix(1,0,0,-1,27.38982,3400.0745)" d="M42.8368 66.0256C42.8368 67.01602 42.03394 67.81891 41.0435 67.81891 40.05309 67.81891 39.25021 67.01602 39.25021 66.0256 39.25021 65.03519 40.05309 64.2323 41.0435 64.2323 42.03394 64.2323 42.8368 65.03519 42.8368 66.0256ZM41.0435 66.0256"/>
<path transform="matrix(1,0,0,-1,27.38982,3400.0745)" d="M120.65819 66.0256C120.65819 67.01602 119.85532 67.81891 118.86488 67.81891 117.87447 67.81891 117.07158 67.01602 117.07158 66.0256 117.07158 65.03519 117.87447 64.2323 118.86488 64.2323 119.85532 64.2323 120.65819 65.03519 120.65819 66.0256ZM118.86488 66.0256"/>
<path transform="matrix(1,0,0,-1,27.38982,3400.0745)" stroke-width=".3985" stroke-linecap="butt" stroke-dasharray=".3985,.99628" stroke-miterlimit="10" stroke-linejoin="miter" fill="none" stroke="#b9b9b9" d="M41.0435 0V66.0256"/>
<path transform="matrix(1,0,0,-1,27.38982,3400.0745)" stroke-width=".3985" stroke-linecap="butt" stroke-dasharray=".3985,.99628" stroke-miterlimit="10" stroke-linejoin="miter" fill="none" stroke="#b9b9b9" d="M118.86488 0V66.0256"/>
<path transform="matrix(1,0,0,-1,27.38982,3400.0745)" stroke-width=".3985" stroke-linecap="butt" stroke-dasharray=".3985,.99628" stroke-miterlimit="10" stroke-linejoin="miter" fill="none" stroke="#b9b9b9" d="M68.03217 0V102.04868"/>
<use data-text="v" xlink:href="#font_3_10" transform="matrix(8.966376,0,0,-8.966376,64.74574,3407.4549)"/>
<use data-text="l" xlink:href="#font_4_3" transform="matrix(5.977584,0,0,-5.977584,69.221988,3408.5177)"/>
<use data-text="v" xlink:href="#font_3_10" transform="matrix(8.966376,0,0,-8.966376,141.8438,3407.4549)"/>
<use data-text="g" xlink:href="#font_4_2" transform="matrix(5.977584,0,0,-5.977584,146.32004,3408.4512)"/>
<use data-text="v" xlink:href="#font_3_10" transform="matrix(8.966376,0,0,-8.966376,91.26358,3407.4549)"/>
<use data-text="c" xlink:href="#font_4_1" transform="matrix(5.977584,0,0,-5.977584,95.73982,3408.4512)"/>
<path transform="matrix(1,0,0,-1,27.38982,3400.0745)" stroke-width=".3985" stroke-linecap="butt" stroke-dasharray=".3985,.99628" stroke-miterlimit="10" stroke-linejoin="miter" fill="none" stroke="#b9b9b9" d="M0 66.0256H41.0435"/>
<path transform="matrix(1,0,0,-1,27.38982,3400.0745)" stroke-width=".3985" stroke-linecap="butt" stroke-dasharray=".3985,.99628" stroke-miterlimit="10" stroke-linejoin="miter" fill="none" stroke="#b9b9b9" d="M0 102.04868H68.03217"/>
<use data-text="p" xlink:href="#font_3_9" transform="matrix(8.966376,0,0,-8.966376,9.297871,3335.1075)"/>
<use data-text="s" xlink:href="#font_5_3" transform="matrix(5.977584,0,0,-5.977584,13.923912,3336.1038)"/>
<use data-text="a" xlink:href="#font_5_2" transform="matrix(5.977584,0,0,-5.977584,16.834996,3336.1038)"/>
<use data-text="t" xlink:href="#font_5_4" transform="matrix(5.977584,0,0,-5.977584,20.487298,3336.1038)"/>
<use data-text="p" xlink:href="#font_3_9" transform="matrix(8.966376,0,0,-8.966376,15.4034199,3299.0843)"/>
<use data-text="c" xlink:href="#font_4_1" transform="matrix(5.977584,0,0,-5.977584,20.02946,3300.0806)"/>
<use data-text="T" xlink:href="#font_3_6" transform="matrix(8.966376,0,0,-8.966376,316.64427,3323.042)" fill="#0000b3"/>
<use data-text="&#x003e;" xlink:href="#font_3_3" transform="matrix(8.966376,0,0,-8.966376,325.85273,3323.042)" fill="#0000b3"/>
<use data-text="T" xlink:href="#font_3_6" transform="matrix(8.966376,0,0,-8.966376,335.57228,3323.042)" fill="#0000b3"/>
<use data-text="c" xlink:href="#font_4_1" transform="matrix(5.977584,0,0,-5.977584,340.96333,3324.0384)" fill="#0000b3"/>
<use data-text="T" xlink:href="#font_3_6" transform="matrix(8.966376,0,0,-8.966376,316.64427,3346.513)"/>
<use data-text="=" xlink:href="#font_2_5" transform="matrix(8.966376,0,0,-8.966376,325.86,3346.513)"/>
<use data-text="T" xlink:href="#font_3_6" transform="matrix(8.966376,0,0,-8.966376,335.5873,3346.513)"/>
<use data-text="c" xlink:href="#font_4_1" transform="matrix(5.977584,0,0,-5.977584,340.96333,3347.5093)"/>
<use data-text="T" xlink:href="#font_3_6" transform="matrix(8.966376,0,0,-8.966376,316.64427,3369.9837)" fill="#990000"/>
<use data-text="&#x003c;" xlink:href="#font_3_2" transform="matrix(8.966376,0,0,-8.966376,325.85273,3369.9837)" fill="#990000"/>
<use data-text="T" xlink:href="#font_3_6" transform="matrix(8.966376,0,0,-8.966376,335.57228,3369.9837)" fill="#990000"/>
<use data-text="c" xlink:href="#font_4_1" transform="matrix(5.977584,0,0,-5.977584,340.96333,3370.98)" fill="#990000"/>
<use data-text="A" xlink:href="#font_3_4" transform="matrix(8.966376,0,0,-8.966376,72.12007,3317.325)"/>
<use data-text="&#x2191;" xlink:href="#font_6_1" transform="matrix(5.977584,0,0,-5.977584,79.03023,3318.3878)"/>
<use data-text="A" xlink:href="#font_3_4" transform="matrix(8.966376,0,0,-8.966376,103.414188,3351.0013)"/>
<use data-text="&#x2193;" xlink:href="#font_6_2" transform="matrix(5.977584,0,0,-5.977584,110.32434,3352.064)"/>
<path transform="matrix(1,0,0,-1,27.38982,3400.0745)" d="M279.7664 170.35718H182.85114C181.75067 170.35718 180.85858 169.46509 180.85858 168.36463V147.98671C180.85858 146.88623 181.75067 145.99416 182.85114 145.99416H279.7664C280.86689 145.99416 281.75895 146.88623 281.75895 147.98671V168.36463C281.75895 169.46509 280.86689 170.35718 279.7664 170.35718ZM180.85858 145.99416" fill="#ffffff"/>
<path transform="matrix(1,0,0,-1,27.38982,3400.0745)" stroke-width=".3985" stroke-linecap="butt" stroke-miterlimit="10" stroke-linejoin="miter" fill="none" stroke="#b9b9b9" d="M279.7664 170.35718H182.85114C181.75067 170.35718 180.85858 169.46509 180.85858 168.36463V147.98671C180.85858 146.88623 181.75067 145.99416 182.85114 145.99416H279.7664C280.86689 145.99416 281.75895 146.88623 281.75895 147.98671V168.36463C281.75895 169.46509 280.86689 170.35718 279.7664 170.35718ZM180.85858 145.99416"/>
<use data-text="&#xfffd;" xlink:href="#font_7_1" transform="matrix(8.966376,0,0,-8.966376,212.2335,3234.081)"/>
<use data-text="p" xlink:href="#font_3_9" transform="matrix(8.966376,0,0,-8.966376,217.73712,3244.014)"/>
<use data-text="+" xlink:href="#font_2_3" transform="matrix(8.966376,0,0,-8.966376,224.41101,3244.014)"/>
<use data-text="a" xlink:href="#font_3_7" transform="matrix(8.966376,0,0,-8.966376,236.85541,3238.215)"/>
<path transform="matrix(1,0,0,-1,256.8437,-84.05858)" stroke-width=".378585" stroke-linecap="butt" stroke-miterlimit="10" stroke-linejoin="miter" fill="none" stroke="#000000" d="M-22.02177-3325.8309H-13.07279"/>
<use data-text="v" xlink:href="#font_3_10" transform="matrix(8.966376,0,0,-8.966376,234.82192,3250.095)"/>
<use data-text="2" xlink:href="#font_5_1" transform="matrix(5.977584,0,0,-5.977584,239.61986,3247.5213)"/>
<use data-text="&#xfffd;" xlink:href="#font_7_2" transform="matrix(8.966376,0,0,-8.966376,244.96642,3234.0809)"/>
<use data-text="(" xlink:href="#font_2_1" transform="matrix(8.966376,0,0,-8.966376,252.00592,3244.0137)"/>
<use data-text="v" xlink:href="#font_3_10" transform="matrix(8.966376,0,0,-8.966376,255.58968,3244.0137)"/>
<use data-text="&#x2212;" xlink:href="#font_8_1" transform="matrix(8.966376,0,0,-8.966376,262.4355,3244.0137)"/>
<use data-text="b" xlink:href="#font_3_8" transform="matrix(8.966376,0,0,-8.966376,271.65086,3244.0137)"/>
<use data-text=")" xlink:href="#font_2_2" transform="matrix(8.966376,0,0,-8.966376,275.5999,3244.0137)"/>
<use data-text="=" xlink:href="#font_2_5" transform="matrix(8.966376,0,0,-8.966376,281.7329,3244.0137)"/>
<use data-text="R" xlink:href="#font_3_5" transform="matrix(8.966376,0,0,-8.966376,291.47087,3244.0137)"/>
<use data-text="T" xlink:href="#font_3_6" transform="matrix(8.966376,0,0,-8.966376,298.5005,3244.0137)"/>
<path transform="matrix(1,0,0,-1,27.38982,3400.0745)" d="M270.77229 136.52347H191.84525C190.74478 136.52347 189.85269 135.6314 189.85269 134.53092V100.17973C189.85269 99.07927 190.74478 98.18718 191.84525 98.18718H270.77229C271.87278 98.18718 272.76484 99.07927 272.76484 100.17973V134.53092C272.76484 135.6314 271.87278 136.52347 270.77229 136.52347ZM189.85269 98.18718" fill="#fff2e6"/>
<path transform="matrix(1,0,0,-1,27.38982,3400.0745)" stroke-width=".3985" stroke-linecap="butt" stroke-miterlimit="10" stroke-linejoin="miter" fill="none" stroke="#ffac59" d="M270.77229 136.52347H191.84525C190.74478 136.52347 189.85269 135.6314 189.85269 134.53092V100.17973C189.85269 99.07927 190.74478 98.18718 191.84525 98.18718H270.77229C271.87278 98.18718 272.76484 99.07927 272.76484 100.17973V134.53092C272.76484 135.6314 271.87278 136.52347 270.77229 136.52347ZM189.85269 98.18718"/>
<use data-text="M" xlink:href="#font_9_74" transform="matrix(8.966376,0,0,-8.966376,221.22762,3273.759)"/>
<use data-text="a" xlink:href="#font_9_28" transform="matrix(8.966376,0,0,-8.966376,229.67395,3273.759)"/>
<use data-text="x" xlink:href="#font_9_116" transform="matrix(8.966376,0,0,-8.966376,234.28267,3273.759)"/>
<use data-text="w" xlink:href="#font_9_114" transform="matrix(8.966376,0,0,-8.966376,239.14244,3273.759)"/>
<use data-text="e" xlink:href="#font_9_50" transform="matrix(8.966376,0,0,-8.966376,245.54444,3273.759)"/>
<use data-text="l" xlink:href="#font_9_72" transform="matrix(8.966376,0,0,-8.966376,249.64206,3273.759)"/>
<use data-text="l" xlink:href="#font_9_72" transform="matrix(8.966376,0,0,-8.966376,252.20645,3273.759)"/>
<use data-text=":" xlink:href="#font_9_44" transform="matrix(8.966376,0,0,-8.966376,254.77083,3273.759)"/>
<use data-text="A" xlink:href="#font_3_4" transform="matrix(8.966376,0,0,-8.966376,261.42689,3273.759)"/>
<use data-text="&#x2191;" xlink:href="#font_6_1" transform="matrix(5.977584,0,0,-5.977584,268.33705,3274.8218)"/>
<use data-text="=" xlink:href="#font_2_5" transform="matrix(8.966376,0,0,-8.966376,275.214,3273.759)"/>
<use data-text="A" xlink:href="#font_3_4" transform="matrix(8.966376,0,0,-8.966376,284.94136,3273.759)"/>
<use data-text="&#x2193;" xlink:href="#font_6_2" transform="matrix(5.977584,0,0,-5.977584,291.85148,3274.8218)"/>
<use data-text="&#x21d0;" xlink:href="#font_8_2" transform="matrix(8.966376,0,0,-8.966376,225.828,3290.181)"/>
<use data-text="&#x21d2;" xlink:href="#font_8_3" transform="matrix(8.966376,0,0,-8.966376,233.50322,3290.181)"/>
<use data-text="&#xfffd;" xlink:href="#font_7_3" transform="matrix(8.966376,0,0,-8.966376,247.84252,3277.9766)"/>
<use data-text="v" xlink:href="#font_3_10" transform="matrix(8.966376,0,0,-8.966376,258.5938,3290.181)"/>
<use data-text="d" xlink:href="#font_2_6" transform="matrix(8.966376,0,0,-8.966376,264.92765,3290.181)"/>
<use data-text="p" xlink:href="#font_3_9" transform="matrix(8.966376,0,0,-8.966376,270.0473,3290.181)"/>
<use data-text="=" xlink:href="#font_2_5" transform="matrix(8.966376,0,0,-8.966376,277.23316,3290.181)"/>
<use data-text="0" xlink:href="#font_2_4" transform="matrix(8.966376,0,0,-8.966376,286.95274,3290.181)"/>
</svg>
