<svg xmlns="http://www.w3.org/2000/svg" xmlns:xlink="http://www.w3.org/1999/xlink" xmlns:inkscape="http://www.inkscape.org/namespaces/inkscape" version="1.1" width="283.44" height="218.97" viewBox="0 0 283.44 218.97">
<defs>
<clipPath id="clip_1">
<path transform="matrix(1,0,0,-1,141.72209,132.83042)" d="M-90.71013-37.41797V99.78088H90.71013V-37.41797ZM90.71013 99.78088"/>
</clipPath>
<path id="font_2_2" d="M.5029907 .2763214C.5109863 .30734254 .5109863 .31733705 .5109863 .33235169 .5109863 .42137147 .44499208 .4423828 .3919983 .4423828 .29899598 .4423828 .25 .37635804 .23399353 .35534669 .22799683 .40937806 .18699646 .4423828 .13699341 .4423828 .09498596 .4423828 .07398987 .41137696 .05999756 .3843689 .042999269 .34934999 .0289917 .29232789 .0289917 .28833009 .0289917 .2793274 .035995485 .2763214 .042999269 .2763214 .053985597 .2763214 .055999757 .2813263 .06098938 .30133058 .07998657 .38035584 .100997928 .41737367 .1349945 .41737367 .16499329 .41737367 .16499329 .38536073 .16499329 .37036134 .16499329 .34934999 .15699768 .31834413 .15098572 .29232789 .14399719 .2663269 .13398743 .22331238 .12998963 .21130371L.08999634 .04725647C.08299255 .023239136 .08299255 .021240235 .08299255 .018249512 .08299255 .0052337648 .09199524-.010772705 .11399841-.010772705 .12799073-.010772705 .14299011-.0017700195 .1499939 .010238647 .15299988 .016235352 .16099549 .04824829 .1659851 .06825256L.18899536 .1572876C.19999695 .20429993 .21899414 .2773285 .21998596 .2853241 .22200012 .29133607 .24699402 .33935548 .2829895 .37435914 .31199647 .4013672 .34999085 .41737367 .3889923 .41737367 .44299317 .41737367 .44299317 .36434938 .44299317 .34735108 .44299317 .31933595 .43899537 .30534364 .43399049 .2833252L.32099916-.16482544C.31698609-.17881775 .31698609-.18081665 .31698609-.18682862 .31698609-.2038269 .32899476-.21582031 .34799195-.21582031 .37998963-.21582031 .3869934-.18682862 .3899994-.17481995L.5029907 .2763214Z"/>
<path id="font_2_4" d="M.31098939 .3244629H.40899659C.47999574 .3244629 .49398805 .31248475 .49398805 .2805481 .49398805 .2775421 .49299623 .25958253 .4869995 .23562622 .48298646 .22364807 .48298646 .22264099 .48298646 .22065735 .48298646 .21665955 .48599244 .20767212 .49699403 .20767212 .5079956 .20767212 .5089874 .21266175 .5130005 .2286377L.56799319 .44450379C.56900027 .4485016 .57099917 .45451356 .57099917 .45951844 .57099917 .46551515 .5669861 .47251893 .5569916 .47251893 .54599 .47251893 .5439911 .46551515 .5399933 .4485016 .519989 .37046815 .49198915 .35546876 .41099549 .35546876H.31900025C.33198548 .41049195 .3829956 .6156006 .3869934 .6286011 .3939972 .64860537 .40499879 .64860537 .43499757 .64860537H.57299807C.69898989 .64860537 .72099307 .6156006 .72099307 .53855898 .72099307 .50453189 .71598818 .4775238 .71598818 .46951295 .71598818 .46151734 .72099307 .45451356 .7299957 .45451356 .74198916 .45451356 .7429962 .46151734 .7449951 .4795227L.7659912 .66560366C.7659912 .6796112 .7559967 .6796112 .7369995 .6796112H.23599243C.21598816 .6796112 .20599365 .6796112 .20599365 .66160586 .20599365 .64860537 .21598816 .64860537 .23699951 .64860537 .24099732 .64860537 .25898744 .64860537 .2749939 .64660647 .29699708 .64360049 .2979889 .63960269 .2979889 .6306 .2979889 .627594 .2979889 .6255951 .29299928 .6075897L.1599884 .075912479C.15098572 .039978029 .14898682 .0309906 .07398987 .0309906 .054992677 .0309906 .04399109 .0309906 .04399109 .0129852299 .04399109 .0069885256 .04699707 0 .05899048 0 .069992069 0 .116989139 .0009918213 .1269989 .0019989014 .1349945 .0029907227 .16999817 .0029907227 .19198609 .0029907227 .21099854 .0029907227 .23899842 .0019989014 .2630005 .0019989014 .2869873 .0019989014 .31498719 0 .33898927 0 .34700013 0 .3600006 0 .3600006 .017990113 .3600006 .0309906 .34999085 .0309906 .32899476 .0309906 .32699586 .0309906 .30099488 .0309906 .2769928 .032989503 .24598694 .035980226 .24398804 .039978029 .24398804 .051956178 .24398804 .053955079 .24398804 .059936525 .24798584 .074920658L.31098939 .3244629Z"/>
<path id="font_3_1" d="M.34098817-.23803711C.34098817-.23303223 .33799745-.23002625 .33198548-.22303772 .20298767-.105026248 .1639862 .07498169 .1639862 .24996948 .1639862 .40498353 .19400025 .59298709 .33499146 .72698977 .33898927 .73098757 .34098817 .73399356 .34098817 .7389984 .34098817 .74598696 .33599855 .75 .32899476 .75 .31698609 .75 .22698975 .6779785 .17298889 .568985 .125 .47297669 .100997928 .36997987 .100997928 .25097657 .100997928 .17897034 .10998535 .064971927 .16499329-.053024293 .22399903-.17602539 .31698609-.24902344 .32899476-.24902344 .33599855-.24902344 .34098817-.24502564 .34098817-.23803711Z"/>
<path id="font_3_2" d="M.2979889 .25097657C.2979889 .3329773 .28599549 .4429779 .23399353 .5539856 .1749878 .6769867 .08198547 .75 .069992069 .75 .05999756 .75 .057998659 .74198916 .057998659 .7389984 .057998659 .73399356 .05999756 .73098757 .066986087 .72398379 .125 .6719818 .23498535 .5359802 .23498535 .25097657 .23498535 .10797119 .20899964-.091033939 .06399536-.22602844 .06199646-.22903443 .057998659-.23303223 .057998659-.23803711 .057998659-.24102783 .05999756-.24902344 .069992069-.24902344 .08198547-.24902344 .17199707-.17703247 .22599793-.06802368 .27398683 .02796936 .2979889 .13098145 .2979889 .25097657Z"/>
<path id="font_4_4" d="M.5159912 .31925965C.5159912 .42918397 .5029907 .50813296 .45700074 .5780945 .42599488 .62405398 .3639984 .6640625 .28399659 .6640625 .051986696 .6640625 .051986696 .39120484 .051986696 .31925965 .051986696 .2472992 .051986696-.01953125 .28399659-.01953125 .5159912-.01953125 .5159912 .2472992 .5159912 .31925965M.28399659 .008468628C.23799134 .008468628 .1769867 .035446168 .15699768 .117385867 .14299011 .17634583 .14299011 .25830079 .14299011 .33224488 .14299011 .40519715 .14299011 .4811554 .1579895 .53611758 .1789856 .6150665 .24299622 .63604739 .28399659 .63604739 .33799745 .63604739 .3899994 .6030731 .4079895 .545105 .42399598 .4911499 .4249878 .41918946 .4249878 .33224488 .4249878 .25830079 .4249878 .18434143 .4119873 .12138367 .3919983 .030441285 .32398988 .008468628 .28399659 .008468628Z"/>
<path id="font_5_1" d="M.43598939 .22743225H.7299957C.74398806 .22743225 .7659912 .22743225 .7659912 .25042726 .7659912 .2734375 .74398806 .2734375 .7299957 .2734375H.43598939V.56799319C.43598939 .5819855 .43598939 .6039734 .41299439 .6039734 .3899994 .6039734 .3899994 .5819855 .3899994 .56799319V.2734375H.09498596C.08099365 .2734375 .05899048 .2734375 .05899048 .25042726 .05899048 .22743225 .08099365 .22743225 .09498596 .22743225H.3899994V-.067993167C.3899994-.08201599 .3899994-.104019168 .41299439-.104019168 .43598939-.104019168 .43598939-.08201599 .43598939-.067993167V.22743225Z"/>
<path id="font_6_1" d="M.5209961 .27633668C.5249939 .29135133 .5289917 .3083496 .5289917 .33036805 .5289917 .4053955 .47698976 .44140626 .40499879 .44140626 .32398988 .44140626 .27198792 .39237977 .24299622 .35437013 .23599243 .4093933 .19198609 .44140626 .14099121 .44140626 .10499573 .44140626 .07998657 .418396 .06399536 .38739015 .040985109 .34236146 .02999878 .29135133 .02999878 .28834535 .02999878 .27934266 .036987306 .27534486 .04499817 .27534486 .057998659 .27534486 .05899048 .27934266 .06599426 .30534364 .07899475 .35636903 .09700012 .4133911 .13798523 .4133911 .16299439 .4133911 .16999817 .39038087 .16999817 .36637879 .16999817 .3483734 .16499329 .32936097 .15699768 .29634095 .15499878 .28834535 .13999939 .22932434 .13598633 .21531677L.09899902 .06524658C.09498596 .050247194 .08898926 .025238038 .08898926 .021240235 .08898926-.0017700195 .10798645-.009780884 .12098694-.009780884 .13899231-.009780884 .1539917 .0022277833 .16099549 .01423645 .1639862 .020233155 .17199707 .054244996 .1769867 .07525635L.19999695 .16429138C.20298767 .17930603 .21299744 .21731568 .21598816 .23231507 .22999573 .28634645 .22999573 .28733827 .25299073 .32035829 .28599549 .3693695 .33299256 .4133911 .3999939 .4133911 .43598939 .4133911 .45700074 .39237977 .45700074 .34536744 .45700074 .32635499 .44898988 .28933717 .44898988 .28834535L.33599855-.1608429C.33198548-.17584229 .33198548-.18183899 .33198548-.18385315 .33198548-.20884705 .35198976-.21484375 .3639984-.21484375 .39898683-.21484375 .40699769-.18183899 .4099884-.16984558L.5209961 .27633668Z"/>
<path id="font_7_1" d="M.5499878 .31877137C.5499878 .39183045 .5499878 .66503909 .30499269 .66503909 .05999756 .66503909 .05999756 .39183045 .05999756 .31877137 .05999756 .2467041 .05999756-.021484375 .30499269-.021484375 .5499878-.021484375 .5499878 .2467041 .5499878 .31877137M.30499269 .010513306C.2630005 .010513306 .19499207 .030517579 .17098999 .113601688 .15499878 .17164612 .15499878 .2697296 .15499878 .33177186 .15499878 .39883424 .15499878 .4758911 .16899109 .52993777 .19400025 .6200104 .269989 .6330261 .30499269 .6330261 .35099793 .6330261 .4169922 .6110077 .43899537 .5349426 .45399476 .48190309 .45498658 .408844 .45498658 .33177186 .45498658 .26771546 .45498658 .16664124 .43798829 .1105957 .4099884 .023513794 .33799745 .010513306 .30499269 .010513306Z"/>
<path id="font_8_1" d="M.69898989 .22743225C.71499636 .22743225 .7369995 .22743225 .7369995 .25042726 .7369995 .2734375 .71499636 .2734375 .69898989 .2734375H.12599182C.10998535 .2734375 .08799744 .2734375 .08799744 .25042726 .08799744 .22743225 .10998535 .22743225 .12599182 .22743225H.69898989Z"/>
<path id="font_4_1" d="M.5009918 .6898804C.4909973 .70788577 .48799134 .7128906 .46798707 .7128906 .45599366 .7128906 .44599916 .70988467 .43699647 .6938782L.067993167 .023986817C.06098938 .0129852299 .06098938 .010986328 .06098938 .009994507 .06098938 0 .068984989 0 .084991458 0H.85198977C.8679962 0 .8759918 0 .8759918 .009994507 .8759918 .010986328 .8759918 .0129852299 .86898806 .023986817L.5009918 .6898804M.43499757 .6148987 .72898867 .08198547H.14099121L.43499757 .6148987Z"/>
<path id="font_9_1" d="M.34199525 .32141114H.44898988C.5249939 .32141114 .5379944 .30943299 .5379944 .27648927 .5379944 .2615204 .5379944 .25952149 .5309906 .23156739 .5289917 .22558594 .5279999 .22259522 .5279999 .21958924 .5279999 .20960999 .5349884 .20462036 .54499819 .20462036 .55799868 .20462036 .5589905 .20960999 .56399539 .22758484L.6179962 .43946839C.61898806 .44247438 .621994 .457489 .621994 .45948792 .621994 .46949769 .61499026 .4744873 .6049957 .4744873 .59098818 .4744873 .58999636 .4684906 .58499148 .45048524 .5649872 .37242127 .5359955 .35742188 .45098878 .35742188H.35099793L.4139862 .60858157C.42199708 .63960269 .4229889 .64260867 .46499635 .64260867H.6179962C.7509918 .64260867 .776001 .6105957 .776001 .52752688 .776001 .49450685 .7719879 .47349549 .7719879 .46548463 .7719879 .457489 .7749939 .44847108 .78900149 .44847108 .80400088 .44847108 .8049927 .457489 .8069916 .4744873L.82499697 .64860537C.8279877 .6786041 .82099917 .6786041 .79599 .6786041H.2619934C.24299622 .6786041 .22999573 .6786041 .22999573 .6566162 .22999573 .64260867 .24198914 .64260867 .2619934 .64260867 .2630005 .64260867 .28199769 .64260867 .2999878 .64060977 .32099916 .63861086 .32299806 .63661196 .32299806 .6266022 .32299806 .6195984 .31999208 .6095886 .31900025 .60458377L.18798828 .081848148C.17799378 .042907716 .1769867 .03591919 .09899902 .03591919 .08198547 .03591919 .068984989 .03591919 .068984989 .014923096 .068984989 .004928589 .07598877-.000076293948 .084991458-.000076293948 .11399841-.000076293948 .18798828 .003921509 .21699524 .003921509L.2939911 .0029296876C.31999208 .0029296876 .34799195-.000076293948 .37298585-.000076293948 .37998963-.000076293948 .394989-.000076293948 .394989 .02192688 .394989 .03591919 .3829956 .03591919 .3600006 .03591919 .35798646 .03591919 .33299256 .03591919 .30799867 .03791809 .2869873 .039916994 .2769928 .040908815 .2769928 .054885866 .2769928 .058883668 .2769928 .06187439 .27999879 .07286072L.34199525 .32141114Z"/>
<path id="font_4_6" d="M.7679901 .3359375C.7829895 .3359375 .80599978 .3359375 .80599978 .3609314 .80599978 .38493348 .7819977 .38493348 .7689972 .38493348H.10699463C.09399414 .38493348 .069992069 .38493348 .069992069 .3609314 .069992069 .3359375 .09298706 .3359375 .10798645 .3359375H.7679901M.7689972 .11602783C.7819977 .11602783 .80599978 .11602783 .80599978 .1400299 .80599978 .16503906 .7829895 .16503906 .7679901 .16503906H.10798645C.09298706 .16503906 .069992069 .16503906 .069992069 .1400299 .069992069 .11602783 .09399414 .11602783 .10699463 .11602783H.7689972Z"/>
<path id="font_9_3" d="M.42199708 .38238526C.40098573 .41540528 .36698915 .44140626 .31900025 .44140626 .19099427 .44140626 .06098938 .300354 .06098938 .15628052 .06098938 .059249879 .12599182-.009765625 .21199036-.009765625 .2659912-.009765625 .31399537 .021224976 .35398866 .0602417 .37298585 .00022888184 .43099977-.009765625 .45700074-.009765625 .49299623-.009765625 .5179901 .01222229 .5359955 .04324341 .55799868 .08226013 .57099917 .13928223 .57099917 .14328003 .57099917 .15628052 .55799868 .15628052 .5549927 .15628052 .54100039 .15628052 .5399933 .15228272 .5329895 .12527466 .5209961 .07725525 .5019989 .018234253 .45999146 .018234253 .43399049 .018234253 .4269867 .040237428 .4269867 .06724548 .4269867 .08425903 .43499757 .120269779 .44198609 .14628601 .44898988 .17329407 .45899964 .21430969 .46398927 .23632813L.48399354 .3123474C.48999024 .33836366 .5019989 .38539125 .5019989 .39038087 .5019989 .4123993 .48399354 .4223938 .46798707 .4223938 .45098878 .4223938 .42799378 .4104004 .42199708 .38238526M.35798646 .12527466C.35099793 .09725952 .32899476 .07725525 .30699159 .058242799 .2979889 .050247194 .2579956 .018234253 .21499634 .018234253 .17799378 .018234253 .14199829 .04423523 .14199829 .11526489 .14199829 .16828919 .17098999 .27833558 .19400025 .31835938 .23999024 .39839173 .29100038 .4133911 .31900025 .4133911 .3889923 .4133911 .4079895 .33737184 .4079895 .32635499 .4079895 .32235719 .4059906 .3153534 .40499879 .3123474L.35798646 .12527466Z"/>
<path id="font_10_1" d="M.58898928 .19296265H.5469971C.5439911 .17396546 .5339966 .11198425 .5179901 .101989749 .5099945 .09599304 .42599488 .09599304 .41099549 .09599304H.21499634C.2809906 .14497376 .35499574 .20095825 .4149933 .24093628 .5049896 .30291749 .58898928 .36090089 .58898928 .46687318 .58898928 .59495547 .46798707 .6660156 .32499696 .6660156 .18998719 .6660156 .09098816 .58795168 .09098816 .48986817 .09098816 .4378662 .1349945 .42886354 .14898682 .42886354 .17599488 .42886354 .20799256 .4468689 .20799256 .48786927 .20799256 .52386477 .18199158 .543869 .15098572 .546875 .1789856 .59194949 .23699951 .6220093 .3039856 .6220093 .40098573 .6220093 .48199464 .5639038 .48199464 .4658661 .48199464 .3818817 .42399598 .31791688 .34700013 .2529297L.102996829 .04598999C.09298706 .036987306 .09199524 .036987306 .09098816 .02999878V0H.55599978L.58898928 .19296265Z"/>
<path id="font_4_5" d="M.5289917 .1640625V.20005799H.41799928V.64582827C.41799928 .66682437 .41799928 .6738281 .3959961 .6738281 .38398744 .6738281 .37998963 .6738281 .36999513 .65982058L.038986207 .20005799V.1640625H.33299256V.08201599C.33299256 .04800415 .33299256 .035995485 .2519989 .035995485H.22499085V0C.2749939 .0019989014 .33898927 .0039978029 .375 .0039978029 .4119873 .0039978029 .47599793 .0019989014 .526001 0V.035995485H.49899293C.41799928 .035995485 .41799928 .04800415 .41799928 .08201599V.1640625H.5289917M.33999635 .5658722V.20005799H.07598877L.33999635 .5658722Z"/>
<path id="font_9_4" d="M.2639923 .66430667C.2649994 .66630557 .2679901 .67930606 .2679901 .68029788 .2679901 .68530276 .2639923 .6943054 .2519989 .6943054 .23199463 .6943054 .14898682 .6863098 .12399292 .6843109 .115997318 .68330386 .101989749 .682312 .101989749 .66130068 .101989749 .64730837 .115997318 .64730837 .12799073 .64730837 .17599488 .64730837 .17599488 .64030459 .17599488 .63230898 .17599488 .62532046 .1659851 .58532717 .1599884 .5623474L.13699341 .4703827C.12799073 .43640138 .07299805 .21731568 .070999149 .20431519 .06599426 .18029785 .06599426 .16729737 .06599426 .1552887 .06599426 .054244996 .12998963-.009765625 .21299744-.009765625 .33799745-.009765625 .47099305 .12626648 .47099305 .27433778 .47099305 .39138795 .3899994 .44140626 .32099916 .44140626 .2689972 .44140626 .22499085 .4123993 .19499207 .38638307L.2639923 .66430667M.21398926 .018234253C.16499329 .018234253 .13699341 .06124878 .13699341 .120269779 .13699341 .1572876 .1459961 .19129944 .17399597 .3043518 .17999268 .32336427 .17999268 .32536317 .19898987 .34736634 .23699951 .39138795 .28199769 .4133911 .31799317 .4133911 .35699464 .4133911 .3909912 .38438417 .3909912 .31636048 .3909912 .27534486 .36898805 .17329407 .33898927 .11526489 .31498719 .06625366 .2649994 .018234253 .21398926 .018234253Z"/>
<path id="font_11_2" d="M.8149872 .42939759C.81399539 .44140626 .8009949 .44140626 .7769928 .44140626 .68499758 .44140626 .59199526 .38539125 .5289917 .27534486 .48599244 .33436585 .46798707 .359375 .4249878 .39039613 .3769989 .42340089 .32398988 .44140626 .27198792 .44140626 .15499878 .44140626 .07699585 .33236695 .07699585 .21531677 .07699585 .1002655 .1519928-.009765625 .2689972-.009765625 .36099244-.009765625 .45399476 .04623413 .5169983 .15628052 .55999758 .09725952 .5779877 .072250369 .62098696 .041229249 .6689911 .008224487 .7220001-.009765625 .7739868-.009765625 .7769928-.009765625 .798996-.009765625 .8149872-.0057678224V.042236329C.80599978 .040237428 .7979889 .040237428 .78900149 .040237428 .74598696 .040237428 .70199587 .057235719 .6499939 .11126709 .6349945 .12727356 .6349945 .12927246 .55599978 .23632813 .59599307 .3133545 .6729889 .4053955 .7839966 .4053955 .7919922 .4053955 .8029938 .4053955 .8149872 .4024048V.42939759M.48999024 .1953125C.44999696 .118270877 .37298585 .026229859 .2619934 .026229859 .15699768 .026229859 .10499573 .12927246 .10499573 .21531677 .10499573 .3043518 .1639862 .3914032 .2579956 .3914032 .30499269 .3914032 .34899903 .36938478 .3959961 .32035829 .41099549 .3043518 .41099549 .3023529 .48999024 .1953125Z"/>
<path id="font_4_2" d="M.35499574 .75C.16499329 .61598208 .114990238 .40397645 .114990238 .25097657 .114990238 .10997009 .15699768-.10902405 .35499574-.24902344 .36299134-.24902344 .375-.24902344 .375-.23703003 .375-.23103333 .37199403-.22903443 .36499024-.22203064 .23199463-.10203552 .18299866 .067977908 .18299866 .24996948 .18299866 .519989 .28599549 .65197756 .36799623 .72598269 .37199403 .7299957 .375 .73298647 .375 .73799136 .375 .75 .36299134 .75 .35499574 .75Z"/>
<path id="font_9_2" d="M.48599244 .6046295C.49299623 .63360598 .49499513 .63661196 .5169983 .63861086 .5219879 .63960269 .5569916 .63960269 .57699587 .63960269 .6380005 .63960269 .6639862 .63960269 .68899539 .63160708 .73399356 .61761477 .73599246 .5886383 .73599246 .5526581 .73599246 .53666689 .73599246 .52368167 .72898867 .4717102L.72698977 .46072389C.72698977 .45072938 .73399356 .4457245 .74398806 .4457245 .7589874 .4457245 .7609863 .45472718 .7630005 .47071839L.7899933 .66160586C.7899933 .6756134 .7779999 .6756134 .7599945 .6756134H.14498902C.11999512 .6756134 .117996219 .6756134 .11099243 .65460208L.04798889 .4777069C.04699707 .4737091 .042999269 .46472169 .042999269 .4597168 .042999269 .455719 .04499817 .4457245 .05999756 .4457245 .07299805 .4457245 .07499695 .45072938 .08099365 .4697113 .13899231 .62960818 .17199707 .63960269 .32398988 .63960269H.3659973C.3959961 .63960269 .39698792 .63861086 .39698792 .62960818 .39698792 .62861636 .39698792 .62361147 .3929901 .6086273L.26098634 .082962039C.2519989 .04598999 .24899292 .035995485 .14399719 .035995485 .10798645 .035995485 .09899902 .035995485 .09899902 .01399231 .09899902 .010986328 .100997928 0 .115997318 0 .14399719 0 .17399597 .0029907227 .20199585 .0029907227 .22999573 .0029907227 .2599945 .0039978029 .28799439 .0039978029 .31599427 .0039978029 .34999085 .0039978029 .37799073 .0029907227 .40499879 .0019989014 .43499757 0 .46199037 0 .46998597 0 .4850006 0 .4850006 .021987915 .4850006 .035995485 .47499085 .035995485 .44400025 .035995485 .4249878 .035995485 .40499879 .036987306 .38598634 .037994386 .35198976 .040985109 .34999085 .04498291 .34999085 .05697632 .34999085 .0639801 .34999085 .065979007 .35398866 .07997131L.48599244 .6046295Z"/>
<path id="font_12_1" d="M.5149994 .38616944C.49699403 .3811493 .46899415 .3601532 .46899415 .32614137 .46899415 .30015565 .48799134 .28515626 .5130005 .28515626 .5369873 .28515626 .57499697 .30415345 .57499697 .35414125 .57499697 .42938233 .47799684 .4423828 .4229889 .4423828 .2539978 .4423828 .10699463 .30415345 .10699463 .17118836 .10699463 .084228519 .17098999-.0107421879 .32199098-.0107421879 .34098817-.0107421879 .42099-.0107421879 .4889984 .01524353 .55599978 .041244508 .59599307 .08721924 .59599307 .098220828 .59599307 .10621643 .58299258 .12121582 .57398989 .12121582 .56900027 .12121582 .56799319 .12020874 .5519867 .10421753 .5069885 .053237916 .4229889 .023254395 .32299806 .023254395 .23899842 .023254395 .19898987 .070236209 .19898987 .13920594 .19898987 .24116516 .2649994 .40837098 .4229889 .40837098 .43399049 .40837098 .48399354 .40837098 .5149994 .38616944Z"/>
<path id="font_11_1" d="M.74398806 .2263794C.7599945 .2263794 .7839966 .2263794 .7839966 .25038148 .7839966 .27539063 .7609863 .27539063 .74398806 .27539063H.147995C.13198853 .27539063 .10798645 .27539063 .10798645 .25138856 .10798645 .2263794 .1309967 .2263794 .147995 .2263794H.74398806Z"/>
<path id="font_4_3" d="M.08999634 .75C.08299255 .75 .070999149 .75 .070999149 .73799136 .070999149 .73298647 .07398987 .7299957 .07998657 .72299197 .1659851 .64398196 .2619934 .5089874 .2619934 .25097657 .2619934 .04197693 .19699097-.11602783 .08898926-.21403504 .07199097-.23103333 .070999149-.23202515 .070999149-.23703003 .070999149-.24203491 .07398987-.24902344 .083999637-.24902344 .09599304-.24902344 .19099427-.18302918 .25698854-.058029176 .30099488 .024978638 .32998658 .13298035 .32998658 .24996948 .32998658 .39097596 .28799439 .60998538 .08999634 .75Z"/>
<path id="font_6_4" d="M.45199586 .6046295C.46099855 .64060977 .46199037 .64260867 .5029907 .64260867H.57899478C.68299868 .64260867 .69499209 .6096344 .69499209 .55966189 .69499209 .5346832 .68899539 .49169923 .6879883 .4867096 .6859894 .47572328 .68499758 .46672059 .68499758 .46472169 .68499758 .45173646 .69400027 .44873048 .69999697 .44873048 .71099856 .44873048 .71499636 .45472718 .71798709 .47372438L.7449951 .66160586C.7449951 .6756134 .73298647 .6756134 .71499636 .6756134H.12599182C.100997928 .6756134 .09899902 .6756134 .09199524 .65460208L.0309906 .48171998C.0289917 .4767151 .025985718 .46871949 .025985718 .46272279 .025985718 .45472718 .032989503 .44873048 .040985109 .44873048 .051986696 .44873048 .053985597 .45373536 .05999756 .47071839 .116989139 .63061526 .1459961 .64260867 .2979889 .64260867H.33699037C.36698915 .64260867 .36799623 .6416168 .36799623 .6336212 .36799623 .63061526 .3639984 .6106262 .36299134 .6066284L.23098755 .081954959C.22200012 .04399109 .21899414 .032989503 .114990238 .032989503 .08299255 .032989503 .07299805 .032989503 .07299805 .01399231 .07299805 .0129852299 .07299805 0 .08999634 0 .116989139 0 .18598938 .0029907227 .21299744 .0029907227H.2979889C.32598878 .0029907227 .3959961 0 .42399598 0 .43199159 0 .44699098 0 .44699098 .018997193 .44699098 .032989503 .43598939 .032989503 .40899659 .032989503 .3849945 .032989503 .3769989 .032989503 .35099793 .034988405 .31900025 .037994386 .31498719 .041992189 .31498719 .054977418 .31498719 .05897522 .31599427 .06297302 .31900025 .07296753L.45199586 .6046295Z"/>
<path id="font_6_3" d="M.71598818 .22499085C.7279968 .23098755 .7369995 .23698426 .7369995 .24998474 .7369995 .26298524 .7279968 .26898194 .71598818 .27497865L.1289978 .55693057C.115997318 .5639343 .11399841 .5639343 .11099243 .5639343 .09799194 .5639343 .08799744 .5539398 .08799744 .54093936 .08799744 .52793887 .09700012 .52194216 .10899353 .51594546L.6609955 .24998474 .10899353-.015975953C.09700012-.021972657 .08799744-.02798462 .08799744-.04096985 .08799744-.053970338 .09799194-.0639801 .11099243-.0639801 .11399841-.0639801 .115997318-.0639801 .1289978-.05697632L.71598818 .22499085Z"/>
<path id="font_13_1" d="M.46398927 .38404847C.45098878 .38105775 .4169922 .36405946 .4169922 .32705689 .4169922 .30204774 .43598939 .2890625 .45700074 .2890625 .48098756 .2890625 .5149994 .3060608 .5149994 .35404969 .5149994 .41940309 .43899537 .44140626 .375 .44140626 .21998596 .44140626 .07499695 .3070526 .07499695 .1681366 .07499695 .07319641 .14399719-.009765625 .272995-.009765625 .46099855-.009765625 .5329895 .09017944 .5329895 .10118103 .5329895 .11016846 .5219879 .121170047 .5139923 .121170047 .5089874 .121170047 .5079956 .120162967 .49299623 .10517883 .43899537 .04321289 .34599305 .023223877 .2749939 .023223877 .19198609 .023223877 .1619873 .077194217 .1619873 .1351471 .1619873 .13815308 .1639862 .2540741 .23298645 .3390503 .24798584 .35604859 .2999878 .40838624 .37599183 .40838624 .3809967 .40838624 .43399049 .40838624 .46398927 .38404847Z"/>
<path id="font_5_2" d="M.73098757 .3330078C.74598696 .3330078 .7659912 .3330078 .7659912 .3560028 .7659912 .3789978 .74198916 .3789978 .72698977 .3789978H.09799194C.08299255 .3789978 .05899048 .3789978 .05899048 .3560028 .05899048 .3330078 .07899475 .3330078 .09399414 .3330078H.73098757M.72698977 .12098694C.74198916 .12098694 .7659912 .12098694 .7659912 .14398194 .7659912 .16699219 .74598696 .16699219 .73098757 .16699219H.09399414C.07899475 .16699219 .05899048 .16699219 .05899048 .14398194 .05899048 .12098694 .08299255 .12098694 .09799194 .12098694H.72698977Z"/>
<path id="font_6_2" d="M.71598818 .51594546C.7279968 .52194216 .7369995 .52793887 .7369995 .54093936 .7369995 .5539398 .72698977 .5639343 .71398928 .5639343 .71099856 .5639343 .70899966 .5639343 .69599917 .55693057L.10899353 .27497865C.09700012 .26898194 .08799744 .26298524 .08799744 .24998474 .08799744 .23698426 .09700012 .23098755 .10899353 .22499085L.69599917-.05697632C.70899966-.0639801 .71099856-.0639801 .71398928-.0639801 .72698977-.0639801 .7369995-.053970338 .7369995-.04096985 .7369995-.02798462 .7279968-.021972657 .71598818-.015975953L.1639862 .24998474 .71598818 .51594546Z"/>
<path id="font_3_5" d="M.70799258 .3310089C.7220001 .3310089 .7409973 .3310089 .7409973 .35202027 .7409973 .37402345 .71899417 .37402345 .70399478 .37402345H.09399414C.07899475 .37402345 .056991579 .37402345 .056991579 .35202027 .056991579 .3310089 .07699585 .3310089 .08999634 .3310089H.70799258M.70399478 .12695313C.71899417 .12695313 .7409973 .12695313 .7409973 .14894104 .7409973 .1699524 .7220001 .1699524 .70799258 .1699524H.08999634C.07699585 .1699524 .056991579 .1699524 .056991579 .14894104 .056991579 .12695313 .07899475 .12695313 .09399414 .12695313H.70399478Z"/>
<path id="font_2_6" d="M.38198854 .3803711C.36299134 .41638185 .33198548 .4423828 .2869873 .4423828 .17098999 .4423828 .041992189 .30433656 .041992189 .1512909 .041992189 .041259767 .11199951-.0107421879 .1789856-.0107421879 .24398804-.0107421879 .29699708 .043258668 .31298829 .06227112 .32398988 .007247925 .37399293-.0107421879 .4059906-.0107421879 .43499757-.0107421879 .45999146 .002243042 .48199464 .044265748 .5 .07727051 .5139923 .13928223 .5139923 .14329529 .5139923 .14828491 .5109863 .1552887 .5009918 .1552887 .4889984 .1552887 .48799134 .15029907 .48399354 .13128662 .46199037 .044265748 .43998719 .014251709 .40899659 .014251709 .38398744 .014251709 .37799073 .038253786 .37799073 .060272218 .37799073 .07926941 .3829956 .09927368 .3919983 .1342926L.4169922 .23731995C.42399598 .2623291 .44198609 .33735658 .44599916 .35235597 .44999696 .36636354 .45599366 .3903656 .45599366 .39337159 .45599366 .40937806 .44299317 .42237855 .4249878 .42237855 .4119873 .42237855 .3869934 .41438294 .38198854 .3803711M.31698609 .122283939C.31199647 .103271488 .31199647 .10227966 .29599 .08326721 .2599945 .040252687 .21899414 .014251709 .18199158 .014251709 .1329956 .014251709 .115997318 .06526184 .115997318 .10827637 .115997318 .15730286 .14498902 .27233888 .16899109 .32034303 .20098877 .3803711 .24699402 .41737367 .2869873 .41737367 .35398866 .41737367 .36898805 .33735658 .36898805 .33035279 .36898805 .3253479 .36698915 .3193512 .3659973 .31533814L.31698609 .122283939Z"/>
<path id="font_2_5" d="M.43899537 .6086273C.44499208 .63061526 .44699098 .64060977 .46398927 .6436157 .47200013 .6456146 .5039978 .6456146 .5249939 .6456146 .6399994 .6456146 .673996 .63861086 .673996 .56066897 .673996 .54766848 .673996 .5326843 .6649933 .4737091L.6639862 .4657135C.6639862 .45872499 .66799929 .45173646 .6779938 .45173646 .6899872 .45173646 .69200137 .46072389 .69400027 .475708L.7200012 .64860537C.72099307 .6536102 .7220001 .65960696 .7220001 .6626129 .7220001 .6766052 .71199038 .6766052 .69299319 .6766052H.12399292C.099990848 .6766052 .09899902 .6756134 .09199524 .6566162L.02999878 .4807129C.025985718 .4677124 .025985718 .4657135 .025985718 .46472169 .025985718 .45973207 .0289917 .45173646 .038986207 .45173646 .049987794 .45173646 .051986696 .45773316 .057998659 .475708 .11299133 .6316223 .14399719 .6456146 .2889862 .6456146H.32798768C.35598756 .6456146 .35598756 .64260867 .35598756 .63461306 .35598756 .62861636 .35398866 .6216278 .35198976 .6136322L.21798706 .07896423C.20899964 .04298401 .20599365 .0309906 .099990848 .0309906 .067993167 .0309906 .05899048 .0309906 .05899048 .0129852299 .05899048 0 .07199097 0 .07598877 0 .101989749 0 .1309967 .0019989014 .1579895 .0019989014 .18598938 .0019989014 .21499634 .0029907227 .24299622 .0029907227 .2869873 .0029907227 .2889862 .0029907227 .32598878 .0019989014 .33898927 .0019989014 .40499879 0 .41299439 0 .42199708 0 .43399049 0 .43399049 .017990113 .43399049 .0309906 .4249878 .0309906 .3999939 .0309906 .375 .0309906 .36299134 .0309906 .33599855 .032989503 .31298829 .035995485 .30099488 .036987306 .30099488 .053985597 .30099488 .05897522 .30299378 .066970828 .30499269 .07395935L.43899537 .6086273Z"/>
<path id="font_14_1" d="M.6749878 .22944641C.69299319 .22944641 .71199038 .22944641 .71199038 .25144959 .71199038 .27246095 .69200137 .27246095 .6749878 .27246095H.12298584C.10598755 .27246095 .085998538 .27246095 .085998538 .25144959 .085998538 .22944641 .10499573 .22944641 .12298584 .22944641H.6749878Z"/>
<path id="font_7_3" d="M.5379944 .18702698H.5009918C.49899293 .17301941 .4889984 .10699463 .47399903 .09599304 .46699525 .08999634 .38598634 .08999634 .37199403 .08999634H.18499756L.31298829 .19403076C.34700013 .22103882 .43598939 .28504945 .46699525 .31506349 .49699403 .3450775 .5379944 .39608766 .5379944 .46710206 .5379944 .5920563 .4249878 .66503909 .29100038 .66503909 .1619873 .66503909 .07199097 .58006289 .07199097 .48609925 .07199097 .43510438 .114990238 .42910768 .12599182 .42910768 .15098572 .42910768 .17999268 .44709779 .17999268 .48310853 .17999268 .50509646 .16699219 .5371094 .12298584 .5371094 .1459961 .5880585 .20698548 .6260376 .27598573 .6260376 .3809967 .6260376 .43699647 .5480957 .43699647 .46710206 .43699647 .39608766 .3899994 .32305909 .31999208 .25904847L.08299255 .041992189C.07299805 .03199768 .07199097 .0309906 .07199097 0H.5069885L.5379944 .18702698Z"/>
<path id="font_3_3" d="M.70599368 .22944641C.7200012 .22944641 .7409973 .22944641 .7409973 .25045777 .7409973 .27246095 .7220001 .27246095 .70599368 .27246095H.42099V.5578003C.42099 .573761 .42099 .59277346 .39898683 .59277346 .37799073 .59277346 .37799073 .57177737 .37799073 .5578003V.27246095H.09199524C.07798767 .27246095 .056991579 .27246095 .056991579 .25144959 .056991579 .22944641 .07598877 .22944641 .09199524 .22944641H.37799073V-.056793214C.37799073-.07279968 .37799073-.091796878 .3999939-.091796878 .42099-.091796878 .42099-.07080078 .42099-.056793214V.22944641H.70599368Z"/>
<path id="font_2_7" d="M.23899842 .6603241C.24299622 .67433169 .24299622 .67633059 .24299622 .68032839 .24299622 .68933108 .23699951 .69433596 .22799683 .69433596 .21398926 .69433596 .12599182 .6863251 .10598755 .6843262 .09599304 .68333438 .084991458 .6823273 .084991458 .665329 .084991458 .6523285 .09599304 .6523285 .11199951 .6523285 .15899658 .6523285 .15899658 .6453247 .15899658 .6363373 .15899658 .6303406 .15899658 .6283264 .1519928 .6013336L.09899902 .3903656C.084991458 .3343506 .07199097 .28334046 .06098938 .23631287 .053985597 .21131897 .04699707 .18130493 .04699707 .14929199 .04699707 .06326294 .09498596-.0107421879 .18099976-.0107421879 .2979889-.0107421879 .42599488 .13027954 .42599488 .28033448 .42599488 .38237 .36299134 .4423828 .28799439 .4423828 .23699951 .4423828 .19299317 .40737916 .16999817 .38536073L.23899842 .6603241M.1559906 .32835389C.18399048 .36836244 .23498535 .41737367 .28599549 .41737367 .33299256 .41737367 .35198976 .37036134 .35198976 .323349 .35198976 .27833558 .32398988 .15429688 .29299928 .10127258 .2559967 .037261964 .21199036 .014251709 .18099976 .014251709 .1309967 .014251709 .11099243 .06427002 .11099243 .11528015 .11099243 .15029907 .117996219 .17730713 .14099121 .2683258L.1559906 .32835389Z"/>
<path id="font_7_4" d="M.56399539 .1640625V.2030487H.44699098V.6448059C.44699098 .6678009 .44699098 .6748047 .42199708 .6748047 .4039917 .6748047 .4019928 .6717987 .3929901 .65979006L.04598999 .2030487V.1640625H.35699464V.08401489C.35699464 .050994874 .35699464 .038986207 .272995 .038986207H.24398804V0C.2639923 .0009918213 .35798646 .0039978029 .4019928 .0039978029 .44599916 .0039978029 .5399933 .0009918213 .55999758 0V.038986207H.5309906C.44699098 .038986207 .44699098 .050994874 .44699098 .08401489V.1640625H.56399539M.3639984 .56585696V.2030487H.08898926L.3639984 .56585696Z"/>
<path id="font_2_3" d="M.18199158 .015991211C.18199158-.017044068 .18199158-.09921265 .10798645-.17036438 .101989749-.17636109 .101989749-.17736817 .101989749-.18136597 .101989749-.18836975 .10899353-.19335938 .114990238-.19335938 .12599182-.19335938 .20698548-.115249637 .20698548 .0019989014 .20698548 .06399536 .18499756 .10798645 .14199829 .10798645 .10798645 .10798645 .08799744 .08198547 .08799744 .053985597 .08799744 .025985718 .10798645 0 .14199829 0 .15699768 0 .17199707 .004989624 .18199158 .015991211Z"/>
<path id="font_15_1" d="M.47898866-2.1549378H.47799684L.2579956-1.15802 .11399841-1.3780212 .1309967-1.3960114 .19999695-1.2910156 .43499757-2.3579255C.46998597-2.3579255 .47299195-2.3579255 .47999574-2.3309174L1.0449982 .0009613037C1.048996 .014968872 1.048996 .016967774 1.048996 .020965577 1.048996 .033966066 1.0390015 .04296875 1.0279999 .04296875 1.0110016 .04296875 1.0069885 .027954102 1.0039978 .014968872L.47898866-2.1549378Z"/>
<path id="font_3_4" d="M.46199037 .17704773H.43399049C.43199159 .16404724 .42399598 .10501099 .41099549 .08900452 .40499879 .07998657 .33599855 .07998657 .31599427 .07998657H.13798523L.23699951 .17404175C.40098573 .3161316 .46199037 .36915589 .46199037 .4711914 .46199037 .5860901 .36698915 .6660156 .24398804 .6660156 .1289978 .6660156 .050994874 .575119 .050994874 .4841919 .050994874 .43418885 .09399414 .42919923 .102996829 .42919923 .125 .42919923 .15499878 .44519044 .15499878 .48120118 .15499878 .51119998 .13398743 .5332031 .102996829 .5332031 .09799194 .5332031 .09498596 .5332031 .09098816 .53219607 .114990238 .6030731 .1789856 .63500979 .23298645 .63500979 .33499146 .63500979 .36999513 .5401764 .36999513 .4711914 .36999513 .36915589 .29299928 .28611756 .24499512 .23408509L.06199646 .035995485C.050994874 .024993897 .050994874 .022994996 .050994874 0H.43399049L.46199037 .17704773Z"/>
<path id="font_2_1" d="M.58599856 .57188418C.58599856 .64100649 .5379944 .70606997 .43199159 .70606997 .40699769 .70606997 .38598634 .70207217 .35798646 .68707278 .2689972 .64100649 .21598816 .5438385 .18798828 .4456787L.0309906-.18334961C.02999878-.18934632 .036987306-.19433594 .04399109-.19433594 .051986696-.19433594 .056991579-.19134522 .057998659-.18934632L.1269989 .084121707C.15098572 .022262574 .19898987-.010726929 .2649994-.010726929 .34199525-.010726929 .41600038 .023254395 .46998597 .075149539 .5159912 .11906433 .54499819 .18092346 .54499819 .24778748 .54499819 .30966188 .5179901 .37054444 .47200013 .39959718 .5209961 .4246521 .58599856 .49476625 .58599856 .57188418M.3999939 .40060426C.38398744 .39657594 .36698915 .3935547 .34999085 .3935547 .33499146 .3935547 .31999208 .3935547 .30599977 .3985901 .31799317 .4056549 .33699037 .4056549 .34999085 .4056549 .36698915 .4056549 .38398744 .4056549 .3999939 .40060426M.526001 .58891299C.526001 .5258179 .4889984 .4436798 .43699647 .4186554 .4119873 .42765809 .3869934 .43066407 .35798646 .43066407 .30599977 .43066407 .27598573 .4226532 .27598573 .39657594 .27598573 .37554933 .29899598 .36854554 .34599305 .36854554 .3809967 .36854554 .4039917 .37454225 .43499757 .3825531 .46699525 .3605652 .47799684 .31365968 .47799684 .27574159 .47799684 .20787049 .45700074 .13302613 .41099549 .08312988 .37298585 .04222107 .32199098 .015274048 .2659912 .015274048 .19099427 .015274048 .14698792 .06816101 .14698792 .14100647 .14698792 .15098572 .14698792 .16197205 .1499939 .17294312L.21798706 .4456787C.24099732 .53082278 .31698609 .68107607 .43299867 .68107607 .48098756 .68107607 .526001 .6570282 .526001 .58891299Z"/>
<path id="font_7_2" d="M.35899354 .6349335C.35899354 .66503909 .35499574 .66503909 .32499696 .66503909 .25898744 .60058596 .15699768 .60058596 .12098694 .60058596V.5615845C.14698792 .5615845 .21299744 .5615845 .272995 .58958438V.08496094C.272995 .051986696 .272995 .038986207 .16999817 .038986207H.1269989V0C.18199158 .0039978029 .2599945 .0039978029 .31599427 .0039978029 .37199403 .0039978029 .44999696 .0039978029 .5049896 0V.038986207H.46199037C.35899354 .038986207 .35899354 .051986696 .35899354 .08496094V.6349335Z"/>
<path id="font_16_27" d="M.7969971 0V.035995485H.7769928C.70999148 .035995485 .7029877 .04597473 .69200137 .07392883L.44898988 .6898804C.44299317 .70588687 .43998719 .7128906 .42099 .7128906 .4019928 .7128906 .39898683 .70588687 .3929901 .6898804L.1619873 .104888919C.1519928 .07992554 .1349945 .035995485 .04499817 .035995485V0C.07899475 .0029907227 .11399841 .0039978029 .147995 .0039978029 .18798828 .0039978029 .2619934 0 .2679901 0V.035995485C.22399903 .035995485 .19599915 .05595398 .19599915 .08392334 .19599915 .09190369 .19699097 .09390259 .20098877 .103881839L.24899292 .22668457H.5329895L.59098818 .08091736C.59298709 .075927738 .59599307 .06893921 .59599307 .063949588 .59599307 .035995485 .5419922 .035995485 .5149994 .035995485V0L.6639862 .0039978029C.71099856 .0039978029 .7859955 .0009918213 .7969971 0M.5189972 .2626953H.2630005L.3909912 .5878296 .5189972 .2626953Z"/>
<path id="font_16_34" d="M.7279968 .1829071C.7279968 .26985169 .6399994 .34379579 .5179901 .35679627 .6159973 .37478639 .69799807 .43574525 .69799807 .5126953 .69799807 .6026459 .59298709 .6826172 .45399476 .6826172H.05999756V.64660647H.083999637C.16099549 .64660647 .16299439 .63661196 .16299439 .6016388V.080963138C.16299439 .04698181 .16099549 .035995485 .083999637 .035995485H.05999756V0H.48399354C.625-.00018310547 .7279968 .08781433 .7279968 .18281555V.1829071M.59799197 .5127106C.59799197 .4417572 .5309906 .3688202 .41600038 .3688202H.25099183V.6076355C.25099183 .63861086 .2519989 .64660647 .29899598 .64660647H.44699098C.54599 .64682009 .59799197 .57580569 .59799197 .5128174V.5127106M.625 .184906C.625 .110946658 .5589905 .035995485 .44898988 .035995485H.29899598C.2519989 .035995485 .25099183 .04399109 .25099183 .07496643V.3408203H.46398927C.56999209 .34098817 .625 .25498963 .625 .18499756V.184906Z"/>
<path id="font_16_42" d="M.74398806 .23434448C.74398806 .24534607 .7429962 .25334168 .72698977 .25334168 .72099307 .25334168 .71099856 .25334168 .70999148 .24034119 .70199587 .079422 .56599429 .016464234 .46699525 .016464234 .3600006 .016464234 .1769867 .0814209 .1769867 .34129334 .1769867 .61213687 .37098695 .66711428 .46499635 .66711428 .56399539 .66711428 .6819916 .6011505 .70799258 .429245 .70999148 .4172516 .71899417 .4172516 .7259979 .4172516 .74398806 .4172516 .74398806 .4232483 .74398806 .4432373V.677124C.74398806 .6941223 .74398806 .703125 .7299957 .703125 .7259979 .703125 .72099307 .703125 .71299746 .69111636L.6599884 .6151428C.6179962 .65711978 .548996 .703125 .45298768 .703125 .24299622 .703125 .069992069 .5411835 .069992069 .34228517 .069992069 .13938904 .24598694-.01953125 .45298768-.01953125 .6299896-.01953125 .74398806 .1124115 .74398806 .23434448Z"/>
<path id="font_16_43" d="M.46798707 .120407108C.46798707 .13243103 .45498658 .13243103 .45098878 .13243103 .43798829 .13243103 .43699647 .12942505 .43199159 .11540222 .4099884 .05328369 .35699464 .022232056 .29599 .022232056 .22698975 .022232056 .13699341 .07331848 .13699341 .21759033 .13699341 .34448243 .19898987 .41427613 .2919922 .41427613 .30499269 .41441346 .35299684 .41441346 .3889923 .39941407 .37098695 .39128114 .36099244 .37527467 .36099244 .35528565 .36099244 .3284607 .37998963 .30859376 .4079895 .30859376 .43499757 .30859376 .45599366 .32546998 .45599366 .35728456 .45599366 .44628907 .31698609 .44628907 .2889862 .44628907 .13899231 .44628907 .04598999 .33143617 .04598999 .21658325 .04598999 .09034729 .15299988-.009765625 .28399659-.009765625 .43299867-.009765625 .46798707 .10838318 .46798707 .120407108Z"/>
<path id="font_16_81" d="M.5289917 .21325684C.5289917 .3382721 .42199708 .44628907 .28399659 .44628907 .1459961 .44628907 .038986207 .3382721 .038986207 .21325684 .038986207 .0892334 .14898682-.009765625 .28399659-.009765625 .4189911-.009765625 .5289917 .0892334 .5289917 .21325684M.43798829 .22225952C.43798829 .17424011 .43499757 .12124634 .4059906 .08023071 .3789978 .042236329 .33299256 .022232056 .28399659 .022232056 .24699402 .022232056 .19299317 .034225465 .1599884 .083236698 .1329956 .12423706 .12998963 .17625427 .12998963 .22225952 .12998963 .2652588 .1309967 .32426454 .1659851 .36727906 .19099427 .39627076 .23298645 .41827394 .28399659 .41827394 .34298707 .41827394 .3849945 .39027406 .40699769 .3592682 .43499757 .32026673 .43798829 .27026368 .43798829 .22225952Z"/>
<path id="font_16_72" d="M.2809906 0V.035995485C.21598816 .035995485 .20599365 .035995485 .20599365 .07901001V.69433596L.055999757 .6826172V.64660647C.12298584 .64660647 .1309967 .6396179 .1309967 .59065249V.07896423C.1309967 .035995485 .12098694 .035995485 .055999757 .035995485V0C.055999757 0 .12799073 .0039978029 .16799927 .0039978029 .20599365 .0039978029 .24299622 .0029907227 .2809906 0Z"/>
<path id="font_16_66" d="M.27398683 0V.035995485C.21598816 .035995485 .20599365 .035995485 .20599365 .07803345V.44140626L.05899048 .43052674V.39453126C.12199402 .39453126 .1309967 .3885193 .1309967 .33952333V.07952881C.1309967 .035995485 .12098694 .035995485 .055999757 .035995485V0C.055999757 0 .12799073 .0039978029 .16799927 .0039978029 .20298767 .0039978029 .23899842 .0029907227 .27398683 0M.21899414 .60214236C.21899414 .6341553 .19400025 .66015627 .1619873 .66015627 .12799073 .66015627 .10499573 .6321411 .10499573 .6031494 .10499573 .57115176 .12998963 .54515078 .1619873 .54515078 .19599915 .54515078 .21899414 .57315066 .21899414 .60214236Z"/>
<path id="font_16_77" d="M.58999636 0V.035995485C.5249939 .035995485 .5149994 .035995485 .5149994 .07904053V.3032837C.5149994 .3903656 .47200013 .44140626 .36499024 .44140626 .2829895 .44140626 .22999573 .39637757 .20199585 .34432984H.20098877V.44140626L.053985597 .43052674V.39453126C.12098694 .39453126 .1289978 .3875122 .1289978 .33843995V.079055789C.1289978 .035995485 .11898804 .035995485 .053985597 .035995485V0C.053985597 0 .12599182 .0039978029 .16799927 .0039978029 .20498657 .0039978029 .27398683 .0009918213 .2829895 0V.035995485C.21798706 .035995485 .20799256 .035995485 .20799256 .079055789V.25932313C.20799256 .36434938 .29100038 .4133911 .35699464 .4133911 .4269867 .4133911 .43598939 .3583374 .43598939 .3072815V.07904053C.43598939 .035995485 .42599488 .035995485 .36099244 .035995485V0C.36099244 0 .43299867 .0039978029 .47499085 .0039978029 .5119934 .0039978029 .58099368 .0009918213 .58999636 0Z"/>
<path id="font_16_59" d="M.54499819 .40040589C.54499819 .42340089 .526001 .45140077 .48599244 .45140077 .47099305 .45140077 .4169922 .44839479 .36999513 .4053955 .33999635 .42739869 .2979889 .44140626 .2539978 .44140626 .15098572 .44140626 .07598877 .372406 .07598877 .29440309 .07598877 .2554016 .09599304 .21939087 .12399292 .19340515 .115997318 .18440247 .09399414 .1513977 .09399414 .11239624 .09399414 .09939575 .09700012 .05239868 .13598633 .023391724 .09098816 .0082092289 .038986207-.024841309 .038986207-.076934818 .038986207-.15003968 .14898682-.20507813 .28399659-.20507813 .41099549-.20507813 .5289917-.15505982 .5289917-.074920658 .5289917-.0448761 .5169983 .00920105 .46199037 .039260866 .40299989 .0703125 .34399415 .0703125 .24699402 .0703125 .22499085 .0703125 .18899536 .0703125 .18099976 .07130432 .14898682 .078308109 .1309967 .108306888 .1309967 .13729859 .1309967 .16246033 .13798523 .17045594 .14399719 .17845154 .15899658 .16944885 .19499207 .14746094 .25299073 .14746094 .35598756 .14746094 .43099977 .21644593 .43099977 .29444886 .43099977 .33345033 .41299439 .36445619 .3889923 .39045716 .43399049 .42245484 .47299195 .42344667 .48999024 .42344667 .48599244 .41944886 .48098756 .41545106 .48098756 .39945985 .48098756 .37945558 .49598695 .3674469 .5130005 .3674469 .5269928 .3674469 .54499819 .37745667 .54499819 .40045167V.40040589M.35099793 .29444886C.35099793 .27845765 .35099793 .2384491 .33099366 .21244812 .31698609 .19544983 .2899933 .17745972 .2539978 .17745972 .1559906 .17720032 .1559906 .2732849 .1559906 .29429627 .1559906 .310318 .1559906 .3503418 .17599488 .3763733 .18998719 .39338685 .21699524 .4113922 .25299073 .4113922 .35099793 .4113922 .35099793 .31532289 .35099793 .29429627V.29444886M.46798707-.07600403C.46798707-.12904358 .3889923-.17507935 .28399659-.17507935 .1789856-.17507935 .099990848-.12808228 .099990848-.07608032 .099990848-.04107666 .13198853 .0019226074 .19599915 .0029296876H.2539978C.34298707 .0029296876 .46798707 .0029296876 .46798707-.07608032V-.07600403Z"/>
</defs>
<g clip-path="url(#clip_1)">
<path transform="matrix(1,0,0,-1,141.72209,132.83042)" stroke-width="1.19553" stroke-linecap="butt" stroke-miterlimit="10" stroke-linejoin="miter" fill="none" stroke="#0000bf" d="M-90.71013 300.14198C-90.71013 300.14198-89.60883 288.059-89.18587 283.5572-88.7629 279.0554-88.08456 272.00038-87.66159 267.69606-87.23863 263.39167-86.5603 256.64738-86.13733 252.53427-85.71437 248.42116-85.03603 241.97962-84.61307 238.05159-84.1901 234.12357-83.51176 227.97243-83.0888 224.22379-82.66585 220.47516-81.9875 214.60918-81.56453 211.03398-81.14157 207.45877-80.46324 201.86403-80.04028 198.45619-79.61731 195.04837-78.93896 189.71857-78.516 186.47274-78.09305 183.2269-77.41472 178.15201-76.99174 175.0624-76.56879 171.97277-75.89044 167.14392-75.46748 164.20482-75.04451 161.26572-74.36618 156.6729-73.94322 153.87928-73.52026 151.08563-72.84192 146.72344-72.41895 144.07018-71.99599 141.41692-71.31766 137.27504-70.8947 134.75634-70.47173 132.23763-69.7934 128.30583-69.37044 125.91699-68.94746 123.52815-68.26913 119.8028-67.84616 117.53915-67.4232 115.2755-66.74487 111.74573-66.3219 109.6021-65.89894 107.45847-65.2206 104.11774-64.79764 102.08934-64.37466 100.06093-63.69635 96.90034-63.27338 94.98273-62.85042 93.06511-62.17207 90.07959-61.7491 88.26845-61.32614 86.45729-60.64781 83.63829-60.22485 81.92917-59.80188 80.22005-59.12354 77.56194-58.70058 75.9502-58.27762 74.33847-57.59929 71.83127-57.17632 70.31293-56.75336 68.79459-56.07501 66.43579-55.65205 65.00699-55.22908 63.57817-54.55075 61.3587-54.12779 60.01506-53.70483 58.67142-53.02649 56.58498-52.60352 55.32289-52.18056 54.0608-51.50223 52.10298-51.07927 50.9188-50.6563 49.7346-49.97795 47.89801-49.555 46.78806-49.13202 45.67809-48.4537 43.95831-48.03073 42.91899-47.60777 41.87968-46.92943 40.26976-46.50647 39.29736-46.0835 38.32497-45.40517 36.81908-44.98221 35.9106-44.55923 35.0021-43.88092 33.5971-43.45795 32.7496-43.03499 31.90208-42.35664 30.59236-41.93367 29.80229-41.51071 29.0122-40.83238 27.79063-40.40942 27.05524-39.98645 26.31984-39.3081 25.18552-38.88515 24.50197-38.46219 23.8184-37.78386 22.76328-37.36089 22.12863-36.93793 21.49399-36.25958 20.51617-35.83662 19.92787-35.41365 19.33957-34.73532 18.43307-34.31236 17.88846-33.8894 17.34386-33.21106 16.50598-32.78809 16.0026-32.36513 15.49922-31.6868 14.72482-31.26384 14.26033-30.84087 13.79584-30.16252 13.08215-29.73956 12.65474-29.3166 12.22734-28.63828 11.57259-28.2153 11.1798-27.79234 10.78702-27.114 10.1841-26.69104 9.82379-26.26807 9.46347-25.58974 8.91237-25.16678 8.58282-24.7438 8.2533-24.06548 7.7492-23.6425 7.44872-23.21954 7.14824-22.54121 6.69041-22.11824 6.41711-21.69528 6.14381-21.01695 5.72673-20.594 5.47894-20.17102 5.23114-19.49269 4.85472-19.06972 4.63116-18.64676 4.40762-17.96843 4.06842-17.54546 3.86774-17.1225 3.66705-16.44415 3.36366-16.0212 3.18477-15.59822 3.00586-14.91989 2.73677-14.49693 2.57834-14.07397 2.4199-13.39563 2.18184-12.97266 2.04286-12.5497 1.90388-11.87137 1.69716-11.44841 1.57658-11.02544 1.45602-10.34709 1.27687-9.92413 1.17389-9.50117 1.0709-8.82285 .92017-8.39987 .83435-7.97691 .74854-7.29857 .62479-6.87561 .55536-6.45264 .48593-5.7743 .3875-5.35135 .33391-4.92838 .28032-4.25005 .20703-3.82707 .16911-3.40411 .1312-2.72578 .0831-2.30283 .06055-1.87985 .03798-1.2015 .01408-.77855 .00647-.35558-.00113 .32271-.00175 .74568 .0056 1.16864 .01297 1.84697 .03723 2.26994 .05968 2.6929 .0821 3.37125 .12988 3.7942 .16739 4.21718 .20488 4.89551 .27698 5.31847 .33002 5.74142 .38306 6.41977 .48056 6.84274 .54974 7.2657 .61893 7.94403 .74315 8.36699 .82874 8.78996 .9143 9.4683 1.06412 9.89127 1.16655 10.31422 1.26898 10.99255 1.44693 11.41553 1.56708 11.83849 1.68721 12.51683 1.89386 12.93979 2.03249 13.36276 2.17111 14.04109 2.40823 14.46405 2.56624 14.88701 2.72424 15.56535 2.99289 15.98833 3.17136 16.41129 3.34982 17.08961 3.65247 17.51257 3.8526 17.93555 4.05273 18.61389 4.39098 19.03685 4.61388 19.45982 4.83676 20.13814 5.21187 20.56111 5.45906 20.98407 5.70624 21.66241 6.12262 22.08539 6.3955 22.50835 6.66837 23.18668 7.12585 23.60963 7.4258 24.03261 7.72572 24.71094 8.22858 25.13391 8.55733 25.55687 8.88606 26.2352 9.4357 26.65817 9.79524 27.08113 10.15477 27.75946 10.75641 28.18242 11.14865 28.6054 11.5409 29.28374 12.1955 29.7067 12.6223 30.12965 13.04912 30.80798 13.76144 31.23096 14.22487 31.65392 14.68828 32.33226 15.46 32.75522 15.96237 33.17819 16.46474 33.85652 17.30193 34.27948 17.84564 34.70244 18.38936 35.38078 19.29375 35.80376 19.88115 36.22672 20.46857 36.90504 21.44557 37.328 22.07932 37.75098 22.71306 38.42932 23.76617 38.85228 24.44876 39.27525 25.13135 39.95357 26.26492 40.37654 26.99901 40.7995 27.7331 41.47784 28.9508 41.9008 29.73956 42.32378 30.52832 43.0021 31.83742 43.42506 32.68385 43.84804 33.53029 44.52637 34.93317 44.94934 35.84009 45.3723 36.74701 46.05063 38.24965 46.4736 39.22037 46.89656 40.19109 47.5749 41.7984 47.99786 42.83638 48.42084 43.87437 49.09917 45.59291 49.52213 46.70155 49.94508 47.81018 50.62341 49.6439 51.04639 50.82664 51.46935 52.0094 52.14769 53.96577 52.57065 55.226 52.99362 56.48622 53.67195 58.56816 54.09491 59.90953 54.51787 61.25089 55.19621 63.46643 55.61919 64.89366 56.04214 66.3209 56.72047 68.67978 57.14343 70.19615 57.5664 71.71251 58.24475 74.21315 58.66771 75.8226 59.09067 77.43204 59.769 80.08862 60.19197 81.79594 60.61493 83.50327 61.29327 86.31906 61.71623 88.12787 62.1392 89.93668 62.81754 92.91742 63.2405 94.83264 63.66347 96.74786 64.3418 99.90546 64.76477 101.93146 65.18773 103.95746 65.86606 107.2937 66.28903 109.4347 66.71199 111.57567 67.39034 115.10141 67.8133 117.36224 68.23627 119.62308 68.91458 123.34335 69.33755 125.72926 69.76051 128.11518 70.43886 132.0422 70.86183 134.55823 71.28479 137.07424 71.96312 141.21236 72.38608 143.86299 72.80905 146.51363 73.4874 150.87168 73.91035 153.66214 74.33331 156.45259 75.01164 161.03914 75.43462 163.9747 75.85757 166.91027 76.5359 171.73329 76.95886 174.81974 77.38184 177.90618 78.06018 182.97679 78.48314 186.2197 78.9061 189.4626 79.58443 194.78807 80.0074 198.19235 80.43036 201.59664 81.1087 207.184 81.53166 210.75542 81.95464 214.32683 82.63297 220.18796 83.05592 223.9327 83.4789 227.67743 84.15723 233.82099 84.5802 237.74492 85.00316 241.66886 85.68149 248.10456 86.10445 252.21375 86.52742 256.32295 87.20576 263.061 87.62872 267.36125 88.0517 271.66145 88.73001 278.70964 89.15298 283.20683 89.57594 287.704 90.67726 299.7739 90.67726 299.7739"/>
<path transform="matrix(1,0,0,-1,141.72209,132.83042)" stroke-width="1.19553" stroke-linecap="butt" stroke-dasharray="2.98883,2.98883" stroke-miterlimit="10" stroke-linejoin="miter" fill="none" stroke="#595959" d="M-90.71013 204.35213C-90.71013 204.35213-89.60883 194.58217-89.18587 190.95859-88.7629 187.33502-88.08456 181.67688-87.66159 178.23592-87.23863 174.79497-86.5603 169.42346-86.13733 166.15859-85.71437 162.89373-85.03603 157.79964-84.61307 154.70497-84.1901 151.6103-83.51176 146.78456-83.0888 143.85434-82.66585 140.92412-81.9875 136.35787-81.56453 133.58589-81.14157 130.81392-80.46324 126.49532-80.04028 123.87584-79.61731 121.25635-78.93896 117.17914-78.516 114.70647-78.09305 112.23378-77.41472 108.38593-76.99174 106.05441-76.56879 103.72289-75.89044 100.09813-75.46748 97.90236-75.04451 95.70659-74.36618 92.2942-73.94322 90.2287-73.52026 88.16321-72.84192 84.95589-72.41895 83.0157-71.99599 81.07552-71.31766 78.06557-70.8947 76.24518-70.47173 74.42479-69.7934 71.60124-69.37044 69.89552-68.94746 68.18982-68.26913 65.54718-67.84616 63.9516-67.4232 62.35602-66.74487 59.88608-66.3219 58.39565-65.89894 56.90521-65.2206 54.59967-64.79764 53.20952-64.37466 51.81935-63.69635 49.67078-63.27338 48.37634-62.85042 47.08191-62.17207 45.08311-61.7491 43.8801-61.32614 42.67706-60.64781 40.82175-60.22485 39.70567-59.80188 38.5896-59.12354 36.86987-58.70058 35.8362-58.27762 34.80252-57.59929 33.21088-57.17632 32.25565-56.75336 31.30042-56.07501 29.83223-55.65205 28.95148-55.22908 28.07072-54.55075 26.71819-54.12779 25.9077-53.70483 25.09723-53.02649 23.85403-52.60352 23.11006-52.18056 22.36607-51.50223 21.2267-51.07927 20.54555-50.6563 19.86438-49.97795 18.82278-49.555 18.20074-49.13202 17.5787-48.4537 16.62868-48.03073 16.06229-47.60777 15.49588-46.92943 14.63272-46.50647 14.11847-46.0835 13.60422-45.40517 12.82127-44.98221 12.35587-44.55923 11.89046-43.88092 11.18365-43.45795 10.76411-43.03499 10.34457-42.35664 9.70905-41.93367 9.33199-41.51071 8.95493-40.83238 8.38394-40.40942 8.0465-39.98645 7.70903-39.3081 7.2005-38.88515 6.89984-38.46219 6.59917-37.78386 6.14616-37.36089 5.87949-36.93793 5.6128-36.25958 5.21301-35.83662 4.97763-35.41365 4.74226-34.73532 4.38985-34.31236 4.18306-33.8894 3.97627-33.21106 3.66762-32.78809 3.4871-32.36513 3.30661-31.6868 3.03842-31.26384 2.88199-30.84087 2.72554-30.16252 2.49402-29.73956 2.35948-29.3166 2.22495-28.63828 2.0272-28.2153 1.91223-27.79234 1.79726-27.114 1.62814-26.69104 1.53075-26.26807 1.43333-25.58974 1.29195-25.16678 1.21022-24.7438 1.1285-24.06548 1.00937-23.6425 .94162-23.21954 .87386-22.54121 .77733-22.11824 .7219-21.69528 .66644-21.01695 .58684-20.594 .54196-20.17102 .49709-19.49269 .43398-19.06972 .39835-18.64676 .36272-17.96843 .31287-17.54546 .28503-17.1225 .2572-16.44415 .21889-16.0212 .19765-15.59822 .1764-14.91989 .14763-14.49693 .13191-14.07397 .1162-13.39563 .09555-12.97266 .08434-12.5497 .07312-11.87137 .05882-11.44841 .05103-11.02544 .04323-10.34709 .03325-9.92413 .0281-9.50117 .02295-8.82285 .01682-8.39987 .01382-7.97691 .01083-7.29857 .00815-6.87561 .00647-6.45264 .00479-5.7743 .00261-5.35135 .00171-4.92838 .00081-4.25005 .00021-3.82707 0-3.40411-.00021-2.72578 0-2.30283 0-1.87985 0-1.2015 0-.77855 0-.35558 0 .32271 0 .74568 0 1.16864 0 1.84697 0 2.26994 0 2.6929 0 3.37125-.00021 3.7942 0 4.21718 .00021 4.89551 .00093 5.31847 .00171 5.74142 .00249 6.41977 .00394 6.84274 .0056 7.2657 .00728 7.94403 .01071 8.36699 .01382 8.78996 .01694 9.4683 .02307 9.89127 .0281 10.31422 .03313 10.99255 .04248 11.41553 .05016 11.83849 .05783 12.51683 .07225 12.93979 .08347 13.36276 .09468 14.04109 .11545 14.46405 .13104 14.88701 .14665 15.56535 .17482 15.98833 .19594 16.41129 .21704 17.08961 .25558 17.51257 .2833 17.93555 .311 18.61389 .36035 19.03685 .39577 19.45982 .43117 20.13814 .49391 20.56111 .5385 20.98407 .58308 21.66241 .66187 22.08539 .71713 22.50835 .77238 23.18668 .86942 23.60963 .93686 24.03261 1.00432 24.71094 1.12193 25.13391 1.20331 25.55687 1.28468 26.2352 1.42635 26.65817 1.52338 27.08113 1.62042 27.75946 1.78816 28.18242 1.90273 28.6054 2.01727 29.28374 2.21478 29.7067 2.34909 30.12965 2.4834 30.80798 2.71483 31.23096 2.87073 31.65392 3.02664 32.33226 3.29305 32.75522 3.47284 33.17819 3.65263 33.85652 3.9605 34.27948 4.16663 34.70244 4.37277 35.38078 4.72385 35.80376 4.9586 36.22672 5.19337 36.90504 5.59256 37.328 5.85872 37.75098 6.12486 38.42932 6.57698 38.85228 6.8769 39.27525 7.17685 39.95357 7.68417 40.37654 8.02054 40.7995 8.35692 41.47784 8.92513 41.9008 9.30128 42.32378 9.67743 43.0021 10.31287 43.42506 10.73169 43.84804 11.15053 44.52637 11.85577 44.94934 12.31996 45.3723 12.78416 46.05063 13.5643 46.4736 14.07736 46.89656 14.59041 47.5749 15.45233 47.99786 16.01773 48.42084 16.58311 49.09917 17.53154 49.52213 18.15231 49.94508 18.77309 50.62341 19.81195 51.04639 20.49191 51.46935 21.17186 52.14769 22.31041 52.57065 23.05296 52.99362 23.7955 53.67195 25.03488 54.09491 25.84369 54.51787 26.6525 55.19621 28.00284 55.61919 28.88228 56.04214 29.76172 56.72047 31.2286 57.14343 32.18211 57.5664 33.1356 58.24475 34.72273 58.66771 35.75444 59.09067 36.78613 59.769 38.50342 60.19197 39.61787 60.61493 40.73233 61.29327 42.58557 61.71623 43.78668 62.1392 44.98778 62.81754 46.98235 63.2405 48.27467 63.66347 49.56702 64.3418 51.71283 64.76477 53.10094 65.18773 54.48904 65.86606 56.79108 66.28903 58.27928 66.71199 59.7675 67.39034 62.23396 67.8133 63.82703 68.23627 65.42007 68.91458 68.05782 69.33755 69.761 69.76051 71.46419 70.43886 74.2844 70.86183 76.10245 71.28479 77.9205 71.96312 80.92667 72.38608 82.86432 72.80905 84.80197 73.4874 88.0052 73.91035 90.06781 74.33331 92.13042 75.01164 95.53743 75.43462 97.73021 75.85757 99.92299 76.5359 103.54329 76.95886 105.87187 77.38184 108.20047 78.06018 112.04326 78.48314 114.51312 78.9061 116.98299 79.58443 121.05669 80.0074 123.67299 80.43036 126.28928 81.1087 130.60106 81.53166 133.36962 81.95464 136.13817 82.63297 140.69995 83.05592 143.62683 83.4789 146.5537 84.15723 151.37368 84.5802 154.4645 85.00316 157.55532 85.68149 162.64225 86.10445 165.9034 86.52742 169.16454 87.20576 174.53133 87.62872 177.96862 88.0517 181.4059 88.73001 187.05783 89.15298 190.677 89.57594 194.29619 90.67726 204.05324 90.67726 204.05324"/>
<path transform="matrix(1,0,0,-1,141.72209,132.83042)" stroke-width="1.19553" stroke-linecap="butt" stroke-miterlimit="10" stroke-linejoin="miter" fill="none" stroke="#cc0000" d="M-90.71013 76.63274C-90.71013 76.63274-89.88634 71.60583-89.56996 69.74025-89.25357 67.87466-88.74617 64.96002-88.42978 63.18686-88.11339 61.41371-87.606 58.64429-87.28961 56.96048-86.97324 55.27669-86.46582 52.64761-86.14943 51.05113-85.83305 49.45465-85.32565 46.96608-85.00928 45.4541-84.69289 43.94214-84.18547 41.58409-83.8691 40.15378-83.5527 38.72348-83.04532 36.4961-82.72893 35.14543-82.41255 33.79477-81.90515 31.69276-81.58876 30.4191-81.27238 29.14542-80.76497 27.16463-80.4486 25.96567-80.1322 24.76672-79.6248 22.90472-79.30843 21.77785-78.99203 20.65097-78.48463 18.9011-78.16824 17.8439-77.85187 16.78671-77.34447 15.14781-77.02808 14.15825-76.7117 13.16869-76.20428 11.63612-75.88791 10.71179-75.57152 9.78746-75.06412 8.35768-74.74774 7.4963-74.43135 6.63493-73.92397 5.30432-73.60757 4.50357-73.2912 3.7028-72.78378 2.46724-72.46739 1.72495-72.15102 .98265-71.64362-.16064-71.32724-.84647-71.01085-1.53229-70.50343-2.58643-70.18706-3.21806-69.87067-3.84972-69.36328-4.81932-69.04689-5.39893-68.73051-5.97853-68.2231-6.86609-67.90671-7.39552-67.59033-7.92497-67.08293-8.73343-66.76656-9.21478-66.45016-9.69614-65.94276-10.42946-65.62639-10.86491-65.31-11.30035-64.8026-11.96193-64.4862-12.35327-64.16983-12.74461-63.66243-13.33638-63.34604-13.68549-63.02966-14.03458-62.52225-14.5605-62.20587-14.86934-61.88948-15.17816-61.38208-15.64098-61.0657-15.91133-60.74931-16.18167-60.24191-16.58412-59.92552-16.81793-59.60915-17.05173-59.10175-17.39769-58.78535-17.5965-58.46898-17.7953-57.96158-18.08524-57.6452-18.25093-57.32881-18.41661-56.8214-18.65631-56.50502-18.79073-56.18863-18.92516-55.68124-19.11516-55.36485-19.2198-55.04846-19.32446-54.54106-19.4685-54.22467-19.54509-53.9083-19.62166-53.4009-19.72137-53.0845-19.77173-52.76813-19.82208-52.26071-19.88248-51.94434-19.90797-51.62794-19.93347-51.12054-19.95358-50.80417-19.95555-50.48778-19.95753-49.9804-19.9418-49.664-19.92224-49.34763-19.9027-48.84021-19.85434-48.52382-19.81456-48.20744-19.77477-47.70004-19.69434-47.38367-19.63548-47.06728-19.57661-46.55986-19.4665-46.24348-19.39024-45.9271-19.31396-45.41971-19.17802-45.10332-19.08572-44.78694-18.99344-44.27953-18.83203-43.96313-18.72499-43.64676-18.61794-43.13936-18.43446-42.82298-18.31407-42.50659-18.1937-41.99918-17.98988-41.6828-17.85732-41.36641-17.72475-40.85902-17.50215-40.54263-17.3586-40.22626-17.21504-39.71886-16.97571-39.40247-16.82268-39.08609-16.66966-38.57867-16.41725-38.2623-16.25563-37.9459-16.09402-37.4385-15.82697-37.12213-15.65787-36.80574-15.48875-36.29834-15.21204-35.98195-15.03674-35.66557-14.86145-35.15817-14.57492-34.84178-14.39441-34.5254-14.2139-34.01799-13.92026-33.70161-13.73566-33.38522-13.55107-32.87782-13.25165-32.56145-13.06393-32.24506-12.87622-31.73767-12.57268-31.42128-12.38269-31.1049-12.19269-30.59749-11.88583-30.2811-11.6945-29.96472-11.50319-29.45732-11.19531-29.14095-11.00375-28.82455-10.81218-28.31714-10.50475-28.00076-10.31386-27.68437-10.12296-27.17699-9.81754-26.8606-9.62785-26.54422-9.43816-26.0368-9.13406-25.72041-8.9466-25.40404-8.75912-24.89664-8.4612-24.58026-8.2766-24.26387-8.09201-23.75647-7.7971-23.4401-7.6161-23.1237-7.43512-22.61629-7.14844-22.29991-6.97206-21.98352-6.79568-21.47614-6.51653-21.15974-6.3449-20.84337-6.17326-20.33595-5.90092-20.01956-5.735-19.70319-5.56908-19.19579-5.30843-18.87941-5.14891-18.56302-4.98941-18.0556-4.73822-17.73923-4.58531-17.42284-4.43242-16.91545-4.1924-16.59906-4.0468-16.28268-3.90121-15.77528-3.67354-15.4589-3.53598-15.14252-3.39844-14.6351-3.18471-14.31873-3.05544-14.00233-2.92618-13.49493-2.72498-13.17856-2.6043-12.86217-2.4836-12.35477-2.29715-12.03838-2.1856-11.722-2.07405-11.2146-1.9023-10.89821-1.80022-10.58183-1.69814-10.07442-1.54202-9.75804-1.44984-9.44165-1.35768-8.93425-1.21779-8.61787-1.13582-8.30148-1.05385-7.7941-.93095-7.4777-.85901-7.16133-.78706-6.65392-.6786-6.33752-.61722-6.02115-.55583-5.51375-.4668-5.19737-.4165-4.88098-.36623-4.37357-.29434-4.05719-.25475-3.7408-.21515-3.23341-.15967-2.91702-.13104-2.60065-.10242-2.09323-.06581-1.77684-.04843-1.46046-.03104-.95306-.01184-.63669-.0056-.3203 .00061 .18707 .00151 .50345-.00345 .81984-.0084 1.32724-.02538 1.64363-.0415 1.96-.05763 2.4674-.09244 2.7838-.1198 3.10017-.14716 3.60759-.20045 3.92397-.23874 4.24036-.27702 4.74776-.34668 5.06413-.39577 5.38052-.44485 5.88792-.53268 6.20432-.59256 6.5207-.65245 7.02809-.7568 7.34448-.82744 7.66086-.89807 8.16827-1.02072 8.48466-1.10167 8.80104-1.18262 9.30844-1.31982 9.62482-1.41092 9.94121-1.50201 10.44861-1.65726 10.76498-1.75826 11.08138-1.85925 11.58878-2.02853 11.90517-2.13889 12.22154-2.24924 12.72894-2.43408 13.04533-2.55368 13.36171-2.67328 13.86913-2.87245 14.1855-3.00095 14.50189-3.12943 15.0093-3.343 15.32567-3.47975 15.64206-3.61652 16.14946-3.84212 16.46585-3.98668 16.78223-4.13126 17.28963-4.36972 17.60602-4.52173 17.9224-4.67374 18.4298-4.92352 18.74617-5.0823 19.06256-5.24109 19.56998-5.50107 19.88635-5.66623 20.20274-5.83138 20.71013-6.10179 21.02652-6.27264 21.3429-6.4435 21.85031-6.72171 22.1667-6.89766 22.48308-7.07361 22.99048-7.36035 23.30685-7.54086 23.62325-7.72136 24.13066-8.01457 24.44704-8.19875 24.76343-8.3829 25.27081-8.68102 25.5872-8.86832 25.90358-9.0556 26.41098-9.35922 26.72737-9.54869 27.04375-9.73816 27.55116-10.04305 27.86754-10.23383 28.18393-10.4246 28.69133-10.7323 29.0077-10.92374 29.3241-11.11517 29.8315-11.42232 30.14789-11.61363 30.46426-11.80495 30.97166-12.11237 31.28806-12.30266 31.60443-12.49297 32.11185-12.79706 32.42822-12.9852 32.74461-13.17334 33.25201-13.47359 33.56839-13.65866 33.88478-13.84375 34.39217-14.13829 34.70856-14.31917 35.02493-14.50003 35.53235-14.78651 35.84874-14.96234 36.16512-15.13817 36.67252-15.41672 36.98889-15.58649 37.30528-15.75627 37.8127-16.02342 38.12907-16.18599 38.44547-16.34857 38.95285-16.6039 39.26924-16.75824 39.58563-16.91258 40.09303-17.15367 40.40942-17.29848 40.7258-17.44327 41.2332-17.66806 41.54959-17.80196 41.86597-17.93584 42.37337-18.14159 42.68974-18.26347 43.00613-18.38535 43.51355-18.57176 43.82993-18.68044 44.14632-18.78912 44.6537-18.95282 44.9701-19.0468 45.28647-19.14078 45.79388-19.27966 46.11028-19.3578 46.42665-19.43593 46.93405-19.54901 47.25043-19.60997 47.56682-19.67093 48.07423-19.75525 48.39061-19.79726 48.707-19.83926 49.21439-19.89053 49.53078-19.91273 49.84715-19.93492 50.35455-19.95682 50.67094-19.95729 50.98732-19.95776 51.49474-19.93887 51.81111-19.9162 52.1275-19.89351 52.6349-19.84077 52.95128-19.7938 53.26767-19.7468 53.77507-19.65121 54.09146-19.57753 54.40784-19.50385 54.91524-19.36417 55.23163-19.26263 55.548-19.1611 56.05542-18.97638 56.3718-18.84567 56.68819-18.71497 57.19559-18.48254 57.51196-18.32057 57.82835-18.15858 58.33575-17.87311 58.65215-17.67825 58.96852-17.4834 59.47592-17.1456 59.79231-16.91612 60.10869-16.68663 60.61609-16.29013 60.93246-16.02422 61.24886-15.7583 61.75627-15.30386 62.07265-14.99954 62.38904-14.6952 62.89642-14.17517 63.21281-13.83081 63.52919-13.48647 64.0366-12.90381 64.353-12.51764 64.66937-12.13145 65.17677-11.47766 65.49315-11.04744 65.80954-10.6172 66.31696-9.89273 66.63333-9.41676 66.94972-8.94081 67.4571-8.14078 67.7735-7.61697 68.08987-7.09317 68.59727-6.21506 68.91367-5.64159 69.23004-5.0681 69.73746-4.10904 70.05383-3.48364 70.37022-2.85825 70.87762-1.81332 71.194-1.13411 71.51039-.45488 72.01779 .67633 72.33418 1.41179 72.65057 2.14725 73.15796 3.37248 73.47435 4.16663 73.79073 4.96078 74.29814 6.2812 74.61453 7.13556 74.93091 7.98991 75.43831 9.40741 75.75468 10.32423 76.07108 11.24106 76.57848 12.76163 76.89485 13.74345 77.21124 14.72527 77.71864 16.3516 78.03503 17.40056 78.35141 18.44952 78.85881 20.18512 79.1752 21.30377 79.49158 22.42242 79.999 24.27228 80.31537 25.46306 80.63176 26.65385 81.13916 28.6216 81.45554 29.8862 81.77193 31.1508 82.27933 33.2362 82.59572 34.5775 82.9121 35.91881 83.4195 38.13254 83.73589 39.55342 84.05226 40.9743 84.55966 43.31595 84.87604 44.81827 85.19243 46.32059 85.69984 48.7948 86.01622 50.38115 86.33261 51.96748 86.84 54.57808 87.15639 56.25156 87.47276 57.92503 87.98018 60.67963 88.29657 62.44247 88.61295 64.2053 89.12035 67.10245 89.43672 68.95692 89.75311 70.8114 90.5769 75.80832 90.5769 75.80832"/>
</g>
<path transform="matrix(1,0,0,-1,141.72209,132.83042)" stroke-width=".79701" stroke-linecap="butt" stroke-miterlimit="10" stroke-linejoin="miter" fill="none" stroke="#000000" d="M-94.96198 0H94.45474"/>
<path transform="matrix(1,0,0,-1,236.17684,132.83042)" d="M4.53381 0C3.97704 .13808 1.52963 .92049 0 1.77196V-1.77196C1.52963-.92049 3.97704-.13808 4.53381 0Z"/>
<path transform="matrix(1,0,0,-1,236.17684,132.83042)" stroke-width=".79701" stroke-linecap="butt" stroke-miterlimit="10" stroke-linejoin="miter" fill="none" stroke="#000000" d="M4.53381 0C3.97704 .13808 1.52963 .92049 0 1.77196V-1.77196C1.52963-.92049 3.97704-.13808 4.53381 0Z"/>
<use data-text="&#x03b7;" xlink:href="#font_2_2" transform="matrix(8.966376,0,0,-8.966376,246.07285,133.88893)"/>
<path transform="matrix(1,0,0,-1,141.72209,132.83042)" stroke-width=".79701" stroke-linecap="butt" stroke-miterlimit="10" stroke-linejoin="miter" fill="none" stroke="#000000" d="M0-40.25284V100.69064"/>
<path transform="matrix(0,-1,-1,-0,141.72209,32.13977)" d="M4.53381 0C3.97704 .13808 1.52963 .92049 0 1.77196V-1.77196C1.52963-.92049 3.97704-.13808 4.53381 0Z"/>
<path transform="matrix(0,-1,-1,-0,141.72209,32.13977)" stroke-width=".79701" stroke-linecap="butt" stroke-miterlimit="10" stroke-linejoin="miter" fill="none" stroke="#000000" d="M4.53381 0C3.97704 .13808 1.52963 .92049 0 1.77196V-1.77196C1.52963-.92049 3.97704-.13808 4.53381 0Z"/>
<use data-text="F" xlink:href="#font_2_4" transform="matrix(8.966376,0,0,-8.966376,132.0946,20.002137)"/>
<use data-text="(" xlink:href="#font_3_1" transform="matrix(8.966376,0,0,-8.966376,139.25867,20.002137)"/>
<use data-text="&#x03b7;" xlink:href="#font_2_2" transform="matrix(8.966376,0,0,-8.966376,142.84244,20.002137)"/>
<use data-text=")" xlink:href="#font_3_2" transform="matrix(8.966376,0,0,-8.966376,147.76561,20.002137)"/>
<use data-text="0" xlink:href="#font_4_4" transform="matrix(6.973848,0,0,-6.973848,134.13138,140.94416)"/>
<path transform="matrix(1,0,0,-1,141.72209,132.83042)" d="M52.30046-19.95642C52.30046-19.07605 51.58679-18.36237 50.70642-18.36237 49.82605-18.36237 49.11237-19.07605 49.11237-19.95642 49.11237-20.83679 49.82605-21.55048 50.70642-21.55048 51.58679-21.55048 52.30046-20.83679 52.30046-19.95642ZM50.70642-19.95642" fill="#cc0000"/>
<path transform="matrix(1,0,0,-1,141.72209,132.83042)" stroke-width=".59776" stroke-linecap="butt" stroke-miterlimit="10" stroke-linejoin="miter" fill="none" stroke="#cc0000" d="M52.30046-19.95642C52.30046-19.07605 51.58679-18.36237 50.70642-18.36237 49.82605-18.36237 49.11237-19.07605 49.11237-19.95642 49.11237-20.83679 49.82605-21.55048 50.70642-21.55048 51.58679-21.55048 52.30046-20.83679 52.30046-19.95642ZM50.70642-19.95642"/>
<path transform="matrix(1,0,0,-1,141.72209,132.83042)" d="M-49.11237-19.95642C-49.11237-19.07605-49.82605-18.36237-50.70642-18.36237-51.58679-18.36237-52.30046-19.07605-52.30046-19.95642-52.30046-20.83679-51.58679-21.55048-50.70642-21.55048-49.82605-21.55048-49.11237-20.83679-49.11237-19.95642ZM-50.70642-19.95642" fill="#cc0000"/>
<path transform="matrix(1,0,0,-1,141.72209,132.83042)" stroke-width=".59776" stroke-linecap="butt" stroke-miterlimit="10" stroke-linejoin="miter" fill="none" stroke="#cc0000" d="M-49.11237-19.95642C-49.11237-19.07605-49.82605-18.36237-50.70642-18.36237-51.58679-18.36237-52.30046-19.07605-52.30046-19.95642-52.30046-20.83679-51.58679-21.55048-50.70642-21.55048-49.82605-21.55048-49.11237-20.83679-49.11237-19.95642ZM-50.70642-19.95642"/>
<path transform="matrix(1,0,0,-1,141.72209,132.83042)" d="M1.59404 0C1.59404 .88037 .88037 1.59404 0 1.59404-.88037 1.59404-1.59404 .88037-1.59404 0-1.59404-.88037-.88037-1.59404 0-1.59404 .88037-1.59404 1.59404-.88037 1.59404 0ZM0 0" fill="#ffffff"/>
<path transform="matrix(1,0,0,-1,141.72209,132.83042)" stroke-width=".59776" stroke-linecap="butt" stroke-miterlimit="10" stroke-linejoin="miter" fill="none" stroke="#cc0000" d="M1.59404 0C1.59404 .88037 .88037 1.59404 0 1.59404-.88037 1.59404-1.59404 .88037-1.59404 0-1.59404-.88037-.88037-1.59404 0-1.59404 .88037-1.59404 1.59404-.88037 1.59404 0ZM0 0"/>
<path transform="matrix(1,0,0,-1,141.72209,132.83042)" stroke-width=".3985" stroke-linecap="butt" stroke-dasharray="2.98883,2.98883" stroke-miterlimit="10" stroke-linejoin="miter" fill="none" stroke="#b2b3b2" d="M50.70642-19.95642V0"/>
<path transform="matrix(1,0,0,-1,141.72209,132.83042)" stroke-width=".3985" stroke-linecap="butt" stroke-dasharray="2.98883,2.98883" stroke-miterlimit="10" stroke-linejoin="miter" fill="none" stroke="#b2b3b2" d="M-50.70642-19.95642V0"/>
<use data-text="+" xlink:href="#font_5_1" transform="matrix(7.970112,0,0,-7.970112,184.93494,127.09416)"/>
<use data-text="&#x03b7;" xlink:href="#font_6_1" transform="matrix(7.970112,0,0,-7.970112,191.52146,127.09416)"/>
<use data-text="0" xlink:href="#font_7_1" transform="matrix(5.977584,0,0,-5.977584,195.77085,128.20111)"/>
<use data-text="&#x2212;" xlink:href="#font_8_1" transform="matrix(7.970112,0,0,-7.970112,83.522098,127.09416)"/>
<use data-text="&#x03b7;" xlink:href="#font_6_1" transform="matrix(7.970112,0,0,-7.970112,90.1086,127.09416)"/>
<use data-text="0" xlink:href="#font_7_1" transform="matrix(5.977584,0,0,-5.977584,94.358,128.20111)"/>
<path transform="matrix(1,0,0,-1,141.72209,132.83042)" stroke-width=".3985" stroke-linecap="butt" stroke-miterlimit="10" stroke-linejoin="miter" fill="none" stroke="#595959" d="M63.46239-4.58284V-15.37357"/>
<path transform="matrix(0,-1,-1,-0,205.18448,137.41326)" d="M3.7613 0C3.2994 .1127 1.26901 .75136 0 1.44638V-1.44638C1.26901-.75136 3.2994-.1127 3.7613 0Z" fill="#595959"/>
<path transform="matrix(0,-1,-1,-0,205.18448,137.41326)" stroke-width=".3985" stroke-linecap="butt" stroke-miterlimit="10" stroke-linejoin="miter" fill="none" stroke="#595959" d="M3.7613 0C3.2994 .1127 1.26901 .75136 0 1.44638V-1.44638C1.26901-.75136 3.2994-.1127 3.7613 0Z"/>
<path transform="matrix(0,1,1,0,205.18448,148.20398)" d="M3.7613 0C3.2994 .1127 1.26901 .75136 0 1.44638V-1.44638C1.26901-.75136 3.2994-.1127 3.7613 0Z" fill="#595959"/>
<path transform="matrix(0,1,1,0,205.18448,148.20398)" stroke-width=".3985" stroke-linecap="butt" stroke-miterlimit="10" stroke-linejoin="miter" fill="none" stroke="#595959" d="M3.7613 0C3.2994 .1127 1.26901 .75136 0 1.44638V-1.44638C1.26901-.75136 3.2994-.1127 3.7613 0Z"/>
<use data-text="&#x2206;" xlink:href="#font_4_1" transform="matrix(6.973848,0,0,-6.973848,210.22136,141.86786)"/>
<use data-text="F" xlink:href="#font_9_1" transform="matrix(6.973848,0,0,-6.973848,216.7663,141.86786)"/>
<use data-text="=" xlink:href="#font_4_6" transform="matrix(6.973848,0,0,-6.973848,225.159,141.86786)"/>
<use data-text="a" xlink:href="#font_9_3" transform="matrix(6.973848,0,0,-6.973848,234.73822,136.76082)"/>
<use data-text="2" xlink:href="#font_10_1" transform="matrix(4.98132,0,0,-4.98132,239.05966,133.7543)"/>
<path transform="matrix(1,0,0,-1,140.49927,92.495159)" stroke-width=".338711" stroke-linecap="butt" stroke-miterlimit="10" stroke-linejoin="miter" fill="none" stroke="#000000" d="M94.23895-47.62924H102.44864"/>
<use data-text="4" xlink:href="#font_4_5" transform="matrix(6.973848,0,0,-6.973848,235.10569,147.11322)"/>
<use data-text="b" xlink:href="#font_9_4" transform="matrix(6.973848,0,0,-6.973848,239.07694,147.11322)"/>
<use data-text="&#x221d;" xlink:href="#font_11_2" transform="matrix(6.973848,0,0,-6.973848,210.22136,153.32993)"/>
<use data-text="(" xlink:href="#font_4_2" transform="matrix(6.973848,0,0,-6.973848,218.71576,153.32993)"/>
<use data-text="T" xlink:href="#font_9_2" transform="matrix(6.973848,0,0,-6.973848,221.8291,153.32993)"/>
<use data-text="c" xlink:href="#font_12_1" transform="matrix(4.98132,0,0,-4.98132,226.53476,154.32619)"/>
<use data-text="&#x2212;" xlink:href="#font_11_1" transform="matrix(6.973848,0,0,-6.973848,232.08206,153.32993)"/>
<use data-text="T" xlink:href="#font_9_2" transform="matrix(6.973848,0,0,-6.973848,240.12293,153.32993)"/>
<use data-text=")" xlink:href="#font_4_3" transform="matrix(6.973848,0,0,-6.973848,245.90093,153.32993)"/>
<use data-text="2" xlink:href="#font_10_1" transform="matrix(4.98132,0,0,-4.98132,249.01427,150.32341)"/>
<use data-text="T" xlink:href="#font_6_4" transform="matrix(7.970112,0,0,-7.970112,210.53884,22.780106)" fill="#0000bf"/>
<use data-text="&#x003e;" xlink:href="#font_6_3" transform="matrix(7.970112,0,0,-7.970112,218.98715,22.780106)" fill="#0000bf"/>
<use data-text="T" xlink:href="#font_6_4" transform="matrix(7.970112,0,0,-7.970112,227.92165,22.780106)" fill="#0000bf"/>
<use data-text="c" xlink:href="#font_13_1" transform="matrix(5.977584,0,0,-5.977584,232.86655,23.776368)" fill="#0000bf"/>
<use data-text="T" xlink:href="#font_6_4" transform="matrix(7.970112,0,0,-7.970112,219.04341,40.576448)" fill="#404040"/>
<use data-text="=" xlink:href="#font_5_2" transform="matrix(7.970112,0,0,-7.970112,227.50209,40.576448)" fill="#404040"/>
<use data-text="T" xlink:href="#font_6_4" transform="matrix(7.970112,0,0,-7.970112,236.44092,40.576448)" fill="#404040"/>
<use data-text="c" xlink:href="#font_13_1" transform="matrix(5.977584,0,0,-5.977584,241.37113,41.57271)" fill="#404040"/>
<use data-text="T" xlink:href="#font_6_4" transform="matrix(7.970112,0,0,-7.970112,54.935976,127.479099)" fill="#cc0000"/>
<use data-text="&#x003c;" xlink:href="#font_6_2" transform="matrix(7.970112,0,0,-7.970112,63.384294,127.479099)" fill="#cc0000"/>
<use data-text="T" xlink:href="#font_6_4" transform="matrix(7.970112,0,0,-7.970112,72.31879,127.479099)" fill="#cc0000"/>
<use data-text="c" xlink:href="#font_13_1" transform="matrix(5.977584,0,0,-5.977584,77.26369,128.47536)" fill="#cc0000"/>
<use data-text="F" xlink:href="#font_2_4" transform="matrix(8.966376,0,0,-8.966376,13.281509,198.57975)"/>
<use data-text="(" xlink:href="#font_3_1" transform="matrix(8.966376,0,0,-8.966376,20.44558,198.57975)"/>
<use data-text="&#x03b7;" xlink:href="#font_2_2" transform="matrix(8.966376,0,0,-8.966376,24.029343,198.57975)"/>
<use data-text=")" xlink:href="#font_3_2" transform="matrix(8.966376,0,0,-8.966376,28.952515,198.57975)"/>
<use data-text="=" xlink:href="#font_3_5" transform="matrix(8.966376,0,0,-8.966376,35.085519,198.57975)"/>
<use data-text="a" xlink:href="#font_2_6" transform="matrix(8.966376,0,0,-8.966376,44.82344,198.57975)"/>
<use data-text="0" xlink:href="#font_7_1" transform="matrix(5.977584,0,0,-5.977584,49.705453,199.57599)"/>
<use data-text="(" xlink:href="#font_3_1" transform="matrix(8.966376,0,0,-8.966376,55.392396,198.57975)"/>
<use data-text="T" xlink:href="#font_2_5" transform="matrix(8.966376,0,0,-8.966376,58.97616,198.57975)"/>
<use data-text="&#x2212;" xlink:href="#font_14_1" transform="matrix(8.966376,0,0,-8.966376,67.67993,198.57975)"/>
<use data-text="T" xlink:href="#font_2_5" transform="matrix(8.966376,0,0,-8.966376,76.89531,198.57975)"/>
<use data-text="c" xlink:href="#font_13_1" transform="matrix(5.977584,0,0,-5.977584,82.2713,199.57599)"/>
<use data-text=")" xlink:href="#font_3_2" transform="matrix(8.966376,0,0,-8.966376,86.111759,198.57975)"/>
<use data-text="&#x03b7;" xlink:href="#font_2_2" transform="matrix(8.966376,0,0,-8.966376,91.231418,198.57975)"/>
<use data-text="2" xlink:href="#font_7_3" transform="matrix(5.977584,0,0,-5.977584,96.15459,194.77074)"/>
<use data-text="+" xlink:href="#font_3_3" transform="matrix(8.966376,0,0,-8.966376,102.3535,198.57975)"/>
<use data-text="b" xlink:href="#font_2_7" transform="matrix(8.966376,0,0,-8.966376,111.56888,198.57975)"/>
<use data-text="&#x03b7;" xlink:href="#font_2_2" transform="matrix(8.966376,0,0,-8.966376,117.04733,198.57975)"/>
<use data-text="4" xlink:href="#font_7_4" transform="matrix(5.977584,0,0,-5.977584,121.977008,194.77074)"/>
<use data-text="," xlink:href="#font_2_3" transform="matrix(8.966376,0,0,-8.966376,126.12805,198.57975)"/>
<use data-text="&#x03b7;" xlink:href="#font_2_2" transform="matrix(8.966376,0,0,-8.966376,148.14948,198.57975)"/>
<use data-text="0" xlink:href="#font_7_1" transform="matrix(5.977584,0,0,-5.977584,152.758,199.57599)"/>
<use data-text="=" xlink:href="#font_3_5" transform="matrix(8.966376,0,0,-8.966376,159.46887,198.57975)"/>
<use data-text="&#x221a;" xlink:href="#font_15_1" transform="matrix(8.966376,0,0,-8.966376,169.19623,184.54676)"/>
<path transform="matrix(1,0,0,-1,-56.440584,137.74497)" stroke-width=".378585" stroke-linecap="butt" stroke-miterlimit="10" stroke-linejoin="miter" fill="none" stroke="#000000" d="M234.85218-46.61248H280.57936"/>
<use data-text="a" xlink:href="#font_2_6" transform="matrix(8.966376,0,0,-8.966376,179.6071,192.7715)"/>
<use data-text="0" xlink:href="#font_7_1" transform="matrix(5.977584,0,0,-5.977584,184.4891,193.76775)"/>
<use data-text="(" xlink:href="#font_3_1" transform="matrix(8.966376,0,0,-8.966376,188.64015,192.7715)"/>
<use data-text="T" xlink:href="#font_2_5" transform="matrix(8.966376,0,0,-8.966376,192.2239,192.7715)"/>
<use data-text="c" xlink:href="#font_13_1" transform="matrix(5.977584,0,0,-5.977584,197.5999,193.76775)"/>
<use data-text="&#x2212;" xlink:href="#font_14_1" transform="matrix(8.966376,0,0,-8.966376,203.48822,192.7715)"/>
<use data-text="T" xlink:href="#font_2_5" transform="matrix(8.966376,0,0,-8.966376,212.70362,192.7715)"/>
<use data-text=")" xlink:href="#font_3_2" transform="matrix(8.966376,0,0,-8.966376,219.35953,192.7715)"/>
<path transform="matrix(1,0,0,-1,-56.440584,137.74497)" stroke-width=".378585" stroke-linecap="butt" stroke-miterlimit="10" stroke-linejoin="miter" fill="none" stroke="#000000" d="M236.04769-58.59317H279.38386"/>
<use data-text="2" xlink:href="#font_3_4" transform="matrix(8.966376,0,0,-8.966376,196.99681,204.66094)"/>
<use data-text="b" xlink:href="#font_2_7" transform="matrix(8.966376,0,0,-8.966376,201.60449,204.66094)"/>
<use data-text="," xlink:href="#font_2_3" transform="matrix(8.966376,0,0,-8.966376,224.13877,198.57975)"/>
<use data-text="&#x03b2;" xlink:href="#font_2_1" transform="matrix(8.966376,0,0,-8.966376,246.16019,198.57975)"/>
<use data-text="=" xlink:href="#font_3_5" transform="matrix(8.966376,0,0,-8.966376,254.38809,198.57975)"/>
<use data-text="1" xlink:href="#font_7_2" transform="matrix(5.977584,0,0,-5.977584,265.31095,194.90619)"/>
<path transform="matrix(1,0,0,-1,-56.440584,137.74497)" stroke-width=".378585" stroke-linecap="butt" stroke-miterlimit="10" stroke-linejoin="miter" fill="none" stroke="#000000" d="M321.75157-58.59317H325.40446"/>
<use data-text="2" xlink:href="#font_7_3" transform="matrix(5.977584,0,0,-5.977584,265.31098,201.62233)"/>
<path transform="matrix(1,0,0,-1,141.72209,132.83042)" stroke-width=".59776" stroke-linecap="butt" stroke-miterlimit="10" stroke-linejoin="miter" fill="none" stroke="#0000bf" d="M62.46797 76.19527H56.58894C55.48848 76.19527 54.59639 75.30319 54.59639 74.20271V69.2303C54.59639 68.12984 55.48848 67.23775 56.58894 67.23775H62.46797C63.56845 67.23775 64.46053 68.12984 64.46053 69.2303V74.20271C64.46053 75.30319 63.56845 76.19527 62.46797 76.19527ZM54.59639 67.23775"/>
<use data-text="A" xlink:href="#font_16_27" transform="matrix(6.973848,0,0,-6.973848,198.31104,63.600114)"/>
<path transform="matrix(1,0,0,-1,141.72209,132.83042)" stroke-width=".59776" stroke-linecap="butt" stroke-miterlimit="10" stroke-linejoin="miter" fill="none" stroke="#595959" d="M82.15721 76.09067H76.58505C75.48457 76.09067 74.5925 75.19858 74.5925 74.09811V69.33492C74.5925 68.23444 75.48457 67.34236 76.58505 67.34236H82.15721C83.25769 67.34236 84.14977 68.23444 84.14977 69.33492V74.09811C84.14977 75.19858 83.25769 76.09067 82.15721 76.09067ZM74.5925 67.34236"/>
<use data-text="B" xlink:href="#font_16_34" transform="matrix(6.973848,0,0,-6.973848,218.30715,63.49549)"/>
<path transform="matrix(1,0,0,-1,141.72209,132.83042)" stroke-width=".59776" stroke-linecap="butt" stroke-miterlimit="10" stroke-linejoin="miter" fill="none" stroke="#cc0000" d="M102.05919 76.23013H96.36845C95.26797 76.23013 94.3759 75.33804 94.3759 74.23758V69.19545C94.3759 68.09497 95.26797 67.2029 96.36845 67.2029H102.05919C103.15965 67.2029 104.05174 68.09497 104.05174 69.19545V74.23758C104.05174 75.33804 103.15965 76.23013 102.05919 76.23013ZM94.3759 67.2029"/>
<use data-text="C" xlink:href="#font_16_42" transform="matrix(6.973848,0,0,-6.973848,238.09053,63.49549)"/>
<path transform="matrix(1,0,0,-1,141.72209,132.83042)" stroke-width=".59776" stroke-linecap="butt" stroke-miterlimit="10" stroke-linejoin="miter" fill="none" stroke="#000000" d="M64.75941 71.7165H68.9137"/>
<path transform="matrix(1,0,0,-1,210.63579,61.113916)" d="M4.1476 0C3.63824 .12538 1.39934 .83594 0 1.60916V-1.60916C1.39934-.83594 3.63824-.12538 4.1476 0Z"/>
<path transform="matrix(1,0,0,-1,210.63579,61.113916)" stroke-width=".59776" stroke-linecap="butt" stroke-miterlimit="10" stroke-linejoin="miter" fill="none" stroke="#000000" d="M4.1476 0C3.63824 .12538 1.39934 .83594 0 1.60916V-1.60916C1.39934-.83594 3.63824-.12538 4.1476 0Z"/>
<path transform="matrix(1,0,0,-1,141.72209,132.83042)" stroke-width=".59776" stroke-linecap="butt" stroke-miterlimit="10" stroke-linejoin="miter" fill="none" stroke="#000000" d="M84.44865 71.7165H88.6971"/>
<path transform="matrix(1,0,0,-1,230.41919,61.113916)" d="M4.1476 0C3.63824 .12538 1.39934 .83594 0 1.60916V-1.60916C1.39934-.83594 3.63824-.12538 4.1476 0Z"/>
<path transform="matrix(1,0,0,-1,230.41919,61.113916)" stroke-width=".59776" stroke-linecap="butt" stroke-miterlimit="10" stroke-linejoin="miter" fill="none" stroke="#000000" d="M4.1476 0C3.63824 .12538 1.39934 .83594 0 1.60916V-1.60916C1.39934-.83594 3.63824-.12538 4.1476 0Z"/>
<use data-text="c" xlink:href="#font_16_43" transform="matrix(6.973848,0,0,-6.973848,208.80864,48.978136)"/>
<use data-text="o" xlink:href="#font_16_81" transform="matrix(6.973848,0,0,-6.973848,212.35135,48.978136)"/>
<use data-text="o" xlink:href="#font_16_81" transform="matrix(6.973848,0,0,-6.973848,216.53566,48.978136)"/>
<use data-text="l" xlink:href="#font_16_72" transform="matrix(6.973848,0,0,-6.973848,220.50379,48.978136)"/>
<use data-text="i" xlink:href="#font_16_66" transform="matrix(6.973848,0,0,-6.973848,222.75634,48.978136)"/>
<use data-text="n" xlink:href="#font_16_77" transform="matrix(6.973848,0,0,-6.973848,225.00888,48.978136)"/>
<use data-text="g" xlink:href="#font_16_59" transform="matrix(6.973848,0,0,-6.973848,229.4094,48.978136)"/>
</svg>
