<svg xmlns="http://www.w3.org/2000/svg" xmlns:xlink="http://www.w3.org/1999/xlink" xmlns:inkscape="http://www.inkscape.org/namespaces/inkscape" version="1.1" width="338.68" height="187.53" viewBox="0 0 338.68 187.53">
<defs>
<path id="font_1_4" d="M.7919922 .23097229C.7979889 .24395752 .7979889 .24797058 .7979889 .2489624 .7979889 .2549591 .7939911 .26296998 .7809906 .26296998 .7789917 .26296998 .7739868 .26296998 .769989 .2589569 .7679901 .256958 .7669983 .2559662 .7549896 .22996521 .6899872 .08598328 .6389923 .035995485 .47599793 .035995485H.30599977C.2749939 .035995485 .27398683 .036987306 .27398683 .04598999 .27398683 .04699707 .27398683 .051986696 .27799989 .066986087L.34498597 .33496095H.45700074C.5359955 .33496095 .5479889 .32196046 .5479889 .2889557 .5479889 .2779541 .54499819 .2609558 .54100039 .24395752 .5379944 .2349701 .5379944 .23396302 .5379944 .23196411 .5379944 .22996521 .5389862 .2179718 .5549927 .2179718 .56900027 .2179718 .56999209 .22296143 .57398989 .23995972L.6289978 .45884706C.6319885 .4708252 .6319885 .4728241 .6319885 .47381593 .6319885 .48381043 .6239929 .48780824 .61499026 .48780824 .60198977 .48780824 .6009979 .4828186 .59498599 .46183778 .57398989 .38394166 .5439911 .37095643 .45899964 .37095643H.35398866L.4139862 .60865786C.42199708 .6396179 .4229889 .64260867 .46499635 .64260867H.6279907C.7589874 .64260867 .7919922 .61564639 .7919922 .52674868 .7919922 .50079348 .7879944 .4708252 .7879944 .46583558 .7879944 .45783998 .79100039 .44885255 .8049927 .44885255 .81999209 .44885255 .82099917 .45783998 .82299807 .474823L.84098818 .64860537C.84399417 .6786041 .83699038 .6786041 .81199648 .6786041H.2619934C.24198914 .6786041 .22999573 .6786041 .22999573 .6566162 .22999573 .64260867 .24099732 .64260867 .2630005 .64260867 .2789917 .64260867 .2829895 .64260867 .30099488 .64060977 .32099916 .63861086 .32299806 .63661196 .32299806 .6266327 .32299806 .61964419 .31999208 .60964968 .31900025 .60466006L.18798828 .08198547C.17799378 .04298401 .1769867 .035995485 .09899902 .035995485 .08099365 .035995485 .068984989 .035995485 .068984989 .01399231 .068984989 0 .08099365 0 .09899902 0H.6639862C.68899539 0 .6899872 0 .69799807 .017990113L.7919922 .23097229Z"/>
<path id="font_2_6" d="M.7679901 .3359375C.7829895 .3359375 .80599978 .3359375 .80599978 .3609314 .80599978 .38493348 .7819977 .38493348 .7689972 .38493348H.10699463C.09399414 .38493348 .069992069 .38493348 .069992069 .3609314 .069992069 .3359375 .09298706 .3359375 .10798645 .3359375H.7679901M.7689972 .11602783C.7819977 .11602783 .80599978 .11602783 .80599978 .1400299 .80599978 .16503906 .7829895 .16503906 .7679901 .16503906H.10798645C.09298706 .16503906 .069992069 .16503906 .069992069 .1400299 .069992069 .11602783 .09399414 .11602783 .10699463 .11602783H.7689972Z"/>
<path id="font_1_1" d="M.053985597-.16085816C.049987794-.1758728 .049987794-.18086243 .049987794-.1818695 .049987794-.20387268 .067993167-.21386719 .083999637-.21386719 .11999512-.21386719 .12799073-.18086243 .13198853-.16386414 .13398743-.15885926 .1539917-.078811649 .17799378 .019226075 .20899964-.0017700195 .24899292-.009765625 .2849884-.009765625 .37098695-.009765625 .4269867 .0602417 .42900086 .0622406 .44799806-.0067749025 .5169983-.009765625 .5319977-.009765625 .56799319-.009765625 .59298709 .01222229 .61099246 .04324341 .6329956 .08226013 .6459961 .13928223 .6459961 .14328003 .6459961 .15628052 .6329956 .15628052 .6299896 .15628052 .6159973 .15628052 .61499026 .15228272 .60798647 .12527466 .59599307 .07725525 .57699587 .018234253 .5349884 .018234253 .5089874 .018234253 .5019989 .040237428 .5019989 .06724548 .5019989 .08425903 .5099945 .120269779 .5169983 .14628601 .5239868 .17329407 .5339966 .21430969 .5389862 .23631287L.56199648 .3253479C.56799319 .3503723 .57899478 .39437867 .57899478 .39938355 .57899478 .41938783 .5629883 .43139649 .54599 .43139649 .5349884 .43139649 .5159912 .4263916 .5049896 .4073944 .5019989 .40138246 .49398805 .3693695 .4889984 .34936524L.46798707 .2663269 .43699647 .14128113C.42999269 .11627197 .42999269 .11427307 .42099 .101257327 .3899994 .057235719 .34599305 .018234253 .2889862 .018234253 .20698548 .018234253 .20698548 .089263919 .20698548 .10726929 .20698548 .13327027 .20999146 .14628601 .22399903 .20030213 .23399353 .24432373 .23599243 .2513275 .24598694 .29034425L.2599945 .34635926C.2649994 .3673706 .2749939 .4053955 .2749939 .4093933 .2749939 .42739869 .26098634 .44140626 .24099732 .44140626 .20498657 .44140626 .19599915 .40638734 .19299317 .39437867L.053985597-.16085816Z"/>
<path id="font_3_8" d="M.49198915 .40434266C.45498658 .39733888 .44400025 .3653412 .44400025 .3503418 .44400025 .33132936 .45799256 .31433106 .48298646 .31433106 .5109863 .31433106 .5379944 .33833314 .5379944 .3733368 .5379944 .41937257 .48799134 .4423828 .44099427 .4423828 .3809967 .4423828 .34599305 .38934327 .33399964 .3683319 .31498719 .41737367 .2709961 .4423828 .22299195 .4423828 .115997318 .4423828 .057998659 .31433106 .057998659 .28833009 .057998659 .2793274 .06498718 .2763214 .07199097 .2763214 .08099365 .2763214 .083999637 .2813263 .085998538 .287323 .116989139 .38633729 .18299866 .41737367 .22099304 .41737367 .25 .41737367 .27598573 .3983307 .27598573 .35133363 .27598573 .31533814 .23298645 .15530396 .21998596 .107284549 .21199036 .076293949 .18199158 .014251709 .1269989 .014251709 .10699463 .014251709 .085998538 .021270752 .07598877 .027282715 .102996829 .032287599 .12298584 .055282594 .12298584 .08128357 .12298584 .106292728 .10398865 .11729431 .084991458 .11729431 .055999757 .11729431 .02999878 .092285159 .02999878 .058288576 .02999878 .009246826 .083999637-.0107421879 .12599182-.0107421879 .18399048-.0107421879 .21798706 .03729248 .23298645 .06428528 .2579956-.0017547608 .31698609-.0107421879 .34399415-.0107421879 .45199586-.0107421879 .5089874 .11929321 .5089874 .14329529 .5089874 .14830017 .5059967 .15530396 .49598695 .15530396 .4850006 .15530396 .48399354 .1512909 .47898866 .1362915 .45700074 .06428528 .39898683 .014251709 .34700013 .014251709 .31799317 .014251709 .29100038 .032287599 .29100038 .08029175 .29100038 .10229492 .30499269 .15730286 .31399537 .1953125 .31799317 .21331787 .34498597 .32133485 .34700013 .32833863 .35899354 .3643341 .3889923 .41737367 .43998719 .41737367 .45799256 .41737367 .47698976 .41436769 .49198915 .40434266Z"/>
<path id="font_4_5" d="M.70799258 .3310089C.7220001 .3310089 .7409973 .3310089 .7409973 .35202027 .7409973 .37402345 .71899417 .37402345 .70399478 .37402345H.09399414C.07899475 .37402345 .056991579 .37402345 .056991579 .35202027 .056991579 .3310089 .07699585 .3310089 .08999634 .3310089H.70799258M.70399478 .12695313C.71899417 .12695313 .7409973 .12695313 .7409973 .14894104 .7409973 .1699524 .7220001 .1699524 .70799258 .1699524H.08999634C.07699585 .1699524 .056991579 .1699524 .056991579 .14894104 .056991579 .12695313 .07899475 .12695313 .09399414 .12695313H.70399478Z"/>
<path id="font_4_1" d="M.34098817-.23803711C.34098817-.23303223 .33799745-.23002625 .33198548-.22303772 .20298767-.105026248 .1639862 .07498169 .1639862 .24996948 .1639862 .40498353 .19400025 .59298709 .33499146 .72698977 .33898927 .73098757 .34098817 .73399356 .34098817 .7389984 .34098817 .74598696 .33599855 .75 .32899476 .75 .31698609 .75 .22698975 .6779785 .17298889 .568985 .125 .47297669 .100997928 .36997987 .100997928 .25097657 .100997928 .17897034 .10998535 .064971927 .16499329-.053024293 .22399903-.17602539 .31698609-.24902344 .32899476-.24902344 .33599855-.24902344 .34098817-.24502564 .34098817-.23803711Z"/>
<path id="font_3_3" d="M.31399537 .33789063H.41600038C.4869995 .33789063 .5019989 .32588197 .5019989 .29289247 .5019989 .28489686 .49899293 .26391603 .49499513 .24790955 .49299623 .24191284 .49198915 .23692322 .49198915 .23391724 .49198915 .23292542 .49198915 .220932 .5049896 .220932 .5169983 .220932 .5179901 .22792053 .5219879 .24291992L.57499697 .45280458C.57899478 .46678163 .57899478 .46878053 .57899478 .47277833 .57899478 .48077394 .57299807 .48576356 .5649872 .48576356 .55400088 .48576356 .5529938 .47976686 .5479889 .46080018 .5279999 .38186646 .49699403 .36888124 .4169922 .36888124H.32199098C.33699037 .43081666 .38398744 .620636 .3889923 .6326294 .394989 .64660647 .4019928 .64860537 .43499757 .64860537H.58200076C.70700076 .64860537 .7350006 .6186371 .7350006 .5377197 .7350006 .5067444 .7299957 .47677613 .7299957 .4697876 .7299957 .461792 .7350006 .45480348 .74398806 .45480348 .7559967 .45480348 .7569885 .461792 .7589874 .47976686L.7799988 .66560366C.7799988 .6796112 .769989 .6796112 .7509918 .6796112H.23599243C.21699524 .6796112 .20599365 .6796112 .20599365 .66160586 .20599365 .64860537 .21598816 .64860537 .23699951 .64860537 .24099732 .64860537 .25898744 .64860537 .2749939 .64660647 .29699708 .6436157 .2979889 .6396179 .2979889 .6306305 .2979889 .6276245 .2979889 .6256256 .29299928 .60765078L.1599884 .07597351C.15098572 .039993287 .14898682 .0309906 .07398987 .0309906 .054992677 .0309906 .04399109 .0309906 .04399109 .0129852299 .04399109 0 .053985597 0 .07199097 0H.59999087C.6179962 0 .6199951 0 .6230011 .0029907227 .6259918 .004989624 .6269989 .005996704 .6329956 .018997193 .644989 .04598999 .7299957 .23591614 .7299957 .24491883 .7299957 .25291444 .723999 .2579193 .71598818 .2579193 .70799258 .2579193 .70700076 .25691224 .69599917 .23391724 .6339874 .09396362 .59298709 .0309906 .4269867 .0309906H.27398683C.2599945 .0309906 .2579956 .0309906 .2539978 .03199768 .24398804 .032989503 .24099732 .033996583 .24099732 .040985109 .24099732 .04399109 .24099732 .04598999 .24598694 .0639801L.31399537 .33789063Z"/>
<path id="font_5_1" d="M.6749878 .22944641C.69299319 .22944641 .71199038 .22944641 .71199038 .25144959 .71199038 .27246095 .69200137 .27246095 .6749878 .27246095H.12298584C.10598755 .27246095 .085998538 .27246095 .085998538 .25144959 .085998538 .22944641 .10499573 .22944641 .12298584 .22944641H.6749878Z"/>
<path id="font_3_1" d="M.23699951 .35734559C.24198914 .37535096 .25099183 .4093628 .25099183 .41337586 .25099183 .42938233 .23799134 .4423828 .21998596 .4423828 .18798828 .4423828 .17999268 .41337586 .17799378 .4033661L.034988405-.16481018C.0309906-.17881775 .0309906-.18081665 .0309906-.18682862 .0309906-.2038269 .042999269-.21582031 .06199646-.21582031 .09399414-.21582031 .101989749-.18582154 .10499573-.17082215L.15299988 .019256592C.1789856-.0017547608 .21899414-.0107421879 .2519989-.0107421879 .28799439-.0107421879 .33599855 .00024414063 .3880005 .061264039 .3999939 .008255005 .44699098-.0107421879 .48098756-.0107421879 .5099945-.0107421879 .5349884 .002243042 .5569916 .044265748 .57499697 .07727051 .58898928 .13928223 .58898928 .14329529 .58898928 .14828491 .58599856 .1552887 .57598879 .1552887 .56399539 .1552887 .5629883 .15028382 .5589905 .13128662 .5369873 .044265748 .5149994 .014251709 .48399354 .014251709 .45899964 .014251709 .45298768 .038253786 .45298768 .060256959 .45298768 .07926941 .45799256 .09927368 .46699525 .1342926L.49198915 .23731995 .5149994 .32633973C.5209961 .35235597 .5329895 .3983612 .5329895 .40237428 .5329895 .41537477 .5239868 .43138124 .5019989 .43138124 .46998597 .43138124 .46299745 .40437318 .45599366 .37635804L.43499757 .29333497C.4249878 .25332643 .3959961 .13728333 .3889923 .11128235 .3880005 .107284549 .33898927 .014251709 .2559967 .014251709 .18099976 .014251709 .18099976 .08427429 .18099976 .10227966 .18099976 .12528992 .18399048 .14329529 .19499207 .18930054L.23699951 .35734559Z"/>
<path id="font_4_2" d="M.2979889 .25097657C.2979889 .3329773 .28599549 .4429779 .23399353 .5539856 .1749878 .6769867 .08198547 .75 .069992069 .75 .05999756 .75 .057998659 .74198916 .057998659 .7389984 .057998659 .73399356 .05999756 .73098757 .066986087 .72398379 .125 .6719818 .23498535 .5359802 .23498535 .25097657 .23498535 .10797119 .20899964-.091033939 .06399536-.22602844 .06199646-.22903443 .057998659-.23303223 .057998659-.23803711 .057998659-.24102783 .05999756-.24902344 .069992069-.24902344 .08198547-.24902344 .17199707-.17703247 .22599793-.06802368 .27398683 .02796936 .2979889 .13098145 .2979889 .25097657Z"/>
<path id="font_3_2" d="M.44999696 .70999148C.45599366 .723999 .45599366 .7259979 .45599366 .7279968 .45599366 .7409973 .44599916 .75 .43499757 .75 .42099 .75 .4169922 .74198916 .41600038 .73999026L.06298828-.21000672C.056991579-.22401428 .056991579-.22601319 .056991579-.22801209 .056991579-.24101258 .066986087-.25 .07798767-.25 .08799744-.25 .09599304-.2460022 .102996829-.22601319L.44999696 .70999148Z"/>
<path id="font_3_6" d="M.2869873 .6603241C.29100038 .67433169 .29100038 .67633059 .29100038 .68032839 .29100038 .68933108 .2849884 .69433596 .27598573 .69433596 .2619934 .69433596 .17399597 .6863251 .1539917 .6843262 .14399719 .68333438 .1329956 .6823273 .1329956 .665329 .1329956 .6523285 .14399719 .6523285 .1599884 .6523285 .20698548 .6523285 .20698548 .6453247 .20698548 .6363373 .20698548 .6323395 .20698548 .6303406 .20199585 .6123352L.05899048 .037261964C.054992677 .023254395 .054992677 .021255494 .054992677 .018249512 .054992677 .002243042 .067993167-.0107421879 .085998538-.0107421879 .11898804-.0107421879 .12599182 .018249512 .1309967 .038253786L.17799378 .22732544C.24598694 .22132874 .29699708 .19432068 .29699708 .14430237 .29699708 .1382904 .29699708 .1342926 .2939911 .11929321 .29299928 .11528015 .2899933 .10128784 .2899933 .090270999 .2899933 .03125 .33099366-.0107421879 .38598634-.0107421879 .42399598-.0107421879 .44799806 .012252808 .46598817 .041259767 .4909973 .07926941 .5049896 .13929749 .5049896 .14329529 .5049896 .14830017 .5019989 .15530396 .49198915 .15530396 .48098756 .15530396 .47898866 .15029907 .47399903 .1322937 .46099855 .08126831 .43598939 .014251709 .3889923 .014251709 .3600006 .014251709 .35699464 .040252687 .35699464 .06227112 .35699464 .08728027 .36299134 .11328125 .3639984 .11528015 .3659973 .121292117 .36799623 .13328552 .36799623 .14529419 .36799623 .21531677 .29499818 .24232483 .21798706 .25134278 .24798584 .27033998 .269989 .29135133 .3019867 .32336427 .35299684 .37435914 .394989 .41737367 .44799806 .41737367 .45999146 .41737367 .47299195 .41436769 .48098756 .405365 .43598939 .4013672 .4249878 .36436463 .4249878 .35035707 .4249878 .33135987 .43899537 .31436158 .46398927 .31436158 .4869995 .31436158 .5189972 .33236695 .5189972 .37635804 .5189972 .4093628 .49499513 .4423828 .44799806 .4423828 .3869934 .4423828 .33799745 .39335633 .29599 .35035707 .24798584 .30336 .22399903 .27934266 .18699646 .26333619L.2869873 .6603241Z"/>
<path id="font_3_4" d="M.43899537 .6086273C.44499208 .63061526 .44699098 .64060977 .46398927 .6436157 .47200013 .6456146 .5039978 .6456146 .5249939 .6456146 .6399994 .6456146 .673996 .63861086 .673996 .56066897 .673996 .54766848 .673996 .5326843 .6649933 .4737091L.6639862 .4657135C.6639862 .45872499 .66799929 .45173646 .6779938 .45173646 .6899872 .45173646 .69200137 .46072389 .69400027 .475708L.7200012 .64860537C.72099307 .6536102 .7220001 .65960696 .7220001 .6626129 .7220001 .6766052 .71199038 .6766052 .69299319 .6766052H.12399292C.099990848 .6766052 .09899902 .6756134 .09199524 .6566162L.02999878 .4807129C.025985718 .4677124 .025985718 .4657135 .025985718 .46472169 .025985718 .45973207 .0289917 .45173646 .038986207 .45173646 .049987794 .45173646 .051986696 .45773316 .057998659 .475708 .11299133 .6316223 .14399719 .6456146 .2889862 .6456146H.32798768C.35598756 .6456146 .35598756 .64260867 .35598756 .63461306 .35598756 .62861636 .35398866 .6216278 .35198976 .6136322L.21798706 .07896423C.20899964 .04298401 .20599365 .0309906 .099990848 .0309906 .067993167 .0309906 .05899048 .0309906 .05899048 .0129852299 .05899048 0 .07199097 0 .07598877 0 .101989749 0 .1309967 .0019989014 .1579895 .0019989014 .18598938 .0019989014 .21499634 .0029907227 .24299622 .0029907227 .2869873 .0029907227 .2889862 .0029907227 .32598878 .0019989014 .33898927 .0019989014 .40499879 0 .41299439 0 .42199708 0 .43399049 0 .43399049 .017990113 .43399049 .0309906 .4249878 .0309906 .3999939 .0309906 .375 .0309906 .36299134 .0309906 .33599855 .032989503 .31298829 .035995485 .30099488 .036987306 .30099488 .053985597 .30099488 .05897522 .30299378 .066970828 .30499269 .07395935L.43899537 .6086273Z"/>
<path id="font_5_2" d="M.33599855 .70999148C.34199525 .72398379 .34199525 .72598269 .34199525 .72798159 .34199525 .7409973 .33198548 .75 .32099916 .75 .30699159 .75 .30299378 .74198916 .3019867 .73999026L.11898804 .26898194C.11299133 .25497438 .11299133 .25297547 .11299133 .25097657 .11299133 .24797058 .11299133 .24597168 .11898804 .23197937L.29599-.22402954C.30099488-.23603821 .30599977-.24902344 .32099916-.24902344 .33198548-.24902344 .34199525-.24003601 .34199525-.22703552 .34199525-.22503662 .34199525-.22303772 .33599855-.20903015L.1579895 .24996948 .33599855 .70999148Z"/>
<path id="font_3_7" d="M.18899536 .15730286C.19999695 .20431519 .21899414 .2773285 .21998596 .28533937 .22200012 .29133607 .24699402 .33935548 .2829895 .37435914 .31199647 .4013672 .34999085 .41737367 .3889923 .41737367 .44299317 .41737367 .44299317 .36436463 .44299317 .34735108 .44299317 .28633119 .3959961 .16429138 .3849945 .13328552 .37298585 .10227966 .36898805 .0922699 .36898805 .073272708 .36898805 .019256592 .4099884-.0107421879 .45498658-.0107421879 .5509949-.0107421879 .58999636 .1322937 .58999636 .14329529 .58999636 .14828491 .58699038 .1552887 .57699587 .1552887 .56599429 .1552887 .5649872 .15029907 .5609894 .13728333 .5359955 .052261354 .49398805 .014251709 .45799256 .014251709 .45098878 .014251709 .43299867 .014251709 .43299867 .04626465 .43299867 .0712738 .44299317 .09727478 .45098878 .119277957 .47099305 .17030335 .5109863 .27633668 .5109863 .33235169 .5109863 .42137147 .44499208 .4423828 .3919983 .4423828 .29899598 .4423828 .25 .37635804 .23399353 .35536195 .22799683 .40937806 .18699646 .4423828 .13699341 .4423828 .09498596 .4423828 .07398987 .41137696 .05999756 .3843689 .042999269 .34934999 .0289917 .29234315 .0289917 .28833009 .0289917 .2793274 .035995485 .27633668 .042999269 .27633668 .053985597 .27633668 .055999757 .28134156 .06098938 .30134584 .07998657 .3803711 .100997928 .41737367 .1349945 .41737367 .16499329 .41737367 .16499329 .38536073 .16499329 .37036134 .16499329 .34934999 .15699768 .31834413 .15098572 .29234315 .14399719 .2663269 .13398743 .22331238 .12998963 .21131897L.08999634 .04725647C.08299255 .023254395 .08299255 .021255494 .08299255 .018249512 .08299255 .0052490236 .09199524-.0107421879 .11399841-.0107421879 .12799073-.0107421879 .14299011-.0017547608 .1499939 .010253906 .15299988 .01625061 .16099549 .04826355 .1659851 .06826782L.18899536 .15730286Z"/>
<path id="font_5_3" d="M.27999879 .23197937C.28599549 .24597168 .28599549 .24797058 .28599549 .24996948 .28599549 .25297547 .28599549 .25497438 .27999879 .26898194L.102996829 .72598269C.09599304 .74398806 .08999634 .75 .07798767 .75 .066986087 .75 .056991579 .7409973 .056991579 .72798159 .056991579 .72598269 .056991579 .72398379 .06298828 .70999148L.24099732 .25097657 .06298828-.20903015C.056991579-.22303772 .056991579-.22503662 .056991579-.22703552 .056991579-.24003601 .066986087-.24902344 .07798767-.24902344 .08999634-.24902344 .09599304-.24302674 .102996829-.22503662L.27999879 .23197937Z"/>
<path id="font_6_1" d="M.74398806 .2263794C.7599945 .2263794 .7839966 .2263794 .7839966 .25038148 .7839966 .27539063 .7609863 .27539063 .74398806 .27539063H.147995C.13198853 .27539063 .10798645 .27539063 .10798645 .25138856 .10798645 .2263794 .1309967 .2263794 .147995 .2263794H.74398806Z"/>
<path id="font_2_5" d="M.5289917 .1640625V.20005799H.41799928V.64582827C.41799928 .66682437 .41799928 .6738281 .3959961 .6738281 .38398744 .6738281 .37998963 .6738281 .36999513 .65982058L.038986207 .20005799V.1640625H.33299256V.08201599C.33299256 .04800415 .33299256 .035995485 .2519989 .035995485H.22499085V0C.2749939 .0019989014 .33898927 .0039978029 .375 .0039978029 .4119873 .0039978029 .47599793 .0019989014 .526001 0V.035995485H.49899293C.41799928 .035995485 .41799928 .04800415 .41799928 .08201599V.1640625H.5289917M.33999635 .5658722V.20005799H.07598877L.33999635 .5658722Z"/>
<path id="font_2_4" d="M.272995 .33428956C.35099793 .33428956 .40699769 .2803192 .40699769 .1733551 .40699769 .04940796 .33499146 .012466431 .2769928 .012466431 .23699951 .012466431 .14898682 .0234375 .10699463 .082351688 .1539917 .084350589 .16499329 .11735535 .16499329 .13835144 .16499329 .17034912 .14099121 .19335938 .10998535 .19335938 .08198547 .19335938 .053985597 .17634583 .053985597 .13534546 .053985597 .041412355 .1579895-.01953125 .2789917-.01953125 .41799928-.01953125 .5139923 .07336426 .5139923 .1733551 .5139923 .2513275 .44999696 .32929994 .33999635 .35229493 .44499208 .39024354 .48298646 .4650879 .48298646 .5260773 .48298646 .60505679 .3919983 .6640625 .2809906 .6640625 .16999817 .6640625 .084991458 .61006167 .084991458 .5300751 .084991458 .49606324 .10699463 .47706605 .13699341 .47706605 .16799927 .47706605 .18798828 .5000763 .18798828 .5280762 .18798828 .5570679 .16799927 .57806399 .13699341 .5800781 .17199707 .62405398 .24099732 .63505557 .27799989 .63505557 .32299806 .63505557 .38598634 .6130676 .38598634 .5260773 .38598634 .48406983 .37199403 .43814088 .34599305 .4072113 .31298829 .36927796 .2849884 .3672943 .23498535 .36428834 .20999146 .3623047 .20799256 .3623047 .20298767 .3612976 .20098877 .3612976 .19299317 .3592987 .19299317 .34829713 .19299317 .33428956 .20199585 .33428956 .21899414 .33428956H.272995Z"/>
<path id="font_2_3" d="M.5049896 .18203736H.47099305C.46798707 .16001892 .45799256 .100997928 .44499208 .09098816 .43699647 .084991458 .3600006 .084991458 .34599305 .084991458H.1619873C.2669983 .17803955 .3019867 .20603943 .3619995 .25306703 .43598939 .312088 .5049896 .374115 .5049896 .46914674 .5049896 .5900879 .39898683 .6640625 .2709961 .6640625 .14698792 .6640625 .06298828 .57710269 .06298828 .4851532 .06298828 .43414308 .10598755 .42915345 .115997318 .42915345 .13999939 .42915345 .16899109 .44615174 .16899109 .48214723 .16899109 .5001526 .1619873 .53515627 .10998535 .53515627 .14099121 .6060791 .20899964 .62805178 .2559967 .62805178 .35598756 .62805178 .4079895 .5501404 .4079895 .46914674 .4079895 .38212586 .34599305 .3130951 .31399537 .27708436L.07299805 .038986207C.06298828 .02999878 .06298828 .027999878 .06298828 0H.47499085L.5049896 .18203736Z"/>
<path id="font_2_2" d="M.33499146 .63612368C.33499146 .6630554 .33299256 .6640625 .30499269 .6640625 .24099732 .6014404 .1499939 .6004486 .10899353 .6004486V.5644531C.1329956 .5644531 .19898987 .5644531 .2539978 .592453V.08203125C.2539978 .04899597 .2539978 .035995485 .1539917 .035995485H.115997318V0C.13398743 .0009918213 .25698854 .0039978029 .2939911 .0039978029 .32499696 .0039978029 .45098878 .0009918213 .47299195 0V.035995485H.43499757C.33499146 .035995485 .33499146 .04899597 .33499146 .08203125V.63612368Z"/>
<path id="font_2_1" d="M.5159912 .31925965C.5159912 .42918397 .5029907 .50813296 .45700074 .5780945 .42599488 .62405398 .3639984 .6640625 .28399659 .6640625 .051986696 .6640625 .051986696 .39120484 .051986696 .31925965 .051986696 .2472992 .051986696-.01953125 .28399659-.01953125 .5159912-.01953125 .5159912 .2472992 .5159912 .31925965M.28399659 .008468628C.23799134 .008468628 .1769867 .035446168 .15699768 .117385867 .14299011 .17634583 .14299011 .25830079 .14299011 .33224488 .14299011 .40519715 .14299011 .4811554 .1579895 .53611758 .1789856 .6150665 .24299622 .63604739 .28399659 .63604739 .33799745 .63604739 .3899994 .6030731 .4079895 .545105 .42399598 .4911499 .4249878 .41918946 .4249878 .33224488 .4249878 .25830079 .4249878 .18434143 .4119873 .12138367 .3919983 .030441285 .32398988 .008468628 .28399659 .008468628Z"/>
<path id="font_7_121" d="M.5159912 .31925965C.5159912 .42918397 .5029907 .50813296 .45700074 .5780945 .42599488 .62405398 .3639984 .6640625 .28399659 .6640625 .051986696 .6640625 .051986696 .39120484 .051986696 .31925965 .051986696 .2472992 .051986696-.01953125 .28399659-.01953125 .5159912-.01953125 .5159912 .2472992 .5159912 .31925965M.4249878 .33224488C.4249878 .25830079 .4249878 .18434143 .4119873 .12138367 .3919983 .030441285 .32398988 .008468628 .28399659 .008468628 .23799134 .008468628 .1769867 .035446168 .15699768 .117385867 .14299011 .17634583 .14299011 .25830079 .14299011 .33224488 .14299011 .40519715 .14299011 .4811554 .1579895 .53611758 .1789856 .6150665 .24299622 .63604739 .28399659 .63604739 .33799745 .63604739 .3899994 .6030731 .4079895 .545105 .42399598 .4911499 .4249878 .41918946 .4249878 .33224488Z"/>
<path id="font_7_88" d="M.21899414 .056991579C.21899414 .09199524 .19099427 .114990238 .1619873 .114990238 .1269989 .114990238 .10398865 .08699036 .10398865 .057998659 .10398865 .022994996 .13198853 0 .16099549 0 .19599915 0 .21899414 .027999878 .21899414 .056991579Z"/>
<path id="font_7_56" d="M.5049896 .20095825C.5049896 .31396485 .4189911 .41796876 .29499818 .41796876 .25099183 .41796876 .19898987 .40696717 .15499878 .36895753V.5579071C.20599365 .5449219 .23599243 .5449219 .2519989 .5449219 .38398744 .5449219 .46199037 .6349182 .46199037 .6499176 .46199037 .6610565 .45498658 .6640625 .44999696 .6640625 .44999696 .6640625 .44599916 .6640625 .44198609 .6610565 .41799928 .65205386 .36499024 .63204959 .29100038 .63204959 .2630005 .63204959 .20999146 .63404849 .14498902 .6590576 .1349945 .6640625 .13198853 .6640625 .13198853 .6640625 .11898804 .6640625 .11898804 .6530609 .11898804 .63705447V.34204103C.11898804 .32507325 .11898804 .3130951 .1349945 .3130951 .14399719 .3130951 .14498902 .31507875 .15499878 .32707215 .19799805 .38197328 .25898744 .3899536 .2939911 .3899536 .35398866 .3899536 .3809967 .34204103 .38598634 .33406068 .4039917 .30110169 .4099884 .26316834 .4099884 .20524597 .4099884 .17524719 .4099884 .116256717 .37998963 .07234192 .35499574 .03640747 .31199647 .012466431 .2630005 .012466431 .19799805 .012466431 .1309967 .04838562 .10598755 .11425781 .14399719 .11125183 .16299439 .13624573 .16299439 .16325379 .16299439 .20625305 .12599182 .21424866 .11299133 .21424866 .11299133 .21424866 .06298828 .21424866 .06298828 .1602478 .06298828 .07034302 .14498902-.01953125 .2649994-.01953125 .3929901-.019744873 .5049896 .07525635 .5049896 .20124817V.20095825Z"/>
<path id="font_7_82" d="M.47299195 0V.035995485H.43499757C.33499146 .035995485 .33499146 .048980714 .33499146 .081970218V.6357422C.33499146 .66304019 .33299256 .6640625 .30499269 .6640625 .24099732 .6007385 .1499939 .59973147 .10899353 .59973147V.5644531C.1329956 .5644531 .19898987 .5644531 .2539978 .592453V.08203125C.2539978 .04899597 .2539978 .035995485 .1539917 .035995485H.115997318V0L.2939911 .0039978029 .47299195 0Z"/>
<path id="font_7_107" d="M.5049896 .18203736H.47099305C.46798707 .16001892 .45799256 .100997928 .44499208 .09098816 .43699647 .084991458 .3600006 .084991458 .34599305 .084991458H.1619873C.2669983 .17803955 .3019867 .20603943 .3619995 .25306703 .43598939 .312088 .5049896 .374115 .5049896 .46914674 .5049896 .5900879 .39898683 .6640625 .2709961 .6640625 .14698792 .6640625 .06298828 .57710269 .06298828 .4851532 .06298828 .43414308 .10598755 .42915345 .115997318 .42915345 .13999939 .42915345 .16899109 .44615174 .16899109 .48214723 .16899109 .5001526 .1619873 .53515627 .10998535 .53515627 .14099121 .6060791 .20899964 .62805178 .2559967 .62805178 .35598756 .62805178 .4079895 .5501404 .4079895 .46914674 .4079895 .38212586 .34599305 .3130951 .31399537 .27708436L.07299805 .038986207C.06298828 .02999878 .06298828 .027999878 .06298828 0H.47499085L.5049896 .18203736Z"/>
<path id="font_7_106" d="M.5139923 .1733551C.5139923 .2513275 .44999696 .32929994 .33999635 .35229493 .44499208 .39024354 .48298646 .4650879 .48298646 .5260773 .48298646 .60505679 .3919983 .6640625 .2809906 .6640625 .16999817 .6640625 .084991458 .61006167 .084991458 .5300751 .084991458 .49606324 .10699463 .47706605 .13699341 .47706605 .16799927 .47706605 .18798828 .5000763 .18798828 .5280762 .18798828 .5570679 .16799927 .57806399 .13699341 .5800781 .17199707 .62405398 .24099732 .63505557 .27799989 .63505557 .32299806 .63505557 .38598634 .6130676 .38598634 .5260773 .38598634 .48406983 .37199403 .43814088 .34599305 .4072113 .31298829 .36927796 .2849884 .3672943 .23498535 .36428834 .20999146 .3623047 .20799256 .3623047 .20298767 .3612976 .20298767 .3612976 .19299317 .3592987 .19299317 .34829713 .19299317 .33428956 .20199585 .33428956 .21899414 .33428956H.272995C.35099793 .33428956 .40699769 .2803192 .40699769 .1733551 .40699769 .04940796 .33499146 .012466431 .2769928 .012466431 .23699951 .012466431 .14898682 .0234375 .10699463 .082351688 .1539917 .084350589 .16499329 .11735535 .16499329 .13835144 .16499329 .17034912 .14099121 .19335938 .10998535 .19335938 .08198547 .19335938 .053985597 .17634583 .053985597 .13534546 .053985597 .041412355 .1579895-.01953125 .2789917-.01953125 .41799928-.01953125 .5139923 .07336426 .5139923 .1733551Z"/>
<path id="font_1_3" d="M.5009918 .70599368C.5069885 .71899417 .5069885 .72099307 .5069885 .72499087 .5069885 .7409973 .49398805 .75 .48298646 .75 .46598817 .75 .46099855 .73799136 .45599366 .72499087L.08299255-.20600891C.07699585-.2190094 .07699585-.2210083 .07699585-.2250061 .07699585-.24101258 .08999634-.25 .100997928-.25 .117996219-.25 .12298584-.23800659 .12799073-.2250061L.5009918 .70599368Z"/>
<path id="font_7_125" d="M.5970001 0V.035995485C.5319977 .035995485 .5219879 .035995485 .5219879 .078948978V.44265748L.3899994 .4336548C.3789978 .43266297 .37399293 .43266297 .37199403 .43165589 .36999513 .43066407 .36799623 .43066407 .35398866 .43066407H.19499207V.5397186C.19499207 .6387634 .2979889 .67578127 .36698915 .67578127 .40098573 .67578127 .43499757 .66877749 .46099855 .6477661 .4249878 .6397705 .42199708 .6117554 .42199708 .5997467 .42199708 .56877139 .44699098 .55078127 .47099305 .55078127 .4889984 .55078127 .519989 .56277468 .519989 .6017761 .519989 .6567688 .46398927 .7037811 .37098695 .7037811 .2669983 .7037811 .12399292 .6567688 .12399292 .5407562V.43066407H.037994386V.39465333H.12399292V.078948978C.12399292 .035995485 .11399841 .035995485 .04899597 .035995485V0C.04899597 0 .12098694 .0039978029 .16099549 .0039978029 .19898987 .0039978029 .23599243 .0029907227 .27398683 0V.035995485C.20899964 .035995485 .19898987 .035995485 .19898987 .078948978V.39465333H.397995C.43899537 .39465333 .44699098 .3846588 .44699098 .3407135V.078948978C.44699098 .035995485 .43699647 .035995485 .37199403 .035995485V0C.37199403 0 .44400025 .0039978029 .48399354 .0039978029 .5219879 .0039978029 .5589905 .0029907227 .5970001 0Z"/>
<path id="font_7_72" d="M.2809906 0V.035995485C.21598816 .035995485 .20599365 .035995485 .20599365 .07901001V.69433596L.055999757 .6826172V.64660647C.12298584 .64660647 .1309967 .6396179 .1309967 .59065249V.07896423C.1309967 .035995485 .12098694 .035995485 .055999757 .035995485V0C.055999757 0 .12799073 .0039978029 .16799927 .0039978029 .20599365 .0039978029 .24299622 .0029907227 .2809906 0Z"/>
<path id="font_7_66" d="M.27398683 0V.035995485C.21598816 .035995485 .20599365 .035995485 .20599365 .07803345V.44140626L.05899048 .43052674V.39453126C.12199402 .39453126 .1309967 .3885193 .1309967 .33952333V.07952881C.1309967 .035995485 .12098694 .035995485 .055999757 .035995485V0C.055999757 0 .12799073 .0039978029 .16799927 .0039978029 .20298767 .0039978029 .23899842 .0029907227 .27398683 0M.21899414 .60214236C.21899414 .6341553 .19400025 .66015627 .1619873 .66015627 .12799073 .66015627 .10499573 .6321411 .10499573 .6031494 .10499573 .57115176 .12998963 .54515078 .1619873 .54515078 .19599915 .54515078 .21899414 .57315066 .21899414 .60214236Z"/>
<path id="font_7_77" d="M.58999636 0V.035995485C.5249939 .035995485 .5149994 .035995485 .5149994 .07904053V.3032837C.5149994 .3903656 .47200013 .44140626 .36499024 .44140626 .2829895 .44140626 .22999573 .39637757 .20199585 .34432984H.20098877V.44140626L.053985597 .43052674V.39453126C.12098694 .39453126 .1289978 .3875122 .1289978 .33843995V.079055789C.1289978 .035995485 .11898804 .035995485 .053985597 .035995485V0C.053985597 0 .12599182 .0039978029 .16799927 .0039978029 .20498657 .0039978029 .27398683 .0009918213 .2829895 0V.035995485C.21798706 .035995485 .20799256 .035995485 .20799256 .079055789V.25932313C.20799256 .36434938 .29100038 .4133911 .35699464 .4133911 .4269867 .4133911 .43598939 .3583374 .43598939 .3072815V.07904053C.43598939 .035995485 .42599488 .035995485 .36099244 .035995485V0C.36099244 0 .43299867 .0039978029 .47499085 .0039978029 .5119934 .0039978029 .58099368 .0009918213 .58999636 0Z"/>
<path id="font_7_59" d="M.54499819 .40040589C.54499819 .42340089 .526001 .45140077 .48599244 .45140077 .47099305 .45140077 .4169922 .44839479 .36999513 .4053955 .33999635 .42739869 .2979889 .44140626 .2539978 .44140626 .15098572 .44140626 .07598877 .372406 .07598877 .29440309 .07598877 .2554016 .09599304 .21939087 .12399292 .19340515 .115997318 .18440247 .09399414 .1513977 .09399414 .11239624 .09399414 .09939575 .09700012 .05239868 .13598633 .023391724 .09098816 .0082092289 .038986207-.024841309 .038986207-.076934818 .038986207-.15003968 .14898682-.20507813 .28399659-.20507813 .41099549-.20507813 .5289917-.15505982 .5289917-.074920658 .5289917-.0448761 .5169983 .00920105 .46199037 .039260866 .40299989 .0703125 .34399415 .0703125 .24699402 .0703125 .22499085 .0703125 .18899536 .0703125 .18099976 .07130432 .14898682 .078308109 .1309967 .108306888 .1309967 .13729859 .1309967 .16246033 .13798523 .17045594 .14399719 .17845154 .15899658 .16944885 .19499207 .14746094 .25299073 .14746094 .35598756 .14746094 .43099977 .21644593 .43099977 .29444886 .43099977 .33345033 .41299439 .36445619 .3889923 .39045716 .43399049 .42245484 .47299195 .42344667 .48999024 .42344667 .48599244 .41944886 .48098756 .41545106 .48098756 .39945985 .48098756 .37945558 .49598695 .3674469 .5130005 .3674469 .5269928 .3674469 .54499819 .37745667 .54499819 .40045167V.40040589M.35099793 .29444886C.35099793 .27845765 .35099793 .2384491 .33099366 .21244812 .31698609 .19544983 .2899933 .17745972 .2539978 .17745972 .1559906 .17720032 .1559906 .2732849 .1559906 .29429627 .1559906 .310318 .1559906 .3503418 .17599488 .3763733 .18998719 .39338685 .21699524 .4113922 .25299073 .4113922 .35099793 .4113922 .35099793 .31532289 .35099793 .29429627V.29444886M.46798707-.07600403C.46798707-.12904358 .3889923-.17507935 .28399659-.17507935 .1789856-.17507935 .099990848-.12808228 .099990848-.07608032 .099990848-.04107666 .13198853 .0019226074 .19599915 .0029296876H.2539978C.34298707 .0029296876 .46798707 .0029296876 .46798707-.07608032V-.07600403Z"/>
<path id="font_8_34" d="M.66999819 .18199158C.66999819 .27198792 .58299258 .34498597 .47200013 .35699464 .57099917 .37677003 .6409912 .43974305 .6409912 .51368716 .6409912 .6016388 .54499819 .6826172 .41299439 .6826172H.040985109V.6516113H.06399536C.14099121 .6516113 .14299011 .64060977 .14299011 .6036377V.07896423C.14299011 .041992189 .14099121 .0309906 .06399536 .0309906H.040985109V0H.44099427C.57598879-.00022888184 .66999819 .088760379 .66999819 .1817627V.18199158M.54499819 .51368716C.54499819 .4367218 .47799684 .36776734 .38398744 .36776734H.22698975V.6106262C.22698975 .64460757 .22898865 .6516113 .27598573 .6516113H.4059906C.5039978 .6517639 .54499819 .573761 .54499819 .5137634V.51368716M.57099917 .18388367C.57099917 .106933597 .5109863 .0309906 .4079895 .0309906H.27598573C.22898865 .0309906 .22698975 .037994386 .22698975 .07196045V.34277345H.41600038C.5319977 .34298707 .57099917 .24499512 .57099917 .18399048V.18388367Z"/>
<path id="font_8_49" d="M.6689911 .2579193H.6409912C.6159973 .10296631 .58999636 .0309906 .4189911 .0309906H.2789917C.23199463 .0309906 .22999573 .037994386 .22999573 .07197571V.33789063H.32299806C.42099 .33789063 .43299867 .30690003 .43299867 .220932H.46099855V.48606874H.43299867C.43299867 .39994813 .42099 .36888124 .32299806 .36888124H.22999573V.6077728C.22999573 .6416931 .23199463 .64868167 .2789917 .64868167H.41299439C.56900027 .64868167 .5970001 .59480288 .61299136 .45507813H.6409912L.61299136 .6796875H.037994386V.64868167H.06098938C.13798523 .64868167 .13999939 .6377106 .13999939 .60079959V.07899475C.13999939 .041992189 .13798523 .0309906 .06098938 .0309906H.037994386V0H.6259918L.6689911 .2579193Z"/>
<path id="font_8_44" d="M.19599915 .3766632C.19599915 .406662 .17199707 .43066407 .14199829 .43066407 .11199951 .43066407 .08799744 .406662 .08799744 .3766632 .08799744 .34765626 .11199951 .32266236 .14199829 .32266236 .17199707 .32266236 .19599915 .34765626 .19599915 .3766632M.19599915 .053985597C.19599915 .08299255 .17199707 .10798645 .14199829 .10798645 .11199951 .10798645 .08799744 .08299255 .08799744 .053985597 .08799744 .023986817 .11199951 0 .14199829 0 .17199707 0 .19599915 .023986817 .19599915 .053985597Z"/>
<path id="font_4_4" d="M.3039856 .6392822C.3039856 .6642761 .30299378 .666275 .27799989 .666275 .21598816 .60227969 .12399292 .60227969 .09298706 .60227969V.57128909C.11199951 .57128909 .17298889 .57128909 .22698975 .5972748V.08001709C.22698975 .042999269 .22399903 .0309906 .1309967 .0309906H.09899902V0C.1349945 .0029907227 .22399903 .0029907227 .2649994 .0029907227 .30599977 .0029907227 .3959961 .0029907227 .43199159 0V.0309906H.3999939C.30699159 .0309906 .3039856 .042999269 .3039856 .08001709V.6392822Z"/>
<path id="font_3_5" d="M.13699341 .22949219C.19799805 .22949219 .2630005 .22949219 .31599427 .24247742 .4099884 .2654724 .4269867 .32144166 .4269867 .35542298 .4269867 .41238404 .37399293 .4423828 .31498719 .4423828 .19898987 .4423828 .04699707 .3444214 .04699707 .17242432 .04699707 .077316287 .102996829-.0107421879 .21099854-.0107421879 .36099244-.0107421879 .44499208 .09333801 .44499208 .10635376 .44499208 .112350467 .43798829 .12036133 .43099977 .12036133 .42599488 .12036133 .4249878 .11936951 .41600038 .10835266 .35598756 .03427124 .2649994 .014251709 .21299744 .014251709 .14199829 .014251709 .12298584 .081329349 .12298584 .13137818 .12298584 .13337708 .12298584 .16841126 .13699341 .22949219M.14399719 .25448609C.18798828 .41238404 .29899598 .41737367 .31498719 .41737367 .34899903 .41737367 .3899994 .40138246 .3899994 .35542298 .3899994 .25448609 .23899842 .25448609 .14399719 .25448609Z"/>
<path id="font_9_1" d="M.5629883 .39352418C.5279999 .38352967 .519989 .3545227 .519989 .33952333 .519989 .30752564 .54599 .30052186 .55999758 .30052186 .58898928 .30052186 .6179962 .32452394 .6179962 .3635254 .6179962 .41740418 .5589905 .44140626 .5079956 .44140626 .44198609 .44140626 .4019928 .3905182 .3909912 .371521 .37799073 .39649964 .33999635 .44140626 .2649994 .44140626 .1499939 .44140626 .08198547 .32252503 .08198547 .28749085 .08198547 .2824707 .085998538 .27345277 .099990848 .27345277 .11399841 .27345277 .116989139 .27946473 .11999512 .28848268 .14498902 .3695221 .21299744 .4084015 .2619934 .4084015 .31098939 .4084015 .32598878 .37652589 .32598878 .34352113 .32598878 .3315277 .32598878 .32252503 .31799317 .29148866 .29499818 .19825745 .272995 .10707092 .2679901 .095077518 .25299073 .05708313 .21699524 .023223877 .1749878 .023223877 .16899109 .023223877 .14099121 .023223877 .117996219 .038085939 .15699768 .051071168 .16099549 .08407593 .16099549 .09207153 .16099549 .11807251 .14099121 .13108826 .12098694 .13108826 .09298706 .13108826 .06298828 .10908508 .06298828 .06808472 .06298828 .011230469 .12599182-.009765625 .17298889-.009765625 .22999573-.009765625 .2709961 .029159546 .2899933 .060073854 .30999757 .018234253 .35798646-.009765625 .4149933-.009765625 .5329895-.009765625 .598999 .111083988 .598999 .14411927 .598999 .14611817 .59799197 .15815735 .5799866 .15815735 .56599429 .15815735 .56399539 .1511383 .5609894 .1421051 .5319977 .05508423 .46099855 .023223877 .4189911 .023223877 .3809967 .023223877 .35398866 .045074464 .35398866 .08708191 .35398866 .1060791 .35899354 .12808228 .36799623 .16316223L.3999939 .2935028C.4099884 .33251954 .4149933 .3505249 .43598939 .37452699 .44999696 .38952638 .47399903 .4084015 .5059967 .4084015 .5109863 .4084015 .54100039 .4084015 .5629883 .39352418Z"/>
<path id="font_8_54" d="M.6269989 .4550171 .598999 .6796875H.037994386V.64868167H.06098938C.13798523 .64868167 .13999939 .6376953 .13999939 .60076907V.07902527C.13999939 .041992189 .13798523 .0309906 .06098938 .0309906H.037994386V0C.08299255 .0029907227 .14498902 .0029907227 .19099427 .0029907227 .23098755 .0029907227 .32199098 .0029907227 .35699464 0V.0309906H.32499696C.23399353 .0309906 .22999573 .042999269 .22999573 .08001709V.3251953H.31999208C.4169922 .3251953 .42799378 .29318238 .42799378 .20819092H.45599366V.47299195H.42799378C.42799378 .38813783 .4169922 .3561859 .31999208 .3561859H.22999573V.60775759C.22999573 .6416931 .23199463 .64868167 .2789917 .64868167H.40499879C.55799868 .64868167 .58299258 .59277346 .598999 .4550171H.6269989Z"/>
<path id="font_8_46" d="M.72698977 .33580018C.72698977 .52568057 .58799746 .6826172 .4119873 .6826172H.039993287V.6516113H.06298828C.13999939 .6516113 .14199829 .64060977 .14199829 .6036377V.07896423C.14199829 .041992189 .13999939 .0309906 .06298828 .0309906H.039993287V0H.4119873C.58499148 0 .72698977 .1479187 .72698977 .33580018M.6279907 .33580018C.6279907 .29483033 .6279907 .18989563 .57299807 .11993408 .5209961 .051986696 .44898988 .0309906 .38598634 .0309906H.27799989C.23098755 .0309906 .22898865 .037994386 .22898865 .07196045V.6106262C.22898865 .64460757 .23098755 .6516113 .27799989 .6516113H.3849945C.48199464 .6516113 .5419922 .6006317 .56900027 .56466677 .61299136 .5066986 .6279907 .43473817 .6279907 .33580018Z"/>
<path id="font_4_3" d="M.70599368 .22944641C.7200012 .22944641 .7409973 .22944641 .7409973 .25045777 .7409973 .27246095 .7220001 .27246095 .70599368 .27246095H.42099V.5578003C.42099 .573761 .42099 .59277346 .39898683 .59277346 .37799073 .59277346 .37799073 .57177737 .37799073 .5578003V.27246095H.09199524C.07798767 .27246095 .056991579 .27246095 .056991579 .25144959 .056991579 .22944641 .07598877 .22944641 .09199524 .22944641H.37799073V-.056793214C.37799073-.07279968 .37799073-.091796878 .3999939-.091796878 .42099-.091796878 .42099-.07080078 .42099-.056793214V.22944641H.70599368Z"/>
<path id="font_8_74" d="M.897995 0V.0309906H.875C.7979889 .0309906 .79599 .041992189 .79599 .07896423V.6036377C.79599 .64060977 .7979889 .6516113 .875 .6516113H.897995V.6826172H.7299957C.70899966 .6826172 .70199587 .6826172 .69499209 .6646118L.47099305 .09794617 .24699402 .660614C.23899842 .680603 .23799134 .6826172 .21099854 .6826172H.042999269V.6516113H.06599426C.14299011 .6516113 .14498902 .64060977 .14498902 .6036377V.10594177C.14498902 .07896423 .14498902 .0309906 .042999269 .0309906V0C.09799194 .0019989014 .11199951 .0029907227 .16099549 .0029907227 .20899964 .0029907227 .22399903 .0019989014 .27799989 0V.0309906C.17599488 .0309906 .17599488 .07896423 .17599488 .10594177V.64060977L.1769867 .6416168 .4229889 .021987915C.42799378 .008987427 .43199159 0 .44400025 0 .45498658 0 .45999146 .008987427 .46398927 .017990113L.71398928 .6496124 .71499636 .64860537V.07896423C.71499636 .041992189 .71299746 .0309906 .6359863 .0309906H.61299136V0C.6729889 .0029907227 .73999026 .0029907227 .7549896 .0029907227 .7609863 .0029907227 .83499148 .0029907227 .897995 0Z"/>
<path id="font_10_1" d="M.79599 .22436524C.81199648 .22436524 .83699038 .22436524 .83699038 .2503662 .83699038 .2763672 .81199648 .2763672 .79599 .2763672H.1659851C.1499939 .2763672 .125 .2763672 .125 .2503662 .125 .22436524 .1499939 .22436524 .1659851 .22436524H.79599Z"/>
<path id="font_1_2" d="M.7619934 .5261383C.7739868 .53215029 .7839966 .53915408 .7839966 .55215457 .7839966 .5661621 .772995 .5771637 .7589874 .5771637 .7579956 .5771637 .7529907 .5771637 .7409973 .571167L.12998963 .2769928C.117996219 .2709961 .10798645 .2639923 .10798645 .25097657 .10798645 .2349701 .11898804 .22996521 .1289978 .22496033L.7389984-.06919861C.7529907-.07620239 .7569885-.07620239 .7589874-.07620239 .772995-.07620239 .7839966-.065200809 .7839966-.051208497 .7839966-.036193849 .7719879-.030181885 .7630005-.026184082L.18899536 .24998474 .7619934 .5261383Z"/>
<path id="font_11_2" d="M.94799807 .30226136C.94799807 .42536927 .85398867 .4423828 .7789917 .4423828 .68099978 .4423828 .6239929 .39335633 .59599307 .3493042 .57099917 .44137574 .46899415 .4423828 .43199159 .4423828 .32899476 .4423828 .2709961 .38734437 .24598694 .34429933V.4423828L.08198547 .43138124V.38734437C.1559906 .38734437 .16499329 .38034059 .16499329 .33129884V.08403015C.16499329 .053009035 .16499329 .04399109 .099990848 .04399109H.08198547V0C.125 .0029907227 .16699219 .0039978029 .20999146 .0039978029 .2519989 .0039978029 .29499818 .0029907227 .33699037 0V.04399109H.31900025C.2539978 .04399109 .2539978 .053009035 .2539978 .08403015V.25820924C.2539978 .369339 .35598756 .40937806 .42099 .40937806 .49398805 .40937806 .5119934 .3683319 .5119934 .30326844V.08403015C.5119934 .053009035 .5119934 .04399109 .44699098 .04399109H.42900086V0C.47200013 .0029907227 .5139923 .0039978029 .5569916 .0039978029 .598999 .0039978029 .6419983 .0029907227 .6839905 0V.04399109H.66600039C.6009979 .04399109 .6009979 .053009035 .6009979 .08403015V.25820924C.6009979 .369339 .7029877 .40937806 .7679901 .40937806 .84098818 .40937806 .85899356 .3683319 .85899356 .30326844V.08403015C.85899356 .053009035 .85899356 .04399109 .7939911 .04399109H.776001V0C.81900027 .0029907227 .86099246 .0039978029 .9039917 .0039978029 .94599917 .0039978029 .9889984 .0029907227 1.0309906 0V.04399109H1.0130005C.94799807 .04399109 .94799807 .053009035 .94799807 .08403015V.30226136Z"/>
<path id="font_11_1" d="M.25299073 .6157532C.25299073 .6487427 .22599793 .6767578 .19198609 .6767578 .16099549 .6767578 .1309967 .65275576 .1309967 .6157532 .1309967 .57974246 .16099549 .55474856 .19198609 .55474856 .22599793 .55474856 .25299073 .5827484 .25299073 .6157532M.08699036 .43138124V.38737489C.1579895 .38737489 .1659851 .3803711 .1659851 .3313141V.08403015C.1659851 .053009035 .1659851 .04399109 .100997928 .04399109H.08299255V0C.12399292 .0029907227 .1659851 .0039978029 .20698548 .0039978029 .24499512 .0039978029 .2889862 .0029907227 .32598878 0V.04399109C.25898744 .04399109 .25099183 .04399109 .25099183 .08403015V.4423828L.08699036 .43138124Z"/>
<path id="font_11_3" d="M.59999087 .30226136C.59999087 .41236878 .5249939 .4423828 .43199159 .4423828 .32499696 .4423828 .2689972 .38334657 .24598694 .34429933V.4423828L.08198547 .43138124V.38734437C.1559906 .38734437 .16499329 .38034059 .16499329 .33129884V.08403015C.16499329 .053009035 .16499329 .04399109 .099990848 .04399109H.08198547V0C.125 .0029907227 .16699219 .0039978029 .20999146 .0039978029 .2519989 .0039978029 .29499818 .0029907227 .33699037 0V.04399109H.31900025C.2539978 .04399109 .2539978 .053009035 .2539978 .08403015V.25820924C.2539978 .3713379 .35798646 .40937806 .41999818 .40937806 .49398805 .40937806 .5109863 .36732484 .5109863 .30326844V.08403015C.5109863 .053009035 .5109863 .04399109 .44599916 .04399109H.42799378V0C.47099305 .0029907227 .5130005 .0039978029 .55599978 .0039978029 .59799197 .0039978029 .6409912 .0029907227 .68299868 0V.04399109H.6649933C.59999087 .04399109 .59999087 .053009035 .59999087 .08403015V.30226136Z"/>
<path id="font_7_96" d="M.40699769 .37739564C.40699769 .4113922 .375 .44140626 .32798768 .44140626 .27799989 .44140626 .22299195 .4104004 .19299317 .33439637H.19198609V.44140626L.04899597 .43052674V.39453126C.115997318 .39453126 .12399292 .3875122 .12399292 .33843995V.079055789C.12399292 .035995485 .11399841 .035995485 .04899597 .035995485V0C.053985597 0 .12199402 .0039978029 .16299439 .0039978029L.29299928 0V.035995485H.272995C.19898987 .036071779 .19898987 .047073366 .19898987 .081085208V.22807312C.19898987 .31207276 .23799134 .41308595 .33299256 .41308595 .32398988 .40608216 .31599427 .39308167 .31599427 .3770752 .31599427 .3440857 .34199525 .3310852 .36099244 .3310852 .3849945 .3310852 .40699769 .34707643 .40699769 .3770752V.37739564Z"/>
<path id="font_7_50" d="M.46798707 .12036133C.46798707 .12435913 .46598817 .13438416 .45098878 .13438416 .43798829 .13438416 .43598939 .12837219 .43299867 .11836243 .4019928 .037246705 .32598878 .022232056 .2899933 .022232056 .24299622 .022232056 .19799805 .043258668 .16799927 .08131409 .1309967 .12837219 .12998963 .18945313 .12998963 .22851563H.43998719C.46099855 .22851563 .46798707 .22851563 .46798707 .25050355 .46798707 .33839417 .4189911 .44628907 .269989 .44628907 .13899231 .44628907 .038986207 .34239198 .038986207 .21949768 .038986207 .092315677 .1499939-.009765625 .2829895-.009765625 .41799928-.009765625 .46798707 .09832764 .46798707 .12036133M.397995 .25450135H.1309967C.14199829 .39530946 .23199463 .41827394 .269989 .41827394 .3929901 .41827394 .39698792 .27947999 .397995 .25450135Z"/>
<path id="font_7_91" d="M.58099368-.19335938V-.15736389C.5159912-.15736389 .5059967-.15736389 .5059967-.114486698V.44140626H.47599793L.43998719 .35437013C.40899659 .40238954 .35899354 .44140626 .28799439 .44140626 .15899658 .44140626 .04598999 .34336854 .04598999 .21531677 .04598999 .09025574 .15299988-.009765625 .2789917-.009765625 .35899354-.009765625 .4019928 .033233644 .4269867 .058242799V-.114486698C.4269867-.15736389 .4169922-.15736389 .35198976-.15736389V-.19335938C.35198976-.19346619 .42399598-.18945313 .46598817-.18945313 .5029907-.18936157 .57199099-.19236756 .58099368-.19335938M.43099977 .14428711C.43099977 .12626648 .43099977 .12226868 .41600038 .0962677 .38598634 .04724121 .33599855 .018234253 .2849884 .018234253 .20199585 .018234253 .13699341 .10826111 .13699341 .21430969 .13699341 .33135987 .21598816 .4093933 .29599 .4093933 .37998963 .4093933 .43099977 .32736207 .43099977 .2713318V.14428711Z"/>
<path id="font_7_109" d="M.58999636 0V.035995485C.522995 .035995485 .5149994 .042999269 .5149994 .092056278V.44140626L.36099244 .43052674V.39453126C.42799378 .39439393 .43598939 .3874359 .43598939 .33872987V.16749573C.43598939 .079330448 .3789978 .018234253 .30299378 .018234253 .21199036 .018234253 .20799256 .061309816 .20799256 .11239624V.44140626L.053985597 .43052674V.39453126C.1289978 .39453126 .1289978 .39154054 .1289978 .30273438V.15246582C.1289978 .083343509 .1289978-.009765625 .29599-.009765625 .31799317-.009765625 .3909912-.009765625 .43899537 .07432556H.43998719V-.009765625L.58999636 0Z"/>
<path id="font_7_47" d="M.58099368 0V.035995485C.5139923 .035995485 .5059967 .042999269 .5059967 .09202576V.69433596L.35598756 .6826172V.64660647C.4229889 .64660647 .43099977 .6396332 .43099977 .5908203V.3843689C.3939972 .4203949 .34599305 .44140626 .29100038 .44140626 .1579895 .44140626 .04598999 .34132386 .04598999 .21520996 .04598999 .09008789 .1519928-.009765625 .2789917-.009765625 .36099244-.009765625 .4099884 .03414917 .4269867 .05206299V-.009765625L.58099368 0M.4269867 .10499573C.40098573 .05807495 .34999085 .018234253 .2849884 .018234253 .22898865 .018234253 .18899536 .051071168 .16899109 .080078128 .14898682 .11010742 .13699341 .15014649 .13699341 .21421814 .13699341 .23724365 .13699341 .3123169 .17799378 .35932923 .21798706 .40438844 .2669983 .4133911 .29599 .4133911 .34399415 .4133911 .3869934 .39137269 .4149933 .35533143 .4269867 .33932496 .4269867 .33833314 .4269867 .31933595V.10499573Z"/>
<path id="font_7_34" d="M.7279968 .1829071C.7279968 .26985169 .6399994 .34379579 .5179901 .35679627 .6159973 .37478639 .69799807 .43574525 .69799807 .5126953 .69799807 .6026459 .59298709 .6826172 .45399476 .6826172H.05999756V.64660647H.083999637C.16099549 .64660647 .16299439 .63661196 .16299439 .6016388V.080963138C.16299439 .04698181 .16099549 .035995485 .083999637 .035995485H.05999756V0H.48399354C.625-.00018310547 .7279968 .08781433 .7279968 .18281555V.1829071M.59799197 .5127106C.59799197 .4417572 .5309906 .3688202 .41600038 .3688202H.25099183V.6076355C.25099183 .63861086 .2519989 .64660647 .29899598 .64660647H.44699098C.54599 .64682009 .59799197 .57580569 .59799197 .5128174V.5127106M.625 .184906C.625 .110946658 .5589905 .035995485 .44898988 .035995485H.29899598C.2519989 .035995485 .25099183 .04399109 .25099183 .07496643V.3408203H.46398927C.56999209 .34098817 .625 .25498963 .625 .18499756V.184906Z"/>
<path id="font_7_49" d="M.7279968 .26296998H.69400027C.66799929 .11198425 .644989 .035995485 .45999146 .035995485H.3019867C.25498963 .035995485 .2539978 .04399109 .2539978 .07498169V.33496095H.35499574C.45599366 .33496095 .47099305 .30496217 .47099305 .2179718H.5049896V.48783876H.47099305C.47099305 .40092469 .45599366 .37095643 .35499574 .37095643H.2539978V.6037445C.2539978 .6347046 .25498963 .6427002 .3019867 .6427002H.45199586C.6159973 .6427002 .644989 .58872988 .6629944 .4487915H.69699099L.6669922 .67871096H.055999757V.6427002H.07998657C.15699768 .6427002 .15899658 .6327057 .15899658 .59773257V.08097839C.15899658 .04698181 .15699768 .035995485 .07998657 .035995485H.055999757V0H.68299868L.7279968 .26296998Z"/>
<path id="font_7_54" d="M.6819916 .44908143 .6519928 .67871096H.055999757V.6427002H.07998657C.15699768 .6427002 .15899658 .63272097 .15899658 .5977936V.08103943C.15899658 .04699707 .15699768 .035995485 .07998657 .035995485H.055999757V0L.20799256 .0039978029 .3829956 0V.035995485H.34799195C.2539978 .035995485 .2539978 .04901123 .2539978 .08203125V.32226563H.35099793C.45098878 .32226563 .46499635 .29223634 .46499635 .20515442H.49899293V.47503663H.46499635C.46499635 .38919068 .45098878 .3582611 .35099793 .3582611H.2539978V.603775C.2539978 .63471987 .25498963 .6427002 .3019867 .6427002H.44198609C.6029968 .6427002 .6299896 .58880618 .647995 .44908143H.6819916Z"/>
<path id="font_7_46" d="M.78900149 .33580018C.78900149 .52568057 .6380005 .6826172 .45199586 .6826172H.057998659V.64660647H.08198547C.15899658 .64660647 .16099549 .63661196 .16099549 .6016388V.080963138C.16099549 .04698181 .15899658 .035995485 .08198547 .035995485H.057998659V0H.45199586C.6359863 0 .78900149 .1479187 .78900149 .33580018M.6859894 .33580018C.6859894 .21987915 .6569977 .15991211 .621994 .11793518 .57699587 .066970828 .5049896 .035995485 .4249878 .035995485H.2999878C.25299073 .035614015 .2519989 .04360962 .2519989 .07461548V.607605C.2519989 .63861086 .25299073 .64660647 .2999878 .64660647H.42399598C.5089874 .64660647 .58299258 .6116028 .6289978 .5526123 .66999819 .49861146 .6859894 .42260743 .6859894 .3356018V.33580018Z"/>
<path id="font_7_74" d="M.96499636 0V.035995485H.94099429C.8639984 .035995485 .8619995 .04598999 .8619995 .080963138V.6016388C.8619995 .6356201 .8639984 .64660647 .94099429 .64660647H.96499636V.6826172H.79100039C.7709961 .6826172 .7619934 .6826172 .7539978 .6626129L.5139923 .095962528 .2749939 .660614C.2659912 .6826172 .2579956 .6826172 .23699951 .6826172H.06199646V.64660647H.085998538C.16299439 .64660647 .16499329 .63661196 .16499329 .6016388V.107940677C.16499329 .080963138 .16499329 .035995485 .06199646 .035995485V0C.102996829 .0029907227 .14299011 .0039978029 .18399048 .0039978029 .22499085 .0039978029 .2649994 .0029907227 .30599977 0V.035995485C.20298767 .035995485 .20298767 .080963138 .20298767 .107940677V.63461306L.20399475 .6356201 .46398927 .022994996C.46899415 .010986328 .47399903 0 .4889984 0 .49598695 0 .5049896 .0029907227 .5130005 .020996094L.7769928 .6456146 .7779999 .64460757V.080963138C.7779999 .04698181 .776001 .035995485 .69898989 .035995485H.6749878V0L.81999209 .0039978029 .96499636 0Z"/>
</defs>
<path transform="matrix(1,0,0,-1,138.6602,167.11978)" stroke-width=".19925" stroke-linecap="round" stroke-linejoin="round" fill="none" stroke="#dcdcdc" d="M-113.38724 0V136.0652"/>
<path transform="matrix(1,0,0,-1,138.6602,167.11978)" stroke-width=".19925" stroke-linecap="round" stroke-linejoin="round" fill="none" stroke="#dcdcdc" d="M-85.04042 0V136.0652"/>
<path transform="matrix(1,0,0,-1,138.6602,167.11978)" stroke-width=".19925" stroke-linecap="round" stroke-linejoin="round" fill="none" stroke="#dcdcdc" d="M-56.69362 0V136.0652"/>
<path transform="matrix(1,0,0,-1,138.6602,167.11978)" stroke-width=".19925" stroke-linecap="round" stroke-linejoin="round" fill="none" stroke="#dcdcdc" d="M-28.3468 0V136.0652"/>
<path transform="matrix(1,0,0,-1,138.6602,167.11978)" stroke-width=".19925" stroke-linecap="round" stroke-linejoin="round" fill="none" stroke="#dcdcdc" d="M0 0V136.0652"/>
<path transform="matrix(1,0,0,-1,138.6602,167.11978)" stroke-width=".19925" stroke-linecap="round" stroke-linejoin="round" fill="none" stroke="#dcdcdc" d="M28.3468 0V136.0652"/>
<path transform="matrix(1,0,0,-1,138.6602,167.11978)" stroke-width=".19925" stroke-linecap="round" stroke-linejoin="round" fill="none" stroke="#dcdcdc" d="M56.69362 0V136.0652"/>
<path transform="matrix(1,0,0,-1,138.6602,167.11978)" stroke-width=".19925" stroke-linecap="round" stroke-linejoin="round" fill="none" stroke="#dcdcdc" d="M85.04042 0V136.0652"/>
<path transform="matrix(1,0,0,-1,138.6602,167.11978)" stroke-width=".19925" stroke-linecap="round" stroke-linejoin="round" fill="none" stroke="#dcdcdc" d="M113.38724 0V136.0652"/>
<path transform="matrix(1,0,0,-1,138.6602,167.11978)" stroke-width=".19925" stroke-linecap="round" stroke-linejoin="round" fill="none" stroke="#dcdcdc" d="M-113.38724 22.67752H113.38724"/>
<path transform="matrix(1,0,0,-1,138.6602,167.11978)" stroke-width=".19925" stroke-linecap="round" stroke-linejoin="round" fill="none" stroke="#dcdcdc" d="M-113.38724 45.35506H113.38724"/>
<path transform="matrix(1,0,0,-1,138.6602,167.11978)" stroke-width=".19925" stroke-linecap="round" stroke-linejoin="round" fill="none" stroke="#dcdcdc" d="M-113.38724 68.03258H113.38724"/>
<path transform="matrix(1,0,0,-1,138.6602,167.11978)" stroke-width=".19925" stroke-linecap="round" stroke-linejoin="round" fill="none" stroke="#dcdcdc" d="M-113.38724 90.71013H113.38724"/>
<path transform="matrix(1,0,0,-1,138.6602,167.11978)" stroke-width=".19925" stroke-linecap="round" stroke-linejoin="round" fill="none" stroke="#dcdcdc" d="M-113.38724 113.38765H113.38724"/>
<path transform="matrix(1,0,0,-1,138.6602,167.11978)" stroke-width=".19925" stroke-linecap="round" stroke-linejoin="round" fill="none" stroke="#dcdcdc" d="M-113.38724 136.0652H113.38724"/>
<path transform="matrix(1,0,0,-1,138.6602,167.11978)" d="M-113.38724 0V136.0652H0V0ZM0 136.0652" fill="#b43c3c" fill-opacity=".05"/>
<path transform="matrix(1,0,0,-1,138.6602,167.11978)" stroke-width=".79701" stroke-linecap="round" stroke-dasharray="2.98883,2.98883" stroke-linejoin="round" fill="none" stroke="#646464" d="M0 0V136.0652"/>
<use data-text="E" xlink:href="#font_1_4" transform="matrix(0,-6.973848,-6.973848,-0,138.03618,100.880359)" fill="#b43c3c"/>
<use data-text="=" xlink:href="#font_2_6" transform="matrix(0,-6.973848,-6.973848,-0,138.03618,92.38042)" fill="#b43c3c"/>
<use data-text="&#x00b5;" xlink:href="#font_1_1" transform="matrix(0,-6.973848,-6.973848,-0,138.03618,83.996707)" fill="#b43c3c"/>
<path transform="matrix(1,0,0,-1,138.6602,167.11978)" stroke-width=".79701" stroke-linecap="round" stroke-linejoin="round" fill="none" stroke="#646464" d="M-113.38724 0H117.781"/>
<path transform="matrix(1,0,0,-1,253.97612,167.11978)" d="M5.44046 0 1.28699 1.5706 2.66432 0 1.28699-1.5706Z" fill="#646464"/>
<path transform="matrix(1,0,0,-1,253.97612,167.11978)" stroke-width=".79701" stroke-linecap="round" stroke-miterlimit="10" stroke-linejoin="miter" fill="none" stroke="#646464" d="M5.44046 0 1.28699 1.5706 2.66432 0 1.28699-1.5706Z"/>
<use data-text="x" xlink:href="#font_3_8" transform="matrix(8.966376,0,0,-8.966376,264.27064,169.3614)"/>
<use data-text="=" xlink:href="#font_4_5" transform="matrix(8.966376,0,0,-8.966376,272.0539,169.3614)"/>
<use data-text="(" xlink:href="#font_4_1" transform="matrix(8.966376,0,0,-8.966376,281.77348,169.3614)"/>
<use data-text="E" xlink:href="#font_3_3" transform="matrix(8.966376,0,0,-8.966376,285.36503,169.3614)"/>
<use data-text="&#x2212;" xlink:href="#font_5_1" transform="matrix(8.966376,0,0,-8.966376,294.70494,169.3614)"/>
<use data-text="&#x00b5;" xlink:href="#font_3_1" transform="matrix(8.966376,0,0,-8.966376,303.92033,169.3614)"/>
<use data-text=")" xlink:href="#font_4_2" transform="matrix(8.966376,0,0,-8.966376,309.47239,169.3614)"/>
<use data-text="/" xlink:href="#font_3_2" transform="matrix(8.966376,0,0,-8.966376,313.05616,169.3614)"/>
<use data-text="k" xlink:href="#font_3_6" transform="matrix(8.966376,0,0,-8.966376,317.65589,169.3614)"/>
<use data-text="T" xlink:href="#font_3_4" transform="matrix(8.966376,0,0,-8.966376,322.71296,169.3614)"/>
<path transform="matrix(1,0,0,-1,138.6602,167.11978)" stroke-width=".79701" stroke-linecap="round" stroke-linejoin="round" fill="none" stroke="#646464" d="M-113.38724 0V141.02571"/>
<path transform="matrix(0,-1,-1,-0,25.272965,28.559159)" d="M5.44046 0 1.28699 1.5706 2.66432 0 1.28699-1.5706Z" fill="#646464"/>
<path transform="matrix(0,-1,-1,-0,25.272965,28.559159)" stroke-width=".79701" stroke-linecap="round" stroke-miterlimit="10" stroke-linejoin="miter" fill="none" stroke="#646464" d="M5.44046 0 1.28699 1.5706 2.66432 0 1.28699-1.5706Z"/>
<use data-text="&#x27e8;" xlink:href="#font_5_2" transform="matrix(8.966376,0,0,-8.966376,18.909646,16.023026)"/>
<use data-text="n" xlink:href="#font_3_7" transform="matrix(8.966376,0,0,-8.966376,22.493409,16.023026)"/>
<use data-text="&#x27e9;" xlink:href="#font_5_3" transform="matrix(8.966376,0,0,-8.966376,28.052399,16.023026)"/>
<path transform="matrix(1,0,0,-1,138.6602,167.11978)" stroke-width=".3985" stroke-linecap="round" stroke-linejoin="round" fill="none" stroke="#646464" d="M-113.38724 0V-2.26785"/>
<use data-text="&#x2212;" xlink:href="#font_6_1" transform="matrix(6.973848,0,0,-6.973848,20.17395,177.40177)"/>
<use data-text="4" xlink:href="#font_2_5" transform="matrix(6.973848,0,0,-6.973848,26.400628,177.40177)"/>
<path transform="matrix(1,0,0,-1,138.6602,167.11978)" stroke-width=".3985" stroke-linecap="round" stroke-linejoin="round" fill="none" stroke="#646464" d="M-85.04042 0V-2.26785"/>
<use data-text="&#x2212;" xlink:href="#font_6_1" transform="matrix(6.973848,0,0,-6.973848,48.520776,177.40177)"/>
<use data-text="3" xlink:href="#font_2_4" transform="matrix(6.973848,0,0,-6.973848,54.74745,177.40177)"/>
<path transform="matrix(1,0,0,-1,138.6602,167.11978)" stroke-width=".3985" stroke-linecap="round" stroke-linejoin="round" fill="none" stroke="#646464" d="M-56.69362 0V-2.26785"/>
<use data-text="&#x2212;" xlink:href="#font_6_1" transform="matrix(6.973848,0,0,-6.973848,76.86757,177.40177)"/>
<use data-text="2" xlink:href="#font_2_3" transform="matrix(6.973848,0,0,-6.973848,83.09425,177.40177)"/>
<path transform="matrix(1,0,0,-1,138.6602,167.11978)" stroke-width=".3985" stroke-linecap="round" stroke-linejoin="round" fill="none" stroke="#646464" d="M-28.3468 0V-2.26785"/>
<use data-text="&#x2212;" xlink:href="#font_6_1" transform="matrix(6.973848,0,0,-6.973848,105.214389,177.40177)"/>
<use data-text="1" xlink:href="#font_2_2" transform="matrix(6.973848,0,0,-6.973848,111.441059,177.40177)"/>
<path transform="matrix(1,0,0,-1,138.6602,167.11978)" stroke-width=".3985" stroke-linecap="round" stroke-linejoin="round" fill="none" stroke="#646464" d="M28.3468 0V-2.26785"/>
<use data-text="1" xlink:href="#font_2_2" transform="matrix(6.973848,0,0,-6.973848,165.02136,177.40177)"/>
<path transform="matrix(1,0,0,-1,138.6602,167.11978)" stroke-width=".3985" stroke-linecap="round" stroke-linejoin="round" fill="none" stroke="#646464" d="M56.69362 0V-2.26785"/>
<use data-text="2" xlink:href="#font_2_3" transform="matrix(6.973848,0,0,-6.973848,193.36818,177.40177)"/>
<path transform="matrix(1,0,0,-1,138.6602,167.11978)" stroke-width=".3985" stroke-linecap="round" stroke-linejoin="round" fill="none" stroke="#646464" d="M85.04042 0V-2.26785"/>
<use data-text="3" xlink:href="#font_2_4" transform="matrix(6.973848,0,0,-6.973848,221.71498,177.40177)"/>
<path transform="matrix(1,0,0,-1,138.6602,167.11978)" stroke-width=".3985" stroke-linecap="round" stroke-linejoin="round" fill="none" stroke="#646464" d="M113.38724 0V-2.26785"/>
<use data-text="4" xlink:href="#font_2_5" transform="matrix(6.973848,0,0,-6.973848,250.06182,177.40177)"/>
<use data-text="0" xlink:href="#font_2_1" transform="matrix(6.973848,0,0,-6.973848,136.67458,177.40177)"/>
<path transform="matrix(1,0,0,-1,138.6602,167.11978)" stroke-width=".3985" stroke-linecap="round" stroke-linejoin="round" fill="none" stroke="#646464" d="M-113.38724 22.67752H-115.65501"/>
<use data-text="0" xlink:href="#font_7_121" transform="matrix(6.973848,0,0,-6.973848,9.296448,146.68788)"/>
<use data-text="." xlink:href="#font_7_88" transform="matrix(6.973848,0,0,-6.973848,13.2645649,146.68788)"/>
<use data-text="5" xlink:href="#font_7_56" transform="matrix(6.973848,0,0,-6.973848,15.51712,146.68788)"/>
<path transform="matrix(1,0,0,-1,138.6602,167.11978)" stroke-width=".3985" stroke-linecap="round" stroke-linejoin="round" fill="none" stroke="#646464" d="M-113.38724 45.35506H-115.65501"/>
<use data-text="1" xlink:href="#font_7_82" transform="matrix(6.973848,0,0,-6.973848,15.517204,124.08006)"/>
<path transform="matrix(1,0,0,-1,138.6602,167.11978)" stroke-width=".3985" stroke-linecap="round" stroke-linejoin="round" fill="none" stroke="#646464" d="M-113.38724 68.03258H-115.65501"/>
<use data-text="1" xlink:href="#font_7_82" transform="matrix(6.973848,0,0,-6.973848,9.296448,101.332828)"/>
<use data-text="." xlink:href="#font_7_88" transform="matrix(6.973848,0,0,-6.973848,13.2645649,101.332828)"/>
<use data-text="5" xlink:href="#font_7_56" transform="matrix(6.973848,0,0,-6.973848,15.51712,101.332828)"/>
<path transform="matrix(1,0,0,-1,138.6602,167.11978)" stroke-width=".3985" stroke-linecap="round" stroke-linejoin="round" fill="none" stroke="#646464" d="M-113.38724 90.71013H-115.65501"/>
<use data-text="2" xlink:href="#font_7_107" transform="matrix(6.973848,0,0,-6.973848,15.517204,78.72499)"/>
<path transform="matrix(1,0,0,-1,138.6602,167.11978)" stroke-width=".3985" stroke-linecap="round" stroke-linejoin="round" fill="none" stroke="#646464" d="M-113.38724 113.38765H-115.65501"/>
<use data-text="2" xlink:href="#font_7_107" transform="matrix(6.973848,0,0,-6.973848,9.296448,55.977754)"/>
<use data-text="." xlink:href="#font_7_88" transform="matrix(6.973848,0,0,-6.973848,13.2645649,55.977754)"/>
<use data-text="5" xlink:href="#font_7_56" transform="matrix(6.973848,0,0,-6.973848,15.51712,55.977754)"/>
<path transform="matrix(1,0,0,-1,138.6602,167.11978)" stroke-width=".3985" stroke-linecap="round" stroke-linejoin="round" fill="none" stroke="#646464" d="M-113.38724 136.0652H-115.65501"/>
<use data-text="3" xlink:href="#font_7_106" transform="matrix(6.973848,0,0,-6.973848,15.517204,33.3002)"/>
<path transform="matrix(1,0,0,-1,138.6602,167.11978)" stroke-width=".79701" stroke-linecap="round" stroke-dasharray="2.98883,2.98883" stroke-linejoin="round" fill="none" stroke="#787878" d="M-31.14185 136.05826-30.10246 131.15914-29.06308 126.43858-28.02368 121.8848-26.9843 117.4971-25.9449 113.26654-24.90552 109.18889-23.86613 105.258-22.82675 101.46823-21.78737 97.81621-20.74797 94.29362-19.70859 90.89836-18.66919 87.62698-17.6298 84.47116-16.59041 81.43163-15.55103 78.49866-14.51163 75.67294-13.47224 72.94832-12.43286 70.32193-11.39346 67.79105-10.35408 65.35013-9.31468 62.99713-8.2753 60.72855-7.2359 58.54301-6.19653 56.43498-5.15714 54.40309-4.11775 52.44524-3.07837 50.5566-2.03897 48.73715-.99959 46.98209 .03978 45.30243 1.07916 43.66917 2.11856 42.09474 3.15794 40.57982 4.19734 39.11887 5.23672 37.71259 6.27611 36.35612 7.3155 35.0447 8.35489 33.78374 9.39429 32.56778 10.43367 31.39265 11.47307 30.26323 12.51244 29.17459 13.55182 28.12198 14.59122 27.11018 15.6306 26.13506 16.67 25.19594 17.70938 24.28864 18.74878 23.41316 19.78816 22.56953 20.82756 21.75706 21.86694 20.97224 22.90633 20.21931 23.94572 19.48917 24.9851 18.79019 26.0245 18.11404 27.06389 17.46072 28.10329 16.83028 29.14267 16.22678 30.18205 15.64198 31.22144 15.07933 32.26082 14.5347 33.30022 14.0129 34.3396 13.50488 35.379 13.01976 36.41838 12.55261 37.45778 12.09862 38.49716 11.66333 39.53656 11.24602 40.57594 10.83768 41.61533 10.44736 42.65472 10.07088 43.6941 9.70825 44.7335 9.35873 45.77289 9.02309 46.81229 8.69646 47.85167 8.38293 48.89105 8.08397 49.93044 7.7933 50.96982 7.51233 52.00922 7.24034 53.0486 6.98152 54.088 6.72754 55.12738 6.48668 56.16678 6.25137 57.20616 6.02853 58.24554 5.81122 59.28494 5.6022 60.32433 5.39806 61.36372 5.2029 62.4031 5.01744 63.4425 4.83542 64.48189 4.66309 65.52129 4.49562 66.56065 4.33229 67.60004 4.17796 68.63943 4.02364 69.67882 3.88313 70.71822 3.74266 71.7576 3.60632 72.797 3.47482 73.83638 3.35233 74.87578 3.22981 75.91516 3.11148 76.95454 3.00284 77.99394 2.8942 79.03333 2.78969 80.07272 2.69002 81.1121 2.58968 82.1515 2.499 83.19089 2.40836 84.23029 2.32254 85.26965 2.23602 86.30904 2.15921 87.34843 2.07756 88.38782 2.00487 89.42722 1.93222 90.4666 1.8644 91.506 1.79587 92.54538 1.7329 93.58476 1.66925 94.62416 1.6104 95.66354 1.55089 96.70294 1.49207 97.74232 1.44223 98.78172 1.38756 99.8211 1.33774 100.8605 1.2879 101.89989 1.24292 102.93925 1.19725 103.97865 1.1564 105.01804 1.11557 106.05743 1.07475 107.09682 1.03392 108.13622 .99792 109.1756 .96124 110.215 .92526 111.25438 .89343 112.29376 .86159 113.33316 .82974"/>
<path transform="matrix(1,0,0,-1,138.6602,167.11978)" stroke-width="1.19553" stroke-linecap="round" stroke-linejoin="round" fill="none" stroke="#c83228" d="M-113.38724 44.5384-111.96115 44.50243-110.53506 44.45259-109.10898 44.4069-107.68292 44.36194-106.25684 44.30725-104.83075 44.26642-103.40468 44.20277-101.9786 44.14392-100.55252 44.08511-99.12645 44.02144-97.70038 43.95363-96.27429 43.88994-94.8482 43.81313-93.42213 43.73145-91.99606 43.6498-90.56998 43.56815-89.1439 43.48647-87.71782 43.39098-86.29175 43.28717-84.86568 43.1958-83.43959 43.08716-82.0135 42.97366-80.58745 42.86084-79.16136 42.73836-77.73528 42.60687-76.30919 42.4795-74.88313 42.33902-73.45705 42.19856-72.03096 42.04422-70.6049 41.88503-69.17882 41.7224-67.75273 41.55006-66.32666 41.36806-64.90059 41.18259-63.4745 40.98743-62.04842 40.78328-60.62234 40.5701-59.19627 40.34796-57.77019 40.12996-56.34412 39.88496-54.91803 39.63998-53.49196 39.386-52.06589 39.11887-50.6398 38.84204-49.21371 38.55623-47.78766 38.2614-46.36157 37.95341-44.93549 37.63577-43.50941 37.30911-42.08334 36.97345-40.65726 36.62881-39.23117 36.26132-37.80511 35.89384-36.37903 35.51321-34.95294 35.11389-33.52687 34.71457-32.1008 34.2931-30.67471 33.8758-29.24863 33.43564-27.82256 32.98648-26.39648 32.5332-24.9704 32.0612-23.54433 31.58505-22.11824 31.09508-20.69217 30.60094-19.2661 30.09296-17.84001 29.58084-16.41394 29.06317-14.98787 28.53719-13.56178 27.9974-12.1357 27.45343-10.70963 26.90462-9.28355 26.35098-7.85747 25.798-6.43138 25.23537-5.00533 24.66858-3.57924 24.10179-2.15315 23.53499-.72708 22.96748 .69896 22.39651 2.12505 21.82487 3.55113 21.25807 4.9772 20.68643 6.40327 20.12518 7.82936 19.56462 9.25543 19.0082 10.6815 18.45525 12.10759 17.90503 13.53366 17.36385 14.95975 16.82889 16.38582 16.30222 17.81189 15.77834 19.23798 15.26343 20.66406 14.76031 22.09013 14.26341 23.5162 13.77481 24.94229 13.29935 26.36838 12.83014 27.79443 12.37408 29.22052 11.92493 30.6466 11.48822 32.07268 11.06122 33.49875 10.64668 34.92484 10.24251 36.35092 9.84871 37.77698 9.46672 39.20306 9.09506 40.62915 8.73587 42.05522 8.38362 43.4813 8.04662 44.90738 7.71994 46.33345 7.40295 47.75954 7.09569 49.18561 6.80019 50.61168 6.51367 52.03777 6.23825 53.46385 5.97249 54.88992 5.71712 56.316 5.47005 57.74208 5.23267 59.16817 5.00427 60.59422 4.78491 62.02031 4.57382 63.4464 4.37105 64.87245 4.17659 66.29854 3.98903 67.72462 3.81046 69.15071 3.63815 70.57677 3.47273 72.00285 3.31566 73.42894 3.16408 74.85501 3.01945 76.28108 2.88034 77.70717 2.74747 79.13324 2.62082 80.55933 2.499 81.9854 2.38274 83.41147 2.27202 84.83755 2.16544 86.26364 2.06439 87.68971 1.96753 89.11578 1.87477 90.54187 1.7862 91.96794 1.70245 93.39401 1.62146 94.8201 1.54465 96.24619 1.4713 97.67224 1.40138 99.09833 1.33498 100.52441 1.27129 101.9505 1.21039 103.37656 1.15225 104.80264 1.0976 106.22873 1.045 107.6548 .99446 109.08087 .94673 110.50696 .90105 111.93303 .85812 113.35912 .81662"/>
<path transform="matrix(1,0,0,-1,138.6602,167.11978)" stroke-width="1.19553" stroke-linecap="round" stroke-linejoin="round" fill="none" stroke="#1e5ab4" d="M8.16371 135.92607 8.75153 125.41501 9.33934 116.24655 9.92715 108.17087 10.51498 101.00317 11.1028 94.60228 11.69061 88.86992 12.27844 83.68013 12.86626 78.97066 13.45407 74.67915 14.04189 70.76 14.62973 67.15297 15.21754 63.83243 15.80536 60.77007 16.39317 57.92984 16.981 55.28961 17.56882 52.83554 18.15663 50.53998 18.74446 48.39388 19.33228 46.38414 19.92009 44.50243 20.5079 42.72865 21.09573 41.05527 21.68355 39.47734 22.27136 37.98941 22.85919 36.58315 23.447 35.25021 24.03482 33.98027 24.62263 32.77818 25.21046 31.64389 25.79828 30.55112 26.3861 29.51715 26.9739 28.5282 27.56174 27.58978 28.14955 26.68665 28.73737 25.82985 29.3252 25.00423 29.91301 24.21944 30.50082 23.4623 31.08865 22.74118 31.67648 22.04704 32.2643 21.38058 32.85211 20.74112 33.43994 20.12865 34.02776 19.539 34.61557 18.96803 35.20338 18.42201 35.79121 17.89465 36.37903 17.3853 36.96684 16.8967 37.55467 16.42403 38.14249 15.96864 38.7303 15.52919 39.31812 15.10426 39.90594 14.69386 40.49376 14.29662 41.08157 13.91391 41.66939 13.54156 42.25722 13.18309 42.84503 12.8357 43.43285 12.50002 44.02068 12.17683 44.60849 11.86057 45.1963 11.55469 45.78412 11.25847 46.37195 10.97194 46.95976 10.69305 47.54759 10.42314 48.13542 10.16154 48.72324 9.90755 49.31105 9.66049 49.89886 9.42242 50.4867 9.1892 51.07451 8.96288 51.66232 8.74487 52.25014 8.53102 52.83797 8.32343 53.42578 8.12132 54.0136 7.92618 54.60143 7.73586 55.18924 7.55038 55.77705 7.37044 56.36487 7.19536 56.9527 7.0251 57.54051 6.85832 58.12833 6.69775 58.71616 6.53928 59.30397 6.38565 59.89178 6.23686 60.4796 6.0922 61.06743 5.95033 61.65524 5.81332 62.24306 5.67906 62.83087 5.54756 63.41872 5.4202 64.00653 5.29633 64.59435 5.17522 65.18217 5.05688 65.76999 4.942 66.3578 4.83058 66.94562 4.72054 67.53345 4.61395 68.12126 4.50946 68.70908 4.40773 69.2969 4.30875 69.88472 4.21187 70.47253 4.11845 71.06035 4.0264 71.64818 3.93712 72.236 3.84853 72.8238 3.76273 73.41162 3.67897 73.99945 3.59799 74.58727 3.51773 75.17508 3.44093 75.76291 3.36479 76.35072 3.29074 76.93854 3.21875 77.52635 3.14749 78.11418 3.07896 78.702 3.01112 79.28981 2.94539 79.87766 2.88103 80.46547 2.81805 81.05328 2.75714 81.6411 2.69695 82.22893 2.63881 82.81674 2.58136 83.40456 2.52533 83.99239 2.47064 84.5802 2.41803 85.16801 2.36476 85.75583 2.31422 86.34366 2.2644 86.93147 2.21527 87.51929 2.1682 88.1071 2.12114 88.69493 2.07617 89.28275 2.03117 89.87056 1.98827 90.45839 1.94536 91.0462 1.90384 91.63402 1.86299 92.22183 1.82355 92.80966 1.78413 93.39748 1.74606 93.98529 1.70938 94.57312 1.6727 95.16093 1.63739 95.74875 1.60211 96.33658 1.56818 96.92441 1.53499 97.51222 1.50244 98.10004 1.47061 98.68785 1.43945 99.27568 1.409 99.8635 1.37926 100.45131 1.35019 101.03914 1.32181 101.62695 1.29413 102.21477 1.26645 102.80258 1.23946 103.39041 1.21385 103.97823 1.18825 104.56604 1.16264 105.15387 1.13841 105.74168 1.1142 106.3295 1.09134 106.91731 1.06853 107.50514 1.04568 108.09296 1.02353 108.68077 1.00208 109.26859 .98131 109.85641 .96056 110.44423 .94049 111.03204 .92111 111.61987 .90173 112.2077 .88304 112.79552 .86436 113.38333 .84636"/>
<path transform="matrix(1,0,0,-1,138.6602,167.11978)" stroke-width="1.19553" stroke-linecap="round" stroke-linejoin="round" fill="none" stroke="#1e5ab4" d="M8.16371 136.0652 6.30515 136.69004"/>
<path transform="matrix(-.94783,-.31862,-.31862,.94783,148.00972,31.453125)" d="M6.66628 0 1.93044 1.79556 3.5108 0 1.93044-1.79556Z" fill="#1e5ab4"/>
<path transform="matrix(-.94783,-.31862,-.31862,.94783,148.00972,31.453125)" stroke-width="1.19553" stroke-linecap="round" stroke-miterlimit="10" stroke-linejoin="miter" fill="none" stroke="#1e5ab4" d="M6.66628 0 1.93044 1.79556 3.5108 0 1.93044-1.79556Z"/>
<path transform="matrix(1,0,0,-1,138.6602,167.11978)" d="M1.59404 22.67752C1.59404 24.08612 .88037 25.228 0 25.228-.88037 25.228-1.59404 24.08612-1.59404 22.67752-1.59404 21.2689-.88037 20.12703 0 20.12703 .88037 20.12703 1.59404 21.2689 1.59404 22.67752ZM0 22.67752" fill="#c83228"/>
<path transform="matrix(1,0,0,-1,138.6602,167.11978)" stroke-width=".3985" stroke-linecap="round" stroke-linejoin="round" fill="none" stroke="#c83228" d="M1.59404 22.67752C1.59404 24.08612 .88037 25.228 0 25.228-.88037 25.228-1.59404 24.08612-1.59404 22.67752-1.59404 21.2689-.88037 20.12703 0 20.12703 .88037 20.12703 1.59404 21.2689 1.59404 22.67752ZM0 22.67752"/>
<use data-text="1" xlink:href="#font_2_2" transform="matrix(6.973848,0,0,-6.973848,147.28223,140.74338)" fill="#c83228"/>
<use data-text="/" xlink:href="#font_1_3" transform="matrix(6.973848,0,0,-6.973848,151.25345,140.74338)" fill="#c83228"/>
<use data-text="2" xlink:href="#font_2_3" transform="matrix(6.973848,0,0,-6.973848,155.33539,140.74338)" fill="#c83228"/>
<use data-text="f" xlink:href="#font_7_125" transform="matrix(6.973848,0,0,-6.973848,161.99158,140.74338)" fill="#c83228"/>
<use data-text="l" xlink:href="#font_7_72" transform="matrix(6.973848,0,0,-6.973848,166.50366,140.74338)" fill="#c83228"/>
<use data-text="l" xlink:href="#font_7_72" transform="matrix(6.973848,0,0,-6.973848,168.75621,140.74338)" fill="#c83228"/>
<use data-text="i" xlink:href="#font_7_66" transform="matrix(6.973848,0,0,-6.973848,171.00876,140.74338)" fill="#c83228"/>
<use data-text="n" xlink:href="#font_7_77" transform="matrix(6.973848,0,0,-6.973848,173.26132,140.74338)" fill="#c83228"/>
<use data-text="g" xlink:href="#font_7_59" transform="matrix(6.973848,0,0,-6.973848,177.66182,140.74338)" fill="#c83228"/>
<use data-text="B" xlink:href="#font_8_34" transform="matrix(8.966376,0,0,-8.966376,157.77085,62.868066)" fill="#1e5ab4"/>
<use data-text="E" xlink:href="#font_8_49" transform="matrix(8.966376,0,0,-8.966376,164.29837,62.868066)" fill="#1e5ab4"/>
<use data-text=":" xlink:href="#font_8_44" transform="matrix(8.966376,0,0,-8.966376,170.56586,62.868066)" fill="#1e5ab4"/>
<use data-text="1" xlink:href="#font_4_4" transform="matrix(8.966376,0,0,-8.966376,187.50998,57.069169)" fill="#1e5ab4"/>
<path transform="matrix(1,0,0,-1,91.11064,-32.249635)" stroke-width=".378585" stroke-linecap="butt" stroke-linejoin="round" fill="none" stroke="#1e5ab4" d="M86.29059-92.87611H111.11576"/>
<use data-text="e" xlink:href="#font_3_5" transform="matrix(8.966376,0,0,-8.966376,177.40123,68.949268)" fill="#1e5ab4"/>
<use data-text="x" xlink:href="#font_9_1" transform="matrix(5.977584,0,0,-5.977584,181.68549,66.37559)" fill="#1e5ab4"/>
<use data-text="&#x2212;" xlink:href="#font_5_1" transform="matrix(8.966376,0,0,-8.966376,188.40332,68.949268)" fill="#1e5ab4"/>
<use data-text="1" xlink:href="#font_4_4" transform="matrix(8.966376,0,0,-8.966376,197.61869,68.949268)" fill="#1e5ab4"/>
<use data-text="F" xlink:href="#font_8_54" transform="matrix(8.966376,0,0,-8.966376,31.627655,130.90067)" fill="#c83228"/>
<use data-text="D" xlink:href="#font_8_46" transform="matrix(8.966376,0,0,-8.966376,37.644098,130.90067)" fill="#c83228"/>
<use data-text=":" xlink:href="#font_8_44" transform="matrix(8.966376,0,0,-8.966376,44.6827,130.90067)" fill="#c83228"/>
<use data-text="1" xlink:href="#font_4_4" transform="matrix(8.966376,0,0,-8.966376,61.6268,125.10176)" fill="#c83228"/>
<path transform="matrix(1,0,0,-1,-35.032548,35.782964)" stroke-width=".378585" stroke-linecap="butt" stroke-linejoin="round" fill="none" stroke="#c83228" d="M86.5506-92.87611H111.37577"/>
<use data-text="e" xlink:href="#font_3_5" transform="matrix(8.966376,0,0,-8.966376,51.51805,136.98186)" fill="#c83228"/>
<use data-text="x" xlink:href="#font_9_1" transform="matrix(5.977584,0,0,-5.977584,55.802309,134.40819)" fill="#c83228"/>
<use data-text="+" xlink:href="#font_4_3" transform="matrix(8.966376,0,0,-8.966376,62.520135,136.98186)" fill="#c83228"/>
<use data-text="1" xlink:href="#font_4_4" transform="matrix(8.966376,0,0,-8.966376,71.7286,136.98186)" fill="#c83228"/>
<use data-text="M" xlink:href="#font_8_74" transform="matrix(8.966376,0,0,-8.966376,181.86537,127.846668)" fill="#787878"/>
<use data-text="B" xlink:href="#font_8_34" transform="matrix(8.966376,0,0,-8.966376,190.3117,127.846668)" fill="#787878"/>
<use data-text=":" xlink:href="#font_8_44" transform="matrix(8.966376,0,0,-8.966376,196.83922,127.846668)" fill="#787878"/>
<use data-text="e" xlink:href="#font_3_5" transform="matrix(8.966376,0,0,-8.966376,202.47908,127.846668)" fill="#787878"/>
<use data-text="&#x2212;" xlink:href="#font_10_1" transform="matrix(5.977584,0,0,-5.977584,206.76334,124.03766)" fill="#787878"/>
<use data-text="x" xlink:href="#font_9_1" transform="matrix(5.977584,0,0,-5.977584,212.51949,124.03766)" fill="#787878"/>
<use data-text="&#x00b5;" xlink:href="#font_1_1" transform="matrix(6.973848,0,0,-6.973848,96.30922,46.91764)" fill="#b43c3c"/>
<use data-text="&#x003c;" xlink:href="#font_1_2" transform="matrix(6.973848,0,0,-6.973848,103.41557,46.91764)" fill="#b43c3c"/>
<use data-text="E" xlink:href="#font_1_4" transform="matrix(6.973848,0,0,-6.973848,111.902759,46.91764)" fill="#b43c3c"/>
<use data-text="m" xlink:href="#font_11_2" transform="matrix(4.98132,0,0,-4.98132,117.764438,47.913904)" fill="#b43c3c"/>
<use data-text="i" xlink:href="#font_11_1" transform="matrix(4.98132,0,0,-4.98132,123.22894,47.913904)" fill="#b43c3c"/>
<use data-text="n" xlink:href="#font_11_3" transform="matrix(4.98132,0,0,-4.98132,125.23143,47.913904)" fill="#b43c3c"/>
<use data-text="r" xlink:href="#font_7_96" transform="matrix(6.973848,0,0,-6.973848,100.92673,54.88775)" fill="#b43c3c"/>
<use data-text="e" xlink:href="#font_7_50" transform="matrix(6.973848,0,0,-6.973848,104.03706,54.88775)" fill="#b43c3c"/>
<use data-text="q" xlink:href="#font_7_91" transform="matrix(6.973848,0,0,-6.973848,107.57979,54.88775)" fill="#b43c3c"/>
<use data-text="u" xlink:href="#font_7_109" transform="matrix(6.973848,0,0,-6.973848,111.7641,54.88775)" fill="#b43c3c"/>
<use data-text="i" xlink:href="#font_7_66" transform="matrix(6.973848,0,0,-6.973848,116.1646,54.88775)" fill="#b43c3c"/>
<use data-text="r" xlink:href="#font_7_96" transform="matrix(6.973848,0,0,-6.973848,118.417148,54.88775)" fill="#b43c3c"/>
<use data-text="e" xlink:href="#font_7_50" transform="matrix(6.973848,0,0,-6.973848,121.52748,54.88775)" fill="#b43c3c"/>
<use data-text="d" xlink:href="#font_7_47" transform="matrix(6.973848,0,0,-6.973848,125.070209,54.88775)" fill="#b43c3c"/>
<path transform="matrix(1,0,0,-1,138.6602,167.11978)" d="M53.85876 115.38025V134.07262C53.85876 135.17308 54.75084 136.06517 55.85132 136.06517H109.97725C111.07771 136.06517 111.9698 135.17308 111.9698 134.07262V115.38025C111.9698 114.27977 111.07771 113.3877 109.97725 113.3877H55.85132C54.75084 113.3877 53.85876 114.27977 53.85876 115.38025ZM111.9698 136.06517" fill="#ffffff"/>
<path transform="matrix(1,0,0,-1,138.6602,167.11978)" stroke-width=".3985" stroke-linecap="round" stroke-linejoin="round" fill="none" stroke="#646464" d="M53.85876 115.38025V134.07262C53.85876 135.17308 54.75084 136.06517 55.85132 136.06517H109.97725C111.07771 136.06517 111.9698 135.17308 111.9698 134.07262V115.38025C111.9698 114.27977 111.07771 113.3877 109.97725 113.3877H55.85132C54.75084 113.3877 53.85876 114.27977 53.85876 115.38025ZM111.9698 136.06517"/>
<path transform="matrix(1,0,0,-1,138.6602,167.11978)" stroke-width="1.19553" stroke-linecap="round" stroke-linejoin="round" fill="none" stroke="#1e5ab4" d="M58.11102 129.26219H69.44957"/>
<use data-text="B" xlink:href="#font_7_34" transform="matrix(6.973848,0,0,-6.973848,213.04705,40.239206)"/>
<use data-text="E" xlink:href="#font_7_49" transform="matrix(6.973848,0,0,-6.973848,218.61914,40.239206)"/>
<path transform="matrix(1,0,0,-1,138.6602,167.11978)" stroke-width="1.19553" stroke-linecap="round" stroke-linejoin="round" fill="none" stroke="#c83228" d="M58.11102 123.8191H69.44957"/>
<use data-text="F" xlink:href="#font_7_54" transform="matrix(6.973848,0,0,-6.973848,213.04705,45.68228)"/>
<use data-text="D" xlink:href="#font_7_46" transform="matrix(6.973848,0,0,-6.973848,218.18677,45.68228)"/>
<path transform="matrix(1,0,0,-1,138.6602,167.11978)" stroke-width=".79701" stroke-linecap="round" stroke-dasharray="2.98883,2.98883" stroke-linejoin="round" fill="none" stroke="#787878" d="M58.11102 118.37674H69.44957"/>
<use data-text="M" xlink:href="#font_7_74" transform="matrix(6.973848,0,0,-6.973848,213.04705,51.12465)"/>
<use data-text="B" xlink:href="#font_7_34" transform="matrix(6.973848,0,0,-6.973848,220.21616,51.12465)"/>
</svg>
