<svg xmlns="http://www.w3.org/2000/svg" xmlns:xlink="http://www.w3.org/1999/xlink" xmlns:inkscape="http://www.inkscape.org/namespaces/inkscape" version="1.1" width="313.19" height="181.57" viewBox="0 0 313.19 181.57">
<defs>
<path id="font_1_2" d="M.54100039 .6096039C.548996 .64260867 .5509949 .6516113 .60598757 .6516113 .621994 .6516113 .6329956 .6516113 .6329956 .6706085 .6329956 .6796112 .6269989 .6826172 .61898806 .6826172 .59399417 .6826172 .5329895 .6796112 .5079956 .6796112 .47499085 .6796112 .3939972 .6826172 .36099244 .6826172 .35198976 .6826172 .33999635 .6826172 .33999635 .6626129 .33999635 .6516113 .34799195 .6516113 .37399293 .6516113 .39698792 .6516113 .40699769 .6516113 .43199159 .6496124 .45599366 .64660647 .46299745 .64360049 .46299745 .62960818 .46299745 .62361147 .46099855 .61660769 .45899964 .60861209L.34399415 .1496582C.31999208 .052642824 .2519989-.00047302247 .19999695-.00047302247 .17399597-.00047302247 .12098694 .009552002 .10499573 .061660768 .10798645 .060653688 .114990238 .060653688 .116989139 .060653688 .1559906 .060653688 .18199158 .09465027 .18199158 .12464905 .18199158 .15666199 .15499878 .1666565 .13798523 .1666565 .11999512 .1666565 .070999149 .15466309 .070999149 .08665466 .070999149 .02458191 .12399292-.022460938 .20298767-.022460938 .29499818-.022460938 .39898683 .043624879 .42399598 .14265442L.54100039 .6096039Z"/>
<path id="font_2_5" d="M.32398988 .6253052C.32398988 .64131167 .31199647 .66329959 .28399659 .66329959 .25698854 .66329959 .22799683 .6372986 .22799683 .6083069 .22799683 .5913086 .24099732 .5703125 .2679901 .5703125 .29699708 .5703125 .32398988 .5983124 .32398988 .6253052M.11999512 .117263797C.115997318 .104263309 .11099243 .09225464 .11099243 .07525635 .11099243 .02822876 .15098572-.009765625 .20599365-.009765625 .30599977-.009765625 .34999085 .12828064 .34999085 .14328003 .34999085 .15628052 .33699037 .15628052 .33399964 .15628052 .31999208 .15628052 .31900025 .15028382 .31498719 .13928223 .2919922 .059249879 .24798584 .018234253 .20899964 .018234253 .18899536 .018234253 .18399048 .031234742 .18399048 .053237916 .18399048 .07624817 .19099427 .09526062 .19999695 .117263797 .20999146 .14428711 .22099304 .17129517 .23199463 .1973114 .24099732 .22131348 .2769928 .3123474 .2809906 .32435609 .28399659 .33436585 .2869873 .3463745 .2869873 .35636903 .2869873 .4033966 .24699402 .44140626 .19198609 .44140626 .09298706 .44140626 .04699707 .3053589 .04699707 .28834535 .04699707 .27534486 .06098938 .27534486 .06399536 .27534486 .07798767 .27534486 .07899475 .28033448 .08198547 .29135133 .10798645 .37738038 .1519928 .4133911 .18899536 .4133911 .20498657 .4133911 .21398926 .4053955 .21398926 .37838746 .21398926 .3553772 .20799256 .34036256 .18299866 .27833558L.11999512 .117263797Z"/>
<path id="font_3_3" d="M.68699648 .32714845C.70199587 .32714845 .72099307 .32714845 .72099307 .34713746 .72099307 .36714173 .70199587 .36714173 .6879883 .36714173H.08898926C.07499695 .36714173 .055999757 .36714173 .055999757 .34713746 .055999757 .32714845 .07499695 .32714845 .08999634 .32714845H.68699648M.6879883 .13284302C.70199587 .13284302 .72099307 .13284302 .72099307 .15284729 .72099307 .17285156 .70199587 .17285156 .68699648 .17285156H.08999634C.07499695 .17285156 .055999757 .17285156 .055999757 .15284729 .055999757 .13284302 .07499695 .13284302 .08898926 .13284302H.6879883Z"/>
<path id="font_4_1" d="M1.2659912-1.4003906 1.3869934-1.0803223H1.3619995C1.322998-1.1843567 1.2169952-1.2523804 1.1019898-1.2823944 1.0809937-1.287384 .9830017-1.3134003 .79100039-1.3134003H.18798828L.69699099-.71621707C.70399478-.7082062 .70599368-.7052002 .70599368-.7002106 .70599368-.69821169 .70599368-.6952057 .69898989-.6851959L.23298645-.04800415H.7809906C.9149933-.04800415 1.0059967-.06199646 1.0149994-.06401062 1.0690003-.072006229 1.1559906-.089019779 1.2350006-.13902283 1.2599945-.1550293 1.3279877-.20004273 1.3619995-.2810669H1.3869934L1.2659912 0H.083999637C.06098938 0 .05999756-.0010070801 .056991579-.007003784 .055999757-.010009766 .055999757-.029006958 .055999757-.040008546L.58499148-.7642212 .066986087-1.3713989C.056991579-1.3833923 .056991579-1.3883972 .056991579-1.3894043 .056991579-1.4003906 .06599426-1.4003906 .083999637-1.4003906H1.2659912Z"/>
<path id="font_2_6" d="M.43899537 .6253052C.43899537 .64230349 .42599488 .66329959 .39898683 .66329959 .36999513 .66329959 .34298707 .6352997 .34298707 .6083069 .34298707 .5923004 .35499574 .5703125 .3829956 .5703125 .4099884 .5703125 .43899537 .5962982 .43899537 .6253052M.22698975-.04901123C.20999146-.11804199 .15699768-.17610169 .09799194-.17610169 .084991458-.17610169 .07299805-.17408753 .06199646-.17004395 .08799744-.15803528 .09599304-.1340332 .09599304-.11903381 .09599304-.09503174 .07699585-.08203125 .056991579-.08203125 .025985718-.08203125 0-.10903931 0-.14103699 0-.17910767 .038986207-.20410156 .09899902-.20410156 .15899658-.20410156 .27598573-.16804505 .30699159-.04600525L.39698792 .31230165C.3999939 .32331849 .4019928 .33232118 .4019928 .34733583 .4019928 .40238954 .35499574 .44140626 .29499818 .44140626 .18399048 .44140626 .11999512 .30230714 .11999512 .2882843 .11999512 .27526856 .13398743 .27526856 .13699341 .27526856 .14898682 .27526856 .1499939 .27827455 .15699768 .29328919 .18199158 .35134889 .23399353 .4133911 .2919922 .4133911 .31698609 .4133911 .32598878 .39637757 .32598878 .36434938 .32598878 .35334779 .32398988 .33932496 .32299806 .33433534L.22698975-.04901123Z"/>
<path id="font_1_3" d="M.37399293 .6046295C.3829956 .64060977 .38598634 .6516113 .47999574 .6516113 .5099945 .6516113 .5179901 .6516113 .5179901 .6706085 .5179901 .6826172 .5069885 .6826172 .5019989 .6826172 .46899415 .6826172 .3869934 .6796112 .35398866 .6796112 .32398988 .6796112 .25099183 .6826172 .22099304 .6826172 .21398926 .6826172 .20199585 .6826172 .20199585 .6626129 .20199585 .6516113 .21099854 .6516113 .22999573 .6516113 .23199463 .6516113 .25099183 .6516113 .2679901 .6496124 .28599549 .6476135 .29499818 .64660647 .29499818 .6336212 .29499818 .6296234 .2939911 .62661746 .29100038 .614624L.15699768 .07795715C.14698792 .038986207 .14498902 .0309906 .06599426 .0309906 .04899597 .0309906 .038986207 .0309906 .038986207 .010986328 .038986207 0 .04798889 0 .06599426 0H.5289917C.5529938 0 .55400088 0 .55999758 .016998291L.6389923 .23286438C.6429901 .24386597 .6429901 .24586487 .6429901 .24685669 .6429901 .2508545 .6399994 .25785829 .6309967 .25785829 .621994 .25785829 .62098696 .2528534 .6139984 .23686219 .5799866 .14492798 .5359955 .0309906 .36299134 .0309906H.2689972C.25498963 .0309906 .25299073 .0309906 .24699402 .03199768 .23699951 .032989503 .23399353 .033996583 .23399353 .041992189 .23399353 .04498291 .23399353 .04698181 .23899842 .064971927L.37399293 .6046295Z"/>
<path id="font_1_7" d="M.4850006 .41075135 .40098573 .6096344C.397995 .61763 .3959961 .6216278 .3959961 .6226196 .3959961 .62861636 .41299439 .6476135 .45498658 .6516113 .46499635 .65260317 .47499085 .6536102 .47499085 .6706085 .47499085 .6826172 .46299745 .6826172 .45999146 .6826172 .4189911 .6826172 .37599183 .6796112 .33399964 .6796112 .30899049 .6796112 .24699402 .6826172 .22200012 .6826172 .21598816 .6826172 .20399475 .6826172 .20399475 .6626129 .20399475 .6516113 .21398926 .6516113 .22698975 .6516113 .2869873 .6516113 .29299928 .6416168 .3019867 .6196289L.41999818 .34080506 .20899964 .11393738 .19599915 .10295105C.14698792 .049987794 .099990848 .033996583 .04899597 .0309906 .035995485 .02999878 .026992798 .02999878 .026992798 .010986328 .026992798 .009994507 .026992798 0 .039993287 0 .069992069 0 .102996829 .0029907227 .13398743 .0029907227 .17098999 .0029907227 .20999146 0 .24598694 0 .2519989 0 .2639923 0 .2639923 .019989014 .2639923 .02999878 .2539978 .0309906 .2519989 .0309906 .24299622 .03199768 .21199036 .033996583 .21199036 .061965944 .21199036 .07795715 .22698975 .093948367 .23899842 .10694885L.34098817 .21487427 .43099977 .31282044 .5319977 .07395935C.5359955 .06297302 .5369873 .061965944 .5369873 .05996704 .5369873 .051986696 .5179901 .034988405 .47898866 .0309906 .46798707 .02999878 .45899964 .0289917 .45899964 .011993408 .45899964 0 .46998597 0 .47399903 0 .5019989 0 .57199099 .0029907227 .59999087 .0029907227 .625 .0029907227 .6859894 0 .71099856 0 .71798709 0 .7299957 0 .7299957 .018997193 .7299957 .0309906 .7200012 .0309906 .71199038 .0309906 .644989 .03199768 .6429901 .034988405 .6259918 .07496643 .58699038 .16790772 .519989 .32380677 .49699403 .3837738 .5649872 .45373536 .66999819 .5726471 .70199587 .6006317 .73098757 .62461856 .7689972 .64860537 .82899478 .6516113 .84199526 .65260317 .8509979 .65260317 .8509979 .6716156 .8509979 .6726074 .8509979 .6826172 .83799746 .6826172 .80799868 .6826172 .7749939 .6796112 .74398806 .6796112 .70700076 .6796112 .6689911 .6826172 .6329956 .6826172 .6269989 .6826172 .6139984 .6826172 .6139984 .6626129 .6139984 .65560916 .61898806 .65260317 .6259918 .6516113 .6349945 .65060427 .66600039 .64860537 .66600039 .6206207 .66600039 .6066284 .6549988 .5936432 .6469879 .5846405L.4850006 .41075135Z"/>
<path id="font_5_34" d="M.6380005 .18299866C.6380005 .2639923 .5649872 .34399415 .44599916 .35699464 .54100039 .37478639 .6100006 .43873597 .6100006 .5137024 .6100006 .5996399 .522995 .6826172 .3919983 .6826172H.042999269V.6536102H.06298828C.1349945 .6536102 .13798523 .6436157 .13798523 .6066437V.07595825C.13798523 .038986207 .1349945 .0289917 .06298828 .0289917H.042999269V0H.4189911C.5479889 0 .6380005 .08694458 .6380005 .18286133V.18299866M.5219879 .5136566C.5219879 .44769288 .46998597 .36471559 .35899354 .36471559H.21398926V.61361697C.21398926 .64660647 .21598816 .6536102 .2599945 .6536102H.38598634C.48599244 .6536102 .5219879 .5676422 .5219879 .5136566M.5469971 .18385315C.5469971 .10293579 .48599244 .0289917 .3880005 .0289917H.2599945C.21598816 .0289917 .21398926 .035980226 .21398926 .06895447V.34472657H.40098573C.49699403 .34472657 .5469971 .26078797 .5469971 .18385315Z"/>
<path id="font_5_66" d="M.24099732 0V.0289917C.17599488 .0289917 .17199707 .033996583 .17199707 .07304382V.44140626L.035995485 .4303589V.4013672C.099990848 .4013672 .10899353 .39535523 .10899353 .34629823V.074035648C.10899353 .0289917 .09799194 .0289917 .032989503 .0289917V0C.06098938 .0019989014 .10899353 .0019989014 .13798523 .0019989014 .14898682 .0019989014 .20698548 .0019989014 .24099732 0M.18499756 .6043091C.18499756 .63430789 .16099549 .6533203 .13699341 .6533203 .10899353 .6533203 .08799744 .63131716 .08799744 .6043091 .08799744 .5783081 .10998535 .55630496 .13598633 .55630496 .1659851 .55630496 .18499756 .580307 .18499756 .6043091Z"/>
<path id="font_6_1" d="M.28199769 .20405579C.2979889 .21907044 .33999635 .2520752 .35598756 .26608277 .41799928 .32312013 .47698976 .3781433 .47698976 .46917726 .47698976 .588089 .3769989 .66503909 .2519989 .66503909 .13198853 .66503909 .052993776 .57411196 .052993776 .48516847 .052993776 .4361725 .09199524 .4291687 .10598755 .4291687 .1269989 .4291687 .1579895 .4441681 .1579895 .48217774 .1579895 .5341797 .10798645 .5341797 .09599304 .5341797 .125 .6070709 .19198609 .6320343 .24099732 .6320343 .33399964 .6320343 .38198854 .55314639 .38198854 .46917726 .38198854 .36514283 .30899049 .28910829 .19099427 .16804505L.06498718 .037994386C.052993776 .026992798 .052993776 .024993897 .052993776 0H.44799806L.47698976 .17904663H.44599916C.44299317 .1590271 .43499757 .10900879 .4229889 .08999634 .4169922 .08198547 .34098817 .08198547 .32499696 .08198547H.14698792L.28199769 .20405579Z"/>
<path id="font_5_104" d="M.67099 .45480348 .6529999 .6777344H.052993776L.034988405 .45480348H.056991579C.070999149 .6127472 .07998657 .6487274 .23799134 .6487274 .2559967 .6487274 .28399659 .6487274 .2919922 .6467285 .31199647 .64372256 .31298829 .6317291 .31298829 .6087494V.07696533C.31298829 .04298401 .31298829 .0289917 .21499634 .0289917H.1789856V0C.21099854 .0019989014 .31399537 .0019989014 .35299684 .0019989014 .3919983 .0019989014 .49598695 .0019989014 .5279999 0V.0289917H.49198915C.3939972 .0289917 .3939972 .04298401 .3939972 .07696533V.6087494C.3939972 .633728 .3959961 .6427307 .4119873 .6467285 .41999818 .6487274 .44898988 .6487274 .46798707 .6487274 .6259918 .6487274 .6349945 .6127472 .6489868 .45480348H.67099Z"/>
<path id="font_5_50" d="M.40699769 .11932373C.40699769 .1253357 .4019928 .1293335 .3959961 .1293335 .3880005 .1293335 .38598634 .12432861 .38398744 .11932373 .35798646 .035247804 .29100038 .01222229 .24899292 .01222229 .20698548 .01222229 .10598755 .040252687 .10598755 .21340943V.23242188H.3829956C.40499879 .23242188 .40699769 .23242188 .40699769 .25141908 .40699769 .3523407 .35299684 .44628907 .23199463 .44628907 .117996219 .44628907 .02999878 .34335328 .02999878 .21940613 .02999878 .08729553 .13198853-.009765625 .24299622-.009765625 .3619995-.009765625 .40699769 .09829712 .40699769 .11932373M.34498597 .25141908H.10699463C.114990238 .40830995 .20298767 .42630006 .23098755 .42630006 .33799745 .42630006 .34399415 .28538514 .34498597 .25141908Z"/>
<path id="font_6_2" d="M.25299073 .33370973C.33198548 .33370973 .38198854 .27557374 .38198854 .17037964 .38198854 .045440675 .31098939 .008514404 .2579956 .008514404 .20298767 .008514404 .12799073 .0284729 .09298706 .08137512 .1289978 .08137512 .1539917 .10437012 .1539917 .13737488 .1539917 .16937256 .1309967 .19238281 .09899902 .19238281 .07199097 .19238281 .04399109 .17536927 .04399109 .13537598 .04399109 .04045105 .1459961-.021484375 .2599945-.021484375 .3929901-.021484375 .48599244 .070388797 .48599244 .17037964 .48599244 .25352479 .41999818 .32969667 .31799317 .3517456 .39698792 .37982179 .45599366 .4479828 .45599366 .52804568 .45599366 .6080475 .3659973 .66503909 .2619934 .66503909 .15499878 .66503909 .07398987 .6070404 .07398987 .53105166 .07398987 .49404908 .09899902 .4780426 .125 .4780426 .1559906 .4780426 .17599488 .5000458 .17599488 .52905276 .17599488 .56604006 .14399719 .5800476 .12199402 .5810547 .1639862 .6360321 .24099732 .6390381 .25898744 .6390381 .2849884 .6390381 .36099244 .6310272 .36099244 .52804568 .36099244 .45799256 .33198548 .41589356 .31799317 .39985658 .28799439 .36878968 .2649994 .36679078 .20399475 .3627777 .18499756 .36177064 .1769867 .36076356 .1769867 .3477478 .1769867 .33370973 .18598938 .33370973 .20298767 .33370973H.25299073Z"/>
<path id="font_1_5" d="M.4269867 .6066284C.43399049 .63461306 .43798829 .64060977 .44999696 .6436157 .45899964 .6456146 .49198915 .6456146 .5130005 .6456146 .6139984 .6456146 .6589966 .6416168 .6589966 .56365969 .6589966 .54867556 .6549988 .50968936 .651001 .4837036 .6499939 .4797058 .647995 .4677124 .647995 .46472169 .647995 .45872499 .651001 .45173646 .6599884 .45173646 .67099 .45173646 .6729889 .45973207 .6749878 .4747162L.70199587 .64860537C.7029877 .65260317 .70399478 .6626129 .70399478 .66560366 .70399478 .6766052 .69400027 .6766052 .6769867 .6766052H.12199402C.09799194 .6766052 .09700012 .6756134 .08999634 .6566162L.02999878 .4807129C.0289917 .478714 .023986817 .46472169 .023986817 .46272279 .023986817 .45672608 .0289917 .45173646 .035995485 .45173646 .04598999 .45173646 .04699707 .45672608 .052993776 .4727173 .10699463 .6276245 .1329956 .6456146 .2809906 .6456146H.31999208C.34799195 .6456146 .34799195 .6416168 .34799195 .6336212 .34799195 .6276245 .34498597 .6156311 .34399415 .6126251L.20999146 .07896423C.20098877 .041992189 .19799805 .0309906 .09098816 .0309906 .054992677 .0309906 .04899597 .0309906 .04899597 .011993408 .04899597 0 .05999756 0 .06599426 0 .09298706 0 .12098694 .0019989014 .147995 .0019989014 .17599488 .0019989014 .20498657 .0029907227 .23298645 .0029907227 .26098634 .0029907227 .2889862 .0019989014 .31599427 .0019989014 .34498597 .0019989014 .375 0 .40299989 0 .41299439 0 .4249878 0 .4249878 .019989014 .4249878 .0309906 .4169922 .0309906 .3909912 .0309906 .3659973 .0309906 .35299684 .0309906 .32699586 .032989503 .2979889 .035995485 .2899933 .038986207 .2899933 .054977418 .2899933 .05596924 .2899933 .06097412 .2939911 .07595825L.4269867 .6066284Z"/>
<path id="font_7_1" d="M.33499146 .63612368C.33499146 .6630554 .33299256 .6640625 .30499269 .6640625 .24099732 .6014404 .1499939 .6004486 .10899353 .6004486V.5644531C.1329956 .5644531 .19898987 .5644531 .2539978 .592453V.08203125C.2539978 .04899597 .2539978 .035995485 .1539917 .035995485H.115997318V0C.13398743 .0009918213 .25698854 .0039978029 .2939911 .0039978029 .32499696 .0039978029 .45098878 .0009918213 .47299195 0V.035995485H.43499757C.33499146 .035995485 .33499146 .04899597 .33499146 .08203125V.63612368Z"/>
<path id="font_1_6" d="M.6279907 .5686035C.6769867 .64660647 .71899417 .6496124 .7559967 .6516113 .7679901 .65260317 .7689972 .6696167 .7689972 .6706085 .7689972 .6786041 .7639923 .6826172 .7559967 .6826172 .7299957 .6826172 .70098879 .6796112 .673996 .6796112 .6409912 .6796112 .6069946 .6826172 .57499697 .6826172 .56900027 .6826172 .55599978 .6826172 .55599978 .66360476 .55599978 .65260317 .5649872 .6516113 .57199099 .6516113 .598999 .6496124 .6179962 .63960269 .6179962 .61860659 .6179962 .6036072 .6029968 .581604 .6029968 .5805969L.29599 .092544559 .22799683 .62161257C.22799683 .63861086 .25099183 .6516113 .29699708 .6516113 .31098939 .6516113 .32199098 .6516113 .32199098 .6716156 .32199098 .680603 .31399537 .6826172 .30799867 .6826172 .2679901 .6826172 .22499085 .6796112 .18399048 .6796112 .1659851 .6796112 .14698792 .680603 .1289978 .680603 .11099243 .680603 .09199524 .6826172 .07499695 .6826172 .067993167 .6826172 .055999757 .6826172 .055999757 .66360476 .055999757 .6516113 .06498718 .6516113 .08099365 .6516113 .13699341 .6516113 .13798523 .64260867 .14099121 .6175995L.21998596 .0005340576C.22299195-.019470215 .22698975-.022460938 .23999024-.022460938 .2559967-.022460938 .2599945-.017471314 .2679901-.004470825L.6279907 .5686035Z"/>
<path id="font_7_2" d="M.5049896 .18203736H.47099305C.46798707 .16001892 .45799256 .100997928 .44499208 .09098816 .43699647 .084991458 .3600006 .084991458 .34599305 .084991458H.1619873C.2669983 .17803955 .3019867 .20603943 .3619995 .25306703 .43598939 .312088 .5049896 .374115 .5049896 .46914674 .5049896 .5900879 .39898683 .6640625 .2709961 .6640625 .14698792 .6640625 .06298828 .57710269 .06298828 .4851532 .06298828 .43414308 .10598755 .42915345 .115997318 .42915345 .13999939 .42915345 .16899109 .44615174 .16899109 .48214723 .16899109 .5001526 .1619873 .53515627 .10998535 .53515627 .14099121 .6060791 .20899964 .62805178 .2559967 .62805178 .35598756 .62805178 .4079895 .5501404 .4079895 .46914674 .4079895 .38212586 .34599305 .3130951 .31399537 .27708436L.07299805 .038986207C.06298828 .02999878 .06298828 .027999878 .06298828 0H.47499085L.5049896 .18203736Z"/>
<path id="font_8_2" d="M.43899537 .6086273C.44499208 .63061526 .44699098 .64060977 .46398927 .6436157 .47200013 .6456146 .5039978 .6456146 .5249939 .6456146 .6399994 .6456146 .673996 .63861086 .673996 .56066897 .673996 .54766848 .673996 .5326843 .6649933 .4737091L.6639862 .4657135C.6639862 .45872499 .66799929 .45173646 .6779938 .45173646 .6899872 .45173646 .69200137 .46072389 .69400027 .475708L.7200012 .64860537C.72099307 .6536102 .7220001 .65960696 .7220001 .6626129 .7220001 .6766052 .71199038 .6766052 .69299319 .6766052H.12399292C.099990848 .6766052 .09899902 .6756134 .09199524 .6566162L.02999878 .4807129C.025985718 .4677124 .025985718 .4657135 .025985718 .46472169 .025985718 .45973207 .0289917 .45173646 .038986207 .45173646 .049987794 .45173646 .051986696 .45773316 .057998659 .475708 .11299133 .6316223 .14399719 .6456146 .2889862 .6456146H.32798768C.35598756 .6456146 .35598756 .64260867 .35598756 .63461306 .35598756 .62861636 .35398866 .6216278 .35198976 .6136322L.21798706 .07896423C.20899964 .04298401 .20599365 .0309906 .099990848 .0309906 .067993167 .0309906 .05899048 .0309906 .05899048 .0129852299 .05899048 0 .07199097 0 .07598877 0 .101989749 0 .1309967 .0019989014 .1579895 .0019989014 .18598938 .0019989014 .21499634 .0029907227 .24299622 .0029907227 .2869873 .0029907227 .2889862 .0029907227 .32598878 .0019989014 .33898927 .0019989014 .40499879 0 .41299439 0 .42199708 0 .43399049 0 .43399049 .017990113 .43399049 .0309906 .4249878 .0309906 .3999939 .0309906 .375 .0309906 .36299134 .0309906 .33599855 .032989503 .31298829 .035995485 .30099488 .036987306 .30099488 .053985597 .30099488 .05897522 .30299378 .066970828 .30499269 .07395935L.43899537 .6086273Z"/>
<path id="font_9_1" d="M.35899354 .6349335C.35899354 .66503909 .35499574 .66503909 .32499696 .66503909 .25898744 .60058596 .15699768 .60058596 .12098694 .60058596V.5615845C.14698792 .5615845 .21299744 .5615845 .272995 .58958438V.08496094C.272995 .051986696 .272995 .038986207 .16999817 .038986207H.1269989V0C.18199158 .0039978029 .2599945 .0039978029 .31599427 .0039978029 .37199403 .0039978029 .44999696 .0039978029 .5049896 0V.038986207H.46199037C.35899354 .038986207 .35899354 .051986696 .35899354 .08496094V.6349335Z"/>
<path id="font_8_1" d="M.69200137 .22721863C.7029877 .23220825 .71199038 .23721314 .71199038 .2512207 .71199038 .2642212 .70098879 .2702179 .69200137 .2742157L.12799073 .5452118C.11399841 .5522156 .10899353 .5522156 .10699463 .5522156 .09399414 .5522156 .085998538 .541214 .085998538 .5312195 .085998538 .5192261 .09199524 .5142212 .10598755 .5072174L.6409912 .2512207 .10598755-.005783081C.09199524-.012786865 .085998538-.017791748 .085998538-.029785157 .085998538-.03678894 .09199524-.05078125 .10798645-.05078125 .10899353-.05078125 .11399841-.05078125 .12599182-.044784547L.69200137 .22721863Z"/>
<path id="font_9_2" d="M.5379944 .18702698H.5009918C.49899293 .17301941 .4889984 .10699463 .47399903 .09599304 .46699525 .08999634 .38598634 .08999634 .37199403 .08999634H.18499756L.31298829 .19403076C.34700013 .22103882 .43598939 .28504945 .46699525 .31506349 .49699403 .3450775 .5379944 .39608766 .5379944 .46710206 .5379944 .5920563 .4249878 .66503909 .29100038 .66503909 .1619873 .66503909 .07199097 .58006289 .07199097 .48609925 .07199097 .43510438 .114990238 .42910768 .12599182 .42910768 .15098572 .42910768 .17999268 .44709779 .17999268 .48310853 .17999268 .50509646 .16699219 .5371094 .12298584 .5371094 .1459961 .5880585 .20698548 .6260376 .27598573 .6260376 .3809967 .6260376 .43699647 .5480957 .43699647 .46710206 .43699647 .39608766 .3899994 .32305909 .31999208 .25904847L.08299255 .041992189C.07299805 .03199768 .07199097 .0309906 .07199097 0H.5069885L.5379944 .18702698Z"/>
<path id="font_1_1" d="M.37399293 .6056366C.3829956 .6416168 .38598634 .6516113 .46499635 .6516113 .4889984 .6516113 .49699403 .6516113 .49699403 .6706085 .49699403 .6826172 .48599244 .6826172 .48199464 .6826172 .45298768 .6826172 .3789978 .6796112 .34999085 .6796112 .31999208 .6796112 .24699402 .6826172 .21699524 .6826172 .20999146 .6826172 .19699097 .6826172 .19699097 .6626129 .19699097 .6516113 .20599365 .6516113 .22499085 .6516113 .2669983 .6516113 .2939911 .6516113 .2939911 .63261416 .2939911 .6276245 .2939911 .6256256 .2919922 .6166229L.15699768 .07795715C.147995 .040985109 .14498902 .0309906 .06599426 .0309906 .042999269 .0309906 .033996583 .0309906 .033996583 .010986328 .033996583 0 .04598999 0 .04899597 0 .07798767 0 .15098572 .0029907227 .17999268 .0029907227 .20999146 .0029907227 .28399659 0 .31399537 0 .32199098 0 .33399964 0 .33399964 .018997193 .33399964 .0309906 .32598878 .0309906 .3039856 .0309906 .28599549 .0309906 .2809906 .0309906 .26098634 .032989503 .23999024 .034988405 .23599243 .038986207 .23599243 .049987794 .23599243 .05796814 .23799134 .065963748 .23999024 .07296753L.37399293 .6056366Z"/>
<path id="font_2_2" d="M.46499635-.060012819C.46499635-.12535095 .47799684-.19433594 .55999758-.19433594 .68099978-.19433594 .7389984-.021560669 .7389984 .00045776368 .7389984 .007461548 .73298647 .014465332 .72499087 .014465332 .71499636 .014465332 .71199038 .0054626467 .71099856 .0014648438 .68699648-.069107059 .62098696-.08934021 .58699038-.08934021 .5469971-.08934021 .526001-.072143558 .5079956 .008468628 .6859894 .07141113 .82899478 .24832154 .82899478 .42523194 .82899478 .5821686 .71598818 .703125 .5389862 .703125 .2999878 .703125 .068984989 .47920228 .068984989 .25431825 .068984989 .09338379 .18798828-.01953125 .3600006-.01953125 .3789978-.01953125 .41299439-.018539429 .46499635-.0055389406V-.060012819M.2919922 .02545166C.23999024 .043426515 .1659851 .09538269 .1659851 .22932434 .1659851 .29328919 .18699646 .426239 .27799989 .5391846 .34098817 .6161499 .43798829 .67111209 .5309906 .67111209 .6399994 .67111209 .7319946 .5981598 .7319946 .45222474 .7319946 .3522644 .68299868 .13735962 .5 .046432496 .48399354 .109375 .45799256 .15136719 .39898683 .15136719 .34298707 .15136719 .28799439 .10437012 .28799439 .05142212 .28799439 .033447267 .2889862 .032440187 .2919922 .02545166M.46499635 .030441285C.44299317 .022445679 .4059906 .012466431 .36698915 .012466431 .35099793 .012466431 .31599427 .012466431 .31599427 .05142212 .31599427 .08938599 .35699464 .12335205 .39898683 .12335205 .43499757 .12335205 .46199037 .1073761 .46499635 .030441285Z"/>
<path id="font_2_1" d="M.7919922 .23097229C.7979889 .24395752 .7979889 .24797058 .7979889 .2489624 .7979889 .2549591 .7939911 .26296998 .7809906 .26296998 .7789917 .26296998 .7739868 .26296998 .769989 .2589569 .7679901 .256958 .7669983 .2559662 .7549896 .22996521 .6899872 .08598328 .6389923 .035995485 .47599793 .035995485H.30599977C.2749939 .035995485 .27398683 .036987306 .27398683 .04598999 .27398683 .04699707 .27398683 .051986696 .27799989 .066986087L.34498597 .33496095H.45700074C.5359955 .33496095 .5479889 .32196046 .5479889 .2889557 .5479889 .2779541 .54499819 .2609558 .54100039 .24395752 .5379944 .2349701 .5379944 .23396302 .5379944 .23196411 .5379944 .22996521 .5389862 .2179718 .5549927 .2179718 .56900027 .2179718 .56999209 .22296143 .57398989 .23995972L.6289978 .45884706C.6319885 .4708252 .6319885 .4728241 .6319885 .47381593 .6319885 .48381043 .6239929 .48780824 .61499026 .48780824 .60198977 .48780824 .6009979 .4828186 .59498599 .46183778 .57398989 .38394166 .5439911 .37095643 .45899964 .37095643H.35398866L.4139862 .60865786C.42199708 .6396179 .4229889 .64260867 .46499635 .64260867H.6279907C.7589874 .64260867 .7919922 .61564639 .7919922 .52674868 .7919922 .50079348 .7879944 .4708252 .7879944 .46583558 .7879944 .45783998 .79100039 .44885255 .8049927 .44885255 .81999209 .44885255 .82099917 .45783998 .82299807 .474823L.84098818 .64860537C.84399417 .6786041 .83699038 .6786041 .81199648 .6786041H.2619934C.24198914 .6786041 .22999573 .6786041 .22999573 .6566162 .22999573 .64260867 .24099732 .64260867 .2630005 .64260867 .2789917 .64260867 .2829895 .64260867 .30099488 .64060977 .32099916 .63861086 .32299806 .63661196 .32299806 .6266327 .32299806 .61964419 .31999208 .60964968 .31900025 .60466006L.18798828 .08198547C.17799378 .04298401 .1769867 .035995485 .09899902 .035995485 .08099365 .035995485 .068984989 .035995485 .068984989 .01399231 .068984989 0 .08099365 0 .09899902 0H.6639862C.68899539 0 .6899872 0 .69799807 .017990113L.7919922 .23097229Z"/>
<path id="font_3_2" d="M.40899659 .23046875H.6879883C.70199587 .23046875 .72099307 .23046875 .72099307 .25045777 .72099307 .27046205 .70199587 .27046205 .6879883 .27046205H.40899659V.5500183C.40899659 .56399539 .40899659 .5830078 .3889923 .5830078 .36898805 .5830078 .36898805 .56399539 .36898805 .5500183V.27046205H.08898926C.07499695 .27046205 .055999757 .27046205 .055999757 .25045777 .055999757 .23046875 .07499695 .23046875 .08898926 .23046875H.36898805V-.05000305C.36898805-.06401062 .36898805-.08300781 .3889923-.08300781 .40899659-.08300781 .40899659-.06401062 .40899659-.05000305V.23046875Z"/>
<path id="font_2_4" d="M.70700076 .57369998C.71699526 .61265566 .73298647 .64460757 .8129883 .64660647 .81799319 .64660647 .83299258 .6476135 .83299258 .6686096 .83299258 .6746063 .8279877 .6826172 .81799319 .6826172 .7859955 .6826172 .7480011 .6786041 .71499636 .6786041 .6819916 .6786041 .6399994 .6826172 .6100006 .6826172 .6049957 .6826172 .58999636 .6826172 .58999636 .660614 .58999636 .6476135 .6029968 .64660647 .6119995 .64660647 .6589966 .6456146 .6759949 .6306305 .6759949 .6056671 .6759949 .60066226 .6749878 .5956726 .673996 .5916748 .6589966 .5267639 .58599856 .22618103 .57299807 .19522095 .5169983 .06739807 .3999939 .016464234 .31799317 .016464234 .25099183 .016464234 .17999268 .05041504 .17999268 .14927674 .17999268 .17324829 .18299866 .19721985 .18899536 .22018433L.28599549 .60466006C.29499818 .63861086 .29699708 .64660647 .37399293 .64660647 .3909912 .64660647 .4039917 .64660647 .4039917 .6686096 .4039917 .6726074 .40098573 .6826172 .3880005 .6826172 .35899354 .6826172 .28599549 .6786041 .25698854 .6786041 .23999024 .6786041 .20498657 .6786041 .18798828 .6796112 .16799927 .680603 .14399719 .6826172 .125 .6826172 .11898804 .6826172 .10398865 .6826172 .10398865 .660614 .10398865 .64660647 .115997318 .64660647 .13598633 .64660647 .13699341 .64660647 .1559906 .64660647 .17399597 .64460757 .19499207 .64260867 .19699097 .64060977 .19699097 .6306305 .19699097 .6246338 .18699646 .58569338 .18099976 .5637207L.15899658 .47584535 .101989749 .2471466C.09199524 .20620728 .09199524 .19821167 .09199524 .17823792 .09199524 .05441284 .19400025-.01953125 .31399537-.01953125 .45199586-.01953125 .58599856 .09236145 .61898806 .22317505L.70700076 .57369998Z"/>
<path id="font_2_3" d="M.48599244 .6046295C.49299623 .63360598 .49499513 .63661196 .5169983 .63861086 .5219879 .63960269 .5569916 .63960269 .57699587 .63960269 .6380005 .63960269 .6639862 .63960269 .68899539 .63160708 .73399356 .61761477 .73599246 .5886383 .73599246 .5526581 .73599246 .53666689 .73599246 .52368167 .72898867 .4717102L.72698977 .46072389C.72698977 .45072938 .73399356 .4457245 .74398806 .4457245 .7589874 .4457245 .7609863 .45472718 .7630005 .47071839L.7899933 .66160586C.7899933 .6756134 .7779999 .6756134 .7599945 .6756134H.14498902C.11999512 .6756134 .117996219 .6756134 .11099243 .65460208L.04798889 .4777069C.04699707 .4737091 .042999269 .46472169 .042999269 .4597168 .042999269 .455719 .04499817 .4457245 .05999756 .4457245 .07299805 .4457245 .07499695 .45072938 .08099365 .4697113 .13899231 .62960818 .17199707 .63960269 .32398988 .63960269H.3659973C.3959961 .63960269 .39698792 .63861086 .39698792 .62960818 .39698792 .62861636 .39698792 .62361147 .3929901 .6086273L.26098634 .082962039C.2519989 .04598999 .24899292 .035995485 .14399719 .035995485 .10798645 .035995485 .09899902 .035995485 .09899902 .01399231 .09899902 .010986328 .100997928 0 .115997318 0 .14399719 0 .17399597 .0029907227 .20199585 .0029907227 .22999573 .0029907227 .2599945 .0039978029 .28799439 .0039978029 .31599427 .0039978029 .34999085 .0039978029 .37799073 .0029907227 .40499879 .0019989014 .43499757 0 .46199037 0 .46998597 0 .4850006 0 .4850006 .021987915 .4850006 .035995485 .47499085 .035995485 .44400025 .035995485 .4249878 .035995485 .40499879 .036987306 .38598634 .037994386 .35198976 .040985109 .34999085 .04498291 .34999085 .05697632 .34999085 .0639801 .34999085 .065979007 .35398866 .07997131L.48599244 .6046295Z"/>
<path id="font_10_1" d="M.44099427 .6175537C.44499208 .631546 .44599916 .63253787 .44799806 .6335449 .44999696 .63453677 .46699525 .63853457 .5189972 .63853457H.5519867C.57199099 .63853457 .58799746 .63853457 .58799746 .6675415 .58799746 .6855469 .56900027 .6855469 .5649872 .6855469 .5359955 .6855469 .5059967 .6835327 .47599793 .6835327 .44799806 .6835327 .41999818 .6825409 .3919983 .6825409 .3639984 .6825409 .33599855 .6835327 .30899049 .6835327 .2829895 .6835327 .25698854 .6855469 .23199463 .6855469 .22299195 .6855469 .20298767 .6855469 .20298767 .6565399 .20298767 .63853457 .21598816 .63853457 .24499512 .63853457 .2659912 .63853457 .2849884 .6375427 .30599977 .63653567L.16299439 .066970828C.15899658 .050994874 .1579895 .049987794 .13999939 .04798889 .12298584 .04699707 .102996829 .04699707 .08699036 .04699707 .06098938 .04699707 .05899048 .04699707 .054992677 .04499817 .042999269 .037994386 .042999269 .021987915 .042999269 .017990113 .042999269 0 .06098938 0 .07699585 0H.58299258C.6100006 0 .61099246 0 .61898806 .021987915 .6299896 .049987794 .70700076 .24684143 .70700076 .25582887 .70700076 .270813 .69200137 .27381898 .68299868 .27381898 .66600039 .27381898 .6639862 .26982118 .6559906 .24884033 .6279907 .17889405 .57299807 .04699707 .40299989 .04699707H.32299806C.30799867 .04699707 .30599977 .04699707 .29899598 .04798889L.44099427 .6175537Z"/>
<path id="font_11_2" d="M.83799746 .61654666C.86499026 .62953189 .9039917 .62953189 .9149933 .62953189 .93499758 .62953189 .95599368 .62953189 .95599368 .6635437 .95599368 .6755371 .94599917 .6855469 .9339905 .6855469 .9079895 .6855469 .84399417 .6815338 .81799319 .6815338 .79100039 .6815338 .723999 .6855469 .69699099 .6855469 .6719971 .6855469 .6669922 .6655426 .6669922 .65153506 .6669922 .62953189 .68899539 .62953189 .69999697 .62953189 .73999026 .62953189 .7559967 .62454226 .7659912 .62153628L.6689911 .23609925C.6329956 .09429932 .5079956 .040374757 .37998963 .040374757 .2869873 .040374757 .21998596 .06933594 .21998596 .15222168 .21998596 .1592102 .21998596 .17918396 .22999573 .21911621L.33099366 .62654116C.33699037 .62654116 .36698915 .62953189 .3869934 .62953189H.40699769C.4249878 .62953189 .44699098 .62953189 .44699098 .6635437 .44699098 .6745453 .43798829 .6855469 .42399598 .6855469 .3999939 .6855469 .37399293 .6825409 .34999085 .6825409 .32699586 .6825409 .2939911 .6815338 .2709961 .6815338L.19400025 .6825409C.16799927 .6825409 .13999939 .6855469 .114990238 .6855469 .10699463 .6855469 .08299255 .6855469 .08299255 .65153506 .08299255 .62953189 .10398865 .62953189 .11999512 .62953189H.13999939C.18199158 .62953189 .18199158 .62753298 .18199158 .62454226 .18199158 .61854556 .14898682 .48872376 .14399719 .47175599 .12599182 .40185548 .09498596 .28103639 .08299255 .22610474 .07798767 .20414734 .07798767 .20314026 .07798767 .18417359 .07798767 .079315189 .16299439-.015625 .37298585-.015625 .59399417-.015625 .70999148 .107284549 .73999026 .22511292L.83799746 .61654666Z"/>
<path id="font_11_1" d="M.58599856 .014389038C.83200076 .09843445 .9059906 .3103485 .9059906 .43327333 .9059906 .6131592 .769989 .70214846 .57598879 .70214846 .23298645 .70214846 .06498718 .44126893 .06498718 .24838257 .06498718 .07241821 .19898987-.015609741 .39698792-.015609741 .45098878-.015609741 .49598695-.0076141359 .5039978-.0066070558 .5109863-.099349979 .5179901-.19433594 .6199951-.19433594 .7480011-.19433594 .81599429-.031173706 .81599429 .00039672853 .81599429 .012390137 .80599978 .022384644 .7939911 .022384644 .7799988 .022384644 .7749939 .011398315 .7709961 .0023956299 .7589874-.02909851 .70899966-.035339357 .6669922-.035339357 .6409912-.035339357 .61499026-.035339357 .58599856 .014389038M.30599977 .055404664C.23699951 .08642578 .21099854 .14543152 .21099854 .21940613 .21099854 .26637269 .23399353 .44126893 .32798768 .54719546 .39898683 .6261444 .49198915 .6511383 .5629883 .6511383 .59498599 .6511383 .6579895 .6471405 .70799258 .6021576 .7480011 .56718447 .7599945 .5132141 .7599945 .46424867 .7599945 .44726563 .7489929 .16444397 .55599978 .07040405 .5349884 .108444217 .5049896 .16043091 .43399049 .16043091 .3909912 .16043091 .30599977 .13543701 .30599977 .055404664M.49798585 .0473938C.45298768 .03538513 .41999818 .03538513 .40899659 .03538513 .3880005 .03538513 .35198976 .03538513 .35198976 .061401369 .35198976 .091430667 .3939972 .11444092 .43399049 .11444092 .46398927 .11444092 .4889984 .10443115 .49798585 .0473938Z"/>
<path id="font_12_1" d="M.7879944 .33203126C.7999878 .33203126 .82899478 .33203126 .82899478 .36203004 .82899478 .39302064 .7979889 .39302064 .7829895 .39302064H.10998535C.09498596 .39302064 .06399536 .39302064 .06399536 .36203004 .06399536 .33203126 .09298706 .33203126 .10499573 .33203126H.7879944M.7829895 .107940677C.7979889 .107940677 .82899478 .107940677 .82899478 .13893128 .82899478 .16894531 .7999878 .16894531 .7879944 .16894531H.10499573C.09298706 .16894531 .06399536 .16894531 .06399536 .13893128 .06399536 .107940677 .09498596 .107940677 .10998535 .107940677H.7829895Z"/>
<path id="font_3_1" d="M.61299136 .6016388C.61299136 .637619 .61499026 .64860537 .69200137 .64860537H.71598818V.6796112H.032989503V.64860537H.056991579C.13398743 .64860537 .13598633 .637619 .13598633 .6016388V.07795715C.13598633 .041992189 .13398743 .0309906 .056991579 .0309906H.032989503V0C.067993167 .0029907227 .14199829 .0029907227 .17999268 .0029907227 .21798706 .0029907227 .29299928 .0029907227 .32798768 0V.0309906H.3039856C.22698975 .0309906 .22499085 .041992189 .22499085 .07795715V.64860537H.5239868V.07795715C.5239868 .041992189 .5219879 .0309906 .44499208 .0309906H.42099V0C.45599366 .0029907227 .5299988 .0029907227 .56799319 .0029907227 .60598757 .0029907227 .68099978 .0029907227 .71598818 0V.0309906H.69200137C.61499026 .0309906 .61299136 .041992189 .61299136 .07795715V.6016388Z"/>
<path id="font_1_4" d="M.644989 .69506838C.644989 .69807437 .6429901 .7050781 .6339874 .7050781 .6289978 .7050781 .6279907 .70407107 .6159973 .6900635L.56799319 .6330414C.5419922 .68006899 .48999024 .7050781 .4249878 .7050781 .2979889 .7050781 .17799378 .58999636 .17799378 .4689026 .17799378 .38783265 .23098755 .34179688 .28199769 .32678224L.3889923 .2987671C.42599488 .2897644 .48098756 .27474977 .48098756 .19267273 .48098756 .1026001 .39898683 .008529663 .30099488 .008529663 .23699951 .008529663 .12599182 .030548096 .12599182 .15464783 .12599182 .17866516 .1309967 .2026825 .13198853 .20869446 .1329956 .21269226 .13398743 .21369934 .13398743 .21569824 .13398743 .22570801 .1269989 .22669983 .12199402 .22669983 .116989139 .22669983 .114990238 .22570801 .11199951 .22270203 .10798645 .21870423 .051986696-.009475708 .051986696-.012466431 .051986696-.018463135 .056991579-.022460938 .06298828-.022460938 .067993167-.022460938 .068984989-.021469117 .08099365-.007461548L.12998963 .049560548C.17298889-.008468628 .24099732-.022460938 .29899598-.022460938 .43499757-.022460938 .5529938 .11061096 .5529938 .2347107 .5529938 .30377198 .5189972 .33779908 .5039978 .35180665 .48098756 .37483216 .46598817 .37882997 .3769989 .40185548 .35499574 .40785218 .31900025 .41786195 .30999757 .41986085 .2829895 .42886354 .24899292 .457901 .24899292 .51094058 .24899292 .59199526 .32899476 .677063 .42399598 .677063 .5069885 .677063 .56799319 .6340332 .56799319 .52194216 .56799319 .48991395 .56399539 .47190858 .56399539 .4658966 .56399539 .4649048 .56399539 .45588685 .57598879 .45588685 .58599856 .45588685 .58699038 .45889283 .59098818 .47590638L.644989 .69506838Z"/>
<path id="font_13_50" d="M.4269867 .11936951C.4269867 .12637329 .42199708 .13237 .41299439 .13237 .40299989 .13237 .3999939 .12536621 .39898683 .12136841 .36499024 .019256592 .27598573 .01725769 .26098634 .01725769 .21299744 .01725769 .17199707 .044281007 .14898682 .078323367 .115997318 .12736511 .114990238 .18743897 .114990238 .22949219H.3999939C.42199708 .22949219 .4269867 .22949219 .4269867 .25048829 .4269867 .35333253 .37098695 .4482422 .24299622 .4482422 .12298584 .4482422 .0289917 .3443451 .0289917 .22047425 .0289917 .08932495 .13398743-.0107421879 .2559967-.0107421879 .37799073-.0107421879 .4269867 .096343997 .4269867 .11936951M.35899354 .253479H.115997318C.125 .40725709 .21499634 .42323304 .24299622 .42323304 .2979889 .42323304 .35798646 .38130189 .35899354 .253479Z"/>
<path id="font_13_72" d="M.26098634 0V.0309906C.19499207 .0309906 .18399048 .0309906 .18399048 .07701111V.69433596L.035995485 .6826172V.6516113C.10398865 .6516113 .11299133 .64460757 .11299133 .5956421V.07696533C.11299133 .0309906 .101989749 .0309906 .035995485 .0309906V0C.08299255 .0019989014 .101989749 .0029907227 .147995 .0029907227 .19499207 .0029907227 .21199036 .0019989014 .26098634 0Z"/>
<path id="font_13_43" d="M.4269867 .11936951C.4269867 .13139344 .41600038 .13139344 .41299439 .13139344 .4019928 .13139344 .4019928 .12937927 .3959961 .11236572 .37298585 .043289186 .31698609 .01725769 .2659912 .01725769 .20199585 .01725769 .11999512 .06932068 .11999512 .21749878 .11999512 .3735962 .19999695 .42022706 .2599945 .42022706 .272995 .42022706 .32699586 .41825868 .3639984 .39356996 .34298707 .3895874 .32299806 .3755951 .32299806 .34658814 .32299806 .32058717 .34298707 .30059815 .36898805 .30059815 .394989 .30059815 .41600038 .31759645 .41600038 .34858705 .41600038 .4103546 .34599305 .4482422 .2579956 .4482422 .12998963 .4482422 .033996583 .3415985 .033996583 .2164917 .033996583 .08734131 .13798523-.0107421879 .2559967-.0107421879 .394989-.0107421879 .4269867 .11036682 .4269867 .11936951Z"/>
<path id="font_13_105" d="M.34199525 .12408447V.18099976H.31399537V.1270752C.31399537 .05319214 .2829895 .01725769 .24699402 .01725769 .17999268 .01725769 .17999268 .1051178 .17999268 .12309265V.3996582H.32499696V.43066407H.17999268V.6142578H.1519928C.15098572 .5304413 .115997318 .42765809 .018997193 .4246521V.3996582H.10598755V.12408447C.10598755 .012252808 .18699646-.0107421879 .23999024-.0107421879 .30699159-.011001587 .34199525 .052993776 .34199525 .12399292V.12408447Z"/>
<path id="font_13_96" d="M.37298585 .3798828C.37298585 .41236878 .34298707 .4423828 .2979889 .4423828 .23799134 .4423828 .19599915 .40037538 .17298889 .33787538H.17199707V.4423828L.02999878 .43066407V.3996582C.09799194 .3996582 .10699463 .3927307 .10699463 .34387208V.07698059C.10699463 .0309906 .09599304 .0309906 .02999878 .0309906V0C.08299255 .0019989014 .09599304 .0029907227 .14698792 .0029907227L.27398683 0V.0309906H.2539978C.18099976 .0309906 .17799378 .041992189 .17799378 .07897949V.22891236C.17799378 .26989747 .18899536 .4166565 .30299378 .4166565V.4156494C.30099488 .4146576 .2849884 .40264894 .2849884 .37887574 .2849884 .35186769 .30599977 .33486939 .32899476 .33486939 .34999085 .33486939 .37298585 .34986878 .37298585 .3798828Z"/>
<path id="font_13_66" d="M.25299073 0V.0309906C.18798828 .0309906 .18399048 .035995485 .18399048 .075042728V.4423828L.039993287 .43066407V.3996582C.10398865 .3996582 .11299133 .3936615 .11299133 .3447113V.07695007C.11299133 .0309906 .101989749 .0309906 .035995485 .0309906V0C.08099365 .0019989014 .101989749 .0029907227 .1459961 .0029907227 .1619873 .0029907227 .20399475 .0029907227 .25299073 0M.19699097 .6028137C.19699097 .63282778 .17298889 .6568146 .14299011 .6568146 .11299133 .6568146 .08898926 .63282778 .08898926 .6028137 .08898926 .57281497 .11299133 .5488281 .14299011 .5488281 .17298889 .5488281 .19699097 .57281497 .19699097 .6028137Z"/>
<path id="font_13_109" d="M.5469971 .00024414063V.03125C.47898866 .03125 .46998597 .038253786 .46998597 .087265018V.4423828L.31900025 .43138124V.40037538C.3869934 .40037538 .3959961 .39337159 .3959961 .34436036V.16729737C.3959961 .07826233 .34599305 .014251709 .27398683 .014251709 .19099427 .014251709 .18598938 .057266237 .18598938 .11128235V.4423828L.034988405 .43138124V.40037538C.11199951 .40037538 .11199951 .39736939 .11199951 .3083496V.15829468C.11199951 .09327698 .11199951 .051254274 .1579895 .01625061 .18699646-.003753662 .22799683-.0107421879 .2679901-.0107421879 .31999208-.0107421879 .36898805 .012252808 .397995 .072265628H.39898683V-.0107421879L.5469971 .00024414063Z"/>
<path id="font_13_77" d="M.5469971 0V.0309906C.49598695 .03125 .47099305 .03125 .46998597 .0622406V.25431825C.46998597 .3373413 .46998597 .36636354 .44198609 .4013672 .4189911 .42938233 .3809967 .4423828 .33099366 .4423828 .23799134 .4423828 .19499207 .37335206 .18099976 .34535218H.17999268V.4423828L.034988405 .43066407V.3996582C.102996829 .3996582 .11199951 .39266969 .11199951 .34370423V.07695007C.11199951 .0309906 .100997928 .0309906 .034988405 .0309906V0C.08198547 .0019989014 .100997928 .0029907227 .14898682 .0029907227 .19699097 .0029907227 .20999146 .0019989014 .2630005 0V.0309906C.19699097 .0309906 .18598938 .0309906 .18598938 .07695007V.25878907C.18598938 .36532594 .26098634 .41737367 .32398988 .41737367 .3829956 .41737367 .3959961 .3683319 .3959961 .30825807V.077041629C.3959961 .0309906 .3849945 .0309906 .31900025 .0309906V0C.3659973 .0019989014 .3849945 .0029907227 .43299867 .0029907227 .48098756 .0029907227 .49398805 .0019989014 .5469971 0Z"/>
<path id="font_13_63" d="M.5469971 0V.0309906C.49598695 .03125 .47099305 .03125 .46998597 .0622406V.25431825C.46998597 .3373413 .46998597 .36636354 .44198609 .4013672 .4189911 .42938233 .3809967 .4423828 .33099366 .4423828 .2639923 .4423828 .21499634 .40737916 .18399048 .35134889H.18299866V.69433596L.034988405 .6826172V.6516113C.102996829 .6516113 .11199951 .64463809 .11199951 .59580996V.077041629C.11199951 .0309906 .100997928 .0309906 .034988405 .0309906V0C.08198547 .0019989014 .100997928 .0029907227 .14898682 .0029907227 .19699097 .0029907227 .20999146 .0019989014 .2630005 0V.0309906C.19699097 .0309906 .18598938 .0309906 .18598938 .077041629V.2592163C.18598938 .36532594 .26098634 .41737367 .32398988 .41737367 .3829956 .41737367 .3959961 .3683319 .3959961 .30825807V.077041629C.3959961 .0309906 .3849945 .0309906 .31900025 .0309906V0C.3659973 .0019989014 .3849945 .0029907227 .43299867 .0029907227 .48098756 .0029907227 .49398805 .0019989014 .5469971 0Z"/>
<path id="font_13_28" d="M.49699403 .089141849V.14515686H.46899415V.090148929C.46899415 .07914734 .46899415 .029129029 .43299867 .029129029 .39698792 .029129029 .39698792 .07714844 .39698792 .09315491V.26818849C.39698792 .32521058 .39698792 .3592224 .35198976 .40022279 .31498719 .43322755 .2669983 .4482422 .21699524 .4482422 .1329956 .4482422 .06298828 .40623475 .06298828 .34220887 .06298828 .311203 .083999637 .2942047 .10998535 .2942047 .13699341 .2942047 .1559906 .31420899 .1559906 .34020997 .1559906 .3832245 .11099243 .38822938 .11099243 .38822938 .13798523 .41423036 .18598938 .42323304 .21499634 .42323304 .2659912 .42323304 .32299806 .3852234 .32299806 .29719544V.26419068C.2689972 .26219178 .19400025 .2571869 .1269989 .22518921 .054992677 .19017029 .032989503 .13816834 .032989503 .09814453 .032989503 .01625061 .12998963-.0107421879 .19699097-.0107421879 .27999879-.0107421879 .31799317 .04425049 .33198548 .072250369 .33699037 .030136109 .3659973-.005859375 .40899659-.005859375 .43399049-.005859375 .49699403 .009140015 .49699403 .08912659V.089141849M.32299806 .14112854C.32299806 .04425049 .24798584 .014251709 .20399475 .014251709 .15699768 .014251709 .11299133 .04824829 .11299133 .098236087 .11299133 .16423035 .16999817 .23422241 .32299806 .24023438V.14112854Z"/>
<path id="font_13_126" d="M.5399933 0V.0309906C.47399903 .0309906 .46299745 .0309906 .46299745 .07695007V.69407656L.42599488 .6880646C.4229889 .6880646 .42199708 .68907168 .4139862 .69207766 .3829956 .70407107 .34498597 .7050781 .32899476 .7050781 .21499634 .7050781 .10699463 .6450043 .10699463 .5438385V.43066407H.027999878V.3996582H.10699463V.07695007C.10699463 .0309906 .09599304 .0309906 .02999878 .0309906V0C.07699585 .0019989014 .09599304 .0029907227 .14199829 .0029907227 .18899536 .0029907227 .20599365 .0019989014 .25498963 0V.0309906C.18899536 .0309906 .17799378 .0309906 .17799378 .07695007V.3996582H.3919983V.07695007C.3919983 .0309906 .3809967 .0309906 .31498719 .0309906V0C.3619995 .0019989014 .3809967 .0029907227 .4269867 .0029907227 .47399903 .0029907227 .4909973 .0019989014 .5399933 0M.3919983 .43066407H.1749878V.5408325C.1749878 .63900759 .2579956 .68006899 .32798768 .68006899 .34899903 .68006899 .36999513 .67807009 .3919983 .6720581 .37799073 .66503909 .36898805 .64901736 .36898805 .6329956 .36898805 .6189728 .37599183 .6029358 .3919983 .5939331V.43066407Z"/>
<path id="font_13_116" d="M.5279999 0V.0309906C.48799134 .0309906 .45799256 .0309906 .43598939 .05897522L.30499269 .22491455C.2979889 .23390198 .2979889 .23590088 .2979889 .23590088 .2979889 .23590088 .37599183 .33285523 .38398744 .3408661 .4149933 .37483216 .44898988 .39866639 .5099945 .3996582V.43066407C.48098756 .42765809 .45399476 .42765809 .4249878 .42765809 .3869934 .42765809 .36898805 .42765809 .32899476 .43066407V.3996582C.34399415 .39767457 .35699464 .38972474 .35699464 .3698578 .35699464 .35386659 .34799195 .342865 .34298707 .3368683L.2789917 .2578888 .20098877 .3568573C.19400025 .36586 .19198609 .3678589 .19198609 .37483216 .19198609 .38674928 .20298767 .39866639 .22599793 .3996582V.43066407C.18798828 .4286499 .1619873 .42765809 .116989139 .42765809 .116989139 .42765809 .057998659 .42765809 .018997193 .43066407V.3996582C.08799744 .3996582 .08999634 .39767457 .13598633 .3388672L.23899842 .20991516 .14199829 .0929718C.09199524 .032989503 .034988405 .0309906 .01399231 .0309906V0C.042999269 .0029907227 .069992069 .0029907227 .09899902 .0029907227 .1309967 .0029907227 .16299439 .0019989014 .19499207 0V.0309906C.16999817 .033996583 .16699219 .050979616 .16699219 .06097412 .16699219 .0639801 .16699219 .07797241 .18199158 .095962528 .20599365 .12695313 .23199463 .15693665 .25698854 .18692017L.33599855 .08596802C.35499574 .0639801 .35499574 .0619812 .35499574 .055984498 .35499574 .04498291 .34498597 .03199768 .32099916 .0309906V0C.36299134 .0019989014 .3869934 .0029907227 .42999269 .0029907227 .42999269 .0029907227 .4889984 .0029907227 .5279999 0Z"/>
</defs>
<use data-text="J" xlink:href="#font_1_2" transform="matrix(9.96264,0,0,-9.96264,237.81163,19.761862)"/>
<use data-text="i" xlink:href="#font_2_5" transform="matrix(6.973848,0,0,-6.973848,243.33605,21.25624)"/>
<use data-text="=" xlink:href="#font_3_3" transform="matrix(9.96264,0,0,-9.96264,249.42023,19.76186)"/>
<use data-text="&#x2211;" xlink:href="#font_4_1" transform="matrix(9.96264,0,0,-9.96264,259.9363,10.29729)"/>
<use data-text="j" xlink:href="#font_2_6" transform="matrix(6.973848,0,0,-6.973848,265.28175,31.516419)"/>
<use data-text="L" xlink:href="#font_1_3" transform="matrix(9.96264,0,0,-9.96264,275.9872,19.761849)"/>
<use data-text="i" xlink:href="#font_2_5" transform="matrix(6.973848,0,0,-6.973848,282.76737,21.25623)"/>
<use data-text="j" xlink:href="#font_2_6" transform="matrix(6.973848,0,0,-6.973848,285.5848,21.25623)"/>
<use data-text="X" xlink:href="#font_1_7" transform="matrix(9.96264,0,0,-9.96264,291.4443,19.761849)"/>
<use data-text="j" xlink:href="#font_2_6" transform="matrix(6.973848,0,0,-6.973848,299.6981,21.25623)"/>
<path transform="matrix(1,0,0,-1,132.24314,95.28675)" d="M-85.04042-12.18083V12.18083C-85.04042 13.28131-84.14835 14.17339-83.04787 14.17339H83.04787C84.14835 14.17339 85.04042 13.28131 85.04042 12.18083V-12.18083C85.04042-13.28131 84.14835-14.17339 83.04787-14.17339H-83.04787C-84.14835-14.17339-85.04042-13.28131-85.04042-12.18083ZM85.04042 14.17339" fill="#f0a046"/>
<path transform="matrix(1,0,0,-1,132.24314,95.28675)" stroke-width=".79701" stroke-linecap="butt" stroke-miterlimit="10" stroke-linejoin="miter" fill="none" stroke="#000000" d="M-85.04042-12.18083V12.18083C-85.04042 13.28131-84.14835 14.17339-83.04787 14.17339H83.04787C84.14835 14.17339 85.04042 13.28131 85.04042 12.18083V-12.18083C85.04042-13.28131 84.14835-14.17339 83.04787-14.17339H-83.04787C-84.14835-14.17339-85.04042-13.28131-85.04042-12.18083ZM85.04042 14.17339"/>
<use data-text="B" xlink:href="#font_5_34" transform="matrix(11.955168,0,0,-11.955168,115.406009,98.47283)"/>
<use data-text="i" xlink:href="#font_5_66" transform="matrix(11.955168,0,0,-11.955168,123.69093,98.47283)"/>
<use data-text="2" xlink:href="#font_6_1" transform="matrix(7.970112,0,0,-7.970112,126.94274,100.26609)"/>
<use data-text="T" xlink:href="#font_5_104" transform="matrix(11.955168,0,0,-11.955168,131.67505,98.47283)"/>
<use data-text="e" xlink:href="#font_5_50" transform="matrix(11.955168,0,0,-11.955168,139.15898,98.47283)"/>
<use data-text="3" xlink:href="#font_6_2" transform="matrix(7.970112,0,0,-7.970112,144.34754,100.26609)"/>
<path transform="matrix(1,0,0,-1,132.24314,95.28675)" stroke-width=".79701" stroke-linecap="butt" stroke-miterlimit="10" stroke-linejoin="miter" fill="none" stroke="#000000" d="M-85.04042 14.17339H-99.21382"/>
<path transform="matrix(1,0,0,-1,132.24314,95.28675)" stroke-width=".79701" stroke-linecap="butt" stroke-miterlimit="10" stroke-linejoin="miter" fill="none" stroke="#000000" d="M-85.04042-14.17339H-99.21382"/>
<path transform="matrix(1,0,0,-1,132.24314,95.28675)" stroke-width=".79701" stroke-linecap="butt" stroke-miterlimit="10" stroke-linejoin="miter" fill="none" stroke="#000000" d="M-99.21382-19.84267V19.84267H-107.71794V-19.84267ZM-107.71794 19.84267"/>
<use data-text="T" xlink:href="#font_1_5" transform="matrix(9.96264,0,0,-9.96264,9.296528,90.856807)"/>
<use data-text="1" xlink:href="#font_7_1" transform="matrix(6.973848,0,0,-6.973848,15.118462,92.35118)"/>
<use data-text="V" xlink:href="#font_1_6" transform="matrix(9.96264,0,0,-9.96264,9.306896,105.03017)"/>
<use data-text="1" xlink:href="#font_7_1" transform="matrix(6.973848,0,0,-6.973848,15.118446,106.52454)"/>
<path transform="matrix(1,0,0,-1,132.24314,95.28675)" stroke-width=".79701" stroke-linecap="butt" stroke-miterlimit="10" stroke-linejoin="miter" fill="none" stroke="#000000" d="M85.04042 14.17339H99.21382"/>
<path transform="matrix(1,0,0,-1,132.24314,95.28675)" stroke-width=".79701" stroke-linecap="butt" stroke-miterlimit="10" stroke-linejoin="miter" fill="none" stroke="#000000" d="M85.04042-14.17339H99.21382"/>
<path transform="matrix(1,0,0,-1,132.24314,95.28675)" stroke-width=".79701" stroke-linecap="butt" stroke-miterlimit="10" stroke-linejoin="miter" fill="none" stroke="#000000" d="M99.21382-19.84267V19.84267H107.71794V-19.84267ZM107.71794 19.84267"/>
<use data-text="T" xlink:href="#font_1_5" transform="matrix(9.96264,0,0,-9.96264,244.89833,90.856807)"/>
<use data-text="2" xlink:href="#font_7_2" transform="matrix(6.973848,0,0,-6.973848,250.72026,92.35118)"/>
<use data-text="V" xlink:href="#font_1_6" transform="matrix(9.96264,0,0,-9.96264,244.89833,105.03017)"/>
<use data-text="2" xlink:href="#font_7_2" transform="matrix(6.973848,0,0,-6.973848,250.70987,106.52454)"/>
<use data-text="T" xlink:href="#font_8_2" transform="matrix(8.966376,0,0,-8.966376,116.57231,39.741128)"/>
<use data-text="1" xlink:href="#font_9_1" transform="matrix(5.977584,0,0,-5.977584,121.948299,40.73738)"/>
<use data-text="&#x003e;" xlink:href="#font_8_1" transform="matrix(8.966376,0,0,-8.966376,128.65917,39.741128)"/>
<use data-text="T" xlink:href="#font_8_2" transform="matrix(8.966376,0,0,-8.966376,138.37873,39.741128)"/>
<use data-text="2" xlink:href="#font_9_2" transform="matrix(5.977584,0,0,-5.977584,143.76251,40.73738)"/>
<path transform="matrix(1,0,0,-1,132.24314,95.28675)" stroke-width=".79701" stroke-linecap="butt" stroke-miterlimit="10" stroke-linejoin="miter" fill="none" stroke="#285ab4" d="M-56.69362 29.76422H-15.99097"/>
<path transform="matrix(1,0,0,-1,113.53442,65.52253)" d="M6.26004 0 1.26646 1.93394 2.91699 0 1.26646-1.93394Z" fill="#285ab4"/>
<path transform="matrix(1,0,0,-1,113.53442,65.52253)" stroke-width=".79701" stroke-linecap="butt" stroke-miterlimit="10" stroke-linejoin="miter" fill="none" stroke="#285ab4" d="M6.26004 0 1.26646 1.93394 2.91699 0 1.26646-1.93394Z"/>
<path transform="matrix(1,0,0,-1,132.24314,95.28675)" stroke-width=".79701" stroke-linecap="butt" stroke-miterlimit="10" stroke-linejoin="miter" fill="none" stroke="#285ab4" d="M11.33855 29.76422H52.04118"/>
<path transform="matrix(1,0,0,-1,181.56658,65.52253)" d="M6.26004 0 1.26646 1.93394 2.91699 0 1.26646-1.93394Z" fill="#285ab4"/>
<path transform="matrix(1,0,0,-1,181.56658,65.52253)" stroke-width=".79701" stroke-linecap="butt" stroke-miterlimit="10" stroke-linejoin="miter" fill="none" stroke="#285ab4" d="M6.26004 0 1.26646 1.93394 2.91699 0 1.26646-1.93394Z"/>
<use data-text="I" xlink:href="#font_1_1" transform="matrix(9.96264,0,0,-9.96264,82.39779,47.81373)" fill="#285ab4"/>
<use data-text="=" xlink:href="#font_3_3" transform="matrix(9.96264,0,0,-9.96264,90.32631,47.81373)" fill="#285ab4"/>
<use data-text="L" xlink:href="#font_1_3" transform="matrix(9.96264,0,0,-9.96264,100.84239,47.81373)" fill="#285ab4"/>
<use data-text="Q" xlink:href="#font_2_2" transform="matrix(6.973848,0,0,-6.973848,107.62254,49.30811)" fill="#285ab4"/>
<use data-text="Q" xlink:href="#font_2_2" transform="matrix(6.973848,0,0,-6.973848,113.89203,49.30811)" fill="#285ab4"/>
<use data-text="X" xlink:href="#font_1_7" transform="matrix(9.96264,0,0,-9.96264,120.669178,47.81373)" fill="#285ab4"/>
<use data-text="E" xlink:href="#font_2_1" transform="matrix(6.973848,0,0,-6.973848,128.92296,49.30811)" fill="#285ab4"/>
<use data-text="+" xlink:href="#font_3_2" transform="matrix(9.96264,0,0,-9.96264,137.86716,47.81373)" fill="#285ab4"/>
<use data-text="L" xlink:href="#font_1_3" transform="matrix(9.96264,0,0,-9.96264,147.82978,47.81373)" fill="#285ab4"/>
<use data-text="Q" xlink:href="#font_2_2" transform="matrix(6.973848,0,0,-6.973848,154.60993,49.30811)" fill="#285ab4"/>
<use data-text="U" xlink:href="#font_2_4" transform="matrix(6.973848,0,0,-6.973848,160.87941,49.30811)" fill="#285ab4"/>
<use data-text="X" xlink:href="#font_1_7" transform="matrix(9.96264,0,0,-9.96264,167.55735,47.81373)" fill="#285ab4"/>
<use data-text="T" xlink:href="#font_2_3" transform="matrix(6.973848,0,0,-6.973848,175.81113,49.30811)" fill="#285ab4"/>
<path transform="matrix(1,0,0,-1,132.24314,95.28675)" stroke-width=".79701" stroke-linecap="butt" stroke-miterlimit="10" stroke-linejoin="miter" fill="none" stroke="#c83228" d="M-56.69362-29.76422H-15.99097"/>
<path transform="matrix(1,0,0,-1,113.53442,125.05097)" d="M6.26004 0 1.26646 1.93394 2.91699 0 1.26646-1.93394Z" fill="#c83228"/>
<path transform="matrix(1,0,0,-1,113.53442,125.05097)" stroke-width=".79701" stroke-linecap="butt" stroke-miterlimit="10" stroke-linejoin="miter" fill="none" stroke="#c83228" d="M6.26004 0 1.26646 1.93394 2.91699 0 1.26646-1.93394Z"/>
<path transform="matrix(1,0,0,-1,132.24314,95.28675)" stroke-width=".79701" stroke-linecap="butt" stroke-miterlimit="10" stroke-linejoin="miter" fill="none" stroke="#c83228" d="M11.33855-29.76422H52.04118"/>
<path transform="matrix(1,0,0,-1,181.56658,125.05097)" d="M6.26004 0 1.26646 1.93394 2.91699 0 1.26646-1.93394Z" fill="#c83228"/>
<path transform="matrix(1,0,0,-1,181.56658,125.05097)" stroke-width=".79701" stroke-linecap="butt" stroke-miterlimit="10" stroke-linejoin="miter" fill="none" stroke="#c83228" d="M6.26004 0 1.26646 1.93394 2.91699 0 1.26646-1.93394Z"/>
<use data-text="J" xlink:href="#font_1_2" transform="matrix(9.96264,0,0,-9.96264,78.92915,145.2998)" fill="#c83228"/>
<use data-text="Q" xlink:href="#font_2_2" transform="matrix(6.973848,0,0,-6.973848,84.45357,146.79419)" fill="#c83228"/>
<use data-text="=" xlink:href="#font_3_3" transform="matrix(9.96264,0,0,-9.96264,93.99328,145.2998)" fill="#c83228"/>
<use data-text="L" xlink:href="#font_1_3" transform="matrix(9.96264,0,0,-9.96264,104.50936,145.2998)" fill="#c83228"/>
<use data-text="U" xlink:href="#font_2_4" transform="matrix(6.973848,0,0,-6.973848,111.28951,146.79419)" fill="#c83228"/>
<use data-text="Q" xlink:href="#font_2_2" transform="matrix(6.973848,0,0,-6.973848,117.461368,146.79419)" fill="#c83228"/>
<use data-text="X" xlink:href="#font_1_7" transform="matrix(9.96264,0,0,-9.96264,124.23693,145.2998)" fill="#c83228"/>
<use data-text="E" xlink:href="#font_2_1" transform="matrix(6.973848,0,0,-6.973848,132.49073,146.79419)" fill="#c83228"/>
<use data-text="+" xlink:href="#font_3_2" transform="matrix(9.96264,0,0,-9.96264,141.43492,145.2998)" fill="#c83228"/>
<use data-text="L" xlink:href="#font_1_3" transform="matrix(9.96264,0,0,-9.96264,151.39754,145.2998)" fill="#c83228"/>
<use data-text="U" xlink:href="#font_2_4" transform="matrix(6.973848,0,0,-6.973848,158.17769,146.79419)" fill="#c83228"/>
<use data-text="U" xlink:href="#font_2_4" transform="matrix(6.973848,0,0,-6.973848,164.34955,146.79419)" fill="#c83228"/>
<use data-text="X" xlink:href="#font_1_7" transform="matrix(9.96264,0,0,-9.96264,171.0259,145.2998)" fill="#c83228"/>
<use data-text="T" xlink:href="#font_2_3" transform="matrix(6.973848,0,0,-6.973848,179.27968,146.79419)" fill="#c83228"/>
<path transform="matrix(1,0,0,-1,132.24314,95.28675)" stroke-width="1.19553" stroke-linecap="butt" stroke-miterlimit="10" stroke-linejoin="miter" fill="none" stroke="#000000" d="M-35.19415-62.36288H35.19415"/>
<path transform="matrix(-1,-0,0,1,99.92796,157.64963)" d="M5.705 0 1.8997 1.48358 3.17784 0 1.8997-1.48358Z"/>
<path transform="matrix(-1,-0,0,1,99.92796,157.64963)" stroke-width="1.19553" stroke-linecap="butt" stroke-miterlimit="10" stroke-linejoin="miter" fill="none" stroke="#000000" d="M5.705 0 1.8997 1.48358 3.17784 0 1.8997-1.48358Z"/>
<path transform="matrix(1,0,0,-1,164.5583,157.64963)" d="M5.705 0 1.8997 1.48358 3.17784 0 1.8997-1.48358Z"/>
<path transform="matrix(1,0,0,-1,164.5583,157.64963)" stroke-width="1.19553" stroke-linecap="butt" stroke-miterlimit="10" stroke-linejoin="miter" fill="none" stroke="#000000" d="M5.705 0 1.8997 1.48358 3.17784 0 1.8997-1.48358Z"/>
<use data-text="L" xlink:href="#font_10_1" transform="matrix(9.96264,0,0,-9.96264,102.77288,169.42244)"/>
<use data-text="U" xlink:href="#font_11_2" transform="matrix(6.973848,0,0,-6.973848,110.300159,170.91681)"/>
<use data-text="Q" xlink:href="#font_11_1" transform="matrix(6.973848,0,0,-6.973848,117.30888,170.91681)"/>
<use data-text="=" xlink:href="#font_12_1" transform="matrix(9.96264,0,0,-9.96264,127.78726,169.42244)"/>
<use data-text="L" xlink:href="#font_10_1" transform="matrix(9.96264,0,0,-9.96264,139.88072,169.42244)"/>
<use data-text="Q" xlink:href="#font_11_1" transform="matrix(6.973848,0,0,-6.973848,147.408,170.91681)"/>
<use data-text="U" xlink:href="#font_11_2" transform="matrix(6.973848,0,0,-6.973848,154.19356,170.91681)"/>
<use data-text="&#x03a0;" xlink:href="#font_3_1" transform="matrix(9.96264,0,0,-9.96264,237.81163,166.72286)"/>
<use data-text="=" xlink:href="#font_3_3" transform="matrix(9.96264,0,0,-9.96264,248.04326,166.72286)"/>
<use data-text="T" xlink:href="#font_1_5" transform="matrix(9.96264,0,0,-9.96264,258.56703,166.72286)"/>
<use data-text="S" xlink:href="#font_1_4" transform="matrix(9.96264,0,0,-9.96264,267.42384,166.72286)"/>
<use data-text="e" xlink:href="#font_13_50" transform="matrix(8.966376,0,0,-8.966376,237.81163,57.246049)" fill="#285ab4"/>
<use data-text="l" xlink:href="#font_13_72" transform="matrix(8.966376,0,0,-8.966376,241.90927,57.246049)" fill="#285ab4"/>
<use data-text="e" xlink:href="#font_13_50" transform="matrix(8.966376,0,0,-8.966376,244.47365,57.246049)" fill="#285ab4"/>
<use data-text="c" xlink:href="#font_13_43" transform="matrix(8.966376,0,0,-8.966376,248.57129,57.246049)" fill="#285ab4"/>
<use data-text="t" xlink:href="#font_13_105" transform="matrix(8.966376,0,0,-8.966376,252.66892,57.246049)" fill="#285ab4"/>
<use data-text="r" xlink:href="#font_13_96" transform="matrix(8.966376,0,0,-8.966376,256.25547,57.246049)" fill="#285ab4"/>
<use data-text="i" xlink:href="#font_13_66" transform="matrix(8.966376,0,0,-8.966376,259.85997,57.246049)" fill="#285ab4"/>
<use data-text="c" xlink:href="#font_13_43" transform="matrix(8.966376,0,0,-8.966376,262.42433,57.246049)" fill="#285ab4"/>
<use data-text="c" xlink:href="#font_13_43" transform="matrix(8.966376,0,0,-8.966376,269.59745,57.246049)" fill="#285ab4"/>
<use data-text="u" xlink:href="#font_13_109" transform="matrix(8.966376,0,0,-8.966376,273.69508,57.246049)" fill="#285ab4"/>
<use data-text="r" xlink:href="#font_13_96" transform="matrix(8.966376,0,0,-8.966376,278.81489,57.246049)" fill="#285ab4"/>
<use data-text="r" xlink:href="#font_13_96" transform="matrix(8.966376,0,0,-8.966376,282.41938,57.246049)" fill="#285ab4"/>
<use data-text="e" xlink:href="#font_13_50" transform="matrix(8.966376,0,0,-8.966376,286.02384,57.246049)" fill="#285ab4"/>
<use data-text="n" xlink:href="#font_13_77" transform="matrix(8.966376,0,0,-8.966376,290.12147,57.246049)" fill="#285ab4"/>
<use data-text="t" xlink:href="#font_13_105" transform="matrix(8.966376,0,0,-8.966376,294.99024,57.246049)" fill="#285ab4"/>
<use data-text="h" xlink:href="#font_13_63" transform="matrix(8.966376,0,0,-8.966376,237.81163,138.0835)" fill="#c83228"/>
<use data-text="e" xlink:href="#font_13_50" transform="matrix(8.966376,0,0,-8.966376,242.93143,138.0835)" fill="#c83228"/>
<use data-text="a" xlink:href="#font_13_28" transform="matrix(8.966376,0,0,-8.966376,247.02906,138.0835)" fill="#c83228"/>
<use data-text="t" xlink:href="#font_13_105" transform="matrix(8.966376,0,0,-8.966376,251.63779,138.0835)" fill="#c83228"/>
<use data-text="f" xlink:href="#font_13_126" transform="matrix(8.966376,0,0,-8.966376,258.2998,138.0835)" fill="#c83228"/>
<use data-text="u" xlink:href="#font_13_109" transform="matrix(8.966376,0,0,-8.966376,263.41963,138.0835)" fill="#c83228"/>
<use data-text="x" xlink:href="#font_13_116" transform="matrix(8.966376,0,0,-8.966376,268.5394,138.0835)" fill="#c83228"/>
</svg>
