<svg xmlns="http://www.w3.org/2000/svg" xmlns:xlink="http://www.w3.org/1999/xlink" xmlns:inkscape="http://www.inkscape.org/namespaces/inkscape" version="1.1" width="476.71" height="235.91" viewBox="0 0 476.71 235.91">
<defs>
<path id="font_1_96" d="M.37298585 .3798828C.37298585 .41236878 .34298707 .4423828 .2979889 .4423828 .23799134 .4423828 .19599915 .40037538 .17298889 .33787538H.17199707V.4423828L.02999878 .43066407V.3996582C.09799194 .3996582 .10699463 .3927307 .10699463 .34387208V.07698059C.10699463 .0309906 .09599304 .0309906 .02999878 .0309906V0C.08299255 .0019989014 .09599304 .0029907227 .14698792 .0029907227L.27398683 0V.0309906H.2539978C.18099976 .0309906 .17799378 .041992189 .17799378 .07897949V.22891236C.17799378 .26989747 .18899536 .4166565 .30299378 .4166565V.4156494C.30099488 .4146576 .2849884 .40264894 .2849884 .37887574 .2849884 .35186769 .30599977 .33486939 .32899476 .33486939 .34999085 .33486939 .37298585 .34986878 .37298585 .3798828Z"/>
<path id="font_1_50" d="M.4269867 .11936951C.4269867 .12637329 .42199708 .13237 .41299439 .13237 .40299989 .13237 .3999939 .12536621 .39898683 .12136841 .36499024 .019256592 .27598573 .01725769 .26098634 .01725769 .21299744 .01725769 .17199707 .044281007 .14898682 .078323367 .115997318 .12736511 .114990238 .18743897 .114990238 .22949219H.3999939C.42199708 .22949219 .4269867 .22949219 .4269867 .25048829 .4269867 .35333253 .37098695 .4482422 .24299622 .4482422 .12298584 .4482422 .0289917 .3443451 .0289917 .22047425 .0289917 .08932495 .13398743-.0107421879 .2559967-.0107421879 .37799073-.0107421879 .4269867 .096343997 .4269867 .11936951M.35899354 .253479H.115997318C.125 .40725709 .21499634 .42323304 .24299622 .42323304 .2979889 .42323304 .35798646 .38130189 .35899354 .253479Z"/>
<path id="font_1_28" d="M.49699403 .089141849V.14515686H.46899415V.090148929C.46899415 .07914734 .46899415 .029129029 .43299867 .029129029 .39698792 .029129029 .39698792 .07714844 .39698792 .09315491V.26818849C.39698792 .32521058 .39698792 .3592224 .35198976 .40022279 .31498719 .43322755 .2669983 .4482422 .21699524 .4482422 .1329956 .4482422 .06298828 .40623475 .06298828 .34220887 .06298828 .311203 .083999637 .2942047 .10998535 .2942047 .13699341 .2942047 .1559906 .31420899 .1559906 .34020997 .1559906 .3832245 .11099243 .38822938 .11099243 .38822938 .13798523 .41423036 .18598938 .42323304 .21499634 .42323304 .2659912 .42323304 .32299806 .3852234 .32299806 .29719544V.26419068C.2689972 .26219178 .19400025 .2571869 .1269989 .22518921 .054992677 .19017029 .032989503 .13816834 .032989503 .09814453 .032989503 .01625061 .12998963-.0107421879 .19699097-.0107421879 .27999879-.0107421879 .31799317 .04425049 .33198548 .072250369 .33699037 .030136109 .3659973-.005859375 .40899659-.005859375 .43399049-.005859375 .49699403 .009140015 .49699403 .08912659V.089141849M.32299806 .14112854C.32299806 .04425049 .24798584 .014251709 .20399475 .014251709 .15699768 .014251709 .11299133 .04824829 .11299133 .098236087 .11299133 .16423035 .16999817 .23422241 .32299806 .24023438V.14112854Z"/>
<path id="font_1_43" d="M.4269867 .11936951C.4269867 .13139344 .41600038 .13139344 .41299439 .13139344 .4019928 .13139344 .4019928 .12937927 .3959961 .11236572 .37298585 .043289186 .31698609 .01725769 .2659912 .01725769 .20199585 .01725769 .11999512 .06932068 .11999512 .21749878 .11999512 .3735962 .19999695 .42022706 .2599945 .42022706 .272995 .42022706 .32699586 .41825868 .3639984 .39356996 .34298707 .3895874 .32299806 .3755951 .32299806 .34658814 .32299806 .32058717 .34298707 .30059815 .36898805 .30059815 .394989 .30059815 .41600038 .31759645 .41600038 .34858705 .41600038 .4103546 .34599305 .4482422 .2579956 .4482422 .12998963 .4482422 .033996583 .3415985 .033996583 .2164917 .033996583 .08734131 .13798523-.0107421879 .2559967-.0107421879 .394989-.0107421879 .4269867 .11036682 .4269867 .11936951Z"/>
<path id="font_1_105" d="M.34199525 .12408447V.18099976H.31399537V.1270752C.31399537 .05319214 .2829895 .01725769 .24699402 .01725769 .17999268 .01725769 .17999268 .1051178 .17999268 .12309265V.3996582H.32499696V.43066407H.17999268V.6142578H.1519928C.15098572 .5304413 .115997318 .42765809 .018997193 .4246521V.3996582H.10598755V.12408447C.10598755 .012252808 .18699646-.0107421879 .23999024-.0107421879 .30699159-.011001587 .34199525 .052993776 .34199525 .12399292V.12408447Z"/>
<path id="font_1_66" d="M.25299073 0V.0309906C.18798828 .0309906 .18399048 .035995485 .18399048 .075042728V.4423828L.039993287 .43066407V.3996582C.10398865 .3996582 .11299133 .3936615 .11299133 .3447113V.07695007C.11299133 .0309906 .101989749 .0309906 .035995485 .0309906V0C.08099365 .0019989014 .101989749 .0029907227 .1459961 .0029907227 .1619873 .0029907227 .20399475 .0029907227 .25299073 0M.19699097 .6028137C.19699097 .63282778 .17298889 .6568146 .14299011 .6568146 .11299133 .6568146 .08898926 .63282778 .08898926 .6028137 .08898926 .57281497 .11299133 .5488281 .14299011 .5488281 .17298889 .5488281 .19699097 .57281497 .19699097 .6028137Z"/>
<path id="font_1_81" d="M.48399354 .21324158C.48399354 .34423829 .37998963 .4482422 .25698854 .4482422 .12998963 .4482422 .0289917 .3412323 .0289917 .21324158 .0289917 .08824158 .1329956-.0107421879 .2559967-.0107421879 .3829956-.0107421879 .48399354 .09024048 .48399354 .21324158M.397995 .22224427C.397995 .1852417 .397995 .12724304 .37298585 .08325195 .34498597 .037246705 .29899598 .01725769 .25698854 .01725769 .20698548 .01725769 .16499329 .042251588 .14199829 .08125305 .115997318 .12324524 .114990238 .17623902 .114990238 .22224427 .114990238 .25924684 .114990238 .3162384 .13999939 .35723878 .16999817 .40823365 .21998596 .42323304 .2559967 .42323304 .31298829 .42323304 .35398866 .39123536 .37399293 .35723878 .39698792 .31523133 .397995 .26423646 .397995 .22224427Z"/>
<path id="font_1_77" d="M.5469971 0V.0309906C.49598695 .03125 .47099305 .03125 .46998597 .0622406V.25431825C.46998597 .3373413 .46998597 .36636354 .44198609 .4013672 .4189911 .42938233 .3809967 .4423828 .33099366 .4423828 .23799134 .4423828 .19499207 .37335206 .18099976 .34535218H.17999268V.4423828L.034988405 .43066407V.3996582C.102996829 .3996582 .11199951 .39266969 .11199951 .34370423V.07695007C.11199951 .0309906 .100997928 .0309906 .034988405 .0309906V0C.08198547 .0019989014 .100997928 .0029907227 .14898682 .0029907227 .19699097 .0029907227 .20999146 .0019989014 .2630005 0V.0309906C.19699097 .0309906 .18598938 .0309906 .18598938 .07695007V.25878907C.18598938 .36532594 .26098634 .41737367 .32398988 .41737367 .3829956 .41737367 .3959961 .3683319 .3959961 .30825807V.077041629C.3959961 .0309906 .3849945 .0309906 .31900025 .0309906V0C.3659973 .0019989014 .3849945 .0029907227 .43299867 .0029907227 .48098756 .0029907227 .49398805 .0019989014 .5469971 0Z"/>
<path id="font_1_47" d="M.5399933 0V.0309906C.47200013 .0309906 .46299745 .037994386 .46299745 .087020877V.69433596L.31498719 .6826172V.6516113C.3829956 .6516113 .3919983 .64463809 .3919983 .59580996V.38339234C.3869934 .38938905 .34199525 .4423828 .2639923 .4423828 .14099121 .4423828 .033996583 .3443756 .033996583 .21525574 .033996583 .09013367 .13398743-.0107421879 .25299073-.0107421879 .32598878-.0107421879 .37098695 .03224182 .3889923 .053115846V-.0107421879L.5399933 0M.3889923 .12011719C.3889923 .10211182 .3889923 .099121097 .37399293 .078125 .34298707 .033218385 .29699708 .014251709 .25698854 .014251709 .21398926 .014251709 .17399597 .038208009 .147995 .0801239 .12199402 .12312317 .11999512 .18218994 .11999512 .21421814 .11999512 .26127626 .12599182 .3143463 .1519928 .35438539 .17399597 .38638307 .21499634 .41737367 .2679901 .41737367 .30999757 .41737367 .34999085 .39637757 .3769989 .35839845 .3889923 .3423767 .3889923 .34136964 .3889923 .32235719V.12011719Z"/>
<path id="font_1_84" d="M.5359955 .21557617C.5359955 .34158326 .43798829 .4423828 .31999208 .4423828 .2659912 .4423828 .21598816 .42037965 .17799378 .37858583V.4423828L.02999878 .43066407V.3996582C.100997928 .3996582 .10699463 .39363099 .10699463 .35058595V-.116989139C.10699463-.16308594 .09599304-.16308594 .02999878-.16308594V-.1940918C.07699585-.1920929 .09599304-.19110108 .14399719-.19110108 .19198609-.19110108 .20498657-.1920929 .2579956-.1940918V-.16308594C.19198609-.16308594 .18099976-.16308594 .18099976-.116989139V.048187257C.20698548 .022232056 .24099732-.0107421879 .30699159-.0107421879 .42599488-.0107421879 .5359955 .085113529 .5359955 .21585083V.21557617M.44999696 .21585083C.44999696 .1020813 .38198854 .014251709 .30099488 .014251709 .2559967 .014251709 .21798706 .04019165 .19400025 .07513428 .18099976 .09509277 .18099976 .097091678 .18099976 .11604309V.3356018C.21499634 .39437867 .269989 .41436769 .31199647 .41436769 .3899994 .41436769 .44999696 .32437135 .44999696 .21636963V.21585083Z"/>
<path id="font_1_72" d="M.26098634 0V.0309906C.19499207 .0309906 .18399048 .0309906 .18399048 .07701111V.69433596L.035995485 .6826172V.6516113C.10398865 .6516113 .11299133 .64460757 .11299133 .5956421V.07696533C.11299133 .0309906 .101989749 .0309906 .035995485 .0309906V0C.08299255 .0019989014 .101989749 .0029907227 .147995 .0029907227 .19499207 .0029907227 .21199036 .0019989014 .26098634 0Z"/>
<path id="font_1_59" d="M.49899293 .40338136C.49899293 .42237855 .4850006 .45336915 .44499208 .45336915 .41600038 .45336915 .37098695 .4423828 .33599855 .40637208 .30899049 .42837525 .269989 .4423828 .22799683 .4423828 .1329956 .4423828 .06098938 .3743744 .06098938 .29537965 .06098938 .2443695 .09098816 .20837403 .10699463 .19337464 .10499573 .19137573 .07699585 .15637207 .07699585 .11038208 .07699585 .07637024 .09298706 .040374757 .11999512 .022369385 .068984989 .005874634 .0289917-.03111267 .0289917-.07809448 .0289917-.14907837 .12799073-.20605469 .2559967-.20605469 .3789978-.20605469 .48399354-.15307617 .48399354-.07609558 .48399354-.035110475 .46499635 .008880615 .42799378 .03288269 .37199403 .067871097 .31399537 .067871097 .21899414 .067871097 .19898987 .067871097 .16699219 .067871097 .15899658 .069885257 .12998963 .075927738 .11099243 .1031189 .11099243 .13534546 .11099243 .15142823 .115997318 .16642761 .125 .1794281 .1499939 .16343689 .18099976 .1484375 .22698975 .1484375 .32199098 .1484375 .3939972 .21643067 .3939972 .29542542 .3939972 .34443666 .3659973 .37843324 .35299684 .39242555 .3929901 .42843629 .43998719 .42843629 .45199586 .42843629 .44699098 .4254303 .43899537 .42042542 .43899537 .4024353 .43899537 .39143373 .44599916 .37243653 .46899415 .37243653 .48298646 .37243653 .49899293 .38243104 .49899293 .40342713V.40338136M.31698609 .29542542C.31698609 .27243043 .31698609 .1754303 .22698975 .1754303 .13798523 .17520142 .13798523 .27326966 .13798523 .2952881 .13798523 .3223114 .13999939 .35632325 .15699768 .38034059 .17199707 .4003601 .19898987 .41537477 .22698975 .41537477 .31698609 .41537477 .31698609 .31829835 .31698609 .2952881V.29542542M.42799378-.07698059C.42799378-.1340332 .35099793-.17906189 .25698854-.17906189 .15899658-.17912293 .084991458-.13212586 .084991458-.07711792 .084991458-.06112671 .09498596 .0048828127 .18099976 .0048828127H.272995C.30499269 .0048828127 .42799378 .0038757325 .42799378-.07711792V-.07698059Z"/>
<path id="font_1_118" d="M.519989 .3996582V.43066407C.48799134 .42765809 .45700074 .42765809 .44400025 .42765809 .41600038 .42765809 .3849945 .4286499 .35699464 .43066407V.3996582C.40299989 .3976593 .40299989 .36167909 .40299989 .35768128 .40299989 .3466797 .39898683 .33668519 .394989 .32868959L.2939911 .090789798 .18199158 .3526764C.17599488 .3666687 .17599488 .3736725 .17599488 .3736725 .17599488 .3996582 .20999146 .3996582 .23098755 .3996582V.43066407L.11999512 .42765809C.116989139 .42765809 .05999756 .42765809 .020996094 .43066407V.3996582C.06599426 .3996582 .084991458 .3976593 .09700012 .3706665L.25498963-.00016784668 .22999573-.059143068C.20799256-.11212158 .1789856-.18008423 .11399841-.18008423 .08898926-.18008423 .07199097-.167099 .068984989-.16508484 .07699585-.16407776 .10499573-.1560669 .10499573-.12205505 .10499573-.09605408 .085998538-.080062869 .06298828-.080062869 .037994386-.080062869 .019989014-.09605408 .019989014-.123046878 .019989014-.16807556 .06199646-.20507813 .11399841-.20507813 .1789856-.20507813 .22200012-.14706421 .24598694-.092056278L.4269867 .33068849C.43798829 .3566742 .45599366 .3976593 .519989 .3996582Z"/>
<path id="font_1_98" d="M.36999513 .12831116C.36999513 .17330933 .34999085 .20030213 .32798768 .22329712 .2939911 .25628663 .2579956 .26327516 .18399048 .2772827 .1579895 .28227235 .084991458 .29527284 .084991458 .35224916 .084991458 .38424684 .10798645 .426239 .19898987 .426239 .30699159 .426239 .31399537 .34326173 .31599427 .31826783 .31698609 .3062744 .31698609 .3002777 .32998658 .3002777 .34399415 .3002777 .34399415 .30726625 .34399415 .32626344V.4222412C.34399415 .4392395 .34399415 .4482422 .33198548 .4482422 .32699586 .4482422 .32499696 .4482422 .31199647 .43623353 .30999757 .43423463 .30099488 .42523194 .29499818 .4202423 .2639923 .44223023 .23298645 .4482422 .19898987 .4482422 .066986087 .4482422 .033996583 .37524415 .033996583 .32426454 .033996583 .29226686 .04798889 .26628114 .070999149 .24429322 .10499573 .21330261 .14299011 .20629883 .19400025 .19729615 .24499512 .18730164 .2619934 .18431092 .28399659 .16731262 .2939911 .15931702 .31900025 .14031983 .31900025 .10229492 .31900025 .014251709 .21798706 .014251709 .20399475 .014251709 .101989749 .014251709 .07598877 .0993042 .06399536 .15332031 .06098938 .16331482 .05999756 .16931153 .04798889 .16931153 .033996583 .16931153 .033996583 .16131592 .033996583 .14331055V.01524353C.033996583-.0017547608 .033996583-.0107421879 .04598999-.0107421879 .051986696-.0107421879 .052993776-.009750366 .070999149 .009246826 .07499695 .01524353 .085998538 .028259278 .09098816 .03326416 .1329956-.007751465 .1789856-.0107421879 .20399475-.0107421879 .32699586-.0107421879 .36999513 .061279298 .36999513 .12831116Z"/>
<path id="font_1_109" d="M.5469971 .00024414063V.03125C.47898866 .03125 .46998597 .038253786 .46998597 .087265018V.4423828L.31900025 .43138124V.40037538C.3869934 .40037538 .3959961 .39337159 .3959961 .34436036V.16729737C.3959961 .07826233 .34599305 .014251709 .27398683 .014251709 .19099427 .014251709 .18598938 .057266237 .18598938 .11128235V.4423828L.034988405 .43138124V.40037538C.11199951 .40037538 .11199951 .39736939 .11199951 .3083496V.15829468C.11199951 .09327698 .11199951 .051254274 .1579895 .01625061 .18699646-.003753662 .22799683-.0107421879 .2679901-.0107421879 .31999208-.0107421879 .36898805 .012252808 .397995 .072265628H.39898683V-.0107421879L.5469971 .00024414063Z"/>
<path id="font_2_1" d="M.23999024 .46636964C.2539978 .46437074 .2639923 .4633789 .30599977 .45237733 .32998658 .44537355 .34899903 .4423828 .36099244 .4423828 .397995 .4423828 .3999939 .4733734 .3999939 .47737123 .3999939 .48738099 .394989 .51338198 .36099244 .51338198 .34999085 .51338198 .32998658 .510376 .30599977 .5033722 .2639923 .4923706 .2539978 .49137879 .23999024 .48937989 .24099732 .50737 .24198914 .5233612 .25099183 .5712738 .25698854 .5982208 .2639923 .63716128 .2639923 .6641083 .2639923 .70407107 .23399353 .7050781 .22898865 .7050781 .21598816 .7050781 .19299317 .69906619 .19299317 .6641083 .19299317 .63716128 .19999695 .6002197 .20698548 .5662842 .21499634 .5223541 .21598816 .5053711 .21699524 .48937989 .20298767 .49137879 .19299317 .4923706 .15098572 .5033722 .1269989 .510376 .10798645 .51338198 .09599304 .51338198 .05899048 .51338198 .056991579 .4823761 .056991579 .4783783 .056991579 .46836854 .06199646 .4423828 .09599304 .4423828 .10699463 .4423828 .1269989 .44537355 .15098572 .45237733 .19299317 .4633789 .20298767 .46437074 .21699524 .46636964 .21598816 .44837953 .21499634 .4323578 .20599365 .38424684 .19999695 .35717774 .19299317 .31809999 .19299317 .29103089 .19299317 .25099183 .22299195 .25 .22799683 .25 .24099732 .25 .2639923 .2559967 .2639923 .29103089 .2639923 .31809999 .25698854 .35517884 .25 .3892517 .24198914 .4333496 .24099732 .45037843 .23999024 .46636964M.23999024 .010299683C.26098634 .008300781 .2639923 .007293701 .2939911-.0007019043 .31799317-.0077056887 .33999635-.0126953129 .3639984-.0126953129 .38598634-.0126953129 .3999939 .0032958985 .3999939 .02229309 .3999939 .042297365 .3849945 .057296754 .36499024 .057296754 .34599305 .057296754 .32899476 .05529785 .3039856 .047302247 .2649994 .03729248 .2599945 .03630066 .23999024 .034301759 .24099732 .05029297 .24198914 .06828308 .25299073 .12619019 .26098634 .16511536 .2639923 .19207764 .2639923 .20805359 .2639923 .24801636 .23399353 .24902344 .22898865 .24902344 .21598816 .24902344 .19299317 .24301148 .19299317 .20805359 .19299317 .18109131 .20098877 .13916016 .20698548 .11021423 .21499634 .067276 .21598816 .048294069 .21699524 .034301759 .19599915 .03630066 .19299317 .03729248 .16299439 .045303346 .13699341 .05229187 .116989139 .057296754 .09298706 .057296754 .068984989 .057296754 .056991579 .03929138 .056991579 .02229309 .056991579 .0032958985 .070999149-.0126953129 .09298706-.0126953129 .114990238-.0126953129 .13798523-.0077056887 .16099549-.0017089844 .19198609 .007293701 .19599915 .008300781 .21699524 .010299683 .21598816-.005706787 .21499634-.0236969 .20399475-.08166504 .19599915-.12063599 .19299317-.14762879 .19299317-.16362 .19299317-.20359802 .22299195-.2046051 .22799683-.2046051 .24099732-.2046051 .2639923-.1986084 .2639923-.16362 .2639923-.1366272 .2559967-.09465027 .25-.06567383 .24198914-.02268982 .24099732-.0037078858 .23999024 .010299683Z"/>
<path id="font_3_1" d="M.70799258 .23292542C.70999148 .23791504 .71299746 .24491883 .71299746 .24691773 .71299746 .24790955 .71299746 .2579193 .70098879 .2579193 .69200137 .2579193 .6899872 .25190736 .6879883 .24591065 .6230011 .097961429 .58599856 .0309906 .4149933 .0309906H.2689972C.25498963 .0309906 .25299073 .0309906 .24699402 .03199768 .23699951 .032989503 .23399353 .033996583 .23399353 .041992189 .23399353 .04498291 .23399353 .04698181 .23899842 .06498718L.30699159 .33789063H.4059906C.4909973 .33789063 .4909973 .31689454 .4909973 .29190064 .4909973 .28489686 .4909973 .27290345 .48399354 .24291992 .48199464 .23791504 .48098756 .23492432 .48098756 .23191834 .48098756 .22692871 .4850006 .220932 .49398805 .220932 .5019989 .220932 .5049896 .22592163 .5089874 .24092102L.56599429 .47477723C.56599429 .48077394 .5609894 .48576356 .55400088 .48576356 .54499819 .48576356 .54299929 .47976686 .5399933 .4677887 .5189972 .39186097 .5009918 .36888124 .40899659 .36888124H.31498719L.375 .60964968C.38398744 .64460757 .3849945 .64860537 .42900086 .64860537H.56999209C.69200137 .64860537 .7220001 .61964419 .7220001 .5377197 .7220001 .51374819 .7220001 .51174929 .71798709 .48477174 .71798709 .47877503 .71699526 .4717865 .71699526 .46678163 .71699526 .461792 .7200012 .45480348 .72898867 .45480348 .73999026 .45480348 .7409973 .46080018 .7429962 .47976686L.7630005 .65260317C.7659912 .6796112 .7609863 .6796112 .73599246 .6796112H.23098755C.21099854 .6796112 .20098877 .6796112 .20098877 .65960696 .20098877 .64860537 .20999146 .64860537 .22898865 .64860537 .2659912 .64860537 .2939911 .64860537 .2939911 .6306305 .2939911 .6266327 .2939911 .6246338 .2889862 .6066437L.15699768 .07797241C.14698792 .038986207 .14498902 .0309906 .06599426 .0309906 .04899597 .0309906 .037994386 .0309906 .037994386 .011993408 .037994386 0 .04699707 0 .06599426 0H.58499148C.60798647 0 .60899356 .0009918213 .6159973 .016998291L.70799258 .23292542Z"/>
<path id="font_4_1" d="M.42199708 .38238526C.40098573 .41540528 .36698915 .44140626 .31900025 .44140626 .19099427 .44140626 .06098938 .300354 .06098938 .15628052 .06098938 .059249879 .12599182-.009765625 .21199036-.009765625 .2659912-.009765625 .31399537 .021224976 .35398866 .0602417 .37298585 .00022888184 .43099977-.009765625 .45700074-.009765625 .49299623-.009765625 .5179901 .01222229 .5359955 .04324341 .55799868 .08226013 .57099917 .13928223 .57099917 .14328003 .57099917 .15628052 .55799868 .15628052 .5549927 .15628052 .54100039 .15628052 .5399933 .15228272 .5329895 .12527466 .5209961 .07725525 .5019989 .018234253 .45999146 .018234253 .43399049 .018234253 .4269867 .040237428 .4269867 .06724548 .4269867 .08425903 .43499757 .120269779 .44198609 .14628601 .44898988 .17329407 .45899964 .21430969 .46398927 .23632813L.48399354 .3123474C.48999024 .33836366 .5019989 .38539125 .5019989 .39038087 .5019989 .4123993 .48399354 .4223938 .46798707 .4223938 .45098878 .4223938 .42799378 .4104004 .42199708 .38238526M.35798646 .12527466C.35099793 .09725952 .32899476 .07725525 .30699159 .058242799 .2979889 .050247194 .2579956 .018234253 .21499634 .018234253 .17799378 .018234253 .14199829 .04423523 .14199829 .11526489 .14199829 .16828919 .17098999 .27833558 .19400025 .31835938 .23999024 .39839173 .29100038 .4133911 .31900025 .4133911 .3889923 .4133911 .4079895 .33737184 .4079895 .32635499 .4079895 .32235719 .4059906 .3153534 .40499879 .3123474L.35798646 .12527466Z"/>
<path id="font_5_1" d="M.44198609 .69781497C.43499757 .7108154 .43299867 .7158203 .41600038 .7158203 .39898683 .7158203 .39698792 .7108154 .3899994 .69781497L.051986696 .019989014C.04699707 .010986328 .04699707 .008987427 .04699707 .0079956059 .04699707 0 .052993776 0 .068984989 0H.7630005C.7789917 0 .7849884 0 .7849884 .0079956059 .7849884 .008987427 .7849884 .010986328 .7799988 .019989014L.44198609 .69781497M.38398744 .61582949 .6529999 .07598877H.11399841L.38398744 .61582949Z"/>
<path id="font_6_2" d="M.19898987 .22819519C.19898987 .31228639 .23799134 .4133911 .33299256 .4133911 .32398988 .40638734 .31599427 .39337159 .31599427 .3773651 .31599427 .34432984 .34199525 .3313141 .36099244 .3313141 .3849945 .3313141 .40699769 .34732057 .40699769 .3773651 .40699769 .4113922 .375 .44140626 .32798768 .44140626 .27799989 .44140626 .22299195 .4104004 .19299317 .33432008H.19198609V.44140626L.04899597 .43040467V.39437867C.115997318 .39437867 .12399292 .38737489 .12399292 .33831788V.07904053C.12399292 .035995485 .11399841 .035995485 .04899597 .035995485V0C.053985597 0 .12199402 .0039978029 .16299439 .0039978029 .20599365 .0039978029 .25 .0019989014 .29299928 0V.035995485H.272995C.19898987 .035995485 .19898987 .04699707 .19898987 .08103943V.22819519Z"/>
<path id="font_6_3" d="M.33898927 .22381592C.33799745 .224823 .33099366 .23280335 .33099366 .23381043 .33099366 .23680115 .39698792 .30773927 .4059906 .31672669 .44099427 .35569764 .47599793 .3936615 .5549927 .39465333V.43066407C.5269928 .4286499 .49798585 .426651 .47099305 .426651 .44099427 .426651 .4019928 .42765809 .37199403 .43066407V.39465333C.3889923 .3916626 .3919983 .38067628 .3919983 .37167359 .3919983 .36967469 .3919983 .35469056 .3769989 .33770753L.30699159 .25878907 .22399903 .35369874C.21398926 .36468507 .21299744 .36967469 .21299744 .3736725 .21299744 .38865663 .22698975 .39465333 .23999024 .39465333V.43066407C.20298767 .42765809 .16499329 .426651 .12799073 .426651 .09799194 .426651 .05999756 .42765809 .0309906 .43066407V.39465333C.07699585 .39465333 .102996829 .39465333 .1289978 .36468507L.2539978 .2208252C.25498963 .21981812 .2619934 .21182251 .2619934 .21083069 .2619934 .2078247 .18699646 .12591553 .1769867 .11491394 .13999939 .07495117 .10598755 .037994386 .025985718 .035995485V0C.055999757 .0019989014 .07798767 .0039978029 .10899353 .0039978029 .13899231 .0039978029 .1789856 .0029907227 .20899964 0V.035995485C.19699097 .037994386 .18899536 .04498291 .18899536 .05897522 .18899536 .07795715 .19999695 .09094238 .21598816 .107925418L.28599549 .18486023 .37298585 .08595276C.3919983 .064971927 .3919983 .06297302 .3919983 .05697632 .3919983 .036987306 .36898805 .035995485 .36499024 .035995485V0C.37399293 .0009918213 .44599916 .0039978029 .47799684 .0039978029 .5099945 .0039978029 .5419922 .0029907227 .57398989 0V.035995485C.5069885 .035995485 .49899293 .041992189 .47599793 .06796265L.33898927 .22381592Z"/>
<path id="font_6_1" d="M.5149994 .3032837C.5149994 .3903656 .47200013 .44140626 .36499024 .44140626 .2829895 .44140626 .22999573 .39637757 .20199585 .34432984H.20098877V.44140626L.053985597 .43040467V.39437867C.12098694 .39437867 .1289978 .38737489 .1289978 .33831788V.07904053C.1289978 .035995485 .11898804 .035995485 .053985597 .035995485V0C.055999757 0 .12599182 .0039978029 .16799927 .0039978029 .20498657 .0039978029 .27398683 .0009918213 .2829895 0V.035995485C.21798706 .035995485 .20799256 .035995485 .20799256 .07904053V.25923158C.20799256 .36434938 .29100038 .4133911 .35699464 .4133911 .4269867 .4133911 .43598939 .3583374 .43598939 .3072815V.07904053C.43598939 .035995485 .42599488 .035995485 .36099244 .035995485V0C.36299134 0 .43299867 .0039978029 .47499085 .0039978029 .5119934 .0039978029 .58099368 .0009918213 .58999636 0V.035995485C.5249939 .035995485 .5149994 .035995485 .5149994 .07904053V.3032837Z"/>
<path id="font_7_1" d="M.22399903 .40837098C.22799683 .42237855 .22799683 .42437745 .22799683 .42837525 .22799683 .43737794 .22200012 .4423828 .21299744 .4423828 .19599915 .4423828 .11299133 .43437196 .09098816 .43237306 .08299255 .43138124 .069992069 .43037416 .069992069 .41337586 .069992069 .40037538 .08099365 .40037538 .09700012 .40037538 .14399719 .40037538 .14399719 .39337159 .14399719 .38435365 .14399719 .37734986 .1329956 .3353119 .1269989 .3112793 .11999512 .28125 .10798645 .23420716 .101989749 .21018982L.06199646 .052017213C.05899048 .039016725 .052993776 .015991211 .052993776 .0129852299 .052993776 0 .066986087 0 .070999149 0H.084991458C.23199463 .024993897 .38598634 .12409973 .47499085 .26423646 .5219879 .3393097 .5369873 .40637208 .5369873 .41337586 .5369873 .42938233 .5239868 .4423828 .5059967 .4423828 .47499085 .4423828 .46699525 .41537477 .46299745 .40138246 .4039917 .19917298 .2619934 .079055789 .12998963 .036010744L.22399903 .40837098Z"/>
<path id="font_8_2" d="M.5499878 .31877137C.5499878 .39183045 .5499878 .66503909 .30499269 .66503909 .05999756 .66503909 .05999756 .39183045 .05999756 .31877137 .05999756 .2467041 .05999756-.021484375 .30499269-.021484375 .5499878-.021484375 .5499878 .2467041 .5499878 .31877137M.30499269 .010513306C.2630005 .010513306 .19499207 .030517579 .17098999 .113601688 .15499878 .17164612 .15499878 .2697296 .15499878 .33177186 .15499878 .39883424 .15499878 .4758911 .16899109 .52993777 .19400025 .6200104 .269989 .6330261 .30499269 .6330261 .35099793 .6330261 .4169922 .6110077 .43899537 .5349426 .45399476 .48190309 .45498658 .408844 .45498658 .33177186 .45498658 .26771546 .45498658 .16664124 .43798829 .1105957 .4099884 .023513794 .33799745 .010513306 .30499269 .010513306Z"/>
<path id="font_1_27" d="M.73599246 0V.0309906H.71899417C.6569977 .0309906 .6459961 .039978029 .6359863 .06794739L.40899659 .69480898C.4039917 .70780947 .40098573 .7158203 .3849945 .7158203 .36898805 .7158203 .36698915 .70980837 .36099244 .6938019L.1459961 .09989929C.13398743 .06694031 .11099243 .03199768 .033996583 .0309906V0C.07199097 .0029907227 .09899902 .0029907227 .13598633 .0029907227L.24899292 0V.0309906C.19198609 .03199768 .1749878 .06295776 .1749878 .08192444 .1749878 .090911868 .1769867 .09590149 .1789856 .10090637L.22599793 .22973633H.4850006L.5389862 .078933719C.54299929 .06893921 .5439911 .06594849 .5439911 .060958864 .5439911 .0309906 .48799134 .0309906 .46199037 .0309906V0C.5069885 .0029907227 .5589905 .0029907227 .6049957 .0029907227L.73599246 0M.47299195 .2607422H.23699951L.35499574 .5877838 .47299195 .2607422Z"/>
<path id="font_1_63" d="M.5469971 0V.0309906C.49598695 .03125 .47099305 .03125 .46998597 .0622406V.25431825C.46998597 .3373413 .46998597 .36636354 .44198609 .4013672 .4189911 .42938233 .3809967 .4423828 .33099366 .4423828 .2639923 .4423828 .21499634 .40737916 .18399048 .35134889H.18299866V.69433596L.034988405 .6826172V.6516113C.102996829 .6516113 .11199951 .64463809 .11199951 .59580996V.077041629C.11199951 .0309906 .100997928 .0309906 .034988405 .0309906V0C.08198547 .0019989014 .100997928 .0029907227 .14898682 .0029907227 .19699097 .0029907227 .20999146 .0019989014 .2630005 0V.0309906C.19699097 .0309906 .18598938 .0309906 .18598938 .077041629V.2592163C.18598938 .36532594 .26098634 .41737367 .32398988 .41737367 .3829956 .41737367 .3959961 .3683319 .3959961 .30825807V.077041629C.3959961 .0309906 .3849945 .0309906 .31900025 .0309906V0C.3659973 .0019989014 .3849945 .0029907227 .43299867 .0029907227 .48098756 .0029907227 .49398805 .0019989014 .5469971 0Z"/>
<path id="font_1_44" d="M.19599915 .3766632C.19599915 .406662 .17199707 .43066407 .14199829 .43066407 .11199951 .43066407 .08799744 .406662 .08799744 .3766632 .08799744 .34765626 .11199951 .32266236 .14199829 .32266236 .17199707 .32266236 .19599915 .34765626 .19599915 .3766632M.19599915 .053985597C.19599915 .08299255 .17199707 .10798645 .14199829 .10798645 .11199951 .10798645 .08799744 .08299255 .08799744 .053985597 .08799744 .023986817 .11199951 0 .14199829 0 .17199707 0 .19599915 .023986817 .19599915 .053985597Z"/>
<path id="font_7_6" d="M.2869873 .6603241C.29100038 .67433169 .29100038 .67633059 .29100038 .68032839 .29100038 .68933108 .2849884 .69433596 .27598573 .69433596 .2619934 .69433596 .17399597 .6863251 .1539917 .6843262 .14399719 .68333438 .1329956 .6823273 .1329956 .665329 .1329956 .6523285 .14399719 .6523285 .1599884 .6523285 .20698548 .6523285 .20698548 .6453247 .20698548 .6363373 .20698548 .6323395 .20698548 .6303406 .20199585 .6123352L.05899048 .037261964C.054992677 .023254395 .054992677 .021255494 .054992677 .018249512 .054992677 .002243042 .067993167-.0107421879 .085998538-.0107421879 .11898804-.0107421879 .12599182 .018249512 .1309967 .038253786L.17799378 .22732544C.24598694 .22132874 .29699708 .19432068 .29699708 .14430237 .29699708 .1382904 .29699708 .1342926 .2939911 .11929321 .29299928 .11528015 .2899933 .10128784 .2899933 .090270999 .2899933 .03125 .33099366-.0107421879 .38598634-.0107421879 .42399598-.0107421879 .44799806 .012252808 .46598817 .041259767 .4909973 .07926941 .5049896 .13929749 .5049896 .14329529 .5049896 .14830017 .5019989 .15530396 .49198915 .15530396 .48098756 .15530396 .47898866 .15029907 .47399903 .1322937 .46099855 .08126831 .43598939 .014251709 .3889923 .014251709 .3600006 .014251709 .35699464 .040252687 .35699464 .06227112 .35699464 .08728027 .36299134 .11328125 .3639984 .11528015 .3659973 .121292117 .36799623 .13328552 .36799623 .14529419 .36799623 .21531677 .29499818 .24232483 .21798706 .25134278 .24798584 .27033998 .269989 .29135133 .3019867 .32336427 .35299684 .37435914 .394989 .41737367 .44799806 .41737367 .45999146 .41737367 .47299195 .41436769 .48098756 .405365 .43598939 .4013672 .4249878 .36436463 .4249878 .35035707 .4249878 .33135987 .43899537 .31436158 .46398927 .31436158 .4869995 .31436158 .5189972 .33236695 .5189972 .37635804 .5189972 .4093628 .49499513 .4423828 .44799806 .4423828 .3869934 .4423828 .33799745 .39335633 .29599 .35035707 .24798584 .30336 .22399903 .27934266 .18699646 .26333619L.2869873 .6603241Z"/>
<path id="font_9_1" d="M.70799258 .3310089C.7220001 .3310089 .7409973 .3310089 .7409973 .35202027 .7409973 .37402345 .71899417 .37402345 .70399478 .37402345H.09399414C.07899475 .37402345 .056991579 .37402345 .056991579 .35202027 .056991579 .3310089 .07699585 .3310089 .08999634 .3310089H.70799258M.70399478 .12695313C.71899417 .12695313 .7409973 .12695313 .7409973 .14894104 .7409973 .1699524 .7220001 .1699524 .70799258 .1699524H.08999634C.07699585 .1699524 .056991579 .1699524 .056991579 .14894104 .056991579 .12695313 .07899475 .12695313 .09399414 .12695313H.70399478Z"/>
<path id="font_7_2" d="M.18199158 .116867069C.1329956 .036987306 .08898926 .033981325 .04899597 .0309906 .041992189 .02999878 .036987306 .021987915 .036987306 .0129852299 .036987306 .0069885256 .040985109 0 .050994874 0 .069992069 0 .116989139 .0029907227 .13598633 .0029907227 .1579895 .0029907227 .21199036 0 .23399353 0 .23999024 0 .25299073 0 .25299073 .017990113 .25299073 .02999878 .24099732 .0309906 .23799134 .0309906 .22898865 .03199768 .19099427 .033981325 .19099427 .063949588 .19099427 .077926639 .20199585 .09689331 .20498657 .101882938L.28399659 .23068238H.54499819C.5479889 .2077179 .5509949 .17378235 .55400088 .14881897 .55799868 .10987854 .56399539 .06593323 .56399539 .062942508 .56399539 .047973634 .5499878 .0309906 .49198915 .0309906 .48199464 .0309906 .46899415 .0309906 .46899415 .0129852299 .46899415 .0019989014 .47698976 0 .48399354 0 .5029907 0 .5269928 .0019989014 .5469971 .0019989014 .5669861 .0019989014 .59098818 .0029907227 .6069946 .0029907227 .6399994 .0029907227 .6419983 .0029907227 .66600039 .0019989014 .6819916 .0009918213 .7049866 0 .72099307 0 .72698977 0 .73999026 0 .73999026 .017990113 .73999026 .0309906 .72898867 .0309906 .71699526 .0309906 .6569977 .0309906 .6559906 .037979127 .6529999 .06694031L.58299258 .68881228C.58099368 .7108154 .5799866 .7158203 .5629883 .7158203 .548996 .7158203 .54299929 .7088165 .5349884 .69581606L.18199158 .116867069M.30299378 .26168824 .5049896 .5917816 .5419922 .26168824H.30299378Z"/>
<path id="font_7_4" d="M.13699341 .22949219C.19799805 .22949219 .2630005 .22949219 .31599427 .24247742 .4099884 .2654724 .4269867 .32144166 .4269867 .35542298 .4269867 .41238404 .37399293 .4423828 .31498719 .4423828 .19898987 .4423828 .04699707 .3444214 .04699707 .17242432 .04699707 .077316287 .102996829-.0107421879 .21099854-.0107421879 .36099244-.0107421879 .44499208 .09333801 .44499208 .10635376 .44499208 .112350467 .43798829 .12036133 .43099977 .12036133 .42599488 .12036133 .4249878 .11936951 .41600038 .10835266 .35598756 .03427124 .2649994 .014251709 .21299744 .014251709 .14199829 .014251709 .12298584 .081329349 .12298584 .13137818 .12298584 .13337708 .12298584 .16841126 .13699341 .22949219M.14399719 .25448609C.18798828 .41238404 .29899598 .41737367 .31498719 .41737367 .34899903 .41737367 .3899994 .40138246 .3899994 .35542298 .3899994 .25448609 .23899842 .25448609 .14399719 .25448609Z"/>
<path id="font_10_1" d="M.79599 .22436524C.81199648 .22436524 .83699038 .22436524 .83699038 .2503662 .83699038 .2763672 .81199648 .2763672 .79599 .2763672H.1659851C.1499939 .2763672 .125 .2763672 .125 .2503662 .125 .22436524 .1499939 .22436524 .1659851 .22436524H.79599Z"/>
<path id="font_11_3" d="M.36698915 .33200074H.48599244C.57598879 .33200074 .5799866 .31500245 .5799866 .28399659 .5799866 .2599945 .57699587 .24899292 .57099917 .2290039 .57099917 .22799683 .57299807 .21499634 .58999636 .21499634 .60398867 .21499634 .60598757 .22000122 .6100006 .23699951L.66999819 .47485353C.66999819 .47584535 .66799929 .48883058 .651001 .48883058 .6359863 .48883058 .6339874 .48184205 .6309967 .4688568 .60899356 .38697816 .58200076 .37199403 .48799134 .37199403H.37799073L.43598939 .60466006C.44400025 .63661196 .44499208 .63861086 .4869995 .63861086H.6609955C.7939911 .63861086 .83399966 .61564639 .83399966 .51878359 .83399966 .5008087 .8299866 .47885133 .8299866 .4618683 .8299866 .4449005 .84399417 .4449005 .848999 .4449005 .86499026 .4449005 .8659973 .45288087 .8679962 .4708557L.8860016 .6476135C.8889923 .6786041 .8809967 .6786041 .85598757 .6786041H.27799989C.25898744 .6786041 .24499512 .6786041 .24499512 .6536102 .24499512 .63861086 .2579956 .63861086 .2769928 .63861086 .29499818 .63861086 .31999208 .63861086 .34098817 .6316223 .34098817 .62164309 .34098817 .61564639 .33699037 .5996704L.20698548 .08299255C.19799805 .04699707 .19599915 .039993287 .12098694 .039993287 .09799194 .039993287 .084991458 .039993287 .084991458 .01499939 .084991458 0 .09799194 0 .115997318 0H.70999148C.7299957 0 .7319946 0 .73599246 .0029907227 .7389984 .005996704 .7389984 .0079956059 .74598696 .019989014 .7579956 .04699707 .84799197 .24499512 .84799197 .2519989 .84799197 .2669983 .83299258 .2669983 .82899478 .2669983 .81599429 .2669983 .8149872 .2639923 .80400088 .24099732 .7369995 .09098816 .68499758 .039993287 .5119934 .039993287H.32998658C.31098939 .039993287 .30899049 .039993287 .29699708 .042999269L.36698915 .33200074Z"/>
<path id="font_12_2" d="M.5779877 .32435609C.58299258 .34535218 .59298709 .38237 .59298709 .38737489 .59298709 .40437318 .5799866 .42237855 .55599978 .42237855 .5379944 .42237855 .5139923 .41036988 .5059967 .38237 .4869995 .40837098 .44898988 .4423828 .38598634 .4423828 .24499512 .4423828 .10499573 .30534364 .10499573 .16329956 .10499573 .061264039 .17999268-.0107421879 .27999879-.0107421879 .3619995-.0107421879 .42599488 .04725647 .43798829 .059265138 .45599366 .010253906 .5109863-.0107421879 .55599978-.0107421879 .59599307-.0107421879 .6230011 .012252808 .6439972 .04525757 .66999819 .08427429 .6839905 .13728333 .6839905 .14428711 .6839905 .15829468 .6669922 .15829468 .6629944 .15829468 .644989 .15829468 .6439972 .15229798 .6389923 .1362915 .62098696 .06225586 .59498599 .023254395 .55999758 .023254395 .5319977 .023254395 .519989 .04525757 .519989 .07626343 .519989 .091278079 .5299988 .12928772 .5359955 .15629578L.5779877 .32435609M.44400025 .13328552C.43998719 .11828613 .43998719 .11628723 .42199708 .0962677 .3849945 .054260255 .33299256 .023254395 .2829895 .023254395 .24798584 .023254395 .19499207 .042251588 .19499207 .12528992 .19499207 .17129517 .21899414 .27633668 .2539978 .32835389 .29299928 .38336183 .34399415 .40837098 .38598634 .40837098 .43099977 .40837098 .47399903 .38136292 .48999024 .3213501L.44400025 .13328552Z"/>
<path id="font_11_1" d="M.5379944 .70199587C.54499819 .71798709 .54499819 .7200012 .54499819 .723999 .54499819 .73799136 .5329895 .75 .5189972 .75 .5019989 .75 .49699403 .73799136 .4909973 .723999L.099990848-.20201111C.09298706-.21800232 .09298706-.22000122 .09298706-.22401428 .09298706-.23800659 .10499573-.25 .11898804-.25 .13598633-.25 .14099121-.23800659 .14698792-.22401428L.5379944 .70199587Z"/>
<path id="font_11_5" d="M.43499757 .60858157C.44299317 .64060977 .44400025 .64260867 .48599244 .64260867H.58399966C.6839905 .64260867 .7569885 .6175995 .7569885 .5385437 .7569885 .5035095 .74198916 .43145753 .6729889 .3924408 .6339874 .37042237 .5799866 .35742188 .5119934 .35742188H.37199403L.43499757 .60858157M.6399994 .3394165C.7369995 .36141969 .86499026 .42945863 .86499026 .52752688 .86499026 .6105957 .7599945 .6826172 .60398867 .6826172H.2809906C.2619934 .6826172 .24699402 .6826172 .24699402 .65760806 .24699402 .64260867 .2619934 .64260867 .27999879 .64260867 .2979889 .64260867 .32299806 .64260867 .34399415 .63560488 .34399415 .6255951 .34399415 .6195984 .33999635 .60357668L.20899964 .082901C.19999695 .04698181 .19799805 .039993287 .12298584 .039993287 .100997928 .039993287 .09899902 .039993287 .09498596 .036987306 .08999634 .032989503 .085998538 .019989014 .085998538 .01399231 .08699036 .009994507 .08799744 0 .102996829 0 .1329956 0 .20599365 .0039978029 .23599243 .0039978029 .29699708 .0039978029 .23199463 .0039978029 .30499269 .0029907227 .32699586 .0029907227 .35099793 0 .37199403 0 .37799073 0 .3849945 0 .3889923 .0069885256 .3909912 .009994507 .394989 .021987915 .394989 .025985718 .3919983 .039993287 .3829956 .039993287 .3600006 .039993287 .34799195 .039993287 .33299256 .040985109 .32199098 .041992189 .3039856 .04397583 .29699708 .04397583 .29699708 .05496216 .29699708 .058944704 .2979889 .062942508 .30099488 .07292175L.3639984 .3244171H.5079956C.59599307 .3244171 .6399994 .28442384 .6399994 .23643494 .6399994 .22444153 .6309967 .1904602 .625 .16746521 .6139984 .12147522 .6100006 .10748291 .6100006 .08947754 .6100006 .01550293 .6779938-.021484375 .7649994-.021484375 .85899356-.021484375 .9029999 .07348633 .9029999 .09648132 .9029999 .10247803 .897995 .11148071 .8849945 .11148071 .87098696 .11148071 .8679962 .10348511 .8659973 .09648132 .84298709 .028503418 .79499819 .011505127 .769989 .011505127 .7429962 .011505127 .72099307 .021499634 .72099307 .08049011 .72099307 .10348511 .7279968 .15846253 .73098757 .1844635 .7319946 .19445801 .7350006 .2154541 .7350006 .2234497 .7350006 .2894287 .68299868 .3244171 .6399994 .3394165Z"/>
<path id="font_11_6" d="M.519989 .6016388C.5279999 .63360598 .5299988 .63560488 .57099917 .63560488H.6629944C.769989 .63560488 .7849884 .6046295 .7849884 .5466614 .7849884 .5326843 .7829895 .5056915 .7789917 .4747162 .7779999 .4717102 .776001 .46072389 .776001 .4577179 .776001 .44773866 .7839966 .44174195 .79499819 .44174195 .8109894 .44174195 .8129883 .4517212 .8149872 .46672059L.84199526 .6586151C.84199526 .6756134 .83099368 .6756134 .8109894 .6756134H.16099549C.1349945 .6756134 .1329956 .6756134 .12599182 .65460208L.06098938 .4727173C.056991579 .46072389 .056991579 .4577179 .056991579 .45672608 .056991579 .4537201 .057998659 .44174195 .07499695 .44174195 .08898926 .44174195 .08999634 .44473268 .09899902 .47071839 .14399719 .5926361 .1749878 .63560488 .3039856 .63560488H.394989C.4139862 .63560488 .41600038 .63560488 .42799378 .63261416L.29299928 .08596802C.28599549 .0579834 .2809906 .048980714 .25299073 .04498291 .22499085 .039993287 .16699219 .039993287 .1659851 .039993287 .13999939 .039993287 .13798523 .039993287 .13398743 .036987306 .1289978 .032989503 .125 .018997193 .125 .01399231 .125 .0129852299 .1269989 0 .14399719 0 .17098999 0 .20098877 .0029907227 .22799683 .0029907227 .2679901 .0029907227 .2939911 .0039978029 .32099916 .0039978029 .35099793 .0039978029 .3809967 .0029907227 .41099549 .0029907227 .43998719 .0029907227 .47200013 0 .5009918 0 .5089874 0 .5159912 0 .519989 .0069885256 .5219879 .009994507 .526001 .021987915 .526001 .025985718 .522995 .039993287 .5159912 .039993287 .4850006 .039993287 .46299745 .039993287 .44198609 .040985109 .41999818 .041992189 .39698792 .04399109 .3849945 .04498291 .3849945 .0599823L.519989 .6016388Z"/>
<path id="font_1_49" d="M.6689911 .2579193H.6409912C.6159973 .10296631 .58999636 .0309906 .4189911 .0309906H.2789917C.23199463 .0309906 .22999573 .037994386 .22999573 .07197571V.33789063H.32299806C.42099 .33789063 .43299867 .30690003 .43299867 .220932H.46099855V.48606874H.43299867C.43299867 .39994813 .42099 .36888124 .32299806 .36888124H.22999573V.6077728C.22999573 .6416931 .23199463 .64868167 .2789917 .64868167H.41299439C.56900027 .64868167 .5970001 .59480288 .61299136 .45507813H.6409912L.61299136 .6796875H.037994386V.64868167H.06098938C.13798523 .64868167 .13999939 .6377106 .13999939 .60079959V.07899475C.13999939 .041992189 .13798523 .0309906 .06098938 .0309906H.037994386V0H.6259918L.6689911 .2579193Z"/>
<path id="font_11_2" d="M.20999146 .082977298C.20098877 .04698181 .19898987 .039993287 .12399292 .039993287 .101989749 .039993287 .099990848 .039993287 .09599304 .036987306 .09098816 .032989503 .08699036 .019989014 .08699036 .01399231 .08999634 0 .09899902 0 .11898804 0H.526001C.69898989 0 .83499148 .112960819 .83499148 .21292115 .83499148 .27488709 .7809906 .3408661 .6559906 .35786439 .7709961 .3758545 .8849945 .4487915 .8849945 .53970339 .8849945 .6116333 .80599978 .6826172 .6649933 .6826172H.28199769C.2630005 .6826172 .24798584 .6826172 .24798584 .65760806 .24798584 .64260867 .2630005 .64260867 .2809906 .64260867 .29899598 .64260867 .32398988 .64260867 .34498597 .6356201 .34498597 .6256256 .34498597 .6196289 .34098817 .6036377L.20999146 .082977298M.37399293 .3718567 .43299867 .6086426C.44099427 .64060977 .44198609 .64260867 .48399354 .64260867H.6489868C.7529907 .64260867 .7829895 .57966616 .7829895 .53770449 .7829895 .45578004 .67900088 .3718567 .55599978 .3718567H.37399293M.32598878 .039993287C.30699159 .039993287 .30499269 .039993287 .29299928 .04298401L.36499024 .3388672H.58299258C.70899966 .3388672 .7299957 .2578888 .7299957 .21791077 .7299957 .12194824 .6239929 .039993287 .5 .039993287H.32598878Z"/>
<path id="font_7_3" d="M.43899537 .6086273C.44499208 .63061526 .44699098 .64060977 .46398927 .6436157 .47200013 .6456146 .5039978 .6456146 .5249939 .6456146 .6399994 .6456146 .673996 .63861086 .673996 .56066897 .673996 .54766848 .673996 .5326843 .6649933 .4737091L.6639862 .4657135C.6639862 .45872499 .66799929 .45173646 .6779938 .45173646 .6899872 .45173646 .69200137 .46072389 .69400027 .475708L.7200012 .64860537C.72099307 .6536102 .7220001 .65960696 .7220001 .6626129 .7220001 .6766052 .71199038 .6766052 .69299319 .6766052H.12399292C.099990848 .6766052 .09899902 .6756134 .09199524 .6566162L.02999878 .4807129C.025985718 .4677124 .025985718 .4657135 .025985718 .46472169 .025985718 .45973207 .0289917 .45173646 .038986207 .45173646 .049987794 .45173646 .051986696 .45773316 .057998659 .475708 .11299133 .6316223 .14399719 .6456146 .2889862 .6456146H.32798768C.35598756 .6456146 .35598756 .64260867 .35598756 .63461306 .35598756 .62861636 .35398866 .6216278 .35198976 .6136322L.21798706 .07896423C.20899964 .04298401 .20599365 .0309906 .099990848 .0309906 .067993167 .0309906 .05899048 .0309906 .05899048 .0129852299 .05899048 0 .07199097 0 .07598877 0 .101989749 0 .1309967 .0019989014 .1579895 .0019989014 .18598938 .0019989014 .21499634 .0029907227 .24299622 .0029907227 .2869873 .0029907227 .2889862 .0029907227 .32598878 .0019989014 .33898927 .0019989014 .40499879 0 .41299439 0 .42199708 0 .43399049 0 .43399049 .017990113 .43399049 .0309906 .4249878 .0309906 .3999939 .0309906 .375 .0309906 .36299134 .0309906 .33599855 .032989503 .31298829 .035995485 .30099488 .036987306 .30099488 .053985597 .30099488 .05897522 .30299378 .066970828 .30499269 .07395935L.43899537 .6086273Z"/>
<path id="font_7_5" d="M.2869873 .6603241C.29100038 .67433169 .29100038 .67633059 .29100038 .68032839 .29100038 .68933108 .2849884 .69433596 .27598573 .69433596 .2619934 .69433596 .17399597 .6863251 .1539917 .6843262 .14399719 .68333438 .1329956 .6823273 .1329956 .665329 .1329956 .6523285 .14399719 .6523285 .1599884 .6523285 .20698548 .6523285 .20698548 .6453247 .20698548 .6363373 .20698548 .6323395 .20698548 .6303406 .20199585 .6123352L.05899048 .037261964C.054992677 .023254395 .054992677 .021255494 .054992677 .018249512 .054992677 .002243042 .067993167-.0107421879 .085998538-.0107421879 .102996829-.0107421879 .116989139-.00074768069 .12399292 .013244629 .12599182 .018249512 .1349945 .054260255 .13999939 .07527161L.16299439 .16429138C.1659851 .17930603 .17599488 .21731568 .1789856 .23231507L.19099427 .27633668C.19599915 .29934693 .25299073 .41737367 .36099244 .41737367 .4149933 .41737367 .4149933 .36436463 .4149933 .34735108 .4149933 .28633119 .36799623 .16429138 .35699464 .13328552 .34498597 .10227966 .34098817 .0922699 .34098817 .073272708 .34098817 .019256592 .38198854-.0107421879 .4269867-.0107421879 .522995-.0107421879 .56199648 .1322937 .56199648 .14329529 .56199648 .14828491 .5589905 .1552887 .548996 .1552887 .5379944 .1552887 .5369873 .15029907 .5329895 .13728333 .5079956 .052261354 .46598817 .014251709 .42999269 .014251709 .4229889 .014251709 .40499879 .014251709 .40499879 .04626465 .40499879 .0712738 .4149933 .09727478 .4229889 .119277957 .44299317 .17030335 .48298646 .27633668 .48298646 .33235169 .48298646 .42137147 .4169922 .4423828 .3639984 .4423828 .3039856 .4423828 .25299073 .41438294 .21299744 .36535646L.2869873 .6603241Z"/>
<path id="font_8_1" d="M.5349884 .691864C.5249939 .7088623 .5169983 .7138672 .49899293 .7138672 .48098756 .7138672 .47299195 .7068634 .46398927 .691864L.07699585 .025985718C.07499695 .022994996 .070999149 .01499939 .070999149 .010986328 .070999149 0 .07998657 0 .09599304 0H.9029999C.9189911 0 .9279938 0 .9279938 .010986328 .9279938 .01399231 .9259949 .016998291 .9229889 .022994996L.5349884 .691864M.46398927 .61387637 .7709961 .085998538H.1579895L.46398927 .61387637Z"/>
<path id="font_11_4" d="M.8899994 .6750946C.8919983 .6840973 .8929901 .6880951 .8929901 .690094 .8929901 .6920929 .8919983 .70410159 .8779907 .70410159 .8699951 .70410159 .86898806 .7030945 .85899356 .6920929L.7939911 .62402346C.79299929 .62301638 .7859955 .6159973 .7839966 .6159973 .7829895 .6159973 .7819977 .6170044 .7789917 .6190033 .7539978 .64805606 .69999697 .70410159 .58399966 .70410159 .33198548 .70410159 .084991458 .49276734 .084991458 .2653656 .084991458 .10745239 .20999146-.021484375 .4149933-.021484375 .48799134-.021484375 .5970001-.009490967 .6609955 .055480958 .6669922 .042495729 .69599917-.00048828127 .71099856-.00048828127 .71499636-.00048828127 .7200012 .0025024415 .7220001 .005508423 .7259979 .013504028 .7529907 .124435428 .7579956 .14541626 .7639923 .16940308 .7669983 .18240357 .7709961 .19639588 .7809906 .23536682 .7839966 .23536682 .84199526 .23635865 .85198977 .23635865 .86698916 .23635865 .86698916 .26135255 .86698916 .27035523 .8600006 .2763672 .8509979 .2763672 .83299258 .2763672 .81199648 .2733612 .7939911 .2733612 .7739868 .2733612 .7539978 .27235414 .73298647 .27235414 .70599368 .27235414 .6779938 .2733612 .6499939 .2733612 .6230011 .2733612 .59298709 .2763672 .56599429 .2763672 .55799868 .2763672 .5509949 .2763672 .5469971 .2693634 .54499819 .26635743 .54100039 .254364 .54100039 .2503662 .5439911 .23635865 .5509949 .23635865 .58399966 .23635865 .6029968 .23635865 .6230011 .23536682 .6419983 .23435974 .6749878 .23136902 .6769867 .22737122 .6769867 .21636963 .6769867 .21037293 .6589966 .14242554 .6559906 .13043213 .651001 .108444217 .6409912 .06947327 .57499697 .042495729 .5169983 .018508912 .45098878 .018508912 .43798829 .018508912 .32299806 .018508912 .18998719 .07147217 .18998719 .23936463 .18998719 .30541993 .21398926 .43966676 .31498719 .5458679 .34799195 .5799408 .45199586 .664093 .59498599 .664093 .72099307 .664093 .79100039 .57492068 .79100039 .46672059 .79100039 .44969178 .7879944 .43165589 .7879944 .42965699 .7879944 .41462709 .8029938 .41462709 .80799868 .41462709 .82099917 .41462709 .82598879 .4156189 .83099368 .43666078L.8899994 .6750946Z"/>
<path id="font_13_1" d="M.34899903 .4625702C.37399293 .4595642 .397995 .4535675 .41299439 .4495697 .46699525 .4345703 .48298646 .4345703 .49499513 .4345703 .5379944 .4345703 .54299929 .4645691 .54299929 .47756959 .54299929 .4975586 .5279999 .51956179 .5 .51956179 .47898866 .51956179 .45899964 .51756289 .41099549 .5045624 .3899994 .49856568 .37098695 .49456788 .34899903 .4915619 .34999085 .50756838 .35099793 .52056887 .36099244 .5636902 .3659973 .5827484 .3769989 .62789919 .3769989 .6569824 .3769989 .7050781 .33699037 .7050781 .33399964 .7050781 .32998658 .7050781 .29100038 .70407107 .29100038 .6569824 .29100038 .628891 .30099488 .58776858 .30699159 .5606842 .31698609 .51956179 .31799317 .50956729 .31900025 .4915619 .2939911 .49456788 .269989 .5005646 .25498963 .5045624 .20999146 .51756289 .18899536 .51956179 .16799927 .51956179 .13999939 .51956179 .125 .4975586 .125 .47756959 .125 .4655609 .1289978 .4345703 .17298889 .4345703 .18499756 .4345703 .20098877 .4345703 .2559967 .4495697 .27198792 .4535675 .29499818 .4595642 .31900025 .4625702 .31799317 .44656373 .31698609 .43356324 .30699159 .3905487 .3019867 .37153626 .29100038 .32652284 .29100038 .29751588 .29100038 .24949646 .33099366 .24949646 .33399964 .24949646 .33799745 .24949646 .3769989 .25050355 .3769989 .29751588 .3769989 .32551576 .36698915 .36653138 .36099244 .39353944 .35099793 .4345703 .34999085 .44456483 .34899903 .4625702M.34899903 .006515503C.3659973 .004501343 .375 .0035095216 .41299439-.0064849855 .43798829-.0134887699 .47200013-.021484375 .49598695-.021484375 .5399933-.021484375 .54299929 .014511108 .54299929 .021514893 .54299929 .028503418 .5399933 .06451416 .49598695 .06451416 .47200013 .06451416 .43798829 .056503297 .41299439 .04951477 .375 .039505006 .3659973 .038513185 .34899903 .036514284 .35099793 .055511476 .35099793 .06651306 .3600006 .102508548 .36698915 .1315155 .3769989 .17150879 .3769989 .20051575 .3769989 .24850464 .33699037 .24850464 .33399964 .24850464 .32998658 .24850464 .29100038 .24751282 .29100038 .20051575 .29100038 .17550659 .29899598 .14050293 .30499269 .116500858 .31698609 .06750488 .31698609 .059509279 .31900025 .036514284 .3019867 .038513185 .29299928 .039505006 .25498963 .04951477 .22999573 .056503297 .19599915 .06451416 .17199707 .06451416 .12799073 .06451416 .125 .028503418 .125 .021514893 .125 .014511108 .12799073-.021484375 .17199707-.021484375 .19599915-.021484375 .22999573-.0134887699 .25498963-.0064849855 .29299928 .0035095216 .3019867 .004501343 .31900025 .006515503 .31698609-.012496948 .31698609-.023498536 .30799867-.059509279 .30099488-.088531497 .29100038-.1285553 .29100038-.15756226 .29100038-.20558167 .33099366-.20558167 .33399964-.20558167 .33799745-.20558167 .3769989-.20457459 .3769989-.15756226 .3769989-.1325531 .36898805-.09753418 .36299134-.073516849 .35099793-.024490357 .35099793-.016494751 .34899903 .006515503Z"/>
<path id="font_11_7" d="M.33198548 .66430667C.33299256 .66830447 .33499146 .67430117 .33499146 .67930606 .33499146 .6953125 .31498719 .6943054 .30299378 .69329836L.19099427 .6843109C.17399597 .68330386 .16099549 .682312 .16099549 .65830996 .16099549 .64331057 .17399597 .64331057 .18998719 .64331057 .21899414 .64331057 .22599793 .64030459 .23899842 .63630679 .23899842 .62431338 .23899842 .62231448 .23498535 .60632327L.09498596 .04725647C.09098816 .031234742 .09098816 .026229859 .09098816 .024230957 .09098816-.00077819827 .11099243-.009765625 .12599182-.009765625 .13598633-.009765625 .1539917-.0057678224 .16699219 .01322937 .17399597 .026229859 .21398926 .19239807 .22099304 .22442627 .28799439 .21942139 .3600006 .20339966 .3600006 .14434815 .3600006 .13934326 .3600006 .13433838 .35699464 .12332153 .35398866 .108306888 .35398866 .10231018 .35398866 .09429932 .35398866 .02822876 .4099884-.009765625 .46699525-.009765625 .56399539-.009765625 .598999 .13633728 .598999 .14434815 .598999 .14634705 .59799197 .15835572 .5799866 .15835572 .56599429 .15835572 .56399539 .15235901 .5589905 .13534546 .548996 .0993042 .5209961 .023223877 .46998597 .023223877 .43199159 .023223877 .43199159 .06626892 .43199159 .07728577 .43199159 .09329224 .43199159 .09429932 .43699647 .11431885 .43699647 .11532593 .44198609 .13534546 .44198609 .14735413 .44198609 .22442627 .35499574 .2484436 .27799989 .25546266 .3019867 .2704773 .32299806 .28648377 .36299134 .3215027 .41299439 .36549378 .46499635 .4084015 .519989 .4084015 .5329895 .4084015 .54499819 .40542604 .55400088 .3955078 .5189972 .38850404 .5039978 .36050416 .5039978 .3394928 .5039978 .30749513 .5299988 .3005066 .5439911 .3005066 .56599429 .3005066 .60198977 .3164978 .60198977 .36650086 .60198977 .4093933 .56999209 .44140626 .5209961 .44140626 .45799256 .44140626 .39898683 .39349366 .35299684 .35350038 .30099488 .3085022 .269989 .28248597 .23298645 .26846314L.33198548 .66430667Z"/>
<path id="font_12_1" d="M.24798584 .082977298C.23999024 .052993776 .23899842 .04499817 .16299439 .04499817 .13699341 .04499817 .12098694 .04499817 .12098694 .016998291 .12098694 0 .13699341 0 .1539917 0H.58898928C.7689972 0 .9149933 .111968997 .9149933 .21191406 .9149933 .27389527 .8569946 .3408661 .72099307 .35786439 .81999209 .37086488 .96099856 .4367981 .96099856 .53671267 .96099856 .6206207 .8619995 .6826172 .7259979 .6826172H.31599427C.29699708 .6826172 .2809906 .6826172 .2809906 .65460208 .2809906 .63760378 .2939911 .63760378 .31799317 .63760378 .32798768 .63760378 .36099244 .63760378 .38198854 .6316223 .38198854 .6196289 .38198854 .61763 .3789978 .6066437L.24798584 .082977298M.4169922 .3718567 .47499085 .6046448C.48298646 .63560488 .48298646 .63760378 .5249939 .63760378H.70799258C.8069916 .63760378 .85398867 .58665469 .85398867 .53370669 .85398867 .4527893 .74598696 .3718567 .60598757 .3718567H.4169922M.36898805 .04499817C.36099244 .04499817 .34700013 .04499817 .33699037 .04699707 .33799745 .054992677 .33799745 .056991579 .33999635 .06498718L.4079895 .3378601H.6519928C.7539978 .3378601 .8049927 .2788849 .8049927 .21591187 .8049927 .11895752 .6859894 .04499817 .56199648 .04499817H.36898805Z"/>
</defs>
<path transform="matrix(1,0,0,-1,43.95066,221.45873)" stroke-width=".69739" stroke-linecap="butt" stroke-miterlimit="10" stroke-linejoin="miter" fill="none" stroke="#000000" d="M0 0H334.38334"/>
<path transform="matrix(1,0,0,-1,378.33399,221.45873)" d="M4.34067 0C3.80762 .13171 1.46448 .8782 0 1.69055V-1.69055C1.46448-.8782 3.80762-.13171 4.34067 0Z"/>
<path transform="matrix(1,0,0,-1,378.33399,221.45873)" stroke-width=".69739" stroke-linecap="butt" stroke-miterlimit="10" stroke-linejoin="miter" fill="none" stroke="#000000" d="M4.34067 0C3.80762 .13171 1.46448 .8782 0 1.69055V-1.69055C1.46448-.8782 3.80762-.13171 4.34067 0Z"/>
<use data-text="r" xlink:href="#font_1_96" transform="matrix(8.966376,0,0,-8.966376,387.78163,224.5208)"/>
<use data-text="e" xlink:href="#font_1_50" transform="matrix(8.966376,0,0,-8.966376,391.3861,224.5208)"/>
<use data-text="a" xlink:href="#font_1_28" transform="matrix(8.966376,0,0,-8.966376,395.48374,224.5208)"/>
<use data-text="c" xlink:href="#font_1_43" transform="matrix(8.966376,0,0,-8.966376,400.09248,224.5208)"/>
<use data-text="t" xlink:href="#font_1_105" transform="matrix(8.966376,0,0,-8.966376,404.1901,224.5208)"/>
<use data-text="i" xlink:href="#font_1_66" transform="matrix(8.966376,0,0,-8.966376,407.77665,224.5208)"/>
<use data-text="o" xlink:href="#font_1_81" transform="matrix(8.966376,0,0,-8.966376,410.34104,224.5208)"/>
<use data-text="n" xlink:href="#font_1_77" transform="matrix(8.966376,0,0,-8.966376,414.94975,224.5208)"/>
<use data-text="c" xlink:href="#font_1_43" transform="matrix(8.966376,0,0,-8.966376,423.14503,224.5208)"/>
<use data-text="o" xlink:href="#font_1_81" transform="matrix(8.966376,0,0,-8.966376,427.24266,224.5208)"/>
<use data-text="o" xlink:href="#font_1_81" transform="matrix(8.966376,0,0,-8.966376,432.1114,224.5208)"/>
<use data-text="r" xlink:href="#font_1_96" transform="matrix(8.966376,0,0,-8.966376,436.7201,224.5208)"/>
<use data-text="d" xlink:href="#font_1_47" transform="matrix(8.966376,0,0,-8.966376,440.3246,224.5208)"/>
<use data-text="i" xlink:href="#font_1_66" transform="matrix(8.966376,0,0,-8.966376,445.4444,224.5208)"/>
<use data-text="n" xlink:href="#font_1_77" transform="matrix(8.966376,0,0,-8.966376,448.0088,224.5208)"/>
<use data-text="a" xlink:href="#font_1_28" transform="matrix(8.966376,0,0,-8.966376,453.12858,224.5208)"/>
<use data-text="t" xlink:href="#font_1_105" transform="matrix(8.966376,0,0,-8.966376,457.7373,224.5208)"/>
<use data-text="e" xlink:href="#font_1_50" transform="matrix(8.966376,0,0,-8.966376,461.32386,224.5208)"/>
<path transform="matrix(1,0,0,-1,43.95066,221.45873)" stroke-width=".69739" stroke-linecap="butt" stroke-miterlimit="10" stroke-linejoin="miter" fill="none" stroke="#000000" d="M0 0V192.64926"/>
<path transform="matrix(0,-1,-1,-0,43.95066,28.809464)" d="M4.34067 0C3.80762 .13171 1.46448 .8782 0 1.69055V-1.69055C1.46448-.8782 3.80762-.13171 4.34067 0Z"/>
<path transform="matrix(0,-1,-1,-0,43.95066,28.809464)" stroke-width=".69739" stroke-linecap="butt" stroke-miterlimit="10" stroke-linejoin="miter" fill="none" stroke="#000000" d="M4.34067 0C3.80762 .13171 1.46448 .8782 0 1.69055V-1.69055C1.46448-.8782 3.80762-.13171 4.34067 0Z"/>
<use data-text="p" xlink:href="#font_1_84" transform="matrix(8.966376,0,0,-8.966376,11.290211,17.51474)"/>
<use data-text="o" xlink:href="#font_1_81" transform="matrix(8.966376,0,0,-8.966376,16.670037,17.51474)"/>
<use data-text="t" xlink:href="#font_1_105" transform="matrix(8.966376,0,0,-8.966376,21.278754,17.51474)"/>
<use data-text="e" xlink:href="#font_1_50" transform="matrix(8.966376,0,0,-8.966376,24.865303,17.51474)"/>
<use data-text="n" xlink:href="#font_1_77" transform="matrix(8.966376,0,0,-8.966376,28.962939,17.51474)"/>
<use data-text="t" xlink:href="#font_1_105" transform="matrix(8.966376,0,0,-8.966376,33.83168,17.51474)"/>
<use data-text="i" xlink:href="#font_1_66" transform="matrix(8.966376,0,0,-8.966376,37.418233,17.51474)"/>
<use data-text="a" xlink:href="#font_1_28" transform="matrix(8.966376,0,0,-8.966376,39.982618,17.51474)"/>
<use data-text="l" xlink:href="#font_1_72" transform="matrix(8.966376,0,0,-8.966376,44.59133,17.51474)"/>
<use data-text="e" xlink:href="#font_1_50" transform="matrix(8.966376,0,0,-8.966376,50.222219,17.51474)"/>
<use data-text="n" xlink:href="#font_1_77" transform="matrix(8.966376,0,0,-8.966376,54.31985,17.51474)"/>
<use data-text="e" xlink:href="#font_1_50" transform="matrix(8.966376,0,0,-8.966376,59.43965,17.51474)"/>
<use data-text="r" xlink:href="#font_1_96" transform="matrix(8.966376,0,0,-8.966376,63.537286,17.51474)"/>
<use data-text="g" xlink:href="#font_1_59" transform="matrix(8.966376,0,0,-8.966376,67.14177,17.51474)"/>
<use data-text="y" xlink:href="#font_1_118" transform="matrix(8.966376,0,0,-8.966376,71.75049,17.51474)"/>
<path transform="matrix(1,0,0,-1,43.95066,221.45873)" stroke-width="1.39478" stroke-linecap="butt" stroke-miterlimit="10" stroke-linejoin="miter" fill="none" stroke="#000000" d="M17.00824 51.75748C17.00824 51.75748 18.11954 51.36345 18.54634 51.20514 18.97316 51.04683 19.65764 50.78484 20.08446 50.61644 20.51126 50.44804 21.19574 50.16946 21.62256 49.99142 22.04936 49.81339 22.73386 49.51968 23.16066 49.3331 23.58748 49.14653 24.27196 48.8413 24.69876 48.64667 25.12558 48.45206 25.81006 48.13257 26.23688 47.93039 26.66368 47.7282 27.34818 47.3978 27.77498 47.18944 28.2018 46.98108 28.88628 46.6414 29.31308 46.42862 29.7399 46.21582 30.42438 45.87154 30.8512 45.65567 31.278 45.4398 31.9625 45.09042 32.3893 44.87277 32.8161 44.6551 33.5006 44.3047 33.9274 44.08685 34.35422 43.869 35.0387 43.5166 35.46552 43.30266 35.89232 43.08873 36.5768 42.75406 37.00362 42.54486 37.43042 42.33566 38.11491 41.99918 38.54172 41.79483 38.96854 41.59048 39.65302 41.26836 40.07982 41.07205 40.50664 40.87576 41.19112 40.5661 41.61794 40.38 42.04474 40.19391 42.72923 39.90414 43.15604 39.73076 43.58286 39.55737 44.26732 39.28937 44.69412 39.1304 45.12094 38.97144 45.80542 38.72768 46.23224 38.58498 46.65904 38.44228 47.34354 38.2264 47.77034 38.10182 48.19714 37.97723 48.88164 37.79204 49.30844 37.68703 49.73526 37.582 50.41974 37.42914 50.84656 37.34488 51.27336 37.26064 51.95784 37.14172 52.38466 37.07973 52.81146 37.01773 53.49596 36.93707 53.92276 36.89807 54.34958 36.85905 55.03406 36.81346 55.46086 36.79858 55.88768 36.7837 56.57216 36.78192 56.99898 36.7908 57.42578 36.79968 58.11028 36.82996 58.53708 36.8626 58.9639 36.89523 59.64838 36.96878 60.07518 37.0261 60.502 37.0834 61.18648 37.19472 61.6133 37.27567 62.0401 37.35661 62.7246 37.50584 63.1514 37.60959 63.5782 37.71335 64.2627 37.89775 64.6895 38.02353 65.11632 38.1493 65.8008 38.36928 66.22762 38.51619 66.65442 38.6631 67.3389 38.91551 67.76572 39.0824 68.19252 39.24928 68.87701 39.53352 69.30382 39.71909 69.73064 39.90463 70.41512 40.21689 70.84192 40.41978 71.26874 40.6227 71.95322 40.96341 72.38004 41.1815 72.80684 41.39958 73.49133 41.7609 73.91814 41.99164 74.34496 42.2224 75.02943 42.60078 75.45624 42.8446 75.88306 43.08844 76.56754 43.49178 76.99435 43.74904 77.42116 44.0063 78.10565 44.43153 78.53246 44.69888 78.95926 44.96625 79.64374 45.40108 80.07054 45.676 80.49736 45.95091 81.18184 46.39822 81.60866 46.68034 82.03546 46.96246 82.71994 47.42004 83.14676 47.70937 83.57356 47.99869 84.25806 48.47131 84.68486 48.76561 85.11168 49.0599 85.79616 49.531 86.22296 49.83052 86.64978 50.13005 87.33426 50.61752 87.76108 50.92442 88.18788 51.23131 88.87238 51.73154 89.29918 52.04253 89.726 52.35352 90.41048 52.84901 90.83728 53.16583 91.2641 53.48264 91.94858 54.0031 92.3754 54.32588 92.8022 54.64868 93.4867 55.16339 93.9135 55.49245 94.3403 55.82149 95.0248 56.3618 95.4516 56.69751 95.87842 57.0332 96.5629 57.56909 96.98972 57.91206 97.41652 58.25504 98.101 58.81526 98.52782 59.16945 98.95462 59.52364 99.63911 60.10141 100.06592 60.4649 100.49274 60.8284 101.17722 61.41449 101.60402 61.78934 102.03084 62.16417 102.71532 62.77736 103.14214 63.16653 103.56894 63.55573 104.25343 64.19116 104.68024 64.59435 105.10706 64.99751 105.79153 65.65445 106.21834 66.07233 106.64516 66.49019 107.32964 67.17096 107.75645 67.60611 108.18326 68.04126 108.86774 68.75496 109.29456 69.20865 109.72136 69.66235 110.40585 70.40398 110.83266 70.8761 111.25948 71.34822 111.94395 72.11862 112.37077 72.61143 112.79758 73.10425 113.48206 73.91377 113.90887 74.42809 114.33568 74.9424 115.02016 75.78375 115.44696 76.31828 115.87378 76.85281 116.55826 77.72427 116.98506 78.28072 117.41188 78.83714 118.09636 79.74791 118.52318 80.32878 118.94998 80.90965 119.63448 81.86472 120.06128 82.46724 120.4881 83.06978 121.17258 84.04852 121.59938 84.67145 122.0262 85.29439 122.71068 86.31161 123.1375 86.957 123.5643 87.60239 124.24878 88.65646 124.6756 89.32297 125.1024 89.98947 125.7869 91.07692 126.2137 91.76076 126.64052 92.44461 127.325 93.55043 127.75182 94.25174 128.17862 94.95305 128.8631 96.09776 129.28992 96.8154 129.71672 97.53305 130.40122 98.69409 130.82802 99.42403 131.25484 100.15398 131.93932 101.33662 132.36612 102.07635 132.79294 102.81609 133.47742 104.00726 133.90424 104.75551 134.33104 105.50374 135.01554 106.71555 135.44234 107.46924 135.86916 108.22293 136.55364 109.43362 136.98044 110.18774 137.40726 110.94188 138.09174 112.15285 138.51856 112.90451 138.94536 113.65617 139.62984 114.85919 140.05666 115.60527 140.48346 116.35136 141.16796 117.54625 141.59476 118.28183 142.02158 119.01741 142.70606 120.18608 143.13288 120.90689 143.55968 121.6277 144.24416 122.77405 144.67098 123.47705 145.09778 124.18004 145.78227 125.29395 146.20908 125.97365 146.6359 126.65337 147.32038 127.7235 147.74718 128.37596 148.174 129.02843 148.85846 130.05512 149.28528 130.6762 149.71208 131.29727 150.39658 132.26688 150.82338 132.8523 151.2502 133.43773 151.93468 134.34963 152.36148 134.89562 152.7883 135.4416 153.47278 136.28655 153.8996 136.78754 154.3264 137.28852 155.01088 138.05323 155.4377 138.50644 155.8645 138.95966 156.549 139.65113 156.9758 140.05406 157.40262 140.45699 158.0871 141.06208 158.51392 141.41049 158.94072 141.75893 159.6252 142.27433 160.05202 142.56539 160.47882 142.85643 161.16332 143.2769 161.59012 143.50832 162.01694 143.73972 162.70142 144.06407 163.12822 144.23323 163.55504 144.4024 164.23952 144.62303 164.66634 144.72763 165.09314 144.83223 165.77764 144.9484 166.20444 144.98715 166.63126 145.02593 167.31574 145.03459 167.74254 145.00705 168.16936 144.97949 168.85384 144.88134 169.28066 144.78862 169.70746 144.6959 170.39194 144.49811 170.81876 144.33878 171.24556 144.17945 171.93006 143.8663 172.35686 143.64023 172.78368 143.41417 173.46816 143.00107 173.89498 142.7094 174.32178 142.41774 175.00626 141.89409 175.43308 141.53809 175.85988 141.18209 176.54438 140.56159 176.97118 140.1436 177.398 139.7256 178.08248 139.00305 178.50928 138.52547 178.9361 138.04788 179.62058 137.23552 180.0474 136.70146 180.4742 136.16739 181.15869 135.26593 181.5855 134.67632 182.01232 134.08669 182.6968 133.09181 183.1236 132.45177 183.55042 131.81174 184.23488 130.74897 184.6617 130.0633 185.0885 129.37764 185.77298 128.23925 186.1998 127.51003 186.6266 126.78079 187.3111 125.57628 187.7379 124.80753 188.16472 124.03876 188.8492 122.77344 189.27602 121.96921 189.70282 121.16498 190.3873 119.84575 190.81412 119.01108 191.24092 118.17642 191.92542 116.81485 192.35222 115.95348 192.77904 115.0921 193.46352 113.68674 193.89032 112.80287 194.31714 111.91899 195.00162 110.48236 195.42844 109.58305 195.85524 108.68376 196.53974 107.23474 196.96654 106.32127 197.39336 105.4078 198.07784 103.9218 198.50464 102.99939 198.93146 102.07698 199.61594 100.59914 200.04276 99.67317 200.46956 98.74722 201.15404 97.25291 201.58086 96.32576 202.00766 95.3986 202.69216 93.91408 203.11896 92.99089 203.54578 92.0677 204.23026 90.58939 204.65708 89.67203 205.08388 88.75465 205.76836 87.287 206.19518 86.37912 206.62198 85.47125 207.30648 84.02296 207.73328 83.12859 208.1601 82.2342 208.84458 80.8106 209.27138 79.93301 209.6982 79.05544 210.38268 77.66293 210.8095 76.80359 211.2363 75.94426 211.92079 74.57866 212.3476 73.7395 212.77442 72.90033 213.4589 71.57262 213.8857 70.75542 214.31252 69.93822 214.997 68.64246 215.42382 67.84962 215.85062 67.0568 216.5351 65.80724 216.96192 65.04115 217.38872 64.27509 218.07321 63.06847 218.50002 62.32828 218.92684 61.58807 219.6113 60.42064 220.03812 59.70624 220.46492 58.99184 221.1494 57.86649 221.57622 57.17935 222.00302 56.4922 222.68752 55.41249 223.11432 54.75368 223.54114 54.09485 224.22562 53.06157 224.65242 52.43095 225.07924 51.80032 225.76372 50.81187 226.19054 50.20857 226.61734 49.60527 227.30184 48.65918 227.72864 48.08263 228.15546 47.50609 228.83994 46.60355 229.26674 46.05318 229.69356 45.50279 230.37804 44.6413 230.80486 44.11583 231.23166 43.59036 231.91614 42.76578 232.34296 42.26587 232.76976 41.76598 233.45426 40.98755 233.88106 40.51279 234.30788 40.03804 234.99236 39.29672 235.41918 38.84406 235.84598 38.39139 236.53046 37.6816 236.95728 37.25015 237.38408 36.81873 238.06858 36.14569 238.49538 35.73454 238.9222 35.32338 239.60668 34.67793 240.03348 34.28683 240.4603 33.89574 241.14478 33.28748 241.5716 32.9157 241.9984 32.54391 242.68289 31.9632 243.1097 31.60727 243.53652 31.25133 244.221 30.68915 244.6478 30.35031 245.07462 30.01147 245.7591 29.48616 246.18592 29.16516 246.61272 28.84415 247.2972 28.34213 247.72402 28.03667 248.15082 27.7312 248.83531 27.2552 249.26212 26.96355 249.68894 26.67188 250.37342 26.21455 250.80023 25.93454 251.22704 25.65451 251.91152 25.21207 252.33834 24.94531 252.76514 24.67856 253.44963 24.26534 253.87644 24.0119 254.30326 23.75847 254.98772 23.36006 255.41452 23.1187 255.84134 22.87735 256.52583 22.5013 256.95265 22.27223 257.37944 22.04317 258.06394 21.68536 258.49076 21.46771 258.91758 21.25005 259.60206 20.90913 260.02885 20.70341 260.45567 20.4977 261.14015 20.17934 261.56697 19.98497 261.99378 19.7906 262.67826 19.48534 263.10508 19.30243 263.53187 19.11952 264.21635 18.83649 264.64317 18.6666 265.06999 18.49669 265.75447 18.23549 266.18128 18.07791 266.6081 17.92033 267.29258 17.67645 267.7194 17.53075 268.14619 17.38504 268.83067 17.16147 269.25749 17.02771 269.6843 16.89395 270.36878 16.68867 270.7956 16.56662 271.2224 16.44456 271.9069 16.25697 272.3337 16.14793 272.7605 16.03888 273.44499 15.87605 273.8718 15.7807 274.2986 15.68533 274.9831 15.54308 275.4099 15.46062 275.83674 15.37816 276.5212 15.25522 276.948 15.18639 277.37483 15.11755 278.0593 15.01886 278.4861 14.96451 278.91294 14.91014 279.5974 14.83627 280.02424 14.79451 280.45103 14.75275 281.1355 14.69286 281.56233 14.66345 281.98915 14.63405 282.6736 14.59804 283.10044 14.58257 283.52726 14.5671 284.21174 14.5539 284.63853 14.55186 285.06535 14.54982 285.74983 14.55743 286.17665 14.56787 286.60346 14.5783 287.28794 14.60391 287.71476 14.62712 288.14158 14.65033 288.82603 14.70064 289.25285 14.73526 289.67967 14.76987 290.36415 14.83067 290.79096 14.8767 291.21778 14.92271 291.90226 15.00952 292.32908 15.067 292.75587 15.12448 293.44035 15.22325 293.86717 15.29108 294.29396 15.35889 294.97846 15.4785 295.40528 15.55579 295.8321 15.63307 296.51658 15.76201 296.94337 15.84818 297.37019 15.93434 298.05467 16.08215 298.48149 16.17691 298.9083 16.27165 299.59278 16.42938 300.0196 16.53116 300.4464 16.63293 301.13087 16.80229 301.55769 16.91049 301.9845 17.01868 302.66899 17.19832 303.0958 17.31102 303.5226 17.4237 304.2071 17.60608 304.6339 17.7228 305.0607 17.83951 305.7452 18.03073 306.172 18.15231 306.59883 18.2739 307.2833 18.47382 307.7101 18.5991 308.13694 18.72441 308.8214 18.9284 309.2482 19.05545 309.67503 19.18248 310.3595 19.38716 310.78633 19.5148 311.21315 19.64244 311.8976 19.84782 312.32444 19.97545 312.75126 20.10309 313.4357 20.30734 313.86253 20.43481 314.28935 20.56229 314.97383 20.76712 315.40065 20.89417 315.82746 21.02121 316.51194 21.22578 316.93876 21.3505 317.36555 21.47519 318.05003 21.67159 318.47685 21.79298 318.90367 21.91438 319.58815 22.1073 320.01496 22.22551 320.44178 22.34372 321.12626 22.52962 321.55305 22.64507 321.97987 22.76053 323.09117 23.05771 323.09117 23.05771"/>
<path transform="matrix(1,0,0,-1,43.95066,221.45873)" d="M58.68617 36.85092C58.68617 37.9514 57.79408 38.84348 56.69362 38.84348 55.59314 38.84348 54.70107 37.9514 54.70107 36.85092 54.70107 35.75046 55.59314 34.85837 56.69362 34.85837 57.79408 34.85837 58.68617 35.75046 58.68617 36.85092ZM56.69362 36.85092"/>
<use data-text="r" xlink:href="#font_1_96" transform="matrix(8.966376,0,0,-8.966376,82.30331,196.67612)"/>
<use data-text="e" xlink:href="#font_1_50" transform="matrix(8.966376,0,0,-8.966376,85.90779,196.67612)"/>
<use data-text="a" xlink:href="#font_1_28" transform="matrix(8.966376,0,0,-8.966376,90.005428,196.67612)"/>
<use data-text="c" xlink:href="#font_1_43" transform="matrix(8.966376,0,0,-8.966376,94.61414,196.67612)"/>
<use data-text="t" xlink:href="#font_1_105" transform="matrix(8.966376,0,0,-8.966376,98.71178,196.67612)"/>
<use data-text="a" xlink:href="#font_1_28" transform="matrix(8.966376,0,0,-8.966376,102.298328,196.67612)"/>
<use data-text="n" xlink:href="#font_1_77" transform="matrix(8.966376,0,0,-8.966376,106.90704,196.67612)"/>
<use data-text="t" xlink:href="#font_1_105" transform="matrix(8.966376,0,0,-8.966376,111.77579,196.67612)"/>
<use data-text="s" xlink:href="#font_1_98" transform="matrix(8.966376,0,0,-8.966376,115.362339,196.67612)"/>
<path transform="matrix(1,0,0,-1,43.95066,221.45873)" d="M285.46067 14.17339C285.46067 15.27386 284.56858 16.16594 283.4681 16.16594 282.3676 16.16594 281.47554 15.27386 281.47554 14.17339 281.47554 13.07292 282.3676 12.18083 283.4681 12.18083 284.56858 12.18083 285.46067 13.07292 285.46067 14.17339ZM283.4681 14.17339"/>
<use data-text="p" xlink:href="#font_1_84" transform="matrix(8.966376,0,0,-8.966376,309.84443,220.06201)"/>
<use data-text="r" xlink:href="#font_1_96" transform="matrix(8.966376,0,0,-8.966376,314.96424,220.06201)"/>
<use data-text="o" xlink:href="#font_1_81" transform="matrix(8.966376,0,0,-8.966376,318.56874,220.06201)"/>
<use data-text="d" xlink:href="#font_1_47" transform="matrix(8.966376,0,0,-8.966376,323.43745,220.06201)"/>
<use data-text="u" xlink:href="#font_1_109" transform="matrix(8.966376,0,0,-8.966376,328.55726,220.06201)"/>
<use data-text="c" xlink:href="#font_1_43" transform="matrix(8.966376,0,0,-8.966376,333.67707,220.06201)"/>
<use data-text="t" xlink:href="#font_1_105" transform="matrix(8.966376,0,0,-8.966376,337.7747,220.06201)"/>
<use data-text="s" xlink:href="#font_1_98" transform="matrix(8.966376,0,0,-8.966376,341.36125,220.06201)"/>
<path transform="matrix(1,0,0,-1,43.95066,221.45873)" d="M172.07341 158.7423C172.07341 159.84276 171.18132 160.73485 170.08086 160.73485 168.98038 160.73485 168.0883 159.84276 168.0883 158.7423 168.0883 157.64182 168.98038 156.74974 170.08086 156.74974 171.18132 156.74974 172.07341 157.64182 172.07341 158.7423ZM170.08086 158.7423"/>
<use data-text="t" xlink:href="#font_1_105" transform="matrix(8.966376,0,0,-8.966376,179.65494,55.836885)"/>
<use data-text="r" xlink:href="#font_1_96" transform="matrix(8.966376,0,0,-8.966376,183.24149,55.836885)"/>
<use data-text="a" xlink:href="#font_1_28" transform="matrix(8.966376,0,0,-8.966376,186.84597,55.836885)"/>
<use data-text="n" xlink:href="#font_1_77" transform="matrix(8.966376,0,0,-8.966376,191.45468,55.836885)"/>
<use data-text="s" xlink:href="#font_1_98" transform="matrix(8.966376,0,0,-8.966376,196.57448,55.836885)"/>
<use data-text="i" xlink:href="#font_1_66" transform="matrix(8.966376,0,0,-8.966376,200.20586,55.836885)"/>
<use data-text="t" xlink:href="#font_1_105" transform="matrix(8.966376,0,0,-8.966376,202.77025,55.836885)"/>
<use data-text="i" xlink:href="#font_1_66" transform="matrix(8.966376,0,0,-8.966376,206.3568,55.836885)"/>
<use data-text="o" xlink:href="#font_1_81" transform="matrix(8.966376,0,0,-8.966376,208.92118,55.836885)"/>
<use data-text="n" xlink:href="#font_1_77" transform="matrix(8.966376,0,0,-8.966376,213.52989,55.836885)"/>
<use data-text="s" xlink:href="#font_1_98" transform="matrix(8.966376,0,0,-8.966376,221.72516,55.836885)"/>
<use data-text="t" xlink:href="#font_1_105" transform="matrix(8.966376,0,0,-8.966376,225.35655,55.836885)"/>
<use data-text="a" xlink:href="#font_1_28" transform="matrix(8.966376,0,0,-8.966376,228.9431,55.836885)"/>
<use data-text="t" xlink:href="#font_1_105" transform="matrix(8.966376,0,0,-8.966376,233.55182,55.836885)"/>
<use data-text="e" xlink:href="#font_1_50" transform="matrix(8.966376,0,0,-8.966376,237.13837,55.836885)"/>
<use data-text="&#x2021;" xlink:href="#font_2_1" transform="matrix(8.966376,0,0,-8.966376,244.3115,55.836885)"/>
<path transform="matrix(1,0,0,-1,43.95066,221.45873)" stroke-width=".3985" stroke-linecap="butt" stroke-dasharray="2.98883,2.98883" stroke-miterlimit="10" stroke-linejoin="miter" fill="none" stroke="#7f807f" d="M56.69362 36.85092H170.08086"/>
<path transform="matrix(1,0,0,-1,43.95066,221.45873)" stroke-width=".3985" stroke-linecap="butt" stroke-dasharray="2.98883,2.98883" stroke-miterlimit="10" stroke-linejoin="miter" fill="none" stroke="#7f807f" d="M170.08086 158.7423H187.0891"/>
<path transform="matrix(1,0,0,-1,43.95066,221.45873)" stroke-width=".3985" stroke-linecap="butt" stroke-dasharray="2.98883,2.98883" stroke-miterlimit="10" stroke-linejoin="miter" fill="none" stroke="#7f807f" d="M56.69362 36.85092H300.47633"/>
<path transform="matrix(1,0,0,-1,43.95066,221.45873)" stroke-width=".3985" stroke-linecap="butt" stroke-dasharray="2.98883,2.98883" stroke-miterlimit="10" stroke-linejoin="miter" fill="none" stroke="#7f807f" d="M283.4681 14.17339H300.47633"/>
<path transform="matrix(1,0,0,-1,43.95066,221.45873)" stroke-width="1.19553" stroke-linecap="butt" stroke-miterlimit="10" stroke-linejoin="miter" fill="none" stroke="#ff0000" d="M170.08086 44.62187V150.97135"/>
<path transform="matrix(0,1,1,0,214.03153,176.83686)" d="M5.30629 0C4.65466 .16344 1.79025 1.08963 0 2.09753V-2.09753C1.79025-1.08963 4.65466-.16344 5.30629 0Z" fill="#ff0000"/>
<path transform="matrix(0,1,1,0,214.03153,176.83686)" stroke-width="1.19553" stroke-linecap="butt" stroke-miterlimit="10" stroke-linejoin="miter" fill="none" stroke="#ff0000" d="M5.30629 0C4.65466 .16344 1.79025 1.08963 0 2.09753V-2.09753C1.79025-1.08963 4.65466-.16344 5.30629 0Z"/>
<path transform="matrix(0,-1,-1,-0,214.03153,70.48738)" d="M5.30629 0C4.65466 .16344 1.79025 1.08963 0 2.09753V-2.09753C1.79025-1.08963 4.65466-.16344 5.30629 0Z" fill="#ff0000"/>
<path transform="matrix(0,-1,-1,-0,214.03153,70.48738)" stroke-width="1.19553" stroke-linecap="butt" stroke-miterlimit="10" stroke-linejoin="miter" fill="none" stroke="#ff0000" d="M5.30629 0C4.65466 .16344 1.79025 1.08963 0 2.09753V-2.09753C1.79025-1.08963 4.65466-.16344 5.30629 0Z"/>
<use data-text="E" xlink:href="#font_3_1" transform="matrix(9.96264,0,0,-9.96264,219.94239,126.31886)" fill="#ff0000"/>
<use data-text="a" xlink:href="#font_4_1" transform="matrix(6.973848,0,0,-6.973848,227.29677,127.81325)" fill="#ff0000"/>
<path transform="matrix(1,0,0,-1,43.95066,221.45873)" stroke-width=".99628" stroke-linecap="butt" stroke-dasharray="2.98883,2.98883" stroke-miterlimit="10" stroke-linejoin="miter" fill="none" stroke="#0000ff" d="M300.47633 29.87698V21.14732"/>
<path transform="matrix(0,-1,-1,-0,344.42698,191.58174)" d="M4.92007 0C4.31586 .15076 1.65996 1.00505 0 1.93475V-1.93475C1.65996-1.00505 4.31586-.15076 4.92007 0Z" fill="#0000ff"/>
<path transform="matrix(0,-1,-1,-0,344.42698,191.58174)" stroke-width=".99628" stroke-linecap="butt" stroke-miterlimit="10" stroke-linejoin="miter" fill="none" stroke="#0000ff" d="M4.92007 0C4.31586 .15076 1.65996 1.00505 0 1.93475V-1.93475C1.65996-1.00505 4.31586-.15076 4.92007 0Z"/>
<path transform="matrix(0,1,1,0,344.42698,200.3114)" d="M4.92007 0C4.31586 .15076 1.65996 1.00505 0 1.93475V-1.93475C1.65996-1.00505 4.31586-.15076 4.92007 0Z" fill="#0000ff"/>
<path transform="matrix(0,1,1,0,344.42698,200.3114)" stroke-width=".99628" stroke-linecap="butt" stroke-miterlimit="10" stroke-linejoin="miter" fill="none" stroke="#0000ff" d="M4.92007 0C4.31586 .15076 1.65996 1.00505 0 1.93475V-1.93475C1.65996-1.00505 4.31586-.15076 4.92007 0Z"/>
<use data-text="&#x2206;" xlink:href="#font_5_1" transform="matrix(9.96264,0,0,-9.96264,350.23826,198.6033)" fill="#0000ff"/>
<use data-text="E" xlink:href="#font_3_1" transform="matrix(9.96264,0,0,-9.96264,358.5405,198.6033)" fill="#0000ff"/>
<use data-text="r" xlink:href="#font_6_2" transform="matrix(6.973848,0,0,-6.973848,365.89488,200.09769)" fill="#0000ff"/>
<use data-text="x" xlink:href="#font_6_3" transform="matrix(6.973848,0,0,-6.973848,369.00523,200.09769)" fill="#0000ff"/>
<use data-text="n" xlink:href="#font_6_1" transform="matrix(6.973848,0,0,-6.973848,373.1895,200.09769)" fill="#0000ff"/>
<path transform="matrix(1,0,0,-1,43.95066,221.45873)" stroke-width=".79701" stroke-linecap="butt" stroke-miterlimit="10" stroke-linejoin="miter" fill="none" stroke="#4c4d4c" d="M39.68535 43.93764C39.68535 47.85155 47.30008 51.02432 56.6936 51.02432 66.08711 51.02432 73.70184 47.85155 73.70184 50.11456"/>
<path transform="matrix(0,1,1,0,117.652507,171.34416)" d="M4.53381 0C3.97704 .13808 1.52963 .92049 0 1.77196V-1.77196C1.52963-.92049 3.97704-.13808 4.53381 0Z" fill="#4c4d4c"/>
<path transform="matrix(0,1,1,0,117.652507,171.34416)" stroke-width=".79701" stroke-linecap="butt" stroke-miterlimit="10" stroke-linejoin="miter" fill="none" stroke="#4c4d4c" d="M4.53381 0C3.97704 .13808 1.52963 .92049 0 1.77196V-1.77196C1.52963-.92049 3.97704-.13808 4.53381 0Z"/>
<use data-text="&#x03bd;" xlink:href="#font_7_1" transform="matrix(8.966376,0,0,-8.966376,96.296,164.30164)"/>
<use data-text="0" xlink:href="#font_8_2" transform="matrix(5.977584,0,0,-5.977584,100.841419,165.29788)"/>
<path transform="matrix(1,0,0,-1,43.95066,221.45873)" d="M302.0075 199.48334H185.55792C183.35698 199.48334 181.57282 197.69918 181.57282 195.49823V167.34058C181.57282 165.13964 183.35698 163.35547 185.55792 163.35547H302.0075C304.20845 163.35547 305.9926 165.13964 305.9926 167.34058V195.49823C305.9926 197.69918 304.20845 199.48334 302.0075 199.48334ZM181.57282 163.35547" fill="#ffffff"/>
<path transform="matrix(1,0,0,-1,43.95066,221.45873)" stroke-width=".49814" stroke-linecap="butt" stroke-miterlimit="10" stroke-linejoin="miter" fill="none" stroke="#4c4d4c" d="M302.0075 199.48334H185.55792C183.35698 199.48334 181.57282 197.69918 181.57282 195.49823V167.34058C181.57282 165.13964 183.35698 163.35547 185.55792 163.35547H302.0075C304.20845 163.35547 305.9926 165.13964 305.9926 167.34058V195.49823C305.9926 197.69918 304.20845 199.48334 302.0075 199.48334ZM181.57282 163.35547"/>
<use data-text="A" xlink:href="#font_1_27" transform="matrix(8.966376,0,0,-8.966376,228.84403,33.588457)"/>
<use data-text="r" xlink:href="#font_1_96" transform="matrix(8.966376,0,0,-8.966376,235.75711,33.588457)"/>
<use data-text="r" xlink:href="#font_1_96" transform="matrix(8.966376,0,0,-8.966376,239.36159,33.588457)"/>
<use data-text="h" xlink:href="#font_1_63" transform="matrix(8.966376,0,0,-8.966376,242.96608,33.588457)"/>
<use data-text="e" xlink:href="#font_1_50" transform="matrix(8.966376,0,0,-8.966376,248.08588,33.588457)"/>
<use data-text="n" xlink:href="#font_1_77" transform="matrix(8.966376,0,0,-8.966376,252.18352,33.588457)"/>
<use data-text="i" xlink:href="#font_1_66" transform="matrix(8.966376,0,0,-8.966376,257.3033,33.588457)"/>
<use data-text="u" xlink:href="#font_1_109" transform="matrix(8.966376,0,0,-8.966376,259.8677,33.588457)"/>
<use data-text="s" xlink:href="#font_1_98" transform="matrix(8.966376,0,0,-8.966376,264.9875,33.588457)"/>
<use data-text=":" xlink:href="#font_1_44" transform="matrix(8.966376,0,0,-8.966376,268.61888,33.588457)"/>
<use data-text="k" xlink:href="#font_7_6" transform="matrix(8.966376,0,0,-8.966376,275.28388,33.588457)"/>
<use data-text="=" xlink:href="#font_9_1" transform="matrix(8.966376,0,0,-8.966376,282.90458,33.588457)"/>
<use data-text="A" xlink:href="#font_7_2" transform="matrix(8.966376,0,0,-8.966376,292.6319,33.588457)"/>
<use data-text="e" xlink:href="#font_7_4" transform="matrix(8.966376,0,0,-8.966376,301.06929,33.588457)"/>
<use data-text="&#x2212;" xlink:href="#font_10_1" transform="matrix(5.977584,0,0,-5.977584,305.3622,29.77945)"/>
<use data-text="E" xlink:href="#font_11_3" transform="matrix(5.977584,0,0,-5.977584,311.11839,29.77945)"/>
<use data-text="a" xlink:href="#font_12_2" transform="matrix(4.98132,0,0,-4.98132,316.4968,30.775712)"/>
<use data-text="/" xlink:href="#font_11_1" transform="matrix(5.977584,0,0,-5.977584,320.8526,29.77945)"/>
<use data-text="R" xlink:href="#font_11_5" transform="matrix(5.977584,0,0,-5.977584,324.6663,29.77945)"/>
<use data-text="T" xlink:href="#font_11_6" transform="matrix(5.977584,0,0,-5.977584,330.19557,29.77945)"/>
<use data-text="E" xlink:href="#font_1_49" transform="matrix(8.966376,0,0,-8.966376,228.84403,48.701417)"/>
<use data-text="y" xlink:href="#font_1_118" transform="matrix(8.966376,0,0,-8.966376,235.11151,48.701417)"/>
<use data-text="r" xlink:href="#font_1_96" transform="matrix(8.966376,0,0,-8.966376,239.97129,48.701417)"/>
<use data-text="i" xlink:href="#font_1_66" transform="matrix(8.966376,0,0,-8.966376,243.57578,48.701417)"/>
<use data-text="n" xlink:href="#font_1_77" transform="matrix(8.966376,0,0,-8.966376,246.14015,48.701417)"/>
<use data-text="g" xlink:href="#font_1_59" transform="matrix(8.966376,0,0,-8.966376,251.25997,48.701417)"/>
<use data-text=":" xlink:href="#font_1_44" transform="matrix(8.966376,0,0,-8.966376,255.86869,48.701417)"/>
<use data-text="k" xlink:href="#font_7_6" transform="matrix(8.966376,0,0,-8.966376,262.5337,48.701417)"/>
<use data-text="=" xlink:href="#font_9_1" transform="matrix(8.966376,0,0,-8.966376,270.15437,48.701417)"/>
<use data-text="k" xlink:href="#font_7_6" transform="matrix(8.966376,0,0,-8.966376,281.0772,42.90251)"/>
<use data-text="B" xlink:href="#font_11_2" transform="matrix(5.977584,0,0,-5.977584,285.87519,43.898805)"/>
<use data-text="T" xlink:href="#font_7_3" transform="matrix(8.966376,0,0,-8.966376,292.19795,42.90251)"/>
<path transform="matrix(1,0,0,-1,256.89338,-100.75325)" stroke-width=".378585" stroke-linecap="butt" stroke-miterlimit="10" stroke-linejoin="miter" fill="none" stroke="#000000" d="M24.18386-147.21308H41.96049"/>
<use data-text="h" xlink:href="#font_7_5" transform="matrix(8.966376,0,0,-8.966376,287.31059,54.782625)"/>
<use data-text="e" xlink:href="#font_7_4" transform="matrix(8.966376,0,0,-8.966376,301.58528,48.701417)"/>
<use data-text="&#x2212;" xlink:href="#font_10_1" transform="matrix(5.977584,0,0,-5.977584,305.86955,44.89241)"/>
<use data-text="&#x2206;" xlink:href="#font_8_1" transform="matrix(5.977584,0,0,-5.977584,311.6257,44.89241)"/>
<use data-text="G" xlink:href="#font_11_4" transform="matrix(5.977584,0,0,-5.977584,317.6032,44.89241)"/>
<use data-text="&#x2021;" xlink:href="#font_13_1" transform="matrix(4.98132,0,0,-4.98132,323.29933,42.384019)"/>
<use data-text="/" xlink:href="#font_11_1" transform="matrix(5.977584,0,0,-5.977584,327.11836,44.89241)"/>
<use data-text="k" xlink:href="#font_11_7" transform="matrix(5.977584,0,0,-5.977584,330.93208,44.89241)"/>
<use data-text="B" xlink:href="#font_12_1" transform="matrix(4.98132,0,0,-4.98132,334.88783,46.237398)"/>
<use data-text="T" xlink:href="#font_11_6" transform="matrix(5.977584,0,0,-5.977584,340.78416,44.89241)"/>
</svg>
